# feature-edge wireframe (30 derece), ISO 8855, metre
o wheel_fl_wire
v 0.51300 0.14900 0.01100
v 0.51200 0.14900 -0.03600
v 0.51000 0.14900 0.05800
v 0.50700 0.14900 -0.08200
v 0.50100 -0.15000 0.10400
v 0.49900 0.14700 -0.12800
v 0.49700 0.14900 -0.12800
v 0.49500 -0.15000 -0.12700
v 0.48900 -0.15000 0.14900
v 0.48500 0.14700 -0.17300
v 0.48400 -0.13800 0.19700
v 0.48200 -0.15000 -0.17200
v 0.47400 -0.15000 0.19300
v 0.46400 -0.15000 -0.21500
v 0.45600 0.14900 0.23600
v 0.45400 -0.15000 0.23500
v 0.44900 -0.15200 0.18300
v 0.44300 -0.15000 -0.25600
v 0.43200 0.14900 0.27600
v 0.43100 -0.15000 0.27500
v 0.41900 0.14900 -0.29700
v 0.41800 -0.15000 -0.29600
v 0.40400 -0.15000 0.31300
v 0.39000 0.14900 -0.33400
v 0.37300 0.14900 0.35100
v 0.37200 -0.15000 0.35000
v 0.35900 0.14900 -0.36800
v 0.34200 0.14900 0.38300
v 0.32400 0.14900 -0.39900
v 0.32300 0.12900 0.00000
v 0.32300 0.16500 0.00000
v 0.32200 0.16500 0.00000
v 0.32200 0.16600 0.00000
v 0.32200 0.16700 0.00000
v 0.32100 0.16700 0.00000
v 0.32000 0.16700 0.00000
v 0.32000 0.16800 0.00000
v 0.31900 0.12900 -0.05100
v 0.31900 0.16500 -0.05100
v 0.31900 0.16800 0.00000
v 0.31900 0.12900 0.05000
v 0.31900 0.16500 0.05000
v 0.31800 0.16500 -0.05100
v 0.31800 0.16600 -0.05100
v 0.31800 0.16800 0.00000
v 0.31800 0.16500 0.05000
v 0.31800 0.16600 0.05000
v 0.31700 0.16700 -0.05100
v 0.31700 0.16700 0.05000
v 0.31600 0.16700 -0.05000
v 0.31600 0.16800 -0.05000
v 0.31600 0.16700 0.05000
v 0.31600 0.16800 0.05000
v 0.31500 0.16800 -0.05000
v 0.31400 0.16800 -0.05000
v 0.31400 0.16700 0.00000
v 0.31400 0.16800 0.00000
v 0.31400 0.16800 0.05000
v 0.31300 0.16700 0.00000
v 0.31200 0.16600 0.00000
v 0.31200 0.16700 0.00000
v 0.31100 0.15300 0.00000
v 0.31100 0.16500 0.00000
v 0.31100 0.16600 0.00000
v 0.31100 0.16800 0.04900
v 0.31000 0.16800 -0.05000
v 0.31000 0.16700 -0.04900
v 0.31000 0.16800 -0.04900
v 0.31000 0.15100 0.00000
v 0.31000 0.15200 0.00000
v 0.31000 0.15300 0.00000
v 0.31000 0.16700 0.04900
v 0.31000 0.16800 0.04900
v 0.30900 0.16700 -0.04900
v 0.30900 0.15100 0.00000
v 0.30900 0.16700 0.04900
v 0.30800 0.16600 -0.04900
v 0.30800 0.16700 -0.04900
v 0.30800 0.15000 0.00000
v 0.30800 0.16600 0.04900
v 0.30800 0.16700 0.04900
v 0.30700 0.12900 -0.10000
v 0.30700 0.16500 -0.10000
v 0.30700 0.15300 -0.04900
v 0.30700 0.16300 -0.04900
v 0.30700 0.16500 -0.04900
v 0.30700 0.16600 -0.04900
v 0.30700 0.15300 0.04800
v 0.30700 0.16400 0.04800
v 0.30700 0.16500 0.04800
v 0.30700 0.16600 0.04900
v 0.30700 0.12900 0.10000
v 0.30700 0.16500 0.10000
v 0.30600 0.16500 -0.10000
v 0.30600 0.16600 -0.10000
v 0.30600 0.16700 -0.10000
v 0.30600 0.15100 -0.04900
v 0.30600 0.15200 -0.04900
v 0.30600 0.15100 0.04800
v 0.30600 0.15200 0.04800
v 0.30600 0.16600 0.09900
v 0.30600 0.16700 0.09900
v 0.30600 0.16500 0.10000
v 0.30500 0.16700 -0.10000
v 0.30500 0.16700 -0.09900
v 0.30500 0.15100 -0.04900
v 0.30500 0.15100 0.04800
v 0.30500 0.16700 0.09900
v 0.30500 0.14900 0.41200
v 0.30400 0.16700 -0.09900
v 0.30400 0.16800 -0.09900
v 0.30400 0.15000 -0.04900
v 0.30400 0.15000 0.04800
v 0.30400 0.16700 0.09900
v 0.30400 0.16800 0.09900
v 0.30400 -0.15000 0.41100
v 0.30300 0.16800 -0.09900
v 0.30300 0.16800 0.09800
v 0.30300 0.16800 0.09900
v 0.30200 0.16800 -0.09900
v 0.30000 0.16800 -0.09800
v 0.29900 0.16800 -0.09800
v 0.29900 0.16800 0.09700
v 0.29800 0.16700 -0.09700
v 0.29800 0.16800 -0.09700
v 0.29800 0.16700 0.09700
v 0.29800 0.16800 0.09700
v 0.29700 0.16700 -0.09700
v 0.29700 0.16700 0.09600
v 0.29700 0.16700 0.09700
v 0.29600 0.16400 -0.09700
v 0.29600 0.16500 -0.09700
v 0.29600 0.16600 -0.09700
v 0.29600 0.16400 0.09600
v 0.29600 0.16500 0.09600
v 0.29600 0.16600 0.09600
v 0.29500 0.16300 -0.09700
v 0.29500 0.15200 -0.09600
v 0.29500 0.15300 -0.09600
v 0.29500 0.15200 0.09600
v 0.29500 0.15300 0.09600
v 0.29500 0.16300 0.09600
v 0.29400 0.15100 -0.09600
v 0.29400 0.15100 0.09500
v 0.29400 0.15100 0.09600
v 0.29300 0.15000 -0.09600
v 0.29300 0.15100 -0.09600
v 0.29300 0.15000 0.09500
v 0.29300 0.15100 0.09500
v 0.29200 0.15000 -0.09500
v 0.29200 0.15000 0.09500
v 0.28900 0.15000 0.00000
v 0.28800 0.15000 0.00000
v 0.28700 0.12900 -0.14700
v 0.28700 0.16500 -0.14700
v 0.28700 0.16600 -0.14700
v 0.28700 0.14900 0.00000
v 0.28700 0.16500 0.14600
v 0.28700 0.16600 0.14600
v 0.28700 0.12900 0.14700
v 0.28700 0.16500 0.14700
v 0.28600 0.14900 -0.42700
v 0.28600 0.16700 -0.14700
v 0.28600 0.16700 -0.14600
v 0.28600 0.15000 -0.04600
v 0.28600 0.12400 0.00000
v 0.28600 0.12600 0.00000
v 0.28600 0.14700 0.00000
v 0.28600 0.14800 0.00000
v 0.28600 0.16700 0.14600
v 0.28500 0.16700 -0.14600
v 0.28500 0.16800 -0.14600
v 0.28500 0.12100 0.00000
v 0.28500 0.12200 0.00000
v 0.28500 0.12300 0.00000
v 0.28500 0.12400 0.00000
v 0.28500 0.15000 0.04500
v 0.28500 0.16700 0.14500
v 0.28500 0.16800 0.14500
v 0.28500 0.16700 0.14600
v 0.28400 0.16800 -0.14500
v 0.28400 0.14900 -0.04500
v 0.28400 0.15000 -0.04500
v 0.28400 0.12000 0.00000
v 0.28400 0.12100 0.00000
v 0.28400 0.14900 0.04500
v 0.28400 0.15000 0.04500
v 0.28400 0.16800 0.14500
v 0.28300 0.14800 -0.04500
v 0.28300 0.14900 -0.04500
v 0.28300 0.14800 0.04500
v 0.28300 0.14900 0.04500
v 0.28200 0.12300 -0.04500
v 0.28200 0.12400 -0.04500
v 0.28200 0.12500 -0.04500
v 0.28200 0.12600 -0.04500
v 0.28200 0.14700 -0.04500
v 0.28200 0.12300 0.04400
v 0.28200 0.12400 0.04400
v 0.28200 0.12600 0.04500
v 0.28200 0.14700 0.04500
v 0.28100 0.16800 -0.14400
v 0.28100 0.12000 -0.04500
v 0.28100 0.12100 -0.04500
v 0.28100 0.12200 -0.04500
v 0.28100 0.12000 0.04400
v 0.28100 0.12100 0.04400
v 0.28100 0.12200 0.04400
v 0.28100 0.16800 0.14300
v 0.28000 -0.13800 -0.44200
v 0.28000 0.16800 -0.14300
v 0.28000 0.12000 -0.04500
v 0.28000 0.12000 0.04400
v 0.28000 0.16800 0.14300
v 0.27900 0.16700 -0.14300
v 0.27900 0.16700 0.14200
v 0.27800 0.16700 -0.14300
v 0.27800 0.16600 -0.14200
v 0.27800 0.16700 -0.14200
v 0.27800 0.16600 0.14200
v 0.27800 0.16700 0.14200
v 0.27700 0.15300 -0.14200
v 0.27700 0.16400 -0.14200
v 0.27700 0.16500 -0.14200
v 0.27700 0.16600 -0.14200
v 0.27700 0.15300 0.14100
v 0.27700 0.16300 0.14100
v 0.27700 0.16500 0.14100
v 0.27700 0.16600 0.14100
v 0.27700 0.16600 0.14200
v 0.27600 0.15300 -0.14200
v 0.27600 0.15100 -0.14100
v 0.27600 0.15200 -0.14100
v 0.27600 0.15100 0.14100
v 0.27600 0.15200 0.14100
v 0.27600 0.15300 0.14100
v 0.27500 0.15100 -0.14100
v 0.27500 0.15000 0.08900
v 0.27500 0.15100 0.14000
v 0.27400 0.15000 -0.14000
v 0.27400 0.15000 -0.09000
v 0.27400 0.15000 -0.08900
v 0.27400 0.15000 0.08900
v 0.27400 0.15000 0.14000
v 0.27300 0.14900 -0.08900
v 0.27300 0.14900 0.08900
v 0.27200 0.12600 -0.08900
v 0.27200 0.14800 -0.08900
v 0.27200 0.14900 -0.08900
v 0.27200 0.12600 0.08800
v 0.27200 0.14700 0.08800
v 0.27200 0.14800 0.08800
v 0.27200 0.14900 0.08800
v 0.27100 0.12200 -0.08900
v 0.27100 0.12300 -0.08900
v 0.27100 0.12400 -0.08900
v 0.27100 0.12500 -0.08900
v 0.27100 0.12100 -0.08800
v 0.27100 0.12200 -0.08800
v 0.27100 0.12100 0.08800
v 0.27100 0.12200 0.08800
v 0.27100 0.12300 0.08800
v 0.27100 0.12400 0.08800
v 0.27100 0.12500 0.08800
v 0.27000 0.12000 -0.08800
v 0.27000 0.12100 -0.08800
v 0.27000 0.12000 0.08800
v 0.27000 0.12100 0.08800
v 0.26900 0.09700 0.00000
v 0.26900 0.09800 0.00000
v 0.26800 0.09700 0.00000
v 0.26800 0.09800 0.00000
v 0.26700 0.09900 -0.04300
v 0.26700 0.09800 0.00000
v 0.26700 0.09900 0.00000
v 0.26700 0.10500 0.00000
v 0.26700 0.10600 0.00000
v 0.26700 0.10700 0.00000
v 0.26700 0.10800 0.00000
v 0.26600 0.09800 -0.04200
v 0.26600 0.10800 0.00000
v 0.26600 0.10900 0.00000
v 0.26600 0.09800 0.04200
v 0.26600 -0.15000 0.43700
v 0.26500 0.09700 -0.04200
v 0.26500 0.11000 0.00000
v 0.26500 0.09700 0.04200
v 0.26400 0.09700 -0.04200
v 0.26400 0.09800 -0.04200
v 0.26400 0.09900 -0.04200
v 0.26400 0.10500 -0.04200
v 0.26400 0.10600 -0.04200
v 0.26400 0.10700 -0.04200
v 0.26400 0.11100 0.00000
v 0.26400 0.09700 0.04200
v 0.26400 0.09800 0.04200
v 0.26400 0.09900 0.04200
v 0.26400 0.10500 0.04200
v 0.26400 0.10600 0.04200
v 0.26400 0.10700 0.04200
v 0.26300 0.10700 -0.04200
v 0.26300 0.10800 -0.04200
v 0.26300 0.10900 -0.04200
v 0.26300 0.11100 0.00000
v 0.26300 0.10800 0.04100
v 0.26300 0.10900 0.04100
v 0.26300 0.10700 0.04200
v 0.26300 0.10800 0.04200
v 0.26200 0.10900 -0.04200
v 0.26200 0.11000 -0.04200
v 0.26200 0.11200 0.00000
v 0.26200 0.10900 0.04100
v 0.26200 0.11000 0.04100
v 0.26100 0.12900 -0.19000
v 0.26100 0.16500 -0.19000
v 0.26100 0.16600 -0.19000
v 0.26100 0.11000 -0.04200
v 0.26100 0.11100 -0.04200
v 0.26100 0.11200 0.00000
v 0.26100 0.11000 0.04100
v 0.26100 0.11100 0.04100
v 0.26100 0.12900 0.19000
v 0.26100 0.16500 0.19000
v 0.26100 0.16600 0.19000
v 0.26000 -0.15200 -0.41000
v 0.26000 0.16600 -0.19000
v 0.26000 0.16700 -0.19000
v 0.26000 0.11100 -0.04200
v 0.26000 0.11300 0.00000
v 0.26000 0.11100 0.04100
v 0.26000 0.16600 0.18900
v 0.26000 0.16700 0.18900
v 0.25900 0.16700 -0.18900
v 0.25900 0.16800 -0.18900
v 0.25900 0.11100 -0.04100
v 0.25900 0.11100 0.04100
v 0.25900 0.16700 0.18800
v 0.25900 0.16800 0.18800
v 0.25900 0.16700 0.18900
v 0.25800 0.16800 -0.18800
v 0.25800 0.11200 -0.04100
v 0.25800 0.11200 0.04100
v 0.25800 0.16800 0.18700
v 0.25700 0.16800 -0.18700
v 0.25700 0.15000 -0.13200
v 0.25700 0.15000 -0.13100
v 0.25700 0.09900 -0.08400
v 0.25700 0.11300 -0.04100
v 0.25700 0.11300 0.04000
v 0.25700 0.11300 0.04100
v 0.25700 0.15000 0.13100
v 0.25600 0.14900 -0.13100
v 0.25600 0.15000 -0.13100
v 0.25600 0.09800 -0.08400
v 0.25600 0.11300 -0.04100
v 0.25600 0.11300 0.04000
v 0.25600 0.09800 0.08300
v 0.25600 0.14900 0.13000
v 0.25600 0.15000 0.13100
v 0.25500 0.16800 -0.18600
v 0.25500 0.14800 -0.13100
v 0.25500 0.14900 -0.13100
v 0.25500 0.14800 -0.13000
v 0.25500 0.09700 -0.08300
v 0.25500 0.09700 0.08300
v 0.25500 0.14800 0.13000
v 0.25500 0.14900 0.13000
v 0.25500 0.16800 0.18600
v 0.25400 0.16800 -0.18600
v 0.25400 0.16800 -0.18500
v 0.25400 0.12200 -0.13000
v 0.25400 0.12300 -0.13000
v 0.25400 0.12400 -0.13000
v 0.25400 0.12600 -0.13000
v 0.25400 0.09700 -0.08300
v 0.25400 0.09800 -0.08300
v 0.25400 0.09900 -0.08300
v 0.25400 0.10500 -0.08300
v 0.25400 0.10600 -0.08300
v 0.25400 0.10700 -0.08300
v 0.25400 0.10500 0.08200
v 0.25400 0.10600 0.08200
v 0.25400 0.10700 0.08200
v 0.25400 0.09700 0.08300
v 0.25400 0.09800 0.08300
v 0.25400 0.09900 0.08300
v 0.25400 0.10500 0.08300
v 0.25400 0.12200 0.12900
v 0.25400 0.12300 0.13000
v 0.25400 0.12400 0.13000
v 0.25400 0.12500 0.13000
v 0.25400 0.12600 0.13000
v 0.25400 0.16800 0.18500
v 0.25300 0.16700 -0.18500
v 0.25300 0.16700 -0.18400
v 0.25300 0.12000 -0.13000
v 0.25300 0.12100 -0.13000
v 0.25300 0.12000 -0.12900
v 0.25300 0.10800 -0.08300
v 0.25300 0.10900 -0.08300
v 0.25300 0.10800 0.08200
v 0.25300 0.10900 0.08200
v 0.25300 0.12000 0.12900
v 0.25300 0.12100 0.12900
v 0.25300 0.16700 0.18400
v 0.25200 0.16500 -0.18400
v 0.25200 0.16600 -0.18400
v 0.25200 0.16700 -0.18400
v 0.25200 0.10900 -0.08300
v 0.25200 0.11000 -0.08200
v 0.25200 0.10900 0.08200
v 0.25200 0.11000 0.08200
v 0.25200 0.16500 0.18300
v 0.25200 0.16600 0.18300
v 0.25200 0.16700 0.18400
v 0.25100 0.16500 -0.18400
v 0.25100 0.15200 -0.18300
v 0.25100 0.15300 -0.18300
v 0.25100 0.16200 -0.18300
v 0.25100 0.16400 -0.18300
v 0.25100 0.11000 -0.08200
v 0.25100 0.11100 -0.08200
v 0.25100 0.11000 0.08200
v 0.25100 0.11100 0.08200
v 0.25100 0.15200 0.18200
v 0.25100 0.15200 0.18300
v 0.25100 0.15300 0.18300
v 0.25100 0.16500 0.18300
v 0.25000 0.15100 -0.18300
v 0.25000 0.15100 -0.18200
v 0.25000 0.11100 -0.08200
v 0.25000 0.11100 0.08100
v 0.25000 0.15100 0.18200
v 0.24900 0.15000 -0.18200
v 0.24900 0.15100 -0.18200
v 0.24900 0.11200 -0.08100
v 0.24900 0.11200 0.08100
v 0.24900 0.15000 0.18100
v 0.24900 0.15100 0.18200
v 0.24800 0.11200 -0.08100
v 0.24800 0.11200 0.08100
v 0.24700 0.14700 -0.45200
v 0.24700 0.11300 -0.08100
v 0.24700 0.11300 0.08000
v 0.24600 0.14900 -0.45100
v 0.24500 -0.15000 -0.44900
v 0.24000 0.09800 -0.12300
v 0.24000 0.09800 0.12200
v 0.23900 0.09700 -0.12300
v 0.23900 0.09800 -0.12300
v 0.23900 0.09700 -0.12200
v 0.23900 0.09700 0.12200
v 0.23900 0.09800 0.12200
v 0.23800 0.09700 -0.12200
v 0.23800 0.09800 -0.12200
v 0.23800 0.09900 -0.12200
v 0.23800 0.10500 -0.12200
v 0.23800 0.10600 -0.12200
v 0.23800 0.10700 -0.12200
v 0.23800 0.09800 0.12100
v 0.23800 0.09900 0.12100
v 0.23800 0.10500 0.12100
v 0.23800 0.10600 0.12100
v 0.23800 0.10700 0.12100
v 0.23800 0.09700 0.12200
v 0.23800 0.09800 0.12200
v 0.23700 0.10800 -0.12200
v 0.23700 0.10800 -0.12100
v 0.23700 0.10900 -0.12100
v 0.23700 0.10800 0.12100
v 0.23700 0.10900 0.12100
v 0.23600 0.10900 -0.12100
v 0.23600 0.11000 -0.12100
v 0.23600 0.11000 0.12000
v 0.23600 0.10900 0.12100
v 0.23500 0.11100 -0.12000
v 0.23500 0.11100 0.12000
v 0.23400 0.15000 -0.17100
v 0.23400 0.11100 -0.12000
v 0.23400 0.11100 0.11900
v 0.23300 0.15000 -0.17000
v 0.23300 0.11200 -0.11900
v 0.23300 0.11200 0.11900
v 0.23300 0.15000 0.17000
v 0.23200 0.14900 -0.17000
v 0.23200 0.15000 -0.17000
v 0.23200 0.14800 -0.16900
v 0.23200 0.14900 -0.16900
v 0.23200 0.11200 -0.11900
v 0.23200 0.11300 -0.11900
v 0.23200 0.11300 0.11800
v 0.23200 0.11200 0.11900
v 0.23200 0.14800 0.16900
v 0.23200 0.14900 0.16900
v 0.23200 0.15000 0.16900
v 0.23100 0.12400 -0.16900
v 0.23100 0.12600 -0.16900
v 0.23100 0.14800 -0.16900
v 0.23100 0.12300 -0.16800
v 0.23100 0.12400 -0.16800
v 0.23100 0.11300 -0.11800
v 0.23100 0.11300 0.11800
v 0.23100 0.12300 0.16800
v 0.23100 0.12400 0.16800
v 0.23100 0.12600 0.16800
v 0.23100 0.14800 0.16800
v 0.23000 0.12100 -0.16800
v 0.23000 0.12200 -0.16800
v 0.23000 0.12100 0.16700
v 0.23000 0.12100 0.16800
v 0.23000 0.12200 0.16800
v 0.22900 0.12000 -0.16800
v 0.22900 0.11800 -0.16700
v 0.22900 0.12000 0.16700
v 0.22800 0.12900 -0.22900
v 0.22800 0.16500 -0.22900
v 0.22800 0.16600 -0.22900
v 0.22800 0.12900 0.22800
v 0.22800 0.16500 0.22800
v 0.22800 0.16600 0.22800
v 0.22700 0.16600 -0.22800
v 0.22700 0.16700 -0.22800
v 0.22700 0.16700 0.22700
v 0.22700 0.16600 0.22800
v 0.22700 0.16700 0.22800
v 0.22600 0.16700 -0.22700
v 0.22600 0.16800 -0.22700
v 0.22600 0.16800 0.22600
v 0.22600 0.16700 0.22700
v 0.22500 0.16800 -0.22600
v 0.22500 0.16800 0.22600
v 0.22500 -0.15000 0.45900
v 0.22400 0.16800 -0.22500
v 0.22300 0.16800 -0.22400
v 0.22200 0.16800 -0.22300
v 0.22200 0.16800 0.22200
v 0.22100 0.16700 -0.22200
v 0.22100 0.16700 0.22100
v 0.22100 0.16700 0.22200
v 0.22000 0.16300 -0.22100
v 0.22000 0.16500 -0.22100
v 0.22000 0.16600 -0.22100
v 0.22000 0.16700 -0.22100
v 0.22000 0.16200 -0.22000
v 0.22000 0.16500 0.22000
v 0.22000 0.16600 0.22000
v 0.22000 0.16600 0.22100
v 0.22000 0.16700 0.22100
v 0.21900 0.15100 -0.22000
v 0.21900 0.15200 -0.22000
v 0.21900 0.15300 -0.22000
v 0.21900 0.15100 0.21900
v 0.21900 0.15200 0.21900
v 0.21900 0.15200 0.22000
v 0.21900 0.15300 0.22000
v 0.21900 0.15400 0.22000
v 0.21800 0.15000 -0.21900
v 0.21800 0.15100 -0.21900
v 0.21800 0.09800 -0.15900
v 0.21800 0.09800 0.15900
v 0.21800 0.15000 0.21800
v 0.21800 0.15100 0.21800
v 0.21800 0.15100 0.21900
v 0.21700 0.09700 -0.15900
v 0.21700 0.09800 -0.15900
v 0.21700 0.09700 -0.15800
v 0.21700 0.09700 0.15800
v 0.21700 0.09800 0.15800
v 0.21700 0.15000 0.21800
v 0.21600 0.15000 -0.21700
v 0.21600 0.09700 -0.15800
v 0.21600 0.09800 -0.15800
v 0.21600 0.09900 -0.15800
v 0.21600 0.10500 -0.15800
v 0.21600 0.10600 -0.15800
v 0.21600 0.10700 -0.15800
v 0.21600 0.10800 -0.15700
v 0.21600 0.09800 0.15700
v 0.21600 0.09900 0.15700
v 0.21600 0.10500 0.15700
v 0.21600 0.10600 0.15700
v 0.21600 0.10700 0.15700
v 0.21600 0.10800 0.15700
v 0.21600 0.09700 0.15800
v 0.21500 0.10800 -0.15700
v 0.21500 0.10900 -0.15700
v 0.21500 0.10900 0.15600
v 0.21500 0.10800 0.15700
v 0.21400 0.11000 -0.15700
v 0.21400 0.11000 -0.15600
v 0.21400 0.11000 0.15600
v 0.21300 0.11100 -0.15600
v 0.21300 0.11100 0.15500
v 0.21200 0.11100 -0.15500
v 0.21200 0.11200 -0.15500
v 0.21200 0.11200 0.15400
v 0.21200 0.11100 0.15500
v 0.21100 0.11200 -0.15400
v 0.21100 0.11300 -0.15400
v 0.21100 0.11300 0.15300
v 0.21100 0.11200 0.15400
v 0.21000 0.11300 -0.15400
v 0.21000 0.11300 -0.15300
v 0.21000 0.11300 0.15300
v 0.20500 0.14700 -0.47300
v 0.20400 -0.15000 -0.47000
v 0.20400 0.15000 -0.20500
v 0.20300 0.14900 -0.20400
v 0.20300 0.15000 -0.20400
v 0.20300 0.14900 0.20300
v 0.20300 0.15000 0.20300
v 0.20300 0.15000 0.20400
v 0.20200 0.12400 -0.20300
v 0.20200 0.12500 -0.20300
v 0.20200 0.12600 -0.20300
v 0.20200 0.14800 -0.20300
v 0.20200 0.14900 -0.20300
v 0.20200 0.12400 0.20200
v 0.20200 0.12600 0.20200
v 0.20200 0.14700 0.20200
v 0.20200 0.14800 0.20300
v 0.20200 0.14900 0.20300
v 0.20100 0.12100 -0.20200
v 0.20100 0.12200 -0.20200
v 0.20100 0.12300 -0.20200
v 0.20100 0.12100 0.20100
v 0.20100 0.12200 0.20200
v 0.20100 0.12300 0.20200
v 0.20000 0.11800 -0.20100
v 0.20000 0.12000 -0.20100
v 0.19600 -0.13800 -0.48500
v 0.19000 0.09700 -0.19100
v 0.19000 0.09800 -0.19100
v 0.19000 0.09700 0.19000
v 0.19000 0.09800 0.19000
v 0.19000 0.09800 0.19100
v 0.18900 0.12900 -0.26200
v 0.18900 0.16500 -0.26200
v 0.18900 0.16600 -0.26100
v 0.18900 0.16700 -0.26100
v 0.18900 0.09700 -0.19000
v 0.18900 0.09800 -0.19000
v 0.18900 0.09900 -0.19000
v 0.18900 0.10500 -0.19000
v 0.18900 0.10600 -0.19000
v 0.18900 0.09700 0.18900
v 0.18900 0.09800 0.18900
v 0.18900 0.09900 0.18900
v 0.18900 0.10500 0.18900
v 0.18900 0.10600 0.18900
v 0.18900 0.09700 0.19000
v 0.18900 0.16700 0.26000
v 0.18900 0.12900 0.26100
v 0.18900 0.16500 0.26100
v 0.18900 0.16600 0.26100
v 0.18800 0.16700 -0.26100
v 0.18800 0.16700 -0.26000
v 0.18800 0.16800 -0.25900
v 0.18800 0.10700 -0.18900
v 0.18800 0.10800 -0.18900
v 0.18800 0.10900 -0.18900
v 0.18800 0.10800 0.18800
v 0.18800 0.10900 0.18800
v 0.18800 0.10700 0.18900
v 0.18800 0.10800 0.18900
v 0.18800 0.16700 0.25900
v 0.18800 0.16800 0.25900
v 0.18800 0.16700 0.26000
v 0.18700 0.16800 -0.25900
v 0.18700 0.16800 -0.25800
v 0.18700 0.11000 -0.18800
v 0.18700 0.11000 0.18700
v 0.18700 0.11000 0.18800
v 0.18700 0.16800 0.25800
v 0.18600 0.16800 -0.25700
v 0.18600 0.11100 -0.18700
v 0.18600 0.11100 0.18600
v 0.18600 0.11100 0.18700
v 0.18500 0.16800 -0.25600
v 0.18500 0.11100 -0.18600
v 0.18500 0.11200 -0.18600
v 0.18500 0.11200 0.18500
v 0.18500 0.11100 0.18600
v 0.18400 0.16800 -0.25500
v 0.18400 0.16700 -0.25400
v 0.18400 0.11200 -0.18500
v 0.18400 0.11300 -0.18500
v 0.18400 0.11300 0.18400
v 0.18400 0.11200 0.18500
v 0.18400 0.16700 0.25300
v 0.18400 0.16700 0.25400
v 0.18400 0.16800 0.25400
v 0.18300 0.16700 -0.25400
v 0.18300 0.16500 -0.25300
v 0.18300 0.16600 -0.25300
v 0.18300 0.16700 -0.25300
v 0.18300 0.11300 -0.18400
v 0.18300 0.11500 0.18300
v 0.18300 0.11300 0.18400
v 0.18300 0.16500 0.25200
v 0.18300 0.16600 0.25200
v 0.18300 0.16700 0.25300
v 0.18200 -0.15200 -0.45000
v 0.18200 0.15200 -0.25200
v 0.18200 0.15300 -0.25200
v 0.18200 0.16300 -0.25200
v 0.18200 0.16500 -0.25200
v 0.18200 0.15100 -0.25100
v 0.18200 0.15200 -0.25100
v 0.18200 0.15100 0.25100
v 0.18200 0.15200 0.25100
v 0.18200 0.15300 0.25100
v 0.18200 0.15400 0.25200
v 0.18200 0.16500 0.25200
v 0.18200 -0.15000 0.47800
v 0.18100 0.15100 -0.25100
v 0.18100 0.15000 -0.25000
v 0.18100 0.15100 -0.25000
v 0.18100 0.15000 0.24900
v 0.18100 0.15100 0.25000
v 0.18100 0.15100 0.25100
v 0.18000 0.15000 -0.24900
v 0.17000 0.15000 -0.23500
v 0.16900 0.15000 -0.23400
v 0.16900 0.15000 -0.23300
v 0.16900 0.15000 0.23300
v 0.16800 0.14900 -0.23300
v 0.16800 0.12600 -0.23200
v 0.16800 0.14800 -0.23200
v 0.16800 0.12600 0.23100
v 0.16800 0.14700 0.23200
v 0.16800 0.14800 0.23200
v 0.16800 0.14900 0.23200
v 0.16800 0.14900 0.23300
v 0.16700 0.12300 -0.23200
v 0.16700 0.12400 -0.23200
v 0.16700 0.12500 -0.23200
v 0.16700 0.12100 -0.23100
v 0.16700 0.12200 -0.23100
v 0.16700 0.12300 -0.23100
v 0.16700 0.12100 0.23000
v 0.16700 0.12200 0.23100
v 0.16700 0.12300 0.23100
v 0.16700 0.12400 0.23100
v 0.16700 0.12500 0.23100
v 0.16600 0.11800 -0.23000
v 0.16600 0.12000 -0.23000
v 0.15800 0.09800 -0.21900
v 0.15800 0.09900 -0.21900
v 0.15800 0.09700 -0.21800
v 0.15800 0.09800 -0.21800
v 0.15800 0.09700 0.21800
v 0.15800 0.09800 0.21800
v 0.15700 0.09700 -0.21800
v 0.15700 0.09700 -0.21700
v 0.15700 0.09800 -0.21700
v 0.15700 0.09900 -0.21700
v 0.15700 0.10500 -0.21700
v 0.15700 0.10600 -0.21700
v 0.15700 0.10000 0.21600
v 0.15700 0.10400 0.21600
v 0.15700 0.10500 0.21600
v 0.15700 0.10600 0.21600
v 0.15700 0.09700 0.21700
v 0.15700 0.09800 0.21700
v 0.15700 0.09900 0.21700
v 0.15600 0.10700 -0.21700
v 0.15600 0.10800 -0.21600
v 0.15600 0.10900 -0.21600
v 0.15600 0.11000 -0.21500
v 0.15600 0.10900 0.21500
v 0.15600 0.11000 0.21500
v 0.15600 0.10700 0.21600
v 0.15600 0.10800 0.21600
v 0.15500 0.11000 -0.21500
v 0.15500 0.11100 -0.21400
v 0.15500 0.11000 0.21400
v 0.15500 0.11100 0.21400
v 0.15500 0.11000 0.21500
v 0.15400 0.11100 -0.21400
v 0.15400 0.11100 -0.21300
v 0.15400 0.11100 0.21300
v 0.15300 0.11200 -0.21300
v 0.15300 0.11200 -0.21200
v 0.15300 0.11300 -0.21100
v 0.15300 0.11200 0.21100
v 0.15300 0.11300 0.21100
v 0.15300 0.11200 0.21200
v 0.15200 0.11300 -0.21100
v 0.15200 0.11300 0.21000
v 0.15100 0.11400 -0.21000
v 0.15100 0.11400 0.20900
v 0.14600 0.12900 -0.28900
v 0.14600 0.16500 -0.28800
v 0.14600 0.16600 -0.28800
v 0.14600 0.16600 0.28700
v 0.14600 0.12900 0.28800
v 0.14600 0.16500 0.28800
v 0.14500 0.16700 -0.28700
v 0.14500 0.16700 -0.28600
v 0.14500 0.16800 -0.28600
v 0.14500 0.16800 0.28500
v 0.14500 0.16700 0.28600
v 0.14500 0.16700 0.28700
v 0.14400 0.16800 -0.28500
v 0.14400 0.16800 0.28300
v 0.14400 0.16800 0.28400
v 0.14300 0.16800 -0.28200
v 0.14300 0.16800 0.28100
v 0.14200 0.16800 -0.28100
v 0.14200 0.16700 -0.28000
v 0.14200 0.16700 0.27900
v 0.14200 0.16700 0.28000
v 0.14200 0.16800 0.28000
v 0.14100 0.16600 -0.27900
v 0.14100 0.16700 -0.27900
v 0.14100 0.15300 -0.27800
v 0.14100 0.15500 -0.27800
v 0.14100 0.16500 -0.27800
v 0.14100 0.16600 -0.27800
v 0.14100 0.15300 0.27700
v 0.14100 0.16500 0.27700
v 0.14100 0.16500 0.27800
v 0.14100 0.16600 0.27800
v 0.14100 0.16700 0.27800
v 0.14100 0.16700 0.27900
v 0.14000 0.15100 -0.27700
v 0.14000 0.15200 -0.27700
v 0.14000 0.15300 -0.27700
v 0.14000 0.15100 -0.27600
v 0.14000 0.15100 0.27500
v 0.14000 0.15100 0.27600
v 0.14000 0.15200 0.27600
v 0.14000 0.15200 0.27700
v 0.14000 0.15300 0.27700
v 0.13900 0.15000 -0.27500
v 0.13900 0.15000 0.27500
v 0.13800 -0.15000 0.49200
v 0.13100 0.15000 -0.25800
v 0.13100 0.15000 0.25800
v 0.13000 0.15000 -0.25800
v 0.13000 0.14900 -0.25700
v 0.13000 0.15000 -0.25700
v 0.13000 0.14800 -0.25600
v 0.13000 0.14900 -0.25600
v 0.13000 0.14800 0.25500
v 0.13000 0.14800 0.25600
v 0.13000 0.14900 0.25600
v 0.13000 0.15000 0.25600
v 0.13000 0.15000 0.25700
v 0.12900 0.14800 -0.25600
v 0.12900 0.12200 -0.25500
v 0.12900 0.12300 -0.25500
v 0.12900 0.12400 -0.25500
v 0.12900 0.12600 -0.25500
v 0.12900 0.12100 -0.25400
v 0.12900 0.12100 0.25400
v 0.12900 0.12200 0.25400
v 0.12900 0.12300 0.25400
v 0.12900 0.12300 0.25500
v 0.12900 0.12400 0.25500
v 0.12900 0.12600 0.25500
v 0.12900 0.14700 0.25500
v 0.12900 0.14800 0.25500
v 0.12800 0.12000 0.25300
v 0.12200 0.09900 -0.24200
v 0.12200 0.09800 -0.24100
v 0.12200 0.09700 -0.24000
v 0.12200 0.09800 -0.24000
v 0.12200 0.09700 0.24000
v 0.12200 0.09800 0.24000
v 0.12200 0.09900 0.24100
v 0.12100 0.09700 -0.24000
v 0.12100 0.09700 -0.23900
v 0.12100 0.09800 -0.23900
v 0.12100 0.09900 -0.23900
v 0.12100 0.10500 -0.23900
v 0.12100 0.10600 -0.23900
v 0.12100 0.10700 -0.23900
v 0.12100 0.10800 -0.23800
v 0.12100 0.10400 0.23800
v 0.12100 0.10500 0.23800
v 0.12100 0.10600 0.23800
v 0.12100 0.10700 0.23800
v 0.12100 0.10800 0.23800
v 0.12100 0.09700 0.23900
v 0.12100 0.09800 0.23900
v 0.12100 0.09900 0.23900
v 0.12100 0.10000 0.23900
v 0.12100 0.10300 0.23900
v 0.12100 0.09700 0.24000
v 0.12000 0.10800 -0.23800
v 0.12000 0.10900 -0.23800
v 0.12000 0.10900 -0.23700
v 0.12000 0.11000 -0.23700
v 0.12000 0.11000 0.23600
v 0.12000 0.10800 0.23700
v 0.12000 0.10900 0.23700
v 0.12000 0.11000 0.23700
v 0.12000 0.10800 0.23800
v 0.11900 0.11100 -0.23600
v 0.11900 0.11100 -0.23500
v 0.11900 0.11100 0.23400
v 0.11900 0.11100 0.23500
v 0.11900 0.11100 0.23600
v 0.11800 0.11200 -0.23400
v 0.11800 0.11200 -0.23300
v 0.11800 0.11300 -0.23300
v 0.11800 0.11700 0.22800
v 0.11800 0.11300 0.23200
v 0.11800 0.11200 0.23300
v 0.11800 0.11200 0.23400
v 0.11700 0.11300 -0.23200
v 0.11700 0.11500 -0.23100
v 0.11700 0.11300 0.23200
v 0.11600 0.14900 -0.50100
v 0.09900 0.12900 -0.30800
v 0.09900 0.16500 -0.30800
v 0.09900 0.16600 -0.30700
v 0.09900 0.16700 -0.30700
v 0.09900 0.16700 -0.30600
v 0.09900 0.16700 0.30500
v 0.09900 0.16600 0.30600
v 0.09900 0.16700 0.30600
v 0.09900 0.16500 0.30700
v 0.09900 0.16600 0.30700
v 0.09900 0.12900 0.30800
v 0.09800 0.16700 -0.30500
v 0.09800 0.16800 -0.30500
v 0.09800 0.16800 -0.30400
v 0.09800 0.16800 0.30300
v 0.09800 0.16700 0.30500
v 0.09800 0.16800 0.30500
v 0.09700 0.16800 -0.30100
v 0.09700 0.16800 -0.30000
v 0.09700 0.16800 0.29900
v 0.09700 0.16800 0.30000
v 0.09600 0.16700 -0.29900
v 0.09600 0.16600 -0.29800
v 0.09600 0.16700 -0.29800
v 0.09600 0.15600 -0.29700
v 0.09600 0.16500 -0.29700
v 0.09600 0.16600 -0.29700
v 0.09600 0.15500 -0.29600
v 0.09600 0.16500 0.29600
v 0.09600 0.16600 0.29700
v 0.09600 0.16700 0.29700
v 0.09600 0.16700 0.29800
v 0.09600 0.16700 0.29900
v 0.09500 0.15100 -0.29600
v 0.09500 0.15200 -0.29600
v 0.09500 0.15300 -0.29600
v 0.09500 0.15100 -0.29500
v 0.09500 0.15000 -0.29400
v 0.09500 0.15100 -0.29400
v 0.09500 0.15000 0.29300
v 0.09500 0.15100 0.29400
v 0.09500 0.15100 0.29500
v 0.09500 0.15200 0.29500
v 0.09500 0.15200 0.29600
v 0.09500 0.15300 0.29600
v 0.09200 -0.15000 0.50300
v 0.08900 0.15000 -0.27500
v 0.08900 0.15000 0.27400
v 0.08900 0.15000 0.27500
v 0.08800 0.15000 -0.27500
v 0.08800 0.14900 -0.27400
v 0.08800 0.15000 -0.27400
v 0.08800 0.12400 -0.27300
v 0.08800 0.12600 -0.27300
v 0.08800 0.14700 -0.27300
v 0.08800 0.14800 -0.27300
v 0.08800 0.12200 -0.27200
v 0.08800 0.12300 -0.27200
v 0.08800 0.12400 -0.27200
v 0.08800 0.12200 0.27100
v 0.08800 0.12200 0.27200
v 0.08800 0.12300 0.27200
v 0.08800 0.12400 0.27200
v 0.08800 0.12600 0.27200
v 0.08800 0.14600 0.27200
v 0.08800 0.14700 0.27300
v 0.08800 0.14800 0.27300
v 0.08800 0.14900 0.27300
v 0.08800 0.14900 0.27400
v 0.08800 0.15000 0.27400
v 0.08700 0.12100 -0.27200
v 0.08700 0.12000 -0.27100
v 0.08700 0.12100 -0.27100
v 0.08700 0.11800 0.27000
v 0.08700 0.12000 0.27000
v 0.08700 0.12100 0.27100
v 0.08300 0.09700 -0.25700
v 0.08300 0.09800 -0.25700
v 0.08300 0.09700 0.25600
v 0.08300 0.09800 0.25600
v 0.08300 0.09800 0.25700
v 0.08300 0.09900 0.25700
v 0.08200 0.09700 -0.25600
v 0.08200 0.09800 -0.25500
v 0.08200 0.09900 -0.25500
v 0.08200 0.10500 -0.25500
v 0.08200 0.10600 -0.25500
v 0.08200 0.10700 -0.25500
v 0.08200 0.10800 -0.25500
v 0.08200 0.10800 -0.25400
v 0.08200 0.10900 -0.25400
v 0.08200 0.10900 0.25300
v 0.08200 0.10600 0.25400
v 0.08200 0.10700 0.25400
v 0.08200 0.10800 0.25400
v 0.08200 0.09700 0.25500
v 0.08200 0.09800 0.25500
v 0.08200 0.09900 0.25500
v 0.08200 0.10300 0.25500
v 0.08200 0.10500 0.25500
v 0.08200 0.10600 0.25500
v 0.08200 0.09700 0.25600
v 0.08100 0.11000 -0.25300
v 0.08100 0.11100 -0.25200
v 0.08100 0.11100 -0.25100
v 0.08100 0.11100 0.25000
v 0.08100 0.11000 0.25200
v 0.08100 0.11100 0.25200
v 0.08100 0.11000 0.25300
v 0.08000 0.11200 -0.25000
v 0.08000 0.11200 -0.24900
v 0.08000 0.11300 -0.24900
v 0.08000 0.11300 -0.24800
v 0.08000 0.11300 0.24700
v 0.08000 0.11300 0.24800
v 0.08000 0.11200 0.24900
v 0.07800 0.11900 0.24300
v 0.07000 0.14900 -0.50900
v 0.06900 -0.15000 -0.50700
v 0.05000 0.12900 -0.32000
v 0.05000 0.16500 -0.32000
v 0.05000 0.16500 -0.31900
v 0.05000 0.16600 -0.31900
v 0.05000 0.16700 -0.31800
v 0.05000 0.16700 0.31700
v 0.05000 0.16600 0.31800
v 0.05000 0.16700 0.31800
v 0.05000 0.12900 0.31900
v 0.05000 0.16500 0.31900
v 0.05000 0.16600 0.31900
v 0.04900 0.16700 -0.31700
v 0.04900 0.16800 -0.31700
v 0.04900 0.16800 -0.31500
v 0.04900 0.16800 -0.31200
v 0.04900 0.16800 -0.31100
v 0.04900 0.16800 0.31000
v 0.04900 0.16800 0.31100
v 0.04900 0.16800 0.31200
v 0.04900 0.16800 0.31500
v 0.04900 0.16800 0.31600
v 0.04900 0.16700 0.31700
v 0.04800 0.16700 -0.31100
v 0.04800 0.16700 -0.31000
v 0.04800 0.16600 -0.30900
v 0.04800 0.16700 -0.30900
v 0.04800 0.15300 -0.30800
v 0.04800 0.15400 -0.30800
v 0.04800 0.15600 -0.30800
v 0.04800 0.16500 -0.30800
v 0.04800 0.16600 -0.30800
v 0.04800 0.15100 -0.30700
v 0.04800 0.15200 -0.30700
v 0.04800 0.15100 -0.30600
v 0.04800 0.15000 -0.30500
v 0.04800 0.15000 0.30500
v 0.04800 0.15100 0.30500
v 0.04800 0.15100 0.30600
v 0.04800 0.15200 0.30600
v 0.04800 0.15200 0.30700
v 0.04800 0.15300 0.30700
v 0.04800 0.16400 0.30700
v 0.04800 0.16500 0.30800
v 0.04800 0.16600 0.30800
v 0.04800 0.16700 0.30900
v 0.04800 0.16700 0.31000
v 0.04700 0.15000 0.30400
v 0.04600 -0.15000 0.50900
v 0.04600 0.14900 0.51100
v 0.04500 0.15000 -0.28600
v 0.04500 0.15000 0.28500
v 0.04500 0.15000 0.28600
v 0.04400 0.14900 -0.28500
v 0.04400 0.15000 -0.28500
v 0.04400 0.14800 -0.28400
v 0.04400 0.14900 -0.28400
v 0.04400 0.12300 -0.28300
v 0.04400 0.12400 -0.28300
v 0.04400 0.12500 -0.28300
v 0.04400 0.12600 -0.28300
v 0.04400 0.14700 -0.28300
v 0.04400 0.12100 -0.28200
v 0.04400 0.12200 -0.28200
v 0.04400 0.12000 -0.28100
v 0.04400 0.11800 0.28000
v 0.04400 0.12000 0.28100
v 0.04400 0.12100 0.28100
v 0.04400 0.12100 0.28200
v 0.04400 0.12200 0.28200
v 0.04400 0.12300 0.28200
v 0.04400 0.12400 0.28200
v 0.04400 0.12500 0.28200
v 0.04400 0.12600 0.28300
v 0.04400 0.14600 0.28300
v 0.04400 0.14800 0.28300
v 0.04400 0.14900 0.28400
v 0.04400 0.15000 0.28400
v 0.04400 0.15000 0.28500
v 0.04200 0.09800 -0.26700
v 0.04200 0.09800 0.26600
v 0.04100 0.09800 -0.26700
v 0.04100 0.09700 -0.26600
v 0.04100 0.09700 -0.26500
v 0.04100 0.09800 -0.26500
v 0.04100 0.09900 -0.26500
v 0.04100 0.10500 -0.26500
v 0.04100 0.10600 -0.26500
v 0.04100 0.10700 -0.26500
v 0.04100 0.10700 -0.26400
v 0.04100 0.10800 -0.26400
v 0.04100 0.10900 -0.26400
v 0.04100 0.10900 -0.26300
v 0.04100 0.11000 -0.26300
v 0.04100 0.11000 -0.26200
v 0.04100 0.11100 -0.26200
v 0.04100 0.11100 0.26100
v 0.04100 0.11000 0.26200
v 0.04100 0.10800 0.26300
v 0.04100 0.10900 0.26300
v 0.04100 0.09900 0.26400
v 0.04100 0.10500 0.26400
v 0.04100 0.10600 0.26400
v 0.04100 0.10700 0.26400
v 0.04100 0.10800 0.26400
v 0.04100 0.09700 0.26500
v 0.04100 0.09800 0.26500
v 0.04100 0.09700 0.26600
v 0.04100 0.09800 0.26600
v 0.04000 0.11100 -0.26000
v 0.04000 0.11200 -0.25900
v 0.04000 0.11300 -0.25800
v 0.04000 0.11300 -0.25700
v 0.04000 0.11300 0.25700
v 0.04000 0.11200 0.25800
v 0.04000 0.11300 0.25800
v 0.04000 0.11200 0.25900
v 0.04000 0.11100 0.26000
v 0.02300 -0.15000 -0.51200
v -0.00000 0.14900 0.51300
v -0.00100 0.12900 -0.32400
v -0.00100 0.16400 -0.32400
v -0.00100 0.16500 -0.32300
v -0.00100 0.16600 -0.32300
v -0.00100 0.16700 -0.32200
v -0.00100 0.16700 -0.32100
v -0.00100 0.16800 -0.32100
v -0.00100 0.16800 -0.31900
v -0.00100 0.16800 -0.31500
v -0.00100 0.16700 -0.31400
v -0.00100 0.16600 -0.31300
v -0.00100 0.16700 -0.31300
v -0.00100 0.15500 -0.31200
v -0.00100 0.16500 -0.31200
v -0.00100 0.16600 -0.31200
v -0.00100 0.15100 -0.31100
v -0.00100 0.15200 -0.31100
v -0.00100 0.15300 -0.31100
v -0.00100 0.15400 -0.31100
v -0.00100 0.15100 -0.31000
v -0.00100 0.15000 -0.30900
v -0.00100 0.15100 -0.30900
v -0.00100 0.15000 -0.30800
v -0.00100 0.15000 -0.28900
v -0.00100 0.14900 -0.28800
v -0.00100 0.15000 -0.28800
v -0.00100 0.12600 -0.28700
v -0.00100 0.14700 -0.28700
v -0.00100 0.14800 -0.28700
v -0.00100 0.12100 -0.28600
v -0.00100 0.12200 -0.28600
v -0.00100 0.12300 -0.28600
v -0.00100 0.12400 -0.28600
v -0.00100 0.12500 -0.28600
v -0.00100 0.12000 -0.28500
v -0.00100 0.12100 -0.28500
v -0.00100 0.09700 -0.27000
v -0.00100 0.09800 -0.27000
v -0.00100 0.09700 -0.26900
v -0.00100 0.09800 -0.26800
v -0.00100 0.09900 -0.26800
v -0.00100 0.10500 -0.26800
v -0.00100 0.10600 -0.26800
v -0.00100 0.10700 -0.26800
v -0.00100 0.10800 -0.26700
v -0.00100 0.10900 -0.26700
v -0.00100 0.10900 -0.26600
v -0.00100 0.11000 -0.26600
v -0.00100 0.11000 -0.26500
v -0.00100 0.11100 -0.26500
v -0.00100 0.11100 -0.26300
v -0.00100 0.11200 -0.26300
v -0.00100 0.11200 -0.26200
v -0.00100 0.11300 -0.26100
v -0.00100 0.11300 -0.26000
v -0.00100 0.11300 0.26000
v -0.00100 0.11200 0.26100
v -0.00100 0.11300 0.26100
v -0.00100 0.11200 0.26200
v -0.00100 0.11100 0.26300
v -0.00100 0.11100 0.26400
v -0.00100 0.11000 0.26500
v -0.00100 0.10800 0.26600
v -0.00100 0.10900 0.26600
v -0.00100 0.11000 0.26600
v -0.00100 0.10600 0.26700
v -0.00100 0.10700 0.26700
v -0.00100 0.10800 0.26700
v -0.00100 0.09700 0.26800
v -0.00100 0.09800 0.26800
v -0.00100 0.09900 0.26800
v -0.00100 0.10500 0.26800
v -0.00100 0.09700 0.26900
v -0.00100 0.09800 0.26900
v -0.00100 0.09800 0.27000
v -0.00100 0.12000 0.28400
v -0.00100 0.12100 0.28500
v -0.00100 0.12200 0.28500
v -0.00100 0.12300 0.28600
v -0.00100 0.12400 0.28600
v -0.00100 0.12500 0.28600
v -0.00100 0.12600 0.28600
v -0.00100 0.14800 0.28600
v -0.00100 0.14800 0.28700
v -0.00100 0.14900 0.28700
v -0.00100 0.15000 0.28800
v -0.00100 0.15000 0.28900
v -0.00100 0.15000 0.30800
v -0.00100 0.15100 0.30900
v -0.00100 0.15100 0.31000
v -0.00100 0.15200 0.31000
v -0.00100 0.15200 0.31100
v -0.00100 0.15300 0.31100
v -0.00100 0.16400 0.31100
v -0.00100 0.16500 0.31100
v -0.00100 0.16500 0.31200
v -0.00100 0.16600 0.31200
v -0.00100 0.16700 0.31200
v -0.00100 0.16700 0.31300
v -0.00100 0.16700 0.31400
v -0.00100 0.16800 0.31400
v -0.00100 0.16800 0.31500
v -0.00100 0.16800 0.31600
v -0.00100 0.16800 0.31900
v -0.00100 0.16700 0.32000
v -0.00100 0.16800 0.32000
v -0.00100 0.16700 0.32100
v -0.00100 0.16600 0.32200
v -0.00100 0.16700 0.32200
v -0.00100 0.12900 0.32300
v -0.00100 0.16500 0.32300
v -0.02400 -0.15000 -0.51200
v -0.03900 0.11700 0.25400
v -0.04100 0.11300 -0.25700
v -0.04100 0.11300 0.25700
v -0.04200 0.10900 -0.26400
v -0.04200 0.10900 -0.26300
v -0.04200 0.11000 -0.26300
v -0.04200 0.11000 -0.26200
v -0.04200 0.11100 -0.26200
v -0.04200 0.11100 -0.26100
v -0.04200 0.11100 -0.26000
v -0.04200 0.11200 -0.25900
v -0.04200 0.11300 -0.25800
v -0.04200 0.11300 0.25700
v -0.04200 0.11200 0.25800
v -0.04200 0.11300 0.25800
v -0.04200 0.11200 0.25900
v -0.04200 0.11100 0.26000
v -0.04200 0.11100 0.26100
v -0.04200 0.11000 0.26200
v -0.04200 0.10900 0.26300
v -0.04300 0.09800 -0.26700
v -0.04300 0.09700 -0.26600
v -0.04300 0.09700 -0.26500
v -0.04300 0.09800 -0.26500
v -0.04300 0.09900 -0.26500
v -0.04300 0.10500 -0.26500
v -0.04300 0.10600 -0.26500
v -0.04300 0.10700 -0.26500
v -0.04300 0.10700 -0.26400
v -0.04300 0.10800 -0.26400
v -0.04300 0.10800 0.26300
v -0.04300 0.09900 0.26400
v -0.04300 0.10500 0.26400
v -0.04300 0.10600 0.26400
v -0.04300 0.10700 0.26400
v -0.04300 0.10800 0.26400
v -0.04300 0.09700 0.26500
v -0.04300 0.09800 0.26500
v -0.04300 0.09700 0.26600
v -0.04300 0.09800 0.26600
v -0.04300 0.09900 0.26700
v -0.04500 0.12300 -0.28300
v -0.04500 0.12100 -0.28200
v -0.04500 0.12200 -0.28200
v -0.04500 0.12000 -0.28100
v -0.04500 0.12000 0.28100
v -0.04500 0.12100 0.28100
v -0.04500 0.12100 0.28200
v -0.04500 0.12200 0.28200
v -0.04500 0.12300 0.28200
v -0.04600 0.15000 -0.28600
v -0.04600 0.14900 -0.28500
v -0.04600 0.15000 -0.28500
v -0.04600 0.14800 -0.28400
v -0.04600 0.14900 -0.28400
v -0.04600 0.12300 -0.28300
v -0.04600 0.12400 -0.28300
v -0.04600 0.12600 -0.28300
v -0.04600 0.14700 -0.28300
v -0.04600 0.12300 0.28200
v -0.04600 0.12400 0.28200
v -0.04600 0.12500 0.28200
v -0.04600 0.12600 0.28300
v -0.04600 0.14700 0.28300
v -0.04600 0.14800 0.28300
v -0.04600 0.14900 0.28400
v -0.04600 0.15000 0.28400
v -0.04600 0.15000 0.28500
v -0.04600 0.15000 0.28600
v -0.04700 0.14900 0.51100
v -0.04900 0.15300 -0.30800
v -0.04900 0.15500 -0.30800
v -0.04900 0.15100 -0.30700
v -0.04900 0.15200 -0.30700
v -0.04900 0.15100 -0.30600
v -0.04900 0.15000 -0.30500
v -0.04900 0.15000 0.30400
v -0.04900 0.15000 0.30500
v -0.04900 0.15100 0.30500
v -0.04900 0.15100 0.30600
v -0.04900 0.15200 0.30600
v -0.04900 0.15200 0.30700
v -0.04900 0.15300 0.30700
v -0.05000 0.16700 -0.31100
v -0.05000 0.16800 -0.31100
v -0.05000 0.16700 -0.31000
v -0.05000 0.16600 -0.30900
v -0.05000 0.16700 -0.30900
v -0.05000 0.16500 -0.30800
v -0.05000 0.16600 -0.30800
v -0.05000 0.16400 0.30700
v -0.05000 0.16500 0.30800
v -0.05000 0.16600 0.30800
v -0.05000 0.16700 0.30900
v -0.05000 0.16700 0.31000
v -0.05000 0.16800 0.31000
v -0.05000 0.16800 0.31100
v -0.05000 0.16800 0.31200
v -0.05100 0.12900 -0.32000
v -0.05100 0.16400 -0.32000
v -0.05100 0.16500 -0.32000
v -0.05100 0.16500 -0.31900
v -0.05100 0.16600 -0.31900
v -0.05100 0.16700 -0.31800
v -0.05100 0.16700 -0.31700
v -0.05100 0.16800 -0.31700
v -0.05100 0.16800 -0.31600
v -0.05100 0.16800 -0.31500
v -0.05100 0.16800 0.31400
v -0.05100 0.16800 0.31500
v -0.05100 0.16800 0.31600
v -0.05100 0.16700 0.31700
v -0.05100 0.16600 0.31800
v -0.05100 0.16700 0.31800
v -0.05100 0.12900 0.31900
v -0.05100 0.16500 0.31900
v -0.05100 0.16600 0.31900
v -0.08000 0.11900 0.24300
v -0.08100 0.11300 -0.24900
v -0.08100 0.11300 -0.24800
v -0.08100 0.11300 0.24700
v -0.08100 0.11300 0.24800
v -0.08200 0.11100 -0.25100
v -0.08200 0.11200 -0.25000
v -0.08200 0.11200 -0.24900
v -0.08200 0.11200 0.24900
v -0.08200 0.11100 0.25000
v -0.08200 0.11100 0.25100
v -0.08300 0.10600 -0.25500
v -0.08300 0.10700 -0.25500
v -0.08300 0.10800 -0.25500
v -0.08300 0.10800 -0.25400
v -0.08300 0.10900 -0.25400
v -0.08300 0.11000 -0.25300
v -0.08300 0.11100 -0.25200
v -0.08300 0.11000 0.25200
v -0.08300 0.11100 0.25200
v -0.08300 0.10900 0.25300
v -0.08300 0.11000 0.25300
v -0.08300 0.10600 0.25400
v -0.08300 0.10700 0.25400
v -0.08300 0.10800 0.25400
v -0.08400 0.09700 -0.25700
v -0.08400 0.09800 -0.25700
v -0.08400 0.09700 -0.25600
v -0.08400 0.09800 -0.25500
v -0.08400 0.09900 -0.25500
v -0.08400 0.10500 -0.25500
v -0.08400 0.10600 -0.25500
v -0.08400 0.09700 0.25500
v -0.08400 0.09800 0.25500
v -0.08400 0.09900 0.25500
v -0.08400 0.10400 0.25500
v -0.08400 0.10500 0.25500
v -0.08400 0.10600 0.25500
v -0.08400 0.09700 0.25600
v -0.08400 0.09800 0.25600
v -0.08400 0.09800 0.25700
v -0.08400 0.09900 0.25700
v -0.08900 0.12500 -0.27300
v -0.08900 0.12600 -0.27300
v -0.08900 0.14800 -0.27300
v -0.08900 0.12100 -0.27200
v -0.08900 0.12200 -0.27200
v -0.08900 0.12300 -0.27200
v -0.08900 0.12400 -0.27200
v -0.08900 0.12000 -0.27100
v -0.08900 0.12100 -0.27100
v -0.08900 0.12000 0.27000
v -0.08900 0.12100 0.27100
v -0.08900 0.12200 0.27100
v -0.08900 0.12200 0.27200
v -0.08900 0.12300 0.27200
v -0.08900 0.12400 0.27200
v -0.08900 0.12500 0.27200
v -0.08900 0.12600 0.27200
v -0.08900 0.14600 0.27200
v -0.08900 0.14700 0.27300
v -0.08900 0.14800 0.27300
v -0.09000 0.15000 -0.27500
v -0.09000 0.14900 -0.27400
v -0.09000 0.15000 -0.27400
v -0.09000 0.14900 0.27300
v -0.09000 0.14900 0.27400
v -0.09000 0.15000 0.27400
v -0.09000 0.15000 0.27500
v -0.09300 -0.15000 0.50300
v -0.09600 0.15100 -0.29500
v -0.09600 0.15000 -0.29400
v -0.09600 0.15100 -0.29400
v -0.09600 0.15000 -0.29300
v -0.09600 0.15000 0.29300
v -0.09600 0.15100 0.29400
v -0.09700 0.16600 -0.29800
v -0.09700 0.16700 -0.29800
v -0.09700 0.15600 -0.29700
v -0.09700 0.16500 -0.29700
v -0.09700 0.16600 -0.29700
v -0.09700 0.15100 -0.29600
v -0.09700 0.15200 -0.29600
v -0.09700 0.15300 -0.29600
v -0.09700 0.15500 -0.29600
v -0.09700 0.15100 -0.29500
v -0.09700 0.15100 0.29400
v -0.09700 0.15100 0.29500
v -0.09700 0.15200 0.29500
v -0.09700 0.15200 0.29600
v -0.09700 0.15300 0.29600
v -0.09700 0.16400 0.29600
v -0.09700 0.16500 0.29600
v -0.09700 0.16600 0.29700
v -0.09700 0.16700 0.29700
v -0.09800 0.16800 -0.30000
v -0.09800 0.16700 -0.29900
v -0.09800 0.16700 -0.29800
v -0.09800 0.16700 0.29800
v -0.09800 0.16700 0.29900
v -0.09800 0.16800 0.29900
v -0.09800 0.16800 0.30000
v -0.09900 0.16800 -0.30400
v -0.09900 0.16800 -0.30300
v -0.09900 0.16800 -0.30100
v -0.09900 0.16800 0.30100
v -0.09900 0.16800 0.30200
v -0.09900 0.16800 0.30300
v -0.10000 0.16600 -0.30700
v -0.10000 0.16700 -0.30700
v -0.10000 0.16700 -0.30600
v -0.10000 0.16700 -0.30500
v -0.10000 0.16800 -0.30500
v -0.10000 0.16800 0.30400
v -0.10000 0.16700 0.30500
v -0.10000 0.16800 0.30500
v -0.10000 0.16600 0.30600
v -0.10000 0.16700 0.30600
v -0.10000 0.16600 0.30700
v -0.10100 0.12900 -0.30800
v -0.10100 0.16500 -0.30800
v -0.10100 0.16600 -0.30700
v -0.10100 0.16500 0.30700
v -0.10100 0.16600 0.30700
v -0.10100 0.12900 0.30800
v -0.11600 0.14900 -0.50100
v -0.11900 0.11300 -0.23300
v -0.11900 0.11300 -0.23200
v -0.11900 0.11300 0.23200
v -0.12000 0.11100 -0.23500
v -0.12000 0.11200 -0.23400
v -0.12000 0.11200 -0.23300
v -0.12000 0.11200 0.23300
v -0.12000 0.11100 0.23400
v -0.12000 0.11200 0.23400
v -0.12100 0.11000 -0.23700
v -0.12100 0.11100 -0.23600
v -0.12100 0.11000 0.23600
v -0.12100 0.11100 0.23600
v -0.12100 0.11000 0.23700
v -0.12200 0.09800 -0.23900
v -0.12200 0.09900 -0.23900
v -0.12200 0.10500 -0.23900
v -0.12200 0.10600 -0.23900
v -0.12200 0.10700 -0.23900
v -0.12200 0.10800 -0.23800
v -0.12200 0.10900 -0.23800
v -0.12200 0.10900 -0.23700
v -0.12200 0.10900 0.23700
v -0.12200 0.10400 0.23800
v -0.12200 0.10500 0.23800
v -0.12200 0.10600 0.23800
v -0.12200 0.10700 0.23800
v -0.12200 0.10800 0.23800
v -0.12200 0.09800 0.23900
v -0.12200 0.09900 0.23900
v -0.12200 0.10300 0.23900
v -0.12300 0.09800 -0.24100
v -0.12300 0.09700 -0.24000
v -0.12300 0.09800 -0.24000
v -0.12300 0.09700 -0.23900
v -0.12300 0.09800 -0.23900
v -0.12300 0.09700 0.23900
v -0.12300 0.09800 0.23900
v -0.12300 0.09700 0.24000
v -0.12300 0.09800 0.24000
v -0.12400 0.09900 0.24100
v -0.13000 0.12200 -0.25500
v -0.13000 0.12300 -0.25500
v -0.13000 0.12000 -0.25400
v -0.13000 0.12100 -0.25400
v -0.13000 0.12100 0.25400
v -0.13000 0.12200 0.25400
v -0.13000 0.12300 0.25400
v -0.13100 0.14900 -0.25700
v -0.13100 0.14800 -0.25600
v -0.13100 0.14900 -0.25600
v -0.13100 0.12300 -0.25500
v -0.13100 0.12500 -0.25500
v -0.13100 0.12600 -0.25500
v -0.13100 0.12300 0.25500
v -0.13100 0.12500 0.25500
v -0.13100 0.12600 0.25500
v -0.13100 0.14600 0.25500
v -0.13100 0.14800 0.25500
v -0.13100 0.14800 0.25600
v -0.13100 0.14900 0.25600
v -0.13200 0.15000 -0.25800
v -0.13200 0.15000 -0.25700
v -0.13200 0.15000 0.25600
v -0.13200 0.15000 0.25700
v -0.13200 0.15000 0.25800
v -0.13800 -0.15000 0.49200
v -0.14100 0.15100 -0.27700
v -0.14100 0.15100 -0.27600
v -0.14100 0.15000 -0.27500
v -0.14100 0.15000 0.27400
v -0.14100 0.15000 0.27500
v -0.14100 0.15100 0.27500
v -0.14100 0.15100 0.27600
v -0.14200 0.16600 -0.27900
v -0.14200 0.15300 -0.27800
v -0.14200 0.15600 -0.27800
v -0.14200 0.16500 -0.27800
v -0.14200 0.16600 -0.27800
v -0.14200 0.15100 -0.27700
v -0.14200 0.15200 -0.27700
v -0.14200 0.15300 -0.27700
v -0.14200 0.15100 0.27600
v -0.14200 0.15200 0.27600
v -0.14200 0.15200 0.27700
v -0.14200 0.15300 0.27700
v -0.14200 0.15400 0.27700
v -0.14200 0.16500 0.27700
v -0.14200 0.16500 0.27800
v -0.14200 0.16600 0.27800
v -0.14300 0.16700 -0.28000
v -0.14300 0.16600 -0.27900
v -0.14300 0.16700 -0.27900
v -0.14300 0.16600 0.27800
v -0.14300 0.16700 0.27800
v -0.14300 0.16700 0.27900
v -0.14300 0.16700 0.28000
v -0.14400 0.16800 -0.28200
v -0.14400 0.16800 -0.28100
v -0.14400 0.16800 0.28000
v -0.14400 0.16800 0.28100
v -0.14400 0.16800 0.28200
v -0.14500 0.16800 0.28300
v -0.14600 0.16700 -0.28600
v -0.14600 0.16800 -0.28600
v -0.14600 0.16800 -0.28500
v -0.14600 0.16800 0.28400
v -0.14600 0.16800 0.28500
v -0.14600 0.16700 0.28600
v -0.14700 0.16500 -0.28800
v -0.14700 0.16600 -0.28800
v -0.14700 0.16700 -0.28700
v -0.14700 0.16700 0.28600
v -0.14700 0.16600 0.28700
v -0.14700 0.16700 0.28700
v -0.14700 0.16500 0.28800
v -0.14800 0.12900 -0.28900
v -0.14800 0.12900 0.28800
v -0.15400 0.11300 -0.21100
v -0.15400 0.11300 0.21000
v -0.15400 0.11300 0.21100
v -0.15500 0.11100 -0.21300
v -0.15500 0.11200 -0.21300
v -0.15500 0.11200 -0.21200
v -0.15500 0.11200 0.21100
v -0.15500 0.11200 0.21200
v -0.15500 0.11100 0.21300
v -0.15600 0.11100 -0.21400
v -0.15600 0.11100 0.21400
v -0.15700 0.10900 -0.21600
v -0.15700 0.11000 -0.21500
v -0.15700 0.11000 0.21400
v -0.15700 0.10900 0.21500
v -0.15700 0.11000 0.21500
v -0.15800 0.09700 -0.21700
v -0.15800 0.09800 -0.21700
v -0.15800 0.09900 -0.21700
v -0.15800 0.10500 -0.21700
v -0.15800 0.10600 -0.21700
v -0.15800 0.10700 -0.21700
v -0.15800 0.10800 -0.21600
v -0.15800 0.10900 -0.21600
v -0.15800 0.10000 0.21600
v -0.15800 0.10300 0.21600
v -0.15800 0.10500 0.21600
v -0.15800 0.10600 0.21600
v -0.15800 0.10700 0.21600
v -0.15800 0.10800 0.21600
v -0.15800 0.10900 0.21600
v -0.15800 0.09700 0.21700
v -0.15800 0.09800 0.21700
v -0.15800 0.09900 0.21700
v -0.15900 0.09800 -0.21900
v -0.15900 0.09700 -0.21800
v -0.15900 0.09800 -0.21800
v -0.15900 0.09700 -0.21700
v -0.15900 0.09700 0.21700
v -0.15900 0.09700 0.21800
v -0.15900 0.09800 0.21800
v -0.16000 0.09900 0.21900
v -0.16100 0.14900 -0.48800
v -0.16100 -0.15000 -0.48600
v -0.16800 0.12100 -0.23100
v -0.16800 0.12000 0.23000
v -0.16800 0.12100 0.23000
v -0.16900 0.12300 -0.23200
v -0.16900 0.12500 -0.23200
v -0.16900 0.12600 -0.23200
v -0.16900 0.14700 -0.23200
v -0.16900 0.14800 -0.23200
v -0.16900 0.12200 -0.23100
v -0.16900 0.12300 -0.23100
v -0.16900 0.12200 0.23100
v -0.16900 0.12300 0.23100
v -0.16900 0.12500 0.23100
v -0.16900 0.12600 0.23100
v -0.16900 0.14800 0.23200
v -0.17000 0.15000 -0.23400
v -0.17000 0.14900 -0.23300
v -0.17000 0.15000 -0.23300
v -0.17000 0.14900 0.23200
v -0.17000 0.14900 0.23300
v -0.17000 0.15000 0.23300
v -0.17100 0.15000 -0.23400
v -0.17100 0.15000 0.23400
v -0.18200 0.15000 -0.25000
v -0.18200 0.15100 -0.25000
v -0.18200 0.15000 0.24900
v -0.18200 0.15100 0.25000
v -0.18300 0.15200 -0.25200
v -0.18300 0.15100 -0.25100
v -0.18300 0.15200 -0.25100
v -0.18300 0.15100 0.25000
v -0.18300 0.15100 0.25100
v -0.18300 0.15200 0.25100
v -0.18300 -0.15000 0.47800
v -0.18400 0.16500 -0.25300
v -0.18400 0.16600 -0.25300
v -0.18400 0.15300 -0.25200
v -0.18400 0.16200 -0.25200
v -0.18400 0.16500 -0.25200
v -0.18400 0.11500 0.18300
v -0.18400 0.15300 0.25100
v -0.18400 0.15400 0.25200
v -0.18400 0.16500 0.25200
v -0.18400 0.16600 0.25200
v -0.18400 0.14700 0.48100
v -0.18500 0.16700 -0.25400
v -0.18500 0.16700 -0.25300
v -0.18500 0.11300 -0.18500
v -0.18500 0.11300 -0.18400
v -0.18500 0.11300 0.18400
v -0.18500 0.16700 0.25300
v -0.18500 0.16700 0.25400
v -0.18600 0.16800 -0.25600
v -0.18600 0.16800 -0.25500
v -0.18600 0.11200 -0.18600
v -0.18600 0.11200 -0.18500
v -0.18600 0.11200 0.18500
v -0.18600 0.16800 0.25400
v -0.18600 0.16800 0.25500
v -0.18700 0.11100 -0.18600
v -0.18700 0.11100 0.18600
v -0.18700 0.16800 0.25600
v -0.18800 0.16800 -0.25800
v -0.18800 0.11000 -0.18800
v -0.18800 0.11100 -0.18700
v -0.18800 0.11000 0.18700
v -0.18800 0.11100 0.18700
v -0.18800 0.16800 0.25700
v -0.18900 0.16700 -0.26000
v -0.18900 0.16800 -0.25900
v -0.18900 0.10900 -0.18900
v -0.18900 0.11000 -0.18800
v -0.18900 0.10900 0.18800
v -0.18900 0.11000 0.18800
v -0.18900 0.16800 0.25800
v -0.18900 0.16700 0.25900
v -0.18900 0.16800 0.25900
v -0.18900 0.16700 0.26000
v -0.19000 0.16600 -0.26100
v -0.19000 0.16700 -0.26100
v -0.19000 0.16700 -0.26000
v -0.19000 0.09800 -0.19000
v -0.19000 0.09900 -0.19000
v -0.19000 0.10500 -0.19000
v -0.19000 0.10600 -0.19000
v -0.19000 0.10700 -0.18900
v -0.19000 0.10800 -0.18900
v -0.19000 0.09800 0.18900
v -0.19000 0.09900 0.18900
v -0.19000 0.10000 0.18900
v -0.19000 0.10500 0.18900
v -0.19000 0.10600 0.18900
v -0.19000 0.10700 0.18900
v -0.19000 0.10800 0.18900
v -0.19000 0.16700 0.26000
v -0.19000 0.16600 0.26100
v -0.19100 0.12900 -0.26200
v -0.19100 0.16500 -0.26200
v -0.19100 0.09700 -0.19100
v -0.19100 0.09800 -0.19100
v -0.19100 0.09700 -0.19000
v -0.19100 0.09700 0.18900
v -0.19100 0.09700 0.19000
v -0.19100 0.09800 0.19000
v -0.19100 0.12900 0.26100
v -0.19100 0.16500 0.26100
v -0.19200 0.09800 -0.19100
v -0.19200 0.09800 0.19100
v -0.19200 0.09900 0.19100
v -0.20200 0.12100 -0.20200
v -0.20200 0.12000 -0.20100
v -0.20200 0.12000 0.20100
v -0.20200 0.12100 0.20100
v -0.20300 0.12400 -0.20300
v -0.20300 0.12500 -0.20300
v -0.20300 0.12600 -0.20300
v -0.20300 0.14700 -0.20300
v -0.20300 0.12100 -0.20200
v -0.20300 0.12200 -0.20200
v -0.20300 0.12300 -0.20200
v -0.20300 0.12100 0.20100
v -0.20300 0.12200 0.20200
v -0.20300 0.12300 0.20200
v -0.20300 0.12500 0.20200
v -0.20300 0.12600 0.20200
v -0.20300 0.14700 0.20200
v -0.20400 -0.15000 -0.47000
v -0.20400 0.14900 -0.20400
v -0.20400 0.15000 -0.20400
v -0.20400 0.14800 -0.20300
v -0.20400 0.14900 -0.20300
v -0.20400 0.14800 0.20300
v -0.20400 0.14900 0.20300
v -0.20400 0.15000 0.20300
v -0.20500 0.15000 -0.20400
v -0.20500 0.15000 0.20400
v -0.20600 0.15000 0.20500
v -0.21100 0.11300 -0.15300
v -0.21100 0.11500 -0.15300
v -0.21100 0.11500 0.15200
v -0.21100 0.11300 0.15300
v -0.21200 0.11300 -0.15400
v -0.21200 0.11300 0.15300
v -0.21300 0.11200 -0.15500
v -0.21300 0.11200 -0.15400
v -0.21300 0.11200 0.15400
v -0.21400 0.11100 -0.15500
v -0.21400 0.11100 0.15500
v -0.21500 0.11000 -0.15600
v -0.21500 0.11100 -0.15600
v -0.21500 0.11100 0.15500
v -0.21500 0.11000 0.15600
v -0.21600 0.10900 -0.15700
v -0.21600 0.11000 -0.15700
v -0.21600 0.10900 0.15600
v -0.21600 0.11000 0.15600
v -0.21700 0.10600 -0.15800
v -0.21700 0.10700 -0.15800
v -0.21700 0.10800 -0.15700
v -0.21700 0.10900 -0.15700
v -0.21700 0.10600 0.15700
v -0.21700 0.10700 0.15700
v -0.21700 0.10800 0.15700
v -0.21700 0.10900 0.15700
v -0.21800 0.09700 -0.15800
v -0.21800 0.09800 -0.15800
v -0.21800 0.09900 -0.15800
v -0.21800 0.10200 -0.15800
v -0.21800 0.10500 -0.15800
v -0.21800 0.09800 0.15700
v -0.21800 0.09900 0.15700
v -0.21800 0.10300 0.15700
v -0.21800 0.10500 0.15700
v -0.21800 0.09700 0.15800
v -0.21900 0.15000 -0.21900
v -0.21900 0.15100 -0.21900
v -0.21900 0.09700 -0.15900
v -0.21900 0.09800 -0.15900
v -0.21900 0.09700 0.15800
v -0.21900 0.09800 0.15800
v -0.21900 0.09800 0.15900
v -0.21900 0.15000 0.21800
v -0.21900 0.15100 0.21800
v -0.22000 0.15100 -0.22000
v -0.22000 0.15200 -0.22000
v -0.22000 0.15100 -0.21900
v -0.22000 0.15100 0.21900
v -0.22000 0.15200 0.21900
v -0.22100 0.16300 -0.22100
v -0.22100 0.16400 -0.22100
v -0.22100 0.16500 -0.22100
v -0.22100 0.16600 -0.22100
v -0.22100 0.15200 -0.22000
v -0.22100 0.15300 -0.22000
v -0.22100 0.16200 -0.22000
v -0.22100 0.15200 0.21900
v -0.22100 0.15200 0.22000
v -0.22100 0.15300 0.22000
v -0.22100 0.16500 0.22000
v -0.22100 0.16600 0.22000
v -0.22200 0.16700 -0.22200
v -0.22200 0.16600 -0.22100
v -0.22200 0.16700 -0.22100
v -0.22200 0.16600 0.22100
v -0.22200 0.16700 0.22100
v -0.22300 0.16800 -0.22300
v -0.22300 0.16700 -0.22200
v -0.22300 0.16700 0.22200
v -0.22300 0.16800 0.22200
v -0.22400 0.16800 -0.22300
v -0.22400 0.16800 0.22300
v -0.22500 0.16800 0.22400
v -0.22500 -0.15000 0.45900
v -0.22600 0.16800 -0.22500
v -0.22600 0.16800 0.22500
v -0.22600 0.14900 0.46100
v -0.22700 0.16800 -0.22700
v -0.22700 0.16800 0.22600
v -0.22700 0.14700 0.46200
v -0.22800 0.16700 -0.22800
v -0.22800 0.16700 -0.22700
v -0.22800 0.16700 0.22700
v -0.22900 0.12900 -0.22900
v -0.22900 0.16500 -0.22900
v -0.22900 0.16600 -0.22900
v -0.22900 0.16600 -0.22800
v -0.22900 0.16700 -0.22800
v -0.22900 0.12900 0.22800
v -0.22900 0.16500 0.22800
v -0.22900 0.16600 0.22800
v -0.22900 0.16700 0.22800
v -0.23100 0.12000 -0.16800
v -0.23100 0.12100 -0.16800
v -0.23100 0.12000 0.16700
v -0.23100 0.12100 0.16700
v -0.23200 0.12500 -0.16900
v -0.23200 0.12600 -0.16900
v -0.23200 0.12100 -0.16800
v -0.23200 0.12200 -0.16800
v -0.23200 0.12300 -0.16800
v -0.23200 0.12400 -0.16800
v -0.23200 0.11500 -0.11800
v -0.23200 0.12100 0.16800
v -0.23200 0.12200 0.16800
v -0.23200 0.12300 0.16800
v -0.23200 0.12500 0.16800
v -0.23200 0.12600 0.16800
v -0.23300 0.12600 -0.16900
v -0.23300 0.14800 -0.16900
v -0.23300 0.14900 -0.16900
v -0.23300 0.11300 -0.11900
v -0.23300 0.11300 -0.11800
v -0.23300 0.11300 0.11800
v -0.23300 0.12600 0.16800
v -0.23300 0.14700 0.16800
v -0.23300 0.14800 0.16800
v -0.23300 0.14800 0.16900
v -0.23300 0.14900 0.16900
v -0.23400 0.14900 -0.17000
v -0.23400 0.15000 -0.17000
v -0.23400 0.11200 -0.11900
v -0.23400 0.11200 0.11900
v -0.23400 0.14900 0.16900
v -0.23400 0.15000 0.16900
v -0.23400 0.15000 0.17000
v -0.23500 0.11100 -0.12000
v -0.23500 0.11200 -0.11900
v -0.23500 0.11100 0.11900
v -0.23500 0.11200 0.11900
v -0.23500 0.15000 0.17000
v -0.23600 0.11100 -0.12000
v -0.23600 0.11100 0.12000
v -0.23700 0.11000 -0.12100
v -0.23700 0.11100 -0.12000
v -0.23700 0.11000 0.12000
v -0.23700 0.11100 0.12000
v -0.23800 0.10900 -0.12100
v -0.23800 0.11000 -0.12100
v -0.23800 0.11000 0.12000
v -0.23800 0.10900 0.12100
v -0.23900 0.10300 -0.12200
v -0.23900 0.10500 -0.12200
v -0.23900 0.10600 -0.12200
v -0.23900 0.10700 -0.12200
v -0.23900 0.10800 -0.12200
v -0.23900 0.10300 0.12100
v -0.23900 0.10400 0.12100
v -0.23900 0.10500 0.12100
v -0.23900 0.10600 0.12100
v -0.23900 0.10700 0.12100
v -0.23900 0.10800 0.12100
v -0.24000 0.09700 -0.12200
v -0.24000 0.09800 -0.12200
v -0.24000 0.09900 -0.12200
v -0.24000 0.10200 -0.12200
v -0.24000 0.09800 0.12100
v -0.24000 0.09900 0.12100
v -0.24000 0.10200 0.12100
v -0.24000 0.09700 0.12200
v -0.24000 0.09800 0.12200
v -0.24100 0.09700 -0.12300
v -0.24100 0.09800 -0.12300
v -0.24100 0.09700 -0.12200
v -0.24100 0.09700 0.12200
v -0.24100 0.09800 0.12200
v -0.24200 0.09900 0.12300
v -0.24700 0.14900 -0.45100
v -0.24800 0.11300 -0.08100
v -0.24800 0.11300 0.08000
v -0.24900 0.11300 -0.08100
v -0.24900 0.11300 0.08000
v -0.25000 0.11200 -0.08100
v -0.25000 0.11200 0.08100
v -0.25000 0.15000 0.18100
v -0.25100 0.15000 -0.18200
v -0.25100 0.15100 -0.18200
v -0.25100 0.11100 -0.08200
v -0.25100 0.11100 0.08100
v -0.25100 0.15000 0.18100
v -0.25100 0.15100 0.18200
v -0.25200 0.15100 -0.18300
v -0.25200 0.15200 -0.18300
v -0.25200 0.11100 -0.08200
v -0.25200 0.11100 0.08200
v -0.25200 0.15100 0.18200
v -0.25200 0.15200 0.18200
v -0.25200 0.15200 0.18300
v -0.25300 0.16500 -0.18400
v -0.25300 0.16600 -0.18400
v -0.25300 0.15300 -0.18300
v -0.25300 0.16300 -0.18300
v -0.25300 0.16400 -0.18300
v -0.25300 0.11000 -0.08200
v -0.25300 0.11000 0.08200
v -0.25300 0.15300 0.18300
v -0.25300 0.16500 0.18300
v -0.25300 0.16600 0.18300
v -0.25400 0.16700 -0.18500
v -0.25400 0.16600 -0.18400
v -0.25400 0.16700 -0.18400
v -0.25400 0.10900 -0.08300
v -0.25400 0.11000 -0.08200
v -0.25400 0.11700 0.04200
v -0.25400 0.10900 0.08200
v -0.25400 0.11000 0.08200
v -0.25400 0.12000 0.12900
v -0.25400 0.16600 0.18300
v -0.25400 0.16700 0.18400
v -0.25500 0.16700 -0.18500
v -0.25500 0.16800 -0.18500
v -0.25500 0.12100 -0.13000
v -0.25500 0.12200 -0.13000
v -0.25500 0.12300 -0.13000
v -0.25500 0.10500 -0.08300
v -0.25500 0.10600 -0.08300
v -0.25500 0.10700 -0.08300
v -0.25500 0.10800 -0.08300
v -0.25500 0.10500 0.08200
v -0.25500 0.10600 0.08200
v -0.25500 0.10700 0.08200
v -0.25500 0.10800 0.08200
v -0.25500 0.10500 0.08300
v -0.25500 0.12100 0.12900
v -0.25500 0.12200 0.12900
v -0.25500 0.12300 0.13000
v -0.25500 0.16700 0.18400
v -0.25500 0.16800 0.18500
v -0.25600 0.16800 -0.18600
v -0.25600 0.14800 -0.13100
v -0.25600 0.12300 -0.13000
v -0.25600 0.12500 -0.13000
v -0.25600 0.12600 -0.13000
v -0.25600 0.14800 -0.13000
v -0.25600 0.09700 -0.08300
v -0.25600 0.09800 -0.08300
v -0.25600 0.09900 -0.08300
v -0.25600 0.10300 -0.08300
v -0.25600 0.10400 -0.08300
v -0.25600 0.09700 0.08300
v -0.25600 0.09800 0.08300
v -0.25600 0.09900 0.08300
v -0.25600 0.10200 0.08300
v -0.25600 0.10400 0.08300
v -0.25600 0.12300 0.13000
v -0.25600 0.12500 0.13000
v -0.25600 0.12600 0.13000
v -0.25600 0.14800 0.13000
v -0.25600 0.16800 0.18500
v -0.25700 0.14800 -0.13100
v -0.25700 0.14900 -0.13100
v -0.25700 0.15000 -0.13100
v -0.25700 0.09800 -0.08400
v -0.25700 0.09700 -0.08300
v -0.25700 0.11900 0.00000
v -0.25700 0.09700 0.08300
v -0.25700 0.09800 0.08300
v -0.25700 0.14800 0.13000
v -0.25700 0.14900 0.13000
v -0.25700 0.15000 0.13100
v -0.25800 0.16800 -0.18700
v -0.25800 0.15000 -0.13200
v -0.25800 0.15000 -0.13100
v -0.25800 0.09800 -0.08400
v -0.25800 0.09900 -0.08400
v -0.25800 0.11300 -0.04100
v -0.25800 0.11300 0.04000
v -0.25800 0.09800 0.08300
v -0.25800 0.09900 0.08300
v -0.25800 0.15000 0.13100
v -0.25800 0.16800 0.18600
v -0.25900 0.11200 -0.04100
v -0.25900 0.11300 -0.04100
v -0.25900 0.11200 0.04100
v -0.25900 0.11300 0.04100
v -0.25900 0.15000 0.13100
v -0.25900 0.16800 0.18700
v -0.26000 0.16700 -0.18900
v -0.26000 0.16800 -0.18900
v -0.26000 0.11200 -0.04100
v -0.26000 0.11200 0.04100
v -0.26000 0.16700 0.18800
v -0.26000 0.16800 0.18800
v -0.26100 0.16700 -0.19000
v -0.26100 0.16700 -0.18900
v -0.26100 0.11100 -0.04100
v -0.26100 0.11300 0.00000
v -0.26100 0.11100 0.04100
v -0.26100 0.16700 0.18900
v -0.26200 0.16500 -0.19000
v -0.26200 0.16600 -0.19000
v -0.26200 0.11100 -0.04200
v -0.26200 0.11300 0.00000
v -0.26200 0.11100 0.04100
v -0.26200 0.16600 0.18900
v -0.26200 0.16500 0.19000
v -0.26200 0.16600 0.19000
v -0.26200 -0.15200 0.40900
v -0.26300 0.12900 -0.19000
v -0.26300 0.11000 -0.04200
v -0.26300 0.11200 0.00000
v -0.26300 0.11000 0.04100
v -0.26300 0.12900 0.19000
v -0.26400 0.10800 -0.04200
v -0.26400 0.10900 -0.04200
v -0.26400 0.11100 0.00000
v -0.26400 0.10800 0.04100
v -0.26400 0.10900 0.04100
v -0.26500 0.09900 -0.04200
v -0.26500 0.10400 -0.04200
v -0.26500 0.10500 -0.04200
v -0.26500 0.10600 -0.04200
v -0.26500 0.10700 -0.04200
v -0.26500 0.10800 -0.04200
v -0.26500 0.11100 0.00000
v -0.26500 0.09900 0.04200
v -0.26500 0.10500 0.04200
v -0.26500 0.10600 0.04200
v -0.26500 0.10700 0.04200
v -0.26500 0.10800 0.04200
v -0.26600 0.09700 -0.04200
v -0.26600 0.09800 -0.04200
v -0.26600 0.09900 -0.04200
v -0.26600 0.11000 0.00000
v -0.26600 0.11100 0.00000
v -0.26600 0.09700 0.04200
v -0.26600 0.09800 0.04200
v -0.26600 0.09900 0.04200
v -0.26600 -0.15000 0.43700
v -0.26700 0.09700 -0.04200
v -0.26700 0.09800 -0.04200
v -0.26700 0.10900 0.00000
v -0.26700 0.11000 0.00000
v -0.26700 0.09700 0.04200
v -0.26700 0.09800 0.04200
v -0.26700 0.14900 0.43800
v -0.26800 0.09900 -0.04300
v -0.26800 0.10700 0.00000
v -0.26800 0.10800 0.00000
v -0.26800 0.10900 0.00000
v -0.26900 0.09700 0.00000
v -0.26900 0.09800 0.00000
v -0.26900 0.09900 0.00000
v -0.26900 0.10500 0.00000
v -0.26900 0.10600 0.00000
v -0.27000 0.09700 0.00000
v -0.27000 0.09800 0.00000
v -0.27100 0.12000 -0.08800
v -0.27100 0.09800 0.00000
v -0.27200 0.12200 -0.08900
v -0.27200 0.12100 -0.08800
v -0.27200 0.12200 -0.08800
v -0.27200 0.12100 0.08800
v -0.27200 0.12200 0.08800
v -0.27300 0.12300 -0.08900
v -0.27300 0.12500 -0.08900
v -0.27300 0.12600 -0.08900
v -0.27300 0.14800 -0.08900
v -0.27300 0.12300 0.08800
v -0.27300 0.12500 0.08800
v -0.27300 0.12600 0.08800
v -0.27300 0.14800 0.08800
v -0.27400 0.14800 -0.08900
v -0.27400 0.14900 -0.08900
v -0.27400 0.14800 0.08800
v -0.27400 0.14900 0.08800
v -0.27400 0.14900 0.08900
v -0.27500 0.15000 -0.14000
v -0.27500 0.15000 -0.08900
v -0.27500 0.15000 0.08900
v -0.27600 0.15100 -0.14100
v -0.27600 0.15000 -0.14000
v -0.27600 0.15000 -0.09000
v -0.27600 0.15000 0.08900
v -0.27600 0.15000 0.14000
v -0.27600 0.15100 0.14000
v -0.27700 0.15100 -0.14100
v -0.27700 0.15200 -0.14100
v -0.27700 0.15100 0.14000
v -0.27700 0.15100 0.14100
v -0.27700 0.15200 0.14100
v -0.27800 0.15300 -0.14200
v -0.27800 0.16500 -0.14200
v -0.27800 0.15200 -0.14100
v -0.27800 0.15200 0.14100
v -0.27800 0.15300 0.14100
v -0.27800 0.16500 0.14100
v -0.27900 0.16500 -0.14200
v -0.27900 0.16600 -0.14200
v -0.27900 0.16700 -0.14200
v -0.27900 0.16500 0.14100
v -0.27900 0.16600 0.14100
v -0.27900 0.16600 0.14200
v -0.27900 0.16700 0.14200
v -0.28000 0.16700 -0.14300
v -0.28000 0.16700 -0.14200
v -0.28000 0.16700 0.14200
v -0.28100 0.16700 -0.14300
v -0.28100 0.16800 -0.14300
v -0.28100 0.16700 0.14200
v -0.28100 0.16800 0.14300
v -0.28200 0.16800 -0.14400
v -0.28200 0.12000 -0.04500
v -0.28200 0.12100 -0.04500
v -0.28200 0.12000 0.04400
v -0.28200 0.12100 0.04400
v -0.28200 -0.13800 0.44100
v -0.28300 0.12100 -0.04500
v -0.28300 0.12200 -0.04500
v -0.28300 0.12300 -0.04500
v -0.28300 0.12500 -0.04500
v -0.28300 0.12100 0.04400
v -0.28300 0.12200 0.04400
v -0.28300 0.12300 0.04400
v -0.28300 0.12500 0.04400
v -0.28400 0.16800 -0.14400
v -0.28400 0.12500 -0.04500
v -0.28400 0.12600 -0.04500
v -0.28400 0.14600 -0.04500
v -0.28400 0.14800 -0.04500
v -0.28400 0.12500 0.04400
v -0.28400 0.12600 0.04500
v -0.28400 0.14700 0.04500
v -0.28400 0.14800 0.04500
v -0.28400 0.16800 0.14400
v -0.28500 0.14900 -0.04500
v -0.28500 0.15000 -0.04500
v -0.28500 0.12000 0.00000
v -0.28500 0.14900 0.04500
v -0.28500 0.15000 0.04500
v -0.28600 0.15000 -0.42500
v -0.28600 0.16800 -0.14600
v -0.28600 0.16800 -0.14500
v -0.28600 0.15000 -0.04500
v -0.28600 0.12100 0.00000
v -0.28600 0.12200 0.00000
v -0.28600 0.15000 0.04500
v -0.28600 0.16800 0.14500
v -0.28700 0.14900 -0.42700
v -0.28700 0.16700 -0.14600
v -0.28700 0.15000 -0.04600
v -0.28700 0.12200 0.00000
v -0.28700 0.12300 0.00000
v -0.28700 0.12500 0.00000
v -0.28700 0.12600 0.00000
v -0.28700 0.14600 0.00000
v -0.28700 0.16700 0.14500
v -0.28700 0.16700 0.14600
v -0.28800 0.16600 -0.14700
v -0.28800 0.16700 -0.14700
v -0.28800 0.16700 -0.14600
v -0.28800 0.14700 0.00000
v -0.28800 0.14800 0.00000
v -0.28800 0.14900 0.00000
v -0.28800 0.16600 0.14600
v -0.28800 0.16700 0.14600
v -0.28900 0.12900 -0.14700
v -0.28900 0.16500 -0.14700
v -0.28900 0.14900 0.00000
v -0.28900 0.15000 0.00000
v -0.28900 0.16500 0.14600
v -0.28900 0.12900 0.14700
v -0.28900 0.16500 0.14700
v -0.29000 0.15000 0.00000
v -0.29400 0.15100 -0.09600
v -0.29400 0.15000 -0.09500
v -0.29400 0.15000 0.09500
v -0.29400 0.15100 0.09500
v -0.29500 0.15100 -0.09600
v -0.29500 0.15100 0.09500
v -0.29600 0.15100 -0.09600
v -0.29600 0.15200 -0.09600
v -0.29600 0.15100 0.09600
v -0.29600 0.15200 0.09600
v -0.29700 0.16400 -0.09700
v -0.29700 0.16500 -0.09700
v -0.29700 0.16600 -0.09700
v -0.29700 0.15300 -0.09600
v -0.29700 0.15300 0.09600
v -0.29700 0.16500 0.09600
v -0.29700 0.16600 0.09600
v -0.29800 0.16600 -0.09700
v -0.29800 0.16700 -0.09700
v -0.29800 0.16600 0.09600
v -0.29800 0.16700 0.09600
v -0.29900 0.16700 -0.09700
v -0.29900 0.16700 0.09700
v -0.30000 0.16800 -0.09800
v -0.30000 0.16800 -0.09700
v -0.30000 0.16800 0.09700
v -0.30100 0.16800 0.09700
v -0.30200 0.16800 -0.09800
v -0.30300 0.16800 0.09800
v -0.30500 0.16800 -0.09900
v -0.30500 0.15000 -0.04800
v -0.30500 0.15000 0.04800
v -0.30500 0.16800 0.09900
v -0.30500 -0.15000 0.41100
v -0.30600 0.16700 -0.10000
v -0.30600 0.16700 -0.09900
v -0.30600 0.15100 -0.04900
v -0.30600 0.15100 0.04800
v -0.30600 0.16700 0.09900
v -0.30700 0.16600 -0.10000
v -0.30700 0.16700 -0.10000
v -0.30700 0.15100 -0.04900
v -0.30700 0.15100 0.04800
v -0.30700 0.16600 0.09900
v -0.30700 0.16700 0.09900
v -0.30800 0.12900 -0.10000
v -0.30800 0.16500 -0.10000
v -0.30800 0.16600 -0.10000
v -0.30800 0.15200 -0.04900
v -0.30800 0.15300 -0.04900
v -0.30800 0.16400 -0.04900
v -0.30800 0.15200 0.04800
v -0.30800 0.15300 0.04800
v -0.30800 0.16400 0.04800
v -0.30800 0.16600 0.09900
v -0.30800 0.12900 0.10000
v -0.30800 0.16500 0.10000
v -0.30900 0.16500 -0.04900
v -0.30900 0.16600 -0.04900
v -0.30900 0.15000 0.00000
v -0.30900 0.16500 0.04800
v -0.30900 0.16600 0.04900
v -0.31000 0.16700 -0.04900
v -0.31000 0.15100 0.00000
v -0.31000 0.16700 0.04900
v -0.31100 0.16700 -0.04900
v -0.31100 0.16800 -0.04900
v -0.31100 0.15100 0.00000
v -0.31100 0.15200 0.00000
v -0.31100 0.16700 0.04900
v -0.31100 0.16800 0.04900
v -0.31200 0.15200 0.00000
v -0.31200 0.15300 0.00000
v -0.31200 0.16400 0.00000
v -0.31300 0.16800 -0.05000
v -0.31300 0.16500 0.00000
v -0.31300 0.16600 0.00000
v -0.31300 0.16800 0.04900
v -0.31400 0.16700 0.00000
v -0.31500 0.16700 0.00000
v -0.31500 0.16800 0.00000
v -0.31500 0.16800 0.05000
v -0.31700 0.16800 -0.05000
v -0.31700 0.16800 0.00000
v -0.31700 0.16800 0.05000
v -0.31800 0.16700 -0.05000
v -0.31800 0.16700 0.05000
v -0.31900 0.16600 -0.05100
v -0.31900 0.16700 -0.05100
v -0.31900 0.16600 0.05000
v -0.31900 0.16700 0.05000
v -0.32000 0.12900 -0.05100
v -0.32000 0.16500 -0.05100
v -0.32000 0.16600 -0.05100
v -0.32000 0.12900 0.05000
v -0.32000 0.16500 0.05000
v -0.32000 0.16600 0.05000
v -0.32100 0.16800 0.00000
v -0.32200 0.16700 0.00000
v -0.32300 0.15000 -0.39700
v -0.32300 0.16600 0.00000
v -0.32300 0.16700 0.00000
v -0.32400 0.14900 -0.39900
v -0.32400 0.12900 0.00000
v -0.32400 0.16500 0.00000
v -0.32400 0.16600 0.00000
v -0.36100 -0.15200 0.32500
v -0.37600 0.14900 0.35000
v -0.38900 -0.13800 0.35000
v -0.39100 0.14900 -0.33400
v -0.40600 0.14900 0.31400
v -0.41400 -0.15200 0.25500
v -0.41800 0.15000 -0.29600
v -0.42000 0.14900 -0.29700
v -0.44300 0.15000 -0.25600
v -0.44500 0.14900 -0.25700
v -0.44600 -0.13800 0.27500
v -0.45500 -0.15000 0.23500
v -0.46700 0.14900 -0.21600
v -0.47400 -0.15000 0.19300
v -0.47600 -0.15200 -0.09900
v -0.48400 0.14900 -0.17200
v -0.48600 -0.15200 0.00900
v -0.49000 -0.15000 0.14900
v -0.49600 -0.15000 -0.12700
v -0.50100 -0.15000 0.10400
v -0.50600 -0.15000 -0.08200
v -0.50900 -0.15000 0.05800
v -0.51200 -0.15000 0.01100
v -0.51300 -0.13800 -0.10700
v -0.51300 0.14900 -0.03600
v -0.51400 0.14900 0.01100
v -0.52400 -0.13800 0.00900
l 30 38
l 30 41
l 31 39
l 31 46
l 32 43
l 33 44
l 33 47
l 34 49
l 35 48
l 35 49
l 35 52
l 36 50
l 38 82
l 40 54
l 40 55
l 40 58
l 41 92
l 42 93
l 43 83
l 44 95
l 45 58
l 46 103
l 47 101
l 48 96
l 48 104
l 49 108
l 50 105
l 52 114
l 55 117
l 55 120
l 57 66
l 57 73
l 58 118
l 59 74
l 59 76
l 60 77
l 60 80
l 61 78
l 61 81
l 62 88
l 63 86
l 63 90
l 65 123
l 66 122
l 69 99
l 70 98
l 70 100
l 71 84
l 72 126
l 73 127
l 74 124
l 75 97
l 75 106
l 75 107
l 76 130
l 77 133
l 78 128
l 79 113
l 80 136
l 81 129
l 82 154
l 83 155
l 84 139
l 86 132
l 87 133
l 88 141
l 90 135
l 92 160
l 93 158
l 94 155
l 95 156
l 97 143
l 98 138
l 99 145
l 100 140
l 101 159
l 102 170
l 104 164
l 106 143
l 107 144
l 107 149
l 108 170
l 108 180
l 110 171
l 113 151
l 117 181
l 119 188
l 121 202
l 122 202
l 123 209
l 123 214
l 124 215
l 125 211
l 126 216
l 128 217
l 128 219
l 129 221
l 130 221
l 132 224
l 133 218
l 133 225
l 135 228
l 136 229
l 136 230
l 138 233
l 139 222
l 140 235
l 141 236
l 143 232
l 143 237
l 144 239
l 145 234
l 147 237
l 148 244
l 150 240
l 152 165
l 152 177
l 153 183
l 153 187
l 154 314
l 155 315
l 156 316
l 156 326
l 157 182
l 157 186
l 157 190
l 157 192
l 158 323
l 159 331
l 160 322
l 161 323
l 164 327
l 166 199
l 167 196
l 167 200
l 169 189
l 169 191
l 170 332
l 170 339
l 171 333
l 173 207
l 174 205
l 174 208
l 175 193
l 175 198
l 176 194
l 177 243
l 181 340
l 182 245
l 183 242
l 184 203
l 184 213
l 185 204
l 186 246
l 187 243
l 188 343
l 189 248
l 190 245
l 191 252
l 192 253
l 193 255
l 194 256
l 196 247
l 198 262
l 199 263
l 200 250
l 202 360
l 204 258
l 205 254
l 206 267
l 207 268
l 208 261
l 209 368
l 211 369
l 212 265
l 214 393
l 215 394
l 216 405
l 217 394
l 219 395
l 220 414
l 221 405
l 221 415
l 224 406
l 225 407
l 226 427
l 228 413
l 228 428
l 230 414
l 231 418
l 232 429
l 233 417
l 234 433
l 235 425
l 237 430
l 238 351
l 239 433
l 239 439
l 240 434
l 241 345
l 242 346
l 243 351
l 243 359
l 244 438
l 245 352
l 245 353
l 246 358
l 246 367
l 247 374
l 248 361
l 249 362
l 250 392
l 252 366
l 255 372
l 256 373
l 259 371
l 260 404
l 261 388
l 262 389
l 263 390
l 265 396
l 266 397
l 267 403
l 269 285
l 269 287
l 270 280
l 270 283
l 271 285
l 271 287
l 271 288
l 271 295
l 272 289
l 272 296
l 274 289
l 275 290
l 275 297
l 276 291
l 276 298
l 277 292
l 277 299
l 278 293
l 278 307
l 280 354
l 281 302
l 281 305
l 282 303
l 282 312
l 283 357
l 285 364
l 286 310
l 286 313
l 286 320
l 287 365
l 288 364
l 289 376
l 290 377
l 291 378
l 292 379
l 295 384
l 296 385
l 297 386
l 298 381
l 299 382
l 300 383
l 301 380
l 302 399
l 304 330
l 304 335
l 305 401
l 308 401
l 310 410
l 311 341
l 313 412
l 314 515
l 315 516
l 319 342
l 322 518
l 323 519
l 326 521
l 327 522
l 328 431
l 329 348
l 329 349
l 329 350
l 329 355
l 331 524
l 332 523
l 333 522
l 333 526
l 336 432
l 339 529
l 340 530
l 341 440
l 342 437
l 344 533
l 345 478
l 346 481
l 348 443
l 349 444
l 351 484
l 353 481
l 354 447
l 356 444
l 357 453
l 358 494
l 359 495
l 360 534
l 361 487
l 362 488
l 363 498
l 364 449
l 364 451
l 365 452
l 365 465
l 366 506
l 367 494
l 370 535
l 371 508
l 372 499
l 373 496
l 374 497
l 375 454
l 376 455
l 377 456
l 378 457
l 379 458
l 380 459
l 382 463
l 383 464
l 385 460
l 385 466
l 386 461
l 387 462
l 388 511
l 389 503
l 390 504
l 392 505
l 393 536
l 394 537
l 395 537
l 396 507
l 397 507
l 399 467
l 401 470
l 403 514
l 404 509
l 405 538
l 405 539
l 406 541
l 407 542
l 410 473
l 412 474
l 413 545
l 414 546
l 414 547
l 416 541
l 417 550
l 418 551
l 421 473
l 424 477
l 425 553
l 427 555
l 429 549
l 430 558
l 431 476
l 431 479
l 432 477
l 433 552
l 433 563
l 435 558
l 438 569
l 443 490
l 443 501
l 444 491
l 451 564
l 451 566
l 452 567
l 454 566
l 455 572
l 456 573
l 457 574
l 458 575
l 459 576
l 461 579
l 462 580
l 463 581
l 464 582
l 465 584
l 466 578
l 467 577
l 468 585
l 470 588
l 471 587
l 472 586
l 473 589
l 473 590
l 474 591
l 476 592
l 477 593
l 481 607
l 481 609
l 484 612
l 486 609
l 488 608
l 490 602
l 491 600
l 493 621
l 494 610
l 494 622
l 497 615
l 498 616
l 499 625
l 500 613
l 502 604
l 503 628
l 504 618
l 505 619
l 506 621
l 507 623
l 508 624
l 509 626
l 510 626
l 511 627
l 515 637
l 516 638
l 518 653
l 519 654
l 520 655
l 521 639
l 522 640
l 522 656
l 523 668
l 524 655
l 526 657
l 529 666
l 530 669
l 531 674
l 533 675
l 534 679
l 535 684
l 537 685
l 537 693
l 538 702
l 539 690
l 541 694
l 541 707
l 542 695
l 543 696
l 545 714
l 547 701
l 549 708
l 550 704
l 551 705
l 552 721
l 553 711
l 554 711
l 555 712
l 558 716
l 563 720
l 564 632
l 565 633
l 566 641
l 567 634
l 567 651
l 570 722
l 571 641
l 572 642
l 573 643
l 574 644
l 575 645
l 576 659
l 578 647
l 579 648
l 580 649
l 581 650
l 582 664
l 583 665
l 585 660
l 586 661
l 587 663
l 588 662
l 590 671
l 591 672
l 591 673
l 592 676
l 593 677
l 599 687
l 604 688
l 607 723
l 608 727
l 609 724
l 610 733
l 612 726
l 613 736
l 615 728
l 616 729
l 617 727
l 618 744
l 619 730
l 621 732
l 623 738
l 624 739
l 625 735
l 626 741
l 627 742
l 628 743
l 632 750
l 633 748
l 634 764
l 636 753
l 637 793
l 638 794
l 639 795
l 641 754
l 641 755
l 642 756
l 643 757
l 644 758
l 645 759
l 647 765
l 648 766
l 649 762
l 650 763
l 651 764
l 652 804
l 653 797
l 654 798
l 655 796
l 656 799
l 657 799
l 657 800
l 659 767
l 660 768
l 661 769
l 663 771
l 664 773
l 665 774
l 668 803
l 670 805
l 671 770
l 671 775
l 673 779
l 674 807
l 676 776
l 679 808
l 683 782
l 684 810
l 685 811
l 687 789
l 688 787
l 690 812
l 695 815
l 696 816
l 700 823
l 701 824
l 702 825
l 702 826
l 704 828
l 705 817
l 707 819
l 709 828
l 710 832
l 711 833
l 711 834
l 712 835
l 714 822
l 716 827
l 716 830
l 718 830
l 720 831
l 721 832
l 722 836
l 724 839
l 724 841
l 725 843
l 726 849
l 726 850
l 727 842
l 727 845
l 728 855
l 729 844
l 730 862
l 732 846
l 732 864
l 733 848
l 734 848
l 736 854
l 738 856
l 739 852
l 740 853
l 741 857
l 742 858
l 743 859
l 744 861
l 753 871
l 754 873
l 755 874
l 756 875
l 757 876
l 758 877
l 759 878
l 762 882
l 763 883
l 764 886
l 765 887
l 766 888
l 767 879
l 768 880
l 768 892
l 769 893
l 771 898
l 773 884
l 774 897
l 774 900
l 775 895
l 779 896
l 780 901
l 782 904
l 785 908
l 789 913
l 793 917
l 794 918
l 795 919
l 796 923
l 796 926
l 797 927
l 798 925
l 799 920
l 799 921
l 800 921
l 803 922
l 803 932
l 804 924
l 805 929
l 806 931
l 808 934
l 809 937
l 810 935
l 811 938
l 812 948
l 815 939
l 816 940
l 819 942
l 820 943
l 821 961
l 823 945
l 824 946
l 827 950
l 828 951
l 829 952
l 830 953
l 831 957
l 832 957
l 832 958
l 834 959
l 836 954
l 837 956
l 840 965
l 841 963
l 843 966
l 844 972
l 845 967
l 846 983
l 847 983
l 848 984
l 850 986
l 851 972
l 852 973
l 853 974
l 854 969
l 855 970
l 856 987
l 857 992
l 858 976
l 860 978
l 861 979
l 862 980
l 869 994
l 871 996
l 873 999
l 874 999
l 875 1000
l 876 1001
l 877 1002
l 878 1003
l 879 1004
l 882 1016
l 883 1009
l 884 1010
l 885 1011
l 886 1012
l 887 1013
l 888 1014
l 891 1018
l 892 1006
l 894 1007
l 895 1019
l 896 1023
l 898 1008
l 900 1011
l 901 1020
l 901 1021
l 908 1029
l 910 1031
l 911 1032
l 917 1036
l 918 1037
l 918 1038
l 919 1039
l 921 1040
l 924 1041
l 924 1043
l 925 1045
l 926 1042
l 927 1044
l 929 1048
l 930 1049
l 931 1055
l 933 1056
l 934 1050
l 935 1051
l 937 1053
l 937 1054
l 938 1058
l 940 1059
l 940 1061
l 942 1065
l 943 1060
l 945 1078
l 946 1079
l 948 1080
l 949 1081
l 951 1068
l 952 1062
l 953 1067
l 953 1069
l 955 1069
l 956 1082
l 957 1072
l 958 1073
l 959 1074
l 960 1075
l 961 1076
l 963 1085
l 964 1113
l 965 1086
l 966 1089
l 967 1088
l 967 1091
l 968 1089
l 970 1095
l 972 1090
l 973 1098
l 974 1092
l 975 1093
l 977 1104
l 978 1105
l 979 1106
l 980 1108
l 983 1110
l 984 1111
l 985 1111
l 986 1112
l 987 1097
l 989 1097
l 992 1102
l 994 1114
l 995 1142
l 999 1117
l 999 1118
l 1000 1119
l 1001 1120
l 1002 1121
l 1003 1122
l 1004 1123
l 1006 1125
l 1007 1126
l 1008 1134
l 1010 1138
l 1011 1133
l 1012 1140
l 1013 1141
l 1014 1135
l 1016 1136
l 1017 1137
l 1018 1140
l 1019 1128
l 1021 1144
l 1023 1132
l 1024 1131
l 1025 1132
l 1026 1145
l 1028 1146
l 1029 1147
l 1030 1148
l 1031 1150
l 1032 1151
l 1036 1155
l 1038 1157
l 1039 1158
l 1040 1159
l 1041 1261
l 1042 1262
l 1043 1263
l 1044 1264
l 1045 1265
l 1046 1262
l 1047 1160
l 1049 1162
l 1051 1163
l 1054 1256
l 1054 1257
l 1056 1258
l 1059 1164
l 1060 1165
l 1061 1166
l 1062 1172
l 1065 1168
l 1066 1169
l 1067 1170
l 1068 1171
l 1069 1174
l 1071 1242
l 1072 1243
l 1073 1243
l 1073 1244
l 1075 1245
l 1076 1247
l 1078 1249
l 1079 1251
l 1080 1252
l 1080 1253
l 1081 1253
l 1087 1241
l 1089 1178
l 1090 1183
l 1091 1179
l 1092 1186
l 1093 1187
l 1095 1181
l 1097 1184
l 1097 1190
l 1098 1185
l 1102 1231
l 1103 1231
l 1104 1232
l 1105 1233
l 1106 1234
l 1108 1236
l 1110 1237
l 1110 1238
l 1111 1239
l 1113 1240
l 1116 1192
l 1117 1191
l 1117 1193
l 1118 1193
l 1119 1194
l 1120 1195
l 1121 1196
l 1122 1197
l 1124 1198
l 1125 1199
l 1128 1202
l 1131 1215
l 1132 1216
l 1133 1217
l 1134 1218
l 1135 1225
l 1136 1226
l 1137 1220
l 1138 1221
l 1139 1222
l 1140 1223
l 1141 1224
l 1142 1227
l 1145 1207
l 1146 1208
l 1148 1210
l 1155 1365
l 1157 1367
l 1157 1368
l 1158 1369
l 1159 1370
l 1160 1371
l 1162 1374
l 1163 1351
l 1164 1350
l 1164 1352
l 1166 1354
l 1168 1355
l 1169 1353
l 1171 1340
l 1172 1337
l 1174 1339
l 1174 1341
l 1176 1341
l 1177 1342
l 1178 1317
l 1178 1319
l 1179 1318
l 1179 1321
l 1180 1319
l 1181 1324
l 1183 1320
l 1185 1310
l 1186 1322
l 1187 1323
l 1190 1309
l 1192 1287
l 1193 1288
l 1193 1289
l 1194 1290
l 1195 1291
l 1196 1292
l 1197 1293
l 1198 1294
l 1199 1296
l 1202 1272
l 1206 1277
l 1208 1278
l 1210 1279
l 1215 1284
l 1216 1285
l 1218 1286
l 1219 1285
l 1220 1300
l 1221 1301
l 1222 1297
l 1223 1303
l 1224 1304
l 1225 1298
l 1226 1299
l 1227 1303
l 1227 1305
l 1229 1306
l 1231 1313
l 1232 1315
l 1233 1316
l 1234 1327
l 1236 1329
l 1238 1331
l 1239 1332
l 1240 1333
l 1240 1334
l 1241 1334
l 1242 1343
l 1243 1345
l 1244 1346
l 1245 1347
l 1246 1348
l 1247 1349
l 1249 1358
l 1250 1358
l 1251 1359
l 1253 1360
l 1254 1361
l 1256 1363
l 1256 1364
l 1258 1376
l 1260 1377
l 1261 1378
l 1262 1379
l 1263 1380
l 1264 1381
l 1265 1382
l 1271 1399
l 1272 1400
l 1273 1400
l 1275 1389
l 1277 1391
l 1278 1386
l 1279 1388
l 1280 1392
l 1284 1394
l 1285 1402
l 1286 1404
l 1287 1410
l 1288 1409
l 1288 1411
l 1289 1411
l 1290 1412
l 1291 1413
l 1292 1414
l 1293 1415
l 1295 1396
l 1296 1397
l 1296 1398
l 1297 1408
l 1298 1418
l 1299 1420
l 1300 1406
l 1301 1407
l 1302 1408
l 1303 1416
l 1304 1417
l 1305 1422
l 1306 1423
l 1308 1431
l 1309 1429
l 1310 1430
l 1313 1436
l 1314 1436
l 1315 1437
l 1319 1446
l 1320 1428
l 1321 1447
l 1323 1426
l 1324 1427
l 1326 1439
l 1327 1440
l 1328 1441
l 1329 1442
l 1331 1445
l 1332 1449
l 1334 1451
l 1335 1452
l 1337 1467
l 1339 1465
l 1340 1466
l 1341 1454
l 1341 1469
l 1342 1455
l 1344 1458
l 1345 1459
l 1346 1470
l 1346 1471
l 1348 1472
l 1349 1474
l 1351 1479
l 1352 1480
l 1353 1460
l 1354 1481
l 1355 1463
l 1356 1464
l 1358 1476
l 1359 1477
l 1360 1478
l 1360 1482
l 1361 1482
l 1364 1485
l 1364 1489
l 1365 1503
l 1368 1504
l 1369 1492
l 1369 1505
l 1370 1493
l 1370 1494
l 1371 1494
l 1373 1496
l 1374 1487
l 1375 1491
l 1377 1497
l 1378 1498
l 1379 1500
l 1380 1501
l 1381 1508
l 1382 1506
l 1385 1510
l 1386 1511
l 1387 1512
l 1388 1512
l 1389 1513
l 1389 1520
l 1392 1518
l 1395 1527
l 1396 1528
l 1398 1529
l 1399 1530
l 1400 1519
l 1402 1521
l 1404 1532
l 1407 1536
l 1408 1532
l 1408 1537
l 1410 1541
l 1411 1542
l 1411 1544
l 1412 1524
l 1412 1545
l 1413 1525
l 1414 1526
l 1416 1546
l 1417 1538
l 1418 1539
l 1420 1534
l 1421 1535
l 1422 1546
l 1422 1548
l 1424 1549
l 1426 1562
l 1427 1563
l 1428 1559
l 1429 1554
l 1430 1551
l 1431 1561
l 1434 1554
l 1436 1555
l 1438 1556
l 1439 1557
l 1441 1565
l 1442 1566
l 1445 1568
l 1446 1571
l 1447 1558
l 1447 1560
l 1448 1572
l 1449 1570
l 1450 1570
l 1451 1573
l 1451 1574
l 1452 1574
l 1454 1578
l 1456 1578
l 1457 1579
l 1458 1580
l 1459 1582
l 1461 1602
l 1463 1587
l 1464 1584
l 1466 1590
l 1467 1585
l 1469 1577
l 1471 1583
l 1472 1593
l 1473 1594
l 1474 1595
l 1476 1597
l 1476 1598
l 1477 1599
l 1479 1608
l 1480 1600
l 1481 1602
l 1482 1605
l 1485 1610
l 1486 1615
l 1488 1607
l 1490 1612
l 1491 1616
l 1492 1620
l 1494 1621
l 1496 1614
l 1498 1618
l 1499 1617
l 1501 1622
l 1501 1624
l 1502 1623
l 1503 1626
l 1504 1619
l 1506 1625
l 1507 1623
l 1508 1627
l 1510 1628
l 1512 1630
l 1519 1640
l 1520 1637
l 1521 1641
l 1523 1643
l 1524 1645
l 1525 1646
l 1526 1647
l 1527 1648
l 1528 1649
l 1529 1650
l 1530 1651
l 1531 1639
l 1532 1642
l 1534 1654
l 1535 1655
l 1536 1656
l 1537 1657
l 1538 1660
l 1539 1661
l 1542 1663
l 1544 1665
l 1546 1659
l 1546 1666
l 1547 1660
l 1548 1666
l 1549 1668
l 1551 1680
l 1554 1672
l 1555 1674
l 1556 1682
l 1559 1679
l 1560 1688
l 1562 1676
l 1563 1677
l 1564 1683
l 1565 1684
l 1566 1685
l 1568 1686
l 1569 1686
l 1570 1690
l 1571 1693
l 1572 1687
l 1574 1692
l 1575 1694
l 1577 1700
l 1578 1700
l 1579 1695
l 1581 1697
l 1582 1698
l 1583 1702
l 1584 1707
l 1587 1706
l 1587 1710
l 1588 1707
l 1590 1699
l 1591 1708
l 1592 1703
l 1594 1704
l 1595 1712
l 1598 1714
l 1599 1715
l 1600 1717
l 1602 1717
l 1602 1718
l 1603 1715
l 1605 1722
l 1607 1724
l 1608 1725
l 1610 1730
l 1611 1733
l 1612 1739
l 1613 1740
l 1615 1734
l 1615 1741
l 1617 1746
l 1619 1769
l 1620 1750
l 1621 1751
l 1622 1749
l 1623 1767
l 1624 1766
l 1625 1777
l 1626 1768
l 1627 1776
l 1628 1719
l 1628 1720
l 1629 1721
l 1630 1721
l 1634 1728
l 1636 1732
l 1637 1736
l 1639 1742
l 1640 1743
l 1642 1744
l 1643 1745
l 1644 1772
l 1645 1753
l 1646 1754
l 1647 1755
l 1648 1756
l 1649 1757
l 1650 1758
l 1654 1762
l 1655 1763
l 1656 1764
l 1657 1765
l 1658 1744
l 1660 1759
l 1661 1760
l 1663 1770
l 1663 1772
l 1665 1772
l 1666 1774
l 1667 1774
l 1668 1775
l 1672 1781
l 1672 1789
l 1674 1784
l 1676 1786
l 1677 1787
l 1679 1801
l 1680 1790
l 1681 1791
l 1682 1793
l 1683 1794
l 1684 1795
l 1685 1796
l 1686 1803
l 1687 1806
l 1688 1799
l 1690 1804
l 1691 1804
l 1692 1805
l 1692 1807
l 1694 1807
l 1697 1853
l 1699 1864
l 1700 1855
l 1700 1857
l 1702 1858
l 1703 1858
l 1704 1859
l 1704 1867
l 1707 1873
l 1708 1865
l 1710 1862
l 1712 1869
l 1714 1870
l 1715 1871
l 1715 1875
l 1717 1878
l 1718 1872
l 1719 1813
l 1721 1814
l 1722 1876
l 1723 1879
l 1725 1881
l 1728 1817
l 1730 1882
l 1732 1819
l 1733 1883
l 1734 1885
l 1739 1886
l 1740 1892
l 1741 1888
l 1742 1824
l 1742 1831
l 1743 1825
l 1744 1826
l 1745 1827
l 1748 1889
l 1749 1893
l 1750 1896
l 1750 1897
l 1751 1898
l 1752 1891
l 1753 1837
l 1754 1838
l 1755 1840
l 1756 1828
l 1757 1829
l 1758 1830
l 1759 1841
l 1760 1842
l 1762 1844
l 1763 1832
l 1764 1833
l 1765 1834
l 1766 1893
l 1767 1901
l 1768 1894
l 1769 1895
l 1770 1848
l 1771 1849
l 1772 1836
l 1774 1845
l 1774 1850
l 1776 1899
l 1777 1900
l 1781 1904
l 1784 1906
l 1786 1907
l 1787 1919
l 1790 1910
l 1791 1911
l 1793 1915
l 1794 1916
l 1795 1917
l 1796 1918
l 1799 1930
l 1800 1931
l 1801 1920
l 1802 1921
l 1803 1927
l 1804 1929
l 1806 1931
l 1807 1935
l 1807 1936
l 1808 1941
l 1812 1924
l 1813 1922
l 1814 1924
l 1817 1940
l 1819 1943
l 1820 1944
l 1824 1948
l 1826 1951
l 1827 1946
l 1828 1954
l 1829 1955
l 1830 1956
l 1832 1960
l 1833 1961
l 1834 1962
l 1835 1951
l 1836 1963
l 1837 1964
l 1838 1965
l 1840 1953
l 1841 1967
l 1841 1971
l 1842 1968
l 1844 1959
l 1845 1970
l 1847 1987
l 1848 1972
l 1849 1973
l 1850 1975
l 1852 1976
l 1853 1985
l 1855 1992
l 1856 1993
l 1857 1987
l 1858 1991
l 1858 1996
l 1862 1999
l 1863 2000
l 1864 1993
l 1865 2001
l 1867 1997
l 1869 2006
l 1870 2007
l 1872 2009
l 1873 2010
l 1874 2011
l 1875 2008
l 1876 2019
l 1878 2020
l 1879 2037
l 1881 2039
l 1882 2059
l 1883 2081
l 1885 2071
l 1886 2087
l 1889 2093
l 1891 2094
l 1892 2095
l 1893 2092
l 1893 2099
l 1894 2109
l 1895 2100
l 1897 2101
l 1899 2113
l 1900 2106
l 1901 2105
l 1902 2099
l 1904 2022
l 1906 2034
l 1907 2042
l 1908 2043
l 1910 2023
l 1911 2041
l 1914 2034
l 1915 2035
l 1916 2036
l 1917 2056
l 1920 2040
l 1920 2060
l 1921 2061
l 1922 1981
l 1924 1982
l 1925 2057
l 1927 2058
l 1929 2069
l 1931 2073
l 1933 1984
l 1934 2069
l 1935 2070
l 1936 2080
l 1938 1983
l 1941 2080
l 1942 1994
l 1944 2004
l 1946 2005
l 1948 2012
l 1951 2015
l 1953 2025
l 1954 2026
l 1955 2027
l 1956 2028
l 1959 2029
l 1960 2030
l 1961 2031
l 1962 2032
l 1963 2045
l 1964 2046
l 1965 2047
l 1968 2052
l 1970 2050
l 1971 2051
l 1973 2074
l 1974 2064
l 1975 2066
l 1976 2067
l 1980 2077
l 1981 2076
l 1982 2085
l 1983 2082
l 1984 2091
l 1987 2181
l 1987 2187
l 1991 2186
l 1992 2187
l 1993 2194
l 1994 2102
l 1995 2104
l 1996 2190
l 1997 2191
l 1998 2195
l 1999 2193
l 1999 2198
l 2000 2199
l 2001 2192
l 2004 2110
l 2005 2112
l 2006 2196
l 2007 2197
l 2008 2202
l 2009 2205
l 2011 2206
l 2012 2115
l 2015 2118
l 2016 2112
l 2018 2203
l 2019 2204
l 2019 2207
l 2020 2208
l 2021 2209
l 2022 2161
l 2023 2160
l 2024 2165
l 2025 2121
l 2026 2122
l 2027 2123
l 2028 2124
l 2030 2128
l 2031 2129
l 2032 2117
l 2033 2127
l 2034 2163
l 2035 2164
l 2037 2207
l 2039 2212
l 2040 2173
l 2042 2166
l 2043 2167
l 2045 2131
l 2046 2132
l 2047 2133
l 2050 2136
l 2051 2137
l 2052 2126
l 2055 2169
l 2056 2170
l 2057 2171
l 2058 2172
l 2059 2211
l 2061 2174
l 2062 2179
l 2063 2141
l 2064 2140
l 2066 2144
l 2068 2175
l 2069 2176
l 2069 2177
l 2071 2226
l 2072 2183
l 2073 2179
l 2076 2097
l 2077 2103
l 2078 2145
l 2080 2180
l 2081 2235
l 2083 2103
l 2084 2111
l 2086 2184
l 2088 2250
l 2090 2111
l 2093 2248
l 2094 2260
l 2095 2250
l 2099 2258
l 2099 2266
l 2100 2268
l 2101 2259
l 2102 2135
l 2104 2125
l 2105 2265
l 2106 2271
l 2107 2265
l 2109 2267
l 2110 2134
l 2110 2143
l 2112 2134
l 2113 2272
l 2114 2149
l 2115 2142
l 2115 2150
l 2118 2142
l 2119 2153
l 2121 2154
l 2122 2155
l 2123 2148
l 2127 2154
l 2128 2155
l 2129 2148
l 2130 2149
l 2131 2151
l 2131 2156
l 2132 2152
l 2136 2151
l 2136 2156
l 2137 2152
l 2138 2153
l 2140 2156
l 2141 2159
l 2144 2156
l 2145 2157
l 2161 2214
l 2161 2218
l 2162 2219
l 2163 2216
l 2164 2223
l 2165 2220
l 2166 2227
l 2167 2228
l 2168 2230
l 2169 2224
l 2170 2225
l 2171 2232
l 2173 2230
l 2174 2236
l 2175 2234
l 2177 2239
l 2179 2244
l 2180 2240
l 2180 2247
l 2181 2279
l 2183 2251
l 2184 2247
l 2186 2280
l 2187 2281
l 2188 2282
l 2189 2280
l 2190 2283
l 2192 2288
l 2193 2286
l 2194 2282
l 2195 2284
l 2196 2289
l 2197 2290
l 2199 2292
l 2200 2293
l 2201 2290
l 2203 2294
l 2205 2296
l 2207 2295
l 2207 2297
l 2209 2298
l 2210 2297
l 2211 2300
l 2214 2245
l 2216 2245
l 2219 2252
l 2220 2253
l 2221 2254
l 2222 2245
l 2223 2246
l 2224 2253
l 2228 2255
l 2230 2263
l 2231 2254
l 2232 2255
l 2234 2263
l 2235 2303
l 2236 2264
l 2236 2269
l 2237 2270
l 2239 2264
l 2243 2304
l 2244 2274
l 2247 2270
l 2247 2274
l 2248 2307
l 2250 2309
l 2250 2310
l 2258 2313
l 2259 2322
l 2261 2315
l 2265 2318
l 2265 2329
l 2266 2319
l 2267 2320
l 2268 2321
l 2271 2331
l 2272 2330
l 2273 2331
l 2275 2311
l 2279 2311
l 2279 2316
l 2280 2312
l 2281 2316
l 2282 2323
l 2283 2317
l 2284 2326
l 2286 2332
l 2287 2333
l 2288 2324
l 2289 2327
l 2290 2335
l 2292 2333
l 2293 2337
l 2294 2336
l 2295 2339
l 2296 2340
l 2297 2339
l 2297 2344
l 2300 2345
l 2301 2352
l 2302 2349
l 2303 2356
l 2304 2357
l 2307 2359
l 2310 2360
l 2311 2338
l 2312 2338
l 2313 2361
l 2314 2362
l 2315 2363
l 2316 2342
l 2317 2342
l 2319 2365
l 2320 2366
l 2321 2367
l 2322 2368
l 2323 2346
l 2324 2347
l 2326 2343
l 2326 2346
l 2327 2347
l 2329 2364
l 2330 2369
l 2331 2370
l 2332 2350
l 2333 2351
l 2335 2350
l 2336 2351
l 2337 2353
l 2339 2353
l 2340 2354
l 2344 2354
l 2349 2358
l 2352 2358
l 2357 2372
l 2359 2372
l 2360 2373
l 2361 2373
l 2362 2380
l 2363 2376
l 2364 2375
l 2365 2376
l 2366 2378
l 2367 2379
l 2369 2378
l 2370 2379
l 2371 2380
l 1 2
l 1 3
l 2 4
l 4 7
l 5 9
l 6 10
l 8 12
l 11 17
l 13 16
l 14 18
l 15 19
l 18 22
l 20 23
l 21 24
l 23 26
l 24 27
l 25 28
l 28 109
l 29 162
l 31 42
l 32 46
l 33 49
l 34 44
l 34 48
l 36 52
l 37 51
l 37 53
l 39 83
l 43 94
l 47 102
l 48 95
l 49 102
l 50 110
l 51 111
l 53 115
l 56 67
l 56 72
l 57 68
l 62 84
l 64 87
l 64 91
l 67 124
l 68 125
l 69 97
l 70 84
l 71 88
l 71 100
l 77 128
l 79 112
l 81 136
l 85 131
l 85 137
l 88 140
l 89 134
l 89 142
l 91 136
l 93 161
l 96 156
l 96 163
l 97 138
l 98 139
l 100 145
l 101 170
l 103 158
l 106 147
l 107 148
l 111 172
l 112 146
l 112 147
l 113 148
l 114 178
l 115 179
l 116 284
l 124 211
l 127 214
l 127 216
l 129 220
l 131 223
l 133 219
l 134 227
l 136 220
l 137 223
l 139 231
l 140 234
l 141 226
l 142 227
l 143 233
l 146 237
l 146 240
l 149 239
l 149 244
l 153 186
l 157 183
l 157 191
l 159 324
l 159 332
l 162 445
l 163 326
l 163 327
l 166 194
l 168 189
l 168 197
l 169 190
l 169 201
l 172 334
l 173 204
l 174 193
l 175 208
l 176 199
l 178 337
l 179 338
l 182 242
l 184 206
l 184 212
l 185 207
l 187 246
l 190 249
l 191 251
l 195 247
l 195 257
l 197 248
l 198 261
l 200 264
l 201 251
l 203 265
l 204 266
l 205 255
l 205 259
l 207 260
l 210 325
l 211 370
l 213 267
l 218 407
l 219 408
l 222 418
l 224 416
l 229 414
l 232 417
l 235 426
l 235 433
l 236 427
l 237 435
l 240 435
l 242 353
l 248 363
l 250 391
l 253 367
l 254 371
l 257 374
l 258 371
l 258 397
l 261 404
l 264 391
l 265 398
l 268 404
l 269 280
l 270 287
l 273 347
l 274 296
l 278 300
l 278 301
l 279 302
l 279 308
l 282 306
l 282 309
l 282 313
l 284 532
l 286 309
l 286 317
l 286 321
l 288 375
l 293 380
l 294 317
l 294 318
l 294 321
l 298 387
l 302 380
l 303 400
l 304 336
l 306 402
l 307 383
l 307 401
l 309 409
l 311 342
l 312 411
l 316 517
l 317 421
l 318 422
l 319 341
l 320 423
l 321 424
l 324 520
l 329 356
l 332 525
l 334 527
l 335 431
l 337 528
l 337 529
l 338 528
l 341 436
l 342 441
l 350 444
l 352 485
l 353 486
l 354 450
l 355 443
l 357 448
l 357 452
l 364 450
l 366 493
l 371 499
l 373 500
l 381 462
l 384 465
l 388 510
l 397 508
l 398 507
l 399 468
l 400 469
l 402 471
l 403 509
l 404 510
l 408 543
l 409 472
l 411 475
l 415 547
l 415 548
l 419 540
l 419 544
l 420 541
l 422 473
l 422 476
l 423 474
l 423 477
l 425 552
l 426 554
l 428 545
l 429 550
l 432 480
l 434 557
l 436 482
l 437 483
l 438 561
l 439 561
l 439 562
l 440 489
l 440 490
l 441 492
l 442 605
l 444 492
l 444 502
l 446 606
l 447 559
l 448 560
l 449 564
l 450 565
l 453 568
l 454 571
l 460 578
l 464 583
l 469 586
l 470 583
l 473 586
l 475 587
l 479 594
l 479 595
l 480 597
l 482 595
l 483 596
l 485 608
l 487 616
l 488 617
l 489 598
l 490 599
l 492 601
l 495 611
l 496 613
l 499 613
l 501 603
l 503 627
l 504 628
l 506 620
l 508 625
l 511 626
l 512 630
l 513 629
l 517 638
l 517 639
l 524 652
l 525 652
l 527 657
l 527 658
l 528 667
l 529 667
l 536 691
l 536 692
l 539 691
l 540 706
l 544 706
l 545 700
l 546 701
l 548 701
l 548 702
l 550 709
l 552 710
l 556 712
l 556 713
l 557 717
l 558 718
l 559 633
l 560 636
l 561 719
l 562 719
l 562 720
l 568 635
l 576 645
l 577 659
l 577 660
l 581 664
l 584 646
l 584 647
l 588 663
l 589 671
l 593 678
l 594 680
l 595 681
l 596 682
l 597 683
l 598 686
l 600 688
l 601 689
l 603 697
l 604 699
l 608 725
l 609 725
l 610 734
l 611 726
l 611 734
l 614 728
l 614 737
l 616 727
l 618 743
l 619 745
l 620 731
l 621 731
l 622 733
l 625 736
l 625 740
l 629 746
l 630 747
l 631 703
l 633 749
l 633 751
l 634 752
l 635 753
l 639 794
l 640 795
l 640 799
l 646 764
l 648 760
l 654 796
l 658 800
l 658 801
l 660 767
l 662 771
l 662 774
l 663 772
l 666 802
l 666 803
l 667 802
l 672 777
l 672 778
l 673 772
l 678 778
l 680 781
l 680 783
l 681 783
l 682 788
l 686 784
l 686 785
l 687 785
l 688 786
l 689 786
l 691 813
l 692 814
l 694 819
l 695 820
l 697 789
l 697 791
l 698 790
l 699 790
l 702 824
l 705 829
l 708 827
l 712 821
l 713 821
l 715 838
l 717 830
l 717 836
l 719 837
l 729 845
l 729 851
l 732 847
l 735 853
l 738 852
l 742 857
l 743 860
l 748 866
l 748 867
l 750 868
l 751 869
l 752 870
l 760 889
l 761 881
l 761 890
l 766 889
l 769 894
l 770 894
l 770 895
l 772 899
l 774 885
l 774 898
l 776 901
l 777 896
l 778 905
l 781 902
l 782 903
l 783 906
l 784 907
l 784 908
l 786 911
l 787 910
l 787 911
l 788 912
l 789 914
l 790 915
l 792 915
l 795 918
l 798 926
l 799 919
l 800 928
l 801 929
l 802 933
l 803 933
l 813 949
l 814 936
l 817 952
l 818 941
l 818 944
l 822 945
l 824 945
l 825 947
l 830 955
l 833 959
l 834 960
l 835 961
l 836 955
l 842 967
l 843 968
l 844 967
l 848 985
l 849 986
l 854 975
l 856 989
l 858 977
l 859 978
l 863 981
l 863 982
l 864 983
l 865 991
l 867 994
l 868 993
l 870 995
l 871 997
l 872 997
l 875 999
l 880 1004
l 880 1005
l 881 1015
l 883 1017
l 890 1015
l 893 1007
l 895 1007
l 897 1008
l 897 1011
l 899 1025
l 902 1021
l 903 1022
l 905 1024
l 906 1026
l 907 1027
l 908 1028
l 909 1033
l 912 1022
l 912 1032
l 913 1029
l 916 1034
l 919 1038
l 920 1039
l 920 1040
l 923 1042
l 926 1046
l 928 1047
l 932 1056
l 932 1057
l 936 1052
l 938 1051
l 939 1060
l 941 1064
l 943 1066
l 944 1064
l 945 1077
l 946 1078
l 947 1079
l 947 1080
l 950 1067
l 951 1062
l 954 1069
l 954 1070
l 956 1071
l 957 1071
l 962 1083
l 969 1093
l 971 1090
l 971 1096
l 972 1091
l 973 1092
l 976 1104
l 980 1107
l 981 1109
l 982 1109
l 984 1110
l 988 1097
l 990 1100
l 992 1101
l 992 1103
l 993 1116
l 993 1117
l 994 1116
l 996 1143
l 997 1115
l 998 1115
l 1000 1118
l 1004 1124
l 1005 1125
l 1007 1127
l 1008 1132
l 1009 1137
l 1011 1134
l 1011 1139
l 1013 1135
l 1019 1127
l 1019 1129
l 1020 1129
l 1020 1130
l 1022 1152
l 1023 1131
l 1027 1145
l 1027 1146
l 1031 1149
l 1032 1149
l 1035 1153
l 1037 1156
l 1037 1157
l 1045 1262
l 1048 1161
l 1052 1255
l 1056 1260
l 1057 1259
l 1057 1260
l 1058 1163
l 1058 1164
l 1063 1167
l 1063 1173
l 1068 1172
l 1069 1176
l 1070 1175
l 1070 1176
l 1072 1242
l 1074 1245
l 1075 1246
l 1077 1248
l 1078 1248
l 1078 1250
l 1080 1251
l 1081 1254
l 1084 1154
l 1088 1179
l 1089 1180
l 1090 1179
l 1094 1181
l 1094 1188
l 1096 1183
l 1098 1186
l 1099 1190
l 1102 1230
l 1105 1232
l 1107 1235
l 1108 1235
l 1111 1238
l 1112 1239
l 1112 1240
l 1114 1192
l 1115 1229
l 1117 1192
l 1119 1193
l 1123 1198
l 1125 1198
l 1126 1200
l 1127 1201
l 1129 1203
l 1130 1204
l 1132 1219
l 1134 1219
l 1136 1220
l 1141 1225
l 1143 1228
l 1144 1205
l 1144 1206
l 1145 1206
l 1147 1209
l 1149 1211
l 1150 1212
l 1151 1213
l 1152 1214
l 1153 1266
l 1154 1336
l 1156 1366
l 1157 1366
l 1161 1372
l 1164 1351
l 1165 1353
l 1167 1338
l 1169 1356
l 1170 1339
l 1171 1337
l 1173 1338
l 1175 1341
l 1175 1342
l 1182 1320
l 1182 1325
l 1183 1321
l 1184 1309
l 1185 1308
l 1186 1308
l 1188 1324
l 1189 1309
l 1191 1287
l 1191 1288
l 1194 1289
l 1198 1295
l 1199 1295
l 1200 1270
l 1201 1271
l 1203 1273
l 1204 1274
l 1205 1276
l 1205 1277
l 1207 1277
l 1209 1268
l 1210 1269
l 1211 1280
l 1212 1281
l 1213 1282
l 1214 1283
l 1217 1297
l 1218 1285
l 1222 1302
l 1224 1298
l 1226 1300
l 1228 1306
l 1231 1312
l 1231 1314
l 1233 1315
l 1233 1326
l 1236 1328
l 1237 1331
l 1239 1331
l 1240 1332
l 1242 1344
l 1243 1344
l 1249 1357
l 1252 1359
l 1252 1360
l 1255 1362
l 1259 1377
l 1259 1378
l 1262 1383
l 1265 1383
l 1267 1384
l 1268 1386
l 1269 1387
l 1270 1399
l 1272 1399
l 1274 1400
l 1274 1401
l 1276 1389
l 1277 1385
l 1277 1390
l 1278 1385
l 1281 1388
l 1281 1392
l 1282 1392
l 1283 1393
l 1284 1403
l 1285 1403
l 1285 1405
l 1286 1405
l 1288 1410
l 1290 1411
l 1293 1395
l 1294 1396
l 1297 1404
l 1300 1421
l 1304 1418
l 1306 1424
l 1307 1424
l 1307 1425
l 1309 1434
l 1310 1431
l 1311 1434
l 1313 1435
l 1315 1438
l 1316 1439
l 1318 1447
l 1319 1448
l 1320 1447
l 1322 1431
l 1323 1432
l 1325 1428
l 1329 1441
l 1330 1443
l 1330 1444
l 1332 1445
l 1332 1450
l 1333 1451
l 1338 1462
l 1338 1468
l 1340 1467
l 1341 1456
l 1342 1456
l 1345 1458
l 1347 1472
l 1348 1473
l 1350 1479
l 1350 1480
l 1354 1461
l 1357 1475
l 1358 1475
l 1359 1476
l 1360 1477
l 1361 1483
l 1362 1484
l 1367 1504
l 1369 1504
l 1370 1492
l 1371 1495
l 1372 1496
l 1377 1499
l 1378 1499
l 1383 1507
l 1390 1514
l 1391 1515
l 1392 1516
l 1392 1517
l 1393 1517
l 1397 1528
l 1397 1529
l 1399 1531
l 1401 1520
l 1403 1522
l 1405 1523
l 1406 1535
l 1409 1542
l 1410 1543
l 1412 1544
l 1415 1527
l 1417 1547
l 1419 1533
l 1419 1540
l 1423 1549
l 1425 1549
l 1428 1560
l 1429 1551
l 1431 1552
l 1432 1562
l 1433 1553
l 1437 1556
l 1439 1564
l 1443 1567
l 1444 1567
l 1445 1569
l 1453 1576
l 1455 1578
l 1455 1579
l 1458 1581
l 1459 1581
l 1460 1601
l 1462 1586
l 1464 1588
l 1465 1589
l 1467 1591
l 1468 1586
l 1471 1592
l 1477 1598
l 1477 1603
l 1478 1604
l 1483 1606
l 1484 1609
l 1493 1620
l 1493 1621
l 1495 1613
l 1498 1617
l 1500 1623
l 1505 1619
l 1505 1620
l 1506 1623
l 1509 1670
l 1511 1628
l 1512 1629
l 1513 1631
l 1513 1632
l 1514 1632
l 1515 1633
l 1516 1634
l 1517 1636
l 1518 1635
l 1518 1636
l 1522 1638
l 1532 1658
l 1533 1653
l 1537 1658
l 1539 1652
l 1540 1653
l 1541 1662
l 1543 1664
l 1544 1644
l 1545 1645
l 1548 1667
l 1550 1669
l 1552 1681
l 1553 1672
l 1555 1673
l 1556 1674
l 1557 1683
l 1558 1688
l 1559 1688
l 1561 1675
l 1570 1691
l 1572 1689
l 1573 1692
l 1578 1696
l 1579 1696
l 1582 1697
l 1585 1708
l 1589 1700
l 1590 1701
l 1593 1704
l 1596 1712
l 1596 1713
l 1597 1714
l 1601 1707
l 1604 1715
l 1604 1722
l 1606 1723
l 1609 1729
l 1614 1740
l 1614 1741
l 1617 1748
l 1618 1747
l 1618 1748
l 1620 1769
l 1621 1750
l 1623 1766
l 1631 1726
l 1631 1731
l 1632 1726
l 1633 1727
l 1635 1728
l 1638 1738
l 1640 1735
l 1641 1737
l 1641 1738
l 1645 1772
l 1649 1756
l 1650 1757
l 1651 1742
l 1651 1758
l 1652 1761
l 1657 1744
l 1659 1759
l 1659 1773
l 1661 1761
l 1662 1778
l 1664 1771
l 1668 1779
l 1669 1779
l 1671 1798
l 1672 1790
l 1673 1783
l 1674 1792
l 1675 1785
l 1675 1791
l 1678 1788
l 1678 1801
l 1679 1802
l 1686 1797
l 1688 1802
l 1689 1800
l 1690 1803
l 1695 1846
l 1696 1847
l 1698 1853
l 1698 1854
l 1699 1865
l 1701 1856
l 1704 1868
l 1705 1884
l 1706 1862
l 1707 1863
l 1707 1874
l 1709 1860
l 1709 1866
l 1711 1811
l 1712 1868
l 1713 1869
l 1716 1890
l 1718 1874
l 1720 1809
l 1720 1810
l 1721 1812
l 1722 1875
l 1725 1877
l 1726 1815
l 1727 1816
l 1729 1879
l 1729 1880
l 1731 1818
l 1735 1820
l 1736 1820
l 1736 1821
l 1737 1822
l 1737 1823
l 1738 1822
l 1742 1830
l 1743 1824
l 1744 1835
l 1747 1889
l 1747 1893
l 1750 1895
l 1753 1836
l 1756 1840
l 1757 1828
l 1758 1829
l 1762 1832
l 1765 1835
l 1766 1902
l 1767 1902
l 1773 1845
l 1775 1851
l 1777 1901
l 1778 1849
l 1779 1852
l 1780 1852
l 1782 1904
l 1783 1905
l 1785 1907
l 1787 1908
l 1788 1920
l 1789 1909
l 1791 1912
l 1792 1914
l 1793 1914
l 1796 1925
l 1797 1926
l 1803 1926
l 1803 1928
l 1804 1934
l 1805 1935
l 1809 1923
l 1810 1913
l 1815 1938
l 1816 1932
l 1817 1933
l 1817 1939
l 1818 1937
l 1819 1939
l 1821 1945
l 1822 1947
l 1823 1946
l 1825 1949
l 1827 1950
l 1828 1953
l 1831 1948
l 1831 1956
l 1834 1951
l 1839 1952
l 1839 1966
l 1843 1957
l 1843 1969
l 1844 1960
l 1846 1986
l 1851 1976
l 1853 1990
l 1854 1990
l 1854 1991
l 1859 1997
l 1860 2002
l 1861 1999
l 1861 2003
l 1864 2001
l 1866 2002
l 1868 1998
l 1869 1998
l 1871 2008
l 1875 2018
l 1876 2018
l 1877 2021
l 1878 2021
l 1880 2037
l 1880 2038
l 1887 2146
l 1888 2088
l 1888 2089
l 1892 2088
l 1893 2093
l 1896 2101
l 1898 2094
l 1898 2101
l 1901 2099
l 1901 2107
l 1903 2022
l 1905 2017
l 1906 2017
l 1909 2022
l 1911 2024
l 1916 2055
l 1918 2057
l 1919 2043
l 1920 2044
l 1924 1980
l 1928 2068
l 1930 2061
l 1931 2062
l 1932 1983
l 1937 1983
l 1937 1988
l 1939 1989
l 1940 1984
l 1940 1989
l 1945 1994
l 1946 1995
l 1947 1995
l 1949 2013
l 1950 2016
l 1952 2048
l 1953 2049
l 1957 2053
l 1958 2033
l 1958 2054
l 1959 2033
l 1966 2048
l 1967 2051
l 1969 2053
l 1972 2064
l 1973 2063
l 1973 2075
l 1976 2078
l 1977 2078
l 1978 2249
l 1979 2076
l 1981 2083
l 1982 2084
l 1983 2083
l 1983 2090
l 1984 2084
l 1986 2182
l 1988 2096
l 1989 2098
l 1990 2185
l 1993 2188
l 2006 2195
l 2007 2201
l 2010 2199
l 2011 2200
l 2012 2114
l 2013 2110
l 2013 2115
l 2014 2065
l 2015 2112
l 2023 2162
l 2023 2165
l 2025 2120
l 2028 2114
l 2029 2127
l 2032 2118
l 2032 2130
l 2036 2169
l 2037 2210
l 2038 2211
l 2041 2165
l 2044 2168
l 2047 2119
l 2049 2120
l 2052 2138
l 2054 2127
l 2060 2173
l 2061 2179
l 2067 2145
l 2070 2180
l 2074 2141
l 2074 2147
l 2075 2147
l 2077 2097
l 2079 2145
l 2082 2103
l 2082 2111
l 2085 2103
l 2085 2111
l 2089 2242
l 2089 2250
l 2091 2111
l 2092 2248
l 2092 2257
l 2094 2259
l 2096 2116
l 2098 2116
l 2101 2268
l 2102 2134
l 2104 2135
l 2105 2266
l 2106 2265
l 2106 2273
l 2108 2217
l 2110 2142
l 2112 2135
l 2112 2143
l 2117 2149
l 2118 2143
l 2118 2150
l 2123 2155
l 2124 2149
l 2126 2153
l 2128 2148
l 2133 2153
l 2139 2308
l 2141 2157
l 2145 2159
l 2158 2214
l 2160 2219
l 2160 2220
l 2163 2215
l 2163 2222
l 2166 2221
l 2169 2223
l 2170 2231
l 2172 2234
l 2173 2236
l 2174 2237
l 2176 2234
l 2176 2239
l 2178 2275
l 2178 2276
l 2179 2237
l 2180 2239
l 2182 2279
l 2185 2277
l 2186 2278
l 2191 2284
l 2196 2284
l 2198 2286
l 2199 2287
l 2202 2291
l 2204 2295
l 2208 2296
l 2208 2299
l 2209 2299
l 2213 2245
l 2216 2238
l 2218 2245
l 2219 2246
l 2223 2252
l 2225 2254
l 2227 2254
l 2229 2256
l 2229 2262
l 2230 2264
l 2233 2256
l 2233 2262
l 2239 2263
l 2239 2269
l 2240 2270
l 2241 2374
l 2242 2304
l 2249 2377
l 2257 2313
l 2259 2314
l 2259 2321
l 2260 2315
l 2276 2305
l 2276 2311
l 2277 2306
l 2278 2306
l 2278 2312
l 2281 2323
l 2282 2324
l 2284 2317
l 2285 2325
l 2285 2332
l 2289 2326
l 2290 2328
l 2291 2336
l 2292 2337
l 2295 2336
l 2296 2341
l 2299 2341
l 2300 2344
l 2305 2334
l 2306 2334
l 2316 2343
l 2318 2364
l 2323 2343
l 2325 2348
l 2326 2342
l 2328 2348
l 2329 2371
l 2341 2355
l 2345 2355
l 2362 2375
l 2368 2380
l 2381 2383
l 2382 2385
l 2384 2388
l 2386 2391
l 2387 2389
l 2388 2390
l 2390 2393
l 2392 2394
l 2393 2396
l 2395 2404
l 2397 2407
l 2398 2400
l 2399 2401
l 2402 2403
l 2405 2406
