# feature-edge wireframe (60 derece), ISO 8855, metre
o cab_wire
v 1.44200 -0.16080 1.92300
v 1.44100 -0.16080 1.92300
v 1.44100 -0.15980 1.92500
v 1.44100 -0.15780 1.92700
v 1.44100 0.08320 1.96700
v 1.44100 0.08520 1.96900
v 1.44000 -0.03580 1.79300
v 1.43900 -0.28280 1.89100
v 1.43900 -0.28180 1.89100
v 1.43900 -0.28580 1.89200
v 1.43900 -0.16080 1.92300
v 1.43900 0.21620 2.00500
v 1.43900 0.21320 2.00600
v 1.43800 -0.28380 1.89200
v 1.43800 -0.28680 1.89300
v 1.43800 -0.16080 1.92300
v 1.43800 0.21720 2.00400
v 1.43800 0.21420 2.00600
v 1.43800 -0.03480 2.11600
v 1.43600 -0.41380 1.85800
v 1.43600 -0.40680 1.85800
v 1.43600 -0.28380 1.89100
v 1.43600 0.21420 2.00600
v 1.43600 0.34220 2.04100
v 1.43600 0.34420 2.04100
v 1.43600 -0.03480 2.11600
v 1.43500 -0.32480 1.79300
v 1.43500 0.25220 1.79300
v 1.43500 0.21420 2.00600
v 1.43400 -0.32480 1.79300
v 1.43400 0.25220 1.79300
v 1.43300 -0.40880 1.85800
v 1.43300 -0.40780 1.85800
v 1.43300 0.34620 2.04100
v 1.43300 0.34420 2.04200
v 1.43300 0.34520 2.04200
v 1.43300 -0.32180 2.11600
v 1.43300 0.25320 2.11600
v 1.43100 -0.32180 2.11600
v 1.43100 0.25320 2.11600
v 1.42800 -0.03580 1.64600
v 1.42600 -0.03280 2.97800
v 1.42400 -0.57580 1.79300
v 1.42400 -0.57280 1.79300
v 1.42400 -0.03580 1.79300
v 1.42400 0.50020 1.79300
v 1.42400 0.50320 1.79300
v 1.42400 -0.57280 1.83800
v 1.42400 -0.03580 1.83800
v 1.42400 0.50020 1.83800
v 1.42400 -0.03780 2.26300
v 1.42300 -0.32380 1.64600
v 1.42300 0.25220 1.64600
v 1.42300 -0.56680 2.11600
v 1.42300 0.49720 2.11600
v 1.42300 -0.03780 2.26300
v 1.42300 -0.20480 2.97800
v 1.42300 0.13820 2.97800
v 1.42200 -0.03480 2.26300
v 1.42100 -0.56680 2.11600
v 1.42100 0.49720 2.11600
v 1.42000 -0.03580 1.83800
v 1.42000 -0.03580 2.06100
v 1.42000 -0.03480 2.26300
v 1.41900 -0.32480 1.79300
v 1.41900 0.25220 1.79300
v 1.41900 -0.32480 1.83800
v 1.41900 0.25220 1.83800
v 1.41900 -0.32280 2.26300
v 1.41900 0.24120 2.26300
v 1.41800 -0.32280 2.26300
v 1.41800 0.24120 2.26300
v 1.41700 -0.32180 2.26300
v 1.41700 0.25320 2.26300
v 1.41600 -0.03580 2.06100
v 1.41600 -0.03580 2.11500
v 1.41500 -0.32380 1.83800
v 1.41500 0.25220 1.83800
v 1.41500 -0.32380 2.06100
v 1.41500 0.25220 2.06100
v 1.41500 -0.32180 2.26300
v 1.41500 0.25320 2.26300
v 1.41500 -0.37380 2.97800
v 1.41500 0.30720 2.97800
v 1.41300 -0.74080 1.79300
v 1.41300 0.66820 1.79300
v 1.41300 -0.74080 1.83800
v 1.41300 0.66820 1.83800
v 1.41300 -0.72380 2.11600
v 1.41300 0.65420 2.11600
v 1.41300 -0.37280 2.97800
v 1.41200 -0.57480 1.64600
v 1.41200 0.50220 1.64600
v 1.41200 -0.74980 1.79300
v 1.41200 0.67820 1.79300
v 1.41100 -0.32480 2.06100
v 1.41100 0.25220 2.06100
v 1.41100 -0.32480 2.11500
v 1.41100 0.25220 2.11500
v 1.41100 -0.72380 2.11600
v 1.41100 0.65420 2.11600
v 1.40900 -0.56680 2.26300
v 1.40900 0.47620 2.26300
v 1.40800 -0.57280 1.79300
v 1.40800 0.50020 1.79300
v 1.40800 -0.57280 1.83800
v 1.40800 0.50020 1.83800
v 1.40800 -0.56680 2.26300
v 1.40800 0.47620 2.26300
v 1.40700 -0.56680 2.26300
v 1.40700 0.49720 2.26300
v 1.40500 -0.56880 1.83800
v 1.40500 0.49620 1.83800
v 1.40500 -0.56880 2.06100
v 1.40500 0.49620 2.06100
v 1.40500 -0.56680 2.26300
v 1.40500 0.49720 2.26300
v 1.40100 -0.57180 2.06100
v 1.40100 0.49920 2.06100
v 1.40100 -0.57180 2.11500
v 1.40100 0.49920 2.11500
v 1.40100 -0.53780 2.97800
v 1.40100 0.47120 2.97800
v 1.40000 -0.74980 1.64600
v 1.40000 0.67720 1.64600
v 1.39900 -0.53680 2.97700
v 1.39900 0.47020 2.97700
v 1.39800 -0.72380 2.26300
v 1.39800 0.63020 2.26300
v 1.39700 -0.74080 1.79300
v 1.39700 0.66820 1.79300
v 1.39700 -0.74080 1.83800
v 1.39700 0.66820 1.83800
v 1.39700 -0.72380 2.26300
v 1.39700 0.65420 2.26300
v 1.39500 -0.72380 2.26300
v 1.39500 0.65420 2.26300
v 1.39400 -0.72680 1.83800
v 1.39400 0.65420 1.83800
v 1.39400 -0.72680 2.06100
v 1.39400 0.65420 2.06100
v 1.39300 -0.15680 1.92600
v 1.39200 0.08220 1.96800
v 1.39000 -0.28680 1.89100
v 1.39000 0.21720 2.00600
v 1.39000 -0.73480 2.06100
v 1.39000 0.66220 2.06100
v 1.39000 -0.73480 2.11500
v 1.39000 0.66220 2.11500
v 1.38700 -0.41780 1.85600
v 1.38700 0.35420 2.04300
v 1.38100 -0.69580 2.97700
v 1.38100 0.62920 2.97700
v 1.37900 -0.43980 1.67900
v 1.37900 -0.30680 1.67900
v 1.37900 -0.15580 1.67900
v 1.37900 0.00520 1.67900
v 1.37900 0.16620 1.67900
v 1.37900 0.31820 1.67900
v 1.37900 0.45020 1.67900
v 1.37900 -0.69480 2.97700
v 1.37900 0.62820 2.97700
v 1.36400 -1.05380 0.82900
v 1.36300 -1.05080 0.82800
v 1.36300 0.97920 0.82800
v 1.36100 -1.04780 0.83000
v 1.36100 0.97520 0.83000
v 1.35600 -0.84580 2.97600
v 1.35600 0.77920 2.97600
v 1.35400 -1.10780 0.94900
v 1.35400 -0.84380 2.97600
v 1.35400 0.77720 2.97600
v 1.35300 -1.10580 0.94700
v 1.35300 1.03320 0.94700
v 1.35200 -1.05080 0.82500
v 1.35200 0.97820 0.82500
v 1.35100 -1.10180 0.94900
v 1.35100 1.02920 0.94900
v 1.34200 -1.10480 0.94300
v 1.34200 1.03220 0.94300
v 1.34100 1.09320 1.08200
v 1.33900 -1.16180 1.08300
v 1.33900 1.08920 1.08300
v 1.33000 -1.16580 1.07500
v 1.33000 1.09320 1.07500
v 1.32800 -0.97680 2.97600
v 1.32800 0.91020 2.97600
v 1.32600 0.90820 2.97600
v 1.29500 -0.60080 0.84100
v 1.29500 -0.47180 0.84100
v 1.29500 -0.30680 0.84100
v 1.29500 -0.14180 0.84100
v 1.29500 0.02320 0.84100
v 1.29500 0.18820 0.84100
v 1.29500 0.35220 0.84100
v 1.29500 0.51720 0.84100
v 1.29500 0.64720 0.84100
v 1.29500 -0.41280 1.53400
v 1.29500 -0.26780 1.53400
v 1.29500 -0.12180 1.53400
v 1.29500 0.02320 1.53400
v 1.29500 0.16820 1.53400
v 1.29500 0.31320 1.53400
v 1.29500 0.45820 1.53400
v 1.28500 -0.59280 0.87300
v 1.28500 -0.46280 0.87300
v 1.28500 -0.29880 0.87300
v 1.28500 -0.13680 0.87300
v 1.28500 0.02320 0.87300
v 1.28500 0.18320 0.87300
v 1.28500 0.34420 0.87300
v 1.28500 0.51020 0.87300
v 1.28500 0.64120 0.87300
v 1.28500 -0.59280 0.90600
v 1.28500 -0.46280 0.90600
v 1.28500 -0.29880 0.90600
v 1.28500 -0.13680 0.90600
v 1.28500 0.02320 0.90600
v 1.28500 0.18320 0.90600
v 1.28500 0.34420 0.90600
v 1.28500 0.51020 0.90600
v 1.28500 0.64120 0.90600
v 1.28500 -0.59280 0.93900
v 1.28500 -0.46280 0.93900
v 1.28500 -0.29880 0.93900
v 1.28500 -0.13680 0.93900
v 1.28500 0.02320 0.93900
v 1.28500 0.18320 0.93900
v 1.28500 0.34420 0.93900
v 1.28500 0.51020 0.93900
v 1.28500 0.64120 0.93900
v 1.28500 -0.59280 0.97100
v 1.28500 -0.46280 0.97100
v 1.28500 -0.29880 0.97100
v 1.28500 -0.13680 0.97100
v 1.28500 0.02320 0.97100
v 1.28500 0.18320 0.97100
v 1.28500 0.34420 0.97100
v 1.28500 0.51020 0.97100
v 1.28500 0.64120 0.97100
v 1.28500 -0.59280 1.00400
v 1.28500 -0.46280 1.00400
v 1.28500 -0.29880 1.00400
v 1.28500 -0.13680 1.00400
v 1.28500 0.02320 1.00400
v 1.28500 0.18320 1.00400
v 1.28500 0.34420 1.00400
v 1.28500 0.51020 1.00400
v 1.28500 0.64120 1.00400
v 1.28500 -0.57980 1.03600
v 1.28500 -0.45380 1.03600
v 1.28500 -0.29380 1.03600
v 1.28500 -0.13480 1.03600
v 1.28500 0.02320 1.03600
v 1.28500 0.18020 1.03600
v 1.28500 0.33920 1.03600
v 1.28500 0.50020 1.03600
v 1.28500 0.62620 1.03600
v 1.28500 -0.39980 1.06900
v 1.28500 -0.25880 1.06900
v 1.28500 -0.11780 1.06900
v 1.28500 0.02320 1.06900
v 1.28500 0.16420 1.06900
v 1.28500 0.30420 1.06900
v 1.28500 0.44520 1.06900
v 1.28500 -0.39980 1.10200
v 1.28500 -0.25880 1.10200
v 1.28500 -0.11780 1.10200
v 1.28500 0.02320 1.10200
v 1.28500 0.16420 1.10200
v 1.28500 0.30420 1.10200
v 1.28500 0.44520 1.10200
v 1.28500 -0.39980 1.13400
v 1.28500 -0.25880 1.13400
v 1.28500 -0.11780 1.13400
v 1.28500 0.02320 1.13400
v 1.28500 0.16420 1.13400
v 1.28500 0.30420 1.13400
v 1.28500 0.44520 1.13400
v 1.28500 -0.39980 1.16700
v 1.28500 -0.25880 1.16700
v 1.28500 -0.11780 1.16700
v 1.28500 0.02320 1.16700
v 1.28500 0.16420 1.16700
v 1.28500 0.30420 1.16700
v 1.28500 0.44520 1.16700
v 1.28500 -0.39980 1.19900
v 1.28500 -0.25880 1.19900
v 1.28500 -0.11780 1.19900
v 1.28500 0.02320 1.19900
v 1.28500 0.16420 1.19900
v 1.28500 0.30420 1.19900
v 1.28500 0.44520 1.19900
v 1.28500 -0.39980 1.23200
v 1.28500 -0.25880 1.23200
v 1.28500 -0.11780 1.23200
v 1.28500 0.02320 1.23200
v 1.28500 0.16420 1.23200
v 1.28500 0.30420 1.23200
v 1.28500 0.44520 1.23200
v 1.28500 -0.39980 1.26500
v 1.28500 -0.25880 1.26500
v 1.28500 -0.11780 1.26500
v 1.28500 0.02320 1.26500
v 1.28500 0.16420 1.26500
v 1.28500 0.30420 1.26500
v 1.28500 0.44520 1.26500
v 1.28500 -0.39980 1.29700
v 1.28500 -0.25880 1.29700
v 1.28500 -0.11780 1.29700
v 1.28500 0.02320 1.29700
v 1.28500 0.16420 1.29700
v 1.28500 0.30420 1.29700
v 1.28500 0.44520 1.29700
v 1.28500 -0.39980 1.33000
v 1.28500 -0.25880 1.33000
v 1.28500 -0.11780 1.33000
v 1.28500 0.02320 1.33000
v 1.28500 0.16420 1.33000
v 1.28500 0.30420 1.33000
v 1.28500 0.44520 1.33000
v 1.28500 -0.39980 1.36200
v 1.28500 -0.25880 1.36200
v 1.28500 -0.11780 1.36200
v 1.28500 0.02320 1.36200
v 1.28500 0.16420 1.36200
v 1.28500 0.30420 1.36200
v 1.28500 0.44520 1.36200
v 1.28500 -0.39980 1.39500
v 1.28500 -0.25880 1.39500
v 1.28500 -0.11780 1.39500
v 1.28500 0.02320 1.39500
v 1.28500 0.16420 1.39500
v 1.28500 0.30420 1.39500
v 1.28500 0.44520 1.39500
v 1.28500 -0.39980 1.42800
v 1.28500 -0.25880 1.42800
v 1.28500 -0.11780 1.42800
v 1.28500 0.02320 1.42800
v 1.28500 0.16420 1.42800
v 1.28500 0.30420 1.42800
v 1.28500 0.44520 1.42800
v 1.28500 -0.39980 1.46000
v 1.28500 -0.25880 1.46000
v 1.28500 -0.11780 1.46000
v 1.28500 0.02320 1.46000
v 1.28500 0.16420 1.46000
v 1.28500 0.30420 1.46000
v 1.28500 0.44520 1.46000
v 1.28500 -0.39980 1.49300
v 1.28500 -0.25880 1.49300
v 1.28500 -0.11780 1.49300
v 1.28500 0.02320 1.49300
v 1.28500 0.16420 1.49300
v 1.28500 0.30420 1.49300
v 1.28500 0.44520 1.49300
v 1.26400 -0.57680 0.85700
v 1.26400 -0.44480 0.85700
v 1.26400 -0.28180 0.85700
v 1.26400 -0.12680 0.85700
v 1.26400 0.02320 0.85700
v 1.26400 0.17320 0.85700
v 1.26400 0.32820 0.85700
v 1.26400 0.49520 0.85700
v 1.26400 0.62920 0.85700
v 1.26400 -0.57680 0.89000
v 1.26400 -0.44480 0.89000
v 1.26400 -0.28180 0.89000
v 1.26400 -0.12680 0.89000
v 1.26400 0.02320 0.89000
v 1.26400 0.17320 0.89000
v 1.26400 0.32820 0.89000
v 1.26400 0.49520 0.89000
v 1.26400 0.62920 0.89000
v 1.26400 -0.57680 0.92200
v 1.26400 -0.44480 0.92200
v 1.26400 -0.28180 0.92200
v 1.26400 -0.12680 0.92200
v 1.26400 0.02320 0.92200
v 1.26400 0.17320 0.92200
v 1.26400 0.32820 0.92200
v 1.26400 0.49520 0.92200
v 1.26400 0.62920 0.92200
v 1.26400 -0.57680 0.95500
v 1.26400 -0.44480 0.95500
v 1.26400 -0.28180 0.95500
v 1.26400 -0.12680 0.95500
v 1.26400 0.02320 0.95500
v 1.26400 0.17320 0.95500
v 1.26400 0.32820 0.95500
v 1.26400 0.49520 0.95500
v 1.26400 0.62920 0.95500
v 1.26400 -0.57680 0.98700
v 1.26400 -0.44480 0.98700
v 1.26400 -0.28180 0.98700
v 1.26400 -0.12680 0.98700
v 1.26400 0.02320 0.98700
v 1.26400 0.17320 0.98700
v 1.26400 0.32820 0.98700
v 1.26400 0.49520 0.98700
v 1.26400 0.62920 0.98700
v 1.26400 -0.57680 1.02000
v 1.26400 -0.44480 1.02000
v 1.26400 -0.28180 1.02000
v 1.26400 -0.12680 1.02000
v 1.26400 0.02320 1.02000
v 1.26400 0.17320 1.02000
v 1.26400 0.32820 1.02000
v 1.26400 0.49520 1.02000
v 1.26400 0.62920 1.02000
v 1.26400 -0.38080 1.05300
v 1.26400 -0.24680 1.05300
v 1.26400 -0.11180 1.05300
v 1.26400 0.02320 1.05300
v 1.26400 0.15720 1.05300
v 1.26400 0.29220 1.05300
v 1.26400 0.42720 1.05300
v 1.26400 -0.37380 1.08500
v 1.26400 -0.24180 1.08500
v 1.26400 -0.10880 1.08500
v 1.26400 0.02320 1.08500
v 1.26400 0.15520 1.08500
v 1.26400 0.28720 1.08500
v 1.26400 0.41920 1.08500
v 1.26400 -0.37380 1.11800
v 1.26400 -0.24180 1.11800
v 1.26400 -0.10880 1.11800
v 1.26400 0.02320 1.11800
v 1.26400 0.15520 1.11800
v 1.26400 0.28720 1.11800
v 1.26400 0.41920 1.11800
v 1.26400 -0.37380 1.15000
v 1.26400 -0.24180 1.15000
v 1.26400 -0.10880 1.15000
v 1.26400 0.02320 1.15000
v 1.26400 0.15520 1.15000
v 1.26400 0.28720 1.15000
v 1.26400 0.41920 1.15000
v 1.26400 -0.37380 1.18300
v 1.26400 -0.24180 1.18300
v 1.26400 -0.10880 1.18300
v 1.26400 0.02320 1.18300
v 1.26400 0.15520 1.18300
v 1.26400 0.28720 1.18300
v 1.26400 0.41920 1.18300
v 1.26400 -0.37380 1.21600
v 1.26400 -0.24180 1.21600
v 1.26400 -0.10880 1.21600
v 1.26400 0.02320 1.21600
v 1.26400 0.15520 1.21600
v 1.26400 0.28720 1.21600
v 1.26400 0.41920 1.21600
v 1.26400 -0.37380 1.24800
v 1.26400 -0.24180 1.24800
v 1.26400 -0.10880 1.24800
v 1.26400 0.02320 1.24800
v 1.26400 0.15520 1.24800
v 1.26400 0.28720 1.24800
v 1.26400 0.41920 1.24800
v 1.26400 -0.37380 1.28100
v 1.26400 -0.24180 1.28100
v 1.26400 -0.10880 1.28100
v 1.26400 0.02320 1.28100
v 1.26400 0.15520 1.28100
v 1.26400 0.28720 1.28100
v 1.26400 0.41920 1.28100
v 1.26400 -0.37380 1.31300
v 1.26400 -0.24180 1.31300
v 1.26400 -0.10880 1.31300
v 1.26400 0.02320 1.31300
v 1.26400 0.15520 1.31300
v 1.26400 0.28720 1.31300
v 1.26400 0.41920 1.31300
v 1.26400 -0.37380 1.34600
v 1.26400 -0.24180 1.34600
v 1.26400 -0.10880 1.34600
v 1.26400 0.02320 1.34600
v 1.26400 0.15520 1.34600
v 1.26400 0.28720 1.34600
v 1.26400 0.41920 1.34600
v 1.26400 -0.37380 1.37900
v 1.26400 -0.24180 1.37900
v 1.26400 -0.10880 1.37900
v 1.26400 0.02320 1.37900
v 1.26400 0.15520 1.37900
v 1.26400 0.28720 1.37900
v 1.26400 0.41920 1.37900
v 1.26400 -0.37380 1.41100
v 1.26400 -0.24180 1.41100
v 1.26400 -0.10880 1.41100
v 1.26400 0.02320 1.41100
v 1.26400 0.15520 1.41100
v 1.26400 0.28720 1.41100
v 1.26400 0.41920 1.41100
v 1.26400 -0.37380 1.44400
v 1.26400 -0.24180 1.44400
v 1.26400 -0.10880 1.44400
v 1.26400 0.02320 1.44400
v 1.26400 0.15520 1.44400
v 1.26400 0.28720 1.44400
v 1.26400 0.41920 1.44400
v 1.26400 -0.37380 1.47600
v 1.26400 -0.24180 1.47600
v 1.26400 -0.10880 1.47600
v 1.26400 0.02320 1.47600
v 1.26400 0.15520 1.47600
v 1.26400 0.28720 1.47600
v 1.26400 0.41920 1.47600
v 1.26400 -0.37380 1.50900
v 1.26400 -0.24180 1.50900
v 1.26400 -0.10880 1.50900
v 1.26400 0.02320 1.50900
v 1.26400 0.15520 1.50900
v 1.26400 0.28720 1.50900
v 1.26400 0.41920 1.50900
v 1.25000 -0.03280 3.27300
v 1.25000 -0.03280 3.27700
v 1.24700 0.38820 1.68200
v 1.24700 0.82920 1.68200
v 1.24700 0.38820 1.69000
v 1.24700 0.82920 1.69000
v 1.24700 -0.21380 3.27300
v 1.24700 0.14720 3.27300
v 1.24700 -0.21380 3.27700
v 1.24700 0.14720 3.27700
v 1.24200 -0.03780 3.08200
v 1.23900 -0.03480 3.08300
v 1.23800 -0.27580 3.08200
v 1.23800 -0.03480 3.08200
v 1.23800 0.20020 3.08200
v 1.23800 -0.39280 3.27200
v 1.23800 0.32620 3.27200
v 1.23800 -0.39280 3.27600
v 1.23800 0.32620 3.27600
v 1.23400 -0.30080 3.08300
v 1.23400 0.23220 3.08300
v 1.23300 0.38920 1.68500
v 1.23300 0.82720 1.68500
v 1.23300 0.38920 1.69000
v 1.23300 0.82720 1.69000
v 1.23300 -0.30080 3.08200
v 1.23300 0.23220 3.08200
v 1.23000 -0.49380 3.08200
v 1.23000 0.41720 3.08200
v 1.22400 -0.52780 3.08300
v 1.22400 0.45820 3.08300
v 1.22300 -0.52680 3.08200
v 1.22300 0.45820 3.08200
v 1.22200 -0.56580 3.27200
v 1.22200 0.49920 3.27200
v 1.22200 -0.56580 3.27600
v 1.22200 0.49920 3.27600
v 1.21900 -0.66980 3.08300
v 1.21900 0.59320 3.08300
v 1.21300 0.35420 1.68200
v 1.21300 0.35420 1.69000
v 1.21300 -0.67280 3.08200
v 1.21300 0.60420 3.08200
v 1.21300 -0.67280 3.08300
v 1.21200 0.36920 1.68500
v 1.21200 0.36920 1.69000
v 1.20900 -0.67680 0.84100
v 1.20900 0.72220 0.84100
v 1.20900 -0.59280 1.53400
v 1.20900 0.63920 1.53400
v 1.20800 -1.02280 1.68200
v 1.20800 -0.59580 1.68200
v 1.20800 -1.02280 1.69000
v 1.20800 -0.59580 1.69000
v 1.20200 -0.66780 0.87300
v 1.20200 0.71620 0.87300
v 1.20200 -0.66780 0.90600
v 1.20200 0.71620 0.90600
v 1.20200 -0.66780 0.93900
v 1.20200 0.71620 0.93900
v 1.20200 -0.66780 0.97100
v 1.20200 0.71620 0.97100
v 1.20200 -0.66780 1.00400
v 1.20200 0.71620 1.00400
v 1.20000 -0.73080 3.27100
v 1.20000 0.66420 3.27100
v 1.20000 -0.73080 3.27600
v 1.20000 0.66420 3.27600
v 1.19400 -0.65880 1.02800
v 1.19400 0.70920 1.02800
v 1.19400 -1.02180 1.68500
v 1.19400 -0.59580 1.68500
v 1.19400 -1.02180 1.69000
v 1.19400 -0.59580 1.69000
v 1.18800 -0.83080 3.15000
v 1.18800 0.75420 3.15000
v 1.18600 -0.64980 0.85700
v 1.18600 0.70320 0.85700
v 1.18600 -0.64980 0.89000
v 1.18600 0.70320 0.89000
v 1.18600 -0.64980 0.92200
v 1.18600 0.70320 0.92200
v 1.18600 -0.64980 0.95500
v 1.18600 0.70320 0.95500
v 1.18600 -0.64980 0.98700
v 1.18600 0.70320 0.98700
v 1.18600 -0.64980 1.02000
v 1.18600 0.70320 1.02000
v 1.18600 -0.84480 3.15100
v 1.18600 0.76820 3.15100
v 1.18500 -1.04580 1.68200
v 1.18500 -1.03180 1.68500
v 1.18500 -1.04580 1.69000
v 1.18500 -1.03180 1.69000
v 1.17200 -0.88580 3.27100
v 1.17200 0.81920 3.27100
v 1.17200 -0.88580 3.27500
v 1.17200 0.81920 3.27500
v 1.17000 -1.27380 0.73100
v 1.17000 1.20120 0.73100
v 1.17000 -1.27380 0.85400
v 1.17000 1.20120 0.85400
v 1.17000 -1.27380 0.99300
v 1.17000 1.20120 0.99300
v 1.17000 -1.27180 1.12400
v 1.17000 1.19920 1.12400
v 1.17000 -0.83180 3.29800
v 1.17000 0.75520 3.29800
v 1.16800 -0.84580 3.29900
v 1.16800 0.76920 3.29900
v 1.16700 -1.30480 2.44700
v 1.16700 -1.30380 2.44700
v 1.16700 1.22520 2.44700
v 1.16700 1.22620 2.44700
v 1.15300 -1.29880 2.58100
v 1.15200 -1.29880 2.58100
v 1.15200 -1.29780 2.58100
v 1.15200 -1.29680 2.58100
v 1.15200 1.21720 2.58100
v 1.15200 1.21820 2.58100
v 1.14600 1.18120 1.68200
v 1.14600 1.18120 1.69000
v 1.14100 -1.02080 3.27000
v 1.14100 0.95420 3.27000
v 1.14100 -1.02080 3.27400
v 1.14100 0.95420 3.27400
v 1.13500 -1.28780 2.71500
v 1.13500 -1.28680 2.71500
v 1.13500 1.20820 2.71500
v 1.13400 -1.28680 2.71500
v 1.13400 1.20720 2.71500
v 1.13300 1.17620 1.68500
v 1.13300 1.17620 1.69000
v 1.13100 -0.83280 3.45800
v 1.13100 0.75720 3.45800
v 1.12900 -0.84680 3.45800
v 1.12900 0.77120 3.45800
v 1.11500 1.19520 2.84500
v 1.11400 -1.31780 2.44700
v 1.11400 -1.30880 2.44700
v 1.11400 1.23220 2.44700
v 1.11400 1.24220 2.44700
v 1.11400 -1.27280 2.84500
v 1.11400 -1.27180 2.84500
v 1.11400 1.19420 2.84500
v 1.11200 -0.50080 1.68200
v 1.11200 -0.50080 1.69000
v 1.10800 -0.51480 1.68500
v 1.10800 -0.51480 1.69000
v 1.10300 1.21320 1.68200
v 1.10300 1.19920 1.68500
v 1.10300 1.19920 1.69000
v 1.10300 1.21320 1.69000
v 1.09700 -1.30880 2.58200
v 1.09700 -1.29980 2.58200
v 1.09700 1.22320 2.58200
v 1.09700 1.23320 2.58200
v 1.09100 -1.25280 2.96700
v 1.09100 1.17920 2.96700
v 1.09100 1.17920 2.96800
v 1.08000 -1.29980 2.71300
v 1.08000 -1.28980 2.71300
v 1.08000 1.21420 2.71300
v 1.08000 1.22320 2.71300
v 1.07600 -1.31280 2.18900
v 1.07600 1.23720 2.18900
v 1.07500 -1.31780 2.18900
v 1.07500 1.24220 2.18900
v 1.06400 -1.31280 2.31000
v 1.06400 1.23720 2.31000
v 1.06400 -1.31780 2.31100
v 1.06400 1.24220 2.31100
v 1.05200 -1.31980 2.44800
v 1.05200 -1.30980 2.44800
v 1.05200 1.23420 2.44800
v 1.05200 1.24320 2.44800
v 1.04400 -1.22280 3.25400
v 1.04400 1.14620 3.25400
v 1.04100 -1.22080 3.25400
v 1.04100 1.14520 3.25400
v 1.03900 -1.29480 2.58600
v 1.03900 1.21920 2.58600
v 1.03900 -1.29980 2.58700
v 1.03900 1.22420 2.58700
v 1.03800 -1.30980 2.58100
v 1.03800 -1.30080 2.58100
v 1.03800 1.22520 2.58100
v 1.03800 1.23420 2.58100
v 1.02500 -1.20280 3.37700
v 1.02500 1.12720 3.37700
v 1.02200 -1.20180 3.37700
v 1.02200 1.12620 3.37700
v 1.02100 -1.30080 2.70400
v 1.02100 -1.29180 2.70400
v 1.02100 1.21520 2.70400
v 1.02100 1.22520 2.70400
v 1.01500 0.36920 1.68500
v 1.01500 0.36920 1.69000
v 1.01400 0.35420 1.68200
v 1.01400 0.35420 1.69000
v 1.00300 -1.27580 2.82200
v 1.00300 1.20020 2.82200
v 1.00300 -1.28080 2.82300
v 1.00300 1.20520 2.82300
v 0.97800 -0.78280 3.60500
v 0.97800 0.70720 3.60500
v 0.97800 -0.65580 3.60900
v 0.97800 0.58020 3.60900
v 0.97800 -0.47380 3.61300
v 0.97800 0.39820 3.61300
v 0.97800 -0.26280 3.61500
v 0.97800 -0.03780 3.61500
v 0.97800 0.18720 3.61500
v 0.97700 -0.78280 3.60200
v 0.97700 0.70720 3.60200
v 0.97700 -0.65580 3.60700
v 0.97700 0.58020 3.60700
v 0.97700 -0.47380 3.61100
v 0.97700 0.39820 3.61100
v 0.97700 -0.26280 3.61200
v 0.97700 -0.03780 3.61200
v 0.97700 0.18720 3.61200
v 0.95300 -0.68180 0.84100
v 0.95300 0.72820 0.84100
v 0.95300 -0.65480 0.85700
v 0.95300 0.70820 0.85700
v 0.95300 -0.67280 0.87300
v 0.95300 0.72120 0.87300
v 0.95300 -0.65480 0.89000
v 0.95300 0.70820 0.89000
v 0.95300 -0.67280 0.90600
v 0.95300 0.72120 0.90600
v 0.95300 -0.65480 0.92200
v 0.95300 0.70820 0.92200
v 0.95300 -0.67280 0.93900
v 0.95300 0.72120 0.93900
v 0.95300 -0.65480 0.95500
v 0.95300 0.70820 0.95500
v 0.95300 -0.67280 0.97100
v 0.95300 0.72120 0.97100
v 0.95300 -0.65480 0.98700
v 0.95300 0.70820 0.98700
v 0.95300 -0.67280 1.00400
v 0.95300 0.72120 1.00400
v 0.95300 -0.65480 1.02000
v 0.95300 0.70820 1.02000
v 0.95300 -0.66380 1.02800
v 0.95300 0.71520 1.02800
v 0.95300 -0.59780 1.53400
v 0.95300 0.64420 1.53400
v 0.95300 0.47920 1.68500
v 0.95300 0.47920 1.69000
v 0.95200 0.46420 1.68200
v 0.95200 0.46420 1.69000
v 0.92100 0.34020 1.68200
v 0.92100 0.34020 1.69000
v 0.90900 -1.25680 2.99600
v 0.90900 1.18020 2.99600
v 0.90900 -1.26080 2.99700
v 0.90900 1.18520 2.99700
v 0.90800 0.34620 1.68500
v 0.90800 0.34620 1.69000
v 0.88300 0.40320 1.68200
v 0.88300 0.40320 1.69000
v 0.88200 0.38920 1.68500
v 0.88200 0.38920 1.69000
v 0.81400 -1.26180 3.10000
v 0.81400 -1.25280 3.10000
v 0.81400 1.17720 3.10000
v 0.81400 1.18620 3.10000
v 0.80300 -1.27580 2.20400
v 0.80300 1.20020 2.20400
v 0.80300 -1.27080 2.20500
v 0.80300 1.19520 2.20500
v 0.77300 -0.46680 1.68200
v 0.77300 -0.46680 1.69000
v 0.77000 -0.48080 1.68500
v 0.77000 -0.48080 1.69000
v 0.74400 -0.55280 1.68500
v 0.74400 -0.55280 1.69000
v 0.74300 -0.53880 1.68200
v 0.74300 -0.53880 1.69000
v 0.72400 -0.02580 1.68200
v 0.72400 -0.02580 1.69000
v 0.71900 -0.64980 0.85700
v 0.71900 0.70320 0.85700
v 0.71900 -0.64980 0.89000
v 0.71900 0.70320 0.89000
v 0.71900 -0.64980 0.92200
v 0.71900 0.70320 0.92200
v 0.71900 -0.64980 0.95500
v 0.71900 0.70320 0.95500
v 0.71900 -0.64980 0.98700
v 0.71900 0.70320 0.98700
v 0.71900 -0.64980 1.02000
v 0.71900 0.70320 1.02000
v 0.71100 -0.65880 1.02800
v 0.71100 0.70920 1.02800
v 0.71100 -0.01880 1.68500
v 0.71100 -0.01880 1.69000
v 0.70300 -0.66780 0.87300
v 0.70300 0.71620 0.87300
v 0.70300 -0.66780 0.90600
v 0.70300 0.71620 0.90600
v 0.70300 -0.66780 0.93900
v 0.70300 0.71620 0.93900
v 0.70300 -0.66780 0.97100
v 0.70300 0.71620 0.97100
v 0.70300 -0.66780 1.00400
v 0.70300 0.71620 1.00400
v 0.70000 -1.25080 3.01200
v 0.70000 -1.24580 3.01200
v 0.70000 1.17020 3.01200
v 0.70000 1.17520 3.01200
v 0.70000 -0.30780 3.72700
v 0.70000 0.23320 3.72700
v 0.69600 -0.67680 0.84100
v 0.69600 0.72220 0.84100
v 0.69600 -0.59280 1.53400
v 0.69600 0.63920 1.53400
v 0.69600 -0.30780 3.71300
v 0.69600 0.23320 3.71300
v 0.69200 -0.40980 1.68200
v 0.69200 -0.15380 1.68200
v 0.69200 -0.40980 1.69000
v 0.69200 -0.15380 1.69000
v 0.69100 -1.25880 3.10900
v 0.69100 -1.24880 3.10900
v 0.69100 1.17320 3.10900
v 0.69100 1.18220 3.10900
v 0.68800 -1.26280 3.01300
v 0.68800 -1.25280 3.01300
v 0.68800 1.17720 3.01300
v 0.68800 1.18620 3.01300
v 0.68200 -1.27880 2.23500
v 0.68200 1.20220 2.23500
v 0.67800 -0.40880 1.68500
v 0.67800 -0.15380 1.68500
v 0.67800 -0.40880 1.69000
v 0.67800 -0.15380 1.69000
v 0.65500 -1.28680 1.50800
v 0.65500 1.21120 1.50800
v 0.64100 -0.57680 0.85700
v 0.64100 -0.44480 0.85700
v 0.64100 -0.28180 0.85700
v 0.64100 -0.12680 0.85700
v 0.64100 0.02320 0.85700
v 0.64100 0.17320 0.85700
v 0.64100 0.32820 0.85700
v 0.64100 0.49520 0.85700
v 0.64100 0.62920 0.85700
v 0.64100 -0.57680 0.89000
v 0.64100 -0.44480 0.89000
v 0.64100 -0.28180 0.89000
v 0.64100 -0.12680 0.89000
v 0.64100 0.02320 0.89000
v 0.64100 0.17320 0.89000
v 0.64100 0.32820 0.89000
v 0.64100 0.49520 0.89000
v 0.64100 0.62920 0.89000
v 0.64100 -0.57680 0.92200
v 0.64100 -0.44480 0.92200
v 0.64100 -0.28180 0.92200
v 0.64100 -0.12680 0.92200
v 0.64100 0.02320 0.92200
v 0.64100 0.17320 0.92200
v 0.64100 0.32820 0.92200
v 0.64100 0.49520 0.92200
v 0.64100 0.62920 0.92200
v 0.64100 -0.57680 0.95500
v 0.64100 -0.44480 0.95500
v 0.64100 -0.28180 0.95500
v 0.64100 -0.12680 0.95500
v 0.64100 0.02320 0.95500
v 0.64100 0.17320 0.95500
v 0.64100 0.32820 0.95500
v 0.64100 0.49520 0.95500
v 0.64100 0.62920 0.95500
v 0.64100 -0.57680 0.98700
v 0.64100 -0.44480 0.98700
v 0.64100 -0.28180 0.98700
v 0.64100 -0.12680 0.98700
v 0.64100 0.02320 0.98700
v 0.64100 0.17320 0.98700
v 0.64100 0.32820 0.98700
v 0.64100 0.49520 0.98700
v 0.64100 0.62920 0.98700
v 0.64100 -0.57680 1.02000
v 0.64100 -0.44480 1.02000
v 0.64100 -0.28180 1.02000
v 0.64100 -0.12680 1.02000
v 0.64100 0.02320 1.02000
v 0.64100 0.17320 1.02000
v 0.64100 0.32820 1.02000
v 0.64100 0.49520 1.02000
v 0.64100 0.62920 1.02000
v 0.64100 -0.38080 1.05300
v 0.64100 -0.24680 1.05300
v 0.64100 -0.11180 1.05300
v 0.64100 0.02320 1.05300
v 0.64100 0.15720 1.05300
v 0.64100 0.29220 1.05300
v 0.64100 0.42720 1.05300
v 0.64100 -0.37380 1.08500
v 0.64100 -0.24180 1.08500
v 0.64100 -0.10880 1.08500
v 0.64100 0.02320 1.08500
v 0.64100 0.15520 1.08500
v 0.64100 0.28720 1.08500
v 0.64100 0.41920 1.08500
v 0.64100 -0.37380 1.11800
v 0.64100 -0.24180 1.11800
v 0.64100 -0.10880 1.11800
v 0.64100 0.02320 1.11800
v 0.64100 0.15520 1.11800
v 0.64100 0.28720 1.11800
v 0.64100 0.41920 1.11800
v 0.64100 -0.37380 1.15000
v 0.64100 -0.24180 1.15000
v 0.64100 -0.10880 1.15000
v 0.64100 0.02320 1.15000
v 0.64100 0.15520 1.15000
v 0.64100 0.28720 1.15000
v 0.64100 0.41920 1.15000
v 0.64100 -0.37380 1.18300
v 0.64100 -0.24180 1.18300
v 0.64100 -0.10880 1.18300
v 0.64100 0.02320 1.18300
v 0.64100 0.15520 1.18300
v 0.64100 0.28720 1.18300
v 0.64100 0.41920 1.18300
v 0.64100 -0.37380 1.21600
v 0.64100 -0.24180 1.21600
v 0.64100 -0.10880 1.21600
v 0.64100 0.02320 1.21600
v 0.64100 0.15520 1.21600
v 0.64100 0.28720 1.21600
v 0.64100 0.41920 1.21600
v 0.64100 -0.37380 1.24800
v 0.64100 -0.24180 1.24800
v 0.64100 -0.10880 1.24800
v 0.64100 0.02320 1.24800
v 0.64100 0.15520 1.24800
v 0.64100 0.28720 1.24800
v 0.64100 0.41920 1.24800
v 0.64100 -0.37380 1.28100
v 0.64100 -0.24180 1.28100
v 0.64100 -0.10880 1.28100
v 0.64100 0.02320 1.28100
v 0.64100 0.15520 1.28100
v 0.64100 0.28720 1.28100
v 0.64100 0.41920 1.28100
v 0.64100 -0.37380 1.31300
v 0.64100 -0.24180 1.31300
v 0.64100 -0.10880 1.31300
v 0.64100 0.02320 1.31300
v 0.64100 0.15520 1.31300
v 0.64100 0.28720 1.31300
v 0.64100 0.41920 1.31300
v 0.64100 -0.37380 1.34600
v 0.64100 -0.24180 1.34600
v 0.64100 -0.10880 1.34600
v 0.64100 0.02320 1.34600
v 0.64100 0.15520 1.34600
v 0.64100 0.28720 1.34600
v 0.64100 0.41920 1.34600
v 0.64100 -0.37380 1.37900
v 0.64100 -0.24180 1.37900
v 0.64100 -0.10880 1.37900
v 0.64100 0.02320 1.37900
v 0.64100 0.15520 1.37900
v 0.64100 0.28720 1.37900
v 0.64100 0.41920 1.37900
v 0.64100 -0.37380 1.41100
v 0.64100 -0.24180 1.41100
v 0.64100 -0.10880 1.41100
v 0.64100 0.02320 1.41100
v 0.64100 0.15520 1.41100
v 0.64100 0.28720 1.41100
v 0.64100 0.41920 1.41100
v 0.64100 -0.37380 1.44400
v 0.64100 -0.24180 1.44400
v 0.64100 -0.10880 1.44400
v 0.64100 0.02320 1.44400
v 0.64100 0.15520 1.44400
v 0.64100 0.28720 1.44400
v 0.64100 0.41920 1.44400
v 0.64100 -0.37380 1.47600
v 0.64100 -0.24180 1.47600
v 0.64100 -0.10880 1.47600
v 0.64100 0.02320 1.47600
v 0.64100 0.15520 1.47600
v 0.64100 0.28720 1.47600
v 0.64100 0.41920 1.47600
v 0.64100 -0.37380 1.50900
v 0.64100 -0.24180 1.50900
v 0.64100 -0.10880 1.50900
v 0.64100 0.02320 1.50900
v 0.64100 0.15520 1.50900
v 0.64100 0.28720 1.50900
v 0.64100 0.41920 1.50900
v 0.62000 -0.59280 0.87300
v 0.62000 -0.46280 0.87300
v 0.62000 -0.29880 0.87300
v 0.62000 -0.13680 0.87300
v 0.62000 0.02320 0.87300
v 0.62000 0.18320 0.87300
v 0.62000 0.34420 0.87300
v 0.62000 0.51020 0.87300
v 0.62000 0.64120 0.87300
v 0.62000 -0.59280 0.90600
v 0.62000 -0.46280 0.90600
v 0.62000 -0.29880 0.90600
v 0.62000 -0.13680 0.90600
v 0.62000 0.02320 0.90600
v 0.62000 0.18320 0.90600
v 0.62000 0.34420 0.90600
v 0.62000 0.51020 0.90600
v 0.62000 0.64120 0.90600
v 0.62000 -0.59280 0.93900
v 0.62000 -0.46280 0.93900
v 0.62000 -0.29880 0.93900
v 0.62000 -0.13680 0.93900
v 0.62000 0.02320 0.93900
v 0.62000 0.18320 0.93900
v 0.62000 0.34420 0.93900
v 0.62000 0.51020 0.93900
v 0.62000 0.64120 0.93900
v 0.62000 -0.59280 0.97100
v 0.62000 -0.46280 0.97100
v 0.62000 -0.29880 0.97100
v 0.62000 -0.13680 0.97100
v 0.62000 0.02320 0.97100
v 0.62000 0.18320 0.97100
v 0.62000 0.34420 0.97100
v 0.62000 0.51020 0.97100
v 0.62000 0.64120 0.97100
v 0.62000 -0.59280 1.00400
v 0.62000 -0.46280 1.00400
v 0.62000 -0.29880 1.00400
v 0.62000 -0.13680 1.00400
v 0.62000 0.02320 1.00400
v 0.62000 0.18320 1.00400
v 0.62000 0.34420 1.00400
v 0.62000 0.51020 1.00400
v 0.62000 0.64120 1.00400
v 0.62000 -0.57980 1.03600
v 0.62000 -0.45380 1.03600
v 0.62000 -0.29380 1.03600
v 0.62000 -0.13480 1.03600
v 0.62000 0.02320 1.03600
v 0.62000 0.18020 1.03600
v 0.62000 0.33920 1.03600
v 0.62000 0.50020 1.03600
v 0.62000 0.62620 1.03600
v 0.62000 -0.39980 1.06900
v 0.62000 -0.25880 1.06900
v 0.62000 -0.11780 1.06900
v 0.62000 0.02320 1.06900
v 0.62000 0.16420 1.06900
v 0.62000 0.30420 1.06900
v 0.62000 0.44520 1.06900
v 0.62000 -0.39980 1.10200
v 0.62000 -0.25880 1.10200
v 0.62000 -0.11780 1.10200
v 0.62000 0.02320 1.10200
v 0.62000 0.16420 1.10200
v 0.62000 0.30420 1.10200
v 0.62000 0.44520 1.10200
v 0.62000 -0.39980 1.13400
v 0.62000 -0.25880 1.13400
v 0.62000 -0.11780 1.13400
v 0.62000 0.02320 1.13400
v 0.62000 0.16420 1.13400
v 0.62000 0.30420 1.13400
v 0.62000 0.44520 1.13400
v 0.62000 -0.39980 1.16700
v 0.62000 -0.25880 1.16700
v 0.62000 -0.11780 1.16700
v 0.62000 0.02320 1.16700
v 0.62000 0.16420 1.16700
v 0.62000 0.30420 1.16700
v 0.62000 0.44520 1.16700
v 0.62000 -0.39980 1.19900
v 0.62000 -0.25880 1.19900
v 0.62000 -0.11780 1.19900
v 0.62000 0.02320 1.19900
v 0.62000 0.16420 1.19900
v 0.62000 0.30420 1.19900
v 0.62000 0.44520 1.19900
v 0.62000 -0.39980 1.23200
v 0.62000 -0.25880 1.23200
v 0.62000 -0.11780 1.23200
v 0.62000 0.02320 1.23200
v 0.62000 0.16420 1.23200
v 0.62000 0.30420 1.23200
v 0.62000 0.44520 1.23200
v 0.62000 -0.39980 1.26500
v 0.62000 -0.25880 1.26500
v 0.62000 -0.11780 1.26500
v 0.62000 0.02320 1.26500
v 0.62000 0.16420 1.26500
v 0.62000 0.30420 1.26500
v 0.62000 0.44520 1.26500
v 0.62000 -0.39980 1.29700
v 0.62000 -0.25880 1.29700
v 0.62000 -0.11780 1.29700
v 0.62000 0.02320 1.29700
v 0.62000 0.16420 1.29700
v 0.62000 0.30420 1.29700
v 0.62000 0.44520 1.29700
v 0.62000 -0.39980 1.33000
v 0.62000 -0.25880 1.33000
v 0.62000 -0.11780 1.33000
v 0.62000 0.02320 1.33000
v 0.62000 0.16420 1.33000
v 0.62000 0.30420 1.33000
v 0.62000 0.44520 1.33000
v 0.62000 -0.39980 1.36200
v 0.62000 -0.25880 1.36200
v 0.62000 -0.11780 1.36200
v 0.62000 0.02320 1.36200
v 0.62000 0.16420 1.36200
v 0.62000 0.30420 1.36200
v 0.62000 0.44520 1.36200
v 0.62000 -0.39980 1.39500
v 0.62000 -0.25880 1.39500
v 0.62000 -0.11780 1.39500
v 0.62000 0.02320 1.39500
v 0.62000 0.16420 1.39500
v 0.62000 0.30420 1.39500
v 0.62000 0.44520 1.39500
v 0.62000 -0.39980 1.42800
v 0.62000 -0.25880 1.42800
v 0.62000 -0.11780 1.42800
v 0.62000 0.02320 1.42800
v 0.62000 0.16420 1.42800
v 0.62000 0.30420 1.42800
v 0.62000 0.44520 1.42800
v 0.62000 -0.39980 1.46000
v 0.62000 -0.25880 1.46000
v 0.62000 -0.11780 1.46000
v 0.62000 0.02320 1.46000
v 0.62000 0.16420 1.46000
v 0.62000 0.30420 1.46000
v 0.62000 0.44520 1.46000
v 0.62000 -0.39980 1.49300
v 0.62000 -0.25880 1.49300
v 0.62000 -0.11780 1.49300
v 0.62000 0.02320 1.49300
v 0.62000 0.16420 1.49300
v 0.62000 0.30420 1.49300
v 0.62000 0.44520 1.49300
v 0.62000 -0.48080 1.68200
v 0.62000 -0.46680 1.68500
v 0.62000 -0.48080 1.69000
v 0.62000 -0.46680 1.69000
v 0.61000 -0.60080 0.84100
v 0.61000 -0.47180 0.84100
v 0.61000 -0.30680 0.84100
v 0.61000 -0.14180 0.84100
v 0.61000 0.02320 0.84100
v 0.61000 0.18820 0.84100
v 0.61000 0.35220 0.84100
v 0.61000 0.51720 0.84100
v 0.61000 0.64720 0.84100
v 0.61000 -0.41280 1.53400
v 0.61000 -0.26780 1.53400
v 0.61000 -0.12180 1.53400
v 0.61000 0.02320 1.53400
v 0.61000 0.16820 1.53400
v 0.61000 0.31320 1.53400
v 0.61000 0.45820 1.53400
v 0.56500 -1.28080 2.26400
v 0.56500 1.20420 2.26400
v 0.55100 -1.27980 2.27100
v 0.55100 -1.27480 2.27100
v 0.55100 1.19920 2.27100
v 0.55100 1.20420 2.27100
v 0.55000 -1.26180 3.02200
v 0.55000 -1.25180 3.02200
v 0.55000 1.17620 3.02200
v 0.55000 1.18520 3.02200
v 0.55000 -1.25780 3.11900
v 0.55000 -1.24780 3.11900
v 0.55000 1.17220 3.11900
v 0.55000 1.18120 3.11900
v 0.52200 -1.29080 1.54300
v 0.52200 1.21520 1.54300
v 0.46200 -0.81080 1.69500
v 0.46200 -0.64280 1.69500
v 0.46200 -0.47580 1.69500
v 0.46200 0.56620 1.69500
v 0.46200 0.73320 1.69500
v 0.46200 0.90120 1.69500
v 0.46200 -0.81080 1.79700
v 0.46200 -0.64280 1.79700
v 0.46200 -0.47580 1.79700
v 0.46200 0.56620 1.79700
v 0.46200 0.73320 1.79700
v 0.46200 0.90120 1.79700
v 0.45200 -0.80380 1.73100
v 0.45200 -0.64280 1.73100
v 0.45200 -0.48180 1.73100
v 0.45200 0.57320 1.73100
v 0.45200 0.73320 1.73100
v 0.45200 0.89420 1.73100
v 0.45200 -0.80380 1.76100
v 0.45200 -0.64280 1.76100
v 0.45200 -0.48180 1.76100
v 0.45200 0.57320 1.76100
v 0.45200 0.73320 1.76100
v 0.45200 0.89420 1.76100
v 0.41500 -1.25780 3.12800
v 0.41500 -1.24880 3.12800
v 0.41500 1.17320 3.12800
v 0.41500 1.18220 3.12800
v 0.41400 -1.26180 3.03200
v 0.41400 -1.25280 3.03200
v 0.41400 1.17720 3.03200
v 0.41400 1.18620 3.03200
v 0.40300 -1.28080 2.30900
v 0.40300 -1.27680 2.30900
v 0.40300 1.20020 2.30900
v 0.40300 1.20520 2.30900
v 0.40000 -1.25180 3.03300
v 0.40000 -1.24680 3.03300
v 0.40000 1.17120 3.03300
v 0.40000 1.17520 3.03300
v 0.38300 -0.88080 1.69500
v 0.38300 -0.40480 1.69500
v 0.38300 0.49520 1.69500
v 0.38300 0.97120 1.69500
v 0.38300 -0.40480 1.72600
v 0.38300 0.49520 1.72600
v 0.38300 -0.40480 1.73700
v 0.38300 0.49520 1.73700
v 0.38300 -0.40480 1.75500
v 0.38300 0.49520 1.75500
v 0.38300 -0.40480 1.76600
v 0.38300 0.49520 1.76600
v 0.38300 -0.40480 1.78400
v 0.38300 0.49520 1.78400
v 0.38300 -0.88080 1.79700
v 0.38300 -0.40480 1.79700
v 0.38300 0.49520 1.79700
v 0.38300 0.97120 1.79700
v 0.37700 -0.41480 1.70200
v 0.37700 0.50520 1.70200
v 0.37700 0.96220 1.70200
v 0.37700 -0.41480 1.71700
v 0.37700 0.50520 1.71700
v 0.37700 0.96220 1.71700
v 0.37700 -0.87080 1.73100
v 0.37700 -0.41480 1.73100
v 0.37700 0.50520 1.73100
v 0.37700 0.96220 1.73100
v 0.37700 -0.41480 1.74600
v 0.37700 0.50520 1.74600
v 0.37700 0.96220 1.74600
v 0.37700 -0.87080 1.76100
v 0.37700 -0.41480 1.76100
v 0.37700 0.50520 1.76100
v 0.37700 0.96220 1.76100
v 0.37700 -0.41480 1.77500
v 0.37700 0.50520 1.77500
v 0.37700 0.96220 1.77500
v 0.37700 -0.41480 1.79000
v 0.37700 0.50520 1.79000
v 0.37700 0.96220 1.79000
v 0.33100 -1.28180 2.32600
v 0.33100 -1.27680 2.32600
v 0.33100 1.20120 2.32600
v 0.33100 1.20620 2.32600
v 0.21200 -1.25380 3.04400
v 0.21200 -1.24880 3.04400
v 0.21200 1.17320 3.04400
v 0.21200 1.17720 3.04400
v 0.20900 -1.28280 2.35600
v 0.20900 -1.27780 2.35600
v 0.20900 1.20220 2.35600
v 0.20900 1.20720 2.35600
v 0.19600 -0.88080 1.69500
v 0.19600 -0.40480 1.69500
v 0.19600 0.49520 1.69500
v 0.19600 0.97120 1.69500
v 0.19600 -0.41480 1.70200
v 0.19600 0.50520 1.70200
v 0.19600 0.96220 1.70200
v 0.19600 -0.41480 1.71700
v 0.19600 0.50520 1.71700
v 0.19600 0.96220 1.71700
v 0.19600 -0.40480 1.72600
v 0.19600 0.49520 1.72600
v 0.19600 -0.87080 1.73100
v 0.19600 -0.41480 1.73100
v 0.19600 0.50520 1.73100
v 0.19600 0.96220 1.73100
v 0.19600 -0.40480 1.73700
v 0.19600 0.49520 1.73700
v 0.19600 -0.41480 1.74600
v 0.19600 0.50520 1.74600
v 0.19600 0.96220 1.74600
v 0.19600 -0.40480 1.75500
v 0.19600 0.49520 1.75500
v 0.19600 -0.87080 1.76100
v 0.19600 -0.41480 1.76100
v 0.19600 0.50520 1.76100
v 0.19600 0.96220 1.76100
v 0.19600 -0.40480 1.76600
v 0.19600 0.49520 1.76600
v 0.19600 -0.41480 1.77500
v 0.19600 0.50520 1.77500
v 0.19600 0.96220 1.77500
v 0.19600 -0.40480 1.78400
v 0.19600 0.49520 1.78400
v 0.19600 -0.41480 1.79000
v 0.19600 0.50520 1.79000
v 0.19600 0.96220 1.79000
v 0.19600 -0.88080 1.79700
v 0.19600 -0.40480 1.79700
v 0.19600 0.49520 1.79700
v 0.19600 0.97120 1.79700
v 0.18700 -0.30780 3.84500
v 0.18700 0.23320 3.84500
v 0.18400 -0.30780 3.83100
v 0.18400 0.23320 3.83100
v 0.12600 0.54820 3.83800
v 0.12600 -0.28180 3.83900
v 0.12600 0.41320 3.83900
v 0.12600 0.20520 3.84100
v 0.12600 -0.03780 3.84200
v 0.12500 -0.62580 3.83200
v 0.12500 -0.49080 3.83300
v 0.12500 0.55020 3.83500
v 0.12500 -0.28280 3.83700
v 0.12500 0.41420 3.83700
v 0.12500 0.20620 3.83900
v 0.12500 -0.03780 3.84000
v 0.10800 -1.26780 2.52800
v 0.10800 -1.25880 2.71100
v 0.10200 -1.26980 2.88800
v 0.10200 -1.25980 2.88800
v 0.10200 1.18420 2.88800
v 0.10200 1.19420 2.88800
v 0.10100 -1.27880 2.48400
v 0.10100 -1.27380 2.48400
v 0.10100 1.19820 2.48400
v 0.10100 1.20320 2.48400
v 0.10100 -1.28680 2.52500
v 0.10100 -1.27780 2.52500
v 0.10100 1.20120 2.52500
v 0.10100 1.21120 2.52500
v 0.10100 -1.27780 2.71000
v 0.10100 -1.26880 2.71000
v 0.10100 1.19320 2.71000
v 0.10100 1.20220 2.71000
v 0.10100 -1.25180 2.93900
v 0.10100 1.17620 2.93900
v 0.10100 -1.25680 2.94000
v 0.10100 1.18020 2.94000
v 0.10000 -0.62580 3.83200
v 0.10000 -0.49080 3.83300
v 0.10000 0.55020 3.83500
v 0.10000 -0.28280 3.83700
v 0.10000 0.41420 3.83700
v 0.10000 0.20620 3.83900
v 0.10000 -0.03780 3.84000
v 0.07600 0.94620 3.82700
v 0.01600 -0.41480 1.70200
v 0.01600 0.50520 1.70200
v 0.01600 0.96220 1.70200
v 0.01600 -0.41480 1.71700
v 0.01600 0.50520 1.71700
v 0.01600 0.96220 1.71700
v 0.01600 -0.87080 1.73100
v 0.01600 -0.41480 1.73100
v 0.01600 0.50520 1.73100
v 0.01600 0.96220 1.73100
v 0.01600 -0.41480 1.74600
v 0.01600 0.50520 1.74600
v 0.01600 0.96220 1.74600
v 0.01600 -0.87080 1.76100
v 0.01600 -0.41480 1.76100
v 0.01600 0.50520 1.76100
v 0.01600 0.96220 1.76100
v 0.01600 -0.41480 1.77500
v 0.01600 0.50520 1.77500
v 0.01600 0.96220 1.77500
v 0.01600 -0.41480 1.79000
v 0.01600 0.50520 1.79000
v 0.01600 0.96220 1.79000
v 0.00900 -0.88080 1.69500
v 0.00900 -0.40480 1.69500
v 0.00900 0.49520 1.69500
v 0.00900 0.97120 1.69500
v 0.00900 -0.40480 1.72600
v 0.00900 0.49520 1.72600
v 0.00900 -0.40480 1.73700
v 0.00900 0.49520 1.73700
v 0.00900 -0.40480 1.75500
v 0.00900 0.49520 1.75500
v 0.00900 -0.40480 1.76600
v 0.00900 0.49520 1.76600
v 0.00900 -0.40480 1.78400
v 0.00900 0.49520 1.78400
v 0.00900 -0.88080 1.79700
v 0.00900 -0.40480 1.79700
v 0.00900 0.49520 1.79700
v 0.00900 0.97120 1.79700
v 0.00500 -1.34680 2.01100
v 0.00500 -1.34180 2.13300
v 0.00500 -1.29180 2.55100
v 0.00500 -1.28280 2.74200
v 0.00400 -1.33480 2.01200
v 0.00400 1.25920 2.01200
v 0.00400 -1.33080 2.13300
v 0.00400 1.25420 2.13300
v 0.00400 -1.32580 2.25700
v 0.00400 1.25020 2.25700
v 0.00400 -1.27980 2.55100
v 0.00400 1.20420 2.55100
v 0.00400 -1.27080 2.74100
v 0.00400 1.19520 2.74100
v 0.00400 -1.26180 2.93200
v 0.00400 1.18520 2.93200
v -0.00000 -1.27980 2.63800
v -0.00000 1.20420 2.63800
v -0.00000 -1.27280 2.77900
v -0.00000 1.19720 2.77900
v -0.00000 -1.26580 2.92400
v -0.00000 1.19020 2.92400
v -0.04000 1.19520 2.64900
v -0.04000 1.18920 2.78800
v -0.05200 0.94120 2.43500
v -0.06000 -0.80380 1.70200
v -0.06000 -0.64280 1.70200
v -0.06000 -0.48180 1.70200
v -0.06000 0.57320 1.70200
v -0.06000 0.73320 1.70200
v -0.06000 0.89420 1.70200
v -0.06000 -0.80380 1.71700
v -0.06000 -0.64280 1.71700
v -0.06000 -0.48180 1.71700
v -0.06000 0.57320 1.71700
v -0.06000 0.73320 1.71700
v -0.06000 0.89420 1.71700
v -0.06000 -0.80380 1.73100
v -0.06000 -0.64280 1.73100
v -0.06000 -0.48180 1.73100
v -0.06000 0.57320 1.73100
v -0.06000 0.73320 1.73100
v -0.06000 0.89420 1.73100
v -0.06000 -0.80380 1.74600
v -0.06000 -0.64280 1.74600
v -0.06000 -0.48180 1.74600
v -0.06000 0.57320 1.74600
v -0.06000 0.73320 1.74600
v -0.06000 0.89420 1.74600
v -0.06000 -0.80380 1.76100
v -0.06000 -0.64280 1.76100
v -0.06000 -0.48180 1.76100
v -0.06000 0.57320 1.76100
v -0.06000 0.73320 1.76100
v -0.06000 0.89420 1.76100
v -0.06000 -0.80380 1.77500
v -0.06000 -0.64280 1.77500
v -0.06000 -0.48180 1.77500
v -0.06000 0.57320 1.77500
v -0.06000 0.73320 1.77500
v -0.06000 0.89420 1.77500
v -0.06000 -0.80380 1.79000
v -0.06000 -0.64280 1.79000
v -0.06000 -0.48180 1.79000
v -0.06000 0.57320 1.79000
v -0.06000 0.73320 1.79000
v -0.06000 0.89420 1.79000
v -0.06700 0.95720 3.85900
v -0.06700 0.95920 3.86500
v -0.07000 -0.81080 1.69500
v -0.07000 -0.64280 1.69500
v -0.07000 -0.47580 1.69500
v -0.07000 0.56620 1.69500
v -0.07000 0.73320 1.69500
v -0.07000 0.90120 1.69500
v -0.07000 -0.81080 1.72600
v -0.07000 -0.64280 1.72600
v -0.07000 -0.47580 1.72600
v -0.07000 0.56620 1.72600
v -0.07000 0.73320 1.72600
v -0.07000 0.90120 1.72600
v -0.07000 -0.81080 1.73700
v -0.07000 -0.64280 1.73700
v -0.07000 -0.47580 1.73700
v -0.07000 0.56620 1.73700
v -0.07000 0.73320 1.73700
v -0.07000 0.90120 1.73700
v -0.07000 -0.81080 1.75500
v -0.07000 -0.64280 1.75500
v -0.07000 -0.47580 1.75500
v -0.07000 0.56620 1.75500
v -0.07000 0.73320 1.75500
v -0.07000 0.90120 1.75500
v -0.07000 -0.81080 1.76600
v -0.07000 -0.64280 1.76600
v -0.07000 -0.47580 1.76600
v -0.07000 0.56620 1.76600
v -0.07000 0.73320 1.76600
v -0.07000 0.90120 1.76600
v -0.07000 -0.81080 1.78400
v -0.07000 -0.64280 1.78400
v -0.07000 -0.47580 1.78400
v -0.07000 0.56620 1.78400
v -0.07000 0.73320 1.78400
v -0.07000 0.90120 1.78400
v -0.07000 -0.81080 1.79700
v -0.07000 -0.64280 1.79700
v -0.07000 -0.47580 1.79700
v -0.07000 0.56620 1.79700
v -0.07000 0.73320 1.79700
v -0.07000 0.90120 1.79700
v -0.07100 0.90320 2.44200
v -0.07200 0.90320 2.44200
v -0.07600 -1.25380 3.15400
v -0.07600 -1.26380 3.15500
v -0.08800 1.12920 3.70100
v -0.08800 1.14120 3.70100
v -0.08800 1.08720 3.81400
v -0.08800 1.09920 3.81400
v -0.09100 0.92820 2.55700
v -0.09200 0.92820 2.55600
v -0.09300 0.92720 2.55600
v -0.10200 1.13520 3.68500
v -0.10200 1.14720 3.68500
v -0.10300 1.08620 3.81700
v -0.10300 1.09720 3.81700
v -0.10400 0.89220 2.57100
v -0.10500 0.89120 2.57100
v -0.10600 0.89220 2.57000
v -0.10600 1.13720 3.68100
v -0.10600 1.14820 3.68100
v -0.10700 1.08620 3.81800
v -0.10700 1.09720 3.81800
v -0.11000 -1.32980 2.18800
v -0.12100 1.14320 3.66500
v -0.12100 1.15420 3.66500
v -0.12200 1.08520 3.82100
v -0.12200 1.09620 3.82100
v -0.12500 1.14420 3.66000
v -0.12500 1.15620 3.66000
v -0.12600 1.08420 3.82200
v -0.12600 1.09620 3.82200
v -0.12700 0.91520 2.67200
v -0.12800 0.91520 2.67200
v -0.12900 0.91420 2.67200
v -0.13700 0.88220 2.69200
v -0.14000 1.15020 3.64600
v -0.14000 1.16120 3.64600
v -0.14000 1.08320 3.82500
v -0.14000 1.09520 3.82500
v -0.14400 1.15120 3.64200
v -0.14400 1.16220 3.64200
v -0.14400 1.08320 3.82500
v -0.14400 1.09420 3.82500
v -0.15800 1.15520 3.63200
v -0.15800 1.16620 3.63200
v -0.15900 1.08220 3.82800
v -0.15900 1.09320 3.82800
v -0.16100 1.09320 3.83500
v -0.16200 1.15620 3.62900
v -0.16200 1.16720 3.62900
v -0.16300 1.08220 3.82900
v -0.16300 1.09320 3.82900
v -0.16900 1.09020 3.82800
v -0.16900 1.08920 3.82900
v -0.16900 0.99920 3.83000
v -0.16900 1.08820 3.83000
v -0.16900 1.09420 3.83000
v -0.16900 1.08820 3.83100
v -0.16900 1.09120 3.83300
v -0.16900 1.09320 3.83300
v -0.17000 1.09020 3.82800
v -0.17000 1.09320 3.82800
v -0.17700 1.15820 3.62200
v -0.17700 1.17020 3.62200
v -0.17800 1.08120 3.83200
v -0.17800 1.09220 3.83200
v -0.18100 1.15920 3.62000
v -0.18100 1.17120 3.62000
v -0.18200 1.08020 3.83300
v -0.18200 1.09220 3.83300
v -0.19100 -1.26880 3.10200
v -0.19600 1.16120 3.61600
v -0.19600 1.17220 3.61600
v -0.19600 1.07920 3.83600
v -0.19600 1.09120 3.83600
v -0.19900 1.16120 3.61500
v -0.19900 1.17220 3.61500
v -0.20100 1.07920 3.83700
v -0.20100 1.09020 3.83700
v -0.20600 0.90920 1.79500
v -0.20600 0.87620 1.79700
v -0.20600 0.87620 1.79800
v -0.21000 -1.25480 3.16000
v -0.21000 -1.26580 3.16100
v -0.21500 0.91120 1.92200
v -0.21500 0.91120 1.92300
v -0.21500 0.87620 1.92500
v -0.21500 1.16120 3.61400
v -0.21500 1.17320 3.61400
v -0.21500 1.07820 3.84000
v -0.21500 1.08920 3.84000
v -0.21600 0.87620 1.92500
v -0.21900 1.25420 2.18800
v -0.21900 1.16120 3.61300
v -0.21900 1.17320 3.61300
v -0.21900 1.07820 3.84000
v -0.21900 1.08920 3.84000
v -0.23300 1.16220 3.61300
v -0.23300 1.17320 3.61300
v -0.23400 1.07720 3.84300
v -0.23400 1.08820 3.84300
v -0.23600 0.91220 2.28400
v -0.23700 0.91220 2.28500
v -0.23700 0.87820 2.28700
v -0.23700 1.16220 3.61300
v -0.23700 1.17320 3.61300
v -0.23800 0.87820 2.28700
v -0.23800 1.07620 3.84400
v -0.23800 1.08820 3.84400
v -0.24500 1.10620 3.55400
v -0.24500 1.10320 3.56000
v -0.25200 1.16220 3.61300
v -0.25200 1.17320 3.61300
v -0.25300 1.07520 3.84700
v -0.25300 1.08720 3.84700
v -0.25600 1.16220 3.61300
v -0.25600 1.17320 3.61300
v -0.25700 0.91220 2.64300
v -0.25700 1.07520 3.84800
v -0.25700 1.08620 3.84800
v -0.25800 0.91220 2.64400
v -0.25800 0.88020 2.64600
v -0.25900 0.88020 2.64700
v -0.26400 0.91220 2.76400
v -0.26500 0.88120 2.76700
v -0.26600 0.88120 2.76700
v -0.27100 1.16220 3.61200
v -0.27100 1.17320 3.61200
v -0.27100 1.07420 3.85100
v -0.27100 1.08520 3.85100
v -0.27500 1.16220 3.61200
v -0.27500 1.17320 3.61200
v -0.27500 1.07420 3.85200
v -0.27500 1.08520 3.85200
v -0.27500 0.96820 3.90300
v -0.27600 0.96620 3.89700
v -0.28300 1.19420 3.59200
v -0.29000 1.16220 3.61200
v -0.29000 1.17320 3.61200
v -0.29000 1.07320 3.85500
v -0.29000 1.08420 3.85500
v -0.29400 1.16220 3.61200
v -0.29400 1.17320 3.61200
v -0.29400 1.07220 3.85500
v -0.29400 1.08420 3.85500
v -0.29900 1.17320 3.60900
v -0.29900 1.17620 3.60900
v -0.29900 1.17320 3.61000
v -0.29900 1.17620 3.61000
v -0.29900 1.17720 3.61000
v -0.29900 1.17220 3.61100
v -0.29900 1.17720 3.61100
v -0.29900 1.08220 3.61200
v -0.29900 1.17120 3.61200
v -0.29900 1.17720 3.61300
v -0.29900 1.17220 3.61400
v -0.29900 1.17720 3.61400
v -0.29900 1.17320 3.61500
v -0.29900 1.17520 3.61500
v -0.29900 1.17620 3.61500
v -0.30300 -1.31480 1.75600
v -0.30300 1.23820 1.75600
v -0.30800 1.16320 3.61200
v -0.30800 1.17320 3.61400
v -0.31000 1.07120 3.85500
v -0.31000 1.08220 3.85700
v -0.31200 1.16320 3.61200
v -0.31200 1.17320 3.61400
v -0.31200 1.08420 3.86000
v -0.31400 1.07120 3.85500
v -0.31400 1.08220 3.85700
v -0.31500 1.08220 3.85700
v -0.31600 -1.26980 3.10800
v -0.31600 1.08220 3.85200
v -0.31600 1.08520 3.85200
v -0.31600 1.08020 3.85300
v -0.31600 1.08120 3.85300
v -0.31600 1.08020 3.85400
v -0.31600 1.08620 3.85400
v -0.31600 0.99120 3.85500
v -0.31600 1.08020 3.85500
v -0.31600 1.08620 3.85500
v -0.31600 1.08120 3.85700
v -0.31600 1.08220 3.85700
v -0.31600 1.08520 3.85700
v -0.31600 1.08320 3.85800
v -0.32700 1.16320 3.61100
v -0.32700 1.17420 3.61300
v -0.32900 1.07020 3.85700
v -0.32900 1.08120 3.85900
v -0.33100 1.16320 3.61100
v -0.33100 1.17420 3.61300
v -0.33300 1.07020 3.85700
v -0.33300 1.08120 3.85900
v -0.34500 1.16320 3.61100
v -0.34500 1.17420 3.61300
v -0.34700 -1.32980 2.18800
v -0.34700 1.07020 3.85900
v -0.34700 1.08120 3.86100
v -0.34900 -1.25680 3.16800
v -0.35000 -1.26680 3.16900
v -0.35000 1.16320 3.61100
v -0.35000 1.17420 3.61300
v -0.35100 1.07020 3.85900
v -0.35100 1.08020 3.86100
v -0.36400 1.16320 3.61100
v -0.36400 1.17420 3.61300
v -0.36600 1.06920 3.86100
v -0.36600 1.08020 3.86300
v -0.36800 1.16320 3.61100
v -0.36800 1.17420 3.61300
v -0.37000 1.06920 3.86100
v -0.37000 1.08020 3.86300
v -0.38300 1.16320 3.61100
v -0.38300 1.17420 3.61200
v -0.38500 1.06820 3.86300
v -0.38500 1.07920 3.86500
v -0.38700 1.16320 3.61000
v -0.38700 1.17420 3.61200
v -0.38900 1.06820 3.86300
v -0.38900 1.07920 3.86500
v -0.40200 1.16320 3.61000
v -0.40200 1.17420 3.61200
v -0.40300 1.06820 3.86500
v -0.40300 1.07920 3.86700
v -0.40600 1.16320 3.61000
v -0.40600 1.17420 3.61200
v -0.40700 1.06820 3.86500
v -0.40700 1.07920 3.86700
v -0.41600 1.25420 2.18800
v -0.42100 1.16320 3.61000
v -0.42100 1.17420 3.61200
v -0.42200 1.06720 3.86700
v -0.42200 1.07820 3.86900
v -0.42300 -1.31880 1.78700
v -0.42300 1.24320 1.78700
v -0.42500 1.16320 3.61000
v -0.42500 1.17420 3.61200
v -0.42600 1.06720 3.86700
v -0.42600 1.07820 3.86900
v -0.43900 1.16320 3.61000
v -0.43900 1.17420 3.61100
v -0.44100 1.06720 3.86900
v -0.44100 1.07720 3.87000
v -0.44300 1.16320 3.60900
v -0.44300 1.17420 3.61100
v -0.44500 1.06720 3.86900
v -0.44500 1.07720 3.87100
v -0.45800 1.16320 3.60900
v -0.45800 1.17420 3.61100
v -0.45900 1.06620 3.87100
v -0.45900 1.07720 3.87200
v -0.46200 1.16320 3.60900
v -0.46200 1.17420 3.61100
v -0.46400 1.06620 3.87100
v -0.46400 1.07720 3.87300
v -0.47700 1.16320 3.60900
v -0.47700 1.17420 3.61100
v -0.47800 1.06520 3.87300
v -0.47800 1.07620 3.87400
v -0.48100 1.16320 3.60900
v -0.48100 1.17420 3.61100
v -0.48200 1.06520 3.87300
v -0.48200 1.07620 3.87500
v -0.49600 1.16320 3.60900
v -0.49600 1.17420 3.61000
v -0.49700 1.06520 3.87500
v -0.49700 1.07520 3.87600
v -0.50000 1.16320 3.60900
v -0.50000 1.17420 3.61000
v -0.50100 -1.28480 2.98600
v -0.50100 1.20920 2.98600
v -0.50100 1.06520 3.87500
v -0.50100 1.07520 3.87700
v -0.50800 1.07520 3.87400
v -0.50800 1.07320 3.87500
v -0.50800 1.07520 3.87500
v -0.50800 1.07620 3.87500
v -0.50800 1.07720 3.87500
v -0.50800 0.98320 3.87700
v -0.50800 1.07220 3.87700
v -0.50800 1.07820 3.87700
v -0.50800 1.07220 3.87800
v -0.50800 1.07820 3.87800
v -0.50800 1.07320 3.88000
v -0.50800 1.07420 3.88000
v -0.50800 1.07520 3.88000
v -0.50800 1.07720 3.88000
v -0.51000 1.07720 3.88300
v -0.51400 1.16420 3.60800
v -0.51400 1.17420 3.61000
v -0.51500 1.06420 3.87700
v -0.51500 1.07520 3.87800
v -0.51800 1.16420 3.60800
v -0.51800 1.17420 3.61000
v -0.52000 1.06420 3.87700
v -0.52000 1.07420 3.87900
v -0.52200 -1.26080 1.06600
v -0.52200 -0.00680 1.06600
v -0.52200 1.24720 1.06600
v -0.52500 0.96520 3.93300
v -0.52600 0.96320 3.92800
v -0.53300 1.16420 3.60800
v -0.53300 1.17420 3.61000
v -0.53400 1.06320 3.87800
v -0.53400 1.07420 3.88000
v -0.53700 1.16420 3.60800
v -0.53700 1.17420 3.61000
v -0.53800 1.06320 3.87800
v -0.53800 1.07420 3.88100
v -0.54900 1.17520 3.60500
v -0.54900 1.17820 3.60500
v -0.54900 1.17320 3.60600
v -0.54900 1.17820 3.60600
v -0.54900 1.17320 3.60700
v -0.54900 1.17820 3.60700
v -0.54900 1.17920 3.60700
v -0.54900 1.08320 3.60800
v -0.54900 1.17320 3.60900
v -0.54900 1.17820 3.60900
v -0.54900 1.17420 3.61000
v -0.54900 1.17720 3.61000
v -0.54900 1.17820 3.61000
v -0.54900 1.17620 3.61100
v -0.54900 1.17720 3.61100
v -0.55200 1.16420 3.60800
v -0.55200 1.17520 3.60900
v -0.55300 1.06320 3.88000
v -0.55300 1.07420 3.88200
v -0.55600 1.19620 3.58700
v -0.55600 1.16420 3.60800
v -0.55600 1.17520 3.60900
v -0.55700 1.06320 3.88000
v -0.55700 1.07320 3.88300
v -0.56100 1.10620 3.55400
v -0.56100 1.10320 3.55900
v -0.56800 -1.29580 2.87500
v -0.56800 1.22020 2.87500
v -0.57100 1.16420 3.60700
v -0.57100 1.17520 3.60900
v -0.57200 1.06220 3.88200
v -0.57200 1.07320 3.88400
v -0.57500 1.16420 3.60700
v -0.57500 1.17520 3.60900
v -0.57600 1.06220 3.88200
v -0.57600 1.07320 3.88400
v -0.58900 1.16420 3.60700
v -0.58900 1.17520 3.60900
v -0.59000 1.06120 3.88400
v -0.59000 1.07220 3.88600
v -0.59100 -1.32980 2.18800
v -0.59400 1.16420 3.60700
v -0.59400 1.17520 3.60900
v -0.59400 1.06120 3.88400
v -0.59400 1.07220 3.88600
v -0.60800 1.16420 3.60700
v -0.60800 1.17520 3.60800
v -0.60900 1.25420 2.18800
v -0.60900 1.06120 3.88600
v -0.60900 1.07220 3.88800
v -0.61200 1.16420 3.60700
v -0.61200 1.17520 3.60800
v -0.61300 1.06120 3.88600
v -0.61300 1.07120 3.88800
v -0.62100 -1.12080 3.67700
v -0.62100 1.12320 3.67700
v -0.62100 -0.96880 3.74000
v -0.62100 0.97120 3.74000
v -0.62100 -0.85280 3.78800
v -0.62100 0.85520 3.78800
v -0.62100 -0.47180 3.86600
v -0.62100 0.47420 3.86600
v -0.62100 -0.26780 3.87400
v -0.62100 0.27020 3.87400
v -0.62100 0.00120 3.87800
v -0.62700 1.16420 3.60600
v -0.62700 1.17520 3.60800
v -0.62800 1.06020 3.88800
v -0.62800 1.07120 3.89000
v -0.63100 1.16420 3.60600
v -0.63100 1.17520 3.60800
v -0.63200 -1.30680 2.76700
v -0.63200 1.23120 2.76700
v -0.63200 1.06020 3.88800
v -0.63200 1.07120 3.89000
v -0.64000 -1.14180 3.56000
v -0.64000 1.14420 3.56000
v -0.64600 1.16420 3.60600
v -0.64600 1.17520 3.60800
v -0.64600 1.05920 3.89000
v -0.64600 1.07020 3.89200
v -0.65000 1.16420 3.60600
v -0.65000 1.17520 3.60800
v -0.65000 1.05920 3.89000
v -0.65000 1.07020 3.89200
v -0.66400 1.16420 3.60600
v -0.66400 1.17520 3.60800
v -0.66500 1.05920 3.89200
v -0.66500 1.07020 3.89400
v -0.66900 1.16420 3.60600
v -0.66900 1.17520 3.60800
v -0.66900 1.05920 3.89200
v -0.66900 1.06920 3.89400
v -0.68300 1.16420 3.60500
v -0.68300 1.17520 3.60700
v -0.68400 1.05820 3.89400
v -0.68400 1.06920 3.89600
v -0.68700 1.16420 3.60500
v -0.68700 1.17520 3.60700
v -0.68800 1.05820 3.89400
v -0.68800 1.06920 3.89600
v -0.68900 1.06820 3.89100
v -0.68900 1.07020 3.89100
v -0.68900 1.07120 3.89100
v -0.68900 1.07220 3.89200
v -0.68900 1.06720 3.89300
v -0.68900 0.97820 3.89400
v -0.68900 1.06720 3.89400
v -0.68900 1.07320 3.89400
v -0.68900 1.07220 3.89500
v -0.68900 1.07320 3.89500
v -0.68900 1.06720 3.89600
v -0.68900 1.06820 3.89600
v -0.68900 1.06820 3.89700
v -0.68900 1.06920 3.89700
v -0.68900 1.07120 3.89700
v -0.69500 1.07120 3.90000
v -0.69900 -1.26080 1.10600
v -0.69900 1.22520 1.10600
v -0.70200 1.16420 3.60500
v -0.70200 1.17520 3.60700
v -0.70200 1.05720 3.89600
v -0.70200 1.06820 3.89800
v -0.70600 1.16420 3.60500
v -0.70600 1.17520 3.60700
v -0.70700 1.05720 3.89600
v -0.70700 1.06820 3.89800
v -0.71900 1.16320 3.60000
v -0.71900 1.17320 3.60300
v -0.72100 1.05620 3.90000
v -0.72100 1.06820 3.90000
v -0.72400 1.16320 3.60000
v -0.72400 1.17320 3.60300
v -0.72500 1.05620 3.90000
v -0.72500 1.06820 3.90000
v -0.73700 1.16320 3.60000
v -0.73700 1.17320 3.60300
v -0.73900 1.05620 3.90000
v -0.73900 1.06820 3.90000
v -0.74100 1.16320 3.60000
v -0.74100 1.17320 3.60300
v -0.74300 1.05620 3.90000
v -0.74300 1.06820 3.90000
v -0.75100 0.95720 3.94800
v -0.75100 0.95920 3.95300
v -0.75600 1.16320 3.59900
v -0.75600 1.17320 3.60300
v -0.75800 1.05620 3.89900
v -0.75800 1.06820 3.89900
v -0.76000 1.16320 3.59900
v -0.76000 1.17320 3.60300
v -0.76200 1.05620 3.89900
v -0.76200 1.06820 3.89900
v -0.77500 1.16320 3.59900
v -0.77500 1.17420 3.60200
v -0.77600 1.05620 3.89900
v -0.77600 1.06820 3.89900
v -0.77700 -1.17080 1.70200
v -0.77700 -0.99080 1.70200
v -0.77700 -0.85480 1.70200
v -0.77700 -0.46780 1.70200
v -0.77700 -0.26480 1.70200
v -0.77700 0.00120 1.70200
v -0.77700 0.26820 1.70200
v -0.77700 0.47120 1.70200
v -0.77700 0.85720 1.70200
v -0.77700 0.99420 1.70200
v -0.77700 1.17420 1.70200
v -0.77700 -1.17080 1.95300
v -0.77700 1.17420 1.95300
v -0.77700 -1.17080 2.14800
v -0.77700 1.17420 2.14800
v -0.77900 1.16320 3.59900
v -0.77900 1.17420 3.60200
v -0.78000 -1.14480 1.62800
v -0.78000 0.00620 1.62800
v -0.78000 1.15720 1.62800
v -0.78000 -1.17080 2.67300
v -0.78000 1.17420 2.67300
v -0.78000 -1.17180 2.88200
v -0.78000 1.17420 2.88200
v -0.78000 -1.17180 3.08300
v -0.78000 1.17420 3.08300
v -0.78100 1.05620 3.89900
v -0.78100 1.06820 3.89900
v -0.79000 -1.23180 3.55500
v -0.79000 -1.20880 3.55500
v -0.79400 1.16320 3.59900
v -0.79400 1.17420 3.60200
v -0.79500 1.05720 3.89900
v -0.79500 1.06820 3.89900
v -0.79800 1.16320 3.59900
v -0.79800 1.17620 3.60100
v -0.79800 1.17920 3.60100
v -0.79800 1.17420 3.60200
v -0.79800 1.08420 3.60400
v -0.79800 1.18020 3.60400
v -0.79800 1.17420 3.60500
v -0.79800 1.17520 3.60600
v -0.79800 1.17820 3.60600
v -0.79800 1.17920 3.60600
v -0.79800 1.17820 3.60700
v -0.79900 1.05720 3.89900
v -0.79900 1.06820 3.89900
v -0.80100 -1.24480 3.42200
v -0.80100 -1.22280 3.42200
v -0.80600 0.38920 1.68500
v -0.80600 0.38920 1.69000
v -0.80700 0.40320 1.68200
v -0.80700 0.40320 1.69000
v -0.80800 -0.41080 1.68200
v -0.80800 -0.39580 1.68500
v -0.80800 -0.41080 1.69000
v -0.80800 -0.39580 1.69000
v -0.80900 0.47920 1.68500
v -0.80900 0.47920 1.69000
v -0.81000 0.46420 1.68200
v -0.81000 1.19920 1.68500
v -0.81000 0.46420 1.69000
v -0.81000 1.19920 1.69000
v -0.81100 1.21320 1.68200
v -0.81100 1.21320 1.69000
v -0.81100 0.82220 1.70800
v -0.81100 0.82220 1.89300
v -0.81100 0.82220 2.07200
v -0.81200 -1.25680 3.29600
v -0.81200 -1.23480 3.29600
v -0.81200 1.16420 3.59800
v -0.81200 1.17420 3.60200
v -0.81400 1.05720 3.89900
v -0.81400 1.06820 3.89900
v -0.81700 1.16420 3.59800
v -0.81700 1.17420 3.60200
v -0.81800 1.05720 3.89900
v -0.81800 1.06820 3.89900
v -0.81900 -1.03180 1.68500
v -0.81900 -0.48280 1.68500
v -0.81900 -1.03180 1.69000
v -0.81900 -0.48280 1.69000
v -0.82000 -1.04580 1.68200
v -0.82000 -0.46780 1.68200
v -0.82000 -1.04580 1.69000
v -0.82000 -0.46780 1.69000
v -0.82300 -1.27380 3.02400
v -0.82300 1.19820 3.02400
v -0.82700 1.19720 3.58300
v -0.82800 -1.28580 2.90200
v -0.82800 1.21020 2.90200
v -0.83100 1.16420 3.59800
v -0.83100 1.17420 3.60100
v -0.83200 -1.26080 1.13700
v -0.83200 1.20920 1.13700
v -0.83300 1.05720 3.89900
v -0.83300 1.06820 3.89900
v -0.83500 1.16420 3.59800
v -0.83500 1.17420 3.60100
v -0.83700 1.05720 3.89900
v -0.83700 1.06820 3.89900
v -0.84000 -1.31380 2.55200
v -0.84000 1.23820 2.55200
v -0.84000 1.22420 2.66800
v -0.84000 1.24020 2.67100
v -0.84000 -1.31380 2.67200
v -0.84000 -1.29180 2.67200
v -0.84300 -1.33080 2.40700
v -0.84400 1.23120 2.54200
v -0.84400 1.24720 2.54500
v -0.84400 -1.32080 2.54600
v -0.84400 -1.29880 2.54600
v -0.84500 -1.32080 2.40300
v -0.84500 1.24420 2.40300
v -0.84600 0.34920 1.68500
v -0.84600 0.34920 1.69000
v -0.84700 -0.35680 1.68500
v -0.84700 -0.35680 1.69000
v -0.84700 -1.33580 2.26600
v -0.84800 -0.43980 1.67900
v -0.84800 -0.30680 1.67900
v -0.84800 -0.15580 1.67900
v -0.84800 0.00520 1.67900
v -0.84800 0.16620 1.67900
v -0.84800 0.31820 1.67900
v -0.84800 0.45020 1.67900
v -0.84800 0.51820 1.68500
v -0.84800 0.51820 1.69000
v -0.84800 -1.32580 2.26300
v -0.84800 1.25020 2.26300
v -0.85000 1.16020 1.68500
v -0.85000 1.16020 1.69000
v -0.85000 1.24020 2.34300
v -0.85000 -1.32980 2.34700
v -0.85000 -1.30780 2.34700
v -0.85000 1.16420 3.59800
v -0.85000 1.17420 3.60100
v -0.85100 1.05720 3.89900
v -0.85100 1.06820 3.89900
v -0.85400 1.16420 3.59800
v -0.85400 1.17420 3.60100
v -0.85500 1.24720 2.16500
v -0.85500 -1.33680 2.16900
v -0.85500 -1.31480 2.16900
v -0.85500 1.05720 3.89800
v -0.85500 1.06820 3.89800
v -0.85800 -0.52180 1.68500
v -0.85800 -0.52180 1.69000
v -0.85900 -0.99180 1.68500
v -0.85900 -0.99180 1.69000
v -0.86000 0.35020 1.68200
v -0.86000 0.35020 1.69000
v -0.86100 -0.35780 1.68200
v -0.86100 -0.35780 1.69000
v -0.86200 0.51720 1.68200
v -0.86200 0.51720 1.69000
v -0.86400 1.16020 1.68200
v -0.86400 1.16020 1.69000
v -0.86600 1.26320 1.40400
v -0.86600 1.27820 1.40700
v -0.86600 -1.35280 1.40800
v -0.86600 -1.33080 1.40800
v -0.86700 1.26420 1.28300
v -0.86700 -1.35380 1.28400
v -0.86700 -1.33180 1.28400
v -0.86700 1.27920 1.28700
v -0.86900 1.16420 3.59700
v -0.86900 1.17420 3.60100
v -0.87000 1.05720 3.89800
v -0.87000 1.06820 3.89800
v -0.87200 -0.52080 1.68200
v -0.87200 -0.52080 1.69000
v -0.87300 -0.99280 1.68200
v -0.87300 -0.99280 1.69000
v -0.87300 1.16420 3.59700
v -0.87300 1.17420 3.60100
v -0.87400 1.05720 3.89800
v -0.87400 1.06820 3.89800
v -0.87600 1.10620 3.55400
v -0.87600 1.10320 3.56000
v -0.88700 1.16420 3.59700
v -0.88700 1.17420 3.60000
v -0.88800 0.95420 3.95300
v -0.88900 1.05720 3.89600
v -0.88900 1.06920 3.89600
v -0.89200 1.16420 3.59700
v -0.89200 1.17420 3.60000
v -0.89300 1.05820 3.89300
v -0.89300 1.07020 3.89300
v -0.90500 -1.11880 1.36900
v -0.90500 -0.95680 1.36900
v -0.90500 -0.79380 1.36900
v -0.90500 -0.10680 1.65300
v -0.90500 0.04120 1.65300
v -0.90500 0.17320 1.65300
v -0.90500 -1.30980 1.70700
v -0.90500 1.25020 1.70700
v -0.90500 -1.30680 1.89300
v -0.90500 1.24820 1.89300
v -0.90500 -1.30380 2.07200
v -0.90500 1.24620 2.07200
v -0.90500 1.15520 3.44400
v -0.90500 1.12520 3.56100
v -0.90800 -1.06280 2.70700
v -0.90800 -0.92980 2.70700
v -0.90800 -0.79580 2.70700
v -0.90800 -0.10580 2.70700
v -0.90800 0.03120 2.70700
v -0.90800 0.15620 2.70700
v -0.90900 0.82020 1.70800
v -0.90900 1.22520 1.70800
v -0.90900 0.82020 1.89300
v -0.90900 1.22320 1.89300
v -0.90900 0.82020 2.07200
v -0.90900 1.22120 2.07200
v -0.90900 -0.11780 3.17200
v -0.90900 0.00820 3.17200
v -0.91000 -1.11880 1.37000
v -0.91000 -0.95680 1.37000
v -0.91000 -0.79380 1.37000
v -0.91000 -1.30880 1.70700
v -0.91000 1.24820 1.70700
v -0.91000 -1.30580 1.89300
v -0.91000 1.24720 1.89300
v -0.91000 -1.30280 2.07200
v -0.91000 1.24520 2.07200
v -0.91000 1.11420 3.74900
v -0.91000 1.06120 3.87700
v -0.91200 1.16620 3.62500
v -0.95900 1.16620 3.62500
v -0.96000 1.11420 3.74900
v -0.96000 1.06120 3.87700
v -0.98800 -0.14180 1.23300
v -0.98800 0.14020 1.23300
v -0.98800 -0.00080 1.26000
v -0.99900 1.08120 3.62000
v -0.99900 1.03220 3.75200
v -0.99900 0.98220 3.88500
v -1.00400 1.08520 3.62100
v -1.00400 1.03620 3.75300
v -1.00400 0.98620 3.88600
v -1.03900 -0.38380 0.93400
v -1.03900 0.38820 0.93400
v -1.03900 -0.38780 0.93500
v -1.03900 0.39220 0.93500
v -1.04500 -0.31480 1.05800
v -1.04500 0.31920 1.05800
v -1.04500 -0.31780 1.06000
v -1.04500 0.32220 1.06000
v -1.04600 -0.30580 1.07700
v -1.04600 0.31020 1.07700
v -1.04600 -0.30880 1.07900
v -1.04600 0.31320 1.07900
v -1.07100 -0.21880 1.18700
v -1.07100 0.22320 1.18700
v -1.07100 -0.21980 1.18900
v -1.07100 0.22420 1.18900
v -1.07300 -0.12680 1.22600
v -1.07300 0.13120 1.22600
v -1.07300 -0.12680 1.22800
v -1.07300 0.00220 1.22800
v -1.07300 0.13120 1.22800
v -1.07300 0.00220 1.23100
v -1.09500 -0.56080 4.12700
v -1.09500 -0.43780 4.12700
v -1.09500 -0.25380 4.12700
v -1.09500 -0.03780 4.12700
v -1.09500 0.17720 4.12700
v -1.09500 0.36220 4.12700
v -1.09500 0.48520 4.12700
v -1.14900 -0.12680 1.30600
v -1.14900 0.13120 1.30600
v -1.14900 -0.12680 1.30900
v -1.14900 0.13120 1.30900
v -1.14900 0.00220 1.32800
v -1.14900 0.00220 1.33100
v -1.15000 -0.24480 1.24700
v -1.15000 0.24920 1.24700
v -1.15000 -0.24580 1.24900
v -1.15000 0.25020 1.24900
v -1.16100 -0.38480 1.13000
v -1.16100 0.38920 1.13000
v -1.16100 -0.38780 1.13200
v -1.16100 0.39220 1.13200
v -1.16200 -0.39680 1.10700
v -1.16200 0.40020 1.10700
v -1.16200 -0.39980 1.10900
v -1.16200 0.40420 1.10900
v -1.16400 -0.48980 0.95300
v -1.16400 0.49420 0.95300
v -1.16500 -0.48480 0.95200
v -1.16500 0.48920 0.95200
v -1.17500 -1.19980 3.56100
v -1.19100 -1.21280 3.42900
v -1.20700 -1.22380 3.30500
v -1.27600 -1.28180 2.67800
v -1.27600 1.20620 2.67800
v -1.29500 -1.29080 2.48800
v -1.29500 1.21520 2.48800
v -1.31100 -1.29880 2.31300
v -1.31100 1.22220 2.31300
v -1.34000 -1.30880 1.96300
v -1.34000 1.23320 1.96300
v -1.34900 -1.31180 1.81100
v -1.34900 1.23620 1.81100
v -1.35800 1.23920 1.65000
v -1.35800 -1.31480 1.65200
l 7 27
l 7 28
l 11 22
l 16 22
l 22 32
l 26 39
l 26 40
l 27 43
l 28 47
l 39 60
l 40 61
l 41 52
l 41 53
l 43 94
l 45 65
l 45 66
l 47 95
l 49 67
l 49 68
l 52 92
l 53 93
l 56 71
l 56 72
l 60 100
l 61 101
l 62 77
l 62 78
l 63 79
l 63 80
l 64 81
l 64 82
l 65 104
l 66 105
l 67 106
l 68 107
l 71 108
l 72 109
l 75 96
l 75 97
l 76 98
l 76 99
l 77 112
l 78 113
l 79 114
l 80 115
l 81 116
l 82 117
l 92 124
l 93 125
l 96 118
l 97 119
l 98 120
l 99 121
l 102 128
l 104 130
l 105 131
l 106 132
l 107 133
l 108 128
l 109 129
l 112 138
l 113 139
l 114 140
l 115 141
l 116 136
l 117 137
l 118 146
l 119 147
l 120 148
l 121 149
l 142 144
l 143 145
l 144 150
l 145 151
l 154 155
l 155 156
l 156 157
l 157 158
l 158 159
l 159 160
l 175 179
l 176 180
l 179 184
l 180 185
l 189 190
l 190 191
l 191 192
l 192 193
l 193 194
l 194 195
l 195 196
l 196 197
l 526 528
l 526 530
l 528 543
l 529 541
l 529 542
l 530 544
l 537 538
l 538 647
l 541 547
l 542 548
l 543 553
l 544 554
l 547 557
l 548 558
l 560 712
l 562 738
l 563 739
l 586 587
l 590 622
l 591 623
l 604 624
l 605 625
l 607 2082
l 614 616
l 615 617
l 616 618
l 617 619
l 618 620
l 619 621
l 622 649
l 623 650
l 624 651
l 625 652
l 626 632
l 629 635
l 630 642
l 632 645
l 635 644
l 635 646
l 642 658
l 644 653
l 645 659
l 646 660
l 655 670
l 656 671
l 659 673
l 660 674
l 660 675
l 663 792
l 666 2064
l 670 677
l 671 678
l 689 701
l 690 702
l 694 706
l 695 707
l 701 709
l 702 710
l 729 731
l 730 732
l 731 733
l 732 734
l 733 735
l 734 737
l 735 736
l 736 737
l 738 832
l 739 833
l 766 2061
l 776 814
l 780 2053
l 783 843
l 784 844
l 794 2083
l 843 1200
l 844 1201
l 847 1196
l 848 1197
l 850 1189
l 851 1190
l 852 853
l 1170 2058
l 1173 1174
l 1174 1175
l 1175 1176
l 1176 1177
l 1177 1178
l 1178 1179
l 1179 1180
l 1180 1181
l 1196 1234
l 1197 1235
l 1200 1230
l 1201 1231
l 1205 1206
l 1206 1207
l 1208 1209
l 1209 1210
l 1211 1212
l 1212 1213
l 1214 1215
l 1215 1216
l 1245 1298
l 1246 1299
l 1247 1300
l 1248 1301
l 1259 1335
l 1260 1336
l 1261 1337
l 1262 1338
l 1298 1408
l 1299 1409
l 1300 1410
l 1301 1411
l 1335 1422
l 1336 1423
l 1337 1424
l 1338 1425
l 1358 1370
l 1359 1371
l 1366 1370
l 1367 1371
l 1377 1378
l 1378 1380
l 1379 1381
l 1380 1383
l 1381 1382
l 1382 1383
l 1384 1493
l 1430 1432
l 1431 1433
l 1432 1434
l 1433 1435
l 1436 1438
l 1437 1439
l 1438 1440
l 1439 1441
l 1442 1444
l 1443 1445
l 1444 1446
l 1445 1447
l 1493 1672
l 1495 1496
l 1496 1497
l 1498 1499
l 1499 1500
l 1531 1532
l 1532 1533
l 1534 1535
l 1535 1536
l 1537 1553
l 1539 1619
l 1552 1571
l 1559 1733
l 1589 1710
l 1591 1716
l 1592 1714
l 1593 1718
l 1594 1717
l 1595 1708
l 1596 1721
l 1598 1711
l 1619 1736
l 1629 1766
l 1647 1872
l 1657 1660
l 1672 1838
l 1682 1847
l 1687 1849
l 1689 1854
l 1690 1851
l 1691 1856
l 1692 1855
l 1694 1857
l 1695 1860
l 1710 1813
l 1711 1815
l 1715 1818
l 1716 1816
l 1717 1819
l 1718 1820
l 1721 1824
l 1722 1823
l 1733 1887
l 1766 1894
l 1814 1950
l 1815 1951
l 1816 1953
l 1817 1952
l 1818 1955
l 1819 1954
l 1823 1961
l 1824 1962
l 1834 1835
l 1834 1964
l 1835 1836
l 1836 1965
l 1838 1990
l 1847 2039
l 1849 2041
l 1853 2043
l 1854 2042
l 1855 2044
l 1857 2045
l 1872 2183
l 1901 1903
l 1901 1922
l 1902 1904
l 1902 1923
l 1903 1905
l 1904 1906
l 1907 1909
l 1908 1910
l 1909 1911
l 1910 1911
l 1964 2097
l 1965 2098
l 1990 2186
l 2004 2005
l 2004 2015
l 2005 2006
l 2007 2008
l 2008 2009
l 2009 2010
l 2010 2011
l 2012 2013
l 2013 2014
l 2014 2016
l 2015 2017
l 2016 2018
l 2021 2022
l 2022 2023
l 2024 2026
l 2025 2027
l 2026 2028
l 2027 2029
l 2033 2052
l 2052 2073
l 2090 2093
l 2091 2094
l 2105 2116
l 2106 2117
l 2107 2112
l 2110 2115
l 2112 2136
l 2115 2138
l 2116 2132
l 2117 2133
l 2118 2120
l 2123 2124
l 2124 2125
l 2125 2126
l 2126 2127
l 2127 2128
l 2128 2129
l 2130 2134
l 2136 2145
l 2138 2147
l 2150 2152
l 2162 2166
l 2165 2168
l 2193 2194
l 2194 2195
l 2196 2197
l 2197 2198
l 2199 2201
l 2200 2202
l 2201 2203
l 2202 2204
l 2205 2206
l 2230 2231
l 2230 2232
l 2233 2234
l 2234 2235
l 2239 2240
l 2240 2241
l 2267 2268
l 2268 2269
l 2269 2270
l 2270 2271
l 2271 2272
l 2272 2273
l 2296 2297
l 2297 2298
l 2299 2301
l 2300 2302
l 2301 2303
l 2302 2304
l 2305 2307
l 2306 2308
l 2307 2310
l 2308 2309
l 1 9
l 2 8
l 2 9
l 3 10
l 4 15
l 5 17
l 6 12
l 8 21
l 13 24
l 14 20
l 18 24
l 18 25
l 19 37
l 19 38
l 22 33
l 23 35
l 23 36
l 29 34
l 29 36
l 30 44
l 31 46
l 37 54
l 38 55
l 42 57
l 42 58
l 44 85
l 46 86
l 48 87
l 50 88
l 51 69
l 51 70
l 54 89
l 55 90
l 57 83
l 58 84
l 59 73
l 59 74
l 69 102
l 70 103
l 73 110
l 74 111
l 84 123
l 91 126
l 103 129
l 110 134
l 111 135
l 122 152
l 127 162
l 153 169
l 161 171
l 163 170
l 164 173
l 165 174
l 166 177
l 167 178
l 168 186
l 169 187
l 172 188
l 174 181
l 177 182
l 178 183
l 198 199
l 199 200
l 200 201
l 201 202
l 202 203
l 203 204
l 205 206
l 206 207
l 207 208
l 208 209
l 209 210
l 210 211
l 211 212
l 212 213
l 214 215
l 215 216
l 216 217
l 217 218
l 218 219
l 219 220
l 220 221
l 221 222
l 223 224
l 224 225
l 225 226
l 226 227
l 227 228
l 228 229
l 229 230
l 230 231
l 232 233
l 233 234
l 234 235
l 235 236
l 236 237
l 237 238
l 238 239
l 239 240
l 241 242
l 242 243
l 243 244
l 244 245
l 245 246
l 246 247
l 247 248
l 248 249
l 250 251
l 251 252
l 252 253
l 253 254
l 254 255
l 255 256
l 256 257
l 257 258
l 259 260
l 260 261
l 261 262
l 262 263
l 263 264
l 264 265
l 266 267
l 267 268
l 268 269
l 269 270
l 270 271
l 271 272
l 273 274
l 274 275
l 275 276
l 276 277
l 277 278
l 278 279
l 280 281
l 281 282
l 282 283
l 283 284
l 284 285
l 285 286
l 287 288
l 288 289
l 289 290
l 290 291
l 291 292
l 292 293
l 294 295
l 295 296
l 296 297
l 297 298
l 298 299
l 299 300
l 301 302
l 302 303
l 303 304
l 304 305
l 305 306
l 306 307
l 308 309
l 309 310
l 310 311
l 311 312
l 312 313
l 313 314
l 315 316
l 316 317
l 317 318
l 318 319
l 319 320
l 320 321
l 322 323
l 323 324
l 324 325
l 325 326
l 326 327
l 327 328
l 329 330
l 330 331
l 331 332
l 332 333
l 333 334
l 334 335
l 336 337
l 337 338
l 338 339
l 339 340
l 340 341
l 341 342
l 343 344
l 344 345
l 345 346
l 346 347
l 347 348
l 348 349
l 350 351
l 351 352
l 352 353
l 353 354
l 354 355
l 355 356
l 357 358
l 358 359
l 359 360
l 360 361
l 361 362
l 362 363
l 363 364
l 364 365
l 366 367
l 367 368
l 368 369
l 369 370
l 370 371
l 371 372
l 372 373
l 373 374
l 375 376
l 376 377
l 377 378
l 378 379
l 379 380
l 380 381
l 381 382
l 382 383
l 384 385
l 385 386
l 386 387
l 387 388
l 388 389
l 389 390
l 390 391
l 391 392
l 393 394
l 394 395
l 395 396
l 396 397
l 397 398
l 398 399
l 399 400
l 400 401
l 402 403
l 403 404
l 404 405
l 405 406
l 406 407
l 407 408
l 408 409
l 409 410
l 411 412
l 412 413
l 413 414
l 414 415
l 415 416
l 416 417
l 418 419
l 419 420
l 420 421
l 421 422
l 422 423
l 423 424
l 425 426
l 426 427
l 427 428
l 428 429
l 429 430
l 430 431
l 432 433
l 433 434
l 434 435
l 435 436
l 436 437
l 437 438
l 439 440
l 440 441
l 441 442
l 442 443
l 443 444
l 444 445
l 446 447
l 447 448
l 448 449
l 449 450
l 450 451
l 451 452
l 453 454
l 454 455
l 455 456
l 456 457
l 457 458
l 458 459
l 460 461
l 461 462
l 462 463
l 463 464
l 464 465
l 465 466
l 467 468
l 468 469
l 469 470
l 470 471
l 471 472
l 472 473
l 474 475
l 475 476
l 476 477
l 477 478
l 478 479
l 479 480
l 481 482
l 482 483
l 483 484
l 484 485
l 485 486
l 486 487
l 488 489
l 489 490
l 490 491
l 491 492
l 492 493
l 493 494
l 495 496
l 496 497
l 497 498
l 498 499
l 499 500
l 500 501
l 502 503
l 503 504
l 504 505
l 505 506
l 506 507
l 507 508
l 509 510
l 510 511
l 511 512
l 512 513
l 513 514
l 514 515
l 516 522
l 516 523
l 517 524
l 517 525
l 518 519
l 519 636
l 520 521
l 521 637
l 522 531
l 523 532
l 524 533
l 525 534
l 527 535
l 527 536
l 531 549
l 532 550
l 533 551
l 534 552
l 535 545
l 536 546
l 539 540
l 540 648
l 545 559
l 549 580
l 550 581
l 551 582
l 552 583
l 555 714
l 556 715
l 561 713
l 564 764
l 565 765
l 566 567
l 568 569
l 570 742
l 571 743
l 572 746
l 573 747
l 574 750
l 575 751
l 576 754
l 577 755
l 578 758
l 579 759
l 580 610
l 581 611
l 582 612
l 583 613
l 584 762
l 585 763
l 588 589
l 592 740
l 593 741
l 594 744
l 595 745
l 596 748
l 597 749
l 598 752
l 599 753
l 600 756
l 601 757
l 602 760
l 603 761
l 606 2086
l 608 2088
l 609 2084
l 610 638
l 611 639
l 612 640
l 613 641
l 626 631
l 627 633
l 628 634
l 632 643
l 633 643
l 654 669
l 657 672
l 661 790
l 662 791
l 664 793
l 665 2067
l 667 2066
l 668 2068
l 669 676
l 672 679
l 680 684
l 681 685
l 682 686
l 683 687
l 684 696
l 685 697
l 686 698
l 687 699
l 688 700
l 691 703
l 692 704
l 693 705
l 696 716
l 697 717
l 698 718
l 699 719
l 700 708
l 703 711
l 720 722
l 721 723
l 722 724
l 723 725
l 724 726
l 725 728
l 726 727
l 727 728
l 740 800
l 741 801
l 742 816
l 743 817
l 744 802
l 745 803
l 746 818
l 747 819
l 748 804
l 749 805
l 750 820
l 751 821
l 752 806
l 753 807
l 754 822
l 755 823
l 756 808
l 757 809
l 758 824
l 759 825
l 760 810
l 761 811
l 762 812
l 763 813
l 764 834
l 765 835
l 767 2062
l 768 2063
l 769 2065
l 770 798
l 771 799
l 772 827
l 773 828
l 774 826
l 775 829
l 777 815
l 778 2055
l 779 2056
l 781 2054
l 782 842
l 785 845
l 786 1191
l 787 1194
l 788 1192
l 789 1193
l 795 2085
l 796 2087
l 797 2089
l 826 1241
l 827 1242
l 828 1243
l 829 1244
l 830 831
l 830 1339
l 831 1340
l 836 837
l 836 1341
l 837 1342
l 838 839
l 840 841
l 842 1199
l 845 1202
l 846 1195
l 849 1198
l 854 855
l 856 1203
l 857 1204
l 858 859
l 859 860
l 860 861
l 861 862
l 862 863
l 863 864
l 864 865
l 865 866
l 867 868
l 868 869
l 869 870
l 870 871
l 871 872
l 872 873
l 873 874
l 874 875
l 876 877
l 877 878
l 878 879
l 879 880
l 880 881
l 881 882
l 882 883
l 883 884
l 885 886
l 886 887
l 887 888
l 888 889
l 889 890
l 890 891
l 891 892
l 892 893
l 894 895
l 895 896
l 896 897
l 897 898
l 898 899
l 899 900
l 900 901
l 901 902
l 903 904
l 904 905
l 905 906
l 906 907
l 907 908
l 908 909
l 909 910
l 910 911
l 912 913
l 913 914
l 914 915
l 915 916
l 916 917
l 917 918
l 919 920
l 920 921
l 921 922
l 922 923
l 923 924
l 924 925
l 926 927
l 927 928
l 928 929
l 929 930
l 930 931
l 931 932
l 933 934
l 934 935
l 935 936
l 936 937
l 937 938
l 938 939
l 940 941
l 941 942
l 942 943
l 943 944
l 944 945
l 945 946
l 947 948
l 948 949
l 949 950
l 950 951
l 951 952
l 952 953
l 954 955
l 955 956
l 956 957
l 957 958
l 958 959
l 959 960
l 961 962
l 962 963
l 963 964
l 964 965
l 965 966
l 966 967
l 968 969
l 969 970
l 970 971
l 971 972
l 972 973
l 973 974
l 975 976
l 976 977
l 977 978
l 978 979
l 979 980
l 980 981
l 982 983
l 983 984
l 984 985
l 985 986
l 986 987
l 987 988
l 989 990
l 990 991
l 991 992
l 992 993
l 993 994
l 994 995
l 996 997
l 997 998
l 998 999
l 999 1000
l 1000 1001
l 1001 1002
l 1003 1004
l 1004 1005
l 1005 1006
l 1006 1007
l 1007 1008
l 1008 1009
l 1010 1011
l 1011 1012
l 1012 1013
l 1013 1014
l 1014 1015
l 1015 1016
l 1017 1018
l 1018 1019
l 1019 1020
l 1020 1021
l 1021 1022
l 1022 1023
l 1023 1024
l 1024 1025
l 1026 1027
l 1027 1028
l 1028 1029
l 1029 1030
l 1030 1031
l 1031 1032
l 1032 1033
l 1033 1034
l 1035 1036
l 1036 1037
l 1037 1038
l 1038 1039
l 1039 1040
l 1040 1041
l 1041 1042
l 1042 1043
l 1044 1045
l 1045 1046
l 1046 1047
l 1047 1048
l 1048 1049
l 1049 1050
l 1050 1051
l 1051 1052
l 1053 1054
l 1054 1055
l 1055 1056
l 1056 1057
l 1057 1058
l 1058 1059
l 1059 1060
l 1060 1061
l 1062 1063
l 1063 1064
l 1064 1065
l 1065 1066
l 1066 1067
l 1067 1068
l 1068 1069
l 1069 1070
l 1071 1072
l 1072 1073
l 1073 1074
l 1074 1075
l 1075 1076
l 1076 1077
l 1078 1079
l 1079 1080
l 1080 1081
l 1081 1082
l 1082 1083
l 1083 1084
l 1085 1086
l 1086 1087
l 1087 1088
l 1088 1089
l 1089 1090
l 1090 1091
l 1092 1093
l 1093 1094
l 1094 1095
l 1095 1096
l 1096 1097
l 1097 1098
l 1099 1100
l 1100 1101
l 1101 1102
l 1102 1103
l 1103 1104
l 1104 1105
l 1106 1107
l 1107 1108
l 1108 1109
l 1109 1110
l 1110 1111
l 1111 1112
l 1113 1114
l 1114 1115
l 1115 1116
l 1116 1117
l 1117 1118
l 1118 1119
l 1120 1121
l 1121 1122
l 1122 1123
l 1123 1124
l 1124 1125
l 1125 1126
l 1127 1128
l 1128 1129
l 1129 1130
l 1130 1131
l 1131 1132
l 1132 1133
l 1134 1135
l 1135 1136
l 1136 1137
l 1137 1138
l 1138 1139
l 1139 1140
l 1141 1142
l 1142 1143
l 1143 1144
l 1144 1145
l 1145 1146
l 1146 1147
l 1148 1149
l 1149 1150
l 1150 1151
l 1151 1152
l 1152 1153
l 1153 1154
l 1155 1156
l 1156 1157
l 1157 1158
l 1158 1159
l 1159 1160
l 1160 1161
l 1162 1163
l 1163 1164
l 1164 1165
l 1165 1166
l 1166 1167
l 1167 1168
l 1169 2057
l 1171 2059
l 1172 2060
l 1182 1183
l 1183 1184
l 1184 1185
l 1185 1186
l 1186 1187
l 1187 1188
l 1191 1237
l 1192 1238
l 1193 1239
l 1194 1240
l 1195 1233
l 1198 1236
l 1199 1229
l 1202 1232
l 1217 1218
l 1218 1219
l 1220 1221
l 1221 1222
l 1223 1224
l 1224 1225
l 1226 1227
l 1227 1228
l 1241 1290
l 1242 1291
l 1243 1292
l 1244 1293
l 1249 1308
l 1250 1309
l 1251 1314
l 1252 1315
l 1253 1319
l 1254 1320
l 1255 1325
l 1256 1326
l 1257 1330
l 1258 1331
l 1263 1302
l 1264 1303
l 1265 1304
l 1266 1305
l 1267 1306
l 1268 1307
l 1269 1310
l 1270 1311
l 1271 1312
l 1272 1313
l 1273 1316
l 1274 1317
l 1275 1318
l 1276 1321
l 1277 1322
l 1278 1323
l 1279 1324
l 1280 1327
l 1281 1328
l 1282 1329
l 1283 1332
l 1284 1333
l 1285 1334
l 1286 1294
l 1287 1295
l 1288 1296
l 1289 1297
l 1302 1385
l 1303 1386
l 1304 1387
l 1305 1388
l 1306 1389
l 1307 1390
l 1308 1412
l 1309 1413
l 1310 1391
l 1311 1392
l 1312 1393
l 1313 1394
l 1314 1414
l 1315 1415
l 1316 1395
l 1317 1396
l 1318 1397
l 1319 1416
l 1320 1417
l 1321 1398
l 1322 1399
l 1323 1400
l 1324 1401
l 1325 1418
l 1326 1419
l 1327 1402
l 1328 1403
l 1329 1404
l 1330 1420
l 1331 1421
l 1332 1405
l 1333 1406
l 1334 1407
l 1339 1340
l 1341 1342
l 1343 1345
l 1344 1347
l 1345 1346
l 1346 1347
l 1348 1349
l 1349 1351
l 1350 1352
l 1351 1354
l 1352 1353
l 1353 1354
l 1355 1356
l 1357 1369
l 1360 1372
l 1361 1375
l 1362 1373
l 1363 1374
l 1364 1376
l 1365 1369
l 1368 1372
l 1426 1427
l 1428 1429
l 1448 1449
l 1450 1545
l 1451 1452
l 1452 1453
l 1454 1455
l 1455 1456
l 1457 1458
l 1458 1459
l 1460 1461
l 1461 1462
l 1463 1464
l 1464 1465
l 1466 1467
l 1467 1468
l 1469 1470
l 1470 1471
l 1472 1473
l 1473 1474
l 1475 1476
l 1476 1477
l 1478 1479
l 1479 1480
l 1481 1482
l 1482 1483
l 1484 1485
l 1485 1486
l 1487 1488
l 1488 1489
l 1490 1491
l 1491 1492
l 1494 1671
l 1501 1502
l 1502 1503
l 1504 1505
l 1505 1506
l 1507 1508
l 1508 1509
l 1510 1511
l 1511 1512
l 1513 1514
l 1514 1515
l 1516 1517
l 1517 1518
l 1519 1520
l 1520 1521
l 1522 1523
l 1523 1524
l 1525 1526
l 1526 1527
l 1528 1529
l 1529 1530
l 1538 1554
l 1540 1620
l 1541 1543
l 1542 1544
l 1545 1568
l 1546 1569
l 1547 1570
l 1548 1550
l 1549 1551
l 1555 1557
l 1556 1558
l 1560 1562
l 1561 1563
l 1564 1566
l 1565 1567
l 1572 1574
l 1573 1575
l 1576 1578
l 1577 1579
l 1580 1582
l 1581 1583
l 1584 1705
l 1585 1587
l 1586 1588
l 1590 1713
l 1595 1720
l 1597 1710
l 1599 1601
l 1600 1602
l 1603 1605
l 1604 1606
l 1607 1709
l 1608 1610
l 1609 1611
l 1612 1614
l 1613 1615
l 1616 1622
l 1617 1623
l 1618 1628
l 1620 1737
l 1621 1638
l 1622 1639
l 1623 1640
l 1624 1626
l 1625 1627
l 1628 1643
l 1630 1632
l 1631 1633
l 1634 1636
l 1635 1637
l 1638 1654
l 1639 1657
l 1640 1658
l 1641 1644
l 1642 1645
l 1646 1871
l 1648 1650
l 1649 1651
l 1652 1655
l 1653 1656
l 1654 1660
l 1658 1661
l 1659 1662
l 1663 1665
l 1664 1666
l 1667 1669
l 1668 1670
l 1673 1866
l 1674 1676
l 1675 1677
l 1678 1680
l 1679 1681
l 1683 1848
l 1684 1847
l 1685 1850
l 1686 1850
l 1688 1852
l 1688 1853
l 1693 1859
l 1696 1861
l 1697 1771
l 1698 1772
l 1699 1701
l 1700 1702
l 1703 1706
l 1704 1707
l 1708 1822
l 1710 1811
l 1712 1812
l 1719 1821
l 1720 1822
l 1723 1725
l 1724 1726
l 1727 1729
l 1728 1730
l 1731 1734
l 1732 1735
l 1738 1740
l 1739 1741
l 1742 1744
l 1743 1745
l 1746 1748
l 1747 1749
l 1750 1752
l 1751 1753
l 1754 1756
l 1755 1757
l 1758 1760
l 1759 1761
l 1762 1764
l 1763 1765
l 1767 1769
l 1768 1770
l 1773 1775
l 1774 1776
l 1777 1779
l 1778 1780
l 1781 1783
l 1782 1784
l 1785 1787
l 1786 1788
l 1789 1791
l 1790 1792
l 1793 1795
l 1794 1796
l 1797 1799
l 1798 1800
l 1801 1803
l 1802 1804
l 1805 1809
l 1806 1810
l 1807 1873
l 1808 1874
l 1811 1949
l 1812 1948
l 1813 1949
l 1820 1956
l 1820 1957
l 1821 1958
l 1822 1959
l 1822 1960
l 1825 1963
l 1826 1828
l 1827 1829
l 1830 1832
l 1831 1833
l 1837 1991
l 1839 1841
l 1840 1842
l 1843 1845
l 1844 1846
l 1848 2040
l 1858 2046
l 1859 2047
l 1861 2048
l 1862 1864
l 1863 1865
l 1866 2092
l 1867 1869
l 1868 1870
l 1871 2182
l 1873 1918
l 1874 1919
l 1875 1877
l 1876 1878
l 1879 1881
l 1880 1882
l 1883 1885
l 1884 1886
l 1888 1890
l 1889 1891
l 1892 1895
l 1893 1896
l 1897 1899
l 1898 1900
l 1912 1914
l 1913 1915
l 1916 1920
l 1917 1921
l 1924 1926
l 1925 1927
l 1928 1930
l 1929 1931
l 1932 1934
l 1933 1935
l 1936 1938
l 1937 1939
l 1940 1942
l 1941 1943
l 1944 1946
l 1945 1947
l 1966 1968
l 1967 1969
l 1970 1972
l 1971 1973
l 1974 1976
l 1975 1977
l 1978 1980
l 1979 1981
l 1982 1984
l 1983 1985
l 1986 1988
l 1987 1989
l 1992 1994
l 1993 1995
l 1996 1998
l 1997 1999
l 2000 2002
l 2001 2003
l 2019 2030
l 2020 2031
l 2032 2051
l 2034 2036
l 2035 2037
l 2038 2049
l 2041 2050
l 2051 2072
l 2069 2070
l 2070 2071
l 2074 2076
l 2075 2077
l 2078 2080
l 2079 2081
l 2095 2099
l 2096 2100
l 2101 2103
l 2102 2104
l 2108 2113
l 2109 2114
l 2111 2122
l 2114 2137
l 2119 2121
l 2131 2135
l 2137 2146
l 2139 2141
l 2140 2142
l 2143 2148
l 2144 2149
l 2151 2153
l 2154 2156
l 2155 2157
l 2158 2160
l 2159 2161
l 2163 2169
l 2164 2167
l 2170 2172
l 2171 2173
l 2174 2176
l 2175 2177
l 2178 2180
l 2179 2181
l 2184 2187
l 2185 2188
l 2189 2191
l 2190 2192
l 2207 2208
l 2208 2209
l 2210 2211
l 2211 2212
l 2213 2215
l 2214 2216
l 2215 2217
l 2216 2218
l 2219 2220
l 2221 2222
l 2222 2223
l 2224 2226
l 2225 2227
l 2226 2228
l 2227 2229
l 2236 2238
l 2237 2238
l 2242 2243
l 2243 2244
l 2245 2249
l 2246 2250
l 2247 2251
l 2248 2252
l 2253 2257
l 2254 2258
l 2255 2259
l 2256 2260
l 2261 2264
l 2262 2264
l 2263 2266
l 2265 2266
l 2274 2278
l 2275 2278
l 2276 2279
l 2277 2279
l 2280 2284
l 2281 2285
l 2282 2286
l 2283 2287
l 2288 2294
l 2289 2295
l 2290 2292
l 2291 2293
