# feature-edge wireframe (60 derece), ISO 8855, metre
o trailer_wire
v -1.68900 -0.89080 4.07200
v -1.68900 -0.68680 4.07200
v -1.68900 -0.49080 4.07200
v -1.68900 0.52720 4.07200
v -1.68900 0.72420 4.07200
v -1.68900 0.92720 4.07200
v -1.69100 -0.89080 3.90700
v -1.69100 -0.68680 3.90700
v -1.69100 0.72420 3.90700
v -1.69100 0.92720 3.90700
v -1.75500 1.04720 3.90600
v -1.75500 -0.89080 3.90700
v -1.75500 -0.68680 3.90700
v -1.75500 0.72420 3.90700
v -1.75500 0.92720 3.90700
v -1.75500 -0.49080 3.90800
v -1.75500 0.52720 3.90800
v -1.76100 -1.21680 1.27400
v -1.76100 0.05420 1.27400
v -1.76100 1.32420 1.27400
v -1.76700 -0.89080 4.00900
v -1.76700 -0.68680 4.00900
v -1.76700 -0.49080 4.00900
v -1.76700 0.52720 4.00900
v -1.76700 0.72420 4.00900
v -1.76700 0.92720 4.00900
v -1.77600 -1.28280 1.16900
v -1.77600 1.29920 1.16900
v -1.77600 -1.28980 1.57100
v -1.77600 1.30620 1.57100
v -1.77600 -1.28980 1.87900
v -1.77600 1.30620 1.87900
v -1.77600 -1.28980 2.76800
v -1.77600 1.30620 2.76800
v -1.77600 -1.28980 3.94800
v -1.77600 1.30620 3.94800
v -1.80700 -1.31380 4.07200
v -1.80700 1.35120 4.07200
v -1.80800 1.34920 3.90500
v -1.83000 -1.24380 4.01900
v -1.83000 1.28120 4.01900
v -1.84000 -1.25180 3.90500
v -1.84000 1.28920 3.90500
v -1.87400 -1.21680 1.27400
v -1.87400 1.28920 1.27400
v -2.33500 -1.21680 1.27400
v -2.33500 1.26320 1.27400
v -2.34100 -1.31180 3.90500
v -2.34100 1.34920 3.90500
v -2.34100 -1.31380 4.07200
v -2.34100 1.35120 4.07200
v -2.34700 -1.24080 4.01200
v -2.34700 1.27720 4.01200
v -2.34900 -1.25180 3.90500
v -2.34900 1.28920 3.90500
v -3.21600 -1.28280 1.16900
v -3.21600 1.29920 1.16900
v -3.21600 -1.28980 3.94800
v -3.21600 1.30620 3.94800
v -3.69700 -1.21680 1.27400
v -3.69700 1.25420 1.27400
v -3.71500 -1.31180 3.90300
v -3.71500 -1.25180 3.90300
v -3.71500 1.28920 3.90300
v -3.71500 1.34920 3.90300
v -3.71500 -1.23880 4.01200
v -3.71500 1.27620 4.01200
v -3.71500 -1.31380 4.07100
v -3.71500 1.35120 4.07100
v -4.29900 -1.28280 1.16900
v -4.29900 1.29920 1.16900
v -4.29900 -1.28980 3.94800
v -4.29900 1.30620 3.94800
v -4.67000 -1.28280 1.16900
v -4.67000 1.29920 1.16900
v -4.67000 -1.28980 3.94800
v -4.67000 1.30620 3.94800
v -4.72300 -1.28280 1.16900
v -4.72300 1.29920 1.16900
v -4.72300 -1.28980 3.94800
v -4.72300 1.30620 3.94800
v -5.10300 -1.28280 1.16900
v -5.10300 1.29920 1.16900
v -5.10300 -1.28980 3.94800
v -5.10300 1.30620 3.94800
v -5.53900 -1.21680 1.27400
v -5.53900 1.25420 1.27400
v -5.54300 -1.25180 3.90200
v -5.54300 1.28920 3.90200
v -5.54300 1.34920 3.90200
v -5.54300 -1.23880 4.01400
v -5.54300 1.27620 4.01400
v -5.54300 -1.31380 4.07100
v -5.54300 1.35120 4.07100
v -6.21300 -1.28280 1.16900
v -6.21300 1.29920 1.16900
v -6.21300 -1.28980 3.94800
v -6.21300 1.30620 3.94800
v -7.11200 -0.69780 0.85400
v -7.11200 -0.68480 0.85400
v -7.11200 0.74620 0.85400
v -7.11200 0.75920 0.85400
v -7.11200 -0.69780 0.97500
v -7.11200 -0.68480 0.97500
v -7.11200 0.74620 0.97500
v -7.11200 0.75920 0.97500
v -7.11200 -0.69780 1.09600
v -7.11200 -0.68480 1.09600
v -7.11200 0.74620 1.09600
v -7.11200 0.75920 1.09600
v -7.13000 -0.58880 0.82600
v -7.13000 -0.32280 0.82600
v -7.13000 0.03120 0.82600
v -7.13000 0.38420 0.82600
v -7.13000 0.65020 0.82600
v -7.13000 -0.58880 1.12400
v -7.13000 -0.32280 1.12400
v -7.13000 0.03120 1.12400
v -7.13000 0.38420 1.12400
v -7.13000 0.65020 1.12400
v -7.16700 -0.69780 0.80800
v -7.16700 -0.68480 0.80800
v -7.16700 0.74620 0.80800
v -7.16700 0.75920 0.80800
v -7.16700 -0.69780 1.14200
v -7.16700 -0.68480 1.14200
v -7.16700 0.74620 1.14200
v -7.16700 0.75920 1.14200
v -7.17100 -0.69380 0.81700
v -7.17100 0.75620 0.81700
v -7.17100 0.79220 0.81700
v -7.17100 -0.72980 0.81800
v -7.17100 0.79220 0.81800
v -7.17100 0.79320 0.81800
v -7.17100 -0.72980 1.12700
v -7.17100 0.79220 1.12700
v -7.17100 -0.69380 1.12800
v -7.17100 0.75620 1.12800
v -7.17900 -0.68280 1.12500
v -7.17900 0.74520 1.12500
v -7.18700 -0.69680 0.83700
v -7.18700 -0.69680 1.11300
v -7.30800 -0.69380 0.81700
v -7.30800 0.75620 0.81700
v -7.30800 0.79220 0.81700
v -7.30800 -0.72980 0.81800
v -7.30800 0.79220 0.81800
v -7.30800 0.79320 0.81800
v -7.30800 -0.72980 1.12700
v -7.30800 0.79220 1.12700
v -7.30800 -0.69380 1.12800
v -7.30800 0.75620 1.12800
v -7.30900 -0.69780 0.80800
v -7.30900 -0.68480 0.80800
v -7.30900 0.74620 0.80800
v -7.30900 0.75920 0.80800
v -7.30900 -0.69680 0.83700
v -7.30900 -0.69680 1.11300
v -7.30900 -0.68280 1.12500
v -7.30900 0.74520 1.12500
v -7.30900 -0.69780 1.14200
v -7.30900 -0.68480 1.14200
v -7.30900 0.74620 1.14200
v -7.30900 0.75920 1.14200
v -7.32300 -1.28280 1.16900
v -7.32300 1.29920 1.16900
v -7.32300 -1.28980 3.94800
v -7.32300 1.30620 3.94800
v -7.43100 -0.69680 0.83700
v -7.43100 -0.69680 1.11300
v -7.43800 -1.21680 1.27400
v -7.43800 1.25420 1.27400
v -7.43800 -1.25180 3.90200
v -7.43800 1.28920 3.90200
v -7.43800 1.34920 3.90200
v -7.43800 -1.23880 4.01500
v -7.43800 1.27620 4.01500
v -7.43800 -1.31380 4.07100
v -7.43800 1.35120 4.07100
v -7.44000 -0.68280 1.12500
v -7.44000 0.74520 1.12500
v -7.44500 -0.69380 0.81700
v -7.44500 0.75620 0.81700
v -7.44500 0.79220 0.81700
v -7.44500 -0.72980 0.81800
v -7.44500 0.79220 0.81800
v -7.44500 0.79320 0.81800
v -7.44500 -0.72980 1.12700
v -7.44500 0.79220 1.12700
v -7.44500 -0.69380 1.12800
v -7.44500 0.75620 1.12800
v -7.45200 -0.69780 0.80800
v -7.45200 -0.68480 0.80800
v -7.45200 0.74620 0.80800
v -7.45200 0.75920 0.80800
v -7.45200 -0.69780 1.14200
v -7.45200 -0.68480 1.14200
v -7.45200 0.74620 1.14200
v -7.45200 0.75920 1.14200
v -7.48800 -0.58880 0.82600
v -7.48800 -0.32280 0.82600
v -7.48800 0.03120 0.82600
v -7.48800 0.38420 0.82600
v -7.48800 0.65020 0.82600
v -7.70200 -1.28280 1.16900
v -7.70200 1.29920 1.16900
v -7.70200 -1.28980 3.94800
v -7.70200 1.30620 3.94800
v -7.75600 -1.28280 1.16900
v -7.75600 1.29920 1.16900
v -7.75600 -1.28980 3.94800
v -7.75600 1.30620 3.94800
v -7.79600 1.21820 0.96300
v -7.79700 -1.14280 0.82900
v -7.79700 1.21820 0.82900
v -7.79900 -0.36680 0.67700
v -7.79900 0.03720 0.67700
v -7.79900 0.44220 0.67700
v -7.79900 -1.14280 0.69600
v -7.79900 1.21820 0.69600
v -7.80000 1.26120 0.52900
v -7.80000 0.59420 0.67700
v -7.80000 -1.18680 1.13000
v -7.80000 1.26120 1.13000
v -7.80100 -1.18880 0.52900
v -7.80100 -1.18780 0.52900
v -7.80100 1.26420 0.52900
v -7.80100 -1.02480 0.68300
v -7.80100 1.09920 0.68300
v -7.80100 -1.17580 0.72700
v -7.80100 1.25120 0.72700
v -7.80100 -1.18680 0.82900
v -7.80100 1.26020 0.82900
v -7.80100 1.26120 0.82900
v -7.80100 -1.18880 1.13000
v -7.80100 1.26320 1.13000
v -7.80200 -0.56980 0.67700
v -7.80200 0.64420 0.67700
v -7.80200 -1.18880 0.82900
v -7.80200 -1.18780 0.82900
v -7.80200 1.26320 0.82900
v -7.80200 1.26420 1.13000
v -7.80300 -1.19080 0.52900
v -7.80300 1.26620 0.52900
v -7.80300 0.03720 0.67700
v -7.80300 -1.02480 0.72600
v -7.80300 1.09920 0.72600
v -7.80300 -1.17580 0.73200
v -7.80300 1.25120 0.73200
v -7.80300 -1.18980 0.82900
v -7.80300 1.26420 0.82900
v -7.80300 1.26520 0.82900
v -7.80300 -1.19080 1.13000
v -7.80300 1.26520 1.13000
v -7.80300 1.26620 1.13000
v -7.80400 -0.56980 0.72500
v -7.80400 -0.26580 0.72500
v -7.80400 0.34120 0.72500
v -7.80400 0.64420 0.72500
v -7.80400 -0.56980 0.72600
v -7.80400 0.64420 0.72600
v -7.80400 -1.02480 0.72700
v -7.80400 1.09920 0.72700
v -7.80400 -1.19080 0.82900
v -7.80400 1.26520 0.82900
v -7.80400 -1.19180 1.13000
v -7.80400 1.26620 1.13000
v -7.80500 -1.19180 0.52900
v -7.80500 1.26720 0.52900
v -7.80500 -1.02480 0.73000
v -7.80500 1.09920 0.73000
v -7.80500 -1.19080 0.82900
v -7.80500 1.26520 0.82900
v -7.80500 1.26620 0.82900
v -7.80600 -0.56980 0.72900
v -7.80600 0.64420 0.72900
v -7.80600 -1.02480 0.73000
v -7.80600 -0.56980 0.73000
v -7.80600 0.64420 0.73000
v -7.80600 1.09920 0.73000
v -7.80600 -1.17580 0.73400
v -7.80600 1.25120 0.73400
v -7.80700 0.03720 0.72900
v -7.80700 -0.56980 0.73000
v -7.80700 -0.26580 0.73000
v -7.80700 0.34120 0.73000
v -7.80700 0.64420 0.73000
v -7.80700 -1.02480 0.73100
v -7.80700 1.09920 0.73100
v -7.87900 -0.56980 0.73100
v -7.87900 -0.26580 0.73100
v -7.87900 0.34120 0.73100
v -7.87900 0.64420 0.73100
v -7.88000 -1.02480 0.73100
v -7.88000 1.09920 0.73100
v -7.88000 -1.02480 0.73200
v -7.88000 1.09920 0.73200
v -7.88100 0.03720 0.73000
v -7.88100 -1.19080 0.82900
v -7.88100 1.26520 0.82900
v -7.88100 -1.19180 1.13000
v -7.88100 1.26620 1.13000
v -7.88200 -1.19080 0.52900
v -7.88200 1.26620 0.52900
v -7.88200 -0.56980 0.73000
v -7.88200 0.64420 0.73000
v -7.88200 -1.17580 0.73400
v -7.88200 1.25120 0.73400
v -7.88200 -1.18980 0.82900
v -7.88200 -1.18880 0.82900
v -7.88200 1.26420 0.82900
v -7.88200 1.26520 0.82900
v -7.88300 1.26420 0.52900
v -7.88300 1.26520 0.52900
v -7.88300 -1.02480 0.73000
v -7.88300 1.09920 0.73000
v -7.88300 -1.18880 0.82900
v -7.88300 -1.18780 0.82900
v -7.88300 1.26320 0.82900
v -7.88300 -1.19080 1.13000
v -7.88300 -1.18980 1.13000
v -7.88400 -1.18880 0.52900
v -7.88400 1.26320 0.52900
v -7.88400 -0.56980 0.72500
v -7.88400 -0.26580 0.72500
v -7.88400 0.34120 0.72500
v -7.88400 0.64420 0.72500
v -7.88400 -0.56980 0.72600
v -7.88400 0.64420 0.72600
v -7.88400 -1.18680 0.82900
v -7.88400 1.26020 0.82900
v -7.88400 1.26120 0.82900
v -7.88400 -1.18880 1.13000
v -7.88400 1.26420 1.13000
v -7.88500 -1.18680 0.52900
v -7.88500 1.26120 0.52900
v -7.88500 -1.02480 0.72500
v -7.88500 1.09920 0.72500
v -7.88500 -1.02480 0.72600
v -7.88500 1.09920 0.72600
v -7.88500 -1.18780 1.13000
v -7.88500 1.26120 1.13000
v -7.88800 -1.17580 0.72600
v -7.88800 1.25120 0.72600
v -8.13500 -1.28280 1.16900
v -8.13500 1.29920 1.16900
v -8.13500 -1.28980 3.94800
v -8.13500 1.30620 3.94800
v -9.24600 -1.28280 1.16900
v -9.24600 1.29920 1.16900
v -9.24600 -1.28980 3.94800
v -9.24600 1.30620 3.94800
v -9.36700 -1.21680 1.27400
v -9.36700 1.25420 1.27400
v -9.36700 -1.25180 3.90200
v -9.36700 1.28920 3.90200
v -9.36700 1.34920 3.90200
v -9.36700 -1.23880 4.01500
v -9.36700 1.27620 4.01500
v -9.36700 -1.31380 4.07100
v -9.36700 1.35120 4.07100
v -9.90300 1.21820 0.96300
v -9.90400 1.21820 0.82800
v -9.90500 1.21820 0.69400
v -9.90600 -0.36680 0.67700
v -9.90600 0.03720 0.67700
v -9.90600 0.44220 0.67700
v -9.90700 -1.18780 0.52600
v -9.90700 1.26120 0.52600
v -9.90700 0.59420 0.67700
v -9.90700 -1.02480 0.68300
v -9.90700 1.09920 0.68300
v -9.90700 -1.17580 0.72700
v -9.90700 1.25120 0.72700
v -9.90700 -1.18680 1.13100
v -9.90700 1.26120 1.13100
v -9.90800 -1.18880 0.52600
v -9.90800 1.26420 0.52600
v -9.90800 -0.56980 0.67700
v -9.90800 0.64420 0.67700
v -9.90800 -1.18780 0.82800
v -9.90800 -1.18680 0.82800
v -9.90800 1.26020 0.82800
v -9.90800 1.26120 0.82800
v -9.90800 1.26320 0.82800
v -9.90800 -1.18880 1.13100
v -9.90800 1.26320 1.13100
v -9.90800 1.26420 1.13100
v -9.90900 -1.18980 0.52600
v -9.90900 1.26420 0.52600
v -9.90900 0.03720 0.67700
v -9.90900 -1.18880 0.82800
v -9.90900 1.26320 0.82800
v -9.90900 1.26420 0.82800
v -9.90900 -1.19080 1.13100
v -9.90900 1.26520 1.13100
v -9.91000 -1.19080 0.52600
v -9.91000 1.26620 0.52600
v -9.91000 -0.56980 0.72500
v -9.91000 0.64420 0.72500
v -9.91000 -1.02480 0.72600
v -9.91000 1.09920 0.72600
v -9.91000 -1.02480 0.72700
v -9.91000 1.09920 0.72700
v -9.91000 -1.19080 0.82800
v -9.91000 -1.18980 0.82800
v -9.91000 1.26520 0.82800
v -9.91100 -0.56980 0.72500
v -9.91100 -0.26580 0.72500
v -9.91100 0.34120 0.72500
v -9.91100 0.64420 0.72500
v -9.91100 -0.56980 0.72600
v -9.91100 0.64420 0.72600
v -9.91200 -1.19180 0.52600
v -9.91200 1.26720 0.52600
v -9.91200 -0.56980 0.72900
v -9.91200 0.64420 0.72900
v -9.91200 -1.19080 0.82800
v -9.91200 1.26620 0.82800
v -9.91200 -1.19180 1.13100
v -9.91200 1.26720 1.13100
v -9.91300 -0.56980 0.72900
v -9.91300 0.03720 0.72900
v -9.91300 0.64420 0.72900
v -9.91300 -1.02480 0.73000
v -9.91300 -0.56980 0.73000
v -9.91300 -0.26580 0.73000
v -9.91300 0.34120 0.73000
v -9.91300 0.64420 0.73000
v -9.91300 1.09920 0.73000
v -9.91300 -1.02480 0.73100
v -9.91300 1.09920 0.73100
v -9.91300 -1.19180 0.82800
v -9.91300 1.26620 0.82800
v -9.91400 -0.56980 0.73000
v -9.91400 0.64420 0.73000
v -9.98300 0.03720 0.73100
v -9.98500 -0.56980 0.73100
v -9.98500 -0.26580 0.73100
v -9.98500 0.34120 0.73100
v -9.98500 0.64420 0.73100
v -9.98500 -1.02480 0.73200
v -9.98500 1.09920 0.73200
v -9.98600 -0.56980 0.73100
v -9.98600 0.64420 0.73100
v -9.98600 -1.17580 0.73500
v -9.98600 1.25120 0.73500
v -9.98600 -1.19180 0.82800
v -9.98600 -1.19080 0.82800
v -9.98600 1.26620 0.82800
v -9.98600 -1.19180 1.13100
v -9.98600 1.26720 1.13100
v -9.98700 -1.19180 0.52600
v -9.98700 1.26720 0.52600
v -9.98700 -1.02480 0.73100
v -9.98700 1.09920 0.73100
v -9.98700 -1.19080 0.82800
v -9.98700 1.26520 0.82800
v -9.98800 -1.19180 0.52600
v -9.98800 -1.19080 0.52600
v -9.98800 1.26620 0.52600
v -9.98800 -0.56980 0.73000
v -9.98800 0.64420 0.73000
v -9.98800 -1.19080 0.82800
v -9.98800 1.26520 0.82800
v -9.98800 -1.19180 1.13100
v -9.98800 1.26620 1.13100
v -9.98900 -1.02480 0.73000
v -9.98900 1.09920 0.73000
v -9.98900 -1.18980 0.82800
v -9.98900 -1.18880 0.82800
v -9.98900 1.26420 0.82800
v -9.98900 -1.19080 1.13100
v -9.99000 -1.18880 0.52600
v -9.99000 1.26420 0.52600
v -9.99000 -0.56980 0.72600
v -9.99000 0.64420 0.72600
v -9.99000 -1.18880 0.82800
v -9.99000 -1.18780 0.82800
v -9.99000 -1.18680 0.82800
v -9.99000 1.26320 0.82800
v -9.99000 -1.18980 1.13100
v -9.99000 -1.18880 1.13100
v -9.99000 1.26420 1.13100
v -9.99100 -1.18880 0.52600
v -9.99100 -1.18680 0.52600
v -9.99100 1.26320 0.52600
v -9.99100 0.03720 0.72400
v -9.99100 -0.56980 0.72500
v -9.99100 -0.26580 0.72500
v -9.99100 0.34120 0.72500
v -9.99100 0.64420 0.72500
v -9.99100 -1.02480 0.72600
v -9.99100 -0.56980 0.72600
v -9.99100 0.64420 0.72600
v -9.99100 1.09920 0.72600
v -9.99100 -1.17580 0.73200
v -9.99100 1.25120 0.73200
v -9.99100 -1.18680 0.82800
v -9.99100 1.26020 0.82800
v -9.99100 1.26120 0.82800
v -9.99100 -1.18880 1.13100
v -9.99100 -1.18780 1.13100
v -9.99100 1.26120 1.13100
v -9.99200 1.26120 0.52600
v -9.99200 -1.02480 0.72500
v -9.99200 1.09920 0.72500
v -9.99200 -1.02480 0.72600
v -9.99200 1.09920 0.72600
v -9.99200 1.26120 1.13100
v -9.99400 -1.17580 0.72600
v -9.99400 1.25120 0.72600
v -10.33900 -1.06080 0.36800
v -10.33900 -0.92080 0.36800
v -10.33900 -0.77980 0.36800
v -10.33900 0.86720 0.36800
v -10.33900 1.00320 0.36800
v -10.33900 1.12920 0.36800
v -10.34100 -1.23480 0.49800
v -10.34100 -0.60580 0.49800
v -10.34100 0.69320 0.49800
v -10.34100 1.28420 0.49800
v -10.34900 -1.23180 0.49700
v -10.34900 -0.60880 0.49700
v -10.34900 0.69620 0.49700
v -10.34900 1.28120 0.49700
v -10.35600 -1.28280 1.16900
v -10.35600 1.29920 1.16900
v -10.35600 -1.28980 3.94800
v -10.35600 1.30620 3.94800
v -10.36500 -1.23480 0.61900
v -10.36500 -0.60580 0.61900
v -10.36500 0.69320 0.61900
v -10.36500 1.28420 0.61900
v -10.37300 -1.23180 0.61700
v -10.37300 -0.60880 0.61700
v -10.37300 0.69620 0.61700
v -10.37300 1.28120 0.61700
v -10.42100 -1.23480 0.76000
v -10.42100 -0.60580 0.76000
v -10.42100 0.69320 0.76000
v -10.42100 1.28420 0.76000
v -10.42800 -1.23180 0.75600
v -10.42800 -0.60880 0.75600
v -10.42800 0.69620 0.75600
v -10.42800 1.28120 0.75600
v -10.48800 -1.23480 0.88800
v -10.48800 -0.60580 0.88800
v -10.48800 0.69320 0.88800
v -10.48800 1.28420 0.88800
v -10.49500 -1.23180 0.88400
v -10.49500 -0.60880 0.88400
v -10.49500 0.69620 0.88400
v -10.49500 1.28120 0.88400
v -10.73500 -1.28280 1.16900
v -10.73500 1.29920 1.16900
v -10.73500 -1.28980 3.94800
v -10.73500 1.30620 3.94800
v -10.78900 -1.28280 1.16900
v -10.78900 1.29920 1.16900
v -10.78900 -1.28980 3.94800
v -10.78900 1.30620 3.94800
v -10.97500 -1.23180 1.14200
v -10.97500 -0.60880 1.14200
v -10.97500 0.69620 1.14200
v -10.97500 1.28120 1.14200
v -10.97500 -1.23480 1.15000
v -10.97500 -0.60580 1.15000
v -10.97500 0.69320 1.15000
v -10.97500 1.28420 1.15000
v -11.16800 -1.28280 1.16900
v -11.16800 1.29920 1.16900
v -11.16800 -1.28980 3.94800
v -11.16800 1.30620 3.94800
v -11.21000 -1.23180 1.14200
v -11.21000 -0.60880 1.14200
v -11.21000 0.69620 1.14200
v -11.21000 1.28120 1.14200
v -11.21000 -1.23480 1.15000
v -11.21000 -0.60580 1.15000
v -11.21000 0.69320 1.15000
v -11.21000 1.28420 1.15000
v -11.29500 -1.21680 1.27400
v -11.29500 1.25420 1.27400
v -11.29500 -1.25180 3.90200
v -11.29500 1.28920 3.90200
v -11.29500 1.34920 3.90200
v -11.29500 -1.23880 4.01500
v -11.29500 1.27620 4.01500
v -11.29500 -1.31380 4.07100
v -11.29500 1.35120 4.07100
v -11.71800 -0.52880 0.83500
v -11.71800 -0.51180 0.83500
v -11.71800 0.56320 0.83500
v -11.71800 0.58120 0.83500
v -11.74200 -0.27480 0.39000
v -11.74200 -0.13480 0.39000
v -11.74200 0.04420 0.39000
v -11.74200 0.21120 0.39000
v -11.74200 0.33320 0.39000
v -11.75300 0.22520 0.34200
v -11.75300 0.35820 0.34200
v -11.80000 -1.23180 1.14200
v -11.80000 -0.60880 1.14200
v -11.80000 0.69620 1.14200
v -11.80000 1.28120 1.14200
v -11.80000 -1.23480 1.15000
v -11.80000 -0.60580 1.15000
v -11.80000 0.69320 1.15000
v -11.80000 1.28420 1.15000
v -11.89100 -0.52880 0.83500
v -11.89100 -0.51180 0.83500
v -11.89100 0.56320 0.83500
v -11.89100 0.58120 0.83500
v -12.03000 -0.29980 0.34200
v -12.03000 -0.14880 0.34200
v -12.04000 -0.13480 0.39000
v -12.04000 0.04420 0.39000
v -12.04000 0.21120 0.39000
v -12.04000 0.33320 0.39000
v -12.06400 -0.52880 0.83500
v -12.06400 -0.51180 0.83500
v -12.06400 0.56320 0.83500
v -12.06400 0.58120 0.83500
v -12.27800 -1.28280 1.16900
v -12.27800 1.29920 1.16900
v -12.27800 -1.28980 3.94800
v -12.27800 1.30620 3.94800
v -12.56800 -1.23180 1.14200
v -12.56800 -0.60880 1.14200
v -12.56800 0.69620 1.14200
v -12.56800 1.28120 1.14200
v -12.56800 -1.23480 1.15000
v -12.56800 -0.60580 1.15000
v -12.56800 0.69320 1.15000
v -12.56800 1.28420 1.15000
v -13.06100 -0.52880 0.83500
v -13.06100 -0.51180 0.83500
v -13.06100 0.56320 0.83500
v -13.06100 0.58120 0.83500
v -13.08500 -0.27480 0.39000
v -13.08500 -0.13480 0.39000
v -13.08500 0.04420 0.39000
v -13.08500 0.21120 0.39000
v -13.09500 0.22520 0.34200
v -13.09500 0.35820 0.34200
v -13.20000 -1.21680 1.27400
v -13.20000 1.25420 1.27400
v -13.21100 -1.25180 3.90200
v -13.21100 1.28920 3.90200
v -13.21100 1.34920 3.90200
v -13.21100 -1.23880 4.01500
v -13.21100 1.27620 4.01500
v -13.21100 -1.31380 4.07100
v -13.21100 1.35120 4.07100
v -13.23400 -0.52880 0.83500
v -13.23400 -0.51180 0.83500
v -13.23400 0.56320 0.83500
v -13.23400 0.58120 0.83500
v -13.33600 -1.23180 1.14200
v -13.33600 -0.60880 1.14200
v -13.33600 0.69620 1.14200
v -13.33600 1.28120 1.14200
v -13.33600 -1.23480 1.15000
v -13.33600 -0.60580 1.15000
v -13.33600 0.69320 1.15000
v -13.33600 1.28420 1.15000
v -13.37200 -0.29980 0.34200
v -13.37200 -0.14880 0.34200
v -13.38300 -0.27480 0.39000
v -13.38300 -0.13480 0.39000
v -13.38300 0.04420 0.39000
v -13.38300 0.21120 0.39000
v -13.38300 0.33320 0.39000
v -13.38900 -1.28280 1.16900
v -13.38900 1.29920 1.16900
v -13.38900 -1.28980 3.94800
v -13.38900 1.30620 3.94800
v -13.40700 -0.52880 0.83500
v -13.40700 -0.51180 0.83500
v -13.40700 0.56320 0.83500
v -13.40700 0.58120 0.83500
v -13.76800 -1.28280 1.16900
v -13.76800 1.29920 1.16900
v -13.76800 -1.28980 3.94800
v -13.76800 1.30620 3.94800
v -13.82200 -1.28280 1.16900
v -13.82200 1.29920 1.16900
v -13.82200 -1.28980 3.94800
v -13.82200 1.30620 3.94800
v -13.92600 -1.23180 1.14200
v -13.92600 -0.60880 1.14200
v -13.92600 0.69620 1.14200
v -13.92600 1.28120 1.14200
v -13.92600 -1.23480 1.15000
v -13.92600 -0.60580 1.15000
v -13.92600 0.69320 1.15000
v -13.92600 1.28420 1.15000
v -14.16000 -1.23180 1.14200
v -14.16000 -0.60880 1.14200
v -14.16000 0.69620 1.14200
v -14.16000 1.28120 1.14200
v -14.16000 -1.23480 1.15000
v -14.16000 -0.60580 1.15000
v -14.16000 0.69320 1.15000
v -14.16000 1.28420 1.15000
v -14.21500 -1.28280 1.16900
v -14.21500 1.29920 1.16900
v -14.21500 -1.28980 3.94800
v -14.21500 1.30620 3.94800
v -14.64100 -1.23180 0.88400
v -14.64100 -0.60880 0.88400
v -14.64100 0.69620 0.88400
v -14.64100 1.28120 0.88400
v -14.64700 -1.23480 0.88800
v -14.64700 -0.60580 0.88800
v -14.64700 0.69320 0.88800
v -14.64700 1.28420 0.88800
v -14.70700 -1.23180 0.75600
v -14.70700 -0.60880 0.75600
v -14.70700 0.69620 0.75600
v -14.70700 1.28120 0.75600
v -14.71400 -1.23480 0.76000
v -14.71400 -0.60580 0.76000
v -14.71400 0.69320 0.76000
v -14.71400 1.28420 0.76000
v -14.76300 -1.23180 0.61700
v -14.76300 -0.60880 0.61700
v -14.76300 0.69620 0.61700
v -14.76300 1.28120 0.61700
v -14.77000 -1.23480 0.61900
v -14.77000 -0.60580 0.61900
v -14.77000 0.69320 0.61900
v -14.77000 1.28420 0.61900
v -14.78600 -1.23180 0.49700
v -14.78600 -0.60880 0.49700
v -14.78600 0.69620 0.49700
v -14.78600 1.28120 0.49700
v -14.79400 -1.23480 0.49800
v -14.79400 -0.60580 0.49800
v -14.79400 0.69320 0.49800
v -14.79400 1.28420 0.49800
v -14.79600 -1.06080 0.36800
v -14.79600 -0.92080 0.36800
v -14.79600 -0.77980 0.36800
v -14.79600 0.86720 0.36800
v -14.79600 1.00320 0.36800
v -14.79600 1.12920 0.36800
v -15.06100 -1.21680 1.27400
v -15.06100 1.25420 1.27400
v -15.10400 -1.25180 3.90100
v -15.10400 1.28920 3.90100
v -15.10400 1.34920 3.90100
v -15.10400 -1.23880 4.01500
v -15.10400 1.27620 4.01500
v -15.10400 -1.31380 4.07100
v -15.10400 1.35120 4.07100
v -15.29300 -0.62380 0.28200
v -15.29300 -0.61080 0.28200
v -15.29300 -0.54280 0.28200
v -15.36800 -1.28280 1.16900
v -15.36800 1.29920 1.16900
v -15.36800 -1.28980 3.94800
v -15.36800 1.30620 3.94800
v -15.42900 -0.62380 0.28200
v -15.42900 -0.61080 0.28200
v -15.42900 -0.54280 0.28200
v -15.56200 -0.62380 0.28200
v -15.56200 -0.61080 0.28200
v -15.56200 -0.54280 0.28200
v -15.86300 -0.62380 0.28200
v -15.86300 -0.61080 0.28200
v -15.86300 -0.54280 0.28200
v -15.99600 -0.62380 0.28200
v -15.99600 -0.61080 0.28200
v -15.99600 -0.54280 0.28200
v -16.13200 -0.62380 0.28200
v -16.13200 -0.61080 0.28200
v -16.13200 -0.54280 0.28200
v -16.51800 -1.25180 3.90100
v -16.51800 1.28920 3.90100
v -16.52000 -1.23980 4.01600
v -16.52000 1.27720 4.01600
v -16.52700 1.34920 3.90100
v -16.52700 -1.31380 4.07100
v -16.52700 1.35120 4.07100
v -16.84200 -0.88380 0.88700
v -16.84200 -0.63380 0.88700
v -16.84200 -0.30280 0.88700
v -16.84200 0.02820 0.88700
v -16.84200 0.36020 0.88700
v -16.84200 0.69120 0.88700
v -16.84200 0.94120 0.88700
v -16.84300 -0.88380 0.83500
v -16.84300 -0.63380 0.83500
v -16.84300 -0.30280 0.83500
v -16.84300 0.02820 0.83500
v -16.84300 0.36020 0.83500
v -16.84300 0.69120 0.83500
v -16.84300 0.94120 0.83500
v -16.87200 -0.94680 0.55300
v -16.87200 -0.52180 0.55300
v -16.87200 0.04520 0.55300
v -16.87200 0.61120 0.55300
v -16.87200 1.03720 0.55300
v -16.87200 -1.09180 0.55400
v -16.87200 1.18120 0.55400
v -16.87200 -1.09180 0.82300
v -16.87200 -0.94680 0.82300
v -16.87200 -0.52180 0.82300
v -16.87200 0.04520 0.82300
v -16.87200 0.61120 0.82300
v -16.87200 1.03720 0.82300
v -16.87200 1.18120 0.82300
v -16.90000 -1.28280 1.16900
v -16.90000 1.29920 1.16900
v -16.90000 -1.21680 1.27400
v -16.90000 0.01820 1.27400
v -16.90000 1.25420 1.27400
v -16.90000 -1.28980 1.57100
v -16.90000 1.30620 1.57100
v -16.90000 -1.28980 1.87900
v -16.90000 1.30620 1.87900
v -16.90000 -1.28980 2.76800
v -16.90000 1.30620 2.76800
v -16.90000 -1.28980 3.94800
v -16.90000 1.30620 3.94800
v -16.91700 -0.88380 0.83500
v -16.91700 -0.63380 0.83500
v -16.91700 -0.30280 0.83500
v -16.91700 0.02820 0.83500
v -16.91700 0.36020 0.83500
v -16.91700 0.69120 0.83500
v -16.91700 0.94120 0.83500
v -16.91700 -0.88380 1.19600
v -16.91700 -0.63380 1.19600
v -16.91700 -0.30280 1.19600
v -16.91700 0.02820 1.19600
v -16.91700 0.36020 1.19600
v -16.91700 0.69120 1.19600
v -16.91700 0.94120 1.19600
v -16.92500 -0.52480 0.58900
v -16.92500 0.04520 0.58900
v -16.92500 0.61420 0.58900
v -16.92500 -0.52480 0.78800
v -16.92500 0.04520 0.78800
v -16.92500 0.61420 0.78800
v -16.92900 -0.88380 1.19600
v -16.92900 -0.63380 1.19600
v -16.92900 -0.30280 1.19600
v -16.92900 0.02820 1.19600
v -16.92900 0.36020 1.19600
v -16.92900 0.69120 1.19600
v -16.92900 0.94120 1.19600
v -16.93000 -1.09880 0.54800
v -16.93000 1.18820 0.54800
v -16.93000 -1.09880 0.82900
v -16.93000 1.18820 0.82900
v -16.93100 -0.95380 0.54800
v -16.93100 -0.52580 0.54800
v -16.93100 0.04520 0.54800
v -16.93100 0.61520 0.54800
v -16.93100 1.04320 0.54800
v -16.93100 -1.09980 0.59400
v -16.93100 1.18920 0.59400
v -16.93100 -1.09980 0.78300
v -16.93100 1.18920 0.78300
v -16.93100 -0.95380 0.82900
v -16.93100 -0.52580 0.82900
v -16.93100 0.04520 0.82900
v -16.93100 0.61520 0.82900
v -16.93100 1.04320 0.82900
v -16.93200 -0.95380 0.59400
v -16.93200 -0.52580 0.59400
v -16.93200 0.04520 0.59400
v -16.93200 0.61520 0.59400
v -16.93200 1.04320 0.59400
v -16.93200 -0.95380 0.78300
v -16.93200 -0.52580 0.78300
v -16.93200 0.04520 0.78300
v -16.93200 0.61520 0.78300
v -16.93200 1.04320 0.78300
v -17.00100 -1.25180 3.90100
v -17.00100 1.28920 3.90100
v -17.00800 -1.24280 4.02000
v -17.02200 -0.89080 3.90000
v -17.02200 -0.68680 3.90000
v -17.02200 -0.49080 3.90000
v -17.02200 0.52720 3.90000
v -17.02200 0.72420 3.90000
v -17.02200 0.92720 3.90000
v -17.02600 -0.89080 4.01500
v -17.02600 -0.68680 4.01500
v -17.02600 -0.49080 4.01500
v -17.02600 0.52720 4.01500
v -17.02600 0.72420 4.01500
v -17.02600 0.92720 4.01500
v -17.03300 1.34920 3.90100
v -17.03400 -1.31380 4.07100
v -17.03400 1.35120 4.07100
v -17.08600 -0.89080 3.90000
v -17.08600 -0.68680 3.90000
v -17.08600 -0.49080 3.90000
v -17.08600 0.52720 3.90000
v -17.08600 0.72420 3.90000
v -17.08600 0.92720 3.90000
v -17.10700 -1.09780 1.44400
v -17.10700 -0.56180 1.44400
v -17.10700 0.58720 1.44400
v -17.10700 1.12320 1.44400
v -17.10700 -1.09780 1.65200
v -17.10700 -0.56180 1.65200
v -17.10700 0.58720 1.65200
v -17.10700 1.12320 1.65200
v -17.11000 -1.09780 1.44400
v -17.11000 -0.56180 1.44400
v -17.11000 0.58720 1.44400
v -17.11000 1.12320 1.44400
v -17.11000 -1.09780 1.65200
v -17.11000 -0.56180 1.65200
v -17.11000 0.58720 1.65200
v -17.11000 1.12320 1.65200
l 18 19
l 19 20
l 27 56
l 28 57
l 29 31
l 30 32
l 31 33
l 32 34
l 33 35
l 34 36
l 35 58
l 36 59
l 44 46
l 45 47
l 46 60
l 47 61
l 56 70
l 57 71
l 58 72
l 59 73
l 60 86
l 61 87
l 70 74
l 71 75
l 72 76
l 73 77
l 78 82
l 79 83
l 80 84
l 81 85
l 82 95
l 83 96
l 84 97
l 85 98
l 86 171
l 87 172
l 95 165
l 96 166
l 97 167
l 98 168
l 129 143
l 130 144
l 132 146
l 136 150
l 137 151
l 138 152
l 143 182
l 144 183
l 146 185
l 150 189
l 151 190
l 152 191
l 165 205
l 166 206
l 167 207
l 168 208
l 171 353
l 172 354
l 209 345
l 210 346
l 211 347
l 212 348
l 221 233
l 223 232
l 224 234
l 225 240
l 226 232
l 227 241
l 230 246
l 231 247
l 235 239
l 236 241
l 243 250
l 246 256
l 247 259
l 253 264
l 256 257
l 257 260
l 258 259
l 258 261
l 260 262
l 261 263
l 266 272
l 268 272
l 270 275
l 271 276
l 275 283
l 276 283
l 281 288
l 282 289
l 284 285
l 284 288
l 286 287
l 287 289
l 290 291
l 290 296
l 292 293
l 293 297
l 299 301
l 299 303
l 300 302
l 300 304
l 317 322
l 318 333
l 319 323
l 319 334
l 324 325
l 324 337
l 325 328
l 326 327
l 326 329
l 327 338
l 328 339
l 329 340
l 330 335
l 330 341
l 331 342
l 332 336
l 339 343
l 340 344
l 345 349
l 346 350
l 347 351
l 348 352
l 349 527
l 350 528
l 351 529
l 352 530
l 353 583
l 354 584
l 368 382
l 369 383
l 373 401
l 374 402
l 375 382
l 376 384
l 377 381
l 386 392
l 389 392
l 396 407
l 398 407
l 399 401
l 400 402
l 403 412
l 404 413
l 409 412
l 410 413
l 414 418
l 415 419
l 420 433
l 421 434
l 426 427
l 426 431
l 428 429
l 429 432
l 437 445
l 438 439
l 438 442
l 439 444
l 440 441
l 441 443
l 442 446
l 443 447
l 444 455
l 445 456
l 450 452
l 450 454
l 458 461
l 462 468
l 463 469
l 465 467
l 468 497
l 469 498
l 472 475
l 481 484
l 481 487
l 489 490
l 489 506
l 491 492
l 492 507
l 527 555
l 528 556
l 529 557
l 530 558
l 559 571
l 560 572
l 561 573
l 562 574
l 571 625
l 572 626
l 573 627
l 574 628
l 583 647
l 584 648
l 625 675
l 626 676
l 627 677
l 628 678
l 647 749
l 648 750
l 675 683
l 676 684
l 677 685
l 678 686
l 687 707
l 688 708
l 689 709
l 690 710
l 707 761
l 708 762
l 709 763
l 710 764
l 749 817
l 750 819
l 761 815
l 762 816
l 763 826
l 764 827
l 817 818
l 818 819
l 820 822
l 821 823
l 822 824
l 823 825
l 824 826
l 825 827
l 835 836
l 836 837
l 837 838
l 838 839
l 839 840
l 840 841
l 848 849
l 849 850
l 850 851
l 851 852
l 852 853
l 853 854
l 1 2
l 2 3
l 4 5
l 5 6
l 7 8
l 9 10
l 11 15
l 12 13
l 13 16
l 14 15
l 14 17
l 21 22
l 22 23
l 24 25
l 25 26
l 37 50
l 38 51
l 39 49
l 40 52
l 41 53
l 42 54
l 43 55
l 48 62
l 49 65
l 50 68
l 51 69
l 52 66
l 53 67
l 54 63
l 55 64
l 63 88
l 64 89
l 65 90
l 66 91
l 67 92
l 68 93
l 69 94
l 88 173
l 89 174
l 90 175
l 91 176
l 92 177
l 93 178
l 94 179
l 99 103
l 100 104
l 101 105
l 102 106
l 103 107
l 104 108
l 105 109
l 106 110
l 111 112
l 112 113
l 113 114
l 114 115
l 116 117
l 117 118
l 118 119
l 119 120
l 121 153
l 122 154
l 123 155
l 124 156
l 125 161
l 126 162
l 127 163
l 128 164
l 131 145
l 133 147
l 134 148
l 135 149
l 139 159
l 140 160
l 141 157
l 142 158
l 145 184
l 147 186
l 148 187
l 149 188
l 153 192
l 154 193
l 155 194
l 156 195
l 157 169
l 158 170
l 159 180
l 160 181
l 161 196
l 162 197
l 163 198
l 164 199
l 173 355
l 174 356
l 175 357
l 176 358
l 177 359
l 178 360
l 179 361
l 200 201
l 201 202
l 202 203
l 203 204
l 213 215
l 214 219
l 215 220
l 216 217
l 217 218
l 218 222
l 228 237
l 229 238
l 237 245
l 238 245
l 242 251
l 244 252
l 248 270
l 249 271
l 254 265
l 255 265
l 267 273
l 269 274
l 275 277
l 276 280
l 278 285
l 279 286
l 290 294
l 293 295
l 296 307
l 297 308
l 298 305
l 298 306
l 305 315
l 306 316
l 309 320
l 310 321
l 311 313
l 312 314
l 355 585
l 356 586
l 357 587
l 358 588
l 359 589
l 360 590
l 361 591
l 362 363
l 363 364
l 365 366
l 366 367
l 367 370
l 371 379
l 372 380
l 378 385
l 379 391
l 380 391
l 387 393
l 388 394
l 390 393
l 395 405
l 397 406
l 408 409
l 410 411
l 416 423
l 417 423
l 422 423
l 422 425
l 423 424
l 423 435
l 423 436
l 424 430
l 448 453
l 449 451
l 449 453
l 457 459
l 457 460
l 464 466
l 470 473
l 471 474
l 476 488
l 476 493
l 477 488
l 477 496
l 478 482
l 478 485
l 479 483
l 479 502
l 480 486
l 480 503
l 488 490
l 488 491
l 490 494
l 491 495
l 493 511
l 494 508
l 495 509
l 496 512
l 499 503
l 500 504
l 500 510
l 501 505
l 508 511
l 509 512
l 513 514
l 514 515
l 516 517
l 517 518
l 519 531
l 520 532
l 521 533
l 522 534
l 523 535
l 524 536
l 525 537
l 526 538
l 531 539
l 532 540
l 533 541
l 534 542
l 535 543
l 536 544
l 537 545
l 538 546
l 539 547
l 540 548
l 541 549
l 542 550
l 543 551
l 544 552
l 545 553
l 546 554
l 563 575
l 564 576
l 565 577
l 566 578
l 567 579
l 568 580
l 569 581
l 570 582
l 575 603
l 576 604
l 577 605
l 578 606
l 579 607
l 580 608
l 581 609
l 582 610
l 585 649
l 586 650
l 587 651
l 588 652
l 589 653
l 590 654
l 591 655
l 592 611
l 593 612
l 594 613
l 595 614
l 596 597
l 597 598
l 598 599
l 599 600
l 601 602
l 603 629
l 604 630
l 605 631
l 606 632
l 607 633
l 608 634
l 609 635
l 610 636
l 611 621
l 612 622
l 613 623
l 614 624
l 615 616
l 617 618
l 618 619
l 619 620
l 629 660
l 630 661
l 631 662
l 632 663
l 633 664
l 634 665
l 635 666
l 636 667
l 637 656
l 638 657
l 639 658
l 640 659
l 641 642
l 642 643
l 643 644
l 645 646
l 649 751
l 650 752
l 651 753
l 652 754
l 653 755
l 654 756
l 655 757
l 656 679
l 657 680
l 658 681
l 659 682
l 660 691
l 661 692
l 662 693
l 663 694
l 664 695
l 665 696
l 666 697
l 667 698
l 668 669
l 670 671
l 671 672
l 672 673
l 673 674
l 691 699
l 692 700
l 693 701
l 694 702
l 695 703
l 696 704
l 697 705
l 698 706
l 711 719
l 712 720
l 713 721
l 714 722
l 715 723
l 716 724
l 717 725
l 718 726
l 719 727
l 720 728
l 721 729
l 722 730
l 723 731
l 724 732
l 725 733
l 726 734
l 727 735
l 728 736
l 729 737
l 730 738
l 731 739
l 732 740
l 733 741
l 734 742
l 743 744
l 744 745
l 746 747
l 747 748
l 751 780
l 752 781
l 753 784
l 754 782
l 755 783
l 756 785
l 757 786
l 758 765
l 759 766
l 760 767
l 765 768
l 766 769
l 767 770
l 771 774
l 772 775
l 773 776
l 774 777
l 775 778
l 776 779
l 780 883
l 781 884
l 782 885
l 784 898
l 785 899
l 786 900
l 787 788
l 788 789
l 789 790
l 790 791
l 791 792
l 792 793
l 794 795
l 795 796
l 796 797
l 797 798
l 798 799
l 799 800
l 801 802
l 801 806
l 802 803
l 803 804
l 804 805
l 805 807
l 808 809
l 809 810
l 810 811
l 811 812
l 812 813
l 813 814
l 828 829
l 829 830
l 830 831
l 831 832
l 832 833
l 833 834
l 842 843
l 843 844
l 845 846
l 846 847
l 855 859
l 856 863
l 857 868
l 858 872
l 859 860
l 860 861
l 861 862
l 862 863
l 864 873
l 865 877
l 866 878
l 867 882
l 868 869
l 869 870
l 870 871
l 871 872
l 873 874
l 874 875
l 875 876
l 876 877
l 878 879
l 879 880
l 880 881
l 881 882
l 886 887
l 887 888
l 889 890
l 890 891
l 892 893
l 893 894
l 895 896
l 896 897
l 901 902
l 902 903
l 904 905
l 905 906
l 907 908
l 907 911
l 908 912
l 909 910
l 909 913
l 910 914
l 911 912
l 913 914
l 915 916
l 915 919
l 916 920
l 917 918
l 917 921
l 918 922
l 919 920
l 921 922
