# feature-edge wireframe (60 derece), ISO 8855, metre
o cab_interior_wire
v 1.36100 -0.74380 2.21800
v 1.33700 -0.86280 2.21700
v 1.29400 1.10820 1.68600
v 1.27000 0.90120 1.68600
v 1.26200 1.10320 1.83100
v 1.26100 -0.48380 1.56200
v 1.25900 -0.87980 1.56200
v 1.25100 -0.18180 1.56200
v 1.25100 0.47320 1.56400
v 1.25000 -1.01680 1.56200
v 1.25000 -1.01180 1.56200
v 1.25000 -0.91680 1.56200
v 1.25000 -0.87380 1.56200
v 1.25000 -0.84180 1.56200
v 1.25000 -0.63380 1.56200
v 1.25000 -0.46080 1.56200
v 1.25000 -0.33080 1.56200
v 1.25000 0.60620 1.56200
v 1.22800 0.90120 1.68600
v 1.22700 0.90120 1.68600
v 1.19400 0.34620 2.07800
v 1.19400 -0.48280 2.07900
v 1.19400 0.59020 2.07900
v 1.19300 -0.91180 2.07800
v 1.19300 0.44020 2.07900
v 1.19200 0.35220 2.08000
v 1.18700 -0.24380 2.08200
v 1.18700 -1.30880 2.31000
v 1.18700 1.23220 2.31000
v 1.18600 -0.37580 2.08300
v 1.18500 -1.05880 2.07600
v 1.18500 -0.51580 2.08300
v 1.18400 -0.49980 2.08300
v 1.18300 -0.90580 2.08300
v 1.18100 -0.88380 2.08300
v 1.18000 -0.92380 2.08300
v 1.18000 -0.90080 2.08300
v 1.18000 0.43320 2.08400
v 1.18000 -0.63180 2.08500
v 1.18000 -0.32880 2.08500
v 1.18000 0.06220 2.08500
v 1.18000 0.46720 2.08500
v 1.18000 0.60820 2.08500
v 1.17900 -0.90580 2.08200
v 1.17900 -0.77680 2.08400
v 1.17700 -1.05880 2.07900
v 1.17700 -1.03480 2.07900
v 1.17400 0.89620 1.83100
v 1.17100 -1.29980 2.44600
v 1.17100 1.22420 2.44600
v 1.15400 -1.29080 2.58000
v 1.15400 1.21520 2.58000
v 1.13700 -1.32580 2.31000
v 1.13700 -1.32280 2.31000
v 1.13700 1.24720 2.31000
v 1.13700 1.25020 2.31000
v 1.13500 -1.28180 2.71000
v 1.13500 1.20520 2.71000
v 1.13300 0.89620 1.83100
v 1.13200 0.89620 1.83100
v 1.12100 -1.31680 2.44700
v 1.12100 -1.31380 2.44700
v 1.12100 1.23820 2.44700
v 1.12100 1.24120 2.44700
v 1.11200 0.30620 2.30400
v 1.10400 -1.30780 2.58200
v 1.10400 -1.30480 2.58200
v 1.10400 1.22920 2.58200
v 1.10400 1.23220 2.58200
v 1.10200 0.89220 1.94400
v 1.08600 -1.29880 2.71200
v 1.08600 -1.29580 2.71200
v 1.08600 1.22020 2.71200
v 1.08600 1.22220 2.71200
v 1.08100 0.32020 2.19100
v 1.07100 0.40320 2.16800
v 1.07100 0.40420 2.16800
v 1.07100 0.39320 2.18200
v 1.07100 -1.31480 2.25100
v 1.07100 -1.28580 2.25100
v 1.07100 1.20920 2.25100
v 1.07100 1.23920 2.25100
v 1.07000 0.39320 2.18300
v 1.06700 0.40820 2.18500
v 1.06700 0.40920 2.18500
v 1.06700 0.40820 2.18600
v 1.06700 0.17420 2.30600
v 1.06400 0.35220 1.92000
v 1.06400 0.41020 2.17100
v 1.06300 -0.96680 2.00100
v 1.06200 -0.84080 1.99000
v 1.06100 0.89220 1.94400
v 1.06000 0.89220 1.94400
v 1.05900 -0.52880 1.96400
v 1.05600 -1.30580 2.38700
v 1.05600 -1.27680 2.38700
v 1.05600 1.20120 2.38700
v 1.05600 1.23020 2.38700
v 1.05500 -0.22380 1.93800
v 1.03900 -1.29680 2.52100
v 1.03900 -1.26780 2.52100
v 1.03900 1.19220 2.52100
v 1.03900 1.22120 2.52100
v 1.03700 0.18920 2.19100
v 1.03100 -0.94080 2.22300
v 1.02800 -0.96680 2.00100
v 1.02800 -0.96580 2.00100
v 1.02800 -0.96580 2.00200
v 1.02800 -0.96480 2.00200
v 1.02500 -0.84180 1.99100
v 1.02500 -0.83980 1.99200
v 1.02400 -0.84180 1.99100
v 1.02400 -0.84080 1.99100
v 1.02400 -0.83980 1.99100
v 1.02100 -0.74580 2.21300
v 1.02000 0.33020 1.92200
v 1.01900 -1.28780 2.65100
v 1.01900 -1.25880 2.65100
v 1.01900 1.18220 2.65100
v 1.01900 1.21220 2.65100
v 1.01600 -0.53180 1.96400
v 1.01600 -0.53080 1.96500
v 1.01600 -0.52980 1.96500
v 1.01500 -0.92980 2.14400
v 1.01400 -0.89980 2.14000
v 1.01200 -0.89980 2.14000
v 1.01100 -0.52880 2.20200
v 1.01000 0.33620 1.92200
v 1.00800 -0.22580 1.94000
v 1.00700 -0.22780 1.93800
v 1.00700 -0.22780 1.93900
v 1.00700 -0.22680 1.93900
v 1.00700 -0.22580 1.94000
v 1.00500 -0.38880 2.19400
v 1.00400 0.34220 1.92000
v 1.00300 0.34020 1.92100
v 1.00300 -0.72880 2.11800
v 1.00200 0.21620 1.91900
v 1.00200 0.33720 1.92100
v 0.99900 -0.61980 2.10500
v 0.99500 -0.61980 2.10500
v 0.99100 -0.50580 2.09000
v 0.98500 -0.36280 2.07300
v 0.98300 -0.34380 2.07000
v 0.98200 0.29820 2.11600
v 0.98200 -1.02780 3.57300
v 0.98200 0.95220 3.57300
v 0.98000 -0.90580 3.59400
v 0.98000 0.83020 3.59400
v 0.97900 -0.34380 2.07000
v 0.97900 -0.76580 3.60600
v 0.97900 0.68920 3.60600
v 0.97900 -0.62680 3.61300
v 0.97900 0.55020 3.61300
v 0.97900 -0.46680 3.61600
v 0.97900 0.39120 3.61600
v 0.97900 -0.26280 3.61700
v 0.97900 -0.03780 3.61700
v 0.97900 0.18720 3.61700
v 0.97800 0.29920 2.11800
v 0.97700 0.29920 2.11700
v 0.97700 0.29920 2.11800
v 0.96300 0.33320 1.92000
v 0.96300 0.29720 2.07900
v 0.96200 0.33220 1.92000
v 0.96000 0.32720 1.92100
v 0.96000 0.29820 2.08100
v 0.95900 0.31320 1.93300
v 0.95800 0.31420 1.93300
v 0.95700 0.32020 1.92300
v 0.95600 0.18920 1.92100
v 0.95400 0.20520 1.92100
v 0.95300 0.06820 1.91800
v 0.94600 0.20720 1.91900
v 0.94600 0.20720 1.92000
v 0.94600 0.20520 1.92100
v 0.94500 0.20520 1.92000
v 0.94500 0.20620 1.92000
v 0.94200 -1.09680 3.12600
v 0.94200 1.11920 3.12600
v 0.94000 -0.88480 3.12600
v 0.94000 -0.87380 3.12600
v 0.94000 -0.69680 3.12600
v 0.94000 -0.68480 3.12600
v 0.94000 -0.50180 3.12600
v 0.94000 -0.28680 3.12600
v 0.94000 -0.07880 3.12600
v 0.94000 0.07820 3.12600
v 0.94000 0.28620 3.12600
v 0.94000 0.50220 3.12600
v 0.94000 0.68520 3.12600
v 0.94000 0.69620 3.12600
v 0.94000 0.87320 3.12600
v 0.94000 0.88520 3.12600
v 0.92100 -0.03380 2.19200
v 0.92100 -0.03380 2.19400
v 0.91800 -0.03280 2.17900
v 0.91200 0.19120 1.92000
v 0.91200 0.18820 1.93300
v 0.91100 0.19220 1.92000
v 0.91000 0.19120 1.92100
v 0.90900 0.19020 1.92100
v 0.90900 -1.09680 3.12300
v 0.90900 1.11920 3.12300
v 0.90800 -0.04280 2.19700
v 0.90700 0.18720 1.92300
v 0.90700 0.08220 2.11900
v 0.90700 -0.88480 3.12300
v 0.90700 -0.87380 3.12300
v 0.90700 -0.69680 3.12300
v 0.90700 -0.68480 3.12300
v 0.90700 -0.50080 3.12300
v 0.90700 -0.28580 3.12300
v 0.90700 -0.07780 3.12300
v 0.90700 0.07820 3.12300
v 0.90700 0.28520 3.12300
v 0.90700 0.50120 3.12300
v 0.90700 0.68520 3.12300
v 0.90700 0.69620 3.12300
v 0.90700 0.87320 3.12300
v 0.90700 0.88520 3.12300
v 0.90500 -0.04080 2.18300
v 0.90400 0.08420 2.12100
v 0.90300 0.08420 2.12000
v 0.90300 0.08420 2.12100
v 0.89800 0.06820 1.92100
v 0.89600 0.06220 1.91800
v 0.89600 0.06220 1.91900
v 0.89600 0.06220 1.92000
v 0.89500 0.06220 1.91900
v 0.89300 0.04220 1.92100
v 0.89300 0.09520 2.08200
v 0.89000 0.09620 2.08400
v 0.86600 0.06220 1.93400
v 0.86600 0.06320 1.93400
v 0.86500 -0.94880 3.56200
v 0.86500 0.87320 3.56200
v 0.86500 -0.79080 3.57300
v 0.86500 0.71420 3.57300
v 0.86500 -0.45780 3.60700
v 0.86500 0.38220 3.60700
v 0.86500 -0.03780 3.63000
v 0.86400 -0.87780 3.53500
v 0.86400 0.80220 3.53500
v 0.86400 -0.73680 3.54600
v 0.86400 0.66120 3.54600
v 0.86400 -0.59780 3.55300
v 0.86400 0.52220 3.55300
v 0.86400 -0.44180 3.55700
v 0.86400 0.36620 3.55700
v 0.86400 -0.24880 3.55800
v 0.86400 -0.03780 3.55800
v 0.86400 0.17320 3.55800
v 0.86000 0.05020 1.92100
v 0.85900 0.05120 1.92200
v 0.82000 -1.17480 1.70800
v 0.82000 1.17820 1.70800
v 0.81600 -1.25880 3.10400
v 0.81600 1.18320 3.10400
v 0.81200 -1.24980 3.02400
v 0.81200 -1.22080 3.02400
v 0.81200 1.14520 3.02400
v 0.81200 1.17420 3.02400
v 0.75500 0.67520 3.16000
v 0.75500 0.84520 3.16000
v 0.73700 0.67520 3.18800
v 0.73700 0.84520 3.18800
v 0.73700 0.67920 3.18900
v 0.73700 0.84920 3.18900
v 0.73700 0.86620 3.19000
v 0.73700 1.02520 3.19000
v 0.73000 0.67520 3.18700
v 0.73000 0.84520 3.18700
v 0.72900 -0.18980 3.70700
v 0.72900 0.11420 3.70700
v 0.72600 -0.03780 3.70600
v 0.71900 0.67920 3.22300
v 0.71900 0.84920 3.22300
v 0.71900 0.86620 3.22400
v 0.71900 1.02520 3.22400
v 0.71200 0.67920 3.22100
v 0.71200 0.84920 3.22100
v 0.71200 0.86620 3.22200
v 0.71200 1.02520 3.22200
v 0.69100 -1.25780 3.11500
v 0.69100 -1.25580 3.11500
v 0.69100 1.17920 3.11500
v 0.69100 1.18220 3.11500
v 0.69000 -1.24880 3.03200
v 0.69000 -1.21980 3.03200
v 0.69000 1.14420 3.03200
v 0.69000 1.17320 3.03200
v 0.61700 -0.32880 3.74000
v 0.61700 0.25320 3.74000
v 0.56200 -1.17380 1.70800
v 0.56200 1.17620 1.70800
v 0.56200 -1.01980 3.54800
v 0.56200 0.94420 3.54800
v 0.55000 -1.25680 3.12500
v 0.55000 -1.25480 3.12500
v 0.55000 1.17820 3.12500
v 0.55000 1.18120 3.12500
v 0.54700 -1.24780 3.04200
v 0.54700 -1.21880 3.04200
v 0.54700 1.14220 3.04200
v 0.54700 1.17220 3.04200
v 0.53200 -1.19180 2.20900
v 0.53200 1.19520 2.20900
v 0.53200 -1.19180 2.24200
v 0.53200 -1.18180 2.24200
v 0.53200 1.18520 2.24200
v 0.53200 1.19520 2.24200
v 0.48700 -0.32380 3.77100
v 0.48700 0.24720 3.77100
v 0.46500 1.04220 1.78400
v 0.46500 -0.33880 1.88800
v 0.46400 -0.96680 1.80100
v 0.46400 -0.33880 1.80100
v 0.46400 0.41720 1.80100
v 0.46400 1.04520 1.80100
v 0.46400 -0.96680 1.80200
v 0.46400 -0.33880 1.80200
v 0.46400 0.41720 1.80200
v 0.46400 1.04520 1.80200
v 0.46100 -0.95780 1.80100
v 0.46100 -0.34780 1.80100
v 0.46100 0.42620 1.80100
v 0.46100 1.03620 1.80100
v 0.46100 -0.95780 1.80200
v 0.46100 -0.34780 1.80200
v 0.46100 0.42620 1.80200
v 0.46100 1.03620 1.80200
v 0.44000 -1.01980 3.54800
v 0.44000 0.94420 3.54800
v 0.40000 -1.25780 3.13500
v 0.40000 -1.25480 3.13500
v 0.40000 1.17920 3.13500
v 0.40000 1.18220 3.13500
v 0.39400 -1.24680 3.05200
v 0.39400 -1.21680 3.05200
v 0.39400 1.14120 3.05200
v 0.39400 1.17020 3.05200
v 0.38500 -1.19180 2.20900
v 0.38500 1.19420 2.20900
v 0.38300 -1.19180 2.24200
v 0.38300 -1.18180 2.24200
v 0.38300 1.18420 2.24200
v 0.38300 1.19420 2.24200
v 0.33200 -0.33180 3.80100
v 0.33200 0.25620 3.80100
v 0.32200 -0.96980 1.89000
v 0.32200 -0.33680 1.89000
v 0.32200 0.41420 1.89000
v 0.32000 -0.96980 1.80400
v 0.32000 -0.33680 1.80400
v 0.32000 0.41420 1.80400
v 0.32000 1.04720 1.80400
v 0.32000 -0.96980 1.80500
v 0.32000 -0.33680 1.80500
v 0.32000 0.41420 1.80500
v 0.32000 1.04720 1.80500
v 0.31900 1.04620 1.78400
v 0.31800 -0.95980 1.80400
v 0.31800 -0.34580 1.80400
v 0.31800 0.42420 1.80400
v 0.31800 1.03820 1.80400
v 0.31800 -0.95980 1.80500
v 0.31800 -0.34580 1.80500
v 0.31800 0.42420 1.80500
v 0.31800 1.03820 1.80500
v 0.30600 -1.01980 3.54800
v 0.30600 0.94420 3.54800
v 0.30400 -1.17180 1.70800
v 0.30400 1.17520 1.70800
v 0.25000 -1.25880 3.14500
v 0.25000 -1.25680 3.14500
v 0.25000 1.18020 3.14500
v 0.25000 1.18320 3.14500
v 0.24100 -1.24480 3.06300
v 0.24100 -1.21580 3.06300
v 0.24100 1.14020 3.06300
v 0.24100 1.16920 3.06300
v 0.23800 -1.19080 2.20900
v 0.23800 1.19320 2.20900
v 0.23400 -1.19080 2.24200
v 0.23400 1.19320 2.24200
v 0.21000 -0.30480 3.82400
v 0.21000 0.22920 3.82400
v 0.18300 -0.03780 3.82900
v 0.18100 -0.96980 1.89300
v 0.18100 0.41420 1.89300
v 0.17700 -0.96980 1.80700
v 0.17700 -0.33680 1.80700
v 0.17700 0.41520 1.80700
v 0.17700 1.04720 1.80700
v 0.17700 -0.96980 1.80800
v 0.17700 -0.33680 1.80800
v 0.17700 0.41520 1.80800
v 0.17700 1.04720 1.80800
v 0.17700 -0.19280 3.83000
v 0.17700 0.11720 3.83000
v 0.17600 1.04620 1.78400
v 0.17600 -0.95980 1.80700
v 0.17600 -0.34680 1.80700
v 0.17600 0.42420 1.80700
v 0.17600 1.03720 1.80700
v 0.17600 -0.95980 1.80800
v 0.17600 -0.34680 1.80800
v 0.17600 0.42420 1.80800
v 0.17600 1.03720 1.80800
v 0.16900 -1.01980 3.54800
v 0.16900 0.94420 3.54800
v 0.12600 1.18120 3.15200
v 0.12600 1.18420 3.15200
v 0.12000 -1.26080 3.15200
v 0.12000 -1.25780 3.15200
v 0.08900 -1.24380 1.77100
v 0.08900 1.16820 1.77100
v 0.08900 -1.24380 2.34400
v 0.08900 1.16820 2.34400
v 0.08900 -1.24380 2.79400
v 0.08900 1.16820 2.79400
v 0.08900 -1.24380 2.99600
v 0.08900 1.16820 2.99600
v 0.00800 -1.20880 1.77100
v 0.00800 1.13320 1.77100
v -0.04500 -1.01980 3.54800
v -0.04500 0.94420 3.54800
v -0.05200 -0.86280 2.43500
v -0.05300 -0.86280 2.43500
v -0.07100 -0.82480 2.44200
v -0.07200 -0.82480 2.44200
v -0.09100 -0.84980 2.55700
v -0.09200 -0.84980 2.55600
v -0.09300 -0.84980 2.55600
v -0.10300 -0.93480 2.30300
v -0.10300 -0.91880 2.30300
v -0.10300 -0.39880 2.30300
v -0.10300 -0.38280 2.30300
v -0.10300 0.46120 2.30300
v -0.10300 0.47620 2.30300
v -0.10300 0.99720 2.30300
v -0.10300 1.01320 2.30300
v -0.10400 -0.81380 2.57100
v -0.10500 -0.81380 2.57100
v -0.10600 -0.81380 2.57000
v -0.12000 -1.20880 1.77100
v -0.12000 1.13320 1.77100
v -0.12700 -0.83680 2.67200
v -0.12800 -0.83680 2.67200
v -0.13400 1.18420 3.16600
v -0.13700 -0.80380 2.69200
v -0.13800 -0.80380 2.69100
v -0.15700 -0.92180 2.41200
v -0.15700 -0.90780 2.41200
v -0.15700 -0.40980 2.41200
v -0.15700 -0.39580 2.41200
v -0.15700 0.47420 2.41200
v -0.15700 0.48820 2.41200
v -0.15700 0.98520 2.41200
v -0.15700 0.99920 2.41200
v -0.16500 -1.01980 3.54800
v -0.16500 0.94420 3.54800
v -0.18100 -1.11380 3.12800
v -0.18100 1.10120 3.12800
v -0.18100 -1.07880 3.12900
v -0.18100 1.06720 3.12900
v -0.18100 1.12320 3.12900
v -0.18100 1.10120 3.14100
v -0.18100 1.12320 3.28000
v -0.20500 -0.83080 1.79400
v -0.20600 -0.83080 1.79500
v -0.20600 -0.79780 1.79700
v -0.21400 -0.83280 1.92200
v -0.21500 -0.83280 1.92200
v -0.21500 -0.83280 1.92300
v -0.21500 -0.79880 1.92500
v -0.23600 -0.83280 2.28300
v -0.23600 -0.83380 2.28400
v -0.23700 -0.99980 1.86000
v -0.23700 -0.72880 1.86000
v -0.23700 -0.45880 1.86000
v -0.23700 -0.20580 1.86000
v -0.23700 -0.03180 1.86000
v -0.23700 0.14120 1.86000
v -0.23700 0.40720 1.86000
v -0.23700 0.72520 1.86000
v -0.23700 1.04320 1.86000
v -0.23700 -0.99980 1.86200
v -0.23700 -0.72880 1.86200
v -0.23700 -0.45880 1.86200
v -0.23700 -0.20580 1.86200
v -0.23700 -0.03180 1.86200
v -0.23700 0.14120 1.86200
v -0.23700 0.40720 1.86200
v -0.23700 0.72520 1.86200
v -0.23700 1.04320 1.86200
v -0.23700 -0.99980 2.02100
v -0.23700 -0.72880 2.02100
v -0.23700 -0.45880 2.02100
v -0.23700 -0.20580 2.02100
v -0.23700 -0.03180 2.02100
v -0.23700 0.14120 2.02100
v -0.23700 0.40720 2.02100
v -0.23700 0.72520 2.02100
v -0.23700 1.04320 2.02100
v -0.23700 -0.99980 2.02300
v -0.23700 -0.72880 2.02300
v -0.23700 -0.45880 2.02300
v -0.23700 -0.20580 2.02300
v -0.23700 -0.03180 2.02300
v -0.23700 0.14120 2.02300
v -0.23700 0.40720 2.02300
v -0.23700 0.72520 2.02300
v -0.23700 1.04320 2.02300
v -0.23700 -0.99980 2.19200
v -0.23700 -0.72880 2.19200
v -0.23700 -0.45880 2.19200
v -0.23700 -0.20580 2.19200
v -0.23700 -0.03180 2.19200
v -0.23700 0.14120 2.19200
v -0.23700 0.40720 2.19200
v -0.23700 0.72520 2.19200
v -0.23700 1.04320 2.19200
v -0.23700 -1.02180 2.21100
v -0.23700 -0.83680 2.21100
v -0.23700 -0.47980 2.21100
v -0.23700 0.11420 2.21100
v -0.23700 0.68520 2.21100
v -0.23700 0.97420 2.21100
v -0.23700 1.09420 2.21100
v -0.23700 -0.99980 2.21700
v -0.23700 -0.72880 2.21700
v -0.23700 -0.45880 2.21700
v -0.23700 -0.20580 2.21700
v -0.23700 -0.03180 2.21700
v -0.23700 0.14120 2.21700
v -0.23700 0.40720 2.21700
v -0.23700 0.72520 2.21700
v -0.23700 1.04320 2.21700
v -0.23700 -0.83380 2.28500
v -0.23700 -0.80080 2.28700
v -0.23900 -0.99980 2.02200
v -0.23900 -0.72880 2.02200
v -0.23900 -0.45880 2.02200
v -0.23900 -0.20580 2.02200
v -0.23900 -0.03180 2.02200
v -0.23900 0.14120 2.02200
v -0.23900 0.40720 2.02200
v -0.23900 0.72520 2.02200
v -0.23900 1.04320 2.02200
v -0.24000 -0.99980 2.18600
v -0.24000 -0.72880 2.18600
v -0.24000 -0.45880 2.18600
v -0.24000 -0.20580 2.18600
v -0.24000 -0.03180 2.18600
v -0.24000 0.14120 2.18600
v -0.24000 0.40720 2.18600
v -0.24000 0.72520 2.18600
v -0.24000 1.04320 2.18600
v -0.24000 -0.99980 2.19500
v -0.24000 -0.72880 2.19500
v -0.24000 -0.45880 2.19500
v -0.24000 -0.20580 2.19500
v -0.24000 -0.03180 2.19500
v -0.24000 0.14120 2.19500
v -0.24000 0.40720 2.19500
v -0.24000 0.72520 2.19500
v -0.24000 1.04320 2.19500
v -0.24100 -0.99980 1.86100
v -0.24100 -0.72880 1.86100
v -0.24100 -0.45880 1.86100
v -0.24100 -0.20580 1.86100
v -0.24100 -0.03180 1.86100
v -0.24100 0.14120 1.86100
v -0.24100 0.40720 1.86100
v -0.24100 0.72520 1.86100
v -0.24100 1.04320 1.86100
v -0.24100 -0.99980 2.02200
v -0.24100 -0.72880 2.02200
v -0.24100 -0.45880 2.02200
v -0.24100 -0.20580 2.02200
v -0.24100 -0.03180 2.02200
v -0.24100 0.14120 2.02200
v -0.24100 0.40720 2.02200
v -0.24100 0.72520 2.02200
v -0.24100 1.04320 2.02200
v -0.24200 1.15520 3.58400
v -0.25700 -0.83380 2.64300
v -0.25800 -0.83380 2.64400
v -0.25800 -0.80280 2.64600
v -0.26000 -0.80280 2.64700
v -0.26400 -0.99980 2.21200
v -0.26400 -0.72880 2.21200
v -0.26400 -0.45880 2.21200
v -0.26400 -0.20580 2.21200
v -0.26400 -0.03180 2.21200
v -0.26400 0.14120 2.21200
v -0.26400 0.40720 2.21200
v -0.26400 0.72520 2.21200
v -0.26400 1.04320 2.21200
v -0.26400 -0.99980 2.21700
v -0.26400 -0.72880 2.21700
v -0.26400 -0.45880 2.21700
v -0.26400 -0.20580 2.21700
v -0.26400 -0.03180 2.21700
v -0.26400 0.14120 2.21700
v -0.26400 0.40720 2.21700
v -0.26400 0.72520 2.21700
v -0.26400 1.04320 2.21700
v -0.26400 -0.83380 2.76300
v -0.26400 -0.83380 2.76400
v -0.26600 -0.80380 2.76800
v -0.28400 1.18520 3.17400
v -0.28400 1.18820 3.17400
v -0.32000 -1.12280 2.21100
v -0.32000 1.18420 2.21100
v -0.34200 -1.13880 1.86000
v -0.34200 -0.31980 1.86000
v -0.34200 -0.31280 1.86000
v -0.34200 0.24820 1.86000
v -0.34200 0.25220 1.86000
v -0.34200 1.19820 1.86000
v -0.34200 -1.13280 1.86100
v -0.34200 -0.32480 1.86100
v -0.34200 -0.30780 1.86100
v -0.34200 0.24320 1.86100
v -0.34200 0.25720 1.86100
v -0.34200 1.19320 1.86100
v -0.34200 -0.31980 1.86200
v -0.34200 -0.31280 1.86200
v -0.34200 0.24820 1.86200
v -0.34200 0.25220 1.86200
v -0.34200 1.19820 1.86200
v -0.34200 -0.31980 2.02100
v -0.34200 -0.31280 2.02100
v -0.34200 0.24820 2.02100
v -0.34200 0.25220 2.02100
v -0.34200 1.19820 2.02100
v -0.34200 -1.13580 2.02200
v -0.34200 -1.13280 2.02200
v -0.34200 -0.32480 2.02200
v -0.34200 -0.32280 2.02200
v -0.34200 -0.30980 2.02200
v -0.34200 -0.30780 2.02200
v -0.34200 0.24320 2.02200
v -0.34200 0.24520 2.02200
v -0.34200 0.25520 2.02200
v -0.34200 0.25720 2.02200
v -0.34200 1.19320 2.02200
v -0.34200 1.19520 2.02200
v -0.34200 -0.31980 2.02300
v -0.34200 -0.31280 2.02300
v -0.34200 0.24820 2.02300
v -0.34200 0.25220 2.02300
v -0.34200 1.19820 2.02300
v -0.34200 -1.13380 2.18600
v -0.34200 -0.32480 2.18600
v -0.34200 -0.30780 2.18600
v -0.34200 0.24320 2.18600
v -0.34200 0.25620 2.18600
v -0.34200 1.19320 2.18600
v -0.34200 -0.31980 2.19200
v -0.34200 -0.31280 2.19200
v -0.34200 0.24820 2.19200
v -0.34200 0.25220 2.19200
v -0.34200 1.19820 2.19200
v -0.34200 -1.13380 2.19500
v -0.34200 -0.32480 2.19500
v -0.34200 -0.30780 2.19500
v -0.34200 0.24320 2.19500
v -0.34200 0.25620 2.19500
v -0.34200 1.19320 2.19500
v -0.34200 -1.10480 2.21200
v -0.34200 -0.35380 2.21200
v -0.34200 -0.27880 2.21200
v -0.34200 0.21420 2.21200
v -0.34200 0.28620 2.21200
v -0.34200 1.16420 2.21200
v -0.34200 -1.13880 2.21700
v -0.34200 -1.10480 2.21700
v -0.34200 -0.35380 2.21700
v -0.34200 -0.31980 2.21700
v -0.34200 -0.31280 2.21700
v -0.34200 -0.27880 2.21700
v -0.34200 0.21420 2.21700
v -0.34200 0.24820 2.21700
v -0.34200 0.25220 2.21700
v -0.34200 0.28620 2.21700
v -0.34200 1.16420 2.21700
v -0.34200 1.19820 2.21700
v -0.36300 1.15720 3.58000
v -0.42200 -1.20880 1.77100
v -0.42200 1.13320 1.77100
v -0.42500 1.12320 3.28000
v -0.42600 -1.11380 3.12800
v -0.42600 1.10120 3.12800
v -0.42600 -1.07880 3.12900
v -0.42600 1.06720 3.12900
v -0.42600 1.12320 3.12900
v -0.42600 1.10120 3.14100
v -0.43900 1.18720 3.18100
v -0.43900 1.19020 3.18100
v -0.44800 -1.01980 3.54800
v -0.44800 0.94420 3.54800
v -0.48300 1.15920 3.57700
v -0.50000 -1.12280 2.21100
v -0.50000 1.18420 2.21100
v -0.51500 -1.13880 1.86000
v -0.51500 -0.31980 1.86000
v -0.51500 -0.31280 1.86000
v -0.51500 0.24820 1.86000
v -0.51500 0.25220 1.86000
v -0.51500 1.19820 1.86000
v -0.51500 -1.13280 1.86100
v -0.51500 -0.32480 1.86100
v -0.51500 -0.30780 1.86100
v -0.51500 0.24320 1.86100
v -0.51500 0.25720 1.86100
v -0.51500 1.19320 1.86100
v -0.51500 -0.31980 1.86200
v -0.51500 -0.31280 1.86200
v -0.51500 0.24820 1.86200
v -0.51500 0.25220 1.86200
v -0.51500 1.19820 1.86200
v -0.51500 -0.31980 2.02100
v -0.51500 -0.31280 2.02100
v -0.51500 0.24820 2.02100
v -0.51500 0.25220 2.02100
v -0.51500 1.19820 2.02100
v -0.51500 -1.13580 2.02200
v -0.51500 -1.13280 2.02200
v -0.51500 -0.32480 2.02200
v -0.51500 -0.32280 2.02200
v -0.51500 -0.30980 2.02200
v -0.51500 -0.30780 2.02200
v -0.51500 0.24320 2.02200
v -0.51500 0.24520 2.02200
v -0.51500 0.25520 2.02200
v -0.51500 0.25720 2.02200
v -0.51500 1.19320 2.02200
v -0.51500 1.19520 2.02200
v -0.51500 -0.31980 2.02300
v -0.51500 -0.31280 2.02300
v -0.51500 0.24820 2.02300
v -0.51500 0.25220 2.02300
v -0.51500 1.19820 2.02300
v -0.51500 -1.13380 2.18600
v -0.51500 -0.32480 2.18600
v -0.51500 -0.30780 2.18600
v -0.51500 0.24320 2.18600
v -0.51500 0.25620 2.18600
v -0.51500 1.19320 2.18600
v -0.51500 -0.31980 2.19200
v -0.51500 -0.31280 2.19200
v -0.51500 0.24820 2.19200
v -0.51500 0.25220 2.19200
v -0.51500 1.19820 2.19200
v -0.51500 -1.13380 2.19500
v -0.51500 -0.32480 2.19500
v -0.51500 -0.30780 2.19500
v -0.51500 0.24320 2.19500
v -0.51500 0.25620 2.19500
v -0.51500 1.19320 2.19500
v -0.51500 -1.10480 2.21200
v -0.51500 -0.35380 2.21200
v -0.51500 -0.27880 2.21200
v -0.51500 0.21420 2.21200
v -0.51500 0.28620 2.21200
v -0.51500 1.16420 2.21200
v -0.51500 -1.13880 2.21700
v -0.51500 -1.10480 2.21700
v -0.51500 -0.35380 2.21700
v -0.51500 -0.31980 2.21700
v -0.51500 -0.31280 2.21700
v -0.51500 -0.27880 2.21700
v -0.51500 0.21420 2.21700
v -0.51500 0.24820 2.21700
v -0.51500 0.25220 2.21700
v -0.51500 0.28620 2.21700
v -0.51500 1.16420 2.21700
v -0.51500 1.19820 2.21700
v -0.60500 1.04920 3.87400
v -0.66800 1.12320 3.28000
v -0.66900 -1.11380 3.12800
v -0.66900 1.10120 3.12800
v -0.66900 -1.07880 3.12900
v -0.66900 1.06720 3.12900
v -0.66900 1.12320 3.12900
v -0.66900 1.10120 3.14100
v -0.68300 -1.12280 2.21100
v -0.68300 1.18420 2.21100
v -0.68700 -1.13880 1.86000
v -0.68700 -0.31980 1.86000
v -0.68700 -0.31280 1.86000
v -0.68700 0.24820 1.86000
v -0.68700 0.25220 1.86000
v -0.68700 1.19820 1.86000
v -0.68700 -1.13280 1.86100
v -0.68700 -0.32480 1.86100
v -0.68700 -0.30780 1.86100
v -0.68700 0.24320 1.86100
v -0.68700 0.25720 1.86100
v -0.68700 1.19320 1.86100
v -0.68700 -0.31980 1.86200
v -0.68700 -0.31280 1.86200
v -0.68700 0.24820 1.86200
v -0.68700 0.25220 1.86200
v -0.68700 1.19820 1.86200
v -0.68700 -0.31980 2.02100
v -0.68700 -0.31280 2.02100
v -0.68700 0.24820 2.02100
v -0.68700 0.25220 2.02100
v -0.68700 1.19820 2.02100
v -0.68700 -1.13580 2.02200
v -0.68700 -1.13280 2.02200
v -0.68700 -0.32480 2.02200
v -0.68700 -0.32280 2.02200
v -0.68700 -0.30980 2.02200
v -0.68700 -0.30780 2.02200
v -0.68700 0.24320 2.02200
v -0.68700 0.24520 2.02200
v -0.68700 0.25520 2.02200
v -0.68700 0.25720 2.02200
v -0.68700 1.19320 2.02200
v -0.68700 1.19520 2.02200
v -0.68700 -0.31980 2.02300
v -0.68700 -0.31280 2.02300
v -0.68700 0.24820 2.02300
v -0.68700 0.25220 2.02300
v -0.68700 1.19820 2.02300
v -0.68700 -1.13380 2.18600
v -0.68700 -0.32480 2.18600
v -0.68700 -0.30780 2.18600
v -0.68700 0.24320 2.18600
v -0.68700 0.25620 2.18600
v -0.68700 1.19320 2.18600
v -0.68700 -0.31980 2.19200
v -0.68700 -0.31280 2.19200
v -0.68700 0.24820 2.19200
v -0.68700 0.25220 2.19200
v -0.68700 1.19820 2.19200
v -0.68700 -1.13380 2.19500
v -0.68700 -0.32480 2.19500
v -0.68700 -0.30780 2.19500
v -0.68700 0.24320 2.19500
v -0.68700 0.25620 2.19500
v -0.68700 1.19320 2.19500
v -0.68700 -1.10480 2.21200
v -0.68700 -0.35380 2.21200
v -0.68700 -0.27880 2.21200
v -0.68700 0.21420 2.21200
v -0.68700 0.28620 2.21200
v -0.68700 1.16420 2.21200
v -0.68700 -1.13880 2.21700
v -0.68700 -1.10480 2.21700
v -0.68700 -0.35380 2.21700
v -0.68700 -0.31980 2.21700
v -0.68700 -0.31280 2.21700
v -0.68700 -0.27880 2.21700
v -0.68700 0.21420 2.21700
v -0.68700 0.24820 2.21700
v -0.68700 0.25220 2.21700
v -0.68700 0.28620 2.21700
v -0.68700 1.16420 2.21700
v -0.68700 1.19820 2.21700
v -0.74100 1.04820 3.88100
v -0.76500 -0.99980 2.21200
v -0.76500 -0.72880 2.21200
v -0.76500 -0.45880 2.21200
v -0.76500 -0.20580 2.21200
v -0.76500 -0.03180 2.21200
v -0.76500 0.14120 2.21200
v -0.76500 0.40720 2.21200
v -0.76500 0.72520 2.21200
v -0.76500 1.04320 2.21200
v -0.76500 -0.99980 2.21700
v -0.76500 -0.72880 2.21700
v -0.76500 -0.45880 2.21700
v -0.76500 -0.20580 2.21700
v -0.76500 -0.03180 2.21700
v -0.76500 0.14120 2.21700
v -0.76500 0.40720 2.21700
v -0.76500 0.72520 2.21700
v -0.76500 1.04320 2.21700
v -0.78900 -0.99980 1.86100
v -0.78900 -0.72880 1.86100
v -0.78900 -0.45880 1.86100
v -0.78900 -0.20580 1.86100
v -0.78900 -0.03180 1.86100
v -0.78900 0.14120 1.86100
v -0.78900 0.40720 1.86100
v -0.78900 0.72520 1.86100
v -0.78900 1.04320 1.86100
v -0.78900 -0.99980 2.02200
v -0.78900 -0.72880 2.02200
v -0.78900 -0.45880 2.02200
v -0.78900 -0.20580 2.02200
v -0.78900 -0.03180 2.02200
v -0.78900 0.14120 2.02200
v -0.78900 0.40720 2.02200
v -0.78900 0.72520 2.02200
v -0.78900 1.04320 2.02200
v -0.78900 -0.99980 2.18600
v -0.78900 -0.72880 2.18600
v -0.78900 -0.45880 2.18600
v -0.78900 -0.20580 2.18600
v -0.78900 -0.03180 2.18600
v -0.78900 0.14120 2.18600
v -0.78900 0.40720 2.18600
v -0.78900 0.72520 2.18600
v -0.78900 1.04320 2.18600
v -0.78900 -0.99980 2.19500
v -0.78900 -0.72880 2.19500
v -0.78900 -0.45880 2.19500
v -0.78900 -0.20580 2.19500
v -0.78900 -0.03180 2.19500
v -0.78900 0.14120 2.19500
v -0.78900 0.40720 2.19500
v -0.78900 0.72520 2.19500
v -0.78900 1.04320 2.19500
v -0.79000 -0.99980 2.02200
v -0.79000 -0.72880 2.02200
v -0.79000 -0.45880 2.02200
v -0.79000 -0.20580 2.02200
v -0.79000 -0.03180 2.02200
v -0.79000 0.14120 2.02200
v -0.79000 0.40720 2.02200
v -0.79000 0.72520 2.02200
v -0.79000 1.04320 2.02200
v -0.79200 -0.99980 1.86000
v -0.79200 -0.72880 1.86000
v -0.79200 -0.45880 1.86000
v -0.79200 -0.20580 1.86000
v -0.79200 -0.03180 1.86000
v -0.79200 0.14120 1.86000
v -0.79200 0.40720 1.86000
v -0.79200 0.72520 1.86000
v -0.79200 1.04320 1.86000
v -0.79200 -0.99980 1.86200
v -0.79200 -0.72880 1.86200
v -0.79200 -0.45880 1.86200
v -0.79200 -0.20580 1.86200
v -0.79200 -0.03180 1.86200
v -0.79200 0.14120 1.86200
v -0.79200 0.40720 1.86200
v -0.79200 0.72520 1.86200
v -0.79200 1.04320 1.86200
v -0.79200 -0.99980 2.02100
v -0.79200 -0.72880 2.02100
v -0.79200 -0.45880 2.02100
v -0.79200 -0.20580 2.02100
v -0.79200 -0.03180 2.02100
v -0.79200 0.14120 2.02100
v -0.79200 0.40720 2.02100
v -0.79200 0.72520 2.02100
v -0.79200 1.04320 2.02100
v -0.79200 -0.99980 2.02300
v -0.79200 -0.72880 2.02300
v -0.79200 -0.45880 2.02300
v -0.79200 -0.20580 2.02300
v -0.79200 -0.03180 2.02300
v -0.79200 0.14120 2.02300
v -0.79200 0.40720 2.02300
v -0.79200 0.72520 2.02300
v -0.79200 1.04320 2.02300
v -0.79200 -0.99980 2.19200
v -0.79200 -0.72880 2.19200
v -0.79200 -0.45880 2.19200
v -0.79200 -0.20580 2.19200
v -0.79200 -0.03180 2.19200
v -0.79200 0.14120 2.19200
v -0.79200 0.40720 2.19200
v -0.79200 0.72520 2.19200
v -0.79200 1.04320 2.19200
v -0.79200 -0.99980 2.21700
v -0.79200 -0.72880 2.21700
v -0.79200 -0.45880 2.21700
v -0.79200 -0.20580 2.21700
v -0.79200 -0.03180 2.21700
v -0.79200 0.14120 2.21700
v -0.79200 0.40720 2.21700
v -0.79200 0.72520 2.21700
v -0.79200 1.04320 2.21700
v -0.81100 -1.20880 1.77100
v -0.81100 1.13320 1.77100
v -0.81100 -1.20880 2.37700
v -0.81100 1.13320 2.37700
v -0.81100 -1.20880 2.84500
v -0.81100 1.13320 2.84500
v -0.81100 -1.20880 3.03900
v -0.81100 1.13320 3.03900
v -0.81200 -1.01980 3.54800
v -0.81200 0.94420 3.54800
v -0.81200 -0.94880 3.56200
v -0.81200 0.87320 3.56200
v -0.81200 -0.79080 3.58400
v -0.81200 0.71420 3.58400
v -0.81200 -0.45780 3.65000
v -0.81200 0.38220 3.65000
v -0.81200 -0.03780 3.69500
v -0.88200 -1.02580 3.94000
v -0.89600 -0.89680 3.96000
v -0.89600 -0.74980 3.96000
v -0.89600 -0.60980 3.96000
v -0.89600 -0.45280 3.96000
v -0.89600 -0.25580 3.96000
v -0.89600 -0.03780 3.96000
v -0.89600 0.17920 3.96000
v -0.89600 0.37720 3.96000
v -0.89600 0.53320 3.96000
v -0.89600 0.67320 3.96000
v -0.89600 0.82120 3.96000
v -0.89700 0.94320 3.95100
v -0.90200 1.04720 3.88900
l 1 2
l 3 5
l 4 48
l 11 13
l 19 59
l 19 60
l 48 70
l 54 62
l 55 63
l 59 92
l 60 93
l 62 67
l 63 68
l 65 87
l 67 72
l 68 73
l 75 104
l 76 197
l 77 197
l 78 195
l 79 95
l 82 98
l 84 205
l 88 138
l 89 222
l 90 91
l 91 94
l 94 99
l 95 100
l 98 103
l 100 117
l 103 120
l 105 115
l 108 113
l 109 111
l 109 113
l 109 114
l 110 121
l 111 123
l 113 122
l 114 123
l 115 127
l 116 171
l 121 131
l 122 132
l 123 129
l 123 133
l 124 137
l 125 140
l 127 134
l 128 172
l 137 142
l 138 173
l 139 177
l 140 144
l 142 143
l 145 207
l 160 223
l 160 225
l 161 224
l 162 225
l 163 198
l 164 232
l 165 200
l 167 233
l 168 199
l 171 231
l 172 226
l 176 229
l 177 228
l 177 229
l 177 230
l 178 228
l 179 181
l 180 194
l 182 183
l 184 185
l 186 187
l 188 189
l 190 191
l 192 193
l 199 234
l 199 235
l 200 254
l 203 208
l 204 221
l 209 210
l 211 212
l 213 214
l 215 216
l 217 218
l 219 220
l 236 238
l 237 239
l 238 240
l 239 241
l 240 242
l 241 242
l 243 245
l 244 246
l 245 247
l 246 248
l 247 249
l 248 250
l 249 251
l 250 253
l 251 252
l 252 253
l 256 295
l 257 296
l 258 286
l 259 287
l 260 289
l 263 292
l 264 265
l 266 267
l 268 269
l 270 271
l 274 276
l 275 276
l 277 278
l 279 280
l 286 300
l 287 301
l 289 303
l 292 306
l 293 313
l 294 314
l 295 373
l 296 374
l 300 336
l 301 337
l 303 339
l 306 342
l 307 343
l 308 344
l 310 346
l 311 347
l 313 349
l 314 350
l 325 363
l 326 364
l 327 365
l 328 366
l 329 367
l 330 368
l 331 369
l 332 370
l 336 376
l 337 377
l 339 379
l 342 382
l 343 383
l 344 384
l 345 385
l 348 386
l 349 387
l 350 388
l 363 403
l 364 404
l 365 405
l 366 406
l 367 407
l 368 408
l 369 409
l 370 410
l 376 416
l 377 413
l 389 400
l 389 401
l 417 419
l 418 420
l 419 421
l 420 422
l 421 423
l 422 424
l 425 447
l 426 448
l 431 445
l 434 450
l 437 455
l 438 456
l 441 459
l 442 460
l 447 693
l 448 694
l 451 614
l 464 696
l 471 474
l 480 481
l 481 482
l 483 484
l 484 485
l 486 487
l 487 488
l 543 544
l 544 545
l 546 547
l 547 548
l 549 550
l 550 551
l 552 553
l 553 554
l 555 556
l 556 557
l 558 559
l 559 560
l 561 562
l 562 563
l 564 565
l 565 566
l 567 568
l 568 569
l 570 571
l 571 572
l 573 574
l 574 575
l 576 577
l 577 578
l 579 580
l 580 581
l 582 583
l 583 584
l 585 586
l 586 587
l 588 692
l 590 612
l 593 594
l 594 595
l 596 597
l 597 598
l 599 600
l 600 601
l 602 603
l 603 604
l 605 606
l 606 607
l 608 609
l 609 610
l 614 702
l 619 710
l 620 711
l 621 712
l 622 713
l 623 714
l 624 715
l 625 716
l 626 717
l 627 718
l 628 719
l 629 720
l 640 731
l 641 732
l 642 733
l 643 734
l 644 735
l 645 736
l 646 737
l 647 738
l 648 739
l 649 740
l 650 741
l 651 742
l 657 748
l 658 749
l 659 750
l 660 751
l 661 752
l 662 753
l 668 759
l 669 760
l 670 761
l 671 762
l 672 763
l 673 764
l 674 765
l 675 766
l 676 767
l 677 768
l 678 769
l 679 770
l 681 772
l 682 773
l 685 776
l 686 777
l 689 780
l 690 781
l 692 706
l 693 985
l 694 986
l 696 785
l 710 794
l 711 795
l 712 796
l 713 797
l 714 798
l 715 799
l 716 800
l 717 801
l 718 802
l 719 803
l 720 804
l 731 815
l 732 816
l 733 817
l 734 818
l 735 819
l 736 820
l 737 821
l 738 822
l 739 823
l 740 824
l 741 825
l 742 826
l 748 832
l 749 833
l 750 834
l 751 835
l 752 836
l 753 837
l 759 843
l 760 844
l 761 845
l 762 846
l 763 847
l 764 848
l 765 849
l 766 850
l 767 851
l 768 852
l 769 853
l 770 854
l 772 856
l 773 857
l 776 860
l 777 861
l 780 864
l 781 865
l 783 867
l 867 1015
l 868 869
l 869 870
l 871 872
l 872 873
l 874 875
l 875 876
l 877 878
l 878 879
l 880 881
l 881 882
l 883 884
l 884 885
l 886 887
l 887 888
l 889 890
l 890 891
l 892 893
l 893 894
l 895 896
l 896 897
l 898 899
l 899 900
l 901 902
l 902 903
l 904 905
l 905 906
l 907 908
l 908 909
l 910 911
l 911 912
l 913 914
l 914 915
l 916 917
l 917 918
l 919 920
l 920 921
l 922 923
l 923 924
l 925 926
l 926 927
l 928 929
l 929 930
l 931 932
l 932 933
l 934 935
l 935 936
l 937 938
l 938 939
l 985 987
l 986 988
l 987 989
l 988 990
l 989 991
l 990 992
l 995 997
l 996 998
l 997 999
l 998 1000
l 999 1001
l 1000 1001
l 1002 1003
l 1003 1004
l 1004 1005
l 1005 1006
l 1006 1007
l 1007 1008
l 1008 1009
l 1009 1010
l 1010 1011
l 1011 1012
l 1012 1013
l 1013 1014
l 6 7
l 8 9
l 9 18
l 10 14
l 11 14
l 12 15
l 13 15
l 13 16
l 14 16
l 14 17
l 15 16
l 16 17
l 20 60
l 21 22
l 22 24
l 23 26
l 25 27
l 26 27
l 26 30
l 26 32
l 26 33
l 27 32
l 28 49
l 29 50
l 30 32
l 31 34
l 35 47
l 36 46
l 37 47
l 38 40
l 39 45
l 41 42
l 42 43
l 44 45
l 49 51
l 50 52
l 51 57
l 52 58
l 53 61
l 56 64
l 61 66
l 64 69
l 66 71
l 69 74
l 80 96
l 81 97
l 83 196
l 85 205
l 86 205
l 96 101
l 97 102
l 101 118
l 102 119
l 106 110
l 107 110
l 107 112
l 112 121
l 121 130
l 126 141
l 135 174
l 136 175
l 141 150
l 146 148
l 147 149
l 148 151
l 149 152
l 151 153
l 152 154
l 153 155
l 154 156
l 155 157
l 156 159
l 157 158
l 158 159
l 166 202
l 169 199
l 170 206
l 174 227
l 175 228
l 201 255
l 202 255
l 261 290
l 262 291
l 272 273
l 281 282
l 283 284
l 285 299
l 288 302
l 290 304
l 291 305
l 297 333
l 298 334
l 299 335
l 302 338
l 304 340
l 305 341
l 309 345
l 312 348
l 315 362
l 316 352
l 317 354
l 318 355
l 319 356
l 320 357
l 321 358
l 322 359
l 323 360
l 324 361
l 333 371
l 334 372
l 340 380
l 341 381
l 351 390
l 353 391
l 354 392
l 355 393
l 356 394
l 357 395
l 358 396
l 359 397
l 360 398
l 361 399
l 362 402
l 371 411
l 372 412
l 375 415
l 378 414
l 427 462
l 428 463
l 429 433
l 430 435
l 431 444
l 432 446
l 433 449
l 436 454
l 439 457
l 440 458
l 443 461
l 444 452
l 446 453
l 462 704
l 463 705
l 465 697
l 466 698
l 467 699
l 468 700
l 469 701
l 470 695
l 472 476
l 473 477
l 474 478
l 475 478
l 475 479
l 476 541
l 477 542
l 479 589
l 489 490
l 490 491
l 492 493
l 493 494
l 495 496
l 496 497
l 498 499
l 499 500
l 501 502
l 502 503
l 504 505
l 505 506
l 507 508
l 508 509
l 510 511
l 511 512
l 513 514
l 514 515
l 516 517
l 517 518
l 519 520
l 520 521
l 522 523
l 523 524
l 525 526
l 526 527
l 527 528
l 528 529
l 529 530
l 530 531
l 532 533
l 533 534
l 535 536
l 536 537
l 538 539
l 539 540
l 541 590
l 542 591
l 589 611
l 592 613
l 615 703
l 616 707
l 617 708
l 618 709
l 630 721
l 631 722
l 632 723
l 633 724
l 634 725
l 635 726
l 636 727
l 637 728
l 638 729
l 639 730
l 652 743
l 653 744
l 654 745
l 655 746
l 656 747
l 663 754
l 664 755
l 665 756
l 666 757
l 667 758
l 680 771
l 683 774
l 684 775
l 687 778
l 688 779
l 691 782
l 695 784
l 697 786
l 698 787
l 699 788
l 700 789
l 701 790
l 704 993
l 705 994
l 707 791
l 708 792
l 709 793
l 721 805
l 722 806
l 723 807
l 724 808
l 725 809
l 726 810
l 727 811
l 728 812
l 729 813
l 730 814
l 743 827
l 744 828
l 745 829
l 746 830
l 747 831
l 754 838
l 755 839
l 756 840
l 757 841
l 758 842
l 771 855
l 774 858
l 775 859
l 778 862
l 779 863
l 782 866
l 940 941
l 941 942
l 943 944
l 944 945
l 946 947
l 947 948
l 949 950
l 950 951
l 952 953
l 953 954
l 955 956
l 956 957
l 958 959
l 959 960
l 961 962
l 962 963
l 964 965
l 965 966
l 967 968
l 968 969
l 970 971
l 971 972
l 973 974
l 974 975
l 976 977
l 977 978
l 979 980
l 980 981
l 982 983
l 983 984
