# feature-edge wireframe (60 derece), ISO 8855, metre
o tractor_chassis_wire
v 1.49300 -0.26680 0.35000
v 1.49300 0.25720 0.35000
v 1.49300 -0.27080 0.35500
v 1.49300 0.26120 0.35500
v 1.49300 -0.27080 0.47600
v 1.49300 0.26120 0.47600
v 1.49300 -0.26680 0.48100
v 1.49300 0.25720 0.48100
v 1.49000 -0.26680 0.35000
v 1.49000 0.25720 0.35000
v 1.49000 -0.27080 0.35500
v 1.49000 0.26120 0.35500
v 1.49000 -0.27080 0.47600
v 1.49000 0.26120 0.47600
v 1.49000 -0.26680 0.48100
v 1.49000 0.25720 0.48100
v 1.48900 -0.26980 0.35000
v 1.48900 0.26020 0.35000
v 1.48900 -0.27080 0.35200
v 1.48900 0.26020 0.35200
v 1.48900 0.26120 0.35200
v 1.48900 -0.27080 0.48000
v 1.48900 0.26020 0.48000
v 1.48900 0.26120 0.48000
v 1.48900 -0.26980 0.48100
v 1.48900 0.26020 0.48100
v 1.46000 -0.26980 0.35000
v 1.46000 0.26020 0.35000
v 1.46000 -0.27080 0.35200
v 1.46000 0.26020 0.35200
v 1.46000 0.26120 0.35200
v 1.46000 -0.27080 0.48000
v 1.46000 0.26020 0.48000
v 1.46000 0.26120 0.48000
v 1.46000 -0.26980 0.48100
v 1.46000 0.26020 0.48100
v 1.44000 -0.17880 1.55300
v 1.44000 0.10120 1.55300
v 1.43600 -0.31680 1.55300
v 1.43600 0.23920 1.55300
v 1.43400 -0.03580 0.46200
v 1.43200 -0.45680 1.55300
v 1.43200 0.37920 1.55300
v 1.43100 -0.26980 0.46200
v 1.43100 0.19720 0.46200
v 1.43100 -0.50280 0.88100
v 1.43100 0.42220 0.88100
v 1.43100 -0.50280 0.90300
v 1.43100 0.42220 0.90300
v 1.43000 -0.52080 0.86100
v 1.43000 0.44320 0.86100
v 1.43000 -0.52580 0.88100
v 1.43000 0.44720 0.88100
v 1.43000 -0.30480 0.95500
v 1.43000 0.22420 0.95500
v 1.42900 -0.03980 0.95400
v 1.42800 -0.30380 0.88100
v 1.42800 0.22320 0.88100
v 1.42800 -0.30380 0.90300
v 1.42800 0.22320 0.90300
v 1.42700 -0.44780 0.46200
v 1.42700 0.37520 0.46200
v 1.42700 -0.31280 0.86100
v 1.42700 0.23420 0.86100
v 1.42700 -0.31480 0.88100
v 1.42700 0.23720 0.88100
v 1.42700 -0.10680 0.99900
v 1.42700 0.02620 0.99900
v 1.42700 -0.30580 1.00000
v 1.42700 0.22520 1.00000
v 1.42600 -0.10980 0.73300
v 1.42600 0.02920 0.73300
v 1.42600 -0.03980 0.88100
v 1.42500 -0.03880 0.86100
v 1.42500 -0.50280 0.88100
v 1.42500 -0.03880 0.88100
v 1.42500 0.42220 0.88100
v 1.42500 -0.50280 0.88400
v 1.42500 0.42220 0.88400
v 1.42400 -0.03880 0.75100
v 1.42400 -0.03880 0.76500
v 1.42300 -0.29780 0.67400
v 1.42300 0.21720 0.67400
v 1.42300 -0.29780 0.73300
v 1.42300 0.21720 0.73300
v 1.42300 -0.29780 0.74800
v 1.42300 0.21720 0.74800
v 1.42300 -0.50280 0.88100
v 1.42300 0.42220 0.88100
v 1.42300 -0.03880 1.07400
v 1.42300 -0.35280 1.09400
v 1.42300 -0.03880 1.09400
v 1.42300 0.27520 1.09400
v 1.42200 -0.29780 0.73300
v 1.42200 0.21720 0.73300
v 1.42200 -0.38380 0.76400
v 1.42200 0.30620 0.76400
v 1.42200 -0.30380 0.88100
v 1.42200 0.22320 0.88100
v 1.42200 -0.30380 0.88400
v 1.42200 0.22320 0.88400
v 1.42200 -0.73580 1.07400
v 1.42200 -0.60380 1.07400
v 1.42200 -0.35080 1.07400
v 1.42200 0.27320 1.07400
v 1.42200 0.52520 1.07400
v 1.42200 0.65820 1.07400
v 1.42200 -0.73980 1.09400
v 1.42200 -0.60680 1.09400
v 1.42200 0.52920 1.09400
v 1.42200 0.66220 1.09400
v 1.42100 -0.29780 0.67100
v 1.42100 0.21720 0.67100
v 1.42100 -0.38180 0.75000
v 1.42100 0.30420 0.75000
v 1.42000 -0.48580 0.74700
v 1.42000 0.40520 0.74700
v 1.42000 -0.10980 0.75000
v 1.42000 0.02920 0.75000
v 1.42000 -0.10980 0.75100
v 1.42000 0.02920 0.75100
v 1.42000 -0.30380 0.88100
v 1.42000 -0.03980 0.88100
v 1.42000 0.22320 0.88100
v 1.41900 -0.48580 0.67400
v 1.41900 0.40520 0.67400
v 1.41900 -0.48580 0.73300
v 1.41900 0.40520 0.73300
v 1.41900 -0.10980 0.74800
v 1.41900 0.02920 0.74800
v 1.41800 -0.03580 0.33100
v 1.41800 -0.03580 0.33200
v 1.41800 -0.27380 0.46400
v 1.41800 0.19620 0.46400
v 1.41800 -0.48580 0.67100
v 1.41800 0.40520 0.67100
v 1.41800 -0.64080 0.74900
v 1.41800 -0.29880 0.74900
v 1.41800 0.21920 0.74900
v 1.41800 0.56220 0.74900
v 1.41800 -0.64380 0.76300
v 1.41800 0.56520 0.76300
v 1.41800 -0.03980 0.88100
v 1.41800 -0.30880 1.07400
v 1.41800 -0.10980 1.07400
v 1.41800 0.02920 1.07400
v 1.41800 0.22820 1.07400
v 1.41800 -0.18680 1.52400
v 1.41800 0.10920 1.52400
v 1.41700 -0.10480 0.55700
v 1.41700 0.02420 0.55700
v 1.41700 -0.10380 0.57600
v 1.41700 0.02320 0.57600
v 1.41700 -0.29880 0.74700
v 1.41700 0.21820 0.74700
v 1.41700 -0.29980 0.75000
v 1.41700 0.21920 0.75000
v 1.41700 -0.50280 0.88100
v 1.41700 0.42220 0.88100
v 1.41700 -0.50280 0.90400
v 1.41700 0.42220 0.90400
v 1.41700 -0.30780 1.07200
v 1.41700 -0.10880 1.07200
v 1.41700 0.02820 1.07200
v 1.41700 0.22720 1.07200
v 1.41700 -0.50780 1.07300
v 1.41700 0.42720 1.07300
v 1.41500 -0.26080 0.33100
v 1.41500 0.18820 0.33100
v 1.41500 -0.26080 0.33200
v 1.41500 0.18820 0.33200
v 1.41500 -0.48880 0.74800
v 1.41500 0.40820 0.74800
v 1.41400 -0.45280 0.46300
v 1.41400 0.37520 0.46300
v 1.41400 -0.30380 0.88100
v 1.41400 0.22320 0.88100
v 1.41400 -0.30380 0.90400
v 1.41400 0.22320 0.90400
v 1.41400 -0.32580 1.52400
v 1.41400 0.24820 1.52400
v 1.41300 -0.29180 0.55700
v 1.41300 0.21120 0.55700
v 1.41300 -0.29080 0.57600
v 1.41300 0.21020 0.57600
v 1.41300 -0.03980 0.88100
v 1.41200 -0.43180 0.33100
v 1.41200 0.35920 0.33100
v 1.41200 -0.43280 0.33200
v 1.41200 0.36020 0.33200
v 1.41200 -0.11080 0.55800
v 1.41200 0.03020 0.55800
v 1.41200 -0.03980 0.90400
v 1.41100 -0.10980 0.56000
v 1.41100 0.02920 0.56000
v 1.41000 -0.46680 1.52400
v 1.41000 0.38920 1.52400
v 1.40800 -0.29580 0.55800
v 1.40800 0.21520 0.55800
v 1.40800 -0.03880 0.56100
v 1.40700 -0.29480 0.56000
v 1.40700 0.21420 0.56000
v 1.40500 -0.27380 0.56100
v 1.40500 0.19620 0.56100
v 1.40500 -0.50580 1.05400
v 1.40500 0.42520 1.05400
v 1.40400 -0.03880 0.46300
v 1.40400 -0.10380 0.57600
v 1.40400 0.02320 0.57600
v 1.40400 -0.37080 0.88400
v 1.40400 -0.34480 0.88400
v 1.40400 -0.07080 0.88400
v 1.40400 -0.04580 0.88400
v 1.40400 0.22820 0.88400
v 1.40400 0.25420 0.88400
v 1.40400 -0.30580 1.05300
v 1.40400 0.22520 1.05300
v 1.40400 -0.37080 1.06600
v 1.40400 -0.34480 1.06600
v 1.40400 -0.07080 1.06600
v 1.40400 -0.04580 1.06600
v 1.40400 0.22820 1.06600
v 1.40400 0.25420 1.06600
v 1.40400 -0.30580 1.07200
v 1.40400 0.22520 1.07200
v 1.40400 -0.50580 1.07300
v 1.40400 0.42520 1.07300
v 1.40300 -0.10380 0.55700
v 1.40300 0.02420 0.55700
v 1.40300 -0.47980 0.55800
v 1.40300 0.39920 0.55800
v 1.40300 -0.10680 1.05200
v 1.40300 0.02620 1.05200
v 1.40300 -0.10680 1.07100
v 1.40300 0.02620 1.07100
v 1.40200 -0.47980 0.56000
v 1.40200 0.39920 0.56000
v 1.40100 -0.20980 0.46300
v 1.40100 0.13220 0.46300
v 1.40100 -0.03880 0.51200
v 1.40100 -0.45380 0.56100
v 1.40100 0.37620 0.56100
v 1.40100 -0.10980 0.73300
v 1.40100 0.02920 0.73300
v 1.40100 -0.10980 0.74900
v 1.40100 0.02920 0.74900
v 1.40100 -0.18080 1.64700
v 1.40100 0.10320 1.64700
v 1.39900 -0.03880 0.46300
v 1.39900 -0.29080 0.55700
v 1.39900 0.21120 0.55700
v 1.39900 -0.29080 0.57600
v 1.39900 0.21020 0.57600
v 1.39800 -0.27380 0.51200
v 1.39800 0.19620 0.51200
v 1.39800 -0.29780 0.73200
v 1.39800 0.21720 0.73200
v 1.39800 -0.29780 0.74900
v 1.39800 0.21720 0.74900
v 1.39700 -0.31880 1.64700
v 1.39700 0.24120 1.64700
v 1.39600 -0.18680 0.46300
v 1.39600 0.10820 0.46300
v 1.39500 -0.47880 0.55600
v 1.39500 0.39820 0.55600
v 1.39500 -0.47880 0.57600
v 1.39500 0.39820 0.57600
v 1.39500 -0.48580 0.74800
v 1.39500 0.40520 0.74800
v 1.39400 -0.03580 0.24900
v 1.39400 -0.45280 0.51200
v 1.39400 0.37520 0.51200
v 1.39400 -0.48580 0.73200
v 1.39400 0.40520 0.73200
v 1.39300 -0.50280 0.88100
v 1.39300 0.42220 0.88100
v 1.39300 -0.50280 0.88500
v 1.39300 0.42220 0.88500
v 1.39300 -0.45780 1.64700
v 1.39300 0.38020 1.64700
v 1.39200 -0.23080 0.24900
v 1.39200 0.15820 0.24900
v 1.39100 -0.32180 0.46400
v 1.39100 0.24420 0.46400
v 1.39000 -0.37980 0.24900
v 1.39000 0.30720 0.24900
v 1.39000 -0.30380 0.88100
v 1.39000 0.22320 0.88100
v 1.39000 -0.30380 0.88500
v 1.39000 0.22320 0.88500
v 1.39000 -0.50380 0.95200
v 1.39000 0.42320 0.95200
v 1.39000 -0.50480 0.96000
v 1.39000 0.42420 0.96000
v 1.38900 -0.30480 0.95100
v 1.38900 0.22420 0.95100
v 1.38800 -0.10980 0.74800
v 1.38800 0.02920 0.74800
v 1.38800 -0.10980 0.75200
v 1.38800 0.02920 0.75200
v 1.38800 -0.03980 0.88100
v 1.38800 -0.03980 0.88500
v 1.38800 -0.30480 0.95900
v 1.38800 0.22420 0.95900
v 1.38800 -0.50580 0.99400
v 1.38800 0.42520 0.99400
v 1.38800 -0.50580 1.00100
v 1.38800 0.42520 1.00100
v 1.38700 -0.03980 0.95100
v 1.38700 -0.03980 0.95800
v 1.38700 -0.10680 0.99200
v 1.38700 0.02620 0.99200
v 1.38700 -0.30580 0.99300
v 1.38700 0.22520 0.99300
v 1.38700 -0.10680 0.99900
v 1.38700 0.02620 0.99900
v 1.38700 -0.30580 1.00000
v 1.38700 0.22520 1.00000
v 1.38600 -0.29980 0.75100
v 1.38600 0.21920 0.75100
v 1.38600 -0.30780 1.07200
v 1.38600 -0.10780 1.07200
v 1.38600 0.02820 1.07200
v 1.38600 0.22720 1.07200
v 1.38600 -0.30880 1.07600
v 1.38600 -0.10980 1.07600
v 1.38600 0.02920 1.07600
v 1.38600 0.22820 1.07600
v 1.38500 -0.10980 0.67100
v 1.38500 0.02920 0.67100
v 1.38500 -0.10980 0.67800
v 1.38500 0.02920 0.67800
v 1.38500 -0.29880 0.74700
v 1.38500 0.21820 0.74700
v 1.38500 -0.50780 1.07200
v 1.38500 0.42720 1.07200
v 1.38500 -0.50780 1.07600
v 1.38500 0.42720 1.07600
v 1.38300 -0.10980 0.63000
v 1.38300 0.02920 0.63000
v 1.38300 -0.10980 0.63700
v 1.38300 0.02920 0.63700
v 1.38300 -0.48880 0.74600
v 1.38300 0.40820 0.74600
v 1.38300 -0.48880 0.75000
v 1.38300 0.40820 0.75000
v 1.38200 -0.29780 0.67800
v 1.38200 0.21720 0.67800
v 1.38100 -0.29780 0.67100
v 1.38100 0.21720 0.67100
v 1.38000 -0.11080 0.55700
v 1.38000 0.03020 0.55700
v 1.38000 -0.10980 0.56000
v 1.38000 0.02920 0.56000
v 1.37900 -0.37080 0.56500
v 1.37900 -0.34480 0.56500
v 1.37900 -0.07080 0.56500
v 1.37900 -0.04580 0.56500
v 1.37900 0.22820 0.56500
v 1.37900 0.25420 0.56500
v 1.37900 -0.29680 0.62900
v 1.37900 0.21620 0.62900
v 1.37900 -0.29680 0.63600
v 1.37900 0.21620 0.63600
v 1.37900 -0.37080 0.74700
v 1.37900 -0.34480 0.74700
v 1.37900 -0.07080 0.74700
v 1.37900 -0.04580 0.74700
v 1.37900 0.22820 0.74700
v 1.37900 0.25420 0.74700
v 1.37800 -0.48580 0.67100
v 1.37800 0.40520 0.67100
v 1.37800 -0.48580 0.67800
v 1.37800 0.40520 0.67800
v 1.37800 -0.29080 0.69100
v 1.37800 0.29920 0.69100
v 1.37600 -0.48380 0.63600
v 1.37600 0.40320 0.63600
v 1.37500 -0.29580 0.55700
v 1.37500 0.21520 0.55700
v 1.37500 -0.29480 0.56000
v 1.37500 0.21420 0.56000
v 1.37500 -0.48280 0.62900
v 1.37500 0.40220 0.62900
v 1.37400 0.00420 0.27800
v 1.37400 -0.18180 1.27800
v 1.37400 0.10420 1.27800
v 1.37300 -0.27480 0.27800
v 1.37300 0.28320 0.27800
v 1.37200 0.00420 0.30000
v 1.37100 -0.27480 0.30000
v 1.37100 0.28320 0.30000
v 1.37100 -0.47980 0.55600
v 1.37100 0.39920 0.55600
v 1.37100 -0.47980 0.56000
v 1.37100 0.39920 0.56000
v 1.37000 -0.32580 1.27800
v 1.37000 0.24820 1.27800
v 1.36900 -0.49780 0.27700
v 1.36900 0.50620 0.27700
v 1.36600 -0.50080 0.29900
v 1.36600 0.50920 0.29900
v 1.36600 -0.46980 1.27800
v 1.36600 0.39220 1.27800
v 1.36400 -0.43880 0.67400
v 1.36400 0.44720 0.67400
v 1.36200 -0.18180 1.30000
v 1.36200 0.10420 1.30000
v 1.36000 -0.62080 0.29800
v 1.36000 0.62920 0.29800
v 1.35800 -0.32580 1.30000
v 1.35800 0.24820 1.30000
v 1.35400 -0.46980 1.30000
v 1.35400 0.39220 1.30000
v 1.34700 -0.72480 0.29700
v 1.34700 0.73320 0.29700
v 1.34500 -0.64880 0.66400
v 1.34500 0.65720 0.66400
v 1.33700 -0.76380 0.27600
v 1.33700 0.77220 0.27600
v 1.32200 -0.90380 0.29800
v 1.32200 0.91320 0.29800
v 1.32000 -0.90480 0.67900
v 1.32000 0.91320 0.67900
v 1.30300 -0.90280 0.27700
v 1.30300 0.91120 0.27700
v 1.30000 -1.06680 0.29700
v 1.30000 1.07520 0.29700
v 1.27800 -1.11880 0.70600
v 1.27800 1.12720 0.70600
v 1.27400 -1.04380 0.27800
v 1.27400 1.05220 0.27800
v 1.26100 -0.31880 0.71300
v 1.26100 0.32720 0.71300
v 1.25500 -0.57780 0.70800
v 1.25500 0.58620 0.70800
v 1.25100 -0.70880 0.69500
v 1.25100 0.71720 0.69500
v 1.24600 -0.80680 0.68700
v 1.24600 0.81520 0.68700
v 1.23600 -0.96680 0.69800
v 1.23600 0.97520 0.69800
v 1.15100 -1.31980 0.40500
v 1.15100 -1.11580 0.40500
v 1.15100 1.05420 0.40500
v 1.15100 1.25820 0.40500
v 1.15100 -1.31980 0.40600
v 1.15100 -1.11580 0.40600
v 1.15100 1.05420 0.40600
v 1.15100 1.25820 0.40600
v 1.15100 -1.31980 0.41500
v 1.15100 -1.11580 0.41500
v 1.15100 1.05420 0.41500
v 1.15100 1.25820 0.41500
v 1.08700 -0.78180 0.72700
v 1.08700 0.79020 0.72700
v 1.08200 -1.24180 0.24900
v 1.08200 1.16920 0.24900
v 1.07300 1.25520 0.33000
v 1.07300 -1.31580 0.33900
v 1.07300 1.24320 0.33900
v 0.97600 -1.22680 0.77200
v 0.97600 1.23520 0.77200
v 0.91600 -0.78180 0.76900
v 0.91600 0.79020 0.76900
v 0.88600 -1.24180 0.24900
v 0.88600 1.16920 0.24900
v 0.87700 1.25520 0.33000
v 0.87700 -1.31580 0.33900
v 0.87700 1.24320 0.33900
v 0.83100 -1.22680 0.79800
v 0.83100 1.23520 0.79800
v 0.74600 -0.78180 0.81000
v 0.74600 0.79020 0.81000
v 0.71200 -1.31680 0.40500
v 0.71200 -1.11580 0.40500
v 0.71200 1.05420 0.40500
v 0.71200 1.25520 0.40500
v 0.71200 -1.31680 0.41500
v 0.71200 -1.11580 0.41500
v 0.71200 1.05420 0.41500
v 0.71200 1.25520 0.41500
v 0.71100 -1.31680 0.40600
v 0.71100 -1.11580 0.40600
v 0.71100 1.05420 0.40600
v 0.71100 1.25520 0.40600
v 0.71100 -1.31680 0.41500
v 0.71100 -1.11580 0.41500
v 0.71100 1.05420 0.41500
v 0.71100 1.25520 0.41500
v 0.69500 -1.22680 0.82700
v 0.69500 1.23620 0.82700
v 0.62700 -1.24180 0.24900
v 0.62700 1.16920 0.24900
v 0.61800 1.25520 0.33000
v 0.61700 -1.31580 0.33900
v 0.61700 1.24320 0.33900
v 0.57600 -1.35080 1.05200
v 0.57600 1.27620 1.05200
v 0.49500 -1.35180 1.14100
v 0.49500 1.27720 1.14100
v 0.49400 -1.27280 1.14000
v 0.49400 1.19820 1.14000
v 0.49200 -1.27280 1.13700
v 0.49200 1.19820 1.13700
v 0.39700 -0.72580 0.27600
v 0.39700 -0.53180 0.27600
v 0.39700 0.00420 0.27600
v 0.39700 0.54020 0.27600
v 0.39700 0.73520 0.27600
v 0.39700 -0.74980 0.55500
v 0.39700 0.75920 0.55500
v 0.39700 -0.74980 0.70000
v 0.39700 0.75920 0.70000
v 0.39100 -1.35280 1.20400
v 0.39100 1.27820 1.20400
v 0.39000 -0.74980 0.83500
v 0.39000 0.75920 0.83500
v 0.39000 -1.27380 1.20300
v 0.39000 1.20020 1.20300
v 0.38900 -1.27380 1.20000
v 0.38900 1.20020 1.20000
v 0.27800 -1.35380 1.24700
v 0.27800 1.28020 1.24700
v 0.27600 -1.27580 1.24300
v 0.27600 1.20120 1.24300
v -0.49600 -1.32280 1.07200
v -0.49600 -1.19880 1.07200
v -0.58300 -1.37580 0.91200
v -0.58300 1.30220 0.91200
v -0.61200 -1.37780 0.78700
v -0.61200 1.30420 0.78700
v -0.62300 -1.37880 0.55600
v -0.62300 1.30420 0.55600
v -0.62500 -1.37880 0.34000
v -0.62500 1.30520 0.34000
v -0.67400 -0.72580 0.27600
v -0.67400 -0.53180 0.27600
v -0.67400 0.00420 0.27600
v -0.67400 0.54020 0.27600
v -0.67400 0.73520 0.27600
v -0.67700 -1.31280 0.92500
v -0.67700 1.23820 0.92500
v -0.67700 -1.39080 0.92700
v -0.67700 1.31720 0.92700
v -0.68100 -1.31280 0.92700
v -0.68100 1.23820 0.92700
v -0.70800 -1.31480 0.79700
v -0.70800 1.24020 0.79700
v -0.70800 -1.39280 0.79800
v -0.70800 1.31920 0.79800
v -0.71200 -1.31480 0.79800
v -0.71200 1.24020 0.79800
v -0.72000 -1.31580 0.56100
v -0.72000 1.24120 0.56100
v -0.72000 1.32020 0.56200
v -0.72200 -1.31580 0.34200
v -0.72200 1.24120 0.34200
v -0.72400 -1.31580 0.56200
v -0.72400 1.24120 0.56200
v -0.72500 -1.31580 0.34200
v -0.72500 1.24120 0.34200
v -0.72800 -0.30180 0.78500
v -0.72800 0.29920 0.78500
v -0.72800 -0.37380 0.95000
v -0.72800 0.37220 0.95000
v -0.72800 -0.44580 1.10200
v -0.72800 0.44420 1.10200
v -0.72800 -0.47380 1.22800
v -0.72800 0.47220 1.22800
v -0.72800 -0.47580 1.40800
v -0.72800 0.47420 1.40800
v -0.72800 -0.47580 1.64600
v -0.72800 0.47420 1.64600
v -0.76000 -1.31780 0.25700
v -0.76000 1.26820 0.25700
v -0.79300 0.37720 1.08100
v -0.79800 0.38120 1.07100
v -0.81500 -0.34280 1.06000
v -0.82100 -0.34880 1.05000
v -0.83100 -0.68080 0.64900
v -0.83100 0.67920 0.64900
v -0.83700 -0.86580 0.60900
v -0.83700 0.86420 0.60900
v -0.83700 -0.86580 0.64900
v -0.83700 0.86420 0.64900
v -0.84200 -1.05080 0.60900
v -0.84200 1.04920 0.60900
v -0.86900 0.49520 1.08100
v -0.87400 0.50020 1.07100
v -0.87400 -0.50180 1.09700
v -0.87900 -0.50680 1.08800
v -0.90000 -0.14780 1.64800
v -0.90000 -0.00080 1.64800
v -0.90000 0.14620 1.64800
v -0.90400 -1.31480 0.27400
v -0.90400 1.26620 0.27400
v -1.04500 -1.31480 0.29100
v -1.04500 1.26620 0.29100
v -1.05100 -0.67580 0.60900
v -1.05100 0.67320 0.60900
v -1.05100 -0.67580 0.64900
v -1.05100 0.67320 0.64900
v -1.05600 -0.86080 0.60900
v -1.05600 0.85820 0.60900
v -1.05600 -0.86080 0.64900
v -1.05600 0.85820 0.64900
v -1.06200 -1.04480 0.60900
v -1.06200 1.04320 0.60900
v -1.06200 -1.04480 0.64900
v -1.06200 1.04320 0.64900
v -1.09200 -1.06780 0.29900
v -1.09200 -0.91780 0.29900
v -1.09200 -0.76780 0.29900
v -1.09200 -0.49780 0.29900
v -1.09200 -0.27480 0.29900
v -1.09200 0.00420 0.29900
v -1.09200 0.28320 0.29900
v -1.09200 0.50720 0.29900
v -1.09200 0.77720 0.29900
v -1.09200 0.92620 0.29900
v -1.09200 1.07720 0.29900
v -1.09200 -1.06780 0.32600
v -1.09200 -0.91780 0.32600
v -1.09200 -0.76780 0.32600
v -1.09200 -0.49780 0.32600
v -1.09200 -0.27480 0.32600
v -1.09200 0.00420 0.32600
v -1.09200 0.28320 0.32600
v -1.09200 0.50720 0.32600
v -1.09200 0.77720 0.32600
v -1.09200 0.92620 0.32600
v -1.09200 1.07720 0.32600
v -1.16400 -0.49880 0.60500
v -1.16400 0.49620 0.60500
v -1.16400 -0.48680 0.61700
v -1.16400 0.48520 0.61700
v -1.16400 -0.38080 0.90200
v -1.16400 0.37920 0.90200
v -1.16400 -0.49280 0.90800
v -1.16400 0.49120 0.90800
v -1.23000 -0.32180 0.95900
v -1.23000 -0.20080 0.95900
v -1.23000 -0.00580 0.95900
v -1.23000 0.18920 0.95900
v -1.23000 0.31020 0.95900
v -1.24200 -0.32180 0.95500
v -1.24200 -0.20080 0.95500
v -1.24200 -0.00580 0.95500
v -1.24200 0.18920 0.95500
v -1.24200 0.31020 0.95500
v -1.24300 -0.32180 0.91100
v -1.24300 -0.20080 0.91100
v -1.24300 -0.00580 0.91100
v -1.24300 0.18920 0.91100
v -1.24300 0.31020 0.91100
v -1.24800 -0.32180 0.95900
v -1.24800 -0.20080 0.95900
v -1.24800 -0.00580 0.95900
v -1.24800 0.18920 0.95900
v -1.24800 0.31020 0.95900
v -1.24900 -0.32180 0.93100
v -1.24900 -0.20080 0.93100
v -1.24900 -0.00580 0.93100
v -1.24900 0.18920 0.93100
v -1.24900 0.31020 0.93100
v -1.31100 -0.49580 0.60500
v -1.31100 0.49420 0.60500
v -1.31100 -0.48380 0.61700
v -1.31100 0.48220 0.61700
v -1.31100 -0.37780 0.90200
v -1.31100 0.37620 0.90200
v -1.31100 -0.48980 0.90800
v -1.31100 0.48820 0.90800
v -1.40800 -0.32180 0.92300
v -1.40800 -0.20080 0.92300
v -1.40800 -0.00580 0.92300
v -1.40800 0.18920 0.92300
v -1.40800 0.31020 0.92300
v -1.40800 -0.32180 0.93000
v -1.40800 -0.20080 0.93000
v -1.40800 -0.00580 0.93000
v -1.40800 0.18920 0.93000
v -1.40800 0.31020 0.93000
v -1.44300 -0.32180 0.92300
v -1.44300 -0.20080 0.92300
v -1.44300 -0.00580 0.92300
v -1.44300 0.18920 0.92300
v -1.44300 0.31020 0.92300
v -1.44300 -0.32180 0.93000
v -1.44300 -0.20080 0.93000
v -1.44300 -0.00580 0.93000
v -1.44300 0.18920 0.93000
v -1.44300 0.31020 0.93000
v -1.52800 -0.49080 0.60500
v -1.52800 0.48920 0.60500
v -1.52800 -0.47980 0.61700
v -1.52800 0.47820 0.61700
v -1.52800 -0.37380 0.90200
v -1.52800 0.37220 0.90200
v -1.52800 -0.48580 0.90800
v -1.52800 0.48420 0.90800
v -1.59100 -0.32180 0.92500
v -1.59100 -0.20080 0.92500
v -1.59100 -0.00580 0.92500
v -1.59100 0.18920 0.92500
v -1.59100 0.31020 0.92500
v -1.59100 -0.32180 0.93000
v -1.59100 -0.20080 0.93000
v -1.59100 -0.00580 0.93000
v -1.59100 0.18920 0.93000
v -1.59100 0.31020 0.93000
v -1.62700 -0.32180 0.92500
v -1.62700 -0.20080 0.92500
v -1.62700 -0.00580 0.92500
v -1.62700 0.18920 0.92500
v -1.62700 0.31020 0.92500
v -1.62700 -0.32180 0.93000
v -1.62700 -0.20080 0.93000
v -1.62700 -0.00580 0.93000
v -1.62700 0.18920 0.93000
v -1.62700 0.31020 0.93000
v -1.72000 -1.27880 1.02600
v -1.72000 1.20320 1.02600
v -1.72200 -1.31180 0.28000
v -1.72200 1.23620 0.28000
v -1.74500 -0.12380 0.85900
v -1.74500 0.12120 0.85900
v -1.75500 -0.24380 0.85900
v -1.75500 0.24120 0.85900
v -1.79200 -0.32180 0.91100
v -1.79200 -0.20080 0.91100
v -1.79200 -0.00580 0.91100
v -1.79200 0.18920 0.91100
v -1.79200 0.31020 0.91100
v -1.79200 -0.32180 0.92800
v -1.79200 -0.20080 0.92800
v -1.79200 -0.00580 0.92800
v -1.79200 0.18920 0.92800
v -1.79200 0.31020 0.92800
v -1.81500 -0.48580 0.60500
v -1.81500 0.48420 0.60500
v -1.81500 -0.47380 0.61700
v -1.81500 0.47220 0.61700
v -1.81500 -0.36780 0.90200
v -1.81500 0.36620 0.90200
v -1.81500 -0.47980 0.90800
v -1.81500 0.47820 0.90800
v -1.84300 -1.27880 1.02600
v -1.84300 1.20320 1.02600
v -1.84500 -1.31180 0.28000
v -1.84500 1.23620 0.28000
v -1.89900 -0.14680 0.12900
v -1.89900 -0.00080 0.12900
v -1.89900 0.14520 0.12900
v -1.93600 -0.99480 0.15300
v -1.93600 -0.84580 0.15300
v -1.93600 -0.69580 0.15300
v -1.93600 -1.14180 0.30800
v -1.93600 -0.54380 0.30800
v -1.93600 -0.55180 0.30900
v -1.93600 -1.14180 0.49300
v -1.93600 -0.55180 0.49300
v -1.93600 -0.54380 0.49300
v -1.93600 -1.14180 0.67900
v -1.93600 -0.54380 0.67900
v -1.93600 -0.99480 0.84400
v -1.93600 -0.84580 0.84400
v -1.93600 -0.69580 0.84400
v -1.94100 0.70720 0.15300
v -1.94100 0.85020 0.15300
v -1.94100 0.99320 0.15300
v -1.94100 0.55720 0.30800
v -1.94100 1.13920 0.30800
v -1.94100 1.13120 0.30900
v -1.94100 0.55720 0.49300
v -1.94100 1.13120 0.49300
v -1.94100 1.13920 0.49300
v -1.94100 1.13120 0.67800
v -1.94100 0.55720 0.67900
v -1.94100 1.13920 0.67900
v -1.94100 0.70720 0.84400
v -1.94100 0.85020 0.84400
v -1.94100 0.99320 0.84400
v -1.94200 -0.99380 0.15700
v -1.94200 -0.84080 0.15700
v -1.94200 -0.68880 0.15700
v -1.94200 -1.14280 0.30800
v -1.94200 -0.54380 0.30800
v -1.94200 -1.14280 0.49300
v -1.94200 -0.54380 0.49300
v -1.94200 -1.14280 0.67900
v -1.94200 -0.54380 0.67900
v -1.94200 -0.99380 0.84000
v -1.94200 -0.84080 0.84000
v -1.94200 -0.68880 0.84000
v -1.94600 0.55420 0.30800
v -1.94600 0.55420 0.49300
v -1.94600 0.55420 0.67900
v -1.94700 0.70120 0.15500
v -1.94700 0.84820 0.15500
v -1.94700 0.99520 0.15500
v -1.94700 1.14020 0.30700
v -1.94700 1.13620 0.30800
v -1.94700 0.55220 0.49300
v -1.94700 1.13620 0.49300
v -1.94700 1.14020 0.49300
v -1.94700 1.13620 0.67900
v -1.94700 0.55220 0.68000
v -1.94700 1.14020 0.68000
v -1.94700 0.70120 0.84200
v -1.94700 0.84820 0.84200
v -1.94700 0.99520 0.84200
v -1.98600 -0.99380 0.15500
v -1.98600 -0.84080 0.15500
v -1.98600 -0.68880 0.15500
v -1.98600 -1.14480 0.30700
v -1.98600 -1.14080 0.30800
v -1.98600 -1.14480 0.49300
v -1.98600 -1.14080 0.49300
v -1.98600 -1.14080 0.67900
v -1.98600 -1.14480 0.68000
v -1.98600 -0.99380 0.84200
v -1.98600 -0.84080 0.84200
v -1.98600 -0.68880 0.84200
v -1.98700 -0.54380 0.30800
v -1.98700 -0.54380 0.49300
v -1.98700 -0.54380 0.67900
v -1.98900 0.70120 0.15500
v -1.98900 0.84820 0.15500
v -1.98900 0.99520 0.15500
v -1.98900 0.55220 0.30700
v -1.98900 1.14020 0.30700
v -1.98900 1.13620 0.30800
v -1.98900 0.55220 0.49300
v -1.98900 1.13620 0.49300
v -1.98900 1.14020 0.49300
v -1.98900 1.13620 0.67900
v -1.98900 1.14020 0.68000
v -1.98900 0.70120 0.84200
v -1.98900 0.84820 0.84200
v -1.98900 0.99520 0.84200
v -1.99000 0.55420 0.30800
v -1.99000 0.55420 0.49300
v -1.99000 0.55420 0.67900
v -1.99200 -0.99480 0.15300
v -1.99200 -0.84580 0.15300
v -1.99200 -0.69580 0.15300
v -1.99200 -1.14180 0.30800
v -1.99200 -0.54380 0.30800
v -1.99200 -1.14180 0.49300
v -1.99200 -0.55180 0.49300
v -1.99200 -0.54380 0.49300
v -1.99200 -0.55180 0.67800
v -1.99200 -1.14180 0.67900
v -1.99200 -0.54380 0.67900
v -1.99200 -0.99480 0.84400
v -1.99200 -0.84580 0.84400
v -1.99200 -0.69580 0.84400
v -1.99700 0.70720 0.15300
v -1.99700 0.85020 0.15300
v -1.99700 0.99320 0.15300
v -1.99700 0.70820 0.16200
v -1.99700 0.85020 0.16200
v -1.99700 0.99220 0.16200
v -1.99700 0.55720 0.30800
v -1.99700 1.13920 0.30800
v -1.99700 0.56420 0.30900
v -1.99700 1.13120 0.30900
v -1.99700 0.55720 0.49300
v -1.99700 0.56420 0.49300
v -1.99700 1.13120 0.49300
v -1.99700 1.13920 0.49300
v -1.99700 0.56420 0.67800
v -1.99700 1.13120 0.67800
v -1.99700 0.55720 0.67900
v -1.99700 1.13920 0.67900
v -1.99700 0.70820 0.83500
v -1.99700 0.85020 0.83500
v -1.99700 0.99220 0.83500
v -1.99700 0.70720 0.84400
v -1.99700 0.85020 0.84400
v -1.99700 0.99320 0.84400
v -2.06300 -0.14680 0.12900
v -2.06300 -0.00080 0.12900
v -2.06300 0.14520 0.12900
v -2.07800 -0.47980 0.60500
v -2.07800 0.47820 0.60500
v -2.07800 -0.46880 0.61700
v -2.07800 0.46720 0.61700
v -2.07800 -0.36280 0.90200
v -2.07800 0.36120 0.90200
v -2.07800 -0.47480 0.90800
v -2.07800 0.47320 0.90800
v -2.16400 -1.27880 1.02600
v -2.16400 1.20320 1.02600
v -2.16800 -1.31180 0.28000
v -2.16800 1.23620 0.28000
v -2.22400 -0.47780 0.60500
v -2.22400 0.47520 0.60500
v -2.22400 -0.46580 0.61700
v -2.22400 0.46420 0.61700
v -2.22400 -0.35980 0.90200
v -2.22400 0.35820 0.90200
v -2.22400 -0.47180 0.90800
v -2.22400 0.47020 0.90800
v -2.36500 -0.99480 0.15300
v -2.36500 -0.84580 0.15300
v -2.36500 -0.69580 0.15300
v -2.36500 -0.99380 0.16200
v -2.36500 -0.84580 0.16200
v -2.36500 -0.69680 0.16200
v -2.36500 -1.14180 0.30800
v -2.36500 -0.54380 0.30800
v -2.36500 -1.13480 0.30900
v -2.36500 -0.55180 0.30900
v -2.36500 -1.14180 0.49300
v -2.36500 -1.13480 0.49300
v -2.36500 -0.55180 0.49300
v -2.36500 -0.54380 0.49300
v -2.36500 -1.13480 0.67800
v -2.36500 -0.55180 0.67800
v -2.36500 -1.14180 0.67900
v -2.36500 -0.54380 0.67900
v -2.36500 -0.99380 0.83500
v -2.36500 -0.84580 0.83500
v -2.36500 -0.69680 0.83500
v -2.36500 -0.99480 0.84400
v -2.36500 -0.84580 0.84400
v -2.36500 -0.69580 0.84400
v -2.37200 -0.54380 0.30800
v -2.37200 -0.54380 0.49300
v -2.37200 -0.54380 0.67900
v -2.37300 -0.99380 0.15500
v -2.37300 -0.84080 0.15500
v -2.37300 -0.68880 0.15500
v -2.37300 -1.14480 0.30700
v -2.37300 -1.14080 0.30800
v -2.37300 -1.14480 0.49300
v -2.37300 -1.14080 0.49300
v -2.37300 -1.14080 0.67900
v -2.37300 -1.14480 0.68000
v -2.37300 -0.99380 0.84200
v -2.37300 -0.84080 0.84200
v -2.37300 -0.68880 0.84200
v -2.41700 -0.99380 0.15700
v -2.41700 -0.84080 0.15700
v -2.41700 -0.68880 0.15700
v -2.41700 -1.14280 0.30800
v -2.41700 -0.54380 0.30800
v -2.41700 -1.14280 0.49300
v -2.41700 -0.54380 0.49300
v -2.41700 -1.14280 0.67900
v -2.41700 -0.54380 0.67900
v -2.41700 -0.99380 0.84000
v -2.41700 -0.84080 0.84000
v -2.41700 -0.68880 0.84000
v -2.42100 -0.99480 0.15300
v -2.42100 -0.84580 0.15300
v -2.42100 -0.69580 0.15300
v -2.42100 -1.14180 0.30800
v -2.42100 -0.54380 0.30800
v -2.42100 -1.14180 0.49300
v -2.42100 -0.55180 0.49300
v -2.42100 -0.54380 0.49300
v -2.42100 -0.55180 0.67800
v -2.42100 -1.14180 0.67900
v -2.42100 -0.54380 0.67900
v -2.42100 -0.99480 0.84400
v -2.42100 -0.84580 0.84400
v -2.42100 -0.69580 0.84400
v -2.48100 -1.27880 1.02600
v -2.48100 1.20320 1.02600
v -2.48500 0.70720 0.15300
v -2.48500 0.85020 0.15300
v -2.48500 0.99320 0.15300
v -2.48500 0.55720 0.30800
v -2.48500 1.13920 0.30800
v -2.48500 1.13120 0.30900
v -2.48500 0.55720 0.49300
v -2.48500 1.13120 0.49300
v -2.48500 1.13920 0.49300
v -2.48500 1.13120 0.67800
v -2.48500 0.55720 0.67900
v -2.48500 1.13920 0.67900
v -2.48500 0.70720 0.84400
v -2.48500 0.85020 0.84400
v -2.48500 0.99320 0.84400
v -2.48600 -1.31180 0.28000
v -2.48600 1.23620 0.28000
v -2.49100 0.55420 0.30800
v -2.49100 0.55420 0.49300
v -2.49100 0.55420 0.67900
v -2.49200 0.70120 0.15500
v -2.49200 0.84820 0.15500
v -2.49200 0.99520 0.15500
v -2.49200 1.14020 0.30700
v -2.49200 1.13620 0.30800
v -2.49200 0.55220 0.49300
v -2.49200 1.13620 0.49300
v -2.49200 1.14020 0.49300
v -2.49200 1.13620 0.67900
v -2.49200 0.55220 0.68000
v -2.49200 1.14020 0.68000
v -2.49200 0.70120 0.84200
v -2.49200 0.84820 0.84200
v -2.49200 0.99520 0.84200
v -2.53600 0.70120 0.15700
v -2.53600 0.84820 0.15700
v -2.53600 0.99520 0.15700
v -2.53600 0.55420 0.30800
v -2.53600 1.13820 0.30800
v -2.53600 0.55420 0.49300
v -2.53600 1.13820 0.49300
v -2.53600 0.55420 0.67900
v -2.53600 1.13820 0.67900
v -2.53600 0.70120 0.84000
v -2.53600 0.84820 0.84000
v -2.53600 0.99520 0.84000
v -2.54100 0.70720 0.15300
v -2.54100 0.85020 0.15300
v -2.54100 0.99320 0.15300
v -2.54100 0.55720 0.30800
v -2.54100 1.13920 0.30800
v -2.54100 1.13120 0.30900
v -2.54100 0.55720 0.49300
v -2.54100 1.13120 0.49300
v -2.54100 1.13920 0.49300
v -2.54100 1.13120 0.67800
v -2.54100 0.55720 0.67900
v -2.54100 1.13920 0.67900
v -2.54100 0.70720 0.84400
v -2.54100 0.85020 0.84400
v -2.54100 0.99320 0.84400
v -2.58500 -0.47580 0.60500
v -2.58500 0.47420 0.60500
v -2.58500 -0.46480 0.61700
v -2.58500 0.46320 0.61700
v -2.58500 -0.35880 0.90200
v -2.58500 0.35720 0.90200
v -2.58500 -0.47080 0.90800
v -2.58500 0.46920 0.90800
v -2.66000 -0.47080 0.62900
v -2.66000 0.46420 0.62900
v -2.66000 -0.47080 0.65100
v -2.66000 0.46420 0.65100
v -2.66000 -0.47080 0.85200
v -2.66000 0.46420 0.85200
v -2.66000 -0.47080 0.87300
v -2.66000 0.46420 0.87300
v -2.71500 -1.27880 1.02600
v -2.71500 1.20320 1.02600
v -2.72100 -1.31180 0.28000
v -2.72100 1.23620 0.28000
v -2.73200 -0.34280 0.95300
v -2.73200 -0.00380 0.95300
v -2.73200 0.33620 0.95300
v -2.73200 -0.34280 0.96800
v -2.73200 -0.00380 0.96800
v -2.73200 0.33620 0.96800
v -2.76500 -0.24380 0.23300
v -2.76500 0.24120 0.23300
v -2.77600 -0.12380 0.23300
v -2.77600 0.12120 0.23300
v -2.77700 -0.45280 0.66600
v -2.77700 -0.33180 0.66600
v -2.77700 -0.00280 0.66600
v -2.77700 0.32620 0.66600
v -2.77700 0.44820 0.66600
v -2.80800 -0.45780 0.95300
v -2.80800 0.45120 0.95300
v -2.84300 -0.45280 0.66800
v -2.84300 -0.33180 0.66800
v -2.84300 -0.00280 0.66800
v -2.84300 0.32620 0.66800
v -2.84300 0.44820 0.66800
v -2.84300 -0.45280 0.83200
v -2.84300 -0.33180 0.83200
v -2.84300 -0.00280 0.83200
v -2.84300 0.32620 0.83200
v -2.84300 0.44820 0.83200
v -2.85800 -0.12380 0.23300
v -2.85800 0.12120 0.23300
v -2.86900 -0.24380 0.23300
v -2.86900 0.24120 0.23300
v -2.87000 -0.47080 0.62900
v -2.87000 0.46420 0.62900
v -2.87000 -0.47080 0.65100
v -2.87000 0.46420 0.65100
v -2.87000 -0.47080 0.85200
v -2.87000 0.46420 0.85200
v -2.87000 -0.47080 0.87300
v -2.87000 0.46420 0.87300
v -2.87600 -1.27880 1.02600
v -2.87600 1.20320 1.02600
v -2.88200 -1.31180 0.28000
v -2.88200 1.23620 0.28000
v -2.92300 -0.99480 0.15300
v -2.92300 -0.84580 0.15300
v -2.92300 -0.69580 0.15300
v -2.92300 -0.99380 0.16200
v -2.92300 -0.84580 0.16200
v -2.92300 -0.69680 0.16200
v -2.92300 -1.14180 0.30800
v -2.92300 -0.54380 0.30800
v -2.92300 -1.13480 0.30900
v -2.92300 -0.55180 0.30900
v -2.92300 -1.14180 0.49300
v -2.92300 -1.13480 0.49300
v -2.92300 -0.55180 0.49300
v -2.92300 -0.54380 0.49300
v -2.92300 -1.13480 0.67800
v -2.92300 -0.55180 0.67800
v -2.92300 -1.14180 0.67900
v -2.92300 -0.54380 0.67900
v -2.92300 -0.99380 0.83500
v -2.92300 -0.84580 0.83500
v -2.92300 -0.69680 0.83500
v -2.92300 -0.99480 0.84400
v -2.92300 -0.84580 0.84400
v -2.92300 -0.69580 0.84400
v -2.92600 -0.54380 0.30800
v -2.92600 -0.54380 0.49300
v -2.92600 -0.54380 0.67900
v -2.92700 -0.99380 0.15500
v -2.92700 -0.84080 0.15500
v -2.92700 -0.68880 0.15500
v -2.92700 -1.14480 0.30700
v -2.92700 -1.14080 0.30800
v -2.92700 -1.14480 0.49300
v -2.92700 -1.14080 0.49300
v -2.92700 -1.14080 0.67900
v -2.92700 -1.14480 0.68000
v -2.92700 -0.99380 0.84200
v -2.92700 -0.84080 0.84200
v -2.92700 -0.68880 0.84200
v -2.95400 0.70720 0.15300
v -2.95400 0.85020 0.15300
v -2.95400 0.99320 0.15300
v -2.95400 0.55720 0.30800
v -2.95400 1.13920 0.30800
v -2.95400 1.13120 0.30900
v -2.95400 0.55720 0.49300
v -2.95400 1.13120 0.49300
v -2.95400 1.13920 0.49300
v -2.95400 1.13120 0.67800
v -2.95400 0.55720 0.67900
v -2.95400 1.13920 0.67900
v -2.95400 0.70720 0.84400
v -2.95400 0.85020 0.84400
v -2.95400 0.99320 0.84400
v -2.96000 0.55420 0.30800
v -2.96000 0.55420 0.49300
v -2.96000 0.55420 0.67900
v -2.96100 0.70120 0.15500
v -2.96100 0.84820 0.15500
v -2.96100 0.99520 0.15500
v -2.96100 1.14020 0.30700
v -2.96100 1.13620 0.30800
v -2.96100 0.55220 0.49300
v -2.96100 1.13620 0.49300
v -2.96100 1.14020 0.49300
v -2.96100 -0.45280 0.64900
v -2.96100 -0.33180 0.64900
v -2.96100 -0.00280 0.64900
v -2.96100 0.32620 0.64900
v -2.96100 0.44820 0.64900
v -2.96100 -0.45280 0.66600
v -2.96100 -0.33180 0.66600
v -2.96100 -0.00280 0.66600
v -2.96100 0.32620 0.66600
v -2.96100 0.44820 0.66600
v -2.96100 -0.45280 0.66700
v -2.96100 -0.33180 0.66700
v -2.96100 -0.00280 0.66700
v -2.96100 0.32620 0.66700
v -2.96100 0.44820 0.66700
v -2.96100 1.13620 0.67900
v -2.96100 0.55220 0.68000
v -2.96100 1.14020 0.68000
v -2.96100 -0.45280 0.83400
v -2.96100 -0.33180 0.83400
v -2.96100 -0.00280 0.83400
v -2.96100 0.32620 0.83400
v -2.96100 0.44820 0.83400
v -2.96100 0.70120 0.84200
v -2.96100 0.84820 0.84200
v -2.96100 0.99520 0.84200
v -2.96100 -0.45280 0.85100
v -2.96100 -0.33180 0.85100
v -2.96100 -0.00280 0.85100
v -2.96100 0.32620 0.85100
v -2.96100 0.44820 0.85100
v -2.96200 -0.45280 0.66600
v -2.96200 -0.33180 0.66600
v -2.96200 -0.00280 0.66600
v -2.96200 0.32620 0.66600
v -2.96200 0.44820 0.66600
v -2.97100 -0.99380 0.15700
v -2.97100 -0.84080 0.15700
v -2.97100 -0.68880 0.15700
v -2.97100 -1.14280 0.30800
v -2.97100 -0.54380 0.30800
v -2.97100 -1.14280 0.49300
v -2.97100 -0.54380 0.49300
v -2.97100 -1.14280 0.67900
v -2.97100 -0.54380 0.67900
v -2.97100 -0.99380 0.84000
v -2.97100 -0.84080 0.84000
v -2.97100 -0.68880 0.84000
v -2.97900 -0.99480 0.15300
v -2.97900 -0.84580 0.15300
v -2.97900 -0.69580 0.15300
v -2.97900 -1.14180 0.30800
v -2.97900 -0.54380 0.30800
v -2.97900 -1.14180 0.49300
v -2.97900 -0.55180 0.49300
v -2.97900 -0.54380 0.49300
v -2.97900 -0.55180 0.67800
v -2.97900 -1.14180 0.67900
v -2.97900 -0.54380 0.67900
v -2.97900 -0.99480 0.84400
v -2.97900 -0.84580 0.84400
v -2.97900 -0.69580 0.84400
v -3.00400 0.70120 0.15500
v -3.00400 0.84820 0.15500
v -3.00400 0.99520 0.15500
v -3.00400 0.55220 0.30700
v -3.00400 1.14020 0.30700
v -3.00400 1.13620 0.30800
v -3.00400 0.55220 0.49300
v -3.00400 1.13620 0.49300
v -3.00400 1.14020 0.49300
v -3.00400 1.13620 0.67900
v -3.00400 1.14020 0.68000
v -3.00400 0.70120 0.84200
v -3.00400 0.84820 0.84200
v -3.00400 0.99520 0.84200
v -3.00500 0.55420 0.30800
v -3.00500 0.55420 0.49300
v -3.00500 0.55420 0.67900
v -3.01000 0.70720 0.15300
v -3.01000 0.85020 0.15300
v -3.01000 0.99320 0.15300
v -3.01000 0.70820 0.16200
v -3.01000 0.85020 0.16200
v -3.01000 0.99220 0.16200
v -3.01000 0.55720 0.30800
v -3.01000 1.13920 0.30800
v -3.01000 0.56420 0.30900
v -3.01000 1.13120 0.30900
v -3.01000 0.55720 0.49300
v -3.01000 0.56420 0.49300
v -3.01000 1.13120 0.49300
v -3.01000 1.13920 0.49300
v -3.01000 0.56420 0.67800
v -3.01000 1.13120 0.67800
v -3.01000 0.55720 0.67900
v -3.01000 1.13920 0.67900
v -3.01000 0.70820 0.83500
v -3.01000 0.85020 0.83500
v -3.01000 0.99220 0.83500
v -3.01000 0.70720 0.84400
v -3.01000 0.85020 0.84400
v -3.01000 0.99320 0.84400
v -3.03500 -0.45780 0.95300
v -3.03500 0.45120 0.95300
v -3.04200 -1.27880 1.02600
v -3.04200 1.20320 1.02600
v -3.04800 -1.31180 0.28000
v -3.04800 1.23620 0.28000
v -3.07900 -0.47080 0.62900
v -3.07900 0.46420 0.62900
v -3.07900 -0.47080 0.65100
v -3.07900 0.46420 0.65100
v -3.07900 -0.47080 0.85200
v -3.07900 0.46420 0.85200
v -3.07900 -0.47080 0.87300
v -3.07900 0.46420 0.87300
v -3.23300 -0.06380 1.06000
v -3.26200 -0.45780 0.95300
v -3.26200 0.45120 0.95300
v -3.33800 -0.34280 0.95300
v -3.33800 -0.00380 0.95300
v -3.33800 0.33620 0.95300
v -3.33800 -0.34280 0.96800
v -3.33800 -0.00380 0.96800
v -3.33800 0.33620 0.96800
v -3.37400 -0.10080 1.08800
v -3.49500 -0.47580 0.60500
v -3.49500 0.47420 0.60500
v -3.49500 -0.46380 0.61700
v -3.49500 0.46220 0.61700
v -3.49500 -0.35880 0.90200
v -3.49500 0.35620 0.90200
v -3.49500 -0.47080 0.90800
v -3.49500 0.46820 0.90800
v -3.55300 -0.13180 0.28600
v -3.55300 -0.00080 0.28600
v -3.55300 0.13020 0.28600
v -3.71700 -0.13180 0.28600
v -3.71700 -0.00080 0.28600
v -3.71700 0.13020 0.28600
v -4.19500 -0.45280 0.66600
v -4.19500 -0.33180 0.66600
v -4.19500 -0.00280 0.66600
v -4.19500 0.32620 0.66600
v -4.19500 0.44820 0.66600
v -4.19500 -0.45280 0.83400
v -4.19500 -0.33180 0.83400
v -4.19500 -0.00280 0.83400
v -4.19500 0.32620 0.83400
v -4.19500 0.44820 0.83400
v -4.19500 -0.45280 0.85100
v -4.19500 -0.33180 0.85100
v -4.19500 -0.00280 0.85100
v -4.19500 0.32620 0.85100
v -4.19500 0.44820 0.85100
v -4.26000 -0.45280 0.66800
v -4.26000 -0.33180 0.66800
v -4.26000 -0.00280 0.66800
v -4.26000 0.32620 0.66800
v -4.26000 0.44820 0.66800
v -4.26000 -0.45280 0.83200
v -4.26000 -0.33180 0.83200
v -4.26000 -0.00280 0.83200
v -4.26000 0.32620 0.83200
v -4.26000 0.44820 0.83200
v -4.31300 -0.45280 0.83200
v -4.31300 -0.33180 0.83200
v -4.31300 -0.00280 0.83200
v -4.31300 0.32620 0.83200
v -4.31300 0.44820 0.83200
v -4.37800 -0.45280 0.64900
v -4.37800 -0.33180 0.64900
v -4.37800 -0.00280 0.64900
v -4.37800 0.32620 0.64900
v -4.37800 0.44820 0.64900
v -4.37800 -0.45280 0.66600
v -4.37800 -0.33180 0.66600
v -4.37800 -0.00280 0.66600
v -4.37800 0.32620 0.66600
v -4.37800 0.44820 0.66600
v -4.37800 -0.45280 0.66700
v -4.37800 -0.33180 0.66700
v -4.37800 -0.00280 0.66700
v -4.37800 0.32620 0.66700
v -4.37800 0.44820 0.66700
v -4.37800 -0.45280 0.83400
v -4.37800 -0.33180 0.83400
v -4.37800 -0.00280 0.83400
v -4.37800 0.32620 0.83400
v -4.37800 0.44820 0.83400
v -4.37800 -0.45280 0.85100
v -4.37800 -0.33180 0.85100
v -4.37800 -0.00280 0.85100
v -4.37800 0.32620 0.85100
v -4.37800 0.44820 0.85100
v -4.37900 -0.45280 0.66600
v -4.37900 -0.33180 0.66600
v -4.37900 -0.00280 0.66600
v -4.37900 0.32620 0.66600
v -4.37900 0.44820 0.66600
v -4.38500 -0.47580 0.60500
v -4.38500 0.47420 0.60500
v -4.38500 -0.46380 0.61700
v -4.38500 0.46220 0.61700
v -4.38500 -0.35880 0.90200
v -4.38500 0.35620 0.90200
v -4.38500 -0.47080 0.90800
v -4.38500 0.46820 0.90800
v -4.68600 -0.47580 0.60500
v -4.68600 0.47420 0.60500
v -4.68600 -0.46380 0.61700
v -4.68600 0.46220 0.61700
v -4.68600 -0.35880 0.90200
v -4.68600 0.35620 0.90200
v -4.68600 -0.47080 0.90800
v -4.68600 0.46820 0.90800
v -4.84600 -0.47580 0.60500
v -4.84600 0.47420 0.60500
v -4.84600 -0.46380 0.61700
v -4.84600 0.46220 0.61700
v -4.84600 -0.35880 0.86900
v -4.84600 0.35620 0.86900
v -4.84600 -0.47080 0.87500
v -4.84600 0.46820 0.87500
v -4.95000 -0.14480 0.84500
v -4.95000 -0.00280 0.84500
v -4.95000 0.14020 0.84500
v -4.95200 -0.14480 0.85900
v -4.95200 -0.00280 0.85900
v -4.95200 0.14020 0.85900
v -4.97100 -0.46380 0.61700
v -4.97100 0.46220 0.61700
v -4.97200 -0.47580 0.60500
v -4.97200 0.47420 0.60500
v -4.97200 -0.35880 0.84100
v -4.97200 0.35620 0.84100
v -4.97200 -0.47080 0.84700
v -4.97200 0.46820 0.84700
v -5.08000 -0.14480 0.70900
v -5.08000 -0.00280 0.70900
v -5.08000 0.14020 0.70900
v -5.09700 -0.14480 0.71000
v -5.09700 -0.00280 0.71000
v -5.09700 0.14020 0.71000
l 1 2
l 3 5
l 4 6
l 7 8
l 19 22
l 20 23
l 25 26
l 29 32
l 30 33
l 35 36
l 37 39
l 38 40
l 39 42
l 40 43
l 41 44
l 41 45
l 44 61
l 45 62
l 88 122
l 88 176
l 89 124
l 89 177
l 122 143
l 124 143
l 131 168
l 131 169
l 132 170
l 132 171
l 148 180
l 149 181
l 158 176
l 159 177
l 160 178
l 161 179
l 168 187
l 169 188
l 170 189
l 171 190
l 176 186
l 177 186
l 178 193
l 179 193
l 180 196
l 181 197
l 205 216
l 206 217
l 207 238
l 207 239
l 208 252
l 209 253
l 210 218
l 211 219
l 212 220
l 213 221
l 214 222
l 215 223
l 216 232
l 217 233
l 224 226
l 224 234
l 225 227
l 225 235
l 228 250
l 229 251
l 240 254
l 240 255
l 243 256
l 244 257
l 245 258
l 246 259
l 247 260
l 248 261
l 249 262
l 249 263
l 250 264
l 251 265
l 252 266
l 253 267
l 254 271
l 255 272
l 256 273
l 257 274
l 258 268
l 259 269
l 260 279
l 261 280
l 262 283
l 263 284
l 270 281
l 270 282
l 275 287
l 276 288
l 277 289
l 278 290
l 281 285
l 282 286
l 287 301
l 288 301
l 289 302
l 290 302
l 291 295
l 292 296
l 293 303
l 294 304
l 295 309
l 296 309
l 297 333
l 298 334
l 299 319
l 300 320
l 303 310
l 304 310
l 305 313
l 306 314
l 307 317
l 308 318
l 311 313
l 312 314
l 315 317
l 316 318
l 319 345
l 320 346
l 321 322
l 321 335
l 323 324
l 324 336
l 325 326
l 325 337
l 327 328
l 328 338
l 329 349
l 330 350
l 331 347
l 332 348
l 333 343
l 334 344
l 339 361
l 340 362
l 341 363
l 342 364
l 347 373
l 348 374
l 349 371
l 350 372
l 351 379
l 352 380
l 353 381
l 354 382
l 355 365
l 356 366
l 357 367
l 358 368
l 359 369
l 360 370
l 361 383
l 362 384
l 363 377
l 364 378
l 375 405
l 376 406
l 379 393
l 380 394
l 381 395
l 382 396
l 385 388
l 385 389
l 386 397
l 387 398
l 388 399
l 389 400
l 390 391
l 390 392
l 391 401
l 392 402
l 397 403
l 398 404
l 401 409
l 402 410
l 405 417
l 406 418
l 407 411
l 408 412
l 411 413
l 412 414
l 415 421
l 416 422
l 417 423
l 418 424
l 419 425
l 420 426
l 421 427
l 422 428
l 423 429
l 424 430
l 425 431
l 426 432
l 443 444
l 445 446
l 447 448
l 449 450
l 451 452
l 453 454
l 457 466
l 458 467
l 460 469
l 461 470
l 462 471
l 463 472
l 466 493
l 467 494
l 469 496
l 470 497
l 471 491
l 472 492
l 475 476
l 477 478
l 479 480
l 481 482
l 483 484
l 485 486
l 504 521
l 505 522
l 506 507
l 507 508
l 508 509
l 509 510
l 511 513
l 512 514
l 513 517
l 514 518
l 521 525
l 522 526
l 527 528
l 529 531
l 530 532
l 531 533
l 532 534
l 533 535
l 534 536
l 537 538
l 538 539
l 539 540
l 540 541
l 542 548
l 543 549
l 548 554
l 549 555
l 554 557
l 555 558
l 563 565
l 564 566
l 565 567
l 566 568
l 569 571
l 570 572
l 571 573
l 572 574
l 575 596
l 576 597
l 593 594
l 594 595
l 596 598
l 597 599
l 623 624
l 624 625
l 626 627
l 627 628
l 628 629
l 629 630
l 631 632
l 632 633
l 634 667
l 635 668
l 636 669
l 637 670
l 647 648
l 648 649
l 649 650
l 650 651
l 652 653
l 653 654
l 654 655
l 655 656
l 662 663
l 663 664
l 664 665
l 665 666
l 667 695
l 668 696
l 669 697
l 670 698
l 695 741
l 696 742
l 697 743
l 698 744
l 723 749
l 724 750
l 725 751
l 726 752
l 731 732
l 732 733
l 733 734
l 734 735
l 741 887
l 742 888
l 743 889
l 744 890
l 749 895
l 750 896
l 751 897
l 752 898
l 887 899
l 888 900
l 889 901
l 890 902
l 895 972
l 896 973
l 897 989
l 898 990
l 899 1035
l 900 1036
l 901 1037
l 902 1038
l 1035 1290
l 1036 1291
l 1037 1292
l 1038 1293
l 1043 1086
l 1044 1087
l 1045 1088
l 1046 1089
l 1047 1090
l 1048 1091
l 1049 1092
l 1050 1093
l 1051 1094
l 1052 1095
l 1053 1096
l 1054 1097
l 1055 1056
l 1056 1057
l 1077 1078
l 1078 1079
l 1079 1080
l 1080 1081
l 1086 1272
l 1087 1273
l 1088 1274
l 1089 1275
l 1090 1276
l 1091 1277
l 1092 1278
l 1093 1279
l 1094 1268
l 1095 1269
l 1096 1270
l 1097 1271
l 1181 1182
l 1182 1183
l 1183 1184
l 1184 1185
l 1189 1190
l 1190 1191
l 1191 1192
l 1192 1193
l 1283 1284
l 1284 1285
l 1290 1364
l 1291 1365
l 1292 1366
l 1293 1367
l 1304 1305
l 1305 1306
l 1306 1307
l 1307 1308
l 1324 1325
l 1325 1326
l 1326 1327
l 1327 1328
l 1349 1350
l 1350 1351
l 1351 1352
l 1352 1353
l 1354 1355
l 1355 1356
l 1356 1357
l 1357 1358
l 1364 1372
l 1365 1373
l 1366 1374
l 1367 1375
l 1380 1396
l 1381 1397
l 1382 1394
l 1383 1395
l 9 10
l 11 13
l 12 14
l 15 16
l 17 18
l 21 24
l 27 28
l 31 34
l 46 57
l 47 58
l 48 59
l 49 60
l 50 63
l 51 64
l 52 65
l 53 66
l 54 56
l 55 56
l 57 73
l 58 73
l 63 74
l 64 74
l 65 76
l 66 76
l 67 69
l 68 70
l 71 84
l 72 85
l 75 98
l 77 99
l 78 100
l 79 101
l 80 114
l 80 115
l 81 96
l 81 97
l 82 125
l 83 126
l 84 127
l 85 128
l 86 116
l 87 117
l 90 104
l 90 105
l 91 92
l 91 109
l 92 93
l 93 110
l 94 127
l 95 128
l 96 141
l 97 142
l 98 123
l 99 123
l 102 103
l 103 104
l 105 106
l 106 107
l 108 109
l 110 111
l 112 135
l 113 136
l 114 137
l 115 140
l 118 138
l 119 139
l 120 156
l 121 157
l 129 154
l 130 155
l 133 174
l 134 175
l 138 172
l 139 173
l 144 145
l 146 147
l 150 182
l 151 183
l 152 184
l 153 185
l 162 163
l 162 166
l 164 165
l 165 167
l 191 198
l 192 199
l 194 201
l 195 202
l 198 230
l 199 231
l 200 203
l 200 204
l 201 236
l 202 237
l 203 241
l 204 242
l 433 435
l 434 436
l 435 437
l 436 438
l 439 441
l 440 442
l 455 464
l 456 465
l 459 468
l 464 473
l 465 474
l 468 495
l 487 488
l 489 490
l 498 500
l 499 501
l 500 515
l 501 516
l 502 519
l 503 520
l 515 523
l 516 524
l 544 550
l 545 551
l 546 552
l 547 553
l 551 556
l 552 559
l 553 560
l 559 561
l 560 562
l 577 589
l 578 590
l 579 591
l 580 592
l 581 585
l 582 586
l 583 587
l 584 588
l 600 604
l 601 605
l 602 606
l 603 607
l 604 608
l 605 609
l 606 610
l 607 611
l 612 613
l 613 614
l 615 616
l 616 617
l 617 618
l 618 619
l 620 621
l 621 622
l 638 671
l 639 672
l 640 673
l 641 674
l 642 643
l 643 644
l 644 645
l 645 646
l 657 658
l 658 659
l 659 660
l 660 661
l 671 699
l 672 700
l 673 701
l 674 702
l 675 676
l 676 677
l 677 678
l 678 679
l 680 681
l 681 682
l 682 683
l 683 684
l 685 686
l 686 687
l 687 688
l 688 689
l 690 691
l 691 692
l 692 693
l 693 694
l 699 745
l 700 746
l 701 747
l 702 748
l 703 704
l 704 705
l 705 706
l 706 707
l 708 709
l 709 710
l 710 711
l 711 712
l 713 714
l 714 715
l 715 716
l 716 717
l 718 719
l 719 720
l 720 721
l 721 722
l 727 729
l 728 730
l 736 737
l 737 738
l 738 739
l 739 740
l 745 891
l 746 892
l 747 893
l 748 894
l 753 754
l 754 755
l 756 757
l 757 758
l 759 762
l 760 764
l 761 763
l 762 765
l 764 766
l 767 768
l 768 769
l 770 771
l 771 772
l 773 776
l 774 778
l 775 777
l 776 780
l 777 779
l 778 781
l 782 783
l 783 784
l 785 786
l 786 787
l 788 790
l 789 791
l 790 792
l 791 793
l 794 795
l 795 796
l 797 798
l 798 799
l 800 801
l 801 802
l 803 807
l 804 806
l 805 809
l 806 808
l 807 810
l 811 812
l 812 813
l 814 815
l 815 816
l 817 819
l 818 820
l 819 822
l 820 821
l 823 824
l 824 825
l 826 827
l 827 828
l 829 830
l 830 831
l 832 835
l 833 837
l 834 836
l 836 838
l 837 839
l 840 841
l 841 842
l 843 844
l 844 845
l 846 847
l 847 848
l 849 851
l 850 853
l 851 855
l 852 854
l 853 856
l 857 858
l 858 859
l 860 861
l 861 862
l 863 864
l 864 865
l 866 870
l 867 873
l 868 871
l 869 872
l 870 876
l 871 874
l 872 875
l 873 877
l 878 879
l 879 880
l 881 882
l 882 883
l 884 885
l 885 886
l 891 903
l 892 904
l 893 905
l 894 906
l 903 1039
l 904 1040
l 905 1041
l 906 1042
l 907 908
l 908 909
l 910 911
l 911 912
l 913 917
l 914 920
l 915 918
l 916 919
l 917 923
l 918 921
l 919 922
l 920 924
l 925 926
l 926 927
l 928 929
l 929 930
l 931 932
l 932 933
l 934 935
l 935 936
l 937 939
l 938 940
l 939 942
l 940 941
l 943 944
l 944 945
l 946 947
l 947 948
l 949 951
l 950 952
l 951 953
l 952 954
l 955 956
l 956 957
l 958 959
l 959 960
l 961 963
l 962 965
l 963 967
l 964 966
l 965 968
l 969 970
l 970 971
l 974 975
l 975 976
l 977 980
l 978 982
l 979 981
l 980 984
l 981 983
l 982 985
l 986 987
l 987 988
l 991 992
l 992 993
l 994 995
l 995 996
l 997 1001
l 998 1000
l 999 1003
l 1000 1002
l 1001 1004
l 1005 1006
l 1006 1007
l 1008 1009
l 1009 1010
l 1011 1013
l 1012 1014
l 1013 1015
l 1014 1016
l 1017 1018
l 1018 1019
l 1020 1021
l 1021 1022
l 1023 1026
l 1024 1028
l 1025 1027
l 1026 1030
l 1027 1029
l 1028 1031
l 1032 1033
l 1033 1034
l 1039 1294
l 1040 1295
l 1041 1296
l 1042 1297
l 1058 1059
l 1059 1060
l 1061 1063
l 1062 1064
l 1065 1066
l 1066 1067
l 1067 1068
l 1068 1069
l 1070 1266
l 1071 1267
l 1072 1073
l 1073 1074
l 1074 1075
l 1075 1076
l 1082 1084
l 1083 1085
l 1098 1099
l 1099 1100
l 1101 1102
l 1102 1103
l 1104 1108
l 1105 1111
l 1106 1109
l 1107 1110
l 1108 1114
l 1109 1112
l 1110 1113
l 1111 1115
l 1116 1117
l 1117 1118
l 1119 1120
l 1120 1121
l 1122 1123
l 1123 1124
l 1125 1126
l 1126 1127
l 1128 1130
l 1129 1131
l 1130 1133
l 1131 1132
l 1134 1135
l 1135 1136
l 1137 1138
l 1138 1139
l 1140 1143
l 1141 1145
l 1142 1144
l 1143 1147
l 1144 1146
l 1145 1148
l 1149 1150
l 1150 1151
l 1152 1153
l 1153 1154
l 1155 1156
l 1156 1157
l 1158 1162
l 1159 1161
l 1160 1179
l 1161 1178
l 1162 1180
l 1163 1164
l 1164 1165
l 1165 1166
l 1166 1167
l 1168 1169
l 1169 1170
l 1170 1171
l 1171 1172
l 1173 1174
l 1174 1175
l 1175 1176
l 1176 1177
l 1186 1187
l 1187 1188
l 1194 1195
l 1195 1196
l 1196 1197
l 1197 1198
l 1199 1200
l 1200 1201
l 1202 1204
l 1203 1205
l 1204 1206
l 1205 1207
l 1208 1209
l 1209 1210
l 1211 1212
l 1212 1213
l 1214 1216
l 1215 1218
l 1216 1220
l 1217 1219
l 1218 1221
l 1222 1223
l 1223 1224
l 1225 1226
l 1226 1227
l 1228 1231
l 1229 1233
l 1230 1232
l 1232 1234
l 1233 1235
l 1236 1237
l 1237 1238
l 1239 1240
l 1240 1241
l 1242 1243
l 1243 1244
l 1245 1246
l 1246 1247
l 1248 1252
l 1249 1255
l 1250 1253
l 1251 1254
l 1252 1258
l 1253 1256
l 1254 1257
l 1255 1259
l 1260 1261
l 1261 1262
l 1263 1264
l 1264 1265
l 1266 1281
l 1267 1282
l 1280 1289
l 1286 1287
l 1287 1288
l 1294 1368
l 1295 1369
l 1296 1370
l 1297 1371
l 1298 1299
l 1299 1300
l 1301 1302
l 1302 1303
l 1309 1310
l 1310 1311
l 1311 1312
l 1312 1313
l 1314 1315
l 1315 1316
l 1316 1317
l 1317 1318
l 1319 1320
l 1320 1321
l 1321 1322
l 1322 1323
l 1329 1330
l 1330 1331
l 1331 1332
l 1332 1333
l 1334 1335
l 1335 1336
l 1336 1337
l 1337 1338
l 1339 1340
l 1340 1341
l 1341 1342
l 1342 1343
l 1344 1345
l 1345 1346
l 1346 1347
l 1347 1348
l 1359 1360
l 1360 1361
l 1361 1362
l 1362 1363
l 1368 1376
l 1369 1377
l 1370 1378
l 1371 1379
l 1384 1398
l 1385 1399
l 1386 1400
l 1387 1401
l 1388 1389
l 1389 1390
l 1391 1392
l 1392 1393
l 1402 1403
l 1403 1404
l 1405 1406
l 1406 1407
