# fh16_trailer_wheel_3l.obj - ISO 8855 (x ileri, y sol, z yukari), metre
mtllib fh16.mtl
o fh16_trailer_wheel_3l
v -0.27471 -0.31426 -0.14197
v -0.31280 -0.31420 0.00000
v -0.29720 -0.31420 0.09620
v -0.25369 -0.31419 0.18387
v -0.27525 -0.28050 -0.14050
v -0.31300 -0.28050 0.00000
v -0.29750 -0.28050 0.09600
v -0.25300 -0.28050 0.18350
v -0.26780 -0.10400 -0.10760
v -0.26530 -0.07084 -0.03832
v -0.25905 -0.07271 0.08386
v -0.25300 -0.15300 0.18300
v -0.27775 -0.01996 -0.12664
v -0.30185 -0.02245 -0.00068
v -0.28879 -0.02075 0.09260
v -0.25711 -0.02133 0.18644
v -0.26962 0.11710 -0.10559
v -0.27202 0.12910 -0.02503
v -0.26476 0.12831 0.08471
v -0.25760 0.07080 0.18660
v -0.26685 0.22712 -0.09332
v -0.28041 0.22722 0.00000
v -0.26636 0.22894 0.08609
v -0.27200 0.22550 0.19700
v -0.27901 0.31070 -0.13941
v -0.31530 0.31013 0.00000
v -0.29982 0.31015 0.09715
v -0.25639 0.31203 0.18584
v -0.18425 -0.31425 -0.25338
v -0.18319 -0.31425 0.25144
v -0.18400 -0.28050 -0.25300
v -0.18400 -0.28050 0.25250
v -0.16005 -0.07248 -0.22024
v -0.21933 -0.06910 -0.15952
v -0.18845 -0.07155 0.19116
v -0.17810 -0.01947 -0.24512
v -0.18311 -0.02835 -0.14288
v -0.18276 -0.02141 -0.04017
v -0.17599 -0.02582 0.07535
v -0.18762 -0.02560 0.20899
v -0.19200 -0.01583 0.26367
v -0.16369 0.12840 -0.22529
v -0.18221 0.11377 -0.14298
v -0.17140 0.09021 -0.03184
v -0.17834 0.09537 0.07431
v -0.18090 0.12795 0.18833
v -0.19450 0.07950 0.26750
v -0.16461 0.22894 -0.22670
v -0.22387 0.22916 -0.16271
v -0.19316 0.23091 0.19277
v -0.19800 0.22550 0.27100
v -0.18549 0.31010 -0.25521
v -0.23800 0.28833 -0.17300
v -0.18703 0.30535 0.24177
v -0.19508 0.31769 0.26785
v -0.09635 -0.31435 -0.29576
v -0.09735 -0.31435 0.29824
v -0.09700 -0.28050 -0.29750
v -0.09700 -0.28050 0.29750
v -0.08458 -0.07347 -0.25979
v -0.08378 -0.06978 0.25717
v -0.09200 -0.10950 0.28200
v -0.08246 -0.02562 -0.27200
v -0.07602 -0.01216 -0.15204
v -0.10360 0.01567 -0.02800
v -0.08029 0.00868 0.11036
v -0.06588 -0.03096 0.18680
v -0.09410 -0.02041 0.28843
v -0.10400 0.09400 -0.31800
v -0.07078 0.12202 -0.24915
v -0.06392 0.08361 -0.13117
v -0.09855 0.07625 -0.03456
v -0.07067 0.07823 0.09457
v -0.07263 0.11300 0.21038
v -0.09242 0.09267 0.28317
v -0.10400 0.22550 -0.32000
v -0.08578 0.23091 -0.26331
v -0.03836 0.19929 -0.09679
v -0.06006 0.20611 -0.02339
v -0.04755 0.20346 0.06252
v -0.08514 0.22724 0.26071
v -0.09000 0.23200 0.27533
v -0.10375 0.31650 -0.31863
v -0.09619 0.30858 -0.29581
v -0.09744 0.30987 0.29918
v 0.00000 -0.31320 -0.32320
v 0.06674 -0.31478 -0.29757
v 0.05138 -0.31431 0.30462
v 0.00000 -0.28200 -0.32500
v 0.06433 -0.28000 -0.29833
v 0.04825 -0.28050 0.30475
v 0.04100 -0.07328 -0.26633
v 0.07878 -0.06894 0.25722
v 0.00832 -0.07636 0.27309
v 0.00000 -0.01737 -0.32162
v 0.05052 -0.02441 -0.27998
v 0.04514 -0.00544 -0.15127
v 0.09000 0.01567 -0.06950
v 0.07010 0.00903 0.11150
v 0.03425 -0.02503 0.18686
v 0.04673 -0.02042 0.29570
v 0.02575 0.07950 -0.32500
v 0.03807 0.12580 -0.25925
v 0.04390 0.08148 -0.13246
v 0.09173 0.07574 -0.04100
v 0.05724 0.07735 0.09864
v 0.04721 0.10860 0.20841
v 0.02119 0.12038 0.27996
v 0.05200 0.22550 -0.32800
v 0.04255 0.23091 -0.26984
v 0.02400 0.19945 -0.09941
v 0.05168 0.20698 -0.02578
v 0.03783 0.20359 0.06600
v 0.08450 0.22435 0.26065
v 0.02434 0.22852 0.27855
v 0.02757 0.31647 -0.32540
v 0.06148 0.30564 -0.29704
v 0.04732 0.30994 0.30688
v 0.18350 -0.31425 -0.25338
v 0.18244 -0.31444 0.25133
v 0.18300 -0.28050 -0.25300
v 0.18300 -0.28050 0.25250
v 0.15959 -0.07264 -0.22023
v 0.21832 -0.06889 -0.15921
v 0.18760 -0.07112 0.19072
v 0.17535 -0.02306 -0.24420
v 0.15549 -0.02947 -0.12549
v 0.16651 -0.01272 -0.03139
v 0.16996 -0.02312 0.07697
v 0.16205 -0.03031 0.21805
v 0.19175 -0.01575 0.26375
v 0.16093 0.12978 -0.22463
v 0.16887 0.11212 -0.14326
v 0.15066 0.08495 -0.02826
v 0.16641 0.09239 0.07537
v 0.16799 0.12591 0.18884
v 0.19450 0.07950 0.26750
v 0.16450 0.22722 -0.22684
v 0.22181 0.22724 -0.16157
v 0.18563 0.22729 0.19888
v 0.19700 0.22550 0.27100
v 0.18512 0.30990 -0.25533
v 0.18030 0.30596 0.24807
v 0.19492 0.31750 0.26825
v 0.27345 -0.31432 -0.14148
v 0.31188 -0.31435 0.00000
v 0.29713 -0.31437 0.09637
v 0.25365 -0.31435 0.18424
v 0.27475 -0.28050 -0.14050
v 0.31250 -0.28050 0.00000
v 0.29650 -0.28050 0.09600
v 0.25300 -0.28050 0.18350
v 0.26033 -0.09767 -0.11717
v 0.26500 -0.07097 -0.03726
v 0.25833 -0.07248 0.08376
v 0.23950 -0.10950 0.17400
v 0.26698 -0.01932 -0.13704
v 0.29315 -0.02358 -0.00820
v 0.28184 -0.02354 0.08930
v 0.24580 -0.01918 0.17851
v 0.26133 0.11539 -0.11753
v 0.26689 0.12764 -0.02879
v 0.25998 0.12666 0.08187
v 0.24075 0.09267 0.17483
v 0.25751 0.22978 -0.10913
v 0.27985 0.23059 0.00000
v 0.26574 0.23059 0.08600
v 0.23450 0.23200 0.17025
v 0.27695 0.30939 -0.14078
v 0.31518 0.30958 0.00000
v 0.29925 0.30953 0.09710
v 0.25412 0.30905 0.18446
usemtl m002
f 35 67 40
f 38 15 39
f 38 14 15
f 39 15 14
f 39 14 11
f 11 40 39
f 38 37 10
f 10 14 38
f 36 63 33
f 37 63 36
f 33 37 36
f 92 63 96
f 126 127 123
f 123 96 126
f 97 126 96
f 154 127 158
f 159 129 130
f 159 130 155
f 155 158 159
f 128 159 158
f 129 159 128
f 130 100 125
f 100 67 93
f 66 39 67
f 37 64 63
f 97 127 126
f 130 129 99
f 99 100 130
f 158 127 128
f 35 61 67
f 11 35 40
f 11 14 10
f 10 37 34
f 33 34 37
f 33 63 60
f 92 60 63
f 123 92 96
f 123 127 124
f 154 124 127
f 155 154 158
f 155 130 125
f 125 100 93
f 94 93 100
f 93 67 61
f 93 61 94
f 35 62 61
f 40 68 62
f 40 62 35
f 15 40 35
f 15 35 11
f 11 14 15
f 13 14 10
f 13 10 9
f 9 34 37
f 9 37 13
f 36 37 34
f 36 34 33
f 96 63 60
f 96 60 92
f 126 96 92
f 126 92 123
f 123 153 157
f 123 157 126
f 123 124 153
f 153 154 158
f 153 158 157
f 159 158 154
f 159 154 155
f 155 156 160
f 155 160 159
f 155 125 156
f 130 160 156
f 130 156 125
f 125 94 101
f 125 101 130
f 125 93 94
f 94 62 68
f 94 68 101
f 94 61 62
f 63 96 95
f 15 16 40
f 36 13 37
f 9 10 34
f 124 154 153
f 40 41 68
f 16 41 40
f 130 131 160
f 101 131 130
f 38 64 37
f 100 66 67
f 35 62 68
f 35 68 40
f 32 59 62
f 32 62 35
f 35 12 8
f 35 8 32
f 40 16 12
f 40 12 35
f 11 12 16
f 11 16 15
f 7 8 12
f 7 12 11
f 11 10 6
f 11 6 7
f 15 14 10
f 15 10 11
f 9 10 14
f 9 14 13
f 5 6 10
f 5 10 9
f 33 9 13
f 33 13 36
f 31 5 9
f 31 9 33
f 33 60 58
f 33 58 31
f 36 63 60
f 36 60 33
f 92 63 95
f 90 58 60
f 90 60 92
f 95 96 92
f 121 90 92
f 121 92 123
f 123 153 149
f 123 149 121
f 126 157 153
f 126 153 123
f 153 154 150
f 153 150 149
f 157 158 154
f 157 154 153
f 151 150 154
f 151 154 155
f 155 156 152
f 155 152 151
f 159 160 156
f 159 156 155
f 125 156 160
f 125 160 130
f 122 152 156
f 122 156 125
f 125 94 91
f 125 91 122
f 130 101 94
f 130 94 125
f 94 62 59
f 94 59 91
f 101 68 62
f 101 62 94
f 86 56 87
f 32 59 57
f 32 57 30
f 30 4 8
f 30 8 32
f 7 8 4
f 7 4 3
f 3 2 6
f 3 6 7
f 5 6 2
f 5 2 1
f 31 5 1
f 31 1 29
f 29 56 58
f 29 58 31
f 89 58 56
f 89 56 86
f 86 87 90
f 86 90 89
f 121 90 87
f 121 87 119
f 119 145 149
f 119 149 121
f 145 146 150
f 145 150 149
f 151 150 146
f 151 146 147
f 147 148 152
f 147 152 151
f 122 152 148
f 122 148 120
f 120 88 91
f 120 91 122
f 88 57 59
f 88 59 91
f 56 58 90
f 56 90 87
f 44 19 45
f 44 18 19
f 45 19 18
f 19 46 45
f 44 43 18
f 43 70 42
f 104 132 103
f 163 135 136
f 134 163 162
f 135 163 134
f 73 45 74
f 43 71 70
f 104 133 132
f 136 135 106
f 106 107 136
f 107 74 108
f 17 18 43
f 133 162 161
f 44 71 43
f 107 73 74
f 54 85 82
f 54 82 50
f 27 54 50
f 27 50 23
f 23 22 26
f 23 26 27
f 25 26 22
f 25 22 21
f 21 49 53
f 21 53 25
f 52 53 49
f 52 49 48
f 48 77 84
f 48 84 52
f 117 84 77
f 117 77 110
f 142 117 110
f 142 110 138
f 138 165 169
f 138 169 142
f 165 166 170
f 165 170 169
f 171 170 166
f 171 166 167
f 167 168 172
f 167 172 171
f 143 172 168
f 143 168 140
f 140 115 118
f 140 118 143
f 115 82 85
f 115 85 118
f 116 84 117
f 52 84 83
f 116 83 84
f 142 116 117
f 51 82 85
f 51 85 55
f 55 28 24
f 55 24 51
f 23 24 28
f 23 28 27
f 27 26 22
f 27 22 23
f 21 22 26
f 21 26 25
f 48 21 25
f 48 25 52
f 52 83 76
f 52 76 48
f 109 76 83
f 109 83 116
f 138 109 116
f 138 116 142
f 142 169 165
f 142 165 138
f 169 170 166
f 169 166 165
f 167 166 170
f 167 170 171
f 171 172 168
f 171 168 167
f 141 168 172
f 141 172 144
f 144 118 115
f 144 115 141
f 118 85 82
f 118 82 115
f 82 81 50
f 138 139 165
f 167 140 168
f 140 114 115
f 115 81 82
f 75 74 46
f 132 133 161
f 163 136 164
f 136 107 108
f 108 74 75
f 28 54 27
f 25 53 52
f 55 54 28
f 85 54 55
f 144 143 118
f 172 143 144
f 46 50 81
f 46 81 74
f 19 23 50
f 19 50 46
f 18 22 23
f 18 23 19
f 17 21 22
f 17 22 18
f 43 49 21
f 43 21 17
f 42 48 49
f 42 49 43
f 70 77 48
f 70 48 42
f 103 110 77
f 103 77 70
f 132 138 110
f 132 110 103
f 133 139 138
f 133 138 132
f 161 165 139
f 161 139 133
f 162 166 165
f 162 165 161
f 163 167 166
f 163 166 162
f 136 140 167
f 136 167 163
f 107 114 140
f 107 140 136
f 108 115 114
f 108 114 107
f 74 81 115
f 74 115 108
f 134 162 133
f 44 72 71
f 104 134 133
f 107 106 73
f 72 44 45
f 72 45 73
f 105 134 104
f 134 105 106
f 134 106 135
f 51 47 75
f 51 75 82
f 24 20 47
f 24 47 51
f 23 19 20
f 23 20 24
f 22 18 19
f 22 19 23
f 21 17 18
f 21 18 22
f 48 42 17
f 48 17 21
f 76 69 42
f 76 42 48
f 109 102 69
f 109 69 76
f 138 132 102
f 138 102 109
f 165 161 132
f 165 132 138
f 166 162 161
f 166 161 165
f 167 163 162
f 167 162 166
f 168 164 163
f 168 163 167
f 141 137 164
f 141 164 168
f 115 108 137
f 115 137 141
f 82 75 108
f 82 108 115
f 47 46 75
f 20 46 47
f 42 69 70
f 70 69 102
f 103 102 132
f 137 136 164
f 108 136 137
f 70 102 103
f 46 20 19
f 43 17 42
f 68 75 46
f 68 46 40
f 15 19 18
f 15 18 14
f 40 46 19
f 40 19 15
f 13 17 43
f 13 43 37
f 14 18 17
f 14 17 13
f 36 42 70
f 36 70 63
f 37 43 42
f 37 42 36
f 63 70 103
f 63 103 96
f 126 132 161
f 126 161 157
f 96 103 132
f 96 132 126
f 157 161 162
f 157 162 158
f 159 163 164
f 159 164 160
f 158 162 163
f 158 163 159
f 130 136 108
f 130 108 101
f 160 164 136
f 160 136 130
f 101 108 75
f 101 75 68
f 72 73 80
f 80 79 72
f 73 106 113
f 113 80 73
f 112 113 106
f 106 105 112
f 105 104 111
f 111 112 105
f 78 111 104
f 104 71 78
f 79 78 71
f 71 72 79
f 79 112 111
f 111 78 79
f 112 80 113
f 80 112 79
f 72 65 66
f 66 73 72
f 73 66 99
f 99 106 73
f 106 99 128
f 128 134 106
f 134 128 98
f 98 105 134
f 105 98 97
f 97 104 105
f 104 97 64
f 64 71 104
f 71 64 65
f 65 72 71
v -0.50193 -0.23780 -0.19657
v -0.51489 -0.25650 -0.13484
v -0.52250 -0.25528 -0.04810
v -0.52435 -0.25349 0.04249
v -0.51475 -0.25516 0.13220
v -0.50175 -0.23704 0.19685
v -0.50377 -0.17242 -0.20795
v -0.52281 -0.17240 -0.13508
v -0.53101 -0.17236 -0.04833
v -0.53197 -0.17240 0.04446
v -0.52249 -0.17247 0.13130
v -0.50436 -0.17239 0.20575
v -0.50204 -0.10687 -0.19642
v -0.51553 -0.08972 -0.13427
v -0.52281 -0.08997 -0.04823
v -0.52458 -0.09200 0.04308
v -0.51492 -0.09008 0.13248
v -0.50173 -0.10746 0.19685
v -0.50605 0.05048 -0.13121
v -0.51958 0.04983 -0.04657
v -0.51970 0.04957 0.04355
v -0.50653 0.05030 0.12772
v -0.50277 0.12181 -0.20265
v -0.52018 0.11716 -0.13549
v -0.52667 0.11617 -0.04834
v -0.52812 0.11570 0.04329
v -0.51959 0.11532 0.13246
v -0.50315 0.12461 0.20231
v -0.50352 0.19791 -0.20491
v -0.52253 0.19856 -0.13527
v -0.52887 0.20107 -0.04884
v -0.53008 0.20148 0.04330
v -0.52154 0.19976 0.13193
v -0.50401 0.19567 0.20383
v -0.50027 0.24664 -0.19245
v -0.51056 0.27006 -0.13348
v -0.52176 0.27190 -0.04688
v -0.52308 0.26963 0.04495
v -0.51055 0.27073 0.13201
v -0.49933 0.24756 0.19300
v -0.42250 -0.31575 -0.20775
v -0.43533 -0.31989 -0.13122
v -0.44409 -0.32100 -0.04945
v -0.44185 -0.32185 0.03723
v -0.44211 -0.31811 0.12933
v -0.42400 -0.31325 0.21900
v -0.43036 -0.25243 -0.31027
v -0.46265 -0.26128 -0.23456
v -0.47920 -0.26442 -0.14330
v -0.48472 -0.29650 -0.04830
v -0.48491 -0.29624 0.04876
v -0.47925 -0.26486 0.14254
v -0.46424 -0.26096 0.23096
v -0.43120 -0.25389 0.30782
v -0.40500 -0.17236 -0.36627
v -0.43731 -0.17247 -0.31510
v -0.46899 -0.17239 -0.24158
v -0.48643 -0.17243 -0.15451
v -0.48710 -0.17243 0.15189
v -0.46983 -0.17241 0.24013
v -0.43692 -0.17241 0.31397
v -0.40900 -0.17200 0.36300
v -0.43037 -0.09267 -0.31045
v -0.46267 -0.08349 -0.23437
v -0.47953 -0.08016 -0.14352
v -0.48472 -0.04825 -0.04830
v -0.48491 -0.04856 0.04876
v -0.47929 -0.07964 0.14320
v -0.46383 -0.08351 0.23156
v -0.43123 -0.09176 0.30837
v -0.42610 0.04994 -0.30242
v -0.45393 0.04611 -0.22974
v -0.46661 0.03860 -0.14626
v -0.47455 0.03528 -0.04715
v -0.47119 0.03342 0.04365
v -0.46895 0.03885 0.14147
v -0.45588 0.04590 0.22417
v -0.42731 0.05003 0.29961
v -0.40500 0.14433 -0.36600
v -0.43391 0.11621 -0.31352
v -0.46749 0.11335 -0.23863
v -0.48475 0.11320 -0.14481
v -0.49250 0.06900 -0.06500
v -0.49250 0.06900 0.06625
v -0.48468 0.11475 0.14577
v -0.46838 0.11236 0.23655
v -0.43429 0.11644 0.31181
v -0.40500 0.17600 -0.36638
v -0.43611 0.19975 -0.31419
v -0.46829 0.20469 -0.23985
v -0.48581 0.20740 -0.14800
v -0.48561 0.20846 0.14822
v -0.46900 0.20343 0.23862
v -0.43585 0.20032 0.31333
v -0.40900 0.16700 0.36300
v -0.42725 0.26924 -0.30835
v -0.45957 0.27649 -0.23236
v -0.47520 0.28218 -0.14602
v -0.48472 0.29150 -0.04830
v -0.48491 0.29124 0.04876
v -0.47567 0.28358 0.14239
v -0.46138 0.27589 0.22814
v -0.42919 0.26972 0.30481
v -0.34637 -0.31737 -0.30963
v -0.35514 -0.32421 -0.23129
v -0.36757 -0.32500 -0.13957
v -0.36689 -0.32189 -0.04844
v -0.36769 -0.32185 0.04215
v -0.36286 -0.32450 0.14150
v -0.35721 -0.32486 0.22464
v -0.34625 -0.31737 0.30862
v -0.34960 -0.25443 -0.39686
v -0.37858 -0.26768 -0.33713
v -0.40300 -0.30200 -0.27100
v -0.38020 -0.26977 0.33347
v -0.34960 -0.25311 0.39573
v -0.35757 -0.17240 -0.40211
v -0.38304 -0.17243 -0.33969
v -0.38089 -0.17242 0.34006
v -0.35844 -0.17244 0.40107
v -0.34992 -0.09122 -0.39697
v -0.37829 -0.07662 -0.33719
v -0.40300 -0.04300 -0.27100
v -0.37996 -0.07523 0.33276
v -0.34952 -0.09153 0.39578
v -0.34182 0.04958 -0.39218
v -0.37209 0.04209 -0.33092
v -0.35833 0.01687 -0.23393
v -0.36757 0.01457 -0.13957
v -0.36689 0.01767 -0.04844
v -0.35071 0.01967 0.02610
v -0.36286 0.01514 0.14150
v -0.35721 0.01479 0.22464
v -0.37448 0.04209 0.32750
v -0.34364 0.04924 0.38819
v -0.35469 0.11641 -0.39986
v -0.38206 0.11103 -0.34046
v -0.38192 0.11141 0.33869
v -0.35439 0.11649 0.39931
v -0.35627 0.19931 -0.40129
v -0.38204 0.20808 -0.33971
v -0.38150 0.20658 0.33772
v -0.35627 0.19995 0.40057
v -0.34594 0.26978 -0.39495
v -0.37697 0.28230 -0.33534
v -0.40300 0.29700 -0.27100
v -0.37913 0.28191 0.33135
v -0.34776 0.26990 0.39155
v -0.25683 -0.31533 -0.39567
v -0.26313 -0.32480 -0.32033
v -0.28033 -0.32167 -0.23944
v -0.28600 -0.31200 -0.15260
v -0.31000 -0.31000 -0.06500
v -0.31000 -0.31000 0.06400
v -0.28600 -0.31000 0.13150
v -0.27350 -0.32000 0.23270
v -0.26950 -0.32507 0.31350
v -0.25543 -0.31814 0.38486
v -0.25124 -0.24997 -0.47265
v -0.27909 -0.26317 -0.43063
v -0.27914 -0.26447 0.42780
v -0.25298 -0.25277 0.46973
v -0.25785 -0.17249 -0.47803
v -0.28376 -0.17239 -0.43731
v -0.28420 -0.17242 0.43360
v -0.26073 -0.17239 0.47554
v -0.25147 -0.09584 -0.47288
v -0.27950 -0.08132 -0.43022
v -0.27894 -0.08013 0.42768
v -0.25378 -0.09384 0.47013
v -0.23985 0.05130 -0.46593
v -0.27484 0.04405 -0.42251
v -0.26313 0.01480 -0.32033
v -0.27089 0.02017 -0.21472
v -0.29100 0.02300 -0.12531
v -0.29833 0.02467 -0.07333
v -0.29500 0.01925 0.03825
v -0.29133 0.02320 0.11767
v -0.26779 0.02089 0.21216
v -0.26950 0.01450 0.31350
v -0.27669 0.04349 0.41873
v -0.24173 0.05033 0.46264
v -0.25604 0.11872 -0.47588
v -0.28207 0.11391 -0.43565
v -0.28156 0.11280 0.43250
v -0.25792 0.11860 0.47363
v -0.25692 0.19776 -0.47744
v -0.28211 0.20504 -0.43626
v -0.28134 0.20522 0.43317
v -0.26008 0.19737 0.47501
v -0.24583 0.26526 -0.46922
v -0.27951 0.27871 -0.42714
v -0.27986 0.27916 0.42474
v -0.25012 0.26630 0.46586
v -0.15100 -0.31200 -0.45900
v -0.17592 -0.32233 -0.40717
v -0.17855 -0.32245 -0.32700
v -0.19933 -0.31000 -0.24533
v -0.18767 -0.31000 0.25333
v -0.18145 -0.32255 0.32727
v -0.17377 -0.32200 0.40323
v -0.17578 -0.25569 -0.49382
v -0.20072 -0.28741 -0.44728
v -0.20083 -0.29633 0.44417
v -0.17806 -0.25680 0.49123
v -0.17519 -0.17240 -0.50440
v -0.17775 -0.17247 0.50177
v -0.17537 -0.08838 -0.49390
v -0.20072 -0.05734 -0.44728
v -0.20083 -0.04844 0.44417
v -0.17856 -0.08739 0.49109
v -0.17355 0.04804 -0.48543
v -0.18882 0.03191 -0.43179
v -0.17855 0.01709 -0.32700
v -0.18969 0.02331 -0.25415
v -0.18721 0.02286 0.25607
v -0.18145 0.01709 0.32727
v -0.18838 0.03010 0.42528
v -0.17280 0.04809 0.48424
v -0.17585 0.11615 -0.49985
v -0.21600 0.09171 -0.45371
v -0.20550 0.06900 0.45200
v -0.17927 0.11576 0.49718
v -0.17563 0.20070 -0.50219
v -0.22150 0.23150 -0.45425
v -0.17865 0.20123 0.49939
v -0.17433 0.27303 -0.49089
v -0.19740 0.29056 -0.44616
v -0.20083 0.29133 0.44417
v -0.17622 0.27402 0.48837
v -0.07900 -0.31367 -0.47033
v -0.08631 -0.32494 -0.40613
v -0.08737 -0.31550 -0.32775
v -0.09229 -0.31629 0.32986
v -0.09525 -0.32458 0.40942
v -0.07740 -0.31400 0.46840
v -0.08784 -0.25938 -0.51360
v -0.08729 -0.25760 0.51379
v -0.08744 -0.17240 -0.52576
v -0.08796 -0.17240 0.52551
v -0.05100 -0.17200 0.54400
v -0.08789 -0.08557 -0.51359
v -0.08764 -0.08779 0.51371
v -0.08642 0.04612 -0.50195
v -0.08631 0.01463 -0.40613
v -0.09374 0.02237 -0.31342
v -0.09600 0.02200 0.31294
v -0.09525 0.01500 0.40942
v -0.08682 0.04571 0.50070
v -0.08832 0.11472 -0.52134
v -0.08765 0.11515 0.52122
v -0.08723 0.20154 -0.52389
v -0.08742 0.20202 0.52355
v -0.05100 0.16700 0.54400
v -0.08775 0.27528 -0.50873
v -0.08860 0.27431 0.50816
v 0.00000 -0.31450 -0.47450
v 0.00017 -0.32517 -0.41367
v 0.01567 -0.31500 -0.33750
v 0.00000 -0.31500 0.33683
v 0.00011 -0.32517 0.41194
v 0.02175 -0.31450 0.47350
v 0.00274 -0.25836 -0.52147
v 0.00356 -0.25899 0.52068
v 0.00322 -0.17239 -0.53354
v 0.00681 -0.17240 0.52363
v 0.00004 -0.17241 0.54449
v 0.00349 -0.08654 -0.52135
v 0.00315 -0.08536 0.52057
v 0.00416 0.04578 -0.50886
v 0.00017 0.01450 -0.41367
v 0.00553 0.02235 -0.32488
v 0.00000 0.02235 0.32435
v 0.00011 0.01450 0.41194
v 0.00371 0.04588 0.50818
v 0.00239 0.11555 -0.52909
v 0.00455 0.10991 0.52541
v -0.00036 0.14197 0.54431
v 0.00299 0.20076 -0.53178
v 0.00595 0.21093 0.52426
v 0.00025 0.18022 0.54458
v 0.00490 0.27505 -0.51596
v 0.00220 0.27493 0.51624
v 0.07967 -0.31367 -0.47033
v 0.08976 -0.32494 -0.40665
v 0.10150 -0.31567 -0.32517
v 0.10244 -0.31644 0.32700
v 0.09892 -0.32469 0.40600
v 0.10100 -0.31367 0.46567
v 0.09635 -0.25869 -0.51211
v 0.09370 -0.25846 0.51206
v 0.09580 -0.17240 -0.52467
v 0.09543 -0.17232 0.52419
v 0.09623 -0.08569 -0.51197
v 0.09321 -0.08565 0.51201
v 0.09433 0.04610 -0.50056
v 0.08976 0.01465 -0.40665
v 0.09929 0.02212 -0.31082
v 0.10005 0.02205 0.31335
v 0.09892 0.01485 0.40600
v 0.09589 0.04587 0.49875
v 0.09646 0.11510 -0.51988
v 0.09370 0.11543 0.52014
v 0.09615 0.20121 -0.52260
v 0.09497 0.20136 0.52237
v 0.09577 0.27503 -0.50720
v 0.09325 0.27565 0.50675
v 0.15100 -0.31200 -0.45900
v 0.18375 -0.32167 -0.40675
v 0.18631 -0.32262 -0.32423
v 0.19967 -0.31000 -0.24533
v 0.19900 -0.31000 0.24425
v 0.19480 -0.32380 0.32670
v 0.18085 -0.32192 0.40377
v 0.18383 -0.25618 -0.49150
v 0.20816 -0.27882 -0.44666
v 0.20961 -0.28509 0.44336
v 0.18415 -0.25626 0.49037
v 0.18497 -0.17233 -0.50072
v 0.23033 -0.17242 -0.45567
v 0.18688 -0.17236 0.49892
v 0.18422 -0.08887 -0.49129
v 0.20816 -0.06592 -0.44666
v 0.20964 -0.05967 0.44336
v 0.18304 -0.08920 0.49075
v 0.18001 0.04834 -0.48403
v 0.19431 0.03249 -0.43083
v 0.18631 0.01692 -0.32423
v 0.18936 0.02286 -0.25464
v 0.18987 0.02327 0.25347
v 0.19480 0.01590 0.32670
v 0.19528 0.03214 0.42772
v 0.18351 0.04844 0.48236
v 0.18523 0.11599 -0.49673
v 0.22362 0.10705 -0.45281
v 0.22380 0.08780 0.44820
v 0.18537 0.11560 0.49543
v 0.18470 0.20107 -0.49908
v 0.22600 0.21533 -0.45447
v 0.22850 0.23050 0.45050
v 0.18639 0.20106 0.49752
v 0.18399 0.27232 -0.48789
v 0.20352 0.28707 -0.44448
v 0.20703 0.28690 0.44238
v 0.18056 0.27242 0.48798
v 0.26380 -0.31500 -0.39280
v 0.27243 -0.32479 -0.32221
v 0.28773 -0.32255 -0.24127
v 0.28660 -0.31200 -0.15260
v 0.31200 -0.31000 -0.05067
v 0.31400 -0.31000 0.03533
v 0.29320 -0.31200 0.13820
v 0.28573 -0.32191 0.23336
v 0.27947 -0.32427 0.31653
v 0.26050 -0.31700 0.38700
v 0.25702 -0.24972 -0.46946
v 0.28755 -0.26274 -0.42693
v 0.32100 -0.30200 -0.36500
v 0.28947 -0.26277 0.42493
v 0.25717 -0.25132 0.46832
v 0.26449 -0.17239 -0.47607
v 0.29122 -0.17230 -0.43532
v 0.29250 -0.17241 0.43151
v 0.26827 -0.17239 0.47215
v 0.25766 -0.09623 -0.46950
v 0.28803 -0.08172 -0.42647
v 0.32100 -0.04300 -0.36500
v 0.28967 -0.08175 0.42459
v 0.25729 -0.09371 0.46836
v 0.24390 0.05120 -0.46360
v 0.28157 0.04491 -0.42025
v 0.27567 0.01640 -0.32507
v 0.27642 0.01958 -0.21968
v 0.29188 0.02265 -0.12382
v 0.30275 0.02575 -0.06050
v 0.30789 0.02044 0.02167
v 0.29382 0.02265 0.11935
v 0.27455 0.01980 0.21355
v 0.27947 0.01533 0.31653
v 0.28416 0.04415 0.41615
v 0.24577 0.05096 0.46188
v 0.26162 0.11818 -0.47342
v 0.29072 0.11307 -0.43216
v 0.29189 0.11208 0.42979
v 0.26388 0.11778 0.47074
v 0.26379 0.19750 -0.47488
v 0.29054 0.20436 -0.43345
v 0.29166 0.20459 0.43079
v 0.26635 0.19798 0.47217
v 0.25219 0.26432 -0.46591
v 0.28733 0.27819 -0.42358
v 0.32100 0.29700 -0.36500
v 0.28952 0.27849 0.42120
v 0.25241 0.26516 0.46497
v 0.35100 -0.31671 -0.30757
v 0.36531 -0.32369 -0.22531
v 0.37306 -0.32512 -0.13788
v 0.37711 -0.32378 -0.04911
v 0.38254 -0.32446 0.04615
v 0.36662 -0.32485 0.13969
v 0.36746 -0.32377 0.22715
v 0.35450 -0.31700 0.30283
v 0.35520 -0.25234 -0.39355
v 0.38658 -0.26347 -0.33475
v 0.40822 -0.29978 -0.26444
v 0.40714 -0.30029 0.26514
v 0.38608 -0.26529 0.33300
v 0.35604 -0.25300 0.39141
v 0.36143 -0.17245 -0.39935
v 0.39143 -0.17240 -0.33832
v 0.39099 -0.17243 0.33772
v 0.36197 -0.17240 0.39812
v 0.35534 -0.09246 -0.39353
v 0.38626 -0.08071 -0.33474
v 0.40822 -0.04500 -0.26444
v 0.40714 -0.04457 0.26514
v 0.38583 -0.07880 0.33300
v 0.35626 -0.09243 0.39136
v 0.34934 0.04974 -0.38689
v 0.37615 0.04301 -0.32922
v 0.38286 0.02577 -0.24132
v 0.37306 0.01450 -0.13788
v 0.37711 0.01578 -0.04911
v 0.36400 0.01832 0.03158
v 0.36662 0.01477 0.13969
v 0.38135 0.02420 0.24045
v 0.37778 0.04308 0.32720
v 0.34997 0.05034 0.38732
v 0.35863 0.11695 -0.39707
v 0.39129 0.11192 -0.33762
v 0.39073 0.11207 0.33656
v 0.35948 0.11703 0.39511
v 0.36030 0.19954 -0.39849
v 0.39167 0.20615 -0.33753
v 0.39091 0.20647 0.33652
v 0.36118 0.19925 0.39671
v 0.35330 0.26879 -0.39028
v 0.38292 0.27863 -0.33338
v 0.40822 0.29478 -0.26444
v 0.40714 0.29529 0.26514
v 0.38298 0.28025 0.33190
v 0.35360 0.26836 0.38920
v 0.42667 -0.31367 -0.21367
v 0.44329 -0.31814 -0.13271
v 0.44820 -0.32060 -0.05160
v 0.44782 -0.32100 0.03545
v 0.44256 -0.31844 0.12933
v 0.43033 -0.31367 0.20567
v 0.43658 -0.25275 -0.30385
v 0.46790 -0.25786 -0.22972
v 0.48393 -0.26823 -0.14557
v 0.49462 -0.26216 -0.05006
v 0.49437 -0.26234 0.04919
v 0.48401 -0.26782 0.14122
v 0.46852 -0.25899 0.22588
v 0.43683 -0.25214 0.30213
v 0.44052 -0.17247 -0.31381
v 0.47436 -0.17240 -0.23799
v 0.49034 -0.17242 -0.13855
v 0.50329 -0.17243 -0.08329
v 0.50323 -0.17242 0.08312
v 0.49049 -0.17242 0.13761
v 0.47520 -0.17240 0.23589
v 0.44032 -0.17239 0.31070
v 0.43653 -0.09253 -0.30423
v 0.46780 -0.08668 -0.22978
v 0.48384 -0.07664 -0.14485
v 0.49454 -0.08282 -0.04973
v 0.49438 -0.08226 0.04919
v 0.48396 -0.07621 0.14216
v 0.46833 -0.08499 0.22607
v 0.43689 -0.09332 0.30252
v 0.43014 0.05035 -0.29649
v 0.45730 0.04648 -0.22681
v 0.47881 0.04282 -0.14732
v 0.47581 0.03535 -0.04795
v 0.47475 0.03484 0.04095
v 0.47726 0.04179 0.14162
v 0.45784 0.04620 0.22324
v 0.43089 0.05020 0.29462
v 0.43915 0.11805 -0.31004
v 0.47256 0.11393 -0.23359
v 0.48767 0.11507 -0.14092
v 0.50072 0.10456 -0.05713
v 0.50060 0.10361 0.05717
v 0.48806 0.11572 0.13828
v 0.47342 0.11319 0.23038
v 0.43927 0.11634 0.30664
v 0.44030 0.19950 -0.31157
v 0.47391 0.20329 -0.23574
v 0.48814 0.20381 -0.13912
v 0.50187 0.22159 -0.06095
v 0.50175 0.22050 0.06310
v 0.48848 0.20331 0.13804
v 0.47470 0.20292 0.23303
v 0.44011 0.19966 0.30904
v 0.43356 0.26849 -0.30147
v 0.46389 0.27379 -0.22798
v 0.48338 0.28267 -0.14780
v 0.48796 0.28083 -0.04613
v 0.48808 0.28116 0.04276
v 0.48317 0.28328 0.14477
v 0.46484 0.27447 0.22452
v 0.43346 0.26720 0.30052
v 0.50525 -0.23050 -0.19225
v 0.51758 -0.24946 -0.13421
v 0.52854 -0.25623 -0.04532
v 0.52833 -0.25803 0.04301
v 0.51820 -0.25056 0.12990
v 0.50613 -0.23433 0.18660
v 0.50711 -0.17241 -0.19909
v 0.52512 -0.17239 -0.14201
v 0.53297 -0.17239 -0.04473
v 0.53270 -0.17240 0.04354
v 0.52589 -0.17240 0.13875
v 0.50813 -0.17196 0.19565
v 0.50525 -0.11425 -0.19225
v 0.51765 -0.09569 -0.13427
v 0.52854 -0.08781 -0.04447
v 0.52862 -0.08749 0.04325
v 0.51850 -0.09489 0.12951
v 0.50613 -0.11013 0.18660
v 0.51017 0.05103 -0.11730
v 0.51906 0.05000 -0.05160
v 0.51951 0.04976 0.04364
v 0.50986 0.05131 0.11720
v 0.50659 0.13435 -0.19803
v 0.52142 0.11511 -0.13946
v 0.53222 0.11737 -0.04399
v 0.53199 0.11785 0.04299
v 0.52238 0.11497 0.13516
v 0.50725 0.12808 0.19296
v 0.50715 0.18676 -0.19862
v 0.52367 0.20039 -0.14098
v 0.53342 0.19843 -0.04374
v 0.53330 0.19760 0.04319
v 0.52460 0.19991 0.13706
v 0.50791 0.19353 0.19379
v 0.51367 0.26442 -0.12743
v 0.52423 0.27232 -0.04672
v 0.52457 0.27170 0.04478
v 0.51438 0.26403 0.12433
usemtl m007
f 181 188 187
f 182 188 181
f 187 188 239
f 187 239 238
f 176 181 175
f 182 181 176
f 175 222 223
f 175 223 176
f 182 183 189
f 182 189 188
f 188 189 240
f 188 240 239
f 177 183 182
f 177 182 176
f 177 223 176
f 176 223 224
f 176 224 177
f 183 189 240
f 183 240 231
f 189 183 231
f 189 231 240
f 183 231 224
f 183 224 177
f 177 224 231
f 177 231 183
f 183 184 190
f 189 190 241
f 189 241 240
f 190 189 240
f 190 241 240
f 184 183 231
f 183 190 240
f 184 231 232
f 190 184 232
f 190 232 241
f 178 184 183
f 225 178 177
f 178 224 177
f 178 224 225
f 183 224 178
f 178 225 232
f 178 232 184
f 177 224 225
f 184 232 241
f 241 190 184
f 225 232 184
f 184 178 225
f 232 233 242
f 232 242 241
f 226 233 232
f 226 232 225
f 242 233 296
f 242 296 241
f 226 287 233
f 226 225 287
f 297 242 233
f 242 297 296
f 297 233 291
f 233 296 291
f 297 291 296
f 242 233 291
f 242 291 296
f 233 226 288
f 226 287 288
f 288 291 233
f 233 291 287
f 288 287 291
f 226 287 291
f 226 291 233
f 234 292 233
f 292 297 296
f 292 296 291
f 292 233 291
f 297 292 291
f 292 291 287
f 292 287 288
f 288 291 292
f 297 292 337
f 297 337 341
f 288 333 337
f 288 337 292
f 337 342 341
f 342 337 338
f 341 297 292
f 341 292 337
f 334 337 333
f 337 334 338
f 292 288 333
f 333 337 292
f 338 342 341
f 338 341 337
f 342 382 341
f 338 337 333
f 338 333 334
f 334 333 376
f 338 379 383
f 342 383 341
f 342 338 379
f 342 379 383
f 342 383 382
f 377 379 338
f 334 333 377
f 334 377 379
f 334 379 338
f 334 376 377
f 379 412 415
f 415 383 379
f 410 412 379
f 379 377 410
f 412 439 438
f 412 413 439
f 441 415 412
f 441 412 438
f 412 410 436
f 436 438 412
f 438 467 441
f 467 438 465
f 465 438 439
f 463 438 436
f 438 463 465
f 465 493 497
f 465 497 467
f 490 493 465
f 490 465 463
f 493 536 541
f 493 541 497
f 536 541 540
f 536 540 493
f 541 536 535
f 541 535 540
f 541 540 496
f 541 496 497
f 541 493 496
f 532 536 493
f 532 493 490
f 536 493 531
f 536 531 532
f 532 531 535
f 532 535 536
f 532 489 531
f 532 490 489
f 532 489 493
f 540 536 535
f 536 531 535
f 590 540 535
f 590 535 584
f 584 590 540
f 584 540 535
f 535 531 580
f 535 580 584
f 584 535 531
f 584 531 580
f 590 584 589
f 590 589 540
f 580 579 584
f 580 531 579
f 584 583 589
f 636 583 584
f 644 589 583
f 644 583 636
f 590 584 583
f 590 583 589
f 579 583 584
f 583 579 628
f 583 628 636
f 580 579 583
f 580 583 584
f 636 644 589
f 636 589 583
f 644 588 589
f 636 583 579
f 636 579 628
f 628 579 578
f 643 644 636
f 643 636 635
f 644 643 588
f 636 628 627
f 627 635 636
f 628 578 627
f 635 688 694
f 635 694 643
f 693 694 688
f 642 643 693
f 694 693 643
f 694 693 642
f 643 694 642
f 688 635 634
f 693 688 634
f 693 634 642
f 682 688 635
f 682 635 627
f 688 682 681
f 627 626 681
f 681 682 627
f 682 626 681
f 627 626 682
f 681 626 634
f 681 634 688
f 688 687 693
f 687 693 642
f 687 642 634
f 693 687 634
f 687 688 634
f 688 693 642
f 688 642 634
f 681 687 688
f 687 634 626
f 687 626 681
f 681 634 687
f 688 634 626
f 688 626 681
f 692 693 687
f 692 687 686
f 693 692 641
f 693 641 642
f 686 687 634
f 686 634 633
f 692 686 633
f 692 633 641
f 687 633 634
f 687 681 680
f 687 680 686
f 681 625 680
f 681 626 625
f 680 625 633
f 680 633 686
f 686 692 641
f 686 687 633
f 686 641 633
f 686 625 680
f 686 633 625
f 686 691 692
f 691 686 685
f 691 692 641
f 691 641 640
f 692 691 640
f 692 640 641
f 679 686 680
f 686 679 685
f 679 624 625
f 679 625 680
f 680 625 624
f 680 624 679
f 691 685 640
f 679 624 685
f 685 684 690
f 685 690 691
f 690 639 640
f 691 690 640
f 684 685 632
f 685 640 632
f 684 632 631
f 690 684 631
f 690 631 639
f 691 690 639
f 691 639 640
f 691 685 632
f 691 632 640
f 678 684 685
f 678 685 679
f 678 624 623
f 679 624 678
f 685 632 624
f 678 623 631
f 678 631 684
f 679 624 623
f 679 623 678
f 679 624 632
f 679 632 685
f 684 690 639
f 684 639 631
f 684 631 623
f 684 623 678
f 684 683 689
f 684 689 690
f 638 689 683
f 690 638 639
f 690 689 638
f 683 684 631
f 683 631 630
f 638 683 630
f 677 683 684
f 677 684 678
f 683 677 622
f 622 678 623
f 678 622 677
f 622 630 683
f 630 629 637
f 630 637 638
f 638 637 587
f 621 629 630
f 621 630 622
f 622 577 621
f 637 629 582
f 637 582 586
f 629 637 638
f 629 638 630
f 637 586 587
f 621 576 582
f 621 582 629
f 629 630 622
f 629 622 621
f 621 577 576
f 629 582 586
f 585 586 582
f 637 629 586
f 576 582 629
f 582 576 575
f 621 576 629
f 582 581 585
f 581 585 586
f 581 586 582
f 575 581 582
f 581 582 576
f 581 576 575
f 581 585 538
f 585 581 534
f 585 534 538
f 585 538 539
f 581 529 575
f 575 529 534
f 575 534 581
f 575 530 529
f 537 538 534
f 537 534 533
f 581 534 538
f 534 529 528
f 534 528 533
f 529 534 581
f 537 495 538
f 533 537 538
f 533 538 534
f 537 534 495
f 537 494 495
f 528 529 488
f 533 534 529
f 533 529 528
f 528 488 534
f 528 488 487
f 533 494 537
f 494 533 491
f 533 534 492
f 533 492 491
f 533 537 495
f 533 495 534
f 487 533 528
f 533 487 491
f 533 534 488
f 533 488 528
f 491 466 494
f 466 491 464
f 462 491 487
f 491 462 464
f 464 440 466
f 440 464 437
f 435 464 462
f 464 435 437
f 437 411 414
f 437 414 440
f 409 411 437
f 409 437 435
f 380 414 411
f 411 409 374
f 411 378 380
f 374 378 411
f 339 380 378
f 339 380 381
f 378 374 331
f 374 375 331
f 335 339 340
f 335 340 336
f 339 335 336
f 339 336 340
f 339 340 381
f 335 339 380
f 335 380 378
f 335 378 336
f 335 336 332
f 335 332 331
f 331 332 336
f 331 336 335
f 331 375 332
f 335 378 374
f 335 374 331
f 336 289 293
f 336 293 340
f 289 293 340
f 289 340 336
f 284 289 336
f 284 336 332
f 289 336 332
f 289 332 284
f 293 289 290
f 293 290 294
f 284 285 290
f 284 290 289
f 228 289 290
f 289 228 235
f 289 235 294
f 289 227 290
f 227 228 290
f 294 293 289
f 227 228 289
f 289 294 290
f 235 228 290
f 235 290 294
f 219 228 289
f 219 289 285
f 289 284 285
f 289 290 285
f 219 285 290
f 219 290 228
f 235 295 294
f 235 236 295
f 228 235 294
f 228 294 290
f 219 285 286
f 219 286 220
f 228 290 285
f 228 285 219
f 228 236 235
f 236 228 229
f 235 228 229
f 235 229 236
f 220 228 219
f 228 220 229
f 219 220 229
f 219 229 228
f 186 185 179
f 186 179 180
f 236 185 237
f 186 237 185
f 229 179 185
f 229 185 236
f 179 229 230
f 179 185 236
f 179 236 229
f 180 179 230
f 186 180 230
f 186 230 237
f 179 173 174
f 179 174 180
f 174 173 221
f 221 173 220
f 173 179 229
f 173 229 220
f 179 229 220
f 179 220 173
f 174 221 230
f 174 230 180
f 180 186 237
f 180 237 230
f 180 230 221
f 180 221 174
f 180 187 186
f 187 180 181
f 186 237 187
f 186 187 238
f 186 238 237
f 175 180 174
f 180 175 181
f 174 175 221
f 174 222 175
f 174 221 222
f 203 204 210
f 203 210 209
f 209 210 272
f 209 272 271
f 203 197 198
f 203 198 204
f 193 198 197
f 193 197 192
f 192 246 247
f 192 247 193
f 197 246 192
f 193 247 198
f 193 247 256
f 193 256 198
f 204 205 211
f 204 211 210
f 211 205 264
f 211 264 273
f 210 211 273
f 210 273 272
f 204 198 199
f 204 199 205
f 194 199 198
f 194 247 193
f 193 247 248
f 193 248 194
f 198 256 247
f 198 247 194
f 194 248 257
f 194 257 199
f 205 211 273
f 205 273 264
f 199 257 264
f 199 264 205
f 199 257 248
f 199 248 194
f 211 212 274
f 211 274 273
f 205 206 212
f 205 212 211
f 206 205 264
f 206 265 264
f 212 206 265
f 212 265 274
f 205 199 200
f 205 200 206
f 258 200 249
f 249 200 199
f 200 257 199
f 200 257 258
f 205 264 257
f 205 257 199
f 200 257 264
f 200 264 206
f 199 248 249
f 206 265 274
f 206 274 212
f 206 200 258
f 206 258 265
f 206 265 257
f 206 257 200
f 200 258 265
f 200 265 206
f 265 266 275
f 265 275 274
f 265 258 259
f 265 259 266
f 259 258 250
f 250 258 249
f 275 266 314
f 275 314 319
f 275 319 274
f 266 275 274
f 266 274 265
f 259 306 250
f 250 306 310
f 250 310 259
f 266 265 258
f 266 258 259
f 250 249 306
f 259 258 249
f 259 249 250
f 266 314 319
f 266 319 275
f 314 315 320
f 314 320 319
f 266 315 314
f 320 315 319
f 319 315 314
f 306 310 259
f 259 310 311
f 266 314 310
f 266 310 259
f 259 310 314
f 259 314 266
f 267 315 266
f 266 259 311
f 266 311 315
f 307 311 310
f 307 310 306
f 315 314 310
f 315 310 311
f 311 310 306
f 311 306 307
f 311 310 314
f 311 314 315
f 320 315 361
f 320 361 365
f 307 353 311
f 353 357 311
f 361 362 366
f 361 366 365
f 315 365 320
f 315 361 365
f 315 311 357
f 315 357 361
f 361 357 358
f 361 358 362
f 311 357 361
f 311 361 315
f 366 401 365
f 362 366 365
f 362 365 361
f 354 358 357
f 354 357 353
f 358 353 354
f 362 361 357
f 362 357 358
f 354 353 390
f 358 357 353
f 354 390 357
f 362 398 402
f 362 402 366
f 362 398 361
f 366 402 401
f 362 358 395
f 362 395 398
f 358 391 395
f 354 391 358
f 395 394 390
f 395 390 391
f 358 357 395
f 358 395 398
f 358 398 362
f 354 390 391
f 358 357 390
f 358 390 354
f 391 390 394
f 391 394 395
f 398 425 428
f 398 428 402
f 398 395 423
f 398 423 425
f 395 391 421
f 395 421 423
f 425 453 452
f 425 426 453
f 425 452 455
f 425 455 428
f 449 450 423
f 425 423 450
f 425 450 453
f 449 423 447
f 447 423 421
f 450 449 452
f 450 452 453
f 453 452 449
f 453 449 450
f 455 452 477
f 455 477 479
f 477 452 453
f 475 449 473
f 473 449 447
f 477 452 449
f 477 449 475
f 477 513 517
f 477 517 479
f 477 475 509
f 477 509 513
f 509 475 505
f 505 475 473
f 513 477 475
f 513 475 509
f 509 504 505
f 505 504 508
f 505 508 509
f 513 561 566
f 513 566 517
f 561 560 513
f 566 561 560
f 566 560 565
f 566 565 516
f 561 566 516
f 561 516 560
f 561 512 513
f 566 561 512
f 566 512 516
f 517 566 516
f 513 509 557
f 513 557 561
f 557 509 553
f 553 509 505
f 557 509 556
f 561 513 509
f 561 509 557
f 557 556 560
f 557 560 561
f 553 504 552
f 557 508 504
f 557 504 553
f 557 556 508
f 553 552 556
f 553 556 557
f 557 509 508
f 505 504 553
f 509 508 504
f 553 504 508
f 553 508 557
f 561 560 565
f 561 565 566
f 556 557 552
f 561 560 556
f 561 556 557
f 560 608 614
f 560 614 565
f 608 614 565
f 608 565 560
f 560 556 604
f 560 604 608
f 600 604 556
f 556 552 600
f 614 608 607
f 614 607 613
f 614 613 565
f 604 599 600
f 600 599 603
f 600 603 604
f 608 560 556
f 608 556 604
f 600 552 599
f 604 556 552
f 604 552 600
f 668 607 608
f 607 668 613
f 608 607 613
f 608 613 614
f 604 603 660
f 608 604 603
f 608 603 607
f 603 604 599
f 604 603 607
f 604 607 608
f 676 612 613
f 668 676 613
f 676 668 607
f 676 607 613
f 607 603 660
f 607 660 668
f 652 660 603
f 652 603 599
f 660 599 652
f 668 607 603
f 668 603 660
f 652 599 598
f 660 603 599
f 668 667 675
f 668 675 676
f 676 675 612
f 676 668 667
f 676 667 675
f 659 660 651
f 651 660 652
f 660 659 667
f 660 667 668
f 652 598 651
f 660 603 598
f 660 598 652
f 652 651 659
f 652 659 660
f 668 660 659
f 668 659 667
f 674 675 714
f 667 710 675
f 710 709 714
f 710 714 675
f 710 709 666
f 667 710 666
f 714 709 666
f 714 666 674
f 667 659 704
f 667 704 710
f 658 659 650
f 650 659 651
f 659 658 703
f 703 704 659
f 704 658 703
f 659 658 704
f 704 658 666
f 704 666 710
f 709 714 674
f 709 674 666
f 710 704 703
f 710 703 709
f 703 658 650
f 703 650 698
f 709 666 658
f 709 658 703
f 703 658 666
f 703 666 709
f 698 650 658
f 698 658 703
f 710 666 658
f 710 658 704
f 709 708 713
f 709 713 714
f 709 708 665
f 709 665 666
f 708 709 666
f 708 666 665
f 714 673 674
f 713 708 665
f 713 665 673
f 714 713 673
f 702 703 697
f 697 703 698
f 703 657 702
f 703 658 657
f 702 657 658
f 702 658 703
f 698 650 649
f 698 649 697
f 697 649 657
f 697 657 702
f 708 713 673
f 708 673 665
f 709 703 702
f 709 702 708
f 702 657 649
f 702 649 697
f 709 665 657
f 709 657 703
f 708 707 712
f 708 712 713
f 712 707 664
f 712 664 672
f 707 708 665
f 707 665 664
f 713 712 672
f 713 672 673
f 701 702 696
f 696 702 697
f 701 656 657
f 701 657 702
f 697 649 648
f 697 648 696
f 696 648 656
f 696 656 701
f 707 712 672
f 707 672 664
f 701 656 648
f 701 648 696
f 707 706 711
f 707 711 712
f 706 663 664
f 707 706 664
f 711 706 663
f 711 663 671
f 712 711 671
f 712 671 672
f 707 701 700
f 707 700 706
f 695 700 701
f 695 701 696
f 700 656 655
f 701 656 700
f 700 656 664
f 700 664 706
f 696 648 647
f 696 647 695
f 695 647 655
f 695 655 700
f 706 711 671
f 706 671 663
f 695 647 700
f 706 663 655
f 706 655 700
f 700 655 663
f 700 663 706
f 700 655 647
f 706 662 670
f 706 670 711
f 711 670 671
f 706 705 662
f 706 662 663
f 705 706 663
f 705 663 662
f 706 700 699
f 706 699 705
f 646 654 655
f 646 655 647
f 654 700 655
f 700 654 699
f 699 655 700
f 699 654 655
f 699 655 663
f 699 663 705
f 705 699 654
f 705 654 662
f 705 663 655
f 705 655 699
f 662 661 669
f 662 669 670
f 670 669 611
f 662 654 653
f 662 653 661
f 653 654 645
f 645 654 646
f 646 593 645
f 645 593 654
f 669 661 606
f 669 606 610
f 661 669 610
f 661 610 606
f 669 610 611
f 661 669 670
f 661 670 662
f 645 592 653
f 653 602 606
f 653 606 661
f 653 602 592
f 661 662 654
f 661 654 653
f 645 593 592
f 653 654 593
f 653 593 645
f 645 592 602
f 645 602 653
f 661 653 602
f 661 602 606
f 605 609 610
f 605 610 606
f 609 605 606
f 609 606 610
f 606 602 601
f 606 601 605
f 591 601 602
f 591 602 592
f 605 606 602
f 605 602 601
f 601 602 592
f 601 592 591
f 609 605 559
f 609 559 563
f 605 609 563
f 605 563 559
f 609 563 564
f 555 601 543
f 543 601 591
f 601 555 559
f 601 559 605
f 591 544 543
f 591 543 555
f 591 555 601
f 559 558 563
f 605 601 555
f 605 555 559
f 558 511 559
f 562 514 515
f 562 558 511
f 562 511 515
f 562 515 563
f 558 562 563
f 562 558 559
f 562 559 563
f 555 543 554
f 554 543 542
f 558 555 554
f 554 555 507
f 558 559 555
f 554 555 559
f 554 559 558
f 542 499 498
f 542 543 499
f 542 499 507
f 542 507 554
f 542 543 555
f 542 555 554
f 514 558 510
f 558 514 562
f 558 510 511
f 558 562 515
f 558 515 511
f 558 554 506
f 558 506 510
f 498 506 554
f 506 507 499
f 506 499 498
f 554 507 506
f 554 506 510
f 554 510 558
f 554 507 499
f 554 499 498
f 498 499 507
f 498 507 506
f 498 468 506
f 510 476 478
f 514 510 478
f 510 506 474
f 510 474 476
f 474 506 468
f 506 474 476
f 506 476 510
f 468 442 474
f 476 451 454
f 476 454 478
f 476 474 448
f 476 448 451
f 442 448 474
f 448 442 416
f 451 424 427
f 451 427 454
f 451 448 422
f 451 422 424
f 416 422 448
f 424 396 399
f 424 399 427
f 422 416 384
f 396 399 427
f 396 427 424
f 424 422 392
f 424 392 396
f 392 422 384
f 396 359 363
f 396 363 399
f 363 399 400
f 392 384 343
f 384 385 343
f 392 385 384
f 343 385 393
f 343 393 392
f 363 359 360
f 363 360 364
f 359 363 364
f 359 364 360
f 359 360 397
f 359 397 396
f 359 396 360
f 363 364 400
f 359 363 400
f 359 400 396
f 355 343 344
f 396 392 355
f 396 355 359
f 343 355 392
f 355 356 360
f 355 360 359
f 355 356 344
f 355 393 356
f 355 392 393
f 355 356 392
f 343 385 344
f 392 393 385
f 392 385 343
f 343 344 356
f 343 356 355
f 359 355 356
f 359 356 360
f 360 312 316
f 360 316 364
f 312 316 364
f 312 364 360
f 360 356 312
f 312 356 308
f 308 356 298
f 298 356 344
f 308 356 344
f 308 344 298
f 308 356 360
f 308 360 312
f 316 312 313
f 316 313 317
f 308 309 299
f 308 299 298
f 298 299 309
f 298 309 308
f 261 312 313
f 312 260 313
f 260 261 313
f 313 261 268
f 313 268 317
f 312 313 317
f 312 317 316
f 260 261 312
f 308 252 309
f 309 251 308
f 252 251 309
f 312 308 251
f 312 251 260
f 260 251 252
f 260 252 261
f 309 299 243
f 309 243 252
f 251 308 252
f 312 313 309
f 312 309 308
f 252 309 313
f 252 313 261
f 308 309 313
f 308 313 312
f 268 318 317
f 261 268 317
f 261 317 313
f 268 269 318
f 261 313 309
f 261 309 252
f 243 299 300
f 252 309 299
f 252 299 243
f 243 244 252
f 243 300 244
f 269 261 262
f 261 269 268
f 268 261 262
f 268 262 269
f 244 253 252
f 252 253 262
f 252 262 261
f 261 252 253
f 261 253 262
f 269 207 270
f 208 270 207
f 201 202 208
f 201 208 207
f 201 207 269
f 262 201 269
f 201 202 263
f 201 263 262
f 208 202 263
f 208 263 270
f 201 207 270
f 201 270 262
f 207 201 262
f 207 262 269
f 196 195 245
f 245 195 253
f 245 253 244
f 191 196 245
f 195 196 191
f 262 253 195
f 262 195 201
f 195 254 196
f 195 253 254
f 201 262 253
f 201 253 195
f 195 254 263
f 195 263 201
f 253 254 245
f 191 245 254
f 191 254 196
f 202 208 270
f 202 270 263
f 201 195 196
f 201 196 202
f 202 263 254
f 202 254 196
f 196 254 263
f 196 263 202
f 196 254 245
f 201 263 254
f 201 254 195
f 202 203 209
f 202 209 208
f 202 263 203
f 208 209 271
f 208 271 270
f 197 196 192
f 192 196 191
f 196 197 203
f 196 203 202
f 196 197 254
f 191 246 192
f 196 254 246
f 196 246 191
f 192 246 255
f 192 255 197
f 191 245 246
f 191 246 254
f 202 196 197
f 202 197 203
f 197 255 246
f 350 388 351
f 349 350 303
f 303 347 349
f 349 347 348
f 346 387 347
f 546 501 545
f 548 547 546
f 550 502 549
f 546 596 548
f 548 596 549
f 281 216 280
f 215 214 278
f 215 278 279
f 277 322 323
f 322 368 369
f 481 519 482
f 569 617 570
f 617 618 571
f 617 571 570
f 526 525 573
f 436 410 408
f 436 408 434
f 410 377 408
f 377 373 408
f 377 334 373
f 334 333 330
f 334 330 373
f 333 288 283
f 333 283 330
f 371 372 328
f 288 287 283
f 287 226 218
f 287 218 283
f 226 225 218
f 327 328 281
f 225 224 217
f 225 217 218
f 224 177 217
f 326 327 281
f 326 281 280
f 177 176 216
f 177 216 217
f 176 175 215
f 176 215 216
f 175 221 214
f 175 214 215
f 324 325 279
f 324 279 278
f 221 220 213
f 221 213 214
f 220 219 276
f 220 276 213
f 219 285 276
f 285 284 321
f 285 321 276
f 370 323 322
f 284 332 321
f 370 322 369
f 332 374 368
f 332 368 321
f 374 367 368
f 374 409 403
f 374 403 367
f 409 435 429
f 409 429 403
f 435 462 456
f 435 456 429
f 462 487 480
f 462 480 456
f 487 481 480
f 487 529 518
f 487 518 481
f 529 576 567
f 529 567 518
f 483 482 520
f 576 621 567
f 621 622 615
f 621 615 567
f 622 623 616
f 622 616 615
f 522 521 569
f 522 569 570
f 623 624 617
f 623 617 616
f 624 679 617
f 679 680 618
f 679 618 617
f 523 522 570
f 523 570 571
f 680 626 619
f 680 619 618
f 524 523 571
f 524 571 572
f 626 627 620
f 626 620 619
f 627 628 573
f 627 573 620
f 628 579 574
f 628 574 573
f 580 531 527
f 580 527 526
f 484 525 485
f 531 490 486
f 531 486 527
f 459 484 485
f 490 463 461
f 490 461 486
f 463 436 434
f 463 434 461
f 373 330 372
f 372 330 329
f 329 283 282
f 281 217 216
f 277 276 322
f 519 567 520
f 520 567 568
f 569 616 617
f 571 618 619
f 571 619 572
f 526 486 485
f 433 434 408
f 433 408 407
f 407 406 432
f 407 432 433
f 407 408 373
f 373 372 406
f 373 406 407
f 330 283 329
f 329 328 372
f 282 328 329
f 283 218 282
f 281 328 282
f 282 217 281
f 282 218 217
f 215 279 280
f 215 280 216
f 214 213 278
f 278 213 277
f 277 324 278
f 277 213 276
f 323 324 277
f 276 321 322
f 322 321 368
f 404 369 368
f 404 405 369
f 368 367 403
f 368 403 404
f 404 403 429
f 404 429 430
f 430 431 405
f 430 405 404
f 430 429 456
f 430 456 457
f 457 431 430
f 457 458 431
f 457 456 480
f 457 480 481
f 481 482 457
f 482 458 457
f 481 518 519
f 519 518 567
f 520 482 519
f 568 567 615
f 568 521 520
f 569 521 568
f 569 568 616
f 568 615 616
f 572 619 573
f 619 620 573
f 573 525 572
f 525 524 572
f 573 574 526
f 485 525 526
f 526 527 486
f 486 460 485
f 460 459 485
f 486 461 460
f 460 461 434
f 460 434 433
f 433 432 459
f 433 459 460
f 579 580 526
f 579 526 574
f 288 333 334
f 292 288 334
f 292 334 338
f 342 341 297
f 338 342 297
f 338 297 292
f 233 288 292
f 292 297 242
f 292 242 233
f 183 189 188
f 183 188 182
f 181 187 186
f 181 186 180
f 220 221 174
f 229 220 174
f 229 174 180
f 186 237 236
f 180 186 236
f 180 236 229
f 284 285 219
f 289 284 219
f 235 294 293
f 228 235 293
f 228 293 289
f 374 332 331
f 378 331 335
f 339 340 380
f 378 380 414
f 378 414 411
f 411 414 440
f 411 440 437
f 464 466 494
f 464 494 491
f 684 623 622
f 684 622 630
f 630 638 639
f 630 639 684
f 685 691 692
f 685 692 686
f 635 643 644
f 635 644 636
f 532 490 531
f 541 540 497
f 493 497 467
f 493 467 465
f 438 441 415
f 438 415 412
f 412 415 383
f 412 383 379
f 338 334 377
f 233 242 241
f 233 241 232
f 184 241 189
f 184 189 183
f 183 177 225
f 183 225 184
f 182 188 187
f 182 187 181
f 437 440 466
f 437 466 464
f 494 538 537
f 491 494 537
f 491 537 533
f 528 529 487
f 684 690 691
f 684 691 685
f 686 692 693
f 686 693 687
f 687 693 643
f 687 643 635
f 635 627 681
f 635 681 687
f 644 589 590
f 636 644 590
f 636 590 584
f 580 579 628
f 584 580 628
f 584 628 636
f 536 541 497
f 536 497 493
f 465 467 441
f 465 441 438
f 680 681 626
f 575 576 529
f 315 311 358
f 315 358 362
f 262 253 196
f 262 196 202
f 312 308 252
f 312 252 261
f 706 700 654
f 706 654 662
f 708 702 701
f 708 701 707
f 449 452 425
f 449 425 423
f 304 247 303
f 246 245 301
f 246 301 302
f 300 345 346
f 345 385 386
f 499 544 500
f 594 648 595
f 648 649 596
f 648 596 595
f 703 709 667
f 703 667 659
f 660 668 608
f 660 608 604
f 551 550 598
f 475 477 452
f 475 452 449
f 391 390 421
f 353 307 306
f 388 389 351
f 350 351 304
f 349 350 304
f 349 304 303
f 194 247 248
f 193 192 246
f 193 246 247
f 192 245 246
f 347 348 302
f 347 302 301
f 244 243 299
f 299 298 344
f 387 346 345
f 387 345 386
f 344 384 385
f 498 543 499
f 501 500 545
f 645 646 592
f 547 546 594
f 547 594 595
f 696 697 649
f 696 649 648
f 548 547 595
f 548 595 596
f 697 650 649
f 549 596 597
f 600 552 551
f 502 550 503
f 552 505 504
f 471 502 503
f 505 473 504
f 390 353 389
f 389 353 352
f 352 306 305
f 304 248 247
f 300 299 345
f 544 592 545
f 545 592 593
f 594 647 648
f 596 649 650
f 596 650 597
f 551 504 503
f 446 447 421
f 446 421 420
f 420 419 445
f 420 445 446
f 420 421 390
f 390 389 419
f 390 419 420
f 353 306 352
f 352 351 389
f 305 351 352
f 306 249 305
f 304 351 305
f 305 248 304
f 305 249 248
f 246 302 303
f 246 303 247
f 245 244 301
f 301 244 300
f 300 347 301
f 300 244 299
f 346 347 300
f 299 344 345
f 345 344 385
f 417 386 385
f 417 418 386
f 385 384 416
f 385 416 417
f 417 416 442
f 417 442 443
f 443 444 418
f 443 418 417
f 443 442 468
f 443 468 469
f 469 444 443
f 469 470 444
f 469 468 498
f 469 498 499
f 499 500 469
f 500 470 469
f 499 543 544
f 544 543 592
f 545 500 544
f 593 592 646
f 593 546 545
f 594 546 593
f 594 593 647
f 593 646 647
f 597 650 598
f 650 651 598
f 598 550 597
f 550 549 597
f 598 599 551
f 503 550 551
f 551 552 504
f 504 472 503
f 472 471 503
f 504 473 472
f 472 473 447
f 472 447 446
f 446 445 471
f 446 471 472
f 599 600 551
f 311 353 358
f 366 365 320
f 362 366 320
f 362 320 315
f 259 306 311
f 320 319 275
f 315 320 275
f 315 275 266
f 198 193 194
f 205 211 210
f 205 210 204
f 203 209 208
f 203 208 202
f 253 245 196
f 208 270 269
f 202 208 269
f 202 269 262
f 308 299 252
f 268 317 316
f 261 268 316
f 261 316 312
f 392 384 344
f 392 344 355
f 363 364 399
f 359 363 399
f 359 399 396
f 424 427 454
f 424 454 451
f 476 478 514
f 476 514 510
f 662 670 671
f 662 671 706
f 707 712 713
f 707 713 708
f 557 505 552
f 566 565 517
f 475 473 509
f 513 517 479
f 513 479 477
f 452 455 428
f 452 428 425
f 425 428 402
f 425 402 398
f 398 402 366
f 398 366 362
f 206 274 211
f 206 211 205
f 199 249 258
f 199 258 200
f 204 210 209
f 204 209 203
f 451 454 478
f 451 478 476
f 514 563 562
f 510 514 562
f 510 562 558
f 554 543 498
f 706 711 712
f 706 712 707
f 701 696 647
f 701 647 700
f 708 713 714
f 708 714 709
f 709 714 675
f 709 675 667
f 659 650 703
f 676 613 614
f 668 676 614
f 668 614 608
f 604 599 660
f 561 566 517
f 561 517 513
f 509 505 557
f 509 473 505
f 697 698 650
f 192 191 245
f 591 592 543
v 0.50500 -0.04700 -0.10500
v 0.50500 0.29300 -0.10500
v 0.51450 0.29300 0.03450
v 0.51450 -0.04700 0.03450
v 0.51554 -0.04091 -0.05636
v 0.45175 -0.04700 -0.24775
v 0.45800 0.29300 -0.23800
v 0.49886 0.30087 -0.12400
v 0.49400 0.29300 0.15000
v 0.44570 0.29704 0.25997
v 0.50846 0.29933 0.08021
v 0.49400 -0.04700 0.15000
v 0.41284 0.32842 0.14727
v 0.42200 0.29300 -0.29800
v 0.42150 -0.04700 0.29700
v 0.44650 0.29300 0.25750
v 0.42586 0.32909 -0.09750
v 0.46775 -0.03416 0.20963
v 0.36100 -0.04700 -0.37000
v 0.36100 0.29300 -0.37000
v 0.40971 -0.00997 -0.11083
v 0.37600 0.29300 0.35300
v 0.32608 0.30858 0.38663
v 0.40570 0.29788 -0.32251
v 0.29784 -0.03101 0.40916
v 0.35030 -0.01033 0.22415
v 0.27750 -0.04700 -0.43400
v 0.27750 0.29300 -0.43400
v 0.35075 -0.04700 0.37600
v 0.32550 0.29300 0.39900
v 0.30625 0.31000 -0.00050
v 0.06829 0.32166 -0.37932
v 0.39924 -0.03637 -0.32877
v 0.39135 0.32536 0.06307
v 0.14807 -0.01202 0.39414
v 0.06792 -0.01647 -0.38596
v 0.29612 -0.02900 0.02238
v 0.13600 -0.02900 0.27738
v 0.15250 0.31000 0.27700
v 0.14225 -0.04044 0.49486
v 0.24750 0.29300 0.45150
v 0.25808 0.30358 -0.43841
v 0.10475 -0.04700 -0.50450
v 0.16200 0.29300 -0.49100
v 0.19961 -0.04022 -0.47296
v 0.24750 -0.04700 0.45150
v 0.18400 0.29300 0.48200
v 0.00830 0.32945 0.43671
v 0.25771 -0.01147 -0.35211
v 0.14497 -0.02662 0.30853
v 0.07000 0.29300 -0.51200
v 0.17500 0.30056 0.48569
v 0.15960 0.29732 -0.49291
v 0.31952 0.32723 -0.30958
v 0.01181 0.32933 -0.43381
v -0.06813 -0.03577 0.50787
v 0.09400 -0.04700 0.50700
v 0.20947 0.32974 0.36399
v -0.02300 -0.04700 -0.51400
v -0.02300 0.29300 -0.51400
v -0.01309 -0.01133 -0.43726
v -0.13006 -0.02900 0.27188
v -0.19081 0.31000 0.21756
v -0.05962 0.29819 0.51138
v 0.09400 0.29300 0.50700
v 0.09175 0.31000 -0.30125
v -0.04245 -0.01066 0.42531
v -0.22514 0.32209 -0.30027
v -0.18300 -0.04700 -0.48250
v -0.16100 0.29300 -0.49100
v -0.00465 -0.03933 -0.51735
v -0.05559 0.29829 -0.51281
v -0.07000 0.29300 0.51000
v 0.03725 -0.02900 -0.28556
v -0.19099 0.30452 0.47294
v -0.33294 -0.01481 -0.21578
v -0.09825 -0.04700 0.50075
v -0.24650 0.29300 -0.45150
v -0.18400 0.29300 0.48200
v -0.26871 0.32745 0.36195
v -0.19964 0.29648 -0.47592
v -0.28800 -0.04700 -0.42900
v -0.25775 -0.03910 0.44210
v -0.25201 -0.00970 0.34274
v -0.22700 -0.04700 0.46300
v -0.27988 -0.02900 -0.07581
v -0.23391 -0.03381 -0.45149
v -0.18875 0.32300 0.33796
v -0.39317 0.29949 0.33418
v -0.42268 0.32874 0.05061
v -0.24338 0.31000 -0.14663
v -0.36775 -0.04700 -0.36025
v -0.37650 0.29300 -0.35250
v -0.30446 0.29890 -0.41652
v -0.41010 -0.03397 -0.30695
v -0.28750 0.29300 0.42700
v -0.40700 -0.00968 0.09140
v -0.30854 -0.01098 -0.29677
v -0.28335 0.32646 -0.35625
v -0.38935 -0.03435 0.32881
v -0.37700 -0.04700 0.35200
v -0.40266 0.29708 -0.31986
v -0.46550 -0.04700 -0.21575
v -0.44700 0.29300 -0.25900
v -0.37902 0.32948 -0.22496
v -0.43030 0.29935 -0.27594
v -0.48819 0.29828 0.16455
v -0.44749 -0.01427 -0.00315
v -0.45523 0.29655 -0.23962
v -0.48600 0.29300 -0.17300
v -0.51290 0.30133 -0.05493
v -0.46200 -0.04700 0.22575
v -0.44925 0.29300 0.24550
v -0.50000 0.29300 -0.12800
v -0.50500 0.29300 0.10400
v -0.49235 -0.04065 0.15218
v -0.51500 -0.04700 -0.03600
v -0.51450 0.29300 -0.00075
v -0.51178 -0.03999 -0.07294
v -0.50950 -0.04700 0.06925
usemtl m028
f 798 776 800
f 798 800 811
f 811 800 790
f 790 800 788
f 790 788 750
f 750 788 735
f 735 788 751
f 735 751 740
f 764 752 776
f 764 776 798
f 781 797 770
f 781 814 797
f 781 798 814
f 798 811 814
f 811 830 814
f 811 822 830
f 812 809 822
f 822 809 833
f 822 811 790
f 812 822 790
f 812 801 809
f 812 790 775
f 775 801 812
f 775 790 750
f 801 775 785
f 775 763 759
f 763 775 750
f 763 750 735
f 763 735 747
f 747 735 719
f 735 732 719
f 735 740 732
f 781 740 764
f 749 740 781
f 749 770 739
f 739 770 754
f 749 781 770
f 781 764 798
f 764 740 751
f 764 751 752
f 740 749 739
f 732 740 739
f 799 791 770
f 799 770 797
f 815 799 797
f 815 797 814
f 826 815 814
f 826 814 830
f 834 826 830
f 834 830 833
f 831 834 833
f 817 831 833
f 817 833 809
f 806 817 809
f 796 806 809
f 796 809 801
f 783 796 801
f 783 801 785
f 773 783 785
f 757 773 785
f 757 785 759
f 741 757 759
f 741 759 747
f 733 741 747
f 720 733 747
f 720 747 719
f 715 720 719
f 718 715 719
f 718 719 732
f 726 718 732
f 729 726 732
f 760 743 739
f 760 739 754
f 771 760 754
f 771 754 770
f 791 771 770
f 743 729 732
f 743 732 739
f 833 830 822
f 785 775 759
f 747 759 763
f 802 777 804
f 804 777 805
f 804 805 782
f 782 805 746
f 746 805 780
f 746 780 731
f 731 780 745
f 731 745 748
f 772 753 777
f 772 777 802
f 794 762 802
f 804 794 802
f 794 804 821
f 794 821 803
f 804 825 821
f 804 819 825
f 819 804 782
f 813 808 819
f 813 819 782
f 813 769 786
f 769 782 746
f 769 813 782
f 768 769 746
f 769 768 756
f 769 756 767
f 768 738 756
f 768 746 731
f 768 722 738
f 768 731 722
f 727 731 748
f 731 727 725
f 772 762 766
f 762 794 789
f 762 772 802
f 772 748 745
f 772 745 753
f 737 727 772
f 772 727 748
f 737 772 766
f 787 779 778
f 793 787 778
f 793 778 789
f 810 793 789
f 810 789 803
f 827 810 803
f 827 803 821
f 829 827 821
f 832 829 821
f 832 821 825
f 828 832 825
f 824 828 825
f 824 825 823
f 818 824 823
f 818 823 816
f 807 818 816
f 807 816 808
f 792 807 808
f 792 808 795
f 784 792 795
f 784 795 786
f 774 784 786
f 765 774 786
f 765 786 767
f 758 765 767
f 742 758 767
f 742 767 756
f 742 756 738
f 734 742 738
f 728 734 738
f 721 728 738
f 721 738 722
f 716 721 722
f 717 716 722
f 717 722 725
f 723 717 725
f 723 725 724
f 730 723 724
f 744 736 737
f 755 744 737
f 755 737 766
f 761 755 766
f 779 761 766
f 779 766 778
f 736 730 724
f 736 724 737
f 778 762 789
f 803 789 794
f 823 825 820
f 820 825 819
f 816 823 820
f 820 819 808
f 808 816 820
f 795 808 786
f 786 808 813
f 767 786 769
f 722 731 725
f 724 725 727
f 724 727 737
f 778 766 762
