# fh16_wheel_rl.obj - ISO 8855 (x ileri, y sol, z yukari), metre
mtllib fh16.mtl
o fh16_wheel_rl
v -0.58645 -0.26124 0.39584
v -0.58595 -0.12255 0.39514
v -0.58696 0.00000 0.39549
v -0.58658 0.13577 0.39537
v -0.58643 0.25875 0.39550
v -0.58618 0.36109 0.39565
v -0.51452 -0.28993 0.40484
v -0.47241 -0.27918 0.50545
v -0.57057 -0.11848 0.40505
v -0.47557 -0.11887 0.51027
v -0.55950 0.01150 0.43600
v -0.47950 0.01150 0.51500
v -0.56760 0.15420 0.41810
v -0.47883 0.13650 0.51450
v -0.57031 0.22386 0.40470
v -0.47527 0.23138 0.50977
v -0.51395 0.38708 0.40455
v -0.47170 0.38190 0.50450
v -0.41350 -0.29058 0.43374
v -0.38575 -0.28600 0.53563
v -0.38930 -0.11887 0.55820
v -0.39150 0.01150 0.56400
v -0.39133 0.13650 0.56333
v -0.38904 0.23138 0.55762
v -0.41350 0.38658 0.43374
v -0.38537 0.38693 0.53373
v -0.27282 -0.29223 0.53064
v -0.28150 -0.25625 0.59950
v -0.27958 -0.11869 0.59246
v -0.28150 -0.12000 0.59900
v -0.28150 0.01150 0.60000
v -0.28100 0.18050 0.59750
v -0.28150 0.11450 0.59975
v -0.27932 0.22109 0.59155
v -0.28150 0.28800 0.59950
v -0.27282 0.38832 0.53064
v -0.28150 0.36633 0.59933
v -0.13712 -0.29531 0.55115
v -0.15150 -0.26786 0.61357
v -0.15030 -0.11887 0.61033
v -0.15150 0.01150 0.61700
v -0.15117 0.13650 0.61600
v -0.15027 0.23138 0.60977
v -0.13712 0.39146 0.55115
v -0.15150 0.37283 0.61300
v -0.01175 -0.29525 0.55158
v -0.01050 -0.27137 0.61513
v -0.01050 -0.11887 0.61420
v -0.01050 0.01150 0.62100
v -0.01050 0.13650 0.61983
v -0.01050 0.23138 0.61369
v -0.01175 0.39142 0.55158
v -0.01050 0.37557 0.61429
v 0.11104 -0.29531 0.55115
v 0.12950 -0.26786 0.61357
v 0.12890 -0.11887 0.61033
v 0.12950 0.01150 0.61700
v 0.12950 0.13650 0.61600
v 0.12881 0.23138 0.60977
v 0.11104 0.39146 0.55115
v 0.12950 0.37283 0.61300
v 0.24667 -0.29261 0.52887
v 0.25950 -0.25625 0.59950
v 0.25827 -0.11869 0.59246
v 0.25950 -0.12000 0.59900
v 0.25950 0.01150 0.60000
v 0.25950 0.18050 0.59750
v 0.25950 0.11450 0.59975
v 0.25805 0.22109 0.59155
v 0.25950 0.28800 0.59950
v 0.24667 0.38870 0.52887
v 0.25950 0.36633 0.59933
v 0.40817 -0.28882 0.41885
v 0.37150 -0.28600 0.53487
v 0.36750 -0.11887 0.55820
v 0.37050 0.01150 0.56400
v 0.37000 0.13650 0.56333
v 0.36727 0.23138 0.55762
v 0.40817 0.38491 0.41885
v 0.37157 0.38693 0.53293
v 0.55133 -0.29000 0.18500
v 0.51479 -0.29275 0.28763
v 0.49907 -0.29098 0.39755
v 0.45240 -0.27700 0.50710
v 0.55379 -0.11870 0.39789
v 0.45397 -0.11887 0.51027
v 0.54468 0.01591 0.42427
v 0.45750 0.01150 0.51500
v 0.55270 0.15957 0.40649
v 0.45700 0.13650 0.51450
v 0.55332 0.22369 0.39785
v 0.45365 0.23138 0.50977
v 0.55133 0.38600 0.18500
v 0.51479 0.38875 0.28763
v 0.49815 0.38753 0.39728
v 0.45183 0.38022 0.50622
v 0.63167 -0.29367 -0.23600
v 0.62717 -0.29367 -0.12600
v 0.63006 -0.29488 0.01976
v 0.63597 -0.28482 0.14703
v 0.60997 -0.28106 0.28183
v 0.56867 -0.26238 0.38990
v 0.66958 -0.11884 0.14386
v 0.61837 -0.11887 0.28422
v 0.56882 -0.12484 0.38677
v 0.67288 0.01113 0.15362
v 0.62567 0.01150 0.28417
v 0.56864 -0.00073 0.39146
v 0.67229 0.14264 0.15307
v 0.62444 0.13650 0.28456
v 0.56846 0.13743 0.39086
v 0.66936 0.22357 0.14310
v 0.61778 0.23138 0.28410
v 0.56934 0.24878 0.38559
v 0.63167 0.38967 -0.23600
v 0.62717 0.38967 -0.12600
v 0.63006 0.39104 0.01976
v 0.63369 0.38559 0.14647
v 0.60856 0.38345 0.28158
v 0.56841 0.36261 0.38979
v 0.71595 -0.27936 -0.23600
v 0.71132 -0.27932 -0.12600
v 0.70150 -0.26907 0.01000
v 0.72550 -0.12000 -0.23600
v 0.72100 -0.11967 -0.12600
v 0.70467 -0.11983 0.01717
v 0.72550 0.01150 -0.23600
v 0.72100 0.01150 -0.12600
v 0.70438 0.00938 0.01850
v 0.72550 0.11675 -0.23600
v 0.72100 0.11688 -0.12600
v 0.70425 0.11963 0.01912
v 0.72550 0.26067 -0.23600
v 0.72100 0.26050 -0.12600
v 0.70417 0.25667 0.01950
v 0.71500 0.38210 -0.23600
v 0.71035 0.38210 -0.12600
v 0.70127 0.37508 0.00769
usemtl m001
f 79 80 95
f 128 127 130
f 128 130 131
f 79 71 80
f 49 57 58
f 49 58 50
f 57 66 68
f 57 68 58
f 118 112 135
f 118 135 138
f 112 132 135
f 132 112 109
f 95 96 92
f 95 92 91
f 119 120 114
f 119 114 113
f 136 137 134
f 136 134 133
f 131 130 133
f 131 133 134
f 96 80 78
f 96 78 92
f 80 72 70
f 80 70 78
f 118 138 117
f 116 117 137
f 96 95 80
f 115 116 137
f 115 137 136
f 53 51 59
f 53 59 61
f 70 72 61
f 70 61 59
f 52 53 60
f 117 138 137
f 53 61 60
f 71 60 61
f 71 72 80
f 72 71 61
f 67 69 59
f 67 59 58
f 51 50 58
f 51 58 59
f 90 92 78
f 90 78 77
f 69 67 77
f 69 77 78
f 90 89 91
f 90 91 92
f 113 110 109
f 113 109 112
f 68 67 58
f 67 68 77
f 70 69 78
f 69 70 59
f 137 138 135
f 137 135 134
f 132 131 134
f 132 134 135
f 106 129 132
f 106 132 109
f 118 94 119
f 118 119 113
f 118 113 112
f 94 118 93
f 132 129 128
f 132 128 131
f 88 87 89
f 88 89 90
f 110 107 106
f 110 106 109
f 88 90 77
f 88 77 76
f 68 66 76
f 68 76 77
f 74 73 83
f 73 74 62
f 103 100 123
f 103 123 126
f 106 103 129
f 103 126 129
f 86 84 83
f 86 83 85
f 88 86 85
f 88 85 87
f 104 105 102
f 104 102 101
f 105 104 107
f 105 107 108
f 125 122 121
f 125 121 124
f 128 125 124
f 128 124 127
f 65 63 74
f 65 74 75
f 84 86 75
f 84 75 74
f 66 65 75
f 66 75 76
f 86 88 76
f 86 76 75
f 100 99 123
f 99 98 122
f 83 84 74
f 122 98 97
f 122 97 121
f 65 56 55
f 65 55 63
f 56 48 47
f 56 47 55
f 48 56 57
f 48 57 49
f 56 65 66
f 56 66 57
f 54 47 46
f 99 122 123
f 47 54 55
f 54 62 55
f 74 63 62
f 63 55 62
f 65 56 64
f 75 65 64
f 126 123 122
f 126 122 125
f 129 126 125
f 129 125 128
f 101 82 100
f 104 101 100
f 104 100 103
f 107 104 103
f 107 103 106
f 82 81 100
f 26 25 17
f 33 31 41
f 33 41 42
f 49 50 42
f 49 42 41
f 16 18 17
f 16 17 15
f 35 37 26
f 35 26 24
f 18 16 24
f 18 24 26
f 26 17 18
f 25 26 36
f 53 45 43
f 53 43 51
f 45 37 35
f 45 35 43
f 44 53 52
f 53 44 45
f 44 36 45
f 26 37 36
f 37 45 36
f 32 42 43
f 32 43 34
f 42 50 51
f 42 51 43
f 14 23 24
f 14 24 16
f 23 32 34
f 23 34 24
f 13 14 16
f 13 16 15
f 33 42 32
f 23 33 32
f 35 24 34
f 43 35 34
f 11 12 14
f 11 14 13
f 12 22 23
f 12 23 14
f 22 31 33
f 22 33 23
f 19 20 7
f 10 9 7
f 10 7 8
f 9 10 12
f 9 12 11
f 30 21 20
f 30 20 28
f 21 10 8
f 21 8 20
f 10 21 22
f 10 22 12
f 21 30 31
f 21 31 22
f 7 20 8
f 20 19 27
f 47 48 40
f 47 40 39
f 30 28 39
f 30 39 40
f 48 49 41
f 48 41 40
f 31 30 40
f 31 40 41
f 46 47 38
f 47 39 38
f 27 38 39
f 27 28 20
f 28 27 39
f 30 29 40
f 29 30 21
f 15 13 4
f 120 95 91
f 120 91 114
f 91 114 89
f 89 111 114
f 91 89 111
f 114 91 111
f 108 87 89
f 108 89 111
f 87 108 111
f 87 111 89
f 105 85 83
f 105 83 102
f 85 105 108
f 85 108 87
f 17 6 5
f 17 5 15
f 4 15 5
f 3 11 13
f 3 13 4
f 9 2 1
f 9 1 7
f 2 9 11
f 2 11 3
f 94 95 119
f 120 119 95
f 108 107 110
f 108 110 111
f 111 110 113
f 111 113 114
f 83 82 101
f 101 102 83
v -0.33317 0.11333 0.00000
v -0.33650 0.28800 0.00000
v -0.33383 0.31844 0.00000
v -0.25313 -0.31074 -0.18384
v -0.29697 -0.31024 -0.09682
v -0.31403 -0.31074 0.00000
v -0.27528 -0.31065 0.14143
v -0.25250 -0.15300 -0.18400
v -0.24410 -0.07967 -0.12073
v -0.26923 -0.07967 0.03927
v -0.23180 -0.09030 0.15570
v -0.24576 -0.01900 -0.17856
v -0.25929 -0.03801 -0.09628
v -0.27334 -0.03366 0.03329
v -0.25873 -0.02787 0.14669
v -0.24910 0.07860 -0.18100
v -0.23917 0.13159 -0.10464
v -0.25452 0.12929 0.04224
v -0.23600 0.12576 0.15224
v -0.24179 0.27847 -0.17559
v -0.25386 0.24762 -0.11515
v -0.27459 0.24528 0.03501
v -0.24498 0.26319 0.14974
v -0.26075 0.31571 -0.18946
v -0.30540 0.31583 -0.09934
v -0.31661 0.31456 0.00000
v -0.28382 0.31575 0.14209
v -0.09980 -0.31010 -0.30650
v -0.15739 -0.31085 -0.26278
v -0.14142 -0.31087 0.27423
v -0.09650 -0.15300 -0.29700
v -0.12862 -0.07944 -0.23963
v -0.12462 -0.08425 0.24381
v -0.09885 -0.02050 -0.30342
v -0.13673 -0.03454 -0.23678
v -0.13764 -0.01307 -0.09709
v -0.15093 -0.00526 0.03710
v -0.12514 -0.02795 0.15170
v -0.13203 -0.02911 0.26188
v -0.10090 0.09400 -0.30980
v -0.12640 0.12691 -0.22469
v -0.12291 0.08565 -0.08706
v -0.12298 0.08279 0.03291
v -0.12335 0.09690 0.15216
v -0.12310 0.13301 0.24813
v -0.10450 0.28800 -0.32000
v -0.12777 0.25261 -0.24972
v -0.08400 0.20180 -0.06130
v -0.09463 0.20203 0.01942
v -0.12914 0.25265 0.24979
v -0.10126 0.31672 -0.31068
v -0.17462 0.31518 -0.26397
v -0.14441 0.31569 0.28222
v -0.00050 -0.31079 -0.31353
v -0.00050 -0.31029 0.31188
v -0.00050 -0.15300 -0.31200
v -0.00050 -0.07443 -0.27229
v -0.00050 -0.08425 0.27700
v -0.00050 -0.02164 -0.31646
v -0.00120 -0.03594 -0.23982
v -0.00410 0.00649 -0.14082
v -0.00363 -0.00893 0.16304
v -0.00050 -0.03431 0.28180
v -0.00050 0.08917 -0.32083
v -0.00103 0.11658 -0.23465
v -0.00659 0.08078 -0.11844
v -0.05830 0.06660 0.07900
v -0.00361 0.08413 0.13391
v -0.00050 0.12551 0.26328
v -0.00050 0.29346 -0.30300
v -0.00050 0.23840 -0.27713
v -0.00217 0.20539 -0.06871
v -0.01559 0.20982 0.02745
v -0.00030 0.20180 0.09856
v -0.00050 0.25174 0.28436
v -0.00050 0.31581 -0.32185
v -0.00050 0.31555 0.32000
v 0.09900 -0.31010 -0.30650
v 0.12764 -0.31043 -0.26607
v 0.11976 -0.31085 0.28126
v 0.09650 -0.15300 -0.29700
v 0.12186 -0.07443 -0.24007
v 0.12017 -0.07967 0.24327
v 0.09814 -0.02076 -0.30316
v 0.12462 -0.03564 -0.23687
v 0.12682 -0.00669 -0.09578
v 0.14346 -0.00062 0.03548
v 0.11829 -0.02604 0.15251
v 0.11848 -0.03031 0.26320
v 0.10030 0.09400 -0.30980
v 0.12233 0.12679 -0.22307
v 0.10909 0.08299 -0.09022
v 0.11636 0.08147 0.03334
v 0.11275 0.09411 0.14954
v 0.11937 0.13448 0.24689
v 0.10350 0.28800 -0.32000
v 0.12542 0.25113 -0.24848
v 0.07935 0.20208 -0.06046
v 0.07693 0.20378 0.01064
v 0.12593 0.25213 0.24942
v 0.10054 0.31674 -0.31087
v 0.13410 0.31180 -0.26430
v 0.10997 0.31494 0.29532
v 0.22727 -0.31073 -0.21487
v 0.29483 -0.31347 -0.09620
v 0.29838 -0.31125 0.00000
v 0.27198 -0.31185 0.14373
v 0.18860 -0.31010 0.25990
v 0.21750 -0.15300 -0.21850
v 0.24175 -0.07944 -0.12319
v 0.26550 -0.07443 0.04207
v 0.23100 -0.09030 0.15570
v 0.18250 -0.15300 0.25200
v 0.22560 -0.02071 -0.20549
v 0.24992 -0.03835 -0.09396
v 0.25536 -0.03590 0.04103
v 0.25338 -0.02828 0.14689
v 0.18677 -0.02100 0.25738
v 0.23264 0.08507 -0.20550
v 0.23086 0.12764 -0.10098
v 0.24632 0.12705 0.04477
v 0.22732 0.12509 0.15128
v 0.19325 0.10125 0.26600
v 0.23634 0.27937 -0.18568
v 0.25050 0.24563 -0.11586
v 0.27344 0.24340 0.03663
v 0.23985 0.26145 0.15216
v 0.19750 0.28800 0.27100
v 0.22926 0.31594 -0.22180
v 0.29725 0.31331 -0.09681
v 0.29967 0.31167 0.00000
v 0.27301 0.31477 0.15502
v 0.19130 0.31668 0.26344
v 0.30850 -0.30075 -0.10075
v 0.32180 -0.31010 0.00000
v 0.30850 -0.30075 0.10000
v 0.31150 -0.15300 0.00000
v 0.30975 -0.01575 -0.10100
v 0.31822 -0.02172 0.00000
v 0.30970 -0.01560 0.10060
v 0.31617 0.11333 -0.10300
v 0.32510 0.09400 0.00000
v 0.31617 0.11333 0.10233
v 0.31950 0.28800 -0.10400
v 0.33550 0.28800 0.00000
v 0.31950 0.28800 0.10300
v 0.31412 0.31862 -0.10246
v 0.32628 0.31652 0.00000
v 0.31432 0.31855 0.10191
usemtl m002
f 176 177 200
f 173 174 199
f 173 199 198
f 174 173 151
f 198 199 223
f 224 253 223
f 223 199 224
f 224 225 254
f 255 225 226
f 200 177 201
f 200 201 227
f 200 227 226
f 175 152 153
f 175 153 176
f 152 175 174
f 152 174 151
f 224 254 253
f 254 225 255
f 177 153 149
f 177 149 171
f 148 149 153
f 148 153 152
f 147 148 152
f 147 152 151
f 170 147 151
f 170 151 173
f 195 170 173
f 195 173 198
f 198 223 220
f 198 220 195
f 223 253 248
f 223 248 220
f 253 254 249
f 253 249 248
f 254 255 250
f 254 250 249
f 221 250 255
f 221 255 227
f 196 221 227
f 196 227 201
f 201 177 171
f 201 171 196
f 171 149 153
f 171 153 177
f 152 153 149
f 152 149 148
f 151 152 148
f 151 148 147
f 173 151 147
f 173 147 170
f 173 150 151
f 198 173 170
f 198 170 195
f 195 220 223
f 195 223 198
f 223 253 252
f 220 248 253
f 220 253 223
f 248 249 254
f 248 254 253
f 249 250 255
f 249 255 254
f 227 255 250
f 227 250 221
f 201 227 221
f 201 221 196
f 196 171 177
f 196 177 201
f 197 172 173
f 197 223 222
f 252 222 223
f 253 254 277
f 255 277 254
f 256 255 227
f 197 198 223
f 173 198 197
f 253 276 252
f 277 276 253
f 255 278 277
f 177 176 153
f 255 226 227
f 171 149 145
f 171 145 168
f 149 148 144
f 149 144 145
f 143 144 148
f 143 148 147
f 147 146 142
f 147 142 143
f 151 150 146
f 151 146 147
f 170 146 150
f 170 150 173
f 167 142 146
f 167 146 170
f 170 169 167
f 173 172 169
f 173 169 170
f 194 169 172
f 194 172 197
f 192 167 169
f 192 169 194
f 194 219 217
f 194 217 192
f 197 222 219
f 197 219 194
f 247 219 222
f 247 222 252
f 217 219 247
f 247 242 217
f 248 247 252
f 248 252 253
f 243 242 247
f 243 247 248
f 248 275 244
f 248 244 243
f 253 277 275
f 253 275 248
f 250 275 277
f 250 277 255
f 245 244 275
f 245 275 250
f 251 250 255
f 251 255 256
f 218 245 250
f 218 250 251
f 251 221 218
f 256 227 221
f 256 221 251
f 193 218 221
f 193 221 196
f 196 171 168
f 196 168 193
f 192 166 167
f 192 217 216
f 242 216 217
f 243 244 273
f 245 273 244
f 246 245 218
f 272 243 273
f 242 243 272
f 273 245 274
f 182 183 206
f 179 180 204
f 179 204 203
f 180 179 155
f 203 204 229
f 230 258 229
f 229 204 230
f 230 231 259
f 260 231 232
f 206 183 207
f 206 207 233
f 206 233 232
f 181 156 157
f 181 157 182
f 156 181 180
f 156 180 155
f 230 259 258
f 183 182 157
f 260 232 233
f 185 158 159
f 235 263 262
f 214 189 190
f 214 240 239
f 267 239 240
f 268 269 286
f 270 286 269
f 271 270 241
f 191 165 161
f 191 161 188
f 165 141 140
f 165 140 161
f 159 140 141
f 159 141 163
f 163 162 158
f 163 158 159
f 185 158 162
f 185 162 190
f 190 189 184
f 190 184 185
f 208 184 189
f 208 189 214
f 214 239 234
f 214 234 208
f 262 234 239
f 262 239 267
f 282 262 267
f 282 267 285
f 285 286 283
f 285 283 282
f 284 283 286
f 284 286 287
f 287 270 265
f 287 265 284
f 266 265 270
f 266 270 271
f 271 241 238
f 271 238 266
f 213 238 241
f 213 241 215
f 215 191 188
f 215 188 213
f 188 183 157
f 188 157 161
f 161 157 156
f 161 156 160
f 160 156 155
f 160 155 159
f 159 155 179
f 159 179 185
f 209 203 229
f 209 229 235
f 185 179 203
f 185 203 209
f 235 229 258
f 235 258 263
f 263 258 259
f 263 259 264
f 264 259 260
f 264 260 265
f 265 260 233
f 265 233 238
f 213 207 183
f 213 183 188
f 238 233 207
f 238 207 213
f 208 209 235
f 185 209 208
f 160 164 165
f 160 165 161
f 159 163 164
f 159 164 160
f 208 214 190
f 208 190 185
f 235 240 214
f 235 214 208
f 262 267 240
f 262 240 235
f 263 268 267
f 263 267 262
f 264 269 268
f 264 268 263
f 265 270 269
f 265 269 264
f 238 241 270
f 238 270 265
f 164 141 165
f 163 141 164
f 268 285 267
f 286 285 268
f 270 287 286
f 231 260 259
f 181 182 206
f 206 205 181
f 232 231 206
f 183 188 161
f 183 161 157
f 157 161 140
f 157 140 139
f 155 159 158
f 155 158 154
f 139 140 159
f 139 159 155
f 179 185 184
f 179 184 178
f 154 158 185
f 154 185 179
f 202 208 234
f 202 234 228
f 178 184 208
f 178 208 202
f 228 234 262
f 228 262 257
f 279 282 283
f 279 283 280
f 257 262 282
f 257 282 279
f 281 284 265
f 281 265 260
f 280 283 284
f 280 284 281
f 261 266 238
f 261 238 233
f 260 265 266
f 260 266 261
f 207 213 188
f 207 188 183
f 233 238 213
f 233 213 207
f 139 156 157
f 155 156 139
f 279 258 257
f 280 258 279
f 281 260 280
f 202 179 178
f 228 229 202
f 228 257 229
f 280 259 258
f 260 259 280
f 260 261 233
f 203 202 229
f 179 202 203
f 177 183 157
f 177 157 153
f 153 157 156
f 153 156 152
f 151 155 154
f 151 154 150
f 152 156 155
f 152 155 151
f 150 154 179
f 150 179 173
f 198 203 229
f 198 229 223
f 173 179 203
f 173 203 198
f 223 229 257
f 223 257 252
f 253 258 259
f 253 259 254
f 252 257 258
f 252 258 253
f 254 259 260
f 254 260 255
f 255 260 233
f 255 233 227
f 201 207 183
f 201 183 177
f 227 233 207
f 227 207 201
f 211 210 186
f 186 187 211
f 211 237 210
f 211 187 212
f 211 212 237
f 187 181 206
f 206 212 187
f 212 206 231
f 231 237 212
f 237 231 230
f 230 236 237
f 236 230 204
f 204 210 236
f 210 204 180
f 180 186 210
f 186 180 181
f 181 187 186
f 237 236 210
f 181 175 200
f 200 206 181
f 206 200 226
f 226 232 206
f 232 226 225
f 225 231 232
f 231 225 224
f 224 230 231
f 230 224 199
f 199 204 230
f 204 199 174
f 174 180 204
f 180 174 175
f 175 181 180
v -0.50247 -0.24568 -0.18693
v -0.51824 -0.24960 -0.09840
v -0.52580 -0.25086 -0.00158
v -0.51850 -0.25127 0.09697
v -0.50247 -0.24517 0.18636
v -0.50741 -0.16064 -0.19583
v -0.52322 -0.15968 -0.09992
v -0.53250 -0.15905 -0.00088
v -0.52388 -0.15948 0.09862
v -0.50711 -0.16091 0.19397
v -0.50083 -0.08332 -0.17994
v -0.51621 -0.08046 -0.09872
v -0.52339 -0.07927 -0.00170
v -0.51645 -0.07906 0.09702
v -0.49970 -0.08401 0.18298
v -0.49654 0.05624 -0.17324
v -0.51320 0.05556 -0.10080
v -0.52088 0.05549 -0.00158
v -0.51372 0.05484 0.09686
v -0.49614 0.05738 0.17313
v -0.50661 0.13541 -0.19465
v -0.52261 0.13268 -0.09928
v -0.53127 0.13150 -0.00115
v -0.52333 0.13311 0.09802
v -0.50641 0.13512 0.19296
v -0.50506 0.22089 -0.19088
v -0.52045 0.22324 -0.09874
v -0.52897 0.22398 -0.00112
v -0.52086 0.22386 0.09780
v -0.50458 0.22060 0.19072
v -0.49550 0.29020 -0.16247
v -0.51081 0.29048 -0.10024
v -0.51732 0.29032 -0.00284
v -0.51084 0.29044 0.09810
v -0.49300 0.29071 0.16786
v -0.39450 -0.31200 -0.27900
v -0.42020 -0.31780 -0.19450
v -0.42986 -0.32229 -0.09843
v -0.43287 -0.32288 -0.00325
v -0.43650 -0.32100 0.09500
v -0.42079 -0.31814 0.19057
v -0.40000 -0.31450 0.25500
v -0.40040 -0.23679 -0.36111
v -0.43503 -0.25343 -0.29500
v -0.46575 -0.26290 -0.21013
v -0.47895 -0.28039 -0.11227
v -0.48563 -0.30040 -0.00247
v -0.47899 -0.28120 0.11056
v -0.46607 -0.26291 0.21026
v -0.43538 -0.25246 0.29351
v -0.40076 -0.24270 0.35769
v -0.40501 -0.15920 -0.36377
v -0.44343 -0.15966 -0.29726
v -0.47172 -0.15891 -0.20862
v -0.48633 -0.11883 -0.14483
v -0.48667 -0.11233 0.13933
v -0.47003 -0.15664 0.20421
v -0.44591 -0.16043 0.29329
v -0.40633 -0.16067 0.36189
v -0.39886 -0.09736 -0.35955
v -0.43038 -0.07625 -0.29590
v -0.46443 -0.07030 -0.21004
v -0.47804 -0.05780 -0.10836
v -0.48560 -0.04447 -0.00247
v -0.47810 -0.05800 0.10730
v -0.46415 -0.06965 0.21109
v -0.43183 -0.07674 0.29313
v -0.39923 -0.09011 0.35538
v -0.39517 0.06667 -0.35283
v -0.42577 0.05335 -0.29476
v -0.45965 0.04785 -0.20935
v -0.46493 0.03754 -0.10188
v -0.46728 0.03154 -0.00274
v -0.46598 0.03733 0.09963
v -0.45999 0.04839 0.20999
v -0.42566 0.05277 0.29276
v -0.39263 0.05956 0.35150
v -0.40383 0.13247 -0.36309
v -0.44264 0.13244 -0.29660
v -0.47076 0.12896 -0.20891
v -0.48593 0.10464 -0.14000
v -0.48570 0.10080 0.13767
v -0.46987 0.12685 0.20628
v -0.44462 0.13380 0.29345
v -0.40564 0.13687 0.36110
v -0.40238 0.21738 -0.36234
v -0.43948 0.22414 -0.29688
v -0.47020 0.22654 -0.21095
v -0.48480 0.24070 -0.13395
v -0.48455 0.24295 0.13295
v -0.46990 0.22801 0.20950
v -0.44093 0.22330 0.29384
v -0.40339 0.21964 0.35972
v -0.41972 0.29141 -0.29259
v -0.45768 0.29270 -0.20545
v -0.47567 0.29467 -0.10022
v -0.48560 0.29540 -0.00247
v -0.47589 0.29458 0.09818
v -0.45753 0.29263 0.20664
v -0.42184 0.29147 0.28890
v -0.38950 0.28900 0.34800
v -0.29950 -0.31450 -0.36900
v -0.33397 -0.32153 -0.29240
v -0.33994 -0.32481 -0.19688
v -0.35442 -0.32142 -0.09700
v -0.34986 -0.31800 0.00545
v -0.34433 -0.32000 0.10442
v -0.34621 -0.32494 0.20018
v -0.33157 -0.32193 0.29343
v -0.31650 -0.31450 0.35350
v -0.29894 -0.22932 -0.45092
v -0.33863 -0.25538 -0.40002
v -0.37094 -0.26803 -0.32977
v -0.37314 -0.26709 0.32673
v -0.34114 -0.25450 0.39719
v -0.29769 -0.23178 0.45053
v -0.29887 -0.16213 -0.45543
v -0.34508 -0.16031 -0.40522
v -0.38056 -0.15467 -0.33913
v -0.38083 -0.15502 0.33830
v -0.34594 -0.15923 0.40360
v -0.30233 -0.16212 0.45257
v -0.29730 -0.10420 -0.44940
v -0.33680 -0.07585 -0.39799
v -0.36868 -0.06431 -0.32660
v -0.37082 -0.06471 0.32393
v -0.33955 -0.07587 0.39463
v -0.29514 -0.10136 0.44955
v -0.33568 0.05349 -0.39307
v -0.35633 0.03563 -0.31333
v -0.33994 0.01481 -0.19688
v -0.33209 0.01973 -0.09795
v -0.33418 0.02136 0.00273
v -0.32659 0.02050 0.10191
v -0.34621 0.01471 0.20018
v -0.35592 0.03556 0.31158
v -0.33696 0.05266 0.38980
v -0.29899 0.14243 -0.45482
v -0.34383 0.13240 -0.40511
v -0.37889 0.12520 -0.33839
v -0.38016 0.12636 0.33651
v -0.34542 0.13151 0.40305
v -0.30140 0.13916 0.45216
v -0.29856 0.20826 -0.45375
v -0.34160 0.22522 -0.40376
v -0.37770 0.22316 -0.33716
v -0.37923 0.22390 0.33473
v -0.34364 0.22543 0.40126
v -0.30007 0.21126 0.45161
v -0.33193 0.29155 -0.38765
v -0.36450 0.29471 -0.32218
v -0.36662 0.29460 0.31932
v -0.33408 0.29157 0.38455
v -0.23212 -0.32054 -0.38546
v -0.24543 -0.32450 -0.30214
v -0.25064 -0.31343 -0.21414
v -0.28750 -0.31000 -0.13300
v -0.28150 -0.31000 0.14500
v -0.25117 -0.31333 0.21350
v -0.24436 -0.32486 0.29993
v -0.23471 -0.32014 0.38550
v -0.23461 -0.25029 -0.47552
v -0.25893 -0.26915 -0.42931
v -0.25868 -0.26858 0.42730
v -0.23677 -0.25093 0.47294
v -0.23471 -0.15949 -0.48235
v -0.26752 -0.15687 -0.43396
v -0.26870 -0.15691 0.43265
v -0.23719 -0.16016 0.48080
v -0.23399 -0.08119 -0.47335
v -0.25672 -0.06446 -0.42853
v -0.25617 -0.06463 0.42620
v -0.23635 -0.07983 0.47028
v -0.23285 0.05603 -0.46937
v -0.25252 0.04226 -0.42110
v -0.24543 0.01507 -0.30214
v -0.25456 0.02335 -0.19824
v -0.28150 0.02250 -0.11150
v -0.27850 0.02250 0.11700
v -0.25538 0.02288 0.19612
v -0.24436 0.01471 0.29993
v -0.24986 0.04107 0.41821
v -0.23575 0.05600 0.46672
v -0.23478 0.13239 -0.48135
v -0.26571 0.12739 -0.43303
v -0.26747 0.12720 0.43144
v -0.23747 0.13352 0.47951
v -0.23515 0.22417 -0.47856
v -0.26557 0.22846 -0.43299
v -0.26645 0.22585 0.43081
v -0.23732 0.22351 0.47662
v -0.22935 0.29059 -0.46728
v -0.25015 0.29367 -0.42541
v -0.25039 0.29394 0.42374
v -0.22881 0.29043 0.46460
v -0.12183 -0.31367 -0.46167
v -0.14019 -0.32412 -0.40275
v -0.15010 -0.31740 -0.31410
v -0.15550 -0.31550 0.30088
v -0.13826 -0.32465 0.38694
v -0.14283 -0.31367 0.45433
v -0.14015 -0.25490 -0.50232
v -0.14197 -0.25523 0.50221
v -0.14133 -0.15976 -0.51301
v -0.14247 -0.15932 0.51271
v -0.14098 -0.07494 -0.49810
v -0.14136 -0.07562 0.49857
v -0.14053 0.05153 -0.49196
v -0.14019 0.01550 -0.40275
v -0.14502 0.02203 -0.29469
v -0.17500 0.01600 -0.24050
v -0.17500 0.01600 0.24000
v -0.14620 0.02259 0.28893
v -0.13826 0.01494 0.38694
v -0.14227 0.05160 0.49170
v -0.14084 0.13212 -0.51183
v -0.14210 0.13183 0.51158
v -0.14068 0.22342 -0.50908
v -0.14204 0.22440 0.50884
v -0.14234 0.29237 -0.48387
v -0.14181 0.29233 0.48424
v -0.04233 -0.31700 -0.46500
v -0.04881 -0.32469 -0.39112
v -0.04317 -0.31000 -0.31333
v -0.04275 -0.31000 0.31175
v -0.03829 -0.32468 0.39768
v -0.03725 -0.31637 0.46588
v -0.04197 -0.25565 -0.52067
v -0.04042 -0.25489 0.51994
v -0.04400 -0.15957 -0.53093
v -0.05017 -0.15589 0.52577
v -0.01722 -0.17241 0.54457
v -0.04266 -0.07591 -0.51684
v -0.04051 -0.07485 0.51579
v -0.04239 0.05063 -0.50999
v -0.04881 0.01494 -0.39112
v -0.01497 0.02240 -0.31427
v -0.01662 0.02281 0.31344
v -0.03829 0.01500 0.39768
v -0.04139 0.05045 0.50853
v -0.04321 0.13230 -0.52983
v -0.04675 0.12763 0.52567
v -0.01784 0.15669 0.54468
v -0.04308 0.22470 -0.52696
v -0.04365 0.22655 0.52457
v -0.01568 0.19366 0.54432
v -0.04262 0.29236 -0.50211
v -0.04138 0.29234 0.50207
v 0.05150 -0.31700 -0.46371
v 0.05671 -0.32468 -0.39653
v 0.05725 -0.31000 -0.31025
v 0.05717 -0.31000 0.31033
v 0.06488 -0.32437 0.39075
v 0.05990 -0.31600 0.46540
v 0.05767 -0.25512 -0.51855
v 0.05829 -0.25471 0.51838
v 0.05639 -0.16029 -0.52928
v 0.06218 -0.15725 0.52561
v 0.02249 -0.17240 0.54445
v 0.05660 -0.07431 -0.51485
v 0.05808 -0.07495 0.51453
v 0.05594 0.05086 -0.50771
v 0.05671 0.01500 -0.39653
v 0.08697 0.02327 -0.30493
v 0.08907 0.02286 0.30393
v 0.06488 0.01531 0.39075
v 0.05872 0.05191 0.50827
v 0.05668 0.13349 -0.52811
v 0.06124 0.12873 0.52498
v 0.02329 0.15742 0.54451
v 0.05745 0.22361 -0.52509
v 0.05908 0.22587 0.52349
v 0.02039 0.19339 0.54429
v 0.05588 0.29224 -0.50246
v 0.05937 0.29204 0.50176
v 0.13000 -0.31200 -0.46450
v 0.15869 -0.32362 -0.39613
v 0.16020 -0.31840 -0.31390
v 0.20050 -0.31000 -0.24600
v 0.16440 -0.31740 0.30610
v 0.15562 -0.32429 0.39471
v 0.14283 -0.31367 0.45433
v 0.15578 -0.25497 -0.49816
v 0.20017 -0.30133 -0.44300
v 0.19900 -0.30150 0.44250
v 0.15720 -0.25436 0.49796
v 0.15721 -0.15996 -0.50870
v 0.15816 -0.16034 0.50825
v 0.15501 -0.07561 -0.49436
v 0.20017 -0.04367 -0.44300
v 0.19900 -0.04350 0.44250
v 0.15626 -0.07623 0.49445
v 0.15500 0.05168 -0.48906
v 0.17000 0.02214 -0.40891
v 0.17392 0.02174 -0.28879
v 0.18283 0.02033 -0.24233
v 0.17400 0.01600 0.24000
v 0.17613 0.02221 0.28453
v 0.16388 0.01971 0.40381
v 0.15624 0.05232 0.48858
v 0.15681 0.13301 -0.50743
v 0.15787 0.13327 0.50703
v 0.15639 0.22360 -0.50449
v 0.15777 0.22366 0.50414
v 0.15427 0.29204 -0.48163
v 0.20017 0.29633 -0.44300
v 0.19900 0.29650 0.44250
v 0.15466 0.29219 0.48070
v 0.25233 -0.31917 -0.38158
v 0.25831 -0.32506 -0.29988
v 0.26436 -0.31486 -0.20871
v 0.29300 -0.31000 -0.12000
v 0.29283 -0.31000 0.11867
v 0.26321 -0.31486 0.20857
v 0.26081 -0.32450 0.29600
v 0.24459 -0.31982 0.38018
v 0.24661 -0.24826 -0.47137
v 0.27319 -0.26580 -0.42589
v 0.27120 -0.26847 0.42354
v 0.24929 -0.24920 0.46849
v 0.25077 -0.16009 -0.47596
v 0.27450 -0.15691 -0.42934
v 0.27585 -0.15865 0.42760
v 0.25284 -0.15949 0.47411
v 0.24454 -0.08232 -0.46952
v 0.27318 -0.06804 -0.42488
v 0.27047 -0.06488 0.42301
v 0.24678 -0.08237 0.46699
v 0.24149 0.05634 -0.46602
v 0.26980 0.04564 -0.41886
v 0.25831 0.01450 -0.29988
v 0.25989 0.02250 -0.19567
v 0.29250 0.02033 -0.10350
v 0.29700 0.01600 0.00000
v 0.29250 0.02157 0.10514
v 0.25944 0.02250 0.19517
v 0.26081 0.01513 0.29600
v 0.26831 0.04565 0.41784
v 0.24178 0.05567 0.46451
v 0.25055 0.13302 -0.47520
v 0.27493 0.12638 -0.42909
v 0.27427 0.13009 0.42684
v 0.25279 0.13266 0.47307
v 0.24847 0.22265 -0.47363
v 0.27576 0.22918 -0.42945
v 0.27567 0.22854 0.42706
v 0.25132 0.22344 0.47091
v 0.23391 0.29048 -0.46500
v 0.26802 0.29310 -0.41948
v 0.26473 0.29310 0.41927
v 0.23595 0.29052 0.46341
v 0.34681 -0.31977 -0.29215
v 0.34891 -0.32494 -0.19712
v 0.36779 -0.32343 -0.09743
v 0.35619 -0.31923 0.00315
v 0.36350 -0.32315 0.10492
v 0.35850 -0.32512 0.19712
v 0.34517 -0.32083 0.28550
v 0.31650 -0.31450 0.35350
v 0.35079 -0.25188 -0.39229
v 0.38318 -0.26987 -0.32231
v 0.38453 -0.26736 0.31895
v 0.35024 -0.25301 0.39127
v 0.30650 -0.21600 0.44750
v 0.30902 -0.17238 -0.44910
v 0.35465 -0.15937 -0.39963
v 0.38688 -0.15761 -0.33123
v 0.38873 -0.15774 0.32859
v 0.35633 -0.15952 0.39752
v 0.31074 -0.17068 0.44728
v 0.34968 -0.07781 -0.38850
v 0.38255 -0.06271 -0.32056
v 0.38301 -0.06393 0.31791
v 0.34913 -0.07743 0.38802
v 0.34822 0.05434 -0.38376
v 0.37578 0.04112 -0.31471
v 0.34891 0.01471 -0.19712
v 0.34755 0.01876 -0.09829
v 0.34336 0.02129 0.00195
v 0.34375 0.01910 0.10310
v 0.35850 0.01453 0.19712
v 0.37468 0.04088 0.31071
v 0.34805 0.05368 0.38241
v 0.30916 0.15597 -0.44917
v 0.35438 0.13253 -0.39856
v 0.38634 0.12894 -0.32948
v 0.38869 0.12909 0.32626
v 0.35508 0.13191 0.39697
v 0.31071 0.15221 0.44741
v 0.30870 0.19373 -0.44893
v 0.35313 0.22377 -0.39616
v 0.38634 0.22549 -0.32880
v 0.38849 0.22385 0.32523
v 0.35357 0.22449 0.39476
v 0.31033 0.19594 0.44706
v 0.33985 0.29135 -0.38176
v 0.38014 0.29364 -0.31656
v 0.37952 0.29376 0.31489
v 0.34072 0.29158 0.38028
v 0.42700 -0.31637 -0.19200
v 0.43877 -0.32100 -0.09736
v 0.43907 -0.32243 -0.00236
v 0.44588 -0.31962 0.09215
v 0.42810 -0.31600 0.19260
v 0.40650 -0.31200 0.25900
v 0.40768 -0.22894 -0.35524
v 0.43835 -0.25075 -0.29370
v 0.47441 -0.25919 -0.20875
v 0.48793 -0.25988 -0.10670
v 0.49156 -0.27929 -0.00254
v 0.48831 -0.25903 0.10118
v 0.47499 -0.26019 0.20484
v 0.43950 -0.25118 0.29118
v 0.40821 -0.23182 0.35275
v 0.41309 -0.16363 -0.35439
v 0.44664 -0.15980 -0.29434
v 0.47927 -0.15840 -0.21484
v 0.49519 -0.15562 -0.11610
v 0.50250 -0.11100 -0.04900
v 0.49568 -0.15604 0.11351
v 0.48061 -0.15827 0.21194
v 0.44817 -0.15984 0.29174
v 0.41446 -0.16230 0.35229
v 0.40750 -0.10500 -0.35250
v 0.43574 -0.07957 -0.29204
v 0.47285 -0.07280 -0.20656
v 0.48548 -0.07046 -0.10783
v 0.49139 -0.06469 -0.00181
v 0.48495 -0.07280 0.10123
v 0.47300 -0.07118 0.20245
v 0.43610 -0.07819 0.29012
v 0.40614 -0.10136 0.35164
v 0.43234 0.05504 -0.28974
v 0.46777 0.05033 -0.20244
v 0.47433 0.04199 -0.10689
v 0.47598 0.03875 -0.00047
v 0.47312 0.04098 0.10068
v 0.46954 0.05046 0.19988
v 0.43066 0.05410 0.28998
v 0.41271 0.14329 -0.35441
v 0.44517 0.13277 -0.29485
v 0.47924 0.12922 -0.21446
v 0.49436 0.12682 -0.11199
v 0.50208 0.09695 -0.00895
v 0.49496 0.12640 0.10842
v 0.48003 0.13016 0.21125
v 0.44699 0.13335 0.29196
v 0.41318 0.13843 0.35227
v 0.41134 0.20575 -0.35459
v 0.44200 0.22348 -0.29487
v 0.47853 0.22848 -0.21221
v 0.49329 0.22301 -0.10987
v 0.50028 0.24567 -0.00663
v 0.49398 0.22272 0.10549
v 0.47944 0.22789 0.20836
v 0.44388 0.22308 0.29181
v 0.41137 0.21209 0.35242
v 0.43134 0.29108 -0.28080
v 0.46199 0.29242 -0.20087
v 0.47994 0.29363 -0.11058
v 0.48537 0.29442 0.00037
v 0.47678 0.29438 0.10382
v 0.46367 0.29224 0.19777
v 0.42870 0.29100 0.28302
v 0.50985 -0.23550 -0.17369
v 0.52318 -0.25306 -0.09943
v 0.52741 -0.24988 -0.00124
v 0.52313 -0.25328 0.09816
v 0.51103 -0.23628 0.16916
v 0.51320 -0.16251 -0.18002
v 0.53050 -0.16122 -0.09672
v 0.53124 -0.15975 -0.00104
v 0.53049 -0.16124 0.09504
v 0.51395 -0.16250 0.17721
v 0.50862 -0.09594 -0.16859
v 0.51992 -0.07749 -0.09922
v 0.52684 -0.08044 0.00023
v 0.51988 -0.07680 0.09758
v 0.50919 -0.09718 0.16721
v 0.50521 0.06900 -0.16014
v 0.51495 0.05546 -0.09686
v 0.52315 0.05451 -0.00305
v 0.51486 0.05517 0.09528
v 0.50579 0.06900 0.15771
v 0.51264 0.13814 -0.17868
v 0.52997 0.13453 -0.09787
v 0.53129 0.13318 -0.00064
v 0.52994 0.13427 0.09646
v 0.51330 0.13658 0.17560
v 0.51144 0.21419 -0.17678
v 0.52686 0.22422 -0.09925
v 0.52942 0.22228 -0.00087
v 0.52706 0.22428 0.09719
v 0.51231 0.21491 0.17330
v 0.51193 0.29041 -0.09157
v 0.51979 0.29038 0.00110
v 0.51137 0.29054 0.09241
usemtl m007
f 301 352 351
f 300 301 351
f 295 290 291
f 291 334 335
f 290 334 291
f 296 295 291
f 296 297 343
f 301 302 352
f 296 291 292
f 291 335 292
f 297 344 296
f 302 352 353
f 292 297 296
f 297 344 336
f 297 336 292
f 292 336 344
f 292 344 297
f 292 291 336
f 292 336 335
f 297 345 344
f 337 345 344
f 337 344 297
f 337 297 336
f 414 354 355
f 346 345 407
f 354 414 413
f 355 354 413
f 414 355 413
f 338 346 345
f 338 345 337
f 337 401 338
f 338 401 407
f 338 407 346
f 338 401 402
f 346 408 407
f 402 408 346
f 346 338 402
f 346 407 401
f 346 401 338
f 460 414 415
f 460 459 414
f 409 456 455
f 409 408 455
f 415 414 459
f 460 415 459
f 403 409 408
f 403 408 402
f 403 402 452
f 402 451 452
f 403 451 452
f 402 451 403
f 403 451 455
f 403 455 409
f 452 456 409
f 452 409 403
f 456 455 451
f 456 451 452
f 409 455 451
f 409 451 403
f 452 451 455
f 452 455 456
f 456 452 490
f 490 492 456
f 516 518 492
f 492 490 516
f 518 516 519
f 519 546 545
f 546 519 518
f 546 518 545
f 519 545 518
f 543 546 519
f 543 545 546
f 519 518 543
f 573 575 545
f 573 545 543
f 615 578 579
f 615 579 614
f 615 614 578
f 575 607 611
f 607 575 573
f 607 573 572
f 607 606 573
f 607 572 606
f 607 606 611
f 614 615 661
f 611 656 610
f 607 606 650
f 611 610 606
f 607 606 610
f 607 610 611
f 611 657 656
f 657 611 610
f 656 657 610
f 657 650 656
f 650 657 611
f 650 611 651
f 656 610 650
f 651 606 650
f 611 606 651
f 650 606 610
f 718 661 719
f 718 660 661
f 710 709 655
f 656 710 655
f 719 661 660
f 718 719 660
f 656 701 710
f 701 656 650
f 701 650 700
f 650 649 700
f 701 649 700
f 650 649 701
f 656 649 650
f 701 649 655
f 701 655 710
f 710 700 709
f 700 710 701
f 709 655 649
f 709 649 700
f 710 655 649
f 710 649 701
f 700 649 655
f 700 655 709
f 699 708 709
f 699 709 700
f 700 699 708
f 700 708 709
f 756 761 708
f 756 708 699
f 716 717 765
f 765 717 766
f 765 766 716
f 761 708 707
f 761 760 707
f 766 717 716
f 761 755 760
f 755 761 756
f 699 698 755
f 756 699 755
f 756 698 755
f 756 699 698
f 761 708 699
f 761 699 756
f 755 698 707
f 755 707 760
f 760 707 698
f 760 698 755
f 760 759 707
f 764 765 716
f 764 716 715
f 765 764 715
f 765 715 716
f 760 755 754
f 755 698 754
f 754 759 760
f 754 697 698
f 755 697 754
f 755 698 697
f 758 705 706
f 758 706 759
f 763 714 715
f 763 764 715
f 759 754 753
f 753 697 696
f 753 754 697
f 758 759 753
f 758 696 753
f 753 696 705
f 753 705 758
f 713 714 763
f 713 763 762
f 758 757 705
f 762 763 714
f 713 762 714
f 758 753 752
f 753 696 695
f 753 695 752
f 753 696 752
f 758 705 696
f 752 696 705
f 752 705 758
f 695 696 752
f 757 704 705
f 752 757 758
f 757 704 695
f 757 695 752
f 752 695 704
f 752 704 757
f 758 696 752
f 694 703 704
f 694 704 695
f 703 704 695
f 703 695 694
f 712 658 659
f 711 658 712
f 702 703 654
f 702 653 654
f 702 693 647
f 693 702 703
f 693 703 694
f 647 694 648
f 647 693 694
f 693 648 647
f 694 648 693
f 703 654 648
f 703 648 694
f 647 648 654
f 647 654 702
f 694 648 654
f 694 654 703
f 647 653 702
f 702 654 648
f 702 648 647
f 653 608 609
f 653 652 608
f 652 653 609
f 608 652 609
f 604 647 605
f 652 604 608
f 604 652 653
f 604 653 647
f 653 609 605
f 653 605 647
f 604 605 609
f 604 609 608
f 647 605 609
f 647 609 653
f 608 609 605
f 608 605 604
f 612 577 576
f 612 577 613
f 608 604 570
f 570 574 608
f 604 570 571
f 604 605 571
f 570 542 574
f 542 544 574
f 544 515 517
f 515 544 542
f 517 489 491
f 489 517 515
f 457 458 493
f 491 489 449
f 491 449 453
f 453 491 489
f 453 489 449
f 449 489 450
f 449 450 453
f 457 411 458
f 410 411 457
f 404 405 454
f 404 453 454
f 411 410 458
f 410 457 458
f 398 404 453
f 398 453 449
f 399 449 450
f 399 398 449
f 398 450 399
f 449 450 398
f 453 454 450
f 398 450 454
f 398 454 404
f 449 450 454
f 449 454 453
f 399 405 404
f 399 404 398
f 404 454 450
f 404 450 399
f 348 411 347
f 339 340 406
f 339 405 406
f 348 347 412
f 411 348 412
f 347 411 412
f 405 330 339
f 330 405 399
f 399 331 330
f 330 400 331
f 339 405 400
f 339 400 330
f 330 400 406
f 330 406 339
f 399 400 330
f 330 400 405
f 399 400 331
f 331 340 339
f 331 339 330
f 339 406 331
f 340 341 293
f 341 288 293
f 288 341 340
f 288 340 332
f 340 341 332
f 288 332 341
f 331 332 341
f 331 341 340
f 293 341 332
f 293 332 288
f 293 341 294
f 293 294 342
f 293 342 341
f 298 299 350
f 298 350 349
f 293 289 294
f 289 293 288
f 288 333 289
f 293 341 333
f 293 333 288
f 288 332 333
f 288 333 341
f 299 300 351
f 299 351 350
f 294 290 295
f 290 294 289
f 289 334 290
f 289 333 334
f 315 320 384
f 321 320 315
f 321 315 316
f 321 385 384
f 320 321 384
f 321 316 385
f 311 305 306
f 305 311 310
f 306 360 361
f 305 360 306
f 316 377 385
f 311 316 315
f 311 315 310
f 306 361 311
f 322 321 316
f 322 316 317
f 316 317 377
f 321 322 385
f 317 377 385
f 322 317 385
f 311 306 307
f 311 307 312
f 311 369 312
f 306 361 307
f 311 369 361
f 307 361 369
f 307 369 312
f 306 361 369
f 306 369 311
f 386 322 317
f 386 317 378
f 317 316 311
f 317 311 312
f 312 317 378
f 312 378 370
f 317 312 370
f 317 370 378
f 317 378 316
f 317 385 386
f 322 386 385
f 317 386 377
f 317 377 378
f 312 370 362
f 312 362 307
f 307 362 370
f 307 370 312
f 312 311 370
f 307 362 361
f 312 369 361
f 312 361 307
f 312 370 369
f 317 379 378
f 379 317 312
f 379 312 371
f 387 386 378
f 387 378 379
f 379 371 378
f 371 378 370
f 379 387 386
f 379 371 370
f 379 370 378
f 379 378 386
f 370 371 312
f 363 371 370
f 363 370 362
f 371 362 363
f 387 379 439
f 380 379 371
f 380 371 372
f 440 388 380
f 440 387 379
f 440 379 380
f 440 380 435
f 380 379 434
f 372 380 379
f 372 379 371
f 380 372 428
f 380 428 434
f 387 440 439
f 379 439 434
f 435 380 434
f 435 434 439
f 440 435 439
f 364 372 363
f 372 428 371
f 364 423 424
f 363 423 364
f 372 428 423
f 372 423 363
f 364 423 428
f 364 428 372
f 363 423 428
f 363 428 371
f 435 380 372
f 435 372 429
f 372 380 434
f 372 434 428
f 372 435 428
f 380 372 429
f 380 429 435
f 380 435 439
f 380 439 434
f 424 429 372
f 424 372 364
f 372 428 429
f 372 423 364
f 436 435 429
f 436 429 430
f 478 435 436
f 481 440 435
f 481 435 477
f 481 477 478
f 478 477 435
f 436 478 477
f 436 435 477
f 430 436 435
f 430 435 429
f 436 430 473
f 436 473 477
f 430 424 470
f 430 470 474
f 424 430 429
f 424 469 470
f 430 473 474
f 430 473 429
f 429 473 469
f 429 469 424
f 470 469 473
f 470 473 474
f 424 469 473
f 424 473 429
f 474 478 477
f 474 477 473
f 478 474 473
f 478 473 477
f 478 482 481
f 430 436 477
f 430 477 473
f 474 473 469
f 474 469 470
f 508 482 478
f 508 478 506
f 470 502 504
f 470 504 474
f 478 474 504
f 474 478 506
f 474 506 504
f 478 504 506
f 502 504 474
f 502 474 470
f 532 506 504
f 532 504 529
f 535 508 506
f 535 506 532
f 506 504 529
f 506 529 532
f 504 502 527
f 504 527 529
f 533 532 529
f 533 529 530
f 530 533 532
f 530 532 529
f 533 560 559
f 560 533 530
f 560 530 557
f 562 535 532
f 562 532 559
f 560 533 532
f 560 532 559
f 533 559 532
f 560 557 556
f 560 556 559
f 557 560 559
f 557 559 556
f 556 557 530
f 529 527 554
f 529 554 556
f 557 556 529
f 557 529 530
f 530 529 556
f 591 559 556
f 591 556 589
f 595 562 559
f 595 559 591
f 589 591 559
f 589 559 556
f 591 595 562
f 591 562 559
f 556 554 589
f 589 554 587
f 634 591 589
f 634 589 630
f 638 595 591
f 638 591 634
f 638 594 595
f 634 591 637
f 638 634 637
f 638 637 594
f 626 630 589
f 626 589 587
f 626 587 586
f 626 587 630
f 626 625 587
f 626 586 625
f 634 637 633
f 630 634 591
f 630 591 589
f 630 625 626
f 626 625 629
f 626 629 630
f 633 634 681
f 630 634 633
f 630 633 629
f 634 630 629
f 634 629 633
f 630 625 675
f 630 629 675
f 630 629 625
f 625 629 675
f 634 682 681
f 682 634 630
f 682 630 676
f 681 682 676
f 681 676 675
f 686 637 681
f 681 637 633
f 675 681 633
f 675 633 629
f 682 634 633
f 681 682 633
f 682 676 629
f 682 629 633
f 676 682 633
f 676 633 629
f 681 675 629
f 681 629 633
f 675 676 630
f 670 675 625
f 676 629 630
f 675 629 676
f 686 681 685
f 744 681 675
f 744 675 735
f 743 681 744
f 685 681 680
f 685 680 743
f 743 680 681
f 744 743 680
f 681 744 680
f 681 675 674
f 681 674 680
f 675 681 680
f 675 680 674
f 744 735 674
f 744 674 680
f 735 670 726
f 735 726 734
f 670 735 675
f 670 669 726
f 735 674 734
f 675 674 735
f 675 674 669
f 675 669 670
f 726 669 674
f 726 674 734
f 670 669 674
f 670 674 675
f 743 744 735
f 743 735 734
f 734 743 680
f 734 680 674
f 743 751 685
f 735 744 680
f 735 680 674
f 743 734 674
f 743 674 680
f 734 674 669
f 734 669 726
f 743 742 750
f 751 743 750
f 726 725 734
f 734 743 742
f 734 742 733
f 743 734 733
f 743 733 742
f 734 725 733
f 781 742 733
f 781 733 776
f 776 781 742
f 776 742 733
f 725 776 733
f 780 781 776
f 780 776 775
f 784 749 780
f 749 750 742
f 749 742 780
f 780 742 781
f 780 781 741
f 749 780 741
f 781 742 741
f 781 776 732
f 781 732 741
f 776 781 741
f 776 741 732
f 780 775 732
f 780 732 741
f 781 780 749
f 781 749 741
f 770 775 776
f 770 776 771
f 771 776 725
f 725 724 770
f 771 725 770
f 776 732 733
f 776 732 775
f 771 724 770
f 776 732 724
f 776 724 771
f 770 724 732
f 770 732 775
f 771 724 732
f 771 732 776
f 775 780 741
f 775 741 732
f 775 732 724
f 775 724 770
f 783 784 780
f 783 780 779
f 780 779 741
f 780 775 774
f 780 774 779
f 780 784 748
f 779 741 740
f 784 783 748
f 780 748 741
f 779 740 748
f 783 779 748
f 784 748 749
f 769 774 775
f 769 775 770
f 775 732 774
f 774 731 732
f 770 723 769
f 770 724 723
f 769 723 731
f 769 731 774
f 774 731 723
f 774 723 769
f 782 783 779
f 782 779 778
f 778 739 740
f 778 740 779
f 782 747 748
f 783 782 748
f 778 739 747
f 782 778 747
f 773 769 768
f 769 773 774
f 773 731 730
f 773 774 731
f 768 723 722
f 769 723 768
f 768 722 730
f 768 730 773
f 773 778 779
f 778 773 730
f 778 730 739
f 773 779 774
f 773 730 722
f 773 722 768
f 746 747 739
f 746 739 738
f 738 739 778
f 738 778 777
f 778 777 739
f 773 778 739
f 773 739 730
f 738 777 739
f 738 739 747
f 746 738 747
f 773 768 767
f 773 767 772
f 768 722 721
f 768 721 767
f 773 730 772
f 767 722 730
f 767 730 772
f 721 722 767
f 777 778 773
f 777 773 772
f 772 777 738
f 772 738 729
f 777 772 729
f 777 729 738
f 777 772 730
f 777 730 739
f 772 777 739
f 772 739 730
f 777 738 747
f 777 747 739
f 721 729 772
f 772 767 721
f 772 730 729
f 772 730 722
f 772 722 767
f 745 746 738
f 745 738 737
f 728 737 738
f 728 738 729
f 737 745 746
f 737 746 738
f 737 728 729
f 737 729 738
f 720 728 729
f 720 729 721
f 728 721 720
f 737 745 684
f 737 679 684
f 720 663 673
f 720 673 728
f 736 737 728
f 736 728 727
f 737 678 679
f 683 684 678
f 736 678 737
f 684 679 678
f 736 737 679
f 736 678 679
f 728 737 679
f 728 679 673
f 736 727 673
f 736 673 679
f 727 736 679
f 727 679 673
f 737 728 673
f 737 673 679
f 662 720 663
f 672 727 728
f 662 672 728
f 662 728 720
f 727 673 728
f 727 673 672
f 672 673 728
f 728 673 663
f 728 663 720
f 662 663 673
f 662 673 672
f 678 736 727
f 678 727 672
f 678 672 673
f 678 673 679
f 672 678 679
f 672 679 673
f 672 673 663
f 672 663 662
f 678 683 636
f 678 632 636
f 662 617 628
f 662 628 672
f 678 631 632
f 678 677 631
f 677 678 672
f 677 672 671
f 631 677 671
f 631 671 627
f 636 632 631
f 677 678 632
f 631 677 632
f 672 678 632
f 672 632 628
f 677 671 628
f 677 628 632
f 671 677 632
f 671 632 628
f 631 627 628
f 631 628 632
f 678 672 628
f 678 628 632
f 627 672 628
f 627 671 672
f 627 617 616
f 617 627 628
f 672 662 617
f 672 617 628
f 671 628 672
f 627 628 671
f 616 617 628
f 616 628 627
f 635 636 631
f 627 631 632
f 627 632 628
f 592 635 631
f 592 631 590
f 631 627 588
f 631 588 590
f 631 635 593
f 631 593 592
f 635 592 593
f 635 593 636
f 627 616 580
f 627 580 588
f 616 580 581
f 616 617 581
f 616 580 588
f 616 588 627
f 590 631 627
f 590 627 588
f 561 592 590
f 561 590 558
f 588 580 549
f 588 549 555
f 590 588 555
f 590 555 558
f 534 561 558
f 534 558 531
f 531 558 555
f 531 555 528
f 522 528 549
f 505 531 528
f 505 528 503
f 507 534 531
f 507 531 505
f 495 503 528
f 495 528 522
f 475 505 503
f 475 503 471
f 479 507 475
f 507 505 475
f 471 475 505
f 471 505 503
f 479 480 507
f 479 475 480
f 471 495 461
f 495 471 503
f 461 495 462
f 461 495 503
f 461 503 471
f 475 480 476
f 471 472 462
f 471 462 461
f 461 462 472
f 461 472 471
f 431 475 471
f 431 471 425
f 475 432 476
f 431 432 475
f 437 480 476
f 437 476 432
f 431 432 476
f 431 475 476
f 471 475 476
f 471 476 472
f 431 425 472
f 431 472 476
f 425 431 476
f 425 476 472
f 432 476 480
f 437 432 480
f 475 471 472
f 475 472 476
f 416 461 462
f 426 425 471
f 416 426 471
f 416 471 461
f 425 472 426
f 425 472 471
f 416 462 472
f 416 472 426
f 431 425 426
f 431 426 432
f 426 462 416
f 437 432 438
f 373 432 426
f 373 426 365
f 381 437 432
f 381 432 374
f 374 432 373
f 373 374 433
f 373 432 433
f 365 373 432
f 365 432 426
f 373 365 427
f 373 427 433
f 365 373 433
f 365 433 427
f 374 381 438
f 373 374 438
f 373 438 433
f 374 433 438
f 437 381 438
f 365 357 366
f 357 365 356
f 365 416 356
f 416 365 426
f 416 357 356
f 365 427 366
f 365 427 426
f 356 417 357
f 365 427 417
f 365 417 356
f 357 417 427
f 357 427 366
f 416 417 357
f 356 417 427
f 356 427 365
f 373 365 366
f 373 366 374
f 366 417 357
f 374 375 382
f 381 374 382
f 357 358 367
f 357 367 366
f 374 375 313
f 308 375 367
f 375 374 366
f 375 366 367
f 313 375 308
f 313 308 367
f 313 367 375
f 374 366 367
f 374 367 375
f 308 367 366
f 367 358 308
f 366 358 367
f 358 366 357
f 318 382 313
f 382 375 313
f 303 308 358
f 303 358 367
f 303 367 308
f 314 313 308
f 314 308 309
f 319 318 313
f 319 313 314
f 313 375 314
f 313 314 376
f 313 376 375
f 313 308 309
f 313 309 314
f 314 319 383
f 314 383 376
f 318 319 383
f 318 383 382
f 308 309 367
f 308 368 309
f 308 367 368
f 309 368 359
f 309 359 304
f 303 359 304
f 303 358 359
f 303 359 368
f 303 368 308
f 315 314 309
f 315 309 310
f 320 319 314
f 320 314 315
f 314 315 384
f 319 320 384
f 319 384 383
f 305 310 309
f 305 309 304
f 304 360 305
f 304 359 360
f 467 499 500
f 500 499 525
f 420 466 421
f 467 421 466
f 464 465 419
f 420 419 465
f 524 498 497
f 464 497 498
f 619 583 582
f 551 582 583
f 621 620 666
f 666 622 621
f 552 584 585
f 623 585 584
f 666 620 665
f 665 620 619
f 623 622 667
f 667 622 666
f 325 391 392
f 564 596 597
f 688 689 641
f 689 690 643
f 516 490 514
f 490 488 514
f 512 513 487
f 486 512 487
f 490 452 448
f 490 448 488
f 452 451 448
f 451 402 448
f 402 397 448
f 446 486 447
f 402 396 397
f 402 337 396
f 337 329 396
f 337 336 328
f 337 328 329
f 445 446 395
f 394 445 395
f 336 327 328
f 336 291 327
f 291 290 326
f 291 326 327
f 290 289 325
f 290 325 326
f 289 332 324
f 289 324 325
f 444 392 391
f 332 331 324
f 443 444 391
f 331 323 324
f 331 400 390
f 331 390 323
f 400 399 390
f 399 389 390
f 399 450 441
f 399 441 389
f 485 443 442
f 450 449 441
f 449 489 483
f 449 483 441
f 511 485 510
f 489 515 509
f 489 509 483
f 515 542 536
f 515 536 509
f 538 511 510
f 538 510 537
f 542 570 563
f 542 563 536
f 538 537 565
f 570 564 563
f 570 605 596
f 570 596 564
f 605 647 596
f 566 565 597
f 647 639 596
f 598 566 597
f 647 648 639
f 648 694 639
f 694 687 639
f 694 695 687
f 599 598 640
f 599 640 641
f 695 696 688
f 695 688 687
f 696 753 688
f 753 754 689
f 753 689 688
f 754 755 690
f 754 690 689
f 755 698 690
f 698 699 690
f 699 691 690
f 600 643 644
f 699 700 692
f 699 692 691
f 601 600 644
f 700 649 645
f 700 645 692
f 645 649 650
f 650 606 603
f 650 603 646
f 567 601 602
f 606 607 603
f 607 573 569
f 607 569 603
f 539 567 540
f 573 543 541
f 573 541 569
f 543 516 514
f 543 514 541
f 512 539 540
f 512 540 513
f 447 448 396
f 395 328 327
f 325 324 391
f 640 688 641
f 643 690 644
f 513 514 488
f 513 488 487
f 487 488 448
f 448 447 487
f 447 486 487
f 448 397 396
f 396 395 447
f 395 446 447
f 396 329 395
f 395 329 328
f 327 394 395
f 326 393 394
f 326 394 327
f 325 392 326
f 392 393 326
f 391 324 390
f 324 323 390
f 390 443 391
f 442 443 390
f 390 441 442
f 390 389 441
f 441 485 442
f 484 485 441
f 484 441 483
f 510 485 484
f 484 509 510
f 484 483 509
f 510 509 536
f 510 536 537
f 537 536 564
f 536 563 564
f 564 565 537
f 597 565 564
f 597 596 639
f 640 597 639
f 640 598 597
f 639 687 640
f 640 687 688
f 689 642 641
f 643 642 689
f 690 691 644
f 644 691 645
f 691 692 645
f 602 646 603
f 603 567 602
f 568 567 603
f 568 603 569
f 540 567 568
f 568 569 541
f 568 541 540
f 540 541 514
f 540 514 513
f 650 646 645
f 644 645 602
f 601 644 602
f 645 646 602
f 518 521 494
f 518 494 492
f 492 494 456
f 408 402 452
f 408 452 456
f 456 460 414
f 456 414 408
f 408 414 355
f 408 355 346
f 337 402 338
f 346 355 354
f 346 354 345
f 297 336 345
f 345 353 302
f 345 302 297
f 297 302 301
f 297 301 296
f 296 301 300
f 296 300 295
f 295 300 299
f 295 299 294
f 293 298 349
f 340 348 339
f 405 399 331
f 405 331 339
f 339 348 411
f 339 411 405
f 405 411 404
f 453 457 493
f 453 493 491
f 608 612 613
f 703 694 702
f 702 712 703
f 703 712 713
f 703 713 704
f 704 713 757
f 758 763 764
f 758 764 759
f 759 764 765
f 759 765 760
f 760 765 766
f 760 766 761
f 708 717 709
f 709 717 718
f 611 607 650
f 611 650 656
f 656 661 615
f 656 615 611
f 575 579 548
f 575 548 545
f 456 494 460
f 345 354 353
f 345 336 337
f 299 349 298
f 294 299 298
f 294 298 293
f 288 332 289
f 293 349 348
f 293 348 340
f 340 331 332
f 340 332 293
f 404 411 457
f 404 457 453
f 453 449 399
f 453 399 404
f 491 493 520
f 491 520 517
f 517 520 547
f 517 547 544
f 544 547 576
f 544 576 574
f 574 576 612
f 574 612 608
f 608 613 658
f 608 658 653
f 653 605 608
f 653 658 712
f 653 712 702
f 702 694 647
f 757 713 763
f 757 763 758
f 758 753 695
f 758 695 757
f 761 766 717
f 761 717 708
f 709 718 661
f 709 661 656
f 656 650 700
f 656 700 709
f 611 615 579
f 611 579 575
f 545 548 521
f 545 521 518
f 518 516 543
f 518 543 545
f 570 604 605
f 435 429 474
f 435 474 478
f 317 312 371
f 317 371 379
f 316 311 312
f 316 312 317
f 314 309 310
f 314 310 315
f 737 728 727
f 737 727 736
f 781 776 775
f 781 775 780
f 634 630 675
f 634 675 681
f 359 418 419
f 308 313 374
f 308 374 366
f 425 431 475
f 425 475 471
f 503 505 531
f 503 531 528
f 528 531 558
f 528 558 555
f 581 617 618
f 627 631 678
f 627 678 672
f 672 678 736
f 672 736 727
f 772 777 778
f 772 778 773
f 722 723 665
f 723 724 667
f 734 743 681
f 734 681 675
f 556 559 532
f 556 532 529
f 525 526 501
f 500 525 501
f 502 470 469
f 467 500 468
f 424 363 423
f 466 467 422
f 421 466 422
f 362 306 361
f 305 304 359
f 305 359 360
f 304 358 359
f 465 419 418
f 464 465 418
f 497 464 463
f 524 497 523
f 551 524 523
f 551 523 550
f 551 550 582
f 580 617 581
f 583 582 618
f 662 663 617
f 619 583 618
f 720 721 663
f 620 619 664
f 620 664 665
f 769 770 724
f 769 724 723
f 622 667 668
f 623 622 668
f 585 623 624
f 552 585 553
f 525 552 553
f 525 553 526
f 468 469 423
f 422 362 361
f 359 358 418
f 664 722 665
f 667 724 668
f 526 527 502
f 526 502 501
f 501 502 469
f 469 468 501
f 468 500 501
f 469 424 423
f 423 422 468
f 422 467 468
f 423 363 422
f 422 363 362
f 361 421 422
f 360 420 421
f 360 421 361
f 359 419 360
f 419 420 360
f 418 358 417
f 358 357 417
f 417 464 418
f 463 464 417
f 417 462 463
f 417 416 462
f 462 497 463
f 496 497 462
f 496 462 495
f 523 497 496
f 496 522 523
f 496 495 522
f 523 522 549
f 523 549 550
f 550 549 581
f 549 580 581
f 581 582 550
f 618 582 581
f 618 617 663
f 664 618 663
f 664 619 618
f 663 721 664
f 664 721 722
f 723 666 665
f 667 666 723
f 724 725 668
f 668 725 669
f 725 726 669
f 624 670 625
f 625 585 624
f 586 585 625
f 586 625 587
f 553 585 586
f 586 587 554
f 586 554 553
f 553 554 527
f 553 527 526
f 668 669 624
f 623 668 624
f 669 670 624
f 532 535 508
f 532 508 506
f 429 469 474
f 478 481 440
f 478 440 435
f 371 363 424
f 371 424 372
f 380 440 387
f 380 387 379
f 317 322 321
f 317 321 316
f 310 305 306
f 310 306 311
f 316 321 320
f 316 320 315
f 315 320 319
f 315 319 314
f 426 416 357
f 426 357 366
f 426 366 365
f 374 381 437
f 374 437 432
f 774 769 768
f 774 768 773
f 778 782 783
f 778 783 779
f 779 783 784
f 779 784 780
f 776 725 770
f 780 784 750
f 780 750 781
f 742 750 751
f 742 751 743
f 630 625 670
f 630 670 675
f 681 637 634
f 556 554 587
f 556 587 589
f 506 508 482
f 506 482 478
f 314 319 382
f 314 382 313
f 308 358 304
f 308 304 309
f 375 382 381
f 375 381 374
f 432 480 479
f 432 479 475
f 471 462 426
f 505 507 534
f 505 534 531
f 531 534 561
f 531 561 558
f 555 549 522
f 555 522 528
f 558 561 592
f 558 592 590
f 632 636 683
f 632 683 678
f 678 684 737
f 728 663 662
f 738 747 778
f 773 722 721
f 773 721 729
f 773 729 772
f 781 750 742
f 743 751 686
f 743 686 681
f 675 670 726
f 675 726 734
f 634 638 595
f 634 595 591
f 559 562 535
f 559 535 532
f 307 306 362
f 580 616 617
v -0.69030 -0.43480 0.02100
v -0.73101 -0.43673 0.05873
v -0.69075 -0.35712 0.02100
v -0.73225 -0.35319 0.05901
v -0.57150 -0.54500 0.09980
v -0.57150 -0.54500 0.32240
v -0.62219 -0.43997 -0.02169
v -0.64230 -0.44431 0.07060
v -0.66183 -0.46000 0.32233
v -0.62284 -0.34566 -0.02388
v -0.63476 -0.34846 0.06163
v -0.45721 -0.67000 0.09986
v -0.45721 -0.67000 0.32229
v -0.51350 -0.58940 0.09993
v -0.51350 -0.58940 0.32233
v -0.49961 -0.43886 -0.15038
v -0.51705 -0.44500 -0.02718
v -0.52481 -0.44323 0.06438
v -0.56750 -0.46000 0.32250
v -0.50031 -0.34848 -0.15253
v -0.51705 -0.32900 -0.02718
v -0.51500 -0.34521 0.05943
v -0.41288 -0.69788 0.09988
v -0.41288 -0.69788 0.32235
v -0.38950 -0.59433 0.10000
v -0.38950 -0.59433 0.32250
v -0.40050 -0.43861 -0.16646
v -0.40080 -0.44500 -0.02390
v -0.39550 -0.44120 0.06420
v -0.35850 -0.46000 0.32250
v -0.40083 -0.34917 -0.16979
v -0.40080 -0.32900 -0.02390
v -0.39946 -0.34792 0.06142
v -0.27859 -0.69172 0.09987
v -0.27859 -0.69172 0.32234
v -0.24700 -0.61900 0.10000
v -0.24700 -0.61900 0.32250
v -0.31781 -0.43837 -0.09650
v -0.27639 -0.44107 -0.03196
v -0.26706 -0.43911 0.06022
v -0.31677 -0.34964 -0.09691
v -0.27377 -0.34276 -0.03442
v -0.26617 -0.34792 0.06142
v -0.18372 -0.57378 0.09989
v -0.18372 -0.57378 0.32233
v -0.19910 -0.43793 0.00933
v -0.14739 -0.43794 0.05997
v -0.14850 -0.46000 0.32250
v -0.19793 -0.35062 0.00910
v -0.14532 -0.35219 0.05914
v -0.05461 -0.46000 0.09989
v -0.05461 -0.46000 0.32233
v 0.46794 -0.45136 0.14068
v 0.46759 -0.44427 0.14941
v 0.46791 -0.33700 0.14091
v 0.46758 -0.34981 0.14954
v 0.51146 -0.45117 0.10076
v 0.53214 -0.44752 0.15263
v 0.51152 -0.33801 0.09977
v 0.53202 -0.34350 0.15275
usemtl m026
f 821 819 808
f 821 808 810
f 819 821 810
f 819 810 808
f 832 829 810
f 832 810 814
f 829 821 810
f 799 803 814
f 799 814 810
f 803 799 810
f 803 810 814
f 829 832 814
f 829 814 810
f 810 808 799
f 797 799 808
f 829 819 821
f 803 799 793
f 829 832 836
f 799 793 790
f 820 809 807
f 820 807 818
f 809 820 818
f 809 818 807
f 831 813 809
f 831 809 828
f 813 802 798
f 813 798 809
f 809 820 828
f 802 813 809
f 802 809 798
f 813 831 828
f 813 828 809
f 809 798 807
f 798 796 807
f 828 820 818
f 802 792 798
f 835 831 828
f 792 798 789
f 800 804 815
f 800 815 811
f 792 795 788
f 792 788 786
f 787 788 794
f 794 788 795
f 786 788 787
f 786 787 785
f 794 791 785
f 794 785 787
f 801 791 800
f 816 815 804
f 816 804 805
f 791 794 804
f 791 804 800
f 805 804 794
f 786 785 791
f 786 791 792
f 813 802 801
f 813 801 812
f 802 792 791
f 802 791 801
f 792 802 806
f 792 806 795
f 802 813 817
f 802 817 806
f 812 801 800
f 812 800 811
f 795 806 805
f 795 805 794
f 806 817 816
f 806 816 805
f 834 833 826
f 831 830 833
f 831 833 834
f 830 823 826
f 830 826 833
f 816 826 815
f 826 825 815
f 823 822 825
f 823 825 826
f 822 811 815
f 822 815 825
f 831 823 830
f 823 824 813
f 823 813 812
f 823 831 824
f 824 827 817
f 824 817 813
f 831 834 827
f 831 827 824
f 822 823 811
f 812 811 823
f 827 826 816
f 827 816 817
f 834 826 827
f 842 841 843
f 842 843 844
f 838 840 839
f 838 839 837
f 837 841 842
f 842 838 837
f 842 844 840
f 842 840 838
f 839 840 844
f 844 843 839
f 837 839 843
f 837 843 841
v 0.51200 -0.04700 -0.05900
v 0.51500 0.29300 -0.01250
v 0.51041 -0.04001 0.06987
v 0.51633 0.29878 0.01510
v 0.49800 0.29300 -0.12750
v 0.47750 -0.04700 -0.19500
v 0.50900 -0.04700 0.08100
v 0.46932 -0.04383 0.21550
v 0.48531 0.31819 0.10523
v 0.50125 0.29300 0.11550
v 0.46850 0.29300 -0.21700
v 0.48482 0.29657 -0.17564
v 0.39725 0.29300 -0.32425
v 0.47677 -0.02561 -0.16013
v 0.45850 0.29300 0.23700
v 0.41828 0.30595 0.28236
v 0.37500 -0.04700 -0.35100
v 0.39962 -0.03768 -0.32085
v 0.42947 0.30079 -0.28357
v 0.46800 -0.04700 0.21550
v 0.40750 0.29300 0.31600
v 0.40650 0.29500 0.31500
v 0.37550 0.29300 0.35300
v 0.30579 0.29704 0.41671
v 0.34350 0.29300 0.38400
v 0.37693 -0.03593 0.34183
v 0.17119 -0.02135 -0.34614
v 0.30650 0.29300 -0.41500
v 0.21214 0.32823 0.39688
v 0.19113 -0.01253 0.39367
v 0.30838 -0.02900 0.01025
v 0.30838 0.31000 0.01025
v 0.34296 0.32724 -0.28134
v 0.19400 -0.04700 -0.47725
v 0.23771 -0.03814 -0.45647
v 0.39224 -0.01456 0.07252
v 0.39087 0.32089 -0.06870
v 0.33350 -0.04700 0.39125
v 0.22650 0.29300 -0.46350
v 0.14462 -0.02900 0.27163
v 0.14462 0.31000 0.27163
v 0.26700 0.29300 0.43850
v 0.06504 0.32991 -0.42674
v 0.05560 0.29988 0.51626
v 0.18490 -0.03549 0.48134
v 0.10475 0.29300 -0.50450
v 0.23517 0.29822 -0.46309
v 0.18350 0.29300 0.48200
v 0.04700 -0.04700 -0.51400
v 0.16075 -0.04700 0.48700
v 0.36563 -0.01227 0.26639
v 0.14851 -0.02539 0.31307
v 0.16250 0.32384 0.34926
v -0.03525 0.29300 -0.51400
v -0.19387 -0.02900 0.21656
v -0.19387 0.31000 0.21656
v -0.13992 -0.01005 0.40018
v -0.09289 -0.03873 0.50566
v 0.02350 -0.04700 0.51400
v 0.04700 0.29300 0.51100
v -0.07050 -0.04700 -0.51200
v 0.12788 -0.02900 -0.26638
v 0.12788 0.31000 -0.26638
v -0.30938 -0.01833 -0.23936
v 0.02571 -0.04020 -0.51541
v -0.11650 0.29300 -0.50300
v -0.01921 0.29727 -0.51752
v -0.22453 0.29742 0.46588
v -0.07000 0.29300 0.51000
v -0.23550 0.29300 -0.45575
v 0.09350 -0.01265 -0.45372
v -0.16237 0.30047 -0.48807
v -0.20550 -0.04700 -0.47400
v -0.13850 -0.04700 0.49450
v -0.18051 0.33004 0.39482
v -0.32763 -0.04700 -0.39462
v -0.23434 -0.02421 -0.44335
v -0.25837 0.32849 -0.34355
v -0.31638 -0.01240 0.28611
v -0.28967 -0.03922 0.42289
v -0.21550 0.29300 0.46675
v -0.35881 0.30262 -0.36613
v -0.23694 -0.02900 -0.16712
v -0.23694 0.31000 -0.16712
v -0.37650 0.29300 -0.35250
v -0.30750 0.29300 0.41400
v -0.39796 -0.03948 0.32184
v -0.44190 0.33099 0.03711
v -0.33275 -0.04700 0.38950
v -0.47917 -0.02418 0.13510
v -0.43400 -0.04700 -0.27850
v -0.45750 0.29300 -0.23800
v -0.44245 -0.03902 -0.26764
v -0.47848 0.29901 -0.19981
v -0.38234 0.30269 0.34396
v -0.48650 -0.04700 -0.17300
v -0.50935 0.30571 0.06067
v -0.44650 -0.04700 0.25750
v -0.49300 0.29300 -0.15050
v -0.44100 0.29300 0.25425
v -0.51200 -0.04700 -0.05900
v -0.49464 -0.01858 -0.04182
v -0.51050 0.29300 0.01100
v -0.50900 -0.04700 0.08100
usemtl m028
f 923 899 927
f 923 927 908
f 908 927 871
f 871 927 906
f 871 906 875
f 871 875 880
f 896 884 899
f 896 899 923
f 901 924 902
f 901 923 924
f 923 931 924
f 923 934 931
f 934 923 908
f 946 934 908
f 946 921 937
f 921 946 908
f 915 921 908
f 915 908 871
f 915 862 879
f 915 858 862
f 858 915 871
f 858 871 880
f 895 858 880
f 858 895 847
f 874 901 889
f 889 901 902
f 874 895 901
f 901 895 896
f 901 896 923
f 896 880 875
f 896 875 884
f 895 880 896
f 870 895 874
f 870 874 889
f 918 903 902
f 918 902 924
f 933 918 924
f 933 924 931
f 942 933 931
f 942 931 934
f 948 942 934
f 948 934 946
f 945 948 946
f 940 945 946
f 940 946 937
f 935 940 937
f 920 935 937
f 920 937 921
f 917 920 921
f 905 917 921
f 905 921 909
f 893 905 909
f 878 893 909
f 878 909 879
f 861 878 879
f 861 879 862
f 850 861 862
f 850 862 858
f 845 850 858
f 845 858 847
f 851 845 847
f 851 847 852
f 864 851 852
f 864 852 870
f 882 870 889
f 894 882 889
f 903 894 889
f 903 889 902
f 882 864 870
f 909 921 915
f 909 915 879
f 852 847 895
f 870 852 895
f 919 900 932
f 932 900 928
f 932 928 922
f 922 928 887
f 887 928 907
f 887 907 881
f 881 907 876
f 897 885 900
f 897 900 919
f 919 939 912
f 919 932 939
f 941 932 926
f 941 926 938
f 932 922 926
f 926 922 916
f 922 887 916
f 887 911 916
f 887 877 891
f 877 863 891
f 877 887 881
f 877 853 863
f 853 877 881
f 873 853 881
f 853 873 860
f 873 919 888
f 873 897 919
f 897 881 876
f 897 876 885
f 873 881 897
f 913 904 888
f 913 888 912
f 925 913 912
f 930 925 912
f 930 912 939
f 944 930 939
f 944 939 941
f 947 944 941
f 947 941 938
f 943 947 938
f 936 943 938
f 929 936 938
f 929 938 926
f 914 929 926
f 914 926 916
f 910 914 916
f 910 916 911
f 898 910 911
f 890 898 911
f 890 911 891
f 883 890 891
f 872 883 891
f 857 872 891
f 857 891 863
f 855 857 863
f 855 863 856
f 849 855 856
f 849 856 848
f 846 849 848
f 854 846 848
f 854 848 853
f 859 854 853
f 859 853 860
f 865 859 860
f 865 860 866
f 869 867 868
f 886 869 868
f 892 886 868
f 892 868 888
f 904 892 888
f 867 865 866
f 867 866 868
f 912 888 919
f 941 939 932
f 891 911 887
f 856 863 853
f 848 856 853
f 873 868 860
f 888 868 873
f 868 866 860
v 0.27452 -0.45300 0.21083
v 0.27501 -0.45815 0.26464
v 0.27826 -0.33494 0.13109
v 0.27386 -0.34567 0.19055
v 0.33336 -0.45294 0.21088
v 0.33310 -0.45817 0.26453
v 0.32900 -0.33492 0.13115
v 0.33452 -0.34578 0.19034
usemtl m038
f 953 949 952
f 953 952 956
f 956 952 951
f 956 951 955
f 949 953 954
f 949 954 950
f 953 949 950
f 953 950 954
