# fh16_wheel_fl.obj - ISO 8855 (x ileri, y sol, z yukari), metre
mtllib fh16.mtl
o fh16_wheel_fl
v -0.28900 0.12900 -0.14700
v -0.31400 0.12900 -0.07550
v -0.28500 0.12225 0.00091
v -0.29850 0.12900 0.12350
v -0.28878 0.15744 -0.14700
v -0.29825 0.15990 -0.09069
v -0.30433 0.15463 0.01734
v -0.29078 0.15970 0.11845
v -0.19100 0.12900 -0.26200
v -0.20771 0.11171 -0.17651
v -0.23864 0.11781 -0.09266
v -0.25878 0.11009 0.00534
v -0.23852 0.11669 0.09773
v -0.20851 0.11116 0.17782
v -0.19100 0.12900 0.26100
v -0.18593 0.15948 -0.25503
v -0.23278 0.15602 -0.20067
v -0.21710 0.14556 -0.09237
v -0.20058 0.14584 0.00549
v -0.22008 0.14544 0.09686
v -0.22578 0.15570 0.20663
v -0.18953 0.16229 0.25941
v -0.09724 0.11384 -0.25959
v -0.14047 0.11726 -0.21043
v -0.13531 0.11682 0.21500
v -0.09529 0.11382 0.26332
v -0.11775 0.15585 -0.28398
v -0.12298 0.14561 -0.17625
v -0.10995 0.19442 -0.08352
v -0.11573 0.20094 0.00675
v -0.10610 0.18921 0.09968
v -0.12231 0.14419 0.18533
v -0.11852 0.15583 0.28302
v -0.02191 0.11152 -0.27111
v -0.00528 0.12805 -0.23232
v -0.00653 0.12752 0.23308
v -0.02236 0.11111 0.27155
v -0.02513 0.15577 -0.30587
v -0.00806 0.16705 -0.17517
v -0.02758 0.20309 -0.10467
v -0.04062 0.20834 0.01248
v -0.02515 0.20168 0.11047
v -0.00851 0.15174 0.19110
v -0.02472 0.15580 0.30547
v 0.06212 0.11117 -0.26548
v 0.10787 0.11267 -0.23274
v 0.10154 0.11428 0.23248
v 0.06041 0.11073 0.26752
v 0.07047 0.15576 -0.29853
v 0.07363 0.15307 -0.17783
v 0.07478 0.20110 -0.09224
v 0.09738 0.20333 0.00749
v 0.07140 0.19909 0.10038
v 0.08087 0.14613 0.18387
v 0.07092 0.15581 0.29792
v 0.13340 0.12220 -0.25647
v 0.17788 0.11286 -0.19205
v 0.21638 0.12840 -0.07830
v 0.22000 0.13022 0.05133
v 0.21391 0.12633 0.09463
v 0.16983 0.11448 0.19496
v 0.13862 0.12675 0.25987
v 0.15752 0.15723 -0.26584
v 0.18727 0.14864 -0.20464
v 0.15587 0.16964 -0.07378
v 0.15379 0.18424 0.00649
v 0.15615 0.16079 0.09222
v 0.19003 0.15165 0.21856
v 0.14929 0.15739 0.27024
v 0.23531 0.12356 -0.17181
v 0.24851 0.11301 -0.09888
v 0.26729 0.11246 0.00172
v 0.24854 0.11241 0.10026
v 0.23180 0.12300 0.17280
v 0.24880 0.15661 -0.18457
v 0.29001 0.15664 -0.09493
v 0.30218 0.15473 0.01703
v 0.28311 0.15606 0.11689
v 0.24392 0.15707 0.18979
usemtl m020
f 25 31 13
f 25 13 14
f 31 25 32
f 36 43 32
f 36 32 25
f 31 32 43
f 13 31 20
f 19 31 30
f 29 11 18
f 19 11 12
f 29 19 30
f 39 35 24
f 39 24 28
f 11 29 10
f 29 28 10
f 28 24 10
f 29 39 28
f 34 35 45
f 35 46 45
f 34 24 35
f 65 58 57
f 64 65 57
f 77 66 72
f 71 66 72
f 71 57 58
f 67 68 60
f 68 61 60
f 37 47 36
f 19 20 31
f 11 19 18
f 19 29 18
f 50 46 35
f 35 39 50
f 57 46 50
f 64 50 65
f 51 65 50
f 58 66 71
f 66 58 65
f 59 73 72
f 73 59 60
f 66 59 72
f 47 54 36
f 43 36 54
f 24 34 23
f 47 37 48
f 36 25 37
f 73 60 61
f 13 12 3
f 12 11 3
f 57 56 46
f 56 45 46
f 57 71 70
f 73 61 74
f 48 61 47
f 26 25 32
f 26 32 33
f 25 14 21
f 25 21 32
f 14 13 20
f 14 20 21
f 13 3 7
f 13 7 20
f 3 11 18
f 3 18 7
f 11 10 17
f 11 17 18
f 10 28 17
f 24 23 27
f 24 27 28
f 23 34 38
f 23 38 27
f 34 45 49
f 34 49 38
f 45 56 63
f 45 63 49
f 56 57 64
f 56 64 63
f 57 70 75
f 57 75 64
f 70 71 76
f 70 76 75
f 71 72 77
f 71 77 76
f 72 73 78
f 72 78 77
f 73 74 79
f 73 79 78
f 74 61 68
f 74 68 79
f 61 62 69
f 61 69 68
f 62 48 55
f 62 55 69
f 48 37 44
f 48 44 55
f 37 26 33
f 37 33 44
f 33 32 21
f 27 16 17
f 28 27 17
f 75 63 64
f 69 79 68
f 14 15 22
f 14 22 21
f 15 26 33
f 15 33 22
f 3 4 8
f 3 8 7
f 4 14 21
f 4 21 8
f 10 1 5
f 10 5 17
f 1 2 6
f 1 6 5
f 2 3 7
f 2 7 6
f 23 9 16
f 23 16 27
f 9 10 17
f 9 17 16
f 45 34 38
f 45 38 49
f 34 23 27
f 34 27 38
f 70 56 63
f 70 63 75
f 56 45 49
f 56 49 63
f 72 71 76
f 72 76 77
f 71 70 75
f 71 75 76
f 74 73 78
f 74 78 79
f 73 72 77
f 73 77 78
f 48 62 69
f 48 69 55
f 62 74 79
f 62 79 69
f 26 37 44
f 26 44 33
f 37 48 55
f 37 55 44
f 48 62 61
f 8 20 7
f 18 6 7
f 21 22 33
f 21 20 8
f 17 6 18
f 17 5 6
f 25 26 37
f 43 42 31
f 39 29 40
f 54 53 43
f 53 42 43
f 39 51 50
f 42 52 41
f 42 53 52
f 53 67 66
f 51 40 52
f 41 52 40
f 51 39 40
f 40 30 41
f 41 30 42
f 30 31 42
f 40 29 30
f 52 53 66
f 66 65 51
f 66 51 52
v -0.53648 -0.07273 -0.06561
v -0.53925 -0.07613 -0.01626
v -0.53758 -0.07493 0.04824
v -0.53924 -0.02539 -0.08205
v -0.54496 -0.02646 -0.01547
v -0.54245 -0.02600 0.05447
v -0.53617 -0.02142 0.10275
v -0.53841 0.04209 -0.07744
v -0.54204 0.05341 -0.01600
v -0.54044 0.04789 0.05214
v -0.53615 0.02931 0.10123
v -0.47567 -0.13678 -0.21894
v -0.49360 -0.13949 -0.15360
v -0.50345 -0.14143 -0.08802
v -0.51022 -0.14203 -0.01745
v -0.50925 -0.14082 0.05633
v -0.49743 -0.14091 0.12470
v -0.48455 -0.13697 0.19707
v -0.46845 -0.13291 0.23782
v -0.46765 -0.07255 -0.27110
v -0.48628 -0.08138 -0.22597
v -0.50398 -0.08151 -0.15715
v -0.51601 -0.08447 -0.09081
v -0.51179 -0.08906 -0.01427
v -0.51449 -0.08730 0.06035
v -0.51168 -0.08198 0.12592
v -0.49514 -0.08200 0.19268
v -0.47666 -0.07934 0.25084
v -0.47268 -0.02468 -0.27250
v -0.49234 -0.02649 -0.22563
v -0.51052 -0.02626 -0.15740
v -0.51142 -0.02881 -0.09233
v -0.51064 -0.02675 -0.01721
v -0.50794 -0.02817 0.05371
v -0.51548 -0.02720 0.13189
v -0.49965 -0.02721 0.19600
v -0.48026 -0.02592 0.25804
v -0.47078 0.04514 -0.27195
v -0.48960 0.05212 -0.22579
v -0.50682 0.05127 -0.15773
v -0.51472 0.05963 -0.09196
v -0.50790 0.05248 -0.01599
v -0.51053 0.05735 0.05887
v -0.51342 0.05426 0.12889
v -0.49745 0.05105 0.19421
v -0.47892 0.04996 0.25506
v -0.47752 0.13277 -0.21766
v -0.49507 0.13586 -0.15384
v -0.50608 0.13589 -0.08775
v -0.51388 0.13677 -0.01500
v -0.51153 0.13640 0.05537
v -0.49958 0.13606 0.12370
v -0.48499 0.13421 0.19615
v -0.46971 0.12543 0.23943
v -0.39946 -0.13469 -0.34069
v -0.42439 -0.13862 -0.29695
v -0.43963 -0.14637 -0.23802
v -0.44486 -0.15827 -0.16709
v -0.42720 -0.17940 -0.08930
v -0.42838 -0.18125 -0.01013
v -0.42057 -0.18186 0.06400
v -0.44877 -0.16431 0.13531
v -0.44046 -0.15380 0.19557
v -0.43619 -0.14192 0.26622
v -0.41189 -0.13707 0.32216
v -0.40806 -0.08028 -0.35169
v -0.43384 -0.08321 -0.30042
v -0.44902 -0.08288 -0.23260
v -0.46250 -0.11500 -0.18350
v -0.45556 -0.08353 0.21526
v -0.43994 -0.08295 0.27878
v -0.41797 -0.08056 0.33352
v -0.41219 -0.02600 -0.35719
v -0.43816 -0.02683 -0.30498
v -0.45135 -0.02762 -0.23954
v -0.45888 -0.02756 0.22494
v -0.44455 -0.02643 0.27865
v -0.42352 -0.02583 0.33654
v -0.39531 -0.02056 0.37619
v -0.41078 0.04776 -0.35529
v -0.43568 0.05320 -0.30273
v -0.45029 0.05379 -0.23532
v -0.45700 0.06129 0.21998
v -0.44191 0.05358 0.27841
v -0.42079 0.05134 0.33531
v -0.39450 0.02708 0.37667
v -0.40091 0.12930 -0.34096
v -0.42656 0.13422 -0.29631
v -0.44228 0.14152 -0.23933
v -0.45735 0.14488 -0.17124
v -0.46200 0.15033 0.15283
v -0.44656 0.14241 0.19826
v -0.43691 0.13769 0.26982
v -0.41079 0.13403 0.32498
v -0.32800 -0.13350 -0.41040
v -0.35732 -0.14032 -0.37132
v -0.37329 -0.15352 -0.31132
v -0.35867 -0.18144 -0.22744
v -0.35656 -0.18133 -0.15611
v -0.36371 -0.17871 -0.08329
v -0.37533 -0.17933 -0.00900
v -0.37067 -0.17933 0.05900
v -0.36456 -0.18078 0.13100
v -0.35400 -0.18262 0.19825
v -0.37540 -0.16207 0.28147
v -0.36617 -0.14428 0.34614
v -0.34720 -0.13657 0.39104
v -0.33900 -0.08143 -0.41829
v -0.36543 -0.08230 -0.37712
v -0.38553 -0.08232 -0.32521
v -0.37076 -0.08495 0.35072
v -0.35483 -0.08026 0.39967
v -0.34368 -0.02666 -0.42341
v -0.36794 -0.02667 -0.38011
v -0.38955 -0.02755 -0.33073
v -0.37188 -0.02812 0.34967
v -0.35538 -0.02594 0.40666
v -0.34214 0.04701 -0.42187
v -0.36603 0.05451 -0.37823
v -0.38788 0.06032 -0.32736
v -0.37098 0.05572 0.34983
v -0.35513 0.05223 0.40298
v -0.32886 0.12364 -0.41314
v -0.35911 0.13695 -0.37184
v -0.37672 0.14555 -0.31566
v -0.38725 0.14850 0.29537
v -0.36763 0.13898 0.34825
v -0.34728 0.13284 0.39251
v -0.28410 -0.13805 -0.43496
v -0.29394 -0.15450 -0.38259
v -0.28890 -0.18220 -0.29580
v -0.29014 -0.17871 -0.23443
v -0.28350 -0.16675 -0.16400
v -0.30300 -0.16400 -0.09300
v -0.31533 -0.16400 -0.02200
v -0.31300 -0.16400 0.04950
v -0.29300 -0.16400 0.11867
v -0.29833 -0.17483 0.19667
v -0.29110 -0.18200 0.27090
v -0.29945 -0.16736 0.35236
v -0.29270 -0.14273 0.41551
v -0.26320 -0.13572 0.45304
v -0.28613 -0.08165 -0.44543
v -0.31325 -0.08395 -0.39470
v -0.29768 -0.08383 0.42184
v -0.27587 -0.08038 0.46183
v -0.26042 -0.02674 -0.47926
v -0.29007 -0.02620 -0.44877
v -0.31800 -0.02608 -0.40046
v -0.29465 -0.02894 0.42536
v -0.28450 -0.02519 0.46397
v -0.25994 0.03156 -0.47931
v -0.28772 0.05403 -0.44673
v -0.31539 0.05507 -0.39829
v -0.29563 0.05360 0.42408
v -0.28070 0.05151 0.46319
v -0.28463 0.13425 -0.43550
v -0.30031 0.14400 -0.38621
v -0.31525 0.15000 0.37025
v -0.29413 0.13844 0.41713
v -0.26624 0.12962 0.45315
v -0.19962 -0.13544 -0.48494
v -0.22535 -0.14514 -0.45055
v -0.21488 -0.18200 -0.36250
v -0.21757 -0.17943 -0.30600
v -0.22100 -0.16400 -0.22633
v -0.24150 -0.16400 0.20500
v -0.22150 -0.17300 0.27133
v -0.21889 -0.18178 0.33511
v -0.22141 -0.15648 0.42379
v -0.21319 -0.13860 0.47260
v -0.21576 -0.08132 -0.49285
v -0.21695 -0.08292 -0.45680
v -0.24329 -0.08793 0.43971
v -0.21322 -0.08197 0.48293
v -0.21511 -0.02504 -0.49906
v -0.21915 -0.02845 -0.46116
v -0.21687 -0.02545 0.48876
v -0.21573 0.05046 -0.49633
v -0.21702 0.05329 -0.45944
v -0.24630 0.07630 0.44080
v -0.21510 0.05113 0.48577
v -0.20457 0.12943 -0.48467
v -0.22557 0.14097 -0.45282
v -0.22564 0.14348 0.43264
v -0.21316 0.13403 0.47347
v -0.14266 -0.13792 -0.50232
v -0.14867 -0.15330 -0.45876
v -0.14250 -0.18160 -0.37220
v -0.14900 -0.16950 -0.30400
v -0.17700 -0.16400 -0.26300
v -0.13933 -0.16400 0.28333
v -0.15400 -0.18000 0.34671
v -0.13811 -0.18022 0.40967
v -0.14609 -0.14135 0.48877
v -0.14253 -0.08149 -0.50947
v -0.16792 -0.09167 -0.47317
v -0.15282 -0.08382 0.49504
v -0.13316 -0.07822 0.52165
v -0.14182 -0.02569 -0.51557
v -0.15155 -0.02876 0.49389
v -0.14140 -0.02505 0.52588
v -0.14185 0.05181 -0.51230
v -0.17413 0.07913 -0.47375
v -0.15271 0.05565 0.49368
v -0.13825 0.04837 0.52428
v -0.14442 0.13406 -0.50243
v -0.14906 0.14450 -0.46450
v -0.14659 0.13781 0.49096
v -0.11850 0.11500 0.51700
v -0.07347 -0.14093 -0.50628
v -0.08867 -0.17067 -0.44900
v -0.06975 -0.18050 -0.37725
v -0.07167 -0.16400 -0.30800
v -0.07950 -0.17300 0.34100
v -0.07543 -0.18171 0.41129
v -0.07849 -0.14845 0.49188
v -0.06580 -0.13551 0.51954
v -0.07561 -0.08187 -0.52116
v -0.07269 -0.08050 0.49828
v -0.07474 -0.08278 0.53173
v -0.07394 -0.02667 -0.52871
v -0.07485 -0.02790 0.50443
v -0.07734 -0.02602 0.53882
v -0.07453 0.05243 -0.52487
v -0.07379 0.05165 0.50193
v -0.07602 0.05337 0.53594
v -0.07483 0.13639 -0.50772
v -0.10300 0.15100 -0.47500
v -0.08103 0.14298 0.49660
v -0.06812 0.12830 0.52102
v -0.00449 -0.14164 -0.51177
v -0.00030 -0.17940 -0.43640
v -0.00033 -0.17933 -0.37567
v -0.00050 -0.16400 -0.31700
v -0.01133 -0.17033 0.33933
v -0.01400 -0.18262 0.40500
v -0.00375 -0.15111 0.48783
v -0.00315 -0.13574 0.52321
v -0.00537 -0.08137 -0.52573
v -0.00507 -0.08050 0.50335
v -0.00462 -0.08258 0.53694
v -0.00580 -0.02599 -0.53320
v -0.00508 -0.02865 0.50968
v -0.00690 -0.02548 0.54421
v -0.00544 0.05304 -0.52917
v -0.00502 0.05163 0.50713
v -0.00503 0.05254 0.54129
v -0.00352 0.13679 -0.51311
v -0.00521 0.14349 0.49067
v -0.00195 0.13367 0.52363
v 0.06528 -0.14087 -0.50752
v 0.08491 -0.16891 -0.44909
v 0.06912 -0.18050 -0.37725
v 0.07100 -0.16400 -0.30800
v 0.06737 -0.17412 0.34712
v 0.05889 -0.18211 0.41278
v 0.07258 -0.14878 0.49210
v 0.06555 -0.13540 0.51942
v 0.06708 -0.08181 -0.52150
v 0.06653 -0.08137 0.49865
v 0.06898 -0.08297 0.53229
v 0.06476 -0.02665 -0.52998
v 0.06670 -0.02794 0.50530
v 0.06495 -0.02565 0.54027
v 0.06585 0.05096 -0.52594
v 0.06662 0.05165 0.50265
v 0.06738 0.05222 0.53705
v 0.06416 0.13690 -0.50909
v 0.10000 0.15000 -0.47575
v 0.07503 0.14195 0.49706
v 0.06116 0.12915 0.52155
v 0.13465 -0.13790 -0.50423
v 0.13803 -0.15347 -0.46197
v 0.14160 -0.18160 -0.37220
v 0.14850 -0.16950 -0.30400
v 0.13867 -0.16400 0.28333
v 0.14917 -0.17933 0.34367
v 0.13430 -0.18050 0.40630
v 0.13966 -0.14201 0.48910
v 0.13552 -0.08145 -0.51033
v 0.16456 -0.09167 -0.47389
v 0.14730 -0.08422 0.49529
v 0.13017 -0.07883 0.52178
v 0.13718 -0.02642 -0.51641
v 0.13855 -0.02794 0.49047
v 0.13820 -0.02590 0.52621
v 0.13666 0.05235 -0.51297
v 0.16917 0.07917 -0.47500
v 0.14389 0.05683 0.49270
v 0.13553 0.04882 0.52447
v 0.13586 0.13385 -0.50398
v 0.14121 0.14493 -0.46634
v 0.13983 0.13770 0.49143
v 0.11183 0.11500 0.51767
v 0.19376 -0.13557 -0.48669
v 0.21789 -0.14615 -0.45118
v 0.21425 -0.18200 -0.36250
v 0.21200 -0.17883 -0.30633
v 0.20950 -0.16400 -0.23550
v 0.23100 -0.16400 0.21700
v 0.21500 -0.17160 0.26960
v 0.21033 -0.18189 0.33822
v 0.21644 -0.15637 0.42515
v 0.20767 -0.13910 0.47393
v 0.20798 -0.08103 -0.49558
v 0.21088 -0.08352 -0.45886
v 0.23767 -0.08989 0.44156
v 0.20878 -0.08171 0.48354
v 0.20656 -0.02627 -0.50154
v 0.21445 -0.02790 -0.46282
v 0.20829 -0.02667 0.49050
v 0.17900 0.00000 0.51600
v 0.20767 0.05134 -0.49906
v 0.21118 0.05286 -0.46122
v 0.24067 0.07667 0.44300
v 0.20880 0.05176 0.48665
v 0.19594 0.13142 -0.48687
v 0.21868 0.14044 -0.45404
v 0.22065 0.14448 0.43413
v 0.20597 0.13486 0.47522
v 0.27587 -0.13903 -0.43743
v 0.28983 -0.15541 -0.38286
v 0.27722 -0.18278 -0.29611
v 0.28450 -0.17800 -0.23583
v 0.28275 -0.16675 -0.16400
v 0.30250 -0.16400 -0.09300
v 0.31200 -0.16400 -0.05100
v 0.31200 -0.16400 0.04950
v 0.29233 -0.16400 0.11867
v 0.28000 -0.17160 0.20140
v 0.27900 -0.18167 0.27233
v 0.28412 -0.17575 0.34275
v 0.28769 -0.14402 0.41536
v 0.26252 -0.13563 0.45285
v 0.25250 -0.07070 -0.47760
v 0.27968 -0.08211 -0.44734
v 0.30665 -0.08135 -0.39959
v 0.28677 -0.08360 0.42268
v 0.27349 -0.08022 0.46236
v 0.25155 -0.02475 -0.48330
v 0.28499 -0.02662 -0.45015
v 0.31225 -0.03475 -0.40275
v 0.28076 -0.02894 0.42548
v 0.27905 -0.02470 0.46648
v 0.25236 0.04131 -0.48136
v 0.28238 0.05296 -0.44825
v 0.30839 0.07111 -0.40044
v 0.28329 0.05420 0.42367
v 0.27719 0.05010 0.46481
v 0.27642 0.13453 -0.43870
v 0.29429 0.14617 -0.38758
v 0.31500 0.15100 0.36900
v 0.28858 0.13954 0.41838
v 0.26343 0.12977 0.45400
v 0.32276 -0.13612 -0.41235
v 0.35017 -0.14100 -0.37444
v 0.36240 -0.15680 -0.30988
v 0.34989 -0.18211 -0.22744
v 0.35567 -0.18133 -0.15611
v 0.35900 -0.17800 -0.08667
v 0.35000 -0.17300 -0.00833
v 0.36640 -0.17860 0.06200
v 0.35657 -0.18000 0.12900
v 0.34156 -0.18167 0.19478
v 0.36177 -0.16969 0.27654
v 0.35841 -0.14647 0.34581
v 0.34204 -0.13655 0.39447
v 0.33672 -0.08084 -0.41899
v 0.35836 -0.08333 -0.37627
v 0.38127 -0.08555 -0.32736
v 0.36277 -0.08446 0.35123
v 0.34634 -0.08121 0.40433
v 0.33869 -0.02664 -0.42613
v 0.36257 -0.02655 -0.38091
v 0.36777 -0.02800 0.35279
v 0.34818 -0.02637 0.40967
v 0.33837 0.04977 -0.42321
v 0.36028 0.05065 -0.37846
v 0.38167 0.07811 -0.32911
v 0.36490 0.05372 0.35148
v 0.34762 0.05207 0.40692
v 0.32432 0.12936 -0.41316
v 0.35147 0.13664 -0.37516
v 0.37025 0.14540 -0.31625
v 0.38400 0.15000 0.29725
v 0.36106 0.14031 0.34896
v 0.34141 0.13219 0.39541
v 0.39286 -0.13591 -0.34573
v 0.42023 -0.13981 -0.29773
v 0.43261 -0.15027 -0.23391
v 0.43776 -0.16088 -0.17253
v 0.41900 -0.18050 -0.08810
v 0.42050 -0.18160 -0.01000
v 0.41587 -0.18200 0.06150
v 0.41671 -0.17957 0.12614
v 0.43641 -0.15524 0.19735
v 0.42869 -0.14219 0.27331
v 0.40580 -0.13696 0.32825
v 0.40305 -0.07965 -0.35574
v 0.42820 -0.08242 -0.30331
v 0.44285 -0.08150 -0.23869
v 0.45150 -0.08395 0.22020
v 0.43357 -0.08373 0.27687
v 0.41286 -0.08033 0.33656
v 0.40862 -0.02591 -0.35948
v 0.43016 -0.02680 -0.30897
v 0.44709 -0.02947 -0.24474
v 0.45450 -0.02850 0.23100
v 0.43655 -0.02810 0.27576
v 0.42133 -0.02568 0.33534
v 0.39041 -0.02584 0.37925
v 0.40650 0.05205 -0.35758
v 0.42855 0.05205 -0.30651
v 0.44474 0.05643 -0.24238
v 0.45333 0.05958 0.22479
v 0.43533 0.05475 0.27581
v 0.41711 0.05240 0.33578
v 0.39067 0.03015 0.37870
v 0.39386 0.13007 -0.34693
v 0.42095 0.13635 -0.29805
v 0.43667 0.14340 -0.23583
v 0.45110 0.14900 -0.18010
v 0.44320 0.14420 0.20110
v 0.43045 0.13830 0.27362
v 0.40575 0.13300 0.33001
v 0.47131 -0.13660 -0.22492
v 0.49041 -0.14000 -0.15319
v 0.50254 -0.14178 -0.08379
v 0.50934 -0.14235 -0.01277
v 0.50552 -0.14170 0.05799
v 0.49377 -0.14203 0.12476
v 0.48173 -0.13770 0.19644
v 0.46195 -0.13663 0.24395
v 0.46271 -0.07761 -0.27468
v 0.48288 -0.08139 -0.22697
v 0.50126 -0.08241 -0.15669
v 0.50648 -0.08880 -0.09063
v 0.50402 -0.08190 -0.01802
v 0.50346 -0.08531 0.05787
v 0.50799 -0.08338 0.12832
v 0.49159 -0.08195 0.19357
v 0.47088 -0.07927 0.25870
v 0.46645 -0.02488 -0.28054
v 0.48840 -0.02526 -0.22545
v 0.50696 -0.02835 -0.16128
v 0.50193 -0.02828 -0.08692
v 0.50912 -0.02790 -0.01808
v 0.50645 -0.02709 0.05409
v 0.50706 -0.02823 0.13757
v 0.49643 -0.02606 0.19693
v 0.47548 -0.02675 0.26366
v 0.46496 0.04803 -0.27838
v 0.48562 0.05168 -0.22618
v 0.50421 0.05368 -0.15851
v 0.50250 0.05529 -0.08939
v 0.50640 0.05254 -0.01714
v 0.50365 0.05165 0.05500
v 0.50741 0.05548 0.13255
v 0.49374 0.05264 0.19523
v 0.47375 0.04873 0.26203
v 0.46100 0.10450 -0.26550
v 0.47241 0.13304 -0.22489
v 0.49071 0.13574 -0.15529
v 0.50499 0.13597 -0.08488
v 0.50852 0.14131 -0.01462
v 0.50773 0.13888 0.05677
v 0.49672 0.13649 0.12564
v 0.48280 0.13348 0.19365
v 0.46356 0.13033 0.24456
v 0.53242 -0.07534 -0.07887
v 0.53649 -0.08107 -0.01936
v 0.53488 -0.07929 0.04971
v 0.52957 -0.07443 0.09820
v 0.52921 -0.02069 -0.12934
v 0.53728 -0.02428 -0.08456
v 0.54358 -0.02515 -0.01617
v 0.54092 -0.02520 0.05572
v 0.53188 -0.02444 0.11447
v 0.52941 0.02664 -0.12759
v 0.53519 0.04901 -0.08203
v 0.54056 0.05227 -0.01852
v 0.53822 0.05198 0.05368
v 0.53111 0.04361 0.10912
v 0.52950 0.11200 -0.01371
v 0.52867 0.11267 0.03567
usemtl m022
f 84 112 121
f 84 121 88
f 88 129 121
f 88 121 112
f 88 112 84
f 84 112 103
f 84 103 81
f 81 103 112
f 81 112 84
f 130 89 122
f 88 89 130
f 88 130 129
f 85 113 122
f 85 122 89
f 88 89 122
f 88 122 121
f 89 88 121
f 89 121 122
f 85 112 122
f 85 89 88
f 85 88 84
f 89 122 113
f 89 113 85
f 82 85 84
f 82 84 81
f 95 104 103
f 104 82 81
f 104 81 103
f 85 113 104
f 85 104 82
f 82 104 113
f 82 113 85
f 85 113 112
f 85 112 84
f 84 112 113
f 84 113 85
f 82 104 103
f 82 103 81
f 103 94 95
f 89 90 123
f 123 122 89
f 122 123 131
f 122 131 130
f 90 89 122
f 123 90 122
f 86 114 122
f 86 122 90
f 90 89 85
f 90 85 86
f 105 86 85
f 105 85 82
f 85 86 114
f 82 104 105
f 86 105 114
f 96 105 104
f 96 104 95
f 86 113 85
f 114 113 86
f 114 123 90
f 114 90 86
f 123 124 132
f 123 132 131
f 132 124 171
f 115 114 123
f 115 123 124
f 132 171 170
f 131 132 170
f 124 123 114
f 124 114 115
f 106 115 114
f 106 114 105
f 97 106 105
f 97 105 96
f 106 142 97
f 97 142 149
f 97 149 106
f 97 141 142
f 96 141 97
f 133 132 125
f 124 125 132
f 124 125 162
f 116 155 162
f 116 162 125
f 133 172 171
f 132 133 171
f 124 171 162
f 133 125 162
f 133 162 171
f 132 124 162
f 132 162 171
f 125 124 115
f 125 115 116
f 107 115 106
f 116 115 107
f 98 106 97
f 106 98 107
f 106 149 107
f 116 155 115
f 115 149 106
f 107 149 155
f 107 155 116
f 98 142 143
f 97 142 98
f 106 149 142
f 98 142 149
f 98 149 107
f 125 163 172
f 172 133 125
f 116 156 163
f 116 163 125
f 125 162 163
f 125 133 171
f 125 171 162
f 125 163 156
f 125 156 116
f 125 162 155
f 125 155 116
f 150 116 107
f 116 150 156
f 143 107 98
f 107 143 150
f 116 156 155
f 107 149 150
f 116 155 149
f 116 149 107
f 107 150 156
f 107 156 116
f 107 149 142
f 107 142 98
f 163 156 157
f 163 157 164
f 164 173 172
f 172 163 164
f 172 173 205
f 144 151 150
f 156 150 151
f 156 151 157
f 150 143 144
f 157 156 150
f 157 150 151
f 144 143 184
f 144 184 150
f 206 173 164
f 157 195 200
f 157 200 164
f 164 206 200
f 173 206 205
f 173 164 200
f 173 200 206
f 185 151 144
f 151 185 190
f 157 195 190
f 157 190 151
f 151 190 195
f 151 195 157
f 144 184 185
f 151 150 184
f 151 184 144
f 144 185 190
f 144 190 151
f 165 158 196
f 165 196 201
f 201 164 165
f 207 206 200
f 207 200 201
f 164 201 200
f 165 201 200
f 196 195 200
f 196 200 201
f 201 207 206
f 201 206 200
f 165 164 200
f 158 195 200
f 158 200 165
f 158 165 164
f 158 164 157
f 165 200 195
f 165 195 158
f 164 200 195
f 164 195 157
f 191 157 151
f 157 196 158
f 157 191 196
f 190 185 186
f 190 186 191
f 151 190 191
f 196 195 190
f 196 190 191
f 191 195 196
f 158 195 196
f 191 190 185
f 191 185 186
f 158 195 157
f 191 190 195
f 207 201 239
f 196 229 234
f 196 234 201
f 201 239 234
f 207 239 238
f 207 238 206
f 207 201 234
f 207 234 239
f 201 200 195
f 201 195 196
f 220 191 186
f 220 224 191
f 191 224 229
f 191 229 196
f 186 219 220
f 186 185 219
f 186 220 224
f 186 224 191
f 234 196 230
f 234 230 235
f 240 239 235
f 234 235 239
f 230 229 234
f 240 235 234
f 240 234 239
f 201 234 229
f 201 229 196
f 225 230 229
f 229 230 196
f 224 220 221
f 224 221 225
f 224 229 196
f 224 196 191
f 229 224 225
f 265 235 261
f 235 265 240
f 235 234 261
f 235 261 260
f 235 260 234
f 230 257 261
f 230 261 235
f 240 265 264
f 235 240 264
f 235 264 260
f 265 261 264
f 240 264 239
f 240 235 260
f 240 260 264
f 235 234 229
f 235 229 230
f 230 225 254
f 250 254 225
f 250 225 221
f 230 257 229
f 225 253 254
f 230 229 253
f 230 253 225
f 254 257 230
f 221 249 250
f 225 253 249
f 225 249 221
f 250 249 253
f 250 253 254
f 225 224 253
f 230 229 224
f 230 224 225
f 225 253 229
f 221 220 249
f 225 224 220
f 225 220 221
f 221 249 253
f 221 253 225
f 235 261 257
f 235 257 230
f 250 274 254
f 254 253 249
f 254 249 250
f 257 281 280
f 284 261 257
f 284 257 280
f 288 265 261
f 288 261 284
f 281 280 284
f 281 284 285
f 277 280 257
f 280 277 278
f 280 278 281
f 257 254 277
f 254 274 277
f 289 309 288
f 310 289 285
f 310 285 306
f 285 289 288
f 309 289 310
f 284 285 288
f 285 306 305
f 285 305 284
f 306 285 284
f 306 284 305
f 310 306 305
f 310 305 309
f 285 284 280
f 285 280 281
f 281 278 300
f 274 278 277
f 278 274 296
f 278 296 297
f 278 297 300
f 297 296 300
f 278 277 299
f 278 299 300
f 281 280 277
f 281 277 278
f 281 302 280
f 300 299 302
f 300 302 281
f 300 299 277
f 300 277 278
f 296 299 300
f 306 285 281
f 306 281 303
f 303 302 305
f 303 305 306
f 306 310 309
f 306 309 305
f 306 305 302
f 306 302 303
f 300 303 281
f 303 302 299
f 303 299 300
f 300 302 303
f 297 296 299
f 297 299 300
f 303 302 281
f 281 302 299
f 281 299 300
f 306 303 324
f 306 324 327
f 330 310 306
f 330 306 327
f 327 306 305
f 327 305 326
f 306 327 326
f 306 326 305
f 324 323 326
f 324 326 327
f 327 330 329
f 327 329 326
f 330 327 326
f 330 326 329
f 310 330 329
f 310 329 309
f 321 324 303
f 303 300 321
f 318 300 297
f 300 318 321
f 324 323 302
f 324 302 303
f 303 323 320
f 303 320 321
f 303 302 323
f 321 320 323
f 321 323 324
f 303 323 324
f 321 320 317
f 321 317 318
f 318 317 320
f 318 320 321
f 300 299 320
f 300 320 321
f 321 323 303
f 297 317 318
f 297 296 317
f 321 320 299
f 321 299 300
f 351 330 327
f 351 327 347
f 327 347 346
f 327 346 326
f 347 327 326
f 347 326 346
f 330 351 350
f 330 350 329
f 351 347 346
f 351 346 350
f 327 326 323
f 327 323 324
f 324 321 341
f 321 318 338
f 321 338 341
f 321 320 340
f 321 340 341
f 324 323 320
f 324 320 321
f 341 340 323
f 341 323 324
f 318 317 337
f 318 337 338
f 341 340 320
f 341 320 321
f 338 337 340
f 338 340 341
f 324 344 347
f 324 347 327
f 344 343 346
f 344 346 347
f 347 351 350
f 347 350 346
f 347 346 343
f 347 343 344
f 344 343 340
f 344 340 341
f 341 340 343
f 341 343 344
f 341 340 337
f 341 337 338
f 344 343 323
f 344 323 324
f 344 323 340
f 324 323 343
f 324 343 344
f 347 344 366
f 347 366 370
f 373 374 370
f 374 351 347
f 374 347 370
f 373 350 351
f 373 351 374
f 370 347 346
f 370 346 369
f 366 365 369
f 366 369 370
f 374 373 350
f 370 374 350
f 370 350 369
f 373 370 369
f 374 370 346
f 374 346 350
f 363 359 362
f 344 341 363
f 344 363 366
f 341 337 359
f 341 359 363
f 366 343 344
f 366 365 343
f 366 343 362
f 366 362 363
f 363 362 365
f 363 365 366
f 363 340 359
f 363 362 340
f 341 340 363
f 363 340 343
f 363 343 366
f 396 369 370
f 400 373 369
f 400 369 396
f 370 369 365
f 370 365 366
f 366 362 388
f 366 388 391
f 362 359 384
f 362 384 388
f 366 365 362
f 391 365 366
f 388 362 365
f 388 365 391
f 392 391 396
f 366 392 396
f 366 396 370
f 396 400 373
f 396 373 369
f 391 392 366
f 384 383 388
f 391 365 362
f 391 362 388
f 388 362 359
f 388 359 384
f 396 391 424
f 396 424 429
f 429 434 400
f 400 396 429
f 429 428 395
f 429 395 396
f 429 396 428
f 400 434 399
f 429 400 399
f 429 399 396
f 434 429 428
f 434 428 399
f 434 399 433
f 400 396 399
f 419 424 391
f 414 419 388
f 391 388 419
f 419 387 418
f 419 388 387
f 424 423 391
f 419 418 423
f 419 423 424
f 414 383 384
f 388 387 383
f 388 383 414
f 414 413 387
f 414 387 419
f 414 383 413
f 384 383 387
f 384 387 388
f 433 429 428
f 429 433 434
f 424 423 428
f 424 428 429
f 434 428 433
f 429 428 423
f 429 423 424
f 424 419 418
f 413 418 419
f 419 414 413
f 424 423 418
f 429 428 461
f 467 433 461
f 428 461 433
f 467 432 433
f 467 466 432
f 456 423 428
f 456 428 461
f 467 461 428
f 467 428 433
f 456 461 429
f 456 429 424
f 461 428 423
f 461 423 456
f 452 456 423
f 452 423 424
f 452 424 418
f 456 424 423
f 447 418 413
f 418 447 452
f 456 423 418
f 456 418 452
f 447 413 412
f 452 418 413
f 452 413 447
f 447 446 452
f 447 412 446
f 452 418 423
f 456 455 460
f 456 460 461
f 461 467 466
f 461 466 460
f 467 461 460
f 467 460 466
f 456 451 452
f 452 451 455
f 452 455 456
f 452 451 446
f 447 446 451
f 447 451 452
f 498 491 490
f 498 490 497
f 461 498 497
f 498 461 456
f 498 456 491
f 505 466 497
f 461 497 466
f 497 498 460
f 490 460 497
f 497 466 460
f 498 461 460
f 461 497 460
f 491 455 460
f 491 460 498
f 505 497 460
f 505 460 466
f 498 460 455
f 498 455 491
f 461 460 455
f 461 455 456
f 484 491 456
f 484 456 452
f 491 484 490
f 478 451 446
f 451 484 452
f 451 478 484
f 490 455 491
f 490 455 451
f 490 451 484
f 484 451 446
f 484 446 478
f 491 455 456
f 456 455 451
f 484 451 455
f 484 455 490
f 504 505 497
f 490 489 496
f 490 496 497
f 497 504 496
f 505 504 465
f 505 465 466
f 505 497 496
f 505 496 504
f 477 484 478
f 484 477 483
f 484 483 489
f 484 489 490
f 478 445 477
f 478 446 445
f 478 477 483
f 478 483 484
f 496 489 531
f 496 531 540
f 549 504 540
f 496 540 504
f 540 496 497
f 549 540 496
f 549 496 504
f 497 496 489
f 497 489 490
f 483 477 513
f 483 513 522
f 483 489 490
f 483 490 484
f 490 489 531
f 489 483 522
f 489 522 531
f 531 489 483
f 531 483 522
f 540 539 548
f 540 548 549
f 540 496 495
f 540 539 495
f 531 530 539
f 531 539 540
f 549 548 503
f 540 549 503
f 540 503 495
f 548 539 503
f 549 504 503
f 549 540 495
f 549 495 503
f 540 496 489
f 540 489 531
f 521 531 522
f 531 521 530
f 512 521 522
f 522 513 512
f 531 488 489
f 522 482 521
f 531 530 488
f 531 489 482
f 531 482 522
f 522 482 476
f 522 476 512
f 512 476 482
f 512 482 521
f 522 483 482
f 522 482 489
f 513 477 476
f 513 476 512
f 522 483 477
f 522 477 513
f 512 482 522
f 530 539 540
f 521 476 512
f 512 511 521
f 521 482 476
f 539 530 529
f 539 529 538
f 547 548 539
f 547 539 538
f 530 529 538
f 530 538 539
f 530 521 520
f 530 520 529
f 520 521 511
f 546 547 563
f 546 563 562
f 538 563 547
f 529 558 563
f 529 563 538
f 563 562 537
f 563 537 538
f 562 563 538
f 562 538 537
f 558 528 538
f 558 538 563
f 546 562 537
f 558 529 538
f 558 553 552
f 558 552 557
f 510 520 511
f 553 520 519
f 553 519 552
f 520 510 519
f 553 558 520
f 520 558 529
f 557 528 529
f 557 529 558
f 552 519 528
f 552 528 557
f 529 528 558
f 553 520 529
f 553 529 558
f 562 565 546
f 558 557 562
f 558 562 563
f 557 528 537
f 557 537 562
f 565 562 537
f 565 537 546
f 562 537 528
f 562 528 557
f 563 537 528
f 563 528 558
f 510 552 519
f 557 528 519
f 557 519 552
f 557 528 558
f 562 557 556
f 562 556 561
f 565 545 546
f 564 565 562
f 564 562 561
f 545 565 564
f 561 562 537
f 561 537 536
f 562 561 536
f 562 536 537
f 556 527 536
f 556 536 561
f 561 564 545
f 561 545 536
f 564 561 536
f 564 536 545
f 557 552 551
f 557 551 556
f 509 552 510
f 552 509 551
f 556 527 528
f 556 528 557
f 556 527 518
f 556 518 551
f 557 528 527
f 557 527 556
f 551 518 527
f 551 527 556
f 551 518 509
f 552 518 551
f 552 519 518
f 564 545 544
f 544 545 560
f 561 560 545
f 560 535 536
f 561 560 536
f 555 527 536
f 555 536 561
f 544 560 535
f 561 556 555
f 561 536 527
f 561 527 556
f 550 556 551
f 556 550 555
f 508 518 551
f 508 551 509
f 550 518 517
f 518 550 551
f 518 508 517
f 555 526 527
f 555 527 556
f 550 517 526
f 550 526 555
f 555 526 535
f 555 535 560
f 561 560 535
f 561 535 536
f 560 535 526
f 560 526 555
f 560 536 527
f 560 527 555
f 555 526 517
f 555 517 550
f 556 527 526
f 556 526 555
f 559 555 554
f 534 560 559
f 534 535 560
f 543 544 534
f 535 534 544
f 534 559 535
f 559 560 535
f 555 535 559
f 534 559 554
f 534 554 525
f 555 559 560
f 559 535 526
f 559 526 555
f 516 555 550
f 555 525 554
f 550 517 516
f 555 516 525
f 507 517 508
f 517 507 516
f 525 526 554
f 554 526 555
f 516 526 525
f 543 534 533
f 542 543 533
f 524 525 534
f 543 542 502
f 542 533 534
f 542 534 543
f 515 525 516
f 525 515 524
f 506 516 507
f 516 506 515
f 507 471 506
f 506 471 516
f 533 542 501
f 533 501 494
f 542 533 494
f 542 494 501
f 542 501 502
f 533 534 525
f 533 525 524
f 515 481 487
f 515 487 524
f 515 481 470
f 515 470 506
f 506 470 481
f 506 481 515
f 524 525 516
f 524 516 515
f 506 471 470
f 515 516 471
f 515 471 506
f 533 524 523
f 533 523 532
f 500 532 493
f 532 500 541
f 542 533 532
f 500 501 542
f 541 500 542
f 532 541 542
f 532 493 494
f 532 533 494
f 523 486 494
f 523 494 532
f 532 542 501
f 532 501 494
f 524 487 494
f 524 494 533
f 542 532 494
f 533 494 487
f 533 487 524
f 469 480 514
f 524 515 514
f 524 514 523
f 506 470 469
f 515 506 469
f 514 480 523
f 514 515 469
f 514 481 480
f 523 487 524
f 523 487 481
f 523 481 514
f 523 486 487
f 480 486 523
f 515 470 469
f 514 481 515
f 524 487 481
f 524 481 515
f 514 481 487
f 514 487 523
f 469 470 481
f 469 481 515
f 523 486 493
f 523 493 532
f 532 493 486
f 532 486 523
f 469 437 480
f 499 500 492
f 493 492 500
f 492 459 493
f 492 458 459
f 492 493 458
f 485 454 458
f 485 458 492
f 499 463 464
f 492 499 464
f 492 464 459
f 499 492 458
f 499 458 463
f 485 486 493
f 485 493 492
f 500 499 464
f 499 492 459
f 499 459 464
f 492 493 486
f 492 486 485
f 479 468 436
f 479 485 486
f 479 486 480
f 468 480 469
f 480 468 479
f 479 480 450
f 479 450 449
f 485 454 486
f 485 486 480
f 485 480 479
f 479 449 454
f 479 454 485
f 468 437 436
f 479 450 437
f 479 437 468
f 436 449 479
f 469 437 468
f 468 437 450
f 468 450 479
f 492 458 463
f 492 463 499
f 492 458 454
f 492 454 485
f 485 479 449
f 485 454 449
f 462 463 457
f 458 457 463
f 457 427 458
f 453 454 458
f 453 458 457
f 462 430 431
f 462 431 463
f 462 457 427
f 462 427 431
f 462 457 458
f 462 458 463
f 457 458 454
f 457 454 453
f 448 435 401
f 448 453 454
f 448 454 449
f 449 436 435
f 449 435 448
f 448 449 417
f 453 454 449
f 453 449 448
f 453 422 454
f 448 417 422
f 448 422 453
f 435 402 401
f 448 449 402
f 448 402 435
f 401 402 417
f 401 417 448
f 436 402 435
f 435 402 449
f 457 453 421
f 457 421 426
f 457 426 430
f 457 430 462
f 457 427 426
f 457 458 426
f 453 421 426
f 453 426 457
f 457 462 431
f 457 431 427
f 457 458 422
f 457 422 453
f 416 453 448
f 453 416 421
f 401 416 448
f 448 416 417
f 453 421 454
f 453 422 416
f 448 417 402
f 448 402 401
f 398 430 426
f 398 426 393
f 425 393 426
f 425 393 394
f 426 425 394
f 420 390 394
f 420 394 425
f 393 426 394
f 426 398 394
f 398 393 394
f 425 426 421
f 425 421 420
f 415 420 421
f 415 421 416
f 420 415 385
f 376 416 401
f 416 386 385
f 416 376 386
f 385 415 416
f 415 386 385
f 416 386 415
f 420 390 421
f 385 386 390
f 385 390 420
f 401 376 386
f 401 386 416
f 393 425 420
f 393 397 398
f 389 390 394
f 389 394 393
f 397 393 394
f 397 394 398
f 389 393 420
f 393 394 390
f 393 390 389
f 425 394 390
f 425 390 420
f 385 389 420
f 375 385 386
f 375 386 376
f 389 390 386
f 389 386 385
f 385 390 389
f 385 386 376
f 385 376 375
f 389 390 420
f 420 390 386
f 420 386 385
f 367 371 372
f 367 372 368
f 393 367 368
f 393 368 394
f 397 371 372
f 397 372 398
f 397 393 368
f 397 368 372
f 367 393 389
f 367 389 364
f 360 364 389
f 360 389 385
f 385 375 352
f 360 361 353
f 360 353 352
f 352 353 361
f 352 361 360
f 385 361 360
f 385 386 361
f 385 360 364
f 385 364 389
f 375 353 352
f 385 386 353
f 385 353 375
f 352 361 385
f 371 348 349
f 371 349 372
f 371 367 345
f 371 345 348
f 360 352 331
f 360 339 364
f 352 332 331
f 352 353 332
f 331 339 360
f 342 345 367
f 342 367 364
f 339 342 364
f 325 328 348
f 348 345 325
f 325 345 342
f 325 342 322
f 319 322 342
f 319 342 339
f 311 319 339
f 339 331 311
f 319 311 290
f 304 325 322
f 304 322 301
f 304 307 328
f 304 328 325
f 298 301 322
f 290 298 319
f 322 319 298
f 304 301 279
f 304 279 282
f 307 304 282
f 282 286 307
f 286 308 307
f 286 287 308
f 275 279 301
f 301 298 275
f 298 290 266
f 275 298 266
f 266 290 291
f 266 291 267
f 266 267 275
f 282 258 283
f 282 286 287
f 286 282 283
f 286 283 287
f 262 286 287
f 279 275 251
f 275 266 241
f 275 276 251
f 275 276 267
f 241 267 276
f 241 276 275
f 266 267 241
f 266 267 276
f 266 276 275
f 279 255 258
f 279 258 282
f 258 262 286
f 255 256 259
f 255 259 258
f 258 262 263
f 258 263 259
f 262 258 259
f 262 259 263
f 258 259 283
f 262 263 287
f 258 286 287
f 258 287 283
f 251 241 242
f 251 255 279
f 241 251 275
f 255 256 252
f 255 252 251
f 251 252 256
f 251 256 255
f 251 252 242
f 251 276 252
f 241 267 242
f 275 267 241
f 241 242 252
f 241 252 251
f 258 231 232
f 258 232 236
f 258 236 263
f 258 232 259
f 231 258 259
f 232 231 259
f 226 256 259
f 226 259 231
f 236 232 259
f 236 259 263
f 231 258 255
f 231 255 226
f 258 259 256
f 258 256 255
f 222 226 255
f 222 255 251
f 255 226 227
f 226 222 227
f 208 222 252
f 208 252 242
f 222 251 252
f 226 256 255
f 227 256 226
f 222 256 227
f 226 227 232
f 226 232 231
f 232 236 263
f 231 259 256
f 231 256 226
f 208 209 222
f 222 252 242
f 222 242 208
f 197 227 192
f 202 236 232
f 202 232 197
f 202 197 236
f 197 198 233
f 197 232 233
f 192 228 233
f 192 233 197
f 202 203 237
f 197 202 237
f 197 237 233
f 202 197 198
f 202 198 237
f 236 197 233
f 236 233 237
f 202 236 237
f 197 232 227
f 187 174 175
f 187 227 222
f 227 187 192
f 222 208 174
f 222 174 187
f 187 223 188
f 192 228 227
f 192 227 223
f 192 223 187
f 192 193 228
f 187 188 193
f 187 193 192
f 174 209 175
f 187 223 209
f 187 209 174
f 175 209 223
f 175 223 187
f 222 223 187
f 187 223 227
f 208 209 174
f 174 209 223
f 174 223 222
f 197 192 193
f 197 193 198
f 197 198 203
f 192 193 198
f 192 198 197
f 197 203 237
f 197 237 198
f 197 233 193
f 188 192 187
f 192 188 193
f 188 223 209
f 188 209 175
f 203 198 159
f 152 193 159
f 159 199 198
f 152 194 198
f 152 198 159
f 166 203 204
f 166 167 204
f 159 166 204
f 159 204 198
f 166 159 199
f 166 199 204
f 193 198 159
f 152 198 193
f 145 134 135
f 145 193 188
f 193 145 152
f 188 175 134
f 145 188 189
f 152 193 188
f 152 188 145
f 152 194 193
f 145 189 194
f 145 194 152
f 134 176 175
f 134 176 135
f 145 189 176
f 145 176 134
f 135 176 189
f 135 189 145
f 134 176 188
f 159 152 153
f 159 153 160
f 159 160 167
f 159 167 166
f 159 199 160
f 152 153 160
f 152 160 159
f 159 204 199
f 159 199 194
f 159 194 152
f 146 152 145
f 152 146 153
f 135 146 145
f 152 153 194
f 145 189 146
f 152 194 189
f 152 189 145
f 145 176 135
f 117 160 153
f 168 167 160
f 168 160 118
f 117 118 160
f 160 117 161
f 108 154 161
f 108 161 117
f 118 117 161
f 168 118 161
f 108 117 153
f 99 108 153
f 99 153 146
f 136 146 135
f 146 147 100
f 146 136 147
f 100 99 146
f 146 147 99
f 108 154 153
f 99 147 154
f 99 154 108
f 100 147 99
f 118 126 168
f 109 154 161
f 109 161 118
f 126 118 161
f 126 161 168
f 109 118 117
f 109 117 108
f 118 161 154
f 118 154 109
f 117 161 154
f 117 154 108
f 100 109 108
f 91 100 147
f 91 147 136
f 109 154 147
f 109 147 100
f 100 147 154
f 100 154 109
f 100 147 136
f 100 136 91
f 109 154 108
f 108 154 147
f 108 147 100
f 118 119 127
f 118 127 126
f 126 127 169
f 118 126 169
f 118 169 119
f 126 169 168
f 126 118 119
f 126 119 169
f 119 118 109
f 119 109 110
f 101 109 100
f 110 109 101
f 92 101 100
f 100 91 92
f 100 148 137
f 100 137 92
f 100 101 148
f 92 137 101
f 91 137 92
f 91 136 137
f 92 137 148
f 92 148 100
f 127 119 120
f 127 120 128
f 101 92 93
f 93 102 101
f 120 110 83
f 120 83 87
f 119 120 128
f 119 128 127
f 83 111 120
f 110 111 120
f 110 120 119
f 102 83 111
f 83 102 80
f 111 83 110
f 102 110 101
f 110 102 111
f 80 102 111
f 80 111 83
f 87 88 129
f 87 129 128
f 128 120 87
f 87 88 121
f 87 121 120
f 88 87 120
f 88 120 121
f 88 87 83
f 88 83 84
f 87 120 111
f 87 111 83
f 81 84 83
f 81 83 80
f 94 103 102
f 103 81 80
f 103 80 102
f 102 93 94
f 84 112 111
f 84 111 83
f 83 111 112
f 83 112 84
f 81 103 102
f 81 102 80
f 261 257 281
f 261 281 285
f 164 157 196
f 164 196 201
f 124 115 116
f 124 116 125
f 89 85 114
f 89 114 123
f 120 111 84
f 120 84 88
f 119 110 111
f 119 111 120
f 118 109 110
f 118 110 119
f 160 153 108
f 160 108 117
f 232 227 192
f 232 192 197
f 258 255 227
f 258 227 232
f 282 279 255
f 282 255 258
f 325 322 301
f 325 301 304
f 534 524 533
f 561 555 560
f 540 531 530
f 303 306 285
f 303 285 281
f 273 249 272
f 249 248 272
f 248 219 218
f 184 183 218
f 141 140 182
f 138 137 178
f 268 291 292
f 291 312 292
f 322 325 345
f 322 345 342
f 312 332 333
f 332 354 333
f 364 367 393
f 364 393 389
f 389 393 426
f 389 426 421
f 437 438 403
f 471 472 439
f 525 534 560
f 525 560 555
f 557 562 563
f 557 563 558
f 475 444 443
f 412 382 411
f 383 358 382
f 391 396 370
f 391 370 366
f 344 347 327
f 344 327 324
f 271 294 272
f 250 249 274
f 250 220 249
f 271 272 248
f 247 271 248
f 246 247 218
f 246 218 217
f 143 97 142
f 216 217 182
f 215 216 182
f 215 182 181
f 214 215 181
f 214 181 180
f 214 180 179
f 213 214 179
f 92 137 93
f 92 136 137
f 212 213 179
f 212 179 178
f 245 212 211
f 245 211 244
f 270 245 244
f 208 242 209
f 269 270 244
f 242 266 267
f 293 269 268
f 293 268 292
f 314 293 292
f 314 292 313
f 334 314 313
f 334 313 333
f 331 352 353
f 334 333 354
f 352 376 353
f 355 334 354
f 376 401 402
f 379 355 378
f 401 436 402
f 379 378 404
f 436 469 437
f 405 379 404
f 406 405 439
f 406 439 440
f 507 508 471
f 407 406 440
f 441 407 440
f 408 441 442
f 409 408 442
f 409 442 443
f 511 512 476
f 512 477 476
f 409 443 444
f 410 409 444
f 381 380 411
f 447 413 446
f 356 381 382
f 413 384 383
f 356 382 357
f 384 359 383
f 335 356 357
f 183 142 182
f 182 142 141
f 178 137 177
f 177 176 210
f 210 209 243
f 268 267 291
f 332 353 354
f 377 402 403
f 438 471 439
f 475 476 444
f 444 476 445
f 316 317 296
f 316 296 295
f 295 294 315
f 295 315 316
f 295 296 274
f 295 274 273
f 273 272 295
f 272 294 295
f 273 274 249
f 248 249 219
f 249 220 219
f 218 247 248
f 219 185 218
f 218 185 184
f 183 217 218
f 184 142 183
f 184 143 142
f 182 217 183
f 140 181 182
f 141 95 140
f 141 96 95
f 140 95 94
f 140 94 139
f 139 180 181
f 139 181 140
f 139 94 138
f 94 93 138
f 138 179 180
f 138 180 139
f 138 93 137
f 178 179 138
f 137 136 177
f 177 136 176
f 136 135 176
f 211 178 177
f 211 212 178
f 210 211 177
f 176 175 210
f 210 175 209
f 244 211 210
f 243 244 210
f 209 242 243
f 243 267 268
f 243 242 267
f 268 244 243
f 268 269 244
f 291 290 311
f 291 311 312
f 312 313 292
f 312 311 331
f 312 331 332
f 333 313 312
f 332 331 353
f 353 376 354
f 354 376 377
f 377 378 354
f 378 355 354
f 377 376 402
f 403 378 377
f 402 437 403
f 402 436 437
f 403 404 378
f 438 404 403
f 438 437 470
f 437 469 470
f 438 439 404
f 439 405 404
f 438 470 471
f 471 508 472
f 472 440 439
f 472 508 509
f 472 509 473
f 473 441 440
f 473 440 472
f 473 509 510
f 473 510 474
f 474 442 441
f 474 441 473
f 474 510 511
f 474 511 475
f 475 443 442
f 475 442 474
f 475 511 476
f 476 477 445
f 445 411 444
f 411 410 444
f 412 446 413
f 382 381 411
f 412 383 382
f 412 413 383
f 383 359 358
f 358 357 382
f 358 335 357
f 358 359 337
f 358 337 336
f 336 335 358
f 336 337 317
f 336 317 316
f 316 335 336
f 316 315 335
f 410 411 380
f 445 412 411
f 446 412 445
f 461 456 490
f 461 490 497
f 257 277 281
f 285 288 265
f 285 265 261
f 225 220 250
f 265 239 240
f 261 265 240
f 261 240 235
f 157 190 191
f 201 206 164
f 106 97 143
f 106 143 107
f 133 172 132
f 85 104 105
f 85 105 114
f 123 131 130
f 123 130 89
f 84 103 104
f 84 104 85
f 89 130 129
f 89 129 88
f 111 102 103
f 111 103 84
f 88 129 128
f 88 128 120
f 119 127 126
f 153 146 108
f 117 167 160
f 145 175 135
f 167 203 166
f 160 167 166
f 160 166 159
f 188 175 145
f 159 166 203
f 187 175 188
f 198 203 202
f 222 208 175
f 222 175 187
f 202 203 236
f 197 236 232
f 251 242 222
f 255 222 227
f 236 263 262
f 232 236 262
f 232 262 258
f 275 266 242
f 275 242 251
f 262 263 286
f 258 286 282
f 449 436 448
f 514 470 469
f 500 501 541
f 493 500 541
f 493 541 532
f 515 470 514
f 541 501 542
f 551 508 517
f 556 551 517
f 556 517 555
f 560 544 564
f 560 564 561
f 564 545 546
f 564 546 565
f 561 564 565
f 561 565 562
f 539 548 549
f 539 549 540
f 419 413 452
f 424 419 452
f 424 452 456
f 467 433 434
f 461 467 434
f 461 434 429
f 388 384 413
f 388 413 419
f 434 433 400
f 341 359 362
f 344 341 362
f 344 362 366
f 370 373 351
f 370 351 347
f 330 329 309
f 330 309 310
f 327 330 310
f 327 310 306
f 300 296 317
f 300 317 321
f 310 309 288
f 306 310 288
f 306 288 285
f 277 274 296
f 277 296 300
f 281 277 300
f 163 172 133
f 163 133 125
f 124 132 131
f 124 131 123
f 126 168 167
f 118 126 167
f 118 167 117
f 146 136 91
f 146 91 100
f 108 146 100
f 371 398 397
f 367 371 397
f 367 397 393
f 385 376 352
f 385 352 360
f 397 398 430
f 393 397 430
f 393 430 426
f 416 376 385
f 421 416 385
f 421 385 389
f 430 463 462
f 426 430 462
f 426 462 457
f 448 436 401
f 534 544 560
f 555 517 516
f 565 546 547
f 562 565 547
f 562 547 563
f 520 510 552
f 558 520 552
f 538 547 548
f 538 548 539
f 396 373 370
f 351 350 329
f 351 329 330
f 347 351 330
f 347 330 327
f 321 317 337
f 321 337 341
f 324 341 344
f 452 446 484
f 456 484 490
f 505 466 467
f 497 505 467
f 497 467 461
f 203 167 204
f 499 463 500
f 135 175 176
f 436 468 469
f 126 127 168
f 236 203 237
f 549 548 504
f 92 91 136
f 175 208 209
f 512 513 477
v 0.49600 0.15200 -0.10350
v 0.50025 0.15200 0.07975
v 0.47922 0.16705 0.07071
v 0.43375 0.15200 -0.26425
v 0.47322 0.16707 -0.10355
v 0.41983 0.16800 0.23750
v 0.45529 0.17816 -0.02097
v 0.39945 0.17786 0.22016
v 0.40555 0.18458 0.10485
v 0.39161 0.18427 0.15086
v 0.42635 0.17593 -0.17518
v 0.43875 0.15200 0.25300
v 0.43432 0.18377 0.04837
v 0.36021 0.17789 0.27663
v 0.38161 0.18244 0.07334
v 0.38385 0.18244 -0.05765
v 0.33850 0.15200 -0.38050
v 0.32968 0.18425 0.25633
v 0.32390 0.18185 -0.22117
v 0.36774 0.18140 0.10562
v 0.35225 0.18504 -0.20174
v 0.37203 0.17903 -0.25615
v 0.30450 0.16500 0.07013
v 0.30986 0.17315 0.35220
v 0.32673 0.18260 0.20851
v 0.37883 0.16814 -0.30456
v 0.24138 0.18247 -0.30540
v 0.20357 0.18397 0.37847
v 0.26405 0.18258 0.28410
v 0.20300 0.15200 -0.46800
v 0.29688 0.16500 -0.09862
v 0.29381 0.17739 -0.34888
v 0.15909 0.16783 0.45914
v 0.09438 0.16500 0.29825
v 0.32100 0.15200 0.39450
v 0.29163 0.17845 0.23471
v 0.22538 0.17774 -0.39468
v 0.27125 0.18426 -0.32167
v 0.17746 0.18257 -0.34559
v 0.11106 0.18231 -0.37289
v 0.10294 0.17744 0.44471
v 0.20275 0.16500 -0.23850
v 0.16647 0.18426 -0.38447
v 0.08117 0.18245 -0.37931
v 0.17628 0.18237 0.34545
v 0.01574 0.18429 0.41976
v 0.16798 0.16846 -0.45552
v -0.05977 0.18166 -0.38242
v 0.11400 0.15200 0.49350
v 0.11691 0.18178 0.36842
v 0.05637 0.17004 0.33265
v -0.04650 0.15200 -0.50550
v 0.07590 0.17766 -0.44888
v 0.11699 0.17784 -0.44098
v -0.05700 0.16500 0.30800
v -0.06083 0.16908 0.47634
v -0.00003 0.17322 -0.46742
v -0.08473 0.18247 -0.37872
v -0.01475 0.16500 -0.31500
v -0.01555 0.18393 0.43201
v -0.08872 0.18385 -0.42621
v -0.04965 0.16736 -0.48158
v -0.19225 0.18135 -0.33195
v -0.06950 0.15200 0.50175
v -0.06106 0.18239 0.38348
v -0.24734 0.18182 -0.29973
v -0.22325 0.15200 -0.45550
v -0.20925 0.16500 0.23350
v -0.14785 0.18426 -0.39191
v -0.22810 0.16775 0.42587
v -0.10066 0.18104 0.37075
v -0.16950 0.16500 -0.26475
v -0.33680 0.18174 -0.19659
v -0.21001 0.16800 -0.43580
v -0.23566 0.18371 0.36674
v -0.29950 0.16500 0.09800
v -0.25180 0.18228 0.29391
v -0.22894 0.18427 -0.35400
v -0.24375 0.15200 0.44425
v -0.27500 0.16500 -0.15900
v -0.35553 0.17425 0.30119
v -0.36398 0.16742 0.31846
v -0.37100 0.15200 -0.34650
v -0.27317 0.17635 -0.37037
v -0.42409 0.18309 0.14091
v -0.32722 0.18261 0.20946
v -0.38824 0.18225 0.02110
v -0.31277 0.17563 0.18213
v -0.31872 0.18464 -0.28712
v -0.38324 0.18250 -0.06112
v -0.37667 0.18256 0.10779
v -0.35465 0.16759 -0.33030
v -0.42715 0.18429 -0.03912
v -0.44921 0.17852 0.06498
v -0.38650 0.15200 0.32825
v -0.46975 0.15200 -0.19175
v -0.47279 0.17373 0.02102
v -0.45127 0.17712 -0.08273
v -0.44062 0.17249 -0.17369
v -0.47800 0.15200 0.16925
v -0.50725 0.15200 -0.01200
usemtl m066
f 635 644 629
f 635 629 621
f 636 620 633
f 636 633 642
f 647 660 644
f 647 644 635
f 642 633 653
f 650 665 660
f 650 660 647
f 653 633 641
f 653 641 652
f 662 666 665
f 662 665 650
f 664 661 666
f 664 666 662
f 652 641 645
f 652 645 638
f 657 648 661
f 657 661 664
f 638 645 631
f 631 645 637
f 631 637 628
f 639 632 648
f 639 648 657
f 628 637 613
f 627 617 632
f 627 632 639
f 613 637 624
f 613 624 605
f 612 595 617
f 612 617 627
f 605 624 607
f 605 607 584
f 591 582 595
f 591 595 612
f 591 569 582
f 584 607 596
f 570 566 569
f 570 569 591
f 584 596 581
f 568 567 566
f 568 566 570
f 581 596 588
f 581 588 585
f 571 577 567
f 571 567 568
f 585 588 601
f 571 589 600
f 571 600 577
f 598 600 589
f 601 599 615
f 598 614 600
f 615 599 616
f 621 629 614
f 621 614 598
f 616 599 620
f 616 620 636
f 650 658 659
f 634 626 643
f 626 608 619
f 608 603 602
f 586 587 603
f 586 578 587
f 575 579 574
f 575 583 579
f 593 611 625
f 625 611 630
f 625 640 621
f 621 640 635
f 640 625 630
f 640 630 636
f 640 636 642
f 640 646 647
f 640 647 635
f 640 650 646
f 650 640 642
f 651 642 653
f 650 642 651
f 646 650 647
f 656 651 653
f 650 651 656
f 650 659 662
f 658 650 656
f 656 653 652
f 659 663 662
f 658 656 652
f 659 658 663
f 658 652 655
f 663 664 662
f 638 655 652
f 658 664 663
f 658 655 638
f 654 658 638
f 658 654 664
f 664 654 657
f 654 649 657
f 643 654 638
f 654 643 649
f 649 639 657
f 643 638 631
f 643 626 649
f 626 639 649
f 634 643 631
f 634 631 628
f 623 628 613
f 639 626 627
f 626 634 628
f 626 628 623
f 626 622 627
f 626 623 613
f 626 619 618
f 626 618 622
f 622 618 612
f 622 612 627
f 609 613 605
f 626 613 609
f 618 619 612
f 608 626 609
f 619 608 602
f 608 609 605
f 619 602 612
f 603 608 605
f 603 605 604
f 592 604 605
f 602 603 597
f 603 604 592
f 592 605 584
f 602 597 591
f 602 591 612
f 603 587 597
f 597 587 591
f 586 603 592
f 586 592 584
f 587 576 591
f 576 570 591
f 578 586 584
f 587 578 572
f 587 572 576
f 578 584 581
f 576 572 570
f 572 568 570
f 574 578 581
f 580 574 581
f 580 581 585
f 572 578 568
f 575 574 580
f 574 573 578
f 573 571 578
f 578 571 568
f 574 579 573
f 575 580 585
f 590 585 601
f 583 575 585
f 583 585 590
f 583 594 593
f 573 579 589
f 573 589 571
f 610 594 601
f 589 593 598
f 593 594 610
f 610 601 615
f 593 625 606
f 593 606 598
f 611 593 610
f 611 610 615
f 606 625 621
f 606 621 598
f 611 615 630
f 630 615 616
f 630 616 636
f 601 588 599
f 579 583 593
f 583 590 594
f 594 590 601
f 579 593 589
