# fh16_wheel_fr.obj - ISO 8855 (x ileri, y sol, z yukari), metre
mtllib fh16.mtl
o fh16_wheel_fr
v -0.27085 -0.15963 -0.16151
v -0.28491 -0.15209 -0.10296
v -0.30573 -0.15413 -0.02435
v -0.29817 -0.15439 0.07132
v -0.26836 -0.15698 0.15644
v -0.25980 -0.11148 -0.09398
v -0.27040 -0.10977 -0.02087
v -0.26516 -0.10955 0.06191
v -0.25470 -0.12190 0.12920
v -0.19880 -0.15671 -0.23816
v -0.21762 -0.14350 -0.18468
v -0.19721 -0.14031 -0.08020
v -0.20279 -0.14538 -0.02949
v -0.19893 -0.14182 0.06526
v -0.22384 -0.14272 0.16400
v -0.19837 -0.15422 0.23362
v -0.16900 -0.12400 -0.23160
v -0.20532 -0.11007 -0.17623
v -0.23582 -0.11309 -0.10209
v -0.24733 -0.12267 -0.01667
v -0.23356 -0.12067 0.07685
v -0.21567 -0.10775 0.15684
v -0.19169 -0.12194 0.21031
v -0.10010 -0.16148 -0.30576
v -0.12070 -0.15287 -0.27893
v -0.12261 -0.14239 -0.16853
v -0.11294 -0.19551 -0.08709
v -0.12030 -0.20078 -0.01343
v -0.11754 -0.19872 0.06030
v -0.11817 -0.15152 0.15710
v -0.12241 -0.14667 0.26074
v -0.11362 -0.15958 0.29445
v -0.13001 -0.11037 -0.23930
v -0.14632 -0.11914 -0.20057
v -0.14108 -0.12458 0.18700
v -0.13425 -0.11137 0.23289
v -0.03114 -0.21000 -0.06491
v -0.04895 -0.21000 -0.01086
v -0.03564 -0.21000 0.05326
v -0.04998 -0.15948 -0.31200
v -0.03502 -0.13652 -0.25084
v -0.03713 -0.17796 -0.16060
v -0.05097 -0.20333 -0.09865
v -0.08142 -0.20633 -0.01605
v -0.05856 -0.20337 0.08914
v -0.03177 -0.19282 0.13918
v -0.03109 -0.13686 0.21709
v -0.04877 -0.15423 0.30295
v -0.05647 -0.10977 -0.26024
v -0.05910 -0.10811 0.25682
v -0.04538 -0.12250 0.28163
v 0.02311 -0.21000 -0.06575
v 0.04474 -0.21000 -0.01102
v 0.02918 -0.21000 0.05494
v 0.02529 -0.15940 -0.31361
v 0.02146 -0.13777 -0.25972
v 0.02550 -0.18096 -0.15872
v 0.04099 -0.20333 -0.09928
v 0.07337 -0.20750 -0.03646
v 0.04804 -0.20349 0.09012
v 0.02219 -0.19260 0.14076
v 0.02530 -0.13621 0.21877
v 0.02395 -0.15457 0.30495
v 0.02058 -0.11172 -0.26519
v 0.01984 -0.10933 0.26036
v 0.01795 -0.12168 0.28321
v 0.08000 -0.21000 0.00000
v 0.09853 -0.16089 -0.30595
v 0.11950 -0.15242 -0.27748
v 0.11896 -0.14457 -0.16935
v 0.10294 -0.19756 -0.09080
v 0.11589 -0.20120 -0.01365
v 0.10998 -0.19977 0.06419
v 0.11440 -0.15344 0.15583
v 0.12043 -0.14670 0.25931
v 0.11307 -0.16009 0.29421
v 0.11275 -0.10877 -0.24444
v 0.14920 -0.11575 -0.20850
v 0.13727 -0.12473 0.18736
v 0.11774 -0.10971 0.23861
v 0.19558 -0.15630 -0.23959
v 0.21200 -0.14219 -0.18302
v 0.19442 -0.14117 -0.07978
v 0.20053 -0.14581 -0.02833
v 0.19638 -0.14231 0.06580
v 0.21420 -0.14087 0.16153
v 0.19862 -0.15480 0.23224
v 0.16600 -0.11982 -0.22982
v 0.20473 -0.11041 -0.17594
v 0.23231 -0.11290 -0.10333
v 0.22670 -0.12300 0.07730
v 0.21319 -0.10796 0.15774
v 0.18333 -0.12062 0.21517
v 0.26717 -0.15907 -0.16386
v 0.28291 -0.15164 -0.10301
v 0.30444 -0.15428 -0.02495
v 0.29710 -0.15457 0.07141
v 0.26532 -0.15680 0.15890
v 0.25627 -0.11206 -0.09475
v 0.26793 -0.11019 -0.02191
v 0.26226 -0.10983 0.06132
v 0.25238 -0.12023 0.12877
usemtl m020
f 15 29 30
f 22 15 35
f 36 22 35
f 36 35 31
f 15 30 35
f 50 36 47
f 36 31 47
f 47 30 46
f 30 47 31
f 14 20 13
f 20 7 13
f 7 20 21
f 7 21 8
f 20 14 21
f 14 22 21
f 22 14 15
f 15 14 29
f 29 14 28
f 13 28 14
f 19 18 11
f 19 11 12
f 19 20 7
f 13 20 19
f 13 19 12
f 27 28 13
f 12 27 13
f 42 26 41
f 26 33 41
f 33 49 41
f 33 26 34
f 11 18 34
f 26 11 34
f 12 11 27
f 11 26 27
f 27 26 42
f 64 41 49
f 70 82 71
f 82 83 71
f 70 77 78
f 82 78 89
f 82 70 78
f 64 77 69
f 64 69 56
f 77 70 69
f 70 57 69
f 57 56 69
f 70 71 57
f 100 84 90
f 84 83 90
f 89 90 83
f 89 83 82
f 72 71 84
f 71 83 84
f 86 73 85
f 85 92 86
f 92 85 91
f 85 100 101
f 85 101 91
f 100 85 84
f 85 73 84
f 73 72 84
f 75 62 61
f 75 61 74
f 80 65 62
f 80 62 75
f 74 86 79
f 86 92 79
f 80 79 92
f 80 79 74
f 79 80 75
f 86 74 73
f 65 50 47
f 35 30 31
f 64 56 41
f 74 79 75
f 62 65 47
f 90 99 100
f 91 101 92
f 8 21 22
f 6 19 7
f 36 23 22
f 8 22 9
f 18 19 6
f 77 88 89
f 89 99 90
f 101 102 92
f 93 80 92
f 65 66 50
f 11 2 1
f 69 56 55
f 55 41 40
f 55 56 41
f 25 40 41
f 82 94 95
f 86 98 87
f 75 76 63
f 32 31 48
f 36 50 51
f 50 66 51
f 65 80 66
f 16 15 22
f 16 22 23
f 31 16 23
f 31 23 36
f 4 3 7
f 4 7 8
f 15 5 9
f 15 9 22
f 5 4 8
f 5 8 9
f 2 11 18
f 2 18 6
f 3 2 6
f 3 6 7
f 18 17 33
f 10 25 33
f 10 33 17
f 11 10 17
f 11 17 18
f 56 69 77
f 56 77 64
f 25 41 49
f 25 49 33
f 81 82 89
f 81 89 88
f 69 81 88
f 69 88 77
f 95 96 100
f 95 100 99
f 82 95 99
f 82 99 89
f 97 98 102
f 97 102 101
f 98 86 92
f 98 92 102
f 96 97 101
f 96 101 100
f 87 75 80
f 87 80 93
f 86 87 93
f 86 93 92
f 63 48 51
f 63 51 66
f 48 31 36
f 48 36 51
f 75 63 66
f 75 66 80
f 16 31 32
f 55 68 69
f 24 40 25
f 75 87 76
f 94 82 81
f 15 16 5
f 10 11 1
f 18 33 34
f 77 89 78
f 45 46 29
f 54 39 53
f 39 38 53
f 73 74 61
f 52 38 37
f 52 53 38
f 27 43 28
f 46 30 29
f 71 58 57
f 43 27 42
f 58 71 72
f 43 44 28
f 28 45 29
f 60 72 73
f 59 58 72
f 39 54 60
f 39 60 45
f 54 53 59
f 54 59 60
f 60 59 72
f 53 72 59
f 53 67 72
f 53 52 58
f 53 58 59
f 52 37 43
f 52 43 58
f 37 38 44
f 37 44 43
f 38 39 45
f 38 45 44
f 45 28 44
f 73 61 60
f 57 43 42
f 57 58 43
f 60 61 46
f 60 46 45
v -0.53765 -0.05537 -0.07339
v -0.54081 -0.06420 -0.01542
v -0.53910 -0.06115 0.05079
v -0.53600 -0.04229 0.09657
v -0.53940 0.00525 -0.08275
v -0.54522 0.00640 -0.01634
v -0.54273 0.00554 0.05461
v -0.53619 0.00275 0.10340
v -0.53700 0.06533 -0.06933
v -0.53985 0.07204 -0.01576
v -0.53818 0.06980 0.04924
v -0.53600 0.05100 0.09267
v -0.47739 -0.13356 -0.21756
v -0.49477 -0.13689 -0.15380
v -0.50589 -0.13649 -0.08777
v -0.51354 -0.13774 -0.01504
v -0.51136 -0.13701 0.05533
v -0.49925 -0.13705 0.12355
v -0.48488 -0.13484 0.19609
v -0.46938 -0.12792 0.23900
v -0.46925 -0.05853 -0.27169
v -0.48879 -0.06394 -0.22620
v -0.50602 -0.06482 -0.15724
v -0.51584 -0.07065 -0.09172
v -0.50718 -0.06734 -0.01518
v -0.51173 -0.07048 0.06074
v -0.51356 -0.06616 0.12761
v -0.49721 -0.06357 0.19375
v -0.47811 -0.06344 0.25323
v -0.47312 0.00530 -0.27233
v -0.49210 0.00622 -0.22513
v -0.50983 0.00526 -0.15799
v -0.51135 0.00521 -0.09247
v -0.51083 0.00449 -0.01718
v -0.50807 0.00470 0.05401
v -0.51438 0.00600 0.13248
v -0.49906 0.00550 0.19572
v -0.48051 0.00549 0.25816
v -0.46812 0.06735 -0.27173
v -0.48772 0.07210 -0.22659
v -0.50486 0.07299 -0.15704
v -0.51615 0.07557 -0.09165
v -0.50662 0.07379 -0.01530
v -0.51238 0.07601 0.06174
v -0.51272 0.07345 0.12665
v -0.49648 0.07130 0.19316
v -0.47731 0.07177 0.25244
v -0.47715 0.13134 -0.21991
v -0.49549 0.13340 -0.15410
v -0.50602 0.13476 -0.08755
v -0.51275 0.13662 -0.01654
v -0.51154 0.13505 0.05577
v -0.49982 0.13502 0.12404
v -0.48610 0.13107 0.19627
v -0.46941 0.12659 0.24000
v -0.40068 -0.13109 -0.34073
v -0.42613 -0.13516 -0.29649
v -0.44228 -0.14186 -0.23933
v -0.45735 -0.14535 -0.17124
v -0.46200 -0.15100 0.15283
v -0.44656 -0.14282 0.19826
v -0.43679 -0.13827 0.26968
v -0.41060 -0.13488 0.32495
v -0.40989 -0.06184 -0.35387
v -0.43577 -0.06563 -0.30222
v -0.44984 -0.06706 -0.23291
v -0.45639 -0.07109 0.21867
v -0.44175 -0.06686 0.27894
v -0.41974 -0.06429 0.33475
v -0.39433 -0.03700 0.37600
v -0.41222 0.00564 -0.35748
v -0.43729 0.00589 -0.30435
v -0.45122 0.00461 -0.24042
v -0.45930 0.00461 0.22470
v -0.44360 0.00510 0.27818
v -0.42346 0.00537 0.33663
v -0.39504 0.00444 0.37644
v -0.40934 0.07133 -0.35271
v -0.43476 0.07356 -0.30160
v -0.44969 0.07300 -0.23156
v -0.45613 0.07467 0.21810
v -0.44122 0.07378 0.27887
v -0.41887 0.07208 0.33406
v -0.40119 0.12719 -0.34210
v -0.42618 0.13229 -0.29733
v -0.44074 0.14177 -0.23809
v -0.45281 0.15062 -0.17010
v -0.44975 0.17450 -0.09400
v -0.45150 0.17700 -0.01050
v -0.44900 0.17700 0.05100
v -0.45591 0.16091 0.13727
v -0.44320 0.14715 0.19777
v -0.43622 0.13658 0.26856
v -0.41273 0.13183 0.32395
v -0.40100 0.18167 -0.15700
v -0.41217 0.18267 -0.08617
v -0.42067 0.18267 -0.01000
v -0.41583 0.18267 0.06617
v -0.40950 0.18200 0.12450
v -0.40400 0.18100 0.16400
v -0.32823 -0.12592 -0.41308
v -0.35899 -0.13752 -0.37175
v -0.37672 -0.14600 -0.31566
v -0.38725 -0.14900 0.29537
v -0.36736 -0.13980 0.34806
v -0.34717 -0.13355 0.39244
v -0.34151 -0.06060 -0.42038
v -0.36601 -0.06660 -0.37868
v -0.38745 -0.06915 -0.32640
v -0.37046 -0.06904 0.35029
v -0.35536 -0.06433 0.40194
v -0.34363 0.00620 -0.42380
v -0.36738 0.00546 -0.37890
v -0.38957 0.00493 -0.33129
v -0.37259 0.00470 0.34931
v -0.35518 0.00592 0.40615
v -0.34035 0.07105 -0.41958
v -0.36545 0.07352 -0.37820
v -0.38717 0.07300 -0.32600
v -0.37003 0.07486 0.35066
v -0.35511 0.07219 0.40096
v -0.32888 0.12588 -0.41265
v -0.35905 0.13539 -0.37165
v -0.37500 0.14900 -0.31318
v -0.38050 0.17700 -0.24350
v -0.33700 0.17875 -0.15575
v -0.35600 0.17700 -0.08460
v -0.36750 0.17750 -0.00875
v -0.36300 0.17750 0.05775
v -0.34675 0.17750 0.12225
v -0.33400 0.18000 0.17200
v -0.38217 0.15700 0.28867
v -0.36730 0.13908 0.34706
v -0.34855 0.13026 0.39263
v -0.33200 0.18100 -0.28300
v -0.35243 0.18271 -0.22286
v -0.37220 0.18340 -0.15640
v -0.38300 0.18300 -0.08000
v -0.39100 0.18300 -0.00950
v -0.38600 0.18300 0.06150
v -0.37880 0.18340 0.13800
v -0.35686 0.18300 0.20200
v -0.34833 0.18167 0.25267
v -0.28477 -0.13520 -0.43511
v -0.30031 -0.14441 -0.38621
v -0.31525 -0.15050 0.37025
v -0.29389 -0.13915 0.41702
v -0.26591 -0.13079 0.45309
v -0.25883 -0.04167 -0.47900
v -0.28710 -0.06648 -0.44678
v -0.31426 -0.06937 -0.39711
v -0.29596 -0.06730 0.42356
v -0.27919 -0.06486 0.46267
v -0.26081 0.00548 -0.47933
v -0.28954 0.00520 -0.44808
v -0.31791 0.00482 -0.40059
v -0.29476 0.00489 0.42497
v -0.28448 0.00496 0.46402
v -0.25600 0.05100 -0.47950
v -0.28676 0.07316 -0.44630
v -0.31369 0.07575 -0.39650
v -0.29661 0.07367 0.42320
v -0.27714 0.07200 0.46287
v -0.28450 0.13210 -0.43647
v -0.29646 0.14906 -0.38440
v -0.28950 0.17850 -0.29650
v -0.28260 0.17700 -0.23220
v -0.28350 0.16675 -0.16400
v -0.30300 0.16400 -0.09300
v -0.31533 0.16400 -0.02200
v -0.31300 0.16400 0.04950
v -0.29300 0.16400 0.11867
v -0.29833 0.17483 0.19667
v -0.26900 0.17750 0.25050
v -0.30788 0.16175 0.36100
v -0.29438 0.13740 0.41612
v -0.26559 0.12900 0.45400
v -0.27600 0.18100 -0.33900
v -0.28875 0.18313 -0.29563
v -0.30900 0.18300 -0.24000
v -0.29663 0.18313 0.27600
v -0.27700 0.18167 0.32933
v -0.20438 -0.13031 -0.48456
v -0.22557 -0.14123 -0.45282
v -0.22564 -0.14392 0.43264
v -0.21317 -0.13506 0.47316
v -0.21635 -0.06370 -0.49515
v -0.21631 -0.06675 -0.45829
v -0.24630 -0.07660 0.44080
v -0.21415 -0.06487 0.48521
v -0.21470 0.00602 -0.49903
v -0.21889 0.00460 -0.46162
v -0.21718 0.00503 0.48802
v -0.21632 0.07275 -0.49432
v -0.21592 0.07289 -0.45770
v -0.24630 0.07660 0.44080
v -0.21319 0.07286 0.48423
v -0.20435 0.12863 -0.48518
v -0.22522 0.14075 -0.45094
v -0.21700 0.17700 -0.39700
v -0.21140 0.17800 -0.30260
v -0.22100 0.16400 -0.22633
v -0.24150 0.16400 0.20500
v -0.22150 0.17300 0.27133
v -0.19100 0.17750 0.31350
v -0.22539 0.14929 0.42806
v -0.21338 0.13256 0.47418
v -0.21457 0.18271 -0.35757
v -0.23300 0.18300 -0.31450
v -0.22686 0.18300 0.34129
v -0.18850 0.18200 0.38400
v -0.14443 -0.13510 -0.50217
v -0.14906 -0.14494 -0.46450
v -0.14660 -0.13844 0.49076
v -0.11850 -0.11500 0.51700
v -0.14181 -0.06494 -0.51155
v -0.17413 -0.07950 -0.47375
v -0.15381 -0.06781 0.49435
v -0.13613 -0.06188 0.52331
v -0.14156 0.00562 -0.51521
v -0.15019 0.00531 0.49303
v -0.14198 0.00540 0.52594
v -0.14238 0.07339 -0.51001
v -0.17413 0.07950 -0.47375
v -0.15376 0.07377 0.49443
v -0.13444 0.07122 0.52254
v -0.14377 0.13152 -0.50341
v -0.14975 0.14806 -0.46144
v -0.12700 0.17833 -0.34800
v -0.14900 0.16950 -0.30400
v -0.17700 0.16400 -0.26300
v -0.13933 0.16400 0.28333
v -0.14675 0.17750 0.33650
v -0.15000 0.17533 0.43100
v -0.14694 0.13632 0.49047
v -0.11850 0.11500 0.51700
v -0.13700 0.18100 -0.41500
v -0.14914 0.18300 -0.38257
v -0.16367 0.18333 0.36033
v -0.13217 0.18267 0.39900
v -0.07485 -0.13701 -0.50751
v -0.10300 -0.15200 -0.47500
v -0.08103 -0.14328 0.49660
v -0.06792 -0.12985 0.52075
v -0.07472 -0.06521 -0.52406
v -0.07350 -0.06591 0.50039
v -0.07573 -0.06566 0.53447
v -0.07338 0.00562 -0.52809
v -0.07403 0.00462 0.50478
v -0.07729 0.00570 0.53913
v -0.07555 0.07282 -0.52277
v -0.07335 0.07307 0.49954
v -0.07465 0.07301 0.53368
v -0.07494 0.13510 -0.50823
v -0.09400 0.16500 -0.46288
v -0.06675 0.17750 -0.36175
v -0.07167 0.16400 -0.30800
v -0.07950 0.17300 0.34100
v -0.08200 0.17700 0.44400
v -0.07844 0.14479 0.49167
v -0.06908 0.12877 0.52098
v -0.07800 0.18200 -0.42125
v -0.07275 0.18350 -0.39275
v -0.07433 0.18250 0.40583
v -0.00358 -0.13783 -0.51274
v -0.00521 -0.14387 0.49067
v -0.00197 -0.13432 0.52351
v -0.00548 -0.06633 -0.52817
v -0.00456 -0.06547 0.50560
v -0.00417 -0.06490 0.53987
v -0.00572 0.00529 -0.53263
v -0.00547 0.00467 0.51000
v -0.00758 0.00567 0.54444
v -0.00509 0.07373 -0.52703
v -0.00429 0.07232 0.50477
v -0.00343 0.07285 0.53888
v -0.00471 0.13622 -0.51328
v -0.00050 0.17450 -0.45950
v -0.00025 0.17750 -0.36800
v -0.00050 0.16400 -0.31700
v -0.01133 0.17033 0.33933
v 0.00000 0.18000 0.37500
v -0.00486 0.14576 0.48895
v -0.00401 0.13003 0.52485
v -0.00017 0.18267 -0.42100
v -0.00050 0.18300 -0.39100
v -0.01600 0.18300 0.40929
v 0.06409 -0.13752 -0.50890
v 0.10000 -0.15050 -0.47575
v 0.07503 -0.14227 0.49706
v 0.06075 -0.13058 0.52132
v 0.06608 -0.06410 -0.52506
v 0.06713 -0.06599 0.50104
v 0.06862 -0.06474 0.53536
v 0.06512 0.00563 -0.52914
v 0.06577 0.00467 0.50560
v 0.06489 0.00576 0.54056
v 0.06666 0.07253 -0.52353
v 0.06745 0.07331 0.50009
v 0.06936 0.07279 0.53425
v 0.06515 0.13517 -0.50915
v 0.08943 0.16114 -0.46500
v 0.06625 0.17750 -0.36175
v 0.07100 0.16400 -0.30800
v 0.06737 0.17413 0.34712
v 0.08100 0.17700 0.44400
v 0.07172 0.14400 0.49195
v 0.06437 0.12837 0.52157
v 0.07700 0.18200 -0.42125
v 0.07200 0.18350 -0.39275
v 0.05600 0.18275 0.40887
v 0.13568 -0.13494 -0.50375
v 0.14121 -0.14538 -0.46634
v 0.13979 -0.13837 0.49122
v 0.11183 -0.11500 0.51767
v 0.13609 -0.06531 -0.51221
v 0.16917 -0.07933 -0.47500
v 0.14603 -0.06946 0.49366
v 0.13410 -0.06127 0.52345
v 0.13731 0.00531 -0.51604
v 0.13828 0.00467 0.49075
v 0.13866 0.00594 0.52637
v 0.13615 0.07275 -0.51103
v 0.16917 0.07983 -0.47500
v 0.14718 0.07494 0.49420
v 0.13217 0.07031 0.52281
v 0.13485 0.13171 -0.50507
v 0.13962 0.14909 -0.46421
v 0.12600 0.17833 -0.34800
v 0.14850 0.16950 -0.30400
v 0.13867 0.16400 0.28333
v 0.14600 0.17750 0.33650
v 0.14967 0.17533 0.43100
v 0.14084 0.13692 0.49070
v 0.11183 0.11500 0.51767
v 0.13600 0.18100 -0.41500
v 0.14829 0.18300 -0.38257
v 0.15550 0.18300 0.35800
v 0.12771 0.18271 0.39571
v 0.19563 -0.13229 -0.48680
v 0.21868 -0.14074 -0.45404
v 0.22065 -0.14496 0.43413
v 0.20585 -0.13586 0.47496
v 0.20805 -0.06401 -0.49805
v 0.20962 -0.06675 -0.46025
v 0.24067 -0.07700 0.44300
v 0.20905 -0.06475 0.48601
v 0.20641 0.00569 -0.50148
v 0.21453 0.00467 -0.46299
v 0.20822 0.00571 0.48956
v 0.17900 0.00000 0.51600
v 0.20887 0.07213 -0.49701
v 0.20875 0.07354 -0.45976
v 0.24067 0.07717 0.44300
v 0.20931 0.07284 0.48466
v 0.19610 0.12966 -0.48753
v 0.21852 0.14112 -0.45195
v 0.21700 0.17700 -0.39700
v 0.21080 0.17800 -0.30260
v 0.20950 0.16400 -0.23550
v 0.23100 0.16400 0.21700
v 0.21500 0.17160 0.26960
v 0.19100 0.17750 0.31350
v 0.22014 0.14993 0.42954
v 0.20702 0.13343 0.47571
v 0.21386 0.18271 -0.35757
v 0.21800 0.18300 -0.32500
v 0.21586 0.18314 0.34529
v 0.18750 0.18200 0.38400
v 0.27642 -0.13547 -0.43838
v 0.29429 -0.14667 -0.38758
v 0.31500 -0.15200 0.36900
v 0.28858 -0.13982 0.41838
v 0.26303 -0.13088 0.45397
v 0.25238 -0.05514 -0.47981
v 0.28137 -0.06614 -0.44842
v 0.30839 -0.07133 -0.40044
v 0.28436 -0.06701 0.42301
v 0.27587 -0.06324 0.46388
v 0.25156 0.00423 -0.48363
v 0.28490 0.00521 -0.44919
v 0.31450 0.01850 -0.40250
v 0.28085 0.00467 0.42518
v 0.27902 0.00574 0.46679
v 0.25293 0.06293 -0.47853
v 0.28062 0.07352 -0.44809
v 0.30794 0.07359 -0.40041
v 0.28500 0.07296 0.42271
v 0.27501 0.07284 0.46301
v 0.27593 0.13282 -0.43944
v 0.29093 0.15167 -0.38520
v 0.26200 0.18000 -0.26900
v 0.28200 0.17700 -0.23220
v 0.28275 0.16675 -0.16400
v 0.30250 0.16400 -0.09300
v 0.31200 0.16400 -0.05100
v 0.31200 0.16400 0.04950
v 0.29233 0.16400 0.11867
v 0.28000 0.17160 0.20140
v 0.26167 0.17833 0.26133
v 0.29875 0.16950 0.35425
v 0.28840 0.13875 0.41705
v 0.26437 0.12945 0.45374
v 0.27500 0.18100 -0.33900
v 0.27912 0.18313 -0.29950
v 0.29700 0.18300 -0.25400
v 0.28767 0.18333 0.27783
v 0.26950 0.18200 0.33125
v 0.32383 -0.13100 -0.41313
v 0.35127 -0.13723 -0.37509
v 0.37025 -0.14590 -0.31625
v 0.38400 -0.15050 0.29725
v 0.36106 -0.14061 0.34896
v 0.34156 -0.13338 0.39493
v 0.33851 -0.06268 -0.42122
v 0.36016 -0.06520 -0.37764
v 0.38167 -0.07844 -0.32911
v 0.36298 -0.06748 0.35123
v 0.34745 -0.06450 0.40634
v 0.33822 0.00598 -0.42686
v 0.36172 0.00487 -0.38065
v 0.36839 0.00478 0.35242
v 0.34814 0.00580 0.40923
v 0.33838 0.07163 -0.41987
v 0.35925 0.07315 -0.37703
v 0.38167 0.07878 -0.32911
v 0.36194 0.07396 0.35117
v 0.34682 0.07267 0.40570
v 0.32512 0.12862 -0.41315
v 0.35180 0.13511 -0.37446
v 0.36672 0.15128 -0.31320
v 0.36900 0.17700 -0.26100
v 0.33625 0.17875 -0.15575
v 0.35500 0.17700 -0.08460
v 0.35000 0.17300 -0.00833
v 0.36225 0.17750 0.05775
v 0.34575 0.17750 0.12225
v 0.32267 0.17833 0.17967
v 0.37787 0.16175 0.28625
v 0.35979 0.14099 0.34690
v 0.34203 0.13000 0.39596
v 0.32550 0.18200 -0.27800
v 0.34750 0.18275 -0.22325
v 0.37120 0.18340 -0.15640
v 0.37900 0.18300 -0.09700
v 0.38300 0.18300 0.07900
v 0.37100 0.18333 0.13800
v 0.35100 0.18333 0.20233
v 0.33600 0.18200 0.26100
v 0.39341 -0.13152 -0.34696
v 0.42083 -0.13692 -0.29797
v 0.43667 -0.14377 -0.23583
v 0.45110 -0.14960 -0.18010
v 0.44320 -0.14467 0.20110
v 0.43027 -0.13898 0.27349
v 0.40579 -0.13430 0.32954
v 0.40549 -0.06464 -0.35649
v 0.42877 -0.06521 -0.30564
v 0.44392 -0.06870 -0.24096
v 0.45294 -0.07078 0.22272
v 0.43522 -0.06796 0.27601
v 0.41511 -0.06465 0.33673
v 0.38960 -0.03890 0.37890
v 0.40858 0.00558 -0.35996
v 0.42933 0.00533 -0.30896
v 0.44688 0.00476 -0.24573
v 0.45450 0.00471 0.23100
v 0.43609 0.00514 0.27593
v 0.42174 0.00580 0.33467
v 0.39077 0.00613 0.37909
v 0.40471 0.07213 -0.35594
v 0.42859 0.07256 -0.30470
v 0.44357 0.07426 -0.24024
v 0.45269 0.07594 0.22169
v 0.43482 0.07455 0.27579
v 0.41391 0.07272 0.33661
v 0.38950 0.05100 0.37750
v 0.39400 0.12961 -0.34723
v 0.42201 0.13423 -0.29764
v 0.43362 0.14588 -0.23304
v 0.44571 0.15629 -0.17586
v 0.44500 0.17533 -0.10033
v 0.45050 0.17700 -0.01050
v 0.44900 0.17700 0.05100
v 0.44033 0.17533 0.11933
v 0.43983 0.14917 0.20008
v 0.42886 0.13737 0.27454
v 0.40643 0.13101 0.33043
v 0.40067 0.18167 -0.15700
v 0.40786 0.18271 -0.08286
v 0.41300 0.18275 -0.00988
v 0.41114 0.18271 0.06300
v 0.39900 0.18275 0.13125
v 0.39550 0.18100 0.18200
v 0.46000 -0.11500 -0.26400
v 0.47224 -0.13369 -0.22490
v 0.49039 -0.13666 -0.15528
v 0.50479 -0.13657 -0.08488
v 0.50852 -0.14158 -0.01462
v 0.50773 -0.13912 0.05677
v 0.49637 -0.13747 0.12554
v 0.48267 -0.13406 0.19357
v 0.46319 -0.13185 0.24454
v 0.46429 -0.06147 -0.27644
v 0.48519 -0.06472 -0.22663
v 0.50409 -0.06540 -0.15726
v 0.50288 -0.06888 -0.09043
v 0.50487 -0.06646 -0.01649
v 0.50192 -0.06604 0.05604
v 0.50851 -0.06726 0.13169
v 0.49339 -0.06527 0.19499
v 0.47253 -0.06100 0.26141
v 0.46623 0.00590 -0.28139
v 0.48765 0.00556 -0.22546
v 0.50588 0.00625 -0.16183
v 0.50219 0.00467 -0.08722
v 0.50931 0.00467 -0.01886
v 0.50676 0.00462 0.05335
v 0.50586 0.00571 0.13642
v 0.49584 0.00569 0.19654
v 0.47600 0.00636 0.26337
v 0.46372 0.07141 -0.27493
v 0.48451 0.07279 -0.22644
v 0.50335 0.07306 -0.15643
v 0.50310 0.07506 -0.09103
v 0.50407 0.07334 -0.01607
v 0.50095 0.07334 0.05672
v 0.50861 0.07382 0.13050
v 0.49268 0.07316 0.19429
v 0.47162 0.07020 0.26074
v 0.46000 0.11500 -0.26400
v 0.47290 0.13059 -0.22582
v 0.49146 0.13362 -0.15456
v 0.50517 0.13542 -0.08465
v 0.50907 0.13979 -0.01375
v 0.50672 0.13703 0.05878
v 0.49645 0.13596 0.12436
v 0.48320 0.13151 0.19517
v 0.46361 0.12946 0.24554
v 0.52900 -0.11500 -0.01392
v 0.52850 -0.11500 0.03262
v 0.52925 -0.03575 -0.12575
v 0.53392 -0.06136 -0.08123
v 0.53898 -0.06505 -0.01932
v 0.53679 -0.06418 0.05353
v 0.53027 -0.05780 0.10555
v 0.52930 0.00311 -0.12883
v 0.53760 0.00595 -0.08407
v 0.54387 0.00589 -0.01633
v 0.54123 0.00591 0.05525
v 0.53210 0.00545 0.11431
v 0.53281 0.07115 -0.08018
v 0.53794 0.07326 -0.01969
v 0.53591 0.07251 0.05182
v 0.52968 0.06932 0.10134
v 0.52909 0.11500 -0.01091
v 0.52850 0.11500 0.03262
usemtl m022
f 104 127 136
f 104 136 108
f 108 136 127
f 108 127 104
f 104 127 118
f 108 112 145
f 108 145 136
f 112 108 136
f 112 136 145
f 112 153 145
f 105 119 128
f 105 109 108
f 105 108 104
f 119 105 104
f 119 104 118
f 105 128 137
f 105 137 109
f 109 137 128
f 109 128 105
f 104 127 128
f 104 128 105
f 109 137 136
f 109 136 108
f 108 136 137
f 108 137 109
f 105 128 127
f 105 127 104
f 154 113 146
f 113 108 109
f 108 113 112
f 112 113 154
f 112 154 153
f 109 113 146
f 109 146 137
f 113 109 137
f 113 137 146
f 112 113 146
f 112 146 145
f 113 112 145
f 113 145 146
f 129 106 105
f 105 128 129
f 106 110 109
f 106 109 105
f 120 129 128
f 120 128 119
f 106 128 137
f 106 137 110
f 110 137 109
f 129 128 106
f 137 138 110
f 113 114 147
f 147 114 109
f 147 109 110
f 109 114 113
f 147 146 113
f 146 147 155
f 146 155 154
f 147 110 137
f 129 106 110
f 129 138 110
f 106 129 138
f 106 138 110
f 110 138 147
f 130 139 138
f 130 138 129
f 121 130 129
f 121 129 120
f 139 138 129
f 139 129 130
f 121 163 130
f 121 162 163
f 120 162 121
f 148 138 139
f 138 148 147
f 147 148 156
f 147 156 155
f 156 148 194
f 156 194 193
f 155 156 193
f 131 140 139
f 131 139 130
f 131 121 122
f 121 131 130
f 131 169 176
f 131 176 140
f 130 169 131
f 140 176 139
f 122 163 164
f 121 163 122
f 130 169 163
f 122 163 169
f 122 169 131
f 121 163 169
f 121 169 130
f 149 148 139
f 149 139 140
f 157 156 149
f 148 149 156
f 148 149 183
f 149 140 176
f 149 176 183
f 157 195 194
f 156 157 194
f 148 194 183
f 157 149 183
f 157 183 194
f 156 148 183
f 156 183 194
f 164 170 131
f 131 122 164
f 131 170 177
f 131 177 140
f 140 177 170
f 140 170 131
f 131 170 169
f 140 176 169
f 140 169 131
f 140 176 177
f 131 169 163
f 131 163 122
f 184 149 140
f 149 184 195
f 195 157 149
f 140 184 177
f 149 184 183
f 140 149 183
f 140 183 176
f 149 140 177
f 149 177 184
f 149 157 194
f 149 194 183
f 171 178 177
f 171 177 170
f 165 171 164
f 170 164 171
f 178 177 170
f 178 170 171
f 164 206 165
f 177 178 185
f 185 196 195
f 185 184 177
f 195 184 185
f 196 234 195
f 171 165 207
f 171 212 217
f 171 217 178
f 178 217 212
f 178 212 171
f 171 212 207
f 165 206 207
f 165 207 212
f 165 212 171
f 235 196 185
f 178 185 222
f 185 178 217
f 185 217 222
f 185 235 222
f 196 235 234
f 196 185 222
f 196 222 235
f 213 218 179
f 213 179 172
f 171 213 172
f 172 179 178
f 172 178 171
f 212 207 208
f 212 208 213
f 171 212 213
f 213 212 217
f 213 217 218
f 218 217 212
f 218 212 213
f 179 217 218
f 213 212 207
f 213 207 208
f 172 212 217
f 172 217 179
f 179 217 178
f 213 212 172
f 179 218 223
f 223 185 178
f 223 178 179
f 236 235 222
f 236 222 223
f 185 223 222
f 218 223 222
f 218 222 217
f 223 218 217
f 223 217 222
f 223 236 235
f 223 235 222
f 178 222 217
f 223 179 217
f 208 249 213
f 213 254 259
f 213 259 218
f 213 254 249
f 208 248 249
f 208 207 248
f 208 249 254
f 208 254 213
f 236 223 278
f 223 218 259
f 223 259 264
f 223 278 264
f 236 278 277
f 236 277 235
f 236 223 264
f 236 264 278
f 255 260 259
f 255 259 254
f 259 260 218
f 255 249 250
f 249 255 254
f 254 259 218
f 254 218 213
f 260 259 254
f 260 254 255
f 250 249 254
f 250 254 255
f 259 260 265
f 259 265 264
f 279 278 265
f 264 265 278
f 264 218 259
f 218 264 223
f 279 265 264
f 279 264 278
f 255 288 292
f 288 255 250
f 255 292 295
f 255 295 260
f 260 295 254
f 255 291 292
f 255 254 291
f 250 287 288
f 255 291 287
f 255 287 250
f 288 287 292
f 250 249 287
f 250 287 291
f 250 291 255
f 309 265 299
f 265 309 279
f 260 259 295
f 265 299 298
f 265 298 264
f 260 265 264
f 260 264 259
f 265 260 295
f 265 295 299
f 279 309 308
f 265 279 308
f 265 308 298
f 309 299 308
f 279 308 278
f 279 265 298
f 279 298 308
f 292 295 260
f 292 260 255
f 260 295 299
f 321 324 323
f 321 323 320
f 295 323 324
f 292 288 316
f 292 316 320
f 292 320 323
f 292 323 295
f 295 323 320
f 295 320 292
f 328 327 323
f 328 323 324
f 295 323 327
f 295 327 299
f 337 309 299
f 337 299 327
f 299 295 323
f 299 323 327
f 345 317 316
f 321 317 346
f 321 346 349
f 317 321 316
f 317 345 346
f 316 321 320
f 321 320 348
f 321 348 349
f 324 323 320
f 324 320 321
f 349 348 320
f 349 320 321
f 346 345 348
f 346 348 349
f 363 338 328
f 363 328 355
f 338 362 337
f 328 338 337
f 363 362 338
f 327 328 337
f 328 355 354
f 328 354 327
f 324 328 327
f 324 327 323
f 328 323 354
f 355 328 327
f 355 327 354
f 363 355 354
f 363 354 362
f 349 348 351
f 349 351 352
f 352 351 348
f 352 348 349
f 349 348 345
f 349 345 346
f 324 351 323
f 321 348 351
f 321 351 324
f 324 351 352
f 324 352 355
f 324 355 328
f 352 355 354
f 352 354 351
f 355 352 351
f 355 351 354
f 355 363 362
f 355 362 354
f 324 328 354
f 324 354 323
f 372 375 352
f 372 352 349
f 349 346 369
f 349 369 372
f 372 371 374
f 372 374 375
f 375 374 351
f 375 351 352
f 375 374 371
f 375 371 372
f 349 371 372
f 349 348 371
f 352 351 374
f 352 374 375
f 372 371 368
f 372 368 369
f 369 368 371
f 369 371 372
f 346 368 369
f 346 345 368
f 372 371 348
f 372 348 349
f 352 375 378
f 352 378 355
f 386 363 355
f 386 355 378
f 355 378 377
f 352 355 377
f 352 377 351
f 378 375 374
f 378 374 377
f 378 386 385
f 378 385 377
f 386 378 377
f 386 377 385
f 355 377 354
f 355 351 377
f 363 386 385
f 363 385 362
f 378 355 354
f 378 354 377
f 372 369 393
f 372 393 396
f 372 371 395
f 372 395 396
f 396 395 371
f 396 371 372
f 369 368 392
f 369 392 393
f 393 392 395
f 393 395 396
f 410 386 378
f 410 378 402
f 378 402 401
f 378 401 377
f 375 378 377
f 375 377 374
f 402 378 377
f 402 377 401
f 386 410 409
f 386 409 385
f 410 402 401
f 410 401 409
f 396 399 375
f 396 375 372
f 396 395 398
f 396 398 399
f 399 398 395
f 399 395 396
f 396 395 392
f 396 392 393
f 399 398 374
f 399 374 375
f 375 374 398
f 375 398 399
f 375 399 402
f 399 402 401
f 399 401 398
f 402 399 398
f 402 398 401
f 402 410 409
f 402 409 401
f 375 402 377
f 421 424 399
f 421 399 396
f 421 417 416
f 396 393 417
f 396 417 421
f 393 392 416
f 393 416 417
f 421 420 423
f 421 423 424
f 424 398 399
f 421 420 395
f 424 423 420
f 424 420 421
f 421 395 398
f 421 398 424
f 396 395 421
f 424 398 423
f 417 392 416
f 421 420 392
f 421 392 417
f 416 420 421
f 417 392 395
f 417 395 421
f 399 424 428
f 436 437 428
f 428 402 399
f 437 410 402
f 437 402 428
f 436 409 410
f 436 410 437
f 428 427 401
f 399 428 401
f 428 424 423
f 428 423 427
f 437 436 409
f 428 437 409
f 428 409 427
f 436 428 427
f 402 428 401
f 428 399 398
f 428 398 401
f 437 428 401
f 437 401 409
f 421 420 449
f 420 416 445
f 420 445 449
f 457 428 424
f 457 427 428
f 467 436 427
f 467 427 457
f 424 428 427
f 424 427 423
f 457 424 423
f 457 423 427
f 449 452 424
f 449 424 421
f 452 453 424
f 452 423 424
f 452 423 420
f 452 420 449
f 449 420 423
f 449 423 452
f 449 420 416
f 449 416 445
f 424 452 457
f 424 457 427
f 457 467 436
f 457 436 427
f 481 486 452
f 481 452 449
f 476 481 445
f 449 445 481
f 481 448 480
f 481 449 448
f 486 452 449
f 486 449 481
f 481 480 449
f 445 444 476
f 481 449 444
f 481 444 445
f 476 444 480
f 476 480 481
f 476 475 444
f 445 444 449
f 452 486 491
f 452 491 457
f 491 505 467
f 467 457 491
f 491 490 456
f 491 456 457
f 491 452 490
f 505 467 466
f 491 467 466
f 491 466 457
f 505 491 490
f 505 490 466
f 505 466 504
f 467 457 466
f 481 475 480
f 475 481 476
f 481 480 485
f 481 485 486
f 486 485 480
f 486 480 481
f 486 485 452
f 476 475 480
f 504 491 490
f 491 504 505
f 486 491 490
f 486 490 485
f 491 486 485
f 491 485 490
f 486 490 452
f 505 490 504
f 521 480 481
f 521 525 486
f 521 486 481
f 521 475 516
f 475 521 480
f 525 485 480
f 525 480 521
f 521 480 485
f 521 485 525
f 516 475 474
f 516 474 515
f 525 485 486
f 516 475 480
f 516 480 521
f 491 490 530
f 530 486 525
f 486 530 490
f 543 504 530
f 490 530 504
f 525 530 490
f 525 490 485
f 543 503 504
f 543 542 503
f 530 525 485
f 530 485 490
f 543 530 490
f 543 490 504
f 521 520 524
f 521 524 525
f 521 520 515
f 521 515 516
f 516 515 520
f 516 520 521
f 530 525 524
f 530 524 529
f 530 543 542
f 530 542 529
f 543 530 529
f 543 529 542
f 564 571 572
f 564 572 565
f 564 565 521
f 564 515 558
f 515 564 521
f 564 520 524
f 564 524 571
f 571 524 572
f 571 524 520
f 571 520 564
f 565 520 564
f 572 524 520
f 572 520 565
f 564 520 515
f 565 520 524
f 565 524 572
f 565 520 521
f 521 520 564
f 525 524 520
f 525 520 521
f 525 524 572
f 558 515 520
f 558 520 564
f 572 571 578
f 530 579 578
f 578 579 572
f 525 572 579
f 525 579 530
f 590 542 578
f 530 578 542
f 572 578 529
f 572 529 524
f 578 571 524
f 578 542 529
f 530 578 529
f 525 530 529
f 525 529 524
f 578 572 524
f 578 524 529
f 590 578 529
f 590 529 542
f 564 558 557
f 564 563 570
f 564 570 571
f 564 563 557
f 558 514 557
f 558 515 514
f 558 557 563
f 558 563 564
f 589 590 578
f 578 571 570
f 578 570 577
f 578 589 577
f 590 589 541
f 590 541 542
f 590 578 577
f 590 577 589
f 614 623 570
f 614 570 563
f 614 557 605
f 557 614 563
f 564 563 614
f 563 570 571
f 563 571 564
f 623 570 563
f 623 563 614
f 605 557 563
f 605 563 614
f 570 623 632
f 641 589 632
f 577 632 589
f 632 577 571
f 632 571 570
f 571 577 578
f 632 570 577
f 641 632 577
f 641 577 589
f 571 577 570
f 604 613 614
f 604 614 605
f 614 613 622
f 614 622 623
f 623 569 570
f 614 562 613
f 623 569 562
f 623 562 614
f 614 562 569
f 614 569 623
f 623 622 569
f 614 563 562
f 605 556 604
f 614 562 556
f 614 556 605
f 604 556 613
f 605 557 556
f 605 556 562
f 605 562 614
f 631 632 623
f 632 631 640
f 632 640 641
f 632 631 576
f 632 576 577
f 623 632 577
f 623 577 570
f 631 623 622
f 641 640 588
f 632 641 588
f 632 588 576
f 640 631 588
f 641 588 589
f 641 632 576
f 641 576 588
f 613 622 623
f 613 623 614
f 612 621 622
f 612 622 613
f 613 604 603
f 613 603 612
f 613 612 621
f 613 621 622
f 622 621 630
f 630 631 622
f 639 640 631
f 639 631 630
f 648 603 602
f 648 602 647
f 603 648 612
f 612 648 653
f 612 653 621
f 648 612 621
f 648 621 653
f 648 611 647
f 648 612 611
f 647 611 612
f 647 612 648
f 621 620 653
f 602 611 647
f 656 657 653
f 638 639 657
f 638 657 656
f 630 657 639
f 657 621 653
f 621 657 630
f 657 656 629
f 657 629 630
f 653 657 630
f 653 630 621
f 656 653 621
f 656 621 629
f 638 656 629
f 643 647 602
f 647 652 653
f 647 653 648
f 647 611 620
f 647 620 652
f 652 620 611
f 652 611 647
f 643 602 611
f 643 611 647
f 652 620 653
f 653 620 611
f 653 611 648
f 656 659 638
f 653 652 656
f 652 656 629
f 652 629 620
f 656 652 620
f 656 620 629
f 659 656 629
f 659 629 638
f 653 656 629
f 653 629 620
f 646 651 652
f 646 652 647
f 601 643 602
f 647 643 642
f 647 642 646
f 643 601 642
f 646 610 619
f 646 619 651
f 651 619 620
f 651 620 652
f 651 619 610
f 651 610 646
f 647 611 610
f 647 610 646
f 652 620 619
f 652 619 651
f 646 610 601
f 646 601 642
f 642 601 610
f 642 610 646
f 646 610 611
f 646 611 647
f 652 651 655
f 655 656 652
f 659 637 638
f 658 659 656
f 658 656 655
f 637 659 658
f 652 655 628
f 652 628 620
f 655 651 619
f 655 619 628
f 655 658 637
f 655 637 628
f 658 655 628
f 658 628 637
f 656 655 628
f 656 628 629
f 655 652 620
f 655 620 628
f 600 601 642
f 645 601 600
f 601 645 646
f 645 610 609
f 646 610 645
f 619 650 651
f 600 609 645
f 654 655 651
f 658 637 636
f 636 637 654
f 655 654 637
f 654 627 628
f 655 654 628
f 651 655 628
f 651 628 619
f 654 651 619
f 654 619 627
f 636 654 627
f 650 646 645
f 645 609 618
f 645 618 650
f 650 618 609
f 650 609 645
f 650 618 619
f 646 610 609
f 646 609 645
f 650 619 610
f 650 610 646
f 651 619 618
f 651 618 650
f 650 654 651
f 650 654 627
f 650 627 618
f 654 650 618
f 654 618 627
f 651 654 627
f 651 627 619
f 608 644 649
f 645 608 644
f 645 609 608
f 644 649 650
f 644 650 645
f 608 600 599
f 600 608 609
f 644 608 617
f 644 617 649
f 617 618 649
f 644 609 608
f 649 618 609
f 649 609 644
f 644 609 618
f 644 618 649
f 649 618 650
f 649 617 626
f 626 654 650
f 626 650 649
f 626 627 654
f 635 636 626
f 627 626 636
f 649 626 618
f 626 618 627
f 608 599 607
f 607 599 598
f 599 555 598
f 598 599 608
f 598 608 607
f 625 626 617
f 635 626 625
f 634 635 625
f 635 634 583
f 634 625 626
f 634 626 635
f 607 561 554
f 607 554 598
f 598 554 561
f 598 561 607
f 616 608 607
f 607 608 617
f 607 617 616
f 616 617 608
f 598 555 554
f 625 616 575
f 625 634 582
f 625 582 575
f 634 625 575
f 634 575 582
f 616 625 626
f 616 626 617
f 634 582 583
f 606 615 616
f 606 616 607
f 606 553 560
f 553 606 597
f 607 598 606
f 598 554 553
f 597 598 553
f 606 598 597
f 606 561 560
f 606 561 568
f 606 568 615
f 615 568 616
f 615 568 561
f 615 561 606
f 607 561 606
f 616 568 561
f 616 561 607
f 568 567 615
f 606 561 554
f 606 554 598
f 607 561 568
f 607 568 616
f 598 561 606
f 616 615 624
f 581 624 574
f 624 581 633
f 624 625 616
f 634 625 624
f 581 582 634
f 633 581 634
f 624 633 634
f 624 574 575
f 616 624 575
f 616 575 568
f 624 615 568
f 624 568 574
f 624 634 582
f 624 582 575
f 625 624 575
f 624 616 568
f 624 568 575
f 634 624 575
f 560 567 615
f 560 615 606
f 606 560 567
f 606 567 615
f 574 615 567
f 615 574 624
f 559 566 567
f 559 567 560
f 559 553 552
f 553 559 560
f 559 560 519
f 559 518 523
f 559 523 566
f 559 519 518
f 566 567 560
f 566 560 559
f 566 523 567
f 552 513 512
f 559 519 513
f 559 513 552
f 552 512 518
f 552 518 559
f 553 513 552
f 552 513 519
f 552 519 559
f 573 567 566
f 567 573 574
f 580 581 573
f 574 573 581
f 573 528 574
f 573 527 528
f 566 573 574
f 566 574 567
f 573 566 523
f 573 523 527
f 580 532 533
f 573 580 533
f 573 533 528
f 580 573 527
f 580 527 532
f 581 580 533
f 580 573 528
f 580 528 533
f 518 523 566
f 518 566 559
f 512 518 559
f 512 559 552
f 566 523 527
f 573 527 532
f 573 532 580
f 566 573 527
f 517 522 523
f 517 523 518
f 517 512 511
f 512 517 518
f 522 523 518
f 522 518 517
f 517 518 479
f 511 473 472
f 511 512 473
f 511 473 479
f 511 479 517
f 511 512 518
f 511 518 517
f 526 523 522
f 523 526 527
f 531 532 526
f 527 526 532
f 526 489 527
f 522 526 527
f 522 527 523
f 526 523 489
f 531 492 493
f 531 493 532
f 531 526 489
f 531 489 493
f 531 526 527
f 531 527 532
f 478 483 522
f 478 522 517
f 472 478 517
f 472 517 511
f 517 478 479
f 517 478 483
f 517 483 522
f 522 483 523
f 522 523 479
f 522 479 517
f 517 479 473
f 517 473 511
f 484 523 522
f 522 483 488
f 488 526 522
f 526 488 492
f 526 492 531
f 526 489 488
f 522 526 489
f 522 489 484
f 526 531 493
f 526 493 489
f 477 482 483
f 477 483 478
f 478 472 443
f 478 443 446
f 446 477 478
f 477 447 446
f 477 447 451
f 477 451 482
f 478 447 477
f 482 451 483
f 446 447 478
f 478 447 443
f 443 447 446
f 487 483 482
f 488 483 487
f 459 492 488
f 459 488 454
f 487 454 488
f 487 454 455
f 488 487 455
f 487 482 451
f 487 451 455
f 454 488 455
f 488 459 455
f 459 454 455
f 442 446 443
f 446 447 451
f 446 451 450
f 450 451 447
f 450 447 446
f 442 443 447
f 442 447 446
f 482 451 447
f 482 447 477
f 482 451 450
f 482 450 454
f 482 454 487
f 454 458 459
f 450 454 455
f 450 455 451
f 454 450 451
f 454 451 455
f 458 454 455
f 458 455 459
f 482 487 455
f 482 455 451
f 418 422 450
f 418 450 446
f 446 418 422
f 446 422 450
f 418 419 415
f 418 415 414
f 446 419 418
f 446 447 419
f 442 415 414
f 442 443 415
f 442 415 419
f 442 419 446
f 425 450 422
f 450 425 454
f 425 429 430
f 425 430 426
f 454 425 426
f 454 426 455
f 458 429 430
f 458 430 459
f 458 454 426
f 458 426 430
f 414 391 390
f 414 415 391
f 414 390 394
f 414 394 418
f 429 403 404
f 429 404 430
f 429 425 400
f 429 400 403
f 394 397 422
f 394 422 418
f 418 394 397
f 418 397 422
f 400 422 397
f 422 400 425
f 370 373 397
f 370 397 394
f 367 370 390
f 390 370 394
f 376 397 373
f 397 376 400
f 376 379 403
f 403 400 376
f 343 347 367
f 350 373 370
f 350 370 347
f 347 370 367
f 373 350 353
f 373 353 376
f 353 356 379
f 353 379 376
f 318 322 350
f 318 350 347
f 347 343 318
f 318 343 314
f 322 350 347
f 322 347 318
f 314 343 344
f 314 344 315
f 350 322 325
f 350 325 353
f 356 353 325
f 325 329 356
f 329 357 356
f 329 330 357
f 318 319 289
f 318 315 314
f 314 315 319
f 314 319 318
f 285 315 314
f 325 296 326
f 325 329 330
f 329 325 326
f 329 326 330
f 300 329 330
f 289 293 322
f 289 322 318
f 285 289 314
f 289 290 294
f 289 294 293
f 293 294 290
f 293 290 289
f 289 290 286
f 289 286 285
f 285 286 290
f 285 290 289
f 289 319 290
f 293 322 318
f 293 318 289
f 285 315 286
f 289 319 315
f 289 315 314
f 322 293 296
f 322 296 325
f 296 300 329
f 293 296 297
f 296 293 294
f 296 294 297
f 296 300 301
f 296 301 297
f 300 296 297
f 300 297 301
f 296 297 326
f 300 301 330
f 296 329 330
f 296 330 326
f 252 251 289
f 251 256 293
f 251 293 289
f 246 252 289
f 246 289 286
f 251 290 294
f 251 294 256
f 289 290 252
f 256 294 293
f 252 290 251
f 246 286 290
f 246 290 252
f 296 261 262
f 262 261 293
f 262 293 256
f 293 261 296
f 296 262 266
f 296 266 301
f 296 262 297
f 293 297 294
f 262 256 294
f 262 294 297
f 266 262 297
f 266 297 301
f 252 257 256
f 252 256 251
f 257 294 256
f 256 294 290
f 256 290 251
f 252 286 246
f 256 257 262
f 256 262 297
f 256 297 294
f 262 266 301
f 252 246 203
f 252 203 209
f 203 246 209
f 209 253 210
f 209 253 258
f 209 258 214
f 209 253 252
f 214 258 253
f 214 253 209
f 209 252 257
f 209 257 214
f 214 257 252
f 214 252 209
f 214 257 258
f 203 247 204
f 209 253 247
f 209 247 203
f 203 247 210
f 203 210 209
f 246 247 253
f 246 253 209
f 203 247 246
f 219 262 257
f 224 266 262
f 224 262 219
f 224 219 266
f 219 220 263
f 219 263 262
f 214 219 262
f 214 262 257
f 219 214 258
f 219 258 220
f 224 225 267
f 219 224 267
f 219 267 263
f 224 219 220
f 224 220 267
f 266 224 267
f 266 219 263
f 266 263 267
f 210 215 214
f 210 214 209
f 204 210 209
f 209 210 215
f 209 215 214
f 214 215 258
f 209 210 247
f 209 247 204
f 214 215 220
f 220 219 214
f 219 220 225
f 214 220 258
f 219 225 267
f 219 267 220
f 166 173 215
f 166 215 210
f 210 204 166
f 173 215 210
f 173 210 166
f 166 210 211
f 215 216 173
f 158 205 204
f 158 205 159
f 166 210 205
f 166 205 158
f 158 205 211
f 158 211 166
f 180 220 215
f 180 215 173
f 225 220 180
f 180 221 220
f 173 180 220
f 173 220 215
f 180 215 221
f 186 225 226
f 186 187 226
f 180 186 226
f 180 226 220
f 186 180 221
f 186 221 226
f 167 174 173
f 167 173 166
f 159 167 166
f 159 166 158
f 166 167 174
f 166 174 173
f 166 167 211
f 166 211 216
f 166 216 173
f 173 216 211
f 173 211 166
f 173 216 174
f 166 211 205
f 173 174 181
f 181 180 173
f 180 181 187
f 180 187 186
f 180 181 221
f 173 180 221
f 173 221 216
f 180 226 221
f 123 132 174
f 123 174 167
f 167 159 160
f 167 160 124
f 124 123 167
f 123 168 175
f 123 175 132
f 167 168 123
f 132 175 174
f 124 168 123
f 160 168 124
f 141 174 132
f 174 141 181
f 188 187 181
f 188 181 142
f 141 142 181
f 181 141 182
f 141 132 175
f 141 175 182
f 142 141 182
f 188 142 182
f 124 133 132
f 124 132 123
f 115 124 160
f 124 168 175
f 124 175 133
f 133 175 168
f 133 168 124
f 115 160 168
f 115 168 124
f 132 175 168
f 132 168 123
f 133 175 132
f 142 132 133
f 132 142 141
f 142 150 188
f 133 142 182
f 133 182 175
f 142 133 175
f 142 175 182
f 150 142 182
f 150 182 188
f 132 141 182
f 132 182 175
f 125 134 133
f 125 133 124
f 116 125 124
f 116 124 115
f 124 125 134
f 124 134 133
f 115 161 116
f 124 125 161
f 124 161 115
f 115 160 161
f 115 161 125
f 115 125 124
f 143 142 133
f 143 133 134
f 142 143 151
f 142 151 150
f 150 151 189
f 142 150 189
f 142 189 143
f 150 189 188
f 150 142 143
f 150 143 189
f 116 117 126
f 116 126 125
f 151 143 144
f 151 144 152
f 126 103 107
f 126 107 135
f 135 107 134
f 126 135 134
f 126 134 125
f 117 126 125
f 117 125 116
f 103 126 135
f 103 135 107
f 111 135 107
f 135 111 144
f 144 143 134
f 144 134 135
f 143 144 152
f 143 152 151
f 104 108 107
f 104 107 103
f 118 104 103
f 118 103 117
f 126 117 103
f 103 126 127
f 103 127 104
f 108 136 135
f 108 135 107
f 107 135 136
f 107 136 108
f 104 127 126
f 104 126 103
f 112 107 108
f 107 112 111
f 111 112 153
f 111 153 152
f 152 144 111
f 111 112 145
f 111 145 144
f 107 111 144
f 107 144 135
f 112 111 144
f 112 144 145
f 324 295 292
f 324 292 321
f 218 178 171
f 218 171 213
f 140 139 130
f 140 130 131
f 138 109 105
f 138 105 129
f 109 108 104
f 109 104 105
f 108 135 126
f 108 126 104
f 135 134 125
f 135 125 126
f 132 174 167
f 132 167 123
f 257 293 289
f 257 289 252
f 615 616 607
f 615 607 606
f 650 651 646
f 651 652 647
f 651 647 646
f 525 486 481
f 525 481 521
f 424 399 396
f 424 396 421
f 349 372 375
f 349 375 352
f 321 349 352
f 321 352 324
f 342 341 313
f 313 341 312
f 312 283 284
f 245 283 244
f 201 243 200
f 198 239 197
f 123 124 133
f 123 133 132
f 340 365 364
f 364 365 387
f 394 370 373
f 394 373 397
f 387 412 411
f 411 412 439
f 478 446 450
f 478 450 483
f 544 507 545
f 591 546 592
f 645 608 617
f 645 617 650
f 648 647 652
f 648 652 653
f 595 549 550
f 510 509 470
f 471 470 441
f 421 449 452
f 421 452 424
f 372 396 399
f 372 399 375
f 360 334 335
f 308 309 337
f 308 278 309
f 335 334 307
f 307 334 306
f 306 305 276
f 276 305 275
f 194 156 195
f 275 274 232
f 232 274 273
f 232 273 231
f 231 273 272
f 231 272 230
f 230 272 229
f 229 272 271
f 189 151 152
f 188 151 189
f 229 271 270
f 229 270 228
f 269 270 304
f 269 304 303
f 303 304 333
f 301 266 267
f 303 333 332
f 330 329 301
f 332 359 331
f 331 359 358
f 358 359 382
f 358 382 381
f 381 382 406
f 381 406 405
f 430 429 403
f 405 406 431
f 459 429 430
f 431 406 432
f 493 492 459
f 432 462 461
f 493 532 492
f 461 462 495
f 533 581 532
f 495 462 496
f 535 496 497
f 535 497 536
f 636 635 583
f 536 497 498
f 536 498 537
f 537 499 538
f 538 499 500
f 538 500 539
f 588 640 639
f 588 589 640
f 539 500 540
f 540 500 501
f 502 463 464
f 504 543 542
f 464 433 465
f 466 467 504
f 465 433 434
f 436 467 466
f 434 433 407
f 244 243 202
f 243 201 202
f 239 238 197
f 238 281 237
f 281 310 280
f 340 364 339
f 411 439 438
f 468 507 506
f 545 546 591
f 595 550 596
f 550 551 596
f 389 366 362
f 389 362 385
f 389 384 383
f 366 361 362
f 366 389 383
f 366 383 360
f 366 342 336
f 366 336 361
f 361 336 337
f 361 337 362
f 342 366 341
f 341 366 360
f 341 360 335
f 342 313 308
f 342 308 336
f 336 308 337
f 313 312 308
f 312 341 335
f 312 335 307
f 312 284 277
f 312 277 308
f 308 277 278
f 312 307 306
f 283 312 306
f 284 283 235
f 284 235 277
f 283 306 276
f 283 245 234
f 283 234 235
f 283 276 275
f 244 283 275
f 245 244 194
f 245 194 234
f 234 194 195
f 244 275 233
f 244 202 194
f 243 244 233
f 243 233 232
f 232 233 275
f 202 201 193
f 202 193 194
f 201 200 193
f 200 243 242
f 242 243 232
f 242 232 231
f 200 192 193
f 193 192 154
f 193 154 155
f 200 199 191
f 200 191 192
f 192 191 153
f 192 153 154
f 199 200 242
f 199 242 241
f 241 242 231
f 241 231 230
f 199 198 190
f 199 190 191
f 191 190 153
f 153 190 152
f 198 199 241
f 198 241 240
f 240 241 230
f 240 230 229
f 198 197 189
f 198 189 190
f 190 189 152
f 239 198 240
f 239 240 229
f 239 229 228
f 197 238 227
f 197 227 189
f 189 227 188
f 238 239 228
f 227 226 188
f 188 226 187
f 282 238 228
f 282 228 269
f 269 228 270
f 238 237 226
f 238 226 227
f 281 238 282
f 237 281 268
f 237 268 226
f 226 268 225
f 281 282 269
f 281 269 268
f 281 280 267
f 281 267 268
f 268 267 225
f 311 281 268
f 311 268 303
f 303 268 269
f 280 310 267
f 310 281 311
f 310 302 267
f 267 302 301
f 310 311 303
f 310 340 330
f 310 330 302
f 302 330 301
f 340 310 303
f 340 303 331
f 331 303 332
f 340 339 330
f 339 364 357
f 339 357 330
f 365 340 331
f 365 331 358
f 364 387 380
f 364 380 357
f 357 380 379
f 357 379 356
f 387 365 388
f 388 365 358
f 388 358 381
f 387 411 404
f 387 404 380
f 380 404 403
f 380 403 379
f 412 387 388
f 412 388 381
f 412 381 405
f 404 430 403
f 411 438 430
f 411 430 404
f 439 412 405
f 439 405 431
f 438 439 459
f 438 459 430
f 439 468 460
f 439 460 459
f 468 439 431
f 468 431 461
f 461 431 432
f 468 493 460
f 460 493 459
f 469 468 461
f 468 506 493
f 507 468 469
f 507 469 461
f 506 507 533
f 506 533 493
f 493 533 532
f 507 461 494
f 494 461 495
f 507 544 533
f 508 507 494
f 508 494 495
f 544 545 534
f 544 534 533
f 545 507 508
f 545 508 495
f 545 582 534
f 534 582 533
f 533 582 581
f 545 495 535
f 535 495 496
f 545 591 583
f 545 583 582
f 546 545 535
f 591 592 584
f 591 584 583
f 583 584 636
f 592 546 547
f 547 546 535
f 547 535 536
f 592 547 536
f 592 593 585
f 592 585 584
f 584 585 637
f 584 637 636
f 593 592 536
f 593 536 537
f 593 594 586
f 593 586 585
f 585 586 638
f 585 638 637
f 594 593 537
f 594 537 538
f 594 587 586
f 586 587 639
f 586 639 638
f 548 594 538
f 594 595 587
f 595 594 548
f 595 548 549
f 549 548 538
f 549 538 539
f 595 596 588
f 595 588 587
f 587 588 639
f 550 549 539
f 550 539 540
f 596 551 541
f 596 541 588
f 588 541 589
f 551 550 509
f 509 550 540
f 509 540 501
f 551 542 541
f 503 504 542
f 470 509 502
f 470 502 464
f 510 470 466
f 510 466 503
f 503 466 504
f 470 464 465
f 470 471 466
f 440 470 465
f 440 465 434
f 471 441 435
f 471 435 466
f 466 435 436
f 441 470 440
f 441 440 434
f 441 434 407
f 441 413 408
f 441 408 435
f 435 408 409
f 435 409 436
f 413 441 407
f 413 409 408
f 413 389 385
f 413 385 409
f 389 413 407
f 389 407 384
f 384 407 383
f 502 501 463
f 551 509 510
f 509 501 502
f 542 551 510
f 542 510 503
f 571 525 521
f 571 521 564
f 327 295 324
f 288 316 320
f 288 320 292
f 292 320 321
f 309 278 265
f 299 265 260
f 249 288 292
f 249 292 255
f 223 222 178
f 223 178 218
f 195 156 148
f 195 148 149
f 121 164 131
f 147 146 109
f 147 109 138
f 119 120 129
f 119 129 128
f 154 153 145
f 154 145 146
f 146 145 108
f 146 108 109
f 118 119 128
f 118 128 127
f 153 152 144
f 153 144 145
f 145 144 135
f 145 135 108
f 117 118 127
f 117 127 126
f 115 116 125
f 181 174 132
f 187 225 180
f 204 159 167
f 204 167 166
f 225 266 262
f 225 262 219
f 219 257 214
f 246 204 209
f 246 209 252
f 301 296 262
f 262 296 293
f 262 293 257
f 286 252 289
f 301 329 325
f 301 325 296
f 314 286 289
f 314 289 318
f 356 379 376
f 356 376 353
f 580 581 574
f 580 574 573
f 581 582 624
f 554 553 560
f 554 560 606
f 582 625 624
f 625 617 616
f 636 637 655
f 636 655 627
f 627 655 651
f 627 651 650
f 601 600 609
f 601 609 646
f 637 638 656
f 637 656 655
f 602 601 646
f 602 646 647
f 605 604 613
f 605 613 614
f 504 491 530
f 530 491 486
f 475 521 481
f 504 467 457
f 504 457 491
f 445 475 481
f 436 409 402
f 436 402 427
f 427 402 399
f 427 399 424
f 392 416 420
f 392 420 396
f 396 420 421
f 345 368 372
f 345 372 349
f 385 362 355
f 385 355 378
f 316 345 349
f 316 349 320
f 362 337 327
f 362 327 355
f 355 327 324
f 196 195 184
f 196 184 185
f 120 121 130
f 120 130 129
f 150 188 181
f 150 181 142
f 142 181 132
f 329 356 353
f 329 353 325
f 379 403 400
f 379 400 376
f 403 429 425
f 403 425 400
f 443 414 418
f 443 418 446
f 429 459 454
f 429 454 425
f 472 443 446
f 472 446 478
f 454 488 483
f 454 483 450
f 512 472 478
f 512 478 517
f 492 532 526
f 635 636 627
f 635 627 626
f 626 627 650
f 626 650 617
f 603 602 647
f 603 647 612
f 638 639 630
f 638 630 656
f 656 630 653
f 604 603 612
f 604 612 613
f 368 392 396
f 368 396 372
f 409 385 378
f 409 378 402
f 402 378 375
f 578 530 525
f 578 525 571
f 516 515 564
f 516 564 521
f 204 205 159
f 552 553 512
f 187 226 225
f 532 581 580
f 115 160 116
f 246 247 204
f 605 557 604
f 151 188 150
f 225 267 266
f 640 589 641
v 0.50025 -0.15200 0.07975
v 0.49600 -0.15200 -0.10350
v 0.42737 -0.15200 0.26700
v 0.45782 -0.17611 0.07147
v 0.44550 -0.17550 -0.14399
v 0.40359 -0.18324 0.17811
v 0.41039 -0.18448 -0.02836
v 0.42649 -0.18437 -0.06185
v 0.37841 -0.18448 0.16505
v 0.37342 -0.18225 0.07784
v 0.43375 -0.15200 -0.26425
v 0.34802 -0.16883 -0.33274
v 0.35346 -0.18119 -0.14157
v 0.37602 -0.18133 -0.02851
v 0.37717 -0.16926 0.29441
v 0.34495 -0.18401 0.25488
v 0.37591 -0.18426 -0.18030
v 0.36200 -0.18300 0.14700
v 0.35749 -0.17561 0.06040
v 0.33814 -0.18171 -0.17134
v 0.28250 -0.15200 0.42025
v 0.34050 -0.18100 0.15713
v 0.31138 -0.18144 0.21500
v 0.26393 -0.18440 0.33748
v 0.33850 -0.15200 -0.38050
v 0.33794 -0.18450 -0.23460
v 0.25250 -0.16500 -0.17900
v 0.29374 -0.18097 -0.23378
v 0.31125 -0.16500 0.02800
v 0.33172 -0.18122 -0.29316
v 0.27368 -0.18438 -0.28501
v 0.24650 -0.16797 -0.41340
v 0.27400 -0.16500 0.15750
v 0.26268 -0.18093 0.26800
v 0.20563 -0.17916 0.31257
v 0.26900 -0.16880 0.39828
v 0.19530 -0.18161 0.32259
v 0.24814 -0.18396 -0.35294
v 0.14861 -0.18355 0.40549
v 0.11400 -0.15200 0.49350
v 0.07000 -0.16500 -0.30225
v 0.15640 -0.18269 0.34925
v 0.23144 -0.18146 -0.30493
v 0.16463 -0.18490 -0.39258
v 0.06027 -0.17583 0.35498
v 0.05108 -0.18464 0.42209
v 0.20300 -0.15200 -0.46800
v 0.13046 -0.18350 -0.42527
v 0.11120 -0.16888 0.46735
v 0.07415 -0.18165 0.37112
v 0.13550 -0.16500 0.27738
v -0.04714 -0.18438 0.41360
v -0.06950 -0.15200 0.50175
v 0.00891 -0.18402 -0.42985
v 0.06195 -0.18056 -0.37596
v -0.02089 -0.18169 -0.37959
v -0.04885 -0.17423 -0.46595
v -0.04149 -0.18218 0.37901
v -0.14400 -0.16500 -0.27725
v -0.05657 -0.17583 0.46032
v -0.14145 -0.18451 -0.40381
v -0.18208 -0.17856 0.32574
v -0.04650 -0.15200 -0.50550
v -0.10618 -0.18146 -0.36261
v -0.20310 -0.17454 -0.42250
v -0.17509 -0.18407 0.39115
v -0.15258 -0.18165 0.34577
v -0.24375 -0.15200 0.44425
v -0.16694 -0.18247 -0.34482
v -0.20839 -0.18127 -0.38857
v -0.11700 -0.16500 0.28500
v -0.21986 -0.18590 0.34569
v -0.17924 -0.18116 -0.33935
v -0.28700 -0.16500 -0.13300
v -0.34336 -0.17724 0.30713
v -0.32791 -0.18170 0.20122
v -0.21221 -0.17622 0.41277
v -0.36979 -0.18454 0.21894
v -0.22325 -0.15200 -0.45550
v -0.25951 -0.18458 -0.34070
v -0.28937 -0.16500 0.10200
v -0.39614 -0.18418 0.16104
v -0.32031 -0.18162 -0.20984
v -0.38650 -0.15200 0.32825
v -0.31764 -0.18338 -0.31236
v -0.36046 -0.18097 -0.10716
v -0.35335 -0.18231 0.14603
v -0.36835 -0.18133 0.08508
v -0.43280 -0.17677 0.16405
v -0.37900 -0.18300 -0.09700
v -0.36888 -0.18426 -0.19635
v -0.38487 -0.18230 -0.01560
v -0.42026 -0.18459 0.07846
v -0.41624 -0.18352 -0.15739
v -0.37100 -0.15200 -0.34650
v -0.41822 -0.18401 -0.10472
v -0.47800 -0.15200 0.16925
v -0.46576 -0.17558 -0.00818
v -0.46975 -0.15200 -0.19175
v -0.50725 -0.15200 -0.01200
usemtl m066
f 683 698 701
f 730 717 721
f 712 727 736
f 712 736 719
f 727 743 734
f 727 734 736
f 740 730 721
f 740 721 735
f 743 756 748
f 743 748 734
f 740 735 751
f 756 759 757
f 756 757 748
f 733 740 751
f 759 758 753
f 759 753 757
f 733 751 742
f 758 754 744
f 758 744 753
f 718 733 742
f 718 742 732
f 754 738 724
f 754 724 744
f 738 722 716
f 738 716 724
f 700 718 732
f 700 732 714
f 722 706 707
f 722 707 716
f 700 714 702
f 706 691 707
f 706 684 671
f 706 671 691
f 686 700 702
f 684 670 671
f 686 702 672
f 670 664 671
f 670 661 664
f 688 686 672
f 688 672 678
f 661 660 663
f 661 663 664
f 660 662 665
f 660 665 663
f 692 688 678
f 692 678 682
f 662 674 665
f 680 699 708
f 680 708 695
f 710 694 704
f 699 712 719
f 699 719 708
f 730 710 704
f 730 704 717
f 711 719 736
f 711 736 725
f 731 734 737
f 741 737 748
f 755 752 757
f 750 753 744
f 720 739 729
f 720 716 713
f 697 689 690
f 690 689 685
f 685 689 664
f 685 664 676
f 676 664 667
f 666 667 665
f 665 667 663
f 668 665 675
f 705 719 711
f 711 721 717
f 725 726 711
f 726 721 711
f 725 736 731
f 731 726 725
f 731 721 726
f 731 736 734
f 735 721 731
f 737 735 731
f 741 735 737
f 737 734 748
f 746 735 741
f 741 748 752
f 747 735 746
f 752 746 741
f 752 747 746
f 747 751 735
f 752 748 757
f 755 747 752
f 755 751 747
f 757 753 755
f 753 749 751
f 753 751 755
f 749 745 751
f 753 745 749
f 745 742 751
f 750 742 753
f 742 745 753
f 744 742 750
f 739 742 744
f 739 732 742
f 739 744 724
f 720 732 739
f 739 724 729
f 720 728 732
f 729 724 720
f 720 723 728
f 723 732 728
f 724 716 720
f 720 715 723
f 715 714 732
f 715 732 723
f 713 715 720
f 713 716 707
f 707 715 713
f 707 714 715
f 703 714 707
f 703 707 691
f 703 691 697
f 697 714 703
f 697 702 714
f 697 691 671
f 690 702 697
f 697 671 689
f 685 687 690
f 687 702 690
f 687 672 702
f 689 671 664
f 676 679 685
f 679 687 685
f 679 672 687
f 667 679 676
f 667 672 679
f 666 672 667
f 666 673 672
f 673 678 672
f 667 664 663
f 665 673 666
f 665 669 673
f 669 678 673
f 668 677 669
f 668 669 665
f 677 681 669
f 681 678 669
f 668 681 677
f 681 682 678
f 665 674 675
f 675 682 668
f 682 681 668
f 675 674 683
f 683 694 693
f 683 693 682
f 696 694 683
f 683 695 698
f 701 696 683
f 701 694 696
f 698 695 708
f 698 709 701
f 709 704 694
f 709 694 701
f 698 708 705
f 705 709 698
f 705 708 719
f 711 717 705
f 717 709 705
f 717 704 709
f 662 680 695
f 662 695 674
f 692 682 694
f 692 694 710
f 682 675 683
f 682 693 694
f 674 695 683
