# fh16_trailer_wheel_1r.obj - ISO 8855 (x ileri, y sol, z yukari), metre
mtllib fh16.mtl
o fh16_trailer_wheel_1r
v -0.28812 -0.31464 -0.13685
v -0.32046 -0.31381 0.00000
v -0.30429 -0.31374 0.09844
v -0.26528 -0.31618 0.19192
v -0.26959 -0.24099 -0.09354
v -0.28441 -0.24445 0.00000
v -0.26940 -0.24190 0.08700
v -0.27300 -0.22500 0.19700
v -0.27000 -0.12640 -0.10177
v -0.27276 -0.13258 -0.02542
v -0.26537 -0.13301 0.08572
v -0.26150 -0.07250 0.18950
v -0.28022 0.01696 -0.12658
v -0.30615 0.01572 0.00000
v -0.29124 0.01468 0.09412
v -0.25889 0.02109 0.18730
v -0.27089 0.08317 -0.09944
v -0.26767 0.06955 -0.03571
v -0.26162 0.07015 0.08450
v -0.25300 0.15350 0.18300
v -0.28633 0.28150 -0.12833
v -0.31350 0.28100 0.00000
v -0.29750 0.28100 0.09600
v -0.26400 0.28250 0.19100
v -0.28573 0.31377 -0.12908
v -0.31381 0.31412 0.00000
v -0.29789 0.31428 0.09628
v -0.26120 0.31330 0.18900
v -0.18838 -0.31388 -0.25850
v -0.24273 -0.30823 -0.17600
v -0.20113 -0.31027 0.22830
v -0.19542 -0.31733 0.26767
v -0.16723 -0.24204 -0.22937
v -0.22741 -0.24429 -0.16488
v -0.19710 -0.24377 0.19510
v -0.19800 -0.22500 0.27100
v -0.16381 -0.13437 -0.22470
v -0.19320 -0.12140 -0.14838
v -0.17983 -0.09206 -0.03679
v -0.19006 -0.09832 0.06715
v -0.18204 -0.13121 0.18847
v -0.19550 -0.07950 0.26750
v -0.18020 0.01542 -0.24727
v -0.19472 0.02857 -0.14874
v -0.18248 0.02105 -0.03888
v -0.18615 0.02965 0.06773
v -0.18995 0.01831 0.20894
v -0.19260 0.01590 0.26360
v -0.16143 0.06993 -0.22146
v -0.21863 0.06661 -0.16193
v -0.23200 0.05600 -0.07550
v -0.23200 0.05600 0.07450
v -0.19068 0.06825 0.19070
v -0.18400 0.28100 -0.25300
v -0.24400 0.27950 -0.17700
v -0.20400 0.28050 0.22700
v -0.18394 0.31421 -0.25253
v -0.24229 0.31564 -0.17571
v -0.20100 0.31458 0.22967
v -0.10425 -0.31625 -0.31863
v -0.09804 -0.31307 -0.29946
v -0.09916 -0.31338 0.30244
v -0.10500 -0.22500 -0.32000
v -0.08724 -0.24429 -0.26679
v -0.03864 -0.19886 -0.09679
v -0.06170 -0.20551 -0.02367
v -0.04915 -0.20280 0.06304
v -0.08547 -0.23262 0.26071
v -0.09089 -0.25089 0.27717
v -0.10400 -0.09350 -0.31800
v -0.07123 -0.12510 -0.24907
v -0.07068 -0.08370 -0.12979
v -0.10224 -0.07713 -0.03078
v -0.07588 -0.07907 0.09642
v -0.07280 -0.11349 0.20937
v -0.09318 -0.09577 0.28427
v -0.08302 0.02195 -0.27326
v -0.08533 0.01051 -0.14310
v -0.09895 -0.02600 -0.02785
v -0.09293 -0.00707 0.10716
v -0.06612 0.03076 0.18556
v -0.09462 0.01518 0.28894
v -0.08572 0.07026 -0.26156
v -0.08428 0.06928 0.25661
v -0.09067 0.07433 0.27650
v -0.09750 0.28100 -0.29750
v -0.09750 0.28100 0.29750
v -0.09765 0.31426 -0.29871
v -0.09700 0.31412 0.29606
v -0.00100 -0.31598 -0.32761
v 0.06908 -0.31133 -0.29900
v 0.03866 -0.31298 0.30907
v -0.00100 -0.22500 -0.33600
v 0.04254 -0.24553 -0.27386
v 0.02341 -0.19905 -0.09941
v 0.04251 -0.20830 -0.02815
v 0.03548 -0.20354 0.06595
v 0.08417 -0.23550 0.26078
v 0.02510 -0.24574 0.27975
v -0.00100 -0.07483 -0.32733
v 0.03787 -0.12989 -0.25831
v 0.03854 -0.08077 -0.13269
v 0.08571 -0.07440 -0.05610
v 0.05293 -0.07699 0.10032
v 0.04513 -0.11047 0.21054
v 0.01496 -0.12736 0.27824
v -0.00100 0.01775 -0.32162
v 0.05148 0.02067 -0.28212
v 0.04172 0.00306 -0.14909
v 0.08664 -0.03459 -0.05027
v 0.06512 -0.01559 0.10682
v 0.03043 0.02295 0.18397
v 0.04623 0.01457 0.29724
v 0.04158 0.07000 -0.26704
v 0.07127 0.06805 0.25559
v 0.01648 0.07127 0.27497
v -0.00100 0.28250 -0.32500
v 0.06367 0.28050 -0.29833
v 0.04750 0.28100 0.30475
v -0.00100 0.31250 -0.32325
v 0.06792 0.31471 -0.29908
v 0.04450 0.31436 0.30386
v 0.10275 -0.31625 -0.31862
v 0.18145 -0.31392 -0.26145
v 0.18268 -0.31173 0.25214
v 0.15476 -0.31707 0.28876
v 0.10300 -0.22500 -0.32000
v 0.16586 -0.24328 -0.22964
v 0.10361 -0.19817 -0.00028
v 0.16394 -0.24550 0.22651
v 0.15000 -0.22500 0.29500
v 0.10300 -0.09350 -0.31800
v 0.15898 -0.13063 -0.22623
v 0.14616 -0.09999 -0.13797
v 0.13794 -0.08294 -0.02384
v 0.15248 -0.08930 0.07701
v 0.14817 -0.12051 0.19692
v 0.14775 -0.07925 0.29125
v 0.17533 0.01689 -0.24488
v 0.15163 0.02913 -0.12659
v 0.16120 0.00982 -0.02970
v 0.16446 0.02124 0.07900
v 0.15806 0.02739 0.21694
v 0.19100 0.01590 0.26360
v 0.15996 0.06969 -0.22148
v 0.21340 0.06230 -0.15600
v 0.16693 0.06867 0.21131
v 0.18300 0.28100 -0.25300
v 0.18300 0.28100 0.25250
v 0.18259 0.31421 -0.25259
v 0.18294 0.31439 0.25256
v 0.28025 -0.31359 -0.14172
v 0.31393 -0.31328 0.00000
v 0.30206 -0.31356 0.09818
v 0.25683 -0.31356 0.18689
v 0.24893 -0.24325 -0.12744
v 0.27888 -0.24150 0.00000
v 0.26873 -0.24431 0.08714
v 0.22873 -0.24439 0.16646
v 0.24395 -0.13417 -0.13386
v 0.26051 -0.12820 -0.03024
v 0.25354 -0.12727 0.07895
v 0.22626 -0.13397 0.16455
v 0.26703 0.01584 -0.13894
v 0.29000 0.02179 -0.01009
v 0.27868 0.02269 0.08775
v 0.24663 0.01556 0.17946
v 0.23679 0.07295 -0.14269
v 0.26511 0.06898 -0.03375
v 0.25827 0.06954 0.08392
v 0.22370 0.07225 0.16275
v 0.27425 0.28100 -0.14050
v 0.31200 0.28100 0.00000
v 0.29650 0.28100 0.09600
v 0.25200 0.28100 0.18350
v 0.27379 0.31426 -0.14044
v 0.31006 0.31426 0.00000
v 0.29453 0.31426 0.09565
v 0.25128 0.31433 0.18289
v 0.33450 -0.31533 0.00000
v 0.33500 -0.22500 0.00000
v 0.33400 -0.09350 0.00000
usemtl m002
f 46 47 53
f 53 47 81
f 53 81 84
f 45 46 18
f 52 19 18
f 52 18 46
f 19 52 46
f 19 46 53
f 51 18 50
f 51 50 44
f 45 51 44
f 18 51 45
f 49 83 77
f 44 49 77
f 49 44 50
f 114 108 77
f 114 77 83
f 145 146 140
f 145 140 139
f 145 139 114
f 109 108 114
f 109 114 139
f 169 165 140
f 169 140 146
f 170 147 142
f 166 170 142
f 170 166 169
f 141 165 169
f 141 169 166
f 142 141 166
f 112 143 115
f 147 115 143
f 142 147 143
f 111 142 112
f 115 84 81
f 112 115 81
f 47 46 80
f 44 77 78
f 109 139 140
f 142 143 112
f 50 44 78
f 115 116 84
f 53 84 85
f 147 116 115
f 116 85 84
f 15 47 16
f 43 44 13
f 77 107 108
f 53 85 82
f 53 82 47
f 19 53 47
f 19 47 15
f 18 19 15
f 18 15 14
f 17 18 14
f 17 14 13
f 50 17 13
f 50 13 44
f 49 44 43
f 83 49 43
f 83 43 77
f 145 114 108
f 145 108 139
f 168 145 139
f 168 139 164
f 169 168 164
f 169 164 165
f 170 169 165
f 170 165 166
f 171 170 166
f 171 166 167
f 147 171 167
f 147 167 143
f 116 147 143
f 116 143 113
f 85 116 113
f 85 113 82
f 17 50 18
f 47 82 48
f 16 47 48
f 143 167 144
f 113 143 144
f 145 168 146
f 168 169 146
f 170 171 147
f 78 45 44
f 112 81 80
f 56 53 85
f 56 85 87
f 53 56 20
f 47 53 20
f 47 20 16
f 19 15 16
f 19 16 20
f 23 19 20
f 23 20 56
f 19 23 22
f 19 22 18
f 21 17 18
f 21 18 22
f 17 21 55
f 49 43 13
f 49 13 17
f 54 49 17
f 54 17 55
f 49 54 86
f 49 86 83
f 114 107 77
f 118 114 83
f 118 83 86
f 107 114 108
f 148 145 114
f 148 114 118
f 145 148 172
f 145 172 168
f 168 172 173
f 168 173 169
f 174 170 169
f 174 169 173
f 170 174 175
f 170 175 171
f 149 147 171
f 149 171 175
f 147 149 119
f 147 119 116
f 116 119 87
f 116 87 85
f 27 59 28
f 57 58 25
f 120 121 88
f 56 59 89
f 56 89 87
f 59 56 24
f 59 24 28
f 23 27 28
f 23 28 24
f 27 23 22
f 27 22 26
f 21 25 26
f 21 26 22
f 54 57 25
f 54 25 21
f 57 54 86
f 57 86 88
f 117 120 88
f 117 88 86
f 120 117 118
f 120 118 121
f 148 150 121
f 148 121 118
f 150 148 172
f 150 172 176
f 176 172 173
f 176 173 177
f 174 178 177
f 174 177 173
f 178 174 175
f 178 175 179
f 149 151 179
f 149 179 175
f 151 149 119
f 151 119 122
f 122 119 87
f 122 87 89
f 59 27 23
f 59 23 56
f 25 58 55
f 25 55 21
f 58 57 54
f 58 54 55
f 88 121 118
f 88 118 86
f 39 40 10
f 40 11 10
f 11 40 41
f 39 10 38
f 38 37 71
f 102 101 133
f 162 137 136
f 135 161 162
f 136 135 162
f 104 136 105
f 41 40 74
f 38 71 72
f 102 133 134
f 136 137 105
f 105 106 75
f 9 38 10
f 133 160 134
f 160 161 134
f 162 163 137
f 72 39 38
f 105 75 74
f 3 31 4
f 29 30 1
f 90 91 61
f 29 60 61
f 90 61 60
f 90 123 124
f 36 32 62
f 36 62 69
f 32 36 8
f 32 8 4
f 7 3 4
f 7 4 8
f 3 7 6
f 3 6 2
f 5 1 2
f 5 2 6
f 33 29 1
f 33 1 5
f 29 33 63
f 29 63 60
f 93 90 60
f 93 60 63
f 90 93 127
f 90 127 123
f 128 124 123
f 128 123 127
f 124 128 156
f 124 156 152
f 152 156 181
f 152 181 180
f 158 154 180
f 158 180 181
f 154 158 159
f 154 159 155
f 131 126 155
f 131 155 159
f 99 92 126
f 99 126 131
f 92 99 69
f 92 69 62
f 69 35 68
f 130 99 98
f 99 69 68
f 68 35 41
f 68 41 75
f 7 6 10
f 7 10 11
f 35 7 11
f 35 11 41
f 5 34 38
f 5 38 9
f 6 5 9
f 6 9 10
f 33 64 71
f 33 71 37
f 34 33 37
f 34 37 38
f 64 94 101
f 64 101 71
f 128 156 160
f 128 160 133
f 94 128 133
f 94 133 101
f 156 157 161
f 156 161 160
f 158 159 163
f 158 163 162
f 157 158 162
f 157 162 161
f 130 98 105
f 130 105 137
f 159 130 137
f 159 137 163
f 99 68 75
f 99 75 106
f 98 99 106
f 98 106 105
f 76 41 75
f 137 106 105
f 106 76 75
f 35 69 62
f 35 62 31
f 7 35 31
f 7 31 3
f 34 5 1
f 34 1 30
f 33 34 30
f 33 30 29
f 64 33 29
f 64 29 61
f 94 64 61
f 94 61 91
f 128 94 91
f 128 91 124
f 157 156 152
f 157 152 153
f 158 157 153
f 158 153 154
f 130 159 155
f 130 155 125
f 99 130 125
f 99 125 92
f 32 4 31
f 62 32 31
f 91 90 124
f 126 92 125
f 155 126 125
f 152 180 153
f 180 154 153
f 39 72 73
f 102 134 135
f 105 74 104
f 73 74 40
f 73 40 39
f 103 102 135
f 135 136 104
f 103 135 104
f 74 73 79
f 74 79 80
f 73 72 78
f 73 78 79
f 72 102 109
f 72 109 78
f 102 103 110
f 102 110 109
f 103 104 111
f 103 111 110
f 104 74 80
f 104 80 111
f 36 69 76
f 36 76 42
f 8 36 42
f 8 42 12
f 7 8 12
f 7 12 11
f 6 7 11
f 6 11 10
f 5 6 10
f 5 10 9
f 33 5 9
f 33 9 37
f 63 33 37
f 63 37 70
f 93 63 70
f 93 70 100
f 127 93 100
f 127 100 132
f 128 127 132
f 128 132 133
f 156 128 133
f 156 133 160
f 181 156 160
f 181 160 182
f 158 181 182
f 158 182 162
f 159 158 162
f 159 162 163
f 131 159 163
f 131 163 138
f 99 131 138
f 99 138 106
f 69 99 106
f 69 106 76
f 42 76 41
f 12 42 41
f 37 71 70
f 100 133 132
f 71 100 70
f 133 100 101
f 160 161 182
f 161 162 182
f 138 163 137
f 138 137 106
f 11 12 41
f 37 9 38
f 71 101 100
f 41 76 82
f 41 82 47
f 11 41 47
f 11 47 15
f 10 11 15
f 10 15 14
f 9 10 14
f 9 14 13
f 38 9 13
f 38 13 44
f 37 38 44
f 37 44 43
f 71 37 43
f 71 43 77
f 101 71 77
f 101 77 108
f 133 101 108
f 133 108 139
f 160 133 139
f 160 139 164
f 161 160 164
f 161 164 165
f 162 161 165
f 162 165 166
f 163 162 166
f 163 166 167
f 137 163 167
f 137 167 143
f 106 137 143
f 106 143 113
f 76 106 113
f 76 113 82
f 73 66 67
f 67 74 73
f 74 67 97
f 97 104 74
f 129 135 104
f 104 97 129
f 135 129 96
f 96 103 135
f 103 96 95
f 95 102 103
f 65 72 102
f 102 95 65
f 66 73 72
f 72 65 66
f 66 65 95
f 95 96 66
f 66 96 67
f 97 67 96
f 97 96 129
f 73 74 80
f 80 79 73
f 74 104 111
f 111 80 74
f 104 135 141
f 141 111 104
f 135 103 110
f 110 141 135
f 103 102 109
f 109 110 103
f 102 72 78
f 78 109 102
f 72 73 79
f 79 78 72
f 103 134 135
v -0.47685 -0.28686 -0.21392
v -0.49593 -0.28871 -0.13503
v -0.50795 -0.28944 -0.04599
v -0.50959 -0.28921 0.04637
v -0.49486 -0.28890 0.13360
v -0.47640 -0.28683 0.21437
v -0.46522 -0.19986 -0.28325
v -0.48686 -0.21771 -0.22479
v -0.51156 -0.21730 -0.13773
v -0.52760 -0.21821 -0.04755
v -0.52850 -0.21825 0.04361
v -0.51082 -0.21847 0.13600
v -0.48807 -0.21604 0.22355
v -0.46495 -0.20660 0.28126
v -0.46605 -0.14701 -0.28322
v -0.48855 -0.13378 -0.22551
v -0.51409 -0.13365 -0.13832
v -0.52971 -0.13257 -0.04823
v -0.53085 -0.13294 0.04306
v -0.51337 -0.13275 0.13577
v -0.48980 -0.13515 0.22414
v -0.46519 -0.14185 0.28294
v -0.47946 -0.06642 -0.22142
v -0.50037 -0.06132 -0.13604
v -0.51400 -0.05976 -0.04741
v -0.51548 -0.06029 0.04521
v -0.50123 -0.06106 0.13278
v -0.47988 -0.06597 0.21886
v -0.47797 0.05856 -0.21617
v -0.49754 0.05560 -0.13505
v -0.51066 0.05488 -0.04628
v -0.51244 0.05534 0.04549
v -0.49741 0.05602 0.13353
v -0.47760 0.05808 0.21605
v -0.46592 0.14593 -0.28316
v -0.48798 0.13016 -0.22546
v -0.51338 0.13049 -0.13830
v -0.52921 0.12946 -0.04820
v -0.53032 0.12988 0.04338
v -0.51279 0.12962 0.13584
v -0.48911 0.13166 0.22422
v -0.46507 0.14020 0.28261
v -0.46552 0.20145 -0.28332
v -0.48779 0.21605 -0.22525
v -0.51310 0.21540 -0.13796
v -0.52889 0.21637 -0.04776
v -0.52986 0.21628 0.04357
v -0.51227 0.21648 0.13607
v -0.48887 0.21480 0.22408
v -0.46506 0.20783 0.28190
v -0.47707 0.28277 -0.21904
v -0.49738 0.28585 -0.13602
v -0.51026 0.28730 -0.04752
v -0.51195 0.28665 0.04501
v -0.49826 0.28595 0.13185
v -0.47792 0.28309 0.21634
v -0.40633 -0.28846 -0.31730
v -0.43852 -0.29127 -0.24322
v -0.45655 -0.29450 -0.16982
v -0.45727 -0.29450 0.16745
v -0.44003 -0.29147 0.23729
v -0.40986 -0.28835 0.31164
v -0.37325 -0.28600 0.36625
v -0.38694 -0.21378 -0.37973
v -0.42159 -0.21899 -0.32107
v -0.44474 -0.21960 -0.24407
v -0.44555 -0.22036 0.24190
v -0.42221 -0.21875 0.31925
v -0.38704 -0.21682 0.37844
v -0.38839 -0.13749 -0.38098
v -0.42302 -0.13242 -0.32212
v -0.44519 -0.12682 -0.24589
v -0.44654 -0.12800 0.24313
v -0.42312 -0.13295 0.32116
v -0.38863 -0.13498 0.37977
v -0.37976 -0.07926 -0.37486
v -0.41216 -0.06173 -0.31829
v -0.43658 -0.04920 -0.24059
v -0.43236 -0.02638 -0.15060
v -0.41083 -0.01433 -0.04733
v -0.41069 -0.01406 0.04162
v -0.43404 -0.02683 0.14987
v -0.43758 -0.04907 0.23531
v -0.41415 -0.06103 0.31436
v -0.38010 -0.07373 0.37133
v -0.37840 0.07350 -0.37220
v -0.40864 0.05589 -0.31784
v -0.43899 0.05094 -0.24295
v -0.45655 0.04432 -0.16982
v -0.45727 0.04432 0.16745
v -0.44061 0.05144 0.23710
v -0.41162 0.05555 0.31262
v -0.37600 0.06150 0.36814
v -0.38765 0.13361 -0.38066
v -0.42284 0.12907 -0.32165
v -0.44510 0.12662 -0.24489
v -0.44614 0.12736 0.24272
v -0.42312 0.12956 0.32052
v -0.38808 0.13105 0.37917
v -0.38761 0.21336 -0.38021
v -0.42248 0.21681 -0.32159
v -0.44508 0.21825 -0.24463
v -0.44589 0.21834 0.24273
v -0.42297 0.21672 0.32014
v -0.38761 0.21594 0.37915
v -0.37656 0.27561 -0.37122
v -0.40901 0.28536 -0.31786
v -0.43580 0.29330 -0.24112
v -0.43236 0.31186 -0.15060
v -0.41083 0.32417 -0.04733
v -0.41069 0.32444 0.04162
v -0.43404 0.31137 0.14987
v -0.43711 0.29363 0.23489
v -0.41075 0.28593 0.31388
v -0.37637 0.28056 0.36844
v -0.32399 -0.28827 -0.40082
v -0.34646 -0.29400 -0.34229
v -0.34839 -0.29459 0.33922
v -0.31937 -0.28858 0.40311
v -0.28589 -0.20739 -0.46211
v -0.32704 -0.21881 -0.41694
v -0.36066 -0.22511 -0.35502
v -0.36249 -0.21950 0.35392
v -0.32841 -0.21891 0.41471
v -0.28960 -0.20637 0.45931
v -0.28692 -0.13963 -0.46274
v -0.32861 -0.13259 -0.41784
v -0.36186 -0.11867 -0.35628
v -0.36353 -0.12559 0.35553
v -0.33035 -0.13275 0.41566
v -0.29059 -0.14336 0.46033
v -0.28050 -0.09150 -0.45900
v -0.32288 -0.06203 -0.40845
v -0.34123 -0.03984 -0.33720
v -0.32793 -0.01423 -0.23180
v -0.32271 -0.01998 -0.12048
v -0.33333 -0.02450 -0.05417
v -0.32722 -0.02189 0.01683
v -0.31843 -0.02079 0.11890
v -0.32529 -0.01443 0.22850
v -0.34212 -0.03945 0.33228
v -0.32227 -0.06161 0.40747
v -0.28450 -0.09250 0.45525
v -0.32331 0.05644 -0.40416
v -0.34814 0.04971 -0.34303
v -0.35000 0.04857 0.33978
v -0.31973 0.05591 0.40539
v -0.28655 0.13805 -0.46250
v -0.32807 0.12947 -0.41788
v -0.36171 0.12182 -0.35613
v -0.36306 0.12550 0.35521
v -0.32987 0.12942 0.41554
v -0.29009 0.14034 0.45993
v -0.28625 0.20915 -0.46227
v -0.32793 0.21666 -0.41761
v -0.36128 0.22400 -0.35619
v -0.36306 0.21762 0.35521
v -0.32949 0.21650 0.41549
v -0.28994 0.20777 0.45959
v -0.32204 0.28513 -0.40544
v -0.34038 0.30088 -0.33643
v -0.32793 0.32443 -0.23180
v -0.33818 0.32050 -0.13991
v -0.33333 0.31450 -0.05417
v -0.34029 0.31579 0.04329
v -0.33000 0.31895 0.13709
v -0.32529 0.32429 0.22850
v -0.34077 0.30270 0.33085
v -0.32069 0.28511 0.40511
v -0.22165 -0.28678 -0.47309
v -0.24703 -0.29161 -0.43502
v -0.24496 -0.29212 0.43275
v -0.22507 -0.28680 0.47084
v -0.22988 -0.21752 -0.48397
v -0.24968 -0.22015 -0.44180
v -0.25340 -0.22097 0.43804
v -0.23101 -0.21676 0.48203
v -0.23022 -0.13367 -0.48589
v -0.25080 -0.12723 -0.44241
v -0.25568 -0.12642 0.43894
v -0.23055 -0.13383 0.48425
v -0.22554 -0.06556 -0.47675
v -0.24523 -0.04825 -0.43277
v -0.23686 -0.01443 -0.32000
v -0.23243 -0.02355 -0.22814
v -0.25400 -0.02250 -0.17325
v -0.27600 -0.01550 -0.09000
v -0.27600 -0.01550 0.08900
v -0.24967 -0.02017 0.17300
v -0.23092 -0.02321 0.22758
v -0.23362 -0.01412 0.31931
v -0.24266 -0.04627 0.42823
v -0.23082 -0.06559 0.47393
v -0.22342 0.05831 -0.47483
v -0.24705 0.05097 -0.43592
v -0.24374 0.05012 0.43326
v -0.22834 0.05863 0.47193
v -0.23023 0.13039 -0.48518
v -0.25033 0.12706 -0.44207
v -0.25523 0.12620 0.43863
v -0.23089 0.13100 0.48355
v -0.23013 0.21604 -0.48486
v -0.25016 0.21793 -0.44197
v -0.25505 0.21959 0.43847
v -0.23067 0.21543 0.48315
v -0.22336 0.28319 -0.47520
v -0.24515 0.29374 -0.43229
v -0.23686 0.32429 -0.32000
v -0.24200 0.31517 -0.24000
v -0.26700 0.30950 -0.17100
v -0.26700 0.30950 0.17000
v -0.23729 0.31436 0.23843
v -0.23362 0.32465 0.31931
v -0.24230 0.29592 0.42742
v -0.22957 0.28285 0.47170
v -0.13923 -0.28880 -0.49346
v -0.17743 -0.29593 -0.45271
v -0.18575 -0.29550 0.44900
v -0.14272 -0.28923 0.49004
v -0.14191 -0.21765 -0.51023
v -0.14420 -0.21829 0.50833
v -0.14254 -0.13314 -0.51251
v -0.14347 -0.13292 0.51138
v -0.13977 -0.06149 -0.49878
v -0.15376 -0.02336 -0.42586
v -0.12535 -0.02105 -0.31805
v -0.17875 -0.01925 -0.25000
v -0.17575 -0.01925 0.25150
v -0.12256 -0.02100 0.31689
v -0.15232 -0.02055 0.41395
v -0.14499 -0.06040 0.49534
v -0.14047 0.05605 -0.49516
v -0.17743 0.04307 -0.45271
v -0.18575 0.04350 0.44900
v -0.14369 0.05556 0.49222
v -0.14210 0.13040 -0.51214
v -0.14386 0.13023 0.51051
v -0.14185 0.21578 -0.51174
v -0.14389 0.21612 0.50995
v -0.13999 0.28580 -0.49527
v -0.15376 0.31479 -0.42586
v -0.14564 0.31895 -0.32673
v -0.17700 0.30950 -0.26300
v -0.16500 0.30950 0.27000
v -0.14456 0.31928 0.32722
v -0.15232 0.31776 0.41395
v -0.14468 0.28624 0.49254
v -0.04943 -0.28940 -0.50682
v -0.05476 -0.28935 0.50674
v -0.05233 -0.21745 -0.52603
v -0.05396 -0.22070 0.52494
v -0.02106 -0.19229 0.54430
v -0.05284 -0.13350 -0.52851
v -0.05670 -0.12882 0.52597
v -0.02310 -0.15465 0.54457
v -0.05014 -0.05829 -0.51252
v -0.05100 -0.01413 -0.40625
v -0.05788 -0.02225 -0.32175
v -0.06925 -0.02225 0.31925
v -0.05642 -0.01433 0.40883
v -0.05324 -0.06032 0.51337
v -0.05050 0.05441 -0.50898
v -0.05373 0.05558 0.50986
v -0.05265 0.13053 -0.52788
v -0.05549 0.12643 0.52591
v -0.02263 0.15306 0.54456
v -0.05220 0.21581 -0.52743
v -0.05508 0.21914 0.52587
v -0.02198 0.19463 0.54438
v -0.04997 0.28833 -0.50927
v -0.05100 0.32444 -0.40625
v -0.04633 0.31450 -0.33467
v -0.06150 0.31450 0.33150
v -0.05642 0.32417 0.40883
v -0.05387 0.28712 0.50964
v 0.04134 -0.28946 -0.50846
v 0.03675 -0.28942 0.50829
v 0.03748 -0.21777 -0.52731
v 0.04122 -0.22131 0.52489
v 0.01637 -0.19230 0.54434
v 0.03700 -0.13324 -0.52998
v 0.04273 -0.12710 0.52542
v 0.01761 -0.15499 0.54463
v 0.03962 -0.05912 -0.51361
v 0.03725 -0.01433 -0.41208
v 0.01547 -0.02215 -0.32388
v 0.01006 -0.02215 0.32388
v 0.03739 -0.01433 0.41028
v 0.03802 -0.05934 0.51332
v 0.04057 0.05479 -0.51077
v 0.03769 0.05506 0.51090
v 0.03719 0.13027 -0.52921
v 0.04216 0.12557 0.52562
v 0.01735 0.15318 0.54460
v 0.03725 0.21599 -0.52881
v 0.04174 0.21986 0.52559
v 0.01693 0.19461 0.54446
v 0.04004 0.28769 -0.51031
v 0.03725 0.32417 -0.41208
v 0.04567 0.31450 -0.33467
v 0.03033 0.31450 0.33550
v 0.03739 0.32417 0.41028
v 0.03792 0.28735 0.50999
v 0.12803 -0.28922 -0.49369
v 0.17300 -0.29650 -0.45350
v 0.12859 -0.28920 0.49302
v 0.12963 -0.21867 -0.51252
v 0.12920 -0.21809 0.51281
v 0.12861 -0.13251 -0.51524
v 0.12842 -0.13316 0.51556
v 0.13041 -0.06054 -0.49989
v 0.12856 -0.01744 -0.41067
v 0.11505 -0.02105 -0.31265
v 0.16900 -0.01550 -0.23400
v 0.16650 -0.02250 0.25200
v 0.11262 -0.02079 0.31490
v 0.13692 -0.01627 0.40977
v 0.12859 -0.06017 0.49932
v 0.12930 0.05537 -0.49610
v 0.17300 0.04250 -0.45350
v 0.12947 0.05551 0.49567
v 0.12895 0.12959 -0.51461
v 0.12852 0.13023 0.51487
v 0.12899 0.21692 -0.51404
v 0.12850 0.21615 0.51441
v 0.12986 0.28699 -0.49630
v 0.12856 0.32089 -0.41067
v 0.13633 0.31772 -0.32444
v 0.16400 0.30950 0.27000
v 0.12910 0.31830 0.32890
v 0.13692 0.32212 0.40977
v 0.12881 0.28700 0.49568
v 0.21358 -0.28701 -0.47585
v 0.22932 -0.29250 -0.43672
v 0.22707 -0.29332 0.43418
v 0.21704 -0.28709 0.47303
v 0.21579 -0.21736 -0.48812
v 0.24224 -0.22127 -0.44403
v 0.24587 -0.22298 0.44113
v 0.21599 -0.21751 0.48597
v 0.21473 -0.13389 -0.49058
v 0.24428 -0.12753 -0.44532
v 0.24883 -0.12823 0.44233
v 0.21597 -0.13427 0.48828
v 0.21761 -0.06515 -0.47886
v 0.23042 -0.04608 -0.43362
v 0.22343 -0.01450 -0.32393
v 0.22437 -0.02288 -0.22971
v 0.24633 -0.02017 -0.17800
v 0.24000 -0.01550 0.17450
v 0.22416 -0.02278 0.22844
v 0.22654 -0.01465 0.31962
v 0.22538 -0.04378 0.42817
v 0.21779 -0.06344 0.47713
v 0.21644 0.05846 -0.47632
v 0.22989 0.05025 -0.43685
v 0.22827 0.04979 0.43448
v 0.21739 0.05796 0.47468
v 0.21551 0.13085 -0.48970
v 0.24400 0.12662 -0.44482
v 0.24805 0.12713 0.44216
v 0.21608 0.13084 0.48760
v 0.21533 0.21569 -0.48942
v 0.24365 0.21912 -0.44478
v 0.24778 0.21921 0.44200
v 0.21593 0.21566 0.48723
v 0.21617 0.28290 -0.47714
v 0.22920 0.29639 -0.43317
v 0.22343 0.32429 -0.32393
v 0.22517 0.31350 -0.24483
v 0.25900 0.30950 -0.18300
v 0.23017 0.31283 0.23600
v 0.22654 0.32412 0.31962
v 0.22442 0.29787 0.42730
v 0.21752 0.28420 0.47477
v 0.30920 -0.28866 -0.40976
v 0.33863 -0.29397 -0.34874
v 0.33968 -0.29429 0.34705
v 0.30838 -0.28858 0.40952
v 0.27773 -0.20921 -0.46574
v 0.31812 -0.21842 -0.41948
v 0.35320 -0.23850 -0.35800
v 0.35180 -0.24870 0.35580
v 0.31989 -0.21928 0.41673
v 0.28047 -0.21195 0.46287
v 0.27918 -0.13969 -0.46641
v 0.31980 -0.13171 -0.42021
v 0.35467 -0.10550 -0.35983
v 0.35000 -0.09850 0.36200
v 0.32163 -0.13093 0.41738
v 0.28203 -0.13826 0.46387
v 0.27283 -0.08783 -0.46083
v 0.31135 -0.05991 -0.41345
v 0.33011 -0.03645 -0.33878
v 0.31786 -0.01450 -0.23136
v 0.31222 -0.02161 -0.12178
v 0.31867 -0.02383 -0.06500
v 0.31619 -0.02206 0.01675
v 0.31063 -0.02203 0.12168
v 0.31438 -0.01465 0.23362
v 0.33006 -0.03518 0.33697
v 0.31050 -0.05987 0.41285
v 0.27700 -0.08792 0.45758
v 0.26900 0.07350 -0.45700
v 0.30971 0.05561 -0.41172
v 0.33967 0.04750 -0.34910
v 0.34076 0.04726 0.34738
v 0.30945 0.05588 0.41127
v 0.27200 0.07350 0.45450
v 0.27875 0.13685 -0.46605
v 0.31936 0.12940 -0.42023
v 0.35413 0.10687 -0.35938
v 0.35233 0.10150 0.35933
v 0.32129 0.12885 0.41730
v 0.28136 0.13459 0.46345
v 0.27815 0.21010 -0.46608
v 0.31909 0.21647 -0.41994
v 0.35413 0.23650 -0.35938
v 0.35200 0.24183 0.35933
v 0.32091 0.21751 0.41694
v 0.28122 0.21252 0.46313
v 0.26900 0.26950 -0.45700
v 0.30982 0.28634 -0.41141
v 0.32883 0.30510 -0.33769
v 0.31786 0.32429 -0.23136
v 0.32056 0.31772 -0.14456
v 0.32760 0.31350 -0.06000
v 0.32300 0.31200 0.04475
v 0.31670 0.31690 0.14220
v 0.31438 0.32412 0.23362
v 0.32927 0.30495 0.33645
v 0.30790 0.28654 0.41185
v 0.27200 0.26950 0.45450
v 0.36650 -0.28638 -0.37169
v 0.40439 -0.28858 -0.31498
v 0.42788 -0.29365 -0.23795
v 0.42745 -0.29358 0.23700
v 0.40482 -0.28854 0.31426
v 0.36532 -0.28655 0.37250
v 0.37823 -0.21592 -0.38623
v 0.41158 -0.21834 -0.32785
v 0.43565 -0.22035 -0.25662
v 0.43705 -0.22165 0.25332
v 0.41049 -0.21861 0.32637
v 0.37924 -0.21441 0.38506
v 0.37962 -0.13724 -0.38809
v 0.41250 -0.13172 -0.32923
v 0.43634 -0.12521 -0.25892
v 0.43824 -0.12452 0.25495
v 0.41178 -0.13133 0.32734
v 0.38033 -0.13701 0.38683
v 0.36988 -0.06852 -0.37761
v 0.40749 -0.05990 -0.31880
v 0.42480 -0.04490 -0.23866
v 0.39800 -0.01450 -0.13440
v 0.40258 -0.01450 -0.04683
v 0.39688 -0.01438 0.04288
v 0.40307 -0.01550 0.13686
v 0.42156 -0.04290 0.23409
v 0.40715 -0.05889 0.31731
v 0.37106 -0.06870 0.37667
v 0.36876 0.06195 -0.37438
v 0.40548 0.05553 -0.31649
v 0.42822 0.04883 -0.23902
v 0.42800 0.04907 0.23795
v 0.40543 0.05531 0.31613
v 0.36739 0.05947 0.37403
v 0.37924 0.13338 -0.38741
v 0.41246 0.12928 -0.32885
v 0.43620 0.12511 -0.25805
v 0.43781 0.12485 0.25477
v 0.41166 0.12903 0.32707
v 0.38005 0.13318 0.38609
v 0.37887 0.21343 -0.38734
v 0.41217 0.21668 -0.32865
v 0.43619 0.21964 -0.25780
v 0.43771 0.22012 0.25462
v 0.41118 0.21707 0.32694
v 0.37979 0.21285 0.38600
v 0.36776 0.28176 -0.37435
v 0.40572 0.28647 -0.31682
v 0.42375 0.29836 -0.23744
v 0.39800 0.32390 -0.13440
v 0.40258 0.32408 -0.04683
v 0.39688 0.32426 0.04288
v 0.40307 0.32286 0.13686
v 0.42075 0.29925 0.23247
v 0.40577 0.28717 0.31522
v 0.36809 0.28156 0.37468
v 0.46815 -0.28716 -0.22545
v 0.48913 -0.28955 -0.13939
v 0.50700 -0.28927 -0.04727
v 0.50750 -0.28930 0.04526
v 0.49027 -0.28924 0.13678
v 0.46731 -0.28771 0.22396
v 0.45709 -0.21335 -0.29000
v 0.48092 -0.21781 -0.22702
v 0.50949 -0.21757 -0.13966
v 0.52015 -0.22470 -0.05094
v 0.51900 -0.22450 0.05052
v 0.51059 -0.21770 0.13626
v 0.48251 -0.21734 0.22328
v 0.45748 -0.21461 0.28811
v 0.45771 -0.13743 -0.29202
v 0.48269 -0.13413 -0.22836
v 0.51170 -0.13342 -0.14009
v 0.51896 -0.12315 -0.05214
v 0.51749 -0.12381 0.05255
v 0.51266 -0.13311 0.13727
v 0.48422 -0.13413 0.22511
v 0.45820 -0.13685 0.29053
v 0.45456 -0.08939 -0.28311
v 0.47259 -0.06459 -0.22652
v 0.49595 -0.05971 -0.13900
v 0.51268 -0.05936 -0.04765
v 0.51147 -0.05781 0.04333
v 0.49718 -0.05985 0.13463
v 0.47338 -0.06325 0.22126
v 0.45295 -0.08229 0.28074
v 0.44800 0.07350 -0.28200
v 0.46988 0.05827 -0.22513
v 0.49235 0.05513 -0.13870
v 0.50938 0.05508 -0.04757
v 0.51013 0.05523 0.04480
v 0.49329 0.05531 0.13612
v 0.46978 0.05775 0.22287
v 0.45033 0.07350 0.27800
v 0.45746 0.13328 -0.29107
v 0.48238 0.13135 -0.22779
v 0.51120 0.13069 -0.13992
v 0.52012 0.12121 -0.05120
v 0.51861 0.12238 0.05170
v 0.51220 0.13044 0.13676
v 0.48385 0.13140 0.22423
v 0.45786 0.13214 0.28942
v 0.45734 0.21373 -0.29069
v 0.48182 0.21567 -0.22789
v 0.51062 0.21576 -0.14007
v 0.52031 0.22348 -0.05132
v 0.51883 0.22235 0.05150
v 0.51178 0.21592 0.13658
v 0.48336 0.21535 0.22420
v 0.45774 0.21425 0.28912
v 0.44800 0.26950 -0.28200
v 0.47025 0.28284 -0.22594
v 0.49239 0.28729 -0.13891
v 0.50903 0.28793 -0.04831
v 0.50866 0.28805 0.04300
v 0.49357 0.28713 0.13493
v 0.47089 0.28407 0.22165
v 0.44933 0.27650 0.27517
v 0.54153 -0.20073 -0.03603
v 0.54176 -0.19914 0.03560
v 0.54207 -0.14658 -0.03847
v 0.54223 -0.14786 0.03805
v 0.54194 0.14545 -0.03769
v 0.54210 0.14646 0.03761
v 0.54178 0.20247 -0.03688
v 0.54201 0.20097 0.03626
usemtl m007
f 200 192 193
f 200 193 201
f 186 193 192
f 186 192 185
f 200 201 208
f 200 208 207
f 201 193 194
f 201 194 202
f 187 194 193
f 187 193 186
f 201 202 209
f 201 209 208
f 202 194 195
f 202 195 203
f 188 195 194
f 188 194 187
f 188 242 243
f 187 242 188
f 194 242 187
f 188 243 195
f 202 203 210
f 202 210 209
f 210 209 264
f 210 265 264
f 195 249 203
f 195 249 243
f 188 243 249
f 188 249 195
f 203 194 195
f 210 203 255
f 210 255 265
f 203 210 265
f 203 265 255
f 203 195 196
f 203 196 204
f 244 250 249
f 244 249 243
f 250 196 195
f 249 250 195
f 196 249 250
f 195 249 196
f 203 255 249
f 196 249 255
f 196 255 204
f 195 249 255
f 195 255 203
f 210 265 266
f 204 256 266
f 203 204 266
f 203 266 210
f 204 256 255
f 203 204 255
f 266 256 255
f 266 255 265
f 204 196 250
f 204 250 256
f 204 255 249
f 204 249 196
f 250 249 243
f 250 243 244
f 256 266 265
f 256 265 255
f 244 300 305
f 244 305 250
f 256 257 267
f 256 267 266
f 267 257 266
f 266 257 256
f 301 306 251
f 256 250 251
f 256 251 257
f 245 251 250
f 245 250 244
f 251 245 301
f 251 305 306
f 257 311 305
f 257 305 251
f 251 306 312
f 251 312 257
f 251 305 300
f 251 300 301
f 251 250 305
f 251 305 256
f 245 300 301
f 244 300 245
f 250 305 300
f 250 300 244
f 301 300 305
f 301 305 251
f 256 311 257
f 257 324 267
f 257 312 324
f 257 312 311
f 267 324 323
f 257 267 323
f 257 323 311
f 267 257 311
f 267 311 323
f 266 267 323
f 257 323 256
f 257 251 306
f 257 306 312
f 312 306 307
f 312 307 313
f 306 301 354
f 306 358 307
f 354 358 306
f 312 313 325
f 312 325 324
f 312 313 362
f 325 313 362
f 325 362 374
f 324 325 374
f 313 359 363
f 355 359 306
f 355 306 354
f 359 307 306
f 363 362 358
f 363 358 359
f 359 358 362
f 359 362 363
f 359 358 354
f 359 354 355
f 355 354 358
f 355 358 359
f 307 358 359
f 313 312 306
f 313 306 307
f 307 358 362
f 307 362 313
f 362 363 313
f 324 375 374
f 313 363 375
f 313 375 325
f 325 375 324
f 375 363 362
f 375 362 374
f 363 375 374
f 363 374 362
f 313 325 374
f 313 374 362
f 355 400 401
f 355 354 400
f 355 401 403
f 355 403 359
f 375 413 412
f 375 363 405
f 375 405 413
f 375 412 374
f 363 359 403
f 363 403 405
f 401 403 359
f 359 403 405
f 359 405 363
f 363 405 413
f 363 413 375
f 401 431 403
f 431 433 403
f 403 433 436
f 403 436 405
f 405 436 443
f 405 443 413
f 436 433 434
f 436 434 437
f 433 431 459
f 434 461 462
f 461 434 433
f 437 434 462
f 437 462 465
f 459 461 433
f 465 464 461
f 465 461 462
f 462 461 464
f 462 464 465
f 462 461 433
f 462 433 434
f 437 436 433
f 437 433 434
f 464 437 465
f 437 464 436
f 436 464 471
f 436 471 443
f 465 437 436
f 465 436 464
f 461 459 488
f 464 492 500
f 464 500 471
f 464 461 490
f 464 490 492
f 490 461 488
f 492 500 471
f 492 471 464
f 490 488 518
f 492 526 536
f 492 536 500
f 492 490 522
f 492 522 526
f 522 517 518
f 518 517 521
f 518 521 522
f 518 488 517
f 522 490 488
f 522 488 518
f 536 535 500
f 526 536 500
f 526 500 492
f 522 521 567
f 522 521 525
f 522 525 526
f 522 521 517
f 526 573 536
f 526 573 525
f 536 573 525
f 536 525 535
f 526 536 535
f 526 535 525
f 536 526 525
f 526 522 567
f 526 567 573
f 561 567 522
f 567 561 566
f 522 517 561
f 567 566 521
f 573 525 521
f 573 521 567
f 567 566 572
f 567 572 573
f 566 521 561
f 526 525 521
f 526 521 522
f 567 521 525
f 567 525 573
f 561 517 521
f 573 572 584
f 573 584 585
f 536 585 584
f 573 525 572
f 585 573 572
f 585 572 584
f 536 584 535
f 585 536 535
f 573 585 535
f 573 535 525
f 573 567 566
f 573 566 572
f 572 566 627
f 572 627 633
f 566 561 621
f 566 621 627
f 627 566 626
f 633 572 566
f 633 566 627
f 627 565 626
f 627 565 566
f 627 566 560
f 627 560 621
f 621 560 565
f 621 565 627
f 621 560 566
f 561 560 621
f 572 633 584
f 633 643 584
f 633 632 572
f 643 633 632
f 643 632 583
f 633 572 571
f 633 571 632
f 643 583 584
f 643 633 572
f 643 572 584
f 633 627 626
f 633 626 632
f 620 627 621
f 627 620 626
f 627 626 632
f 627 632 633
f 621 560 620
f 627 565 560
f 633 632 642
f 633 642 643
f 643 642 583
f 677 684 685
f 632 626 685
f 632 685 693
f 626 620 685
f 685 619 677
f 685 625 684
f 685 625 626
f 693 632 626
f 693 626 685
f 685 625 631
f 685 631 693
f 685 625 619
f 677 619 625
f 677 625 684
f 626 619 620
f 620 619 625
f 620 625 685
f 700 641 701
f 693 692 700
f 693 700 701
f 632 693 701
f 632 701 642
f 693 692 631
f 693 632 631
f 700 692 631
f 700 631 641
f 693 701 641
f 693 641 631
f 701 693 631
f 701 631 641
f 642 701 641
f 693 685 684
f 693 684 692
f 684 625 619
f 684 619 677
f 693 631 625
f 693 625 685
f 692 700 641
f 692 641 631
f 676 684 677
f 684 676 683
f 684 683 691
f 684 691 692
f 692 691 699
f 692 699 700
f 692 684 683
f 692 683 691
f 675 683 676
f 683 675 682
f 691 690 698
f 691 698 699
f 690 737 691
f 690 682 737
f 691 683 682
f 691 682 690
f 737 682 735
f 735 682 690
f 735 690 737
f 674 681 682
f 674 682 675
f 734 682 681
f 735 682 734
f 690 689 736
f 690 736 737
f 690 689 697
f 690 697 698
f 736 689 681
f 736 681 734
f 734 681 689
f 734 689 736
f 680 681 734
f 689 681 680
f 689 680 688
f 673 680 681
f 673 681 674
f 736 689 688
f 689 688 696
f 689 696 697
f 688 680 679
f 688 679 687
f 672 679 680
f 672 680 673
f 688 687 695
f 688 695 696
f 679 618 672
f 672 618 624
f 672 624 679
f 687 688 680
f 687 680 679
f 695 687 636
f 687 679 678
f 687 678 686
f 617 679 672
f 672 618 617
f 679 617 678
f 679 624 678
f 678 624 630
f 678 630 686
f 679 624 618
f 617 618 624
f 617 624 678
f 687 686 694
f 687 694 695
f 636 695 635
f 635 695 694
f 687 686 630
f 694 686 630
f 694 630 636
f 687 636 630
f 635 694 636
f 695 687 630
f 695 630 636
f 686 678 623
f 686 623 629
f 678 624 623
f 686 630 624
f 686 624 678
f 678 623 629
f 678 629 686
f 623 624 618
f 623 618 617
f 635 686 629
f 686 635 694
f 686 629 630
f 686 694 636
f 686 636 630
f 617 559 623
f 558 622 616
f 629 623 622
f 629 622 628
f 616 622 623
f 616 623 617
f 622 564 563
f 622 563 623
f 622 623 564
f 628 629 623
f 628 623 622
f 622 563 569
f 622 569 628
f 616 559 558
f 622 564 559
f 622 559 616
f 558 559 563
f 558 563 622
f 617 559 616
f 616 559 564
f 616 564 622
f 628 634 635
f 628 569 570
f 628 629 569
f 628 570 629
f 634 628 569
f 634 569 575
f 634 575 576
f 628 634 576
f 628 576 570
f 634 628 570
f 634 570 576
f 635 634 576
f 628 635 629
f 628 563 569
f 628 563 622
f 628 569 575
f 628 575 634
f 558 516 520
f 558 520 563
f 569 568 575
f 575 569 528
f 568 562 519
f 568 519 523
f 516 562 563
f 516 563 558
f 562 516 515
f 562 515 519
f 568 563 562
f 519 520 562
f 568 524 520
f 568 520 562
f 519 520 524
f 519 524 523
f 519 520 516
f 519 516 515
f 515 516 520
f 515 520 519
f 562 520 563
f 568 569 563
f 562 520 524
f 562 524 568
f 563 520 516
f 575 574 527
f 575 527 528
f 574 528 527
f 568 523 527
f 568 527 574
f 523 568 524
f 527 523 524
f 527 524 528
f 523 527 528
f 523 528 524
f 568 569 524
f 574 575 528
f 568 574 528
f 568 528 524
f 515 516 487
f 523 524 520
f 523 520 519
f 527 494 528
f 523 519 489
f 523 489 491
f 519 515 486
f 519 486 489
f 515 486 487
f 523 493 527
f 527 494 493
f 493 523 491
f 491 489 460
f 491 460 463
f 489 486 458
f 489 458 460
f 491 463 466
f 491 466 493
f 463 460 432
f 463 432 435
f 430 460 458
f 460 430 432
f 463 435 438
f 463 438 466
f 435 432 402
f 435 402 404
f 398 402 432
f 398 432 430
f 404 435 432
f 404 432 402
f 435 404 406
f 435 406 438
f 404 402 356
f 404 356 360
f 352 356 402
f 352 402 398
f 360 404 402
f 360 402 356
f 356 402 353
f 356 353 352
f 352 353 357
f 352 357 356
f 398 399 352
f 352 353 402
f 352 399 353
f 404 360 364
f 404 364 406
f 364 365 406
f 406 364 407
f 364 365 407
f 356 357 361
f 356 361 360
f 356 357 353
f 364 360 361
f 364 361 365
f 360 364 365
f 360 365 361
f 308 302 303
f 308 303 309
f 360 356 302
f 360 302 308
f 302 357 303
f 357 302 356
f 357 353 298
f 357 298 303
f 308 361 357
f 308 357 302
f 303 357 353
f 303 353 298
f 360 361 357
f 360 357 356
f 361 360 308
f 302 357 361
f 302 361 308
f 315 365 314
f 360 308 314
f 360 314 364
f 364 314 365
f 308 309 315
f 308 315 314
f 309 308 361
f 309 315 365
f 309 365 361
f 315 309 361
f 315 361 365
f 309 303 246
f 309 246 252
f 303 298 239
f 303 239 246
f 303 304 246
f 298 299 239
f 303 304 299
f 303 299 298
f 239 299 304
f 239 304 246
f 309 252 258
f 309 258 315
f 259 315 258
f 309 252 310
f 315 259 316
f 258 252 310
f 258 310 316
f 259 258 316
f 252 246 247
f 252 247 253
f 239 247 246
f 247 304 299
f 247 299 239
f 246 304 247
f 252 309 303
f 252 303 246
f 253 310 252
f 246 247 253
f 246 253 252
f 246 304 299
f 246 299 239
f 239 304 247
f 252 253 259
f 252 259 258
f 252 258 316
f 252 316 310
f 239 240 247
f 253 247 189
f 253 189 197
f 240 248 247
f 190 189 247
f 248 190 247
f 248 240 190
f 189 248 247
f 189 248 190
f 189 248 254
f 189 254 197
f 205 197 198
f 253 197 205
f 253 205 259
f 259 205 260
f 197 253 198
f 197 253 254
f 197 198 254
f 205 198 254
f 205 254 260
f 198 253 254
f 253 259 260
f 253 260 254
f 259 253 254
f 259 254 260
f 197 189 190
f 197 190 198
f 183 190 240
f 198 254 248
f 198 248 190
f 183 240 248
f 183 248 190
f 197 254 248
f 197 248 189
f 190 248 254
f 190 254 198
f 198 205 260
f 198 260 254
f 184 190 183
f 190 184 191
f 190 191 199
f 190 199 198
f 183 241 184
f 190 191 241
f 190 241 183
f 183 240 241
f 198 199 206
f 198 206 205
f 205 206 261
f 205 261 260
f 198 190 191
f 198 191 199
f 185 192 191
f 185 191 184
f 191 192 200
f 191 200 199
f 199 200 207
f 199 207 206
f 199 191 192
f 199 192 200
f 371 372 410
f 411 441 410
f 320 321 370
f 372 371 321
f 371 370 321
f 368 318 369
f 368 367 318
f 320 369 318
f 440 408 409
f 367 368 409
f 408 440 468
f 531 530 496
f 495 496 530
f 580 578 579
f 530 531 578
f 531 579 578
f 532 581 580
f 532 533 581
f 498 533 497
f 532 497 533
f 441 411 469
f 411 410 372
f 409 408 367
f 214 221 220
f 214 220 213
f 228 229 236
f 228 236 235
f 229 228 220
f 229 220 221
f 215 222 221
f 215 221 214
f 229 230 237
f 229 237 236
f 230 229 221
f 230 221 222
f 216 223 222
f 216 222 215
f 216 272 273
f 215 272 216
f 230 222 223
f 230 223 231
f 230 231 238
f 230 238 237
f 238 237 294
f 238 295 294
f 223 279 273
f 223 273 216
f 216 273 279
f 216 279 223
f 223 279 231
f 231 238 295
f 231 295 285
f 238 231 285
f 238 285 295
f 274 280 273
f 280 224 223
f 273 280 223
f 224 279 280
f 223 279 224
f 274 273 279
f 274 279 280
f 238 295 296
f 286 296 295
f 231 232 286
f 231 286 295
f 232 286 285
f 231 232 285
f 224 279 285
f 224 285 232
f 296 286 285
f 296 285 295
f 223 279 285
f 223 285 231
f 232 231 223
f 232 223 224
f 231 285 279
f 280 279 273
f 286 295 285
f 280 286 232
f 280 232 224
f 232 285 279
f 232 279 224
f 280 274 281
f 274 328 280
f 296 286 287
f 296 286 350
f 329 334 281
f 329 281 275
f 275 281 274
f 281 333 334
f 275 328 329
f 281 333 328
f 281 328 275
f 281 280 333
f 274 328 275
f 281 328 274
f 275 328 333
f 275 333 281
f 287 340 351
f 287 351 297
f 281 287 286
f 287 297 296
f 287 340 339
f 281 334 340
f 281 340 287
f 297 351 350
f 287 297 350
f 287 350 339
f 287 339 286
f 281 280 286
f 296 297 350
f 287 296 350
f 297 287 339
f 297 339 350
f 287 339 280
f 287 280 281
f 287 340 334
f 287 334 281
f 334 329 335
f 334 382 335
f 329 378 382
f 329 382 335
f 351 340 341
f 340 341 386
f 335 334 340
f 335 340 341
f 351 341 386
f 351 386 396
f 341 340 334
f 341 334 335
f 379 329 378
f 379 383 335
f 379 335 329
f 383 382 378
f 383 378 379
f 379 378 382
f 379 382 383
f 335 382 383
f 335 382 378
f 335 378 329
f 341 335 383
f 341 383 387
f 351 397 396
f 341 387 397
f 341 397 351
f 383 382 386
f 383 386 387
f 387 397 396
f 387 396 386
f 397 387 386
f 397 386 396
f 341 387 386
f 335 382 386
f 335 386 341
f 341 351 396
f 341 396 386
f 341 387 335
f 387 386 382
f 387 382 335
f 341 340 382
f 341 382 335
f 379 416 417
f 379 378 416
f 379 417 419
f 379 419 383
f 397 429 428
f 397 428 396
f 397 387 421
f 397 421 429
f 387 382 383
f 417 419 383
f 417 383 379
f 387 383 419
f 387 419 421
f 387 421 429
f 387 429 397
f 383 419 421
f 383 421 387
f 445 447 419
f 445 419 417
f 450 419 447
f 421 450 457
f 421 457 429
f 419 450 421
f 450 448 451
f 448 447 450
f 448 475 476
f 475 448 447
f 473 475 447
f 473 447 445
f 476 475 447
f 476 447 448
f 478 451 479
f 451 478 450
f 450 478 485
f 450 485 457
f 476 475 478
f 476 478 479
f 479 451 450
f 479 450 478
f 476 479 451
f 476 451 448
f 479 478 475
f 479 475 476
f 451 450 447
f 451 447 448
f 475 473 505
f 485 478 507
f 505 473 503
f 475 505 507
f 475 507 478
f 507 514 485
f 505 503 544
f 514 507 548
f 540 539 544
f 540 503 539
f 544 503 540
f 505 544 548
f 505 548 507
f 557 548 556
f 557 556 514
f 548 557 514
f 544 543 597
f 544 543 539
f 540 539 543
f 540 543 544
f 548 603 547
f 544 543 547
f 544 547 548
f 548 556 547
f 557 548 547
f 557 547 556
f 590 596 597
f 590 591 540
f 597 591 590
f 591 597 540
f 540 539 590
f 597 596 543
f 596 539 590
f 597 543 539
f 597 539 540
f 603 602 614
f 544 597 603
f 544 603 548
f 557 615 614
f 614 615 603
f 603 615 557
f 603 547 602
f 597 596 602
f 597 602 603
f 602 614 556
f 597 543 547
f 597 547 603
f 557 614 556
f 603 557 556
f 603 556 547
f 603 547 543
f 603 543 597
f 548 547 543
f 548 543 544
f 603 596 597
f 603 602 596
f 596 590 649
f 596 649 655
f 655 596 654
f 655 595 654
f 655 595 596
f 649 590 589
f 655 596 590
f 655 590 649
f 649 589 595
f 649 595 655
f 671 614 602
f 671 602 661
f 661 660 602
f 655 596 602
f 655 602 661
f 661 660 601
f 661 602 601
f 671 613 614
f 661 671 614
f 661 614 602
f 671 661 601
f 671 601 613
f 596 602 661
f 661 596 655
f 655 649 648
f 655 648 654
f 649 589 648
f 655 654 589
f 655 589 649
f 670 671 661
f 670 661 660
f 655 654 660
f 655 660 661
f 671 670 613
f 661 671 613
f 661 613 660
f 661 660 654
f 661 654 655
f 717 708 716
f 708 717 709
f 717 648 709
f 648 717 654
f 709 647 708
f 717 653 716
f 717 653 654
f 717 653 647
f 717 647 709
f 708 647 653
f 708 653 716
f 709 647 653
f 709 653 717
f 648 647 709
f 732 725 724
f 725 732 733
f 732 669 733
f 654 717 725
f 654 725 660
f 733 670 725
f 660 725 670
f 725 724 659
f 725 660 659
f 717 653 659
f 717 659 725
f 725 733 669
f 725 669 659
f 732 724 659
f 732 659 669
f 717 654 660
f 717 660 725
f 733 725 659
f 733 659 669
f 670 733 669
f 716 647 708
f 716 653 647
f 717 716 724
f 717 724 725
f 724 732 669
f 724 669 659
f 725 659 653
f 725 653 717
f 716 708 707
f 716 707 715
f 731 732 724
f 731 724 723
f 716 715 723
f 716 723 724
f 724 723 715
f 724 715 716
f 715 707 706
f 715 706 714
f 730 731 723
f 730 723 722
f 715 714 723
f 714 739 715
f 722 739 741
f 715 739 722
f 715 722 723
f 739 714 722
f 741 722 714
f 741 714 739
f 723 722 714
f 705 713 706
f 706 713 714
f 738 714 713
f 739 714 738
f 721 729 730
f 722 721 730
f 740 721 722
f 741 740 722
f 738 713 722
f 738 722 741
f 741 739 738
f 738 713 721
f 738 721 740
f 740 721 713
f 740 713 738
f 712 713 738
f 704 712 713
f 704 713 705
f 740 721 720
f 721 720 728
f 721 728 729
f 712 721 720
f 720 721 738
f 720 738 712
f 703 711 712
f 703 712 704
f 720 719 727
f 720 727 728
f 711 712 720
f 711 720 719
f 719 720 712
f 719 712 711
f 703 646 652
f 703 652 711
f 727 719 658
f 727 658 664
f 710 703 702
f 703 710 711
f 703 646 645
f 703 645 702
f 711 652 710
f 711 652 646
f 711 646 703
f 702 646 652
f 702 652 710
f 645 646 702
f 726 727 718
f 719 718 727
f 664 727 663
f 663 727 726
f 719 718 658
f 710 652 658
f 710 658 718
f 719 727 664
f 719 664 658
f 726 718 658
f 726 658 664
f 663 726 664
f 718 719 711
f 718 711 710
f 645 651 710
f 710 652 651
f 710 652 646
f 710 646 645
f 718 710 651
f 718 651 657
f 718 657 663
f 718 657 658
f 710 651 657
f 710 657 718
f 718 663 664
f 718 664 658
f 718 658 652
f 718 652 710
f 644 650 645
f 650 651 645
f 650 594 593
f 650 593 651
f 650 651 594
f 644 588 587
f 650 594 588
f 650 588 644
f 644 587 593
f 644 593 650
f 645 588 644
f 644 588 594
f 644 594 650
f 651 650 656
f 651 656 657
f 656 662 663
f 656 663 657
f 656 599 600
f 656 657 599
f 656 600 657
f 650 593 599
f 650 599 656
f 662 605 606
f 656 662 606
f 656 606 600
f 662 656 599
f 662 599 605
f 650 651 657
f 650 657 656
f 663 662 606
f 662 656 600
f 662 600 606
f 587 593 650
f 656 650 593
f 656 593 599
f 656 599 605
f 587 538 542
f 587 542 593
f 592 593 599
f 605 599 546
f 605 546 550
f 538 586 587
f 592 586 537
f 592 537 541
f 586 592 587
f 586 538 537
f 541 542 592
f 541 542 538
f 541 538 537
f 537 538 542
f 537 542 541
f 592 542 593
f 592 542 538
f 592 538 587
f 605 604 549
f 605 549 550
f 549 604 598
f 549 598 545
f 598 604 605
f 604 550 549
f 545 598 546
f 541 542 546
f 541 546 545
f 545 549 550
f 545 550 546
f 549 545 546
f 549 546 550
f 598 599 546
f 592 542 546
f 592 546 598
f 598 605 550
f 598 550 546
f 545 598 592
f 545 592 541
f 598 546 542
f 598 542 592
f 598 599 593
f 598 593 592
f 537 538 502
f 549 509 550
f 545 546 542
f 545 542 541
f 541 537 501
f 541 501 504
f 537 501 502
f 508 549 545
f 508 545 506
f 549 509 508
f 506 545 541
f 506 541 504
f 504 501 472
f 504 472 474
f 506 504 474
f 506 474 477
f 480 508 506
f 480 506 477
f 474 472 444
f 474 444 446
f 477 474 446
f 477 446 449
f 452 480 477
f 452 477 449
f 414 418 444
f 444 418 446
f 420 422 452
f 449 420 452
f 446 449 420
f 420 446 418
f 376 380 414
f 414 380 418
f 376 414 377
f 376 377 380
f 414 415 376
f 376 415 377
f 384 388 422
f 420 384 422
f 388 389 422
f 388 384 389
f 380 418 420
f 380 420 384
f 422 388 423
f 388 389 423
f 384 420 418
f 384 418 380
f 380 381 377
f 376 377 381
f 376 381 380
f 380 381 385
f 380 385 384
f 384 389 385
f 388 384 385
f 388 385 389
f 330 377 326
f 330 326 331
f 377 330 380
f 331 381 330
f 331 381 377
f 331 377 326
f 380 381 330
f 326 377 381
f 326 381 331
f 342 389 336
f 342 336 337
f 384 336 389
f 337 336 385
f 337 342 389
f 337 389 385
f 384 336 385
f 380 385 336
f 342 337 385
f 342 385 389
f 337 336 330
f 337 330 331
f 380 336 384
f 336 385 381
f 336 381 330
f 384 385 381
f 384 381 380
f 276 326 268
f 326 276 331
f 326 269 268
f 331 332 276
f 326 327 269
f 331 327 326
f 268 327 332
f 268 332 276
f 269 327 268
f 337 331 276
f 337 276 282
f 288 342 282
f 337 282 342
f 289 342 288
f 337 282 338
f 342 289 343
f 337 342 343
f 288 282 338
f 288 338 343
f 289 288 343
f 276 269 277
f 269 276 268
f 277 327 269
f 276 332 277
f 276 332 327
f 276 327 268
f 289 282 283
f 282 289 288
f 283 289 343
f 282 283 338
f 276 332 283
f 276 283 282
f 282 288 343
f 282 343 338
f 283 276 277
f 282 283 332
f 282 332 276
f 282 337 331
f 282 331 276
f 218 270 211
f 218 217 277
f 270 218 277
f 270 277 269
f 217 278 277
f 217 278 218
f 218 278 277
f 277 278 270
f 211 270 278
f 211 278 218
f 269 270 278
f 269 278 277
f 283 277 217
f 283 217 225
f 233 290 226
f 283 225 226
f 283 226 290
f 283 290 289
f 225 283 284
f 225 226 284
f 217 278 284
f 217 284 225
f 226 283 284
f 283 290 284
f 233 226 284
f 233 284 290
f 289 283 284
f 289 284 290
f 218 278 270
f 217 218 226
f 217 226 225
f 226 290 284
f 218 278 284
f 218 284 226
f 226 284 278
f 226 278 218
f 225 284 278
f 225 278 217
f 218 211 212
f 218 212 219
f 211 271 212
f 211 270 271
f 234 233 226
f 234 226 227
f 218 219 227
f 218 227 226
f 233 234 291
f 233 291 290
f 226 227 219
f 226 219 218
f 213 220 219
f 213 219 212
f 227 228 235
f 227 235 234
f 219 220 228
f 219 228 227
f 220 228 227
f 387 335 383
f 287 286 280
f 226 283 277
f 226 277 218
f 545 599 593
f 545 593 541
f 657 719 711
f 657 711 651
f 740 741 739
f 740 739 738
f 447 475 478
f 447 478 450
f 223 280 286
f 223 286 231
f 295 349 294
f 222 223 231
f 222 231 230
f 291 345 344
f 380 331 337
f 380 337 384
f 389 390 423
f 474 446 449
f 474 449 477
f 504 474 477
f 504 477 506
f 509 551 550
f 664 607 665
f 713 712 720
f 713 720 721
f 715 714 722
f 396 397 429
f 396 429 428
f 427 426 394
f 427 394 395
f 350 296 351
f 349 394 393
f 349 393 348
f 237 238 295
f 290 233 234
f 290 234 291
f 345 392 344
f 344 392 391
f 390 391 425
f 390 425 424
f 550 549 508
f 510 552 551
f 607 552 553
f 607 553 608
f 728 727 664
f 666 609 610
f 666 610 667
f 669 732 731
f 669 670 732
f 612 611 554
f 555 554 511
f 555 511 512
f 513 557 556
f 514 557 513
f 428 395 396
f 291 344 290
f 484 456 457
f 484 457 485
f 456 484 483
f 456 483 455
f 456 428 457
f 457 428 429
f 428 456 427
f 427 456 455
f 395 428 427
f 395 350 396
f 396 350 351
f 350 395 349
f 349 395 394
f 349 295 350
f 350 295 296
f 294 349 348
f 294 237 295
f 293 294 348
f 293 348 347
f 294 293 236
f 294 236 237
f 293 292 235
f 293 235 236
f 292 293 347
f 292 347 346
f 292 291 235
f 235 291 234
f 291 292 345
f 345 292 346
f 344 343 290
f 290 343 289
f 343 344 390
f 390 344 391
f 390 389 343
f 343 389 342
f 423 390 424
f 423 422 389
f 453 423 424
f 453 424 454
f 423 453 452
f 423 452 422
f 453 481 480
f 453 480 452
f 481 453 454
f 481 454 482
f 481 509 480
f 480 509 508
f 509 481 482
f 510 509 482
f 509 550 508
f 551 509 510
f 551 606 550
f 550 606 605
f 606 551 552
f 607 606 552
f 606 607 664
f 606 664 663
f 665 607 608
f 664 665 728
f 665 608 609
f 665 666 729
f 665 729 728
f 666 665 609
f 666 667 730
f 666 730 729
f 667 668 730
f 730 668 731
f 668 667 610
f 668 610 611
f 668 669 731
f 669 668 611
f 612 669 611
f 669 612 670
f 613 612 555
f 612 554 555
f 612 613 670
f 613 555 614
f 555 556 614
f 556 555 512
f 513 556 512
f 513 484 514
f 484 513 512
f 484 512 483
f 484 485 514
f 670 613 614
f 396 351 340
f 396 340 387
f 387 340 341
f 329 378 383
f 329 383 334
f 334 383 335
f 351 296 287
f 274 329 334
f 274 334 281
f 214 215 222
f 214 222 221
f 212 213 220
f 212 220 219
f 211 212 219
f 211 219 218
f 269 270 218
f 269 218 277
f 289 342 282
f 326 269 277
f 326 277 276
f 388 422 420
f 388 420 384
f 550 605 599
f 550 599 545
f 587 538 541
f 587 541 593
f 605 662 656
f 663 664 719
f 663 719 657
f 646 645 651
f 646 651 711
f 704 703 711
f 704 711 712
f 729 730 722
f 729 722 721
f 721 722 741
f 721 741 740
f 732 670 725
f 648 708 716
f 648 716 717
f 614 557 548
f 614 548 603
f 540 590 597
f 540 597 544
f 445 473 475
f 445 475 447
f 417 445 447
f 417 447 419
f 296 295 231
f 296 231 286
f 215 216 223
f 215 223 222
f 213 214 221
f 213 221 220
f 377 331 380
f 342 389 384
f 342 384 337
f 422 452 449
f 422 449 420
f 472 444 446
f 472 446 474
f 501 472 474
f 501 474 504
f 537 501 504
f 537 504 541
f 662 663 657
f 662 657 656
f 705 704 712
f 705 712 713
f 707 706 714
f 707 714 715
f 708 707 715
f 708 715 716
f 557 514 507
f 557 507 548
f 514 485 478
f 514 478 507
f 670 614 602
f 670 602 661
f 590 648 655
f 363 313 307
f 363 307 359
f 257 256 250
f 257 250 251
f 202 201 193
f 202 193 194
f 198 253 247
f 198 247 190
f 523 569 563
f 523 563 519
f 629 687 679
f 629 679 623
f 736 737 735
f 736 735 734
f 692 693 685
f 692 685 684
f 573 526 522
f 573 522 567
f 433 461 464
f 433 464 436
f 195 250 256
f 195 256 203
f 265 322 264
f 194 203 202
f 192 193 201
f 192 201 200
f 261 318 317
f 356 303 309
f 356 309 360
f 365 366 407
f 460 432 435
f 460 435 463
f 489 460 463
f 489 463 491
f 519 489 491
f 519 491 523
f 494 529 528
f 636 577 637
f 681 680 688
f 681 688 689
f 683 682 690
f 683 690 691
f 490 522 526
f 490 526 492
f 461 490 492
f 461 492 464
f 374 375 413
f 374 413 412
f 411 372 373
f 323 266 324
f 322 372 371
f 322 371 321
f 209 210 265
f 260 205 206
f 260 206 261
f 318 368 317
f 317 368 367
f 366 367 409
f 366 409 408
f 528 527 493
f 495 530 529
f 577 530 531
f 577 531 578
f 696 695 636
f 638 579 580
f 638 580 639
f 641 700 699
f 641 642 700
f 582 581 533
f 534 533 497
f 534 497 498
f 499 536 535
f 500 536 499
f 412 373 374
f 261 317 260
f 470 442 443
f 470 443 471
f 442 470 469
f 442 469 441
f 442 412 443
f 443 412 413
f 412 442 411
f 411 442 441
f 373 412 411
f 373 323 374
f 374 323 324
f 323 373 322
f 322 373 372
f 322 265 323
f 323 265 266
f 264 322 321
f 264 209 265
f 263 264 321
f 263 321 320
f 264 263 208
f 264 208 209
f 263 262 207
f 263 207 208
f 262 263 320
f 262 320 319
f 262 261 207
f 207 261 206
f 261 262 318
f 318 262 319
f 317 316 260
f 260 316 259
f 316 317 366
f 366 317 367
f 366 365 316
f 316 365 315
f 407 366 408
f 407 406 365
f 439 407 408
f 439 408 440
f 407 439 438
f 407 438 406
f 439 467 466
f 439 466 438
f 467 439 440
f 467 440 468
f 467 494 466
f 466 494 493
f 494 467 468
f 495 494 468
f 494 528 493
f 529 494 495
f 529 576 528
f 528 576 575
f 576 529 530
f 577 576 530
f 576 577 636
f 576 636 635
f 637 577 578
f 636 637 696
f 637 578 579
f 637 638 697
f 637 697 696
f 638 637 579
f 638 639 698
f 638 698 697
f 639 640 698
f 698 640 699
f 640 639 580
f 640 580 581
f 640 641 699
f 641 640 581
f 582 641 581
f 641 582 642
f 583 582 534
f 582 533 534
f 582 583 642
f 583 534 584
f 534 535 584
f 535 534 498
f 499 535 498
f 499 470 500
f 470 499 498
f 470 498 469
f 470 471 500
f 642 583 584
f 375 324 312
f 375 312 313
f 301 354 359
f 301 359 306
f 324 266 267
f 244 301 306
f 244 306 251
f 244 251 250
f 186 187 194
f 186 194 193
f 184 185 192
f 184 192 191
f 183 184 191
f 183 191 190
f 205 253 198
f 239 240 190
f 239 190 247
f 298 239 247
f 298 247 246
f 298 246 303
f 398 352 356
f 398 356 402
f 527 575 569
f 527 569 523
f 558 516 519
f 558 519 563
f 616 558 563
f 616 563 622
f 635 695 687
f 635 687 629
f 618 623 679
f 673 672 679
f 673 679 680
f 697 736 689
f 697 698 737
f 697 737 736
f 675 674 681
f 675 681 682
f 698 690 737
f 700 642 701
f 620 677 684
f 620 684 685
f 585 536 526
f 585 526 573
f 518 561 567
f 518 567 522
f 431 459 461
f 431 461 433
f 401 431 433
f 401 433 403
f 355 401 359
f 243 250 195
f 266 203 256
f 187 188 195
f 187 195 194
f 185 186 193
f 185 193 192
f 353 303 356
f 315 365 364
f 315 364 360
f 315 360 309
f 430 398 402
f 430 402 432
f 458 430 432
f 458 432 460
f 486 458 460
f 486 460 489
f 515 486 489
f 515 489 519
f 617 616 622
f 617 622 623
f 634 635 629
f 634 629 628
f 674 673 680
f 674 680 681
f 676 675 682
f 676 682 683
f 677 676 683
f 677 683 684
f 459 488 490
f 459 490 461
f 642 584 643
f 561 620 627
f 561 627 566
v 0.51600 0.04550 0.01100
v 0.51500 -0.29250 -0.01250
v 0.51400 0.04550 -0.03600
v 0.51547 -0.29657 -0.01440
v 0.50900 0.04550 -0.08200
v 0.49650 0.04228 -0.13919
v 0.49900 -0.29250 0.12700
v 0.50500 0.04550 0.10400
v 0.50342 0.03179 0.04436
v 0.50000 0.04550 -0.12800
v 0.45800 0.04550 0.23700
v 0.49300 -0.29250 -0.15050
v 0.48600 0.04550 -0.17300
v 0.46255 0.03643 0.21837
v 0.44541 0.03042 -0.23592
v 0.45800 -0.29250 0.23700
v 0.44700 -0.29250 -0.25900
v 0.44700 0.04550 -0.25900
v 0.46664 -0.30011 -0.22719
v 0.42100 0.04550 -0.29800
v 0.42463 -0.32953 0.11571
v 0.44435 0.00970 -0.00581
v 0.39100 -0.29250 0.33450
v 0.39100 0.04550 0.33450
v 0.31123 0.02562 0.38933
v 0.36272 0.04350 -0.36805
v 0.37400 0.04350 0.35200
v 0.47143 -0.30737 0.19807
v 0.21794 -0.32251 0.41744
v 0.39050 -0.29250 -0.33400
v 0.36000 0.04550 -0.37000
v 0.28848 -0.31606 -0.40361
v 0.34300 0.04550 0.38400
v 0.21904 0.02369 -0.44608
v 0.37620 -0.32845 -0.19579
v 0.30700 -0.29250 0.41400
v 0.30700 0.04550 0.41400
v 0.33861 0.04282 0.38753
v 0.28800 0.04550 -0.42900
v 0.24750 0.04550 0.45150
v 0.06194 0.01043 0.42424
v 0.28162 -0.31050 -0.01400
v 0.28975 0.02850 -0.03387
v 0.28800 -0.29250 -0.42900
v 0.22700 -0.29250 0.46300
v 0.07733 -0.29790 -0.51353
v 0.30102 -0.30402 0.41601
v 0.05825 -0.29250 0.51050
v 0.18300 0.04550 0.48200
v -0.09950 -0.31050 -0.30000
v -0.07113 0.02850 -0.26744
v 0.18300 -0.29250 -0.48250
v 0.20500 0.04550 -0.47400
v 0.09300 0.04550 0.50700
v 0.04303 -0.29776 0.51407
v -0.00511 0.03598 0.51166
v 0.03942 0.01047 -0.42864
v 0.07000 -0.29250 -0.51200
v 0.07000 0.04550 -0.51200
v -0.08086 0.03655 -0.51135
v 0.04700 0.04550 0.51300
v 0.15568 0.04132 0.49307
v 0.17573 -0.32622 0.35620
v 0.02300 0.04550 -0.51600
v -0.02350 0.04550 0.51400
v -0.04964 -0.32881 -0.43110
v -0.00050 -0.29250 -0.51600
v -0.11625 -0.29250 0.49950
v -0.31625 0.01489 -0.34685
v -0.11282 -0.29578 -0.50352
v -0.07100 0.04550 -0.51200
v -0.14975 0.04550 0.48975
v -0.09400 -0.29250 -0.50750
v -0.07171 -0.33019 0.42874
v -0.16200 0.04550 -0.49100
v -0.15858 -0.30336 0.48421
v -0.18400 -0.29250 -0.48250
v -0.20600 0.04550 -0.47400
v 0.00925 -0.31050 0.28119
v 0.00925 0.02850 0.28119
v -0.19778 0.02954 0.46203
v -0.32550 -0.29250 0.39900
v -0.28819 -0.31050 -0.01550
v -0.26248 -0.29948 -0.44608
v -0.28257 0.04301 -0.43221
v -0.28750 0.04550 0.42700
v -0.31425 0.02850 -0.00050
v -0.38529 -0.32958 -0.20026
v -0.37854 0.00976 0.22581
v -0.31887 0.03971 0.40216
v -0.28800 0.04550 -0.42900
v -0.34200 0.04250 0.38300
v -0.34300 0.04350 0.38400
v -0.35926 0.00946 -0.21006
v -0.43404 0.03960 -0.28069
v -0.31575 -0.29250 -0.40725
v -0.36100 0.04550 -0.37000
v -0.40958 -0.32944 0.11760
v -0.37700 0.04350 0.35100
v -0.37700 0.04550 0.35200
v -0.39083 -0.29639 -0.33390
v -0.39300 0.04550 -0.33500
v -0.33393 -0.29983 0.39246
v -0.45082 0.01306 0.05960
v -0.38766 0.04235 0.33732
v -0.40700 0.04350 0.31500
v -0.42150 -0.29250 0.29700
v -0.40800 0.04550 0.31600
v -0.44056 -0.30407 -0.27060
v -0.42200 -0.29250 -0.29800
v -0.43500 0.04550 0.27800
v -0.48864 0.03900 -0.16402
v -0.44586 0.04146 0.25402
v -0.46900 -0.29250 -0.21700
v -0.44550 0.04550 -0.25750
v -0.48600 0.04550 0.17200
v -0.48600 0.04550 -0.17300
v -0.44623 -0.31826 0.21285
v -0.51300 -0.29250 0.05800
v -0.50500 0.04550 0.10400
v -0.51681 -0.29835 0.02172
v -0.50500 0.04550 -0.10500
v -0.51400 0.04550 0.01100
v -0.51263 0.04122 0.08138
v -0.51000 -0.29250 -0.07050
usemtl m028
f 821 782 830
f 828 821 830
f 828 830 835
f 792 828 835
f 792 835 798
f 784 792 798
f 784 798 763
f 782 822 830
f 782 797 822
f 822 831 830
f 845 853 835
f 835 830 845
f 835 853 836
f 835 836 810
f 810 798 835
f 810 801 798
f 798 801 775
f 775 763 798
f 775 756 763
f 763 756 750
f 763 750 755
f 763 755 766
f 782 766 797
f 763 766 782
f 784 763 782
f 784 782 821
f 813 797 806
f 813 822 797
f 827 831 822
f 827 822 813
f 827 834 831
f 841 840 834
f 841 834 827
f 849 847 840
f 849 840 841
f 852 854 847
f 852 847 849
f 857 865 854
f 857 854 852
f 861 865 857
f 864 865 861
f 863 853 865
f 863 865 864
f 858 853 863
f 856 853 858
f 856 836 853
f 843 836 856
f 838 836 843
f 832 826 836
f 832 836 838
f 819 801 826
f 819 826 832
f 816 801 819
f 812 801 816
f 805 801 812
f 800 801 805
f 800 775 801
f 794 775 800
f 780 775 794
f 780 767 775
f 772 767 780
f 761 756 767
f 761 767 772
f 759 756 761
f 754 747 756
f 754 756 759
f 751 747 754
f 746 747 751
f 744 750 747
f 744 747 746
f 742 750 744
f 749 750 742
f 752 755 750
f 752 750 749
f 765 766 755
f 765 755 752
f 774 779 768
f 774 768 765
f 778 779 774
f 781 803 779
f 781 779 778
f 790 803 781
f 795 803 790
f 802 797 803
f 802 803 795
f 806 797 802
f 765 768 766
f 834 833 831
f 840 846 833
f 840 833 834
f 846 831 833
f 847 846 840
f 846 830 831
f 854 846 847
f 854 830 846
f 854 845 830
f 865 845 854
f 853 845 865
f 826 810 836
f 826 801 810
f 756 775 767
f 750 756 747
f 803 766 779
f 797 766 803
f 768 779 766
f 770 815 804
f 824 820 815
f 824 815 839
f 862 839 859
f 824 839 829
f 791 824 829
f 791 829 807
f 825 787 807
f 783 791 807
f 783 807 776
f 760 769 762
f 783 776 770
f 820 804 815
f 815 796 817
f 815 817 844
f 815 844 859
f 839 815 859
f 839 862 829
f 829 862 850
f 829 850 825
f 829 825 807
f 807 787 773
f 773 776 807
f 773 760 776
f 776 760 762
f 770 776 762
f 769 788 762
f 815 770 796
f 783 770 804
f 783 804 820
f 788 770 762
f 809 796 789
f 809 817 796
f 823 817 809
f 823 844 817
f 848 844 823
f 848 859 844
f 860 859 848
f 860 862 859
f 866 862 860
f 866 850 862
f 855 850 866
f 851 850 855
f 851 842 850
f 837 825 842
f 837 842 851
f 818 825 837
f 818 811 825
f 814 811 818
f 808 787 811
f 808 811 814
f 799 787 808
f 793 787 799
f 785 773 787
f 785 787 793
f 771 773 785
f 771 760 773
f 758 760 771
f 753 760 758
f 753 745 760
f 743 745 753
f 748 769 745
f 748 745 743
f 757 769 748
f 764 769 757
f 777 788 764
f 786 788 777
f 789 788 786
f 789 796 788
f 764 788 769
f 825 850 842
f 787 825 811
f 769 760 745
f 796 770 788
