# fh16_trailer_wheel_2r.obj - ISO 8855 (x ileri, y sol, z yukari), metre
mtllib fh16.mtl
o fh16_trailer_wheel_2r
v -0.28608 -0.31460 -0.13885
v -0.31943 -0.31367 0.00000
v -0.30309 -0.31356 0.09816
v -0.26336 -0.31579 0.19079
v -0.27013 -0.24345 -0.09344
v -0.28460 -0.24219 0.00000
v -0.27000 -0.24445 0.08722
v -0.27200 -0.22500 0.19700
v -0.26990 -0.12640 -0.10177
v -0.27314 -0.13262 -0.02191
v -0.26575 -0.13325 0.08592
v -0.26150 -0.07250 0.18950
v -0.27949 0.01726 -0.12676
v -0.30568 0.01405 0.00000
v -0.29114 0.01468 0.09412
v -0.25808 0.02154 0.18688
v -0.27056 0.08317 -0.09944
v -0.26730 0.06959 -0.03488
v -0.26131 0.07050 0.08454
v -0.25300 0.15350 0.18300
v -0.27550 0.28100 -0.14050
v -0.31300 0.28100 0.00000
v -0.29750 0.28100 0.09600
v -0.25350 0.28100 0.18350
v -0.28159 0.31405 -0.13472
v -0.31333 0.31433 0.00000
v -0.29628 0.31433 0.09583
v -0.25955 0.31350 0.18809
v -0.18752 -0.31347 -0.25767
v -0.24178 -0.30728 -0.17556
v -0.19686 -0.31012 0.23224
v -0.19517 -0.31733 0.26767
v -0.16686 -0.24204 -0.22937
v -0.22694 -0.24166 -0.16469
v -0.19584 -0.24377 0.19606
v -0.19800 -0.22500 0.27100
v -0.16370 -0.13275 -0.22489
v -0.18572 -0.11759 -0.14532
v -0.17898 -0.09163 -0.03650
v -0.18192 -0.09661 0.07341
v -0.18154 -0.13131 0.18876
v -0.19500 -0.07950 0.26750
v -0.17965 0.01513 -0.24682
v -0.18397 0.02634 -0.14311
v -0.18224 0.02105 -0.03888
v -0.17771 0.02744 0.07413
v -0.18901 0.01815 0.20989
v -0.19240 0.01590 0.26360
v -0.16130 0.06969 -0.22152
v -0.21831 0.06665 -0.16204
v -0.23150 0.05600 -0.07550
v -0.23150 0.05600 0.07450
v -0.18879 0.06831 0.19246
v -0.18400 0.28100 -0.25300
v -0.18400 0.28100 0.25250
v -0.18288 0.31421 -0.25135
v -0.24167 0.31550 -0.17533
v -0.19850 0.31458 0.23308
v -0.10375 -0.31625 -0.31863
v -0.09764 -0.31307 -0.29946
v -0.09865 -0.31337 0.30229
v -0.10400 -0.22500 -0.32000
v -0.08706 -0.24429 -0.26679
v -0.03947 -0.19910 -0.09647
v -0.06030 -0.20589 -0.02413
v -0.04849 -0.20313 0.06340
v -0.08529 -0.23262 0.26071
v -0.09059 -0.24862 0.27688
v -0.10400 -0.09350 -0.31800
v -0.07120 -0.12530 -0.24923
v -0.06602 -0.08340 -0.13045
v -0.10231 -0.07739 -0.03094
v -0.07228 -0.07847 0.09466
v -0.07276 -0.11392 0.21002
v -0.09300 -0.09577 0.28427
v -0.08280 0.02195 -0.27326
v -0.07792 0.00993 -0.14805
v -0.09890 -0.02600 -0.02785
v -0.08235 -0.01332 0.10559
v -0.06582 0.03076 0.18556
v -0.09454 0.01480 0.28922
v -0.08540 0.07026 -0.26156
v -0.08389 0.06928 0.25661
v -0.09050 0.07433 0.27650
v -0.09700 0.28100 -0.29750
v -0.09700 0.28100 0.29750
v -0.09747 0.31426 -0.29871
v -0.09675 0.31412 0.29606
v 0.02655 -0.31605 -0.32529
v 0.07213 -0.31183 -0.29995
v 0.04823 -0.31353 0.31018
v 0.05150 -0.22500 -0.32800
v 0.04379 -0.24616 -0.27399
v 0.02509 -0.19920 -0.09909
v 0.04984 -0.20701 -0.02670
v 0.03816 -0.20324 0.06635
v 0.08429 -0.23262 0.26071
v 0.02991 -0.24580 0.28126
v 0.02575 -0.07950 -0.32500
v 0.03989 -0.13010 -0.25893
v 0.04354 -0.08151 -0.13275
v 0.09040 -0.07649 -0.04650
v 0.05674 -0.07766 0.09836
v 0.04853 -0.11108 0.21029
v 0.01909 -0.12556 0.27962
v -0.00000 0.01775 -0.32162
v 0.05111 0.02063 -0.28195
v 0.04311 0.00358 -0.14965
v 0.08691 -0.03459 -0.05027
v 0.06545 -0.01559 0.10682
v 0.03410 0.02381 0.18402
v 0.04735 0.01459 0.29727
v 0.04135 0.07009 -0.26725
v 0.07090 0.06764 0.25543
v 0.01729 0.07127 0.27497
v -0.00100 0.28250 -0.32500
v 0.06367 0.28050 -0.29833
v 0.04750 0.28100 0.30475
v -0.00100 0.31250 -0.32325
v 0.06804 0.31471 -0.29908
v 0.04323 0.31430 0.30443
v 0.18697 -0.31356 -0.25822
v 0.18205 -0.31140 0.25086
v 0.19425 -0.31733 0.26767
v 0.16581 -0.24311 -0.22917
v 0.10633 -0.19817 0.00000
v 0.16426 -0.24547 0.22649
v 0.19700 -0.22500 0.27100
v 0.16057 -0.13348 -0.22436
v 0.16048 -0.10517 -0.14154
v 0.14347 -0.08299 -0.02412
v 0.15936 -0.09022 0.07705
v 0.15949 -0.12338 0.19370
v 0.19400 -0.07900 0.26750
v 0.17592 0.01685 -0.24525
v 0.15296 0.02897 -0.12529
v 0.16237 0.01029 -0.02918
v 0.16457 0.02124 0.07900
v 0.16159 0.02517 0.21943
v 0.19140 0.01590 0.26360
v 0.16030 0.06969 -0.22148
v 0.21700 0.06775 -0.15850
v 0.17967 0.06906 0.19828
v 0.18300 0.28100 -0.25300
v 0.18300 0.28100 0.25250
v 0.18188 0.31426 -0.25135
v 0.18317 0.31439 0.25256
v 0.27952 -0.31373 -0.14368
v 0.31658 -0.31363 0.00000
v 0.30247 -0.31382 0.09824
v 0.25809 -0.31385 0.18762
v 0.24986 -0.24313 -0.12499
v 0.28020 -0.24544 0.00000
v 0.26879 -0.24537 0.08708
v 0.22900 -0.24199 0.16640
v 0.24900 -0.13461 -0.12911
v 0.26186 -0.12692 -0.03107
v 0.25373 -0.12705 0.07882
v 0.22963 -0.13461 0.16689
v 0.26905 0.01611 -0.13604
v 0.29095 0.02108 -0.00992
v 0.27960 0.02168 0.08812
v 0.24626 0.01590 0.17898
v 0.24817 0.07461 -0.13233
v 0.26493 0.06911 -0.03564
v 0.25830 0.06965 0.08385
v 0.23033 0.07461 0.16744
v 0.27450 0.28100 -0.14050
v 0.31200 0.28100 0.00000
v 0.29650 0.28100 0.09600
v 0.25250 0.28100 0.18350
v 0.27371 0.31436 -0.14169
v 0.31147 0.31445 0.00000
v 0.29528 0.31439 0.09583
v 0.25150 0.31433 0.18289
v 0.33600 -0.31217 0.00000
v 0.33600 -0.22500 0.00000
usemtl m002
f 46 47 53
f 53 47 80
f 53 80 83
f 45 46 18
f 52 19 18
f 52 18 46
f 19 52 46
f 19 46 53
f 51 18 50
f 51 50 44
f 45 51 44
f 18 51 45
f 49 82 76
f 44 49 76
f 49 44 50
f 113 107 76
f 113 76 82
f 141 142 136
f 141 136 135
f 141 135 113
f 108 107 113
f 108 113 135
f 137 161 165
f 165 161 136
f 165 136 142
f 166 143 138
f 162 166 138
f 166 162 165
f 137 165 162
f 138 137 162
f 111 139 114
f 143 114 139
f 138 143 139
f 110 138 111
f 114 83 80
f 111 114 80
f 79 80 46
f 44 76 77
f 108 135 136
f 138 139 111
f 50 44 77
f 114 115 83
f 53 83 84
f 143 115 114
f 115 84 83
f 15 47 16
f 43 44 13
f 76 106 107
f 53 84 81
f 53 81 47
f 19 53 47
f 19 47 15
f 18 19 15
f 18 15 14
f 17 18 14
f 17 14 13
f 50 17 13
f 50 13 44
f 49 44 43
f 82 49 43
f 82 43 76
f 141 113 107
f 141 107 135
f 164 141 135
f 164 135 160
f 165 164 160
f 165 160 161
f 166 165 161
f 166 161 162
f 167 166 162
f 167 162 163
f 143 167 163
f 143 163 139
f 115 143 139
f 115 139 112
f 84 115 112
f 84 112 81
f 17 50 18
f 142 141 164
f 165 142 164
f 143 166 167
f 47 81 48
f 16 47 48
f 139 163 140
f 112 139 140
f 45 44 77
f 111 80 79
f 55 53 84
f 55 84 86
f 53 55 24
f 53 24 20
f 47 53 20
f 47 20 16
f 19 15 16
f 19 16 20
f 23 19 20
f 23 20 24
f 19 23 22
f 19 22 18
f 21 17 18
f 21 18 22
f 49 43 13
f 49 13 17
f 54 49 17
f 54 17 21
f 49 54 85
f 49 85 82
f 113 106 76
f 117 113 82
f 117 82 85
f 106 113 107
f 144 141 113
f 144 113 117
f 141 144 168
f 141 168 164
f 164 168 169
f 164 169 165
f 170 166 165
f 170 165 169
f 166 170 171
f 166 171 167
f 145 143 167
f 145 167 171
f 143 145 118
f 143 118 115
f 115 118 86
f 115 86 84
f 119 120 87
f 55 58 88
f 55 88 86
f 58 55 24
f 58 24 28
f 23 27 28
f 23 28 24
f 27 23 22
f 27 22 26
f 21 25 26
f 21 26 22
f 54 56 25
f 54 25 21
f 56 54 85
f 56 85 87
f 116 119 87
f 116 87 85
f 119 116 117
f 119 117 120
f 144 146 120
f 144 120 117
f 146 144 168
f 146 168 172
f 172 168 169
f 172 169 173
f 170 174 173
f 170 173 169
f 174 170 171
f 174 171 175
f 145 147 175
f 145 175 171
f 147 145 118
f 147 118 121
f 121 118 86
f 121 86 88
f 58 27 23
f 58 23 24
f 25 57 21
f 57 56 54
f 57 54 21
f 87 120 117
f 87 117 85
f 27 58 28
f 56 57 25
f 39 40 10
f 40 11 10
f 11 40 41
f 39 10 38
f 38 37 70
f 101 100 129
f 158 133 132
f 131 157 158
f 132 131 158
f 103 132 104
f 73 74 40
f 38 70 71
f 101 129 130
f 132 133 104
f 104 105 74
f 9 38 10
f 130 129 156
f 157 130 156
f 133 158 159
f 39 38 71
f 104 74 73
f 89 90 60
f 29 59 60
f 89 60 59
f 122 90 89
f 36 32 61
f 36 61 68
f 32 36 8
f 32 8 4
f 7 3 4
f 7 4 8
f 3 7 6
f 3 6 2
f 5 1 2
f 5 2 6
f 33 29 1
f 33 1 5
f 29 33 62
f 29 62 59
f 92 89 59
f 92 59 62
f 125 122 89
f 125 89 92
f 122 125 152
f 122 152 148
f 148 152 177
f 148 177 176
f 154 150 176
f 154 176 177
f 150 154 155
f 150 155 151
f 128 124 151
f 128 151 155
f 124 128 98
f 124 98 91
f 91 98 68
f 91 68 61
f 68 35 67
f 127 98 97
f 98 68 67
f 67 35 41
f 67 41 74
f 7 6 10
f 7 10 11
f 35 7 11
f 35 11 41
f 5 34 38
f 5 38 9
f 6 5 9
f 6 9 10
f 33 63 70
f 33 70 37
f 34 33 37
f 34 37 38
f 63 93 100
f 63 100 70
f 125 152 156
f 125 156 129
f 93 125 129
f 93 129 100
f 152 153 157
f 152 157 156
f 154 155 159
f 154 159 158
f 153 154 158
f 153 158 157
f 127 97 104
f 127 104 133
f 155 127 133
f 155 133 159
f 98 67 74
f 98 74 105
f 97 98 105
f 97 105 104
f 75 41 74
f 133 105 104
f 105 75 74
f 35 68 61
f 35 61 31
f 7 35 31
f 7 31 3
f 34 5 1
f 34 1 30
f 33 34 30
f 33 30 29
f 63 33 29
f 63 29 60
f 93 63 60
f 93 60 90
f 125 93 90
f 125 90 122
f 153 152 148
f 153 148 149
f 154 153 149
f 154 149 150
f 127 155 151
f 127 151 123
f 98 127 123
f 98 123 91
f 4 3 31
f 1 29 30
f 32 4 31
f 61 32 31
f 124 91 123
f 151 124 123
f 148 176 149
f 176 150 149
f 39 71 72
f 101 130 131
f 104 73 103
f 72 73 40
f 72 40 39
f 102 101 131
f 131 132 103
f 131 103 102
f 73 72 78
f 73 78 79
f 72 71 77
f 72 77 78
f 71 101 108
f 71 108 77
f 101 102 109
f 101 109 108
f 102 103 110
f 102 110 109
f 103 73 79
f 103 79 110
f 36 68 75
f 36 75 42
f 8 36 42
f 8 42 12
f 7 8 12
f 7 12 11
f 6 7 11
f 6 11 10
f 5 6 10
f 5 10 9
f 33 5 9
f 33 9 37
f 62 33 37
f 62 37 69
f 92 62 69
f 92 69 99
f 125 92 99
f 125 99 129
f 152 125 129
f 152 129 156
f 177 152 156
f 177 156 157
f 154 177 157
f 154 157 158
f 155 154 158
f 155 158 159
f 128 155 159
f 128 159 134
f 98 128 134
f 98 134 105
f 68 98 105
f 68 105 75
f 42 75 41
f 12 42 41
f 37 70 69
f 70 99 69
f 100 129 99
f 134 159 133
f 105 134 133
f 11 12 41
f 37 9 38
f 70 100 99
f 41 75 81
f 41 81 47
f 11 41 47
f 11 47 15
f 10 11 15
f 10 15 14
f 9 10 14
f 9 14 13
f 38 9 13
f 38 13 44
f 37 38 44
f 37 44 43
f 70 37 43
f 70 43 76
f 100 70 76
f 100 76 107
f 129 100 107
f 129 107 135
f 156 129 135
f 156 135 160
f 157 156 160
f 157 160 161
f 158 157 161
f 158 161 162
f 159 158 162
f 159 162 163
f 133 159 163
f 133 163 139
f 105 133 139
f 105 139 112
f 75 105 112
f 75 112 81
f 72 65 66
f 66 73 72
f 73 66 96
f 96 103 73
f 95 102 103
f 103 96 95
f 102 95 126
f 126 131 102
f 95 102 131
f 131 126 95
f 102 95 94
f 94 101 102
f 64 71 101
f 101 94 64
f 65 72 71
f 71 64 65
f 65 64 94
f 94 95 65
f 96 66 95
f 65 95 66
f 72 73 79
f 79 78 72
f 73 103 110
f 110 79 73
f 103 131 137
f 137 110 103
f 131 102 109
f 109 137 131
f 102 101 108
f 108 109 102
f 101 71 77
f 77 108 101
f 71 72 78
f 78 77 71
v -0.52500 -0.28217 -0.01067
v -0.52500 -0.28150 0.00900
v -0.53046 -0.20961 -0.11491
v -0.53859 -0.21794 -0.04777
v -0.53877 -0.21836 0.04387
v -0.53017 -0.21036 0.11515
v -0.53135 -0.13945 -0.11690
v -0.54098 -0.13484 -0.04831
v -0.54111 -0.13421 0.04474
v -0.53096 -0.13780 0.11726
v -0.52688 -0.09200 -0.10563
v -0.53058 -0.07666 -0.04011
v -0.53106 -0.07717 0.03638
v -0.52713 -0.09200 0.10325
v -0.52809 0.07124 -0.03757
v -0.52891 0.07202 0.03022
v -0.53091 0.13620 -0.11623
v -0.54004 0.13050 -0.04873
v -0.54024 0.13010 0.04460
v -0.53061 0.13511 0.11633
v -0.53080 0.21070 -0.11541
v -0.53981 0.21590 -0.04803
v -0.53992 0.21624 0.04495
v -0.53044 0.21194 0.11560
v -0.52726 0.27515 -0.03268
v -0.52803 0.27447 0.02764
v -0.43906 -0.28650 -0.28413
v -0.46523 -0.28818 -0.22463
v -0.49136 -0.28937 -0.13883
v -0.50723 -0.28954 -0.04661
v -0.50873 -0.28930 0.04864
v -0.49089 -0.28940 0.13687
v -0.46513 -0.28815 0.22142
v -0.44136 -0.28645 0.27986
v -0.44991 -0.21469 -0.30170
v -0.47861 -0.21823 -0.22786
v -0.50315 -0.22096 -0.14706
v -0.50496 -0.21721 -0.04861
v -0.50550 -0.21712 0.04404
v -0.50285 -0.22180 0.14461
v -0.48031 -0.21691 0.22553
v -0.45031 -0.21654 0.29998
v -0.45162 -0.13785 -0.30291
v -0.48071 -0.13266 -0.22840
v -0.50358 -0.13030 -0.15052
v -0.50588 -0.13022 -0.04972
v -0.50666 -0.12973 0.04148
v -0.50281 -0.12868 0.14620
v -0.48226 -0.13419 0.22641
v -0.45123 -0.13513 0.30240
v -0.44322 -0.06939 -0.29091
v -0.46991 -0.06285 -0.22627
v -0.49519 -0.05758 -0.13922
v -0.50365 -0.04948 -0.05005
v -0.50431 -0.04940 0.04804
v -0.49603 -0.05818 0.13681
v -0.47060 -0.06219 0.22229
v -0.44426 -0.06752 0.28724
v -0.44092 0.06042 -0.28665
v -0.46750 0.05641 -0.22414
v -0.49382 0.05476 -0.13808
v -0.50676 0.05152 -0.04735
v -0.50821 0.05167 0.04962
v -0.49400 0.05496 0.13591
v -0.46735 0.05643 0.22144
v -0.44197 0.05929 0.28361
v -0.45111 0.13360 -0.30228
v -0.48018 0.12943 -0.22829
v -0.50380 0.12754 -0.14965
v -0.50549 0.12969 -0.04895
v -0.50618 0.12961 0.04210
v -0.50329 0.12603 0.14601
v -0.48174 0.13091 0.22606
v -0.45107 0.13164 0.30130
v -0.45071 0.21284 -0.30243
v -0.47976 0.21654 -0.22829
v -0.50364 0.21812 -0.14909
v -0.50535 0.21591 -0.04855
v -0.50591 0.21613 0.04260
v -0.50307 0.21928 0.14618
v -0.48131 0.21537 0.22624
v -0.45084 0.21514 0.30108
v -0.44134 0.28136 -0.28693
v -0.46671 0.28519 -0.22582
v -0.49300 0.28770 -0.13807
v -0.50382 0.29176 -0.05060
v -0.50457 0.29174 0.04783
v -0.49336 0.28767 0.13509
v -0.46798 0.28546 0.22123
v -0.44205 0.28209 0.28419
v -0.35829 -0.28697 -0.38050
v -0.39458 -0.28944 -0.32388
v -0.41933 -0.29400 -0.24733
v -0.42025 -0.29370 0.24545
v -0.39631 -0.28952 0.32000
v -0.36025 -0.28708 0.37789
v -0.37115 -0.21473 -0.39054
v -0.40312 -0.22045 -0.33215
v -0.42921 -0.22666 -0.26726
v -0.42967 -0.23040 0.26471
v -0.40339 -0.21946 0.33001
v -0.37111 -0.21513 0.38952
v -0.37259 -0.13652 -0.39168
v -0.40455 -0.12946 -0.33243
v -0.43014 -0.11779 -0.26979
v -0.43100 -0.11443 0.26687
v -0.40452 -0.13082 0.33010
v -0.37258 -0.13520 0.39043
v -0.36348 -0.06703 -0.38364
v -0.39729 -0.05764 -0.32670
v -0.40951 -0.03809 -0.24354
v -0.38733 -0.01383 -0.13580
v -0.38817 -0.01508 -0.05067
v -0.39229 -0.01468 0.04665
v -0.38640 -0.01510 0.14087
v -0.40818 -0.03824 0.24067
v -0.39847 -0.05733 0.32389
v -0.36497 -0.06821 0.38293
v -0.36026 0.05769 -0.38160
v -0.39589 0.05475 -0.32541
v -0.42000 0.04794 -0.24841
v -0.42133 0.04975 0.24696
v -0.39722 0.05475 0.32235
v -0.36183 0.05708 0.37917
v -0.37209 0.13287 -0.39125
v -0.40427 0.12729 -0.33238
v -0.42994 0.11906 -0.26919
v -0.43035 0.11638 0.26712
v -0.40447 0.12863 0.33043
v -0.37210 0.13178 0.39011
v -0.37194 0.21364 -0.39101
v -0.40403 0.21830 -0.33249
v -0.42994 0.22400 -0.26919
v -0.43035 0.22668 0.26712
v -0.40413 0.21719 0.33023
v -0.37173 0.21458 0.39008
v -0.36102 0.28273 -0.38160
v -0.39555 0.28759 -0.32534
v -0.40854 0.30291 -0.24244
v -0.38733 0.32470 -0.13580
v -0.38817 0.32367 -0.05067
v -0.39229 0.32403 0.04665
v -0.38640 0.32343 0.14087
v -0.40724 0.30296 0.23914
v -0.39707 0.28785 0.32201
v -0.36183 0.28282 0.38064
v -0.25625 -0.28250 -0.45800
v -0.29667 -0.28920 -0.41691
v -0.33280 -0.29430 -0.35560
v -0.33478 -0.29428 0.35322
v -0.29842 -0.28936 0.41448
v -0.25775 -0.28388 0.45575
v -0.27248 -0.21537 -0.46812
v -0.30798 -0.21976 -0.42511
v -0.33700 -0.26550 -0.36500
v -0.30853 -0.22006 0.42270
v -0.27332 -0.21623 0.46687
v -0.27446 -0.13572 -0.46928
v -0.30895 -0.13101 -0.42643
v -0.30966 -0.13078 0.42393
v -0.27580 -0.13557 0.46784
v -0.26221 -0.07393 -0.46254
v -0.30130 -0.05880 -0.41889
v -0.31300 -0.02825 -0.33700
v -0.28527 -0.01814 -0.21714
v -0.30522 -0.02267 -0.12133
v -0.30300 -0.02600 -0.06050
v -0.31487 -0.02237 0.01300
v -0.30500 -0.02285 0.11688
v -0.28474 -0.01866 0.21484
v -0.31382 -0.02591 0.33141
v -0.30303 -0.05799 0.41529
v -0.26344 -0.07256 0.46069
v -0.25850 0.06650 -0.46070
v -0.29893 0.05518 -0.41809
v -0.33318 0.04714 -0.35645
v -0.33478 0.04450 0.35322
v -0.30040 0.05446 0.41524
v -0.25988 0.06419 0.45831
v -0.27370 0.13236 -0.46885
v -0.30871 0.12849 -0.42611
v -0.30954 0.12816 0.42377
v -0.27475 0.13151 0.46751
v -0.27341 0.21486 -0.46859
v -0.30861 0.21731 -0.42586
v -0.30922 0.21769 0.42361
v -0.27444 0.21494 0.46738
v -0.25760 0.27990 -0.45987
v -0.29944 0.28690 -0.41730
v -0.31300 0.31000 -0.33700
v -0.30162 0.32365 -0.23592
v -0.30488 0.31500 -0.14913
v -0.31200 0.30950 -0.05067
v -0.31400 0.30950 0.03533
v -0.30429 0.31436 0.14257
v -0.30145 0.32341 0.23336
v -0.31382 0.31236 0.33141
v -0.30113 0.28745 0.41372
v -0.25976 0.27964 0.45814
v -0.20430 -0.28710 -0.47926
v -0.21211 -0.29410 -0.43854
v -0.21507 -0.29421 0.43586
v -0.20284 -0.28791 0.47655
v -0.20449 -0.21729 -0.49147
v -0.23437 -0.22360 -0.44857
v -0.23785 -0.22728 0.44555
v -0.20380 -0.21682 0.49064
v -0.20601 -0.13442 -0.49307
v -0.23685 -0.12448 -0.44970
v -0.24058 -0.12469 0.44719
v -0.20513 -0.13384 0.49246
v -0.20434 -0.06446 -0.48364
v -0.21412 -0.04250 -0.43358
v -0.21392 -0.01519 -0.32377
v -0.19364 -0.02379 -0.25071
v -0.24100 -0.01550 -0.17550
v -0.24100 -0.01550 0.17450
v -0.19694 -0.02344 0.25076
v -0.21269 -0.01473 0.32323
v -0.21476 -0.04213 0.42935
v -0.20251 -0.06357 0.48186
v -0.20302 0.05781 -0.48117
v -0.21432 0.04887 -0.43900
v -0.21694 0.04968 0.43694
v -0.20234 0.05651 0.47856
v -0.20534 0.13129 -0.49275
v -0.23614 0.12403 -0.44945
v -0.24011 0.12279 0.44666
v -0.20460 0.13090 0.49208
v -0.20543 0.21545 -0.49234
v -0.23572 0.22110 -0.44949
v -0.24014 0.22308 0.44639
v -0.20427 0.21536 0.49162
v -0.20407 0.28336 -0.48130
v -0.21284 0.29932 -0.43266
v -0.21392 0.32365 -0.32377
v -0.21000 0.30950 -0.23550
v -0.21450 0.31117 0.23967
v -0.21269 0.32412 0.32323
v -0.21287 0.30037 0.42815
v -0.20309 0.28452 0.47872
v -0.11769 -0.28945 -0.49607
v -0.11578 -0.28937 0.49652
v -0.11642 -0.21749 -0.51670
v -0.11499 -0.21734 0.51612
v -0.11665 -0.13275 -0.51900
v -0.11585 -0.13344 0.51825
v -0.11479 -0.05992 -0.50305
v -0.11338 -0.01535 -0.40954
v -0.10943 -0.02155 -0.31414
v -0.10758 -0.02155 0.31184
v -0.11107 -0.01437 0.40587
v -0.11414 -0.05934 0.50267
v -0.11645 0.05458 -0.49882
v -0.11420 0.05465 0.49926
v -0.11655 0.12999 -0.51841
v -0.11574 0.13043 0.51778
v -0.11673 0.21613 -0.51798
v -0.11525 0.21561 0.51741
v -0.11456 0.28756 -0.49924
v -0.11338 0.32304 -0.40954
v -0.12100 0.31690 -0.32640
v -0.11950 0.31675 0.32512
v -0.11107 0.32403 0.40587
v -0.11421 0.28747 0.49928
v -0.02518 -0.28915 -0.50952
v -0.02320 -0.28929 0.50895
v -0.02387 -0.21787 -0.52817
v -0.02758 -0.22229 0.52536
v -0.00800 -0.19268 0.54435
v -0.02309 -0.13358 -0.53090
v -0.03052 -0.12583 0.52546
v -0.01040 -0.15344 0.54468
v -0.02488 -0.05895 -0.51510
v -0.01889 -0.01433 -0.41261
v -0.00541 -0.02215 -0.32488
v -0.01082 -0.02215 0.32388
v -0.02262 -0.01442 0.40892
v -0.02494 -0.05988 0.51487
v -0.02529 0.05500 -0.51178
v -0.02345 0.05504 0.51151
v -0.02335 0.13049 -0.53026
v -0.02930 0.12423 0.52597
v -0.01001 0.15208 0.54464
v -0.02374 0.21612 -0.52968
v -0.02843 0.22133 0.52597
v -0.00905 0.19517 0.54448
v -0.02489 0.28791 -0.51183
v -0.01883 0.32417 -0.41261
v -0.01533 0.31450 -0.33750
v -0.03067 0.31450 0.33550
v -0.02262 0.32412 0.40892
v -0.02513 0.28749 0.51116
v 0.06674 -0.28927 -0.50568
v 0.06770 -0.28928 0.50578
v 0.06729 -0.21735 -0.52437
v 0.06772 -0.21899 0.52406
v 0.03027 -0.19157 0.54413
v 0.06808 -0.13330 -0.52681
v 0.06931 -0.13088 0.52566
v 0.03161 -0.15721 0.54429
v 0.06690 -0.05848 -0.51025
v 0.07700 -0.01488 -0.41077
v 0.08875 -0.02231 -0.31031
v 0.08578 -0.02178 0.31522
v 0.06364 -0.01414 0.40529
v 0.06730 -0.06017 0.51130
v 0.06660 0.05471 -0.50804
v 0.06679 0.05533 0.50846
v 0.06796 0.13063 -0.52616
v 0.06865 0.12834 0.52538
v 0.03183 0.15507 0.54430
v 0.06736 0.21572 -0.52581
v 0.06846 0.21739 0.52518
v 0.03043 0.19354 0.54417
v 0.06728 0.28783 -0.50710
v 0.07700 0.32358 -0.41077
v 0.06860 0.31350 -0.32640
v 0.06671 0.31579 0.33571
v 0.06364 0.32443 0.40529
v 0.06674 0.28728 0.50771
v 0.15547 -0.28880 -0.48945
v 0.18738 -0.29419 -0.44885
v 0.18818 -0.29450 0.44800
v 0.15595 -0.28881 0.48754
v 0.15816 -0.21755 -0.50517
v 0.20300 -0.26550 -0.45300
v 0.15953 -0.21797 0.50324
v 0.15929 -0.13352 -0.50720
v 0.15934 -0.13272 0.50550
v 0.15552 -0.06166 -0.49515
v 0.17444 -0.02950 -0.42785
v 0.15792 -0.01858 -0.32917
v 0.18650 -0.02267 -0.25642
v 0.18492 -0.02219 0.25762
v 0.15940 -0.01910 0.32380
v 0.16892 -0.02604 0.42404
v 0.15744 -0.06100 0.49304
v 0.15613 0.05625 -0.49141
v 0.18850 0.04664 -0.44914
v 0.18818 0.04432 0.44800
v 0.15681 0.05595 0.48959
v 0.15869 0.13057 -0.50679
v 0.15953 0.13012 0.50504
v 0.15837 0.21571 -0.50645
v 0.15951 0.21639 0.50450
v 0.15599 0.28583 -0.49184
v 0.17444 0.30887 -0.42785
v 0.15792 0.32042 -0.32917
v 0.18850 0.30950 -0.25450
v 0.17650 0.30950 0.26200
v 0.15940 0.31990 0.32380
v 0.16892 0.31231 0.42404
v 0.15641 0.28610 0.49024
v 0.22823 -0.28722 -0.46936
v 0.26136 -0.29066 -0.43084
v 0.26341 -0.29082 0.42745
v 0.23384 -0.28695 0.46618
v 0.24402 -0.21625 -0.47868
v 0.26284 -0.22220 -0.43767
v 0.26318 -0.22195 0.43344
v 0.24513 -0.21611 0.47677
v 0.24589 -0.13422 -0.47996
v 0.26206 -0.12560 -0.43733
v 0.26330 -0.12860 0.43379
v 0.24587 -0.13447 0.47865
v 0.23373 -0.06765 -0.47318
v 0.26119 -0.05227 -0.43126
v 0.25173 -0.01417 -0.31780
v 0.26100 -0.02169 -0.20975
v 0.26500 -0.02250 -0.15333
v 0.27500 -0.01550 -0.09000
v 0.28200 -0.01550 0.04450
v 0.26833 -0.02250 0.14617
v 0.25762 -0.02238 0.21387
v 0.24623 -0.01396 0.31808
v 0.26057 -0.05023 0.42645
v 0.23865 -0.06628 0.46978
v 0.23162 0.05836 -0.47032
v 0.26160 0.05254 -0.43209
v 0.26313 0.05274 0.42914
v 0.23451 0.05896 0.46865
v 0.24506 0.13126 -0.47959
v 0.26263 0.12493 -0.43780
v 0.26331 0.12769 0.43345
v 0.24621 0.13138 0.47768
v 0.24490 0.21554 -0.47920
v 0.26296 0.22046 -0.43750
v 0.26331 0.21798 0.43321
v 0.24581 0.21509 0.47753
v 0.23129 0.28294 -0.47105
v 0.26004 0.29173 -0.42991
v 0.25173 0.32443 -0.31780
v 0.26143 0.31779 -0.23514
v 0.27367 0.30950 -0.15833
v 0.28033 0.30950 0.14467
v 0.25450 0.31700 0.23837
v 0.24623 0.32465 0.31808
v 0.26040 0.29219 0.42593
v 0.23432 0.28323 0.46887
v 0.33271 -0.28798 -0.39490
v 0.35902 -0.29264 -0.33802
v 0.36260 -0.29238 0.33738
v 0.33354 -0.28770 0.39397
v 0.29800 -0.19100 -0.45700
v 0.33874 -0.21807 -0.40980
v 0.36911 -0.21858 -0.34641
v 0.37000 -0.21816 0.34514
v 0.33827 -0.21867 0.40923
v 0.29938 -0.19665 0.45423
v 0.29737 -0.16075 -0.45763
v 0.33928 -0.13387 -0.41221
v 0.37058 -0.12942 -0.34759
v 0.37093 -0.12722 0.34652
v 0.33937 -0.13257 0.41094
v 0.30005 -0.14860 0.45438
v 0.33674 -0.06292 -0.39853
v 0.35640 -0.04618 -0.33578
v 0.33980 -0.01430 -0.23427
v 0.33314 -0.01868 -0.12336
v 0.34312 -0.02225 -0.05138
v 0.33585 -0.02105 0.02160
v 0.32780 -0.01930 0.12030
v 0.33793 -0.01421 0.22493
v 0.35760 -0.04332 0.33274
v 0.33412 -0.06404 0.40064
v 0.33475 0.05781 -0.39629
v 0.35976 0.04944 -0.33778
v 0.36300 0.04934 0.33704
v 0.33457 0.05752 0.39559
v 0.29729 0.16236 -0.45771
v 0.33902 0.13071 -0.41163
v 0.37014 0.12830 -0.34720
v 0.37043 0.12747 0.34644
v 0.33901 0.12954 0.41062
v 0.30000 0.14756 0.45428
v 0.29800 0.19350 -0.45700
v 0.33904 0.21541 -0.41124
v 0.36981 0.21743 -0.34725
v 0.37051 0.21713 0.34619
v 0.33870 0.21691 0.41033
v 0.29956 0.19919 0.45437
v 0.33549 0.28411 -0.39615
v 0.35517 0.29699 -0.33520
v 0.33980 0.32423 -0.23427
v 0.35177 0.32258 -0.13977
v 0.34312 0.31675 -0.05138
v 0.35110 0.31830 0.04320
v 0.34545 0.32195 0.13736
v 0.33793 0.32436 0.22493
v 0.35718 0.29807 0.33199
v 0.33292 0.28427 0.39758
v 0.41233 -0.28777 -0.31229
v 0.44666 -0.29025 -0.23771
v 0.46357 -0.29437 -0.14443
v 0.46516 -0.29398 0.13897
v 0.44684 -0.29023 0.23643
v 0.41445 -0.28758 0.30971
v 0.39350 -0.21105 -0.37282
v 0.42747 -0.21765 -0.31747
v 0.45586 -0.21929 -0.24140
v 0.47219 -0.24175 -0.17100
v 0.47285 -0.24104 0.16885
v 0.45708 -0.22001 0.23585
v 0.42940 -0.21816 0.31296
v 0.39412 -0.20847 0.37207
v 0.39462 -0.13746 -0.37351
v 0.42977 -0.13283 -0.31762
v 0.45690 -0.12985 -0.24150
v 0.47220 -0.10170 -0.17800
v 0.47312 -0.10225 0.17500
v 0.45781 -0.13000 0.23635
v 0.43156 -0.13296 0.31341
v 0.39467 -0.14012 0.37346
v 0.38833 -0.09183 -0.37067
v 0.41683 -0.06363 -0.31517
v 0.44737 -0.05469 -0.23951
v 0.45508 -0.03879 -0.14365
v 0.42567 -0.01533 -0.04908
v 0.42440 -0.01490 0.04000
v 0.45600 -0.03815 0.13937
v 0.44847 -0.05416 0.23497
v 0.41956 -0.06368 0.31118
v 0.38940 -0.09110 0.36800
v 0.41353 0.05667 -0.31366
v 0.44794 0.05355 -0.23874
v 0.46450 0.04785 -0.14562
v 0.46565 0.04729 0.14050
v 0.44857 0.05371 0.23709
v 0.41585 0.05732 0.31110
v 0.39419 0.13488 -0.37321
v 0.42926 0.12970 -0.31745
v 0.45663 0.12846 -0.24168
v 0.47242 0.10500 -0.17650
v 0.47350 0.10510 0.17260
v 0.45761 0.12835 0.23600
v 0.43086 0.12990 0.31334
v 0.39422 0.13641 0.37293
v 0.39384 0.21233 -0.37308
v 0.42865 0.21637 -0.31767
v 0.45639 0.21722 -0.24147
v 0.47242 0.23817 -0.17650
v 0.47350 0.23810 0.17260
v 0.45760 0.21723 0.23599
v 0.43063 0.21647 0.31309
v 0.39431 0.20977 0.37248
v 0.41349 0.28494 -0.31394
v 0.44603 0.28988 -0.23846
v 0.45428 0.30191 -0.14254
v 0.42567 0.32300 -0.04908
v 0.42440 0.32343 0.04000
v 0.45519 0.30254 0.13836
v 0.44697 0.29015 0.23446
v 0.41720 0.28433 0.30995
v 0.48192 -0.28682 -0.20084
v 0.50000 -0.28758 -0.13688
v 0.50756 -0.28934 -0.04856
v 0.50783 -0.28932 0.04399
v 0.50118 -0.28745 0.13489
v 0.48246 -0.28717 0.19783
v 0.49253 -0.21685 -0.22202
v 0.51157 -0.21686 -0.13815
v 0.52641 -0.21787 -0.04629
v 0.52605 -0.21736 0.04535
v 0.51201 -0.21659 0.13526
v 0.49370 -0.21689 0.21891
v 0.49418 -0.13542 -0.22360
v 0.51321 -0.13348 -0.13897
v 0.52872 -0.13263 -0.04604
v 0.52841 -0.13405 0.04607
v 0.51374 -0.13430 0.13649
v 0.49464 -0.13432 0.22191
v 0.48613 -0.07006 -0.20975
v 0.50434 -0.06322 -0.13717
v 0.51358 -0.06005 -0.04766
v 0.51396 -0.05959 0.04341
v 0.50549 -0.06397 0.13373
v 0.48704 -0.06844 0.20534
v 0.48395 0.06050 -0.20346
v 0.50181 0.05711 -0.13618
v 0.51011 0.05514 -0.04786
v 0.51058 0.05535 0.04360
v 0.50246 0.05754 0.13432
v 0.48492 0.05979 0.19955
v 0.49359 0.13167 -0.22297
v 0.51282 0.13082 -0.13863
v 0.52829 0.13010 -0.04587
v 0.52791 0.13116 0.04578
v 0.51340 0.13132 0.13590
v 0.49426 0.13130 0.22096
v 0.49328 0.21481 -0.22332
v 0.51237 0.21551 -0.13878
v 0.52757 0.21632 -0.04646
v 0.52733 0.21516 0.04554
v 0.51299 0.21507 0.13561
v 0.49414 0.21575 0.22046
v 0.48463 0.28023 -0.20437
v 0.50203 0.28446 -0.13693
v 0.51029 0.28695 -0.04773
v 0.51091 0.28693 0.04364
v 0.50288 0.28405 0.13432
v 0.48484 0.28168 0.20147
usemtl m007
f 185 181 182
f 185 182 186
f 179 182 208
f 208 182 181
f 208 181 178
f 178 207 208
f 178 181 207
f 181 215 216
f 181 216 182
f 182 216 215
f 182 215 181
f 185 223 215
f 185 215 181
f 182 216 224
f 182 224 186
f 181 215 207
f 208 216 182
f 181 215 223
f 181 223 185
f 185 186 190
f 185 190 189
f 232 231 189
f 232 189 190
f 185 186 224
f 185 224 223
f 186 185 223
f 186 223 224
f 190 186 224
f 190 224 232
f 185 189 231
f 185 231 223
f 189 185 223
f 189 223 231
f 186 224 216
f 186 216 182
f 186 190 232
f 186 232 224
f 186 182 183
f 186 183 187
f 209 217 216
f 209 216 208
f 217 183 182
f 217 182 216
f 183 217 216
f 183 216 182
f 183 217 225
f 183 225 187
f 186 187 191
f 186 191 190
f 190 191 233
f 190 233 232
f 186 187 225
f 186 225 224
f 187 186 224
f 187 224 225
f 191 187 225
f 191 225 233
f 187 225 217
f 187 217 183
f 187 233 191
f 187 225 233
f 225 217 218
f 225 218 226
f 210 218 217
f 210 217 209
f 225 226 234
f 225 234 233
f 210 271 218
f 226 217 218
f 226 218 219
f 226 219 227
f 211 219 218
f 211 218 210
f 219 218 277
f 210 271 211
f 218 277 271
f 211 271 277
f 211 277 219
f 210 271 277
f 210 277 218
f 226 227 235
f 226 235 234
f 227 283 226
f 235 227 283
f 235 283 293
f 234 235 293
f 272 278 219
f 219 211 272
f 227 284 278
f 227 278 219
f 219 278 284
f 219 284 227
f 219 278 277
f 227 226 218
f 227 218 219
f 211 271 272
f 219 277 271
f 219 271 211
f 227 294 235
f 227 284 294
f 227 283 284
f 235 227 284
f 235 284 294
f 235 294 293
f 227 235 293
f 227 293 283
f 284 285 295
f 284 295 294
f 295 285 294
f 294 285 284
f 284 278 279
f 284 279 285
f 273 279 278
f 273 278 272
f 285 284 278
f 285 278 279
f 279 278 327
f 279 327 273
f 273 328 333
f 273 333 279
f 273 327 328
f 273 272 327
f 273 327 278
f 295 285 337
f 295 337 349
f 295 348 294
f 295 349 348
f 285 279 333
f 285 333 337
f 328 279 273
f 279 328 333
f 279 333 337
f 279 337 285
f 285 337 349
f 285 295 349
f 337 333 334
f 337 334 338
f 337 338 350
f 337 350 349
f 380 384 334
f 380 334 329
f 329 334 333
f 329 333 328
f 334 383 384
f 334 383 333
f 338 337 333
f 338 333 334
f 334 383 387
f 334 387 338
f 329 379 380
f 334 383 379
f 334 379 329
f 380 379 383
f 380 383 384
f 328 379 329
f 329 379 383
f 329 383 334
f 338 388 398
f 338 398 350
f 338 388 387
f 338 337 387
f 350 398 397
f 398 388 387
f 398 387 397
f 338 350 397
f 338 397 387
f 349 350 397
f 350 338 387
f 350 387 397
f 338 350 349
f 338 349 337
f 338 334 384
f 338 384 388
f 384 383 379
f 384 379 380
f 338 387 383
f 338 383 334
f 388 398 397
f 388 397 387
f 420 384 380
f 384 420 422
f 384 422 424
f 384 424 388
f 388 424 430
f 388 430 398
f 388 384 422
f 388 422 424
f 444 422 420
f 422 444 446
f 424 456 430
f 424 449 456
f 449 446 447
f 449 447 450
f 424 422 446
f 424 446 449
f 447 446 474
f 447 474 475
f 450 447 475
f 450 475 478
f 472 474 446
f 472 446 444
f 475 474 446
f 475 446 447
f 450 449 446
f 450 446 447
f 475 474 477
f 475 477 478
f 477 449 450
f 477 450 478
f 449 477 484
f 449 484 456
f 478 450 449
f 478 449 477
f 478 475 474
f 478 474 477
f 477 474 505
f 477 505 507
f 502 505 474
f 474 472 502
f 477 507 515
f 477 515 484
f 507 505 539
f 507 539 543
f 535 539 505
f 535 505 502
f 535 501 534
f 502 501 535
f 505 501 502
f 535 534 538
f 535 538 539
f 507 543 555
f 507 555 515
f 555 554 514
f 515 555 514
f 539 535 534
f 539 538 542
f 539 542 543
f 539 538 534
f 543 507 505
f 543 505 539
f 555 543 542
f 555 542 554
f 543 555 554
f 543 554 542
f 586 587 539
f 543 539 587
f 543 587 593
f 581 538 534
f 538 586 539
f 538 581 586
f 587 538 539
f 586 538 587
f 543 542 538
f 543 538 539
f 587 538 542
f 587 542 593
f 543 593 592
f 543 592 603
f 543 603 555
f 555 603 554
f 543 592 542
f 593 543 542
f 592 593 542
f 603 592 542
f 603 542 554
f 593 587 586
f 593 586 592
f 593 542 538
f 593 538 587
f 586 538 534
f 586 534 581
f 592 603 554
f 592 554 542
f 586 580 581
f 581 580 585
f 581 585 586
f 603 592 591
f 603 591 602
f 651 643 642
f 651 642 650
f 651 586 643
f 592 586 651
f 643 586 642
f 586 580 635
f 586 635 642
f 642 585 643
f 651 591 585
f 651 585 643
f 642 585 591
f 642 591 650
f 642 585 580
f 642 580 635
f 635 580 585
f 635 585 642
f 643 585 586
f 643 585 591
f 643 591 651
f 586 585 580
f 603 660 602
f 660 603 661
f 592 651 661
f 592 661 603
f 651 650 660
f 651 660 661
f 650 651 591
f 650 660 602
f 650 602 591
f 651 592 591
f 660 650 591
f 660 591 602
f 592 603 602
f 592 602 591
f 650 585 642
f 634 641 642
f 642 641 649
f 642 649 650
f 642 634 635
f 635 634 641
f 635 641 642
f 650 649 659
f 650 659 660
f 660 650 649
f 660 649 659
f 697 703 634
f 634 703 641
f 703 641 642
f 650 642 641
f 650 641 649
f 649 641 703
f 649 703 709
f 709 649 641
f 709 641 703
f 697 634 641
f 697 641 703
f 650 649 709
f 649 709 659
f 709 715 659
f 715 709 649
f 715 649 659
f 696 703 697
f 703 696 702
f 703 640 702
f 703 641 640
f 703 702 641
f 703 702 708
f 703 708 709
f 697 633 696
f 703 641 633
f 703 633 697
f 696 633 640
f 696 640 702
f 697 634 633
f 697 633 641
f 709 708 714
f 709 714 715
f 709 708 648
f 709 648 649
f 709 649 708
f 714 708 658
f 715 714 658
f 715 658 659
f 709 703 702
f 709 702 708
f 702 633 696
f 702 640 633
f 695 702 696
f 702 695 701
f 708 707 713
f 708 713 714
f 708 702 701
f 708 701 707
f 694 700 701
f 694 701 695
f 707 706 712
f 707 712 713
f 706 700 699
f 706 699 705
f 693 699 700
f 693 700 694
f 706 705 711
f 706 711 712
f 699 632 693
f 693 632 639
f 693 639 699
f 705 699 698
f 705 698 704
f 692 698 699
f 692 699 693
f 698 639 638
f 699 639 698
f 698 638 699
f 692 632 631
f 693 632 692
f 699 639 632
f 692 631 638
f 692 638 698
f 705 704 710
f 705 710 711
f 704 646 647
f 705 704 647
f 704 705 646
f 710 654 655
f 710 704 646
f 710 646 654
f 711 710 655
f 705 711 655
f 705 655 647
f 711 705 647
f 711 647 655
f 698 631 638
f 698 692 631
f 704 646 638
f 704 638 698
f 698 638 646
f 698 646 704
f 704 705 699
f 704 699 698
f 704 710 654
f 704 654 646
f 637 638 698
f 646 638 637
f 646 637 645
f 630 638 631
f 638 630 637
f 704 646 645
f 646 645 653
f 646 653 654
f 630 579 637
f 645 646 638
f 645 638 637
f 637 638 631
f 637 631 630
f 645 653 654
f 645 654 646
f 636 584 637
f 637 584 590
f 637 590 645
f 637 584 579
f 630 579 584
f 630 584 637
f 644 645 590
f 653 645 590
f 653 590 595
f 645 653 595
f 645 595 590
f 644 583 589
f 644 636 583
f 645 637 636
f 645 636 644
f 578 583 637
f 578 637 579
f 583 636 637
f 583 584 636
f 644 590 584
f 644 584 636
f 583 584 579
f 583 579 578
f 645 590 584
f 645 584 637
f 636 584 590
f 636 590 644
f 578 579 584
f 578 584 583
f 653 594 595
f 644 594 652
f 652 594 653
f 644 589 594
f 644 652 653
f 589 644 590
f 589 594 595
f 589 595 590
f 594 589 590
f 594 590 595
f 644 653 595
f 644 595 590
f 578 533 583
f 583 537 536
f 533 537 583
f 541 588 589
f 583 537 541
f 583 541 589
f 540 541 589
f 545 589 541
f 589 545 594
f 541 540 545
f 594 589 541
f 594 541 545
f 536 582 583
f 588 582 536
f 588 536 540
f 533 536 537
f 536 533 532
f 588 583 582
f 540 541 537
f 540 537 536
f 536 537 541
f 536 541 540
f 532 533 537
f 532 537 536
f 588 541 537
f 588 537 583
f 588 540 589
f 544 540 541
f 544 541 545
f 540 544 545
f 499 536 532
f 536 499 503
f 536 503 506
f 536 506 540
f 532 500 499
f 536 504 500
f 536 500 532
f 499 500 503
f 532 533 500
f 532 500 537
f 540 506 508
f 540 508 544
f 544 508 509
f 544 509 545
f 540 536 503
f 540 503 506
f 471 503 499
f 503 471 473
f 506 476 479
f 506 479 508
f 506 503 473
f 506 473 476
f 443 445 473
f 443 473 471
f 479 476 448
f 479 448 451
f 448 445 421
f 448 421 423
f 419 421 445
f 419 445 443
f 448 423 425
f 448 425 451
f 423 421 381
f 423 381 385
f 377 381 421
f 377 421 419
f 377 419 378
f 423 385 389
f 423 389 425
f 389 390 425
f 381 378 377
f 377 378 382
f 377 382 381
f 385 381 330
f 385 330 335
f 324 330 381
f 324 381 377
f 377 325 324
f 330 324 325
f 330 382 331
f 381 382 330
f 330 382 386
f 330 386 335
f 377 378 325
f 381 382 378
f 325 378 382
f 325 382 330
f 385 335 339
f 385 339 389
f 335 336 386
f 385 335 386
f 339 335 386
f 339 386 390
f 339 340 390
f 389 339 390
f 385 389 390
f 385 390 386
f 389 385 386
f 389 386 390
f 335 330 331
f 335 331 336
f 325 331 330
f 335 386 382
f 335 382 330
f 330 331 336
f 330 336 335
f 330 382 378
f 330 378 325
f 335 336 340
f 335 340 339
f 336 280 286
f 336 286 340
f 274 268 269
f 274 331 268
f 280 336 331
f 280 331 274
f 268 326 269
f 274 332 326
f 274 326 268
f 269 275 274
f 274 331 336
f 274 336 280
f 325 326 268
f 331 325 268
f 268 326 331
f 286 280 281
f 286 281 287
f 286 287 341
f 286 280 340
f 286 341 340
f 280 340 336
f 280 274 275
f 280 275 281
f 274 275 281
f 274 281 280
f 280 281 287
f 280 287 286
f 281 275 212
f 281 212 220
f 275 269 204
f 275 204 212
f 204 270 275
f 269 270 204
f 281 220 228
f 281 228 287
f 287 228 288
f 205 213 212
f 212 204 205
f 212 276 275
f 212 213 276
f 220 281 275
f 220 275 212
f 212 213 221
f 212 221 220
f 212 276 270
f 212 270 205
f 205 270 276
f 205 276 213
f 204 270 205
f 212 275 270
f 212 270 204
f 205 276 212
f 229 220 221
f 220 229 228
f 220 281 282
f 220 282 221
f 228 229 288
f 220 228 288
f 220 288 282
f 228 220 282
f 228 282 288
f 220 228 287
f 220 287 281
f 220 212 213
f 220 213 221
f 213 270 205
f 206 213 205
f 213 206 214
f 213 214 222
f 213 222 221
f 221 222 230
f 221 230 229
f 222 214 180
f 222 180 184
f 221 213 214
f 221 214 222
f 207 215 214
f 207 214 206
f 215 181 180
f 215 180 214
f 184 222 214
f 184 214 180
f 180 215 223
f 180 223 184
f 184 185 189
f 184 189 188
f 188 189 231
f 188 231 230
f 184 188 230
f 222 184 188
f 222 188 230
f 184 185 223
f 184 223 222
f 184 230 222
f 184 180 181
f 184 181 185
f 184 223 215
f 184 215 180
f 394 347 395
f 347 394 346
f 394 345 346
f 393 343 344
f 393 342 343
f 345 344 343
f 342 393 392
f 548 547 511
f 550 599 548
f 550 548 549
f 599 597 548
f 547 548 597
f 551 552 600
f 599 551 600
f 599 550 551
f 552 551 512
f 240 193 192
f 193 196 195
f 193 195 192
f 192 239 240
f 195 247 248
f 195 248 196
f 196 248 247
f 196 247 195
f 195 247 239
f 195 239 192
f 193 240 248
f 193 248 196
f 192 239 247
f 192 247 195
f 199 200 203
f 199 203 202
f 264 263 202
f 264 202 203
f 199 200 256
f 199 256 255
f 200 199 255
f 200 255 256
f 196 248 256
f 196 256 200
f 199 202 263
f 199 263 255
f 203 200 256
f 203 256 264
f 195 247 255
f 195 255 199
f 202 199 255
f 202 255 263
f 200 199 195
f 200 195 196
f 199 255 247
f 199 247 195
f 196 248 240
f 196 240 193
f 200 203 264
f 200 264 256
f 200 256 248
f 200 248 196
f 241 197 196
f 241 196 240
f 196 248 249
f 196 249 197
f 197 249 248
f 197 248 196
f 241 249 197
f 200 201 265
f 200 265 264
f 200 201 257
f 200 257 256
f 201 200 256
f 201 256 257
f 197 249 257
f 197 257 201
f 265 201 257
f 201 200 196
f 201 196 197
f 201 257 249
f 201 249 197
f 242 250 249
f 242 249 241
f 257 249 250
f 257 250 258
f 257 258 266
f 257 266 265
f 243 251 242
f 242 251 250
f 251 250 305
f 242 299 243
f 250 299 242
f 243 299 305
f 243 305 251
f 259 267 266
f 258 259 266
f 259 311 258
f 251 250 258
f 251 258 259
f 266 267 321
f 258 266 321
f 267 259 311
f 267 311 321
f 259 258 250
f 259 250 251
f 300 306 251
f 300 251 243
f 251 306 305
f 243 299 300
f 251 305 299
f 251 299 243
f 243 300 306
f 243 306 251
f 259 312 322
f 259 322 267
f 251 306 312
f 251 312 259
f 259 311 312
f 267 322 321
f 259 267 321
f 259 321 311
f 267 259 312
f 267 312 322
f 259 312 306
f 259 306 251
f 306 300 307
f 322 312 313
f 301 307 300
f 301 300 354
f 301 355 359
f 301 359 307
f 301 354 355
f 301 300 306
f 301 306 307
f 307 313 312
f 313 323 322
f 323 374 322
f 323 313 363
f 323 363 375
f 323 375 374
f 307 306 312
f 323 313 312
f 323 312 322
f 313 312 306
f 313 306 307
f 307 301 355
f 307 359 355
f 375 323 313
f 307 359 363
f 307 363 313
f 313 375 363
f 313 363 359
f 313 359 307
f 359 355 360
f 375 363 364
f 360 359 363
f 360 363 364
f 364 363 359
f 364 359 360
f 360 402 406
f 402 360 356
f 356 360 355
f 360 405 406
f 360 405 359
f 356 401 402
f 360 405 401
f 360 401 356
f 402 401 405
f 402 405 406
f 355 401 356
f 356 401 405
f 356 405 360
f 418 364 410
f 364 418 376
f 364 376 375
f 364 410 409
f 364 363 409
f 360 405 409
f 360 409 364
f 376 418 417
f 364 376 417
f 364 417 409
f 418 410 409
f 418 409 417
f 375 376 417
f 376 364 409
f 376 409 417
f 406 401 402
f 406 405 401
f 360 406 410
f 360 410 364
f 410 418 417
f 410 417 409
f 364 409 405
f 364 405 360
f 406 402 432
f 406 432 434
f 442 418 410
f 442 410 436
f 406 434 436
f 406 436 410
f 410 436 434
f 410 434 406
f 460 432 458
f 432 460 434
f 470 442 463
f 436 463 442
f 434 460 436
f 463 461 464
f 460 463 436
f 461 460 463
f 461 460 488
f 461 488 489
f 486 488 460
f 486 460 458
f 489 488 460
f 489 460 461
f 491 463 464
f 491 464 492
f 463 491 498
f 463 498 470
f 492 464 463
f 492 463 491
f 489 488 491
f 489 491 492
f 492 464 461
f 492 461 489
f 464 463 460
f 464 460 461
f 492 491 488
f 492 488 489
f 519 521 488
f 519 488 486
f 491 523 531
f 491 531 498
f 523 491 488
f 523 488 521
f 559 563 521
f 559 521 519
f 559 518 558
f 519 518 559
f 559 558 563
f 523 521 563
f 523 563 567
f 523 567 577
f 523 577 531
f 577 576 530
f 531 577 530
f 577 567 576
f 563 562 558
f 559 558 562
f 559 562 563
f 563 562 566
f 563 566 567
f 567 576 566
f 577 567 566
f 577 566 576
f 612 613 563
f 612 558 607
f 558 612 563
f 563 562 612
f 613 562 563
f 612 562 613
f 607 558 562
f 607 562 612
f 567 619 618
f 629 576 618
f 567 618 576
f 567 618 566
f 619 567 566
f 618 619 566
f 613 562 566
f 613 566 619
f 629 618 566
f 629 566 576
f 619 567 563
f 619 563 613
f 567 566 562
f 567 562 563
f 612 562 558
f 613 612 618
f 613 618 619
f 618 576 566
f 619 612 613
f 619 566 562
f 619 562 612
f 607 606 611
f 607 611 612
f 629 618 617
f 629 617 628
f 675 607 667
f 675 667 674
f 607 675 612
f 607 606 667
f 674 611 675
f 674 611 606
f 674 606 667
f 675 611 612
f 612 611 606
f 612 606 607
f 667 606 611
f 667 611 674
f 612 675 683
f 612 683 618
f 629 691 628
f 691 629 683
f 691 683 682
f 618 683 629
f 682 683 617
f 674 617 682
f 682 691 628
f 682 628 617
f 683 618 617
f 675 611 617
f 675 617 683
f 618 629 628
f 618 628 617
f 691 682 617
f 691 617 628
f 682 683 675
f 682 675 674
f 683 617 611
f 683 611 675
f 674 666 673
f 666 674 667
f 667 666 673
f 667 673 674
f 690 682 681
f 682 690 691
f 674 673 681
f 674 681 682
f 691 682 681
f 691 681 690
f 721 727 666
f 727 673 674
f 673 666 727
f 721 666 673
f 721 673 727
f 733 739 690
f 682 681 733
f 681 673 727
f 690 681 733
f 727 681 733
f 739 733 681
f 739 681 690
f 733 681 673
f 733 673 727
f 682 681 673
f 682 673 674
f 727 721 720
f 727 720 726
f 727 672 726
f 727 673 672
f 727 726 673
f 721 665 720
f 721 666 665
f 720 665 672
f 720 672 726
f 738 739 733
f 738 733 732
f 733 732 680
f 733 680 681
f 733 681 732
f 727 726 732
f 727 732 733
f 739 738 689
f 739 689 690
f 738 732 680
f 738 680 689
f 726 672 665
f 726 665 720
f 732 738 689
f 732 689 680
f 733 732 726
f 733 726 727
f 726 720 719
f 726 719 725
f 737 738 732
f 737 732 731
f 726 725 732
f 726 725 731
f 726 731 732
f 732 731 725
f 718 724 719
f 719 724 725
f 730 736 737
f 731 730 737
f 731 725 724
f 717 723 724
f 717 724 718
f 730 729 735
f 730 735 736
f 723 730 729
f 729 730 724
f 729 724 723
f 717 664 723
f 735 729 686
f 716 722 723
f 716 723 717
f 722 671 670
f 723 671 722
f 722 670 723
f 716 664 663
f 717 664 716
f 723 671 664
f 716 663 670
f 716 670 722
f 717 664 671
f 717 671 723
f 729 728 734
f 729 734 735
f 728 678 679
f 729 728 679
f 728 729 678
f 722 723 729
f 722 729 728
f 734 685 686
f 735 734 686
f 729 686 679
f 734 728 678
f 734 678 685
f 735 729 679
f 735 679 686
f 728 729 723
f 728 723 722
f 722 716 663
f 722 670 663
f 685 734 728
f 722 670 678
f 722 678 728
f 728 685 678
f 728 678 670
f 728 670 722
f 669 670 722
f 669 663 662
f 663 669 670
f 662 663 670
f 662 670 669
f 728 678 677
f 684 685 677
f 678 677 685
f 669 670 678
f 669 678 677
f 684 677 678
f 684 678 685
f 677 678 670
f 677 670 669
f 668 610 669
f 669 610 605
f 669 605 662
f 662 605 610
f 662 610 669
f 676 677 616
f 669 610 616
f 669 616 677
f 677 684 621
f 677 621 616
f 684 677 616
f 684 616 621
f 604 662 605
f 604 609 668
f 604 668 662
f 668 669 662
f 609 610 668
f 609 610 605
f 609 605 604
f 604 605 610
f 604 610 609
f 615 668 609
f 668 615 676
f 669 668 676
f 669 676 677
f 684 620 621
f 676 615 620
f 676 620 684
f 676 684 677
f 615 676 616
f 615 620 621
f 615 621 616
f 668 610 616
f 668 616 676
f 620 615 616
f 620 616 621
f 676 616 610
f 676 610 668
f 677 616 610
f 677 610 669
f 609 561 560
f 557 561 609
f 557 609 604
f 561 608 609
f 604 557 561
f 604 561 609
f 564 565 615
f 615 565 569
f 615 569 620
f 608 561 565
f 608 565 615
f 620 615 565
f 620 565 569
f 615 609 608
f 560 608 609
f 556 560 557
f 560 561 557
f 556 557 561
f 556 561 560
f 614 564 615
f 608 560 564
f 608 564 614
f 564 568 569
f 560 561 565
f 560 565 564
f 564 569 565
f 568 564 565
f 568 565 569
f 614 615 565
f 564 565 561
f 564 561 560
f 614 565 561
f 614 561 608
f 560 556 516
f 560 516 520
f 556 517 516
f 560 517 556
f 556 557 517
f 524 568 564
f 524 564 522
f 560 520 522
f 560 522 564
f 568 524 525
f 564 568 525
f 568 525 569
f 564 522 520
f 564 520 560
f 520 516 485
f 520 485 487
f 493 524 522
f 493 522 490
f 520 487 522
f 520 487 490
f 520 490 522
f 522 490 487
f 457 459 485
f 485 459 487
f 462 465 493
f 493 490 462
f 490 487 459
f 431 433 459
f 431 459 457
f 462 435 437
f 462 437 465
f 433 462 435
f 435 462 459
f 435 459 433
f 399 403 433
f 399 433 431
f 399 431 400
f 435 407 411
f 435 411 437
f 403 435 407
f 411 412 437
f 407 435 433
f 407 433 403
f 399 400 403
f 411 407 412
f 351 357 403
f 351 403 399
f 399 352 351
f 357 404 358
f 403 404 357
f 399 400 352
f 403 404 400
f 351 400 404
f 351 404 357
f 352 400 351
f 399 400 404
f 399 404 403
f 407 361 365
f 407 365 411
f 361 362 408
f 407 361 408
f 357 404 408
f 357 408 361
f 365 366 412
f 411 365 412
f 407 412 408
f 365 361 408
f 365 408 412
f 411 407 408
f 411 408 412
f 361 407 403
f 361 403 357
f 357 352 358
f 352 357 351
f 357 358 400
f 357 400 351
f 366 361 362
f 361 366 365
f 357 358 362
f 357 362 361
f 361 365 412
f 361 412 362
f 361 362 358
f 361 358 357
f 361 408 404
f 361 404 357
f 358 352 302
f 366 362 308
f 302 358 362
f 302 352 296
f 296 353 297
f 302 353 296
f 296 297 303
f 296 303 302
f 352 353 296
f 296 352 358
f 296 358 302
f 308 314 366
f 314 315 367
f 308 314 367
f 314 308 309
f 314 309 315
f 302 362 308
f 314 367 366
f 314 308 362
f 314 362 366
f 308 362 358
f 308 358 302
f 302 297 303
f 297 302 296
f 315 308 309
f 308 315 314
f 302 303 309
f 302 309 308
f 308 309 303
f 308 303 302
f 244 297 236
f 297 244 303
f 236 297 303
f 236 303 244
f 236 298 297
f 309 303 244
f 309 244 252
f 260 315 252
f 309 252 315
f 315 260 316
f 260 252 309
f 260 309 315
f 237 245 244
f 237 244 236
f 244 304 303
f 244 245 304
f 236 298 237
f 244 304 298
f 244 298 236
f 237 298 245
f 236 298 304
f 236 304 244
f 252 253 261
f 252 261 260
f 252 309 310
f 252 310 253
f 244 245 253
f 244 253 252
f 260 261 316
f 252 260 316
f 252 316 310
f 261 253 316
f 260 252 310
f 260 310 316
f 252 309 303
f 252 303 244
f 252 253 245
f 252 245 244
f 245 237 238
f 245 238 246
f 262 261 253
f 262 253 254
f 245 246 254
f 245 254 253
f 194 246 254
f 194 254 198
f 198 254 246
f 198 246 194
f 253 254 246
f 253 246 245
f 239 195 194
f 239 194 238
f 238 194 246
f 194 247 195
f 194 246 247
f 198 199 263
f 198 263 262
f 254 198 262
f 198 199 255
f 198 255 254
f 194 247 255
f 194 255 198
f 195 199 198
f 198 255 247
f 198 247 195
f 463 436 434
f 463 434 460
f 199 254 246
f 199 246 195
f 564 615 609
f 564 609 560
f 730 731 725
f 730 725 724
f 733 682 674
f 733 674 727
f 618 567 563
f 618 563 612
f 249 250 258
f 249 258 257
f 487 459 462
f 487 462 490
f 525 526 570
f 669 609 615
f 669 615 677
f 689 626 627
f 521 563 567
f 521 567 523
f 460 488 491
f 460 491 463
f 417 418 442
f 417 375 418
f 440 415 416
f 322 375 374
f 373 415 372
f 321 266 322
f 320 372 371
f 320 371 319
f 319 371 370
f 319 370 318
f 318 370 369
f 315 261 316
f 368 369 414
f 366 315 367
f 368 414 413
f 413 414 439
f 569 524 525
f 526 527 570
f 570 527 571
f 571 572 623
f 686 735 685
f 736 735 686
f 689 738 737
f 690 738 689
f 626 573 627
f 628 691 690
f 627 573 574
f 576 629 628
f 574 528 575
f 575 528 529
f 416 374 417
f 374 373 321
f 319 318 263
f 319 263 264
f 316 368 367
f 525 570 569
f 570 622 621
f 622 623 686
f 689 627 690
f 575 530 576
f 469 441 442
f 469 442 470
f 441 469 440
f 440 469 468
f 441 417 442
f 417 441 416
f 416 441 440
f 417 374 375
f 373 374 416
f 373 416 415
f 374 321 322
f 321 373 320
f 320 373 372
f 321 320 266
f 320 265 266
f 320 319 265
f 319 264 265
f 318 317 262
f 318 262 263
f 317 318 369
f 317 316 262
f 262 316 261
f 316 317 368
f 368 317 369
f 316 367 315
f 413 367 368
f 367 413 366
f 413 412 366
f 412 413 439
f 412 438 437
f 438 412 439
f 438 466 465
f 438 465 437
f 466 438 439
f 466 439 467
f 466 494 493
f 466 493 465
f 494 466 467
f 494 467 495
f 494 525 524
f 494 524 493
f 525 494 526
f 526 494 495
f 569 570 621
f 569 621 620
f 622 570 571
f 621 622 684
f 622 685 684
f 622 571 623
f 622 686 685
f 686 687 736
f 687 686 623
f 687 623 624
f 687 688 737
f 687 737 736
f 688 687 624
f 688 624 625
f 688 689 737
f 689 688 625
f 689 625 626
f 627 628 690
f 628 574 575
f 575 576 628
f 530 575 529
f 497 530 529
f 497 529 496
f 530 497 498
f 530 498 531
f 497 469 470
f 497 470 498
f 469 497 496
f 469 496 468
f 628 627 574
f 470 442 436
f 470 436 463
f 402 432 434
f 402 434 406
f 418 375 364
f 355 402 406
f 355 406 360
f 265 200 257
f 240 241 249
f 240 249 196
f 263 262 254
f 263 254 199
f 238 239 195
f 238 195 246
f 237 238 246
f 237 246 245
f 261 315 252
f 297 237 245
f 297 245 244
f 412 407 361
f 399 400 357
f 399 357 403
f 431 399 403
f 431 403 433
f 457 431 433
f 457 433 459
f 569 615 564
f 557 560 609
f 685 735 729
f 685 729 728
f 717 663 722
f 717 722 723
f 736 737 731
f 736 731 730
f 629 576 567
f 629 567 618
f 486 519 521
f 486 521 488
f 267 266 258
f 267 258 259
f 241 242 250
f 241 250 249
f 239 240 196
f 239 196 195
f 264 263 199
f 264 199 200
f 400 352 358
f 366 412 361
f 465 493 490
f 465 490 462
f 516 485 487
f 516 487 520
f 556 516 520
f 556 520 560
f 662 604 609
f 662 609 669
f 620 684 677
f 620 677 615
f 718 717 723
f 718 723 724
f 720 719 725
f 720 725 726
f 721 720 726
f 721 726 727
f 606 674 675
f 691 628 683
f 519 559 563
f 519 563 521
f 458 486 488
f 458 488 460
f 628 618 683
f 607 606 675
f 323 375 322
f 267 322 266
f 314 315 366
f 568 524 569
f 738 690 739
f 449 424 422
f 449 422 446
f 388 338 334
f 388 334 384
f 187 186 182
f 187 182 183
f 185 222 214
f 185 214 181
f 335 385 381
f 335 381 330
f 385 423 421
f 385 421 381
f 423 448 445
f 423 445 421
f 540 589 583
f 540 583 536
f 706 707 701
f 706 701 700
f 709 650 642
f 709 642 703
f 592 543 539
f 592 539 586
f 507 477 474
f 507 474 505
f 217 226 225
f 181 182 186
f 181 186 185
f 473 445 448
f 473 448 476
f 503 473 476
f 503 476 506
f 509 510 546
f 637 583 589
f 637 589 645
f 700 699 705
f 700 705 706
f 702 701 707
f 702 707 708
f 658 600 601
f 643 642 650
f 643 650 651
f 446 474 477
f 446 477 449
f 397 398 430
f 397 349 398
f 428 395 396
f 294 349 348
f 347 395 346
f 293 234 294
f 292 346 345
f 292 345 291
f 291 345 344
f 291 344 290
f 290 344 343
f 287 229 288
f 342 343 392
f 340 287 341
f 342 392 391
f 391 392 427
f 545 508 509
f 510 511 546
f 546 511 547
f 655 711 654
f 712 711 655
f 658 714 713
f 659 714 658
f 600 551 601
f 602 660 659
f 601 551 552
f 554 603 602
f 552 512 553
f 553 512 513
f 396 348 397
f 348 347 293
f 291 290 231
f 291 231 232
f 288 342 341
f 509 546 545
f 546 596 595
f 596 597 655
f 658 601 659
f 553 514 554
f 455 429 430
f 455 430 456
f 429 455 428
f 428 455 454
f 429 397 430
f 397 429 396
f 396 429 428
f 397 348 349
f 347 348 396
f 347 396 395
f 348 293 294
f 293 347 292
f 292 347 346
f 293 292 234
f 292 233 234
f 292 291 233
f 291 232 233
f 290 289 230
f 290 230 231
f 289 290 343
f 289 288 230
f 230 288 229
f 288 289 342
f 342 289 343
f 288 341 287
f 391 341 342
f 341 391 340
f 391 390 340
f 390 391 427
f 390 426 425
f 426 390 427
f 426 452 451
f 426 451 425
f 452 426 427
f 452 427 453
f 452 480 479
f 452 479 451
f 480 452 453
f 480 453 481
f 480 509 508
f 480 508 479
f 509 480 510
f 510 480 481
f 545 546 595
f 545 595 594
f 596 546 547
f 595 596 653
f 596 654 653
f 596 547 597
f 596 655 654
f 655 656 712
f 656 655 597
f 656 597 598
f 656 657 713
f 656 713 712
f 657 656 598
f 657 598 599
f 657 658 713
f 658 657 599
f 658 599 600
f 601 602 659
f 602 552 553
f 553 554 602
f 514 553 513
f 483 514 513
f 483 513 482
f 514 483 484
f 514 484 515
f 483 455 456
f 483 456 484
f 455 483 482
f 455 482 454
f 602 601 552
f 420 444 446
f 420 446 422
f 380 420 422
f 380 422 384
f 398 349 350
f 328 380 384
f 328 384 334
f 328 334 333
f 272 273 279
f 272 279 278
f 233 190 186
f 233 186 187
f 208 209 217
f 208 217 182
f 231 230 189
f 189 230 222
f 189 222 185
f 206 207 181
f 206 181 214
f 205 206 214
f 205 214 213
f 229 287 228
f 269 205 213
f 269 213 212
f 269 212 275
f 268 269 275
f 268 275 274
f 325 268 274
f 325 274 331
f 377 378 330
f 377 330 381
f 419 377 381
f 419 381 421
f 443 419 421
f 443 421 445
f 545 594 544
f 544 594 589
f 544 589 540
f 533 536 583
f 654 711 710
f 693 631 698
f 693 698 699
f 695 694 700
f 695 700 701
f 659 650 709
f 534 586 539
f 472 502 505
f 472 505 474
f 211 272 278
f 211 278 219
f 210 211 219
f 210 219 218
f 209 210 218
f 209 218 217
f 207 208 182
f 207 182 181
f 378 325 331
f 378 331 330
f 471 443 445
f 471 445 473
f 451 479 476
f 451 476 448
f 499 471 473
f 499 473 503
f 532 499 503
f 532 503 536
f 630 578 583
f 630 583 637
f 594 653 645
f 594 645 589
f 694 693 699
f 694 699 700
f 696 695 701
f 696 701 702
f 697 696 702
f 697 702 703
f 580 642 643
f 660 602 661
f 502 535 539
f 502 539 505
f 444 472 474
f 444 474 446
f 602 603 661
f 581 580 643
f 581 643 586
f 295 349 294
f 235 294 234
f 286 287 340
f 544 508 545
f 714 659 715
v 0.51300 -0.29250 0.05800
v 0.48878 -0.31353 -0.08873
v 0.51300 0.04550 0.05800
v 0.47978 0.02124 -0.09265
v 0.51500 0.04550 -0.03600
v 0.51228 0.04271 0.05947
v 0.50000 -0.29250 -0.12800
v 0.50000 0.04550 -0.12800
v 0.47106 -0.29688 -0.21395
v 0.45650 -0.29250 0.23600
v 0.47800 0.04550 0.19400
v 0.44404 0.02994 0.24654
v 0.48600 0.04550 -0.17300
v 0.48500 0.04350 -0.17300
v 0.46800 0.04550 -0.21700
v 0.46700 0.04350 -0.21600
v 0.39482 0.00971 -0.23882
v 0.46650 -0.29250 -0.21600
v 0.44700 0.04550 -0.25900
v 0.44600 0.04350 -0.25800
v 0.44500 0.04250 -0.25700
v 0.40500 0.04550 0.31550
v 0.49156 -0.30155 0.16067
v 0.42687 0.00929 0.04490
v 0.42744 0.04172 -0.28546
v 0.32713 -0.32007 -0.36392
v 0.40410 -0.32657 -0.04966
v 0.42259 -0.32134 0.21079
v 0.31813 -0.29250 0.40062
v 0.37700 -0.29250 -0.35250
v 0.39300 0.04550 -0.33500
v 0.16494 0.02850 -0.24363
v 0.17162 -0.31050 -0.22963
v 0.27725 0.04550 0.43275
v 0.34123 0.04309 0.38651
v 0.30700 0.04550 -0.41500
v 0.28486 0.03653 -0.43011
v 0.19318 -0.32909 0.38876
v 0.21579 0.00981 0.35711
v 0.31150 -0.31050 0.03525
v 0.24800 0.04550 -0.45300
v 0.33726 -0.29866 0.38972
v 0.20488 -0.30016 -0.47318
v 0.11600 -0.29250 0.50150
v 0.18400 0.04550 0.48200
v 0.24065 0.03671 0.45066
v 0.16200 0.04550 -0.49100
v 0.15604 -0.30796 0.47982
v 0.11600 0.04550 0.50150
v 0.21500 -0.29250 -0.46600
v 0.07000 0.04550 -0.51200
v -0.09710 -0.30054 -0.50877
v -0.07677 0.03720 -0.51894
v 0.01663 -0.31904 -0.48281
v 0.04700 0.04550 0.51300
v -0.21229 0.01191 0.35872
v 0.13900 -0.31050 0.27563
v 0.21587 0.02850 0.18600
v 0.17677 -0.32885 -0.38301
v 0.00137 0.01967 0.49060
v -0.03525 -0.29250 0.51250
v -0.02350 0.04550 0.51400
v -0.00050 0.04550 -0.51600
v -0.05265 -0.29915 0.51214
v -0.00025 -0.29250 -0.51400
v -0.07000 0.04550 -0.51200
v -0.27625 -0.31050 -0.15150
v -0.27225 0.02850 -0.14162
v -0.09400 0.04550 0.50700
v -0.22600 -0.29250 0.46100
v -0.13900 0.04550 0.49600
v -0.12996 -0.32931 0.39918
v -0.16200 -0.29250 -0.49100
v -0.16200 0.04550 -0.49100
v -0.22600 0.04550 0.46100
v -0.27485 -0.30841 0.42926
v -0.17655 -0.32635 -0.35171
v -0.22700 -0.29250 -0.46350
v -0.22700 0.04550 -0.46350
v -0.20183 0.03925 0.47167
v -0.34581 -0.32836 0.25880
v -0.28800 0.04550 -0.42900
v -0.25783 -0.32754 -0.35193
v -0.43500 -0.29250 0.27800
v -0.30700 0.04550 0.41400
v -0.19900 -0.31050 0.20313
v -0.20369 0.02850 0.19550
v -0.42016 -0.32481 0.00624
v -0.36102 -0.29610 -0.36827
v -0.32600 0.04550 -0.40100
v -0.12604 0.00948 -0.41487
v -0.34400 0.04550 0.38400
v -0.33400 -0.29250 -0.39250
v -0.36100 0.04550 -0.37000
v -0.43141 0.00933 -0.07157
v -0.39250 0.04550 0.33400
v -0.40741 0.04191 -0.31392
v -0.33336 0.01806 0.35322
v -0.33677 -0.29774 -0.39553
v -0.42200 -0.29250 -0.29800
v -0.42200 0.04550 -0.29800
v -0.50695 -0.30152 0.10001
v -0.47525 0.04550 0.19300
v -0.43089 -0.29636 -0.28137
v -0.38317 0.01894 -0.30473
v -0.48678 -0.31590 -0.10441
v -0.46900 0.04550 -0.21700
v -0.49350 0.04329 -0.14849
v -0.46900 -0.29250 -0.21700
v -0.48600 0.04550 -0.17300
v -0.45118 -0.29770 0.25551
v -0.49400 -0.29250 0.15000
v -0.49900 0.04350 -0.12800
v -0.50000 0.04550 -0.12800
v -0.50700 0.04250 -0.08200
v -0.50800 0.04350 -0.08200
v -0.48662 0.03525 0.16061
v -0.50900 0.04550 -0.08200
v -0.51316 0.04118 -0.00982
v -0.51200 0.04250 -0.03600
v -0.51025 -0.29250 -0.01200
v -0.51400 0.04550 0.01100
v -0.51400 0.04350 -0.03600
usemtl m028
f 826 795 834
f 856 858 834
f 807 826 834
f 807 834 830
f 771 807 830
f 771 830 756
f 771 756 763
f 797 771 763
f 797 763 778
f 826 797 778
f 826 778 795
f 830 776 756
f 799 819 837
f 799 837 795
f 834 795 837
f 837 856 834
f 844 830 834
f 830 844 792
f 830 792 776
f 763 756 743
f 778 785 799
f 795 778 799
f 751 778 763
f 751 785 778
f 808 799 801
f 810 819 799
f 810 799 808
f 814 819 810
f 824 837 819
f 824 819 814
f 831 837 824
f 835 837 831
f 842 856 837
f 842 837 835
f 861 856 842
f 861 858 856
f 861 862 858
f 857 855 862
f 857 862 861
f 853 852 855
f 853 855 857
f 849 847 852
f 849 852 853
f 846 844 847
f 846 847 849
f 840 836 844
f 840 844 846
f 833 844 836
f 833 836 840
f 829 844 833
f 821 792 844
f 821 844 829
f 818 792 821
f 813 792 818
f 805 792 813
f 802 792 805
f 790 792 802
f 786 776 792
f 786 792 790
f 780 776 786
f 775 776 780
f 770 776 775
f 770 764 776
f 758 759 764
f 758 764 770
f 754 755 759
f 754 759 758
f 752 753 755
f 752 755 754
f 747 743 753
f 747 753 752
f 744 743 747
f 744 745 743
f 742 745 744
f 750 751 745
f 750 745 742
f 761 751 750
f 773 774 761
f 773 785 774
f 784 785 773
f 788 799 785
f 788 785 784
f 794 799 788
f 801 799 794
f 761 774 751
f 862 859 858
f 855 854 859
f 855 859 862
f 854 834 858
f 854 858 859
f 852 847 854
f 852 854 855
f 847 834 854
f 847 844 834
f 764 756 776
f 759 760 764
f 755 756 760
f 755 760 759
f 756 764 760
f 753 756 755
f 743 756 753
f 745 763 743
f 751 763 745
f 774 785 751
f 825 811 827
f 806 825 827
f 806 827 816
f 772 806 816
f 772 816 798
f 772 798 766
f 779 772 766
f 779 766 777
f 825 796 777
f 825 777 811
f 811 815 820
f 827 845 822
f 766 741 767
f 777 803 811
f 811 803 815
f 827 811 820
f 815 841 820
f 820 841 845
f 827 820 845
f 822 845 838
f 816 827 822
f 822 838 791
f 822 791 793
f 822 798 816
f 793 798 822
f 793 782 798
f 798 782 765
f 766 798 765
f 765 748 741
f 741 766 765
f 741 762 767
f 767 777 766
f 767 781 777
f 777 781 787
f 787 803 777
f 779 777 796
f 809 815 803
f 809 803 800
f 823 815 809
f 823 850 815
f 851 850 823
f 851 841 850
f 860 841 851
f 860 845 841
f 848 845 860
f 848 843 845
f 839 843 848
f 839 828 843
f 832 828 839
f 832 838 828
f 817 838 832
f 817 791 838
f 812 791 817
f 804 791 812
f 789 782 791
f 789 791 804
f 789 765 782
f 769 765 789
f 769 748 765
f 757 748 769
f 746 748 757
f 746 741 748
f 740 741 746
f 740 762 741
f 749 762 740
f 749 781 762
f 768 787 781
f 783 787 768
f 783 803 787
f 800 803 783
f 768 781 749
f 850 841 815
f 838 845 843
f 828 838 843
f 782 793 791
f 781 767 762
