# fh16_trailer_wheel_3r.obj - ISO 8855 (x ileri, y sol, z yukari), metre
mtllib fh16.mtl
o fh16_trailer_wheel_3r
v -0.28154 -0.31362 -0.14100
v -0.31847 -0.31353 0.00000
v -0.30318 -0.31371 0.09826
v -0.25783 -0.31358 0.18689
v -0.26695 -0.24488 -0.10200
v -0.28345 -0.23935 0.00000
v -0.26951 -0.24201 0.08717
v -0.25100 -0.26800 0.18183
v -0.26868 -0.12444 -0.10416
v -0.27245 -0.13233 -0.02143
v -0.26481 -0.13302 0.08471
v -0.25760 -0.07110 0.18660
v -0.27799 0.01766 -0.12959
v -0.30460 0.01483 -0.00075
v -0.28973 0.01621 0.09283
v -0.25685 0.02161 0.18622
v -0.27056 0.08317 -0.09944
v -0.26774 0.06955 -0.03176
v -0.26162 0.07062 0.08471
v -0.25300 0.15350 0.18300
v -0.27525 0.28100 -0.14050
v -0.31300 0.28100 0.00000
v -0.29750 0.28100 0.09600
v -0.25300 0.28100 0.18350
v -0.27479 0.31421 -0.14044
v -0.31106 0.31421 0.00000
v -0.29553 0.31421 0.09565
v -0.25228 0.31428 0.18289
v -0.18758 -0.31360 -0.25813
v -0.18333 -0.31145 0.25167
v -0.19508 -0.31742 0.26785
v -0.16681 -0.24333 -0.22964
v -0.22553 -0.23840 -0.16397
v -0.19265 -0.24219 0.19728
v -0.19800 -0.22500 0.27100
v -0.16331 -0.13286 -0.22480
v -0.18175 -0.11541 -0.14274
v -0.17176 -0.09034 -0.03199
v -0.17920 -0.09563 0.07440
v -0.18068 -0.13194 0.18865
v -0.19450 -0.07950 0.26750
v -0.17910 0.01515 -0.24646
v -0.18103 0.02349 -0.14076
v -0.18107 0.02052 -0.03893
v -0.17444 0.02533 0.07537
v -0.18734 0.01823 0.20940
v -0.19200 0.01590 0.26360
v -0.16096 0.06969 -0.22152
v -0.21812 0.06665 -0.16204
v -0.23100 0.05600 -0.07550
v -0.23150 0.05600 0.07450
v -0.19039 0.06832 0.19098
v -0.18400 0.28100 -0.25300
v -0.18400 0.28100 0.25250
v -0.18317 0.31428 -0.25194
v -0.18400 0.31433 0.25256
v -0.10375 -0.31625 -0.31863
v -0.09739 -0.31307 -0.29946
v -0.09847 -0.31334 0.30237
v -0.10400 -0.22500 -0.32000
v -0.08703 -0.24556 -0.26720
v -0.03836 -0.19886 -0.09679
v -0.06055 -0.20591 -0.02278
v -0.04735 -0.20315 0.06294
v -0.08517 -0.23550 0.26078
v -0.09041 -0.24862 0.27688
v -0.10400 -0.09350 -0.31800
v -0.07075 -0.12510 -0.24907
v -0.06428 -0.08369 -0.13131
v -0.09921 -0.07694 -0.03488
v -0.07082 -0.07849 0.09473
v -0.07268 -0.11417 0.21054
v -0.09273 -0.09577 0.28427
v -0.08294 0.02197 -0.27376
v -0.07521 0.01125 -0.15100
v -0.09870 -0.02600 -0.02785
v -0.07790 -0.01315 0.10700
v -0.06558 0.03076 0.18556
v -0.09447 0.01510 0.28943
v -0.08516 0.07026 -0.26156
v -0.08363 0.06966 0.25674
v -0.09017 0.07433 0.27650
v -0.09700 0.28100 -0.29750
v -0.09700 0.28100 0.29750
v -0.09706 0.31439 -0.29789
v -0.09662 0.31412 0.29606
v 0.02668 -0.31605 -0.32529
v 0.07155 -0.31176 -0.29974
v 0.04837 -0.31352 0.31018
v 0.05200 -0.22500 -0.32800
v 0.04377 -0.24605 -0.27368
v 0.02400 -0.19905 -0.09941
v 0.05191 -0.20669 -0.02541
v 0.03783 -0.20326 0.06600
v 0.08453 -0.23262 0.26071
v 0.02996 -0.24578 0.28124
v 0.02575 -0.07950 -0.32500
v 0.03917 -0.12927 -0.25886
v 0.04425 -0.08158 -0.13283
v 0.09225 -0.07665 -0.04186
v 0.05743 -0.07766 0.09891
v 0.04804 -0.10978 0.20893
v 0.01913 -0.12556 0.27962
v 0.00000 0.01775 -0.32162
v 0.05122 0.02063 -0.28195
v 0.04423 0.00385 -0.14958
v 0.08700 -0.03459 -0.05027
v 0.06674 -0.01450 0.10794
v 0.03461 0.02381 0.18402
v 0.04681 0.01462 0.29700
v 0.04153 0.07009 -0.26725
v 0.07138 0.06764 0.25543
v 0.01735 0.07127 0.27497
v 0.00000 0.28250 -0.32500
v 0.06433 0.28050 -0.29833
v 0.04825 0.28100 0.30475
v 0.00000 0.31250 -0.32325
v 0.06846 0.31471 -0.29908
v 0.04389 0.31430 0.30443
v 0.18700 -0.31368 -0.25791
v 0.18265 -0.31140 0.25130
v 0.19462 -0.31742 0.26785
v 0.16669 -0.24216 -0.22989
v 0.22189 -0.23550 -0.16167
v 0.18360 -0.24142 0.20550
v 0.19700 -0.22500 0.27100
v 0.16077 -0.13356 -0.22427
v 0.17028 -0.11367 -0.14409
v 0.15066 -0.08466 -0.02826
v 0.16624 -0.09186 0.07510
v 0.16947 -0.12884 0.18806
v 0.19450 -0.07900 0.26750
v 0.17666 0.01680 -0.24591
v 0.15420 0.02914 -0.12484
v 0.16557 0.01232 -0.03070
v 0.16918 0.02296 0.07704
v 0.16157 0.02628 0.21899
v 0.19160 0.01590 0.26360
v 0.16046 0.06993 -0.22143
v 0.21810 0.06912 -0.15900
v 0.22300 0.05550 -0.07300
v 0.22300 0.05550 0.07200
v 0.18533 0.06929 0.19302
v 0.18300 0.28100 -0.25300
v 0.18300 0.28100 0.25250
v 0.18250 0.31412 -0.25200
v 0.18300 0.31426 0.25212
v 0.28087 -0.31351 -0.14178
v 0.31930 -0.31359 0.00000
v 0.30335 -0.31374 0.09841
v 0.25785 -0.31359 0.18718
v 0.25785 -0.24567 -0.11570
v 0.28281 -0.24418 0.00000
v 0.26857 -0.24418 0.08697
v 0.23616 -0.25282 0.17147
v 0.26178 -0.12285 -0.11432
v 0.26691 -0.13047 -0.02879
v 0.25969 -0.13048 0.08186
v 0.24164 -0.09532 0.17545
v 0.26861 0.01558 -0.13740
v 0.29509 0.02146 -0.00766
v 0.28346 0.01871 0.08986
v 0.24735 0.01640 0.17961
v 0.25629 0.07436 -0.12414
v 0.26602 0.06929 -0.03670
v 0.25985 0.06969 0.08422
v 0.23500 0.07433 0.17083
v 0.27475 0.28100 -0.14050
v 0.31250 0.28100 0.00000
v 0.29650 0.28100 0.09600
v 0.25300 0.28100 0.18350
v 0.27552 0.31423 -0.13897
v 0.31281 0.31419 0.00000
v 0.29689 0.31433 0.09628
v 0.25235 0.31426 0.18329
usemtl m002
f 45 46 52
f 52 46 78
f 52 78 81
f 44 45 15
f 44 15 18
f 51 19 18
f 51 18 15
f 45 51 15
f 19 51 45
f 19 45 52
f 50 18 49
f 50 49 43
f 44 50 43
f 50 44 14
f 18 50 14
f 44 18 14
f 48 80 74
f 43 48 74
f 48 43 49
f 111 105 74
f 111 74 80
f 139 140 134
f 139 134 133
f 139 133 111
f 106 105 111
f 106 111 133
f 135 161 165
f 165 161 134
f 165 134 140
f 166 143 136
f 162 166 136
f 166 162 165
f 135 165 162
f 136 135 162
f 109 137 112
f 143 112 137
f 136 143 137
f 112 81 78
f 109 112 78
f 77 78 45
f 43 74 75
f 106 133 134
f 137 108 136
f 108 137 109
f 49 43 75
f 135 141 134
f 161 135 134
f 112 113 81
f 52 81 82
f 139 164 140
f 166 167 143
f 143 113 112
f 113 82 81
f 74 104 105
f 52 82 79
f 52 79 46
f 19 52 46
f 19 46 15
f 18 19 15
f 18 15 14
f 17 18 14
f 17 14 13
f 49 17 13
f 49 13 43
f 48 43 42
f 80 48 42
f 80 42 74
f 139 111 105
f 139 105 133
f 164 139 133
f 164 133 160
f 165 164 160
f 165 160 161
f 166 165 161
f 166 161 162
f 167 166 162
f 167 162 163
f 143 167 163
f 143 163 137
f 113 143 137
f 113 137 110
f 82 113 110
f 82 110 79
f 15 46 16
f 42 43 13
f 17 49 18
f 140 164 165
f 46 79 47
f 16 46 47
f 137 163 138
f 110 137 138
f 44 43 75
f 109 78 77
f 54 52 82
f 54 82 84
f 52 54 24
f 52 24 20
f 46 52 20
f 46 20 16
f 19 15 16
f 19 16 20
f 23 19 20
f 23 20 24
f 19 23 22
f 19 22 18
f 21 17 18
f 21 18 22
f 48 42 13
f 48 13 17
f 53 48 17
f 53 17 21
f 48 53 83
f 48 83 80
f 111 104 74
f 115 111 80
f 115 80 83
f 104 111 105
f 144 139 111
f 144 111 115
f 139 144 168
f 139 168 164
f 164 168 169
f 164 169 165
f 170 166 165
f 170 165 169
f 166 170 171
f 166 171 167
f 145 143 167
f 145 167 171
f 143 145 116
f 143 116 113
f 113 116 84
f 113 84 82
f 117 118 85
f 54 56 86
f 54 86 84
f 56 54 24
f 56 24 28
f 23 27 28
f 23 28 24
f 27 23 22
f 27 22 26
f 21 25 26
f 21 26 22
f 53 55 25
f 53 25 21
f 55 53 83
f 55 83 85
f 114 117 85
f 114 85 83
f 117 114 115
f 117 115 118
f 144 146 118
f 144 118 115
f 146 144 168
f 146 168 172
f 172 168 169
f 172 169 173
f 170 174 173
f 170 173 169
f 174 170 171
f 174 171 175
f 145 147 175
f 145 175 171
f 147 145 116
f 147 116 119
f 119 116 84
f 119 84 86
f 85 118 115
f 85 115 83
f 38 39 11
f 38 11 10
f 39 11 10
f 11 39 40
f 38 10 37
f 37 36 68
f 99 98 127
f 158 131 130
f 129 157 158
f 130 129 158
f 71 72 39
f 37 68 69
f 99 127 128
f 131 101 130
f 101 131 102
f 102 103 72
f 9 37 10
f 128 156 157
f 38 37 69
f 102 72 71
f 87 88 58
f 29 57 58
f 87 58 57
f 120 88 87
f 35 31 59
f 35 59 66
f 31 35 8
f 31 8 4
f 7 3 4
f 7 4 8
f 3 7 6
f 3 6 2
f 5 1 2
f 5 2 6
f 32 29 1
f 32 1 5
f 29 32 60
f 29 60 57
f 90 87 57
f 90 57 60
f 123 120 87
f 123 87 90
f 120 123 152
f 120 152 148
f 148 152 153
f 148 153 149
f 154 150 149
f 154 149 153
f 150 154 155
f 150 155 151
f 126 122 151
f 126 151 155
f 122 126 96
f 122 96 89
f 89 96 66
f 89 66 59
f 66 34 65
f 123 152 124
f 154 155 125
f 125 96 95
f 96 66 65
f 65 34 40
f 65 40 72
f 7 6 10
f 7 10 11
f 34 7 11
f 34 11 40
f 5 33 37
f 5 37 9
f 6 5 9
f 6 9 10
f 32 61 68
f 32 68 36
f 33 32 36
f 33 36 37
f 61 91 98
f 61 98 68
f 123 124 128
f 123 128 127
f 91 123 127
f 91 127 98
f 152 153 157
f 152 157 156
f 124 152 156
f 124 156 128
f 154 125 131
f 154 131 158
f 153 154 158
f 153 158 157
f 125 95 102
f 125 102 131
f 96 65 72
f 96 72 103
f 95 96 103
f 95 103 102
f 73 40 72
f 127 156 128
f 158 159 131
f 131 103 102
f 103 73 72
f 34 66 59
f 34 59 30
f 8 34 30
f 8 30 4
f 8 7 34
f 5 32 33
f 61 32 29
f 61 29 58
f 91 61 58
f 91 58 88
f 123 91 88
f 123 88 120
f 125 155 151
f 125 151 121
f 96 125 121
f 96 121 89
f 31 4 30
f 59 31 30
f 122 89 121
f 151 122 121
f 129 128 157
f 38 69 70
f 99 128 129
f 102 71 101
f 70 71 39
f 70 39 38
f 100 99 129
f 129 130 101
f 129 101 100
f 71 70 76
f 71 76 77
f 70 69 75
f 70 75 76
f 69 99 106
f 69 106 75
f 99 100 107
f 99 107 106
f 100 101 108
f 100 108 107
f 101 71 77
f 101 77 108
f 35 66 73
f 35 73 41
f 8 35 41
f 8 41 12
f 7 8 12
f 7 12 11
f 6 7 11
f 6 11 10
f 5 6 10
f 5 10 9
f 32 5 9
f 32 9 36
f 60 32 36
f 60 36 67
f 90 60 67
f 90 67 97
f 123 90 97
f 123 97 127
f 152 123 127
f 152 127 156
f 153 152 156
f 153 156 157
f 154 153 157
f 154 157 158
f 155 154 158
f 155 158 159
f 126 155 159
f 126 159 132
f 96 126 132
f 96 132 103
f 66 96 103
f 66 103 73
f 41 73 40
f 12 41 40
f 36 68 67
f 68 97 67
f 98 127 97
f 132 159 131
f 103 132 131
f 68 98 97
f 40 11 12
f 37 36 9
f 40 73 79
f 40 79 46
f 11 40 46
f 11 46 15
f 10 11 15
f 10 15 14
f 9 10 14
f 9 14 13
f 37 9 13
f 37 13 43
f 36 37 43
f 36 43 42
f 68 36 42
f 68 42 74
f 98 68 74
f 98 74 105
f 127 98 105
f 127 105 133
f 156 127 133
f 156 133 160
f 157 156 160
f 157 160 161
f 158 157 161
f 158 161 162
f 159 158 162
f 159 162 163
f 131 159 163
f 131 163 137
f 103 131 137
f 103 137 110
f 73 103 110
f 73 110 79
f 70 63 64
f 64 71 70
f 71 64 94
f 94 101 71
f 93 100 101
f 101 94 93
f 100 93 92
f 92 99 100
f 62 69 99
f 99 92 62
f 63 70 69
f 69 62 63
f 63 62 92
f 92 93 63
f 94 64 93
f 63 93 64
f 70 71 77
f 77 76 70
f 71 101 108
f 108 77 71
f 101 129 135
f 135 108 101
f 129 100 107
f 107 135 129
f 100 99 106
f 106 107 100
f 99 69 75
f 75 106 99
f 69 70 76
f 76 75 69
v -0.50587 -0.28699 -0.12909
v -0.51969 -0.28713 -0.04621
v -0.51960 -0.28689 0.04646
v -0.50581 -0.28678 0.12898
v -0.50273 -0.21253 -0.20277
v -0.52053 -0.21573 -0.13527
v -0.52670 -0.21708 -0.04854
v -0.52809 -0.21756 0.04336
v -0.51977 -0.21757 0.13253
v -0.50315 -0.20981 0.20231
v -0.50352 -0.13644 -0.20491
v -0.52255 -0.13577 -0.13522
v -0.52884 -0.13351 -0.04864
v -0.53008 -0.13285 0.04330
v -0.52158 -0.13462 0.13186
v -0.50402 -0.13876 0.20383
v -0.50027 -0.08759 -0.19245
v -0.51004 -0.06433 -0.13488
v -0.52180 -0.06357 -0.04728
v -0.52313 -0.06510 0.04343
v -0.51082 -0.06474 0.13149
v -0.49933 -0.08672 0.19300
v -0.49750 0.07350 -0.18500
v -0.50753 0.05807 -0.13164
v -0.52042 0.05720 -0.04627
v -0.52079 0.05753 0.04459
v -0.50767 0.05784 0.13004
v -0.49650 0.07350 0.18600
v -0.50328 0.13349 -0.20378
v -0.52185 0.13219 -0.13567
v -0.52826 0.13050 -0.04897
v -0.52951 0.12956 0.04350
v -0.52103 0.13065 0.13233
v -0.50368 0.13584 0.20320
v -0.50307 0.21327 -0.20350
v -0.52166 0.21383 -0.13520
v -0.52773 0.21564 -0.04841
v -0.52915 0.21652 0.04359
v -0.52082 0.21547 0.13250
v -0.50354 0.21021 0.20296
v -0.49750 0.26950 -0.18500
v -0.50737 0.28319 -0.13382
v -0.52057 0.28380 -0.04683
v -0.52108 0.28400 0.04250
v -0.50831 0.28294 0.12952
v -0.49650 0.26950 0.18600
v -0.42504 -0.28704 -0.30325
v -0.45536 -0.28936 -0.22955
v -0.47329 -0.29229 -0.14963
v -0.48386 -0.29383 -0.04644
v -0.48390 -0.29410 0.04643
v -0.47388 -0.29260 0.14524
v -0.45664 -0.28938 0.22572
v -0.42686 -0.28675 0.30007
v -0.40500 -0.18983 -0.36600
v -0.43408 -0.21710 -0.31341
v -0.46728 -0.21982 -0.23878
v -0.48475 -0.22124 -0.14481
v -0.49250 -0.26550 -0.06500
v -0.49250 -0.26550 0.06625
v -0.48467 -0.21968 0.14577
v -0.46812 -0.22080 0.23671
v -0.43456 -0.21682 0.31169
v -0.40500 -0.15850 -0.36638
v -0.43600 -0.13444 -0.31439
v -0.46829 -0.12962 -0.23985
v -0.48581 -0.12682 -0.14800
v -0.48562 -0.12576 0.14822
v -0.46901 -0.13081 0.23871
v -0.43581 -0.13410 0.31339
v -0.40900 -0.16750 0.36300
v -0.42781 -0.06595 -0.30786
v -0.45912 -0.05829 -0.23234
v -0.46989 -0.04841 -0.14389
v -0.47598 -0.03764 -0.04855
v -0.47300 -0.03612 0.04557
v -0.47157 -0.04747 0.13977
v -0.46151 -0.05892 0.22700
v -0.42929 -0.06498 0.30448
v -0.42615 0.05913 -0.30485
v -0.45716 0.05429 -0.23020
v -0.47388 0.05069 -0.14754
v -0.48472 0.04775 -0.04830
v -0.48491 0.04806 0.04876
v -0.47452 0.04991 0.14340
v -0.45919 0.05525 0.22641
v -0.42715 0.05851 0.30244
v -0.40500 0.15483 -0.36633
v -0.43537 0.13135 -0.31424
v -0.46824 0.12730 -0.23975
v -0.48559 0.12567 -0.14665
v -0.48541 0.12548 0.14710
v -0.46897 0.12808 0.23815
v -0.43543 0.13114 0.31304
v -0.40900 0.17150 0.36300
v -0.40500 0.19170 -0.36620
v -0.43492 0.21523 -0.31430
v -0.46796 0.21829 -0.23964
v -0.48550 0.22002 -0.14614
v -0.48525 0.21930 0.14711
v -0.46867 0.21802 0.23817
v -0.43516 0.21529 0.31270
v -0.42700 0.28207 -0.30445
v -0.45681 0.28773 -0.23037
v -0.46803 0.29588 -0.14492
v -0.47598 0.30062 -0.04855
v -0.47300 0.30210 0.04557
v -0.47009 0.29613 0.14033
v -0.45949 0.28686 0.22513
v -0.42751 0.28301 0.30226
v -0.34157 -0.28729 -0.39203
v -0.37502 -0.29103 -0.33391
v -0.40300 -0.29650 -0.27100
v -0.37695 -0.29159 0.32809
v -0.34326 -0.28773 0.38791
v -0.35485 -0.21684 -0.39981
v -0.38171 -0.22188 -0.34022
v -0.38175 -0.22218 0.33850
v -0.35446 -0.21698 0.39938
v -0.35628 -0.13493 -0.40131
v -0.38205 -0.12616 -0.33971
v -0.38151 -0.12767 0.33772
v -0.35628 -0.13442 0.40059
v -0.34579 -0.06487 -0.39509
v -0.37531 -0.05094 -0.33352
v -0.35840 -0.01663 -0.23393
v -0.36757 -0.01450 -0.13957
v -0.36689 -0.01761 -0.04844
v -0.35071 -0.01969 0.02610
v -0.36286 -0.01500 0.14150
v -0.35721 -0.01457 0.22464
v -0.37727 -0.05103 0.33088
v -0.34808 -0.06562 0.39177
v -0.34261 0.05772 -0.39349
v -0.37574 0.05177 -0.33492
v -0.40300 0.04250 -0.27100
v -0.37804 0.05154 0.32994
v -0.34532 0.05745 0.38869
v -0.35596 0.13138 -0.40080
v -0.38229 0.12532 -0.33982
v -0.38187 0.12592 0.33814
v -0.35568 0.13107 0.40027
v -0.35579 0.21526 -0.40051
v -0.38215 0.21987 -0.33999
v -0.38170 0.21948 0.33829
v -0.35526 0.21544 0.40020
v -0.34280 0.28370 -0.39386
v -0.37400 0.29214 -0.33293
v -0.35840 0.32170 -0.23393
v -0.36757 0.32429 -0.13957
v -0.36689 0.32139 -0.04844
v -0.36769 0.32135 0.04215
v -0.36286 0.32379 0.14150
v -0.35721 0.32379 0.22464
v -0.37610 0.29240 0.32962
v -0.34591 0.28351 0.38917
v -0.23896 -0.28574 -0.46528
v -0.27742 -0.29035 -0.42358
v -0.27866 -0.29036 0.42133
v -0.24403 -0.28653 0.46145
v -0.25602 -0.21473 -0.47613
v -0.28185 -0.21957 -0.43546
v -0.28113 -0.22057 0.43228
v -0.25805 -0.21455 0.47385
v -0.25705 -0.13655 -0.47738
v -0.28218 -0.12909 -0.43631
v -0.28147 -0.12891 0.43323
v -0.26017 -0.13707 0.47497
v -0.24605 -0.06884 -0.46911
v -0.27793 -0.05535 -0.42666
v -0.26313 -0.01463 -0.32033
v -0.27089 -0.02006 -0.21472
v -0.29100 -0.02300 -0.12531
v -0.29833 -0.02483 -0.07333
v -0.29500 -0.01900 0.03825
v -0.29133 -0.02323 0.11767
v -0.26779 -0.02082 0.21216
v -0.26950 -0.01436 0.31350
v -0.27885 -0.05434 0.42309
v -0.24871 -0.06749 0.46603
v -0.24111 0.05884 -0.46651
v -0.27844 0.05368 -0.42549
v -0.27916 0.05318 0.42292
v -0.24641 0.05948 0.46318
v -0.25658 0.13255 -0.47701
v -0.28233 0.12797 -0.43621
v -0.28159 0.12715 0.43322
v -0.25925 0.13331 0.47460
v -0.25665 0.21387 -0.47657
v -0.28209 0.21774 -0.43600
v -0.28153 0.21846 0.43302
v -0.25926 0.21322 0.47442
v -0.24215 0.28272 -0.46673
v -0.27668 0.28933 -0.42505
v -0.26313 0.32383 -0.32033
v -0.28033 0.32117 -0.23944
v -0.28600 0.31150 -0.15260
v -0.31000 0.30950 -0.06500
v -0.31000 0.30950 0.06400
v -0.28600 0.30950 0.13150
v -0.27350 0.31950 0.23270
v -0.26950 0.32414 0.31350
v -0.27805 0.29027 0.42118
v -0.24504 0.28228 0.46393
v -0.17262 -0.28821 -0.48651
v -0.19586 -0.29450 -0.44523
v -0.20025 -0.29400 0.44319
v -0.17465 -0.28846 0.48386
v -0.17565 -0.21721 -0.49998
v -0.21600 -0.24279 -0.45371
v -0.20550 -0.26550 0.45200
v -0.17929 -0.21758 0.49706
v -0.17563 -0.13356 -0.50219
v -0.22150 -0.10225 -0.45425
v -0.17867 -0.13297 0.49943
v -0.17525 -0.06266 -0.49058
v -0.19043 -0.03520 -0.43351
v -0.17855 -0.01705 -0.32700
v -0.18969 -0.02335 -0.25415
v -0.18721 -0.02286 0.25607
v -0.18145 -0.01695 0.32727
v -0.18948 -0.03234 0.42700
v -0.17535 -0.06202 0.48902
v -0.17404 0.05643 -0.48796
v -0.19679 0.04675 -0.44575
v -0.20083 0.04794 0.44417
v -0.17547 0.05547 0.48551
v -0.17566 0.13092 -0.50158
v -0.21960 0.10490 -0.45460
v -0.17881 0.13019 0.49897
v -0.17560 0.21551 -0.50121
v -0.21960 0.23810 -0.45460
v -0.17913 0.21618 0.49830
v -0.17525 0.28501 -0.48763
v -0.18983 0.30456 -0.43289
v -0.17855 0.32195 -0.32700
v -0.19933 0.30950 -0.24533
v -0.18767 0.30950 0.25333
v -0.18145 0.32195 0.32727
v -0.18948 0.30595 0.42700
v -0.17434 0.28560 0.48639
v -0.08704 -0.28923 -0.50268
v -0.08950 -0.28955 0.50110
v -0.08836 -0.21857 -0.52130
v -0.08746 -0.21833 0.52122
v -0.08724 -0.13273 -0.52389
v -0.08752 -0.13220 0.52356
v -0.05100 -0.16650 0.54400
v -0.08751 -0.05934 -0.50858
v -0.08631 -0.01450 -0.40613
v -0.09374 -0.02229 -0.31342
v -0.09600 -0.02189 0.31294
v -0.09525 -0.01483 0.40942
v -0.08729 -0.05956 0.50780
v -0.08719 0.05525 -0.50547
v -0.08955 0.05509 0.50395
v -0.08758 0.12984 -0.52328
v -0.08723 0.12946 0.52301
v -0.05100 0.17150 0.54400
v -0.08800 0.21641 -0.52277
v -0.08739 0.21673 0.52260
v -0.08693 0.28713 -0.50554
v -0.08631 0.32400 -0.40613
v -0.08737 0.31500 -0.32775
v -0.09229 0.31579 0.32986
v -0.09525 0.32358 0.40942
v -0.08775 0.28769 0.50405
v 0.00715 -0.28931 -0.50976
v 0.00143 -0.28931 0.50998
v 0.00225 -0.21797 -0.52911
v 0.00462 -0.22329 0.52529
v -0.00035 -0.19240 0.54431
v 0.00307 -0.13344 -0.53179
v 0.00593 -0.12333 0.52426
v 0.00024 -0.15415 0.54458
v 0.00312 -0.05906 -0.51545
v 0.00017 -0.01433 -0.41367
v 0.00553 -0.02215 -0.32488
v 0.00000 -0.02215 0.32435
v 0.00011 -0.01433 0.41194
v 0.00339 -0.06000 0.51568
v 0.00645 0.05502 -0.51232
v 0.00185 0.05551 0.51286
v 0.00246 0.13045 -0.53107
v 0.00544 0.12253 0.52517
v 0.00024 0.15237 0.54455
v 0.00261 0.21606 -0.53058
v 0.00525 0.22220 0.52551
v -0.00019 0.19477 0.54441
v 0.00407 0.28802 -0.51201
v 0.00017 0.32417 -0.41367
v 0.01567 0.31450 -0.33750
v 0.00000 0.31450 0.33683
v 0.00011 0.32417 0.41194
v 0.00312 0.28700 0.51223
v 0.09433 -0.28918 -0.50188
v 0.09364 -0.28943 0.50076
v 0.09650 -0.21817 -0.51988
v 0.09376 -0.21780 0.52014
v 0.09615 -0.13300 -0.52260
v 0.09492 -0.13280 0.52236
v 0.09573 -0.06002 -0.50701
v 0.08976 -0.01450 -0.40665
v 0.09929 -0.02191 -0.31082
v 0.10005 -0.02185 0.31335
v 0.09892 -0.01473 0.40600
v 0.09439 -0.05942 0.50612
v 0.09501 0.05536 -0.50407
v 0.09347 0.05460 0.50306
v 0.09624 0.13032 -0.52191
v 0.09469 0.13010 0.52184
v 0.09641 0.21632 -0.52134
v 0.09416 0.21631 0.52144
v 0.09512 0.28709 -0.50383
v 0.08976 0.32397 -0.40665
v 0.10150 0.31517 -0.32517
v 0.10244 0.31594 0.32700
v 0.09892 0.32373 0.40600
v 0.09490 0.28771 0.50242
v 0.18189 -0.28820 -0.48316
v 0.19983 -0.29424 -0.44339
v 0.20343 -0.29398 0.44126
v 0.17968 -0.28811 0.48335
v 0.18513 -0.21737 -0.49681
v 0.22362 -0.22736 -0.45281
v 0.22390 -0.24670 0.44820
v 0.18547 -0.21748 0.49543
v 0.18468 -0.13314 -0.49906
v 0.22600 -0.11870 -0.45447
v 0.22850 -0.10350 0.45050
v 0.18635 -0.13314 0.49750
v 0.18309 -0.06258 -0.48837
v 0.19773 -0.03865 -0.43344
v 0.18631 -0.01688 -0.32423
v 0.18936 -0.02271 -0.25464
v 0.18987 -0.02317 0.25347
v 0.19480 -0.01570 0.32670
v 0.19890 -0.03824 0.43043
v 0.18300 -0.06245 0.48748
v 0.18250 0.05667 -0.48513
v 0.20193 0.04883 -0.44411
v 0.20530 0.04902 0.44207
v 0.18029 0.05708 0.48522
v 0.18510 0.13053 -0.49843
v 0.22588 0.12026 -0.45388
v 0.22917 0.10467 0.44917
v 0.18581 0.13042 0.49705
v 0.18518 0.21603 -0.49787
v 0.22588 0.22297 -0.45388
v 0.22900 0.23883 0.44917
v 0.18572 0.21589 0.49661
v 0.18146 0.28524 -0.48603
v 0.19633 0.30245 -0.43262
v 0.18631 0.32212 -0.32423
v 0.19967 0.30950 -0.24533
v 0.19900 0.30950 0.24425
v 0.19480 0.32320 0.32670
v 0.19735 0.30285 0.42962
v 0.18346 0.28470 0.48491
v 0.24441 -0.28662 -0.46188
v 0.28434 -0.28963 -0.42095
v 0.32100 -0.29650 -0.36500
v 0.28655 -0.29007 0.41769
v 0.24364 -0.28642 0.46184
v 0.26199 -0.21531 -0.47346
v 0.29053 -0.21994 -0.43217
v 0.29168 -0.22114 0.42959
v 0.26443 -0.21562 0.47071
v 0.26379 -0.13674 -0.47488
v 0.29051 -0.12982 -0.43338
v 0.29165 -0.12957 0.43079
v 0.26628 -0.13620 0.47220
v 0.25134 -0.06920 -0.46623
v 0.28586 -0.05605 -0.42351
v 0.27560 -0.01617 -0.32507
v 0.27642 -0.01939 -0.21968
v 0.29188 -0.02250 -0.12382
v 0.30275 -0.02600 -0.06050
v 0.30789 -0.02039 0.02167
v 0.29376 -0.02250 0.11935
v 0.27455 -0.01960 0.21355
v 0.27947 -0.01517 0.31653
v 0.28812 -0.05536 0.42058
v 0.25268 -0.06924 0.46494
v 0.24797 0.06112 -0.46348
v 0.28576 0.05406 -0.42211
v 0.32100 0.04250 -0.36500
v 0.28828 0.05429 0.41939
v 0.24787 0.06009 0.46264
v 0.26320 0.13382 -0.47442
v 0.29081 0.12777 -0.43306
v 0.29195 0.12773 0.43080
v 0.26546 0.13238 0.47174
v 0.26271 0.21413 -0.47424
v 0.29066 0.21791 -0.43292
v 0.29163 0.21839 0.43029
v 0.26508 0.21429 0.47157
v 0.24740 0.28113 -0.46437
v 0.28414 0.28896 -0.42213
v 0.27560 0.32217 -0.32507
v 0.28773 0.32195 -0.24127
v 0.28660 0.31150 -0.15260
v 0.31200 0.30950 -0.05067
v 0.31400 0.30950 0.03533
v 0.29320 0.31150 0.13820
v 0.28573 0.32141 0.23336
v 0.27947 0.32330 0.31653
v 0.28675 0.28912 0.41881
v 0.24882 0.28173 0.46286
v 0.35021 -0.28716 -0.38594
v 0.37844 -0.29070 -0.33164
v 0.40822 -0.29428 -0.26444
v 0.40714 -0.29479 0.26514
v 0.37953 -0.29085 0.32991
v 0.35007 -0.28670 0.38665
v 0.35856 -0.21663 -0.39728
v 0.39108 -0.22146 -0.33746
v 0.39049 -0.22121 0.33612
v 0.35957 -0.21639 0.39514
v 0.36039 -0.13472 -0.39842
v 0.39176 -0.12790 -0.33758
v 0.39101 -0.12759 0.33661
v 0.36119 -0.13492 0.39670
v 0.35311 -0.06614 -0.39049
v 0.38168 -0.05486 -0.33201
v 0.38286 -0.02550 -0.24132
v 0.37306 -0.01438 -0.13788
v 0.37711 -0.01572 -0.04911
v 0.36400 -0.01818 0.03158
v 0.36662 -0.01465 0.13969
v 0.38135 -0.02390 0.24045
v 0.38198 -0.05352 0.33046
v 0.35329 -0.06598 0.38948
v 0.35165 0.05893 -0.38732
v 0.38063 0.05294 -0.33191
v 0.40822 0.04450 -0.26444
v 0.40714 0.04407 0.26514
v 0.38130 0.05249 0.33022
v 0.35195 0.05842 0.38682
v 0.35957 0.13149 -0.39834
v 0.39168 0.12609 -0.33786
v 0.39098 0.12604 0.33702
v 0.36049 0.13148 0.39634
v 0.35952 0.21479 -0.39796
v 0.39154 0.21978 -0.33792
v 0.39096 0.21928 0.33680
v 0.36028 0.21509 0.39601
v 0.35149 0.28282 -0.38781
v 0.37933 0.29085 -0.33039
v 0.38286 0.31286 -0.24132
v 0.37306 0.32431 -0.13788
v 0.37711 0.32328 -0.04911
v 0.38254 0.32388 0.04615
v 0.36662 0.32412 0.13969
v 0.38135 0.31445 0.24045
v 0.38024 0.29107 0.32868
v 0.35172 0.28347 0.38752
v 0.42932 -0.28679 -0.29693
v 0.45832 -0.28900 -0.22725
v 0.48208 -0.29062 -0.14791
v 0.48363 -0.29400 -0.04578
v 0.48373 -0.29408 0.04279
v 0.48259 -0.29045 0.14638
v 0.45868 -0.28908 0.22503
v 0.42981 -0.28626 0.29612
v 0.43927 -0.21516 -0.31017
v 0.47251 -0.21949 -0.23375
v 0.48754 -0.21862 -0.14052
v 0.50072 -0.22989 -0.05713
v 0.50061 -0.23085 0.05717
v 0.48777 -0.21705 0.13750
v 0.47342 -0.22026 0.23030
v 0.43941 -0.21714 0.30668
v 0.44029 -0.13476 -0.31159
v 0.47386 -0.13099 -0.23579
v 0.48814 -0.13036 -0.13912
v 0.50187 -0.11237 -0.06095
v 0.50173 -0.11343 0.06310
v 0.48848 -0.13087 0.13804
v 0.47470 -0.13130 0.23303
v 0.44011 -0.13458 0.30904
v 0.43395 -0.06632 -0.30094
v 0.46376 -0.06086 -0.22761
v 0.48101 -0.05033 -0.14777
v 0.48146 -0.04736 -0.04764
v 0.48070 -0.04678 0.04142
v 0.47968 -0.04930 0.14204
v 0.46466 -0.06043 0.22388
v 0.43358 -0.06675 0.29983
v 0.43090 0.05843 -0.29869
v 0.46071 0.05593 -0.22716
v 0.48318 0.05246 -0.14844
v 0.48560 0.05050 -0.04575
v 0.48566 0.05030 0.04288
v 0.48304 0.05195 0.14609
v 0.46150 0.05583 0.22457
v 0.43117 0.05986 0.29866
v 0.44002 0.13184 -0.31109
v 0.47371 0.12843 -0.23499
v 0.48789 0.12963 -0.13908
v 0.50160 0.11369 -0.05899
v 0.50158 0.11460 0.06021
v 0.48816 0.13024 0.13755
v 0.47465 0.12820 0.23190
v 0.43986 0.13127 0.30824
v 0.43978 0.21436 -0.31095
v 0.47333 0.21761 -0.23480
v 0.48757 0.21626 -0.13952
v 0.50160 0.22953 -0.05899
v 0.50149 0.23036 0.05937
v 0.48810 0.21546 0.13706
v 0.47428 0.21769 0.23156
v 0.43995 0.21548 0.30756
v 0.43168 0.28321 -0.29817
v 0.46073 0.28648 -0.22675
v 0.48062 0.29195 -0.14834
v 0.47859 0.29807 -0.04759
v 0.47765 0.29860 0.04131
v 0.47926 0.29295 0.14300
v 0.46133 0.28664 0.22375
v 0.43160 0.28271 0.29789
v 0.50947 -0.28650 -0.11473
v 0.51908 -0.28726 -0.04735
v 0.51919 -0.28707 0.04539
v 0.50990 -0.28660 0.11190
v 0.50661 -0.19932 -0.19821
v 0.52166 -0.21808 -0.13977
v 0.53238 -0.21562 -0.04422
v 0.53217 -0.21515 0.04272
v 0.52252 -0.21874 0.13535
v 0.50727 -0.20609 0.19304
v 0.50715 -0.14755 -0.19862
v 0.52367 -0.13386 -0.14095
v 0.53341 -0.13598 -0.04365
v 0.53330 -0.13668 0.04319
v 0.52460 -0.13433 0.13706
v 0.50791 -0.14094 0.19380
v 0.51382 -0.07019 -0.12797
v 0.52444 -0.06385 -0.04852
v 0.52444 -0.06294 0.04421
v 0.51406 -0.06999 0.12560
v 0.51126 0.06090 -0.12004
v 0.52111 0.05705 -0.04705
v 0.52152 0.05794 0.04490
v 0.51157 0.06114 0.11834
v 0.50700 0.14554 -0.19842
v 0.52288 0.13034 -0.14081
v 0.53335 0.13275 -0.04365
v 0.53318 0.13332 0.04323
v 0.52385 0.13015 0.13637
v 0.50780 0.14004 0.19343
v 0.50685 0.20109 -0.19837
v 0.52259 0.21656 -0.14054
v 0.53301 0.21393 -0.04405
v 0.53292 0.21294 0.04274
v 0.52354 0.21652 0.13637
v 0.50747 0.20767 0.19348
v 0.51157 0.28086 -0.12195
v 0.52149 0.28373 -0.04941
v 0.52173 0.28397 0.04416
v 0.51144 0.28083 0.12110
usemtl m007
f 201 207 206
f 201 206 200
f 200 258 259
f 200 259 201
f 212 213 219
f 212 219 218
f 218 219 282
f 218 282 281
f 213 212 206
f 213 206 207
f 201 259 207
f 219 213 282
f 202 208 207
f 202 207 201
f 201 259 260
f 201 260 202
f 202 260 267
f 202 267 208
f 213 214 220
f 213 220 219
f 220 219 282
f 219 220 283
f 219 283 282
f 220 214 275
f 220 275 283
f 214 213 207
f 214 207 208
f 208 267 260
f 208 260 202
f 208 267 275
f 208 275 214
f 214 220 283
f 214 283 275
f 261 203 202
f 261 202 260
f 209 203 261
f 203 209 208
f 203 208 202
f 209 267 208
f 209 267 268
f 261 268 209
f 214 208 209
f 214 209 215
f 220 221 284
f 284 221 215
f 214 215 221
f 214 221 220
f 215 214 275
f 215 276 275
f 209 268 275
f 209 275 215
f 220 284 283
f 284 215 276
f 214 275 267
f 214 267 208
f 209 268 276
f 209 276 215
f 215 276 268
f 215 268 209
f 262 269 261
f 261 269 268
f 262 261 268
f 262 268 269
f 277 285 284
f 276 277 284
f 269 268 276
f 269 276 277
f 285 277 276
f 285 276 284
f 277 276 268
f 277 268 269
f 262 312 316
f 262 316 269
f 262 261 312
f 285 277 320
f 285 320 330
f 285 330 284
f 316 312 317
f 312 316 269
f 312 269 262
f 269 316 317
f 330 320 321
f 277 320 330
f 277 330 285
f 277 321 320
f 269 316 320
f 269 320 277
f 277 320 316
f 277 316 269
f 317 270 269
f 313 317 312
f 313 312 316
f 313 316 317
f 270 317 321
f 270 321 277
f 321 331 330
f 317 316 320
f 317 320 321
f 331 321 320
f 331 320 330
f 277 269 270
f 321 320 316
f 321 316 317
f 313 358 362
f 313 362 317
f 331 321 366
f 331 366 378
f 362 358 363
f 358 362 317
f 358 317 313
f 321 317 362
f 321 362 366
f 378 366 367
f 321 366 378
f 321 378 331
f 363 362 366
f 363 366 367
f 317 362 366
f 317 366 321
f 367 366 362
f 367 362 363
f 359 363 358
f 359 358 401
f 359 358 362
f 359 362 363
f 367 379 378
f 379 415 378
f 379 367 366
f 379 366 378
f 363 359 402
f 363 402 405
f 405 401 402
f 363 362 405
f 359 401 402
f 416 379 367
f 416 367 408
f 408 416 415
f 367 408 366
f 363 408 367
f 379 416 415
f 408 363 405
f 405 402 431
f 405 431 433
f 408 405 436
f 442 416 408
f 442 408 436
f 433 436 405
f 460 461 433
f 433 461 434
f 433 431 458
f 433 458 460
f 436 464 463
f 436 434 461
f 436 461 464
f 470 442 436
f 470 436 463
f 461 460 463
f 461 463 464
f 436 433 434
f 464 463 460
f 464 460 461
f 486 458 484
f 458 486 460
f 460 486 461
f 488 461 486
f 494 470 488
f 470 463 488
f 488 460 461
f 488 463 460
f 484 518 522
f 484 522 486
f 494 526 534
f 488 526 494
f 522 486 488
f 522 488 526
f 526 488 486
f 526 486 522
f 518 517 522
f 534 526 533
f 568 518 564
f 518 568 522
f 568 522 567
f 564 517 563
f 568 521 517
f 568 517 564
f 568 567 521
f 564 563 567
f 564 567 568
f 568 522 521
f 518 517 564
f 564 517 521
f 564 521 568
f 584 534 572
f 526 572 534
f 572 571 526
f 568 567 571
f 568 571 572
f 584 583 533
f 572 584 533
f 572 533 525
f 572 525 571
f 584 572 571
f 584 571 583
f 572 525 526
f 568 522 526
f 568 526 572
f 534 584 533
f 584 572 525
f 584 525 533
f 572 526 522
f 572 522 568
f 563 567 568
f 568 564 563
f 572 571 583
f 583 584 572
f 572 571 567
f 572 567 568
f 614 618 563
f 567 563 618
f 571 567 618
f 571 618 622
f 622 632 583
f 583 571 622
f 614 613 617
f 614 617 618
f 614 563 613
f 632 622 621
f 632 621 631
f 632 631 583
f 618 617 680
f 618 614 613
f 618 613 617
f 688 621 622
f 631 632 622
f 631 622 621
f 618 617 621
f 618 621 622
f 622 621 617
f 622 617 618
f 672 680 613
f 672 613 612
f 680 617 613
f 672 613 617
f 672 617 680
f 680 688 621
f 688 696 631
f 696 630 631
f 688 631 621
f 680 617 621
f 696 688 621
f 696 621 631
f 688 621 617
f 688 617 680
f 680 671 679
f 671 680 672
f 672 612 671
f 672 671 679
f 672 679 680
f 695 688 687
f 688 695 696
f 680 679 687
f 680 687 688
f 696 695 630
f 696 688 687
f 696 687 695
f 688 687 679
f 688 679 680
f 679 671 670
f 679 670 725
f 725 726 679
f 726 678 725
f 679 678 726
f 670 678 725
f 687 679 726
f 687 726 732
f 694 695 687
f 694 687 731
f 732 731 687
f 732 731 686
f 687 732 686
f 726 678 686
f 726 686 732
f 694 731 686
f 720 725 670
f 720 670 678
f 720 678 725
f 726 725 731
f 726 731 732
f 731 736 694
f 725 678 686
f 725 686 731
f 736 731 686
f 736 686 694
f 731 686 678
f 731 678 725
f 732 686 678
f 732 678 726
f 725 720 719
f 725 719 724
f 725 677 724
f 725 678 677
f 724 677 678
f 724 678 725
f 720 670 669
f 720 669 719
f 719 669 677
f 719 677 724
f 735 736 731
f 735 731 730
f 731 730 685
f 731 685 686
f 730 731 686
f 730 686 685
f 725 677 686
f 736 693 694
f 736 735 693
f 735 730 685
f 735 685 693
f 724 677 669
f 724 669 719
f 725 724 730
f 725 730 731
f 730 735 693
f 730 693 685
f 731 685 677
f 731 677 725
f 718 723 719
f 719 723 724
f 723 676 677
f 723 677 724
f 719 669 668
f 719 668 718
f 718 668 676
f 718 676 723
f 729 734 735
f 730 729 735
f 729 730 685
f 729 685 684
f 735 734 692
f 735 692 693
f 734 729 684
f 734 684 692
f 730 724 723
f 723 676 668
f 723 668 718
f 729 734 692
f 729 692 684
f 717 722 723
f 717 723 718
f 722 676 675
f 723 676 722
f 718 668 667
f 718 667 717
f 717 667 675
f 717 675 722
f 729 728 733
f 729 733 734
f 728 683 684
f 729 728 684
f 722 675 684
f 722 684 728
f 734 733 691
f 734 691 692
f 733 728 683
f 733 683 691
f 728 729 723
f 728 723 722
f 722 675 667
f 722 667 717
f 722 675 683
f 722 683 728
f 728 733 691
f 728 691 683
f 728 683 675
f 728 675 722
f 666 674 722
f 666 722 667
f 722 674 721
f 722 675 674
f 721 675 722
f 721 674 675
f 728 682 690
f 728 690 691
f 728 727 682
f 728 682 683
f 727 728 683
f 727 683 682
f 721 675 683
f 721 683 727
f 727 728 722
f 727 722 721
f 674 682 727
f 674 727 721
f 727 683 674
f 673 666 665
f 666 673 674
f 666 611 665
f 665 666 674
f 665 674 673
f 689 690 681
f 682 681 690
f 673 674 682
f 673 682 681
f 690 689 625
f 689 681 682
f 689 682 690
f 681 682 674
f 681 674 673
f 673 616 610
f 673 610 665
f 665 610 616
f 665 616 673
f 665 611 610
f 673 616 620
f 673 620 681
f 681 689 624
f 681 624 620
f 689 681 620
f 689 620 624
f 689 624 625
f 681 620 616
f 681 616 673
f 609 615 610
f 615 616 610
f 609 610 616
f 609 616 615
f 616 615 619
f 616 619 620
f 619 623 624
f 619 624 620
f 615 616 620
f 615 620 619
f 623 619 620
f 623 620 624
f 615 609 561
f 615 566 561
f 609 562 561
f 609 561 566
f 609 566 615
f 574 623 619
f 615 566 570
f 615 570 619
f 619 574 570
f 623 574 575
f 623 619 570
f 623 570 574
f 565 566 570
f 619 570 566
f 619 566 615
f 560 565 561
f 565 566 520
f 560 516 515
f 560 561 516
f 565 566 561
f 560 516 520
f 560 520 565
f 560 561 566
f 560 566 565
f 569 573 574
f 569 524 570
f 565 570 569
f 573 527 528
f 573 528 574
f 569 574 570
f 573 569 524
f 573 524 528
f 573 569 570
f 573 570 574
f 569 570 566
f 569 566 565
f 515 519 565
f 515 565 560
f 519 516 515
f 565 520 519
f 565 520 516
f 565 516 560
f 569 565 519
f 569 519 523
f 569 523 527
f 569 527 573
f 523 527 528
f 569 523 524
f 565 519 523
f 565 523 569
f 569 573 528
f 569 528 524
f 515 483 485
f 515 485 519
f 519 485 483
f 519 483 515
f 523 519 485
f 523 485 487
f 527 523 487
f 527 487 489
f 519 485 487
f 519 487 523
f 523 527 489
f 523 489 487
f 457 459 485
f 457 485 483
f 462 485 459
f 487 462 465
f 487 465 489
f 485 462 487
f 430 432 459
f 430 459 457
f 462 435 437
f 462 437 465
f 432 435 462
f 432 462 459
f 432 430 403
f 437 435 406
f 403 430 399
f 432 403 406
f 432 406 435
f 406 409 437
f 403 399 360
f 399 400 403
f 356 400 399
f 409 406 364
f 409 368 410
f 409 406 410
f 356 360 399
f 360 361 357
f 360 357 356
f 356 357 361
f 356 361 360
f 360 404 361
f 360 403 404
f 360 361 403
f 356 400 357
f 360 404 400
f 360 400 399
f 403 360 364
f 403 364 406
f 364 368 409
f 360 361 365
f 360 365 364
f 364 368 369
f 364 369 365
f 368 364 365
f 368 365 369
f 364 365 407
f 364 407 406
f 364 406 365
f 368 369 410
f 364 409 410
f 364 410 407
f 364 365 361
f 364 361 360
f 309 314 357
f 357 314 361
f 309 357 361
f 309 361 314
f 365 361 318
f 318 322 369
f 365 318 369
f 314 361 365
f 314 365 318
f 322 318 365
f 322 365 369
f 314 318 361
f 314 310 309
f 309 310 315
f 309 315 314
f 318 322 323
f 322 318 319
f 322 319 323
f 314 264 315
f 315 263 314
f 264 263 315
f 264 310 255
f 310 264 315
f 314 310 315
f 263 314 264
f 255 310 315
f 255 315 264
f 272 318 319
f 318 271 319
f 271 272 319
f 318 314 263
f 318 263 271
f 278 323 272
f 319 272 323
f 323 318 319
f 271 272 318
f 264 315 319
f 264 319 272
f 278 272 319
f 278 319 323
f 314 315 319
f 314 319 318
f 272 271 263
f 272 263 264
f 318 319 315
f 318 315 314
f 255 310 311
f 255 311 256
f 278 324 323
f 278 279 324
f 272 319 315
f 272 315 264
f 256 265 264
f 256 264 255
f 255 256 265
f 255 265 264
f 272 273 279
f 272 279 278
f 264 265 273
f 264 273 272
f 278 272 273
f 278 273 279
f 272 273 265
f 272 265 264
f 257 198 256
f 204 198 199
f 204 199 205
f 198 204 256
f 198 257 199
f 256 204 265
f 204 266 205
f 204 265 266
f 204 266 257
f 204 257 256
f 199 257 266
f 199 266 205
f 216 217 280
f 279 216 280
f 217 216 210
f 217 210 211
f 210 216 279
f 265 204 210
f 265 210 273
f 273 210 279
f 210 211 274
f 210 274 273
f 204 266 274
f 204 274 210
f 210 279 280
f 210 280 274
f 217 211 274
f 217 274 280
f 204 265 273
f 204 273 210
f 205 266 257
f 205 257 199
f 204 205 211
f 204 211 210
f 205 266 274
f 205 274 211
f 211 217 280
f 211 280 274
f 211 274 266
f 211 266 205
f 210 274 266
f 210 266 204
f 200 206 205
f 200 205 199
f 205 206 266
f 199 258 200
f 199 257 258
f 200 258 206
f 211 212 218
f 211 218 217
f 205 206 212
f 205 212 211
f 211 274 212
f 217 218 281
f 217 281 280
f 218 212 281
f 206 212 211
f 188 182 183
f 188 183 189
f 178 183 182
f 178 182 177
f 177 225 226
f 177 226 178
f 182 225 177
f 178 226 183
f 188 189 195
f 188 195 194
f 194 195 251
f 194 251 250
f 178 226 235
f 178 235 183
f 189 183 184
f 189 184 190
f 179 184 183
f 179 183 178
f 178 226 227
f 178 227 179
f 183 235 226
f 179 227 236
f 179 236 184
f 189 190 196
f 189 196 195
f 196 195 251
f 196 190 243
f 196 243 252
f 195 196 252
f 195 252 251
f 184 236 243
f 184 243 190
f 184 236 227
f 184 227 179
f 190 196 252
f 190 252 243
f 190 184 185
f 190 185 191
f 228 185 184
f 228 184 227
f 185 228 237
f 185 236 184
f 185 236 237
f 190 243 236
f 190 236 184
f 243 244 191
f 185 236 243
f 185 243 191
f 196 197 253
f 190 191 197
f 190 197 196
f 191 190 243
f 197 191 244
f 197 244 253
f 196 253 252
f 191 185 237
f 191 237 244
f 191 244 236
f 191 236 185
f 185 237 244
f 185 244 191
f 191 244 253
f 191 253 197
f 244 237 238
f 244 238 245
f 229 238 237
f 229 237 228
f 244 245 254
f 244 254 253
f 238 289 229
f 229 289 293
f 229 293 238
f 245 244 237
f 245 237 238
f 229 228 289
f 238 237 228
f 238 228 229
f 254 245 297
f 254 297 307
f 254 307 253
f 245 254 253
f 245 253 244
f 289 293 238
f 238 293 294
f 245 297 293
f 245 293 238
f 238 293 297
f 238 297 245
f 245 297 307
f 245 307 254
f 297 298 308
f 297 308 307
f 245 298 297
f 308 298 307
f 307 298 297
f 298 246 245
f 245 238 294
f 245 294 298
f 290 294 293
f 290 293 289
f 298 297 293
f 298 293 294
f 294 293 289
f 294 289 290
f 294 293 297
f 294 297 298
f 294 290 334
f 334 338 294
f 308 298 342
f 308 342 354
f 298 294 338
f 298 338 342
f 342 338 339
f 342 339 343
f 294 338 342
f 294 342 298
f 342 343 355
f 342 355 354
f 298 354 308
f 298 342 354
f 335 339 338
f 335 338 334
f 343 342 338
f 343 338 339
f 335 334 382
f 339 338 334
f 339 334 335
f 335 382 338
f 355 397 354
f 343 355 354
f 343 354 342
f 343 339 387
f 343 387 390
f 383 339 335
f 339 383 387
f 387 386 382
f 387 382 383
f 339 338 387
f 339 387 390
f 339 390 343
f 335 382 383
f 339 338 382
f 339 382 335
f 383 382 386
f 383 386 387
f 343 390 398
f 343 398 355
f 343 390 342
f 355 398 397
f 390 387 420
f 390 420 422
f 418 387 383
f 387 418 420
f 390 422 429
f 390 429 398
f 446 447 420
f 422 450 423
f 422 420 447
f 422 447 450
f 444 420 418
f 420 444 446
f 447 446 449
f 447 449 450
f 422 450 449
f 422 449 456
f 422 456 429
f 450 449 446
f 450 446 447
f 472 446 444
f 446 472 474
f 476 449 446
f 476 446 474
f 449 476 450
f 456 449 476
f 456 476 482
f 476 474 502
f 476 502 506
f 498 502 474
f 498 474 472
f 506 476 474
f 506 474 502
f 476 506 514
f 476 514 482
f 502 497 498
f 498 497 501
f 498 501 502
f 543 539 538
f 506 502 543
f 506 543 547
f 539 502 498
f 543 502 539
f 543 502 542
f 547 506 502
f 547 502 543
f 543 542 546
f 543 546 547
f 539 497 538
f 543 501 497
f 543 497 539
f 543 542 501
f 538 542 543
f 543 502 501
f 498 497 539
f 502 501 497
f 539 497 501
f 539 501 543
f 506 547 559
f 506 559 514
f 547 546 506
f 559 547 546
f 559 546 558
f 559 558 513
f 547 559 513
f 547 513 546
f 547 505 506
f 559 547 505
f 559 505 513
f 514 559 513
f 547 546 542
f 547 542 543
f 547 546 558
f 547 558 559
f 546 542 594
f 546 594 598
f 590 594 542
f 542 538 590
f 546 598 608
f 546 608 558
f 598 608 558
f 598 558 546
f 594 589 590
f 590 589 593
f 590 593 594
f 598 546 542
f 598 542 594
f 590 538 589
f 594 542 538
f 594 538 590
f 608 598 597
f 608 597 607
f 608 607 558
f 594 593 648
f 598 594 593
f 598 593 597
f 594 589 593
f 594 593 597
f 594 597 598
f 656 597 598
f 597 656 607
f 598 597 607
f 598 607 608
f 597 593 648
f 597 648 656
f 640 648 593
f 640 593 589
f 656 597 593
f 656 593 648
f 640 589 588
f 648 593 589
f 648 589 640
f 664 606 607
f 656 664 607
f 664 656 597
f 664 597 607
f 639 647 648
f 648 647 655
f 648 655 656
f 640 588 639
f 648 593 588
f 648 588 640
f 640 639 647
f 640 647 648
f 656 655 663
f 656 663 664
f 664 663 606
f 664 656 655
f 664 655 663
f 656 648 647
f 656 647 655
f 655 647 706
f 655 706 712
f 638 647 639
f 647 646 705
f 647 638 646
f 705 706 647
f 706 646 705
f 647 646 706
f 706 646 654
f 706 654 712
f 662 663 716
f 655 712 663
f 712 711 716
f 712 716 663
f 712 711 654
f 655 712 654
f 716 711 654
f 716 654 662
f 700 705 638
f 712 706 705
f 712 705 711
f 638 705 646
f 711 654 646
f 711 646 705
f 705 646 654
f 705 654 711
f 700 638 646
f 700 646 705
f 712 654 646
f 712 646 706
f 711 716 662
f 711 662 654
f 699 705 700
f 705 699 704
f 705 645 704
f 705 646 645
f 704 645 646
f 704 646 705
f 654 653 711
f 700 638 637
f 700 637 699
f 699 637 645
f 699 645 704
f 711 710 715
f 711 715 716
f 711 710 653
f 710 711 654
f 710 654 653
f 716 661 662
f 715 710 653
f 715 653 661
f 716 715 661
f 711 705 704
f 711 704 710
f 704 645 637
f 704 637 699
f 711 653 645
f 711 645 705
f 710 715 661
f 710 661 653
f 698 703 704
f 698 704 699
f 703 644 645
f 703 645 704
f 699 637 636
f 699 636 698
f 698 636 644
f 698 644 703
f 710 709 714
f 710 714 715
f 714 709 652
f 714 652 660
f 709 710 653
f 709 653 652
f 715 714 660
f 715 660 661
f 703 644 636
f 703 636 698
f 709 714 660
f 709 660 652
f 709 703 702
f 709 702 708
f 697 702 703
f 697 703 698
f 702 644 643
f 703 644 702
f 652 651 708
f 702 644 652
f 702 652 708
f 698 636 635
f 698 635 697
f 697 635 643
f 697 643 702
f 709 708 713
f 709 713 714
f 709 708 652
f 713 708 651
f 713 651 659
f 714 713 659
f 714 659 660
f 635 702 697
f 708 651 643
f 708 643 702
f 702 643 651
f 702 651 708
f 702 643 635
f 708 713 659
f 708 659 651
f 708 702 701
f 708 701 707
f 634 642 643
f 634 643 635
f 642 702 643
f 702 642 701
f 701 643 702
f 701 642 643
f 701 643 651
f 701 651 707
f 708 650 658
f 708 658 713
f 713 658 659
f 708 707 650
f 708 650 651
f 707 708 651
f 707 651 650
f 707 701 642
f 707 642 650
f 707 651 643
f 707 643 701
f 650 642 641
f 650 641 649
f 633 642 634
f 642 633 641
f 634 587 633
f 633 587 642
f 650 649 657
f 650 657 658
f 658 657 601
f 641 633 586
f 641 592 596
f 641 596 649
f 641 592 586
f 649 650 642
f 649 642 641
f 633 587 586
f 641 642 587
f 641 587 633
f 633 586 592
f 633 592 641
f 657 649 596
f 657 596 600
f 649 657 600
f 649 600 596
f 657 600 601
f 649 657 658
f 649 658 650
f 649 641 592
f 649 592 596
f 596 592 591
f 596 591 595
f 585 591 592
f 585 592 586
f 595 596 592
f 595 592 591
f 591 592 586
f 591 586 585
f 595 599 600
f 595 600 596
f 599 595 596
f 599 596 600
f 536 591 585
f 591 536 541
f 591 541 545
f 591 545 595
f 585 537 536
f 585 536 541
f 585 541 591
f 599 595 545
f 599 545 549
f 595 599 549
f 595 549 545
f 599 549 550
f 595 591 541
f 595 541 545
f 545 544 549
f 540 535 495
f 536 540 541
f 540 536 535
f 544 541 540
f 540 541 500
f 544 545 541
f 540 541 545
f 540 545 544
f 535 496 495
f 535 536 496
f 495 496 500
f 495 500 540
f 535 536 541
f 535 541 540
f 544 504 545
f 548 507 508
f 548 544 504
f 548 504 508
f 548 508 549
f 544 548 549
f 548 544 545
f 548 545 549
f 544 540 499
f 544 499 503
f 495 499 540
f 499 500 496
f 499 496 495
f 540 500 499
f 540 499 503
f 540 503 544
f 540 500 496
f 540 496 495
f 495 500 499
f 507 544 503
f 544 507 548
f 544 503 504
f 544 548 508
f 544 508 504
f 495 471 499
f 503 499 473
f 503 473 475
f 471 473 499
f 499 473 475
f 499 475 503
f 503 475 477
f 507 503 477
f 471 443 473
f 475 473 445
f 475 445 448
f 443 445 473
f 475 448 451
f 475 451 477
f 445 443 417
f 448 445 419
f 448 419 421
f 417 419 445
f 448 421 424
f 448 424 451
f 419 417 380
f 421 388 391
f 421 391 424
f 421 419 384
f 421 384 388
f 384 419 380
f 388 391 424
f 388 424 421
f 384 380 332
f 384 381 380
f 332 381 385
f 332 385 384
f 380 381 332
f 388 340 344
f 388 344 391
f 391 344 392
f 336 332 333
f 388 384 336
f 388 336 340
f 332 336 384
f 336 337 341
f 336 341 340
f 336 337 333
f 336 385 337
f 336 384 385
f 336 337 384
f 332 381 333
f 384 385 381
f 384 381 332
f 332 333 337
f 332 337 336
f 344 340 341
f 344 341 345
f 340 344 345
f 340 345 341
f 340 341 389
f 340 389 388
f 340 388 341
f 344 345 392
f 340 344 392
f 340 392 388
f 340 336 337
f 340 337 341
f 341 337 295
f 295 337 291
f 286 291 337
f 286 337 333
f 291 337 333
f 291 333 286
f 291 337 341
f 291 341 295
f 341 295 299
f 341 299 345
f 295 299 345
f 295 345 341
f 291 286 287
f 291 292 287
f 299 295 296
f 299 296 300
f 291 231 292
f 292 230 291
f 231 230 292
f 295 291 230
f 295 230 239
f 239 230 231
f 239 231 240
f 292 287 222
f 292 222 231
f 230 291 231
f 295 296 292
f 295 292 291
f 231 292 296
f 231 296 240
f 291 292 296
f 291 296 295
f 240 295 296
f 295 239 296
f 239 240 296
f 296 240 247
f 296 247 300
f 295 296 300
f 295 300 299
f 239 240 295
f 240 296 292
f 240 292 231
f 222 287 288
f 231 292 287
f 231 287 222
f 222 223 231
f 222 288 223
f 247 301 300
f 240 247 300
f 240 300 296
f 247 248 301
f 223 232 231
f 231 232 241
f 231 241 240
f 248 240 241
f 240 248 247
f 247 240 241
f 247 241 248
f 240 231 232
f 240 232 241
f 224 180 232
f 224 232 223
f 180 224 176
f 180 176 181
f 241 232 180
f 241 180 186
f 180 233 181
f 180 232 233
f 186 241 232
f 186 232 180
f 180 233 242
f 180 242 186
f 232 233 224
f 176 224 233
f 176 233 181
f 192 193 249
f 248 192 249
f 186 187 193
f 186 193 192
f 186 192 248
f 241 186 248
f 186 187 242
f 186 242 241
f 193 187 242
f 193 242 249
f 186 192 249
f 186 249 241
f 192 186 241
f 192 241 248
f 186 180 181
f 186 181 187
f 187 242 233
f 187 233 181
f 181 233 242
f 181 242 187
f 181 233 224
f 181 224 176
f 186 242 233
f 186 233 180
f 187 193 249
f 187 249 242
f 177 182 181
f 177 181 176
f 181 182 188
f 181 188 187
f 181 182 233
f 176 225 177
f 181 233 225
f 181 225 176
f 177 225 234
f 177 234 182
f 176 224 225
f 176 225 233
f 187 188 194
f 187 194 193
f 187 242 188
f 193 194 250
f 193 250 249
f 187 181 182
f 187 182 188
f 182 234 225
f 351 352 395
f 350 304 351
f 304 350 348
f 350 349 348
f 347 348 394
f 552 551 510
f 554 552 553
f 556 555 511
f 552 554 604
f 554 555 604
f 367 321 317
f 367 317 363
f 321 277 269
f 321 269 317
f 211 273 265
f 211 265 205
f 272 318 314
f 272 314 264
f 435 462 459
f 435 459 432
f 682 728 722
f 682 722 674
f 729 730 724
f 729 724 723
f 433 460 463
f 433 463 436
f 208 209 215
f 208 215 214
f 328 327 282
f 281 326 325
f 281 325 280
f 324 371 370
f 370 411 410
f 528 529 575
f 626 627 692
f 692 627 628
f 692 628 693
f 679 725 731
f 679 731 687
f 618 680 688
f 618 688 622
f 581 582 630
f 567 618 622
f 567 622 571
f 460 486 488
f 415 416 442
f 330 331 378
f 414 413 376
f 376 375 328
f 328 375 374
f 328 374 327
f 282 220 283
f 281 218 219
f 281 219 282
f 280 218 281
f 326 373 372
f 326 372 325
f 323 278 279
f 369 322 323
f 371 412 370
f 370 412 411
f 410 409 369
f 574 527 528
f 529 530 576
f 690 689 624
f 626 577 578
f 626 578 627
f 693 735 734
f 693 734 692
f 627 578 579
f 627 579 628
f 694 735 693
f 628 579 580
f 628 580 629
f 583 632 582
f 581 531 532
f 533 534 583
f 532 531 492
f 494 534 533
f 415 414 378
f 414 377 378
f 377 329 330
f 328 282 283
f 324 370 323
f 575 576 624
f 576 625 624
f 626 692 691
f 628 629 694
f 628 694 693
f 582 532 533
f 469 442 470
f 469 441 442
f 441 469 468
f 441 468 440
f 441 415 442
f 415 441 440
f 415 440 414
f 378 377 330
f 377 414 376
f 329 377 376
f 330 329 284
f 328 329 376
f 329 328 283
f 329 283 284
f 281 282 327
f 281 327 326
f 280 325 279
f 325 324 279
f 324 325 372
f 324 323 279
f 371 324 372
f 323 370 369
f 370 410 369
f 438 410 411
f 438 411 439
f 410 438 437
f 410 437 409
f 438 466 465
f 438 465 437
f 466 438 439
f 466 439 467
f 466 490 489
f 466 489 465
f 490 466 467
f 490 467 491
f 490 528 527
f 490 527 489
f 528 490 529
f 529 490 491
f 528 575 574
f 575 624 574
f 576 575 529
f 625 690 624
f 625 576 577
f 626 625 577
f 626 691 625
f 625 691 690
f 629 630 694
f 694 630 695
f 630 629 581
f 581 629 580
f 630 582 631
f 532 582 581
f 582 533 583
f 533 532 493
f 493 532 492
f 533 493 494
f 493 469 470
f 493 470 494
f 469 493 492
f 469 492 468
f 631 582 632
f 378 321 367
f 358 363 317
f 330 277 321
f 262 312 317
f 262 317 269
f 201 202 208
f 201 208 207
f 199 200 206
f 199 206 205
f 280 279 273
f 280 273 211
f 256 257 205
f 256 205 265
f 323 318 272
f 309 310 264
f 309 264 314
f 369 409 406
f 369 406 364
f 399 357 360
f 409 437 435
f 409 435 406
f 457 430 432
f 457 432 459
f 690 691 683
f 690 683 682
f 667 666 674
f 667 674 675
f 734 735 730
f 734 730 729
f 583 534 572
f 518 563 568
f 431 458 460
f 431 460 433
f 402 431 433
f 402 433 405
f 359 402 405
f 359 405 363
f 260 261 268
f 260 268 208
f 208 268 209
f 284 283 214
f 284 214 276
f 276 214 215
f 200 201 207
f 200 207 206
f 483 457 459
f 483 459 485
f 561 515 519
f 561 519 565
f 527 574 569
f 718 667 722
f 718 722 723
f 691 734 729
f 691 729 728
f 720 719 724
f 720 724 725
f 671 670 725
f 671 725 679
f 613 680 618
f 631 622 688
f 632 583 571
f 632 571 622
f 494 470 463
f 494 463 488
f 735 694 736
f 218 280 217
f 623 574 624
f 343 298 294
f 343 294 339
f 298 245 238
f 298 238 294
f 190 189 183
f 190 183 184
f 187 241 232
f 187 232 181
f 240 295 291
f 240 291 231
f 340 388 384
f 340 384 336
f 388 421 419
f 388 419 384
f 421 448 445
f 421 445 419
f 650 708 702
f 650 702 642
f 709 710 704
f 709 704 703
f 420 446 449
f 420 449 422
f 387 420 422
f 387 422 390
f 184 185 191
f 184 191 190
f 305 304 251
f 182 183 189
f 182 189 188
f 250 303 302
f 250 302 249
f 301 347 346
f 346 393 392
f 473 445 448
f 473 448 475
f 508 509 550
f 703 702 708
f 703 708 709
f 602 603 660
f 660 603 604
f 660 604 661
f 705 704 710
f 705 710 711
f 647 705 711
f 647 711 655
f 594 648 656
f 594 656 598
f 556 557 606
f 397 398 429
f 307 308 354
f 396 395 352
f 352 351 305
f 305 351 350
f 305 350 304
f 251 196 252
f 250 194 195
f 250 195 251
f 249 194 250
f 303 349 348
f 303 348 302
f 300 247 248
f 345 299 300
f 347 394 346
f 346 394 393
f 392 391 345
f 549 507 508
f 509 510 551
f 658 657 600
f 602 552 553
f 602 553 603
f 661 715 714
f 661 714 660
f 603 553 554
f 603 554 604
f 662 715 661
f 604 555 605
f 558 608 557
f 556 511 512
f 513 514 558
f 512 511 480
f 482 514 513
f 397 396 354
f 396 353 354
f 353 306 307
f 305 251 252
f 301 346 300
f 550 551 600
f 551 601 600
f 602 660 659
f 604 605 662
f 604 662 661
f 557 512 513
f 455 429 456
f 455 428 429
f 428 455 454
f 428 454 427
f 428 397 429
f 397 428 427
f 397 427 396
f 354 353 307
f 353 396 352
f 306 353 352
f 307 306 253
f 305 306 352
f 306 305 252
f 306 252 253
f 250 251 304
f 250 304 303
f 249 302 248
f 302 301 248
f 301 302 348
f 301 300 248
f 347 301 348
f 300 346 345
f 346 392 345
f 425 392 393
f 425 393 426
f 392 425 424
f 392 424 391
f 425 452 451
f 425 451 424
f 452 425 426
f 452 426 453
f 452 478 477
f 452 477 451
f 478 452 453
f 478 453 479
f 478 508 507
f 478 507 477
f 508 478 509
f 509 478 479
f 508 550 549
f 550 600 549
f 551 550 509
f 601 658 600
f 601 551 552
f 602 601 552
f 602 659 601
f 601 659 658
f 605 606 662
f 662 606 663
f 606 605 556
f 556 605 555
f 606 557 607
f 512 557 556
f 557 513 558
f 513 512 481
f 481 512 480
f 513 481 482
f 481 455 456
f 481 456 482
f 455 481 480
f 455 480 454
f 607 557 608
f 354 308 355
f 355 308 298
f 355 298 343
f 334 339 294
f 307 254 308
f 308 254 245
f 308 245 298
f 229 289 294
f 229 294 238
f 178 179 184
f 178 184 183
f 176 177 182
f 176 182 181
f 249 248 193
f 193 248 241
f 193 241 187
f 223 224 181
f 223 181 232
f 222 223 232
f 222 232 231
f 300 299 247
f 247 299 295
f 247 295 240
f 286 287 231
f 286 231 291
f 345 391 344
f 380 333 336
f 380 336 384
f 417 380 384
f 417 384 419
f 443 417 419
f 443 419 445
f 495 471 473
f 495 473 499
f 634 633 641
f 634 641 642
f 658 659 708
f 635 634 642
f 635 642 643
f 699 698 703
f 699 703 704
f 558 514 559
f 498 538 543
f 472 502 474
f 418 444 446
f 418 446 420
f 383 418 420
f 383 420 387
f 335 383 387
f 335 387 339
f 227 228 237
f 227 237 184
f 184 237 185
f 253 196 190
f 253 190 191
f 177 178 183
f 177 183 182
f 471 443 445
f 471 445 473
f 536 495 499
f 536 499 540
f 507 549 548
f 698 635 702
f 698 702 703
f 700 699 704
f 700 704 705
f 639 638 705
f 639 705 647
f 716 663 655
f 716 655 711
f 589 648 594
f 607 608 664
f 664 608 598
f 664 598 656
f 498 543 502
f 472 498 502
f 444 472 474
f 444 474 446
f 482 456 449
f 482 449 476
f 715 662 716
f 194 249 193
f 599 549 600
v 0.51600 0.04550 0.01100
v 0.49747 -0.29897 -0.13562
v 0.49400 -0.29250 0.15000
v 0.50350 0.04550 0.10400
v 0.51275 -0.29250 -0.04725
v 0.51250 0.04550 -0.05900
v 0.50476 0.03371 -0.09415
v 0.50000 0.04550 -0.12800
v 0.49300 0.04350 0.15000
v 0.49100 0.04250 0.14900
v 0.48500 0.04350 -0.17300
v 0.47800 0.04550 0.19400
v 0.47605 0.04331 0.19537
v 0.46900 0.04550 -0.21700
v 0.46038 0.04393 -0.23391
v 0.45800 0.04550 0.23700
v 0.50274 -0.30312 0.11790
v 0.45700 0.04350 0.23600
v 0.46900 -0.29250 -0.21700
v 0.44700 0.04550 -0.25900
v 0.40163 -0.29781 -0.32367
v 0.39200 -0.29250 0.33450
v 0.43500 0.04550 0.27800
v 0.44672 0.04134 0.25203
v 0.42200 0.04550 -0.29800
v 0.40913 0.04220 -0.31211
v 0.49235 0.03360 0.11291
v 0.40800 0.04550 0.31600
v 0.42260 0.04392 0.29577
v 0.39300 0.04550 -0.33500
v 0.37600 0.04550 0.35300
v 0.34635 0.03440 0.37108
v 0.38141 -0.31871 0.31193
v 0.39150 -0.29250 -0.33400
v 0.36100 0.04550 -0.37000
v 0.34444 0.04417 -0.38510
v 0.41554 0.00896 0.15949
v 0.30700 0.04550 0.41400
v 0.42635 -0.32930 0.04434
v 0.31591 -0.32142 -0.37389
v 0.27513 0.02850 -0.12350
v 0.33878 0.04328 0.38850
v 0.30700 -0.29250 0.41400
v 0.30700 0.04550 -0.41500
v 0.26761 -0.32677 0.28683
v 0.28638 -0.31050 -0.02144
v 0.26800 -0.29250 -0.44100
v 0.22976 -0.29661 -0.46005
v 0.22696 0.03670 -0.46205
v 0.34589 0.00921 -0.29392
v 0.16100 -0.29250 0.48700
v 0.20550 0.04550 0.47250
v 0.16867 0.00974 0.37559
v 0.14343 -0.32984 0.39272
v -0.09850 -0.31050 -0.30000
v -0.03794 0.02850 -0.27875
v 0.16200 -0.29250 -0.49100
v 0.20500 0.04550 -0.47200
v 0.12839 -0.29661 -0.49870
v 0.21160 -0.30192 0.46842
v 0.09400 0.04550 0.50700
v 0.31567 -0.32955 -0.29526
v 0.18710 0.02753 0.46647
v -0.08449 -0.30636 -0.50797
v 0.02350 -0.29250 0.51400
v 0.21681 0.02850 0.20706
v 0.04700 -0.29250 -0.51400
v 0.00000 0.04550 0.51500
v 0.11616 -0.32814 -0.41043
v 0.00930 0.04017 -0.51486
v -0.14009 -0.32964 0.40133
v -0.07000 -0.29250 0.51000
v -0.07000 0.04550 0.51000
v -0.07000 -0.29250 -0.51200
v 0.00000 0.04550 -0.51200
v -0.21480 0.02074 -0.44277
v -0.02282 -0.29791 0.51715
v -0.18937 0.00818 0.38476
v -0.03602 0.04266 0.51599
v -0.16100 0.04550 -0.49100
v -0.22600 -0.29250 0.46100
v -0.18400 0.04550 0.48200
v -0.18300 -0.29250 -0.48250
v -0.20500 0.04550 -0.47400
v 0.01850 -0.31050 0.28894
v -0.09900 0.02850 0.30050
v -0.02897 0.00943 -0.42097
v -0.14409 0.03193 0.48862
v -0.28969 -0.31050 0.00444
v -0.24437 0.04277 0.45215
v -0.26800 0.04550 0.44000
v -0.40849 -0.33040 0.18748
v -0.29419 0.02850 0.01213
v -0.23574 -0.30813 0.44731
v -0.30700 -0.29250 0.41400
v -0.30700 0.04550 0.41400
v -0.28800 -0.29250 -0.42900
v -0.23904 -0.32866 -0.36261
v -0.41367 0.03953 -0.30900
v -0.36000 -0.29250 -0.37000
v -0.28800 0.04550 -0.42900
v -0.44730 -0.32628 0.02939
v -0.44600 -0.29250 0.25750
v -0.37700 0.04550 0.35200
v -0.43857 0.01555 -0.19135
v -0.39300 -0.29250 -0.33500
v -0.39300 0.04550 -0.33500
v -0.36632 -0.32632 -0.25098
v -0.41527 0.01525 -0.02961
v -0.44600 0.04550 0.25750
v -0.39985 -0.30271 -0.33262
v -0.45750 -0.29250 -0.23800
v -0.41831 -0.29809 0.30705
v -0.47800 0.04550 0.19400
v -0.41997 0.02760 0.28719
v -0.50711 -0.29661 -0.08725
v -0.50000 -0.29250 -0.12800
v -0.48600 0.04550 -0.17300
v -0.51050 0.04550 0.05750
v -0.51706 0.03846 -0.04953
v -0.50820 -0.30354 0.06458
v -0.51500 0.04550 -0.03600
v -0.51550 -0.29250 -0.01250
usemtl m028
f 829 822 814
f 829 814 845
f 792 829 845
f 792 845 823
f 792 823 786
f 777 792 786
f 777 786 773
f 802 777 773
f 822 802 789
f 822 789 814
f 814 824 851
f 851 845 814
f 841 845 851
f 812 845 841
f 823 845 812
f 823 812 806
f 823 806 785
f 823 785 786
f 786 743 773
f 773 743 763
f 789 773 799
f 789 799 814
f 814 799 824
f 802 773 789
f 768 799 773
f 809 815 804
f 818 824 815
f 818 815 809
f 818 826 824
f 827 826 818
f 832 851 826
f 832 826 827
f 840 851 832
f 846 851 840
f 850 851 846
f 855 856 851
f 855 851 850
f 858 856 855
f 854 856 858
f 854 835 856
f 843 835 854
f 837 835 843
f 837 812 835
f 820 812 837
f 816 812 820
f 811 806 812
f 811 812 816
f 811 785 806
f 794 785 811
f 780 785 794
f 780 772 785
f 771 772 780
f 766 762 772
f 766 772 771
f 761 762 766
f 756 751 762
f 756 762 761
f 750 751 756
f 750 747 751
f 744 743 747
f 744 747 750
f 742 743 744
f 737 743 742
f 740 743 737
f 740 763 743
f 740 745 763
f 748 749 745
f 748 745 740
f 752 754 749
f 752 749 748
f 759 765 754
f 759 754 752
f 764 765 759
f 774 778 767
f 774 799 778
f 788 799 774
f 797 799 788
f 797 815 799
f 804 815 797
f 767 778 765
f 767 765 764
f 851 824 826
f 856 841 851
f 835 841 856
f 835 812 841
f 786 785 772
f 762 786 772
f 751 786 762
f 751 743 786
f 747 743 751
f 745 746 763
f 746 773 763
f 749 746 745
f 749 773 746
f 754 760 749
f 760 773 749
f 765 760 754
f 760 768 773
f 765 768 760
f 799 768 778
f 824 799 815
f 778 768 765
f 830 849 807
f 825 821 807
f 825 807 828
f 857 847 838
f 825 828 834
f 791 825 834
f 847 800 834
f 791 834 798
f 782 791 798
f 776 757 798
f 782 798 775
f 738 753 775
f 821 790 807
f 834 800 805
f 775 753 769
f 807 813 830
f 807 849 828
f 838 828 857
f 844 828 838
f 838 847 844
f 834 828 844
f 844 847 834
f 776 798 834
f 776 834 805
f 805 800 776
f 798 757 738
f 798 738 775
f 769 790 781
f 769 796 790
f 790 796 813
f 790 813 807
f 782 775 790
f 782 790 821
f 775 769 781
f 775 781 790
f 808 813 801
f 817 830 813
f 817 813 808
f 831 830 817
f 831 849 830
f 839 849 831
f 839 857 849
f 859 857 839
f 859 852 857
f 853 852 859
f 853 847 852
f 848 847 853
f 842 847 848
f 836 847 842
f 833 847 836
f 833 800 847
f 819 800 833
f 810 800 819
f 803 800 810
f 803 795 800
f 793 795 803
f 793 784 795
f 783 784 793
f 783 776 784
f 770 757 776
f 770 776 783
f 755 757 770
f 755 738 757
f 741 738 755
f 741 753 738
f 739 753 741
f 758 769 753
f 758 753 739
f 779 796 769
f 779 769 758
f 787 796 779
f 787 813 796
f 801 813 787
f 849 857 828
f 847 857 852
f 795 776 800
f 784 776 795
