# fh16_trailer_wheel_2l.obj - ISO 8855 (x ileri, y sol, z yukari), metre
mtllib fh16.mtl
o fh16_trailer_wheel_2l
v -0.28123 -0.31400 -0.13554
v -0.31293 -0.31420 0.00000
v -0.29794 -0.31431 0.09637
v -0.25945 -0.31355 0.18800
v -0.27550 -0.28050 -0.14050
v -0.31300 -0.28050 0.00000
v -0.29750 -0.28050 0.09600
v -0.25350 -0.28050 0.18350
v -0.26780 -0.10400 -0.10760
v -0.26538 -0.07076 -0.03830
v -0.25905 -0.07257 0.08376
v -0.25300 -0.15300 0.18300
v -0.27791 -0.02034 -0.12710
v -0.30288 -0.02002 0.00000
v -0.28947 -0.02061 0.09357
v -0.25808 -0.02154 0.18692
v -0.27093 0.11896 -0.10307
v -0.27271 0.12947 -0.02402
v -0.26573 0.12878 0.08595
v -0.26150 0.07225 0.18950
v -0.26694 0.23031 -0.09289
v -0.28081 0.22722 0.00000
v -0.26662 0.23059 0.08606
v -0.27200 0.22550 0.19700
v -0.28700 0.31269 -0.13278
v -0.31621 0.31023 0.00000
v -0.30024 0.31037 0.09722
v -0.26344 0.31596 0.19088
v -0.18438 -0.31425 -0.25338
v -0.24167 -0.31567 -0.17533
v -0.19691 -0.31464 0.23445
v -0.18400 -0.28050 -0.25300
v -0.18400 -0.28050 0.25250
v -0.16036 -0.07223 -0.22018
v -0.21952 -0.06910 -0.15952
v -0.18726 -0.07117 0.19221
v -0.17800 -0.02096 -0.24457
v -0.18586 -0.02894 -0.14510
v -0.18388 -0.02190 -0.04010
v -0.17921 -0.02789 0.07414
v -0.18811 -0.02594 0.20981
v -0.19250 -0.01575 0.26375
v -0.16412 0.12839 -0.22546
v -0.18480 0.11511 -0.14465
v -0.17841 0.09141 -0.03623
v -0.18099 0.09634 0.07334
v -0.18101 0.12739 0.18910
v -0.19500 0.07950 0.26750
v -0.16491 0.22897 -0.22673
v -0.22426 0.22919 -0.16274
v -0.19352 0.22919 0.19281
v -0.19800 0.22550 0.27100
v -0.18574 0.30981 -0.25526
v -0.24100 0.30033 -0.17493
v -0.20016 0.30363 0.22372
v -0.19517 0.31758 0.26767
v -0.09694 -0.31435 -0.29718
v -0.09722 -0.31444 0.29739
v -0.09700 -0.28050 -0.29750
v -0.09700 -0.28050 0.29750
v -0.08475 -0.07360 -0.25975
v -0.08406 -0.06978 0.25711
v -0.09200 -0.10950 0.28200
v -0.08289 -0.02569 -0.27237
v -0.07871 -0.01076 -0.14898
v -0.10380 0.01567 -0.02800
v -0.08490 0.00932 0.10848
v -0.06612 -0.03096 0.18680
v -0.09431 -0.02041 0.28843
v -0.10400 0.09400 -0.31800
v -0.07125 0.12228 -0.24931
v -0.06566 0.08332 -0.13033
v -0.10160 0.07680 -0.03081
v -0.07210 0.07821 0.09451
v -0.07271 0.11273 0.20986
v -0.09267 0.09267 0.28317
v -0.10400 0.22550 -0.32000
v -0.08591 0.23091 -0.26331
v -0.03947 0.19953 -0.09647
v -0.06002 0.20611 -0.02439
v -0.04868 0.20344 0.06299
v -0.08520 0.22435 0.26065
v -0.09008 0.23200 0.27533
v -0.10375 0.31650 -0.31863
v -0.09663 0.30881 -0.29619
v -0.09769 0.30995 0.29926
v -0.00100 -0.31320 -0.32320
v 0.06767 -0.31483 -0.29800
v 0.05203 -0.31436 0.30397
v -0.00100 -0.28200 -0.32500
v 0.06367 -0.28000 -0.29833
v 0.04750 -0.28050 0.30475
v 0.04185 -0.07335 -0.26615
v 0.07863 -0.06932 0.25726
v 0.00823 -0.07636 0.27309
v -0.00000 -0.01737 -0.32162
v 0.05032 -0.02456 -0.27967
v 0.04400 -0.00519 -0.15137
v 0.09000 0.01567 -0.06950
v 0.06883 0.01007 0.11034
v 0.03372 -0.02503 0.18686
v 0.04767 -0.02045 0.29578
v 0.02575 0.07950 -0.32500
v 0.03839 0.12657 -0.25931
v 0.04321 0.08141 -0.13238
v 0.08994 0.07544 -0.04525
v 0.05656 0.07735 0.09811
v 0.04741 0.10970 0.20936
v 0.02115 0.12038 0.27996
v 0.05150 0.22550 -0.32800
v 0.04245 0.23091 -0.26984
v 0.02509 0.19961 -0.09909
v 0.04960 0.20731 -0.02717
v 0.03816 0.20358 0.06635
v 0.08425 0.22435 0.26065
v 0.02430 0.22852 0.27855
v 0.02743 0.31647 -0.32540
v 0.06180 0.30522 -0.29629
v 0.04775 0.30970 0.30658
v 0.18337 -0.31425 -0.25338
v 0.18276 -0.31435 0.25200
v 0.18300 -0.28050 -0.25300
v 0.18300 -0.28050 0.25250
v 0.15936 -0.07223 -0.22018
v 0.21744 -0.06781 -0.15881
v 0.18245 -0.07103 0.19542
v 0.17451 -0.02283 -0.24328
v 0.15424 -0.02928 -0.12591
v 0.16237 -0.00996 -0.02918
v 0.16457 -0.02091 0.07900
v 0.16236 -0.03011 0.21900
v 0.19150 -0.01575 0.26375
v 0.16078 0.12960 -0.22473
v 0.16075 0.10538 -0.14119
v 0.14361 0.08312 -0.02413
v 0.15902 0.09034 0.07721
v 0.16009 0.12132 0.19305
v 0.19400 0.07950 0.26750
v 0.16400 0.22897 -0.22673
v 0.10633 0.19867 0.00000
v 0.16187 0.22919 0.22323
v 0.19700 0.22550 0.27100
v 0.18492 0.30958 -0.25543
v 0.17948 0.30581 0.24733
v 0.19455 0.31736 0.26809
v 0.27384 -0.31432 -0.14197
v 0.31187 -0.31427 0.00000
v 0.29694 -0.31437 0.09637
v 0.25287 -0.31425 0.18387
v 0.27450 -0.28050 -0.14050
v 0.31200 -0.28050 0.00000
v 0.29650 -0.28050 0.09600
v 0.25250 -0.28050 0.18350
v 0.24440 -0.08860 -0.13470
v 0.26438 -0.07076 -0.03830
v 0.25805 -0.07257 0.08376
v 0.22840 -0.08860 0.16600
v 0.26694 -0.01931 -0.13671
v 0.28769 -0.02684 -0.01187
v 0.27632 -0.02548 0.08713
v 0.24544 -0.01902 0.17842
v 0.25010 0.12720 -0.12980
v 0.26158 0.12464 -0.03362
v 0.25393 0.12419 0.07903
v 0.23072 0.12720 0.16764
v 0.24625 0.22979 -0.12521
v 0.27616 0.22919 0.00000
v 0.26565 0.23059 0.08600
v 0.22627 0.22897 0.16448
v 0.27686 0.31033 -0.14214
v 0.31323 0.30974 0.00000
v 0.29924 0.31029 0.09720
v 0.25444 0.30944 0.18492
v 0.33600 0.22550 0.00000
v 0.33600 0.31233 0.00000
usemtl m002
f 36 68 41
f 39 14 40
f 40 14 11
f 11 41 40
f 39 38 10
f 10 14 39
f 37 64 34
f 38 64 37
f 34 38 37
f 93 64 97
f 127 128 124
f 124 97 127
f 98 127 97
f 155 128 159
f 160 130 131
f 160 131 156
f 156 159 160
f 129 160 159
f 130 160 129
f 131 101 126
f 100 101 130
f 101 68 94
f 67 40 68
f 38 65 64
f 98 128 127
f 130 101 131
f 36 62 68
f 11 36 41
f 11 14 10
f 10 38 35
f 34 35 38
f 34 64 61
f 93 61 64
f 124 93 97
f 124 128 125
f 155 125 128
f 156 155 159
f 156 131 126
f 126 101 94
f 95 94 101
f 94 68 62
f 94 62 95
f 36 63 62
f 41 69 63
f 41 63 36
f 15 41 36
f 15 36 11
f 11 14 15
f 13 14 10
f 13 10 9
f 9 35 38
f 9 38 13
f 37 38 35
f 37 35 34
f 97 64 61
f 97 61 93
f 127 97 93
f 127 93 124
f 124 154 158
f 124 158 127
f 154 155 159
f 154 159 158
f 160 159 155
f 160 155 156
f 156 157 161
f 156 161 160
f 131 161 157
f 131 157 126
f 126 95 102
f 126 102 131
f 126 94 95
f 95 63 69
f 95 69 102
f 95 62 63
f 15 16 41
f 37 13 38
f 64 97 96
f 9 10 35
f 125 154 124
f 155 154 125
f 126 157 156
f 41 42 69
f 16 42 41
f 131 132 161
f 102 132 131
f 39 65 38
f 101 67 68
f 36 63 69
f 36 69 41
f 33 60 63
f 33 63 36
f 36 12 8
f 36 8 33
f 41 16 12
f 41 12 36
f 11 12 16
f 11 16 15
f 7 8 12
f 7 12 11
f 11 10 6
f 11 6 7
f 15 14 10
f 15 10 11
f 9 10 14
f 9 14 13
f 5 6 10
f 5 10 9
f 34 9 13
f 34 13 37
f 32 5 9
f 32 9 34
f 34 61 59
f 34 59 32
f 37 64 61
f 37 61 34
f 93 64 96
f 91 59 61
f 91 61 93
f 96 97 93
f 122 91 93
f 122 93 124
f 124 154 150
f 124 150 122
f 127 158 154
f 127 154 124
f 154 155 151
f 154 151 150
f 158 159 155
f 158 155 154
f 152 151 155
f 152 155 156
f 156 157 153
f 156 153 152
f 160 161 157
f 160 157 156
f 126 157 161
f 126 161 131
f 123 153 157
f 123 157 126
f 126 95 92
f 126 92 123
f 131 102 95
f 131 95 126
f 95 63 60
f 95 60 92
f 102 69 63
f 102 63 95
f 87 57 88
f 33 60 58
f 33 58 31
f 31 4 8
f 31 8 33
f 7 8 4
f 7 4 3
f 3 2 6
f 3 6 7
f 5 6 2
f 5 2 1
f 32 5 1
f 32 1 29
f 29 57 59
f 29 59 32
f 90 59 57
f 90 57 87
f 87 88 91
f 87 91 90
f 122 91 88
f 122 88 120
f 120 146 150
f 120 150 122
f 146 147 151
f 146 151 150
f 152 151 147
f 152 147 148
f 148 149 153
f 148 153 152
f 123 153 149
f 123 149 121
f 121 89 92
f 121 92 123
f 89 58 60
f 89 60 92
f 31 8 7
f 31 7 3
f 1 5 30
f 30 5 32
f 30 32 29
f 57 59 91
f 57 91 88
f 3 4 31
f 29 1 30
f 45 18 46
f 46 18 19
f 19 47 46
f 45 44 18
f 44 71 43
f 105 133 104
f 164 136 137
f 135 164 163
f 136 164 135
f 107 108 136
f 74 46 75
f 44 72 71
f 105 134 133
f 136 108 137
f 108 75 109
f 17 18 44
f 134 162 133
f 163 162 134
f 137 165 164
f 45 72 44
f 108 74 75
f 55 86 83
f 55 83 51
f 27 55 51
f 27 51 23
f 23 22 26
f 23 26 27
f 25 26 22
f 25 22 21
f 21 50 54
f 21 54 25
f 53 54 50
f 53 50 49
f 49 78 85
f 49 85 53
f 118 85 78
f 118 78 111
f 143 118 111
f 143 111 139
f 139 166 170
f 139 170 143
f 166 167 171
f 166 171 170
f 172 171 167
f 172 167 168
f 168 169 173
f 168 173 172
f 144 173 169
f 144 169 141
f 141 116 119
f 141 119 144
f 116 83 86
f 116 86 119
f 117 85 118
f 53 85 84
f 117 84 85
f 143 117 118
f 52 83 86
f 52 86 56
f 56 28 24
f 56 24 52
f 23 24 28
f 23 28 27
f 27 26 22
f 27 22 23
f 21 22 26
f 21 26 25
f 49 21 25
f 49 25 53
f 53 84 77
f 53 77 49
f 110 77 84
f 110 84 117
f 139 110 117
f 139 117 143
f 143 170 166
f 143 166 139
f 170 175 174
f 170 174 166
f 168 174 175
f 168 175 172
f 172 173 169
f 172 169 168
f 142 169 173
f 142 173 145
f 145 119 116
f 145 116 142
f 119 86 83
f 119 83 116
f 83 82 51
f 141 115 116
f 116 82 83
f 76 75 47
f 137 108 109
f 109 75 76
f 28 55 27
f 25 54 53
f 56 55 28
f 86 55 56
f 145 144 119
f 173 144 145
f 47 51 82
f 47 82 75
f 19 23 51
f 19 51 47
f 18 22 23
f 18 23 19
f 17 21 22
f 17 22 18
f 44 50 21
f 44 21 17
f 43 49 50
f 43 50 44
f 71 78 49
f 71 49 43
f 104 111 78
f 104 78 71
f 133 139 111
f 133 111 104
f 162 166 139
f 162 139 133
f 163 167 166
f 163 166 162
f 164 168 167
f 164 167 163
f 165 169 168
f 165 168 164
f 137 141 169
f 137 169 165
f 108 115 141
f 108 141 137
f 109 116 115
f 109 115 108
f 75 82 116
f 75 116 109
f 170 171 175
f 175 171 172
f 45 73 72
f 105 135 134
f 108 107 74
f 73 45 46
f 73 46 74
f 106 135 105
f 135 106 107
f 135 107 136
f 52 48 76
f 52 76 83
f 24 20 48
f 24 48 52
f 23 19 20
f 23 20 24
f 22 18 19
f 22 19 23
f 21 17 18
f 21 18 22
f 49 43 17
f 49 17 21
f 77 70 43
f 77 43 49
f 110 103 70
f 110 70 77
f 139 133 103
f 139 103 110
f 166 162 133
f 166 133 139
f 174 163 162
f 174 162 166
f 168 164 163
f 168 163 174
f 169 165 164
f 169 164 168
f 142 138 165
f 142 165 169
f 116 109 138
f 116 138 142
f 83 76 109
f 83 109 116
f 48 47 76
f 20 47 48
f 43 70 71
f 71 70 103
f 104 103 133
f 138 137 165
f 109 137 138
f 19 47 20
f 43 44 17
f 71 103 104
f 69 76 47
f 69 47 41
f 15 19 18
f 15 18 14
f 41 47 19
f 41 19 15
f 13 17 44
f 13 44 38
f 14 18 17
f 14 17 13
f 37 43 71
f 37 71 64
f 38 44 43
f 38 43 37
f 64 71 104
f 64 104 97
f 127 133 162
f 127 162 158
f 97 104 133
f 97 133 127
f 158 162 163
f 158 163 159
f 160 164 165
f 160 165 161
f 159 163 164
f 159 164 160
f 131 137 109
f 131 109 102
f 161 165 137
f 161 137 131
f 102 109 76
f 102 76 69
f 73 74 81
f 81 80 73
f 74 107 114
f 114 81 74
f 113 114 107
f 107 106 113
f 106 135 140
f 140 113 106
f 113 140 135
f 135 106 113
f 106 105 112
f 112 113 106
f 79 112 105
f 105 72 79
f 80 79 72
f 72 73 80
f 80 113 112
f 112 79 80
f 113 81 114
f 81 113 80
f 73 66 67
f 67 74 73
f 74 67 100
f 100 107 74
f 107 100 129
f 129 135 107
f 135 129 99
f 99 106 135
f 106 99 98
f 98 105 106
f 105 98 65
f 65 72 105
f 72 65 66
f 66 73 72
v -0.52834 -0.23623 -0.10945
v -0.53447 -0.24608 -0.04542
v -0.53491 -0.24545 0.04169
v -0.52843 -0.23624 0.10878
v -0.53204 -0.17256 -0.11874
v -0.54255 -0.17230 -0.04777
v -0.54271 -0.17239 0.04466
v -0.53161 -0.17240 0.11972
v -0.52836 -0.10836 -0.10945
v -0.53520 -0.10148 -0.04729
v -0.53560 -0.10177 0.04246
v -0.52850 -0.10848 0.10879
v -0.52540 0.05500 -0.01710
v -0.52550 0.05500 0.01950
v -0.53051 0.12484 -0.11476
v -0.53841 0.11547 -0.04735
v -0.53859 0.11517 0.04365
v -0.53018 0.12391 0.11506
v -0.53133 0.19475 -0.11703
v -0.54096 0.19953 -0.04846
v -0.54114 0.19996 0.04454
v -0.53096 0.19658 0.11726
v -0.52688 0.24225 -0.10563
v -0.53162 0.25377 -0.04377
v -0.53202 0.25347 0.03915
v -0.52713 0.24225 0.10325
v -0.43800 -0.31200 -0.20300
v -0.45060 -0.31600 -0.13360
v -0.45943 -0.31786 -0.05000
v -0.46129 -0.31800 0.02814
v -0.45600 -0.31580 0.11200
v -0.44700 -0.31200 0.18200
v -0.44674 -0.24971 -0.29569
v -0.47336 -0.25580 -0.22669
v -0.49858 -0.26275 -0.14219
v -0.50511 -0.27167 -0.04951
v -0.50587 -0.27059 0.04654
v -0.49880 -0.26160 0.14074
v -0.47410 -0.25617 0.22433
v -0.44745 -0.25052 0.29330
v -0.45202 -0.17240 -0.30445
v -0.48207 -0.17240 -0.22929
v -0.50438 -0.17238 -0.15234
v -0.50784 -0.17242 -0.04983
v -0.50858 -0.17242 0.04249
v -0.50356 -0.17241 0.14696
v -0.48409 -0.17244 0.22619
v -0.45184 -0.17240 0.30405
v -0.44701 -0.09601 -0.29577
v -0.47380 -0.08875 -0.22600
v -0.49852 -0.08196 -0.14230
v -0.50524 -0.07227 -0.04740
v -0.50636 -0.07260 0.04691
v -0.49873 -0.08322 0.14096
v -0.47432 -0.08967 0.22442
v -0.44756 -0.09512 0.29373
v -0.43947 0.05053 -0.28524
v -0.46402 0.04816 -0.22618
v -0.48955 0.04573 -0.13874
v -0.50329 0.04427 -0.04935
v -0.50398 0.04425 0.04590
v -0.48922 0.04528 0.13514
v -0.46546 0.04795 0.22096
v -0.44150 0.05050 0.28050
v -0.44996 0.11916 -0.30137
v -0.47857 0.11537 -0.22796
v -0.50335 0.11217 -0.14691
v -0.50543 0.11552 -0.04931
v -0.50600 0.11551 0.04468
v -0.50304 0.11128 0.14466
v -0.48016 0.11642 0.22577
v -0.45023 0.11671 0.29958
v -0.45159 0.19679 -0.30289
v -0.48071 0.20167 -0.22840
v -0.50358 0.20402 -0.15052
v -0.50588 0.20406 -0.04972
v -0.50666 0.20454 0.04148
v -0.50280 0.20560 0.14620
v -0.48237 0.20018 0.22621
v -0.45116 0.19936 0.30248
v -0.44310 0.26500 -0.29102
v -0.47059 0.27242 -0.22503
v -0.49602 0.27692 -0.13931
v -0.50639 0.28451 -0.04698
v -0.50772 0.28463 0.04973
v -0.49674 0.27610 0.13758
v -0.47040 0.27217 0.22256
v -0.44438 0.26718 0.28710
v -0.36525 -0.31575 -0.29750
v -0.38275 -0.32167 -0.22900
v -0.38733 -0.32567 -0.13580
v -0.38817 -0.32442 -0.05067
v -0.39229 -0.32482 0.04665
v -0.38640 -0.32420 0.14087
v -0.38123 -0.32192 0.22469
v -0.36500 -0.31575 0.29675
v -0.36739 -0.25218 -0.38642
v -0.39950 -0.26076 -0.32916
v -0.42238 -0.28046 -0.25359
v -0.42397 -0.27583 0.25322
v -0.40000 -0.26283 0.32614
v -0.36791 -0.25026 0.38594
v -0.37291 -0.17241 -0.39273
v -0.40593 -0.17255 -0.33308
v -0.43183 -0.17242 -0.27183
v -0.43300 -0.17240 0.27040
v -0.40613 -0.17241 0.33075
v -0.37313 -0.17240 0.39142
v -0.36746 -0.09292 -0.38662
v -0.39952 -0.08421 -0.32892
v -0.42238 -0.06424 -0.25359
v -0.42397 -0.06883 0.25322
v -0.39986 -0.08261 0.32628
v -0.36781 -0.09336 0.38563
v -0.35860 0.05069 -0.38089
v -0.39321 0.04572 -0.32351
v -0.40714 0.03283 -0.24122
v -0.38733 0.01393 -0.13580
v -0.38817 0.01525 -0.05067
v -0.39229 0.01482 0.04665
v -0.38640 0.01527 0.14087
v -0.40488 0.03155 0.23727
v -0.39569 0.04563 0.31922
v -0.35929 0.05074 0.38023
v -0.37108 0.11857 -0.39032
v -0.40336 0.11269 -0.33218
v -0.42921 0.10774 -0.26726
v -0.42967 0.10405 0.26471
v -0.40354 0.11390 0.33017
v -0.37101 0.11835 0.38941
v -0.37259 0.19785 -0.39168
v -0.40452 0.20480 -0.33238
v -0.43014 0.21643 -0.26979
v -0.43100 0.21967 0.26687
v -0.40452 0.20349 0.33010
v -0.37259 0.19906 0.39043
v -0.36318 0.26823 -0.38380
v -0.39771 0.27684 -0.32687
v -0.42059 0.28793 -0.24955
v -0.42165 0.28585 0.24865
v -0.39873 0.27680 0.32436
v -0.36492 0.26858 0.38193
v -0.27150 -0.31575 -0.38500
v -0.29592 -0.32300 -0.32054
v -0.30162 -0.32423 -0.23592
v -0.30488 -0.31550 -0.14913
v -0.31200 -0.31000 -0.05067
v -0.31400 -0.31000 0.03533
v -0.30429 -0.31486 0.14257
v -0.30145 -0.32400 0.23336
v -0.29931 -0.32300 0.31631
v -0.27800 -0.31700 0.37500
v -0.26746 -0.24595 -0.46550
v -0.30456 -0.26020 -0.42115
v -0.33318 -0.29718 -0.35645
v -0.33478 -0.29978 0.35322
v -0.30532 -0.26115 0.41812
v -0.26701 -0.24711 0.46475
v -0.27604 -0.17239 -0.46998
v -0.30900 -0.17240 -0.42806
v -0.30995 -0.17240 0.42563
v -0.27851 -0.17241 0.46791
v -0.26832 -0.10184 -0.46612
v -0.30401 -0.08416 -0.42119
v -0.33318 -0.04764 -0.35645
v -0.33478 -0.04500 0.35322
v -0.30489 -0.08307 0.41866
v -0.26742 -0.09977 0.46529
v -0.25571 0.05086 -0.45771
v -0.29688 0.04624 -0.41522
v -0.31196 0.02678 -0.33578
v -0.28527 0.01823 -0.21714
v -0.30522 0.02272 -0.12133
v -0.30300 0.02575 -0.06050
v -0.31487 0.02240 0.01300
v -0.30500 0.02288 0.11688
v -0.28355 0.01865 0.21355
v -0.31382 0.02618 0.33141
v -0.29818 0.04582 0.41212
v -0.25736 0.05218 0.45664
v -0.27222 0.11814 -0.46802
v -0.30803 0.11347 -0.42516
v -0.33700 0.06900 -0.36500
v -0.30880 0.11307 0.42275
v -0.27307 0.11743 0.46683
v -0.27446 0.19856 -0.46928
v -0.30888 0.20319 -0.42643
v -0.30966 0.20347 0.42393
v -0.27585 0.19872 0.46780
v -0.26361 0.25583 -0.46348
v -0.30100 0.27604 -0.41963
v -0.33318 0.29218 -0.35645
v -0.33478 0.29478 0.35322
v -0.30247 0.27722 0.41658
v -0.26410 0.25935 0.46119
v -0.19500 -0.32118 -0.40282
v -0.21392 -0.32431 -0.32377
v -0.21000 -0.31000 -0.23550
v -0.21450 -0.31167 0.23967
v -0.21269 -0.32477 0.32323
v -0.20223 -0.31977 0.40515
v -0.20396 -0.25529 -0.48668
v -0.22325 -0.27374 -0.44304
v -0.22565 -0.27147 0.44021
v -0.20142 -0.25587 0.48555
v -0.20676 -0.17233 -0.49425
v -0.23931 -0.17243 -0.45112
v -0.24279 -0.17246 0.44896
v -0.20743 -0.17240 0.49323
v -0.20325 -0.08956 -0.48700
v -0.22185 -0.07222 -0.44265
v -0.22563 -0.07323 0.44021
v -0.20119 -0.08878 0.48578
v -0.20574 0.05015 -0.47911
v -0.21112 0.03568 -0.43158
v -0.21392 0.01531 -0.32377
v -0.19364 0.02371 -0.25071
v -0.24100 0.01600 -0.17550
v -0.24100 0.01600 0.17450
v -0.19694 0.02341 0.25076
v -0.21269 0.01485 0.32323
v -0.21100 0.03368 0.42612
v -0.20309 0.04906 0.47647
v -0.20463 0.11585 -0.49136
v -0.23439 0.11084 -0.44857
v -0.23788 0.10720 0.44555
v -0.20387 0.11654 0.49051
v -0.20580 0.19972 -0.49315
v -0.23683 0.20966 -0.44970
v -0.24056 0.20947 0.44719
v -0.20517 0.20058 0.49246
v -0.20359 0.27097 -0.48369
v -0.21589 0.28611 -0.43967
v -0.21905 0.28463 0.43763
v -0.20193 0.27218 0.48187
v -0.13000 -0.31200 -0.46450
v -0.11338 -0.32400 -0.40954
v -0.12100 -0.31740 -0.32640
v -0.11950 -0.31725 0.32512
v -0.11107 -0.32507 0.40587
v -0.10067 -0.31367 0.46567
v -0.11513 -0.25809 -0.50829
v -0.11381 -0.25885 0.50827
v -0.11742 -0.17240 -0.52124
v -0.11739 -0.17227 0.51979
v -0.11597 -0.08659 -0.50823
v -0.11358 -0.08602 0.50838
v -0.11530 0.04590 -0.49550
v -0.11338 0.01554 -0.40954
v -0.10943 0.02162 -0.31414
v -0.10758 0.02168 0.31184
v -0.11107 0.01447 0.40587
v -0.11521 0.04617 0.49574
v -0.11638 0.11588 -0.51671
v -0.11491 0.11589 0.51608
v -0.11665 0.20152 -0.51900
v -0.11596 0.20084 0.51828
v -0.11625 0.27507 -0.50289
v -0.11412 0.27551 0.50288
v -0.03040 -0.31500 -0.47140
v -0.01883 -0.32517 -0.41261
v -0.01533 -0.31500 -0.33750
v -0.03067 -0.31500 0.33550
v -0.02262 -0.32508 0.40892
v -0.02175 -0.31450 0.47350
v -0.02372 -0.25884 -0.52086
v -0.02489 -0.25902 0.52001
v -0.02381 -0.17240 -0.53263
v -0.03441 -0.17239 0.52572
v -0.00957 -0.17242 0.54457
v -0.02391 -0.08658 -0.52063
v -0.02414 -0.08576 0.51993
v -0.02500 0.04599 -0.50884
v -0.01883 0.01450 -0.41261
v -0.00541 0.02235 -0.32488
v -0.01082 0.02235 0.32388
v -0.02262 0.01462 0.40892
v -0.02513 0.04595 0.50763
v -0.02382 0.11535 -0.52820
v -0.02757 0.11094 0.52546
v -0.00800 0.14171 0.54435
v -0.02309 0.20067 -0.53090
v -0.03052 0.20841 0.52546
v -0.01040 0.18092 0.54468
v -0.02519 0.27485 -0.51548
v -0.02363 0.27457 0.51541
v 0.06525 -0.31325 -0.47325
v 0.07700 -0.32454 -0.41077
v 0.06860 -0.31400 -0.32640
v 0.06671 -0.31629 0.33571
v 0.06364 -0.32536 0.40529
v 0.06450 -0.31450 0.46950
v 0.06725 -0.25939 -0.51596
v 0.06687 -0.25808 0.51690
v 0.06803 -0.17229 -0.52886
v 0.07037 -0.17247 0.52738
v 0.03123 -0.17240 0.54425
v 0.06693 -0.08428 -0.51580
v 0.06686 -0.08605 0.51681
v 0.06717 0.04579 -0.50357
v 0.07700 0.01508 -0.41077
v 0.08875 0.02250 -0.31031
v 0.08578 0.02200 0.31522
v 0.06364 0.01421 0.40529
v 0.06773 0.04567 0.50370
v 0.06744 0.11570 -0.52435
v 0.06756 0.11440 0.52413
v 0.03027 0.14280 0.54413
v 0.06802 0.20076 -0.52684
v 0.06930 0.20336 0.52563
v 0.03161 0.17711 0.54429
v 0.06634 0.27660 -0.51106
v 0.06737 0.27466 0.51201
v 0.15100 -0.31200 -0.45900
v 0.15931 -0.32315 -0.40492
v 0.15792 -0.32092 -0.32917
v 0.18850 -0.31000 -0.25450
v 0.17650 -0.31000 0.26200
v 0.15940 -0.32040 0.32380
v 0.15480 -0.32320 0.40647
v 0.13000 -0.31200 0.46400
v 0.15582 -0.25739 -0.49901
v 0.18850 -0.29764 -0.44914
v 0.18818 -0.30000 0.44800
v 0.15859 -0.25742 0.49654
v 0.16077 -0.17240 -0.50873
v 0.15916 -0.17240 0.50784
v 0.15586 -0.08750 -0.49896
v 0.18850 -0.04714 -0.44914
v 0.18818 -0.04482 0.44800
v 0.15873 -0.08744 0.49640
v 0.15456 0.04733 -0.48950
v 0.17335 0.02827 -0.42688
v 0.15792 0.01867 -0.32917
v 0.18650 0.02283 -0.25642
v 0.18492 0.02238 0.25762
v 0.15940 0.01920 0.32380
v 0.16892 0.02635 0.42404
v 0.15533 0.04726 0.48762
v 0.15825 0.11581 -0.50511
v 0.20300 0.06900 -0.45300
v 0.15947 0.11539 0.50332
v 0.15930 0.20070 -0.50720
v 0.15934 0.20149 0.50550
v 0.15560 0.27330 -0.49504
v 0.18850 0.29264 -0.44914
v 0.18818 0.29500 0.44800
v 0.15781 0.27400 0.49272
v 0.23771 -0.31814 -0.39700
v 0.25173 -0.32533 -0.31780
v 0.26143 -0.31829 -0.23514
v 0.27367 -0.31000 -0.15833
v 0.28033 -0.31000 0.14467
v 0.25450 -0.31750 0.23837
v 0.24623 -0.32554 0.31808
v 0.24522 -0.31733 0.39400
v 0.23841 -0.25068 -0.47592
v 0.26285 -0.26652 -0.43459
v 0.26121 -0.26950 0.43041
v 0.24235 -0.25250 0.47268
v 0.24748 -0.17239 -0.48056
v 0.26120 -0.17242 -0.43790
v 0.26657 -0.17242 0.43433
v 0.24567 -0.17240 0.47982
v 0.23874 -0.09442 -0.47589
v 0.26266 -0.07787 -0.43465
v 0.26196 -0.07423 0.43038
v 0.24287 -0.09354 0.47283
v 0.22724 0.05051 -0.47061
v 0.25896 0.04262 -0.42773
v 0.25173 0.01427 -0.31780
v 0.26100 0.02194 -0.20975
v 0.26500 0.02250 -0.15333
v 0.27500 0.01600 -0.09000
v 0.28200 0.01600 0.04450
v 0.26833 0.02250 0.14617
v 0.25776 0.02218 0.21241
v 0.24623 0.01408 0.31808
v 0.25968 0.04159 0.42309
v 0.23365 0.05016 0.46669
v 0.24400 0.11727 -0.47851
v 0.26328 0.11109 -0.43769
v 0.26338 0.11158 0.43366
v 0.24499 0.11729 0.47668
v 0.24589 0.20002 -0.47996
v 0.26183 0.20833 -0.43753
v 0.26331 0.20557 0.43379
v 0.24587 0.19977 0.47865
v 0.23416 0.26717 -0.47289
v 0.26265 0.28075 -0.43327
v 0.26307 0.28242 0.42941
v 0.23935 0.26754 0.46976
v 0.30400 -0.31200 -0.37500
v 0.33100 -0.31878 -0.31922
v 0.33980 -0.32513 -0.23427
v 0.35177 -0.32315 -0.13977
v 0.34312 -0.31725 -0.05138
v 0.35110 -0.31880 0.04320
v 0.34545 -0.32245 0.13736
v 0.33793 -0.32529 0.22493
v 0.33158 -0.31933 0.31042
v 0.33737 -0.25660 -0.40298
v 0.36321 -0.27040 -0.34087
v 0.36501 -0.27286 0.33939
v 0.33522 -0.25499 0.40443
v 0.29750 -0.17230 -0.45750
v 0.33960 -0.17240 -0.41420
v 0.37154 -0.17242 -0.34957
v 0.37201 -0.17243 0.34860
v 0.34069 -0.17248 0.41218
v 0.29979 -0.17247 0.45432
v 0.33692 -0.08811 -0.40317
v 0.36335 -0.07392 -0.34070
v 0.36522 -0.07164 0.33966
v 0.33598 -0.08987 0.40386
v 0.33343 0.04844 -0.39419
v 0.35406 0.03866 -0.33511
v 0.33980 0.01440 -0.23427
v 0.33314 0.01882 -0.12336
v 0.34312 0.02238 -0.05138
v 0.33585 0.02125 0.02160
v 0.32780 0.01945 0.12030
v 0.33793 0.01436 0.22493
v 0.35584 0.03772 0.33134
v 0.33124 0.04870 0.39585
v 0.29800 0.14350 -0.45700
v 0.33872 0.11519 -0.40977
v 0.36909 0.11584 -0.34641
v 0.37019 0.11543 0.34532
v 0.33820 0.11456 0.40921
v 0.29938 0.13785 0.45423
v 0.29737 0.17325 -0.45763
v 0.33920 0.20044 -0.41221
v 0.37058 0.20474 -0.34759
v 0.37093 0.20693 0.34652
v 0.33939 0.20168 0.41091
v 0.30005 0.18581 0.45438
v 0.33625 0.27207 -0.39877
v 0.36070 0.28457 -0.33818
v 0.36312 0.28667 0.33760
v 0.33539 0.27092 0.39935
v 0.39400 -0.31200 -0.27900
v 0.41433 -0.31700 -0.21517
v 0.42533 -0.32150 -0.13383
v 0.42567 -0.32400 -0.04908
v 0.42440 -0.32447 0.04000
v 0.42792 -0.32092 0.13277
v 0.41114 -0.31671 0.21914
v 0.38985 -0.23515 -0.37269
v 0.42110 -0.25525 -0.31596
v 0.45111 -0.26409 -0.24058
v 0.46657 -0.28139 -0.15367
v 0.46741 -0.28370 0.14780
v 0.45223 -0.26517 0.23511
v 0.42383 -0.25531 0.31139
v 0.39217 -0.23654 0.36917
v 0.39663 -0.17241 -0.37346
v 0.43159 -0.17235 -0.31817
v 0.45816 -0.17239 -0.24164
v 0.45945 -0.17242 0.23728
v 0.43308 -0.17241 0.31398
v 0.39518 -0.17237 0.37422
v 0.38985 -0.10942 -0.37269
v 0.42124 -0.08890 -0.31562
v 0.45125 -0.08009 -0.24009
v 0.46657 -0.06330 -0.15367
v 0.46743 -0.06098 0.14780
v 0.45179 -0.07861 0.23588
v 0.42350 -0.08936 0.31184
v 0.39217 -0.10779 0.36917
v 0.41148 0.04851 -0.31240
v 0.44358 0.04391 -0.23706
v 0.45264 0.03374 -0.14140
v 0.42567 0.01550 -0.04908
v 0.42440 0.01507 0.04000
v 0.45414 0.03391 0.13714
v 0.44428 0.04332 0.23238
v 0.41683 0.04902 0.30659
v 0.39342 0.12314 -0.37288
v 0.42732 0.11531 -0.31739
v 0.45600 0.11414 -0.24149
v 0.47219 0.09275 -0.17100
v 0.47285 0.09346 0.16885
v 0.45720 0.11331 0.23629
v 0.42911 0.11510 0.31321
v 0.39409 0.12588 0.37209
v 0.39462 0.19678 -0.37351
v 0.42986 0.20122 -0.31758
v 0.45690 0.20435 -0.24150
v 0.47220 0.23200 -0.17800
v 0.47312 0.23150 0.17500
v 0.45776 0.20405 0.23622
v 0.43156 0.20127 0.31341
v 0.39467 0.19420 0.37346
v 0.38833 0.24233 -0.37067
v 0.41697 0.27174 -0.31501
v 0.44908 0.27924 -0.23981
v 0.46500 0.28861 -0.14692
v 0.46617 0.28911 0.14175
v 0.44992 0.27948 0.23726
v 0.41868 0.27147 0.31209
v 0.38940 0.24400 0.36800
v 0.47850 -0.31200 -0.05500
v 0.48050 -0.31200 0.03200
v 0.48923 -0.25004 -0.21557
v 0.50716 -0.25484 -0.13698
v 0.51866 -0.25800 -0.04627
v 0.51775 -0.26016 0.04494
v 0.50806 -0.25480 0.13318
v 0.49035 -0.24975 0.21232
v 0.49500 -0.17242 -0.22534
v 0.51438 -0.17240 -0.13996
v 0.53081 -0.17234 -0.04703
v 0.53078 -0.17240 0.04558
v 0.51464 -0.17238 0.13828
v 0.49549 -0.17239 0.22375
v 0.48903 -0.09375 -0.21530
v 0.50720 -0.08977 -0.13671
v 0.51857 -0.08645 -0.04627
v 0.51760 -0.08461 0.04489
v 0.50807 -0.09007 0.13314
v 0.49063 -0.09584 0.21234
v 0.48271 0.05114 -0.20205
v 0.49976 0.04914 -0.13795
v 0.50675 0.04640 -0.04873
v 0.50749 0.04638 0.04351
v 0.50156 0.04944 0.13393
v 0.48311 0.05119 0.19967
v 0.49247 0.11653 -0.22155
v 0.51151 0.11648 -0.13821
v 0.52641 0.11539 -0.04624
v 0.52606 0.11588 0.04546
v 0.51189 0.11663 0.13524
v 0.49350 0.11656 0.21876
v 0.49418 0.19882 -0.22360
v 0.51321 0.20075 -0.13897
v 0.52877 0.20157 -0.04597
v 0.52841 0.20020 0.04607
v 0.51376 0.19990 0.13655
v 0.49464 0.19992 0.22191
v 0.48568 0.26595 -0.20916
v 0.50429 0.27208 -0.13661
v 0.51359 0.27492 -0.04775
v 0.51388 0.27514 0.04336
v 0.50535 0.27112 0.13369
v 0.48735 0.26575 0.20458
usemtl m007
f 199 200 260
f 195 196 200
f 195 200 199
f 260 259 199
f 195 196 252
f 195 252 251
f 196 195 251
f 196 251 252
f 200 196 252
f 200 252 260
f 195 199 259
f 195 259 251
f 199 195 251
f 199 251 259
f 195 191 192
f 195 192 196
f 189 192 191
f 189 191 188
f 189 236 192
f 188 235 236
f 188 236 189
f 188 235 191
f 191 243 244
f 191 244 192
f 192 244 243
f 192 243 191
f 195 251 243
f 195 243 191
f 192 244 252
f 192 252 196
f 191 243 235
f 189 236 244
f 189 244 192
f 191 243 251
f 191 251 195
f 188 235 243
f 188 243 191
f 196 200 260
f 196 260 252
f 244 192 236
f 196 252 244
f 196 244 192
f 196 197 201
f 196 201 200
f 200 201 261
f 200 261 260
f 196 197 253
f 196 253 252
f 197 196 252
f 197 252 253
f 201 197 253
f 201 253 261
f 196 192 193
f 196 193 197
f 237 245 244
f 245 193 192
f 245 192 244
f 193 245 244
f 193 244 192
f 193 245 253
f 193 253 197
f 244 236 237
f 197 261 201
f 197 253 261
f 197 253 245
f 197 245 193
f 253 254 262
f 253 262 261
f 253 245 246
f 253 246 254
f 238 246 245
f 245 237 238
f 238 297 246
f 254 245 246
f 254 255 263
f 254 263 262
f 255 309 254
f 263 255 309
f 263 309 315
f 262 263 315
f 254 246 247
f 254 247 255
f 247 246 239
f 239 246 238
f 247 246 303
f 238 297 239
f 246 303 297
f 239 297 303
f 239 303 247
f 238 297 303
f 238 303 246
f 255 316 263
f 255 310 316
f 255 309 310
f 263 255 310
f 263 310 316
f 263 316 315
f 255 263 315
f 255 315 309
f 298 304 247
f 247 239 298
f 255 310 304
f 255 304 247
f 247 304 310
f 247 310 255
f 247 304 303
f 255 254 246
f 255 246 247
f 239 297 298
f 247 303 297
f 247 297 239
f 310 311 317
f 310 317 316
f 317 311 316
f 316 311 310
f 317 311 363
f 317 363 369
f 317 368 316
f 317 369 368
f 310 304 305
f 310 305 311
f 299 305 304
f 299 304 298
f 311 310 304
f 311 304 305
f 305 304 353
f 305 353 299
f 299 354 359
f 299 359 305
f 299 353 354
f 299 298 353
f 299 353 304
f 311 363 369
f 311 317 369
f 311 305 359
f 311 359 363
f 359 305 354
f 354 305 299
f 305 359 363
f 305 363 311
f 363 364 370
f 363 370 369
f 363 359 360
f 363 360 364
f 364 406 410
f 364 410 370
f 364 406 405
f 364 363 405
f 370 410 409
f 410 406 405
f 410 405 409
f 364 370 409
f 364 409 405
f 369 370 409
f 370 364 405
f 370 405 409
f 364 370 369
f 364 369 363
f 402 360 398
f 398 360 355
f 355 360 359
f 355 359 354
f 360 354 355
f 360 401 402
f 360 401 359
f 364 363 359
f 364 359 360
f 360 401 405
f 360 405 364
f 355 397 398
f 360 401 397
f 360 397 355
f 398 397 401
f 398 401 402
f 354 397 355
f 355 397 401
f 355 401 360
f 406 410 409
f 406 409 405
f 364 360 402
f 364 402 406
f 402 401 397
f 402 397 398
f 364 405 401
f 364 401 360
f 406 432 434
f 406 434 410
f 430 402 428
f 428 402 398
f 402 430 432
f 402 432 406
f 406 402 430
f 406 430 432
f 432 461 434
f 432 458 461
f 455 430 453
f 453 430 428
f 458 455 456
f 458 456 459
f 432 430 455
f 432 455 458
f 485 458 459
f 485 459 486
f 458 485 488
f 458 488 461
f 486 459 458
f 486 458 485
f 456 455 482
f 456 482 483
f 459 456 483
f 459 483 486
f 480 482 455
f 480 455 453
f 483 482 455
f 483 455 456
f 459 458 455
f 459 455 456
f 483 482 485
f 483 485 486
f 486 483 482
f 486 482 485
f 485 519 523
f 485 523 488
f 485 482 517
f 485 517 519
f 514 517 482
f 482 480 514
f 519 563 567
f 519 567 523
f 567 566 522
f 523 567 522
f 519 517 559
f 519 559 563
f 555 559 517
f 555 517 514
f 555 513 554
f 514 513 555
f 517 513 514
f 555 554 558
f 555 558 559
f 567 563 562
f 567 562 566
f 563 567 566
f 563 566 562
f 559 558 562
f 559 562 563
f 559 558 554
f 559 554 555
f 563 519 517
f 563 517 559
f 563 612 611
f 563 611 616
f 563 616 567
f 567 616 566
f 563 611 562
f 612 563 562
f 611 612 562
f 616 611 562
f 616 562 566
f 605 606 559
f 563 559 606
f 563 606 612
f 605 558 554
f 605 554 600
f 558 605 600
f 558 605 559
f 606 558 559
f 605 558 606
f 563 562 558
f 563 558 559
f 606 558 562
f 606 562 612
f 600 554 558
f 611 616 566
f 611 566 562
f 612 606 605
f 612 605 611
f 612 562 558
f 612 558 606
f 616 611 610
f 616 610 615
f 605 599 600
f 600 599 604
f 600 604 605
f 676 616 677
f 611 669 677
f 611 677 616
f 676 615 616
f 669 668 676
f 669 676 677
f 668 669 610
f 668 676 615
f 668 615 610
f 669 611 610
f 676 668 610
f 676 610 615
f 611 616 615
f 611 615 610
f 669 661 660
f 669 660 668
f 669 605 661
f 611 605 669
f 660 605 604
f 604 605 599
f 661 605 660
f 604 599 660
f 653 660 599
f 605 660 653
f 660 604 661
f 669 610 604
f 669 604 661
f 660 604 610
f 660 610 668
f 653 599 604
f 653 604 660
f 661 604 605
f 661 604 610
f 661 610 669
f 668 604 660
f 668 667 675
f 668 675 676
f 676 668 667
f 676 667 675
f 659 660 652
f 652 660 653
f 660 659 667
f 660 667 668
f 653 652 659
f 653 659 660
f 668 667 715
f 667 715 675
f 715 721 675
f 721 715 667
f 721 667 675
f 703 709 659
f 703 659 652
f 703 652 709
f 709 659 660
f 668 660 659
f 668 659 667
f 667 659 709
f 667 709 715
f 715 667 659
f 715 659 709
f 715 714 720
f 715 720 721
f 715 714 666
f 715 666 667
f 715 667 714
f 720 714 674
f 721 720 674
f 721 674 675
f 708 709 702
f 702 709 703
f 709 658 708
f 709 659 658
f 709 708 659
f 709 708 714
f 709 714 715
f 703 651 702
f 709 659 651
f 709 651 703
f 702 651 658
f 702 658 708
f 703 652 651
f 709 659 652
f 703 651 659
f 715 709 708
f 715 708 714
f 708 651 702
f 708 658 651
f 714 713 719
f 714 719 720
f 707 708 701
f 701 708 702
f 714 708 707
f 714 707 713
f 713 712 718
f 713 718 719
f 706 707 700
f 700 707 701
f 712 711 717
f 712 717 718
f 712 706 705
f 712 705 711
f 699 705 706
f 699 706 700
f 705 648 699
f 699 648 657
f 699 657 705
f 711 710 716
f 711 716 717
f 710 664 665
f 711 710 665
f 710 711 664
f 716 672 673
f 716 710 664
f 716 664 672
f 717 716 673
f 711 717 673
f 711 673 665
f 717 711 665
f 717 665 673
f 711 705 704
f 711 704 710
f 698 704 705
f 698 705 699
f 704 657 656
f 705 657 704
f 704 656 705
f 698 648 647
f 699 648 698
f 705 657 648
f 698 647 656
f 698 656 704
f 710 716 672
f 710 672 664
f 656 704 647
f 704 698 647
f 710 664 656
f 710 656 704
f 704 656 664
f 704 664 710
f 710 711 705
f 710 705 704
f 710 664 663
f 664 663 671
f 664 671 672
f 655 656 704
f 664 656 655
f 664 655 663
f 655 656 646
f 646 656 647
f 663 671 672
f 663 672 664
f 646 592 655
f 663 664 656
f 663 656 655
f 655 656 647
f 655 647 646
f 662 663 609
f 671 663 609
f 671 609 614
f 663 671 614
f 663 614 609
f 654 603 655
f 655 603 609
f 655 609 663
f 655 603 592
f 646 592 603
f 646 603 655
f 671 613 614
f 662 613 670
f 670 613 671
f 662 608 613
f 662 670 671
f 608 662 609
f 608 613 614
f 608 614 609
f 613 608 609
f 613 609 614
f 662 671 614
f 662 614 609
f 662 602 608
f 662 654 602
f 663 655 654
f 663 654 662
f 591 602 655
f 591 655 592
f 602 654 655
f 602 603 654
f 662 609 603
f 662 603 654
f 602 603 592
f 602 592 591
f 663 609 603
f 663 603 655
f 654 603 609
f 654 609 662
f 591 592 603
f 591 603 602
f 591 545 602
f 560 561 608
f 565 608 561
f 608 565 613
f 561 560 565
f 607 561 608
f 613 608 561
f 613 561 565
f 602 557 556
f 545 557 602
f 602 557 561
f 602 561 608
f 607 560 608
f 564 560 561
f 564 561 565
f 560 564 565
f 556 601 602
f 607 601 556
f 607 556 560
f 557 545 556
f 556 545 544
f 607 602 601
f 560 561 557
f 560 557 556
f 556 557 561
f 556 561 560
f 544 545 557
f 544 557 556
f 607 561 557
f 607 557 602
f 560 518 520
f 560 520 564
f 564 520 521
f 564 521 565
f 515 556 507
f 507 556 544
f 556 515 518
f 556 518 560
f 544 508 507
f 556 516 508
f 556 508 544
f 507 508 515
f 544 545 508
f 544 508 557
f 560 556 515
f 560 515 518
f 518 484 487
f 518 487 520
f 481 515 475
f 475 515 507
f 518 515 481
f 518 481 484
f 487 484 457
f 487 457 460
f 454 481 448
f 448 481 475
f 457 431 433
f 457 433 460
f 457 454 429
f 457 429 431
f 423 429 454
f 423 454 448
f 431 403 407
f 431 407 433
f 407 408 433
f 431 429 399
f 431 399 403
f 389 399 429
f 389 423 390
f 429 423 389
f 399 390 389
f 389 390 400
f 389 400 399
f 403 361 365
f 403 365 407
f 366 407 365
f 361 362 404
f 403 361 404
f 365 361 404
f 365 404 408
f 407 366 408
f 403 407 408
f 403 408 404
f 366 365 408
f 407 403 404
f 407 404 408
f 403 399 356
f 403 356 361
f 344 356 399
f 344 399 389
f 356 344 345
f 356 400 357
f 399 400 356
f 356 400 404
f 356 404 361
f 344 390 345
f 389 390 344
f 399 400 390
f 345 390 400
f 345 400 356
f 361 362 366
f 361 366 365
f 361 356 357
f 361 357 362
f 345 357 356
f 361 404 400
f 361 400 356
f 356 357 362
f 356 362 361
f 356 400 390
f 356 390 345
f 362 306 312
f 362 312 366
f 357 345 290
f 312 306 307
f 312 307 313
f 312 313 367
f 312 306 366
f 366 312 367
f 306 366 362
f 300 357 290
f 306 362 357
f 306 357 300
f 290 346 291
f 300 358 346
f 300 346 290
f 290 291 301
f 290 301 300
f 300 357 362
f 300 362 306
f 290 345 346
f 290 346 357
f 306 307 313
f 306 313 312
f 306 300 301
f 306 301 307
f 301 300 291
f 300 301 307
f 300 307 306
f 307 248 256
f 307 256 313
f 256 313 314
f 307 301 240
f 307 240 248
f 301 291 232
f 301 232 240
f 291 292 232
f 232 292 301
f 257 248 249
f 248 257 256
f 248 307 308
f 248 308 249
f 256 257 314
f 248 256 314
f 248 314 308
f 256 248 308
f 256 308 314
f 248 256 313
f 248 313 307
f 233 241 240
f 240 232 233
f 240 302 301
f 240 241 302
f 248 307 301
f 248 301 240
f 240 241 249
f 240 249 248
f 240 302 292
f 240 292 233
f 233 292 302
f 233 302 241
f 232 292 233
f 240 301 292
f 240 292 232
f 233 302 240
f 248 240 241
f 248 241 249
f 241 292 233
f 249 250 258
f 249 258 257
f 242 241 234
f 234 241 233
f 241 242 250
f 241 250 249
f 250 242 190
f 250 190 194
f 249 241 242
f 249 242 250
f 194 195 199
f 194 199 198
f 198 199 259
f 198 259 258
f 194 198 258
f 250 194 198
f 250 198 258
f 194 195 251
f 194 251 250
f 194 258 250
f 243 242 235
f 235 242 234
f 243 191 190
f 243 190 242
f 194 250 242
f 194 242 190
f 190 243 251
f 190 251 194
f 194 190 191
f 194 191 195
f 194 251 243
f 194 243 190
f 394 395 352
f 352 351 394
f 394 351 350
f 393 349 348
f 393 348 347
f 350 348 349
f 347 392 393
f 548 510 547
f 550 549 548
f 550 548 596
f 596 548 594
f 547 594 548
f 551 597 552
f 596 597 551
f 596 551 550
f 552 511 551
f 181 186 185
f 182 186 181
f 185 186 228
f 228 227 185
f 182 181 219
f 182 219 220
f 181 185 227
f 181 227 219
f 186 182 220
f 186 220 228
f 181 182 220
f 181 220 219
f 186 185 227
f 186 227 228
f 185 181 219
f 185 219 227
f 178 181 177
f 182 181 178
f 177 211 212
f 177 212 178
f 181 219 211
f 181 211 177
f 178 212 220
f 178 220 182
f 178 212 211
f 178 211 177
f 177 211 219
f 177 219 181
f 182 186 228
f 182 228 220
f 182 220 212
f 182 212 178
f 182 183 187
f 182 187 186
f 186 187 229
f 186 229 228
f 183 182 220
f 183 220 221
f 187 183 221
f 187 221 229
f 182 183 221
f 182 221 220
f 187 186 228
f 187 228 229
f 179 183 182
f 179 182 178
f 213 179 178
f 213 178 212
f 179 213 221
f 179 221 183
f 179 213 212
f 179 212 178
f 183 229 187
f 229 183 221
f 213 183 179
f 183 213 221
f 221 222 230
f 221 230 229
f 214 222 221
f 221 213 214
f 222 223 231
f 222 231 230
f 231 287 230
f 231 222 287
f 215 223 222
f 215 222 214
f 215 214 275
f 215 275 222
f 288 231 223
f 223 288 282
f 231 287 288
f 223 222 281
f 223 281 282
f 223 288 281
f 231 223 282
f 231 282 288
f 223 215 276
f 223 282 276
f 215 276 275
f 223 281 276
f 215 276 282
f 215 282 223
f 289 288 282
f 282 276 277
f 283 289 288
f 283 288 282
f 289 283 342
f 289 341 288
f 289 342 341
f 289 283 282
f 283 282 276
f 283 276 277
f 277 332 283
f 277 276 331
f 277 331 332
f 277 282 283
f 283 336 342
f 289 283 336
f 289 336 342
f 332 336 283
f 277 332 336
f 277 336 283
f 336 343 342
f 343 336 337
f 333 336 332
f 336 333 337
f 388 343 337
f 388 337 384
f 343 388 387
f 337 336 383
f 337 343 387
f 337 387 336
f 384 337 383
f 388 384 383
f 388 383 387
f 343 387 342
f 337 343 342
f 337 342 336
f 343 336 387
f 337 333 380
f 380 384 337
f 333 379 380
f 337 336 379
f 337 379 333
f 380 379 383
f 380 383 384
f 333 332 379
f 337 336 332
f 337 332 333
f 333 379 336
f 422 388 384
f 422 384 420
f 384 380 418
f 418 420 384
f 447 422 420
f 447 420 444
f 420 418 442
f 420 442 444
f 444 474 447
f 471 444 445
f 471 445 472
f 474 444 471
f 472 445 444
f 472 444 471
f 469 444 442
f 444 469 471
f 471 502 506
f 471 506 474
f 500 502 471
f 500 471 469
f 502 539 543
f 502 543 506
f 543 542 505
f 506 543 505
f 535 539 502
f 502 500 535
f 535 499 534
f 500 499 535
f 539 543 542
f 543 539 538
f 543 538 542
f 539 534 535
f 535 534 538
f 535 538 539
f 539 586 590
f 539 590 543
f 585 586 539
f 590 586 585
f 543 590 542
f 586 539 538
f 539 542 538
f 585 586 538
f 590 585 538
f 590 538 542
f 580 586 539
f 580 539 535
f 586 580 585
f 534 580 535
f 539 538 534
f 580 534 538
f 580 538 585
f 585 590 542
f 585 542 538
f 585 538 534
f 585 534 580
f 590 585 589
f 580 579 585
f 637 636 644
f 585 637 645
f 585 645 590
f 644 590 645
f 644 589 590
f 636 637 584
f 637 644 589
f 637 589 584
f 645 644 589
f 637 585 584
f 590 645 589
f 585 589 584
f 645 637 584
f 645 584 589
f 630 636 637
f 631 637 585
f 631 585 580
f 630 580 579
f 631 580 630
f 637 584 579
f 637 579 630
f 631 579 630
f 580 579 631
f 585 584 579
f 631 579 584
f 631 584 637
f 643 644 636
f 643 636 635
f 636 630 629
f 629 635 636
f 635 691 697
f 635 697 643
f 636 635 691
f 691 697 643
f 691 643 635
f 685 691 635
f 685 635 629
f 691 635 629
f 691 629 685
f 696 697 691
f 697 696 642
f 697 642 643
f 691 635 690
f 696 691 690
f 691 685 684
f 685 628 684
f 685 629 628
f 684 690 691
f 695 696 690
f 695 690 689
f 690 684 683
f 690 683 689
f 689 694 695
f 694 689 688
f 682 689 683
f 689 682 688
f 688 687 693
f 688 693 694
f 681 687 688
f 681 688 682
f 687 686 692
f 687 692 693
f 692 640 641
f 693 692 641
f 686 687 634
f 692 686 634
f 692 634 640
f 680 686 687
f 680 687 681
f 680 627 626
f 681 627 680
f 680 626 634
f 680 634 686
f 686 692 640
f 686 640 634
f 686 634 626
f 686 626 680
f 634 633 639
f 634 639 640
f 686 634 633
f 625 633 634
f 625 634 626
f 633 639 640
f 633 640 634
f 633 634 626
f 633 626 625
f 638 639 633
f 638 633 583
f 638 583 588
f 639 638 588
f 633 625 624
f 624 578 583
f 624 583 633
f 625 578 624
f 633 632 638
f 587 638 632
f 639 587 588
f 638 587 639
f 582 632 583
f 582 587 588
f 582 588 583
f 638 587 588
f 632 633 583
f 633 638 588
f 633 588 583
f 587 632 583
f 587 583 588
f 624 632 633
f 632 624 577
f 577 625 578
f 577 624 625
f 582 583 578
f 582 578 577
f 624 578 577
f 633 583 578
f 633 578 624
f 577 578 583
f 577 583 632
f 582 541 587
f 540 541 582
f 540 582 536
f 582 541 537
f 536 582 537
f 540 536 537
f 540 537 541
f 581 537 582
f 587 582 537
f 587 537 541
f 533 582 577
f 582 533 532
f 582 532 536
f 582 537 533
f 532 533 537
f 532 537 536
f 577 533 537
f 577 537 582
f 581 536 582
f 536 540 541
f 536 541 537
f 536 537 533
f 536 533 532
f 503 540 536
f 503 536 501
f 540 503 504
f 540 504 541
f 536 532 497
f 497 501 536
f 532 498 497
f 532 533 498
f 473 503 501
f 473 501 470
f 501 497 468
f 468 470 501
f 470 446 473
f 446 470 443
f 441 470 468
f 470 441 443
f 443 419 421
f 443 421 446
f 417 419 443
f 417 443 441
f 419 381 385
f 419 385 421
f 385 386 421
f 377 381 419
f 377 419 417
f 377 417 378
f 381 334 338
f 381 338 385
f 339 385 338
f 338 339 386
f 385 338 386
f 334 381 382
f 381 385 386
f 381 386 382
f 338 334 382
f 338 382 339
f 385 339 386
f 385 381 382
f 385 382 386
f 328 334 381
f 328 381 377
f 328 378 329
f 377 378 328
f 381 382 378
f 381 378 377
f 328 329 382
f 328 382 334
f 377 378 382
f 377 382 381
f 334 335 339
f 334 382 335
f 334 338 339
f 334 339 382
f 338 334 335
f 338 335 339
f 329 335 334
f 334 382 329
f 334 329 328
f 328 329 335
f 328 335 334
f 284 339 335
f 284 335 278
f 335 329 272
f 335 272 278
f 284 278 279
f 284 279 285
f 284 285 340
f 278 284 339
f 278 339 335
f 339 284 340
f 272 273 279
f 272 279 278
f 272 330 273
f 278 335 329
f 278 329 272
f 272 329 330
f 278 279 285
f 285 284 278
f 273 279 278
f 278 272 273
f 279 216 224
f 279 224 285
f 224 285 286
f 208 216 279
f 279 273 208
f 273 274 208
f 216 225 224
f 225 216 217
f 216 279 280
f 216 280 217
f 224 225 286
f 216 224 286
f 216 286 280
f 216 224 285
f 216 285 279
f 224 216 280
f 224 280 286
f 209 216 208
f 216 209 217
f 208 274 209
f 216 280 274
f 216 274 208
f 216 279 273
f 216 273 208
f 208 274 280
f 208 280 216
f 226 225 217
f 226 217 218
f 217 209 210
f 217 210 218
f 184 226 218
f 184 218 180
f 218 210 176
f 218 176 180
f 180 185 184
f 185 180 181
f 184 185 227
f 184 227 226
f 180 218 219
f 180 184 226
f 180 226 218
f 181 180 219
f 177 180 176
f 180 177 181
f 211 177 176
f 211 176 210
f 180 218 210
f 180 210 176
f 490 525 491
f 622 575 574
f 442 418 416
f 442 416 440
f 418 380 376
f 418 376 416
f 380 332 376
f 374 414 375
f 332 327 376
f 332 326 327
f 332 276 271
f 332 271 326
f 276 270 271
f 324 374 325
f 276 214 270
f 214 207 270
f 214 213 206
f 214 206 207
f 323 324 269
f 323 269 268
f 213 212 205
f 213 205 206
f 212 211 204
f 212 204 205
f 322 323 268
f 322 268 267
f 211 210 203
f 211 203 204
f 321 322 267
f 210 209 202
f 210 202 203
f 209 265 202
f 209 273 264
f 209 264 265
f 373 321 320
f 273 319 264
f 273 329 318
f 273 318 319
f 373 320 372
f 329 378 371
f 329 371 318
f 413 373 372
f 378 377 371
f 377 417 411
f 377 411 371
f 417 441 435
f 417 435 411
f 441 468 462
f 441 462 435
f 468 497 462
f 497 489 462
f 497 490 489
f 497 533 524
f 497 524 490
f 533 577 568
f 533 568 524
f 492 491 525
f 577 578 569
f 577 569 568
f 526 492 525
f 578 625 569
f 625 617 569
f 625 626 618
f 625 618 617
f 527 526 571
f 626 681 619
f 626 619 618
f 681 682 678
f 681 678 619
f 682 683 679
f 682 679 678
f 683 684 622
f 683 622 679
f 684 629 623
f 684 623 622
f 629 630 623
f 528 574 575
f 630 576 623
f 529 528 575
f 576 630 579
f 580 531 576
f 493 529 530
f 580 534 531
f 493 530 494
f 534 535 531
f 535 500 495
f 535 495 531
f 500 496 495
f 500 469 467
f 500 467 496
f 469 442 440
f 469 440 467
f 375 376 326
f 326 270 325
f 268 205 204
f 268 204 267
f 265 319 320
f 490 524 525
f 525 569 570
f 570 619 571
f 622 623 575
f 530 531 495
f 439 440 416
f 439 416 415
f 415 414 439
f 414 438 439
f 415 416 376
f 376 375 415
f 375 414 415
f 376 327 326
f 325 375 326
f 325 374 375
f 326 271 270
f 270 269 325
f 269 324 325
f 270 207 269
f 269 207 206
f 269 206 268
f 268 206 205
f 267 204 203
f 267 203 266
f 266 321 267
f 266 203 265
f 203 202 265
f 265 320 266
f 320 321 266
f 265 264 319
f 372 320 319
f 319 318 372
f 372 318 371
f 371 413 372
f 371 411 412
f 412 413 371
f 412 435 436
f 412 411 435
f 436 437 413
f 436 413 412
f 436 435 462
f 436 462 463
f 463 464 437
f 463 437 436
f 463 462 489
f 463 489 490
f 490 491 463
f 491 464 463
f 524 569 525
f 524 568 569
f 570 526 525
f 569 617 570
f 570 617 618
f 570 571 526
f 570 618 619
f 619 678 620
f 620 571 619
f 620 572 571
f 620 678 679
f 620 679 621
f 621 573 572
f 621 572 620
f 621 679 622
f 622 574 573
f 622 573 621
f 575 623 576
f 530 529 576
f 530 576 531
f 495 494 530
f 466 465 494
f 466 494 495
f 495 467 466
f 495 496 467
f 466 467 440
f 466 440 439
f 439 438 465
f 439 465 466
f 579 580 576
f 575 576 529
f 444 447 422
f 444 422 420
f 420 422 388
f 420 388 384
f 333 332 380
f 388 342 343
f 384 388 343
f 384 343 337
f 182 178 213
f 182 213 183
f 183 229 186
f 183 186 182
f 210 211 177
f 218 210 177
f 218 177 181
f 185 227 226
f 181 185 226
f 181 226 218
f 218 226 225
f 218 225 217
f 208 273 209
f 225 285 224
f 217 225 224
f 217 224 216
f 334 338 385
f 334 385 381
f 381 385 421
f 381 421 419
f 419 421 446
f 419 446 443
f 577 533 532
f 582 577 532
f 540 541 587
f 536 540 587
f 536 587 582
f 681 626 680
f 692 640 693
f 686 692 693
f 686 693 687
f 688 694 695
f 688 695 689
f 636 629 691
f 691 643 644
f 691 644 636
f 539 580 585
f 585 590 543
f 585 543 539
f 502 506 474
f 502 474 471
f 223 231 230
f 223 230 222
f 222 230 229
f 222 229 221
f 182 186 185
f 182 185 181
f 443 446 473
f 443 473 470
f 470 473 503
f 470 503 501
f 501 503 540
f 501 540 536
f 582 587 639
f 582 639 633
f 633 625 577
f 633 577 582
f 687 693 694
f 687 694 688
f 689 695 696
f 689 696 690
f 690 696 697
f 690 697 691
f 636 644 645
f 636 645 637
f 637 631 630
f 539 543 506
f 539 506 502
f 471 474 447
f 471 447 444
f 637 645 590
f 637 590 585
f 277 276 332
f 215 214 276
f 272 329 273
f 532 533 497
f 684 685 629
f 250 242 191
f 250 191 195
f 608 602 556
f 608 556 560
f 713 707 706
f 713 706 712
f 668 660 709
f 668 709 715
f 563 559 605
f 563 605 611
f 454 457 484
f 454 484 481
f 508 546 509
f 602 608 663
f 602 663 655
f 651 598 597
f 482 485 458
f 482 458 455
f 428 398 397
f 398 354 397
f 395 426 396
f 354 298 353
f 351 395 352
f 298 238 297
f 350 351 296
f 350 296 295
f 349 350 295
f 349 295 294
f 348 349 294
f 233 291 292
f 392 348 347
f 291 345 346
f 392 347 391
f 425 392 391
f 507 545 508
f 510 509 546
f 547 510 546
f 647 699 648
f 699 700 648
f 701 702 651
f 702 652 651
f 551 597 598
f 653 599 652
f 552 551 598
f 600 554 599
f 511 552 553
f 511 553 512
f 396 397 353
f 353 297 352
f 295 236 235
f 295 235 294
f 292 346 347
f 508 545 546
f 546 592 593
f 593 648 594
f 651 652 598
f 553 554 513
f 452 453 428
f 452 428 427
f 427 426 452
f 426 451 452
f 427 428 397
f 397 396 427
f 396 426 427
f 397 354 353
f 352 396 353
f 352 395 396
f 353 298 297
f 297 296 352
f 296 351 352
f 297 238 296
f 296 238 237
f 296 237 295
f 295 237 236
f 294 235 234
f 294 234 293
f 293 348 294
f 293 234 292
f 234 233 292
f 292 347 293
f 347 348 293
f 292 291 346
f 391 347 346
f 346 345 391
f 391 345 390
f 390 425 391
f 390 423 424
f 424 425 390
f 424 448 449
f 424 423 448
f 449 450 425
f 449 425 424
f 449 448 475
f 449 475 476
f 476 477 450
f 476 450 449
f 476 475 507
f 476 507 508
f 508 509 476
f 509 477 476
f 545 592 546
f 545 591 592
f 593 547 546
f 592 646 593
f 593 646 647
f 593 594 547
f 593 647 648
f 648 700 649
f 649 594 648
f 649 595 594
f 649 700 701
f 649 701 650
f 650 596 595
f 650 595 649
f 650 701 651
f 651 597 596
f 651 596 650
f 598 652 599
f 553 552 599
f 553 599 554
f 513 512 553
f 479 478 512
f 479 512 513
f 513 480 479
f 513 514 480
f 479 480 453
f 479 453 452
f 452 451 478
f 452 478 479
f 598 599 552
f 611 605 661
f 611 661 669
f 458 461 434
f 458 434 432
f 432 434 410
f 432 410 406
f 360 354 398
f 410 369 370
f 406 410 370
f 406 370 364
f 359 354 360
f 305 298 299
f 304 298 305
f 192 236 237
f 192 237 245
f 197 261 200
f 197 200 196
f 242 235 191
f 199 259 258
f 195 199 258
f 195 258 250
f 250 258 257
f 250 257 249
f 240 291 233
f 257 313 256
f 249 257 256
f 249 256 248
f 301 291 240
f 300 290 291
f 399 390 356
f 365 408 407
f 361 365 407
f 361 407 403
f 403 407 433
f 403 433 431
f 431 433 460
f 431 460 457
f 602 545 556
f 564 565 613
f 560 564 613
f 560 613 608
f 705 699 647
f 705 647 704
f 716 672 717
f 710 716 717
f 710 717 711
f 712 718 719
f 712 719 713
f 715 675 676
f 715 676 668
f 559 554 600
f 559 600 605
f 611 616 567
f 611 567 563
f 519 523 488
f 519 488 485
f 255 263 262
f 255 262 254
f 254 262 261
f 254 261 253
f 200 260 259
f 200 259 199
f 196 200 199
f 196 199 195
f 191 235 236
f 191 236 192
f 362 366 365
f 362 365 361
f 484 487 520
f 484 520 518
f 518 520 564
f 518 564 560
f 608 613 671
f 608 671 663
f 655 646 591
f 711 717 718
f 711 718 712
f 713 719 720
f 713 720 714
f 714 720 721
f 714 721 715
f 676 615 677
f 668 676 677
f 668 677 669
f 661 599 653
f 661 653 660
f 563 567 523
f 563 523 519
f 485 488 461
f 485 461 458
f 605 599 661
f 677 615 616
f 669 677 616
f 669 616 611
f 299 298 354
f 239 238 298
f 290 345 291
f 544 545 507
f 591 646 592
f 702 703 652
v 0.51500 -0.04700 -0.03600
v 0.51500 0.29300 -0.03600
v 0.49300 0.29300 -0.15050
v 0.51300 0.29300 0.05800
v 0.47000 -0.04700 -0.20475
v 0.51253 -0.04055 0.00835
v 0.49623 -0.04090 0.13338
v 0.45627 0.29987 0.23870
v 0.52004 0.29794 0.00374
v 0.44700 0.29300 -0.25900
v 0.48550 -0.04700 0.17200
v 0.48550 0.29300 0.17200
v 0.43152 0.32929 -0.01000
v 0.34200 -0.04700 -0.38375
v 0.39300 0.29300 -0.33500
v 0.44846 0.29948 -0.25595
v 0.43500 0.29300 0.27800
v 0.37852 -0.04058 0.35612
v 0.48281 -0.03600 -0.16998
v 0.35375 -0.01008 -0.23877
v 0.44261 -0.01260 0.09915
v 0.23846 0.32926 -0.36631
v 0.37500 0.29300 0.35300
v 0.30700 0.29300 -0.41500
v 0.40500 -0.04700 0.31550
v 0.31384 0.29882 0.40955
v 0.33814 0.32883 0.25157
v 0.21090 -0.01017 0.35905
v 0.24274 0.32253 0.38297
v 0.30713 -0.02900 0.00300
v 0.30713 0.31000 0.00300
v 0.35176 -0.03804 -0.37767
v 0.38665 -0.01555 0.06989
v 0.38753 0.32431 0.06379
v 0.20500 0.29300 -0.47200
v 0.13900 -0.02900 0.27563
v 0.13900 0.31000 0.27563
v 0.16200 -0.04700 -0.49100
v 0.29135 0.29740 -0.42783
v 0.36153 0.32701 -0.24379
v 0.03991 0.32422 -0.39184
v 0.28625 0.29300 0.42525
v 0.20230 0.30465 0.46423
v 0.15309 -0.03730 0.48938
v 0.23063 -0.04700 0.45737
v 0.03475 0.29300 -0.51400
v 0.16178 0.32875 0.38247
v 0.08368 0.30373 0.50200
v -0.04040 -0.04050 0.51225
v 0.07000 -0.04700 0.51000
v 0.11600 0.29300 0.50150
v -0.04700 -0.04700 -0.51175
v 0.11832 0.30051 -0.49957
v 0.14707 -0.03614 -0.48844
v -0.19581 -0.02900 0.21344
v -0.19581 0.31000 0.21344
v -0.05371 0.30097 0.51023
v 0.09150 -0.02900 -0.30125
v 0.09150 0.31000 -0.30125
v -0.09350 0.29300 -0.50750
v -0.02653 0.29852 -0.51285
v 0.02556 -0.01836 -0.39282
v -0.10316 0.32918 -0.42431
v -0.03525 0.29300 0.51250
v 0.19375 -0.01343 -0.41685
v -0.24029 0.32844 0.36969
v -0.23024 -0.04039 0.46123
v -0.09400 -0.04700 0.50700
v -0.08543 -0.03745 -0.51139
v -0.13655 0.29709 -0.49605
v -0.18400 -0.04700 -0.48250
v -0.22700 0.29300 -0.46350
v -0.22671 -0.01396 -0.39284
v -0.35565 -0.01078 -0.21967
v -0.03713 -0.01019 0.41909
v -0.18400 0.29300 0.48200
v -0.23731 0.29893 -0.45615
v -0.42255 0.32964 -0.09975
v -0.30700 -0.04700 -0.41500
v -0.28719 0.29910 0.43023
v -0.14351 -0.01649 0.35659
v -0.33400 0.29300 -0.39250
v -0.33962 -0.04163 0.38570
v -0.21450 -0.02900 -0.22975
v -0.21450 0.31000 -0.22975
v -0.24750 -0.04700 0.45150
v -0.28750 0.29300 0.42700
v -0.31073 -0.04046 -0.41048
v -0.34027 0.29904 -0.38624
v -0.39950 -0.04700 -0.32525
v -0.21750 -0.01273 0.39893
v -0.19853 0.31630 0.30649
v -0.28903 0.32654 -0.33785
v -0.44314 0.30335 0.25140
v -0.31437 -0.02655 0.15601
v -0.42200 0.29300 -0.29800
v -0.39250 0.29300 0.33400
v -0.43602 0.32643 0.10162
v -0.41254 -0.01014 0.02629
v -0.43027 -0.03086 0.26608
v -0.44152 -0.04332 0.26329
v -0.39925 -0.04700 0.32450
v -0.44921 -0.03925 -0.25310
v -0.46900 -0.04700 -0.21700
v -0.47750 0.29300 -0.19500
v -0.49477 0.29706 0.15190
v -0.45800 -0.04700 0.23700
v -0.46732 0.29914 -0.22095
v -0.49887 -0.04111 0.13395
v -0.48600 -0.04700 0.17200
v -0.50975 0.29300 -0.07050
v -0.48600 0.29300 0.17200
v -0.51550 -0.04700 -0.01250
v -0.50545 -0.03429 -0.06400
v -0.50900 -0.04700 0.08100
v -0.51287 0.29961 -0.01852
v -0.51300 0.29300 0.05800
usemtl m028
f 802 776 816
f 816 776 805
f 816 805 795
f 795 805 783
f 783 805 779
f 783 779 741
f 741 779 751
f 741 751 754
f 749 757 776
f 749 776 802
f 812 796 802
f 812 802 816
f 812 820 821
f 820 812 816
f 820 835 821
f 795 820 816
f 795 835 820
f 835 795 824
f 795 794 824
f 794 809 824
f 794 790 809
f 794 795 783
f 786 794 783
f 786 775 794
f 794 775 790
f 741 786 783
f 741 753 786
f 741 740 753
f 741 742 740
f 742 727 740
f 742 728 727
f 742 741 754
f 749 796 765
f 749 765 739
f 796 812 770
f 796 770 765
f 796 749 802
f 749 754 751
f 749 751 757
f 742 754 749
f 739 742 749
f 789 770 788
f 807 789 788
f 807 788 804
f 823 807 804
f 823 804 821
f 823 821 822
f 828 823 822
f 831 828 822
f 831 822 830
f 836 831 830
f 834 836 830
f 834 830 835
f 825 834 835
f 825 835 824
f 811 825 824
f 811 824 809
f 800 811 809
f 792 800 809
f 792 809 790
f 773 792 790
f 759 773 790
f 759 790 775
f 735 759 775
f 735 775 753
f 726 735 753
f 726 753 740
f 722 726 740
f 722 740 727
f 732 722 727
f 732 727 728
f 732 728 739
f 746 732 739
f 766 746 739
f 766 739 765
f 771 766 765
f 771 765 770
f 789 771 770
f 788 770 812
f 788 812 821
f 804 788 821
f 830 822 821
f 830 821 835
f 753 775 786
f 739 728 742
f 813 777 799
f 799 777 806
f 799 806 784
f 784 806 762
f 762 806 780
f 762 780 743
f 743 780 752
f 743 752 755
f 768 758 777
f 768 777 813
f 787 801 778
f 819 787 813
f 819 815 787
f 819 813 799
f 819 837 815
f 819 799 829
f 819 829 837
f 799 814 829
f 814 799 784
f 814 798 810
f 814 784 798
f 784 774 782
f 743 784 762
f 784 743 774
f 774 743 760
f 743 761 737
f 761 734 737
f 734 743 755
f 734 730 737
f 734 761 743
f 748 729 734
f 734 729 730
f 748 734 755
f 748 747 729
f 750 768 764
f 768 769 764
f 768 787 778
f 768 778 769
f 787 768 813
f 768 755 752
f 768 752 758
f 748 768 750
f 768 748 755
f 747 748 750
f 747 750 764
f 797 785 778
f 797 778 801
f 808 797 801
f 818 808 801
f 818 801 815
f 833 818 815
f 833 815 827
f 838 833 827
f 838 827 837
f 832 838 837
f 832 837 829
f 826 832 829
f 817 826 829
f 817 829 810
f 803 817 810
f 803 810 798
f 793 803 798
f 793 798 791
f 781 793 791
f 781 791 782
f 767 781 782
f 767 782 774
f 756 767 774
f 756 774 760
f 745 756 760
f 736 745 760
f 736 760 737
f 731 736 737
f 724 731 737
f 724 737 730
f 723 724 730
f 725 723 730
f 733 725 730
f 733 730 729
f 738 733 729
f 763 744 747
f 763 747 764
f 772 763 764
f 772 764 769
f 785 772 769
f 785 769 778
f 744 738 729
f 744 729 747
f 815 801 787
f 827 815 837
f 810 829 814
f 791 798 784
f 782 791 784
f 760 743 737
