# fh16_wheel_rr.obj - ISO 8855 (x ileri, y sol, z yukari), metre
mtllib fh16.mtl
o fh16_wheel_rr
v -0.56171 -0.37548 0.39812
v -0.58369 -0.29162 0.39679
v -0.58068 -0.17096 0.39472
v -0.58596 -0.02043 0.39746
v -0.58098 0.13256 0.39499
v -0.57396 0.29030 0.39785
v -0.47906 -0.37590 0.40059
v -0.46855 -0.37800 0.45864
v -0.45625 -0.35850 0.40150
v -0.50441 -0.28754 0.48243
v -0.50590 -0.17260 0.48235
v -0.51050 -0.02033 0.48700
v -0.50597 0.13270 0.48250
v -0.47431 0.30530 0.40081
v -0.47962 0.29826 0.46618
v -0.36020 -0.37725 0.49940
v -0.27883 -0.37700 0.57833
v -0.37961 -0.28861 0.54011
v -0.31030 -0.29163 0.58793
v -0.38862 -0.18188 0.55650
v -0.29842 -0.16642 0.58833
v -0.33650 -0.02033 0.58200
v -0.38896 0.13250 0.55731
v -0.29297 0.13285 0.58988
v -0.36137 0.30567 0.50233
v -0.30393 0.28664 0.58264
v -0.22050 -0.37920 0.52720
v -0.14964 -0.37793 0.59157
v -0.23150 -0.35850 0.50900
v -0.15095 -0.28432 0.61373
v -0.15030 -0.17260 0.61020
v -0.15150 -0.02033 0.61700
v -0.15030 0.13270 0.61033
v -0.22150 0.30850 0.52555
v -0.15042 0.29492 0.60183
v -0.06033 -0.37633 0.53042
v -0.01050 -0.37793 0.59557
v -0.06950 -0.35850 0.52400
v -0.01050 -0.28432 0.61755
v -0.01050 -0.17260 0.61410
v -0.01050 -0.02033 0.62100
v -0.01050 0.13270 0.61420
v -0.06164 0.30507 0.52950
v -0.01050 0.29492 0.60575
v 0.10150 -0.37736 0.53086
v 0.12779 -0.37793 0.59157
v 0.09750 -0.35850 0.52200
v 0.12923 -0.28432 0.61373
v 0.12890 -0.17260 0.61020
v 0.12950 -0.02033 0.61700
v 0.12890 0.13270 0.61033
v 0.10100 0.30625 0.52975
v 0.12850 0.29492 0.60183
v 0.23342 -0.37633 0.50950
v 0.25750 -0.37700 0.57833
v 0.23900 -0.35850 0.49650
v 0.25905 -0.28432 0.59664
v 0.25840 -0.17260 0.59320
v 0.25950 -0.02033 0.60000
v 0.25843 0.13270 0.59333
v 0.23421 0.30507 0.50764
v 0.25841 0.29314 0.58773
v 0.36517 -0.37829 0.48179
v 0.36872 -0.28861 0.53344
v 0.37050 -0.31175 0.56400
v 0.36675 -0.18188 0.55650
v 0.37050 -0.13550 0.56400
v 0.37050 -0.02033 0.56400
v 0.36704 0.13250 0.55731
v 0.37050 0.13400 0.56400
v 0.36589 0.30693 0.48468
v 0.37050 0.26283 0.56400
v 0.54200 -0.37633 0.22242
v 0.49242 -0.37637 0.38968
v 0.47100 -0.37793 0.46836
v 0.53800 -0.35850 0.21400
v 0.53563 -0.28573 0.39274
v 0.48673 -0.28432 0.48491
v 0.55755 -0.18265 0.39160
v 0.48440 -0.17260 0.48235
v 0.55923 -0.02659 0.40391
v 0.48850 -0.02033 0.48700
v 0.55801 0.13262 0.39185
v 0.48450 0.13270 0.48250
v 0.54143 0.30507 0.22121
v 0.49347 0.30470 0.38978
v 0.47825 0.29492 0.47596
v 0.64200 -0.37886 -0.20850
v 0.64850 -0.37894 -0.05504
v 0.62943 -0.37764 0.08550
v 0.61342 -0.37863 0.23379
v 0.57604 -0.37181 0.35215
v 0.61517 -0.35850 -0.21033
v 0.60550 -0.35850 -0.05650
v 0.67428 -0.28231 0.10859
v 0.64368 -0.29043 0.23100
v 0.57292 -0.29521 0.38160
v 0.67609 -0.18439 0.12278
v 0.64102 -0.17794 0.22422
v 0.57524 -0.15814 0.37460
v 0.68950 -0.02623 0.09000
v 0.64544 -0.02444 0.23547
v 0.57198 -0.01833 0.38602
v 0.67623 0.13121 0.12351
v 0.64088 0.13265 0.22572
v 0.57470 0.13314 0.37534
v 0.63940 0.30811 -0.20868
v 0.64531 0.30883 -0.05515
v 0.64190 0.29895 0.08613
v 0.62503 0.29824 0.23418
v 0.57256 0.27652 0.38047
v 0.71064 -0.37543 -0.21400
v 0.70983 -0.36683 -0.06867
v 0.72422 -0.32661 -0.21033
v 0.71433 -0.32575 -0.05600
v 0.72483 -0.16061 -0.21033
v 0.71483 -0.16167 -0.05567
v 0.72483 -0.02033 -0.21033
v 0.71492 -0.02008 -0.05600
v 0.72483 0.13350 -0.21033
v 0.71500 0.13350 -0.05617
v 0.71760 0.29019 -0.21210
v 0.71319 0.27958 -0.05892
usemtl m001
f 74 75 63
f 54 46 45
f 37 36 45
f 37 45 46
f 115 117 98
f 115 98 95
f 119 101 98
f 119 98 117
f 79 81 82
f 79 82 80
f 59 58 67
f 59 67 68
f 80 82 68
f 80 68 67
f 89 113 90
f 55 54 63
f 54 55 46
f 56 64 63
f 56 63 54
f 76 95 90
f 76 90 73
f 94 93 88
f 94 88 89
f 77 74 63
f 77 63 64
f 38 47 45
f 38 45 36
f 47 56 54
f 47 54 45
f 59 50 49
f 59 49 58
f 50 41 40
f 50 40 49
f 89 88 112
f 57 64 65
f 64 78 65
f 113 112 114
f 113 114 115
f 74 77 78
f 74 78 75
f 91 90 95
f 91 95 96
f 55 63 64
f 55 64 57
f 63 75 78
f 63 78 64
f 37 46 48
f 37 48 39
f 46 55 57
f 46 57 48
f 80 67 66
f 67 58 66
f 79 80 78
f 79 78 77
f 80 66 64
f 80 64 78
f 66 58 57
f 66 57 64
f 58 49 48
f 58 48 57
f 49 40 39
f 49 39 48
f 99 95 98
f 114 116 117
f 114 117 115
f 116 118 119
f 116 119 117
f 112 113 89
f 94 89 90
f 94 90 95
f 113 115 95
f 113 95 90
f 98 101 102
f 98 102 99
f 90 91 73
f 92 74 91
f 76 73 74
f 76 74 77
f 97 92 91
f 97 91 96
f 95 99 96
f 86 71 87
f 44 53 52
f 44 52 43
f 53 61 52
f 121 123 109
f 121 109 104
f 101 119 104
f 121 104 119
f 84 83 86
f 84 86 87
f 83 84 82
f 83 82 81
f 60 70 72
f 60 72 62
f 70 84 87
f 70 87 72
f 84 70 68
f 84 68 82
f 70 60 59
f 70 59 68
f 109 123 108
f 71 61 62
f 61 53 62
f 44 42 51
f 44 51 53
f 60 62 53
f 60 53 51
f 42 41 50
f 42 50 51
f 59 60 51
f 59 51 50
f 122 107 108
f 87 71 72
f 62 72 71
f 60 70 69
f 84 69 70
f 121 120 122
f 121 122 123
f 120 121 119
f 120 119 118
f 122 108 123
f 105 104 109
f 105 109 110
f 104 105 102
f 104 102 101
f 110 109 85
f 110 86 111
f 37 28 27
f 37 27 36
f 12 4 3
f 12 3 11
f 22 12 11
f 22 11 21
f 16 27 17
f 27 28 17
f 29 27 16
f 29 16 18
f 7 9 10
f 7 10 8
f 18 16 8
f 18 8 10
f 27 29 38
f 27 38 36
f 40 41 32
f 40 32 31
f 22 21 31
f 22 31 32
f 1 7 8
f 10 18 19
f 2 1 8
f 2 8 10
f 10 8 16
f 10 16 18
f 17 19 18
f 17 18 16
f 19 17 28
f 19 28 30
f 37 39 30
f 37 30 28
f 11 20 21
f 3 2 10
f 3 10 11
f 19 21 20
f 19 20 18
f 11 10 18
f 11 18 20
f 39 40 31
f 39 31 30
f 21 19 30
f 21 30 31
f 44 43 34
f 44 34 35
f 6 5 13
f 6 13 15
f 5 4 12
f 5 12 13
f 15 13 24
f 15 24 26
f 13 12 22
f 13 22 24
f 26 34 25
f 34 26 35
f 24 33 35
f 24 35 26
f 33 42 44
f 33 44 35
f 42 33 32
f 42 32 41
f 33 24 22
f 33 22 32
f 14 6 15
f 25 15 26
f 13 24 23
f 77 74 92
f 77 97 74
f 97 77 92
f 100 81 103
f 81 79 100
f 97 100 79
f 97 79 77
f 86 83 106
f 86 106 111
f 83 81 103
f 83 103 106
f 74 73 91
f 103 100 102
f 99 102 100
f 100 97 96
f 100 96 99
f 86 110 85
f 105 110 111
f 105 111 106
f 102 105 106
f 102 106 103
v -0.33432 -0.31259 0.00000
v -0.33650 -0.18050 0.00000
v -0.33150 -0.07950 0.00000
v -0.25529 -0.30833 -0.18545
v -0.28539 -0.30171 -0.10386
v -0.29611 -0.29907 0.01480
v -0.27372 -0.30688 0.14400
v -0.24075 -0.20300 -0.17500
v -0.24427 -0.17892 -0.12100
v -0.26864 -0.17998 0.04330
v -0.22628 -0.18007 0.16107
v -0.23991 -0.05344 -0.17435
v -0.23992 -0.10041 -0.08953
v -0.25018 -0.09269 0.04545
v -0.24097 -0.08194 0.15014
v -0.24939 0.02939 -0.18120
v -0.25530 0.04960 -0.10043
v -0.27223 0.04814 0.03172
v -0.25759 0.03616 0.14776
v -0.25250 0.15350 -0.18400
v -0.29650 0.15350 -0.09700
v -0.31250 0.15350 0.00000
v -0.27450 0.15350 0.13950
v -0.25261 0.31044 -0.18344
v -0.29813 0.31071 -0.09716
v -0.31291 0.31009 0.00000
v -0.27576 0.31083 0.13867
v -0.10150 -0.31428 -0.31137
v -0.15174 -0.30163 -0.25943
v -0.14131 -0.30442 0.27051
v -0.10450 -0.18050 -0.32000
v -0.12628 -0.17973 -0.24196
v -0.08429 -0.18914 -0.06236
v -0.09528 -0.19116 0.02098
v -0.12442 -0.18006 0.24306
v -0.10000 -0.07250 -0.30725
v -0.12749 -0.09208 -0.21935
v -0.12273 -0.07773 -0.08744
v -0.12419 -0.07399 0.03306
v -0.12212 -0.09133 0.14953
v -0.12533 -0.07498 0.25462
v -0.09886 0.02139 -0.30346
v -0.13784 0.04689 -0.23576
v -0.14358 0.02172 -0.10042
v -0.16274 0.01964 0.04074
v -0.12708 0.03275 0.15593
v -0.13190 0.04187 0.26088
v -0.09650 0.15350 -0.29700
v -0.18350 0.15350 -0.25300
v -0.14000 0.15350 0.27450
v -0.09992 0.31100 -0.30683
v -0.15927 0.31062 -0.26115
v -0.14037 0.31074 0.27445
v -0.00050 -0.30883 -0.31635
v -0.00050 -0.28370 -0.27830
v -0.00050 -0.30419 0.30806
v -0.00050 -0.18050 -0.33600
v -0.00050 -0.18103 -0.27528
v -0.00209 -0.20114 -0.07159
v -0.01527 -0.20957 0.02761
v -0.00036 -0.18907 0.09891
v -0.00050 -0.18006 0.27613
v -0.00050 -0.07110 -0.31780
v -0.00117 -0.09704 -0.22553
v -0.00694 -0.07019 -0.12072
v -0.05830 -0.06670 0.07900
v -0.00398 -0.07535 0.13520
v -0.00050 -0.09532 0.26039
v -0.00050 0.02233 -0.31633
v -0.00121 0.04687 -0.23801
v -0.00250 0.00750 -0.14668
v -0.00271 0.02086 0.17386
v -0.00050 0.04438 0.28130
v -0.00050 0.15350 -0.31200
v -0.00050 0.15350 0.31200
v -0.00050 0.31015 -0.31241
v -0.00050 0.31126 0.31152
v 0.10072 -0.31428 -0.31137
v 0.12824 -0.29412 -0.25668
v 0.12069 -0.30068 0.27308
v 0.10350 -0.18050 -0.32000
v 0.12303 -0.18002 -0.24252
v 0.08044 -0.19150 -0.06153
v 0.07979 -0.19779 0.01280
v 0.12281 -0.18003 0.24274
v 0.09950 -0.07250 -0.30725
v 0.12376 -0.09274 -0.21749
v 0.10916 -0.07504 -0.09029
v 0.11821 -0.07234 0.03315
v 0.11114 -0.08797 0.14594
v 0.11810 -0.07466 0.25551
v 0.09825 0.02132 -0.30354
v 0.12400 0.05347 -0.23471
v 0.13414 0.01740 -0.09958
v 0.15474 0.01617 0.03915
v 0.12147 0.03247 0.15844
v 0.11744 0.04701 0.26164
v 0.09650 0.15350 -0.29700
v 0.09650 0.15350 0.29700
v 0.09908 0.31100 -0.30683
v 0.13623 0.31070 -0.26153
v 0.12114 0.31104 0.27804
v 0.23247 -0.30995 -0.21292
v 0.27274 -0.29670 -0.10422
v 0.28241 -0.29163 0.02391
v 0.26234 -0.30492 0.15416
v 0.19176 -0.31428 0.26400
v 0.23130 -0.19850 -0.19440
v 0.24264 -0.17920 -0.12113
v 0.26803 -0.18002 0.04235
v 0.22348 -0.18003 0.16233
v 0.19750 -0.18050 0.27100
v 0.23210 -0.05625 -0.18795
v 0.22703 -0.10194 -0.08579
v 0.23917 -0.09554 0.04479
v 0.23164 -0.08309 0.14703
v 0.19183 -0.07417 0.26433
v 0.22550 0.02698 -0.20841
v 0.24693 0.04923 -0.09801
v 0.25333 0.05323 0.04076
v 0.25202 0.03728 0.14626
v 0.18693 0.02141 0.25765
v 0.21750 0.15350 -0.21850
v 0.29650 0.15350 -0.09700
v 0.27450 0.15350 0.13950
v 0.18250 0.15350 0.25200
v 0.22893 0.31070 -0.21193
v 0.29157 0.31343 -0.09513
v 0.29836 0.31036 0.00000
v 0.26832 0.31194 0.14659
v 0.18886 0.31050 0.26018
v 0.31483 -0.31430 -0.10267
v 0.32737 -0.31407 0.00000
v 0.31512 -0.31365 0.10208
v 0.31950 -0.18050 -0.10400
v 0.33550 -0.18050 0.00000
v 0.31950 -0.18050 0.10300
v 0.31450 -0.07900 -0.10250
v 0.32250 -0.07175 0.00000
v 0.31450 -0.07900 0.10200
v 0.30975 0.01600 -0.10100
v 0.31926 0.02094 0.00000
v 0.30970 0.01590 0.10060
v 0.31150 0.15350 0.00000
v 0.30850 0.30075 -0.10075
v 0.32190 0.31000 0.00000
v 0.30850 0.30075 0.10000
usemtl m002
f 169 195 170
f 166 193 194
f 166 194 167
f 167 140 166
f 193 216 194
f 217 216 242
f 216 217 194
f 217 243 218
f 244 219 218
f 195 196 170
f 195 219 220
f 195 220 196
f 168 169 142
f 168 142 141
f 141 140 167
f 141 167 168
f 217 242 243
f 243 244 218
f 166 140 139
f 216 241 242
f 192 166 165
f 192 215 216
f 241 216 215
f 242 265 243
f 244 243 265
f 245 220 244
f 192 216 193
f 166 192 193
f 242 241 264
f 265 242 264
f 244 265 266
f 170 142 169
f 244 220 219
f 169 163 190
f 169 190 195
f 168 162 163
f 168 163 169
f 167 161 162
f 167 162 168
f 161 167 194
f 161 194 188
f 217 211 188
f 217 188 194
f 211 217 218
f 211 218 212
f 212 218 219
f 212 219 213
f 213 219 195
f 213 195 190
f 173 176 150
f 173 150 146
f 170 173 146
f 170 146 142
f 146 150 149
f 146 149 145
f 142 146 145
f 142 145 141
f 144 140 141
f 144 141 145
f 148 144 145
f 148 145 149
f 144 148 147
f 144 147 143
f 140 144 143
f 140 143 139
f 172 166 139
f 172 139 143
f 175 172 143
f 175 143 147
f 172 175 171
f 166 172 171
f 166 171 165
f 197 192 165
f 197 165 171
f 199 197 171
f 199 171 175
f 197 199 224
f 197 224 221
f 192 197 221
f 192 221 215
f 246 241 215
f 246 215 221
f 224 246 221
f 246 224 250
f 247 242 241
f 247 241 246
f 251 247 246
f 251 246 250
f 247 251 252
f 247 252 267
f 242 247 267
f 242 267 265
f 248 244 265
f 248 265 267
f 253 248 267
f 253 267 252
f 249 245 244
f 249 244 248
f 225 249 248
f 225 248 253
f 249 225 222
f 245 249 222
f 245 222 220
f 198 196 220
f 198 220 222
f 200 198 222
f 200 222 225
f 198 200 176
f 198 176 173
f 196 198 173
f 196 173 170
f 199 175 174
f 199 223 224
f 250 224 223
f 251 269 252
f 253 252 269
f 254 225 253
f 268 269 251
f 250 268 251
f 269 270 253
f 163 190 164
f 160 187 188
f 160 188 161
f 161 136 160
f 187 210 188
f 211 210 237
f 210 211 188
f 211 238 212
f 239 213 212
f 190 191 164
f 190 213 214
f 190 214 191
f 162 163 138
f 162 138 137
f 137 136 161
f 137 161 162
f 211 237 238
f 164 138 163
f 239 214 213
f 138 164 158
f 138 158 134
f 137 138 134
f 137 134 133
f 136 137 133
f 136 133 132
f 160 136 132
f 160 132 155
f 187 160 155
f 187 155 181
f 210 187 181
f 181 205 210
f 205 232 237
f 205 237 210
f 232 233 238
f 232 238 237
f 233 234 239
f 233 239 238
f 234 208 214
f 234 214 239
f 191 214 185
f 164 191 185
f 164 185 158
f 208 185 214
f 152 128 127
f 202 226 227
f 177 152 151
f 177 201 202
f 226 202 201
f 227 256 228
f 229 228 256
f 230 203 229
f 134 158 153
f 134 153 130
f 133 134 130
f 133 130 129
f 132 133 129
f 132 129 128
f 155 132 128
f 155 128 152
f 181 155 152
f 181 152 178
f 205 181 178
f 205 178 202
f 232 205 202
f 232 202 227
f 233 232 227
f 233 227 228
f 234 233 228
f 234 228 229
f 208 234 229
f 208 229 203
f 185 208 203
f 185 203 179
f 158 185 179
f 158 179 153
f 131 155 132
f 205 231 232
f 177 202 178
f 152 177 178
f 129 130 124
f 128 129 124
f 227 226 255
f 256 227 255
f 229 256 257
f 212 238 239
f 162 190 163
f 190 162 189
f 213 190 212
f 158 134 130
f 158 130 153
f 134 158 164
f 134 164 138
f 134 125 124
f 134 124 130
f 125 134 138
f 125 138 126
f 132 131 127
f 132 127 128
f 125 132 128
f 125 128 124
f 132 125 126
f 132 126 136
f 131 132 136
f 131 136 135
f 155 154 151
f 155 151 152
f 131 155 152
f 131 152 127
f 155 131 135
f 155 135 160
f 154 155 160
f 154 160 159
f 180 204 201
f 180 201 177
f 154 180 177
f 154 177 151
f 180 154 159
f 180 159 186
f 204 180 186
f 204 186 209
f 204 231 226
f 204 226 201
f 231 204 209
f 231 209 236
f 258 259 256
f 258 256 255
f 231 258 255
f 231 255 226
f 258 231 236
f 258 236 261
f 259 258 261
f 259 261 262
f 260 234 229
f 260 229 257
f 259 260 257
f 259 257 256
f 260 259 262
f 260 262 263
f 234 260 263
f 234 263 239
f 235 208 203
f 235 203 230
f 234 235 230
f 234 230 229
f 235 234 239
f 235 239 240
f 208 235 240
f 208 240 214
f 185 158 153
f 185 153 179
f 208 185 179
f 208 179 203
f 158 185 191
f 158 191 164
f 126 138 137
f 136 126 137
f 261 236 237
f 262 261 237
f 263 262 239
f 186 159 160
f 209 186 210
f 209 210 236
f 262 237 238
f 239 262 238
f 239 214 240
f 187 210 186
f 160 187 186
f 162 157 184
f 184 190 162
f 207 212 190
f 190 184 207
f 212 207 206
f 206 211 212
f 211 206 182
f 182 188 211
f 156 161 188
f 188 182 156
f 157 162 161
f 161 156 157
f 183 157 156
f 156 182 183
f 182 207 183
f 184 157 183
f 207 184 183
f 182 206 207
f 162 190 195
f 195 168 162
f 190 213 219
f 219 195 190
f 213 212 218
f 218 219 213
f 212 211 217
f 217 218 212
f 211 188 194
f 194 217 211
f 188 161 167
f 167 194 188
f 161 162 168
f 168 167 161
v -0.47927 -0.23268 -0.24727
v -0.49862 -0.25165 -0.17937
v -0.51485 -0.25502 -0.08116
v -0.51921 -0.25743 0.02101
v -0.50981 -0.25288 0.12094
v -0.49090 -0.25113 0.20818
v -0.48301 -0.17425 -0.25259
v -0.50559 -0.17363 -0.18454
v -0.52694 -0.17333 -0.08257
v -0.53290 -0.17372 0.02328
v -0.51849 -0.17380 0.12393
v -0.49699 -0.17363 0.21739
v -0.48012 -0.10804 -0.24846
v -0.49975 -0.08997 -0.18096
v -0.51669 -0.08537 -0.08092
v -0.52159 -0.08402 0.02097
v -0.51130 -0.08760 0.12137
v -0.49222 -0.09244 0.21116
v -0.49275 0.05853 -0.17746
v -0.50815 0.05567 -0.08090
v -0.51282 0.05493 0.02207
v -0.50469 0.05684 0.11949
v -0.48534 0.05776 0.19856
v -0.48181 0.13414 -0.25121
v -0.50455 0.13067 -0.18309
v -0.52447 0.12999 -0.08220
v -0.53028 0.13024 0.02189
v -0.51669 0.12935 0.12323
v -0.49596 0.13287 0.21646
v -0.48178 0.21250 -0.25067
v -0.50309 0.22268 -0.18258
v -0.52322 0.22286 -0.08190
v -0.52904 0.22386 0.02162
v -0.51539 0.22398 0.12301
v -0.49505 0.21960 0.21515
v -0.49029 0.29091 -0.17759
v -0.50236 0.29399 -0.07894
v -0.50501 0.29457 0.02357
v -0.50184 0.29216 0.11546
v -0.48323 0.29045 0.19768
v -0.39213 -0.24857 -0.36304
v -0.43061 -0.25748 -0.29138
v -0.45785 -0.26467 -0.19922
v -0.47200 -0.29483 -0.11825
v -0.46685 -0.28688 0.14441
v -0.45217 -0.25986 0.24159
v -0.41061 -0.25433 0.32666
v -0.37730 -0.22950 0.38620
v -0.39878 -0.17354 -0.36786
v -0.43995 -0.17341 -0.29769
v -0.46539 -0.17321 -0.20968
v -0.45954 -0.17359 0.24315
v -0.42429 -0.17326 0.32662
v -0.38171 -0.17159 0.38884
v -0.39358 -0.09373 -0.36389
v -0.43215 -0.08262 -0.29196
v -0.45775 -0.07148 -0.20067
v -0.46950 -0.03513 -0.11013
v -0.46600 -0.02150 0.03150
v -0.46522 -0.04414 0.14244
v -0.45247 -0.07851 0.24138
v -0.41224 -0.08711 0.32754
v -0.37842 -0.11250 0.38685
v -0.38532 0.05874 -0.35676
v -0.42726 0.05582 -0.28776
v -0.44756 0.04158 -0.19324
v -0.44493 0.01607 -0.10052
v -0.41009 -0.01415 0.01129
v -0.44694 0.02819 0.13529
v -0.44621 0.05136 0.23998
v -0.40618 0.05643 0.32137
v -0.39762 0.13137 -0.36715
v -0.43768 0.12929 -0.29657
v -0.46355 0.12584 -0.20682
v -0.47483 0.09917 0.16800
v -0.45833 0.12600 0.24322
v -0.42067 0.13077 0.32813
v -0.38090 0.14318 0.38874
v -0.39644 0.22090 -0.36609
v -0.43719 0.22525 -0.29555
v -0.46331 0.22492 -0.20660
v -0.47300 0.25667 0.16267
v -0.45826 0.22750 0.24343
v -0.41871 0.22289 0.32808
v -0.38100 0.20414 0.38826
v -0.38371 0.29021 -0.35550
v -0.42175 0.29396 -0.28450
v -0.44551 0.30123 -0.19287
v -0.44746 0.31157 -0.09833
v -0.41597 0.32355 0.01342
v -0.44616 0.30786 0.13321
v -0.43943 0.29708 0.23593
v -0.40098 0.29282 0.31941
v -0.28532 -0.24268 -0.45431
v -0.32636 -0.25839 -0.40205
v -0.36262 -0.29097 -0.32659
v -0.34892 -0.26751 0.35912
v -0.31568 -0.25314 0.41993
v -0.29126 -0.17295 -0.46045
v -0.33577 -0.17344 -0.40799
v -0.35667 -0.17282 0.36479
v -0.31826 -0.17371 0.43036
v -0.28614 -0.09698 -0.45514
v -0.32765 -0.08175 -0.40287
v -0.36070 -0.04010 -0.32520
v -0.27450 -0.02950 -0.15900
v -0.30436 -0.03093 -0.09571
v -0.31879 -0.03093 0.01200
v -0.30067 -0.03117 0.10933
v -0.34794 -0.06895 0.35797
v -0.31679 -0.08869 0.42146
v -0.27764 0.06500 -0.44871
v -0.32186 0.05449 -0.39965
v -0.33962 0.01869 -0.30528
v -0.32929 -0.01536 -0.19607
v -0.32683 -0.01677 -0.09747
v -0.32786 -0.01741 0.00209
v -0.32491 -0.01685 0.11176
v -0.32608 -0.01439 0.23058
v -0.34258 0.04409 0.35282
v -0.30991 0.05685 0.41536
v -0.29033 0.13355 -0.45887
v -0.33374 0.12897 -0.40677
v -0.35422 0.12672 0.36334
v -0.31864 0.13024 0.42797
v -0.28909 0.21705 -0.45825
v -0.33267 0.22538 -0.40672
v -0.36800 0.26950 -0.33400
v -0.35378 0.22683 0.36357
v -0.31857 0.22296 0.42631
v -0.27617 0.28983 -0.44483
v -0.31850 0.29492 -0.39292
v -0.33883 0.31159 -0.30464
v -0.32563 0.32263 -0.19360
v -0.33677 0.31750 -0.09555
v -0.33350 0.31379 0.01529
v -0.33325 0.31883 0.12317
v -0.32608 0.32429 0.23058
v -0.33837 0.30135 0.34773
v -0.30614 0.29306 0.40980
v -0.21317 -0.25463 -0.47885
v -0.24379 -0.27088 -0.42933
v -0.22964 -0.26087 0.45919
v -0.19572 -0.24492 0.49781
v -0.21422 -0.17329 -0.48935
v -0.26037 -0.17357 -0.43947
v -0.23069 -0.17290 0.46799
v -0.20461 -0.17332 0.50408
v -0.21409 -0.08625 -0.48034
v -0.24260 -0.06347 -0.42908
v -0.18950 -0.03150 -0.25900
v -0.25150 -0.03117 -0.19817
v -0.26650 -0.02950 0.17000
v -0.22400 -0.03150 0.22560
v -0.23024 -0.07684 0.45935
v -0.19753 -0.09532 0.49860
v -0.21234 0.05641 -0.47305
v -0.23041 0.03439 -0.41430
v -0.21360 -0.01610 -0.28870
v -0.24450 -0.01650 -0.19150
v -0.23450 -0.01550 0.17000
v -0.22368 -0.01703 0.22735
v -0.22094 -0.01450 0.33239
v -0.22683 0.05223 0.45484
v -0.18254 0.06069 0.49267
v -0.21413 0.13006 -0.48726
v -0.25770 0.12539 -0.43763
v -0.23173 0.12823 0.46573
v -0.20342 0.13278 0.50247
v -0.21450 0.22404 -0.48562
v -0.25578 0.22809 -0.43646
v -0.23191 0.22707 0.46552
v -0.20133 0.21950 0.50167
v -0.21116 0.29282 -0.46801
v -0.22701 0.30621 -0.41258
v -0.22210 0.32137 -0.29827
v -0.24050 0.30950 -0.20533
v -0.26650 0.30950 0.17000
v -0.23067 0.31283 0.23550
v -0.22094 0.32417 0.33239
v -0.22409 0.29660 0.44808
v -0.17914 0.29077 0.49091
v -0.11415 -0.25660 -0.50734
v -0.13015 -0.27254 0.47462
v -0.11268 -0.25337 0.51332
v -0.11479 -0.17342 -0.52109
v -0.15598 -0.17907 0.48519
v -0.11347 -0.17338 0.52147
v -0.11367 -0.08333 -0.50910
v -0.10736 -0.03093 -0.30086
v -0.16450 -0.02950 0.27000
v -0.10650 -0.03117 0.30150
v -0.13036 -0.06310 0.47456
v -0.11236 -0.08844 0.51528
v -0.11472 0.05469 -0.49942
v -0.11750 -0.01485 -0.38541
v -0.10306 -0.01694 -0.30411
v -0.08950 -0.01550 0.27500
v -0.11117 -0.01650 0.33456
v -0.11813 0.03614 0.45956
v -0.11534 0.05720 0.50938
v -0.11449 0.13004 -0.51861
v -0.15306 0.11712 0.48250
v -0.11251 0.13052 0.51971
v -0.11449 0.22310 -0.51732
v -0.15028 0.23350 0.48151
v -0.11262 0.22342 0.51860
v -0.11207 0.29572 -0.49180
v -0.11750 0.32379 -0.38541
v -0.11870 0.31150 -0.30200
v -0.16450 0.30950 0.27000
v -0.11750 0.31986 0.34157
v -0.11507 0.30491 0.45755
v -0.11513 0.29181 0.50688
v -0.01097 -0.25712 -0.51916
v -0.01384 -0.29538 0.48462
v -0.01013 -0.25270 0.52296
v -0.01120 -0.17304 -0.53287
v -0.01091 -0.17338 0.53323
v -0.01100 -0.08266 -0.52074
v -0.00750 -0.03100 -0.32000
v -0.00836 -0.03079 0.31843
v -0.01472 -0.03706 0.48339
v -0.01129 -0.08833 0.52467
v -0.00901 0.05351 -0.51095
v -0.01811 -0.01467 -0.39733
v -0.00050 -0.01650 -0.31575
v -0.00021 -0.01693 0.33693
v -0.01046 0.02609 0.46420
v -0.00907 0.05866 0.51861
v -0.01173 0.13029 -0.53015
v -0.01100 0.13080 0.53083
v -0.01169 0.22356 -0.52872
v -0.01088 0.22328 0.52923
v -0.00939 0.29585 -0.50408
v -0.01811 0.32400 -0.39733
v -0.01450 0.30950 -0.31600
v -0.00560 0.31670 0.34530
v -0.01136 0.30784 0.46494
v -0.01526 0.29201 0.51503
v 0.09411 -0.25628 -0.51100
v 0.10148 -0.28412 0.47787
v 0.09016 -0.25258 0.51658
v 0.09352 -0.17336 -0.52460
v 0.09220 -0.17349 0.52414
v 0.09479 -0.08372 -0.51275
v 0.09136 -0.03079 -0.30600
v 0.09907 -0.03079 0.30286
v 0.09971 -0.04701 0.47643
v 0.09032 -0.08828 0.51790
v 0.09436 0.05426 -0.50238
v 0.09290 -0.01495 -0.39230
v 0.10228 -0.01683 -0.30411
v 0.08950 -0.01550 0.27500
v 0.10183 -0.01657 0.33213
v 0.09560 0.03658 0.46540
v 0.09027 0.05829 0.51427
v 0.09361 0.12971 -0.52209
v 0.13670 0.10470 0.48540
v 0.09155 0.13047 0.52217
v 0.09409 0.22365 -0.52071
v 0.12832 0.25532 0.48282
v 0.09102 0.22374 0.52117
v 0.09542 0.29567 -0.49473
v 0.09290 0.32365 -0.39230
v 0.09690 0.31150 -0.30920
v 0.10292 0.31817 0.33775
v 0.09150 0.30527 0.46362
v 0.08841 0.29218 0.51123
v 0.19437 -0.25423 -0.48459
v 0.22879 -0.28082 -0.43407
v 0.20809 -0.26169 0.46454
v 0.17985 -0.24911 0.50188
v 0.19678 -0.17306 -0.49564
v 0.24650 -0.22250 -0.44300
v 0.20655 -0.17337 0.47058
v 0.18944 -0.17292 0.50792
v 0.19476 -0.08605 -0.48631
v 0.22683 -0.05147 -0.43342
v 0.18350 -0.03100 -0.26217
v 0.23150 -0.02950 -0.21650
v 0.19507 -0.03079 0.25186
v 0.20830 -0.07585 0.46486
v 0.18143 -0.09166 0.50306
v 0.19201 0.05619 -0.47932
v 0.21269 0.02575 -0.41094
v 0.20188 -0.01631 -0.28781
v 0.21650 -0.01550 -0.19500
v 0.23350 -0.01550 0.17000
v 0.19650 -0.01670 0.24860
v 0.19763 -0.01469 0.33762
v 0.20747 0.04942 0.45755
v 0.16885 0.05961 0.49650
v 0.19627 0.13111 -0.49344
v 0.24567 0.10483 -0.44083
v 0.20700 0.12656 0.47000
v 0.18855 0.13219 0.50669
v 0.19663 0.22285 -0.49185
v 0.24283 0.24883 -0.43922
v 0.20915 0.22808 0.46991
v 0.18614 0.22074 0.50577
v 0.19011 0.29407 -0.47346
v 0.21023 0.30939 -0.41059
v 0.20417 0.31958 -0.29858
v 0.23150 0.30950 -0.21650
v 0.20670 0.31150 0.24900
v 0.19763 0.32412 0.33762
v 0.20285 0.29823 0.45241
v 0.16437 0.29063 0.49565
v 0.27098 -0.24838 -0.46018
v 0.31080 -0.26064 -0.40857
v 0.33091 -0.26924 0.36607
v 0.29706 -0.25551 0.42935
v 0.28135 -0.17348 -0.46380
v 0.31775 -0.17342 -0.41956
v 0.34400 -0.17690 0.37600
v 0.29864 -0.17357 0.44130
v 0.27328 -0.09283 -0.46068
v 0.31161 -0.07964 -0.40965
v 0.32650 -0.02150 -0.33500
v 0.26410 -0.03130 -0.18300
v 0.30407 -0.03079 -0.09571
v 0.31864 -0.03079 0.01200
v 0.29536 -0.03079 0.11800
v 0.25950 -0.03175 0.19100
v 0.33071 -0.06468 0.36611
v 0.29681 -0.08576 0.43188
v 0.26232 0.06076 -0.45513
v 0.30868 0.05272 -0.40355
v 0.29491 -0.01432 -0.28665
v 0.29563 -0.01656 -0.19569
v 0.30840 -0.01710 -0.09920
v 0.31450 -0.01650 0.00000
v 0.31342 -0.01704 0.11500
v 0.29550 -0.01545 0.22143
v 0.31301 0.02996 0.34851
v 0.29826 0.05620 0.42142
v 0.27937 0.13206 -0.46347
v 0.31568 0.12935 -0.41730
v 0.34119 0.11940 0.37424
v 0.29789 0.13059 0.43941
v 0.27764 0.22078 -0.46251
v 0.31565 0.22521 -0.41650
v 0.33944 0.22932 0.37409
v 0.29800 0.22324 0.43788
v 0.25950 0.29137 -0.45262
v 0.30463 0.29659 -0.39686
v 0.29672 0.32372 -0.28933
v 0.30858 0.32042 -0.19467
v 0.31567 0.31283 -0.09683
v 0.31450 0.30950 0.02100
v 0.31372 0.31594 0.13811
v 0.30600 0.32306 0.23187
v 0.31299 0.30727 0.34791
v 0.29304 0.29367 0.41779
v 0.37710 -0.25065 -0.37154
v 0.41862 -0.25932 -0.29993
v 0.44357 -0.27533 -0.21261
v 0.45300 -0.29650 0.17400
v 0.43457 -0.26793 0.24527
v 0.40240 -0.25652 0.33085
v 0.36290 -0.24086 0.39473
v 0.38636 -0.17373 -0.37471
v 0.42814 -0.17317 -0.30457
v 0.45286 -0.18105 -0.23345
v 0.44056 -0.17405 0.25601
v 0.41116 -0.17382 0.33627
v 0.36995 -0.17173 0.39900
v 0.37896 -0.09081 -0.37211
v 0.41936 -0.07977 -0.30086
v 0.44287 -0.06021 -0.21278
v 0.45250 -0.02150 -0.11600
v 0.44650 -0.02950 0.16500
v 0.43422 -0.06962 0.24501
v 0.40435 -0.08380 0.33105
v 0.36380 -0.09723 0.39476
v 0.37471 0.05920 -0.36624
v 0.41328 0.05322 -0.29648
v 0.42434 0.02955 -0.19860
v 0.39894 -0.01488 -0.08519
v 0.40255 -0.01495 0.01075
v 0.40080 -0.00885 0.12175
v 0.42716 0.04298 0.23906
v 0.39675 0.05609 0.32841
v 0.35639 0.06794 0.38933
v 0.38361 0.13165 -0.37497
v 0.42630 0.12841 -0.30421
v 0.45111 0.11644 -0.22956
v 0.43874 0.12602 0.25373
v 0.40992 0.12938 0.33496
v 0.36812 0.13381 0.39812
v 0.38305 0.22121 -0.37361
v 0.42586 0.22609 -0.30345
v 0.45041 0.23441 -0.22704
v 0.43873 0.22592 0.25299
v 0.40876 0.22547 0.33424
v 0.36736 0.21695 0.39705
v 0.37079 0.29153 -0.36594
v 0.40556 0.29634 -0.29453
v 0.42250 0.30787 -0.19681
v 0.40209 0.32326 -0.08700
v 0.40255 0.32365 0.01075
v 0.40436 0.32114 0.12486
v 0.42369 0.30123 0.23679
v 0.39285 0.29395 0.32417
v 0.35050 0.29050 0.38750
v 0.46663 -0.24602 -0.26098
v 0.48985 -0.25473 -0.18314
v 0.51257 -0.25722 -0.08173
v 0.51932 -0.25525 0.02142
v 0.50353 -0.25651 0.12606
v 0.47864 -0.25162 0.22288
v 0.45661 -0.23561 0.28389
v 0.47287 -0.17406 -0.26920
v 0.49999 -0.17310 -0.18487
v 0.52645 -0.17328 -0.08153
v 0.53182 -0.17287 0.02127
v 0.51826 -0.17382 0.12239
v 0.48812 -0.17308 0.22286
v 0.46012 -0.17245 0.29069
v 0.46771 -0.09588 -0.26280
v 0.49166 -0.08641 -0.18354
v 0.51438 -0.08214 -0.08081
v 0.52080 -0.08455 0.02191
v 0.50587 -0.08435 0.12540
v 0.48017 -0.08925 0.22353
v 0.45865 -0.11040 0.28510
v 0.46085 0.06162 -0.25269
v 0.48441 0.05611 -0.18196
v 0.50527 0.05536 -0.08140
v 0.51064 0.05440 0.02274
v 0.49665 0.05556 0.12530
v 0.47440 0.05820 0.21924
v 0.47156 0.13320 -0.26759
v 0.49802 0.13041 -0.18438
v 0.52396 0.13044 -0.08158
v 0.52966 0.12952 0.02076
v 0.51502 0.12973 0.12411
v 0.48585 0.13170 0.22393
v 0.45966 0.13922 0.28941
v 0.47066 0.21917 -0.26631
v 0.49661 0.22343 -0.18457
v 0.52234 0.22390 -0.08169
v 0.52831 0.22337 0.02141
v 0.51352 0.22453 0.12430
v 0.48434 0.22176 0.22371
v 0.45960 0.20637 0.28918
v 0.45805 0.29077 -0.25155
v 0.47903 0.29337 -0.18105
v 0.49911 0.29522 -0.07790
v 0.50280 0.29558 0.02418
v 0.48936 0.29501 0.12376
v 0.47344 0.29178 0.21483
usemtl m007
f 291 297 296
f 291 296 290
f 296 297 290
f 302 303 308
f 297 303 302
f 297 302 296
f 298 291 292
f 291 298 297
f 304 297 298
f 309 308 303
f 309 303 304
f 304 303 297
f 304 309 361
f 293 299 292
f 298 292 299
f 299 298 346
f 299 346 345
f 293 339 340
f 292 339 293
f 299 345 339
f 299 339 292
f 293 340 346
f 293 346 299
f 299 345 298
f 298 339 292
f 292 339 345
f 292 345 299
f 304 298 299
f 304 299 305
f 310 309 304
f 310 304 305
f 305 353 304
f 305 310 361
f 305 352 353
f 310 362 361
f 304 305 361
f 304 361 352
f 305 304 352
f 305 353 362
f 310 305 362
f 309 310 361
f 305 352 361
f 299 293 340
f 299 346 340
f 299 346 353
f 299 353 305
f 305 353 346
f 305 346 299
f 346 340 341
f 346 341 347
f 363 362 353
f 363 353 354
f 347 346 353
f 354 353 362
f 363 354 362
f 347 346 340
f 347 340 341
f 347 346 354
f 354 353 346
f 341 390 394
f 341 394 347
f 354 363 409
f 354 399 409
f 391 390 341
f 391 395 390
f 395 348 347
f 390 395 347
f 390 347 341
f 348 394 347
f 348 394 395
f 395 394 347
f 347 394 390
f 391 390 394
f 391 394 395
f 354 347 348
f 354 348 355
f 354 399 400
f 410 409 400
f 355 400 354
f 409 399 400
f 355 354 399
f 355 400 399
f 348 394 399
f 348 399 355
f 347 394 399
f 347 399 354
f 354 399 394
f 354 394 347
f 395 394 390
f 348 395 400
f 348 400 355
f 395 394 400
f 355 399 394
f 355 394 348
f 391 434 438
f 391 438 395
f 400 442 451
f 410 400 451
f 395 391 434
f 395 434 438
f 400 395 442
f 395 438 442
f 400 442 438
f 400 438 395
f 435 439 434
f 438 434 439
f 435 434 438
f 435 438 439
f 451 442 443
f 452 451 442
f 452 442 443
f 442 438 439
f 442 439 443
f 452 443 451
f 443 442 438
f 443 438 439
f 471 474 439
f 471 439 435
f 439 473 474
f 439 473 438
f 435 470 471
f 439 473 470
f 439 470 435
f 471 470 473
f 471 473 474
f 434 470 435
f 435 470 473
f 435 473 439
f 484 443 477
f 443 477 476
f 443 442 476
f 439 474 476
f 439 476 443
f 477 484 483
f 443 477 483
f 443 483 476
f 477 476 483
f 452 483 451
f 452 443 483
f 474 470 471
f 474 473 470
f 474 477 443
f 443 476 474
f 474 471 500
f 474 500 502
f 471 499 500
f 471 470 499
f 510 484 477
f 510 477 504
f 484 510 509
f 484 509 483
f 510 504 509
f 474 502 504
f 474 504 477
f 539 510 504
f 539 504 533
f 510 539 509
f 533 504 510
f 539 533 510
f 527 530 502
f 527 502 500
f 527 500 499
f 527 499 526
f 533 539 538
f 533 539 509
f 533 509 510
f 539 538 509
f 530 533 504
f 530 504 502
f 530 526 527
f 533 538 532
f 567 527 563
f 527 567 530
f 567 530 566
f 563 526 562
f 567 566 526
f 567 526 563
f 563 562 566
f 563 566 567
f 567 529 566
f 567 530 529
f 527 526 563
f 563 526 566
f 571 530 567
f 579 539 533
f 579 533 571
f 571 570 533
f 567 566 570
f 567 570 571
f 571 579 578
f 571 578 532
f 571 532 570
f 571 570 578
f 571 532 533
f 530 533 571
f 579 578 538
f 539 579 538
f 567 563 562
f 567 566 562
f 571 570 566
f 571 566 567
f 611 566 567
f 607 611 566
f 607 566 562
f 607 562 611
f 571 570 615
f 615 567 611
f 567 615 570
f 625 578 570
f 625 570 615
f 611 566 570
f 611 570 615
f 615 570 578
f 625 615 578
f 615 570 566
f 615 566 611
f 607 606 611
f 615 625 624
f 615 614 624
f 661 654 660
f 654 661 655
f 661 607 655
f 607 661 611
f 655 607 654
f 661 610 611
f 661 610 660
f 655 606 654
f 661 610 606
f 661 606 655
f 607 606 654
f 655 606 610
f 655 610 661
f 615 611 661
f 615 661 667
f 676 625 667
f 625 615 667
f 675 676 667
f 676 675 625
f 667 615 614
f 667 666 614
f 661 660 666
f 661 666 667
f 666 675 624
f 667 666 624
f 667 624 614
f 625 675 624
f 625 676 624
f 675 667 624
f 667 615 611
f 667 611 661
f 660 666 667
f 660 667 661
f 675 666 674
f 653 703 654
f 703 709 710
f 703 710 654
f 660 654 710
f 710 659 709
f 710 660 659
f 710 659 653
f 710 653 654
f 703 653 659
f 703 659 709
f 654 653 659
f 654 659 710
f 666 716 665
f 717 716 666
f 674 665 716
f 723 674 716
f 674 666 665
f 717 716 665
f 717 665 666
f 709 659 665
f 709 665 717
f 660 666 717
f 717 710 709
f 717 660 710
f 709 659 653
f 709 653 703
f 709 665 716
f 716 665 659
f 716 659 709
f 709 703 702
f 709 702 708
f 703 702 652
f 703 653 652
f 722 723 716
f 722 716 715
f 716 723 673
f 716 673 722
f 723 722 673
f 723 673 674
f 708 715 716
f 708 716 709
f 722 715 721
f 701 707 708
f 701 708 702
f 714 708 707
f 721 715 714
f 708 714 715
f 707 701 700
f 707 700 706
f 714 707 706
f 714 706 713
f 720 721 714
f 720 714 713
f 699 705 700
f 706 700 705
f 712 706 705
f 706 712 713
f 719 720 713
f 719 713 712
f 712 719 720
f 713 712 720
f 719 712 670
f 705 699 698
f 705 698 704
f 704 705 658
f 699 649 698
f 705 649 699
f 698 649 658
f 698 658 704
f 718 719 712
f 718 712 711
f 712 711 664
f 704 705 712
f 719 718 670
f 712 670 664
f 711 664 670
f 718 711 670
f 704 648 657
f 648 704 698
f 704 658 657
f 698 649 648
f 704 658 649
f 704 649 698
f 698 648 657
f 698 657 704
f 669 718 711
f 669 711 663
f 704 657 663
f 704 663 711
f 711 663 664
f 718 669 670
f 711 663 657
f 711 657 704
f 711 712 705
f 711 705 704
f 657 648 656
f 656 648 647
f 662 657 656
f 668 669 663
f 668 663 662
f 668 662 669
f 656 657 663
f 656 663 662
f 662 669 663
f 657 663 662
f 656 599 647
f 647 599 609
f 647 609 656
f 647 648 599
f 617 668 662
f 617 662 613
f 668 617 669
f 599 609 656
f 656 609 613
f 662 656 613
f 662 613 609
f 662 609 656
f 598 608 599
f 608 609 599
f 598 599 609
f 598 609 608
f 613 609 608
f 613 608 612
f 617 613 612
f 616 617 612
f 608 598 555
f 608 555 564
f 608 565 564
f 608 609 565
f 598 556 555
f 608 565 556
f 608 556 598
f 555 556 564
f 598 599 556
f 598 556 565
f 598 565 608
f 572 616 612
f 572 612 568
f 612 568 569
f 612 569 613
f 608 564 568
f 608 568 612
f 612 616 573
f 616 572 573
f 612 573 569
f 568 569 573
f 572 568 573
f 616 573 617
f 612 613 609
f 612 609 608
f 612 568 564
f 612 564 608
f 555 521 528
f 555 528 564
f 534 572 568
f 534 568 531
f 521 528 564
f 521 564 555
f 531 564 528
f 564 531 568
f 528 521 495
f 528 495 501
f 531 528 501
f 531 501 503
f 505 534 531
f 505 531 503
f 465 472 495
f 501 495 472
f 503 501 472
f 503 472 475
f 478 505 503
f 478 503 475
f 475 503 505
f 478 475 505
f 427 436 465
f 465 436 472
f 444 478 475
f 444 475 440
f 436 472 475
f 436 475 440
f 440 475 472
f 440 472 436
f 444 440 445
f 392 437 436
f 436 428 427
f 427 428 437
f 427 437 436
f 396 440 441
f 440 445 441
f 392 383 393
f 383 392 382
f 382 392 427
f 427 383 382
f 392 393 437
f 382 428 383
f 392 393 428
f 392 428 382
f 427 428 383
f 392 437 428
f 392 428 427
f 382 428 393
f 382 393 392
f 436 392 396
f 436 396 440
f 401 444 440
f 401 440 396
f 402 401 396
f 402 396 397
f 396 441 397
f 392 393 397
f 392 397 396
f 397 402 445
f 396 397 445
f 396 445 441
f 392 437 441
f 392 441 396
f 401 402 445
f 444 401 445
f 397 441 445
f 396 441 437
f 396 437 392
f 396 397 393
f 396 393 392
f 342 383 334
f 383 342 393
f 383 384 334
f 334 383 393
f 334 393 342
f 356 402 397
f 356 397 349
f 342 393 397
f 342 397 349
f 402 356 403
f 349 397 402
f 356 349 402
f 349 397 393
f 349 393 342
f 342 334 335
f 334 384 335
f 342 343 384
f 342 384 334
f 335 343 342
f 342 393 343
f 334 384 343
f 334 343 342
f 357 349 350
f 357 356 349
f 342 343 350
f 342 350 349
f 349 356 403
f 356 357 403
f 349 403 398
f 349 398 350
f 349 350 397
f 349 403 397
f 349 350 343
f 349 343 342
f 357 350 358
f 336 289 335
f 289 295 294
f 289 294 335
f 343 335 294
f 294 344 343
f 294 344 295
f 294 344 336
f 294 336 335
f 289 336 344
f 289 344 295
f 335 336 344
f 335 344 294
f 350 301 351
f 306 358 301
f 300 301 350
f 358 351 301
f 350 343 294
f 350 294 300
f 358 350 351
f 300 350 351
f 300 301 351
f 295 344 351
f 295 351 301
f 301 300 294
f 301 294 295
f 300 350 343
f 300 343 294
f 295 344 336
f 295 336 289
f 301 351 344
f 301 344 295
f 295 289 290
f 295 290 296
f 289 337 290
f 289 336 337
f 307 306 301
f 307 301 302
f 295 296 301
f 301 306 359
f 306 307 359
f 307 302 359
f 306 359 358
f 295 296 302
f 295 302 301
f 301 302 296
f 308 307 302
f 279 273 274
f 279 274 280
f 286 279 280
f 279 286 285
f 280 274 275
f 280 275 281
f 287 286 280
f 281 287 280
f 281 275 276
f 281 276 282
f 282 281 275
f 282 275 276
f 276 275 316
f 276 316 322
f 276 322 282
f 276 316 315
f 275 315 276
f 281 282 288
f 281 288 287
f 288 331 287
f 288 282 331
f 288 330 331
f 287 288 330
f 282 322 316
f 282 316 276
f 282 331 322
f 288 282 322
f 288 322 331
f 322 316 323
f 323 316 317
f 317 316 322
f 317 322 323
f 332 331 322
f 323 332 331
f 323 331 322
f 324 318 368
f 324 368 372
f 368 367 317
f 368 318 317
f 323 317 324
f 324 371 367
f 324 367 318
f 324 371 323
f 318 367 368
f 372 371 324
f 368 367 371
f 368 371 372
f 323 371 367
f 323 367 317
f 317 367 371
f 317 371 324
f 381 333 324
f 323 324 333
f 323 333 332
f 332 380 381
f 333 381 332
f 333 381 380
f 332 333 380
f 323 332 380
f 323 380 371
f 381 324 371
f 381 371 380
f 332 323 371
f 332 371 380
f 372 371 367
f 372 367 368
f 324 372 381
f 324 381 380
f 324 380 371
f 368 413 372
f 372 413 417
f 372 417 425
f 372 425 381
f 381 372 417
f 381 417 425
f 417 413 414
f 417 414 418
f 418 417 413
f 418 413 414
f 426 417 418
f 417 426 425
f 418 426 425
f 418 425 417
f 418 414 455
f 418 455 458
f 418 457 454
f 418 454 414
f 414 454 455
f 418 457 417
f 458 457 418
f 455 454 457
f 455 457 458
f 413 454 414
f 464 426 418
f 426 464 463
f 426 463 425
f 464 418 457
f 464 457 463
f 458 457 454
f 458 454 455
f 418 458 464
f 418 464 463
f 418 463 457
f 458 455 487
f 458 487 489
f 455 486 487
f 455 454 486
f 464 458 494
f 464 494 493
f 464 493 463
f 458 489 494
f 494 520 493
f 489 487 513
f 489 513 515
f 513 487 486
f 513 486 512
f 520 489 515
f 489 520 494
f 520 519 493
f 515 513 543
f 515 543 547
f 547 546 542
f 547 542 543
f 547 515 546
f 543 542 546
f 543 546 547
f 543 512 542
f 543 513 512
f 554 520 515
f 554 515 547
f 554 553 520
f 547 554 520
f 547 520 515
f 554 547 546
f 554 546 553
f 554 553 519
f 554 519 520
f 547 554 553
f 547 553 546
f 587 546 547
f 587 546 542
f 587 542 583
f 546 587 597
f 547 546 597
f 547 597 553
f 597 546 553
f 638 632 631
f 638 631 637
f 587 583 632
f 587 632 638
f 632 583 631
f 638 586 582
f 638 582 632
f 638 586 587
f 632 582 631
f 638 637 586
f 583 582 632
f 632 582 586
f 632 586 638
f 583 582 631
f 587 638 646
f 587 646 597
f 646 645 597
f 646 645 596
f 638 646 596
f 638 596 587
f 646 638 637
f 646 637 645
f 597 646 596
f 646 587 596
f 597 645 596
f 645 638 637
f 638 645 646
f 690 683 682
f 690 682 689
f 630 682 631
f 682 683 631
f 637 631 683
f 637 683 690
f 690 636 630
f 690 630 683
f 683 630 682
f 689 636 690
f 682 630 636
f 682 636 689
f 690 637 636
f 683 630 631
f 683 630 636
f 683 636 690
f 696 697 690
f 696 690 689
f 645 696 644
f 697 696 645
f 697 645 637
f 697 637 690
f 697 696 644
f 690 697 644
f 690 644 636
f 696 689 636
f 696 636 644
f 697 645 644
f 697 637 644
f 689 636 630
f 689 630 682
f 689 696 644
f 689 644 636
f 682 681 688
f 682 688 689
f 682 681 629
f 682 630 629
f 696 689 695
f 696 643 695
f 696 643 644
f 695 689 688
f 688 681 680
f 688 680 687
f 694 695 688
f 694 688 687
f 687 680 679
f 687 679 686
f 687 686 693
f 693 694 687
f 686 679 678
f 686 678 685
f 685 686 679
f 685 679 678
f 692 686 685
f 686 692 693
f 685 678 677
f 685 677 684
f 677 678 628
f 684 635 685
f 677 628 635
f 677 635 684
f 691 692 685
f 692 691 641
f 684 634 627
f 684 627 677
f 677 627 634
f 677 634 684
f 684 635 628
f 684 628 677
f 677 628 627
f 684 634 635
f 684 691 640
f 684 640 634
f 691 684 634
f 691 634 640
f 691 640 641
f 684 691 641
f 684 641 685
f 634 627 633
f 633 627 626
f 626 627 634
f 626 634 633
f 639 640 634
f 633 639 640
f 633 640 634
f 639 633 634
f 626 581 585
f 626 585 633
f 626 627 581
f 639 633 589
f 639 589 640
f 633 626 581
f 633 581 585
f 633 585 589
f 639 633 585
f 639 585 589
f 585 581 580
f 585 580 584
f 584 585 581
f 584 581 580
f 585 584 588
f 588 589 585
f 584 580 540
f 584 540 544
f 584 545 541
f 584 541 580
f 580 541 540
f 584 585 545
f 580 581 541
f 588 548 549
f 588 549 589
f 584 588 589
f 584 589 585
f 588 584 544
f 588 544 548
f 584 544 548
f 584 548 588
f 540 511 514
f 540 514 544
f 544 540 511
f 544 511 514
f 516 548 544
f 516 544 514
f 514 511 485
f 514 485 488
f 514 488 490
f 490 516 514
f 488 485 453
f 488 453 456
f 456 488 485
f 456 485 453
f 488 456 459
f 488 459 490
f 456 453 411
f 456 411 415
f 419 456 415
f 456 419 459
f 415 411 369
f 369 416 415
f 411 412 416
f 411 416 369
f 373 419 420
f 369 364 365
f 365 370 369
f 411 365 364
f 369 370 416
f 364 412 365
f 369 416 412
f 369 412 364
f 364 365 370
f 364 370 369
f 411 412 365
f 364 412 411
f 415 369 373
f 415 373 419
f 369 373 374
f 369 374 416
f 373 369 370
f 373 370 374
f 373 374 420
f 415 419 420
f 373 369 416
f 373 416 420
f 374 369 370
f 370 365 311
f 370 311 319
f 365 366 311
f 325 370 319
f 374 370 325
f 374 325 375
f 319 320 312
f 319 312 311
f 311 312 320
f 311 320 319
f 311 366 312
f 319 370 365
f 319 365 311
f 311 365 312
f 325 319 320
f 325 320 326
f 325 326 375
f 325 326 374
f 319 325 374
f 319 374 370
f 326 319 320
f 319 326 325
f 277 271 272
f 277 272 278
f 313 272 312
f 272 271 312
f 320 312 271
f 320 271 277
f 277 321 313
f 277 313 271
f 277 321 320
f 271 313 272
f 278 321 277
f 272 313 321
f 272 321 278
f 271 313 312
f 271 313 321
f 271 321 277
f 284 277 278
f 277 284 283
f 326 284 327
f 283 284 326
f 283 320 277
f 320 283 326
f 283 284 327
f 277 283 327
f 277 327 320
f 284 278 321
f 284 321 327
f 283 326 327
f 283 320 327
f 278 321 313
f 278 313 272
f 278 284 327
f 278 327 321
f 278 272 273
f 278 273 279
f 272 314 273
f 272 313 314
f 284 278 285
f 284 285 328
f 284 328 327
f 278 279 285
f 469 468 432
f 432 431 388
f 467 429 430
f 558 601 557
f 523 558 557
f 601 558 602
f 559 560 604
f 560 605 604
f 524 525 560
f 468 469 498
f 525 524 498
f 424 462 469
f 424 469 432
f 378 379 388
f 378 388 387
f 379 424 432
f 379 432 388
f 422 377 386
f 422 386 430
f 377 378 387
f 377 387 386
f 460 421 429
f 460 429 467
f 421 422 430
f 421 430 429
f 517 491 497
f 517 497 523
f 491 460 467
f 491 467 497
f 591 550 557
f 591 557 601
f 550 517 523
f 550 523 557
f 593 592 602
f 593 602 603
f 592 591 601
f 592 601 602
f 595 594 604
f 595 604 605
f 594 593 603
f 594 603 604
f 518 552 560
f 518 560 525
f 552 595 605
f 552 605 560
f 462 492 498
f 462 498 469
f 492 518 525
f 492 525 498
f 477 443 439
f 477 439 474
f 400 354 347
f 400 347 395
f 475 503 501
f 475 501 472
f 713 714 707
f 713 707 706
f 716 717 710
f 716 710 709
f 483 482 450
f 299 347 354
f 299 354 305
f 298 299 305
f 298 305 304
f 296 297 303
f 296 303 302
f 343 295 301
f 343 301 350
f 528 501 503
f 528 503 531
f 573 574 618
f 618 619 670
f 709 708 715
f 709 715 716
f 578 577 538
f 502 530 533
f 502 533 504
f 483 484 510
f 483 510 509
f 451 484 483
f 482 481 450
f 450 481 449
f 408 449 448
f 408 448 407
f 361 309 362
f 308 309 361
f 358 306 307
f 358 307 359
f 402 357 403
f 404 447 446
f 445 444 402
f 478 444 445
f 479 480 507
f 479 507 506
f 506 507 536
f 506 536 535
f 617 572 573
f 574 575 618
f 618 575 619
f 670 719 669
f 671 620 621
f 671 621 672
f 672 621 673
f 673 621 622
f 674 723 722
f 577 576 537
f 538 539 578
f 483 450 451
f 408 361 362
f 404 403 358
f 446 445 403
f 618 670 669
f 483 509 508
f 483 508 482
f 451 450 409
f 451 409 410
f 408 409 450
f 408 450 449
f 408 362 409
f 409 362 363
f 361 408 407
f 361 360 308
f 360 361 407
f 360 407 406
f 360 359 307
f 360 307 308
f 359 360 405
f 405 360 406
f 358 359 405
f 404 358 405
f 358 403 357
f 446 403 404
f 403 445 402
f 479 445 446
f 479 446 480
f 445 479 478
f 479 506 505
f 479 505 478
f 506 535 534
f 506 534 505
f 535 572 534
f 535 573 572
f 573 535 536
f 574 573 536
f 573 618 617
f 618 669 617
f 671 670 619
f 671 619 620
f 670 671 720
f 670 720 719
f 671 672 721
f 671 721 720
f 672 673 722
f 672 722 721
f 673 674 722
f 674 673 623
f 623 673 622
f 623 576 624
f 623 624 674
f 674 624 675
f 577 624 576
f 624 577 578
f 624 578 625
f 538 577 537
f 509 538 537
f 509 537 508
f 471 500 502
f 471 502 474
f 484 451 443
f 434 471 474
f 434 474 439
f 410 363 354
f 410 354 400
f 341 391 395
f 341 395 347
f 357 402 397
f 357 397 349
f 383 335 342
f 444 478 440
f 478 475 440
f 616 617 613
f 616 613 612
f 669 719 712
f 669 712 711
f 699 648 704
f 699 704 705
f 701 700 706
f 701 706 707
f 723 674 666
f 723 666 716
f 653 709 660
f 660 709 710
f 654 653 660
f 562 611 566
f 346 347 299
f 354 353 305
f 290 291 297
f 289 290 296
f 289 296 295
f 335 336 295
f 335 295 343
f 358 350 301
f 427 383 393
f 427 393 436
f 436 393 392
f 402 444 440
f 402 440 397
f 397 440 396
f 521 495 501
f 521 501 528
f 598 555 564
f 598 564 608
f 702 701 707
f 702 707 708
f 703 702 708
f 703 708 709
f 527 562 567
f 578 539 533
f 578 533 571
f 500 527 530
f 500 530 502
f 675 625 667
f 675 667 666
f 607 654 660
f 607 660 661
f 410 409 363
f 310 362 309
f 616 572 617
f 470 469 433
f 556 557 600
f 600 601 649
f 562 561 526
f 463 464 494
f 463 494 493
f 498 492 469
f 469 492 462
f 425 464 463
f 469 462 461
f 469 461 433
f 433 461 424
f 433 424 432
f 432 424 389
f 389 424 423
f 389 423 379
f 389 379 388
f 330 287 331
f 286 287 330
f 327 284 285
f 327 285 328
f 386 377 385
f 385 377 376
f 385 376 422
f 374 326 375
f 385 422 429
f 429 422 421
f 420 419 374
f 459 419 420
f 467 460 466
f 466 460 491
f 466 491 496
f 496 491 517
f 496 517 522
f 522 517 523
f 589 548 549
f 557 550 551
f 557 551 600
f 600 551 601
f 601 551 591
f 641 692 640
f 602 592 650
f 650 592 593
f 650 593 651
f 651 593 652
f 652 593 594
f 652 594 604
f 644 696 695
f 604 594 605
f 605 594 595
f 560 552 561
f 561 552 518
f 561 518 525
f 519 520 553
f 470 433 434
f 389 339 340
f 385 384 336
f 429 428 384
f 600 649 648
f 499 470 463
f 499 463 493
f 470 499 498
f 470 498 469
f 470 425 463
f 470 434 425
f 434 433 380
f 434 380 425
f 425 380 381
f 433 390 380
f 389 390 433
f 389 433 432
f 390 389 380
f 389 340 331
f 389 331 380
f 380 331 332
f 340 339 330
f 340 330 331
f 339 389 388
f 339 338 329
f 339 329 330
f 330 329 286
f 338 339 388
f 338 388 387
f 338 337 328
f 338 328 329
f 329 328 285
f 329 285 286
f 337 338 386
f 386 338 387
f 337 336 327
f 337 327 328
f 336 337 386
f 385 336 386
f 336 384 326
f 336 326 327
f 384 375 326
f 429 384 385
f 384 383 374
f 384 374 375
f 384 428 383
f 383 428 420
f 383 420 374
f 466 428 429
f 466 429 467
f 428 466 459
f 428 459 420
f 466 496 495
f 466 495 459
f 495 490 459
f 496 522 521
f 496 521 495
f 495 521 516
f 495 516 490
f 521 522 516
f 522 548 516
f 522 556 549
f 522 549 548
f 556 522 523
f 557 556 523
f 556 599 589
f 556 589 549
f 556 600 599
f 599 600 590
f 599 590 589
f 600 640 590
f 590 640 589
f 600 648 640
f 648 649 641
f 648 641 640
f 650 649 601
f 650 601 602
f 649 650 642
f 649 642 641
f 641 642 693
f 641 693 692
f 650 693 642
f 650 651 694
f 650 694 693
f 651 652 695
f 651 695 694
f 652 643 695
f 643 644 695
f 652 653 644
f 652 644 643
f 653 652 605
f 605 652 604
f 653 645 644
f 605 560 606
f 605 606 653
f 653 606 596
f 653 596 645
f 561 606 560
f 606 561 562
f 606 562 553
f 606 553 596
f 596 553 597
f 562 526 519
f 562 519 553
f 526 561 525
f 499 526 525
f 499 525 498
f 526 499 493
f 526 493 519
f 455 487 489
f 455 489 458
f 464 425 426
f 413 455 414
f 414 455 458
f 414 458 418
f 368 413 417
f 368 417 372
f 381 332 323
f 381 323 372
f 317 368 372
f 317 372 323
f 274 275 281
f 274 281 280
f 453 411 415
f 453 415 456
f 640 692 691
f 691 685 684
f 678 627 677
f 678 677 684
f 678 684 685
f 680 679 686
f 680 686 687
f 696 645 690
f 631 682 689
f 631 689 690
f 645 637 690
f 631 690 637
f 513 547 515
f 316 323 282
f 332 331 282
f 332 282 323
f 273 274 280
f 273 280 279
f 312 272 278
f 312 278 320
f 284 326 320
f 284 320 278
f 411 365 369
f 374 419 415
f 374 415 369
f 511 485 488
f 511 488 514
f 580 540 544
f 580 544 584
f 692 693 685
f 693 686 685
f 681 680 687
f 681 687 688
f 583 632 638
f 583 638 587
f 513 542 543
f 513 543 547
f 487 513 515
f 487 515 489
f 632 631 637
f 632 637 638
f 588 548 589
v -0.69050 0.36000 0.02100
v -0.73153 0.35736 0.05885
v -0.69064 0.43936 0.02100
v -0.73193 0.44272 0.05894
v -0.62244 0.35296 -0.02254
v -0.63522 0.35450 0.06093
v -0.62266 0.44871 -0.02326
v -0.64087 0.44806 0.06978
v -0.66183 0.45350 0.32233
v -0.57150 0.53950 0.09980
v -0.57150 0.53950 0.32240
v -0.49989 0.35454 -0.15124
v -0.51705 0.34550 -0.02718
v -0.46627 0.33163 0.09913
v -0.45720 0.33463 0.15281
v -0.50012 0.44652 -0.15195
v -0.51705 0.46050 -0.02718
v -0.46800 0.44415 0.09928
v -0.45721 0.44036 0.15251
v -0.56750 0.45350 0.32250
v -0.51350 0.58390 0.09993
v -0.51350 0.58390 0.32233
v -0.45721 0.66450 0.09986
v -0.45721 0.66450 0.32229
v -0.40063 0.35494 -0.16781
v -0.40080 0.34550 -0.02390
v -0.40223 0.33122 0.10559
v -0.41536 0.33918 0.15169
v -0.40074 0.44597 -0.16890
v -0.40080 0.46050 -0.02390
v -0.40183 0.44352 0.10553
v -0.41558 0.43810 0.15151
v -0.35850 0.45350 0.32250
v -0.38950 0.58883 0.10000
v -0.38950 0.58883 0.32250
v -0.41288 0.69232 0.09988
v -0.41288 0.69232 0.32235
v -0.31739 0.35517 -0.09667
v -0.27540 0.35150 -0.03290
v -0.26670 0.35420 0.06070
v -0.31705 0.44560 -0.09680
v -0.27453 0.45089 -0.03371
v -0.26641 0.44695 0.06109
v -0.24700 0.61350 0.10000
v -0.24700 0.61350 0.32250
v -0.27859 0.68616 0.09987
v -0.27859 0.68616 0.32234
v -0.19862 0.35574 0.00924
v -0.14650 0.35674 0.05886
v -0.19824 0.44482 0.00916
v -0.14591 0.44378 0.06002
v -0.14850 0.45350 0.32250
v -0.18372 0.56828 0.09989
v -0.18372 0.56828 0.32233
v -0.05461 0.45350 0.09989
v -0.05461 0.45350 0.32233
v 0.46792 0.32907 0.14081
v 0.46758 0.34200 0.14954
v 0.46793 0.44359 0.14079
v 0.46759 0.43641 0.14941
v 0.51115 0.33024 0.09982
v 0.53192 0.33572 0.15277
v 0.51155 0.44327 0.10029
v 0.53226 0.43988 0.15250
usemtl m026
f 768 758 760
f 768 760 770
f 758 768 770
f 758 770 760
f 775 756 758
f 775 758 777
f 756 743 745
f 756 745 758
f 758 768 777
f 743 756 758
f 743 758 745
f 756 775 777
f 756 777 758
f 758 745 760
f 745 747 760
f 777 768 770
f 743 732 745
f 779 775 777
f 732 745 734
f 767 769 759
f 767 759 757
f 769 767 757
f 769 757 759
f 774 776 757
f 774 757 754
f 776 767 757
f 744 741 754
f 744 754 757
f 741 744 757
f 741 757 754
f 776 774 754
f 776 754 757
f 757 759 744
f 746 744 759
f 776 769 767
f 741 744 731
f 776 774 778
f 744 731 733
f 755 754 750
f 755 750 751
f 737 750 754
f 737 754 741
f 754 741 742
f 742 755 754
f 742 738 751
f 742 751 755
f 750 751 738
f 738 737 750
f 755 751 738
f 755 738 742
f 735 739 752
f 735 752 748
f 729 731 727
f 729 727 725
f 725 724 728
f 725 728 729
f 725 727 726
f 725 726 724
f 730 728 724
f 730 724 726
f 730 740 739
f 748 749 736
f 748 736 735
f 728 730 739
f 728 739 735
f 735 736 728
f 726 727 730
f 730 727 731
f 741 754 753
f 741 753 740
f 731 741 740
f 731 740 730
f 741 731 729
f 741 729 737
f 740 753 752
f 740 752 739
f 737 729 728
f 737 728 736
f 750 737 736
f 750 736 749
f 772 762 771
f 765 773 771
f 765 771 762
f 773 774 772
f 773 772 771
f 762 748 761
f 762 749 748
f 752 764 761
f 752 761 748
f 764 765 762
f 764 762 761
f 774 773 765
f 766 765 753
f 766 753 754
f 774 765 766
f 763 766 754
f 763 754 750
f 772 774 766
f 772 766 763
f 765 764 752
f 752 753 765
f 762 763 750
f 762 750 749
f 762 772 763
f 784 786 787
f 784 787 785
f 780 781 783
f 780 783 782
f 786 782 787
f 783 787 782
f 781 785 787
f 781 787 783
f 785 781 780
f 780 784 785
f 784 780 782
f 784 782 786
v 0.51550 0.04550 0.01100
v 0.51500 -0.29250 -0.01250
v 0.51450 0.04550 -0.03600
v 0.50900 0.04550 0.08100
v 0.51250 0.03277 0.07510
v 0.50950 0.04550 -0.08200
v 0.43324 0.01676 -0.23219
v 0.49350 -0.29250 0.15000
v 0.45338 -0.30407 -0.23953
v 0.49250 0.04350 0.15000
v 0.49937 0.04261 0.12276
v 0.48650 0.04550 -0.17300
v 0.47750 0.04550 0.19400
v 0.47650 0.04350 0.19400
v 0.48325 -0.29250 -0.17225
v 0.39150 -0.29250 0.33450
v 0.45850 0.04550 0.23700
v 0.51130 -0.30600 0.08734
v 0.45750 0.04550 -0.23800
v 0.42150 0.04550 -0.29800
v 0.40863 0.04220 -0.31211
v 0.40750 0.04550 0.31600
v 0.39485 -0.32984 0.20910
v 0.39669 -0.32895 -0.13609
v 0.39250 0.04550 -0.33500
v 0.37394 0.04255 -0.35311
v 0.37550 0.04550 0.35300
v 0.36050 0.04550 -0.37000
v 0.32162 0.04324 -0.40380
v 0.34350 0.04550 0.38400
v 0.38850 -0.29250 -0.33200
v 0.32550 0.04550 -0.40100
v 0.17513 0.02850 -0.22238
v 0.44865 0.00803 0.00273
v 0.26700 -0.29250 0.43850
v 0.26700 0.04550 0.43850
v 0.34953 0.03841 0.38450
v 0.21273 -0.32911 0.36419
v 0.17412 -0.32595 -0.36286
v 0.27813 -0.31050 -0.02400
v 0.23731 0.03009 -0.44413
v -0.03874 0.01094 0.44286
v 0.31640 -0.30369 0.40754
v 0.18350 0.04550 0.48200
v -0.00025 -0.31050 -0.29900
v 0.18350 -0.29250 -0.48250
v 0.22650 0.04550 -0.46350
v 0.13228 0.01044 0.41885
v 0.04088 -0.29250 0.50700
v 0.19997 0.04215 0.47512
v 0.28338 -0.31711 -0.40641
v 0.09350 0.04550 0.50700
v -0.03912 0.03136 -0.51352
v 0.08110 -0.30547 0.49975
v 0.14462 -0.31050 0.27163
v 0.22581 0.02850 0.17481
v -0.02300 0.04550 0.51400
v 0.07019 0.00985 -0.43920
v 0.03525 -0.29250 -0.51400
v -0.00532 -0.31371 -0.50488
v -0.23775 0.02850 -0.14213
v 0.01261 0.04133 0.51654
v -0.13607 -0.31388 0.48459
v -0.09350 0.04550 0.50700
v -0.09350 -0.29250 -0.50750
v -0.18350 -0.29250 0.48200
v -0.07050 0.04550 -0.51200
v -0.23133 -0.32887 -0.36371
v -0.22600 0.04550 0.46100
v -0.18350 -0.29250 -0.48250
v -0.20550 0.04550 -0.47400
v -0.26825 -0.31050 -0.16375
v -0.23386 -0.32783 0.35767
v -0.28385 0.04268 -0.43080
v -0.30750 -0.29250 0.41400
v -0.15356 0.02850 0.24200
v -0.30750 0.04550 0.41400
v -0.41611 0.00901 0.10177
v -0.20069 -0.31050 0.20219
v -0.28750 0.04550 -0.42900
v -0.34026 0.00901 -0.26058
v -0.40933 0.04146 -0.31326
v -0.31525 -0.29250 -0.40725
v -0.49872 0.03168 0.13932
v -0.25720 0.03423 0.44288
v -0.40600 -0.29250 0.31500
v -0.37750 0.04550 0.35200
v -0.40613 -0.32527 0.21240
v -0.30920 -0.29853 -0.41655
v -0.40710 -0.32772 -0.13434
v -0.40750 0.04550 0.31600
v -0.47479 -0.29975 -0.20295
v -0.42150 -0.29250 -0.29800
v -0.39100 0.04550 -0.33400
v -0.43107 0.04254 0.28051
v -0.45850 0.04550 0.23700
v -0.44900 0.03151 -0.25489
v -0.44650 0.04550 -0.25900
v -0.37660 -0.30116 0.35280
v -0.47600 -0.29250 0.19350
v -0.46650 -0.29250 -0.21600
v -0.48650 0.04550 -0.17300
v -0.49350 0.04550 0.15000
v -0.50975 -0.29250 0.06925
v -0.50975 0.04550 0.06925
v -0.51662 -0.29805 0.06548
v -0.50950 -0.29250 -0.08200
v -0.51200 0.04550 -0.05900
usemtl m028
f 863 829 865
f 848 863 865
f 848 865 868
f 848 868 845
f 820 848 845
f 820 845 821
f 843 820 821
f 863 843 829
f 829 872 865
f 865 872 871
f 865 871 884
f 865 884 868
f 868 884 840
f 868 840 845
f 845 840 794
f 794 840 828
f 821 845 794
f 792 824 821
f 843 821 829
f 821 835 829
f 824 835 821
f 851 849 844
f 851 872 849
f 856 872 851
f 864 872 856
f 874 872 864
f 878 882 872
f 878 872 874
f 883 882 878
f 883 871 882
f 890 871 883
f 892 871 890
f 895 871 892
f 895 884 871
f 889 884 895
f 885 869 884
f 885 884 889
f 881 869 885
f 867 861 869
f 867 869 881
f 858 840 861
f 858 861 867
f 854 840 858
f 834 828 840
f 834 840 854
f 834 816 828
f 819 816 834
f 815 813 816
f 815 816 819
f 812 808 813
f 812 813 815
f 807 808 812
f 806 794 808
f 806 808 807
f 799 794 806
f 799 792 794
f 793 792 799
f 790 792 793
f 788 792 790
f 791 792 788
f 791 798 792
f 791 797 798
f 800 801 797
f 800 797 791
f 804 824 801
f 804 801 800
f 809 824 804
f 817 824 814
f 823 824 817
f 823 837 824
f 831 837 823
f 839 849 837
f 839 837 831
f 844 849 839
f 814 824 809
f 872 829 849
f 882 871 872
f 861 884 869
f 861 840 884
f 816 794 828
f 813 794 816
f 808 794 813
f 792 821 794
f 801 792 798
f 801 798 797
f 824 792 801
f 837 849 824
f 849 835 824
f 849 829 835
f 866 860 877
f 859 866 877
f 832 859 877
f 832 877 855
f 876 847 855
f 832 855 826
f 827 832 826
f 827 826 811
f 827 811 810
f 866 842 825
f 866 825 860
f 838 796 811
f 811 805 810
f 825 841 850
f 860 850 886
f 860 886 875
f 875 877 860
f 875 893 877
f 877 893 879
f 877 879 855
f 855 879 876
f 847 826 855
f 838 826 847
f 838 811 826
f 811 796 805
f 825 830 841
f 850 860 825
f 827 810 825
f 827 825 842
f 810 830 825
f 853 850 836
f 862 850 853
f 862 886 850
f 873 886 862
f 887 886 873
f 887 893 886
f 891 893 887
f 894 893 891
f 894 879 893
f 888 879 894
f 880 879 888
f 880 876 879
f 870 876 880
f 857 876 870
f 857 847 876
f 852 847 857
f 846 847 852
f 833 847 846
f 833 838 847
f 818 838 833
f 818 796 838
f 802 796 818
f 802 805 796
f 789 805 802
f 795 805 789
f 803 805 795
f 803 830 805
f 822 830 803
f 836 841 830
f 836 830 822
f 836 850 841
f 886 893 875
f 830 810 805
v 0.26785 0.33070 0.15475
v 0.26815 0.33250 0.20559
v 0.26671 0.39576 0.20416
v 0.26721 0.45268 0.23381
v 0.32544 0.33075 0.15444
v 0.32407 0.33250 0.20570
v 0.32679 0.39662 0.20404
v 0.32585 0.45273 0.23396
usemtl m038
f 897 896 900
f 897 900 901
f 902 903 899
f 902 899 898
f 896 897 901
f 896 901 900
f 902 901 897
f 902 897 898
