# fh16_trailer_wheel_1l.obj - ISO 8855 (x ileri, y sol, z yukari), metre
mtllib fh16.mtl
o fh16_trailer_wheel_1l
v -0.32410 -0.30990 0.00000
v -0.32220 -0.01753 0.00000
v -0.31900 0.13750 -0.10350
v -0.33025 0.10125 0.00000
v -0.31900 0.13750 0.10350
v -0.32000 0.28800 -0.10400
v -0.33700 0.28800 0.00000
v -0.32000 0.28800 0.10400
v -0.31900 0.31767 -0.10367
v -0.32818 0.31705 0.00000
v -0.31900 0.31767 0.10300
v -0.23079 -0.31025 -0.21150
v -0.29747 -0.31024 -0.09682
v -0.30056 -0.31167 0.00000
v -0.27573 -0.31065 0.14143
v -0.19075 -0.30837 0.26138
v -0.25300 -0.15300 -0.18400
v -0.24427 -0.07967 -0.12073
v -0.26975 -0.07944 0.03681
v -0.23200 -0.09030 0.15570
v -0.23774 -0.01888 -0.19209
v -0.25461 -0.03791 -0.09459
v -0.26204 -0.03632 0.03963
v -0.25647 -0.02746 0.14748
v -0.19175 -0.01962 0.26237
v -0.23715 0.08662 -0.20138
v -0.23316 0.12819 -0.10171
v -0.24856 0.12686 0.04442
v -0.23142 0.12478 0.15202
v -0.19633 0.11333 0.26867
v -0.23763 0.27947 -0.18574
v -0.25184 0.24625 -0.11539
v -0.27447 0.24522 0.03626
v -0.24250 0.26219 0.15148
v -0.19800 0.28800 0.27100
v -0.23143 0.31615 -0.22111
v -0.30230 0.31530 -0.09817
v -0.30300 0.31200 0.00000
v -0.28050 0.31564 0.14718
v -0.19316 0.31711 0.26453
v -0.10020 -0.31010 -0.30650
v -0.13806 -0.31153 -0.26324
v -0.12700 -0.31143 0.27807
v -0.09700 -0.15300 -0.29700
v -0.12906 -0.07944 -0.23963
v -0.12506 -0.08425 0.24381
v -0.09927 -0.02050 -0.30342
v -0.13317 -0.03540 -0.23440
v -0.13226 -0.01060 -0.09971
v -0.14598 -0.00150 0.03398
v -0.12304 -0.02784 0.15397
v -0.12928 -0.02948 0.26158
v -0.10140 0.09400 -0.30980
v -0.12426 0.12710 -0.22375
v -0.11718 0.08436 -0.08861
v -0.11901 0.08178 0.03118
v -0.12135 0.09658 0.15335
v -0.12169 0.13372 0.24671
v -0.10500 0.28800 -0.32000
v -0.12657 0.25114 -0.24849
v -0.08114 0.20214 -0.05993
v -0.08166 0.20313 0.01500
v -0.12706 0.25123 0.24936
v -0.10174 0.31678 -0.31087
v -0.13658 0.31200 -0.26617
v -0.11791 0.31474 0.29109
v -0.00100 -0.31079 -0.31353
v -0.00100 -0.31029 0.31188
v -0.00100 -0.15300 -0.31200
v -0.00100 -0.07443 -0.27229
v -0.00100 -0.08425 0.27700
v -0.00100 -0.02164 -0.31646
v -0.00083 -0.03594 -0.24021
v -0.00065 0.00706 -0.13827
v -0.00085 -0.00764 0.16001
v -0.00100 -0.03431 0.28180
v -0.00100 0.08917 -0.32083
v -0.00081 0.11669 -0.23490
v 0.00008 0.08020 -0.11731
v 0.00578 0.06589 0.07911
v -0.00058 0.08358 0.13255
v -0.00099 0.12551 0.26328
v -0.00100 0.29346 -0.30300
v -0.00100 0.23840 -0.27713
v -0.00009 0.20543 -0.06886
v 0.00432 0.20991 0.02706
v -0.00072 0.20180 0.09856
v -0.00100 0.25174 0.28436
v -0.00100 0.31581 -0.32185
v -0.00100 0.31555 0.32000
v 0.09890 -0.31010 -0.30650
v 0.15420 -0.31044 -0.26372
v 0.13808 -0.31065 0.27549
v 0.09600 -0.15300 -0.29700
v 0.12553 -0.07967 -0.24093
v 0.12129 -0.08376 0.24471
v 0.09772 -0.02076 -0.30316
v 0.13682 -0.03230 -0.24126
v 0.13757 -0.01133 -0.09260
v 0.14907 -0.00475 0.03640
v 0.12408 -0.02817 0.15176
v 0.13311 -0.02780 0.26192
v 0.10000 0.09400 -0.30980
v 0.12303 0.12579 -0.22372
v 0.12251 0.08543 -0.08673
v 0.12166 0.08258 0.03311
v 0.12208 0.09705 0.15198
v 0.12021 0.13291 0.24737
v 0.10300 0.28800 -0.32000
v 0.12506 0.25113 -0.24848
v 0.08182 0.20191 -0.06227
v 0.08609 0.20259 0.01461
v 0.12548 0.25208 0.24918
v 0.10013 0.31674 -0.31087
v 0.16769 0.31431 -0.26242
v 0.13786 0.31531 0.28314
v 0.25256 -0.31061 -0.18428
v 0.29624 -0.31029 -0.09682
v 0.30178 -0.31200 0.00000
v 0.27380 -0.31040 0.14126
v 0.25200 -0.15300 -0.18400
v 0.24125 -0.07944 -0.12319
v 0.26807 -0.07967 0.03927
v 0.23050 -0.09030 0.15570
v 0.24502 -0.02106 -0.17880
v 0.25858 -0.03792 -0.09638
v 0.26890 -0.03450 0.03452
v 0.25847 -0.02739 0.14640
v 0.23933 0.08842 -0.19600
v 0.23745 0.13155 -0.10629
v 0.25318 0.12913 0.04271
v 0.23439 0.12589 0.15248
v 0.19600 0.13750 0.27050
v 0.23595 0.27937 -0.18568
v 0.25178 0.24567 -0.11633
v 0.27309 0.24340 0.03663
v 0.24249 0.26245 0.15030
v 0.19700 0.28800 0.27100
v 0.24576 0.31615 -0.20562
v 0.30447 0.31560 -0.09933
v 0.30467 0.31189 0.00000
v 0.28105 0.31554 0.14424
v 0.19583 0.31783 0.27000
v 0.32313 -0.30837 0.00000
v 0.32437 -0.01962 0.00000
v 0.33233 0.11333 0.00000
v 0.33500 0.28800 0.00000
v 0.32690 0.31710 0.00000
usemtl m002
f 51 50 24
f 48 49 74
f 49 48 22
f 73 74 98
f 48 74 73
f 99 126 98
f 98 74 99
f 51 52 76
f 51 76 75
f 75 76 102
f 75 102 101
f 24 50 23
f 23 50 49
f 23 49 22
f 126 99 100
f 126 100 127
f 101 128 127
f 101 127 100
f 52 24 20
f 52 20 46
f 19 20 24
f 19 24 23
f 18 19 23
f 18 23 22
f 45 18 22
f 45 22 48
f 70 45 48
f 70 48 73
f 73 98 95
f 73 95 70
f 98 126 122
f 98 122 95
f 126 127 123
f 126 123 122
f 127 128 124
f 127 124 123
f 96 124 128
f 96 128 102
f 71 96 102
f 71 102 76
f 76 52 46
f 76 46 71
f 46 20 24
f 46 24 52
f 23 24 20
f 23 20 19
f 22 23 19
f 22 19 18
f 48 22 18
f 48 18 45
f 48 21 22
f 73 48 45
f 73 45 70
f 70 95 98
f 70 98 73
f 98 126 125
f 95 122 126
f 95 126 98
f 122 123 127
f 122 127 126
f 123 124 128
f 123 128 127
f 102 128 124
f 102 124 96
f 76 102 96
f 76 96 71
f 71 46 52
f 71 52 76
f 72 47 48
f 72 98 97
f 52 24 25
f 48 47 21
f 126 127 145
f 128 145 127
f 23 2 24
f 22 2 23
f 72 73 98
f 48 73 72
f 52 51 24
f 128 101 102
f 46 52 25
f 46 20 15
f 46 15 43
f 25 24 20
f 25 20 46
f 20 19 14
f 20 14 15
f 24 2 19
f 18 19 2
f 18 2 22
f 13 14 19
f 13 19 18
f 18 17 12
f 18 12 13
f 22 21 17
f 22 17 18
f 45 17 21
f 42 12 17
f 42 17 45
f 45 44 42
f 21 47 44
f 21 44 45
f 69 44 47
f 69 47 72
f 67 42 44
f 67 44 69
f 69 94 92
f 69 92 67
f 72 97 94
f 72 94 69
f 95 94 97
f 95 97 98
f 92 94 95
f 95 121 117
f 95 117 92
f 98 125 121
f 98 121 95
f 122 121 125
f 122 125 126
f 118 117 121
f 118 121 122
f 122 123 119
f 122 119 118
f 126 145 123
f 124 123 145
f 124 145 128
f 120 119 123
f 120 123 124
f 93 120 124
f 93 124 96
f 68 93 96
f 68 96 71
f 71 46 43
f 71 43 68
f 15 14 1
f 13 1 14
f 67 41 42
f 67 92 91
f 16 43 15
f 12 42 41
f 118 119 144
f 144 119 120
f 57 56 29
f 54 55 79
f 55 54 27
f 78 79 104
f 54 79 78
f 105 130 104
f 104 79 105
f 57 58 82
f 57 82 81
f 81 82 108
f 81 108 107
f 29 56 28
f 28 56 55
f 28 55 27
f 130 105 106
f 130 106 131
f 107 132 131
f 58 57 29
f 132 107 108
f 60 31 32
f 110 135 134
f 39 38 10
f 37 10 38
f 89 64 65
f 89 115 114
f 139 114 115
f 143 142 116
f 35 63 66
f 35 66 40
f 40 39 34
f 40 34 35
f 8 34 39
f 8 39 11
f 11 10 7
f 11 7 8
f 6 7 10
f 6 10 9
f 9 36 31
f 9 31 6
f 36 64 59
f 36 59 31
f 83 59 64
f 83 64 89
f 89 114 109
f 89 109 83
f 134 109 114
f 134 114 139
f 135 134 139
f 135 139 140
f 140 148 147
f 140 147 135
f 137 147 148
f 137 148 142
f 138 137 142
f 138 142 143
f 143 116 113
f 143 113 138
f 88 113 116
f 88 116 90
f 90 66 63
f 90 63 88
f 63 58 29
f 63 29 34
f 34 29 28
f 34 28 33
f 33 28 27
f 33 27 32
f 32 27 54
f 32 54 60
f 84 78 104
f 84 104 110
f 60 54 78
f 60 78 84
f 110 104 130
f 110 130 135
f 135 130 131
f 135 131 136
f 136 131 132
f 136 132 137
f 137 132 108
f 137 108 113
f 88 82 58
f 88 58 63
f 113 108 82
f 113 82 88
f 83 84 110
f 60 84 83
f 34 39 66
f 34 66 63
f 33 38 39
f 33 39 34
f 32 37 38
f 32 38 33
f 31 36 37
f 31 37 32
f 60 65 36
f 60 36 31
f 83 89 65
f 83 65 60
f 110 115 89
f 110 89 83
f 134 139 115
f 134 115 110
f 136 141 140
f 136 140 135
f 137 142 141
f 137 141 136
f 113 116 142
f 113 142 137
f 40 66 39
f 36 65 64
f 141 148 140
f 142 148 141
f 11 39 10
f 9 37 36
f 10 37 9
f 106 107 131
f 81 56 57
f 107 80 81
f 106 80 107
f 80 56 81
f 30 35 34
f 30 34 29
f 58 63 35
f 58 35 30
f 5 8 7
f 5 7 4
f 29 34 8
f 29 8 5
f 3 6 31
f 3 31 26
f 4 7 6
f 4 6 3
f 26 31 59
f 26 59 53
f 77 83 109
f 77 109 103
f 53 59 83
f 53 83 77
f 103 109 134
f 103 134 129
f 130 135 147
f 130 147 146
f 129 134 135
f 129 135 130
f 146 147 137
f 146 137 132
f 133 138 113
f 133 113 108
f 132 137 138
f 132 138 133
f 82 88 63
f 82 63 58
f 108 113 88
f 108 88 82
f 29 58 30
f 29 5 4
f 27 3 26
f 4 3 27
f 53 54 26
f 103 129 104
f 146 131 130
f 132 131 146
f 132 133 108
f 29 4 28
f 28 4 27
f 77 54 53
f 103 104 77
f 78 77 104
f 54 77 78
f 52 58 29
f 52 29 24
f 24 29 28
f 24 28 23
f 22 27 26
f 22 26 21
f 23 28 27
f 23 27 22
f 21 26 54
f 21 54 48
f 73 78 104
f 73 104 98
f 48 54 78
f 48 78 73
f 98 104 129
f 98 129 125
f 126 130 131
f 126 131 127
f 125 129 130
f 125 130 126
f 127 131 132
f 127 132 128
f 128 132 108
f 128 108 102
f 76 82 58
f 76 58 52
f 102 108 82
f 102 82 76
f 112 111 85
f 87 86 62
f 86 87 112
f 62 56 81
f 81 87 62
f 87 81 106
f 106 112 87
f 112 106 105
f 105 111 112
f 111 105 79
f 79 85 111
f 85 79 55
f 55 61 85
f 61 55 56
f 56 62 61
f 85 86 112
f 62 86 85
f 61 62 85
f 56 50 75
f 75 81 56
f 81 75 100
f 100 106 81
f 106 100 99
f 99 105 106
f 105 99 74
f 74 79 105
f 79 74 49
f 49 55 79
f 55 49 50
f 50 56 55
v -0.46800 -0.31200 -0.12000
v -0.47200 -0.31450 -0.05425
v -0.47375 -0.31450 0.03175
v -0.46750 -0.31200 0.11900
v -0.46550 -0.23217 -0.27533
v -0.48255 -0.25267 -0.22306
v -0.50459 -0.25751 -0.13639
v -0.51959 -0.25874 -0.04758
v -0.52087 -0.25788 0.04406
v -0.50467 -0.25734 0.13468
v -0.48315 -0.25350 0.22125
v -0.46300 -0.23508 0.27783
v -0.46577 -0.17242 -0.28437
v -0.48987 -0.17240 -0.22571
v -0.51598 -0.17245 -0.13905
v -0.53165 -0.17236 -0.04798
v -0.53287 -0.17240 0.04373
v -0.51549 -0.17240 0.13560
v -0.49112 -0.17240 0.22413
v -0.46574 -0.17297 0.28367
v -0.46550 -0.11217 -0.27533
v -0.48315 -0.09247 -0.22208
v -0.50473 -0.08686 -0.13621
v -0.51960 -0.08596 -0.04721
v -0.52101 -0.08682 0.04402
v -0.50458 -0.08801 0.13529
v -0.48333 -0.09210 0.22155
v -0.46315 -0.10985 0.27785
v -0.47545 0.05016 -0.21796
v -0.49485 0.04717 -0.13572
v -0.50651 0.04581 -0.04739
v -0.50777 0.04596 0.04612
v -0.49531 0.04699 0.13111
v -0.47682 0.05016 0.21442
v -0.46522 0.13453 -0.28325
v -0.48676 0.11572 -0.22472
v -0.51161 0.11603 -0.13773
v -0.52755 0.11505 -0.04768
v -0.52853 0.11501 0.04347
v -0.51093 0.11487 0.13597
v -0.48789 0.11725 0.22357
v -0.46493 0.12732 0.28124
v -0.46605 0.18744 -0.28322
v -0.48858 0.20049 -0.22544
v -0.51406 0.20078 -0.13836
v -0.52974 0.20174 -0.04820
v -0.53086 0.20147 0.04308
v -0.51335 0.20152 0.13575
v -0.48979 0.19923 0.22414
v -0.46521 0.19224 0.28292
v -0.48025 0.26845 -0.21964
v -0.50039 0.27444 -0.13547
v -0.51453 0.27488 -0.04644
v -0.51603 0.27454 0.04559
v -0.50083 0.27353 0.13415
v -0.47985 0.26880 0.21891
v -0.39400 -0.31200 -0.27900
v -0.40612 -0.31800 -0.22250
v -0.41329 -0.32329 -0.13550
v -0.41083 -0.32500 -0.04733
v -0.41069 -0.32537 0.04162
v -0.41438 -0.32292 0.13500
v -0.40400 -0.31844 0.21889
v -0.38100 -0.31200 0.29500
v -0.38324 -0.24352 -0.37733
v -0.41627 -0.25818 -0.31857
v -0.44114 -0.26930 -0.24206
v -0.45664 -0.30000 -0.16982
v -0.45727 -0.30000 0.16745
v -0.44255 -0.26814 0.23841
v -0.41692 -0.25907 0.31603
v -0.38274 -0.24560 0.37633
v -0.38956 -0.17228 -0.38163
v -0.42354 -0.17241 -0.32388
v -0.44600 -0.17242 -0.24910
v -0.44793 -0.17242 0.24517
v -0.42432 -0.17240 0.32238
v -0.39078 -0.17238 0.37987
v -0.38389 -0.10398 -0.37793
v -0.41624 -0.08610 -0.31850
v -0.44115 -0.07455 -0.24197
v -0.45655 -0.04482 -0.16982
v -0.45727 -0.04482 0.16745
v -0.44217 -0.07632 0.23854
v -0.41737 -0.08559 0.31566
v -0.38273 -0.09982 0.37664
v -0.37533 0.05500 -0.36867
v -0.40600 0.04772 -0.31704
v -0.43400 0.04126 -0.24009
v -0.43236 0.02668 -0.15060
v -0.41083 0.01450 -0.04733
v -0.41069 0.01419 0.04162
v -0.43404 0.02713 0.14987
v -0.43534 0.04072 0.23407
v -0.40779 0.04760 0.31325
v -0.37400 0.05050 0.36675
v -0.38685 0.11992 -0.37961
v -0.42154 0.11416 -0.32108
v -0.44509 0.11336 -0.24464
v -0.44583 0.11304 0.24214
v -0.42220 0.11436 0.31925
v -0.38679 0.11678 0.37839
v -0.38833 0.19683 -0.38105
v -0.42302 0.20192 -0.32212
v -0.44517 0.20741 -0.24589
v -0.44653 0.20625 0.24313
v -0.42311 0.20139 0.32116
v -0.38863 0.19939 0.37977
v -0.38106 0.24976 -0.37600
v -0.41196 0.27389 -0.31829
v -0.43954 0.28377 -0.24219
v -0.45655 0.29500 -0.16982
v -0.45727 0.29500 0.16745
v -0.44078 0.28299 0.23735
v -0.41496 0.27428 0.31341
v -0.38018 0.26018 0.37139
v -0.30500 -0.31200 -0.37500
v -0.32033 -0.32042 -0.31808
v -0.32793 -0.32527 -0.23180
v -0.33818 -0.32100 -0.13991
v -0.33333 -0.31500 -0.05417
v -0.34029 -0.31629 0.04329
v -0.33000 -0.31945 0.13709
v -0.32529 -0.32507 0.22850
v -0.32154 -0.32092 0.31231
v -0.28700 -0.31200 0.38700
v -0.28212 -0.23412 -0.46088
v -0.32384 -0.25819 -0.41189
v -0.35363 -0.26893 -0.34870
v -0.35427 -0.27320 0.34502
v -0.32422 -0.25861 0.41033
v -0.28681 -0.23662 0.45663
v -0.28832 -0.17241 -0.46311
v -0.33041 -0.17241 -0.41851
v -0.36396 -0.17238 -0.35854
v -0.36512 -0.17244 0.35706
v -0.33210 -0.17240 0.41633
v -0.29099 -0.17237 0.46073
v -0.28212 -0.11035 -0.46088
v -0.32442 -0.08667 -0.41162
v -0.35358 -0.07625 -0.34840
v -0.35425 -0.07150 0.34502
v -0.32380 -0.08557 0.41059
v -0.28681 -0.10800 0.45663
v -0.32156 0.04784 -0.40228
v -0.33824 0.03343 -0.33505
v -0.32793 0.01433 -0.23180
v -0.32271 0.02005 -0.12048
v -0.33333 0.02450 -0.05417
v -0.32722 0.02200 0.01683
v -0.31843 0.02086 0.11890
v -0.32529 0.01450 0.22850
v -0.33872 0.03217 0.32950
v -0.32006 0.04770 0.40190
v -0.28589 0.12700 -0.46211
v -0.32714 0.11450 -0.41688
v -0.36066 0.10932 -0.35502
v -0.36249 0.11492 0.35392
v -0.32833 0.11409 0.41482
v -0.28960 0.12813 0.45931
v -0.28692 0.19466 -0.46274
v -0.32861 0.20172 -0.41784
v -0.36186 0.21544 -0.35628
v -0.36353 0.20866 0.35553
v -0.33039 0.20149 0.41561
v -0.29059 0.19103 0.46033
v -0.28050 0.24250 -0.45900
v -0.32388 0.27317 -0.40761
v -0.34884 0.28652 -0.34371
v -0.35100 0.28590 0.34093
v -0.32154 0.27428 0.40774
v -0.28450 0.24200 0.45525
v -0.22900 -0.31844 -0.39900
v -0.23686 -0.32507 -0.32000
v -0.24200 -0.31567 -0.24000
v -0.26700 -0.31000 -0.17100
v -0.26700 -0.31000 0.17000
v -0.23729 -0.31486 0.23843
v -0.23362 -0.32538 0.31931
v -0.23120 -0.31910 0.39550
v -0.22717 -0.25355 -0.47994
v -0.24706 -0.27046 -0.43798
v -0.24822 -0.26887 0.43431
v -0.23140 -0.25354 0.47705
v -0.23097 -0.17234 -0.48697
v -0.25350 -0.17242 -0.44340
v -0.25699 -0.17242 0.44098
v -0.22954 -0.17239 0.48587
v -0.22736 -0.09183 -0.48008
v -0.24706 -0.07368 -0.43780
v -0.24801 -0.07543 0.43466
v -0.23104 -0.09224 0.47753
v -0.22129 0.05020 -0.47369
v -0.24393 0.04089 -0.43051
v -0.23686 0.01450 -0.32000
v -0.23243 0.02357 -0.22814
v -0.25400 0.02250 -0.17325
v -0.27600 0.01600 -0.09000
v -0.27600 0.01600 0.08900
v -0.24967 0.02033 0.17300
v -0.23092 0.02325 0.22758
v -0.23362 0.01415 0.31931
v -0.24314 0.03932 0.42625
v -0.22668 0.05045 0.47065
v -0.22977 0.11555 -0.48383
v -0.25022 0.11316 -0.44191
v -0.25340 0.11346 0.43804
v -0.23102 0.11645 0.48188
v -0.23024 0.20054 -0.48588
v -0.25080 0.20698 -0.44241
v -0.25568 0.20775 0.43894
v -0.23055 0.20045 0.48425
v -0.22577 0.26928 -0.47663
v -0.24698 0.28427 -0.43615
v -0.24403 0.28485 0.43367
v -0.23008 0.26907 0.47434
v -0.13000 -0.31200 -0.46450
v -0.14193 -0.32329 -0.41243
v -0.14564 -0.31945 -0.32673
v -0.17700 -0.31000 -0.26300
v -0.16500 -0.31000 0.27000
v -0.14456 -0.31978 0.32722
v -0.14340 -0.32360 0.40460
v -0.13000 -0.31200 0.46400
v -0.14024 -0.25764 -0.50323
v -0.17743 -0.30143 -0.45271
v -0.18575 -0.30100 0.44900
v -0.14524 -0.25844 0.49999
v -0.14334 -0.17236 -0.51438
v -0.14232 -0.17240 0.51406
v -0.14031 -0.08692 -0.50334
v -0.17743 -0.04357 -0.45271
v -0.18575 -0.04400 0.44900
v -0.14498 -0.08644 0.50002
v -0.13878 0.04699 -0.49256
v -0.15376 0.02371 -0.42586
v -0.12535 0.02110 -0.31805
v -0.17875 0.01925 -0.25000
v -0.17575 0.01925 0.25150
v -0.12256 0.02111 0.31689
v -0.15232 0.02079 0.41395
v -0.14405 0.04687 0.48957
v -0.14183 0.11563 -0.51025
v -0.14419 0.11506 0.50830
v -0.14248 0.20110 -0.51256
v -0.14355 0.20134 0.51136
v -0.14013 0.27375 -0.49882
v -0.17743 0.29643 -0.45271
v -0.18575 0.29600 0.44900
v -0.14423 0.27468 0.49527
v -0.04350 -0.31450 -0.47250
v -0.05100 -0.32537 -0.40625
v -0.04633 -0.31500 -0.33467
v -0.06150 -0.31500 0.33150
v -0.05642 -0.32517 0.40883
v -0.06500 -0.31450 0.46950
v -0.05158 -0.25985 -0.51795
v -0.05250 -0.25787 0.51903
v -0.05226 -0.17230 -0.53047
v -0.05904 -0.17242 0.52689
v -0.02244 -0.17241 0.54449
v -0.05178 -0.08560 -0.51777
v -0.05271 -0.08719 0.51893
v -0.04925 0.04577 -0.50637
v -0.05100 0.01425 -0.40625
v -0.05788 0.02238 -0.32175
v -0.06925 0.02238 0.31925
v -0.05642 0.01450 0.40883
v -0.05501 0.04584 0.50567
v -0.05208 0.11576 -0.52599
v -0.05390 0.11259 0.52502
v -0.02106 0.14209 0.54430
v -0.05287 0.20081 -0.52853
v -0.05675 0.20535 0.52594
v -0.02310 0.17969 0.54457
v -0.05057 0.27574 -0.51266
v -0.05308 0.27385 0.51386
v 0.04275 -0.31450 -0.47250
v 0.03725 -0.32517 -0.41208
v 0.04567 -0.31500 -0.33467
v 0.03033 -0.31500 0.33550
v 0.03739 -0.32517 0.41028
v 0.02150 -0.31450 0.47350
v 0.03755 -0.25818 -0.51967
v 0.03847 -0.25898 0.51883
v 0.03835 -0.17240 -0.53175
v 0.04544 -0.17249 0.52626
v 0.01721 -0.17241 0.54454
v 0.03776 -0.08627 -0.51955
v 0.03817 -0.08478 0.51876
v 0.04095 0.04576 -0.50689
v 0.03725 0.01450 -0.41208
v 0.01547 0.02235 -0.32388
v 0.01006 0.02235 0.32388
v 0.03739 0.01450 0.41028
v 0.03670 0.04559 0.50592
v 0.03742 0.11567 -0.52734
v 0.04132 0.11202 0.52497
v 0.01637 0.14207 0.54434
v 0.03701 0.20100 -0.52998
v 0.04276 0.20715 0.52537
v 0.01761 0.17934 0.54463
v 0.04001 0.27560 -0.51418
v 0.03784 0.27581 0.51411
v 0.13000 -0.31200 -0.46450
v 0.12300 -0.32444 -0.40531
v 0.13633 -0.31822 -0.32444
v 0.16400 -0.31000 0.27000
v 0.12910 -0.31880 0.32890
v 0.13692 -0.32308 0.40977
v 0.10033 -0.31367 0.46567
v 0.12983 -0.25812 -0.50479
v 0.17300 -0.30200 -0.45350
v 0.12929 -0.25785 0.50487
v 0.12848 -0.17240 -0.51746
v 0.12815 -0.17240 0.51750
v 0.12961 -0.08671 -0.50474
v 0.17300 -0.04300 -0.45350
v 0.12932 -0.08679 0.50479
v 0.12959 0.04635 -0.49284
v 0.12856 0.01767 -0.41067
v 0.11505 0.02125 -0.31265
v 0.16900 0.01600 -0.23400
v 0.16650 0.02250 0.25200
v 0.11262 0.02100 0.31490
v 0.13692 0.01646 0.40977
v 0.12725 0.04611 0.49218
v 0.12932 0.11469 -0.51258
v 0.12921 0.11528 0.51279
v 0.12861 0.20170 -0.51524
v 0.12842 0.20106 0.51556
v 0.13001 0.27422 -0.49997
v 0.17300 0.29700 -0.45350
v 0.12909 0.27453 0.49952
v 0.21520 -0.31930 -0.40340
v 0.22343 -0.32500 -0.32393
v 0.22517 -0.31400 -0.24483
v 0.25900 -0.31000 -0.18300
v 0.23017 -0.31333 0.23600
v 0.22654 -0.32485 0.31962
v 0.21210 -0.32060 0.39590
v 0.21688 -0.25418 -0.48254
v 0.23569 -0.27113 -0.44000
v 0.23400 -0.27164 0.43648
v 0.21655 -0.25618 0.48054
v 0.21371 -0.17240 -0.49251
v 0.24594 -0.17243 -0.44703
v 0.25161 -0.17243 0.44350
v 0.21610 -0.17240 0.48965
v 0.21700 -0.09078 -0.48246
v 0.23496 -0.07453 -0.43936
v 0.23468 -0.07254 0.43696
v 0.21644 -0.08994 0.48090
v 0.21344 0.05047 -0.47671
v 0.22811 0.03870 -0.43221
v 0.22343 0.01457 -0.32393
v 0.22437 0.02304 -0.22971
v 0.24633 0.02033 -0.17800
v 0.24000 0.01600 0.17450
v 0.22416 0.02296 0.22844
v 0.22654 0.01477 0.31962
v 0.22281 0.03654 0.42594
v 0.21668 0.04980 0.47336
v 0.21589 0.11572 -0.48792
v 0.24251 0.11244 -0.44418
v 0.24587 0.11146 0.44113
v 0.21617 0.11571 0.48580
v 0.21474 0.20036 -0.49058
v 0.24428 0.20661 -0.44532
v 0.24883 0.20590 0.44233
v 0.21598 0.19996 0.48828
v 0.21791 0.27007 -0.47841
v 0.23134 0.28431 -0.43705
v 0.22909 0.28602 0.43496
v 0.21774 0.27068 0.47740
v 0.28650 -0.31200 -0.38800
v 0.30923 -0.32185 -0.31715
v 0.31786 -0.32500 -0.23136
v 0.32056 -0.31822 -0.14456
v 0.32780 -0.31400 -0.06000
v 0.32300 -0.31250 0.04475
v 0.31670 -0.31740 0.14220
v 0.31438 -0.32485 0.23362
v 0.30917 -0.32167 0.31733
v 0.27800 -0.31700 0.37500
v 0.27652 -0.23794 -0.46215
v 0.31434 -0.25883 -0.41522
v 0.34407 -0.28090 -0.35237
v 0.34217 -0.29021 0.34887
v 0.31492 -0.25884 0.41409
v 0.27676 -0.23849 0.46129
v 0.27921 -0.17241 -0.46759
v 0.32061 -0.17240 -0.42177
v 0.32224 -0.17241 0.41870
v 0.28377 -0.17239 0.46423
v 0.27652 -0.10655 -0.46215
v 0.31413 -0.08480 -0.41520
v 0.34366 -0.06448 -0.35193
v 0.34221 -0.05454 0.34887
v 0.31548 -0.08575 0.41358
v 0.27656 -0.10592 0.46140
v 0.30884 0.04735 -0.40893
v 0.32758 0.03139 -0.33679
v 0.31786 0.01457 -0.23136
v 0.31222 0.02178 -0.12178
v 0.31883 0.02383 -0.06500
v 0.31619 0.02225 0.01675
v 0.31063 0.02216 0.12168
v 0.31438 0.01477 0.23362
v 0.32787 0.03148 0.33555
v 0.30579 0.04680 0.40959
v 0.27769 0.12503 -0.46574
v 0.31813 0.11500 -0.41953
v 0.35320 0.09590 -0.35800
v 0.35160 0.08580 0.35580
v 0.31970 0.11379 0.41688
v 0.28050 0.12231 0.46282
v 0.27919 0.19455 -0.46641
v 0.31980 0.20250 -0.42021
v 0.35467 0.22867 -0.35983
v 0.35050 0.23500 0.36200
v 0.32164 0.20325 0.41738
v 0.28200 0.19579 0.46393
v 0.27283 0.24617 -0.46083
v 0.31126 0.27562 -0.41370
v 0.34078 0.28735 -0.34987
v 0.34145 0.28968 0.34768
v 0.31189 0.27477 0.41245
v 0.27700 0.24667 0.45758
v 0.38050 -0.31200 -0.29600
v 0.39740 -0.31930 -0.22520
v 0.39800 -0.32493 -0.13440
v 0.40258 -0.32500 -0.04683
v 0.39688 -0.32512 0.04288
v 0.40307 -0.32386 0.13686
v 0.39609 -0.31982 0.21736
v 0.36900 -0.31700 0.28600
v 0.37418 -0.25073 -0.38144
v 0.40885 -0.25947 -0.32222
v 0.43167 -0.27118 -0.24602
v 0.43134 -0.26992 0.24299
v 0.40815 -0.26014 0.32114
v 0.37513 -0.25039 0.38044
v 0.38030 -0.17266 -0.38923
v 0.41327 -0.17240 -0.33077
v 0.43732 -0.17242 -0.26187
v 0.43910 -0.17242 0.25883
v 0.41297 -0.17241 0.32820
v 0.38095 -0.17239 0.38796
v 0.37476 -0.09547 -0.38178
v 0.40868 -0.08510 -0.32210
v 0.43125 -0.07431 -0.24573
v 0.43168 -0.07407 0.24370
v 0.40778 -0.08497 0.32152
v 0.37512 -0.09375 0.38017
v 0.36589 0.04968 -0.37158
v 0.40350 0.04737 -0.31554
v 0.42298 0.03717 -0.23645
v 0.39800 0.01467 -0.13440
v 0.40258 0.01467 -0.04683
v 0.39688 0.01453 0.04288
v 0.40307 0.01571 0.13686
v 0.41938 0.03572 0.23100
v 0.40455 0.04695 0.31275
v 0.36624 0.05129 0.37343
v 0.37811 0.11795 -0.38612
v 0.41184 0.11470 -0.32756
v 0.43565 0.11406 -0.25662
v 0.43705 0.11276 0.25332
v 0.41069 0.11436 0.32624
v 0.37902 0.11926 0.38503
v 0.37963 0.19701 -0.38808
v 0.41251 0.20249 -0.32923
v 0.43634 0.20892 -0.25892
v 0.43824 0.20958 0.25495
v 0.41178 0.20288 0.32734
v 0.38033 0.19730 0.38683
v 0.37074 0.26426 -0.37798
v 0.40740 0.27511 -0.31866
v 0.42902 0.28477 -0.24037
v 0.42835 0.28608 0.23942
v 0.40701 0.27550 0.31823
v 0.37086 0.26745 0.37590
v 0.45767 -0.31367 -0.13267
v 0.46680 -0.31600 -0.04960
v 0.46533 -0.31700 0.03133
v 0.46333 -0.31367 0.11100
v 0.45533 -0.23718 -0.28736
v 0.47619 -0.25473 -0.22624
v 0.50111 -0.25872 -0.13915
v 0.51739 -0.25979 -0.04790
v 0.51603 -0.26139 0.04653
v 0.50296 -0.25834 0.13459
v 0.47754 -0.25578 0.22114
v 0.45620 -0.24152 0.28308
v 0.45862 -0.17211 -0.29309
v 0.48376 -0.17235 -0.22899
v 0.51381 -0.17240 -0.14056
v 0.51577 -0.17240 -0.05706
v 0.51516 -0.17240 0.05507
v 0.51406 -0.17240 0.13888
v 0.48486 -0.17240 0.22681
v 0.45837 -0.17240 0.29277
v 0.45536 -0.10738 -0.28736
v 0.47607 -0.08912 -0.22589
v 0.50103 -0.08604 -0.13902
v 0.51726 -0.08564 -0.04783
v 0.51592 -0.08295 0.04717
v 0.50272 -0.08624 0.13494
v 0.47745 -0.08927 0.22142
v 0.45661 -0.10514 0.28366
v 0.46806 0.05004 -0.22676
v 0.48824 0.04597 -0.13982
v 0.50587 0.04583 -0.04802
v 0.50506 0.04536 0.04219
v 0.48991 0.04618 0.13461
v 0.46922 0.04926 0.22091
v 0.44833 0.05500 0.27233
v 0.45702 0.12083 -0.29004
v 0.48082 0.11533 -0.22694
v 0.50947 0.11579 -0.13969
v 0.52030 0.10837 -0.05080
v 0.51914 0.10880 0.05069
v 0.51057 0.11567 0.13622
v 0.48225 0.11602 0.22352
v 0.45748 0.12005 0.28814
v 0.45774 0.19693 -0.29197
v 0.48274 0.20001 -0.22828
v 0.51170 0.20080 -0.14009
v 0.51902 0.21103 -0.05227
v 0.51749 0.21033 0.05255
v 0.51262 0.20107 0.13734
v 0.48428 0.20007 0.22502
v 0.45819 0.19766 0.29049
v 0.45467 0.24478 -0.28311
v 0.47235 0.27133 -0.22592
v 0.49617 0.27481 -0.13884
v 0.51326 0.27443 -0.04719
v 0.51283 0.27618 0.04481
v 0.49718 0.27470 0.13554
v 0.47273 0.27167 0.22215
v 0.45381 0.24706 0.28231
v 0.53943 -0.23086 -0.01690
v 0.53929 -0.23029 0.02271
v 0.54225 -0.17250 -0.04077
v 0.54235 -0.17239 0.03865
v 0.53943 -0.11386 -0.01690
v 0.53929 -0.11457 0.02271
v 0.54152 0.13339 -0.03548
v 0.54175 0.13507 0.03548
v 0.54207 0.18769 -0.03859
v 0.54223 0.18649 0.03805
usemtl m007
f 194 195 202
f 194 202 201
f 194 186 187
f 194 187 195
f 180 187 186
f 180 186 179
f 195 196 203
f 195 203 202
f 195 187 188
f 195 188 196
f 181 188 187
f 187 180 181
f 196 197 204
f 196 204 203
f 204 262 261
f 203 204 261
f 196 188 189
f 196 189 197
f 182 189 188
f 182 241 181
f 182 241 242
f 188 241 182
f 182 242 189
f 181 241 188
f 204 197 254
f 204 254 262
f 197 204 262
f 197 262 254
f 189 248 197
f 189 248 242
f 182 242 248
f 182 248 189
f 197 188 189
f 198 255 263
f 197 198 263
f 197 263 204
f 204 263 262
f 198 255 254
f 197 198 254
f 263 255 254
f 263 254 262
f 197 189 190
f 197 190 198
f 249 248 243
f 243 248 189
f 243 189 242
f 249 190 189
f 248 249 189
f 190 248 249
f 189 248 190
f 197 254 248
f 190 248 254
f 190 254 198
f 243 242 248
f 189 248 254
f 189 254 197
f 255 263 262
f 255 262 254
f 198 190 249
f 198 249 255
f 198 254 248
f 198 248 190
f 249 248 242
f 249 242 243
f 255 256 264
f 255 264 263
f 264 256 263
f 263 256 255
f 243 301 306
f 243 306 249
f 256 319 264
f 256 313 319
f 256 313 312
f 264 319 318
f 256 264 318
f 256 318 312
f 256 312 255
f 264 256 312
f 264 312 318
f 263 264 318
f 256 318 255
f 302 307 250
f 255 249 250
f 255 250 256
f 244 250 249
f 244 249 243
f 250 244 302
f 250 306 307
f 256 312 306
f 256 306 250
f 250 307 313
f 250 313 256
f 250 306 301
f 250 301 302
f 250 249 306
f 250 306 255
f 244 301 302
f 243 301 244
f 249 306 301
f 249 301 243
f 302 301 306
f 302 306 250
f 256 250 307
f 256 307 313
f 313 314 320
f 313 320 319
f 313 314 359
f 320 314 359
f 320 359 363
f 319 320 363
f 313 307 308
f 313 308 314
f 307 302 351
f 307 355 308
f 351 355 307
f 319 364 363
f 314 360 364
f 314 364 320
f 320 364 319
f 364 360 359
f 364 359 363
f 360 364 363
f 360 363 359
f 314 360 359
f 314 320 363
f 314 363 359
f 314 356 360
f 352 356 307
f 352 307 351
f 356 351 352
f 356 308 307
f 360 359 355
f 360 355 356
f 356 355 359
f 356 359 360
f 356 355 351
f 352 351 355
f 352 355 356
f 308 355 356
f 314 313 307
f 314 307 308
f 308 355 359
f 308 359 314
f 364 398 397
f 364 360 394
f 364 394 398
f 364 397 363
f 352 389 390
f 352 351 389
f 352 390 392
f 352 392 356
f 360 394 398
f 360 398 364
f 360 356 392
f 360 392 394
f 390 392 356
f 356 392 394
f 356 394 360
f 390 417 392
f 394 422 425
f 394 425 398
f 417 419 392
f 392 419 422
f 392 422 394
f 422 419 420
f 422 420 423
f 419 417 444
f 449 423 450
f 423 449 422
f 422 449 452
f 422 452 425
f 450 423 422
f 450 422 449
f 420 446 447
f 446 420 419
f 423 420 447
f 423 447 450
f 444 446 419
f 450 449 446
f 450 446 447
f 447 446 449
f 447 449 450
f 447 446 419
f 447 419 420
f 423 422 419
f 423 419 420
f 449 479 482
f 449 482 452
f 446 444 475
f 479 482 452
f 479 452 449
f 449 446 477
f 449 477 479
f 477 446 475
f 479 519 523
f 479 523 482
f 477 475 511
f 523 522 482
f 519 523 482
f 519 482 479
f 479 477 515
f 479 515 519
f 515 510 511
f 511 510 514
f 511 514 515
f 511 475 510
f 515 477 475
f 515 475 511
f 519 571 523
f 519 571 518
f 523 571 518
f 523 518 522
f 519 523 522
f 519 522 518
f 523 519 518
f 515 514 565
f 515 514 518
f 515 518 519
f 515 514 510
f 571 570 576
f 571 576 577
f 523 577 576
f 523 576 522
f 571 518 570
f 577 571 570
f 577 570 576
f 577 523 522
f 571 577 522
f 571 522 518
f 519 515 565
f 519 565 571
f 564 565 559
f 559 565 515
f 565 564 514
f 571 518 514
f 571 514 565
f 565 564 570
f 565 570 571
f 564 514 559
f 519 518 514
f 519 514 515
f 565 514 518
f 565 518 571
f 515 510 559
f 559 510 514
f 571 565 564
f 571 564 570
f 570 625 576
f 625 631 576
f 625 624 570
f 631 625 624
f 631 624 575
f 625 570 569
f 625 569 624
f 631 575 576
f 631 625 570
f 631 570 576
f 570 564 619
f 570 619 625
f 564 559 613
f 564 613 619
f 619 564 618
f 625 570 564
f 625 564 619
f 619 563 618
f 619 563 564
f 619 564 558
f 619 558 613
f 613 558 563
f 613 563 619
f 559 558 613
f 613 558 564
f 625 624 630
f 625 630 631
f 631 630 575
f 625 619 618
f 625 618 624
f 618 619 612
f 612 619 613
f 619 618 624
f 619 624 625
f 613 558 612
f 619 563 558
f 682 681 689
f 682 689 690
f 624 682 690
f 624 690 630
f 690 689 629
f 682 681 623
f 682 624 623
f 689 681 623
f 689 623 629
f 682 690 629
f 682 629 623
f 690 682 623
f 690 623 629
f 630 690 629
f 673 674 665
f 665 674 666
f 666 611 665
f 624 618 674
f 624 674 682
f 618 612 666
f 618 666 674
f 666 612 674
f 674 617 673
f 674 617 618
f 682 624 618
f 682 618 674
f 674 617 623
f 674 623 682
f 674 617 611
f 674 611 666
f 665 611 617
f 665 617 673
f 618 611 612
f 612 611 617
f 612 617 674
f 681 689 629
f 681 629 623
f 682 674 673
f 682 673 681
f 673 617 611
f 673 611 665
f 682 623 617
f 682 617 674
f 681 680 688
f 681 688 689
f 672 673 664
f 664 673 665
f 673 672 680
f 673 680 681
f 681 673 672
f 681 672 680
f 680 679 687
f 680 687 688
f 671 672 663
f 663 672 664
f 680 700 679
f 679 671 700
f 680 672 671
f 680 671 679
f 700 671 698
f 698 671 679
f 698 679 700
f 679 678 686
f 679 686 687
f 699 678 679
f 700 699 679
f 670 671 662
f 662 671 663
f 697 671 670
f 698 671 697
f 699 678 670
f 699 670 697
f 697 670 678
f 697 678 699
f 699 678 677
f 678 677 685
f 678 685 686
f 669 670 697
f 678 670 669
f 678 669 677
f 661 669 670
f 661 670 662
f 677 676 684
f 677 684 685
f 677 669 668
f 677 668 676
f 660 668 669
f 660 669 661
f 684 676 628
f 668 606 660
f 660 606 616
f 660 616 668
f 676 677 669
f 676 669 668
f 676 675 683
f 676 683 684
f 628 684 627
f 627 684 683
f 676 675 622
f 683 675 622
f 683 622 628
f 676 628 622
f 627 683 628
f 684 676 622
f 684 622 628
f 676 668 667
f 676 667 675
f 615 668 605
f 605 668 660
f 660 606 605
f 668 605 667
f 668 616 667
f 667 616 622
f 667 622 675
f 668 616 606
f 605 606 616
f 605 616 667
f 627 675 621
f 675 627 683
f 675 621 622
f 675 683 628
f 675 628 622
f 675 667 615
f 675 615 621
f 667 616 615
f 675 622 616
f 675 616 667
f 667 615 621
f 667 621 675
f 615 616 606
f 615 606 605
f 605 551 615
f 620 626 627
f 620 567 568
f 620 621 567
f 620 568 621
f 626 620 567
f 626 567 573
f 626 573 574
f 620 626 574
f 620 574 568
f 626 620 568
f 626 568 574
f 627 626 574
f 620 627 621
f 614 550 561
f 604 550 614
f 621 615 614
f 621 614 620
f 604 614 615
f 604 615 605
f 614 562 561
f 614 561 615
f 614 615 562
f 620 621 615
f 620 615 614
f 614 561 567
f 614 567 620
f 604 551 550
f 614 562 551
f 614 551 604
f 550 551 561
f 605 551 604
f 604 551 562
f 604 562 614
f 620 567 573
f 620 573 626
f 620 561 567
f 620 561 614
f 567 566 573
f 573 567 521
f 550 503 513
f 550 513 561
f 573 572 521
f 520 521 572
f 566 516 520
f 566 520 572
f 516 566 517
f 520 516 517
f 520 517 521
f 516 520 521
f 516 521 517
f 566 567 517
f 566 572 521
f 566 521 517
f 566 560 512
f 566 512 516
f 512 560 561
f 512 561 513
f 513 561 503
f 503 561 550
f 513 503 512
f 560 512 503
f 560 503 502
f 560 502 512
f 566 561 560
f 512 513 560
f 566 517 513
f 566 513 560
f 512 513 517
f 512 517 516
f 512 503 502
f 502 503 513
f 502 513 512
f 560 513 561
f 566 567 561
f 560 513 517
f 560 517 566
f 520 481 521
f 502 503 469
f 516 517 513
f 516 513 512
f 516 480 520
f 520 481 480
f 480 516 478
f 516 512 476
f 516 476 478
f 512 502 468
f 512 468 476
f 502 468 469
f 478 448 451
f 478 451 480
f 478 476 445
f 478 445 448
f 476 468 439
f 476 439 445
f 448 421 424
f 448 424 451
f 448 445 418
f 448 418 421
f 418 445 412
f 412 445 439
f 421 393 395
f 421 395 424
f 421 418 391
f 421 391 393
f 391 418 383
f 383 418 412
f 393 421 418
f 393 418 391
f 393 357 361
f 393 361 395
f 361 362 395
f 395 361 396
f 361 362 396
f 393 391 353
f 393 353 357
f 353 391 341
f 341 391 383
f 357 393 391
f 357 391 353
f 353 391 342
f 353 342 341
f 341 342 354
f 341 354 353
f 383 384 341
f 341 342 391
f 341 384 342
f 361 357 358
f 361 358 362
f 357 361 362
f 357 362 358
f 353 354 358
f 353 358 357
f 353 354 342
f 316 362 315
f 357 309 315
f 357 315 361
f 361 315 362
f 309 310 316
f 309 316 315
f 310 309 358
f 310 316 362
f 310 362 358
f 357 309 358
f 316 310 358
f 316 358 362
f 309 303 304
f 309 304 310
f 357 353 303
f 357 303 309
f 303 354 304
f 354 303 353
f 354 342 293
f 354 293 304
f 309 358 354
f 309 354 303
f 304 354 342
f 304 342 293
f 357 358 354
f 357 354 353
f 303 354 358
f 303 358 309
f 310 251 257
f 310 257 316
f 258 316 257
f 310 251 311
f 316 258 317
f 257 251 311
f 257 311 317
f 258 257 317
f 310 304 245
f 310 245 251
f 304 293 245
f 235 245 293
f 304 245 235
f 235 293 236
f 304 305 245
f 293 294 236
f 304 305 294
f 304 294 293
f 235 294 305
f 235 305 245
f 236 294 235
f 251 252 258
f 251 258 257
f 251 252 311
f 251 257 317
f 251 317 311
f 251 245 246
f 251 246 252
f 246 245 236
f 246 305 294
f 246 294 236
f 245 305 246
f 251 310 304
f 251 304 245
f 245 246 252
f 245 252 251
f 245 305 294
f 245 294 236
f 236 294 305
f 236 305 246
f 236 237 246
f 199 191 192
f 252 191 199
f 252 199 258
f 258 199 259
f 191 252 192
f 191 252 253
f 191 192 253
f 199 192 253
f 199 253 259
f 192 252 253
f 252 258 259
f 252 259 253
f 258 252 253
f 258 253 259
f 252 246 183
f 252 183 191
f 237 247 246
f 184 183 246
f 247 184 246
f 247 237 177
f 247 177 184
f 177 237 184
f 183 247 246
f 183 247 184
f 183 247 253
f 183 253 191
f 237 247 184
f 192 199 259
f 192 259 253
f 191 183 184
f 191 184 192
f 192 253 247
f 192 247 184
f 191 253 247
f 191 247 183
f 184 247 253
f 184 253 192
f 192 193 200
f 192 200 199
f 199 200 260
f 199 260 259
f 185 184 178
f 178 184 177
f 184 185 193
f 184 193 192
f 177 238 178
f 184 185 238
f 184 238 177
f 177 237 238
f 192 184 185
f 192 185 193
f 193 194 201
f 193 201 200
f 186 185 179
f 179 185 178
f 185 186 194
f 185 194 193
f 193 185 186
f 193 186 194
f 348 387 349
f 388 387 415
f 298 347 299
f 349 299 348
f 348 299 347
f 345 346 296
f 345 296 344
f 298 296 346
f 414 386 385
f 344 386 345
f 385 441 414
f 506 471 505
f 470 505 471
f 555 554 553
f 505 553 506
f 506 553 554
f 507 555 556
f 507 556 508
f 473 472 508
f 507 508 472
f 415 442 388
f 388 349 387
f 386 344 385
f 164 173 172
f 165 173 164
f 157 164 156
f 165 164 157
f 165 166 174
f 165 174 173
f 158 166 165
f 158 165 157
f 166 167 175
f 166 175 174
f 175 232 231
f 174 175 231
f 159 167 166
f 166 158 159
f 159 217 158
f 159 217 218
f 167 175 232
f 175 167 224
f 175 224 232
f 167 218 159
f 159 218 224
f 159 224 167
f 167 168 176
f 167 176 175
f 233 176 168
f 175 176 233
f 175 233 232
f 176 233 232
f 175 176 232
f 168 167 224
f 167 232 224
f 233 168 224
f 233 224 232
f 160 168 167
f 160 167 159
f 168 160 219
f 219 218 159
f 219 160 159
f 160 218 219
f 159 218 160
f 167 224 218
f 219 218 224
f 219 224 168
f 168 225 233
f 225 168 224
f 219 225 168
f 234 233 225
f 225 219 220
f 291 234 226
f 234 291 290
f 226 284 285
f 226 234 290
f 226 290 284
f 291 226 285
f 234 290 233
f 226 225 284
f 226 234 233
f 226 233 225
f 234 226 284
f 234 284 290
f 226 220 279
f 220 278 279
f 226 284 278
f 226 278 220
f 279 285 226
f 220 219 278
f 226 225 219
f 226 219 220
f 220 278 284
f 220 284 226
f 285 292 291
f 292 285 286
f 291 292 339
f 286 285 335
f 292 286 335
f 292 335 339
f 280 285 279
f 285 280 286
f 279 331 280
f 280 331 335
f 280 335 286
f 286 340 292
f 340 286 336
f 291 340 339
f 292 340 291
f 336 340 339
f 336 339 335
f 340 336 335
f 340 335 339
f 292 340 339
f 286 292 339
f 286 339 335
f 336 286 335
f 332 286 280
f 286 332 336
f 332 279 331
f 332 280 279
f 336 335 331
f 336 331 332
f 332 331 335
f 332 335 336
f 280 331 332
f 286 335 331
f 286 331 280
f 340 382 381
f 340 381 339
f 332 375 376
f 332 331 375
f 336 382 340
f 382 336 378
f 376 336 332
f 336 376 378
f 378 411 382
f 411 378 408
f 406 378 376
f 378 406 408
f 408 435 438
f 408 438 411
f 435 409 436
f 409 435 408
f 436 409 408
f 436 408 435
f 433 435 408
f 433 408 406
f 467 438 435
f 435 433 462
f 435 464 467
f 462 464 435
f 501 467 464
f 464 462 493
f 497 501 467
f 497 467 464
f 501 500 467
f 497 464 462
f 497 462 493
f 493 462 492
f 549 501 497
f 501 549 500
f 497 501 500
f 549 497 496
f 549 496 500
f 497 493 539
f 493 492 539
f 497 492 493
f 539 492 496
f 539 496 497
f 543 548 549
f 548 543 542
f 497 543 549
f 501 549 548
f 501 548 500
f 543 496 542
f 549 548 500
f 543 497 496
f 497 549 500
f 497 500 496
f 549 543 542
f 549 542 548
f 538 543 539
f 543 538 542
f 539 543 497
f 538 539 493
f 539 492 538
f 497 496 492
f 497 492 539
f 539 538 542
f 539 542 543
f 493 492 538
f 542 603 548
f 603 542 597
f 603 602 548
f 597 603 548
f 597 548 542
f 603 542 602
f 603 602 547
f 603 548 547
f 591 542 538
f 542 591 597
f 591 538 590
f 597 542 538
f 597 538 591
f 591 590 542
f 591 537 590
f 591 537 538
f 597 596 602
f 597 542 596
f 597 603 602
f 603 597 596
f 603 596 602
f 590 596 597
f 597 590 591
f 591 590 596
f 591 596 597
f 658 659 651
f 596 651 659
f 596 659 602
f 659 658 601
f 651 596 595
f 651 659 601
f 651 601 596
f 658 651 595
f 658 595 601
f 659 601 602
f 659 596 601
f 651 643 642
f 643 589 642
f 643 651 596
f 643 596 590
f 651 596 589
f 651 589 643
f 642 589 595
f 642 595 651
f 643 590 589
f 643 589 596
f 650 651 595
f 650 658 601
f 650 601 595
f 650 595 589
f 650 589 642
f 657 658 650
f 657 650 649
f 650 642 641
f 641 649 650
f 656 657 649
f 656 649 648
f 649 641 640
f 649 640 648
f 694 696 656
f 649 694 648
f 694 656 648
f 696 694 648
f 696 648 656
f 692 694 640
f 694 648 640
f 692 640 648
f 692 648 694
f 694 695 696
f 695 694 693
f 695 655 656
f 696 695 656
f 693 694 648
f 693 648 647
f 695 693 647
f 695 647 655
f 691 694 692
f 694 691 693
f 691 640 639
f 692 640 691
f 691 639 647
f 691 647 693
f 693 655 695
f 693 655 647
f 639 693 691
f 693 647 639
f 647 646 654
f 647 654 655
f 693 647 646
f 638 646 647
f 638 647 639
f 646 645 653
f 646 653 654
f 637 645 646
f 637 646 638
f 645 644 652
f 645 652 653
f 600 653 599
f 599 653 652
f 653 652 600
f 644 645 594
f 645 653 600
f 645 600 594
f 652 644 594
f 652 594 600
f 599 652 600
f 653 645 594
f 653 594 600
f 636 644 645
f 636 645 637
f 637 588 587
f 637 587 636
f 637 588 636
f 645 594 588
f 645 588 637
f 636 588 594
f 636 594 644
f 587 588 636
f 637 588 594
f 637 594 645
f 599 652 644
f 644 594 593
f 644 652 600
f 644 600 594
f 599 644 593
f 644 636 587
f 644 594 588
f 644 588 636
f 587 593 644
f 598 599 593
f 593 587 586
f 593 592 598
f 598 545 546
f 592 593 541
f 592 598 546
f 592 546 593
f 598 592 541
f 598 541 545
f 598 546 599
f 598 593 546
f 586 592 593
f 586 536 535
f 592 593 536
f 592 536 586
f 586 535 541
f 586 541 592
f 586 587 536
f 586 536 593
f 592 545 598
f 545 592 541
f 535 592 586
f 592 535 541
f 544 545 541
f 544 541 540
f 541 535 534
f 541 534 540
f 540 494 498
f 498 544 540
f 545 544 499
f 498 499 544
f 494 540 495
f 540 498 499
f 540 499 495
f 498 494 495
f 498 495 499
f 540 541 495
f 540 544 499
f 540 499 541
f 498 540 495
f 490 494 540
f 540 534 490
f 490 534 535
f 490 535 491
f 534 490 491
f 540 495 491
f 540 491 490
f 490 491 495
f 490 495 494
f 540 541 491
f 540 491 534
f 490 495 540
f 534 491 535
f 498 466 499
f 494 498 499
f 494 499 495
f 490 491 461
f 494 495 491
f 494 491 490
f 494 463 465
f 498 494 463
f 498 463 465
f 498 466 465
f 460 463 494
f 490 460 463
f 490 463 494
f 490 460 461
f 463 434 437
f 437 465 463
f 432 434 463
f 463 460 432
f 410 437 434
f 410 434 407
f 434 432 405
f 434 405 407
f 407 379 410
f 379 407 377
f 373 407 405
f 407 373 377
f 377 333 337
f 377 337 379
f 337 338 379
f 379 337 380
f 337 338 380
f 329 333 377
f 329 377 373
f 329 373 330
f 373 374 329
f 329 374 330
f 333 337 338
f 333 338 334
f 337 333 334
f 337 334 338
f 333 334 330
f 333 330 329
f 329 330 334
f 329 334 333
f 281 282 288
f 333 287 337
f 287 333 281
f 288 338 287
f 337 287 338
f 282 281 334
f 281 288 338
f 281 338 334
f 281 333 334
f 287 281 334
f 287 334 338
f 276 282 281
f 275 333 329
f 333 275 281
f 275 330 276
f 330 275 329
f 281 334 330
f 281 330 276
f 275 330 334
f 275 334 281
f 282 221 227
f 282 227 288
f 228 288 227
f 288 227 289
f 221 282 283
f 227 221 283
f 227 283 289
f 288 228 289
f 228 227 289
f 213 221 282
f 213 282 276
f 213 276 214
f 276 277 213
f 213 277 283
f 213 283 221
f 276 277 214
f 214 277 213
f 221 222 228
f 228 227 221
f 221 227 289
f 221 289 283
f 221 283 222
f 214 222 221
f 221 213 214
f 221 283 277
f 221 277 213
f 161 170 169
f 222 161 169
f 222 169 228
f 170 161 162
f 228 169 170
f 228 170 229
f 161 222 223
f 169 170 229
f 228 169 229
f 222 228 229
f 222 229 223
f 162 161 223
f 170 162 223
f 170 223 229
f 228 222 223
f 228 223 229
f 154 161 153
f 153 161 222
f 153 222 214
f 161 154 162
f 154 153 214
f 215 154 214
f 153 215 154
f 214 215 153
f 222 223 215
f 222 215 214
f 154 215 223
f 154 223 162
f 214 215 223
f 214 223 222
f 162 170 229
f 162 229 223
f 162 223 215
f 162 215 154
f 171 170 162
f 171 162 163
f 170 171 230
f 170 230 229
f 162 154 155
f 162 155 163
f 154 216 155
f 154 215 216
f 163 172 171
f 172 163 164
f 156 163 155
f 163 156 164
f 211 210 272
f 207 267 268
f 321 366 322
f 454 483 484
f 579 580 526
f 433 406 404
f 433 404 431
f 406 376 372
f 406 372 404
f 376 371 372
f 376 332 328
f 376 328 371
f 332 331 328
f 331 279 274
f 331 274 328
f 326 369 370
f 326 370 327
f 279 273 274
f 279 219 273
f 219 212 273
f 219 211 212
f 325 326 272
f 219 218 211
f 271 325 272
f 218 159 211
f 159 158 152
f 159 152 211
f 158 157 151
f 158 151 152
f 157 156 150
f 157 150 151
f 156 155 149
f 156 149 150
f 155 207 149
f 155 154 206
f 155 206 207
f 154 215 206
f 215 214 205
f 215 205 206
f 324 268 267
f 214 266 205
f 323 324 267
f 214 277 266
f 277 276 265
f 277 265 266
f 276 321 265
f 368 323 322
f 276 330 321
f 367 368 322
f 330 329 321
f 329 373 365
f 329 365 321
f 373 405 399
f 373 399 365
f 405 432 426
f 405 426 399
f 432 460 453
f 432 453 426
f 460 490 483
f 460 483 453
f 490 491 483
f 491 535 524
f 491 524 483
f 485 455 484
f 535 536 525
f 535 525 524
f 536 587 578
f 536 578 525
f 486 485 526
f 587 588 579
f 587 579 578
f 527 486 526
f 588 637 579
f 637 638 632
f 637 632 579
f 638 639 633
f 638 633 632
f 639 640 634
f 639 634 633
f 529 528 581
f 529 581 582
f 640 641 635
f 640 635 634
f 641 642 584
f 641 584 635
f 642 590 584
f 590 585 584
f 487 530 531
f 585 590 532
f 538 533 532
f 538 492 489
f 538 489 533
f 456 487 488
f 492 493 489
f 457 456 488
f 493 458 489
f 493 462 459
f 493 459 458
f 462 433 431
f 462 431 459
f 371 328 327
f 207 206 267
f 430 431 404
f 430 404 403
f 403 402 429
f 403 429 430
f 403 404 371
f 404 372 371
f 371 370 403
f 370 402 403
f 327 370 371
f 327 328 273
f 328 274 273
f 273 272 327
f 272 326 327
f 272 273 211
f 273 212 211
f 210 271 272
f 210 211 152
f 209 270 271
f 209 271 210
f 210 151 209
f 210 152 151
f 209 151 150
f 209 150 208
f 208 269 270
f 208 270 209
f 208 150 207
f 150 149 207
f 207 268 208
f 268 269 208
f 267 206 266
f 206 205 266
f 266 322 267
f 322 323 267
f 322 266 321
f 266 265 321
f 366 367 322
f 366 321 365
f 400 367 366
f 400 401 367
f 366 399 400
f 366 365 399
f 400 399 426
f 400 426 427
f 427 428 401
f 427 401 400
f 427 426 454
f 426 453 454
f 454 428 427
f 455 428 454
f 454 453 483
f 484 455 454
f 484 483 525
f 483 524 525
f 525 485 484
f 526 485 525
f 525 579 526
f 525 578 579
f 580 527 526
f 579 632 580
f 580 528 527
f 580 632 633
f 580 633 581
f 581 528 580
f 581 633 634
f 581 634 582
f 582 634 583
f 634 635 583
f 583 530 529
f 583 529 582
f 583 635 584
f 584 530 583
f 531 530 584
f 584 585 531
f 488 531 532
f 487 531 488
f 531 585 532
f 532 533 488
f 488 533 489
f 489 457 488
f 458 457 489
f 458 459 430
f 430 457 458
f 430 429 457
f 430 459 431
f 590 538 532
f 378 382 340
f 378 340 336
f 285 279 332
f 285 332 286
f 286 340 291
f 286 291 285
f 220 219 279
f 291 233 234
f 285 291 234
f 285 234 226
f 225 220 226
f 166 174 173
f 166 173 165
f 164 172 171
f 164 171 163
f 163 171 170
f 163 170 162
f 222 214 154
f 222 154 162
f 162 170 228
f 162 228 222
f 222 228 227
f 222 227 221
f 221 227 288
f 221 288 282
f 333 337 379
f 333 379 377
f 541 535 490
f 541 490 494
f 498 499 545
f 494 498 545
f 494 545 541
f 645 637 587
f 645 587 593
f 593 599 653
f 593 653 645
f 645 653 654
f 645 654 646
f 694 640 639
f 694 639 693
f 693 655 656
f 693 656 694
f 643 590 642
f 651 642 650
f 658 602 659
f 650 658 659
f 650 659 651
f 651 659 602
f 651 602 596
f 543 549 501
f 543 501 497
f 435 438 411
f 435 411 408
f 225 233 175
f 225 175 167
f 167 159 219
f 167 219 225
f 167 175 174
f 167 174 166
f 165 173 172
f 165 172 164
f 288 338 337
f 282 288 337
f 282 337 333
f 329 330 276
f 333 329 276
f 333 276 282
f 377 379 410
f 377 410 407
f 407 410 437
f 407 437 434
f 434 437 465
f 434 465 463
f 494 490 460
f 592 598 599
f 592 599 593
f 646 654 655
f 646 655 647
f 648 656 657
f 648 657 649
f 649 657 658
f 649 658 650
f 464 493 497
f 464 467 438
f 464 438 435
f 394 392 419
f 394 419 422
f 314 308 356
f 252 246 184
f 252 184 192
f 567 561 512
f 567 512 516
f 676 668 615
f 676 615 621
f 700 698 697
f 700 697 699
f 446 449 422
f 446 422 419
f 249 255 197
f 249 197 189
f 242 241 300
f 238 295 296
f 304 310 357
f 304 357 353
f 342 384 343
f 469 503 504
f 606 607 552
f 390 352 351
f 390 351 389
f 349 388 350
f 302 243 301
f 348 349 300
f 299 348 300
f 182 181 242
f 178 177 237
f 178 237 238
f 345 296 295
f 344 345 295
f 386 344 343
f 385 386 343
f 341 383 342
f 468 502 503
f 505 470 504
f 506 505 552
f 553 506 552
f 660 661 606
f 555 554 608
f 555 608 609
f 664 665 611
f 665 612 611
f 508 556 557
f 472 508 509
f 473 472 509
f 511 474 510
f 511 475 474
f 389 351 350
f 238 237 295
f 443 444 417
f 443 417 416
f 416 415 442
f 416 442 443
f 416 417 389
f 417 390 389
f 389 388 416
f 388 415 416
f 350 388 389
f 350 351 301
f 351 302 301
f 301 300 350
f 300 349 350
f 300 301 242
f 301 243 242
f 241 299 300
f 241 242 181
f 240 298 299
f 240 299 241
f 241 180 240
f 241 181 180
f 240 180 179
f 240 179 239
f 239 297 298
f 239 298 240
f 239 179 238
f 179 178 238
f 238 296 239
f 296 297 239
f 295 237 294
f 237 236 294
f 294 343 295
f 343 344 295
f 343 294 342
f 294 293 342
f 384 385 343
f 384 342 383
f 413 385 384
f 413 414 385
f 384 412 413
f 384 383 412
f 413 412 439
f 413 439 440
f 440 441 414
f 440 414 413
f 440 439 469
f 439 468 469
f 469 441 440
f 470 441 469
f 469 468 503
f 504 470 469
f 504 503 551
f 503 550 551
f 551 505 504
f 552 505 551
f 551 606 552
f 551 605 606
f 607 553 552
f 606 661 607
f 607 554 553
f 607 661 662
f 607 662 608
f 608 554 607
f 608 662 663
f 608 663 609
f 609 663 610
f 663 664 610
f 610 556 555
f 610 555 609
f 610 664 611
f 611 556 610
f 557 556 611
f 611 612 557
f 509 557 558
f 508 557 509
f 557 612 558
f 558 559 509
f 509 559 510
f 510 473 509
f 474 473 510
f 474 475 443
f 443 473 474
f 443 442 473
f 443 475 444
f 612 559 558
f 307 351 356
f 314 364 319
f 314 319 313
f 250 243 302
f 319 263 264
f 313 319 264
f 313 264 256
f 249 243 250
f 196 203 202
f 196 202 195
f 194 201 200
f 194 200 193
f 193 200 199
f 193 199 192
f 246 237 184
f 192 199 258
f 192 258 252
f 245 293 236
f 252 258 257
f 252 257 251
f 251 257 316
f 251 316 310
f 357 361 395
f 357 395 393
f 561 503 512
f 520 521 573
f 516 520 573
f 516 573 567
f 668 606 605
f 621 627 684
f 621 684 676
f 676 684 685
f 676 685 677
f 678 686 699
f 698 671 670
f 698 670 697
f 699 686 687
f 699 687 700
f 700 687 679
f 674 612 665
f 689 630 690
f 681 689 690
f 681 690 682
f 618 612 674
f 682 690 630
f 682 630 624
f 515 511 559
f 571 577 523
f 449 452 425
f 449 425 422
f 356 352 390
f 255 263 204
f 255 204 197
f 189 243 249
f 197 204 203
f 197 203 196
f 188 181 182
f 195 202 201
f 195 201 194
f 316 362 361
f 310 316 361
f 310 361 357
f 353 342 293
f 353 293 304
f 393 395 424
f 393 424 421
f 421 424 451
f 421 451 448
f 448 451 480
f 448 480 478
f 478 480 520
f 478 520 516
f 677 685 686
f 677 686 678
f 679 687 688
f 679 688 680
f 680 688 689
f 680 689 681
f 624 630 631
f 477 511 515
f 564 559 612
f 564 612 619
f 631 630 576
f 559 511 510
v 0.51250 -0.04700 -0.03550
v 0.50900 0.29300 -0.08200
v 0.51600 0.29300 0.01100
v 0.50346 -0.04081 0.11024
v 0.50850 -0.04700 0.08100
v 0.51049 -0.04216 -0.06641
v 0.49300 -0.04700 -0.15050
v 0.46350 0.29300 -0.21450
v 0.49900 0.29300 0.12700
v 0.50640 0.29939 -0.10704
v 0.43400 -0.04700 -0.27850
v 0.50173 0.30520 0.07777
v 0.42794 -0.01065 0.08516
v 0.41542 0.32722 0.12346
v 0.43319 -0.03519 0.26571
v 0.45037 -0.04700 0.23988
v 0.45800 0.29300 0.23700
v 0.34964 0.29835 0.37754
v 0.47315 -0.03388 -0.18870
v 0.36000 -0.04700 -0.37000
v 0.36000 0.29300 -0.37000
v 0.40574 -0.00887 0.15272
v 0.38094 0.32888 -0.21765
v 0.28178 -0.01075 -0.31222
v 0.37500 0.29300 0.35300
v 0.40680 0.29836 -0.31600
v 0.43880 0.30949 0.25131
v 0.37775 -0.04267 -0.35184
v 0.18524 0.32416 -0.33710
v 0.37654 0.31626 -0.03955
v 0.30788 -0.02900 0.01025
v 0.30788 0.31000 0.01025
v 0.28997 -0.01511 -0.36291
v 0.30700 -0.04700 0.41400
v 0.30965 -0.03724 0.40783
v 0.18242 0.29944 0.48176
v 0.26145 0.30469 0.43029
v 0.18300 -0.04700 -0.48250
v 0.17175 0.29300 -0.48550
v 0.00925 -0.02900 0.28119
v 0.13550 0.31000 0.27738
v 0.30500 0.29300 0.41125
v 0.30031 0.30386 -0.41056
v 0.12227 -0.01275 0.42603
v 0.15561 -0.04098 0.48964
v 0.20500 -0.04700 0.47250
v 0.18300 0.29300 0.48200
v 0.17064 -0.01462 0.34978
v 0.03475 -0.04700 -0.51400
v 0.23869 -0.03528 -0.45679
v -0.14878 0.32265 -0.35812
v -0.00050 0.29300 -0.51600
v 0.07000 -0.04700 0.51000
v -0.06001 -0.03758 0.51037
v 0.09008 0.29651 0.50713
v 0.15640 0.32937 0.39378
v 0.14390 0.29912 -0.49838
v 0.13448 0.32706 -0.41567
v 0.03858 -0.01044 -0.41853
v -0.11700 0.31000 0.28500
v -0.18455 0.32741 0.40738
v -0.01708 0.29849 0.51220
v 0.07000 0.29300 0.51000
v -0.00789 0.30429 -0.51131
v 0.09150 -0.02900 -0.30125
v 0.09150 0.31000 -0.30125
v -0.02350 -0.04700 0.51400
v -0.09400 -0.04700 -0.50750
v -0.20663 0.29808 0.47568
v -0.07050 0.29300 0.51000
v -0.05966 -0.04012 -0.51542
v -0.32972 -0.01659 -0.21838
v -0.03524 0.30551 0.30727
v -0.22700 -0.04700 -0.46350
v -0.18400 0.29300 -0.48250
v -0.06808 -0.00956 0.41442
v -0.32381 -0.03715 0.40032
v -0.16323 -0.04457 0.48841
v -0.12800 -0.04700 0.49800
v -0.16200 0.29300 0.48900
v -0.19630 -0.01210 -0.39132
v -0.22700 -0.04700 0.46300
v -0.29950 -0.02900 0.09800
v -0.29950 0.31000 0.09800
v -0.28800 0.29300 -0.42900
v -0.16775 -0.02900 -0.25537
v -0.16775 0.31000 -0.25537
v -0.23725 0.30318 -0.45325
v -0.33400 -0.04700 -0.39250
v -0.25600 0.32878 -0.36072
v -0.42126 0.32867 -0.04647
v -0.25270 -0.01247 0.37005
v -0.28750 -0.04700 0.42700
v -0.24750 0.29300 0.45150
v -0.37700 0.29300 -0.35250
v -0.41562 -0.01011 0.13189
v -0.21232 0.32330 0.32665
v -0.45582 0.32352 0.08761
v -0.39716 -0.01369 -0.21277
v -0.36050 -0.04700 0.36800
v -0.30999 -0.04065 -0.41505
v -0.43450 -0.04700 -0.27850
v -0.36688 0.30532 0.35000
v -0.36825 0.29300 0.35900
v -0.44550 0.29300 -0.25750
v -0.46165 -0.03812 0.22010
v -0.48641 0.29835 0.17852
v -0.39374 0.29812 -0.33567
v -0.43500 -0.04700 0.27800
v -0.45150 0.29300 0.24675
v -0.50000 -0.04700 -0.12800
v -0.50000 0.29300 -0.12800
v -0.49400 0.29300 0.15000
v -0.51086 -0.04093 0.06879
v -0.51425 0.29300 0.02275
v -0.49750 -0.04700 0.12650
v -0.48291 -0.03728 -0.18795
v -0.51550 -0.04700 -0.01250
v -0.50406 0.30405 -0.11204
usemtl m028
f 776 740 796
f 796 740 783
f 796 783 772
f 772 783 786
f 772 786 759
f 759 786 765
f 759 765 724
f 724 765 731
f 724 731 722
f 748 740 776
f 792 777 754
f 792 776 796
f 792 806 777
f 792 796 806
f 799 817 796
f 799 796 772
f 781 799 772
f 799 801 817
f 799 781 801
f 781 771 801
f 781 772 759
f 781 759 771
f 759 750 771
f 759 733 750
f 759 724 733
f 713 719 733
f 713 733 724
f 713 724 722
f 713 704 719
f 722 715 713
f 744 745 735
f 776 744 748
f 776 792 754
f 776 754 744
f 748 722 731
f 748 731 740
f 744 722 748
f 722 744 735
f 779 767 754
f 779 754 778
f 782 779 778
f 782 778 777
f 793 782 777
f 800 793 777
f 809 800 777
f 809 777 806
f 816 809 806
f 816 806 814
f 818 816 814
f 818 814 817
f 811 818 817
f 802 811 817
f 802 817 801
f 789 802 801
f 774 789 801
f 774 801 771
f 768 774 771
f 749 768 771
f 749 771 750
f 738 749 750
f 720 738 750
f 720 750 728
f 711 720 728
f 711 728 719
f 707 711 719
f 707 719 706
f 701 707 706
f 705 701 706
f 705 706 704
f 716 705 704
f 716 704 715
f 746 734 735
f 746 735 745
f 753 746 745
f 753 745 754
f 767 753 754
f 734 716 715
f 734 715 735
f 777 778 754
f 814 806 796
f 817 814 796
f 750 733 719
f 728 750 719
f 704 706 719
f 715 704 713
f 754 745 744
f 735 715 722
f 773 760 797
f 797 760 784
f 797 784 791
f 791 784 787
f 791 787 751
f 751 787 766
f 751 766 729
f 729 766 730
f 730 766 732
f 756 741 773
f 773 741 760
f 761 769 762
f 761 803 769
f 798 761 797
f 761 798 803
f 791 798 797
f 791 819 798
f 791 790 819
f 790 791 751
f 790 764 788
f 790 758 764
f 758 790 751
f 758 751 729
f 758 743 764
f 723 743 758
f 723 758 729
f 723 726 743
f 723 729 730
f 723 712 710
f 723 714 712
f 714 723 730
f 714 727 712
f 727 756 737
f 756 736 737
f 756 761 762
f 756 762 736
f 761 756 797
f 797 756 773
f 718 727 737
f 756 730 732
f 756 732 741
f 727 714 756
f 714 730 756
f 770 763 762
f 770 762 769
f 780 770 769
f 794 780 769
f 804 794 769
f 804 769 803
f 810 804 803
f 810 803 807
f 813 810 807
f 815 813 807
f 815 807 819
f 812 815 819
f 805 812 819
f 805 819 808
f 795 805 808
f 785 795 808
f 785 808 788
f 775 785 788
f 752 775 788
f 752 788 764
f 752 764 757
f 739 752 757
f 721 739 757
f 721 757 743
f 721 743 726
f 708 721 726
f 708 726 710
f 702 708 710
f 703 702 710
f 703 710 712
f 709 703 712
f 709 712 727
f 717 709 727
f 717 727 718
f 742 725 718
f 742 718 736
f 747 742 736
f 747 736 755
f 763 747 755
f 763 755 762
f 725 717 718
f 807 803 798
f 819 807 798
f 808 819 790
f 808 790 788
f 757 764 743
f 710 726 723
f 736 718 737
f 755 736 762
