# atego_frame_wire.obj - feature-edge wireframe, ISO 8855, metre
o frame_wire_coarse
v -6.600510 -0.665360 0.808240
v -6.600510 -0.665360 0.891710
v -6.600510 -0.664280 0.802990
v -6.600510 -0.664280 0.896960
v -6.538530 -1.049000 0.633220
v -6.538530 -1.049000 0.891800
v -6.538530 -0.386770 0.633220
v -6.538530 -0.386770 0.891800
v -6.538530 -0.333830 0.633220
v -6.538530 -0.333830 0.891800
v -6.538530 0.328340 0.633220
v -6.538530 0.328340 0.891800
v -6.538530 0.381270 0.633220
v -6.538530 0.381270 0.891800
v -6.538530 1.038120 0.633220
v -6.538530 1.038120 0.891800
v -6.505730 -1.161100 0.529350
v -6.505730 -1.023250 0.529350
v -6.505730 1.011760 0.529350
v -6.505730 1.149620 0.529350
v -6.505720 -1.161100 0.732150
v -6.505720 -1.023250 0.732150
v -6.505720 1.011760 0.732150
v -6.505720 1.149620 0.732150
v -6.499300 -1.161100 0.869850
v -6.499300 -1.023250 0.869850
v -6.499300 1.011760 0.869850
v -6.499300 1.149620 0.869850
v -6.498870 -1.161100 0.667030
v -6.498870 -1.023250 0.667030
v -6.498870 1.011760 0.667030
v -6.498870 1.149620 0.667030
v -6.472280 -1.049000 0.633220
v -6.472280 -1.049000 0.891800
v -6.472280 -0.386770 0.633220
v -6.472280 -0.386770 0.891800
v -6.472280 -0.333830 0.633220
v -6.472280 -0.333830 0.891800
v -6.472280 1.038120 0.633220
v -6.472280 1.038120 0.891800
v -6.279620 -0.386770 0.633220
v -6.279620 -0.386770 0.891800
v -6.279620 -0.333830 0.633220
v -6.279620 -0.333830 0.891800
v -6.105680 -0.386770 0.633220
v -6.105680 -0.386770 0.891800
v -6.105680 -0.333830 0.633220
v -6.105680 -0.333830 0.891800
v -5.931730 -0.386770 0.633220
v -5.931730 -0.386770 0.891800
v -5.931730 -0.333830 0.633220
v -5.931730 -0.333830 0.891800
v -5.757790 -0.386770 0.633220
v -5.757790 -0.386770 0.891800
v -5.757790 -0.333830 0.633220
v -5.757790 -0.333830 0.891800
v -5.583840 -0.386770 0.633220
v -5.583840 -0.386770 0.891800
v -5.583840 -0.333830 0.633220
v -5.583840 -0.333830 0.891800
v -5.409890 -0.386770 0.633220
v -5.409890 -0.386770 0.891800
v -5.409890 -0.333830 0.633220
v -5.409890 -0.333830 0.891800
v -5.235950 -0.386770 0.633220
v -5.235950 -0.386770 0.891800
v -5.235950 -0.333830 0.633220
v -5.235950 -0.333830 0.891800
v -5.235950 -0.333830 1.083890
v -5.235950 0.330900 0.633220
v -5.235950 0.330900 0.891800
v -5.235950 0.330900 1.083890
v -5.062000 -0.386770 0.633220
v -5.062000 -0.386770 0.891800
v -5.062000 -0.333830 0.633220
v -5.062000 -0.333830 0.891800
v -5.062000 -0.333830 1.083890
v -5.062000 0.330900 0.633220
v -5.062000 0.330900 0.891800
v -5.062000 0.330900 1.083890
v -5.037940 -1.161100 0.456180
v -5.037940 -1.023250 0.456180
v -5.037940 1.011760 0.456180
v -5.037940 1.149620 0.456180
v -5.037710 -1.161100 0.663670
v -5.037710 -1.023250 0.663670
v -5.037710 1.011760 0.663670
v -5.037710 1.149620 0.663670
v -5.031290 -1.161100 0.801380
v -5.031290 -1.023250 0.801380
v -5.031290 1.011760 0.801380
v -5.031290 1.149620 0.801380
v -5.031080 -1.161100 0.593870
v -5.031080 -1.023250 0.593870
v -5.031080 1.011760 0.593870
v -5.031080 1.149620 0.593870
v -4.998570 -0.700800 0.546340
v -4.998570 0.684940 0.546340
v -4.989940 -1.174050 0.464290
v -4.989940 -0.869180 0.464290
v -4.989940 -0.700800 0.464290
v -4.989940 0.684940 0.464290
v -4.989940 0.853320 0.464290
v -4.989940 1.158190 0.464290
v -4.964020 -0.700800 0.736340
v -4.964020 0.684940 0.736340
v -4.938800 -1.213250 0.535960
v -4.938800 1.197390 0.535960
v -4.935160 -0.700800 0.541470
v -4.935160 0.684940 0.541470
v -4.931060 -1.213250 0.462450
v -4.931060 1.197390 0.462450
v -4.927480 -0.700800 0.468480
v -4.927480 0.684940 0.468480
v -4.907850 -1.213250 0.706180
v -4.907850 1.197390 0.706180
v -4.904430 -0.700800 0.710490
v -4.904430 0.684940 0.710490
v -4.888060 -0.386770 0.633220
v -4.888060 -0.386770 0.891800
v -4.888060 -0.333830 0.633220
v -4.888060 -0.333830 0.891800
v -4.886300 -0.700800 0.861570
v -4.886300 0.684940 0.861570
v -4.838210 -1.213250 0.818380
v -4.838210 1.197390 0.818380
v -4.835280 -0.700800 0.821890
v -4.835280 0.684940 0.821890
v -4.765380 -0.700800 0.978160
v -4.765380 0.684940 0.978160
v -4.729890 -1.213250 0.922830
v -4.729890 1.197390 0.922830
v -4.727720 -0.700800 0.925610
v -4.727720 0.684940 0.925610
v -4.714110 -0.386770 0.633220
v -4.714110 -0.386770 0.891800
v -4.714110 -0.333830 0.633220
v -4.714110 -0.333830 0.891800
v -4.683340 -0.700800 1.038620
v -4.683340 0.684940 1.038620
v -4.656380 -1.213250 0.976990
v -4.656380 1.197390 0.976990
v -4.654740 -0.700800 0.979390
v -4.654740 0.684940 0.979390
v -4.596970 -0.700800 1.051580
v -4.596970 0.684940 1.051580
v -4.579000 -1.213250 0.988600
v -4.579000 1.197390 0.988600
v -4.577910 -0.700800 0.990910
v -4.577910 0.684940 0.990910
v -4.540160 -0.386770 0.633220
v -4.540160 -0.386770 0.891800
v -4.540160 -0.333830 0.633220
v -4.540160 -0.333830 0.891800
v -4.397370 -0.700800 0.994750
v -4.397370 0.684940 0.994750
v -4.397170 -1.213250 0.992470
v -4.397170 1.197390 0.992470
v -4.394010 -0.700800 1.055890
v -4.394010 0.684940 1.055890
v -4.366220 -0.386770 0.633220
v -4.366220 -0.386770 0.891800
v -4.366220 -0.333830 0.633220
v -4.366220 -0.333830 0.891800
v -4.255230 -0.700800 0.990910
v -4.255230 0.684940 0.990910
v -4.254030 -1.213250 0.988600
v -4.254030 1.197390 0.988600
v -4.234240 -0.700800 1.051580
v -4.234240 0.684940 1.051580
v -4.192270 -0.386770 0.633220
v -4.192270 -0.386770 0.891800
v -4.192270 -0.333830 0.633220
v -4.192270 -0.333830 0.891800
v -4.186090 -0.700800 0.960180
v -4.186090 0.684940 0.960180
v -4.184390 -1.213250 0.957650
v -4.184390 1.197390 0.957650
v -4.156510 -0.700800 1.017030
v -4.156510 0.684940 1.017030
v -4.093900 -0.700800 0.879510
v -4.093900 0.684940 0.879510
v -4.091540 -1.213250 0.876410
v -4.091540 1.197390 0.876410
v -4.063170 -0.700800 0.848780
v -4.063170 0.684940 0.848780
v -4.060590 -1.213250 0.845460
v -4.060590 1.197390 0.845460
v -4.052870 -0.700800 0.926350
v -4.052870 0.684940 0.926350
v -4.018320 -0.700800 0.891800
v -4.018320 -0.386770 0.633220
v -4.018320 -0.386770 0.891800
v -4.018320 -0.333830 0.633220
v -4.018320 -0.333830 0.891800
v -4.018320 0.684940 0.891800
v -3.975580 -0.700800 0.765800
v -3.975580 0.684940 0.765800
v -3.972380 -1.213250 0.761890
v -3.972380 1.197390 0.761890
v -3.929490 -0.700800 0.447740
v -3.929490 0.684940 0.447740
v -3.925960 -1.213250 0.441560
v -3.925960 1.197390 0.441560
v -3.919870 -0.700800 0.798530
v -3.919870 0.684940 0.798530
v -3.901830 -0.700800 0.590640
v -3.901830 0.684940 0.590640
v -3.898100 -1.213250 0.585480
v -3.898100 1.197390 0.585480
v -3.868050 -1.174050 0.440970
v -3.868050 -0.869180 0.440970
v -3.868050 -0.700800 0.440970
v -3.868050 0.684940 0.440970
v -3.868050 0.853320 0.440970
v -3.868050 1.158190 0.440970
v -3.844380 -1.086850 0.633220
v -3.844380 -1.086850 0.891800
v -3.844380 -0.386770 0.633220
v -3.844380 -0.386770 0.891800
v -3.844380 -0.333830 0.633220
v -3.844380 -0.333830 0.891800
v -3.844380 1.053980 0.633220
v -3.844380 1.053980 0.891800
v -3.836960 -0.700800 0.601610
v -3.836960 0.684940 0.601610
v -3.813960 -1.186490 0.454940
v -3.813960 -1.186490 0.598930
v -3.813960 -1.186490 0.688120
v -3.813960 -1.186490 0.832110
v -3.813960 -1.071470 0.454940
v -3.813960 -1.071470 0.598930
v -3.813960 -1.071470 0.688120
v -3.813960 -1.071470 0.832110
v -3.813960 1.052100 0.454940
v -3.813960 1.052100 0.598930
v -3.813960 1.052100 0.688120
v -3.813960 1.052100 0.832110
v -3.813960 1.167120 0.454940
v -3.813960 1.167120 0.598930
v -3.813960 1.167120 0.688120
v -3.813960 1.167120 0.832110
v -3.670430 -1.086850 0.633220
v -3.670430 -1.086850 0.891800
v -3.670430 -0.386770 0.633220
v -3.670430 -0.386770 0.891800
v -3.670430 -0.333830 0.633220
v -3.670430 -0.333830 0.891800
v -3.670430 0.331900 0.633220
v -3.670430 0.331900 0.891800
v -3.670430 1.053980 0.633220
v -3.670430 1.053980 0.891800
v -3.496490 -0.386770 0.633220
v -3.496490 -0.386770 0.891800
v -3.496490 -0.333830 0.633220
v -3.496490 -0.333830 0.891800
v -3.496490 0.331900 0.633220
v -3.496490 0.331900 0.891800
v -3.322540 -0.386770 0.633220
v -3.322540 -0.386770 0.891800
v -3.322540 -0.333830 0.633220
v -3.322540 -0.333830 0.891800
v -3.209070 1.052100 0.688120
v -3.209070 1.052100 0.832110
v -3.209070 1.167120 0.688120
v -3.209070 1.167120 0.832110
v -3.148600 -0.386770 0.633220
v -3.148600 -0.386770 0.891800
v -3.148600 -0.333830 0.633220
v -3.148600 -0.333830 0.891800
v -3.016660 1.052100 0.688120
v -3.016660 1.052100 0.832110
v -3.016660 1.167120 0.688120
v -3.016660 1.167120 0.832110
v -2.974650 -0.386770 0.633220
v -2.974650 -0.386770 0.891800
v -2.974650 -0.333830 0.633220
v -2.974650 -0.333830 0.891800
v -2.800700 -0.386770 0.633220
v -2.800700 -0.386770 0.891800
v -2.800700 -0.333830 0.633220
v -2.800700 -0.333830 0.891800
v -2.800700 -0.333830 1.083040
v -2.800700 0.339100 0.633220
v -2.800700 0.339100 0.891800
v -2.800700 0.339100 1.083040
v -2.735970 0.688400 0.371490
v -2.735970 0.688400 0.867390
v -2.735970 0.780000 0.371490
v -2.735970 0.780000 0.867390
v -2.735970 0.871590 0.371490
v -2.735970 0.871590 0.867390
v -2.714380 0.596810 0.371490
v -2.714380 0.596810 0.867390
v -2.714380 0.963180 0.371490
v -2.714380 0.963180 0.867390
v -2.675400 0.512020 0.371490
v -2.675400 0.512020 0.867390
v -2.626760 -0.386770 0.633220
v -2.626760 -0.386770 0.891800
v -2.626760 -0.333830 0.633220
v -2.626760 -0.333830 0.891800
v -2.626760 -0.333830 1.083040
v -2.626760 0.339100 0.633220
v -2.626760 0.339100 0.891800
v -2.626760 0.339100 1.083040
v -2.480480 0.413620 0.371490
v -2.480480 0.413620 0.867390
v -2.480480 0.505210 0.371490
v -2.480480 0.505210 0.867390
v -2.452810 -0.386770 0.633220
v -2.452810 -0.386770 0.891800
v -2.452810 -0.333830 0.633220
v -2.452810 -0.333830 0.891800
v -2.278870 -0.386770 0.633220
v -2.278870 -0.386770 0.891800
v -2.278870 -0.333830 0.633220
v -2.278870 -0.333830 0.891800
v -2.219350 1.052100 0.688120
v -2.219350 1.052100 0.832110
v -2.219350 1.167120 0.688120
v -2.219350 1.167120 0.832110
v -2.104920 -0.386770 0.633220
v -2.104920 -0.386770 0.891800
v -2.104920 -0.333830 0.633220
v -2.104920 -0.333830 0.891800
v -1.930970 -0.386770 0.633220
v -1.930970 -0.386770 0.891800
v -1.930970 -0.333830 0.633220
v -1.930970 -0.333830 0.891800
v -1.930910 0.413620 0.371490
v -1.930910 0.413620 0.867390
v -1.930910 0.963180 0.371490
v -1.930910 0.963180 0.867390
v -1.907130 -1.002930 0.420560
v -1.907130 -1.002930 0.856150
v -1.907130 -0.567340 0.420560
v -1.907130 -0.567340 0.856150
v -1.891340 0.505210 0.371490
v -1.891340 0.505210 0.867390
v -1.891340 0.551010 0.371490
v -1.891340 0.551010 0.867390
v -1.891340 0.596810 0.371490
v -1.891340 0.596810 0.867390
v -1.891340 0.688400 0.371490
v -1.891340 0.688400 0.867390
v -1.891340 0.780000 0.371490
v -1.891340 0.780000 0.867390
v -1.891340 0.871590 0.371490
v -1.891340 0.871590 0.867390
v -1.757030 -0.386770 0.633220
v -1.757030 -0.386770 0.891800
v -1.757030 -0.333830 0.633220
v -1.757030 -0.333830 0.891800
v -1.757030 -0.333830 1.083040
v -1.757030 0.337690 0.633220
v -1.757030 0.337690 0.891800
v -1.757030 0.337690 1.083040
v -1.724090 0.416370 0.405180
v -1.724090 0.416370 0.913710
v -1.724090 1.002320 0.405180
v -1.724090 1.002320 0.913710
v -1.583080 -0.619060 0.633220
v -1.583080 -0.619060 0.891800
v -1.583080 -0.386770 0.633220
v -1.583080 -0.386770 0.891800
v -1.583080 -0.333830 0.633220
v -1.583080 -0.333830 0.891800
v -1.583080 -0.333830 1.083040
v -1.583080 0.337690 0.633220
v -1.583080 0.337690 0.891800
v -1.583080 0.337690 1.083040
v -1.451680 0.416370 0.405180
v -1.451680 0.416370 0.913710
v -1.451680 1.002320 0.405180
v -1.451680 1.002320 0.913710
v -1.422040 1.052100 0.688120
v -1.422040 1.052100 0.832110
v -1.422040 1.167120 0.688120
v -1.422040 1.167120 0.832110
v -1.409130 -0.619060 0.633220
v -1.409130 -0.619060 0.891800
v -1.409130 -0.333830 0.633220
v -1.409130 -0.333830 0.891800
v -1.235190 -0.619060 0.633220
v -1.235190 -0.619060 0.891800
v -1.235190 -0.386770 0.633220
v -1.235190 -0.386770 0.891800
v -1.235190 -0.333830 0.633220
v -1.235190 -0.333830 0.891800
v -1.179440 0.416370 0.405180
v -1.179440 0.416370 0.456030
v -1.179440 0.416370 0.506880
v -1.179440 0.416370 0.557740
v -1.179440 0.416370 0.608590
v -1.179440 0.416370 0.659440
v -1.179440 0.416370 0.710290
v -1.179440 0.416370 0.761150
v -1.179440 0.416370 0.812000
v -1.179440 0.416370 0.862850
v -1.179440 0.416370 0.913710
v -1.179440 1.002320 0.405180
v -1.179440 1.002320 0.456030
v -1.179440 1.002320 0.506880
v -1.179440 1.002320 0.557740
v -1.179440 1.002320 0.608590
v -1.179440 1.002320 0.659440
v -1.179440 1.002320 0.710290
v -1.179440 1.002320 0.761150
v -1.179440 1.002320 0.812000
v -1.179440 1.002320 0.862850
v -1.179440 1.002320 0.913710
v -1.159470 0.987550 0.507650
v -1.159470 0.987550 0.556960
v -1.159470 0.987550 0.609360
v -1.159470 0.987550 0.658670
v -1.159470 0.987550 0.711070
v -1.159470 0.987550 0.760370
v -1.159470 0.987550 0.812770
v -1.159470 0.987550 0.862080
v -1.159470 1.002320 0.507650
v -1.159470 1.002320 0.556960
v -1.159470 1.002320 0.609360
v -1.159470 1.002320 0.658670
v -1.159470 1.002320 0.711070
v -1.159470 1.002320 0.760370
v -1.159470 1.002320 0.812770
v -1.159470 1.002320 0.862080
v -1.061240 -0.386770 0.633220
v -1.061240 -0.386770 0.891800
v -1.061240 -0.333830 0.633220
v -1.061240 -0.333830 0.891800
v -0.959180 -1.002930 0.420560
v -0.959180 -1.002930 0.856150
v -0.959180 -0.567340 0.420560
v -0.959180 -0.567340 0.856150
v -0.887300 -0.386770 0.633220
v -0.887300 -0.386770 0.891800
v -0.887300 -0.333830 0.633220
v -0.887300 -0.333830 0.891800
v -0.713350 -1.086240 0.633220
v -0.713350 -1.086240 0.891800
v -0.713350 -0.386770 0.633220
v -0.713350 -0.386770 0.891800
v -0.713350 -0.333830 0.633220
v -0.713350 -0.333830 0.891800
v -0.626380 -1.086240 0.633220
v -0.626380 -1.086240 0.891800
v -0.626380 -0.386770 0.633220
v -0.626380 -0.386770 0.891800
v -0.626380 -0.333830 0.633220
v -0.626380 -0.333830 0.891800
v -0.624740 -1.186490 0.454940
v -0.624740 -1.186490 0.598930
v -0.624740 -1.186490 0.688120
v -0.624740 -1.186490 0.832110
v -0.624740 -1.071470 0.454940
v -0.624740 -1.071470 0.598930
v -0.624740 -1.071470 0.688120
v -0.624740 -1.071470 0.832110
v -0.624740 1.052100 0.454940
v -0.624740 1.052100 0.598930
v -0.624740 1.052100 0.688120
v -0.624740 1.052100 0.832110
v -0.624740 1.167120 0.454940
v -0.624740 1.167120 0.598930
v -0.624740 1.167120 0.688120
v -0.624740 1.167120 0.832110
v -0.613450 0.987550 0.507650
v -0.613450 0.987550 0.556960
v -0.613450 0.987550 0.609360
v -0.613450 0.987550 0.658670
v -0.613450 0.987550 0.711070
v -0.613450 0.987550 0.760370
v -0.613450 0.987550 0.812770
v -0.613450 0.987550 0.862080
v -0.613450 1.002320 0.507650
v -0.613450 1.002320 0.556960
v -0.613450 1.002320 0.609360
v -0.613450 1.002320 0.658670
v -0.613450 1.002320 0.711070
v -0.613450 1.002320 0.760370
v -0.613450 1.002320 0.812770
v -0.613450 1.002320 0.862080
v -0.593480 0.416370 0.405180
v -0.593480 0.416370 0.456030
v -0.593480 0.416370 0.506880
v -0.593480 0.416370 0.557740
v -0.593480 0.416370 0.608590
v -0.593480 0.416370 0.659440
v -0.593480 0.416370 0.710290
v -0.593480 0.416370 0.761150
v -0.593480 0.416370 0.812000
v -0.593480 0.416370 0.862850
v -0.593480 0.416370 0.913710
v -0.593480 1.002320 0.405180
v -0.593480 1.002320 0.456030
v -0.593480 1.002320 0.506880
v -0.593480 1.002320 0.557740
v -0.593480 1.002320 0.608590
v -0.593480 1.002320 0.659440
v -0.593480 1.002320 0.710290
v -0.593480 1.002320 0.761150
v -0.593480 1.002320 0.812000
v -0.593480 1.002320 0.862850
v -0.593480 1.002320 0.913710
v -0.539410 -0.386770 0.633220
v -0.539410 -0.386770 0.891800
v -0.539410 -0.333830 0.633220
v -0.539410 -0.333830 0.891800
v -0.365460 -0.386770 0.633220
v -0.365460 -0.386770 0.891800
v -0.365460 -0.333830 0.633220
v -0.365460 -0.333830 0.891800
v -0.191510 -0.386770 0.633220
v -0.191510 -0.386770 0.891800
v -0.191510 -0.333830 0.633220
v -0.191510 -0.333830 0.891800
v -0.017570 -0.386770 0.633220
v -0.017570 -0.386770 0.891800
v -0.017570 -0.333830 0.633220
v -0.017570 -0.333830 0.891800
v 0.156380 -0.386770 0.633220
v 0.156380 -0.386770 0.891800
v 0.156380 -0.333830 0.633220
v 0.156380 -0.333830 0.891800
v 0.330320 -0.386770 0.633220
v 0.330320 -0.386770 0.891800
v 0.330320 -0.333830 0.633220
v 0.330320 -0.333830 0.891800
v 0.504270 -0.386770 0.633220
v 0.504270 -0.386770 0.891800
v 0.504270 -0.333830 0.633220
v 0.504270 -0.333830 0.891800
v 0.678220 -0.386770 0.633220
v 0.678220 -0.386770 0.891800
v 0.678220 -0.333830 0.633220
v 0.678220 -0.333830 0.891800
v 0.852160 -0.386770 0.633220
v 0.852160 -0.386770 0.891800
v 0.852160 -0.333830 0.633220
v 0.852160 -0.333830 0.891800
v 1.026110 -0.386770 0.633220
v 1.026110 -0.386770 0.891800
v 1.026110 -0.333830 0.633220
v 1.026110 -0.333830 0.891800
v 1.026110 0.328340 0.633220
v 1.026110 0.328340 0.891800
v 1.026110 0.381270 0.633220
v 1.026110 0.381270 0.891800
l 12 548
l 11 12
l 11 547
l 547 548
l 12 14
l 13 14
l 11 13
l 14 550
l 549 550
l 13 549
l 548 550
l 547 549
l 6 8
l 6 34
l 34 36
l 8 10
l 7 9
l 542 546
l 545 546
l 541 545
l 544 546
l 543 544
l 543 545
l 540 544
l 539 543
l 37 43
l 35 41
l 43 47
l 41 45
l 47 51
l 45 49
l 51 55
l 49 53
l 55 59
l 53 57
l 59 63
l 57 61
l 63 67
l 61 65
l 65 73
l 75 121
l 73 119
l 121 137
l 119 135
l 137 153
l 135 151
l 153 163
l 151 161
l 163 173
l 161 171
l 173 194
l 171 192
l 194 221
l 192 219
l 245 253
l 255 261
l 253 259
l 261 269
l 259 267
l 269 277
l 267 275
l 277 281
l 275 279
l 279 299
l 301 313
l 299 311
l 313 317
l 311 315
l 317 325
l 315 323
l 325 329
l 323 327
l 329 353
l 327 351
l 351 365
l 367 383
l 383 389
l 389 431
l 387 429
l 431 439
l 429 437
l 439 445
l 437 443
l 451 509
l 449 507
l 509 513
l 507 511
l 513 517
l 511 515
l 517 521
l 515 519
l 521 525
l 519 523
l 525 529
l 523 527
l 529 533
l 527 531
l 533 537
l 531 535
l 537 541
l 535 539
l 36 42
l 38 44
l 42 46
l 44 48
l 46 50
l 48 52
l 50 54
l 52 56
l 54 58
l 56 60
l 58 62
l 60 64
l 62 66
l 64 68
l 66 74
l 68 76
l 74 120
l 76 122
l 120 136
l 122 138
l 136 152
l 138 154
l 152 162
l 154 164
l 162 172
l 164 174
l 172 193
l 174 195
l 193 220
l 195 222
l 246 254
l 254 260
l 256 262
l 260 268
l 262 270
l 268 276
l 270 278
l 276 280
l 278 282
l 280 300
l 282 302
l 300 312
l 302 314
l 312 316
l 314 318
l 316 324
l 318 326
l 324 328
l 326 330
l 328 352
l 330 354
l 352 366
l 354 368
l 368 384
l 384 390
l 388 430
l 390 432
l 430 438
l 432 440
l 438 444
l 440 446
l 450 508
l 452 510
l 508 512
l 510 514
l 512 516
l 514 518
l 516 520
l 518 522
l 520 524
l 522 526
l 524 528
l 526 530
l 528 532
l 530 534
l 532 536
l 534 538
l 536 540
l 538 542
l 37 38
l 67 68
l 68 69
l 69 72
l 71 72
l 75 76
l 221 222
l 222 224
l 223 224
l 221 223
l 255 257
l 257 258
l 256 258
l 255 256
l 281 282
l 281 284
l 284 304
l 301 304
l 301 302
l 353 354
l 367 370
l 370 371
l 367 368
l 448 450
l 447 448
l 447 449
l 449 450
l 443 444
l 387 388
l 364 366
l 364 382
l 363 381
l 363 365
l 365 366
l 245 246
l 243 245
l 217 243
l 217 219
l 219 220
l 78 79
l 70 78
l 70 71
l 67 70
l 75 78
l 250 258
l 249 257
l 249 250
l 248 250
l 247 249
l 304 305
l 284 285
l 285 286
l 286 306
l 305 306
l 356 370
l 356 357
l 368 369
l 355 369
l 354 355
l 353 356
l 37 39
l 39 40
l 38 40
l 35 36
l 16 40
l 15 39
l 15 16
l 10 16
l 9 15
l 5 6
l 5 33
l 33 34
l 33 35
l 5 7
l 382 386
l 381 385
l 385 386
l 363 364
l 385 387
l 386 388
l 400 401
l 401 495
l 494 495
l 411 412
l 401 412
l 505 506
l 412 506
l 495 506
l 391 485
l 485 496
l 402 496
l 391 402
l 485 486
l 496 497
l 486 487
l 497 498
l 487 488
l 498 499
l 488 489
l 499 500
l 489 490
l 500 501
l 490 491
l 501 502
l 491 492
l 502 503
l 492 493
l 503 504
l 493 494
l 504 505
l 402 403
l 403 404
l 415 416
l 423 424
l 405 406
l 414 470
l 422 478
l 407 408
l 417 418
l 425 426
l 409 410
l 413 469
l 421 477
l 391 392
l 392 393
l 404 405
l 393 394
l 394 395
l 406 407
l 395 396
l 396 397
l 408 409
l 397 398
l 398 399
l 410 411
l 399 400
l 427 428
l 421 422
l 483 484
l 481 482
l 479 480
l 477 478
l 423 479
l 424 480
l 425 481
l 426 482
l 427 483
l 428 484
l 469 470
l 413 414
l 415 471
l 471 472
l 416 472
l 417 473
l 473 474
l 418 474
l 419 475
l 475 476
l 420 476
l 419 420
l 446 452
l 445 451
l 442 448
l 441 442
l 441 447
l 441 443
l 442 444
l 218 244
l 217 218
l 243 244
l 244 246
l 218 220
l 224 252
l 251 252
l 223 251
l 247 251
l 248 252
l 17 81
l 17 29
l 29 93
l 81 93
l 17 18
l 18 30
l 29 30
l 18 82
l 82 94
l 30 94
l 81 82
l 93 94
l 21 85
l 21 25
l 25 89
l 85 89
l 21 22
l 22 26
l 25 26
l 22 86
l 86 90
l 26 90
l 85 86
l 89 90
l 19 83
l 19 31
l 31 95
l 83 95
l 19 20
l 20 32
l 31 32
l 20 84
l 84 96
l 32 96
l 83 84
l 95 96
l 23 87
l 23 27
l 27 91
l 87 91
l 23 24
l 24 28
l 27 28
l 24 88
l 88 92
l 28 92
l 87 88
l 91 92
l 3 4
l 1 2
l 303 306
l 283 286
l 283 303
l 369 372
l 358 372
l 355 358
l 282 283
l 357 358
l 371 372
l 302 303
l 77 80
l 72 80
l 69 77
l 79 80
l 76 77
l 359 373
l 359 360
l 360 374
l 373 374
l 359 361
l 361 362
l 360 362
l 361 375
l 375 376
l 362 376
l 373 375
l 374 376
l 98 102
l 110 114
l 102 114
l 98 106
l 110 118
l 106 124
l 118 128
l 124 130
l 128 134
l 130 140
l 134 144
l 140 146
l 144 150
l 146 160
l 150 156
l 160 170
l 156 166
l 170 180
l 166 176
l 180 190
l 176 182
l 190 196
l 182 186
l 196 206
l 186 198
l 206 226
l 198 208
l 214 226
l 202 214
l 202 208
l 102 103
l 214 215
l 103 104
l 215 216
l 104 112
l 108 112
l 108 116
l 116 126
l 126 132
l 132 142
l 142 148
l 148 158
l 158 168
l 168 178
l 178 184
l 184 188
l 188 200
l 200 210
l 204 210
l 204 216
l 97 101
l 109 113
l 101 113
l 97 105
l 109 117
l 105 123
l 117 127
l 123 129
l 127 133
l 129 139
l 133 143
l 139 145
l 143 149
l 145 159
l 149 155
l 159 169
l 155 165
l 169 179
l 165 175
l 179 189
l 175 181
l 189 191
l 181 185
l 191 205
l 185 197
l 205 225
l 197 207
l 213 225
l 201 213
l 201 207
l 100 101
l 212 213
l 99 100
l 211 212
l 99 111
l 107 111
l 107 115
l 115 125
l 125 131
l 131 141
l 141 147
l 147 157
l 157 167
l 167 177
l 177 183
l 183 187
l 187 199
l 199 209
l 203 209
l 203 211
l 307 331
l 307 308
l 308 332
l 331 332
l 291 295
l 295 296
l 292 296
l 295 333
l 333 334
l 296 334
l 331 339
l 332 340
l 333 349
l 308 310
l 334 350
l 348 350
l 290 292
l 346 348
l 288 290
l 344 346
l 288 294
l 340 342
l 298 310
l 307 309
l 341 343
l 293 297
l 343 345
l 287 293
l 345 347
l 287 289
l 347 349
l 289 291
l 339 341
l 309 310
l 294 298
l 297 298
l 297 309
l 342 344
l 232 458
l 454 458
l 228 454
l 228 232
l 234 460
l 456 460
l 230 456
l 230 234
l 236 462
l 462 466
l 240 466
l 236 240
l 378 464
l 464 468
l 380 468
l 272 320
l 274 322
l 320 378
l 322 380
l 264 272
l 266 274
l 238 264
l 242 266
l 238 242
l 335 433
l 335 336
l 336 434
l 433 434
l 335 337
l 337 338
l 336 338
l 337 435
l 435 436
l 338 436
l 433 435
l 434 436
l 231 232
l 231 457
l 457 458
l 227 228
l 227 231
l 453 454
l 227 453
l 453 457
l 233 234
l 233 459
l 459 460
l 229 230
l 229 233
l 455 456
l 229 455
l 455 459
l 235 236
l 235 461
l 461 462
l 239 240
l 235 239
l 465 466
l 239 465
l 461 465
l 237 238
l 237 263
l 241 242
l 237 241
l 467 468
l 379 467
l 463 464
l 463 467
l 377 463
l 273 321
l 271 319
l 319 377
l 321 379
l 265 273
l 263 271
l 241 265
