# atego_wheel_fr_wire.obj - feature-edge wireframe, ISO 8855, metre
o wheel_fr_wire_coarse
v -0.440650 -0.079020 0.000000
v -0.440650 0.134970 0.000000
v -0.436880 -0.079020 -0.057520
v -0.436880 -0.079020 0.057520
v -0.436880 0.134970 -0.057520
v -0.436880 0.134970 0.057520
v -0.425630 -0.079020 -0.114050
v -0.425630 -0.079020 0.114050
v -0.425630 0.134970 -0.114050
v -0.425630 0.134970 0.114050
v -0.407110 -0.079020 -0.168630
v -0.407110 -0.079020 0.168630
v -0.407110 0.134970 -0.168630
v -0.407110 0.134970 0.168630
v -0.381610 -0.079020 -0.220320
v -0.381610 -0.079020 0.220320
v -0.381610 0.134970 -0.220320
v -0.381610 0.134970 0.220320
v -0.349590 -0.079020 -0.268250
v -0.349590 -0.079020 0.268250
v -0.349590 0.134970 -0.268250
v -0.349590 0.134970 0.268250
v -0.311590 -0.079020 -0.311580
v -0.311590 -0.079020 0.311580
v -0.311590 0.134970 -0.311580
v -0.311590 0.134970 0.311580
v -0.268690 -0.063070 0.000000
v -0.268690 -0.048210 0.000000
v -0.268690 0.105290 0.000000
v -0.268690 0.119030 0.000000
v -0.268250 -0.079020 -0.349590
v -0.268250 -0.079020 0.349590
v -0.268250 0.134970 -0.349590
v -0.268250 0.134970 0.349590
v -0.266400 -0.056750 0.000000
v -0.266400 0.112710 0.000000
v -0.264610 -0.063070 -0.046660
v -0.264610 -0.063070 0.046660
v -0.264610 -0.048210 -0.046660
v -0.264610 -0.048210 0.046660
v -0.264610 0.105290 -0.046660
v -0.264610 0.105290 0.046660
v -0.264610 0.119030 -0.046660
v -0.264610 0.119030 0.046660
v -0.257320 -0.056750 -0.068950
v -0.257320 -0.056750 0.068950
v -0.257320 0.112710 -0.068950
v -0.257320 0.112710 0.068950
v -0.252490 -0.063070 -0.091900
v -0.252490 -0.063070 0.091900
v -0.252490 -0.048210 -0.091900
v -0.252490 -0.048210 0.091900
v -0.252490 0.105290 -0.091900
v -0.252490 0.105290 0.091900
v -0.252490 0.119030 -0.091900
v -0.252490 0.119030 0.091900
v -0.232690 -0.063070 -0.134350
v -0.232690 -0.063070 0.134350
v -0.232690 -0.048210 -0.134350
v -0.232690 -0.048210 0.134350
v -0.232690 0.105290 -0.134350
v -0.232690 0.105290 0.134350
v -0.232690 0.119030 -0.134350
v -0.232690 0.119030 0.134350
v -0.230710 -0.056750 -0.133200
v -0.230710 -0.056750 0.133200
v -0.230710 0.112710 -0.133200
v -0.230710 0.112710 0.133200
v -0.220330 -0.079020 -0.381610
v -0.220330 0.134970 -0.381610
v -0.220320 -0.079020 0.381610
v -0.220320 0.134970 0.381610
v -0.219440 -0.056150 0.000000
v -0.216110 -0.056150 -0.038110
v -0.216110 -0.056150 0.038110
v -0.206210 -0.056150 -0.075050
v -0.206210 -0.056150 0.075050
v -0.205830 -0.063070 -0.172710
v -0.205830 -0.063070 0.172710
v -0.205830 -0.048210 -0.172710
v -0.205830 -0.048210 0.172710
v -0.205830 0.105290 -0.172710
v -0.205830 0.105290 0.172710
v -0.205830 0.119030 -0.172710
v -0.205830 0.119030 0.172710
v -0.190040 -0.056150 -0.109720
v -0.190040 -0.056150 0.109720
v -0.190040 -0.043400 -0.109720
v -0.190040 -0.043400 0.109720
v -0.188370 -0.056750 -0.188370
v -0.188370 -0.056750 0.188370
v -0.188370 0.112710 -0.188370
v -0.188370 0.112710 0.188370
v -0.183590 -0.043330 -0.105920
v -0.183590 -0.043330 0.105920
v -0.172710 -0.063070 -0.205830
v -0.172710 -0.063070 0.205830
v -0.172710 -0.048210 -0.205830
v -0.172710 -0.048210 0.205830
v -0.172710 0.105290 -0.205830
v -0.172710 0.105290 0.205830
v -0.172710 0.119030 -0.205830
v -0.172710 0.119030 0.205830
v -0.168630 -0.079020 -0.407110
v -0.168630 -0.079020 0.407110
v -0.168630 0.134970 -0.407110
v -0.168630 0.134970 0.407110
v -0.168100 -0.056150 -0.141060
v -0.168100 -0.056150 0.141050
v -0.168100 -0.043400 -0.141060
v -0.168100 -0.043400 0.141050
v -0.162360 -0.043400 -0.136240
v -0.162360 -0.043400 0.136240
v -0.141060 -0.056150 -0.168100
v -0.141060 -0.056150 0.168100
v -0.141060 -0.043400 -0.168100
v -0.141060 -0.043400 0.168100
v -0.136240 -0.043400 -0.162360
v -0.136240 -0.043400 0.162360
v -0.134350 -0.063070 -0.232690
v -0.134350 -0.063070 0.232690
v -0.134350 -0.048210 -0.232690
v -0.134350 -0.048210 0.232690
v -0.134350 0.105290 -0.232690
v -0.134350 0.105290 0.232690
v -0.134350 0.119030 -0.232690
v -0.134350 0.119030 0.232690
v -0.133200 -0.056750 -0.230710
v -0.133200 -0.056750 0.230710
v -0.133200 0.112710 -0.230710
v -0.133200 0.112710 0.230710
v -0.114050 -0.079020 -0.425630
v -0.114050 -0.079020 0.425630
v -0.114050 0.134970 -0.425630
v -0.114050 0.134970 0.425630
v -0.109720 -0.056150 -0.190040
v -0.109720 -0.056150 0.190040
v -0.109720 -0.043400 -0.190040
v -0.109720 -0.043400 0.190040
v -0.105920 -0.043330 -0.183590
v -0.105920 -0.043330 0.183590
v -0.091900 -0.063070 -0.252490
v -0.091900 -0.063070 0.252490
v -0.091900 -0.048210 -0.252490
v -0.091900 -0.048210 0.252490
v -0.091900 0.105290 -0.252490
v -0.091900 0.105290 0.252490
v -0.091900 0.119030 -0.252490
v -0.091900 0.119030 0.252490
v -0.075050 -0.056150 -0.206210
v -0.075050 -0.056150 0.206210
v -0.068950 -0.056750 -0.257320
v -0.068950 -0.056750 0.257320
v -0.068950 0.112710 -0.257320
v -0.068950 0.112710 0.257320
v -0.057520 -0.079020 -0.436880
v -0.057520 -0.079020 0.436880
v -0.057520 0.134970 -0.436880
v -0.057520 0.134970 0.436880
v -0.046660 -0.063070 -0.264610
v -0.046660 -0.063070 0.264610
v -0.046660 -0.048210 -0.264610
v -0.046660 -0.048210 0.264610
v -0.046660 0.105290 -0.264610
v -0.046660 0.105290 0.264610
v -0.046660 0.119030 -0.264610
v -0.046660 0.119030 0.264610
v -0.038110 -0.056150 -0.216110
v -0.038110 -0.056150 0.216110
v -0.000000 -0.079020 -0.440650
v -0.000000 -0.079020 0.440650
v -0.000000 -0.063070 -0.268690
v -0.000000 -0.063070 0.268690
v -0.000000 -0.056750 -0.266400
v -0.000000 -0.056750 0.266400
v -0.000000 -0.056150 -0.219440
v -0.000000 -0.056150 0.219440
v -0.000000 -0.048210 -0.268690
v -0.000000 -0.048210 0.268690
v -0.000000 0.105290 -0.268690
v -0.000000 0.105290 0.268690
v -0.000000 0.112710 -0.266400
v -0.000000 0.112710 0.266400
v -0.000000 0.119030 -0.268690
v -0.000000 0.119030 0.268690
v -0.000000 0.134970 -0.440650
v -0.000000 0.134970 0.440650
v 0.038110 -0.056150 -0.216110
v 0.038110 -0.056150 0.216110
v 0.046660 -0.063070 -0.264610
v 0.046660 -0.063070 0.264610
v 0.046660 -0.048210 -0.264610
v 0.046660 -0.048210 0.264610
v 0.046660 0.105290 -0.264610
v 0.046660 0.105290 0.264610
v 0.046660 0.119030 -0.264610
v 0.046660 0.119030 0.264610
v 0.057510 -0.079020 -0.436880
v 0.057510 -0.079020 0.436880
v 0.057510 0.134970 -0.436880
v 0.057510 0.134970 0.436880
v 0.068950 -0.056750 -0.257320
v 0.068950 -0.056750 0.257320
v 0.068950 0.112710 -0.257320
v 0.068950 0.112710 0.257320
v 0.075050 -0.056150 -0.206210
v 0.075050 -0.056150 0.206210
v 0.091900 -0.063070 -0.252490
v 0.091900 -0.063070 0.252490
v 0.091900 -0.048210 -0.252490
v 0.091900 -0.048210 0.252490
v 0.091900 0.105290 -0.252490
v 0.091900 0.105290 0.252490
v 0.091900 0.119030 -0.252490
v 0.091900 0.119030 0.252490
v 0.105910 -0.043330 -0.183590
v 0.105910 -0.043330 0.183590
v 0.109720 -0.056150 -0.190040
v 0.109720 -0.056150 0.190040
v 0.109720 -0.043400 -0.190040
v 0.109720 -0.043400 0.190040
v 0.114050 -0.079020 -0.425630
v 0.114050 -0.079020 0.425630
v 0.114050 0.134970 -0.425630
v 0.114050 0.134970 0.425630
v 0.133200 -0.056750 -0.230710
v 0.133200 -0.056750 0.230710
v 0.133200 0.112710 -0.230710
v 0.133200 0.112710 0.230710
v 0.134340 -0.063070 -0.232690
v 0.134340 -0.063070 0.232690
v 0.134340 -0.048210 -0.232690
v 0.134340 -0.048210 0.232690
v 0.134340 0.105290 -0.232690
v 0.134340 0.105290 0.232690
v 0.134340 0.119030 -0.232690
v 0.134340 0.119030 0.232690
v 0.136230 -0.043400 -0.162360
v 0.136230 -0.043400 0.162360
v 0.141060 -0.056150 -0.168100
v 0.141060 -0.056150 0.168100
v 0.141060 -0.043400 -0.168100
v 0.141060 -0.043400 0.168100
v 0.162360 -0.043400 -0.136240
v 0.162360 -0.043400 0.136240
v 0.168100 -0.056150 -0.141060
v 0.168100 -0.056150 0.141050
v 0.168100 -0.043400 -0.141060
v 0.168100 -0.043400 0.141050
v 0.168630 -0.079020 -0.407110
v 0.168630 -0.079020 0.407110
v 0.168630 0.134970 -0.407110
v 0.168630 0.134970 0.407110
v 0.172710 -0.063070 -0.205830
v 0.172710 -0.063070 0.205830
v 0.172710 -0.048210 -0.205830
v 0.172710 -0.048210 0.205830
v 0.172710 0.105290 -0.205830
v 0.172710 0.105290 0.205830
v 0.172710 0.119030 -0.205830
v 0.172710 0.119030 0.205830
v 0.183590 -0.043330 -0.105920
v 0.183590 -0.043330 0.105920
v 0.188370 -0.056750 -0.188370
v 0.188370 -0.056750 0.188370
v 0.188370 0.112710 -0.188370
v 0.188370 0.112710 0.188370
v 0.190040 -0.056150 -0.109720
v 0.190040 -0.056150 0.109720
v 0.190040 -0.043400 -0.109720
v 0.190040 -0.043400 0.109720
v 0.205830 -0.063070 -0.172710
v 0.205830 -0.063070 0.172710
v 0.205830 -0.048210 -0.172710
v 0.205830 -0.048210 0.172710
v 0.205830 0.105290 -0.172710
v 0.205830 0.105290 0.172710
v 0.205830 0.119030 -0.172710
v 0.205830 0.119030 0.172710
v 0.206210 -0.056150 -0.075050
v 0.206210 -0.056150 0.075050
v 0.216110 -0.056150 -0.038110
v 0.216110 -0.056150 0.038110
v 0.219440 -0.056150 0.000000
v 0.220320 -0.079020 -0.381610
v 0.220320 -0.079020 0.381610
v 0.220320 0.134970 -0.381610
v 0.220320 0.134970 0.381610
v 0.230710 -0.056750 -0.133200
v 0.230710 -0.056750 0.133200
v 0.230710 0.112710 -0.133200
v 0.230710 0.112710 0.133200
v 0.232690 -0.063070 -0.134350
v 0.232690 -0.063070 0.134350
v 0.232690 -0.048210 -0.134350
v 0.232690 -0.048210 0.134350
v 0.232690 0.105290 -0.134350
v 0.232690 0.105290 0.134350
v 0.232690 0.119030 -0.134350
v 0.232690 0.119030 0.134350
v 0.252490 -0.063070 -0.091900
v 0.252490 -0.063070 0.091900
v 0.252490 -0.048210 -0.091900
v 0.252490 -0.048210 0.091900
v 0.252490 0.105290 -0.091900
v 0.252490 0.105290 0.091900
v 0.252490 0.119030 -0.091900
v 0.252490 0.119030 0.091900
v 0.257320 -0.056750 -0.068950
v 0.257320 -0.056750 0.068950
v 0.257320 0.112710 -0.068950
v 0.257320 0.112710 0.068950
v 0.264610 -0.063070 -0.046660
v 0.264610 -0.063070 0.046660
v 0.264610 -0.048210 -0.046660
v 0.264610 -0.048210 0.046660
v 0.264610 0.105290 -0.046660
v 0.264610 0.105290 0.046660
v 0.264610 0.119030 -0.046660
v 0.264610 0.119030 0.046660
v 0.266400 -0.056750 0.000000
v 0.266400 0.112710 0.000000
v 0.268250 -0.079020 -0.349590
v 0.268250 -0.079020 0.349590
v 0.268250 0.134970 -0.349590
v 0.268250 0.134970 0.349590
v 0.268690 -0.063070 0.000000
v 0.268690 -0.048210 0.000000
v 0.268690 0.105290 0.000000
v 0.268690 0.119030 0.000000
v 0.311590 -0.079020 -0.311590
v 0.311590 -0.079020 0.311580
v 0.311590 0.134970 -0.311580
v 0.311590 0.134970 0.311580
v 0.349590 -0.079020 -0.268250
v 0.349590 -0.079020 0.268250
v 0.349590 0.134970 -0.268250
v 0.349590 0.134970 0.268250
v 0.381610 -0.079020 -0.220320
v 0.381610 -0.079020 0.220320
v 0.381610 0.134970 -0.220320
v 0.381610 0.134970 0.220320
v 0.407100 -0.079020 -0.168630
v 0.407100 -0.079020 0.168630
v 0.407100 0.134970 -0.168630
v 0.407100 0.134970 0.168630
v 0.425630 -0.079020 -0.114050
v 0.425630 -0.079020 0.114050
v 0.425630 0.134970 -0.114050
v 0.425630 0.134970 0.114050
v 0.436880 -0.079020 -0.057520
v 0.436880 -0.079020 0.057520
v 0.436880 0.134970 -0.057520
v 0.436880 0.134970 0.057520
v 0.440650 -0.079020 0.000000
v 0.440650 0.134970 0.000000
l 343 347
l 199 223
l 31 69
l 1 4
l 339 343
l 223 251
l 23 31
l 4 8
l 335 339
l 251 286
l 19 23
l 8 12
l 331 335
l 286 324
l 15 19
l 12 16
l 323 331
l 324 332
l 11 15
l 16 20
l 285 323
l 332 336
l 7 11
l 20 24
l 250 285
l 336 340
l 3 7
l 24 32
l 222 250
l 340 344
l 1 3
l 32 71
l 198 222
l 344 348
l 71 105
l 170 198
l 348 352
l 105 133
l 156 170
l 352 355
l 133 157
l 132 156
l 351 355
l 157 171
l 104 132
l 347 351
l 171 199
l 69 104
l 289 309
l 90 128
l 65 90
l 35 46
l 175 203
l 290 310
l 45 65
l 152 174
l 264 289
l 46 66
l 227 265
l 203 227
l 35 45
l 265 290
l 9 13
l 135 159
l 287 325
l 354 356
l 13 17
l 107 135
l 325 333
l 350 354
l 17 21
l 72 107
l 333 337
l 346 350
l 21 25
l 34 72
l 337 341
l 342 346
l 25 33
l 26 34
l 341 345
l 338 342
l 33 70
l 22 26
l 345 349
l 334 338
l 70 106
l 18 22
l 349 353
l 326 334
l 106 134
l 14 18
l 353 356
l 288 326
l 134 158
l 10 14
l 253 288
l 158 186
l 6 10
l 225 253
l 186 200
l 2 6
l 201 225
l 200 224
l 2 5
l 187 201
l 224 252
l 5 9
l 159 187
l 252 287
l 47 67
l 228 266
l 266 291
l 312 322
l 155 183
l 48 68
l 291 311
l 182 204
l 67 92
l 292 312
l 93 131
l 131 155
l 311 322
l 68 93
l 309 321
l 91 129
l 128 152
l 153 175
l 66 91
l 202 226
l 226 264
l 129 153
l 310 321
l 174 202
l 36 47
l 229 267
l 204 228
l 183 205
l 267 292
l 130 154
l 92 130
l 205 229
l 36 48
l 154 182
l 245 263
l 249 271
l 119 141
l 117 139
l 115 137
l 151 169
l 169 177
l 103 127
l 127 149
l 149 167
l 167 185
l 101 125
l 125 147
l 147 165
l 165 181
l 161 173
l 143 161
l 121 143
l 97 121
l 163 179
l 145 163
l 123 145
l 99 123
l 239 245
l 217 239
l 243 249
l 221 243
l 241 247
l 219 241
l 189 207
l 177 189
l 261 279
l 237 261
l 215 237
l 197 215
l 185 197
l 259 277
l 235 259
l 213 235
l 195 213
l 181 195
l 173 191
l 191 209
l 209 231
l 231 255
l 179 193
l 193 211
l 211 233
l 233 257
l 255 273
l 257 275
l 216 238
l 254 272
l 94 112
l 88 110
l 256 274
l 272 293
l 274 295
l 293 301
l 301 313
l 303 315
l 313 327
l 315 328
l 295 303
l 242 248
l 319 330
l 317 329
l 307 319
l 305 317
l 299 307
l 297 305
l 278 299
l 276 297
l 248 270
l 260 278
l 258 276
l 220 242
l 282 284
l 246 268
l 240 246
l 280 282
l 244 262
l 238 244
l 273 294
l 302 314
l 314 327
l 294 302
l 306 318
l 308 320
l 277 298
l 279 300
l 283 284
l 281 283
l 318 329
l 320 330
l 298 306
l 300 308
l 275 296
l 296 304
l 304 316
l 247 269
l 316 328
l 218 240
l 188 206
l 176 188
l 236 260
l 214 236
l 196 214
l 184 196
l 234 258
l 212 234
l 194 212
l 180 194
l 172 190
l 190 208
l 208 230
l 230 254
l 178 192
l 192 210
l 210 232
l 232 256
l 112 118
l 118 140
l 110 116
l 116 138
l 108 114
l 114 136
l 150 168
l 168 176
l 84 102
l 102 126
l 126 148
l 148 166
l 166 184
l 82 100
l 100 124
l 124 146
l 146 164
l 164 180
l 160 172
l 142 160
l 120 142
l 96 120
l 162 178
l 144 162
l 122 144
l 98 122
l 78 96
l 80 98
l 79 97
l 81 99
l 58 79
l 60 81
l 50 58
l 38 50
l 40 52
l 27 38
l 28 40
l 52 60
l 111 117
l 30 44
l 29 42
l 44 56
l 42 54
l 56 64
l 54 62
l 64 85
l 62 83
l 89 111
l 85 103
l 83 101
l 73 75
l 87 109
l 109 115
l 75 77
l 95 113
l 113 119
l 57 78
l 37 49
l 27 37
l 49 57
l 41 53
l 43 55
l 61 82
l 63 84
l 73 74
l 74 76
l 29 41
l 30 43
l 53 61
l 55 63
l 59 80
l 51 59
l 39 51
l 86 108
l 28 39
