# atego_detail_wire.obj - feature-edge wireframe, ISO 8855, metre
o detail_wire_coarse
v -0.685520 -0.094730 0.778240
v -0.685520 -0.076740 0.734810
v -0.685520 -0.076740 0.821660
v -0.685520 -0.033320 0.716830
v -0.685520 -0.033320 0.839640
v -0.685520 0.010100 0.734810
v -0.685520 0.010100 0.821660
v -0.685520 0.028090 0.778240
v -0.657610 -0.056770 0.567010
v -0.657610 -0.038780 0.523590
v -0.657610 -0.038780 0.610440
v -0.657610 -0.023450 0.955760
v -0.657610 -0.005470 0.912340
v -0.657610 -0.005470 0.999190
v -0.657610 0.004640 0.505610
v -0.657610 0.004640 0.628420
v -0.657610 0.037950 0.894350
v -0.657610 0.037950 1.017170
v -0.657610 0.048060 0.523590
v -0.657610 0.048060 0.610440
v -0.657610 0.066040 0.567010
v -0.657610 0.081370 0.912340
v -0.657610 0.081370 0.999190
v -0.657610 0.099360 0.955760
v -0.574730 -0.105680 0.500150
v -0.574730 -0.105680 0.643150
v -0.574730 0.101840 0.500150
v -0.574730 0.101840 0.643150
v -0.554960 -0.132800 0.883140
v -0.554960 -0.132800 1.033970
v -0.554960 -0.088120 0.883140
v -0.554960 -0.088120 1.033970
v -0.554960 -0.043430 0.883140
v -0.554960 -0.043430 1.033970
v -0.554960 0.001250 0.883140
v -0.554960 0.001250 1.033970
v -0.554960 0.045930 0.883140
v -0.554960 0.045930 1.033970
v -0.554960 0.090620 0.883140
v -0.554960 0.090620 1.033970
v -0.554960 0.135310 0.883140
v -0.554960 0.135310 1.033970
v -0.530840 -0.177490 0.883140
v -0.530840 -0.177490 0.921640
v -0.530840 -0.177490 0.960140
v -0.530840 -0.177490 0.998640
v -0.530840 -0.177490 1.020230
v -0.530840 0.179990 0.884770
v -0.530840 0.179990 0.923260
v -0.530840 0.179990 0.961760
v -0.530840 0.179990 1.000260
v -0.530840 0.179990 1.021860
v -0.528800 -0.056770 0.567010
v -0.528800 -0.038780 0.523590
v -0.528800 -0.038780 0.610440
v -0.528800 -0.023450 0.955760
v -0.528800 -0.005470 0.912340
v -0.528800 -0.005470 0.999190
v -0.528800 0.004640 0.505610
v -0.528800 0.004640 0.628420
v -0.528800 0.037950 0.894350
v -0.528800 0.037950 1.017170
v -0.528800 0.048060 0.523590
v -0.528800 0.048060 0.610440
v -0.528800 0.066040 0.567010
v -0.528800 0.081370 0.912340
v -0.528800 0.081370 0.999190
v -0.528800 0.099360 0.955760
v -0.471750 -0.094730 0.778240
v -0.471750 -0.076740 0.734810
v -0.471750 -0.076740 0.821660
v -0.471750 -0.033320 0.716830
v -0.471750 -0.033320 0.839640
v -0.471750 0.010100 0.734810
v -0.471750 0.010100 0.821660
v -0.471750 0.028090 0.778240
v -0.470950 -0.173400 0.889450
v -0.470950 0.169570 0.889450
v -0.440040 -0.105680 0.643150
v -0.440040 0.101840 0.643150
v -0.376980 -0.105680 0.500150
v -0.376980 0.101840 0.500150
v -0.357890 -0.177490 0.883140
v -0.357890 -0.088120 1.075630
v -0.357890 -0.087570 1.089900
v -0.357890 -0.043430 1.075630
v -0.357890 -0.043430 1.101050
v -0.357890 0.001250 1.075630
v -0.357890 0.001250 1.101050
v -0.357890 0.045930 1.075630
v -0.357890 0.045930 1.101050
v -0.357890 0.090620 1.075630
v -0.357890 0.090620 1.089900
v -0.357890 0.179990 0.883140
v -0.357890 0.179990 1.043430
v -0.160820 -0.177490 0.883140
v -0.160820 -0.088120 1.075630
v -0.160820 -0.087570 1.101050
v -0.160820 0.090620 1.075630
v -0.160820 0.091170 1.101050
v -0.160820 0.255010 0.883140
v -0.160820 0.255010 1.037130
v 0.036250 -0.177490 0.883140
v 0.036250 -0.088120 1.075630
v 0.036250 -0.087570 1.101050
v 0.036250 0.090620 1.075630
v 0.036250 0.091170 1.101050
v 0.036250 0.255010 0.883140
v 0.036250 0.255010 1.037130
v 0.233330 -0.177490 0.883140
v 0.233330 -0.088120 1.075630
v 0.233330 -0.087570 1.089900
v 0.233330 -0.043430 1.075630
v 0.233330 -0.042890 1.101050
v 0.233330 0.001250 1.075630
v 0.233330 0.001800 1.101050
v 0.233330 0.045930 1.075630
v 0.233330 0.046480 1.101050
v 0.233330 0.090620 1.075630
v 0.233330 0.091170 1.089900
v 0.233330 0.255010 0.883140
v 0.233330 0.255010 1.037130
v 0.430390 -0.177490 1.043430
v 0.430390 0.255010 0.883140
v 0.430390 0.255010 1.037130
v 0.492560 -0.105680 0.500150
v 0.492560 -0.105680 0.643150
v 0.492560 0.101840 0.500150
v 0.492560 0.101840 0.643150
v 0.626120 -0.173400 0.889450
v 0.626120 0.169570 0.889450
v 0.627470 -0.177490 0.883140
v 0.627470 -0.177490 0.921640
v 0.627470 -0.177490 0.960140
v 0.627470 -0.177490 0.998640
v 0.627470 -0.177490 1.020230
v 0.627470 -0.132800 0.834290
v 0.627470 -0.132800 1.043430
v 0.627470 -0.088120 0.834290
v 0.627470 -0.088120 1.041610
v 0.627470 -0.043430 0.834290
v 0.627470 -0.043430 1.041610
v 0.627470 0.001250 0.883140
v 0.627470 0.001250 1.041610
v 0.627470 0.045930 0.883140
v 0.627470 0.045930 1.041610
v 0.627470 0.090620 0.883140
v 0.627470 0.090620 1.041610
v 0.627470 0.135310 0.883140
v 0.627470 0.135310 1.041610
v 0.627470 0.179990 1.020230
v 0.627470 0.255010 0.883140
v 0.627470 0.255010 0.921640
v 0.627470 0.255010 0.960140
v 0.627470 0.255010 0.998640
v 0.627470 0.255010 1.013930
v 0.770180 0.286320 0.880170
v 0.770840 0.278840 0.922740
v 0.790130 0.312770 0.870440
v 1.087960 -0.332840 0.548300
v 1.087960 -0.332840 0.707020
v 1.087960 0.329560 0.548300
v 1.087960 0.329560 0.707020
v 1.135090 -0.332840 0.548300
v 1.135090 -0.332840 0.707020
v 1.135090 0.329560 0.548300
v 1.135090 0.329560 0.707020
v 1.193660 -0.348260 0.544330
v 1.193660 -0.348260 0.702360
v 1.193660 -0.230740 0.544330
v 1.193660 -0.230740 0.702360
v 1.193660 -0.113230 0.544330
v 1.193660 -0.113230 0.702360
v 1.193660 0.004290 0.544330
v 1.193660 0.004290 0.702360
v 1.193660 0.121810 0.544330
v 1.193660 0.121810 0.702360
v 1.193660 0.239330 0.544330
v 1.193660 0.239330 0.702360
v 1.193660 0.356840 0.544330
v 1.193660 0.356840 0.702360
v 1.228260 -0.384110 0.536020
v 1.228260 -0.384110 0.719310
v 1.228260 0.380830 0.536020
v 1.228260 0.380830 0.719310
v 1.250700 -0.348260 0.544330
v 1.250700 -0.348260 0.557500
v 1.250700 -0.348260 0.570670
v 1.250700 -0.348260 0.583840
v 1.250700 -0.348260 0.610180
v 1.250700 -0.348260 0.623350
v 1.250700 -0.348260 0.649680
v 1.250700 -0.348260 0.662850
v 1.250700 -0.348260 0.689190
v 1.250700 -0.348260 0.702360
v 1.250700 -0.230740 0.557500
v 1.250700 -0.230740 0.570670
v 1.250700 -0.230740 0.583840
v 1.250700 -0.230740 0.610180
v 1.250700 -0.230740 0.623350
v 1.250700 -0.230740 0.649680
v 1.250700 -0.230740 0.662850
v 1.250700 -0.230740 0.689190
v 1.250700 -0.113230 0.557500
v 1.250700 -0.113230 0.570670
v 1.250700 -0.113230 0.583840
v 1.250700 -0.113230 0.610180
v 1.250700 -0.113230 0.623350
v 1.250700 -0.113230 0.649680
v 1.250700 -0.113230 0.662850
v 1.250700 -0.113230 0.689190
v 1.250700 0.004290 0.557500
v 1.250700 0.004290 0.570670
v 1.250700 0.004290 0.583840
v 1.250700 0.004290 0.610180
v 1.250700 0.004290 0.623350
v 1.250700 0.004290 0.649680
v 1.250700 0.004290 0.662850
v 1.250700 0.004290 0.689190
v 1.250700 0.121810 0.570670
v 1.250700 0.121810 0.583840
v 1.250700 0.121810 0.610180
v 1.250700 0.121810 0.623350
v 1.250700 0.121810 0.649680
v 1.250700 0.121810 0.662850
v 1.250700 0.121810 0.689190
v 1.250700 0.239330 0.570670
v 1.250700 0.239330 0.583840
v 1.250700 0.239330 0.610180
v 1.250700 0.239330 0.623350
v 1.250700 0.239330 0.649680
v 1.250700 0.239330 0.662850
v 1.250700 0.239330 0.689190
v 1.250700 0.356840 0.570670
v 1.250700 0.356840 0.583840
v 1.250700 0.356840 0.610180
v 1.250700 0.356840 0.623350
v 1.250700 0.356840 0.649680
v 1.250700 0.356840 0.662850
v 1.250700 0.356840 0.689190
v 1.250700 0.356840 0.702360
v 1.251610 0.121810 0.557500
v 1.251610 0.239330 0.557500
v 1.251610 0.356840 0.544330
v 1.251610 0.356840 0.557500
v 1.266240 -0.348280 0.544330
v 1.266240 -0.348280 0.557500
v 1.266240 -0.348260 0.570670
v 1.266240 -0.348260 0.583840
v 1.266240 -0.348260 0.610180
v 1.266240 -0.348260 0.623350
v 1.266240 -0.348260 0.649680
v 1.266240 -0.348260 0.662850
v 1.266240 -0.348260 0.689190
v 1.266240 -0.348260 0.702360
v 1.266240 -0.230760 0.544330
v 1.266240 -0.230760 0.557500
v 1.266240 -0.230740 0.570670
v 1.266240 -0.230740 0.583840
v 1.266240 -0.230740 0.610180
v 1.266240 -0.230740 0.623350
v 1.266240 -0.230740 0.649680
v 1.266240 -0.230740 0.662850
v 1.266240 -0.230740 0.689190
v 1.266240 -0.230740 0.702360
v 1.266240 -0.113250 0.544330
v 1.266240 -0.113250 0.557500
v 1.266240 -0.113230 0.570670
v 1.266240 -0.113230 0.583840
v 1.266240 -0.113230 0.610180
v 1.266240 -0.113230 0.623350
v 1.266240 -0.113230 0.649680
v 1.266240 -0.113230 0.662850
v 1.266240 -0.113230 0.689190
v 1.266240 -0.113230 0.702360
v 1.266240 0.004270 0.544330
v 1.266240 0.004270 0.557500
v 1.266240 0.004290 0.570670
v 1.266240 0.004290 0.583840
v 1.266240 0.004290 0.610180
v 1.266240 0.004290 0.623350
v 1.266240 0.004290 0.649680
v 1.266240 0.004290 0.662850
v 1.266240 0.004290 0.689190
v 1.266240 0.004290 0.702360
v 1.266240 0.121810 0.570670
v 1.266240 0.121810 0.583840
v 1.266240 0.121810 0.610180
v 1.266240 0.121810 0.623350
v 1.266240 0.121810 0.649680
v 1.266240 0.121810 0.662850
v 1.266240 0.121810 0.689190
v 1.266240 0.121810 0.702360
v 1.266240 0.239330 0.570670
v 1.266240 0.239330 0.583840
v 1.266240 0.239330 0.610180
v 1.266240 0.239330 0.623350
v 1.266240 0.239330 0.649680
v 1.266240 0.239330 0.662850
v 1.266240 0.239330 0.689190
v 1.266240 0.239330 0.702360
v 1.266240 0.356840 0.570670
v 1.266240 0.356840 0.583840
v 1.266240 0.356840 0.610180
v 1.266240 0.356840 0.623350
v 1.266240 0.356840 0.649680
v 1.266240 0.356840 0.662850
v 1.266240 0.356840 0.689190
v 1.266240 0.356840 0.702360
v 1.267150 0.121790 0.544330
v 1.267150 0.121790 0.557500
v 1.267150 0.239310 0.544330
v 1.267150 0.239310 0.557500
v 1.267150 0.356820 0.544330
v 1.267150 0.356820 0.557500
l 106 119
l 107 120
l 99 106
l 100 107
l 92 99
l 93 100
l 90 92
l 91 93
l 88 90
l 89 91
l 86 88
l 87 89
l 84 86
l 85 87
l 84 97
l 85 98
l 97 104
l 98 105
l 104 111
l 105 112
l 111 113
l 112 114
l 113 115
l 114 116
l 115 117
l 116 118
l 117 119
l 118 120
l 149 152
l 124 152
l 121 124
l 108 121
l 101 108
l 94 101
l 41 48
l 48 94
l 147 149
l 39 41
l 145 147
l 37 39
l 143 145
l 35 37
l 141 143
l 33 35
l 139 141
l 31 33
l 137 139
l 29 31
l 132 137
l 103 110
l 96 103
l 83 96
l 43 83
l 29 43
l 150 151
l 52 95
l 42 52
l 148 150
l 40 42
l 146 148
l 38 40
l 144 146
l 36 38
l 142 144
l 34 36
l 140 142
l 32 34
l 138 140
l 30 32
l 123 136
l 136 138
l 30 47
l 152 153
l 48 49
l 153 154
l 49 50
l 154 155
l 50 51
l 125 156
l 122 125
l 109 122
l 102 109
l 151 156
l 95 102
l 43 44
l 44 45
l 45 46
l 132 133
l 133 134
l 134 135
l 81 126
l 126 127
l 26 28
l 27 28
l 25 27
l 25 26
l 128 129
l 82 128
l 126 128
l 79 80
l 28 80
l 26 79
l 27 82
l 25 81
l 130 131
l 78 131
l 77 78
l 77 130
l 77 79
l 127 130
l 78 80
l 129 131
l 161 165
l 160 161
l 160 164
l 163 167
l 161 163
l 162 166
l 162 163
l 160 162
l 182 184
l 184 185
l 183 185
l 182 183
l 166 184
l 164 182
l 167 185
l 165 183
l 246 256
l 256 266
l 266 276
l 276 310
l 310 312
l 312 314
l 243 245
l 313 315
l 242 243
l 311 313
l 212 242
l 277 311
l 204 212
l 267 277
l 196 204
l 257 267
l 187 196
l 247 257
l 188 197
l 248 258
l 197 205
l 258 268
l 205 213
l 268 278
l 213 220
l 278 286
l 220 227
l 286 294
l 227 234
l 294 302
l 228 235
l 295 303
l 221 228
l 287 295
l 214 221
l 279 287
l 206 214
l 269 279
l 198 206
l 259 269
l 189 198
l 249 259
l 190 199
l 250 260
l 199 207
l 260 270
l 207 215
l 270 280
l 215 222
l 280 288
l 222 229
l 288 296
l 229 236
l 296 304
l 230 237
l 297 305
l 223 230
l 289 297
l 216 223
l 281 289
l 208 216
l 271 281
l 200 208
l 261 271
l 191 200
l 251 261
l 192 201
l 252 262
l 201 209
l 262 272
l 209 217
l 272 282
l 217 224
l 282 290
l 224 231
l 290 298
l 231 238
l 298 306
l 232 239
l 299 307
l 225 232
l 291 299
l 218 225
l 283 291
l 210 218
l 273 283
l 202 210
l 263 273
l 193 202
l 253 263
l 194 203
l 254 264
l 203 211
l 264 274
l 211 219
l 274 284
l 219 226
l 284 292
l 226 233
l 292 300
l 233 240
l 300 308
l 301 309
l 293 301
l 285 293
l 275 285
l 265 275
l 255 265
l 168 170
l 170 172
l 172 174
l 174 176
l 176 178
l 178 180
l 169 171
l 171 173
l 173 175
l 175 177
l 177 179
l 179 181
l 168 186
l 180 244
l 181 241
l 169 195
l 157 159
l 158 159
l 22 24
l 23 24
l 18 23
l 14 18
l 12 14
l 12 13
l 13 17
l 17 22
l 58 62
l 56 58
l 56 57
l 57 61
l 61 66
l 66 68
l 67 68
l 62 67
l 19 21
l 20 21
l 16 20
l 11 16
l 9 11
l 9 10
l 10 15
l 15 19
l 55 60
l 53 55
l 53 54
l 54 59
l 59 63
l 63 65
l 64 65
l 60 64
l 6 8
l 7 8
l 5 7
l 3 5
l 1 3
l 1 2
l 2 4
l 4 6
l 71 73
l 69 71
l 69 70
l 70 72
l 72 74
l 74 76
l 75 76
l 73 75
