# atego_cab_wire.obj - feature-edge wireframe, ISO 8855, metre
o cab_wire_coarse
v -0.562040 -1.083220 0.675190
v -0.562040 -0.649460 0.675190
v -0.562040 0.655150 0.675190
v -0.562040 1.088920 0.675190
v -0.476410 -1.048240 3.236680
v -0.476410 1.055940 3.236680
v -0.472260 -1.083220 0.876720
v -0.472260 -0.649460 0.876720
v -0.472260 0.655150 0.876720
v -0.472260 1.088920 0.876720
v -0.447240 -1.132520 0.670800
v -0.447240 1.138210 0.670800
v -0.430770 -1.132020 0.659550
v -0.430770 1.137720 0.659550
v -0.365090 -1.083220 0.996820
v -0.365090 -0.649460 0.996820
v -0.365090 0.655150 0.996820
v -0.365090 1.088920 0.996820
v -0.352100 -1.132020 0.821610
v -0.352100 1.137720 0.821610
v -0.302890 -1.083220 1.050920
v -0.302890 -0.649460 1.050920
v -0.302890 0.655150 1.050920
v -0.302890 1.088920 1.050920
v -0.298220 -0.996080 2.894900
v -0.298220 1.003790 2.894900
v -0.264960 -0.943930 2.501180
v -0.264960 -0.943930 2.553110
v -0.264960 -0.312070 2.501180
v -0.264960 0.319780 2.501180
v -0.264960 0.951630 2.501180
v -0.264960 0.951630 2.553110
v -0.259030 -1.132020 0.917900
v -0.259030 1.137720 0.917900
v -0.254180 -1.049190 1.197650
v -0.254180 -0.618430 1.197650
v -0.254180 -0.519420 1.197650
v -0.254180 -0.302220 1.350720
v -0.254180 -0.004650 1.350720
v -0.254180 0.010350 1.350720
v -0.254180 0.307920 1.350720
v -0.254180 0.525120 1.197650
v -0.254180 0.624130 1.197650
v -0.254180 1.054890 1.197650
v -0.250780 -0.966140 1.794430
v -0.250780 -0.955610 2.059520
v -0.250780 0.961310 2.059520
v -0.250780 0.971840 1.794430
v -0.250120 -0.967240 1.746460
v -0.250120 -0.967240 1.747250
v -0.250120 0.972940 1.746460
v -0.250120 0.972940 1.747250
v -0.249460 -0.968330 1.700070
v -0.249460 0.974030 1.700070
v -0.249020 -0.943900 2.238580
v -0.249020 0.949600 2.238580
v -0.248140 -0.970530 1.605700
v -0.248140 0.976230 1.605700
v -0.245510 -0.985090 1.199070
v -0.245510 -0.980150 1.345430
v -0.245510 -0.974920 1.477940
v -0.245510 0.980620 1.477940
v -0.245510 0.985850 1.345430
v -0.245510 0.990790 1.199070
v -0.242000 -0.922840 2.288520
v -0.242000 -0.897230 2.335540
v -0.242000 -0.871630 2.382560
v -0.242000 -0.811940 2.415910
v -0.242000 -0.802190 2.422010
v -0.242000 -0.711970 2.430540
v -0.242000 -0.605490 2.434180
v -0.242000 -0.499010 2.437820
v -0.242000 -0.392530 2.441460
v -0.242000 -0.286060 2.445100
v -0.242000 -0.143760 2.445100
v -0.242000 0.002850 2.445100
v -0.242000 0.149460 2.445100
v -0.242000 0.291750 2.445100
v -0.242000 0.398230 2.441460
v -0.242000 0.504710 2.437820
v -0.242000 0.611190 2.434180
v -0.242000 0.717670 2.430540
v -0.242000 0.807890 2.422010
v -0.242000 0.817640 2.415910
v -0.242000 0.877330 2.382560
v -0.242000 0.902930 2.335540
v -0.242000 0.928530 2.288520
v -0.241660 -0.978750 1.383070
v -0.241660 0.984450 1.383070
v -0.241400 -0.806910 1.808870
v -0.241400 -0.803090 1.921510
v -0.241400 -0.799280 2.034150
v -0.241400 -0.689260 1.809660
v -0.241400 -0.685420 1.922310
v -0.241400 -0.681580 2.034950
v -0.241400 -0.681520 1.809710
v -0.241400 -0.677720 1.922360
v -0.241400 -0.673920 2.035000
v -0.241400 -0.550890 1.810590
v -0.241400 -0.547820 1.923240
v -0.241400 -0.544770 2.035880
v -0.241400 -0.412510 1.811530
v -0.241400 -0.410230 1.924170
v -0.241400 -0.407950 2.036820
v -0.241400 -0.274140 1.812460
v -0.241400 -0.272640 1.925100
v -0.241400 -0.271140 2.037750
v -0.241400 -0.155450 1.813260
v -0.241400 -0.154950 1.925900
v -0.241400 -0.154460 2.038550
v -0.241400 0.160150 2.038550
v -0.241400 0.160650 1.925900
v -0.241400 0.161140 1.813260
v -0.241400 0.276840 2.037750
v -0.241400 0.278340 1.925100
v -0.241400 0.279840 1.812460
v -0.241400 0.413650 2.036820
v -0.241400 0.415930 1.924170
v -0.241400 0.418210 1.811530
v -0.241400 0.550470 2.035880
v -0.241400 0.553520 1.923240
v -0.241400 0.556580 1.810590
v -0.241400 0.679620 2.035000
v -0.241400 0.683420 1.922360
v -0.241400 0.687220 1.809710
v -0.241400 0.687280 2.034950
v -0.241400 0.691120 1.922310
v -0.241400 0.694960 1.809660
v -0.241400 0.804980 2.034150
v -0.241400 0.808790 1.921510
v -0.241400 0.812610 1.808870
v -0.240700 -1.083220 1.105020
v -0.240700 -0.649460 1.105020
v -0.240700 0.655150 1.105020
v -0.240700 1.088920 1.105020
v -0.233670 -1.083220 1.105020
v -0.233670 -0.652460 1.105020
v -0.233670 0.658160 1.105020
v -0.233670 1.088920 1.105020
v -0.231100 -1.025390 1.779320
v -0.231100 -1.014170 2.061640
v -0.231100 1.019870 2.061640
v -0.231100 1.031090 1.779320
v -0.230870 0.002850 1.605700
v -0.230710 -0.966140 1.794430
v -0.230710 -0.965870 1.787890
v -0.230710 -0.960600 1.920440
v -0.230710 -0.955610 2.059520
v -0.230710 -0.955330 2.052980
v -0.230710 0.961030 2.052980
v -0.230710 0.961310 2.059520
v -0.230710 0.966300 1.920440
v -0.230710 0.971570 1.787890
v -0.230710 0.971840 1.794430
v -0.230400 -1.026560 1.728240
v -0.230400 -1.026560 1.729070
v -0.230400 1.032260 1.728240
v -0.230400 1.032260 1.729070
v -0.230050 -0.967240 1.746460
v -0.230050 -0.967240 1.747250
v -0.230050 -0.966970 1.739930
v -0.230050 -0.966970 1.740710
v -0.230050 0.972660 1.739930
v -0.230050 0.972660 1.740710
v -0.230050 0.972940 1.746460
v -0.230050 0.972940 1.747250
v -0.229700 -1.027720 1.678820
v -0.229700 1.033420 1.678820
v -0.229390 -0.968330 1.700070
v -0.229390 -0.968060 1.693530
v -0.229390 0.973760 1.693530
v -0.229390 0.974030 1.700070
v -0.229230 -1.001710 2.252340
v -0.229230 1.007400 2.252340
v -0.229000 -0.943950 2.227170
v -0.229000 0.949650 2.227170
v -0.228950 -0.943900 2.238580
v -0.228950 -0.943630 2.232050
v -0.228950 0.949330 2.232050
v -0.228950 0.949600 2.238580
v -0.228300 -1.030060 1.578330
v -0.228300 1.035760 1.578330
v -0.228080 -0.970530 1.605700
v -0.228080 -0.970260 1.599170
v -0.228080 0.975960 1.599170
v -0.228080 0.976230 1.605700
v -0.225490 -1.045570 1.208450
v -0.225490 -1.044090 1.197650
v -0.225490 -1.040310 1.301140
v -0.225490 -1.034740 1.442260
v -0.225490 1.040440 1.442260
v -0.225490 1.046010 1.301140
v -0.225490 1.049780 1.197650
v -0.225490 1.051270 1.208450
v -0.225440 -0.985090 1.199070
v -0.225440 -0.984820 1.192530
v -0.225440 -0.980150 1.345430
v -0.225440 -0.979880 1.338890
v -0.225440 -0.974920 1.477940
v -0.225440 -0.974650 1.471410
v -0.225440 -0.849650 1.193430
v -0.225440 -0.844150 1.193470
v -0.225440 -0.703470 1.194400
v -0.225440 -0.695600 1.194450
v -0.225440 -0.562800 1.195330
v -0.225440 -0.422130 1.196270
v -0.225440 -0.281460 1.197200
v -0.225440 -0.140780 1.198130
v -0.225440 -0.000110 1.199070
v -0.225440 0.000430 1.477940
v -0.225440 0.000870 1.345430
v -0.225440 0.004830 1.345430
v -0.225440 0.005270 1.477940
v -0.225440 0.005810 1.199070
v -0.225440 0.146480 1.198130
v -0.225440 0.287150 1.197200
v -0.225440 0.427830 1.196270
v -0.225440 0.568500 1.195330
v -0.225440 0.701300 1.194450
v -0.225440 0.709170 1.194400
v -0.225440 0.849850 1.193470
v -0.225440 0.855350 1.193430
v -0.225440 0.980350 1.471410
v -0.225440 0.980620 1.477940
v -0.225440 0.985580 1.338890
v -0.225440 0.985850 1.345430
v -0.225440 0.990520 1.192530
v -0.225440 0.990790 1.199070
v -0.221930 -0.922840 2.288520
v -0.221930 -0.922570 2.281990
v -0.221930 -0.919610 2.287410
v -0.221930 -0.898650 2.325900
v -0.221930 -0.897230 2.335540
v -0.221930 -0.896960 2.329000
v -0.221930 -0.871630 2.382560
v -0.221930 -0.871360 2.376020
v -0.221930 -0.811940 2.415910
v -0.221930 -0.811670 2.409380
v -0.221930 -0.802190 2.422010
v -0.221930 -0.801920 2.415470
v -0.221930 -0.711970 2.430540
v -0.221930 -0.711700 2.424010
v -0.221930 -0.605490 2.434180
v -0.221930 -0.605220 2.427650
v -0.221930 -0.499010 2.437820
v -0.221930 -0.498740 2.431290
v -0.221930 -0.392530 2.441460
v -0.221930 -0.392270 2.434930
v -0.221930 -0.286060 2.445100
v -0.221930 -0.285780 2.438570
v -0.221930 -0.143760 2.445100
v -0.221930 -0.143490 2.438570
v -0.221930 0.001370 2.438570
v -0.221930 0.002850 2.335540
v -0.221930 0.002850 2.445100
v -0.221930 0.004330 2.438570
v -0.221930 0.149190 2.438570
v -0.221930 0.149460 2.445100
v -0.221930 0.291480 2.438570
v -0.221930 0.291750 2.445100
v -0.221930 0.397960 2.434930
v -0.221930 0.398230 2.441460
v -0.221930 0.504440 2.431290
v -0.221930 0.504710 2.437820
v -0.221930 0.610920 2.427650
v -0.221930 0.611190 2.434180
v -0.221930 0.717400 2.424010
v -0.221930 0.717670 2.430540
v -0.221930 0.807620 2.415470
v -0.221930 0.807890 2.422010
v -0.221930 0.817370 2.409380
v -0.221930 0.817640 2.415910
v -0.221930 0.877060 2.376020
v -0.221930 0.877330 2.382560
v -0.221930 0.902660 2.329000
v -0.221930 0.902930 2.335540
v -0.221930 0.904350 2.325900
v -0.221930 0.925310 2.287410
v -0.221930 0.928270 2.281990
v -0.221930 0.928530 2.288520
v -0.221750 -0.979270 2.305520
v -0.221750 -0.952010 2.355600
v -0.221750 -0.924740 2.405670
v -0.221750 -0.861170 2.441200
v -0.221750 -0.850780 2.447690
v -0.221750 -0.754700 2.456780
v -0.221750 -0.641300 2.460660
v -0.221750 -0.527900 2.464530
v -0.221750 -0.414500 2.468410
v -0.221750 -0.301100 2.472290
v -0.221750 -0.149560 2.472290
v -0.221750 0.002850 2.472290
v -0.221750 0.155260 2.472290
v -0.221750 0.306800 2.472290
v -0.221750 0.420200 2.468410
v -0.221750 0.533600 2.464530
v -0.221750 0.647000 2.460660
v -0.221750 0.760400 2.456780
v -0.221750 0.856480 2.447690
v -0.221750 0.866870 2.441200
v -0.221750 0.930440 2.405670
v -0.221750 0.957700 2.355600
v -0.221750 0.984970 2.305520
v -0.221590 -0.978750 1.383070
v -0.221590 -0.978480 1.376540
v -0.221590 -0.000530 1.383070
v -0.221590 0.006230 1.383070
v -0.221590 0.984180 1.376540
v -0.221590 0.984450 1.383070
v -0.221390 -1.038820 1.341230
v -0.221390 1.044520 1.341230
v -0.211790 -1.132020 0.957430
v -0.211790 1.137720 0.957430
v -0.167200 -1.132520 1.016730
v -0.167200 1.138210 1.016730
v -0.164550 -1.132020 0.996970
v -0.164550 1.137720 0.996970
v -0.160170 -1.132520 1.016730
v -0.160170 1.138210 1.016730
v -0.157520 -1.132020 0.996970
v -0.157520 1.137720 0.996970
v -0.070960 -1.132020 0.992640
v -0.070960 1.137720 0.992640
v -0.041250 -0.919030 1.590750
v -0.041250 -0.919030 1.629980
v -0.041250 -0.919030 1.669210
v -0.041250 -0.864100 1.590750
v -0.041250 -0.864100 1.629980
v -0.041250 -0.864100 1.669210
v -0.041250 -0.861560 1.355360
v -0.041250 -0.861560 1.512290
v -0.041250 -0.861560 1.590750
v -0.041250 -0.861560 1.669210
v -0.041250 -0.777710 2.169950
v -0.041250 -0.703650 2.205350
v -0.041250 -0.629580 2.205350
v -0.041250 -0.555520 2.205350
v -0.041250 -0.481450 2.169950
v -0.041250 -0.397600 1.355360
v -0.041250 -0.397600 1.512290
v -0.041250 -0.397600 1.590750
v -0.041250 -0.397600 1.669210
v -0.041250 -0.392220 1.590750
v -0.041250 -0.392220 1.629980
v -0.041250 -0.392220 1.669210
v -0.041250 -0.344340 1.590750
v -0.041250 -0.344340 1.629980
v -0.041250 -0.344340 1.669210
v -0.041250 0.341900 1.590750
v -0.041250 0.341900 1.629980
v -0.041250 0.341900 1.669210
v -0.041250 0.396840 1.590750
v -0.041250 0.396840 1.629980
v -0.041250 0.396840 1.669210
v -0.041250 0.399380 1.355360
v -0.041250 0.399380 1.512290
v -0.041250 0.399380 1.590750
v -0.041250 0.399380 1.669210
v -0.041250 0.483220 2.169950
v -0.041250 0.557290 2.205350
v -0.041250 0.631350 2.205350
v -0.041250 0.705420 2.205350
v -0.041250 0.779480 2.169950
v -0.041250 0.863330 1.355360
v -0.041250 0.863330 1.512290
v -0.041250 0.863330 1.590750
v -0.041250 0.863330 1.669210
v -0.041250 0.868710 1.590750
v -0.041250 0.868710 1.629980
v -0.041250 0.868710 1.669210
v -0.041250 0.916590 1.590750
v -0.041250 0.916590 1.629980
v -0.041250 0.916590 1.669210
v -0.004790 -1.025390 1.779320
v -0.004790 -1.014170 2.061640
v -0.004790 1.019870 2.061640
v -0.004790 1.031090 1.779320
v -0.004090 -1.026560 1.728240
v -0.004090 -1.026560 1.729070
v -0.004090 1.032260 1.728240
v -0.004090 1.032260 1.729070
v -0.003380 -1.027720 1.678820
v -0.003380 1.033420 1.678820
v -0.002920 -1.001710 2.252340
v -0.002920 1.007400 2.252340
v -0.001980 -1.030060 1.578330
v -0.001980 1.035760 1.578330
v -0.001930 -0.943520 1.215650
v -0.001930 0.949220 1.215650
v -0.000110 -1.025390 1.779320
v -0.000110 -1.014170 2.061640
v -0.000110 1.019870 2.061640
v -0.000110 1.031090 1.779320
v 0.000590 -1.026560 1.728240
v 0.000590 -1.026560 1.729070
v 0.000590 -1.015860 1.728240
v 0.000590 -0.979690 1.713740
v 0.000590 -0.943520 1.646710
v 0.000590 -0.943520 1.666700
v 0.000590 -0.943520 1.699230
v 0.000590 0.949220 1.646710
v 0.000590 0.949220 1.666700
v 0.000590 0.949220 1.699230
v 0.000590 0.985390 1.713740
v 0.000590 1.021560 1.728240
v 0.000590 1.032260 1.728240
v 0.000590 1.032260 1.729070
v 0.000820 -1.058320 1.301140
v 0.000820 -1.045570 1.208450
v 0.000820 -1.044090 1.197650
v 0.000820 -1.034740 1.442260
v 0.000820 1.040440 1.442260
v 0.000820 1.049780 1.197650
v 0.000820 1.051270 1.208450
v 0.000820 1.064020 1.301140
v 0.001290 -1.027720 1.678820
v 0.001290 1.033420 1.678820
v 0.001760 -1.001710 2.252340
v 0.001760 1.007400 2.252340
v 0.002690 -1.030060 1.578330
v 0.002690 1.035760 1.578330
v 0.004560 -0.979270 2.305520
v 0.004560 0.984970 2.305520
v 0.004920 -1.038820 1.341230
v 0.004920 1.044520 1.341230
v 0.005500 -1.058320 1.301140
v 0.005500 -1.049190 1.197650
v 0.005500 -1.045570 1.208450
v 0.005500 -1.044090 1.197650
v 0.005500 -1.034740 1.442260
v 0.005500 -0.004650 1.350720
v 0.005500 0.010350 1.350720
v 0.005500 1.040440 1.442260
v 0.005500 1.049780 1.197650
v 0.005500 1.051270 1.208450
v 0.005500 1.054890 1.197650
v 0.005500 1.064020 1.301140
v 0.009240 -0.979270 2.305520
v 0.009240 0.984970 2.305520
v 0.012290 -0.861560 1.355360
v 0.012290 -0.397600 1.355360
v 0.012290 0.399380 1.355360
v 0.012290 0.863330 1.355360
v 0.017730 -0.861560 1.353150
v 0.017730 -0.397600 1.353150
v 0.017730 0.399380 1.353150
v 0.017730 0.863330 1.353150
v 0.030810 -0.851660 1.181820
v 0.030810 -0.851660 1.384930
v 0.030810 -0.851660 1.700990
v 0.030810 -0.771390 2.201730
v 0.030810 -0.700480 2.237120
v 0.030810 -0.629580 2.237120
v 0.030810 -0.558680 2.237120
v 0.030810 -0.487770 2.201730
v 0.030810 -0.407510 1.181820
v 0.030810 -0.407510 1.384930
v 0.030810 -0.407510 1.700990
v 0.030810 0.409280 1.181820
v 0.030810 0.409280 1.384930
v 0.030810 0.409280 1.700990
v 0.030810 0.489550 2.201730
v 0.030810 0.560450 2.237120
v 0.030810 0.631350 2.237120
v 0.030810 0.702260 2.237120
v 0.030810 0.773160 2.201730
v 0.030810 0.853430 1.181820
v 0.030810 0.853430 1.384930
v 0.030810 0.853430 1.700990
v 0.033250 -0.964470 2.324230
v 0.033250 0.970170 2.324230
v 0.033540 -0.964470 2.322350
v 0.033540 0.970170 2.322350
v 0.062520 -0.933120 1.228210
v 0.062520 0.938820 1.228210
v 0.066230 -1.016150 1.730080
v 0.066230 -1.005460 1.730080
v 0.066230 -0.933120 1.701070
v 0.066230 0.938820 1.701070
v 0.066230 1.011160 1.730080
v 0.066230 1.021850 1.730080
v 0.077210 -0.791320 1.412630
v 0.077210 -0.710450 1.412630
v 0.077210 -0.629580 1.412630
v 0.077210 -0.548710 1.412630
v 0.077210 -0.467840 1.412630
v 0.077210 0.469610 1.412630
v 0.077210 0.550480 1.412630
v 0.077210 0.631350 1.412630
v 0.077210 0.712230 1.412630
v 0.077210 0.793100 1.412630
v 0.084960 -1.126050 0.988700
v 0.084960 1.131740 0.988700
v 0.086360 -0.851660 1.622520
v 0.086360 -0.407510 1.622520
v 0.086360 0.409280 1.622520
v 0.086360 0.853430 1.622520
v 0.095240 -0.998260 2.076590
v 0.095240 -0.996150 2.076590
v 0.095240 -0.990570 2.076590
v 0.095240 0.996270 2.076590
v 0.095240 1.001840 2.076590
v 0.095240 1.003960 2.076590
v 0.097110 -1.004600 1.870930
v 0.097110 -1.002480 1.870930
v 0.097110 -0.996910 1.870930
v 0.097110 -0.986890 2.205600
v 0.097110 -0.984770 2.205600
v 0.097110 -0.979200 2.205600
v 0.097110 0.984900 2.205600
v 0.097110 0.990470 2.205600
v 0.097110 0.992590 2.205600
v 0.097110 1.002610 1.870930
v 0.097110 1.008180 1.870930
v 0.097110 1.010300 1.870930
v 0.098980 -1.008490 1.749400
v 0.098980 -1.006380 1.749400
v 0.098980 -1.000800 1.749400
v 0.098980 1.006500 1.749400
v 0.098980 1.012080 1.749400
v 0.098980 1.014190 1.749400
v 0.104810 -1.040190 1.196750
v 0.104810 1.045890 1.196750
v 0.109980 -0.925460 1.237450
v 0.109980 0.931160 1.237450
v 0.114560 -1.008490 1.731430
v 0.114560 -1.008490 1.732260
v 0.114560 -1.006380 1.731430
v 0.114560 -1.000800 1.731430
v 0.114560 -0.997800 1.731430
v 0.114560 -0.925460 1.702430
v 0.114560 0.931160 1.702430
v 0.114560 1.003500 1.731430
v 0.114560 1.006500 1.731430
v 0.114560 1.012080 1.731430
v 0.114560 1.014190 1.731430
v 0.114560 1.014190 1.732260
v 0.125790 -1.043160 1.368220
v 0.125790 -1.035050 1.368220
v 0.125790 1.040750 1.368220
v 0.125790 1.048850 1.368220
v 0.127270 -1.034920 1.338260
v 0.127270 -1.033500 1.338260
v 0.127270 1.039200 1.338260
v 0.127270 1.040620 1.338260
v 0.127300 -1.043160 1.398690
v 0.127300 -1.035050 1.398690
v 0.127300 1.040750 1.398690
v 0.127300 1.048850 1.398690
v 0.130760 -0.978800 2.243000
v 0.130760 -0.976690 2.243000
v 0.130760 -0.971110 2.243000
v 0.130760 0.976810 2.243000
v 0.130760 0.982390 2.243000
v 0.130760 0.984500 2.243000
v 0.132680 -1.031050 1.435990
v 0.132680 -1.029630 1.435990
v 0.132680 1.035330 1.435990
v 0.132680 1.036750 1.435990
v 0.141910 -0.851660 1.387140
v 0.141910 -0.407510 1.387140
v 0.141910 -0.407510 1.544060
v 0.141910 0.409280 1.387140
v 0.141910 0.853430 1.387140
v 0.141910 0.853430 1.544060
v 0.166980 -1.125390 0.981810
v 0.166980 1.131090 0.981810
v 0.174320 -1.043160 1.366710
v 0.174320 -1.035050 1.366710
v 0.174320 1.040750 1.366710
v 0.174320 1.048850 1.366710
v 0.175830 -1.043160 1.397190
v 0.175830 -1.035050 1.397190
v 0.175830 1.040750 1.397190
v 0.175830 1.048850 1.397190
v 0.177930 -1.042420 1.196090
v 0.177930 -1.037320 1.196090
v 0.177930 -0.011410 1.349160
v 0.177930 0.017110 1.349160
v 0.177930 1.043020 1.196090
v 0.177930 1.048120 1.196090
v 0.177940 -1.028180 1.435250
v 0.177940 -1.026760 1.435250
v 0.177940 1.032460 1.435250
v 0.177940 1.033880 1.435250
v 0.178220 -1.032050 1.336070
v 0.178220 -1.030630 1.336070
v 0.178220 1.036330 1.336070
v 0.178220 1.037750 1.336070
v 0.184620 -0.925460 1.215920
v 0.184620 0.931160 1.215920
v 0.184670 -1.008490 1.697990
v 0.184670 -1.006380 1.697990
v 0.184670 -1.000800 1.697990
v 0.184670 -0.997800 1.697990
v 0.184670 -0.925460 1.668980
v 0.184670 0.931160 1.668980
v 0.184670 1.003500 1.697990
v 0.184670 1.006500 1.697990
v 0.184670 1.012080 1.697990
v 0.184670 1.014190 1.697990
v 0.186850 -0.976710 2.243000
v 0.186850 -0.974590 2.243000
v 0.186850 -0.969020 2.243000
v 0.186850 0.974720 2.243000
v 0.186850 0.980290 2.243000
v 0.186850 0.982410 2.243000
v 0.210600 -0.854130 2.501180
v 0.210600 -0.854130 2.996590
v 0.210600 0.861840 2.501180
v 0.210600 0.861840 2.996590
v 0.219860 -1.027440 1.433960
v 0.219860 -1.026020 1.433960
v 0.219860 1.031720 1.433960
v 0.219860 1.033140 1.433960
v 0.222860 -1.043160 1.365210
v 0.222860 -1.035050 1.365210
v 0.222860 1.040750 1.365210
v 0.222860 1.048850 1.365210
v 0.224370 -1.043160 1.395680
v 0.224370 -1.035050 1.395680
v 0.224370 1.040750 1.395680
v 0.224370 1.048850 1.395680
v 0.224430 -1.031310 1.333500
v 0.224430 -1.029890 1.333500
v 0.224430 1.035590 1.333500
v 0.224430 1.037010 1.333500
v 0.236200 -0.909130 1.648100
v 0.236200 -0.854200 1.648100
v 0.236200 -0.402130 1.648100
v 0.236200 -0.354240 1.648100
v 0.236200 0.351800 1.648100
v 0.236200 0.406740 1.648100
v 0.236200 0.858810 1.648100
v 0.236200 0.906690 1.648100
v 0.248680 -1.007750 1.686630
v 0.248680 -1.005630 1.686630
v 0.248680 -0.997060 1.686630
v 0.248680 -0.924720 1.657630
v 0.248680 0.930410 1.657630
v 0.248680 1.002760 1.686630
v 0.248680 1.011330 1.686630
v 0.248680 1.013450 1.686630
v 0.249620 -0.924720 1.215190
v 0.249620 0.930410 1.215190
v 0.263980 -0.909130 1.608870
v 0.263980 -0.854200 1.608870
v 0.263980 -0.402130 1.608870
v 0.263980 -0.354240 1.608870
v 0.263980 0.351800 1.608870
v 0.263980 0.406740 1.608870
v 0.263980 0.858810 1.608870
v 0.263980 0.906690 1.608870
v 0.268810 -0.956490 2.321310
v 0.268810 -0.956490 2.322570
v 0.268810 0.962190 2.321310
v 0.268810 0.962190 2.322570
v 0.268890 -1.041680 1.166740
v 0.268890 -1.036570 1.166740
v 0.268890 -0.294710 1.319810
v 0.268890 -0.012160 1.319810
v 0.268890 0.017860 1.319810
v 0.268890 0.300410 1.319810
v 0.268890 1.042270 1.166740
v 0.268890 1.047380 1.166740
v 0.273800 -1.119960 0.949500
v 0.273800 1.125660 0.949500
v 0.291750 -0.909130 1.569640
v 0.291750 -0.854200 1.569640
v 0.291750 -0.402130 1.569640
v 0.291750 -0.354240 1.569640
v 0.291750 0.351800 1.569640
v 0.291750 0.406740 1.569640
v 0.291750 0.858810 1.569640
v 0.291750 0.906690 1.569640
v 0.344970 -1.114540 0.894390
v 0.344970 1.120240 0.894390
v 0.353720 -1.113200 0.885230
v 0.353720 1.118900 0.885230
v 0.374110 -1.049300 1.295910
v 0.374110 1.055000 1.295910
v 0.377870 -1.006250 1.663710
v 0.377870 -1.004130 1.663710
v 0.377870 -0.995560 1.663710
v 0.377870 -0.923220 1.634710
v 0.377870 0.928920 1.634710
v 0.377870 1.001250 1.663710
v 0.377870 1.009830 1.663710
v 0.377870 1.011950 1.663710
v 0.380820 -0.923220 1.213710
v 0.380820 0.928920 1.213710
v 0.385020 -1.035530 1.098280
v 0.385020 -1.030420 1.098280
v 0.385020 -0.288560 1.098280
v 0.385020 -0.018310 1.098280
v 0.385020 0.024010 1.098280
v 0.385020 0.294260 1.098280
v 0.385020 1.036120 1.098280
v 0.385020 1.041230 1.098280
v 0.386910 -0.971100 2.243000
v 0.386910 -0.968980 2.243000
v 0.386910 -0.963410 2.243000
v 0.386910 0.969110 2.243000
v 0.386910 0.974680 2.243000
v 0.386910 0.976800 2.243000
v 0.389560 -0.952590 2.319240
v 0.389560 -0.952590 2.320490
v 0.389560 0.958290 2.319240
v 0.389560 0.958290 2.320490
v 0.401490 -1.108830 0.840130
v 0.401490 1.114530 0.840130
v 0.405460 -1.108830 0.833700
v 0.405460 1.114530 0.833700
v 0.430110 -0.733120 2.835710
v 0.430110 0.740820 2.835710
v 0.437230 -1.108830 0.797810
v 0.437230 1.114530 0.797810
v 0.443650 -1.108240 0.782340
v 0.443650 1.113940 0.782340
v 0.460640 -1.029380 1.029820
v 0.460640 -1.024280 1.029820
v 0.460640 -0.463300 1.029820
v 0.460640 -0.282410 1.029820
v 0.460640 -0.024460 1.029820
v 0.460640 -0.008860 1.029820
v 0.460640 0.014560 1.029820
v 0.460640 0.030150 1.029820
v 0.460640 0.288110 1.029820
v 0.460640 0.469000 1.029820
v 0.460640 1.029970 1.029820
v 0.460640 1.035080 1.029820
v 0.465540 -1.108240 0.721980
v 0.465540 1.113940 0.721980
v 0.469740 -1.027860 1.018700
v 0.469740 -1.022760 1.018700
v 0.469740 -0.025970 1.018700
v 0.469740 0.031670 1.018700
v 0.469740 1.028460 1.018700
v 0.469740 1.033560 1.018700
v 0.481860 -1.108240 0.644430
v 0.481860 1.113940 0.644430
v 0.487440 -0.869890 1.181820
v 0.487440 -0.389270 1.181820
v 0.487440 0.391050 1.181820
v 0.487440 0.871660 1.181820
v 0.490020 -1.108240 0.605650
v 0.490020 1.113940 0.605650
v 0.498180 -1.108240 0.566870
v 0.498180 1.113940 0.566870
v 0.499150 -1.108240 0.554210
v 0.499150 1.113940 0.554210
v 0.502470 -1.108240 0.511190
v 0.502470 1.113940 0.511190
v 0.503060 -1.108240 0.503580
v 0.503060 1.113940 0.503580
v 0.505550 -0.733120 2.481630
v 0.505550 0.740820 2.481630
v 0.508050 -1.108240 0.438840
v 0.508050 1.113940 0.438840
v 0.518510 -1.022910 0.947100
v 0.518510 -1.017810 0.947100
v 0.518510 -0.030920 0.947100
v 0.518510 0.036620 0.947100
v 0.518510 1.023510 0.947100
v 0.518510 1.028610 0.947100
v 0.520420 -1.108120 0.444240
v 0.520420 1.113820 0.444240
v 0.522110 -1.022910 0.935380
v 0.522110 -1.017810 0.935380
v 0.522110 -0.030920 0.935380
v 0.522110 0.036620 0.935380
v 0.522110 1.023510 0.935380
v 0.522110 1.028610 0.935380
v 0.550690 -0.869890 1.409710
v 0.550690 -0.389270 1.409710
v 0.550690 0.391050 1.409710
v 0.550690 0.871660 1.409710
v 0.554250 -1.022910 0.883820
v 0.554250 -1.017810 0.883820
v 0.554250 -0.030920 0.883820
v 0.554250 0.036620 0.883820
v 0.554250 1.023510 0.883820
v 0.554250 1.028610 0.883820
v 0.556360 -0.847210 1.181820
v 0.556360 -0.411950 1.181820
v 0.556360 0.413730 1.181820
v 0.556360 0.848980 1.181820
v 0.560160 -1.039110 0.865780
v 0.560160 -1.034010 0.865780
v 0.560160 -0.931820 0.865780
v 0.560160 -0.509350 0.865780
v 0.560160 -0.292140 0.865780
v 0.560160 -0.014720 0.865780
v 0.560160 0.020420 0.865780
v 0.560160 0.297840 0.865780
v 0.560160 0.515050 0.865780
v 0.560160 0.937520 0.865780
v 0.560160 1.039710 0.865780
v 0.560160 1.044810 0.865780
v 0.561710 -1.073620 0.458140
v 0.561710 1.079320 0.458140
v 0.571070 -0.997280 1.623200
v 0.571070 -0.995160 1.623200
v 0.571070 -0.989590 1.623200
v 0.571070 -0.986580 1.623200
v 0.571070 -0.950410 1.608700
v 0.571070 -0.932330 1.601450
v 0.571070 -0.914240 1.541670
v 0.571070 -0.914240 1.561660
v 0.571070 -0.914240 1.594200
v 0.571070 0.919940 1.541670
v 0.571070 0.919940 1.561660
v 0.571070 0.919940 1.594200
v 0.571070 0.938030 1.601450
v 0.571070 0.956110 1.608700
v 0.571070 0.992280 1.623200
v 0.571070 0.995290 1.623200
v 0.571070 1.000860 1.623200
v 0.571070 1.002970 1.623200
v 0.571270 -1.040330 1.290580
v 0.571270 -1.016170 1.028260
v 0.571270 -0.016970 1.028260
v 0.571270 0.022670 1.028260
v 0.571270 1.021860 1.028260
v 0.571270 1.046030 1.290580
v 0.573870 -0.963620 2.243000
v 0.573870 -0.961500 2.243000
v 0.573870 -0.955930 2.243000
v 0.573870 0.961630 2.243000
v 0.573870 0.967200 2.243000
v 0.573870 0.969320 2.243000
v 0.577820 -0.943510 2.318200
v 0.577820 -0.943510 2.319450
v 0.577820 0.949210 2.318200
v 0.577820 0.949210 2.319450
v 0.578040 -0.914240 1.087720
v 0.578040 0.919940 1.087720
v 0.579630 -1.039110 0.795680
v 0.579630 -1.034010 0.795680
v 0.579630 1.039710 0.795680
v 0.579630 1.044810 0.795680
v 0.581750 -1.012170 0.943350
v 0.581750 1.017870 0.943350
v 0.585350 -1.012170 0.931620
v 0.585350 1.017870 0.931620
v 0.591320 -1.039110 0.706630
v 0.591320 -1.034010 0.706630
v 0.591320 1.039710 0.706630
v 0.591320 1.044810 0.706630
v 0.597160 -1.039110 0.662100
v 0.597160 -1.034010 0.662100
v 0.597160 1.039710 0.662100
v 0.597160 1.044810 0.662100
v 0.597520 -1.025050 0.784240
v 0.597520 -1.022520 0.784240
v 0.597520 1.028220 0.784240
v 0.597520 1.030740 0.784240
v 0.603000 -1.039110 0.472050
v 0.603000 -1.039110 0.545630
v 0.603000 -1.039110 0.554290
v 0.603000 -1.039110 0.603180
v 0.603000 -1.039110 0.617570
v 0.603000 -1.034010 0.472050
v 0.603000 -1.034010 0.545630
v 0.603000 -1.034010 0.554290
v 0.603000 -1.034010 0.603180
v 0.603000 -1.034010 0.617570
v 0.603000 1.039710 0.472050
v 0.603000 1.039710 0.545630
v 0.603000 1.039710 0.554290
v 0.603000 1.039710 0.603180
v 0.603000 1.039710 0.617570
v 0.603000 1.044810 0.472050
v 0.603000 1.044810 0.545630
v 0.603000 1.044810 0.554290
v 0.603000 1.044810 0.603180
v 0.603000 1.044810 0.617570
v 0.608240 -1.025050 0.702580
v 0.608240 -1.022520 0.702580
v 0.608240 1.028220 0.702580
v 0.608240 1.030740 0.702580
v 0.609700 -1.012170 0.883180
v 0.609700 1.017870 0.883180
v 0.612840 -1.021710 0.702110
v 0.612840 1.027410 0.702110
v 0.613590 -1.025050 0.661750
v 0.613590 -1.022520 0.661750
v 0.613590 1.028220 0.661750
v 0.613590 1.030740 0.661750
v 0.613800 -0.294710 1.319810
v 0.613800 -0.012160 1.319810
v 0.613800 0.017860 1.319810
v 0.613800 0.300410 1.319810
v 0.618060 -1.021710 0.662300
v 0.618060 1.027410 0.662300
v 0.618950 -1.025050 0.562900
v 0.618950 -1.025050 0.607730
v 0.618950 -1.025050 0.620930
v 0.618950 -1.022520 0.562900
v 0.618950 -1.022520 0.607730
v 0.618950 -1.022520 0.620930
v 0.618950 1.028220 0.562900
v 0.618950 1.028220 0.607730
v 0.618950 1.028220 0.620930
v 0.618950 1.030740 0.562900
v 0.618950 1.030740 0.607730
v 0.618950 1.030740 0.620930
v 0.629150 -0.847210 1.384930
v 0.629150 -0.411950 1.384930
v 0.629150 0.413730 1.384930
v 0.629150 0.848980 1.384930
v 0.630230 -0.962660 0.763330
v 0.630230 0.968360 0.763330
v 0.630850 -0.856910 1.353150
v 0.630850 -0.402250 1.353150
v 0.630850 0.404020 1.353150
v 0.630850 0.858680 1.353150
v 0.633940 -0.962600 0.760950
v 0.633940 0.968300 0.760950
v 0.639170 -0.962660 0.695190
v 0.639170 0.968360 0.695190
v 0.642670 -0.962600 0.694350
v 0.642670 0.968300 0.694350
v 0.643000 -0.963330 0.694910
v 0.643000 0.969030 0.694910
v 0.643640 -0.962660 0.661130
v 0.643640 0.968360 0.661130
v 0.647050 -0.962600 0.661060
v 0.647050 0.968300 0.661060
v 0.647360 -0.963330 0.661690
v 0.647360 0.969030 0.661690
v 0.648110 -0.962660 0.578650
v 0.648110 -0.962660 0.616050
v 0.648110 -0.962660 0.627060
v 0.648110 0.968360 0.578650
v 0.648110 0.968360 0.616050
v 0.648110 0.968360 0.627060
v 0.649620 0.619800 2.674820
v 0.651410 -0.962600 0.580430
v 0.651410 -0.962600 0.616990
v 0.651410 -0.962600 0.627760
v 0.651410 0.968300 0.580430
v 0.651410 0.968300 0.616990
v 0.651410 0.968300 0.627760
v 0.653000 -0.940890 2.316010
v 0.653000 -0.938830 2.316010
v 0.653000 0.944530 2.316010
v 0.653000 0.946590 2.316010
v 0.670670 -0.953630 2.324590
v 0.670670 0.959330 2.324590
v 0.710500 -0.951160 2.322770
v 0.710500 0.956860 2.322770
v 0.719740 0.619800 2.594130
v 0.728170 -0.936220 2.312570
v 0.728170 -0.934160 2.311320
v 0.728170 -0.934160 2.312570
v 0.728170 0.939860 2.311320
v 0.728170 0.939860 2.312570
v 0.728170 0.941920 2.312570
v 0.729930 -0.288560 1.098280
v 0.729930 -0.018310 1.098280
v 0.729930 0.024010 1.098280
v 0.729930 0.294260 1.098280
v 0.733580 -0.905270 1.056600
v 0.733580 0.910970 1.056600
v 0.734670 -0.988300 1.592040
v 0.734670 -0.986190 1.592040
v 0.734670 -0.980610 1.592040
v 0.734670 -0.977610 1.592040
v 0.734670 -0.958010 2.243000
v 0.734670 -0.955900 2.243000
v 0.734670 -0.950320 2.243000
v 0.734670 -0.941440 1.577540
v 0.734670 -0.923350 1.570290
v 0.734670 -0.905270 1.510510
v 0.734670 -0.905270 1.530500
v 0.734670 -0.905270 1.563030
v 0.734670 0.910970 1.510510
v 0.734670 0.910970 1.530500
v 0.734670 0.910970 1.563030
v 0.734670 0.929050 1.570290
v 0.734670 0.947140 1.577540
v 0.734670 0.956020 2.243000
v 0.734670 0.961600 2.243000
v 0.734670 0.963710 2.243000
v 0.734670 0.983310 1.592040
v 0.734670 0.986310 1.592040
v 0.734670 0.991880 1.592040
v 0.734670 0.994000 1.592040
v 0.737720 -1.007190 1.023040
v 0.737720 -0.025950 1.023040
v 0.737720 0.031650 1.023040
v 0.737720 1.012890 1.023040
v 0.738580 -1.003720 0.938430
v 0.738580 1.009420 0.938430
v 0.742180 -1.003720 0.926710
v 0.742180 1.009420 0.926710
v 0.766530 -1.003720 0.879820
v 0.766530 1.009420 0.879820
v 0.766870 -0.934940 2.306210
v 0.766870 0.940640 2.306210
v 0.772640 -1.334530 1.889440
v 0.772640 -1.334530 1.931640
v 0.772640 -1.334530 1.973840
v 0.772640 -1.334530 2.016040
v 0.772640 -1.334530 2.058240
v 0.772640 -1.334530 2.100440
v 0.772640 -1.334530 2.142630
v 0.772640 -1.334530 2.184830
v 0.772640 1.340230 1.889440
v 0.772640 1.340230 1.931640
v 0.772640 1.340230 1.973840
v 0.772640 1.340230 2.016040
v 0.772640 1.340230 2.058240
v 0.772640 1.340230 2.100440
v 0.772640 1.340230 2.142630
v 0.772640 1.340230 2.184830
v 0.789850 -0.612090 2.513440
v 0.789850 0.619800 2.513440
v 0.800510 -0.612090 2.462080
v 0.800510 -0.201460 2.462080
v 0.800510 0.209170 2.462080
v 0.800510 0.619800 2.462080
v 0.804520 -1.176860 1.889440
v 0.804520 -1.176860 1.931640
v 0.804520 -1.176860 1.973840
v 0.804520 -1.176860 2.016040
v 0.804520 -1.176860 2.058240
v 0.804520 -1.176860 2.100440
v 0.804520 -1.176860 2.142630
v 0.804520 -1.176860 2.184830
v 0.804520 1.182560 1.889440
v 0.804520 1.182560 1.931640
v 0.804520 1.182560 1.973840
v 0.804520 1.182560 2.016040
v 0.804520 1.182560 2.058240
v 0.804520 1.182560 2.100440
v 0.804520 1.182560 2.142630
v 0.804520 1.182560 2.184830
v 0.805250 -1.341130 1.889440
v 0.805250 -1.341130 1.931640
v 0.805250 -1.341130 1.973840
v 0.805250 -1.341130 2.016040
v 0.805250 -1.341130 2.058240
v 0.805250 -1.341130 2.100440
v 0.805250 -1.341130 2.142630
v 0.805250 -1.341130 2.184830
v 0.805250 1.346830 1.889440
v 0.805250 1.346830 1.931640
v 0.805250 1.346830 1.973840
v 0.805250 1.346830 2.016040
v 0.805250 1.346830 2.058240
v 0.805250 1.346830 2.100440
v 0.805250 1.346830 2.142630
v 0.805250 1.346830 2.184830
v 0.805550 -0.282410 1.029820
v 0.805550 -0.024460 1.029820
v 0.805550 0.030150 1.029820
v 0.805550 0.288110 1.029820
v 0.805560 -0.935720 2.301100
v 0.805560 -0.935720 2.302350
v 0.805560 0.941420 2.301100
v 0.805560 0.941420 2.302350
v 0.810080 -0.952400 2.234430
v 0.810080 -0.950290 2.234430
v 0.810080 -0.944720 2.234430
v 0.810080 0.950410 2.234430
v 0.810080 0.955990 2.234430
v 0.810080 0.958100 2.234430
v 0.824620 -1.271520 2.230160
v 0.824620 -1.271520 2.238420
v 0.824620 1.277220 2.230160
v 0.824620 1.277220 2.238420
v 0.827020 -1.242830 2.231710
v 0.827020 -1.242830 2.258540
v 0.827020 1.248530 2.231710
v 0.827020 1.248530 2.258540
v 0.828590 -1.295600 2.016040
v 0.828590 -1.295600 2.058240
v 0.828590 -1.295600 2.100440
v 0.828590 1.301300 2.016040
v 0.828590 1.301300 2.058240
v 0.828590 1.301300 2.100440
v 0.833140 -1.273080 2.016040
v 0.833140 -1.273080 2.058240
v 0.833140 -1.273080 2.100440
v 0.833140 1.278780 2.016040
v 0.833140 1.278780 2.058240
v 0.833140 1.278780 2.100440
v 0.837700 -1.250550 2.016040
v 0.837700 -1.250550 2.058240
v 0.837700 -1.250550 2.100440
v 0.837700 1.256250 2.016040
v 0.837700 1.256250 2.058240
v 0.837700 1.256250 2.100440
v 0.839990 -0.938650 2.231710
v 0.839990 -0.938650 2.258540
v 0.839990 0.944350 2.231710
v 0.839990 0.944350 2.258540
v 0.842250 -1.228030 2.016040
v 0.842250 -1.228030 2.058240
v 0.842250 -1.228030 2.100440
v 0.842250 1.233730 2.016040
v 0.842250 1.233730 2.058240
v 0.842250 1.233730 2.100440
v 0.845580 -1.295600 2.016040
v 0.845580 -1.295600 2.058240
v 0.845580 -1.295600 2.100440
v 0.845580 1.301300 2.016040
v 0.845580 1.301300 2.058240
v 0.845580 1.301300 2.100440
v 0.847780 -0.947480 2.218240
v 0.847780 -0.941910 2.218240
v 0.847780 0.947610 2.218240
v 0.847780 0.953180 2.218240
v 0.848390 -1.248930 1.625700
v 0.848390 1.254630 1.625700
v 0.849610 -1.247720 2.230160
v 0.849610 -1.246980 1.639060
v 0.849610 1.252670 1.639060
v 0.849610 1.253420 2.230160
v 0.850130 -1.273080 2.016040
v 0.850130 -1.273080 2.058240
v 0.850130 -1.273080 2.100440
v 0.850130 1.278780 2.016040
v 0.850130 1.278780 2.058240
v 0.850130 1.278780 2.100440
v 0.851180 -1.269060 2.230160
v 0.851180 -1.269060 2.231710
v 0.851180 -1.269060 2.238420
v 0.851180 1.274750 2.230160
v 0.851180 1.274750 2.231710
v 0.851180 1.274750 2.238420
v 0.854690 -1.250550 2.016040
v 0.854690 -1.250550 2.058240
v 0.854690 -1.250550 2.100440
v 0.854690 1.256250 2.016040
v 0.854690 1.256250 2.058240
v 0.854690 1.256250 2.100440
v 0.859240 -1.228030 2.016040
v 0.859240 -1.228030 2.058240
v 0.859240 -1.228030 2.100440
v 0.859240 1.233730 2.016040
v 0.859240 1.233730 2.058240
v 0.859240 1.233730 2.100440
v 0.862400 -0.952270 2.167290
v 0.862400 0.957970 2.167290
v 0.864240 -0.937270 2.264700
v 0.864240 0.942970 2.264700
v 0.866550 -0.936190 2.231710
v 0.866550 -0.936190 2.258540
v 0.866550 0.941890 2.231710
v 0.866550 0.941890 2.258540
v 0.866750 -0.937270 2.265960
v 0.866750 0.942970 2.265960
v 0.872500 -1.240360 2.231710
v 0.872500 -1.240360 2.258540
v 0.872500 1.246060 2.231710
v 0.872500 1.246060 2.258540
v 0.876170 -1.245260 2.230160
v 0.876170 -1.244510 1.639060
v 0.876170 1.250210 1.639060
v 0.876170 1.250950 2.230160
v 0.876870 -1.245440 1.619690
v 0.876870 1.251140 1.619690
v 0.877030 -0.954930 2.116330
v 0.877030 -0.952820 2.116330
v 0.877030 -0.947240 2.116330
v 0.877030 0.952940 2.116330
v 0.877030 0.958520 2.116330
v 0.877030 0.960630 2.116330
v 0.885490 -0.946800 2.225860
v 0.885490 0.952490 2.225860
v 0.888830 -0.946800 2.225860
v 0.888830 0.952490 2.225860
v 0.895630 -0.961460 1.989660
v 0.895630 -0.959350 1.989660
v 0.895630 -0.953770 1.989660
v 0.895630 0.959470 1.989660
v 0.895630 0.965040 1.989660
v 0.895630 0.967160 1.989660
v 0.899930 -0.948310 2.198470
v 0.899930 0.954010 2.198470
v 0.913510 -0.964830 1.863000
v 0.913510 -0.962720 1.863000
v 0.913510 -0.957140 1.863000
v 0.913510 0.962840 1.863000
v 0.913510 0.968420 1.863000
v 0.913510 0.970530 1.863000
v 0.914370 -0.949820 2.171090
v 0.914370 0.955520 2.171090
v 0.924060 -0.967290 1.736330
v 0.924060 -0.965170 1.736330
v 0.924060 -0.959600 1.736330
v 0.924060 0.965300 1.736330
v 0.924060 0.970870 1.736330
v 0.924060 0.972980 1.736330
v 0.924560 -0.991030 0.936530
v 0.924560 0.996730 0.936530
v 0.927320 -0.891800 1.062180
v 0.927320 0.897500 1.062180
v 0.927860 -0.974840 1.549970
v 0.927860 -0.972720 1.549970
v 0.927860 -0.967150 1.549970
v 0.927860 -0.964150 1.549970
v 0.927860 -0.891800 1.520970
v 0.927860 0.897500 1.520970
v 0.927860 0.969850 1.549970
v 0.927860 0.972850 1.549970
v 0.927860 0.978420 1.549970
v 0.927860 0.980540 1.549970
v 0.928170 -0.991030 0.924810
v 0.928170 0.996730 0.924810
v 0.933320 -0.966040 1.610040
v 0.933320 -0.966040 1.612630
v 0.933320 -0.963930 1.610040
v 0.933320 -0.963930 1.612630
v 0.933320 0.969630 1.610040
v 0.933320 0.969630 1.612630
v 0.933320 0.971740 1.610040
v 0.933320 0.971740 1.612630
v 0.935120 -0.993730 1.021020
v 0.935120 -0.039410 1.021020
v 0.935120 0.045110 1.021020
v 0.935120 0.999430 1.021020
v 0.943250 -0.952850 2.116330
v 0.943250 0.958550 2.116330
v 0.943320 -0.958490 0.674140
v 0.943320 -0.958490 0.694910
v 0.943320 0.964190 0.674140
v 0.943320 0.964190 0.694910
v 0.943680 -0.957750 0.580430
v 0.943680 -0.957750 0.616990
v 0.943680 -0.957750 0.627760
v 0.943680 -0.957750 0.673540
v 0.943680 -0.957750 0.694350
v 0.943680 -0.957750 0.760950
v 0.943680 0.963440 0.580430
v 0.943680 0.963440 0.616990
v 0.943680 0.963440 0.627760
v 0.943680 0.963440 0.673540
v 0.943680 0.963440 0.694350
v 0.943680 0.963440 0.760950
v 0.947100 -0.957690 0.578650
v 0.947100 -0.957690 0.616050
v 0.947100 -0.957690 0.627060
v 0.947100 -0.957690 0.673900
v 0.947100 -0.957690 0.695190
v 0.947100 -0.957690 0.763330
v 0.947100 0.963390 0.578650
v 0.947100 0.963390 0.616050
v 0.947100 0.963390 0.627060
v 0.947100 0.963390 0.673900
v 0.947100 0.963390 0.695190
v 0.947100 0.963390 0.763330
v 0.947220 -0.952850 2.116330
v 0.947220 0.958550 2.116330
v 0.952510 -0.991030 0.877920
v 0.952510 0.996730 0.877920
v 0.960260 -0.972840 1.579470
v 0.960260 0.978540 1.579470
v 0.962980 -0.968460 1.609420
v 0.962980 0.974160 1.609420
v 0.972760 -1.015900 0.677230
v 0.972760 -1.015900 0.702110
v 0.972760 1.021600 0.677230
v 0.972760 1.021600 0.702110
v 0.974840 -0.954870 1.989660
v 0.974840 0.960560 1.989660
v 0.977290 -1.019090 0.562900
v 0.977290 -1.019090 0.607730
v 0.977290 -1.019090 0.620930
v 0.977290 -1.019090 0.677060
v 0.977290 -1.019090 0.702580
v 0.977290 -1.019090 0.784240
v 0.977290 -1.016560 0.562900
v 0.977290 -1.016560 0.607730
v 0.977290 -1.016560 0.620930
v 0.977290 -1.016560 0.677060
v 0.977290 -1.016560 0.702580
v 0.977290 -1.016560 0.784240
v 0.977290 1.022260 0.562900
v 0.977290 1.022260 0.607730
v 0.977290 1.022260 0.620930
v 0.977290 1.022260 0.677060
v 0.977290 1.022260 0.702580
v 0.977290 1.022260 0.784240
v 0.977290 1.024790 0.562900
v 0.977290 1.024790 0.607730
v 0.977290 1.024790 0.620930
v 0.977290 1.024790 0.677060
v 0.977290 1.024790 0.702580
v 0.977290 1.024790 0.784240
v 0.978800 -0.954870 1.989660
v 0.978800 0.960560 1.989660
v 0.993810 -1.030800 0.706630
v 0.993810 -1.030800 0.795680
v 0.993810 -1.027520 0.472050
v 0.993810 -1.027520 0.545630
v 0.993810 -1.027520 0.554290
v 0.993810 -1.027520 0.865780
v 0.993810 -0.925320 0.865780
v 0.993810 0.931020 0.865780
v 0.993810 1.033220 0.472050
v 0.993810 1.033220 0.545630
v 0.993810 1.033220 0.554290
v 0.993810 1.033220 0.865780
v 0.993810 1.036490 0.706630
v 0.993810 1.036490 0.795680
v 1.002860 -1.048650 0.722400
v 1.002860 -1.048650 0.779900
v 1.002860 1.054350 0.722400
v 1.002860 1.054350 0.779900
v 1.008290 -0.956870 1.863000
v 1.008290 0.962570 1.863000
v 1.012260 -0.956870 1.863000
v 1.012260 0.962570 1.863000
v 1.015140 -0.911110 1.407520
v 1.015140 0.916810 1.407520
v 1.016370 -0.911260 1.194420
v 1.016370 -0.911260 1.329540
v 1.016370 0.916960 1.194420
v 1.016370 0.916960 1.329540
v 1.017390 -0.911390 1.022170
v 1.017390 -0.911390 1.108810
v 1.017390 -0.911390 1.279000
v 1.017390 0.917090 1.022170
v 1.017390 0.917090 1.108810
v 1.017390 0.917090 1.279000
v 1.022530 -0.962940 1.609420
v 1.022530 0.968640 1.609420
v 1.024090 -0.965010 1.565990
v 1.024090 0.970710 1.565990
v 1.030530 -0.956700 1.736330
v 1.030530 0.962400 1.736330
v 1.032780 -0.910900 0.865780
v 1.032780 0.916600 0.865780
v 1.034500 -0.956700 1.736330
v 1.034500 0.962400 1.736330
v 1.044920 -1.017320 0.554290
v 1.044920 -1.017320 0.865780
v 1.044920 1.023020 0.554290
v 1.044920 1.023020 0.865780
v 1.045090 -0.937930 0.934000
v 1.045090 -0.937930 1.010820
v 1.045090 0.943630 0.934000
v 1.045090 0.943630 1.010820
v 1.046650 -0.937930 0.877740
v 1.046650 -0.937930 0.926430
v 1.046650 0.943630 0.877740
v 1.046650 0.943630 0.926430
v 1.049600 -0.937930 0.934000
v 1.049600 -0.937930 1.010820
v 1.049600 0.943630 0.934000
v 1.049600 0.943630 1.010820
v 1.051160 -0.937930 0.877740
v 1.051160 -0.937930 0.926430
v 1.051160 0.943630 0.877740
v 1.051160 0.943630 0.926430
v 1.052770 -0.954970 1.610040
v 1.052770 -0.954970 1.612630
v 1.052770 0.960670 1.610040
v 1.052770 0.960670 1.612630
v 1.052780 -0.963540 1.280080
v 1.052780 0.969240 1.280080
v 1.055900 -0.965140 1.415480
v 1.055900 -0.962140 1.462810
v 1.055900 -0.959130 1.522920
v 1.055900 -0.948440 1.520670
v 1.055900 -0.948440 1.522920
v 1.055900 -0.912270 1.508420
v 1.055900 -0.912270 1.515210
v 1.055900 -0.876100 1.441400
v 1.055900 -0.876100 1.461380
v 1.055900 -0.876100 1.493920
v 1.055900 0.881800 1.441400
v 1.055900 0.881800 1.461380
v 1.055900 0.881800 1.493920
v 1.055900 0.917970 1.508420
v 1.055900 0.917970 1.515210
v 1.055900 0.954140 1.520670
v 1.055900 0.954140 1.522920
v 1.055900 0.964830 1.522920
v 1.055900 0.967840 1.462810
v 1.055900 0.970840 1.415480
v 1.057280 -0.954970 1.609670
v 1.057280 0.960670 1.609670
v 1.057530 -0.876100 1.049180
v 1.057530 0.881800 1.049180
v 1.057910 -0.959300 1.159550
v 1.057910 -0.949370 1.025560
v 1.057910 -0.388400 1.025560
v 1.057910 -0.083770 1.025560
v 1.057910 0.089470 1.025560
v 1.057910 0.394100 1.025560
v 1.057910 0.955070 1.025560
v 1.057910 0.965000 1.159550
v 1.058730 -0.948310 1.114230
v 1.058730 -0.948310 1.516340
v 1.058730 0.954010 1.114230
v 1.058730 0.954010 1.516340
v 1.058750 -0.984670 0.629440
v 1.058750 -0.984670 0.738860
v 1.058750 -0.984670 0.780740
v 1.058750 0.990370 0.629440
v 1.058750 0.990370 0.738860
v 1.058750 0.990370 0.780740
v 1.059010 -0.962480 1.191160
v 1.059010 0.968180 1.191160
v 1.059080 -0.954970 1.611470
v 1.059080 0.960670 1.611470
v 1.060410 -0.965140 1.415480
v 1.060410 -0.962140 1.462810
v 1.060410 -0.959130 1.520670
v 1.060410 -0.959130 1.522920
v 1.060410 0.964830 1.520670
v 1.060410 0.964830 1.522920
v 1.060410 0.967840 1.462810
v 1.060410 0.970840 1.415480
v 1.061050 -0.984670 0.629440
v 1.061050 -0.984670 0.681450
v 1.061050 -0.984670 0.705090
v 1.061050 -0.984670 0.780740
v 1.061050 0.990370 0.629440
v 1.061050 0.990370 0.681450
v 1.061050 0.990370 0.705090
v 1.061050 0.990370 0.780740
v 1.067650 -0.884270 1.021050
v 1.067650 0.889970 1.021050
v 1.067900 -0.934130 0.874620
v 1.067900 -0.934130 0.923310
v 1.067900 -0.934130 0.930880
v 1.067900 -0.934130 1.007700
v 1.067900 0.939830 0.874620
v 1.067900 0.939830 0.923310
v 1.067900 0.939830 0.930880
v 1.067900 0.939830 1.007700
v 1.069140 -0.991750 1.407520
v 1.069140 0.997440 1.407520
v 1.070360 -0.991900 1.194420
v 1.070360 -0.991900 1.329540
v 1.070360 0.997600 1.194420
v 1.070360 0.997600 1.329540
v 1.071390 -0.992030 1.022170
v 1.071390 -0.992030 1.108810
v 1.071390 -0.992030 1.279000
v 1.071390 0.997730 1.022170
v 1.071390 0.997730 1.108810
v 1.071390 0.997730 1.279000
v 1.072260 -0.905110 1.401960
v 1.072260 0.910810 1.401960
v 1.073170 -0.895940 0.865780
v 1.073170 0.901640 0.865780
v 1.083710 -0.936910 1.112720
v 1.083710 -0.936910 1.514830
v 1.083710 0.942610 1.112720
v 1.083710 0.942610 1.514830
v 1.093640 -0.912320 1.397010
v 1.093640 0.918020 1.397010
v 1.097550 -0.895090 1.392390
v 1.097550 0.900790 1.392390
v 1.097900 -1.006740 0.472050
v 1.097900 -1.006740 0.545630
v 1.097900 -1.006740 0.554290
v 1.097900 -1.006740 0.865780
v 1.097900 1.012440 0.472050
v 1.097900 1.012440 0.545630
v 1.097900 1.012440 0.554290
v 1.097900 1.012440 0.865780
v 1.099140 -0.873870 0.865780
v 1.099140 0.879570 0.865780
v 1.101600 -0.960000 0.617220
v 1.101600 -0.960000 0.780740
v 1.101600 0.965700 0.617220
v 1.101600 0.965700 0.780740
v 1.103900 -0.960000 0.617220
v 1.103900 -0.960000 0.780740
v 1.103900 0.965700 0.617220
v 1.103900 0.965700 0.780740
v 1.104230 -0.908130 1.392960
v 1.104230 0.913830 1.392960
v 1.104270 -0.960000 0.735470
v 1.104270 0.965700 0.735470
v 1.108130 -0.944150 1.604260
v 1.108130 0.949850 1.604260
v 1.109930 -0.944150 1.606060
v 1.109930 0.949850 1.606060
v 1.111280 -0.912570 1.111960
v 1.111280 -0.912570 1.514070
v 1.111280 0.918270 1.111960
v 1.111280 0.918270 1.514070
v 1.118220 -0.841610 1.019920
v 1.118220 0.847310 1.019920
v 1.119050 -0.951320 1.409650
v 1.119050 -0.948310 1.516340
v 1.119050 -0.948310 1.518590
v 1.119050 0.954010 1.516340
v 1.119050 0.954010 1.518590
v 1.119050 0.957020 1.409650
v 1.121640 -0.964910 1.021050
v 1.121640 0.970610 1.021050
v 1.126260 -0.985750 1.401960
v 1.126260 0.991450 1.401960
v 1.127570 -0.937930 0.617220
v 1.127570 -0.937930 0.780740
v 1.127570 0.943630 0.617220
v 1.127570 0.943630 0.780740
v 1.127630 -0.856090 0.863710
v 1.127630 0.861790 0.863710
v 1.129860 -0.937930 0.617220
v 1.129860 -0.937930 0.780740
v 1.129860 0.943630 0.617220
v 1.129860 0.943630 0.780740
v 1.130240 -0.937930 0.735470
v 1.130240 0.943630 0.735470
v 1.131040 -0.968170 1.397010
v 1.131040 0.973870 1.397010
v 1.131320 -0.934130 0.617150
v 1.131320 -0.934130 0.781400
v 1.131320 0.939830 0.617150
v 1.131320 0.939830 0.781400
v 1.132930 -0.932880 1.602760
v 1.132930 -0.932880 1.605050
v 1.132930 0.938580 1.602760
v 1.132930 0.938580 1.605050
v 1.133620 -0.934130 0.617150
v 1.133620 -0.934130 0.781400
v 1.133620 0.939830 0.617150
v 1.133620 0.939830 0.781400
v 1.133990 -0.934130 0.735930
v 1.133990 0.939830 0.735930
v 1.141960 -0.860960 1.110530
v 1.141960 -0.860960 1.512640
v 1.141960 0.866660 1.110530
v 1.141960 0.866660 1.512640
v 1.144030 -0.937530 1.399620
v 1.144030 -0.936910 1.514830
v 1.144030 -0.936910 1.517080
v 1.144030 0.942610 1.514830
v 1.144030 0.942610 1.517080
v 1.144030 0.943230 1.399620
v 1.144860 -0.962700 1.391830
v 1.144860 0.968400 1.391830
v 1.145630 -0.873360 0.873060
v 1.145630 -0.873360 0.921750
v 1.145630 -0.873360 0.929330
v 1.145630 -0.873360 1.006150
v 1.145630 0.879060 0.873060
v 1.145630 0.879060 0.921750
v 1.145630 0.879060 0.929330
v 1.145630 0.879060 1.006150
v 1.148980 -0.863950 1.380210
v 1.148980 0.869650 1.380210
v 1.151540 -0.975730 1.392390
v 1.151540 0.981430 1.392390
v 1.151710 -0.908840 1.602000
v 1.151710 -0.908840 1.604300
v 1.151710 0.914540 1.602000
v 1.151710 0.914540 1.604300
v 1.152770 -0.984670 0.617570
v 1.152770 -0.984670 0.678790
v 1.152770 -0.984670 0.706630
v 1.152770 -0.984670 0.795680
v 1.152770 0.990370 0.617570
v 1.152770 0.990370 0.678790
v 1.152770 0.990370 0.706630
v 1.152770 0.990370 0.795680
v 1.155030 -0.984670 0.472050
v 1.155030 -0.984670 0.545630
v 1.155030 -0.984670 0.554290
v 1.155030 -0.984670 0.865780
v 1.155030 0.990370 0.472050
v 1.155030 0.990370 0.545630
v 1.155030 0.990370 0.554290
v 1.155030 0.990370 0.865780
v 1.155700 -0.787530 0.865270
v 1.155700 0.793230 0.865270
v 1.157190 -0.876070 1.379200
v 1.157190 0.881770 1.379200
v 1.158560 -0.827110 1.110070
v 1.158560 -0.827110 1.512180
v 1.158560 0.832810 1.110070
v 1.158560 0.832810 1.512180
v 1.159190 -0.823980 1.110070
v 1.159190 -0.823980 1.512180
v 1.159190 0.829680 1.110070
v 1.159190 0.829680 1.512180
v 1.159930 -0.846630 1.330700
v 1.159930 0.852330 1.330700
v 1.161180 -0.836810 1.276240
v 1.161180 0.842510 1.276240
v 1.161500 -0.752450 0.866050
v 1.161500 0.758150 0.866050
v 1.162230 -0.698570 0.865550
v 1.162230 0.704270 0.865550
v 1.162900 -0.823300 1.187120
v 1.162900 0.829000 1.187120
v 1.164830 -0.601590 0.865550
v 1.164830 -0.463970 0.865550
v 1.164830 0.469670 0.865550
v 1.164830 0.607290 0.865550
v 1.164940 -0.807340 1.101720
v 1.164940 0.813040 1.101720
v 1.168400 -0.858370 1.328660
v 1.168400 0.864060 1.328660
v 1.168860 -0.776650 1.018790
v 1.168860 0.782350 1.018790
v 1.169410 -0.848750 1.274430
v 1.169410 0.854450 1.274430
v 1.171140 -0.835240 1.185280
v 1.171140 0.840940 1.185280
v 1.171600 -0.912570 1.514070
v 1.171600 -0.912570 1.516320
v 1.171600 0.918270 1.514070
v 1.171600 0.918270 1.516320
v 1.172210 -0.922250 1.019920
v 1.172210 0.927950 1.019920
v 1.173410 -0.818940 1.098830
v 1.173410 0.824640 1.098830
v 1.174000 -0.873360 0.615830
v 1.174000 -0.873360 0.780080
v 1.174000 0.879060 0.615830
v 1.174000 0.879060 0.780080
v 1.176300 -0.873360 0.615830
v 1.176300 -0.873360 0.780080
v 1.176300 0.879060 0.615830
v 1.176300 0.879060 0.780080
v 1.176620 -0.794490 1.032990
v 1.176620 0.800190 1.032990
v 1.176670 -0.873360 0.734610
v 1.176670 0.879060 0.734610
v 1.179590 -0.790140 1.109690
v 1.179590 -0.790140 1.511800
v 1.179590 0.795840 1.109690
v 1.179590 0.795840 1.511800
v 1.180540 -0.960000 0.746320
v 1.180540 0.965700 0.746320
v 1.184020 -0.854740 1.600500
v 1.184020 -0.854740 1.603290
v 1.184020 0.860440 1.600500
v 1.184020 0.860440 1.603290
v 1.184120 -0.804810 0.617150
v 1.184120 -0.804810 0.781400
v 1.184120 0.810510 0.617150
v 1.184120 0.810510 0.781400
v 1.186420 -0.804810 0.617150
v 1.186420 -0.804810 0.781400
v 1.186420 0.810510 0.617150
v 1.186420 0.810510 0.781400
v 1.186790 -0.804810 0.735930
v 1.186790 0.810510 0.735930
v 1.187210 -0.764210 0.617270
v 1.187210 0.769910 0.617270
v 1.187300 -0.752450 0.617820
v 1.187300 0.758150 0.617820
v 1.189250 -0.764210 0.780180
v 1.189250 0.769910 0.780180
v 1.189510 -0.764210 0.617270
v 1.189510 0.769910 0.617270
v 1.189600 -0.752450 0.617820
v 1.189600 0.758150 0.617820
v 1.189920 -0.752450 0.780290
v 1.189920 0.758150 0.780290
v 1.190660 -0.698570 0.617390
v 1.190660 -0.698570 0.776110
v 1.190660 0.704270 0.617390
v 1.190660 0.704270 0.776110
v 1.191360 -0.764210 0.735080
v 1.191360 0.769910 0.735080
v 1.191550 -0.764210 0.780180
v 1.191550 0.769910 0.780180
v 1.191860 -0.752450 0.735310
v 1.191860 0.758150 0.735310
v 1.192220 -0.752450 0.780290
v 1.192220 0.758150 0.780290
v 1.192960 -0.698570 0.617390
v 1.192960 -0.698570 0.776110
v 1.192960 0.704270 0.617390
v 1.192960 0.704270 0.776110
v 1.193260 -0.610070 0.617390
v 1.193260 -0.597450 0.645570
v 1.193260 -0.592400 0.673750
v 1.193260 -0.587350 0.701930
v 1.193260 -0.577250 0.758290
v 1.193260 0.582950 0.758290
v 1.193260 0.593050 0.701930
v 1.193260 0.598100 0.673750
v 1.193260 0.603150 0.645570
v 1.193260 0.615770 0.617390
v 1.193330 -0.698570 0.732180
v 1.193330 0.704270 0.732180
v 1.193410 -0.898290 1.386830
v 1.193410 0.903990 1.386830
v 1.194760 -0.932470 1.381210
v 1.194760 0.938170 1.381210
v 1.195550 -0.610070 0.617390
v 1.195550 -0.597450 0.645570
v 1.195550 -0.582300 0.730110
v 1.195550 -0.577250 0.758290
v 1.195550 0.582950 0.758290
v 1.195550 0.588000 0.730110
v 1.195550 0.603150 0.645570
v 1.195550 0.615770 0.617390
v 1.195620 -0.960000 0.603180
v 1.195620 -0.960000 0.795680
v 1.195620 0.965700 0.603180
v 1.195620 0.965700 0.795680
v 1.197870 -0.960000 0.472050
v 1.197870 -0.960000 0.545630
v 1.197870 -0.960000 0.554290
v 1.197870 -0.960000 0.865780
v 1.197870 0.965700 0.472050
v 1.197870 0.965700 0.545630
v 1.197870 0.965700 0.554290
v 1.197870 0.965700 0.865780
v 1.199800 -0.821300 1.600130
v 1.199800 -0.821300 1.602910
v 1.199800 0.827000 1.600130
v 1.199800 0.827000 1.602910
v 1.202280 -0.860960 1.512640
v 1.202280 0.866660 1.512640
v 1.202500 -0.878820 1.334890
v 1.202500 -0.868430 1.277770
v 1.202500 -0.864130 1.249600
v 1.202500 -0.854150 1.184290
v 1.202500 -0.837270 1.094700
v 1.202500 -0.804810 0.874620
v 1.202500 -0.804810 0.923310
v 1.202500 -0.804810 0.930880
v 1.202500 -0.804810 1.007700
v 1.202500 0.810510 0.874620
v 1.202500 0.810510 0.923310
v 1.202500 0.810510 0.930880
v 1.202500 0.810510 1.007700
v 1.202500 0.842970 1.094700
v 1.202500 0.859850 1.184290
v 1.202500 0.869830 1.249600
v 1.202500 0.874130 1.277770
v 1.202500 0.884520 1.334890
v 1.202980 -0.944590 1.380210
v 1.202980 0.950290 1.380210
v 1.204150 -0.857820 1.514810
v 1.204150 0.863520 1.514810
v 1.205320 -0.698890 1.107530
v 1.205320 -0.698890 1.509640
v 1.205320 0.704590 1.107530
v 1.205320 0.704590 1.509640
v 1.205440 -0.915540 1.332740
v 1.205440 0.921240 1.332740
v 1.206510 -0.937930 0.746320
v 1.206510 0.943630 0.746320
v 1.206940 -0.905510 1.278040
v 1.206940 0.911210 1.278040
v 1.208660 -0.892010 1.188960
v 1.208660 0.897710 1.188960
v 1.210260 -0.934130 0.747100
v 1.210260 0.939830 0.747100
v 1.210470 -0.876390 1.104620
v 1.210470 0.882090 1.104620
v 1.213760 -0.849950 1.032990
v 1.213760 0.855650 1.032990
v 1.213920 -0.927270 1.330700
v 1.213920 0.932970 1.330700
v 1.215180 -0.917450 1.276240
v 1.215180 0.923150 1.276240
v 1.215580 -0.787870 1.599750
v 1.215580 -0.787870 1.602540
v 1.215580 0.793560 1.599750
v 1.215580 0.793560 1.602540
v 1.216900 -0.903940 1.187120
v 1.216900 0.909640 1.187120
v 1.218880 -0.827110 1.512180
v 1.218880 0.832810 1.512180
v 1.218940 -0.887980 1.101720
v 1.218940 0.893680 1.101720
v 1.219510 -0.823980 1.512180
v 1.219510 -0.823980 1.514430
v 1.219510 0.829680 1.512180
v 1.219510 0.829680 1.514430
v 1.221580 -0.937930 0.603180
v 1.221580 -0.937930 0.795680
v 1.221580 0.943630 0.603180
v 1.221580 0.943630 0.795680
v 1.222860 -0.857290 1.018790
v 1.222860 0.862990 1.018790
v 1.223490 -0.578740 1.104610
v 1.223490 -0.578740 1.506720
v 1.223490 0.584440 1.104610
v 1.223490 0.584440 1.506720
v 1.223840 -0.937930 0.472050
v 1.223840 -0.937930 0.545630
v 1.223840 -0.937930 0.554290
v 1.223840 -0.937930 0.865780
v 1.223840 0.943630 0.472050
v 1.223840 0.943630 0.545630
v 1.223840 0.943630 0.554290
v 1.223840 0.943630 0.865780
v 1.223970 -0.338780 1.693350
v 1.223970 -0.308140 1.692130
v 1.223970 0.342730 1.693350
v 1.223970 0.373370 1.692130
v 1.225000 -0.435020 1.102770
v 1.225000 -0.435020 1.504880
v 1.225000 -0.290540 1.100600
v 1.225000 -0.290540 1.502710
v 1.225000 0.296240 1.100600
v 1.225000 0.296240 1.502710
v 1.225000 0.440720 1.102770
v 1.225000 0.440720 1.504880
v 1.225340 -0.934130 0.603110
v 1.225340 -0.934130 0.796460
v 1.225340 0.939830 0.603110
v 1.225340 0.939830 0.796460
v 1.225760 -0.147580 1.098440
v 1.225760 -0.147580 1.500550
v 1.225760 0.153280 1.098440
v 1.225760 0.153280 1.500550
v 1.226460 0.002850 1.098440
v 1.226460 0.002850 1.500550
v 1.227600 -0.934130 0.468930
v 1.227600 -0.934130 0.542510
v 1.227600 -0.934130 0.551170
v 1.227600 -0.934130 0.865270
v 1.227600 0.939830 0.468930
v 1.227600 0.939830 0.542510
v 1.227600 0.939830 0.551170
v 1.227600 0.939830 0.865270
v 1.232700 -0.338770 1.693350
v 1.232700 -0.308140 1.692130
v 1.232700 0.342730 1.693350
v 1.232700 0.373370 1.692130
v 1.232940 -0.805690 1.450510
v 1.232940 0.811390 1.450510
v 1.233570 -0.802560 1.450510
v 1.233570 0.808260 1.450510
v 1.237490 -0.764210 0.874750
v 1.237490 -0.764210 0.923440
v 1.237490 -0.764210 0.931010
v 1.237490 0.769910 0.874750
v 1.237490 0.769910 0.923440
v 1.237490 0.769910 0.931010
v 1.239910 -0.790140 1.514050
v 1.239910 0.795840 1.514050
v 1.241120 -0.697700 1.599750
v 1.241120 -0.697700 1.602540
v 1.241120 0.703400 1.599750
v 1.241120 0.703400 1.602540
v 1.242030 -0.752450 0.875400
v 1.242030 -0.752450 0.924090
v 1.242030 -0.752450 0.931660
v 1.242030 0.758150 0.875400
v 1.242030 0.758150 0.924090
v 1.242030 0.758150 0.931660
v 1.243220 -0.788160 1.388830
v 1.243220 0.793860 1.388830
v 1.243850 -0.785030 1.388830
v 1.243850 0.790730 1.388830
v 1.244640 -0.525380 0.551440
v 1.244640 -0.512400 0.603380
v 1.244640 -0.500450 0.532740
v 1.244640 -0.496590 0.633410
v 1.244640 -0.473200 0.663450
v 1.244640 -0.447830 0.693490
v 1.244640 -0.437550 0.532740
v 1.244640 -0.426230 0.720410
v 1.244640 0.002850 0.532740
v 1.244640 0.002850 0.721960
v 1.244640 0.431930 0.720410
v 1.244640 0.443240 0.532740
v 1.244640 0.453530 0.693490
v 1.244640 0.478900 0.663450
v 1.244640 0.502280 0.633410
v 1.244640 0.506150 0.532740
v 1.244640 0.518100 0.603380
v 1.244640 0.531080 0.551440
v 1.252940 -0.873360 0.745540
v 1.252940 0.879060 0.745540
v 1.253140 -0.770630 1.327160
v 1.253140 0.776330 1.327160
v 1.253770 -0.767500 1.327160
v 1.253770 0.773200 1.327160
v 1.258370 -0.757000 1.265490
v 1.258370 -0.750480 1.239410
v 1.258370 -0.747480 1.239410
v 1.258370 -0.739690 1.234220
v 1.258370 -0.735360 1.178930
v 1.258370 -0.719130 1.081550
v 1.258370 -0.698570 0.874890
v 1.258370 -0.698570 0.923580
v 1.258370 -0.698570 0.931160
v 1.258370 0.704270 0.874890
v 1.258370 0.704270 0.923580
v 1.258370 0.704270 0.931160
v 1.258370 0.724830 1.081550
v 1.258370 0.741060 1.178930
v 1.258370 0.745390 1.234220
v 1.258370 0.753180 1.239410
v 1.258370 0.756180 1.239410
v 1.258370 0.762700 1.265490
v 1.259000 -0.753870 1.265490
v 1.259000 0.759570 1.265490
v 1.259160 -0.578980 1.599000
v 1.259160 -0.578980 1.601780
v 1.259160 0.584680 1.599000
v 1.259160 0.584680 1.601780
v 1.260660 -0.436970 1.598250
v 1.260660 -0.436970 1.601040
v 1.260660 -0.294210 1.598250
v 1.260660 -0.294210 1.601040
v 1.260660 0.299910 1.598250
v 1.260660 0.299910 1.601040
v 1.260660 0.442670 1.598250
v 1.260660 0.442670 1.601040
v 1.260760 -0.629000 1.537830
v 1.260760 -0.629000 1.563560
v 1.260760 -0.596520 1.532380
v 1.260760 -0.596520 1.569020
v 1.260760 -0.336760 1.532380
v 1.260760 -0.336760 1.569020
v 1.260760 -0.304290 1.537830
v 1.260760 -0.304290 1.563560
v 1.260760 0.309990 1.537830
v 1.260760 0.309990 1.563560
v 1.260760 0.342460 1.532380
v 1.260760 0.342460 1.569020
v 1.260760 0.602220 1.532380
v 1.260760 0.602220 1.569020
v 1.260760 0.634690 1.537830
v 1.260760 0.634690 1.563560
v 1.261410 -0.152950 1.598250
v 1.261410 -0.152950 1.601040
v 1.261410 0.158650 1.598250
v 1.261410 0.158650 1.601040
v 1.261650 -0.698780 1.051260
v 1.261650 0.704480 1.051260
v 1.262110 0.002850 1.598250
v 1.262110 0.002850 1.601040
v 1.262900 -0.698890 1.243690
v 1.262900 0.704590 1.243690
v 1.263060 -0.804810 0.747100
v 1.263060 0.810510 0.747100
v 1.265640 -0.698890 1.509640
v 1.265640 -0.698890 1.511890
v 1.265640 0.704590 1.509640
v 1.265640 0.704590 1.511890
v 1.267230 -0.178300 1.560690
v 1.267230 -0.147660 1.559470
v 1.267230 0.503210 1.560690
v 1.267230 0.533850 1.559470
v 1.267520 -0.714360 1.155130
v 1.267520 0.720060 1.155130
v 1.268020 -0.873360 0.601550
v 1.268020 -0.873360 0.794900
v 1.268020 0.879060 0.601550
v 1.268020 0.879060 0.794900
v 1.268200 -0.764210 0.745660
v 1.268200 0.769910 0.745660
v 1.268860 -0.752450 0.745790
v 1.268860 0.758150 0.745790
v 1.269600 -0.698570 0.740880
v 1.269600 0.704270 0.740880
v 1.270270 -0.873360 0.467370
v 1.270270 -0.873360 0.540960
v 1.270270 -0.873360 0.549610
v 1.270270 -0.873360 0.863710
v 1.270270 0.879060 0.467370
v 1.270270 0.879060 0.540960
v 1.270270 0.879060 0.549610
v 1.270270 0.879060 0.863710
v 1.270300 -0.564060 1.532380
v 1.270300 -0.564060 1.569020
v 1.270300 -0.531580 1.532380
v 1.270300 -0.531580 1.569020
v 1.270300 -0.499110 1.532380
v 1.270300 -0.499110 1.569020
v 1.270300 -0.466640 1.532380
v 1.270300 -0.466640 1.569020
v 1.270300 -0.434170 1.532380
v 1.270300 -0.434170 1.569020
v 1.270300 -0.401700 1.532380
v 1.270300 -0.401700 1.569020
v 1.270300 -0.369230 1.532380
v 1.270300 -0.369230 1.569020
v 1.270300 0.374930 1.532380
v 1.270300 0.374930 1.569020
v 1.270300 0.407400 1.532380
v 1.270300 0.407400 1.569020
v 1.270300 0.439870 1.532380
v 1.270300 0.439870 1.569020
v 1.270300 0.472340 1.532380
v 1.270300 0.472340 1.569020
v 1.270300 0.504810 1.532380
v 1.270300 0.504810 1.569020
v 1.270300 0.537280 1.532380
v 1.270300 0.537280 1.569020
v 1.270300 0.569750 1.532380
v 1.270300 0.569750 1.569020
v 1.275960 -0.178300 1.560690
v 1.275960 -0.147660 1.559470
v 1.275960 0.503210 1.560690
v 1.275960 0.533850 1.559470
v 1.276610 -0.698780 1.066840
v 1.276610 -0.670180 0.928870
v 1.276610 0.675880 0.928870
v 1.276610 0.704480 1.066840
v 1.277910 -0.716950 1.172010
v 1.277910 -0.698890 1.248880
v 1.277910 0.704590 1.248880
v 1.277910 0.722650 1.172010
v 1.278140 -0.804810 0.603110
v 1.278140 -0.804810 0.796460
v 1.278140 0.810510 0.603110
v 1.278140 0.810510 0.796460
v 1.279820 -0.578680 1.046600
v 1.279820 0.584380 1.046600
v 1.280400 -0.804810 0.468930
v 1.280400 -0.804810 0.542510
v 1.280400 -0.804810 0.551170
v 1.280400 -0.804810 0.865270
v 1.280400 0.810510 0.468930
v 1.280400 0.810510 0.542510
v 1.280400 0.810510 0.551170
v 1.280400 0.810510 0.865270
v 1.280500 -0.629000 1.537830
v 1.280500 -0.629000 1.563560
v 1.280500 -0.304290 1.537830
v 1.280500 -0.304290 1.563560
v 1.280500 0.309990 1.537830
v 1.280500 0.309990 1.563560
v 1.280500 0.634690 1.537830
v 1.280500 0.634690 1.563560
v 1.281070 -0.578740 1.240760
v 1.281070 0.584440 1.240760
v 1.281230 -0.764210 0.603230
v 1.281230 0.769910 0.603230
v 1.281320 -0.752450 0.603880
v 1.281320 0.758150 0.603880
v 1.281330 -0.435000 1.042690
v 1.281330 -0.290570 1.038430
v 1.281330 0.296270 1.038430
v 1.281330 0.440700 1.042690
v 1.282090 -0.147650 1.034200
v 1.282090 0.153350 1.034200
v 1.282580 -0.435020 1.238930
v 1.282580 -0.290540 1.236760
v 1.282580 0.296240 1.236760
v 1.282580 0.440720 1.238930
v 1.282790 0.002850 1.032030
v 1.283270 -0.764210 0.795030
v 1.283270 0.769910 0.795030
v 1.283340 -0.147580 1.234600
v 1.283340 0.153280 1.234600
v 1.283480 -0.764210 0.469060
v 1.283480 -0.764210 0.542650
v 1.283480 -0.764210 0.551300
v 1.283480 0.769910 0.469060
v 1.283480 0.769910 0.542650
v 1.283480 0.769910 0.551300
v 1.283570 -0.752450 0.469710
v 1.283570 -0.752450 0.543290
v 1.283570 -0.752450 0.551950
v 1.283570 0.758150 0.469710
v 1.283570 0.758150 0.543290
v 1.283570 0.758150 0.551950
v 1.283810 -0.578740 1.506720
v 1.283810 -0.578740 1.508970
v 1.283810 0.584440 1.506720
v 1.283810 0.584440 1.508970
v 1.283940 -0.752450 0.795150
v 1.283940 0.758150 0.795150
v 1.284040 0.002850 1.234600
v 1.284670 -0.698570 0.603380
v 1.284670 -0.698570 0.790240
v 1.284670 0.704270 0.603380
v 1.284670 0.704270 0.790240
v 1.285320 -0.435020 1.504880
v 1.285320 -0.435020 1.507130
v 1.285320 -0.290540 1.502710
v 1.285320 -0.290540 1.504970
v 1.285320 0.296240 1.502710
v 1.285320 0.296240 1.504970
v 1.285320 0.440720 1.504880
v 1.285320 0.440720 1.507130
v 1.285530 -0.764210 0.865400
v 1.285530 0.769910 0.865400
v 1.285680 -0.578680 1.150470
v 1.285680 0.584380 1.150470
v 1.286080 -0.147580 1.500550
v 1.286080 -0.147580 1.502800
v 1.286080 0.153280 1.500550
v 1.286080 0.153280 1.502800
v 1.286190 -0.752450 0.866050
v 1.286190 0.758150 0.866050
v 1.286780 0.002850 1.500550
v 1.286780 0.002850 1.502800
v 1.286930 -0.698570 0.469200
v 1.286930 -0.698570 0.542790
v 1.286930 -0.698570 0.551440
v 1.286930 -0.698570 0.865550
v 1.286930 0.704270 0.469200
v 1.286930 0.704270 0.542790
v 1.286930 0.704270 0.551440
v 1.286930 0.704270 0.865550
v 1.287200 -0.435000 1.146560
v 1.287200 -0.290570 1.142300
v 1.287200 0.296270 1.142300
v 1.287200 0.440700 1.146560
v 1.287270 -0.610070 0.603380
v 1.287270 -0.597450 0.636550
v 1.287270 -0.592400 0.669730
v 1.287270 -0.587350 0.702900
v 1.287270 -0.582300 0.736070
v 1.287270 -0.577250 0.769250
v 1.287270 0.582950 0.769250
v 1.287270 0.588000 0.736070
v 1.287270 0.593050 0.702900
v 1.287270 0.598100 0.669730
v 1.287270 0.603150 0.636550
v 1.287270 0.615770 0.603380
v 1.287950 -0.147650 1.138070
v 1.287950 0.153350 1.138070
v 1.288030 -0.266430 0.726030
v 1.288030 -0.266430 0.851840
v 1.288030 0.272130 0.726030
v 1.288030 0.272130 0.851840
v 1.288660 0.002850 1.135900
v 1.289530 -0.602500 0.469200
v 1.289530 -0.602500 0.542790
v 1.289530 -0.602500 0.551440
v 1.289530 -0.601590 0.865550
v 1.289530 -0.601590 0.876370
v 1.289530 -0.558350 0.469200
v 1.289530 -0.558350 0.542790
v 1.289530 -0.558350 0.551440
v 1.289530 -0.558350 0.603380
v 1.289530 -0.554590 0.551440
v 1.289530 -0.554590 0.603380
v 1.289530 -0.550110 0.633410
v 1.289530 -0.546360 0.633410
v 1.289530 -0.541880 0.663450
v 1.289530 -0.538120 0.663450
v 1.289530 -0.533640 0.693490
v 1.289530 -0.529880 0.693490
v 1.289530 -0.525400 0.723520
v 1.289530 -0.525380 0.464150
v 1.289530 -0.525380 0.542420
v 1.289530 -0.525380 0.551440
v 1.289530 -0.521640 0.723520
v 1.289530 -0.517160 0.753560
v 1.289530 -0.513410 0.753560
v 1.289530 -0.512400 0.603380
v 1.289530 -0.500450 0.466020
v 1.289530 -0.500450 0.523730
v 1.289530 -0.500450 0.532740
v 1.289530 -0.496590 0.633410
v 1.289530 -0.473200 0.663450
v 1.289530 -0.463970 0.865550
v 1.289530 -0.463970 0.876370
v 1.289530 -0.460210 0.865550
v 1.289530 -0.447830 0.693490
v 1.289530 -0.437550 0.532740
v 1.289530 -0.426230 0.720410
v 1.289530 -0.400390 0.532740
v 1.289530 -0.389080 0.720410
v 1.289530 -0.376020 0.865550
v 1.289530 -0.376020 0.876370
v 1.289530 0.002850 0.466020
v 1.289530 0.002850 0.523730
v 1.289530 0.002850 0.532740
v 1.289530 0.002850 0.721960
v 1.289530 0.002850 0.865550
v 1.289530 0.002850 0.876370
v 1.289530 0.381720 0.865550
v 1.289530 0.381720 0.876370
v 1.289530 0.394780 0.720410
v 1.289530 0.406090 0.532740
v 1.289530 0.431930 0.720410
v 1.289530 0.443240 0.532740
v 1.289530 0.453530 0.693490
v 1.289530 0.465910 0.865550
v 1.289530 0.469670 0.865550
v 1.289530 0.469670 0.876370
v 1.289530 0.478900 0.663450
v 1.289530 0.502280 0.633410
v 1.289530 0.506150 0.466020
v 1.289530 0.506150 0.523730
v 1.289530 0.506150 0.532740
v 1.289530 0.518100 0.603380
v 1.289530 0.519100 0.753560
v 1.289530 0.522860 0.753560
v 1.289530 0.527340 0.723520
v 1.289530 0.531080 0.464150
v 1.289530 0.531080 0.542420
v 1.289530 0.531080 0.551440
v 1.289530 0.531100 0.723520
v 1.289530 0.535580 0.693490
v 1.289530 0.539340 0.693490
v 1.289530 0.543820 0.663450
v 1.289530 0.547580 0.663450
v 1.289530 0.552060 0.633410
v 1.289530 0.555810 0.633410
v 1.289530 0.560290 0.551440
v 1.289530 0.560290 0.603380
v 1.289530 0.564050 0.469200
v 1.289530 0.564050 0.542790
v 1.289530 0.564050 0.551440
v 1.289530 0.564050 0.603380
v 1.289530 0.607290 0.865550
v 1.289530 0.607290 0.876370
v 1.289530 0.608200 0.469200
v 1.289530 0.608200 0.542790
v 1.289530 0.608200 0.551440
v 1.294770 -0.578680 1.062180
v 1.294770 -0.578360 0.916520
v 1.294770 -0.578360 0.920120
v 1.294770 0.584060 0.916520
v 1.294770 0.584060 0.920120
v 1.294770 0.584380 1.062180
v 1.295750 -0.596520 1.532380
v 1.295750 -0.596520 1.569020
v 1.295750 -0.564060 1.532380
v 1.295750 -0.564060 1.569020
v 1.295750 -0.531580 1.532380
v 1.295750 -0.531580 1.569020
v 1.295750 -0.499110 1.532380
v 1.295750 -0.499110 1.569020
v 1.295750 -0.466640 1.532380
v 1.295750 -0.466640 1.569020
v 1.295750 -0.434170 1.532380
v 1.295750 -0.434170 1.569020
v 1.295750 -0.401700 1.532380
v 1.295750 -0.401700 1.569020
v 1.295750 -0.369230 1.532380
v 1.295750 -0.369230 1.569020
v 1.295750 -0.336760 1.532380
v 1.295750 -0.336760 1.569020
v 1.295750 0.342460 1.532380
v 1.295750 0.342460 1.569020
v 1.295750 0.374930 1.532380
v 1.295750 0.374930 1.569020
v 1.295750 0.407400 1.532380
v 1.295750 0.407400 1.569020
v 1.295750 0.439870 1.532380
v 1.295750 0.439870 1.569020
v 1.295750 0.472340 1.532380
v 1.295750 0.472340 1.569020
v 1.295750 0.504810 1.532380
v 1.295750 0.504810 1.569020
v 1.295750 0.537280 1.532380
v 1.295750 0.537280 1.569020
v 1.295750 0.569750 1.532380
v 1.295750 0.569750 1.569020
v 1.295750 0.602220 1.532380
v 1.295750 0.602220 1.569020
v 1.296070 -0.578740 1.245960
v 1.296070 -0.578680 1.163460
v 1.296070 0.584380 1.163460
v 1.296070 0.584440 1.245960
v 1.296290 -0.435000 1.058270
v 1.296290 -0.434900 0.907710
v 1.296290 -0.434900 0.911320
v 1.296290 -0.290690 0.898540
v 1.296290 -0.290690 0.902150
v 1.296290 -0.290570 1.054010
v 1.296290 0.296270 1.054010
v 1.296290 0.296390 0.898540
v 1.296290 0.296390 0.902150
v 1.296290 0.440600 0.907710
v 1.296290 0.440600 0.911320
v 1.296290 0.440700 1.058270
v 1.297040 -0.148000 0.889450
v 1.297040 -0.148000 0.893050
v 1.297040 -0.147650 1.049780
v 1.297040 0.153350 1.049780
v 1.297040 0.153700 0.889450
v 1.297040 0.153700 0.893050
v 1.297580 -0.435020 1.244120
v 1.297580 -0.435000 1.159540
v 1.297580 -0.290570 1.155290
v 1.297580 -0.290540 1.241960
v 1.297580 0.296240 1.241960
v 1.297580 0.296270 1.155290
v 1.297580 0.440700 1.159540
v 1.297580 0.440720 1.244120
v 1.297740 0.002850 0.885760
v 1.297740 0.002850 1.047610
v 1.298340 -0.147650 1.151060
v 1.298340 -0.147580 1.239790
v 1.298340 0.153280 1.239790
v 1.298340 0.153350 1.151060
v 1.299040 0.002850 1.148880
v 1.299040 0.002850 1.239790
v 1.302250 -0.020660 1.152670
v 1.302250 -0.017740 1.152670
v 1.302250 -0.002950 1.128170
v 1.302250 -0.002190 1.298740
v 1.302250 -0.001580 1.128170
v 1.302250 0.000720 1.298740
v 1.302250 0.004980 1.298740
v 1.302250 0.007270 1.128170
v 1.302250 0.007890 1.298740
v 1.302250 0.008650 1.128170
v 1.302250 0.023440 1.152670
v 1.302250 0.026350 1.152670
v 1.302900 -0.134110 1.079750
v 1.302900 -0.131200 1.079750
v 1.302900 0.136900 1.079750
v 1.302900 0.139810 1.079750
v 1.307170 -0.134110 1.079750
v 1.307170 -0.131200 1.079750
v 1.307170 0.136900 1.079750
v 1.307170 0.139810 1.079750
v 1.307820 -0.020660 1.152670
v 1.307820 -0.017740 1.152670
v 1.307820 -0.002950 1.128170
v 1.307820 -0.002190 1.298740
v 1.307820 -0.001580 1.128170
v 1.307820 0.000720 1.298740
v 1.307820 0.004980 1.298740
v 1.307820 0.007270 1.128170
v 1.307820 0.007890 1.298740
v 1.307820 0.008650 1.128170
v 1.307820 0.023440 1.152670
v 1.307820 0.026350 1.152670
v 1.308610 -0.266430 0.726030
v 1.308610 -0.266430 0.851840
v 1.308610 0.272130 0.726030
v 1.308610 0.272130 0.851840
l 2281 2289
l 2281 2284
l 2258 2284
l 2008 2258
l 1944 2067
l 2067 2082
l 2080 2082
l 2080 2090
l 1881 1901
l 1857 1881
l 1835 1857
l 1778 1944
l 1778 1835
l 2090 2094
l 2289 2292
l 1693 1739
l 1738 1739
l 1735 1736
l 1734 1735
l 1614 1721
l 1853 1893
l 1893 1894
l 1894 1895
l 1879 1899
l 1855 1879
l 1833 1855
l 1773 1833
l 1539 1614
l 1541 1693
l 1499 1541
l 1416 1497
l 1416 1418
l 1419 1499
l 1418 1419
l 1447 1501
l 1447 1448
l 1442 1448
l 1442 1449
l 1443 1449
l 1763 1765
l 1765 1771
l 1771 1775
l 1617 1785
l 1775 1785
l 1555 1741
l 1741 1763
l 1501 1617
l 1439 1503
l 1439 1443
l 1319 1439
l 1319 1451
l 1319 1323
l 1323 1329
l 1322 1329
l 1322 1328
l 1327 1447
l 1327 1328
l 1327 1429
l 1429 1493
l 1607 1785
l 1493 1607
l 1695 1749
l 1749 1753
l 1753 1755
l 1755 1759
l 1759 1761
l 1543 1695
l 1579 1605
l 1553 1589
l 1605 1609
l 1589 1591
l 1609 1611
l 1591 1597
l 1611 1619
l 1597 1603
l 1619 1629
l 1603 1607
l 1481 1579
l 1461 1553
l 1629 1761
l 1459 1517
l 1733 1841
l 1551 1734
l 1550 1733
l 1437 1551
l 1436 1550
l 1354 1355
l 2181 2208
l 2181 2190
l 2103 2208
l 2093 2103
l 2023 2085
l 1969 2023
l 1827 1969
l 1715 1797
l 1575 1715
l 1469 1575
l 1343 1469
l 2190 2195
l 2201 2207
l 2199 2201
l 2197 2199
l 2195 2197
l 2206 2207
l 2206 2212
l 2102 2212
l 2064 2102
l 2022 2058
l 1968 2022
l 1826 1968
l 1714 1796
l 1574 1714
l 1468 1574
l 1342 1468
l 2171 2173
l 2189 2191
l 2170 2177
l 2173 2180
l 2180 2189
l 2177 2179
l 2191 2196
l 2196 2198
l 2179 2183
l 2198 2200
l 2183 2184
l 2200 2203
l 2184 2188
l 2202 2203
l 2188 2194
l 1895 1898
l 1736 1737
l 1897 2008
l 1453 1471
l 1509 1577
l 1593 1595
l 1595 1601
l 1600 1601
l 1600 2181
l 2205 2211
l 2204 2210
l 2101 2211
l 2100 2210
l 2063 2101
l 2062 2100
l 2021 2057
l 2020 2056
l 1967 2021
l 1966 2020
l 1825 1967
l 1824 1966
l 1713 1795
l 1712 1794
l 1573 1713
l 1572 1712
l 1467 1573
l 1466 1572
l 1305 1467
l 1304 1466
l 2192 2204
l 2193 2205
l 2186 2193
l 2168 2186
l 2167 2185
l 503 512
l 392 419
l 503 515
l 392 393
l 512 555
l 419 439
l 439 473
l 555 607
l 515 521
l 393 407
l 407 537
l 473 656
l 607 705
l 656 708
l 705 831
l 708 834
l 831 985
l 834 957
l 985 1069
l 957 1001
l 1383 1384
l 989 1211
l 819 989
l 689 819
l 643 689
l 481 536
l 536 601
l 1384 1385
l 681 825
l 435 437
l 589 627
l 601 643
l 1396 1397
l 1225 1396
l 993 1225
l 824 993
l 730 824
l 698 730
l 664 698
l 1365 1409
l 434 523
l 1199 1346
l 1346 1347
l 995 1199
l 843 995
l 764 843
l 738 764
l 999 1259
l 997 1213
l 883 999
l 845 997
l 782 883
l 772 782
l 772 845
l 1259 1350
l 1213 1351
l 1350 1351
l 580 664
l 1307 1343
l 1303 1337
l 923 929
l 885 895
l 895 931
l 925 931
l 885 925
l 1231 1267
l 1230 1266
l 925 1231
l 931 1230
l 191 311
l 412 425
l 182 191
l 387 412
l 168 182
l 383 387
l 157 168
l 380 383
l 377 381
l 143 158
l 376 377
l 142 143
l 376 385
l 142 174
l 385 423
l 174 303
l 192 194
l 414 415
l 193 413
l 301 302
l 1147 1171
l 1191 1227
l 1171 1181
l 1227 1269
l 1181 1189
l 1269 1315
l 1189 1197
l 1315 1335
l 1197 1221
l 1221 1363
l 1335 1363
l 300 301
l 298 299
l 294 295
l 292 293
l 293 294
l 297 298
l 296 297
l 295 296
l 523 580
l 545 589
l 559 585
l 421 433
l 406 481
l 406 417
l 417 421
l 585 615
l 544 588
l 558 584
l 584 614
l 588 626
l 1183 1191
l 1337 1453
l 1306 1342
l 1063 1155
l 958 1063
l 835 947
l 709 835
l 657 709
l 471 657
l 423 471
l 302 303
l 947 958
l 255 258
l 258 260
l 260 262
l 262 264
l 264 266
l 266 268
l 268 270
l 272 274
l 274 276
l 276 280
l 180 280
l 151 180
l 151 154
l 154 166
l 165 172
l 172 186
l 186 224
l 224 309
l 194 228
l 226 228
l 76 77
l 77 78
l 78 79
l 79 80
l 80 81
l 81 82
l 82 83
l 84 85
l 85 86
l 86 87
l 56 87
l 47 56
l 47 48
l 48 52
l 51 54
l 54 58
l 58 62
l 62 89
l 63 64
l 273 275
l 253 254
l 253 257
l 257 259
l 259 261
l 261 263
l 263 265
l 265 267
l 267 269
l 271 273
l 179 279
l 150 152
l 153 164
l 163 171
l 171 185
l 185 223
l 223 308
l 225 227
l 222 227
l 211 214
l 214 215
l 215 216
l 216 217
l 217 218
l 220 221
l 210 306
l 144 210
l 150 176
l 277 278
l 218 219
l 111 114
l 114 117
l 117 120
l 126 129
l 113 116
l 116 119
l 119 122
l 128 131
l 112 113
l 129 130
l 120 123
l 122 125
l 130 131
l 111 112
l 152 153
l 121 124
l 127 130
l 118 121
l 115 118
l 112 115
l 695 724
l 724 1057
l 961 1057
l 661 695
l 891 961
l 661 891
l 1379 1382
l 1380 1381
l 2280 2288
l 2277 2280
l 2255 2277
l 2007 2255
l 1942 2065
l 2065 2076
l 2076 2078
l 2078 2088
l 1880 1900
l 1856 1880
l 1834 1856
l 1776 1834
l 1776 1942
l 2088 2094
l 2288 2292
l 1692 1722
l 1722 1723
l 1725 1726
l 1726 1730
l 1612 1720
l 1887 1890
l 1850 1890
l 1886 1887
l 1878 1882
l 1854 1878
l 1832 1854
l 1772 1832
l 1537 1612
l 1536 1692
l 1494 1536
l 1413 1414
l 1414 1495
l 1412 1413
l 1412 1494
l 1444 1445
l 1444 1500
l 1440 1445
l 1440 1446
l 1441 1446
l 1762 1764
l 1764 1770
l 1770 1774
l 1774 1784
l 1616 1784
l 1740 1762
l 1554 1740
l 1500 1616
l 1438 1441
l 1438 1502
l 1318 1450
l 1318 1438
l 1318 1321
l 1321 1326
l 1320 1326
l 1320 1325
l 1324 1325
l 1324 1444
l 1324 1428
l 1428 1492
l 1492 1606
l 1606 1784
l 1694 1748
l 1748 1752
l 1752 1754
l 1754 1758
l 1758 1760
l 1542 1694
l 1552 1588
l 1578 1604
l 1588 1590
l 1604 1608
l 1590 1596
l 1608 1610
l 1596 1602
l 1610 1618
l 1602 1606
l 1618 1628
l 1460 1552
l 1480 1578
l 1628 1760
l 1458 1516
l 1729 1838
l 1546 1729
l 1547 1730
l 1432 1546
l 1433 1547
l 1352 1353
l 2149 2157
l 2130 2157
l 2099 2130
l 2092 2099
l 2019 2084
l 1965 2019
l 1823 1965
l 1711 1793
l 1571 1711
l 1465 1571
l 1341 1465
l 2144 2149
l 2135 2138
l 2138 2140
l 2140 2142
l 2142 2144
l 2129 2134
l 2134 2135
l 2098 2129
l 2061 2098
l 2018 2055
l 1964 2018
l 1822 1964
l 1710 1792
l 1570 1710
l 1464 1570
l 1340 1464
l 2165 2171
l 2148 2150
l 2162 2170
l 2150 2159
l 2159 2165
l 2143 2148
l 2160 2162
l 2156 2160
l 2141 2143
l 2155 2156
l 2139 2141
l 2151 2155
l 2137 2139
l 2147 2151
l 2136 2137
l 1883 1886
l 1724 1725
l 1884 2007
l 1452 1470
l 1508 1576
l 1592 1594
l 1594 1598
l 1599 2157
l 1598 1599
l 2127 2132
l 2128 2133
l 2096 2127
l 2097 2128
l 2059 2096
l 2060 2097
l 2016 2053
l 2017 2054
l 1962 2016
l 1963 2017
l 1820 1962
l 1821 1963
l 1708 1790
l 1709 1791
l 1568 1708
l 1569 1709
l 1462 1568
l 1463 1569
l 1298 1462
l 1299 1463
l 2133 2146
l 2132 2145
l 2146 2153
l 2152 2167
l 2153 2168
l 391 418
l 498 507
l 390 391
l 498 504
l 418 438
l 507 550
l 550 602
l 438 472
l 504 516
l 395 527
l 390 395
l 602 700
l 472 654
l 700 826
l 654 706
l 826 970
l 706 832
l 970 1064
l 832 955
l 955 1000
l 1367 1368
l 966 1202
l 802 966
l 682 802
l 636 682
l 526 592
l 476 526
l 1366 1367
l 680 820
l 426 428
l 586 624
l 592 636
l 1222 1391
l 1390 1391
l 990 1222
l 821 990
l 721 821
l 659 693
l 693 721
l 1364 1408
l 429 522
l 1344 1345
l 1198 1344
l 994 1198
l 842 994
l 735 761
l 761 842
l 996 1212
l 998 1258
l 844 996
l 882 998
l 769 844
l 769 779
l 779 882
l 1348 1349
l 1212 1349
l 1258 1348
l 577 659
l 1302 1336
l 1301 1341
l 922 928
l 884 924
l 924 930
l 894 930
l 884 894
l 1228 1264
l 1229 1265
l 930 1228
l 924 1229
l 411 424
l 190 310
l 386 411
l 181 190
l 382 386
l 167 181
l 378 382
l 155 167
l 140 156
l 374 379
l 140 141
l 374 375
l 141 173
l 375 384
l 173 281
l 384 422
l 408 409
l 187 189
l 188 410
l 282 283
l 1190 1226
l 1146 1166
l 1226 1268
l 1166 1176
l 1268 1314
l 1176 1184
l 1314 1334
l 1184 1192
l 1334 1361
l 1215 1361
l 1192 1215
l 283 284
l 285 286
l 289 290
l 291 292
l 290 291
l 286 287
l 287 288
l 288 289
l 522 577
l 542 586
l 556 582
l 420 430
l 394 416
l 394 476
l 416 420
l 582 612
l 543 587
l 557 583
l 583 613
l 587 625
l 1182 1190
l 1336 1452
l 1300 1340
l 1061 1154
l 956 1061
l 833 946
l 707 833
l 655 707
l 470 655
l 422 470
l 281 282
l 946 956
l 251 255
l 249 251
l 247 249
l 245 247
l 243 245
l 241 243
l 239 241
l 235 237
l 233 235
l 229 233
l 177 229
l 148 177
l 145 148
l 145 160
l 159 169
l 169 183
l 183 199
l 199 304
l 195 197
l 187 195
l 75 76
l 74 75
l 73 74
l 72 73
l 71 72
l 70 71
l 69 70
l 67 68
l 66 67
l 65 66
l 55 65
l 46 55
l 45 46
l 45 50
l 49 53
l 53 57
l 57 61
l 61 88
l 59 60
l 236 238
l 240 242
l 242 244
l 244 246
l 246 248
l 248 250
l 250 252
l 252 256
l 254 256
l 234 236
l 178 230
l 147 149
l 146 162
l 161 170
l 170 184
l 184 200
l 200 305
l 196 201
l 196 198
l 208 209
l 209 212
l 207 208
l 206 207
l 205 206
l 202 203
l 213 307
l 144 213
l 149 175
l 231 232
l 204 205
l 107 110
l 104 107
l 101 104
l 92 95
l 105 108
l 102 105
l 99 102
l 90 93
l 108 109
l 91 92
l 98 101
l 96 99
l 90 91
l 109 110
l 146 147
l 97 100
l 91 94
l 100 103
l 103 106
l 106 109
l 962 1058
l 727 1058
l 696 727
l 662 892
l 892 962
l 662 696
l 1370 1371
l 1369 1372
l 2091 2095
l 1932 1936
l 2081 2091
l 1910 1932
l 2081 2083
l 1910 1912
l 2068 2083
l 1904 1912
l 1945 2068
l 1846 1904
l 1843 1945
l 1768 1846
l 1779 1843
l 1718 1768
l 1615 1743
l 1558 1640
l 1540 1615
l 1524 1558
l 1387 1417
l 1417 1498
l 1387 1485
l 1743 1779
l 1640 1718
l 1852 1892
l 1851 1891
l 1732 1840
l 1731 1839
l 1549 1732
l 1548 1731
l 1435 1549
l 1434 1548
l 1358 1359
l 1891 2209
l 1149 1173
l 1062 1149
l 868 1304
l 869 1305
l 868 869
l 798 840
l 798 1307
l 797 798
l 797 1303
l 1292 1293
l 1290 1291
l 1288 1289
l 905 1288
l 870 1306
l 870 871
l 905 906
l 852 872
l 889 907
l 848 852
l 881 889
l 840 848
l 857 881
l 857 1293
l 902 903
l 902 935
l 935 936
l 888 904
l 927 937
l 880 888
l 921 927
l 856 880
l 913 921
l 856 913
l 856 1287
l 913 1255
l 1255 1287
l 1286 1287
l 1254 1255
l 1284 1285
l 1252 1253
l 1282 1283
l 1250 1251
l 1250 1282
l 902 1282
l 935 1250
l 942 1238
l 942 943
l 1238 1239
l 929 944
l 1240 1241
l 1242 1243
l 919 923
l 919 1243
l 895 1266
l 885 1267
l 801 873
l 873 874
l 875 876
l 853 877
l 849 853
l 841 849
l 799 841
l 773 783
l 739 765
l 699 731
l 665 699
l 581 665
l 436 581
l 767 801
l 323 493
l 493 567
l 567 667
l 667 677
l 679 711
l 713 717
l 719 733
l 733 741
l 741 747
l 747 749
l 751 753
l 755 759
l 44 436
l 44 139
l 139 319
l 321 323
l 1155 1175
l 1175 1257
l 1257 1295
l 1295 1317
l 1317 1339
l 1411 1487
l 1339 1411
l 1220 1362
l 1362 1383
l 1211 1220
l 1525 1559
l 1068 1115
l 1067 1114
l 502 511
l 501 510
l 1210 1218
l 988 1210
l 987 1209
l 535 600
l 534 599
l 511 554
l 510 553
l 818 988
l 817 987
l 642 688
l 830 984
l 829 983
l 688 818
l 1180 1188
l 1179 1187
l 704 830
l 703 829
l 600 642
l 1188 1196
l 1187 1195
l 606 704
l 605 703
l 1196 1219
l 554 606
l 553 605
l 514 520
l 513 519
l 1170 1180
l 1169 1179
l 984 1068
l 983 1067
l 502 514
l 501 513
l 1115 1170
l 1114 1169
l 2052 2071
l 2290 2291
l 2046 2052
l 2282 2290
l 2046 2047
l 2282 2283
l 2033 2047
l 2257 2283
l 1939 2033
l 2009 2257
l 2005 2218
l 1951 2005
l 1951 2087
l 2218 2270
l 2087 2107
l 2265 2270
l 2106 2107
l 2265 2274
l 2106 2121
l 2274 2286
l 2121 2126
l 1935 2015
l 1935 2004
l 2004 2217
l 2015 2041
l 2217 2269
l 2040 2041
l 2267 2269
l 2040 2043
l 2267 2276
l 2043 2048
l 2276 2285
l 1896 2009
l 1896 1939
l 1892 2216
l 2182 2209
l 2216 2268
l 2174 2182
l 2266 2268
l 2172 2174
l 2172 2275
l 2266 2275
l 1872 1874
l 1870 1871
l 1867 1868
l 1868 2177
l 2169 2187
l 1866 1873
l 1874 1875
l 1875 2194
l 1871 1872
l 1868 1870
l 2187 2194
l 1873 1875
l 1869 2178
l 2177 2178
l 1868 1869
l 2176 2178
l 2175 2176
l 2175 2177
l 1261 1333
l 1263 1331
l 1165 1333
l 1162 1331
l 1120 1263
l 1117 1261
l 1072 1121
l 1131 1163
l 1132 1158
l 1133 1159
l 1073 1077
l 1076 1098
l 1077 1099
l 1152 1158
l 1153 1159
l 1173 1183
l 1308 1309
l 1312 1313
l 948 959
l 950 952
l 34 313
l 18 24
l 20 34
l 10 18
l 24 135
l 135 315
l 313 317
l 23 134
l 134 135
l 17 23
l 9 17
l 43 44
l 43 138
l 138 139
l 14 20
l 4 10
l 4 12
l 3 9
l 3 4
l 1001 1062
l 697 728
l 963 1059
l 728 1059
l 793 795
l 736 762
l 39 41
l 39 431
l 578 661
l 770 780
l 431 578
l 42 44
l 796 799
l 725 822
l 725 729
l 822 991
l 1223 1393
l 1393 1395
l 991 1223
l 1395 1396
l 729 730
l 41 42
l 663 697
l 795 796
l 893 963
l 891 893
l 663 893
l 980 1207
l 479 532
l 403 479
l 532 597
l 686 813
l 1207 1378
l 640 686
l 597 640
l 691 837
l 1201 1389
l 1376 1389
l 645 691
l 591 645
l 965 1201
l 475 525
l 389 401
l 389 475
l 837 965
l 525 591
l 598 641
l 641 687
l 1208 1382
l 687 816
l 533 598
l 816 986
l 405 480
l 404 405
l 480 533
l 986 1208
l 402 403
l 979 980
l 1377 1378
l 812 813
l 978 982
l 811 815
l 1635 1747
l 1491 1535
l 1457 1491
l 1747 1789
l 1401 1497
l 1789 1809
l 1587 1635
l 1587 1778
l 1807 1809
l 1583 1773
l 1807 1817
l 1817 1819
l 1456 1490
l 1746 1788
l 1400 1401
l 1788 1808
l 1586 1634
l 1586 1587
l 1806 1808
l 1582 1583
l 1806 1816
l 1816 1818
l 1634 1746
l 1490 1534
l 1930 1936
l 2089 2095
l 1908 1930
l 2079 2089
l 1906 1908
l 2077 2079
l 1902 1906
l 2066 2077
l 1844 1902
l 1943 2066
l 1766 1844
l 1842 1943
l 1716 1766
l 1777 1842
l 1556 1638
l 1613 1742
l 1522 1556
l 1538 1613
l 1386 1484
l 1415 1496
l 1386 1415
l 1638 1716
l 1742 1777
l 1848 1888
l 1849 1889
l 1727 1836
l 1728 1837
l 1544 1727
l 1545 1728
l 1430 1544
l 1431 1545
l 1356 1357
l 1888 2131
l 1060 1148
l 1148 1172
l 863 864
l 864 1299
l 863 1298
l 789 1301
l 789 839
l 790 1302
l 789 790
l 1274 1275
l 1272 1273
l 1270 1271
l 865 1300
l 896 1270
l 896 897
l 865 866
l 886 898
l 851 867
l 878 886
l 847 851
l 854 878
l 839 847
l 854 1275
l 932 933
l 899 932
l 899 900
l 926 934
l 887 901
l 920 926
l 879 887
l 855 912
l 912 920
l 855 879
l 1249 1281
l 912 1249
l 855 1281
l 1248 1249
l 1280 1281
l 1246 1247
l 1278 1279
l 1244 1276
l 1244 1245
l 1276 1277
l 932 1244
l 899 1276
l 1232 1233
l 939 940
l 939 1232
l 1234 1235
l 928 941
l 918 1237
l 918 922
l 1236 1237
l 884 1265
l 894 1264
l 858 859
l 800 858
l 860 861
l 850 862
l 846 850
l 838 846
l 788 838
l 768 778
l 734 760
l 692 720
l 658 692
l 576 658
l 427 576
l 766 800
l 322 492
l 492 566
l 566 666
l 666 676
l 678 710
l 712 716
l 718 732
l 732 740
l 740 746
l 746 748
l 750 752
l 754 758
l 35 136
l 35 427
l 136 318
l 320 322
l 1154 1174
l 1174 1256
l 1256 1294
l 1294 1316
l 1316 1338
l 1338 1410
l 1410 1486
l 1202 1214
l 1360 1368
l 1214 1360
l 1523 1557
l 1066 1113
l 1065 1112
l 500 509
l 499 508
l 1203 1216
l 968 1204
l 967 1203
l 529 594
l 528 593
l 509 552
l 508 551
l 804 968
l 803 967
l 637 683
l 828 972
l 827 971
l 683 803
l 1178 1186
l 1177 1185
l 702 828
l 701 827
l 593 637
l 1186 1194
l 1185 1193
l 604 702
l 603 701
l 1193 1217
l 552 604
l 551 603
l 506 518
l 505 517
l 1168 1178
l 1167 1177
l 972 1066
l 971 1065
l 500 506
l 499 505
l 1113 1168
l 1112 1167
l 2287 2291
l 2051 2071
l 2279 2287
l 2045 2051
l 2278 2279
l 2044 2045
l 2256 2278
l 2032 2044
l 2006 2256
l 1938 2032
l 1950 2086
l 1950 2002
l 2002 2213
l 2086 2104
l 2213 2259
l 2104 2105
l 2259 2264
l 2105 2120
l 2264 2273
l 2120 2126
l 2273 2286
l 2003 2215
l 1934 2003
l 1934 2014
l 2215 2261
l 2014 2038
l 2261 2263
l 2038 2039
l 2263 2272
l 2039 2042
l 2272 2285
l 2042 2048
l 1885 1938
l 1885 2006
l 1889 2214
l 2214 2260
l 2131 2158
l 2260 2262
l 2158 2166
l 2262 2271
l 2172 2271
l 2166 2172
l 1859 1861
l 1862 1863
l 1865 2162
l 1865 1867
l 1860 1866
l 2154 2169
l 1858 2147
l 1858 1859
l 1861 1862
l 1863 1865
l 1858 1860
l 2147 2154
l 1864 1865
l 2161 2162
l 1864 2161
l 2162 2164
l 2163 2164
l 2161 2163
l 1262 1330
l 1260 1332
l 1161 1330
l 1164 1332
l 1119 1262
l 1116 1260
l 1070 1118
l 1128 1160
l 1129 1156
l 1071 1075
l 1130 1157
l 1075 1097
l 1074 1096
l 1151 1157
l 1150 1156
l 1172 1182
l 1296 1297
l 1310 1311
l 945 954
l 949 951
l 33 312
l 15 21
l 19 33
l 7 15
l 132 314
l 21 132
l 312 316
l 132 133
l 22 133
l 16 22
l 8 16
l 136 137
l 36 137
l 35 36
l 13 19
l 1 11
l 1 7
l 1 2
l 2 8
l 1000 1060
l 723 1056
l 960 1056
l 694 723
l 792 794
l 737 763
l 40 432
l 38 40
l 579 662
l 771 781
l 432 579
l 35 37
l 788 791
l 722 726
l 726 823
l 823 992
l 1392 1394
l 1224 1394
l 992 1224
l 1391 1392
l 721 722
l 37 38
l 660 694
l 791 792
l 890 892
l 890 960
l 660 890
l 977 1206
l 478 531
l 400 478
l 531 596
l 685 810
l 1206 1375
l 639 685
l 596 639
l 690 836
l 1373 1388
l 1200 1388
l 644 690
l 590 644
l 964 1200
l 474 524
l 388 474
l 388 398
l 836 964
l 524 590
l 595 638
l 638 684
l 1205 1370
l 684 805
l 530 595
l 805 969
l 396 397
l 396 477
l 477 530
l 969 1205
l 399 400
l 976 977
l 1374 1375
l 809 810
l 973 975
l 806 808
l 1633 1745
l 1489 1533
l 1455 1489
l 1745 1787
l 1399 1495
l 1787 1803
l 1585 1776
l 1585 1633
l 1803 1805
l 1581 1772
l 1805 1815
l 1815 1819
l 1454 1488
l 1744 1786
l 1398 1399
l 1786 1802
l 1584 1585
l 1584 1632
l 1802 1804
l 1580 1581
l 1804 1814
l 1814 1818
l 1632 1744
l 1488 1532
l 1566 1567
l 1427 1567
l 1426 1427
l 2070 2075
l 1675 1679
l 1812 1954
l 1528 1626
l 1955 2013
l 1649 2013
l 1627 1649
l 1813 1955
l 1529 1627
l 2012 2035
l 1648 1659
l 1706 1782
l 1478 1512
l 2013 2050
l 1649 1671
l 2074 2119
l 1678 1703
l 1703 2119
l 1707 1783
l 1479 1513
l 2118 2119
l 1702 1703
l 1567 1707
l 1427 1479
l 2114 2115
l 1701 2115
l 1700 2114
l 2075 2114
l 1679 1700
l 2115 2116
l 2116 2117
l 2117 2118
l 2037 2074
l 1661 1678
l 1564 1565
l 1424 1425
l 1424 1564
l 1954 2012
l 1626 1648
l 1564 1706
l 1424 1478
l 1685 1686
l 1685 1687
l 1685 1688
l 1688 1689
l 1666 1689
l 1667 1685
l 1655 1666
l 1644 1653
l 1622 1644
l 1520 1622
l 1474 1506
l 1405 1474
l 1405 1406
l 1407 1475
l 1406 1407
l 1475 1507
l 1521 1623
l 1623 1645
l 1645 1657
l 1663 1667
l 1673 1691
l 1959 1961
l 1651 1941
l 1651 1669
l 1941 1957
l 1631 1651
l 1877 1941
l 1531 1631
l 1757 1877
l 1483 1637
l 1483 1515
l 1637 1751
l 1961 2115
l 1691 1701
l 1649 1651
l 1941 2013
l 1422 1423
l 1423 1563
l 1562 1563
l 1674 1677
l 2069 2073
l 1526 1624
l 1810 1952
l 1625 1647
l 1647 2011
l 1953 2011
l 1527 1625
l 1811 1953
l 1646 1658
l 2010 2034
l 1476 1510
l 1704 1780
l 1647 1670
l 2011 2049
l 1696 2108
l 1676 1696
l 2072 2108
l 1477 1511
l 1705 1781
l 1696 1697
l 2108 2109
l 1423 1477
l 1563 1705
l 1699 2113
l 1698 2112
l 2112 2113
l 1677 1699
l 2073 2113
l 2111 2112
l 2110 2111
l 2109 2110
l 1660 1676
l 2036 2072
l 1420 1560
l 1420 1421
l 1560 1561
l 1624 1646
l 1952 2010
l 1420 1476
l 1560 1704
l 1665 1684
l 1664 1680
l 1680 1681
l 1681 1684
l 1682 1684
l 1683 1684
l 1654 1664
l 1642 1652
l 1620 1642
l 1518 1620
l 1472 1504
l 1402 1403
l 1402 1472
l 1403 1404
l 1404 1473
l 1473 1505
l 1519 1621
l 1621 1643
l 1643 1656
l 1662 1665
l 1958 1960
l 1672 1690
l 1940 1956
l 1650 1668
l 1650 1940
l 1876 1940
l 1630 1650
l 1756 1876
l 1530 1630
l 1636 1750
l 1482 1514
l 1482 1636
l 1690 1698
l 1960 2112
l 1940 2011
l 1647 1650
l 2293 2296
l 2293 2305
l 2295 2305
l 2300 2307
l 2303 2307
l 2299 2303
l 2301 2304
l 2302 2308
l 2304 2308
l 2294 2306
l 2297 2306
l 2294 2298
l 2319 2323
l 2313 2316
l 2311 2320
l 2309 2313
l 2311 2323
l 2309 2315
l 2314 2318
l 2321 2324
l 2310 2317
l 2312 2324
l 2310 2314
l 2312 2322
l 814 981
l 813 980
l 812 979
l 810 977
l 807 974
l 809 976
l 570 618
l 541 571
l 548 574
l 549 575
l 540 570
l 574 622
l 571 619
l 575 623
l 569 617
l 538 568
l 546 572
l 547 573
l 539 569
l 573 621
l 568 616
l 572 620
l 2028 2237
l 2029 2238
l 1926 1928
l 1927 1929
l 1923 1925
l 2030 2253
l 1922 1924
l 2237 2239
l 1924 1984
l 2239 2241
l 1984 1986
l 2241 2243
l 1986 1988
l 2243 2245
l 1988 1990
l 2245 2247
l 1990 1992
l 2247 2249
l 1992 1994
l 2249 2251
l 1994 1996
l 2251 2253
l 1926 1996
l 2031 2254
l 2252 2254
l 1927 1997
l 2250 2252
l 1995 1997
l 2248 2250
l 1993 1995
l 2246 2248
l 1991 1993
l 2244 2246
l 1989 1991
l 2242 2244
l 1987 1989
l 2240 2242
l 1985 1987
l 2238 2240
l 1925 1985
l 2027 2236
l 2026 2235
l 1915 1917
l 1914 1916
l 1919 1921
l 2024 2219
l 1918 1920
l 1918 1982
l 2233 2235
l 1980 1982
l 2231 2233
l 1978 1980
l 2229 2231
l 1976 1978
l 2227 2229
l 1974 1976
l 2225 2227
l 1972 1974
l 2223 2225
l 1970 1972
l 2221 2223
l 1916 1970
l 2219 2221
l 2025 2220
l 1917 1971
l 2220 2222
l 1971 1973
l 2222 2224
l 1973 1975
l 2224 2226
l 1975 1977
l 2226 2228
l 1977 1979
l 2228 2230
l 1979 1981
l 2230 2232
l 1981 1983
l 2232 2234
l 1919 1983
l 2234 2236
l 1010 1011
l 1048 1049
l 1011 1012
l 1049 1050
l 1012 1013
l 1050 1051
l 1013 1014
l 1051 1052
l 1014 1015
l 1052 1053
l 1015 1016
l 1053 1054
l 1016 1017
l 1054 1055
l 1032 1033
l 1033 1034
l 1034 1035
l 1035 1036
l 1036 1037
l 1037 1038
l 1038 1039
l 1082 1083
l 1110 1111
l 1088 1089
l 1094 1095
l 1104 1105
l 1144 1145
l 1081 1082
l 1087 1088
l 1093 1094
l 1109 1110
l 1103 1104
l 1126 1127
l 1138 1139
l 1125 1126
l 1137 1138
l 1143 1144
l 1040 1041
l 1002 1003
l 1041 1042
l 1003 1004
l 1042 1043
l 1004 1005
l 1043 1044
l 1005 1006
l 1044 1045
l 1006 1007
l 1045 1046
l 1007 1008
l 1046 1047
l 1008 1009
l 1024 1025
l 1025 1026
l 1026 1027
l 1027 1028
l 1028 1029
l 1029 1030
l 1030 1031
l 1079 1080
l 1107 1108
l 1091 1092
l 1085 1086
l 1141 1142
l 1101 1102
l 1078 1079
l 1090 1091
l 1084 1085
l 1106 1107
l 1100 1101
l 1123 1124
l 1135 1136
l 1122 1123
l 1140 1141
l 1134 1135
l 599 1209
l 817 1209
l 804 1204
l 594 1204
l 1933 1937
l 1911 1913
l 1719 1769
l 1641 1719
l 1769 1847
l 1847 1905
l 1905 1913
l 1911 1933
l 1559 1641
l 1931 1937
l 1907 1909
l 1717 1767
l 1639 1717
l 1767 1845
l 1845 1903
l 1903 1907
l 1909 1931
l 1557 1639
l 1801 1949
l 1800 1948
l 1830 2000
l 1831 2001
l 1799 1947
l 1798 1946
l 1828 1998
l 1829 1999
l 5 609
l 5 25
l 6 26
l 715 938
l 757 1023
l 1022 1023
l 30 31
l 31 610
l 6 611
l 609 714
l 608 756
l 31 32
l 1018 1020
l 1020 1021
l 1019 1023
l 27 28
l 27 608
l 26 32
l 953 1019
l 25 28
l 27 29
l 29 30
l 1021 1022
l 756 1020
l 611 715
l 610 757
l 460 776
l 446 460
l 460 468
l 447 468
l 777 911
l 911 917
l 910 911
l 910 916
l 745 787
l 786 787
l 744 786
l 776 777
l 776 910
l 787 917
l 786 916
l 446 459
l 447 467
l 459 467
l 459 744
l 467 745
l 468 777
l 355 364
l 364 564
l 355 563
l 465 466
l 362 363
l 363 367
l 466 469
l 358 359
l 359 360
l 461 462
l 364 443
l 442 443
l 355 442
l 443 564
l 442 563
l 487 488
l 487 563
l 491 564
l 461 496
l 357 358
l 366 367
l 469 497
l 364 365
l 355 356
l 497 565
l 462 463
l 463 464
l 464 465
l 490 491
l 489 490
l 488 489
l 361 362
l 360 361
l 365 366
l 356 357
l 352 673
l 349 672
l 349 352
l 352 353
l 349 350
l 652 674
l 653 675
l 369 370
l 370 373
l 372 373
l 368 674
l 368 371
l 371 675
l 353 354
l 350 351
l 351 354
l 651 673
l 650 672
l 368 369
l 371 372
l 354 633
l 633 651
l 632 650
l 351 632
l 634 652
l 370 634
l 373 635
l 635 653
l 449 774
l 444 449
l 449 457
l 445 457
l 775 909
l 909 915
l 908 909
l 908 914
l 743 785
l 784 785
l 742 784
l 774 775
l 774 908
l 785 915
l 784 914
l 444 448
l 445 456
l 448 456
l 448 742
l 456 743
l 457 775
l 330 339
l 339 561
l 330 560
l 454 455
l 337 338
l 338 342
l 455 458
l 333 334
l 334 335
l 450 451
l 339 441
l 440 441
l 330 440
l 441 561
l 440 560
l 482 483
l 482 560
l 486 561
l 450 494
l 332 333
l 341 342
l 458 495
l 339 340
l 330 331
l 495 562
l 451 452
l 452 453
l 453 454
l 485 486
l 484 485
l 483 484
l 336 337
l 335 336
l 340 341
l 331 332
l 327 669
l 324 668
l 324 327
l 327 328
l 324 325
l 648 670
l 649 671
l 344 345
l 345 348
l 347 348
l 343 670
l 343 346
l 346 671
l 328 329
l 325 326
l 326 329
l 647 669
l 646 668
l 343 344
l 346 347
l 329 629
l 629 647
l 628 646
l 326 628
l 630 648
l 345 630
l 348 631
l 631 649
l 2325 2326
l 2122 2123
l 2123 2125
l 2124 2125
l 2122 2124
l 2327 2328
l 2325 2327
l 2326 2328
