# atego_wheel_rr_wire.obj - feature-edge wireframe, ISO 8855, metre
o wheel_rr_wire_coarse
v -0.440650 -0.237710 0.000000
v -0.440650 -0.023720 0.000000
v -0.440650 0.023720 0.000000
v -0.440650 0.237710 0.000000
v -0.436880 -0.237710 -0.057520
v -0.436880 -0.237710 0.057520
v -0.436880 -0.023720 -0.057520
v -0.436880 -0.023720 0.057520
v -0.436880 0.023720 -0.057520
v -0.436880 0.023720 0.057520
v -0.436880 0.237710 -0.057520
v -0.436880 0.237710 0.057520
v -0.425630 -0.237710 -0.114050
v -0.425630 -0.237710 0.114050
v -0.425630 -0.023720 -0.114050
v -0.425630 -0.023720 0.114050
v -0.425630 0.023720 -0.114050
v -0.425630 0.023720 0.114050
v -0.425630 0.237710 -0.114050
v -0.425630 0.237710 0.114050
v -0.407100 -0.237710 -0.168630
v -0.407100 -0.237710 0.168630
v -0.407100 -0.023720 -0.168630
v -0.407100 -0.023720 0.168630
v -0.407100 0.023720 -0.168630
v -0.407100 0.023720 0.168630
v -0.407100 0.237710 -0.168630
v -0.407100 0.237710 0.168630
v -0.381610 -0.237710 -0.220320
v -0.381610 -0.237710 0.220320
v -0.381610 -0.023720 -0.220320
v -0.381610 -0.023720 0.220320
v -0.381610 0.023720 -0.220320
v -0.381610 0.023720 0.220320
v -0.381610 0.237710 -0.220320
v -0.381610 0.237710 0.220320
v -0.349590 -0.237710 -0.268250
v -0.349590 -0.237710 0.268250
v -0.349590 -0.023720 -0.268250
v -0.349590 -0.023720 0.268250
v -0.349590 0.023720 -0.268250
v -0.349590 0.023720 0.268250
v -0.349590 0.237710 -0.268250
v -0.349590 0.237710 0.268250
v -0.311590 -0.237710 -0.311580
v -0.311590 -0.237710 0.311580
v -0.311590 -0.023720 -0.311580
v -0.311590 -0.023720 0.311580
v -0.311590 0.023720 -0.311580
v -0.311590 0.023720 0.311590
v -0.311590 0.237710 -0.311580
v -0.311590 0.237710 0.311590
v -0.268690 -0.221770 0.000000
v -0.268690 -0.208030 0.000000
v -0.268690 -0.054540 0.000000
v -0.268690 -0.039670 0.000000
v -0.268690 0.039670 0.000000
v -0.268690 0.054530 0.000000
v -0.268690 0.208020 0.000000
v -0.268690 0.221770 0.000000
v -0.268250 -0.237710 -0.349590
v -0.268250 -0.237710 0.349590
v -0.268250 -0.023720 -0.349590
v -0.268250 -0.023720 0.349590
v -0.268250 0.023720 -0.349590
v -0.268250 0.023720 0.349590
v -0.268250 0.237710 -0.349590
v -0.268250 0.237710 0.349590
v -0.266400 -0.215450 0.000000
v -0.266400 -0.045990 0.000000
v -0.266400 0.045990 0.000000
v -0.266400 0.215450 0.000000
v -0.264610 -0.221770 -0.046660
v -0.264610 -0.221770 0.046660
v -0.264610 -0.208030 -0.046660
v -0.264610 -0.208030 0.046660
v -0.264610 -0.054540 -0.046660
v -0.264610 -0.054540 0.046660
v -0.264610 -0.039670 -0.046660
v -0.264610 -0.039670 0.046660
v -0.264610 0.039670 -0.046660
v -0.264610 0.039670 0.046660
v -0.264610 0.054530 -0.046660
v -0.264610 0.054530 0.046660
v -0.264610 0.208020 -0.046660
v -0.264610 0.208020 0.046660
v -0.264610 0.221770 -0.046660
v -0.264610 0.221770 0.046660
v -0.257320 -0.215450 -0.068950
v -0.257320 -0.215450 0.068950
v -0.257320 -0.045990 -0.068950
v -0.257320 -0.045990 0.068950
v -0.257320 0.045990 -0.068950
v -0.257320 0.045990 0.068950
v -0.257320 0.215450 -0.068950
v -0.257320 0.215450 0.068950
v -0.252490 -0.221770 -0.091900
v -0.252490 -0.221770 0.091900
v -0.252490 -0.208030 -0.091900
v -0.252490 -0.208030 0.091900
v -0.252490 -0.054540 -0.091900
v -0.252490 -0.054540 0.091900
v -0.252490 -0.039670 -0.091900
v -0.252490 -0.039670 0.091900
v -0.252490 0.039670 -0.091900
v -0.252490 0.039670 0.091900
v -0.252490 0.054530 -0.091900
v -0.252490 0.054530 0.091900
v -0.252490 0.208020 -0.091900
v -0.252490 0.208020 0.091900
v -0.252490 0.221770 -0.091900
v -0.252490 0.221770 0.091900
v -0.232690 -0.221770 -0.134350
v -0.232690 -0.221770 0.134350
v -0.232690 -0.208030 -0.134350
v -0.232690 -0.208030 0.134350
v -0.232690 -0.054540 -0.134350
v -0.232690 -0.054540 0.134350
v -0.232690 -0.039670 -0.134350
v -0.232690 -0.039670 0.134350
v -0.232690 0.039670 -0.134350
v -0.232690 0.039670 0.134350
v -0.232690 0.054530 -0.134350
v -0.232690 0.054530 0.134350
v -0.232690 0.208020 -0.134350
v -0.232690 0.208020 0.134350
v -0.232690 0.221770 -0.134350
v -0.232690 0.221770 0.134350
v -0.230710 -0.215450 -0.133200
v -0.230710 -0.215450 0.133200
v -0.230710 -0.045990 -0.133200
v -0.230710 -0.045990 0.133200
v -0.230710 0.045990 -0.133200
v -0.230710 0.045990 0.133200
v -0.230710 0.215450 -0.133200
v -0.230710 0.215450 0.133200
v -0.220320 -0.237710 -0.381610
v -0.220320 -0.237710 0.381610
v -0.220320 -0.023720 -0.381610
v -0.220320 -0.023720 0.381610
v -0.220320 0.023720 -0.381610
v -0.220320 0.023720 0.381610
v -0.220320 0.237710 -0.381610
v -0.220320 0.237710 0.381610
v -0.219440 -0.046590 0.000000
v -0.219440 0.046590 0.000000
v -0.216110 -0.046590 -0.038110
v -0.216110 -0.046590 0.038110
v -0.216110 0.046590 -0.038110
v -0.216110 0.046590 0.038110
v -0.206210 -0.046590 -0.075050
v -0.206210 -0.046590 0.075050
v -0.206210 0.046590 -0.075050
v -0.206210 0.046590 0.075050
v -0.205830 -0.221770 -0.172710
v -0.205830 -0.221770 0.172710
v -0.205830 -0.208030 -0.172710
v -0.205830 -0.208030 0.172710
v -0.205830 -0.054540 -0.172710
v -0.205830 -0.054540 0.172710
v -0.205830 -0.039670 -0.172710
v -0.205830 -0.039670 0.172710
v -0.205830 0.039670 -0.172710
v -0.205830 0.039670 0.172710
v -0.205830 0.054530 -0.172710
v -0.205830 0.054530 0.172710
v -0.205830 0.208020 -0.172710
v -0.205830 0.208020 0.172710
v -0.205830 0.221770 -0.172710
v -0.205830 0.221770 0.172710
v -0.203760 -0.046650 -0.080490
v -0.203760 -0.046650 0.080490
v -0.203760 0.046650 -0.080490
v -0.203760 0.046650 0.080490
v -0.190040 -0.059340 -0.109720
v -0.190040 -0.059340 0.109720
v -0.190040 -0.046590 -0.109720
v -0.190040 -0.046590 0.109720
v -0.190040 0.046590 -0.109720
v -0.190040 0.046590 0.109720
v -0.190040 0.059340 -0.109720
v -0.190040 0.059340 0.109720
v -0.188370 -0.215450 -0.188370
v -0.188370 -0.215450 0.188370
v -0.188370 -0.045990 -0.188370
v -0.188370 -0.045990 0.188370
v -0.188370 0.045990 -0.188370
v -0.188370 0.045990 0.188370
v -0.188370 0.215450 -0.188370
v -0.188370 0.215450 0.188370
v -0.183590 -0.059410 -0.105920
v -0.183590 -0.059410 0.105920
v -0.183590 0.059410 -0.105920
v -0.183590 0.059410 0.105920
v -0.172710 -0.221770 -0.205830
v -0.172710 -0.221770 0.205830
v -0.172710 -0.208030 -0.205830
v -0.172710 -0.208030 0.205830
v -0.172710 -0.054540 -0.205830
v -0.172710 -0.054540 0.205830
v -0.172710 -0.039670 -0.205830
v -0.172710 -0.039670 0.205830
v -0.172710 0.039670 -0.205830
v -0.172710 0.039670 0.205830
v -0.172710 0.054530 -0.205830
v -0.172710 0.054530 0.205830
v -0.172710 0.208020 -0.205830
v -0.172710 0.208020 0.205830
v -0.172710 0.221770 -0.205830
v -0.172710 0.221770 0.205830
v -0.168630 -0.237710 -0.407110
v -0.168630 -0.237710 0.407110
v -0.168630 -0.023720 -0.407110
v -0.168630 -0.023720 0.407110
v -0.168630 0.023720 -0.407110
v -0.168630 0.023720 0.407110
v -0.168630 0.237710 -0.407110
v -0.168630 0.237710 0.407110
v -0.168100 -0.059340 -0.141050
v -0.168100 -0.059340 0.141060
v -0.168100 -0.046590 -0.141050
v -0.168100 -0.046590 0.141060
v -0.168100 0.046590 -0.141050
v -0.168100 0.046590 0.141060
v -0.168100 0.059340 -0.141050
v -0.168100 0.059340 0.141060
v -0.162360 -0.059340 -0.136240
v -0.162360 -0.059340 0.136240
v -0.162360 0.059340 -0.136240
v -0.162360 0.059340 0.136240
v -0.141060 -0.059340 -0.168100
v -0.141060 -0.059340 0.168100
v -0.141060 -0.046590 -0.168100
v -0.141060 -0.046590 0.168100
v -0.141060 0.046590 -0.168100
v -0.141060 0.046590 0.168100
v -0.141060 0.059340 -0.168100
v -0.141060 0.059340 0.168100
v -0.136240 -0.059340 -0.162360
v -0.136240 -0.059340 0.162360
v -0.136240 0.059340 -0.162360
v -0.136240 0.059340 0.162360
v -0.134340 -0.221770 -0.232690
v -0.134340 -0.221770 0.232690
v -0.134340 -0.208030 -0.232690
v -0.134340 -0.208030 0.232690
v -0.134340 -0.054540 -0.232690
v -0.134340 -0.054540 0.232690
v -0.134340 -0.039670 -0.232690
v -0.134340 -0.039670 0.232690
v -0.134340 0.039670 -0.232690
v -0.134340 0.039670 0.232690
v -0.134340 0.054530 -0.232690
v -0.134340 0.054530 0.232690
v -0.134340 0.208020 -0.232690
v -0.134340 0.208020 0.232690
v -0.134340 0.221770 -0.232690
v -0.134340 0.221770 0.232690
v -0.133200 -0.215450 -0.230710
v -0.133200 -0.215450 0.230710
v -0.133200 -0.045990 -0.230710
v -0.133200 -0.045990 0.230710
v -0.133200 0.045990 -0.230710
v -0.133200 0.045990 0.230710
v -0.133200 0.215450 -0.230710
v -0.133200 0.215450 0.230710
v -0.114050 -0.237710 -0.425630
v -0.114050 -0.237710 0.425630
v -0.114050 -0.023720 -0.425630
v -0.114050 -0.023720 0.425630
v -0.114050 0.023720 -0.425630
v -0.114050 0.023720 0.425630
v -0.114050 0.237710 -0.425630
v -0.114050 0.237710 0.425630
v -0.109720 -0.059340 -0.190040
v -0.109720 -0.059340 0.190040
v -0.109720 -0.046590 -0.190040
v -0.109720 -0.046590 0.190040
v -0.109720 0.046590 -0.190040
v -0.109720 0.046590 0.190040
v -0.109720 0.059340 -0.190040
v -0.109720 0.059340 0.190040
v -0.105910 -0.059410 -0.183590
v -0.105910 -0.059410 0.183590
v -0.105910 0.059410 -0.183590
v -0.105910 0.059410 0.183590
v -0.091900 -0.221770 -0.252490
v -0.091900 -0.221770 0.252490
v -0.091900 -0.208030 -0.252490
v -0.091900 -0.208030 0.252490
v -0.091900 -0.054540 -0.252490
v -0.091900 -0.054540 0.252490
v -0.091900 -0.039670 -0.252490
v -0.091900 -0.039670 0.252490
v -0.091900 0.039670 -0.252490
v -0.091900 0.039670 0.252490
v -0.091900 0.054530 -0.252490
v -0.091900 0.054530 0.252490
v -0.091900 0.208020 -0.252490
v -0.091900 0.208020 0.252490
v -0.091900 0.221770 -0.252490
v -0.091900 0.221770 0.252490
v -0.080490 -0.046650 -0.203760
v -0.080490 -0.046650 0.203760
v -0.080490 0.046650 -0.203760
v -0.080490 0.046650 0.203760
v -0.075060 -0.046590 0.206210
v -0.075050 -0.046590 -0.206210
v -0.075050 0.046590 -0.206210
v -0.075050 0.046590 0.206210
v -0.068950 -0.215450 -0.257320
v -0.068950 -0.215450 0.257320
v -0.068950 -0.045990 -0.257320
v -0.068950 -0.045990 0.257320
v -0.068950 0.045990 -0.257320
v -0.068950 0.045990 0.257320
v -0.068950 0.215450 -0.257320
v -0.068950 0.215450 0.257320
v -0.057520 -0.237710 -0.436880
v -0.057520 -0.237710 0.436880
v -0.057520 -0.023720 -0.436880
v -0.057520 -0.023720 0.436880
v -0.057520 0.023720 -0.436880
v -0.057520 0.023720 0.436880
v -0.057520 0.237710 -0.436880
v -0.057520 0.237710 0.436880
v -0.046660 -0.221770 -0.264610
v -0.046660 -0.221770 0.264610
v -0.046660 -0.208030 -0.264610
v -0.046660 -0.208030 0.264610
v -0.046660 -0.054540 -0.264610
v -0.046660 -0.054540 0.264610
v -0.046660 -0.039670 -0.264610
v -0.046660 -0.039670 0.264610
v -0.046660 0.039670 -0.264610
v -0.046660 0.039670 0.264610
v -0.046660 0.054530 -0.264610
v -0.046660 0.054530 0.264610
v -0.046660 0.208020 -0.264610
v -0.046660 0.208020 0.264610
v -0.046660 0.221770 -0.264610
v -0.046660 0.221770 0.264610
v -0.038110 -0.046590 -0.216110
v -0.038110 -0.046590 0.216110
v -0.038110 0.046590 -0.216110
v -0.038110 0.046590 0.216110
v 0.000000 -0.237710 -0.440650
v 0.000000 -0.237710 0.440650
v 0.000000 -0.221770 -0.268690
v 0.000000 -0.221770 0.268690
v 0.000000 -0.215450 -0.266400
v 0.000000 -0.215450 0.266400
v 0.000000 -0.208030 -0.268690
v 0.000000 -0.208030 0.268690
v 0.000000 -0.054540 -0.268690
v 0.000000 -0.054540 0.268690
v 0.000000 -0.046590 -0.219440
v 0.000000 -0.046590 0.219440
v 0.000000 -0.045990 -0.266400
v 0.000000 -0.045990 0.266400
v 0.000000 -0.039670 -0.268690
v 0.000000 -0.039670 0.268690
v 0.000000 -0.023720 -0.440650
v 0.000000 -0.023720 0.440650
v 0.000000 0.023720 -0.440650
v 0.000000 0.023720 0.440650
v 0.000000 0.039670 -0.268690
v 0.000000 0.039670 0.268690
v 0.000000 0.045990 -0.266400
v 0.000000 0.045990 0.266400
v 0.000000 0.046590 -0.219440
v 0.000000 0.046590 0.219440
v 0.000000 0.054530 -0.268690
v 0.000000 0.054530 0.268690
v 0.000000 0.208020 -0.268690
v 0.000000 0.208020 0.268690
v 0.000000 0.215450 -0.266400
v 0.000000 0.215450 0.266400
v 0.000000 0.221770 -0.268690
v 0.000000 0.221770 0.268690
v 0.000000 0.237710 -0.440650
v 0.000000 0.237710 0.440650
v 0.038110 -0.046590 -0.216110
v 0.038110 -0.046590 0.216110
v 0.038110 0.046590 -0.216110
v 0.038110 0.046590 0.216110
v 0.046660 -0.221770 -0.264610
v 0.046660 -0.221770 0.264610
v 0.046660 -0.208030 -0.264610
v 0.046660 -0.208030 0.264610
v 0.046660 -0.054540 -0.264610
v 0.046660 -0.054540 0.264610
v 0.046660 -0.039670 -0.264610
v 0.046660 -0.039670 0.264610
v 0.046660 0.039670 -0.264610
v 0.046660 0.039670 0.264610
v 0.046660 0.054530 -0.264610
v 0.046660 0.054530 0.264610
v 0.046660 0.208020 -0.264610
v 0.046660 0.208020 0.264610
v 0.046660 0.221770 -0.264610
v 0.046660 0.221770 0.264610
v 0.057520 -0.237710 -0.436880
v 0.057520 -0.237710 0.436880
v 0.057520 -0.023720 -0.436880
v 0.057520 -0.023720 0.436880
v 0.057520 0.023720 -0.436880
v 0.057520 0.023720 0.436880
v 0.057520 0.237710 -0.436880
v 0.057520 0.237710 0.436880
v 0.068950 -0.215450 -0.257320
v 0.068950 -0.215450 0.257320
v 0.068950 -0.045990 -0.257320
v 0.068950 -0.045990 0.257320
v 0.068950 0.045990 -0.257320
v 0.068950 0.045990 0.257320
v 0.068950 0.215450 -0.257320
v 0.068950 0.215450 0.257320
v 0.075050 -0.046590 -0.206210
v 0.075050 -0.046590 0.206210
v 0.075050 0.046590 -0.206210
v 0.075050 0.046590 0.206210
v 0.080490 -0.046650 -0.203760
v 0.080490 -0.046650 0.203760
v 0.080490 0.046650 -0.203760
v 0.080490 0.046650 0.203760
v 0.091900 -0.221770 -0.252490
v 0.091900 -0.221770 0.252490
v 0.091900 -0.208030 -0.252490
v 0.091900 -0.208030 0.252490
v 0.091900 -0.054540 -0.252490
v 0.091900 -0.054540 0.252490
v 0.091900 -0.039670 -0.252490
v 0.091900 -0.039670 0.252490
v 0.091900 0.039670 -0.252490
v 0.091900 0.039670 0.252490
v 0.091900 0.054530 -0.252490
v 0.091900 0.054530 0.252490
v 0.091900 0.208020 -0.252490
v 0.091900 0.208020 0.252490
v 0.091900 0.221770 -0.252490
v 0.091900 0.221770 0.252490
v 0.105910 -0.059410 -0.183590
v 0.105910 -0.059410 0.183590
v 0.105910 0.059410 -0.183590
v 0.105910 0.059410 0.183590
v 0.109720 -0.059340 -0.190040
v 0.109720 -0.059340 0.190040
v 0.109720 -0.046590 -0.190040
v 0.109720 -0.046590 0.190040
v 0.109720 0.046590 -0.190040
v 0.109720 0.046590 0.190040
v 0.109720 0.059340 -0.190040
v 0.109720 0.059340 0.190040
v 0.114050 -0.237710 -0.425630
v 0.114050 -0.237710 0.425630
v 0.114050 -0.023720 -0.425630
v 0.114050 -0.023720 0.425630
v 0.114050 0.023720 -0.425630
v 0.114050 0.023720 0.425630
v 0.114050 0.237710 -0.425630
v 0.114050 0.237710 0.425630
v 0.133200 -0.215450 -0.230710
v 0.133200 -0.215450 0.230710
v 0.133200 -0.045990 -0.230710
v 0.133200 -0.045990 0.230710
v 0.133200 0.045990 -0.230710
v 0.133200 0.045990 0.230710
v 0.133200 0.215450 -0.230710
v 0.133200 0.215450 0.230710
v 0.134340 -0.221770 -0.232690
v 0.134340 -0.221770 0.232690
v 0.134340 -0.208030 -0.232690
v 0.134340 -0.208030 0.232690
v 0.134340 -0.054540 -0.232690
v 0.134340 -0.054540 0.232690
v 0.134340 -0.039670 -0.232690
v 0.134340 -0.039670 0.232690
v 0.134340 0.039670 -0.232690
v 0.134340 0.039670 0.232690
v 0.134340 0.054530 -0.232690
v 0.134340 0.054530 0.232690
v 0.134340 0.208020 -0.232690
v 0.134340 0.208020 0.232690
v 0.134340 0.221770 -0.232690
v 0.134340 0.221770 0.232690
v 0.136230 -0.059340 -0.162360
v 0.136230 -0.059340 0.162360
v 0.136230 0.059340 -0.162360
v 0.136230 0.059340 0.162360
v 0.141060 -0.059340 -0.168100
v 0.141060 -0.059340 0.168100
v 0.141060 -0.046590 -0.168100
v 0.141060 -0.046590 0.168100
v 0.141060 0.046590 -0.168100
v 0.141060 0.046590 0.168100
v 0.141060 0.059340 -0.168100
v 0.141060 0.059340 0.168100
v 0.162360 -0.059340 -0.136240
v 0.162360 -0.059340 0.136240
v 0.162360 0.059340 -0.136240
v 0.162360 0.059340 0.136240
v 0.168100 -0.059340 -0.141050
v 0.168100 -0.059340 0.141060
v 0.168100 -0.046590 -0.141050
v 0.168100 -0.046590 0.141060
v 0.168100 0.046590 -0.141050
v 0.168100 0.046590 0.141060
v 0.168100 0.059340 -0.141050
v 0.168100 0.059340 0.141060
v 0.168630 -0.237710 -0.407110
v 0.168630 -0.237710 0.407110
v 0.168630 -0.023720 -0.407110
v 0.168630 -0.023720 0.407110
v 0.168630 0.023720 -0.407110
v 0.168630 0.023720 0.407110
v 0.168630 0.237710 -0.407110
v 0.168630 0.237710 0.407110
v 0.172710 -0.221770 -0.205830
v 0.172710 -0.221770 0.205830
v 0.172710 -0.208030 -0.205830
v 0.172710 -0.208030 0.205830
v 0.172710 -0.054540 -0.205830
v 0.172710 -0.054540 0.205830
v 0.172710 -0.039670 -0.205830
v 0.172710 -0.039670 0.205830
v 0.172710 0.039670 -0.205830
v 0.172710 0.039670 0.205830
v 0.172710 0.054530 -0.205830
v 0.172710 0.054530 0.205830
v 0.172710 0.208020 -0.205830
v 0.172710 0.208020 0.205830
v 0.172710 0.221770 -0.205830
v 0.172710 0.221770 0.205830
v 0.183590 -0.059410 -0.105920
v 0.183590 -0.059410 0.105920
v 0.183590 0.059410 -0.105920
v 0.183590 0.059410 0.105920
v 0.188370 -0.215450 -0.188370
v 0.188370 -0.215450 0.188370
v 0.188370 -0.045990 -0.188370
v 0.188370 -0.045990 0.188370
v 0.188370 0.045990 -0.188370
v 0.188370 0.045990 0.188370
v 0.188370 0.215450 -0.188370
v 0.188370 0.215450 0.188370
v 0.190040 -0.059340 -0.109720
v 0.190040 -0.059340 0.109720
v 0.190040 -0.046590 -0.109720
v 0.190040 -0.046590 0.109720
v 0.190040 0.046590 -0.109720
v 0.190040 0.046590 0.109720
v 0.190040 0.059340 -0.109720
v 0.190040 0.059340 0.109720
v 0.203760 -0.046650 -0.080490
v 0.203760 -0.046650 0.080490
v 0.203760 0.046650 -0.080490
v 0.203760 0.046650 0.080490
v 0.205830 -0.221770 -0.172710
v 0.205830 -0.221770 0.172710
v 0.205830 -0.208030 -0.172710
v 0.205830 -0.208030 0.172710
v 0.205830 -0.054540 -0.172710
v 0.205830 -0.054540 0.172710
v 0.205830 -0.039670 -0.172710
v 0.205830 -0.039670 0.172710
v 0.205830 0.039670 -0.172710
v 0.205830 0.039670 0.172710
v 0.205830 0.054530 -0.172710
v 0.205830 0.054530 0.172710
v 0.205830 0.208020 -0.172710
v 0.205830 0.208020 0.172710
v 0.205830 0.221770 -0.172710
v 0.205830 0.221770 0.172710
v 0.206210 -0.046590 -0.075050
v 0.206210 -0.046590 0.075050
v 0.206210 0.046590 -0.075050
v 0.206210 0.046590 0.075050
v 0.216110 -0.046590 -0.038110
v 0.216110 -0.046590 0.038110
v 0.216110 0.046590 -0.038110
v 0.216110 0.046590 0.038110
v 0.219440 -0.046590 0.000000
v 0.219440 0.046590 0.000000
v 0.220320 -0.237710 -0.381610
v 0.220320 -0.237710 0.381610
v 0.220320 -0.023720 -0.381610
v 0.220320 -0.023720 0.381610
v 0.220320 0.023720 -0.381610
v 0.220320 0.023720 0.381610
v 0.220320 0.237710 -0.381610
v 0.220320 0.237710 0.381610
v 0.230710 -0.215450 -0.133200
v 0.230710 -0.215450 0.133200
v 0.230710 -0.045990 -0.133200
v 0.230710 -0.045990 0.133200
v 0.230710 0.045990 -0.133200
v 0.230710 0.045990 0.133200
v 0.230710 0.215450 -0.133200
v 0.230710 0.215450 0.133200
v 0.232690 -0.221770 -0.134350
v 0.232690 -0.221770 0.134350
v 0.232690 -0.208030 -0.134350
v 0.232690 -0.208030 0.134350
v 0.232690 -0.054540 -0.134350
v 0.232690 -0.054540 0.134350
v 0.232690 -0.039670 -0.134350
v 0.232690 -0.039670 0.134350
v 0.232690 0.039670 -0.134350
v 0.232690 0.039670 0.134350
v 0.232690 0.054530 -0.134350
v 0.232690 0.054530 0.134350
v 0.232690 0.208020 -0.134350
v 0.232690 0.208020 0.134350
v 0.232690 0.221770 -0.134350
v 0.232690 0.221770 0.134350
v 0.252480 -0.221770 -0.091900
v 0.252480 -0.221770 0.091900
v 0.252480 -0.208030 -0.091900
v 0.252480 -0.208030 0.091900
v 0.252480 -0.054540 -0.091900
v 0.252480 -0.054540 0.091900
v 0.252480 -0.039670 -0.091900
v 0.252480 -0.039670 0.091900
v 0.252490 0.039670 -0.091900
v 0.252490 0.039670 0.091900
v 0.252490 0.054530 -0.091900
v 0.252490 0.054530 0.091900
v 0.252490 0.208020 -0.091900
v 0.252490 0.208020 0.091900
v 0.252490 0.221770 -0.091900
v 0.252490 0.221770 0.091900
v 0.257320 -0.215450 -0.068950
v 0.257320 -0.215450 0.068950
v 0.257320 -0.045990 -0.068950
v 0.257320 -0.045990 0.068950
v 0.257320 0.045990 -0.068950
v 0.257320 0.045990 0.068950
v 0.257320 0.215450 -0.068950
v 0.257320 0.215450 0.068950
v 0.264610 -0.221770 -0.046660
v 0.264610 -0.221770 0.046660
v 0.264610 -0.208030 -0.046660
v 0.264610 -0.208030 0.046660
v 0.264610 -0.054540 -0.046660
v 0.264610 -0.054540 0.046660
v 0.264610 -0.039670 -0.046660
v 0.264610 -0.039670 0.046660
v 0.264610 0.039670 -0.046660
v 0.264610 0.039670 0.046660
v 0.264610 0.054530 -0.046660
v 0.264610 0.054530 0.046660
v 0.264610 0.208020 -0.046660
v 0.264610 0.208020 0.046660
v 0.264610 0.221770 -0.046660
v 0.264610 0.221770 0.046660
v 0.266400 -0.215450 0.000000
v 0.266400 -0.045990 0.000000
v 0.266400 0.045990 0.000000
v 0.266400 0.215450 0.000000
v 0.268250 -0.237710 -0.349590
v 0.268250 -0.237710 0.349590
v 0.268250 -0.023720 -0.349590
v 0.268250 -0.023720 0.349590
v 0.268250 0.023720 -0.349590
v 0.268250 0.023720 0.349590
v 0.268250 0.237710 -0.349590
v 0.268250 0.237710 0.349590
v 0.268690 -0.221770 0.000000
v 0.268690 -0.208030 0.000000
v 0.268690 -0.054540 0.000000
v 0.268690 -0.039670 0.000000
v 0.268690 0.039670 0.000000
v 0.268690 0.054530 0.000000
v 0.268690 0.208020 0.000000
v 0.268690 0.221770 0.000000
v 0.311590 -0.237710 -0.311580
v 0.311590 -0.237710 0.311580
v 0.311590 -0.023720 -0.311580
v 0.311590 -0.023720 0.311580
v 0.311590 0.023720 -0.311580
v 0.311590 0.023720 0.311580
v 0.311590 0.237710 -0.311580
v 0.311590 0.237710 0.311580
v 0.349590 -0.237710 -0.268250
v 0.349590 -0.237710 0.268250
v 0.349590 -0.023720 -0.268250
v 0.349590 -0.023720 0.268250
v 0.349590 0.023720 -0.268250
v 0.349590 0.023720 0.268250
v 0.349590 0.237710 -0.268250
v 0.349590 0.237710 0.268250
v 0.381610 -0.237710 -0.220320
v 0.381610 -0.237710 0.220320
v 0.381610 -0.023720 -0.220320
v 0.381610 -0.023720 0.220320
v 0.381610 0.023720 -0.220320
v 0.381610 0.023720 0.220320
v 0.381610 0.237710 -0.220320
v 0.381610 0.237710 0.220320
v 0.407100 -0.237710 -0.168630
v 0.407100 -0.237710 0.168630
v 0.407100 -0.023720 -0.168630
v 0.407100 -0.023720 0.168630
v 0.407100 0.023720 -0.168630
v 0.407100 0.023720 0.168630
v 0.407100 0.237710 -0.168630
v 0.407100 0.237710 0.168630
v 0.425630 -0.237710 -0.114050
v 0.425630 -0.237710 0.114050
v 0.425630 -0.023720 -0.114050
v 0.425630 -0.023720 0.114050
v 0.425630 0.023720 -0.114050
v 0.425630 0.023720 0.114050
v 0.425630 0.237710 -0.114050
v 0.425630 0.237710 0.114050
v 0.436880 -0.237710 -0.057520
v 0.436880 -0.237710 0.057520
v 0.436880 -0.023720 -0.057520
v 0.436880 -0.023720 0.057520
v 0.436880 0.023720 -0.057520
v 0.436880 0.023720 0.057520
v 0.436880 0.237710 -0.057520
v 0.436880 0.237710 0.057520
v 0.440650 -0.237710 0.000000
v 0.440650 -0.023720 0.000000
v 0.440650 0.023720 0.000000
v 0.440650 0.237710 0.000000
l 705 713
l 408 460
l 65 141
l 3 10
l 697 705
l 460 516
l 49 65
l 10 18
l 689 697
l 516 590
l 41 49
l 18 26
l 681 689
l 590 666
l 33 41
l 26 34
l 665 681
l 666 682
l 25 33
l 34 42
l 589 665
l 682 690
l 17 25
l 42 50
l 515 589
l 690 698
l 9 17
l 50 66
l 459 515
l 698 706
l 3 9
l 66 142
l 407 459
l 706 714
l 142 216
l 365 407
l 714 722
l 216 272
l 323 365
l 722 727
l 272 324
l 271 323
l 721 727
l 324 366
l 215 271
l 713 721
l 366 408
l 141 215
l 597 637
l 187 263
l 133 187
l 71 94
l 370 416
l 598 638
l 93 133
l 315 369
l 543 597
l 94 134
l 468 544
l 416 468
l 71 93
l 544 598
l 19 27
l 274 326
l 591 667
l 724 728
l 27 35
l 218 274
l 667 683
l 716 724
l 35 43
l 144 218
l 683 691
l 708 716
l 43 51
l 68 144
l 691 699
l 700 708
l 51 67
l 52 68
l 699 707
l 692 700
l 67 143
l 44 52
l 707 715
l 684 692
l 143 217
l 36 44
l 715 723
l 668 684
l 217 273
l 28 36
l 723 728
l 592 668
l 273 325
l 20 28
l 518 592
l 325 381
l 12 20
l 462 518
l 381 409
l 4 12
l 410 462
l 409 461
l 4 11
l 382 410
l 461 517
l 11 19
l 326 382
l 517 591
l 95 135
l 469 545
l 545 599
l 640 660
l 318 378
l 96 136
l 599 639
l 377 417
l 135 189
l 600 640
l 190 266
l 266 318
l 639 660
l 136 190
l 637 659
l 188 264
l 263 315
l 316 370
l 134 188
l 415 467
l 467 543
l 264 316
l 638 659
l 369 415
l 72 95
l 470 546
l 417 469
l 378 418
l 546 600
l 265 317
l 189 265
l 418 470
l 72 96
l 317 377
l 701 709
l 404 456
l 61 137
l 1 6
l 693 701
l 456 512
l 45 61
l 6 14
l 685 693
l 512 586
l 37 45
l 14 22
l 677 685
l 586 662
l 29 37
l 22 30
l 661 677
l 662 678
l 21 29
l 30 38
l 585 661
l 678 686
l 13 21
l 38 46
l 511 585
l 686 694
l 5 13
l 46 62
l 455 511
l 694 702
l 1 5
l 62 138
l 403 455
l 702 710
l 138 212
l 347 403
l 710 718
l 212 268
l 319 347
l 718 725
l 268 320
l 267 319
l 717 725
l 320 348
l 211 267
l 709 717
l 348 404
l 137 211
l 593 633
l 183 259
l 129 183
l 69 90
l 352 412
l 594 634
l 89 129
l 311 351
l 539 593
l 90 130
l 464 540
l 412 464
l 69 89
l 540 594
l 15 23
l 270 322
l 587 663
l 720 726
l 23 31
l 214 270
l 663 679
l 712 720
l 31 39
l 140 214
l 679 687
l 704 712
l 39 47
l 64 140
l 687 695
l 696 704
l 47 63
l 48 64
l 695 703
l 688 696
l 63 139
l 40 48
l 703 711
l 680 688
l 139 213
l 32 40
l 711 719
l 664 680
l 213 269
l 24 32
l 719 726
l 588 664
l 269 321
l 16 24
l 514 588
l 321 363
l 8 16
l 458 514
l 363 405
l 2 8
l 406 458
l 405 457
l 2 7
l 364 406
l 457 513
l 7 15
l 322 364
l 513 587
l 91 131
l 465 541
l 541 595
l 636 658
l 314 360
l 92 132
l 595 635
l 359 413
l 131 185
l 596 636
l 186 262
l 262 314
l 635 658
l 132 186
l 633 657
l 184 260
l 259 311
l 312 352
l 130 184
l 411 463
l 463 539
l 260 312
l 634 657
l 351 411
l 70 91
l 466 542
l 413 465
l 360 414
l 542 596
l 261 313
l 185 261
l 414 466
l 70 92
l 313 359
l 510 554
l 242 286
l 238 282
l 236 280
l 310 346
l 346 372
l 210 258
l 258 302
l 302 342
l 342 380
l 502 538
l 336 368
l 296 336
l 252 296
l 204 252
l 490 502
l 446 490
l 498 510
l 454 498
l 452 496
l 426 452
l 386 422
l 372 386
l 496 508
l 534 574
l 486 534
l 442 486
l 402 442
l 380 402
l 368 396
l 396 436
l 436 480
l 480 528
l 528 568
l 445 489
l 181 225
l 527 567
l 567 609
l 625 649
l 649 673
l 609 625
l 655 676
l 631 655
l 615 631
l 573 615
l 533 573
l 453 497
l 581 584
l 551 557
l 495 507
l 577 581
l 507 551
l 501 537
l 489 501
l 497 509
l 632 656
l 574 616
l 582 584
l 578 582
l 656 676
l 616 632
l 568 610
l 610 626
l 626 650
l 508 552
l 650 673
l 509 553
l 451 495
l 385 421
l 371 385
l 485 533
l 441 485
l 401 441
l 379 401
l 193 229
l 367 395
l 395 435
l 435 479
l 479 527
l 229 241
l 241 285
l 225 237
l 237 281
l 235 279
l 279 305
l 309 345
l 345 371
l 223 235
l 169 209
l 209 257
l 257 301
l 301 341
l 341 379
l 335 367
l 295 335
l 251 295
l 203 251
l 163 203
l 164 204
l 122 164
l 82 106
l 57 82
l 106 122
l 60 88
l 88 112
l 112 128
l 128 170
l 170 210
l 146 150
l 174 180
l 224 236
l 150 154
l 180 224
l 194 230
l 230 242
l 226 238
l 87 111
l 127 169
l 146 149
l 149 153
l 60 87
l 111 127
l 121 163
l 105 121
l 81 105
l 179 223
l 57 81
l 182 226
l 503 547
l 239 283
l 231 275
l 233 277
l 308 343
l 343 357
l 195 243
l 243 287
l 287 327
l 327 349
l 499 535
l 333 361
l 293 333
l 249 293
l 201 249
l 487 499
l 443 487
l 491 503
l 447 491
l 449 493
l 423 449
l 383 419
l 357 383
l 493 505
l 519 559
l 471 519
l 427 471
l 387 427
l 349 387
l 361 393
l 393 433
l 433 477
l 477 525
l 525 565
l 444 488
l 176 220
l 526 566
l 566 608
l 624 648
l 648 672
l 608 624
l 642 669
l 618 642
l 602 618
l 560 602
l 520 560
l 448 492
l 580 583
l 550 556
l 494 506
l 576 580
l 506 550
l 500 536
l 488 500
l 492 504
l 617 641
l 559 601
l 579 583
l 575 579
l 641 669
l 601 617
l 565 607
l 607 623
l 623 647
l 505 549
l 647 672
l 504 548
l 450 494
l 384 420
l 358 384
l 472 520
l 428 472
l 388 428
l 350 388
l 192 228
l 362 394
l 394 434
l 434 478
l 478 526
l 228 240
l 240 284
l 220 232
l 232 276
l 234 278
l 278 304
l 307 344
l 344 358
l 222 234
l 156 196
l 196 244
l 244 288
l 288 328
l 328 350
l 334 362
l 294 334
l 250 294
l 202 250
l 162 202
l 161 201
l 119 161
l 79 103
l 56 79
l 103 119
l 53 73
l 73 97
l 97 113
l 113 155
l 155 195
l 145 147
l 171 177
l 221 233
l 147 151
l 177 221
l 191 227
l 227 239
l 219 231
l 74 98
l 114 156
l 145 148
l 148 152
l 53 74
l 98 114
l 120 162
l 104 120
l 80 104
l 178 222
l 56 80
l 175 219
l 280 306
l 208 256
l 256 300
l 300 340
l 340 376
l 338 374
l 298 338
l 254 298
l 206 254
l 532 572
l 484 532
l 440 484
l 400 440
l 376 400
l 374 398
l 398 438
l 438 482
l 482 530
l 530 570
l 529 569
l 569 611
l 627 651
l 651 674
l 611 627
l 653 675
l 629 653
l 613 629
l 571 613
l 531 571
l 552 558
l 630 654
l 572 614
l 654 675
l 614 630
l 570 612
l 612 628
l 628 652
l 652 674
l 425 451
l 483 531
l 439 483
l 399 439
l 375 399
l 373 397
l 397 437
l 437 481
l 481 529
l 167 207
l 207 255
l 255 299
l 299 339
l 339 375
l 337 373
l 297 337
l 253 297
l 205 253
l 165 205
l 166 206
l 124 166
l 84 108
l 58 84
l 108 124
l 59 86
l 86 110
l 110 126
l 126 168
l 168 208
l 173 179
l 85 109
l 125 167
l 59 85
l 109 125
l 123 165
l 107 123
l 83 107
l 58 83
l 277 303
l 197 245
l 245 289
l 289 329
l 329 353
l 331 355
l 291 331
l 247 291
l 199 247
l 521 561
l 473 521
l 429 473
l 389 429
l 353 389
l 355 391
l 391 431
l 431 475
l 475 523
l 523 563
l 524 564
l 564 606
l 622 646
l 646 671
l 606 622
l 644 670
l 620 644
l 604 620
l 562 604
l 522 562
l 549 555
l 619 643
l 561 603
l 643 670
l 603 619
l 563 605
l 605 621
l 621 645
l 645 671
l 424 450
l 474 522
l 430 474
l 390 430
l 354 390
l 356 392
l 392 432
l 432 476
l 476 524
l 158 198
l 198 246
l 246 290
l 290 330
l 330 354
l 332 356
l 292 332
l 248 292
l 200 248
l 160 200
l 159 199
l 117 159
l 77 101
l 55 77
l 101 117
l 54 75
l 75 99
l 99 115
l 115 157
l 157 197
l 172 178
l 76 100
l 116 158
l 54 76
l 100 116
l 118 160
l 102 118
l 78 102
l 55 78
