# feature-edge wireframe (30 derece), ISO 8855, metre
o wheel_9_wire
v -0.38450 -0.28750 0.30200
v -0.38450 -0.28850 -0.00600
v -0.38450 -0.29050 -0.01600
v -0.38450 -0.29050 -0.01400
v -0.38450 -0.29150 -0.01800
v -0.38450 -0.29150 -0.01300
v -0.38450 -0.29450 0.29100
v -0.38450 -0.29650 -0.01300
v -0.33950 -0.29650 0.30200
v -0.42950 -0.29650 0.30200
v -0.33950 -0.29750 -0.00600
v -0.42950 -0.29750 -0.00600
v -0.42950 -0.29750 0.29500
v -0.34050 -0.29950 -0.01600
v -0.42850 -0.29950 -0.01600
v -0.34050 -0.29950 -0.01400
v -0.34050 -0.30050 -0.01800
v -0.42850 -0.30050 -0.01800
v -0.34050 -0.30050 -0.01300
v -0.42850 -0.30050 -0.01300
v -0.34150 -0.30250 -0.01100
v -0.42750 -0.30250 -0.01100
v -0.42750 -0.30350 -0.02000
v -0.34250 -0.30350 0.29100
v -0.34250 -0.30450 -0.01300
v -0.42650 -0.30450 -0.01300
v -0.34350 -0.30550 0.29100
v -0.34350 -0.30750 0.29200
v -0.30150 -0.32250 0.29500
v -0.46850 -0.32250 0.29500
v -0.46850 -0.32250 0.29700
v -0.30150 -0.32250 0.30200
v -0.46850 -0.32250 0.30200
v -0.30150 -0.32350 -0.00600
v -0.46850 -0.32350 -0.00600
v -0.30350 -0.32450 -0.01700
v -0.46650 -0.32450 -0.01700
v -0.46650 -0.32450 -0.01400
v -0.30350 -0.32550 -0.01800
v -0.46550 -0.32550 -0.01800
v -0.30350 -0.32550 -0.01300
v -0.30450 -0.32550 -0.01300
v -0.46450 -0.32650 -0.01200
v -0.30550 -0.32650 -0.01100
v -0.46350 -0.32650 -0.01100
v -0.46350 -0.32750 -0.02000
v -0.46350 -0.32750 -0.01900
v -0.30550 -0.32750 0.29100
v -0.30750 -0.32850 -0.01300
v -0.46250 -0.32850 -0.01300
v -0.30850 -0.32950 0.29200
v 0.50350 -0.33050 -0.01500
v 0.50350 -0.33050 0.00500
v -0.46050 -0.33050 0.29200
v 0.47450 -0.33250 0.19600
v 0.45450 -0.33250 0.19600
v 0.46850 -0.33250 0.20500
v 0.46050 -0.33250 0.20500
v 0.04150 -0.34550 -0.04800
v -0.03950 -0.34550 -0.04800
v 0.04150 -0.34550 -0.03100
v -0.03950 -0.34550 -0.03100
v -0.03950 -0.34650 -0.04900
v 0.04150 -0.34750 -0.04900
v 0.05050 -0.35950 -0.18200
v -0.06650 -0.35950 -0.18200
v 0.05050 -0.35950 0.09800
v -0.06650 -0.35950 0.09800
v -0.27550 -0.36050 0.29500
v -0.49350 -0.36050 0.29500
v -0.27550 -0.36050 0.30200
v -0.49450 -0.36050 0.30200
v 0.05650 -0.36150 -0.18200
v 0.04450 -0.36150 -0.18200
v -0.07250 -0.36150 -0.18200
v -0.27650 -0.36150 -0.00600
v -0.49350 -0.36150 -0.00600
v 0.05650 -0.36150 0.09800
v 0.04450 -0.36150 0.09800
v -0.07250 -0.36150 0.09800
v -0.27850 -0.36250 -0.01800
v -0.48950 -0.36250 -0.01800
v -0.49050 -0.36250 -0.01800
v -0.49150 -0.36250 -0.01600
v -0.27950 -0.36250 -0.01300
v -0.48950 -0.36250 -0.01300
v -0.49050 -0.36250 -0.01300
v 0.52950 -0.36350 -0.04900
v 0.47750 -0.36350 -0.04900
v -0.48750 -0.36350 -0.02000
v -0.28250 -0.36350 -0.01200
v -0.48750 -0.36350 -0.01200
v -0.28150 -0.36350 -0.01100
v -0.48850 -0.36350 -0.01100
v 0.52950 -0.36350 0.04100
v 0.47750 -0.36350 0.04100
v -0.28150 -0.36350 0.29100
v -0.48750 -0.36350 0.29100
v -0.07450 -0.36450 -0.18200
v -0.28350 -0.36450 -0.01300
v -0.07450 -0.36450 0.09800
v -0.28350 -0.36450 0.29100
v -0.48650 -0.36450 0.29100
v -0.48450 -0.36450 0.29200
v -0.28650 -0.36550 0.29200
v 0.48050 -0.36650 0.21200
v 0.05850 -0.36750 -0.18200
v 0.04250 -0.36750 -0.18200
v -0.05850 -0.36750 -0.18200
v 0.06950 -0.36750 -0.13700
v 0.03450 -0.36750 -0.13700
v -0.04850 -0.36750 -0.13700
v -0.08250 -0.36750 -0.13700
v 0.06950 -0.36750 -0.10200
v 0.03450 -0.36750 -0.10200
v -0.04850 -0.36750 -0.10200
v -0.08250 -0.36750 -0.10200
v 0.05850 -0.36750 0.09800
v 0.04250 -0.36750 0.09800
v -0.05850 -0.36750 0.09800
v -0.07450 -0.37050 -0.18200
v 0.55950 -0.37050 -0.06700
v 0.42850 -0.37050 -0.06700
v -0.07450 -0.37050 0.09800
v 0.55950 -0.37050 0.32100
v 0.34750 -0.37050 0.32100
v 0.56450 -0.37150 -0.06700
v 0.56450 -0.37150 0.32100
v -0.20850 -0.37250 -0.10800
v -0.19650 -0.37250 -0.10700
v 0.30450 -0.37250 -0.10400
v -0.09650 -0.37250 -0.10400
v 0.31050 -0.37250 -0.10100
v 0.31650 -0.37250 -0.09900
v 0.29150 -0.37250 -0.09900
v -0.45850 -0.37250 -0.09600
v 0.32150 -0.37250 -0.08700
v 0.28650 -0.37250 -0.08700
v -0.45850 -0.37250 -0.08300
v -0.14350 -0.37250 -0.07700
v 0.31050 -0.37250 -0.07500
v -0.09650 -0.37250 -0.07500
v 0.31650 -0.37250 -0.07400
v 0.29150 -0.37250 -0.07400
v 0.13950 -0.37250 -0.07300
v -0.20850 -0.37250 -0.07200
v 0.30450 -0.37250 -0.06900
v 0.28850 -0.37250 -0.05900
v 0.52950 -0.37250 -0.04900
v 0.47750 -0.37250 -0.04900
v 0.40950 -0.37250 -0.04300
v 0.13950 -0.37250 -0.03900
v -0.14350 -0.37250 -0.03900
v 0.28850 -0.37250 -0.02900
v 0.52350 -0.37250 -0.02800
v 0.40950 -0.37250 -0.01600
v 0.52350 -0.37250 -0.00100
v 0.52950 -0.37250 0.04100
v 0.47750 -0.37250 0.04100
v 0.05650 -0.37350 -0.18200
v 0.04450 -0.37350 -0.18200
v -0.07250 -0.37350 -0.18200
v 0.05650 -0.37350 0.09800
v 0.04450 -0.37350 0.09800
v -0.07250 -0.37350 0.09800
v 0.05050 -0.37550 -0.18200
v -0.06650 -0.37550 -0.18200
v -0.08150 -0.37550 -0.05900
v -0.07450 -0.37550 -0.02800
v 0.05050 -0.37550 0.09800
v -0.06650 -0.37550 0.09800
v 0.56150 -0.37650 -0.06700
v 0.55850 -0.37650 -0.06700
v 0.42850 -0.37650 -0.06700
v 0.56150 -0.37650 0.32100
v 0.55850 -0.37650 0.32100
v 0.34750 -0.37650 0.32100
v 0.06150 -0.37750 -0.06000
v -0.07550 -0.37750 -0.06000
v 0.08750 -0.37750 -0.05800
v 0.05950 -0.37750 -0.05800
v -0.07450 -0.37750 -0.05100
v 0.09050 -0.37750 -0.04900
v 0.05850 -0.37750 -0.04900
v -0.07250 -0.37750 -0.04900
v -0.08550 -0.37750 -0.03100
v 0.05850 -0.37750 -0.03000
v -0.03950 -0.37750 -0.03000
v -0.06050 -0.37750 -0.03000
v -0.07250 -0.37750 -0.03000
v -0.05850 -0.37750 -0.02900
v -0.04150 -0.37750 -0.02800
v -0.05850 -0.37750 -0.02800
v -0.07450 -0.37750 -0.02800
v -0.08650 -0.37750 -0.02800
v -0.07450 -0.37750 -0.02700
v -0.08550 -0.37750 -0.02700
v 0.05950 -0.37750 -0.02600
v 0.09650 -0.37750 -0.02500
v 0.09450 -0.37750 -0.02500
v 0.56950 -0.38050 -0.06700
v 0.56950 -0.38050 0.32100
v 0.56350 -0.38150 -0.06700
v 0.56350 -0.38150 0.32100
v -0.08150 -0.38550 0.12900
v 0.06450 -0.38650 0.10600
v -0.08150 -0.38650 0.10600
v 0.06950 -0.38650 0.11200
v -0.08550 -0.38650 0.11200
v 0.05550 -0.38650 0.11800
v 0.04650 -0.38650 0.11800
v -0.06150 -0.38650 0.11800
v -0.07250 -0.38650 0.11800
v 0.05650 -0.38650 0.11900
v -0.07350 -0.38650 0.11900
v 0.06950 -0.38650 0.12500
v -0.08550 -0.38650 0.12500
v 0.06550 -0.38650 0.12900
v 0.05850 -0.38650 0.12900
v 0.04150 -0.38650 0.12900
v -0.05850 -0.38650 0.12900
v -0.08250 -0.38650 0.12900
v 0.05950 -0.38650 0.13000
v -0.07550 -0.38650 0.13000
v 0.06450 -0.38650 0.13100
v 0.04050 -0.38650 0.13100
v -0.07650 -0.38650 0.13100
v -0.08150 -0.38650 0.13100
v -0.26950 -0.40650 -0.01800
v -0.49850 -0.40650 -0.01800
v -0.49950 -0.40650 -0.01800
v -0.26950 -0.40650 -0.01400
v -0.50050 -0.40650 -0.01400
v -0.27050 -0.40650 -0.01300
v -0.49950 -0.40650 -0.01300
v -0.27350 -0.40650 -0.01200
v -0.27450 -0.40650 -0.01200
v -0.49650 -0.40650 -0.01200
v -0.27350 -0.40650 -0.01100
v -0.49450 -0.40650 -0.01100
v -0.26750 -0.40650 -0.00600
v -0.50250 -0.40650 -0.00600
v -0.27350 -0.40650 0.29000
v -0.49550 -0.40650 0.29000
v -0.27650 -0.40650 0.29100
v -0.49650 -0.40650 0.29100
v -0.27750 -0.40650 0.29200
v -0.26650 -0.40650 0.30200
v -0.50350 -0.40650 0.30200
v 0.06450 -0.42650 0.10600
v -0.08150 -0.42650 0.10600
v 0.06950 -0.42650 0.11200
v -0.08550 -0.42650 0.11200
v 0.05450 -0.42650 0.11800
v 0.04450 -0.42650 0.11800
v -0.07250 -0.42650 0.11800
v 0.05650 -0.42650 0.11900
v -0.07350 -0.42650 0.11900
v 0.06950 -0.42650 0.12500
v -0.08550 -0.42650 0.12500
v 0.06550 -0.42650 0.12900
v 0.05850 -0.42650 0.12900
v 0.04150 -0.42650 0.12900
v -0.05850 -0.42650 0.12900
v -0.08250 -0.42650 0.12900
v -0.07550 -0.42650 0.13000
v 0.06250 -0.42650 0.13100
v 0.05950 -0.42650 0.13100
v 0.04050 -0.42650 0.13100
v -0.07950 -0.42650 0.13100
v -0.06050 -0.42750 0.11900
v 0.06550 -0.42750 0.12900
v 0.56350 -0.42850 -0.06700
v 0.56350 -0.42850 0.32100
v 0.56950 -0.42950 -0.06700
v 0.56950 -0.42950 0.32100
v 0.06150 -0.43050 -0.06000
v -0.07550 -0.43050 -0.06000
v 0.08750 -0.43050 -0.05900
v 0.05950 -0.43050 -0.05800
v -0.07450 -0.43050 -0.05100
v 0.05850 -0.43050 -0.04900
v -0.07250 -0.43050 -0.04900
v 0.09050 -0.43050 -0.04800
v -0.08550 -0.43050 -0.03100
v 0.05850 -0.43050 -0.03000
v -0.03950 -0.43050 -0.03000
v -0.06050 -0.43050 -0.03000
v -0.07250 -0.43050 -0.03000
v -0.04150 -0.43050 -0.02800
v -0.05850 -0.43050 -0.02800
v -0.07450 -0.43050 -0.02800
v -0.08650 -0.43050 -0.02800
v -0.07450 -0.43050 -0.02700
v -0.08450 -0.43050 -0.02700
v 0.09650 -0.43050 -0.02600
v 0.05950 -0.43050 -0.02600
v 0.09450 -0.43050 -0.02500
v 0.48050 -0.43050 0.21200
v -0.08150 -0.43150 -0.05800
v 0.05850 -0.43150 -0.03000
v -0.20850 -0.43350 -0.10800
v -0.19650 -0.43350 -0.10700
v -0.09650 -0.43350 -0.10400
v 0.31050 -0.43350 -0.10100
v -0.45850 -0.43350 -0.09600
v -0.45850 -0.43350 -0.08300
v -0.14350 -0.43350 -0.07700
v 0.31050 -0.43350 -0.07500
v -0.09650 -0.43350 -0.07500
v 0.13950 -0.43350 -0.07300
v -0.20850 -0.43350 -0.07200
v 0.55850 -0.43350 -0.06700
v 0.42850 -0.43350 -0.06700
v 0.28850 -0.43350 -0.05900
v 0.40950 -0.43350 -0.04300
v 0.13950 -0.43350 -0.03900
v -0.14350 -0.43350 -0.03900
v 0.28850 -0.43350 -0.02900
v 0.52350 -0.43350 -0.02800
v 0.40950 -0.43350 -0.01600
v 0.52350 -0.43350 -0.00100
v 0.55850 -0.43350 0.32100
v 0.34750 -0.43350 0.32100
v 0.05350 -0.43650 -0.18200
v 0.04750 -0.43650 -0.18200
v -0.06350 -0.43650 -0.18200
v -0.06950 -0.43650 -0.18200
v 0.05350 -0.43650 0.09800
v 0.04750 -0.43650 0.09800
v -0.06350 -0.43650 0.09800
v -0.06950 -0.43650 0.09800
v 0.05650 -0.43850 -0.18200
v 0.04450 -0.43850 -0.18200
v 0.52950 -0.43850 -0.04900
v 0.47650 -0.43850 -0.04900
v 0.52950 -0.43850 0.04100
v 0.47650 -0.43850 0.04100
v 0.05650 -0.43850 0.09800
v 0.04450 -0.43850 0.09800
v 0.55950 -0.43950 -0.06700
v 0.42850 -0.43950 -0.06700
v 0.55950 -0.43950 0.32100
v 0.34750 -0.43950 0.32100
v -0.07450 -0.44150 -0.18200
v -0.07450 -0.44150 0.09800
v 0.06950 -0.44250 -0.13700
v 0.03450 -0.44250 -0.13700
v -0.04850 -0.44250 -0.13700
v -0.08250 -0.44250 -0.13700
v 0.06950 -0.44250 -0.10200
v 0.03450 -0.44250 -0.10200
v -0.04850 -0.44250 -0.10200
v -0.08250 -0.44250 -0.10200
v 0.05850 -0.44450 -0.18200
v 0.04250 -0.44450 -0.18200
v -0.05850 -0.44450 -0.18200
v 0.31350 -0.44450 -0.10900
v 0.29450 -0.44450 -0.10900
v 0.05850 -0.44450 0.09800
v 0.04250 -0.44450 0.09800
v -0.05850 -0.44450 0.09800
v -0.07450 -0.44750 -0.18200
v 0.52950 -0.44750 -0.04900
v 0.47650 -0.44750 -0.04900
v 0.52950 -0.44750 0.04100
v 0.47650 -0.44750 0.04100
v -0.07450 -0.44750 0.09800
v -0.28450 -0.44750 0.29100
v -0.48350 -0.44750 0.29200
v 0.46650 -0.44850 0.17600
v -0.28150 -0.44850 0.28900
v -0.28350 -0.44850 0.29100
v -0.48750 -0.44850 0.29100
v -0.27950 -0.44950 -0.01300
v -0.48950 -0.44950 -0.01300
v -0.28050 -0.44950 -0.01200
v -0.48950 -0.44950 -0.01200
v -0.28150 -0.44950 -0.01100
v 0.30050 -0.45050 -0.09600
v 0.31150 -0.45050 -0.09400
v 0.29450 -0.45050 -0.08700
v 0.31350 -0.45050 -0.08300
v 0.30450 -0.45050 -0.07700
v -0.27850 -0.45050 -0.01800
v -0.49050 -0.45050 -0.01800
v -0.49150 -0.45050 -0.01600
v -0.27850 -0.45050 -0.01400
v -0.49150 -0.45050 -0.01400
v 0.45450 -0.45050 0.15500
v 0.45350 -0.45050 0.15500
v 0.46750 -0.45050 0.17600
v 0.44450 -0.45050 0.18800
v -0.49150 -0.45050 0.30400
v -0.27650 -0.45150 -0.00600
v -0.49350 -0.45150 -0.00600
v -0.27550 -0.45150 0.29500
v -0.49350 -0.45150 0.29500
v -0.27450 -0.45150 0.29700
v -0.49450 -0.45150 0.30200
v 0.05050 -0.45250 -0.18200
v -0.06650 -0.45250 -0.18200
v 0.05050 -0.45250 0.09800
v -0.06650 -0.45250 0.09800
v 0.30450 -0.45350 -0.10400
v 0.31650 -0.45350 -0.09900
v 0.29150 -0.45350 -0.09900
v 0.32150 -0.45350 -0.08700
v 0.28650 -0.45350 -0.08700
v 0.31650 -0.45350 -0.07400
v 0.29150 -0.45350 -0.07400
v 0.30450 -0.45350 -0.06900
v 0.04150 -0.46450 -0.04800
v -0.03950 -0.46450 -0.04800
v 0.04150 -0.46450 -0.03100
v -0.03950 -0.46450 -0.03100
v 0.50350 -0.48150 -0.01500
v 0.50350 -0.48150 0.00500
v -0.30950 -0.48150 0.29200
v -0.46050 -0.48150 0.29200
v -0.46250 -0.48350 -0.02000
v -0.46250 -0.48350 -0.01100
v -0.46150 -0.48350 -0.01000
v -0.30750 -0.48350 0.29100
v -0.30650 -0.48450 0.29000
v -0.46250 -0.48450 0.29000
v -0.30550 -0.48550 0.29100
v -0.46350 -0.48550 0.29100
v -0.46450 -0.48650 -0.01900
v -0.30450 -0.48650 -0.01300
v -0.30450 -0.48650 -0.01200
v -0.46450 -0.48650 -0.01200
v -0.30350 -0.48750 -0.01800
v -0.46550 -0.48750 -0.01800
v -0.46650 -0.48750 -0.01700
v -0.46650 -0.48750 -0.01500
v -0.46550 -0.48750 -0.01400
v -0.30350 -0.48750 -0.01300
v -0.46650 -0.48750 0.30400
v -0.30150 -0.48950 -0.00600
v -0.46850 -0.48950 -0.00600
v -0.30150 -0.48950 0.29500
v -0.46850 -0.48950 0.29500
v -0.30150 -0.48950 0.30200
v -0.46850 -0.48950 0.30200
v -0.30050 -0.49050 0.29700
v 0.31350 -0.49150 -0.10900
v 0.29450 -0.49150 -0.10900
v 0.45550 -0.49550 0.15500
v 0.45350 -0.49550 0.15500
v 0.46650 -0.49550 0.17500
v 0.46650 -0.49550 0.17700
v 0.44450 -0.49550 0.18800
v -0.34350 -0.50450 0.29200
v -0.42550 -0.50550 -0.01000
v -0.42650 -0.50650 0.29100
v -0.34250 -0.50750 0.29100
v -0.42650 -0.50750 0.29100
v 0.30050 -0.50850 -0.09600
v 0.31150 -0.50850 -0.09400
v 0.29450 -0.50850 -0.08700
v 0.31350 -0.50850 -0.08300
v 0.30450 -0.50850 -0.07700
v -0.42750 -0.50850 -0.02000
v -0.34250 -0.50850 -0.01100
v -0.42750 -0.50850 -0.01100
v 0.47450 -0.50950 0.19600
v 0.45450 -0.50950 0.19600
v 0.46850 -0.50950 0.20500
v 0.46050 -0.50950 0.20500
v -0.42750 -0.50950 0.28900
v -0.34250 -0.50950 0.29100
v -0.34050 -0.51150 -0.01300
v -0.34050 -0.51250 -0.01800
v -0.42850 -0.51250 -0.01800
v -0.34050 -0.51250 -0.01400
v -0.42850 -0.51250 -0.01400
v -0.33950 -0.51450 -0.00600
v -0.42950 -0.51450 -0.00600
v -0.33950 -0.51550 0.30200
v -0.43050 -0.51650 0.29700
v -0.38450 -0.51750 -0.01100
v -0.38450 -0.51750 0.29000
v -0.38450 -0.52050 -0.01800
v -0.38450 -0.52150 -0.01400
v -0.38450 -0.52350 -0.00600
v -0.38450 -0.52550 0.29700
l 6 20
l 20 43
l 21 44
l 42 85
l 44 93
l 50 92
l 85 234
l 92 238
l 132 304
l 133 305
l 141 309
l 142 310
l 180 279
l 183 284
l 191 291
l 192 290
l 200 298
l 221 264
l 224 266
l 227 266
l 1 9
l 1 10
l 2 11
l 3 15
l 4 16
l 4 20
l 5 18
l 7 24
l 8 25
l 8 26
l 9 32
l 10 33
l 12 35
l 13 30
l 13 31
l 14 36
l 17 39
l 18 37
l 19 41
l 19 42
l 20 38
l 22 45
l 23 46
l 23 47
l 25 49
l 26 50
l 27 51
l 28 51
l 29 69
l 30 70
l 32 71
l 33 72
l 34 76
l 35 77
l 37 83
l 37 84
l 38 87
l 40 83
l 41 85
l 43 86
l 43 87
l 45 94
l 46 82
l 46 90
l 47 82
l 48 97
l 49 100
l 51 102
l 52 417
l 53 418
l 54 104
l 55 467
l 56 468
l 57 469
l 58 470
l 59 60
l 61 62
l 63 64
l 65 67
l 66 68
l 71 248
l 72 249
l 73 78
l 74 79
l 75 80
l 77 242
l 81 229
l 82 230
l 83 231
l 85 232
l 86 240
l 87 235
l 88 89
l 88 95
l 89 96
l 91 236
l 91 237
l 94 240
l 95 96
l 98 246
l 99 101
l 100 237
l 103 244
l 105 247
l 106 299
l 107 118
l 108 119
l 109 120
l 110 347
l 111 348
l 112 349
l 113 350
l 114 351
l 115 352
l 116 353
l 117 354
l 121 124
l 122 123
l 123 126
l 125 126
l 127 128
l 129 136
l 130 303
l 131 405
l 132 133
l 134 406
l 135 407
l 136 306
l 137 408
l 138 409
l 139 146
l 139 307
l 140 145
l 141 142
l 143 410
l 144 411
l 145 148
l 147 412
l 148 151
l 149 150
l 149 158
l 150 159
l 151 155
l 152 153
l 152 154
l 154 156
l 155 320
l 156 157
l 157 322
l 158 159
l 160 163
l 161 164
l 162 165
l 166 170
l 167 171
l 168 300
l 169 292
l 172 175
l 173 174
l 174 177
l 176 177
l 178 277
l 179 278
l 181 280
l 182 281
l 184 282
l 185 283
l 186 285
l 187 286
l 187 301
l 188 287
l 189 288
l 190 289
l 193 291
l 194 292
l 195 293
l 196 294
l 197 295
l 198 297
l 199 296
l 201 275
l 202 276
l 203 273
l 204 274
l 205 265
l 206 250
l 207 251
l 208 252
l 209 253
l 210 254
l 211 255
l 212 271
l 213 256
l 214 257
l 215 258
l 216 259
l 217 260
l 218 261
l 218 272
l 219 262
l 220 263
l 222 265
l 223 268
l 225 267
l 225 272
l 226 269
l 228 265
l 228 270
l 229 385
l 231 386
l 232 388
l 233 389
l 235 376
l 235 378
l 239 379
l 241 395
l 243 372
l 245 369
l 245 373
l 249 400
l 302 306
l 304 305
l 307 312
l 308 311
l 309 310
l 311 315
l 313 314
l 314 324
l 315 316
l 316 320
l 317 318
l 317 319
l 319 321
l 321 322
l 323 324
l 325 329
l 326 330
l 327 331
l 328 332
l 333 339
l 334 340
l 335 336
l 335 337
l 336 338
l 337 338
l 341 342
l 342 344
l 343 344
l 345 346
l 355 360
l 356 361
l 357 362
l 358 447
l 359 448
l 363 368
l 364 365
l 364 366
l 365 367
l 366 367
l 369 425
l 370 420
l 371 451
l 371 452
l 373 425
l 374 428
l 375 430
l 375 438
l 376 432
l 376 437
l 377 430
l 377 431
l 378 432
l 379 431
l 380 459
l 381 460
l 382 461
l 383 462
l 384 463
l 385 433
l 386 429
l 386 435
l 387 436
l 387 437
l 388 438
l 389 437
l 390 449
l 391 450
l 392 451
l 393 453
l 394 439
l 395 440
l 396 441
l 397 442
l 398 443
l 399 446
l 400 445
l 401 403
l 402 404
l 413 414
l 415 416
l 419 454
l 421 464
l 422 455
l 423 455
l 424 457
l 426 456
l 426 458
l 427 472
l 430 473
l 431 473
l 432 466
l 433 474
l 434 475
l 438 473
l 438 476
l 440 478
l 441 479
l 444 480
l 465 482
l 471 483
l 474 484
l 475 484
l 476 485
l 477 485
l 478 486
l 481 487
