# feature-edge wireframe (60 derece), ISO 8855, metre
o tractor_chassis_wire
v -0.76850 1.30404 0.65400
v -0.92150 1.30304 0.66000
v -1.08750 1.30204 0.50400
v -0.97150 1.30204 0.66200
v -1.07350 1.30204 0.66500
v -1.07350 1.30204 0.66800
v -0.73550 1.30104 0.73700
v -1.24550 1.30004 0.50800
v -1.24450 1.30004 0.67300
v -1.30150 1.30004 0.67500
v -0.90350 1.30004 0.74400
v -1.40350 1.29904 0.51300
v -0.92350 1.29804 0.64800
v -1.51850 1.29804 0.68200
v -1.07150 1.29804 0.75100
v -0.90150 1.29804 0.75400
v -0.81550 1.29704 0.57900
v -0.78050 1.29704 0.63400
v -0.77350 1.29704 0.64100
v -1.07350 1.29704 0.65400
v -0.73150 1.29704 0.75100
v -0.84550 1.29704 0.75300
v -0.90150 1.29704 0.75500
v -0.88750 1.29604 0.47100
v -1.24550 1.29604 0.51100
v -0.90250 1.29604 0.63900
v -1.72350 1.29604 0.68800
v -1.72350 1.29604 0.69100
v -1.29750 1.29604 0.75700
v -1.07150 1.29604 0.75900
v -1.08550 1.29604 0.76300
v -1.38350 1.29504 0.51600
v -0.77850 1.29504 0.64100
v -0.87550 1.29504 0.64500
v -0.92350 1.29504 0.64600
v -0.97350 1.29504 0.64900
v -1.86650 1.29504 0.69600
v -0.55550 1.29504 0.74700
v -1.41850 1.29404 0.48000
v -1.93750 1.29404 0.69900
v -1.91450 1.29404 0.70300
v -1.24350 1.29404 0.76800
v -0.75050 1.29304 0.64500
v -0.95850 1.29304 0.64600
v -1.97550 1.29304 0.70700
v -0.75850 1.29304 0.73400
v -0.70550 1.29304 0.73700
v -1.40150 1.29304 0.77300
v -0.75550 1.29204 0.36800
v -1.19850 1.29204 0.48900
v -2.16050 1.29204 0.61900
v -1.07350 1.29204 0.65200
v -1.72150 1.29204 0.67800
v -2.15150 1.29204 0.70800
v -2.52150 1.29204 0.74200
v -1.08550 1.29104 0.36800
v -1.41550 1.29104 0.36800
v -1.74550 1.29104 0.36800
v -0.75150 1.29104 0.50700
v -0.75550 1.29104 0.51200
v -1.89350 1.29104 0.55600
v -2.07550 1.29004 0.36800
v -1.38650 1.29004 0.51900
v -1.60950 1.29004 0.61800
v -0.74650 1.29004 0.63400
v -2.05250 1.29004 0.69200
v -2.80150 1.29004 0.71200
v -2.73050 1.29004 0.72000
v -2.40550 1.28904 0.36800
v -0.76050 1.28904 0.38000
v -1.56650 1.28904 0.59200
v -1.56450 1.28904 0.59300
v -1.41550 1.28904 0.66400
v -1.55750 1.28904 0.66800
v -1.06950 1.28904 0.75900
v -2.03850 1.28904 0.86000
v -2.73550 1.28804 0.36800
v -1.42350 1.28804 0.51800
v -1.56750 1.28804 0.67000
v -1.24450 1.28804 0.76300
v -3.06450 1.28704 0.36800
v -1.72950 1.28704 0.67400
v -1.72050 1.28704 0.67600
v -2.38250 1.28704 0.70700
v -3.39450 1.28604 0.36800
v -1.86150 1.28604 0.52500
v -1.94450 1.28604 0.68500
v -1.41850 1.28604 0.76800
v -1.62650 1.28604 0.77800
v -2.05250 1.28504 0.69000
v -1.63250 1.28504 0.78100
v -2.41250 1.28504 0.91600
v -1.24450 1.28404 0.50900
v -2.05650 1.28404 0.68800
v -1.24350 1.28304 0.51500
v -2.38350 1.28304 0.70500
v -1.96750 1.28304 0.78500
v -1.97150 1.28304 0.78700
v -1.47350 1.28304 1.04700
v -2.37750 1.28204 0.54600
v -2.38450 1.28204 0.70200
v -1.97150 1.28204 0.78800
v -1.77850 1.28204 1.05600
v -1.93050 1.28204 1.05900
v -2.38850 1.28204 1.07800
v -1.86150 1.28104 0.53100
v -2.20550 1.28104 0.54100
v -2.30950 1.28104 0.79200
v -1.77950 1.28104 1.05400
v -1.93250 1.28104 1.05700
v -0.75150 1.28004 0.44600
v -0.74450 1.28004 0.62600
v -2.30950 1.28004 0.79500
v -1.06850 1.28004 0.91400
v -1.97750 1.28004 0.93000
v -2.38850 1.28004 1.07100
v -1.97450 1.28004 1.09100
v -1.84150 1.28004 1.09600
v -2.38850 1.28004 1.12900
v -0.75750 1.27904 0.26600
v -2.20550 1.27904 0.54300
v -2.46750 1.27904 0.94100
v -1.57750 1.27904 1.10600
v -1.98250 1.27904 1.11800
v -1.29650 1.27804 0.51100
v -2.89450 1.27804 0.56600
v -1.24250 1.27804 0.76900
v -1.97850 1.27804 0.92900
v -2.14150 1.27804 0.93300
v -1.98250 1.27804 1.11800
v -0.75450 1.27704 0.36700
v -1.08450 1.27704 0.36700
v -1.41450 1.27704 0.36700
v -1.63550 1.27704 0.36800
v -0.75450 1.27704 0.37200
v -1.08450 1.27704 0.37200
v -1.41550 1.27704 0.37200
v -1.74550 1.27704 0.37200
v -2.37750 1.27704 0.55100
v -1.24350 1.27704 0.91700
v -2.38850 1.27704 1.12900
v -2.07550 1.27604 0.36700
v -2.07650 1.27604 0.37200
v -1.81650 1.27604 0.92400
v -2.46750 1.27604 0.93900
v -2.70750 1.27604 1.13800
v -3.02750 1.27604 1.14700
v -2.40650 1.27504 0.37200
v -1.09350 1.27504 0.50400
v -1.09550 1.27504 0.50600
v -1.09650 1.27504 0.51000
v -2.89350 1.27504 0.56900
v -1.49250 1.27504 0.91500
v -1.98050 1.27504 0.92500
v -2.73550 1.27404 0.36700
v -2.73750 1.27404 0.37200
v -1.19450 1.27404 0.50900
v -1.19550 1.27404 0.51000
v -1.24550 1.27404 0.51100
v -1.19550 1.27404 0.51400
v -1.24550 1.27404 0.51400
v -1.24350 1.27404 0.51500
v -1.41750 1.27404 0.92000
v -2.46750 1.27404 0.93600
v -3.06550 1.27304 0.36700
v -3.06750 1.27304 0.37200
v -1.29550 1.27304 0.51100
v -1.29550 1.27304 0.51500
v -1.29350 1.27304 0.51600
v -2.89350 1.27304 0.57100
v -2.71350 1.27304 1.06500
v -1.39550 1.27204 0.51600
v -1.39350 1.27204 0.51900
v -1.39050 1.27204 0.52100
v -3.36050 1.27204 1.08400
v -3.34650 1.27204 1.15600
v -3.39850 1.27104 0.37200
v -2.38950 1.27104 1.05500
v -2.50250 1.27104 1.05700
v -2.87550 1.26904 1.06800
v -2.93150 1.26904 1.06900
v -1.19350 1.26704 0.50900
v -1.24350 1.26704 0.51000
v -1.39850 1.26504 0.51500
v -1.10850 1.26504 0.52500
v -1.24450 1.26304 0.52900
v -1.48750 1.26304 1.03700
v -1.10350 1.26204 0.51600
v -1.29050 1.26204 0.52900
v -1.38150 1.26204 0.53300
v -1.49650 1.26204 1.03200
v -1.93850 1.26204 1.05000
v -1.24450 1.26104 0.52000
v -1.19150 1.26104 0.76800
v -1.24150 1.26104 0.77000
v -1.39950 1.26104 0.77400
v -1.94350 1.26104 1.04500
v -2.38950 1.26104 1.06200
v -1.24350 1.26004 0.77000
v -1.24350 1.26004 0.77600
v -2.38950 1.26004 1.05700
v -1.38650 1.25904 0.52400
v -1.39650 1.25904 0.77400
v -1.39550 1.25904 0.78000
v -2.87550 1.25904 1.07600
v -2.87450 1.25804 1.07100
v -3.36150 1.25704 1.09000
v -1.10150 1.25604 0.77500
v -3.36050 1.25504 1.08500
v -1.24050 1.25404 0.77900
v -1.28850 1.25404 0.78100
v -1.38050 1.25204 0.78400
v -1.09450 1.24404 0.57200
v -1.24550 1.24404 0.57200
v -1.39550 1.24404 0.57200
v -1.09450 1.24304 0.51000
v -1.24550 1.24304 0.51000
v -1.39550 1.24304 0.51000
v -1.09450 1.24304 0.57100
v -1.24550 1.24304 0.57100
v -1.39550 1.24304 0.57100
v -1.09450 1.24204 0.51000
v -1.24550 1.24204 0.51000
v -1.39550 1.24204 0.51000
v -1.09250 1.23504 0.75100
v -1.24350 1.23504 0.75100
v -1.39350 1.23504 0.75100
v -1.09250 1.23504 0.81200
v -1.24350 1.23504 0.81200
v -1.39350 1.23504 0.81200
v -1.09250 1.23504 0.81300
v -1.24350 1.23504 0.81300
v -1.39350 1.23504 0.81300
v -1.09250 1.23304 0.75100
v -1.24350 1.23304 0.75100
v -1.39350 1.23304 0.75100
v -1.11050 1.21804 0.49800
v -1.24450 1.21804 0.49800
v -1.37850 1.21804 0.49800
v -1.11150 1.21104 0.48900
v -1.24550 1.21104 0.48900
v -1.37850 1.21104 0.48900
v -1.11150 1.18104 1.01900
v -1.24550 1.18104 1.01900
v -1.37850 1.18104 1.01900
v -0.62550 1.16504 0.26000
v -0.66150 1.16504 0.26100
v -0.64350 1.16504 0.26800
v -0.66050 1.16504 0.26900
v -0.60750 1.16504 0.64100
v -0.62650 1.16504 0.64100
v -1.10050 1.15904 0.57200
v -1.24550 1.15904 0.57200
v -1.38950 1.15904 0.57200
v -1.42150 1.15804 0.43600
v -1.58150 1.15804 0.43600
v -2.00050 1.15804 0.43600
v -2.16050 1.15804 0.43600
v -2.58450 1.15804 0.43600
v -2.74450 1.15804 0.43600
v -1.42150 1.15704 0.43000
v -1.58150 1.15704 0.43000
v -2.00050 1.15704 0.43000
v -2.16050 1.15704 0.43000
v -2.58450 1.15704 0.43000
v -2.74450 1.15704 0.43000
v -1.09850 1.15104 0.81300
v -1.24350 1.15104 0.81300
v -1.38750 1.15104 0.81300
v -1.10250 1.14804 0.55600
v -1.24550 1.14804 0.55600
v -1.38750 1.14804 0.55600
v -1.10250 1.14704 0.55600
v -1.24550 1.14704 0.55600
v -1.38750 1.14704 0.55600
v -1.10050 1.14004 0.79700
v -1.24350 1.14004 0.79700
v -1.38550 1.14004 0.79700
v -1.10050 1.13904 0.79700
v -1.24350 1.13904 0.79700
v -1.38550 1.13904 0.79700
v -4.70950 1.04104 0.68100
v -4.70950 1.04104 0.84000
v -1.42150 1.02004 0.41900
v -1.58150 1.02004 0.41900
v -2.00050 1.02004 0.41900
v -2.16050 1.02004 0.41900
v -2.58450 1.02004 0.41900
v -2.74450 1.02004 0.41900
v -1.42150 1.02004 0.42500
v -1.58150 1.02004 0.42500
v -2.00050 1.02004 0.42500
v -2.16050 1.02004 0.42500
v -2.58450 1.02004 0.42500
v -2.74450 1.02004 0.42500
v -0.67350 1.01204 0.26100
v -0.67350 1.01204 0.26900
v -0.65550 1.01104 0.26800
v -0.63850 1.01104 0.64100
v -0.63450 1.01004 0.26000
v -0.61650 1.01004 0.64100
v -4.70950 0.91104 0.68000
v -4.70950 0.91104 0.84000
v -0.17950 0.89204 0.44400
v -0.13750 0.89204 0.44600
v -0.18150 0.89204 0.48500
v -0.14050 0.89204 0.48800
v -1.42150 0.88304 0.40800
v -1.58150 0.88304 0.40800
v -2.00050 0.88304 0.40800
v -2.16050 0.88304 0.40800
v -2.58450 0.88304 0.40800
v -2.74450 0.88304 0.40800
v -1.42150 0.88304 0.41400
v -1.58150 0.88304 0.41400
v -2.00050 0.88304 0.41400
v -2.16050 0.88304 0.41400
v -2.58450 0.88304 0.41400
v -2.74450 0.88304 0.41400
v -0.68650 0.85904 0.26100
v -0.68550 0.85904 0.26900
v -0.66850 0.85704 0.26800
v -0.65950 0.85704 0.45500
v -0.65150 0.85704 0.64100
v -0.64350 0.85604 0.26000
v -0.62550 0.85604 0.64100
v -2.40550 0.80904 1.05400
v -1.87950 0.79204 1.05300
v -1.63050 0.78404 1.05300
v -1.42150 0.76104 0.42100
v -1.58150 0.76104 0.42100
v -2.00050 0.76104 0.42100
v -2.16050 0.76104 0.42100
v -2.58450 0.76104 0.42100
v -2.74450 0.76104 0.42100
v -1.42150 0.76104 0.42700
v -1.58150 0.76104 0.42700
v -2.00050 0.76104 0.42700
v -2.16050 0.76104 0.42700
v -2.58450 0.76104 0.42700
v -2.74450 0.76104 0.42700
v -1.46950 0.68704 1.04200
v -1.53450 0.68704 1.04200
v -2.04750 0.68704 1.04200
v -2.11250 0.68704 1.04200
v -2.63250 0.68704 1.04200
v -2.69750 0.68704 1.04200
v -4.97550 0.66904 0.65700
v -5.11250 0.66904 0.65700
v -4.90650 0.66804 0.65800
v -5.04350 0.66804 0.65800
v -1.42150 0.64004 0.44000
v -1.58150 0.64004 0.44000
v -2.00050 0.64004 0.44000
v -2.16050 0.64004 0.44000
v -2.58450 0.64004 0.44000
v -2.74450 0.64004 0.44000
v -1.42150 0.63904 0.43400
v -1.58150 0.63904 0.43400
v -2.00050 0.63904 0.43400
v -2.16050 0.63904 0.43400
v -2.58450 0.63904 0.43400
v -2.74450 0.63904 0.43400
v -5.11250 0.59404 0.55900
v -4.97550 0.59404 0.56000
v -4.90650 0.59304 0.56000
v -5.04350 0.59304 0.56000
v 0.10550 0.58104 0.41400
v 0.12950 0.58104 0.53500
v -0.05250 0.58104 0.53500
v -1.42150 0.54904 0.62700
v -1.58150 0.54904 0.62700
v -2.00050 0.54904 0.62700
v -2.16050 0.54904 0.62700
v -2.58450 0.54904 0.62700
v -2.74450 0.54904 0.62700
v -1.42150 0.54704 0.79700
v -1.58150 0.54704 0.79700
v -2.00050 0.54704 0.79700
v -2.16050 0.54704 0.79700
v -2.58450 0.54704 0.79700
v -2.74450 0.54704 0.79700
v -1.42150 0.54504 0.96600
v -1.58150 0.54504 0.96600
v -2.00050 0.54504 0.96600
v -2.16050 0.54504 0.96600
v -2.58450 0.54504 0.96600
v -2.74450 0.54504 0.96600
v -1.47150 0.54404 1.02000
v -1.53250 0.54404 1.02000
v -2.04950 0.54404 1.02000
v -2.11050 0.54404 1.02000
v -2.63450 0.54404 1.02000
v -2.69550 0.54404 1.02000
v -1.42150 0.54304 0.62700
v -1.58150 0.54304 0.62700
v -2.00050 0.54304 0.62700
v -2.16050 0.54304 0.62700
v -2.58450 0.54304 0.62700
v -2.74450 0.54304 0.62700
v -1.42150 0.54104 0.79600
v -1.58150 0.54104 0.79600
v -2.00050 0.54104 0.79600
v -2.16050 0.54104 0.79600
v -2.58450 0.54104 0.79600
v -2.74450 0.54104 0.79600
v -1.42150 0.53904 0.96600
v -1.58150 0.53904 0.96600
v -2.00050 0.53904 0.96600
v -2.16050 0.53904 0.96600
v -2.58450 0.53904 0.96600
v -2.74450 0.53904 0.96600
v 0.94150 0.52204 0.56800
v 0.94150 0.52204 0.60800
v 0.49550 0.51404 0.54900
v 0.49550 0.51404 0.60100
v 0.04950 0.50604 0.53100
v 0.04950 0.50604 0.59500
v -2.29550 0.50604 1.03900
v -3.21850 0.50604 1.03900
v -4.14250 0.50604 1.03900
v -2.29550 0.49904 1.03700
v -3.21850 0.49904 1.03700
v -4.14250 0.49904 1.03700
v -0.42050 0.49804 0.54400
v -0.39750 0.49804 0.59500
v -0.84450 0.49004 0.59500
v -0.88950 0.48904 0.55700
v -1.48050 0.47904 0.77900
v -1.52250 0.47904 0.77900
v -2.05950 0.47904 0.77900
v -2.10050 0.47904 0.77900
v -2.64350 0.47904 0.77900
v -2.68550 0.47904 0.77900
v -1.48050 0.47904 0.91100
v -1.52250 0.47904 0.91100
v -2.05950 0.47904 0.91100
v -2.10050 0.47904 0.91100
v -2.64350 0.47904 0.91100
v -2.68550 0.47904 0.91100
v -1.48050 0.47904 1.04400
v -1.52250 0.47904 1.04400
v -2.05950 0.47904 1.04400
v -2.10050 0.47904 1.04400
v -2.64350 0.47904 1.04400
v -2.68550 0.47904 1.04400
v 1.01750 0.47404 0.79400
v 1.01750 0.47404 0.80200
v 1.01650 0.47404 1.05300
v 1.01650 0.47404 1.06100
v -4.96850 0.46604 0.70000
v -5.04950 0.46604 0.70000
v -4.96850 0.46604 0.82100
v -5.04950 0.46604 0.82100
v -4.96850 0.46604 0.94100
v -5.04950 0.46604 0.94100
v -1.43650 0.46504 0.76300
v -1.56750 0.46504 0.76300
v -1.43650 0.46504 0.90400
v -1.56750 0.46504 0.90400
v -1.43650 0.46504 1.04500
v -1.56750 0.46504 1.04500
v -0.79350 0.44804 0.88500
v -0.79350 0.44804 0.98000
v -2.20550 0.44204 0.50800
v -2.20950 0.44204 0.50800
v -2.25850 0.44204 0.50800
v -2.26250 0.44204 0.50800
v -2.63650 0.44204 0.50800
v -2.64050 0.44204 0.50800
v -2.68850 0.44204 0.50800
v -2.69250 0.44204 0.50800
v -2.20550 0.44204 0.75300
v -2.20950 0.44204 0.75300
v -2.25850 0.44204 0.75300
v -2.26250 0.44204 0.75300
v -2.63650 0.44204 0.75300
v -2.64050 0.44204 0.75300
v -2.68850 0.44204 0.75300
v -2.69250 0.44204 0.75300
v -0.79350 0.44204 0.88500
v -0.79350 0.44204 0.98000
v -2.20550 0.44204 0.99900
v -2.20950 0.44204 0.99900
v -2.25850 0.44204 0.99900
v -2.26250 0.44204 0.99900
v -2.63650 0.44204 0.99900
v -2.64050 0.44204 0.99900
v -2.68850 0.44204 0.99900
v -2.69250 0.44204 0.99900
v -1.40550 0.43804 0.85700
v -1.40750 0.43804 1.04500
v -0.79250 0.43304 0.81400
v -0.98450 0.43304 0.83700
v -0.98450 0.43304 0.87400
v -0.98550 0.43304 0.99100
v -0.98550 0.43304 1.02800
v 0.94150 0.42804 0.56800
v 0.94150 0.42804 0.60800
v -0.79650 0.42704 0.80000
v -0.79650 0.42704 0.80600
v -0.98450 0.42704 0.83700
v -0.98450 0.42704 0.87400
v -0.98550 0.42704 0.99100
v -0.98550 0.42704 1.02800
v -0.79650 0.42704 1.04800
v -0.79650 0.42704 1.05400
v 0.12950 0.42304 0.49600
v -0.05250 0.42304 0.49600
v 0.49550 0.42004 0.54900
v 0.49550 0.42004 0.60100
v -1.35250 0.42004 0.88500
v -1.35250 0.42004 0.98000
v -0.79250 0.41904 1.04600
v -1.31750 0.41604 0.83700
v -1.31750 0.41604 0.87400
v -1.35250 0.41404 0.88500
v -1.35250 0.41404 0.98000
v 0.04950 0.41204 0.53100
v 0.04950 0.41204 0.59500
v -1.41050 0.41204 0.99100
v -1.41050 0.41204 1.02800
v -2.14650 0.41104 0.82000
v -3.14450 0.41104 0.82000
v -4.14250 0.41104 0.82000
v -1.31750 0.41004 0.83700
v -1.31750 0.41004 0.87400
v -1.41050 0.40604 0.99100
v -1.41050 0.40604 1.02800
v -0.39750 0.40404 0.59500
v -1.35150 0.40404 0.81400
v -2.14650 0.40404 0.82000
v -3.14450 0.40404 0.82000
v -4.14250 0.40404 0.82000
v -2.21350 0.40404 1.04600
v -3.17750 0.40404 1.04600
v -4.14250 0.40404 1.04600
v -0.42050 0.40304 0.54400
v -0.44550 0.40004 0.79400
v -0.44550 0.40004 0.80200
v -1.65050 0.40004 0.83700
v -1.65050 0.40004 0.87400
v -0.44650 0.40004 1.05300
v -0.44650 0.40004 1.06100
v -0.94850 0.39904 0.80000
v -0.94850 0.39904 0.80600
v -1.65450 0.39904 0.88500
v -0.94850 0.39904 1.04800
v -0.94850 0.39904 1.05400
v -1.91050 0.39904 1.05600
v -3.14250 0.39904 1.05600
v -4.37450 0.39804 1.05600
v -4.98350 0.39704 0.93300
v -4.85950 0.39704 0.95400
v -4.73550 0.39704 0.97400
v -0.84450 0.39604 0.59500
v -0.88950 0.39504 0.55700
v -1.65050 0.39404 0.83700
v -1.65050 0.39404 0.87400
v -3.51350 0.39404 0.89500
v -3.36250 0.39304 0.89600
v -0.70550 0.39304 1.24600
v 0.40750 0.39304 1.36200
v -1.65450 0.39204 0.88500
v -1.78250 0.39204 0.88500
v -1.91050 0.39204 0.88500
v -2.18250 0.39204 0.88500
v -2.45450 0.39204 0.88500
v -3.21150 0.39204 0.89700
v -1.91050 0.39204 0.98000
v -2.18250 0.39204 0.98000
v -2.45450 0.39204 0.98000
v -1.62350 0.39104 1.04600
v -1.83550 0.39004 0.99100
v -1.83550 0.39004 1.02800
v -1.96250 0.38704 0.99100
v -2.20350 0.38704 0.99100
v -2.44450 0.38704 0.99100
v -1.96250 0.38704 1.02800
v -2.20350 0.38704 1.02800
v -2.44450 0.38704 1.02800
v -1.78250 0.38604 0.88500
v -1.91050 0.38604 0.88500
v -1.91050 0.38604 0.98000
v -2.18250 0.38604 0.98000
v -2.45450 0.38604 0.98000
v -1.83550 0.38404 0.99100
v -1.83550 0.38404 1.02800
v -1.96250 0.38104 0.99100
v -2.20350 0.38104 0.99100
v -2.44450 0.38104 0.99100
v -1.96250 0.38104 1.02800
v -2.20350 0.38104 1.02800
v -2.44450 0.38104 1.02800
v -0.89350 0.38104 1.03900
v -0.89350 0.38104 1.04600
v -0.91850 0.38004 0.81400
v -0.91850 0.38004 0.82000
v -1.91050 0.38004 0.88500
v -2.18250 0.38004 0.88500
v -2.45450 0.38004 0.88500
v -0.73850 0.37804 1.12800
v -2.45450 0.37704 0.81400
v -1.91050 0.37604 0.81400
v -2.18250 0.37604 0.81400
v -1.10150 0.37104 0.80000
v -3.60350 0.37104 0.80000
v -1.10150 0.37104 0.80600
v -3.60350 0.37104 0.80600
v -1.10150 0.37104 1.04800
v -3.60350 0.37104 1.04800
v -1.10150 0.37104 1.05400
v -3.60350 0.37104 1.05400
v -1.12850 0.36904 1.03900
v -1.12850 0.36904 1.04600
v -2.45450 0.36304 1.04600
v -1.36350 0.35804 1.03900
v -1.36350 0.35804 1.04600
v -1.40150 0.35604 0.81400
v -1.40150 0.35604 0.82000
v 0.40750 0.35204 1.06400
v -1.50550 0.35104 0.80000
v -3.44950 0.35104 0.80000
v -1.50550 0.35104 0.80600
v -3.44950 0.35104 0.80600
v -1.50550 0.35104 1.04800
v -3.44950 0.35104 1.04800
v -1.50550 0.35104 1.05400
v -3.44950 0.35104 1.05400
v -0.72350 0.34504 0.89900
v -2.14550 0.33804 0.82600
v -2.14550 0.33804 0.83200
v -1.87450 0.33804 1.03300
v -1.87450 0.33804 1.03900
v -1.88550 0.33204 0.81400
v -1.88550 0.33204 0.82000
v -1.90950 0.33004 0.80000
v -2.60250 0.33004 0.80000
v -3.29550 0.33004 0.80000
v -1.90950 0.33004 0.80600
v -2.60250 0.33004 0.80600
v -3.29550 0.33004 0.80600
v -1.90950 0.33004 1.04800
v -2.60250 0.33004 1.04800
v -3.29550 0.33004 1.04800
v -1.90950 0.33004 1.05400
v -2.60250 0.33004 1.05400
v -3.29550 0.33004 1.05400
v -1.52350 0.32804 1.03900
v -1.52350 0.32804 1.04600
v -1.90850 0.32704 0.79400
v -3.14950 0.32704 0.79400
v -4.38950 0.32704 0.79400
v -4.72050 0.32704 0.79400
v -5.05050 0.32704 0.79400
v -1.90850 0.32704 0.80200
v -3.14950 0.32704 0.80200
v -4.38950 0.32704 0.80200
v -4.72050 0.32704 0.80200
v -5.05050 0.32704 0.80200
v -4.98450 0.32704 0.95500
v -4.98550 0.32704 0.96300
v -4.68850 0.32704 1.00300
v -4.68950 0.32704 1.01100
v -4.39150 0.32704 1.05200
v -1.90850 0.32704 1.05300
v -3.14150 0.32704 1.05300
v -4.37350 0.32704 1.05300
v -4.39250 0.32704 1.05900
v -1.90850 0.32704 1.06100
v -3.14150 0.32704 1.06100
v -4.37450 0.32704 1.06100
v -0.98750 0.32304 0.99000
v -0.85150 0.32304 1.02100
v -0.71550 0.32304 1.05200
v -0.70750 0.31104 0.67000
v 0.40750 0.31104 0.76500
v -3.24850 0.30404 0.89500
v -3.24850 0.30404 0.90200
v -3.28150 0.30404 0.90600
v -4.93350 0.30304 0.90800
v -4.51750 0.30304 0.93700
v -4.30950 0.30304 0.95200
v -2.00750 0.30204 0.85200
v -2.01350 0.30204 0.85200
v -4.72950 0.30204 0.92200
v -4.62150 0.30204 0.93000
v -4.94550 0.30104 0.90700
v -4.62750 0.30104 0.92900
v -4.30950 0.30104 0.95200
v -4.62750 0.30004 0.93600
v -4.52150 0.30004 0.94500
v -4.30950 0.30004 0.96300
v -1.68450 0.29804 1.03900
v -1.68450 0.29804 1.04600
v -4.58950 0.28804 0.93700
v -4.46950 0.28804 0.94500
v -2.00750 0.28704 1.01200
v -2.01350 0.28704 1.01200
v -4.71450 0.28204 0.93800
v -0.68850 0.28204 1.38500
v 0.36050 0.28204 1.48000
v -4.84750 0.27704 0.93000
v -4.28250 0.27604 0.91600
v -4.30050 0.27604 0.92000
v 0.12950 0.26504 0.45600
v -0.05250 0.26504 0.45600
v -4.54450 0.26304 0.81100
v -4.48150 0.26304 0.81600
v -4.34350 0.26304 0.82600
v -4.50750 0.26204 0.81400
v -4.67050 0.26104 0.80300
v -4.32350 0.26104 0.95500
v -4.32350 0.26004 0.92000
v -4.32350 0.26004 0.94600
v -1.95350 0.25004 0.47900
v -1.74950 0.25004 0.48900
v -1.54650 0.25004 0.50000
v -1.95350 0.25004 0.66000
v -1.55850 0.25004 0.68000
v -1.95350 0.25004 0.84100
v -1.76250 0.25004 0.85100
v -1.57150 0.25004 0.86100
v -4.33450 0.24204 0.73600
v -4.97750 0.24204 0.90900
v -4.99250 0.24004 0.90400
v -0.69550 0.23504 0.66900
v -4.30250 0.22904 0.92100
v -4.30350 0.22904 0.92300
v -4.30350 0.22904 0.94300
v -4.30250 0.22904 0.94400
v -0.98750 0.19404 0.99000
v -0.03950 0.19004 0.45400
v 0.10950 0.19004 0.45900
v 0.25950 0.19004 0.46300
v -0.70350 0.19004 0.61300
v -0.19850 0.19004 0.64900
v 0.10450 0.19004 0.68800
v 0.40750 0.19004 0.72700
v -4.99850 0.18904 0.78800
v -4.99850 0.18904 0.79400
v -0.85150 0.18604 1.02100
v -0.71550 0.17804 1.05200
v -0.67050 0.17204 1.52300
v 0.31350 0.17204 1.59900
v -4.96650 0.16804 0.69100
v -4.30850 0.16204 0.96700
v -4.32550 0.16204 0.96800
v -4.99750 0.15804 0.94100
v -4.99850 0.15804 0.94700
v -2.01350 0.10004 1.01200
v -2.01350 0.09504 0.85200
v -4.28250 0.09104 0.91500
v -4.68450 0.09004 0.67700
v -4.80850 0.09004 0.67700
v -4.93350 0.09004 0.67700
v -4.68450 0.08504 0.67700
v -4.80850 0.08504 0.67700
v -4.93350 0.08504 0.67700
v -1.95350 0.08404 0.66000
v -1.75550 0.08404 0.67000
v -1.55850 0.08404 0.68000
v -1.95350 0.08404 0.84100
v -1.76250 0.08404 0.85100
v -1.57150 0.08404 0.86100
v -4.30250 0.07604 0.94400
v -4.32350 0.05304 0.96600
v -0.03950 0.00004 0.45400
v -0.70350 0.00004 0.61300
v 0.10550 -0.00096 0.41400
v -0.17950 -0.00096 0.44400
v -0.13750 -0.00096 0.44600
v 0.12950 -0.00096 0.45600
v -0.18150 -0.00096 0.48500
v -0.14050 -0.00096 0.48800
v -4.33450 -0.00096 0.73600
v -4.99850 -0.00096 0.78800
v -4.99850 -0.00096 0.79400
v -2.14550 -0.00096 0.82600
v -2.14550 -0.00096 0.83200
v -2.00750 -0.00096 0.85200
v -2.01350 -0.00096 0.85200
v -3.24850 -0.00096 0.89500
v -3.24850 -0.00096 0.90200
v -4.99250 -0.00096 0.90400
v -3.28150 -0.00096 0.90600
v -4.97750 -0.00096 0.90900
v -4.28150 -0.00096 0.91500
v -4.28250 -0.00096 0.91600
v -4.30050 -0.00096 0.92000
v -4.32350 -0.00096 0.92000
v -4.30250 -0.00096 0.92100
v -4.30250 -0.00096 0.92200
v -4.30350 -0.00096 0.92300
v -4.99750 -0.00096 0.94100
v -4.30350 -0.00096 0.94300
v -4.30250 -0.00096 0.94400
v -4.32350 -0.00096 0.94600
v -4.99850 -0.00096 0.94700
v -4.32350 -0.00096 0.95500
v -4.30850 -0.00096 0.96700
v -4.32350 -0.00096 0.96700
v -4.32550 -0.00096 0.96800
v -2.00750 -0.00096 1.01200
v -2.01350 -0.00096 1.01200
v -1.87450 -0.00096 1.03300
v -1.87450 -0.00096 1.03900
v -0.69550 -0.00796 0.66900
v -4.96650 -0.03796 0.69000
v -1.59550 -0.03996 0.89200
v -0.67050 -0.04496 1.52300
v 0.31350 -0.04496 1.59900
v -4.30350 -0.07796 0.92200
v -4.30350 -0.07796 0.94300
v -1.59150 -0.07896 0.76900
v -1.95350 -0.08396 0.52800
v -1.75150 -0.08396 0.53800
v -1.54950 -0.08396 0.54900
v -1.95350 -0.08396 0.60800
v -1.75450 -0.08396 0.61900
v -1.55550 -0.08396 0.62900
v -4.68450 -0.08696 0.67700
v -4.80850 -0.08696 0.67700
v -4.93350 -0.08696 0.67700
v -4.68450 -0.09196 0.67700
v -4.80850 -0.09196 0.67700
v -4.93350 -0.09196 0.67700
v -2.00750 -0.09696 0.85200
v -2.00750 -0.10196 1.01200
v -1.58650 -0.11896 0.64700
v -4.99750 -0.15996 0.94100
v -4.99850 -0.15996 0.94700
v -4.32250 -0.16396 0.96600
v -4.30850 -0.16396 0.96700
v -4.32550 -0.16396 0.96800
v -0.03950 -0.18996 0.45400
v 0.10950 -0.18996 0.45900
v 0.25950 -0.18996 0.46300
v -0.70350 -0.18996 0.61300
v -0.19850 -0.18996 0.64900
v 0.10450 -0.18996 0.68800
v 0.40750 -0.18996 0.72700
v -4.99850 -0.19096 0.78800
v -4.99850 -0.19096 0.79400
v -0.71550 -0.19196 1.05200
v -0.85150 -0.20096 1.02100
v -0.98750 -0.21096 0.99000
v -4.30250 -0.23096 0.92100
v -4.30350 -0.23096 0.92300
v -4.30350 -0.23096 0.94300
v -4.30250 -0.23096 0.94400
v -4.99250 -0.24196 0.90400
v -4.96650 -0.24396 0.69000
v -4.33450 -0.24396 0.73600
v -4.97750 -0.24396 0.90900
v -0.69550 -0.25196 0.66900
v -0.67050 -0.26096 1.52300
v -0.17850 -0.26096 1.56100
v 0.31350 -0.26096 1.59900
v -4.32350 -0.26196 0.92000
v -4.32350 -0.26196 0.94600
v -4.67050 -0.26296 0.80300
v -4.32350 -0.26296 0.95500
v -4.50750 -0.26396 0.81400
v -4.95150 -0.26496 0.78300
v -4.81550 -0.26496 0.79300
v -4.54450 -0.26496 0.81100
v -4.48150 -0.26496 0.81600
v -4.34350 -0.26496 0.82600
v 0.12950 -0.26596 0.45600
v -0.05250 -0.26596 0.45600
v -4.68050 -0.26596 0.80200
v -4.93150 -0.27796 0.78400
v -4.78250 -0.27796 0.79500
v -4.28250 -0.27796 0.91600
v -4.30050 -0.27796 0.92000
v -4.84750 -0.27896 0.93000
v -4.71450 -0.28396 0.93800
v -2.00750 -0.28896 1.01200
v -2.01350 -0.28896 1.01200
v -4.58950 -0.28996 0.93700
v -4.46950 -0.28996 0.94500
v -1.68450 -0.29996 1.03900
v -1.68450 -0.29996 1.04600
v -4.62750 -0.30196 0.93600
v -4.52150 -0.30196 0.94500
v -4.30950 -0.30196 0.96300
v -4.94550 -0.30296 0.90700
v -4.62750 -0.30296 0.92900
v -4.30950 -0.30296 0.95200
v -2.00750 -0.30396 0.85200
v -2.01350 -0.30396 0.85200
v -4.72950 -0.30396 0.92200
v -4.62150 -0.30396 0.93000
v -4.93350 -0.30496 0.90800
v -4.51750 -0.30496 0.93700
v -4.30950 -0.30496 0.95200
v -3.24850 -0.30596 0.89500
v -3.24850 -0.30596 0.90200
v -3.28150 -0.30596 0.90600
v -0.70850 -0.32896 0.68400
v 0.40750 -0.32896 0.78700
v -1.90850 -0.32896 0.79400
v -3.14950 -0.32896 0.79400
v -4.38950 -0.32896 0.79400
v -4.72050 -0.32896 0.79400
v -5.05050 -0.32896 0.79400
v -1.90850 -0.32896 0.80200
v -3.14950 -0.32896 0.80200
v -4.38950 -0.32896 0.80200
v -4.72050 -0.32896 0.80200
v -5.05050 -0.32896 0.80200
v -4.98450 -0.32896 0.95500
v -4.98550 -0.32896 0.96300
v -4.68850 -0.32896 1.00300
v -4.68950 -0.32896 1.01100
v -4.39150 -0.32896 1.05200
v -1.90850 -0.32896 1.05300
v -3.14150 -0.32896 1.05300
v -4.37350 -0.32896 1.05300
v -4.39250 -0.32896 1.05900
v -1.90850 -0.32896 1.06100
v -3.14150 -0.32896 1.06100
v -4.37450 -0.32896 1.06100
v -1.52350 -0.32996 1.03900
v -1.52350 -0.32996 1.04600
v -1.90950 -0.33196 0.80000
v -2.60250 -0.33196 0.80000
v -3.29550 -0.33196 0.80000
v -1.90950 -0.33196 0.80600
v -2.60250 -0.33196 0.80600
v -3.29550 -0.33196 0.80600
v -1.90950 -0.33196 1.04800
v -2.60250 -0.33196 1.04800
v -3.29550 -0.33196 1.04800
v -1.90950 -0.33196 1.05400
v -2.60250 -0.33196 1.05400
v -3.29550 -0.33196 1.05400
v -1.88550 -0.33396 0.81400
v -1.88550 -0.33396 0.82000
v -0.68850 -0.33796 1.38500
v 0.36050 -0.33796 1.48000
v -2.14550 -0.33996 0.82600
v -2.14550 -0.33996 0.83200
v -1.87450 -0.33996 1.03300
v -1.87450 -0.33996 1.03900
v -0.98750 -0.34696 0.99000
v -0.85150 -0.34696 1.02100
v -0.71550 -0.34696 1.05200
v -1.50550 -0.35296 0.80000
v -3.44950 -0.35296 0.80000
v -1.50550 -0.35296 0.80600
v -3.44950 -0.35296 0.80600
v -1.50550 -0.35296 1.04800
v -3.44950 -0.35296 1.04800
v -1.50550 -0.35296 1.05400
v -3.44950 -0.35296 1.05400
v -1.40150 -0.35796 0.81400
v -1.40150 -0.35796 0.82000
v -1.36350 -0.35996 1.03900
v -1.36350 -0.35996 1.04600
v -2.45450 -0.36496 1.04600
v -0.72350 -0.36596 0.90600
v -1.12850 -0.37096 1.03900
v -1.12850 -0.37096 1.04600
v 0.40750 -0.37196 1.07500
v -1.10150 -0.37296 0.80000
v -3.60350 -0.37296 0.80000
v -1.10150 -0.37296 0.80600
v -3.60350 -0.37296 0.80600
v -1.10150 -0.37296 1.04800
v -3.60350 -0.37296 1.04800
v -1.10150 -0.37296 1.05400
v -3.60350 -0.37296 1.05400
v -1.91050 -0.37796 0.81400
v -2.18250 -0.37796 0.81400
v -2.45450 -0.37896 0.81400
v -0.91850 -0.38196 0.81400
v -0.91850 -0.38196 0.82000
v -1.91050 -0.38196 0.88500
v -2.18250 -0.38196 0.88500
v -2.45450 -0.38196 0.88500
v -1.96250 -0.38296 0.99100
v -2.20350 -0.38296 0.99100
v -2.44450 -0.38296 0.99100
v -1.96250 -0.38296 1.02800
v -2.20350 -0.38296 1.02800
v -2.44450 -0.38296 1.02800
v -0.89350 -0.38296 1.03900
v -0.89350 -0.38296 1.04600
v -1.83550 -0.38596 0.99100
v -1.83550 -0.38596 1.02800
v -1.78250 -0.38796 0.88500
v -1.91050 -0.38796 0.88500
v -1.91050 -0.38796 0.98000
v -2.18250 -0.38796 0.98000
v -2.45450 -0.38796 0.98000
v -1.96250 -0.38896 0.99100
v -2.20350 -0.38896 0.99100
v -2.44450 -0.38896 0.99100
v -1.96250 -0.38896 1.02800
v -2.20350 -0.38896 1.02800
v -2.44450 -0.38896 1.02800
v -1.83550 -0.39196 0.99100
v -1.83550 -0.39196 1.02800
v -1.62350 -0.39296 1.04600
v -1.65450 -0.39396 0.88500
v -1.78250 -0.39396 0.88500
v -1.91050 -0.39396 0.88500
v -2.18250 -0.39396 0.88500
v -2.45450 -0.39396 0.88500
v -3.21150 -0.39396 0.89700
v -1.91050 -0.39396 0.98000
v -2.18250 -0.39396 0.98000
v -2.45450 -0.39396 0.98000
v -3.36250 -0.39496 0.89600
v -0.88950 -0.39596 0.55700
v -1.65050 -0.39596 0.83700
v -1.65050 -0.39596 0.87400
v -3.51350 -0.39596 0.89500
v -0.84450 -0.39696 0.59500
v -4.98350 -0.39896 0.93300
v -4.85950 -0.39896 0.95400
v -4.73550 -0.39896 0.97400
v -4.37450 -0.39996 1.05600
v -0.94850 -0.40096 0.80000
v -0.94850 -0.40096 0.80600
v -1.65450 -0.40096 0.88500
v -0.94850 -0.40096 1.04800
v -0.94850 -0.40096 1.05400
v -1.91050 -0.40096 1.05600
v -3.14250 -0.40096 1.05600
v -0.44550 -0.40196 0.79400
v -0.44550 -0.40196 0.80200
v -1.65050 -0.40196 0.83700
v -1.65050 -0.40196 0.87400
v -0.44650 -0.40196 1.05300
v -0.44650 -0.40196 1.06100
v -0.73850 -0.40296 1.12800
v -0.42050 -0.40496 0.54400
v -0.39750 -0.40496 0.59500
v -1.35150 -0.40596 0.81400
v -2.14650 -0.40596 0.82000
v -3.14450 -0.40596 0.82000
v -4.14250 -0.40596 0.82000
v -2.21350 -0.40596 1.04600
v -3.17750 -0.40596 1.04600
v -4.14250 -0.40596 1.04600
v -1.41050 -0.40796 0.99100
v -1.41050 -0.40796 1.02800
v -1.31750 -0.41196 0.83700
v -1.31750 -0.41196 0.87400
v 0.04950 -0.41296 0.53100
v 0.04950 -0.41296 0.59500
v -2.14650 -0.41296 0.82000
v -3.14450 -0.41296 0.82000
v -4.14250 -0.41296 0.82000
v -1.41050 -0.41396 0.99100
v -1.41050 -0.41396 1.02800
v -0.70550 -0.41496 1.24600
v 0.40750 -0.41496 1.36200
v -1.35250 -0.41596 0.88500
v -1.35250 -0.41596 0.98000
v -1.31750 -0.41796 0.83700
v -1.31750 -0.41796 0.87400
v 0.49550 -0.42096 0.54900
v 0.49550 -0.42096 0.60100
v -0.79250 -0.42096 1.04600
v -1.35250 -0.42196 0.88500
v -1.35250 -0.42196 0.98000
v 0.12950 -0.42396 0.49600
v -0.05250 -0.42396 0.49600
v 0.94150 -0.42896 0.56800
v 0.94150 -0.42896 0.60800
v -0.79650 -0.42896 0.80000
v -0.79650 -0.42896 0.80600
v -0.98450 -0.42896 0.83700
v -0.98450 -0.42896 0.87400
v -0.98550 -0.42896 0.99100
v -0.98550 -0.42896 1.02800
v -0.79650 -0.42896 1.04800
v -0.79650 -0.42896 1.05400
v -0.79250 -0.43496 0.81400
v -0.98450 -0.43496 0.83700
v -0.98450 -0.43496 0.87400
v -0.98550 -0.43496 0.99100
v -0.98550 -0.43496 1.02800
v -0.79350 -0.44396 0.88500
v -0.79350 -0.44396 0.98000
v -0.79350 -0.44996 0.88500
v -0.79350 -0.44996 0.98000
v -2.11350 -0.46596 0.76300
v -2.11350 -0.46596 0.90400
v -2.11350 -0.46596 1.04500
v -4.96850 -0.46796 0.70000
v -5.04950 -0.46796 0.70000
v -4.96850 -0.46796 0.82100
v -5.04950 -0.46796 0.82100
v -4.96850 -0.46796 0.94100
v -5.04950 -0.46796 0.94100
v 1.01750 -0.47596 0.79400
v 1.01750 -0.47596 0.80200
v 1.01650 -0.47596 1.05300
v 1.01650 -0.47596 1.06100
v -2.05950 -0.48096 0.77900
v -2.10050 -0.48096 0.77900
v -2.95150 -0.48096 0.77900
v -2.99350 -0.48096 0.77900
v -2.05950 -0.48096 0.91100
v -2.10050 -0.48096 0.91100
v -2.95150 -0.48096 0.91100
v -2.99350 -0.48096 0.91100
v -2.05950 -0.48096 1.04400
v -2.10050 -0.48096 1.04400
v -2.95150 -0.48096 1.04400
v -2.99350 -0.48096 1.04400
v -2.94650 -0.48796 1.04400
v -2.94550 -0.48896 0.77900
v -2.94550 -0.48896 0.91100
v -0.88950 -0.49096 0.55700
v -0.84450 -0.49096 0.59500
v -3.00750 -0.49496 0.95500
v -3.00750 -0.49596 0.77900
v -0.42050 -0.49896 0.54400
v -0.39750 -0.49896 0.59500
v -2.29550 -0.50096 1.03700
v -3.21850 -0.50096 1.03700
v -4.14250 -0.50096 1.03700
v 0.04950 -0.50696 0.53100
v 0.04950 -0.50696 0.59500
v -2.29550 -0.50796 1.03900
v -3.21850 -0.50796 1.03900
v -4.14250 -0.50796 1.03900
v 0.49550 -0.51596 0.54900
v 0.49550 -0.51596 0.60100
v 0.94150 -0.52396 0.56800
v 0.94150 -0.52396 0.60800
v -2.00050 -0.54096 0.96600
v -2.16050 -0.54096 0.96600
v -2.89250 -0.54096 0.96600
v -3.05250 -0.54096 0.96600
v -2.00050 -0.54296 0.79600
v -2.16050 -0.54296 0.79600
v -2.89250 -0.54296 0.79600
v -3.05250 -0.54296 0.79600
v -1.35750 -0.54296 0.90500
v -1.31050 -0.54296 0.91000
v -1.35750 -0.54296 0.97900
v -2.00050 -0.54496 0.62700
v -2.16050 -0.54496 0.62700
v -2.89250 -0.54496 0.62700
v -3.05250 -0.54496 0.62700
v -0.79550 -0.54596 0.96600
v -1.27750 -0.54596 0.96600
v -2.04950 -0.54596 1.02000
v -2.11050 -0.54596 1.02000
v -3.00350 -0.54596 1.02000
v -2.00050 -0.54696 0.96600
v -2.16050 -0.54696 0.96600
v -2.89250 -0.54696 0.96600
v -3.05250 -0.54696 0.96600
v -2.00050 -0.54896 0.79700
v -2.16050 -0.54896 0.79700
v -2.89250 -0.54896 0.79700
v -3.05250 -0.54896 0.79700
v -2.00050 -0.55096 0.62700
v -2.16050 -0.55096 0.62700
v -2.89250 -0.55096 0.62700
v -3.05250 -0.55096 0.62700
v -0.91350 -0.55096 1.03700
v -1.04350 -0.55096 1.03700
v -1.17450 -0.55096 1.03700
v -1.36150 -0.57396 0.50200
v -1.36250 -0.57396 0.50300
v -0.74950 -0.57396 0.90500
v -0.70250 -0.57396 0.91000
v -0.74950 -0.57396 0.97900
v 0.10550 -0.58196 0.41400
v 0.12950 -0.58196 0.53500
v -0.05250 -0.58196 0.53500
v -4.90650 -0.59496 0.56000
v -5.04350 -0.59496 0.56000
v -5.11250 -0.59596 0.55900
v -4.97550 -0.59596 0.56000
v -2.00050 -0.64096 0.43400
v -2.16050 -0.64096 0.43400
v -2.89250 -0.64096 0.43400
v -3.05250 -0.64096 0.43400
v -2.00050 -0.64196 0.44000
v -2.16050 -0.64196 0.44000
v -2.89250 -0.64196 0.44000
v -3.05250 -0.64196 0.44000
v -4.90650 -0.66996 0.65800
v -5.04350 -0.66996 0.65800
v -4.97550 -0.67096 0.65700
v -5.11250 -0.67096 0.65700
v -1.36250 -0.67396 0.50200
v -2.04750 -0.68896 1.04200
v -2.11250 -0.68896 1.04200
v -3.00550 -0.68896 1.04200
v -1.33650 -0.70696 1.03000
v -1.33650 -0.70696 1.03400
v -1.36150 -0.72396 0.50200
v -1.36250 -0.72396 0.50200
v -1.36250 -0.72396 0.50300
v -1.35650 -0.73496 0.97900
v -1.35650 -0.73496 0.98300
v -1.71850 -0.75996 1.05200
v -2.00050 -0.76296 0.42100
v -2.16050 -0.76296 0.42100
v -2.89250 -0.76296 0.42100
v -3.05250 -0.76296 0.42100
v -2.00050 -0.76296 0.42700
v -2.16050 -0.76296 0.42700
v -2.89250 -0.76296 0.42700
v -3.05250 -0.76296 0.42700
v -1.36150 -0.77396 0.50200
v -2.12450 -0.78596 1.05400
v -0.79450 -0.79096 0.96600
v -1.27850 -0.81396 0.96600
v -0.64350 -0.85796 0.26000
v -0.62550 -0.85796 0.64100
v -0.66850 -0.85896 0.26800
v -0.65950 -0.85896 0.45500
v -0.65150 -0.85896 0.64100
v -0.68650 -0.86096 0.26100
v -0.68550 -0.86096 0.26900
v -1.35750 -0.86696 0.90500
v -1.31050 -0.86696 0.91000
v -1.35750 -0.86696 0.97900
v -0.74950 -0.86796 0.90500
v -0.70250 -0.86796 0.91000
v -0.74950 -0.86796 0.97900
v -1.36150 -0.87396 0.50100
v -1.36250 -0.87396 0.50200
v -1.35650 -0.87496 0.97900
v -1.35650 -0.87496 0.98300
v -1.33650 -0.87496 1.03000
v -1.33650 -0.87496 1.03400
v -2.00050 -0.88496 0.40800
v -2.16050 -0.88496 0.40800
v -2.89250 -0.88496 0.40800
v -3.05250 -0.88496 0.40800
v -2.00050 -0.88496 0.41400
v -2.16050 -0.88496 0.41400
v -2.89250 -0.88496 0.41400
v -3.05250 -0.88496 0.41400
v -0.17950 -0.89396 0.44400
v -0.13750 -0.89396 0.44600
v -0.18150 -0.89396 0.48500
v -0.14050 -0.89396 0.48800
v -4.70950 -0.91296 0.68000
v -4.70950 -0.91296 0.84000
v -0.63450 -1.01196 0.26000
v -0.61650 -1.01196 0.64100
v -0.65550 -1.01296 0.26800
v -0.63850 -1.01296 0.64100
v -0.67350 -1.01396 0.26100
v -0.67350 -1.01396 0.26900
v -1.35650 -1.01496 0.97900
v -1.35650 -1.01496 0.98300
v -2.00050 -1.02196 0.41900
v -2.16050 -1.02196 0.41900
v -2.89250 -1.02196 0.41900
v -3.05250 -1.02196 0.41900
v -2.00050 -1.02196 0.42500
v -2.16050 -1.02196 0.42500
v -2.89250 -1.02196 0.42500
v -3.05250 -1.02196 0.42500
v -0.79350 -1.03596 0.96700
v -4.70950 -1.04296 0.68100
v -4.70950 -1.04296 0.84000
v -1.33650 -1.04296 1.03000
v -1.33650 -1.04296 1.03400
v -1.27950 -1.08296 0.96700
v -2.00050 -1.15896 0.43000
v -2.16050 -1.15896 0.43000
v -2.89250 -1.15896 0.43000
v -3.05250 -1.15896 0.43000
v -2.00050 -1.15996 0.43600
v -2.16050 -1.15996 0.43600
v -2.89250 -1.15996 0.43600
v -3.05250 -1.15996 0.43600
v -0.74950 -1.16196 0.90500
v -0.70250 -1.16196 0.91000
v -0.74950 -1.16196 0.97900
v -0.62550 -1.16696 0.26000
v -0.66150 -1.16696 0.26100
v -0.64350 -1.16696 0.26800
v -0.66050 -1.16696 0.26900
v -0.60750 -1.16696 0.64100
v -0.62650 -1.16696 0.64100
v -0.90650 -1.17996 0.41900
v -1.03650 -1.17996 0.41900
v -1.16750 -1.17996 0.41900
v -1.35750 -1.19096 0.90500
v -1.31050 -1.19096 0.91000
v -1.35750 -1.19096 0.97900
v -0.85050 -1.22996 0.98300
v -1.03950 -1.22996 0.98300
v -1.22950 -1.22996 0.98300
v -0.84950 -1.23396 0.89500
v -1.04050 -1.23396 0.89500
v -1.23050 -1.23396 0.89500
v -0.84950 -1.23396 0.98000
v -1.04050 -1.23396 0.98000
v -1.23050 -1.23396 0.98000
v -0.84950 -1.24196 0.88500
v -1.04050 -1.24196 0.88500
v -1.23250 -1.24196 0.88600
v -1.03950 -1.24196 0.99000
v -1.23250 -1.24196 0.99000
v -0.84650 -1.24296 0.99000
v -0.84850 -1.24496 0.88900
v -1.04050 -1.24496 0.88900
v -1.23350 -1.24496 0.88900
v -0.84550 -1.24496 0.98700
v -1.03950 -1.24496 0.98700
v -1.23350 -1.24496 0.98700
v -3.36050 -1.25696 1.08500
v -3.36150 -1.25896 1.09000
v -2.87450 -1.25996 1.07100
v -2.87550 -1.26096 1.07600
v -2.38950 -1.26196 1.05700
v -1.94350 -1.26296 1.04500
v -2.38950 -1.26296 1.06200
v -1.49650 -1.26396 1.03200
v -1.93850 -1.26396 1.05000
v -1.48750 -1.26496 1.03700
v -2.87550 -1.27096 1.06800
v -2.93150 -1.27096 1.06900
v -3.39850 -1.27296 0.37200
v -2.38950 -1.27296 1.05500
v -2.50250 -1.27296 1.05700
v -3.36050 -1.27396 1.08400
v -3.34650 -1.27396 1.15600
v -3.06550 -1.27496 0.36700
v -3.06750 -1.27496 0.37200
v -2.89350 -1.27496 0.57100
v -2.71350 -1.27496 1.06500
v -2.73550 -1.27596 0.36700
v -2.73750 -1.27596 0.37200
v -2.46750 -1.27596 0.93600
v -2.40650 -1.27696 0.37200
v -2.89350 -1.27696 0.56900
v -1.49250 -1.27696 0.91500
v -1.98050 -1.27696 0.92500
v -2.07550 -1.27796 0.36700
v -2.07650 -1.27796 0.37200
v -1.81650 -1.27796 0.92400
v -2.46750 -1.27796 0.93900
v -2.70750 -1.27796 1.13800
v -3.02750 -1.27796 1.14700
v -0.75450 -1.27896 0.36700
v -1.08450 -1.27896 0.36700
v -1.41450 -1.27896 0.36700
v -1.63550 -1.27896 0.36800
v -0.75450 -1.27896 0.37200
v -1.08450 -1.27896 0.37200
v -1.41550 -1.27896 0.37200
v -1.74550 -1.27896 0.37200
v -2.37750 -1.27896 0.55100
v -2.38850 -1.27896 1.12900
v -2.89450 -1.27996 0.56600
v -1.97850 -1.27996 0.92900
v -2.14150 -1.27996 0.93300
v -1.98250 -1.27996 1.11800
v -0.75750 -1.28096 0.26600
v -2.20550 -1.28096 0.54300
v -2.46750 -1.28096 0.94100
v -1.57750 -1.28096 1.10600
v -1.98250 -1.28096 1.11800
v -0.75150 -1.28196 0.44600
v -0.74450 -1.28196 0.62600
v -2.30950 -1.28196 0.79500
v -1.97750 -1.28196 0.93000
v -2.38850 -1.28196 1.07100
v -1.97450 -1.28196 1.09100
v -1.84150 -1.28196 1.09600
v -2.38850 -1.28196 1.12900
v -1.86150 -1.28296 0.53100
v -2.20550 -1.28296 0.54100
v -2.30950 -1.28296 0.79200
v -1.77950 -1.28296 1.05400
v -1.93250 -1.28296 1.05700
v -2.37750 -1.28396 0.54600
v -2.38450 -1.28396 0.70200
v -1.97150 -1.28396 0.78800
v -1.77850 -1.28396 1.05600
v -1.93050 -1.28396 1.05900
v -2.38850 -1.28396 1.07800
v -2.38350 -1.28496 0.70500
v -1.96750 -1.28496 0.78500
v -1.97150 -1.28496 0.78700
v -1.47350 -1.28496 1.04700
v -2.05650 -1.28596 0.68800
v -1.97250 -1.28596 0.70300
v -1.62150 -1.28596 0.77500
v -1.71550 -1.28696 0.67900
v -2.05250 -1.28696 0.69000
v -1.60050 -1.28696 0.78000
v -1.63250 -1.28696 0.78100
v -2.41250 -1.28696 0.91600
v -3.39450 -1.28796 0.36800
v -1.86150 -1.28796 0.52500
v -1.94450 -1.28796 0.68500
v -1.62650 -1.28796 0.77800
v -3.06450 -1.28896 0.36800
v -1.72950 -1.28896 0.67400
v -1.72050 -1.28896 0.67600
v -2.38250 -1.28896 0.70700
v -1.28750 -1.28896 0.75300
v -2.73550 -1.28996 0.36800
v -1.69950 -1.28996 0.67100
v -2.40550 -1.29096 0.36800
v -0.76050 -1.29096 0.38000
v -1.33550 -1.29096 0.67800
v -2.03850 -1.29096 0.86000
v -2.07550 -1.29196 0.36800
v -1.41550 -1.29196 0.49900
v -0.74650 -1.29196 0.63400
v -2.05250 -1.29196 0.69200
v -2.80150 -1.29196 0.71200
v -2.73050 -1.29196 0.72000
v -1.08550 -1.29296 0.36800
v -1.41550 -1.29296 0.36800
v -1.74550 -1.29296 0.36800
v -0.75150 -1.29296 0.50700
v -0.75550 -1.29296 0.51200
v -1.89350 -1.29296 0.55600
v -1.23950 -1.29296 0.65400
v -1.24950 -1.29296 0.65900
v -1.19450 -1.29296 0.67600
v -1.21150 -1.29296 0.67800
v -1.16050 -1.29296 0.76700
v -0.75550 -1.29396 0.36800
v -1.86150 -1.29396 0.49400
v -2.16050 -1.29396 0.61900
v -1.72150 -1.29396 0.67800
v -2.15150 -1.29396 0.70800
v -2.52150 -1.29396 0.74200
v -0.75050 -1.29496 0.64500
v -1.97550 -1.29496 0.70700
v -0.75850 -1.29496 0.73400
v -0.70550 -1.29496 0.73700
v -1.93750 -1.29596 0.69900
v -1.91450 -1.29596 0.70300
v -0.77950 -1.29696 0.63700
v -0.77850 -1.29696 0.64100
v -1.08950 -1.29696 0.65300
v -1.86650 -1.29696 0.69600
v -0.55550 -1.29696 0.74700
v -0.88750 -1.29796 0.47100
v -1.72350 -1.29796 0.69100
v -0.81550 -1.29896 0.57900
v -1.07150 -1.29996 0.75100
v -0.90350 -1.30196 0.74400
v -0.73550 -1.30296 0.73700
v -0.97150 -1.30396 0.66200
v -1.07350 -1.30396 0.66500
v -0.92150 -1.30496 0.66000
v -0.76850 -1.30596 0.65400
l 213 214
l 214 215
l 216 217
l 217 218
l 222 223
l 223 224
l 225 226
l 226 227
l 231 232
l 232 233
l 234 235
l 235 236
l 237 238
l 238 239
l 240 241
l 241 242
l 243 244
l 244 245
l 252 253
l 253 254
l 267 268
l 268 269
l 270 271
l 271 272
l 273 274
l 274 275
l 276 277
l 277 278
l 279 280
l 280 281
l 282 302
l 283 303
l 314 336
l 315 337
l 316 338
l 317 339
l 318 340
l 319 341
l 336 352
l 337 353
l 338 354
l 339 355
l 340 356
l 341 357
l 429 435
l 430 436
l 431 437
l 432 438
l 433 439
l 434 440
l 435 441
l 436 442
l 437 443
l 438 444
l 439 445
l 440 446
l 463 512
l 464 513
l 493 531
l 494 515
l 495 516
l 496 521
l 497 522
l 500 545
l 507 549
l 512 566
l 513 570
l 514 573
l 515 541
l 516 542
l 521 574
l 522 575
l 531 604
l 532 533
l 533 534
l 535 536
l 536 537
l 545 606
l 547 565
l 549 612
l 553 554
l 554 555
l 560 561
l 561 569
l 565 583
l 566 567
l 567 568
l 570 571
l 571 572
l 573 616
l 576 577
l 577 578
l 579 580
l 580 581
l 603 605
l 604 605
l 606 622
l 607 623
l 612 628
l 613 629
l 622 637
l 623 639
l 628 646
l 629 648
l 637 638
l 638 639
l 646 647
l 647 648
l 692 693
l 714 791
l 715 798
l 727 808
l 731 766
l 732 742
l 742 743
l 754 755
l 755 756
l 757 758
l 758 759
l 791 860
l 797 851
l 798 861
l 808 856
l 810 815
l 814 851
l 815 830
l 822 823
l 823 824
l 825 826
l 826 827
l 845 846
l 846 847
l 886 887
l 927 928
l 927 950
l 928 929
l 929 951
l 936 937
l 936 956
l 937 938
l 938 957
l 950 967
l 951 968
l 956 973
l 957 974
l 962 1006
l 967 1026
l 973 1030
l 975 976
l 975 1042
l 976 977
l 994 1008
l 998 999
l 999 1000
l 1001 1002
l 1002 1003
l 1004 1058
l 1005 1059
l 1006 1068
l 1008 1028
l 1009 1010
l 1009 1069
l 1010 1011
l 1012 1016
l 1013 1014
l 1013 1070
l 1014 1015
l 1016 1020
l 1022 1023
l 1023 1024
l 1026 1075
l 1030 1082
l 1035 1064
l 1036 1065
l 1042 1083
l 1043 1044
l 1044 1045
l 1046 1047
l 1047 1048
l 1058 1086
l 1059 1087
l 1064 1084
l 1065 1085
l 1069 1090
l 1070 1091
l 1105 1109
l 1106 1110
l 1107 1111
l 1108 1112
l 1109 1113
l 1110 1114
l 1111 1115
l 1112 1116
l 1153 1219
l 1154 1220
l 1173 1203
l 1189 1213
l 1190 1214
l 1191 1215
l 1192 1216
l 1202 1239
l 1203 1234
l 1206 1236
l 1213 1244
l 1214 1245
l 1215 1246
l 1216 1247
l 1219 1270
l 1220 1275
l 1236 1260
l 1239 1274
l 1252 1271
l 1253 1272
l 1293 1294
l 1294 1295
l 1 2
l 1 4
l 2 5
l 3 8
l 3 93
l 3 125
l 6 9
l 6 10
l 7 11
l 8 12
l 11 15
l 13 20
l 14 27
l 15 29
l 16 30
l 17 24
l 18 26
l 19 35
l 19 36
l 21 23
l 22 30
l 23 30
l 25 32
l 28 41
l 28 45
l 31 42
l 33 44
l 34 52
l 35 52
l 37 54
l 38 46
l 38 47
l 39 50
l 40 54
l 42 48
l 43 60
l 49 56
l 51 61
l 53 66
l 55 67
l 55 68
l 56 57
l 57 58
l 58 62
l 59 65
l 60 70
l 62 69
l 63 95
l 64 78
l 66 84
l 69 77
l 71 78
l 72 78
l 73 74
l 73 79
l 75 80
l 76 92
l 77 81
l 79 83
l 80 88
l 81 85
l 82 94
l 83 90
l 86 100
l 87 96
l 89 97
l 91 98
l 91 102
l 94 101
l 97 108
l 99 103
l 99 104
l 100 126
l 102 113
l 104 116
l 105 117
l 105 118
l 106 139
l 107 152
l 109 116
l 110 116
l 111 112
l 111 120
l 114 140
l 115 122
l 119 147
l 121 170
l 123 130
l 124 141
l 127 196
l 128 129
l 131 132
l 132 133
l 134 142
l 135 136
l 136 137
l 137 138
l 138 143
l 139 170
l 140 163
l 143 148
l 144 145
l 146 176
l 148 156
l 149 167
l 150 159
l 151 161
l 151 162
l 151 168
l 151 169
l 153 154
l 154 164
l 155 165
l 156 166
l 157 172
l 158 172
l 159 172
l 160 174
l 161 173
l 166 177
l 171 175
l 178 180
l 179 181
l 182 184
l 183 184
l 185 186
l 185 189
l 186 190
l 187 192
l 188 193
l 191 197
l 192 198
l 193 202
l 194 203
l 195 203
l 197 201
l 198 205
l 199 203
l 200 204
l 201 206
l 205 207
l 206 209
l 208 210
l 208 211
l 210 212
l 219 220
l 220 221
l 228 229
l 229 230
l 246 300
l 247 296
l 248 298
l 249 297
l 250 301
l 251 299
l 255 290
l 256 291
l 257 292
l 258 293
l 259 294
l 260 295
l 261 284
l 262 285
l 263 286
l 264 287
l 265 288
l 266 289
l 284 308
l 285 309
l 286 310
l 287 311
l 288 312
l 289 313
l 290 314
l 291 315
l 292 316
l 293 317
l 294 318
l 295 319
l 296 320
l 297 321
l 298 322
l 299 324
l 300 325
l 301 326
l 304 771
l 305 772
l 306 774
l 307 775
l 308 330
l 309 331
l 310 332
l 311 333
l 312 334
l 313 335
l 322 323
l 323 324
l 327 328
l 327 329
l 330 358
l 331 359
l 332 360
l 333 361
l 334 362
l 335 363
l 342 389
l 343 390
l 344 391
l 345 392
l 346 393
l 347 394
l 348 349
l 350 351
l 364 365
l 366 367
l 368 770
l 369 508
l 370 509
l 371 377
l 372 378
l 373 379
l 374 380
l 375 381
l 376 382
l 377 383
l 378 384
l 379 385
l 380 386
l 381 387
l 382 388
l 395 401
l 396 402
l 397 403
l 398 404
l 399 405
l 400 406
l 401 407
l 402 408
l 403 409
l 404 410
l 405 411
l 406 412
l 413 415
l 414 416
l 415 417
l 416 418
l 417 425
l 418 426
l 419 420
l 420 421
l 422 423
l 423 424
l 425 428
l 426 427
l 447 539
l 448 540
l 449 543
l 450 544
l 451 453
l 452 454
l 453 455
l 454 456
l 457 459
l 458 460
l 459 461
l 460 462
l 465 473
l 466 474
l 467 475
l 468 476
l 469 477
l 470 478
l 471 479
l 472 480
l 473 483
l 474 484
l 475 485
l 476 486
l 477 487
l 478 488
l 479 489
l 480 490
l 481 517
l 482 518
l 491 492
l 498 510
l 499 511
l 501 546
l 502 526
l 503 527
l 504 528
l 505 529
l 506 548
l 508 706
l 509 707
l 510 519
l 511 520
l 517 583
l 518 584
l 519 538
l 520 530
l 523 524
l 524 525
l 526 558
l 527 559
l 528 587
l 529 588
l 530 556
l 538 557
l 539 651
l 540 656
l 543 666
l 544 670
l 546 608
l 548 610
l 550 551
l 551 552
l 562 701
l 563 621
l 563 702
l 564 582
l 582 599
l 584 585
l 585 586
l 589 590
l 590 591
l 592 593
l 593 594
l 595 614
l 596 615
l 597 619
l 598 620
l 599 600
l 600 601
l 602 630
l 608 624
l 609 625
l 610 626
l 611 627
l 614 617
l 615 618
l 617 649
l 618 650
l 619 635
l 620 636
l 621 677
l 624 640
l 625 642
l 626 643
l 627 645
l 630 676
l 631 779
l 632 780
l 633 806
l 634 807
l 640 641
l 641 642
l 643 644
l 644 645
l 649 694
l 650 695
l 651 652
l 652 653
l 653 654
l 654 655
l 656 657
l 657 658
l 658 659
l 659 660
l 661 663
l 662 664
l 663 665
l 664 669
l 666 667
l 667 668
l 670 671
l 671 672
l 673 674
l 674 675
l 678 783
l 679 784
l 680 786
l 681 682
l 681 686
l 681 687
l 682 683
l 684 781
l 684 828
l 685 752
l 685 782
l 687 690
l 688 689
l 688 691
l 689 690
l 696 697
l 698 804
l 698 829
l 699 751
l 699 805
l 700 703
l 701 744
l 702 745
l 704 789
l 705 790
l 706 773
l 708 710
l 709 710
l 711 712
l 713 800
l 716 717
l 716 719
l 717 718
l 718 720
l 719 721
l 720 723
l 721 722
l 722 723
l 724 776
l 725 787
l 726 785
l 728 792
l 729 794
l 729 813
l 730 796
l 730 814
l 731 797
l 733 734
l 733 768
l 734 735
l 736 769
l 737 738
l 738 739
l 740 777
l 741 778
l 744 811
l 745 812
l 746 809
l 747 801
l 748 803
l 749 795
l 750 799
l 751 880
l 752 892
l 753 875
l 760 761
l 761 762
l 763 764
l 764 765
l 766 851
l 767 833
l 768 836
l 769 839
l 770 1178
l 771 1248
l 772 1249
l 773 870
l 774 1250
l 775 1251
l 776 854
l 777 843
l 778 844
l 779 943
l 780 944
l 781 891
l 782 892
l 783 898
l 784 899
l 785 852
l 786 900
l 787 855
l 788 875
l 789 875
l 790 876
l 792 848
l 793 848
l 794 849
l 795 831
l 796 850
l 799 832
l 800 863
l 801 834
l 802 833
l 803 835
l 804 879
l 805 880
l 806 945
l 807 946
l 809 853
l 811 857
l 812 859
l 813 848
l 814 850
l 816 817
l 817 818
l 819 820
l 820 821
l 828 891
l 829 879
l 836 837
l 837 838
l 840 841
l 841 842
l 857 858
l 857 941
l 858 859
l 859 942
l 862 864
l 865 866
l 866 872
l 867 869
l 868 869
l 870 1071
l 871 1072
l 873 874
l 877 878
l 881 882
l 883 925
l 884 926
l 885 888
l 888 889
l 889 890
l 890 894
l 893 895
l 894 895
l 895 896
l 896 897
l 901 963
l 902 966
l 903 904
l 903 1033
l 904 905
l 905 906
l 906 907
l 908 909
l 908 1034
l 909 910
l 910 911
l 911 912
l 913 915
l 914 916
l 915 917
l 916 921
l 918 919
l 918 1037
l 919 920
l 922 923
l 922 1038
l 923 924
l 925 960
l 926 961
l 930 931
l 930 952
l 931 932
l 932 953
l 933 934
l 933 954
l 934 935
l 935 955
l 939 958
l 940 959
l 941 1060
l 942 1061
l 947 948
l 948 949
l 952 969
l 953 970
l 954 971
l 955 972
l 958 978
l 959 979
l 960 964
l 961 965
l 963 1039
l 964 989
l 965 990
l 966 1061
l 969 1027
l 971 1029
l 980 981
l 980 993
l 981 982
l 983 984
l 984 985
l 986 987
l 987 988
l 991 1049
l 992 1050
l 993 1007
l 994 1062
l 995 996
l 995 1063
l 996 997
l 1017 1040
l 1018 1051
l 1019 1052
l 1021 1041
l 1025 1032
l 1027 1076
l 1029 1081
l 1031 1032
l 1033 1101
l 1034 1102
l 1037 1103
l 1038 1104
l 1040 1053
l 1041 1054
l 1049 1079
l 1050 1080
l 1051 1077
l 1052 1078
l 1053 1066
l 1054 1067
l 1055 1056
l 1056 1057
l 1062 1088
l 1063 1089
l 1066 1073
l 1067 1074
l 1071 1179
l 1072 1180
l 1092 1093
l 1093 1094
l 1095 1097
l 1096 1098
l 1097 1099
l 1098 1100
l 1117 1119
l 1118 1119
l 1120 1124
l 1121 1125
l 1122 1123
l 1124 1129
l 1125 1130
l 1126 1127
l 1127 1128
l 1129 1134
l 1130 1135
l 1131 1132
l 1132 1133
l 1134 1136
l 1135 1137
l 1138 1142
l 1139 1143
l 1140 1144
l 1141 1145
l 1142 1149
l 1143 1150
l 1144 1151
l 1145 1152
l 1146 1228
l 1147 1229
l 1148 1230
l 1155 1198
l 1156 1199
l 1157 1200
l 1158 1162
l 1159 1163
l 1160 1164
l 1161 1165
l 1162 1166
l 1163 1167
l 1164 1168
l 1165 1169
l 1170 1171
l 1171 1172
l 1173 1217
l 1174 1205
l 1175 1231
l 1176 1232
l 1177 1233
l 1181 1182
l 1183 1184
l 1185 1209
l 1186 1210
l 1187 1211
l 1188 1212
l 1193 1194
l 1195 1196
l 1197 1235
l 1201 1238
l 1204 1235
l 1205 1235
l 1207 1237
l 1208 1218
l 1209 1240
l 1210 1241
l 1211 1242
l 1212 1243
l 1221 1254
l 1222 1255
l 1223 1224
l 1223 1256
l 1224 1225
l 1225 1257
l 1226 1258
l 1227 1259
l 1228 1296
l 1229 1297
l 1230 1298
l 1231 1284
l 1232 1285
l 1233 1286
l 1237 1261
l 1238 1273
l 1240 1262
l 1241 1263
l 1242 1264
l 1243 1265
l 1244 1266
l 1245 1267
l 1246 1268
l 1247 1269
l 1254 1287
l 1255 1291
l 1256 1289
l 1257 1292
l 1258 1288
l 1259 1290
l 1262 1276
l 1263 1277
l 1264 1278
l 1265 1279
l 1266 1280
l 1267 1281
l 1268 1282
l 1269 1283
l 1299 1300
l 1300 1301
l 1302 1303
l 1303 1304
l 1305 1306
l 1306 1307
l 1308 1309
l 1309 1310
l 1311 1312
l 1311 1313
l 1314 1315
l 1315 1316
l 1317 1318
l 1318 1319
l 1320 1322
l 1321 1323
l 1322 1324
l 1323 1326
l 1324 1325
l 1325 1327
l 1326 1328
l 1328 1329
l 1330 1333
l 1331 1334
l 1332 1338
l 1335 1340
l 1336 1352
l 1337 1341
l 1338 1342
l 1339 1362
l 1339 1369
l 1342 1344
l 1343 1347
l 1344 1349
l 1345 1382
l 1346 1347
l 1348 1357
l 1349 1361
l 1350 1351
l 1353 1380
l 1354 1355
l 1355 1356
l 1358 1359
l 1359 1360
l 1360 1361
l 1362 1381
l 1363 1372
l 1364 1386
l 1365 1366
l 1367 1371
l 1368 1373
l 1370 1376
l 1373 1374
l 1375 1388
l 1377 1384
l 1377 1385
l 1377 1390
l 1378 1391
l 1379 1391
l 1383 1393
l 1386 1405
l 1387 1396
l 1388 1402
l 1389 1395
l 1390 1395
l 1392 1406
l 1393 1407
l 1394 1402
l 1396 1409
l 1397 1399
l 1398 1412
l 1399 1417
l 1399 1433
l 1399 1434
l 1400 1410
l 1401 1435
l 1403 1418
l 1404 1408
l 1408 1413
l 1410 1450
l 1411 1422
l 1413 1415
l 1414 1431
l 1415 1419
l 1416 1429
l 1419 1427
l 1420 1437
l 1421 1428
l 1422 1439
l 1423 1441
l 1424 1441
l 1425 1426
l 1425 1436
l 1426 1427
l 1429 1442
l 1430 1438
l 1431 1448
l 1432 1449
l 1440 1446
l 1440 1451
l 1443 1454
l 1444 1452
l 1445 1452
l 1447 1454
l 1453 1455
l 1456 1457
l 1457 1458
l 1459 1462
l 1460 1461
l 1461 1462
