# feature-edge wireframe (30 derece), ISO 8855, metre
o wheel_7_wire
v -0.37700 0.53150 0.30200
v -0.37700 0.53050 -0.00600
v -0.37700 0.52850 -0.01600
v -0.37700 0.52850 -0.01400
v -0.37700 0.52750 -0.01800
v -0.37700 0.52750 -0.01300
v -0.37700 0.52650 -0.01900
v -0.37700 0.52650 -0.01200
v -0.37700 0.52550 -0.01100
v -0.37700 0.52350 -0.01200
v -0.42200 0.52350 0.29700
v -0.37700 0.52250 -0.01300
v -0.42200 0.52250 0.29500
v -0.33100 0.52250 0.30200
v -0.42200 0.52250 0.30200
v -0.33200 0.52150 -0.00600
v -0.42200 0.52150 -0.00600
v -0.37700 0.52050 0.29200
v -0.33300 0.51950 -0.01800
v -0.42100 0.51950 -0.01800
v -0.33300 0.51950 -0.01600
v -0.42100 0.51950 -0.01400
v -0.33300 0.51850 -0.01300
v -0.42000 0.51750 -0.01900
v -0.42000 0.51750 -0.01200
v -0.33400 0.51650 -0.01200
v -0.41900 0.51650 -0.01200
v -0.33400 0.51650 -0.01100
v -0.42000 0.51650 -0.01100
v 0.47200 0.51650 0.18600
v 0.46300 0.51650 0.19200
v 0.48200 0.51650 0.19600
v 0.46500 0.51650 0.20300
v 0.47600 0.51650 0.20500
v -0.33400 0.51650 0.28900
v 0.31600 0.51550 -0.09600
v 0.30800 0.51550 -0.09600
v 0.32200 0.51550 -0.08700
v 0.30200 0.51550 -0.08700
v -0.33400 0.51550 -0.01100
v -0.33500 0.51450 -0.01100
v -0.33500 0.51350 -0.02000
v -0.33500 0.51350 -0.01300
v -0.41800 0.51350 -0.01300
v -0.33600 0.51250 0.29200
v -0.41800 0.51150 0.29200
v 0.47500 0.50350 0.17500
v 0.47400 0.50350 0.17700
v 0.46100 0.50250 0.15500
v 0.46400 0.50250 0.15600
v 0.44200 0.50250 0.16600
v 0.44200 0.50250 0.16700
v 0.44100 0.50250 0.16800
v 0.44200 0.50250 0.16900
v 0.47500 0.50250 0.17500
v 0.45500 0.50250 0.18800
v 0.45300 0.50250 0.18800
v 0.32100 0.49850 -0.10900
v 0.30300 0.49850 -0.10900
v -0.29200 0.49750 0.29700
v -0.46100 0.49750 0.29700
v -0.29400 0.49650 -0.00600
v -0.46000 0.49650 -0.00600
v -0.29300 0.49650 0.29500
v -0.46000 0.49650 0.29500
v -0.29300 0.49650 0.30200
v -0.46000 0.49650 0.30200
v -0.29600 0.49450 -0.01800
v -0.45800 0.49450 -0.01800
v -0.29500 0.49450 -0.01600
v -0.29500 0.49450 -0.01400
v -0.45800 0.49450 -0.01400
v -0.29600 0.49350 -0.01300
v -0.45800 0.49350 -0.01300
v -0.29700 0.49350 -0.01200
v -0.29800 0.49250 -0.01900
v -0.29800 0.49250 -0.01100
v -0.29800 0.49250 0.28900
v -0.29800 0.49150 -0.02000
v -0.29800 0.49150 -0.01200
v -0.45600 0.49150 -0.01200
v -0.45500 0.49150 -0.01100
v -0.29900 0.49050 -0.01100
v -0.45300 0.48950 -0.01000
v -0.30100 0.48950 0.29200
v -0.45300 0.48950 0.29200
v 0.51100 0.48850 -0.01500
v 0.51100 0.48850 0.00500
v 0.05000 0.47050 -0.04900
v -0.03200 0.47050 -0.04900
v 0.05000 0.47050 -0.03100
v -0.03200 0.47050 -0.03100
v 0.05000 0.46950 -0.03000
v -0.03200 0.46950 -0.03000
v 0.31200 0.46050 -0.10400
v 0.31200 0.46050 -0.06900
v 0.05900 0.45950 -0.18200
v -0.05900 0.45950 -0.18200
v 0.05900 0.45950 0.09800
v -0.05900 0.45950 0.09800
v 0.05500 0.45850 -0.18200
v -0.26800 0.45850 -0.00600
v -0.48500 0.45850 -0.00600
v 0.05500 0.45850 0.09800
v -0.26700 0.45850 0.29500
v -0.26700 0.45850 0.29700
v -0.26700 0.45850 0.30200
v -0.48600 0.45850 0.30200
v 0.31600 0.45750 -0.09600
v 0.30800 0.45750 -0.09600
v 0.32200 0.45750 -0.08700
v 0.30200 0.45750 -0.08700
v -0.27100 0.45750 -0.01800
v -0.48300 0.45750 -0.01800
v -0.27000 0.45750 -0.01600
v -0.48300 0.45750 -0.01400
v 0.46300 0.45750 0.15500
v 0.46100 0.45750 0.15500
v 0.44200 0.45750 0.16600
v 0.44200 0.45750 0.16900
v 0.47500 0.45750 0.17500
v 0.47500 0.45750 0.17700
v 0.47400 0.45750 0.17700
v 0.45300 0.45750 0.18800
v -0.27200 0.45650 -0.01900
v -0.27100 0.45650 -0.01300
v -0.48200 0.45650 -0.01300
v -0.27300 0.45650 -0.01100
v -0.48000 0.45650 -0.01100
v -0.27400 0.45550 -0.01200
v -0.48000 0.45550 -0.01200
v -0.27400 0.45550 0.29100
v -0.05100 0.45450 -0.18200
v 0.53700 0.45450 -0.04900
v 0.48500 0.45450 -0.04900
v -0.47700 0.45450 -0.01300
v -0.47700 0.45450 -0.01000
v 0.53700 0.45450 0.04100
v 0.48500 0.45450 0.04100
v -0.05100 0.45450 0.09800
v -0.47700 0.45450 0.29200
v 0.06700 0.45150 -0.18200
v 0.05000 0.45150 -0.18200
v -0.06700 0.45150 -0.18200
v 0.32100 0.45150 -0.10900
v 0.30300 0.45150 -0.10900
v 0.06700 0.45150 0.09800
v 0.05000 0.45150 0.09800
v -0.06700 0.45150 0.09800
v 0.07700 0.44950 -0.13700
v 0.04200 0.44950 -0.13700
v -0.04000 0.44950 -0.13700
v -0.07500 0.44950 -0.13700
v 0.07700 0.44950 -0.10200
v 0.04200 0.44950 -0.10200
v -0.04000 0.44950 -0.10200
v -0.07500 0.44950 -0.10200
v -0.05100 0.44850 -0.18200
v -0.05100 0.44850 0.09800
v 0.56700 0.44650 -0.06700
v 0.43600 0.44650 -0.06700
v 0.56700 0.44650 0.32100
v 0.35600 0.44650 0.32100
v 0.53700 0.44550 -0.04900
v 0.48500 0.44550 -0.04900
v 0.53700 0.44550 0.04100
v 0.48500 0.44550 0.04100
v 0.06200 0.44350 -0.18200
v 0.05500 0.44350 -0.18200
v -0.05600 0.44350 -0.18200
v -0.06200 0.44350 -0.18200
v 0.06200 0.44350 0.09800
v 0.05500 0.44350 0.09800
v -0.05600 0.44350 0.09800
v -0.06200 0.44350 0.09800
v 0.57600 0.44150 -0.06700
v 0.57600 0.44150 0.32100
v -0.20000 0.44050 -0.10800
v -0.08800 0.44050 -0.10400
v 0.31900 0.44050 -0.10100
v -0.45100 0.44050 -0.09600
v -0.45100 0.44050 -0.08300
v -0.13600 0.44050 -0.07700
v 0.31900 0.44050 -0.07500
v -0.08800 0.44050 -0.07500
v 0.14800 0.44050 -0.07300
v -0.20000 0.44050 -0.07200
v 0.56600 0.44050 -0.06700
v 0.43600 0.44050 -0.06700
v 0.29700 0.44050 -0.05900
v 0.41800 0.44050 -0.04300
v 0.14800 0.44050 -0.03900
v -0.13600 0.44050 -0.03900
v 0.29700 0.44050 -0.02900
v 0.53100 0.44050 -0.02800
v 0.41800 0.44050 -0.01600
v 0.53100 0.44050 -0.00100
v 0.56600 0.44050 0.32100
v 0.35600 0.44050 0.32100
v 0.57100 0.43850 -0.06700
v 0.06900 0.43850 -0.05900
v -0.07300 0.43850 -0.05800
v -0.07400 0.43850 -0.05100
v -0.03200 0.43850 -0.04900
v 0.05000 0.43850 -0.03000
v 0.57100 0.43850 0.32100
v 0.09600 0.43750 -0.05900
v 0.06800 0.43750 -0.05900
v 0.06700 0.43750 -0.04900
v 0.45600 0.43750 0.21200
v 0.57700 0.43650 -0.06700
v 0.06900 0.43650 -0.06000
v -0.06800 0.43650 -0.06000
v -0.07100 0.43650 -0.06000
v -0.06600 0.43650 -0.05900
v -0.06700 0.43650 -0.05900
v 0.09600 0.43650 -0.05800
v -0.06600 0.43650 -0.05100
v -0.03200 0.43650 -0.04900
v -0.06400 0.43650 -0.04900
v 0.09900 0.43650 -0.04800
v 0.05000 0.43650 -0.03000
v -0.03200 0.43650 -0.03000
v -0.05200 0.43650 -0.03000
v -0.06400 0.43650 -0.03000
v 0.06800 0.43650 -0.02900
v -0.03300 0.43650 -0.02800
v -0.05000 0.43650 -0.02800
v -0.07800 0.43650 -0.02800
v -0.03400 0.43650 -0.02700
v -0.04900 0.43650 -0.02700
v -0.07700 0.43650 -0.02700
v 0.10400 0.43650 -0.02600
v 0.06800 0.43650 -0.02600
v 0.10300 0.43650 -0.02500
v 0.57700 0.43650 0.32100
v 0.57100 0.43550 -0.06700
v 0.57100 0.43550 0.32100
v 0.07200 0.43350 0.10600
v -0.05000 0.43350 0.10600
v -0.07300 0.43350 0.10600
v -0.07800 0.43350 0.11200
v 0.06300 0.43350 0.11800
v 0.06500 0.43350 0.11900
v -0.05300 0.43350 0.11900
v -0.06800 0.43350 0.13100
v -0.04700 0.43350 0.13300
v -0.26200 0.41350 -0.01800
v -0.49100 0.41350 -0.01800
v -0.26100 0.41350 -0.01600
v -0.49200 0.41350 -0.01600
v -0.26100 0.41350 -0.01400
v -0.49200 0.41350 -0.01400
v -0.26200 0.41350 -0.01300
v -0.48700 0.41350 -0.01300
v -0.48700 0.41350 -0.01200
v -0.26600 0.41350 -0.01100
v -0.48900 0.41350 -0.01100
v -0.25900 0.41350 -0.00600
v -0.49400 0.41350 -0.00600
v -0.26500 0.41350 0.29100
v -0.48700 0.41350 0.29100
v -0.25800 0.41350 0.29500
v -0.25800 0.41350 0.30200
v -0.49500 0.41350 0.30200
v 0.06200 0.39350 0.11800
v -0.05400 0.39350 0.11800
v 0.06500 0.39350 0.12000
v -0.06900 0.39350 0.13100
v -0.04800 0.39350 0.13200
v 0.07200 0.39250 0.10600
v -0.05000 0.39250 0.10600
v -0.07300 0.39250 0.10700
v -0.07700 0.39250 0.11200
v 0.57100 0.38850 -0.06700
v 0.57100 0.38850 0.32100
v 0.57700 0.38750 -0.06700
v 0.57700 0.38750 0.32100
v 0.57100 0.38550 -0.06700
v 0.57100 0.38550 0.32100
v 0.56900 0.38350 -0.06700
v 0.56600 0.38350 -0.06700
v 0.43600 0.38350 -0.06700
v 0.07000 0.38350 -0.06000
v -0.06800 0.38350 -0.06000
v -0.07100 0.38350 -0.06000
v 0.09500 0.38350 -0.05900
v 0.06800 0.38350 -0.05800
v -0.06600 0.38350 -0.05800
v -0.06600 0.38350 -0.05100
v 0.09800 0.38350 -0.04900
v 0.06600 0.38350 -0.04900
v -0.03200 0.38350 -0.04900
v -0.06400 0.38350 -0.04900
v 0.05000 0.38350 -0.03000
v -0.03200 0.38350 -0.03000
v -0.05200 0.38350 -0.03000
v -0.06400 0.38350 -0.03000
v -0.07800 0.38350 -0.02900
v 0.06800 0.38350 -0.02800
v -0.03300 0.38350 -0.02800
v -0.03400 0.38350 -0.02800
v -0.05000 0.38350 -0.02800
v -0.07800 0.38350 -0.02800
v -0.03500 0.38350 -0.02700
v -0.04900 0.38350 -0.02700
v -0.07700 0.38350 -0.02700
v 0.10400 0.38350 -0.02600
v 0.06800 0.38350 -0.02600
v 0.10300 0.38350 -0.02500
v 0.56900 0.38350 0.32100
v 0.56600 0.38350 0.32100
v 0.35600 0.38350 0.32100
v 0.05900 0.38250 -0.18200
v -0.05900 0.38250 -0.18200
v 0.57600 0.38250 -0.06700
v -0.07300 0.38250 -0.05800
v -0.07400 0.38250 -0.05100
v 0.05900 0.38250 0.09800
v -0.05900 0.38250 0.09800
v 0.57600 0.38250 0.32100
v -0.05300 0.38050 -0.18200
v -0.05300 0.38050 0.09800
v -0.20000 0.37950 -0.10800
v 0.31200 0.37950 -0.10400
v -0.08800 0.37950 -0.10400
v 0.31900 0.37950 -0.10100
v -0.45100 0.37950 -0.09600
v -0.45100 0.37950 -0.08300
v -0.13600 0.37950 -0.07700
v 0.31900 0.37950 -0.07500
v -0.08800 0.37950 -0.07500
v 0.14800 0.37950 -0.07300
v -0.20000 0.37950 -0.07200
v 0.31200 0.37950 -0.06900
v 0.29700 0.37950 -0.05900
v 0.41800 0.37950 -0.04300
v 0.14800 0.37950 -0.03900
v -0.13600 0.37950 -0.03900
v 0.29700 0.37950 -0.02900
v 0.53100 0.37950 -0.02800
v 0.41800 0.37950 -0.01600
v 0.53100 0.37950 -0.00100
v 0.57200 0.37850 -0.06700
v 0.53800 0.37850 -0.04900
v 0.48500 0.37850 -0.04900
v 0.53800 0.37850 0.04100
v 0.48500 0.37850 0.04100
v 0.57200 0.37850 0.32100
v -0.05100 0.37750 -0.18200
v 0.56700 0.37750 -0.06700
v 0.43600 0.37750 -0.06700
v -0.05100 0.37750 0.09800
v 0.56700 0.37750 0.32100
v 0.35600 0.37750 0.32100
v 0.06700 0.37450 -0.18200
v 0.05000 0.37450 -0.18200
v -0.06700 0.37450 -0.18200
v 0.07700 0.37450 -0.13700
v 0.04200 0.37450 -0.13700
v -0.04000 0.37450 -0.13700
v -0.07500 0.37450 -0.13700
v 0.07700 0.37450 -0.10200
v 0.04200 0.37450 -0.10200
v -0.04000 0.37450 -0.10200
v -0.07500 0.37450 -0.10200
v 0.06700 0.37450 0.09800
v 0.05000 0.37450 0.09800
v -0.06700 0.37450 0.09800
v 0.45600 0.37350 0.21200
v -0.05100 0.37150 -0.18200
v -0.47800 0.37150 -0.01300
v -0.27700 0.37150 -0.01000
v -0.05100 0.37150 0.09800
v -0.27600 0.37150 0.29100
v -0.47800 0.37150 0.29100
v 0.53800 0.37050 -0.04900
v 0.48500 0.37050 -0.04900
v -0.27400 0.37050 -0.01200
v -0.27500 0.37050 -0.01200
v -0.48000 0.37050 -0.01200
v -0.48000 0.37050 -0.01100
v 0.53800 0.37050 0.04100
v 0.48500 0.37050 0.04100
v -0.48300 0.36950 -0.01800
v -0.48300 0.36950 -0.01400
v -0.27100 0.36950 -0.01300
v -0.48200 0.36950 -0.01300
v -0.48100 0.36950 -0.01200
v -0.27000 0.36850 -0.01600
v -0.48300 0.36850 -0.01500
v -0.26800 0.36850 -0.00600
v -0.48500 0.36850 -0.00600
v -0.26700 0.36750 0.29500
v -0.48600 0.36750 0.29500
v -0.48700 0.36750 0.29700
v -0.26700 0.36750 0.30200
v 0.06200 0.36650 -0.18200
v 0.05500 0.36650 -0.18200
v -0.05600 0.36650 -0.18200
v -0.06200 0.36650 -0.18200
v 0.06200 0.36650 0.09800
v 0.05500 0.36650 0.09800
v -0.05600 0.36650 0.09800
v -0.06200 0.36650 0.09800
v 0.05000 0.35250 -0.04800
v -0.03200 0.35250 -0.04800
v 0.05000 0.35250 -0.03100
v -0.03200 0.35250 -0.03100
v 0.47200 0.33950 0.18600
v 0.46300 0.33950 0.19200
v 0.48200 0.33950 0.19600
v 0.46500 0.33950 0.20300
v 0.47600 0.33950 0.20500
v 0.51100 0.33750 -0.01500
v -0.30100 0.33750 -0.01000
v 0.51100 0.33750 0.00500
v -0.30100 0.33750 0.29200
v -0.30000 0.33650 0.29100
v -0.45400 0.33650 0.29100
v -0.29900 0.33550 -0.01300
v -0.45400 0.33550 -0.01300
v -0.29900 0.33550 0.29100
v -0.45400 0.33550 0.29100
v -0.29900 0.33450 -0.01200
v -0.45500 0.33450 -0.01200
v -0.29700 0.33350 -0.01200
v -0.45700 0.33350 -0.01200
v -0.45800 0.33250 -0.01800
v -0.29600 0.33250 -0.01300
v -0.45700 0.33250 -0.01300
v -0.45800 0.33250 -0.01300
v -0.29500 0.33150 -0.01700
v -0.45800 0.33150 -0.01600
v -0.29500 0.33150 -0.01400
v -0.45800 0.33150 0.30400
v -0.29400 0.32950 -0.00600
v -0.46000 0.32950 -0.00600
v -0.29300 0.32950 0.29500
v -0.46000 0.32950 0.29500
v -0.29300 0.32950 0.30200
v -0.46000 0.32950 0.30200
v -0.29200 0.32850 0.29700
v -0.46100 0.32850 0.29700
v -0.33600 0.31450 0.29200
v -0.33500 0.31250 -0.01300
v -0.41800 0.31250 -0.01300
v -0.41900 0.31150 0.29000
v -0.33500 0.31150 0.29100
v -0.33400 0.31050 -0.01100
v -0.41900 0.31050 -0.01100
v -0.33400 0.31050 0.29100
v -0.42000 0.30850 -0.01200
v -0.33300 0.30750 -0.01800
v -0.42100 0.30750 -0.01800
v -0.33300 0.30650 -0.01600
v -0.42100 0.30650 -0.01600
v -0.33300 0.30650 -0.01400
v -0.42100 0.30650 -0.01400
v -0.42100 0.30650 0.30400
v -0.33200 0.30450 -0.00600
v -0.42200 0.30450 -0.00600
v -0.33100 0.30350 0.29500
v -0.42200 0.30350 0.29500
v -0.33100 0.30350 0.29700
v -0.33100 0.30350 0.30200
v -0.42200 0.30350 0.30200
v -0.37700 0.30250 0.29000
v -0.37700 0.30150 0.29100
v -0.37700 0.29850 -0.01800
v -0.37700 0.29850 -0.01400
v -0.37700 0.29750 -0.01600
v -0.37700 0.29550 -0.00600
v -0.37700 0.29450 0.29500
v -0.37700 0.29450 0.30200
l 6 23
l 23 73
l 57 124
l 73 126
l 126 254
l 179 326
l 180 327
l 184 331
l 185 332
l 228 303
l 229 299
l 235 310
l 254 387
l 387 430
l 406 407
l 1 14
l 1 15
l 2 17
l 3 21
l 4 22
l 4 23
l 5 19
l 5 20
l 7 24
l 8 40
l 9 27
l 9 29
l 10 26
l 10 28
l 11 61
l 12 43
l 12 44
l 13 65
l 14 66
l 16 62
l 17 63
l 18 45
l 18 46
l 19 68
l 20 69
l 22 72
l 23 71
l 25 82
l 26 77
l 26 80
l 27 81
l 28 77
l 30 410
l 31 411
l 32 412
l 33 413
l 34 414
l 35 78
l 36 109
l 37 110
l 38 111
l 39 112
l 40 75
l 41 83
l 42 76
l 42 79
l 45 85
l 46 86
l 47 121
l 47 122
l 47 123
l 48 123
l 49 118
l 50 117
l 51 119
l 52 119
l 53 119
l 54 119
l 54 120
l 55 121
l 56 124
l 58 145
l 59 146
l 60 106
l 62 102
l 63 103
l 64 105
l 64 106
l 66 107
l 67 108
l 68 113
l 69 114
l 70 115
l 71 126
l 72 116
l 74 127
l 75 128
l 79 125
l 80 130
l 81 131
l 84 137
l 86 141
l 87 415
l 88 417
l 89 90
l 91 92
l 93 94
l 95 325
l 96 335
l 97 99
l 98 100
l 101 104
l 102 259
l 105 263
l 107 264
l 108 265
l 113 248
l 114 249
l 116 253
l 128 257
l 129 256
l 131 256
l 132 261
l 133 140
l 134 135
l 134 138
l 135 139
l 136 255
l 136 256
l 138 139
l 142 147
l 143 148
l 144 149
l 150 359
l 151 360
l 152 361
l 153 362
l 154 363
l 155 364
l 156 365
l 157 366
l 158 159
l 160 161
l 161 163
l 162 163
l 164 165
l 164 166
l 165 167
l 166 167
l 168 172
l 169 173
l 170 174
l 171 175
l 176 177
l 178 181
l 179 180
l 181 328
l 182 187
l 182 329
l 183 186
l 184 185
l 186 190
l 188 189
l 189 199
l 190 191
l 191 195
l 192 193
l 192 194
l 194 196
l 195 341
l 196 197
l 197 343
l 198 199
l 200 206
l 201 284
l 202 317
l 203 318
l 204 293
l 205 295
l 207 287
l 208 288
l 209 292
l 210 370
l 211 277
l 212 284
l 213 285
l 214 286
l 215 289
l 216 289
l 217 287
l 218 290
l 219 293
l 220 294
l 221 291
l 222 295
l 223 296
l 224 297
l 225 298
l 226 300
l 227 301
l 227 302
l 229 304
l 230 305
l 231 306
l 232 307
l 233 308
l 234 309
l 236 278
l 237 275
l 238 276
l 239 271
l 240 272
l 241 273
l 242 274
l 243 266
l 244 268
l 245 267
l 246 269
l 247 270
l 249 385
l 250 390
l 251 391
l 252 387
l 253 386
l 255 372
l 256 372
l 258 381
l 258 382
l 260 393
l 262 376
l 263 394
l 264 397
l 279 280
l 281 311
l 282 283
l 283 313
l 312 313
l 314 319
l 315 320
l 316 321
l 322 323
l 324 328
l 326 327
l 329 334
l 330 333
l 331 332
l 333 336
l 336 337
l 337 341
l 338 339
l 338 340
l 340 342
l 342 343
l 344 349
l 345 346
l 345 347
l 346 348
l 347 348
l 350 353
l 351 352
l 352 355
l 354 355
l 356 367
l 357 368
l 358 369
l 371 374
l 372 422
l 373 416
l 375 419
l 375 423
l 377 378
l 377 383
l 378 384
l 379 425
l 380 421
l 380 425
l 381 426
l 382 426
l 383 384
l 385 429
l 388 431
l 388 432
l 389 428
l 390 433
l 391 434
l 392 437
l 393 438
l 394 443
l 395 440
l 396 444
l 397 441
l 398 402
l 399 403
l 400 404
l 401 405
l 408 409
l 418 445
l 420 448
l 421 446
l 422 447
l 423 449
l 424 448
l 427 450
l 428 451
l 429 455
l 432 453
l 432 459
l 433 454
l 434 457
l 435 458
l 436 460
l 437 461
l 438 462
l 439 463
l 439 465
l 441 466
l 442 467
l 443 465
l 444 464
l 449 468
l 452 469
l 454 470
l 456 472
l 458 471
l 461 473
l 463 474
l 464 474
l 466 475
l 467 475
