# feature-edge wireframe (30 derece), ISO 8855, metre
o wheel_4_wire
v -0.37850 -0.28750 0.29700
v -0.37850 -0.28750 0.30200
v -0.37850 -0.28850 -0.00600
v -0.37850 -0.29050 -0.01600
v -0.37850 -0.29050 -0.01400
v -0.37850 -0.29150 -0.01800
v -0.37850 -0.29150 -0.01300
v -0.37850 -0.29350 -0.01200
v -0.37850 -0.29450 0.29100
v -0.37850 -0.29650 -0.01300
v -0.33250 -0.29650 0.29700
v -0.33250 -0.29650 0.29900
v -0.33350 -0.29650 0.30200
v -0.42350 -0.29650 0.30200
v -0.33350 -0.29750 -0.00600
v -0.42350 -0.29750 -0.00600
v -0.42350 -0.29750 0.29500
v -0.42250 -0.29950 -0.01600
v -0.33450 -0.30050 -0.01800
v -0.42250 -0.30050 -0.01800
v -0.33450 -0.30050 -0.01300
v -0.42150 -0.30050 -0.01300
v -0.42250 -0.30050 -0.01300
v -0.33550 -0.30250 -0.01100
v -0.42150 -0.30250 -0.01100
v -0.33550 -0.30350 -0.02000
v -0.33550 -0.30350 0.28900
v -0.33550 -0.30350 0.29100
v -0.42150 -0.30350 0.29100
v -0.33650 -0.30450 -0.01300
v -0.42050 -0.30450 -0.01300
v -0.41950 -0.30650 0.29200
v -0.29450 -0.32150 0.29900
v -0.46250 -0.32150 0.29900
v -0.29450 -0.32250 0.29500
v -0.46150 -0.32250 0.29500
v -0.29450 -0.32250 0.30200
v -0.46250 -0.32250 0.30200
v -0.29550 -0.32350 -0.00600
v -0.46150 -0.32350 -0.00600
v -0.29650 -0.32450 -0.01700
v -0.45950 -0.32450 -0.01600
v -0.29650 -0.32450 -0.01500
v -0.29750 -0.32450 -0.01400
v -0.45950 -0.32450 -0.01400
v -0.29750 -0.32550 -0.01800
v -0.45950 -0.32550 -0.01800
v -0.29750 -0.32550 -0.01300
v -0.45850 -0.32650 -0.01200
v -0.29950 -0.32650 -0.01100
v -0.45750 -0.32650 -0.01100
v -0.45650 -0.32750 -0.02000
v -0.29950 -0.32750 -0.01200
v -0.30050 -0.32750 -0.01200
v -0.29950 -0.32750 0.29000
v -0.45750 -0.32750 0.29100
v -0.45650 -0.32850 -0.01300
v -0.30050 -0.32850 0.29100
v -0.30150 -0.32950 -0.02000
v -0.45550 -0.32950 -0.01000
v -0.30250 -0.32950 0.29200
v -0.45450 -0.33050 0.29200
v 0.48050 -0.33250 0.19600
v 0.46050 -0.33250 0.19600
v 0.47450 -0.33250 0.20500
v 0.46650 -0.33250 0.20500
v 0.04850 -0.34550 -0.04800
v -0.03350 -0.34550 -0.04800
v 0.04850 -0.34550 -0.03100
v -0.03350 -0.34550 -0.03100
v -0.03350 -0.34650 -0.03000
v 0.04850 -0.34750 -0.03000
v 0.05650 -0.35950 -0.18200
v -0.06050 -0.35950 -0.18200
v 0.05650 -0.35950 0.09800
v -0.06050 -0.35950 0.09800
v -0.26950 -0.36050 0.29500
v -0.48750 -0.36050 0.29500
v -0.48850 -0.36050 0.29900
v -0.26950 -0.36050 0.30200
v -0.48750 -0.36050 0.30200
v 0.06250 -0.36150 -0.18200
v -0.05450 -0.36150 -0.18200
v -0.06650 -0.36150 -0.18200
v -0.26950 -0.36150 -0.00600
v -0.48750 -0.36150 -0.00600
v 0.06250 -0.36150 0.09800
v -0.05450 -0.36150 0.09800
v -0.06650 -0.36150 0.09800
v -0.27250 -0.36250 -0.01800
v -0.48350 -0.36250 -0.01800
v -0.48450 -0.36250 -0.01800
v -0.48450 -0.36250 -0.01600
v -0.27150 -0.36250 -0.01400
v -0.27350 -0.36250 -0.01300
v -0.48350 -0.36250 -0.01300
v -0.27350 -0.36250 -0.01200
v 0.53550 -0.36350 -0.04900
v 0.48350 -0.36350 -0.04900
v -0.27550 -0.36350 -0.02000
v -0.48050 -0.36350 -0.02000
v -0.27450 -0.36350 -0.01100
v -0.48150 -0.36350 -0.01100
v 0.53550 -0.36350 0.04100
v 0.48350 -0.36350 0.04100
v -0.27550 -0.36350 0.28900
v 0.06450 -0.36450 -0.18200
v -0.27750 -0.36450 -0.01300
v -0.47950 -0.36450 -0.01300
v -0.47750 -0.36450 -0.01000
v 0.06450 -0.36450 0.09800
v -0.27750 -0.36450 0.29100
v -0.27850 -0.36450 0.29100
v -0.27950 -0.36550 0.29200
v 0.45450 -0.36650 0.21200
v 0.04850 -0.36750 -0.18200
v -0.05250 -0.36750 -0.18200
v -0.06850 -0.36750 -0.18200
v 0.07550 -0.36750 -0.13700
v 0.04050 -0.36750 -0.13700
v -0.04150 -0.36750 -0.13700
v -0.07650 -0.36750 -0.13700
v 0.07550 -0.36750 -0.10200
v 0.04050 -0.36750 -0.10200
v -0.04150 -0.36750 -0.10200
v -0.07650 -0.36750 -0.10200
v 0.04850 -0.36750 0.09800
v -0.05250 -0.36750 0.09800
v -0.06850 -0.36750 0.09800
v 0.06450 -0.37050 -0.18200
v 0.56550 -0.37050 -0.06700
v 0.43450 -0.37050 -0.06700
v 0.06450 -0.37050 0.09800
v 0.56550 -0.37050 0.32100
v 0.35450 -0.37050 0.32100
v 0.57050 -0.37150 -0.06700
v 0.57050 -0.37150 0.32100
v -0.20150 -0.37250 -0.10800
v -0.19050 -0.37250 -0.10700
v 0.31050 -0.37250 -0.10400
v -0.08950 -0.37250 -0.10400
v 0.31750 -0.37250 -0.10100
v -0.45250 -0.37250 -0.09600
v -0.45250 -0.37250 -0.08300
v -0.13750 -0.37250 -0.07700
v 0.31750 -0.37250 -0.07500
v -0.08950 -0.37250 -0.07500
v 0.14650 -0.37250 -0.07300
v -0.20150 -0.37250 -0.07200
v 0.31050 -0.37250 -0.06900
v 0.29550 -0.37250 -0.05900
v 0.53550 -0.37250 -0.04900
v 0.48350 -0.37250 -0.04900
v 0.41550 -0.37250 -0.04300
v 0.14650 -0.37250 -0.03900
v -0.13750 -0.37250 -0.03900
v 0.29550 -0.37250 -0.02900
v 0.52950 -0.37250 -0.02800
v 0.41550 -0.37250 -0.01600
v 0.52950 -0.37250 -0.00100
v 0.53550 -0.37250 0.04100
v 0.48350 -0.37250 0.04100
v 0.06250 -0.37350 -0.18200
v -0.05450 -0.37350 -0.18200
v -0.06650 -0.37350 -0.18200
v 0.06250 -0.37350 0.09800
v -0.05450 -0.37350 0.09800
v -0.06650 -0.37350 0.09800
v 0.05650 -0.37550 -0.18200
v -0.06050 -0.37550 -0.18200
v 0.57450 -0.37550 -0.06700
v -0.07450 -0.37550 -0.05900
v 0.05650 -0.37550 0.09800
v -0.06050 -0.37550 0.09800
v 0.57450 -0.37550 0.32100
v 0.56750 -0.37650 -0.06700
v 0.56450 -0.37650 -0.06700
v 0.43450 -0.37650 -0.06700
v 0.06650 -0.37650 -0.05100
v -0.05050 -0.37650 -0.02700
v 0.56750 -0.37650 0.32100
v 0.56450 -0.37650 0.32100
v 0.35450 -0.37650 0.32100
v 0.09150 -0.37750 -0.06000
v 0.06850 -0.37750 -0.06000
v -0.06950 -0.37750 -0.06000
v 0.06650 -0.37750 -0.05900
v -0.06750 -0.37750 -0.05800
v 0.06550 -0.37750 -0.05000
v 0.06450 -0.37750 -0.04900
v -0.05050 -0.37750 -0.04900
v -0.06650 -0.37750 -0.04900
v 0.09750 -0.37750 -0.04800
v 0.06450 -0.37750 -0.03000
v 0.04850 -0.37750 -0.03000
v -0.03350 -0.37750 -0.03000
v -0.05350 -0.37750 -0.03000
v -0.06650 -0.37750 -0.03000
v 0.06650 -0.37750 -0.02800
v -0.03550 -0.37750 -0.02800
v -0.05250 -0.37750 -0.02800
v -0.07950 -0.37750 -0.02800
v -0.03550 -0.37750 -0.02700
v -0.03650 -0.37750 -0.02700
v -0.05050 -0.37750 -0.02700
v -0.07950 -0.37750 -0.02700
v 0.10250 -0.37750 -0.02600
v 0.06650 -0.37750 -0.02600
v 0.56950 -0.37850 -0.06700
v 0.56950 -0.37850 0.32100
v 0.57550 -0.38050 -0.06700
v 0.57550 -0.38050 0.32100
v 0.56950 -0.38150 -0.06700
v 0.56950 -0.38150 0.32100
v 0.07050 -0.38650 0.10600
v -0.07450 -0.38650 0.10600
v 0.07550 -0.38650 0.11200
v 0.05250 -0.38650 0.11800
v -0.05550 -0.38650 0.11800
v -0.05650 -0.38650 0.11800
v 0.06350 -0.38650 0.11900
v -0.06650 -0.38650 0.11900
v 0.05050 -0.38650 0.12000
v 0.07550 -0.38650 0.12500
v -0.07950 -0.38650 0.12500
v 0.04850 -0.38650 0.12900
v 0.04750 -0.38650 0.12900
v -0.06850 -0.38650 0.12900
v 0.04750 -0.38650 0.13000
v 0.07050 -0.38650 0.13100
v 0.06550 -0.38650 0.13100
v -0.07050 -0.38650 0.13100
v -0.07450 -0.38650 0.13100
v -0.26750 -0.40650 -0.02000
v -0.49050 -0.40650 -0.01900
v -0.26350 -0.40650 -0.01800
v -0.49350 -0.40650 -0.01800
v -0.26250 -0.40650 -0.01600
v -0.49350 -0.40650 -0.01400
v -0.26450 -0.40650 -0.01300
v -0.26950 -0.40650 -0.01300
v -0.48750 -0.40650 -0.01300
v -0.49250 -0.40650 -0.01300
v -0.49050 -0.40650 -0.01100
v -0.26050 -0.40650 -0.00600
v -0.49650 -0.40650 -0.00600
v -0.26650 -0.40650 0.29100
v -0.26950 -0.40650 0.29100
v -0.48850 -0.40650 0.29100
v -0.27050 -0.40650 0.29200
v -0.26050 -0.40650 0.30200
v -0.49650 -0.40650 0.30200
v 0.07050 -0.42650 0.10600
v -0.07450 -0.42650 0.10600
v 0.07550 -0.42650 0.11200
v 0.05250 -0.42650 0.11800
v -0.05650 -0.42650 0.11800
v -0.06650 -0.42650 0.11800
v 0.06350 -0.42650 0.11900
v -0.05450 -0.42650 0.11900
v -0.06650 -0.42650 0.11900
v 0.05050 -0.42650 0.12000
v 0.07550 -0.42650 0.12500
v -0.07950 -0.42650 0.12500
v 0.04850 -0.42650 0.12900
v -0.06850 -0.42650 0.12900
v 0.07050 -0.42650 0.13100
v 0.06850 -0.42650 0.13100
v 0.06550 -0.42650 0.13100
v -0.06950 -0.42650 0.13100
v -0.07150 -0.42650 0.13100
v -0.07450 -0.42650 0.13100
v 0.56950 -0.42850 -0.06700
v 0.56950 -0.42850 0.32100
v 0.57550 -0.42950 -0.06700
v 0.57550 -0.42950 0.32100
v 0.09250 -0.43050 -0.06000
v -0.06950 -0.43050 -0.06000
v -0.07350 -0.43050 -0.06000
v -0.06750 -0.43050 -0.05800
v 0.06550 -0.43050 -0.05000
v 0.06550 -0.43050 -0.04900
v -0.05050 -0.43050 -0.04900
v -0.06650 -0.43050 -0.04900
v 0.09750 -0.43050 -0.04800
v 0.06450 -0.43050 -0.03000
v 0.04850 -0.43050 -0.03000
v -0.03350 -0.43050 -0.03000
v -0.05350 -0.43050 -0.03000
v -0.06650 -0.43050 -0.03000
v 0.06650 -0.43050 -0.02800
v -0.03550 -0.43050 -0.02800
v -0.05250 -0.43050 -0.02800
v -0.07950 -0.43050 -0.02800
v -0.03650 -0.43050 -0.02700
v -0.05050 -0.43050 -0.02700
v -0.07850 -0.43050 -0.02700
v 0.10250 -0.43050 -0.02600
v 0.06650 -0.43050 -0.02600
v 0.45450 -0.43050 0.21200
v 0.56950 -0.43150 -0.06700
v 0.06750 -0.43150 -0.06000
v 0.06650 -0.43150 -0.05900
v 0.56950 -0.43150 0.32100
v -0.20150 -0.43350 -0.10800
v -0.19050 -0.43350 -0.10700
v -0.08950 -0.43350 -0.10400
v 0.31750 -0.43350 -0.10100
v -0.45250 -0.43350 -0.09600
v -0.45250 -0.43350 -0.08300
v -0.13750 -0.43350 -0.07700
v 0.31750 -0.43350 -0.07500
v -0.08950 -0.43350 -0.07500
v 0.14650 -0.43350 -0.07300
v -0.20150 -0.43350 -0.07200
v 0.56450 -0.43350 -0.06700
v 0.43450 -0.43350 -0.06700
v 0.29550 -0.43350 -0.05900
v 0.41550 -0.43350 -0.04300
v 0.14650 -0.43350 -0.03900
v -0.13750 -0.43350 -0.03900
v 0.04950 -0.43350 -0.03000
v 0.04850 -0.43350 -0.03000
v -0.03350 -0.43350 -0.03000
v 0.29550 -0.43350 -0.02900
v 0.52950 -0.43350 -0.02800
v 0.41550 -0.43350 -0.01600
v 0.52950 -0.43350 -0.00100
v 0.56450 -0.43350 0.32100
v 0.35450 -0.43350 0.32100
v 0.57450 -0.43450 -0.06700
v 0.57450 -0.43450 0.32100
v 0.05950 -0.43650 -0.18200
v 0.05350 -0.43650 -0.18200
v -0.05750 -0.43650 -0.18200
v -0.06350 -0.43650 -0.18200
v 0.05950 -0.43650 0.09800
v 0.05350 -0.43650 0.09800
v -0.05750 -0.43650 0.09800
v -0.06350 -0.43650 0.09800
v -0.05450 -0.43850 -0.18200
v -0.06650 -0.43850 -0.18200
v 0.53550 -0.43850 -0.04900
v 0.48350 -0.43850 -0.04900
v 0.53550 -0.43850 0.04100
v 0.48350 -0.43850 0.04100
v -0.05450 -0.43850 0.09800
v -0.06650 -0.43850 0.09800
v 0.56550 -0.43950 -0.06700
v 0.43450 -0.43950 -0.06700
v 0.56550 -0.43950 0.32100
v 0.35450 -0.43950 0.32100
v 0.06450 -0.44150 -0.18200
v 0.06450 -0.44150 0.09800
v 0.07550 -0.44250 -0.13700
v 0.04050 -0.44250 -0.13700
v -0.04150 -0.44250 -0.13700
v -0.07650 -0.44250 -0.13700
v 0.07550 -0.44250 -0.10200
v 0.04050 -0.44250 -0.10200
v -0.04150 -0.44250 -0.10200
v -0.07650 -0.44250 -0.10200
v 0.04850 -0.44450 -0.18200
v -0.05250 -0.44450 -0.18200
v -0.06850 -0.44450 -0.18200
v 0.30150 -0.44450 -0.10900
v 0.04850 -0.44450 0.09800
v -0.05250 -0.44450 0.09800
v -0.06850 -0.44450 0.09800
v 0.06450 -0.44750 -0.18200
v 0.53550 -0.44750 -0.04900
v 0.48350 -0.44750 -0.04900
v 0.53550 -0.44750 0.04100
v 0.48350 -0.44750 0.04100
v 0.06450 -0.44750 0.09800
v -0.27850 -0.44750 0.29100
v -0.47950 -0.44750 0.29100
v -0.27950 -0.44750 0.29200
v -0.27750 -0.44850 -0.01300
v -0.48050 -0.44850 -0.01100
v 0.47250 -0.44850 0.17700
v -0.27550 -0.44850 0.29100
v -0.27750 -0.44850 0.29100
v -0.47950 -0.44850 0.29100
v -0.48150 -0.44850 0.29100
v -0.27250 -0.44950 -0.01300
v -0.48350 -0.44950 -0.01300
v 0.43950 -0.44950 0.16700
v 0.47350 -0.44950 0.17500
v 0.31450 -0.45050 -0.09600
v 0.30650 -0.45050 -0.09600
v 0.32050 -0.45050 -0.08700
v 0.30050 -0.45050 -0.08700
v -0.27250 -0.45050 -0.01800
v -0.48450 -0.45050 -0.01800
v -0.27150 -0.45050 -0.01600
v -0.27150 -0.45050 -0.01400
v 0.46150 -0.45050 0.15500
v 0.45950 -0.45050 0.15500
v 0.43950 -0.45050 0.16900
v 0.47350 -0.45050 0.17500
v 0.45150 -0.45050 0.18800
v 0.45050 -0.45050 0.18800
v -0.26950 -0.45150 -0.00600
v -0.48750 -0.45150 -0.00600
v -0.26950 -0.45150 0.29500
v -0.26950 -0.45150 0.30200
v -0.48750 -0.45150 0.30200
v 0.05650 -0.45250 -0.18200
v -0.06050 -0.45250 -0.18200
v 0.05650 -0.45250 0.09800
v -0.06050 -0.45250 0.09800
v 0.31050 -0.45350 -0.10400
v 0.31050 -0.45350 -0.06900
v 0.04850 -0.46450 -0.04800
v -0.03350 -0.46450 -0.04800
v 0.04850 -0.46450 -0.03100
v -0.03350 -0.46450 -0.03100
v -0.30150 -0.48350 -0.01300
v -0.30050 -0.48350 0.29100
v -0.30150 -0.48350 0.29100
v -0.45550 -0.48350 0.29100
v -0.45650 -0.48350 0.29100
v -0.29950 -0.48550 0.29100
v -0.45750 -0.48550 0.29100
v -0.29750 -0.48750 -0.01800
v -0.45950 -0.48750 -0.01800
v -0.29650 -0.48750 -0.01400
v -0.45950 -0.48750 -0.01300
v -0.29550 -0.48950 -0.00600
v -0.46150 -0.48950 -0.00600
v -0.29450 -0.48950 0.29500
v -0.29450 -0.48950 0.30200
v -0.46250 -0.48950 0.30200
v -0.29450 -0.49050 0.29700
v -0.46250 -0.49050 0.29700
v 0.30150 -0.49150 -0.10900
v 0.46150 -0.49550 0.15500
v 0.45950 -0.49550 0.15500
v 0.44050 -0.49550 0.16600
v 0.43950 -0.49550 0.16900
v 0.47250 -0.49550 0.17700
v 0.45050 -0.49550 0.18800
v 0.45250 -0.49550 0.18900
v 0.47350 -0.49650 0.17500
v -0.33650 -0.50650 -0.01300
v -0.33650 -0.50750 0.29100
v -0.42050 -0.50750 0.29100
v 0.31450 -0.50850 -0.09600
v 0.30650 -0.50850 -0.09600
v 0.32050 -0.50850 -0.08700
v 0.30050 -0.50850 -0.08700
v 0.48050 -0.50950 0.19600
v 0.46050 -0.50950 0.19600
v 0.47450 -0.50950 0.20500
v 0.46650 -0.50950 0.20500
v -0.33550 -0.50950 0.28900
v -0.42150 -0.50950 0.28900
v -0.33550 -0.50950 0.29100
v -0.33450 -0.51250 -0.01800
v -0.42250 -0.51250 -0.01800
v -0.33450 -0.51250 -0.01400
v -0.42250 -0.51250 -0.01400
v -0.33350 -0.51450 -0.00600
v -0.42350 -0.51450 -0.00600
v -0.37850 -0.51550 0.29100
v -0.33350 -0.51550 0.29500
v -0.33250 -0.51650 0.29700
v -0.42350 -0.51650 0.29700
v -0.37850 -0.51750 0.29000
v -0.37850 -0.52050 -0.01800
v -0.37850 -0.52150 -0.01400
l 8 21
l 21 44
l 25 51
l 49 96
l 96 243
l 97 240
l 141 307
l 142 308
l 146 312
l 147 313
l 186 278
l 191 283
l 193 285
l 195 287
l 201 293
l 204 295
l 220 257
l 222 261
l 230 268
l 232 271
l 233 272
l 239 387
l 240 386
l 387 429
l 1 11
l 2 13
l 2 14
l 3 15
l 4 18
l 5 23
l 6 20
l 7 23
l 9 28
l 10 30
l 10 31
l 11 35
l 12 33
l 13 37
l 14 38
l 16 40
l 17 36
l 19 41
l 20 47
l 22 49
l 23 45
l 23 49
l 24 50
l 24 53
l 24 54
l 26 59
l 27 55
l 29 56
l 31 57
l 32 62
l 34 79
l 35 77
l 36 78
l 37 80
l 38 81
l 39 85
l 40 86
l 41 90
l 42 93
l 43 94
l 44 95
l 45 96
l 46 90
l 47 91
l 47 92
l 48 97
l 51 103
l 52 101
l 53 102
l 54 102
l 55 106
l 57 109
l 58 112
l 60 110
l 61 114
l 63 453
l 64 454
l 65 455
l 66 456
l 67 68
l 69 70
l 71 72
l 73 75
l 74 76
l 80 251
l 82 87
l 83 88
l 84 89
l 85 245
l 86 246
l 90 236
l 91 235
l 92 237
l 94 238
l 95 240
l 96 239
l 98 99
l 98 104
l 99 105
l 100 234
l 101 235
l 103 244
l 104 105
l 107 111
l 108 241
l 109 242
l 112 248
l 113 248
l 114 250
l 115 300
l 116 127
l 117 128
l 118 129
l 119 355
l 120 356
l 121 357
l 122 358
l 123 359
l 124 360
l 125 361
l 126 362
l 130 133
l 131 132
l 132 135
l 134 135
l 136 137
l 138 143
l 139 306
l 140 413
l 141 142
l 143 309
l 144 149
l 144 310
l 145 148
l 146 147
l 148 151
l 150 414
l 151 154
l 152 153
l 152 161
l 153 162
l 154 158
l 155 156
l 155 157
l 157 159
l 158 326
l 159 160
l 160 328
l 161 162
l 163 166
l 164 167
l 165 168
l 169 173
l 170 174
l 171 175
l 172 279
l 176 181
l 177 178
l 178 183
l 179 281
l 180 296
l 182 183
l 184 277
l 185 302
l 187 303
l 188 280
l 189 281
l 189 282
l 190 282
l 192 284
l 194 286
l 196 288
l 197 289
l 198 290
l 199 291
l 200 292
l 202 294
l 202 297
l 203 292
l 203 295
l 205 296
l 206 297
l 207 298
l 208 299
l 209 210
l 211 275
l 212 276
l 213 273
l 214 274
l 215 253
l 216 254
l 217 255
l 218 256
l 219 260
l 221 259
l 222 258
l 223 262
l 224 263
l 225 264
l 226 265
l 227 265
l 228 266
l 229 265
l 230 267
l 231 269
l 232 270
l 236 394
l 237 395
l 238 396
l 240 396
l 240 397
l 244 380
l 245 404
l 246 405
l 247 382
l 248 376
l 248 383
l 249 384
l 250 378
l 252 408
l 301 304
l 305 309
l 307 308
l 310 315
l 311 314
l 312 313
l 314 318
l 316 317
l 317 330
l 318 319
l 319 326
l 320 321
l 320 325
l 322 324
l 323 324
l 325 327
l 327 328
l 329 330
l 331 332
l 333 337
l 334 338
l 335 339
l 336 340
l 341 347
l 342 348
l 343 344
l 343 345
l 344 346
l 345 346
l 349 350
l 350 352
l 351 352
l 353 354
l 363 367
l 364 368
l 365 369
l 366 437
l 370 375
l 371 372
l 371 373
l 372 374
l 373 374
l 376 421
l 377 422
l 379 419
l 381 442
l 383 420
l 384 423
l 385 425
l 388 440
l 389 445
l 390 449
l 391 450
l 392 451
l 393 452
l 394 426
l 395 427
l 397 428
l 398 438
l 399 439
l 400 441
l 401 445
l 402 444
l 403 443
l 404 430
l 405 431
l 406 432
l 407 433
l 408 434
l 409 411
l 410 412
l 415 416
l 417 418
l 419 446
l 420 447
l 423 448
l 424 459
l 426 460
l 427 461
l 428 462
l 429 463
l 430 464
l 431 465
l 432 467
l 435 468
l 436 469
l 447 466
l 457 470
l 458 470
l 460 471
l 462 472
l 463 472
