# feature-edge wireframe (30 derece), ISO 8855, metre
o wheel_8_wire
v -0.38450 0.53250 0.29700
v -0.38450 0.53150 0.30200
v -0.38450 0.53050 -0.00600
v -0.38450 0.52850 -0.01600
v -0.38450 0.52850 -0.01400
v -0.38450 0.52750 -0.01800
v -0.38450 0.52750 -0.01300
v -0.38450 0.52650 -0.01200
v -0.38450 0.52550 -0.01100
v -0.38450 0.52450 -0.01200
v -0.43050 0.52350 0.29700
v -0.33950 0.52250 0.30200
v -0.42950 0.52250 0.30200
v -0.38450 0.52150 -0.02000
v -0.33950 0.52150 -0.00600
v -0.42950 0.52150 -0.00600
v -0.38450 0.52050 0.29200
v -0.34050 0.51950 -0.01800
v -0.42850 0.51950 -0.01800
v -0.34050 0.51950 -0.01600
v -0.34050 0.51850 -0.01300
v -0.34150 0.51850 -0.01300
v -0.42850 0.51850 -0.01300
v -0.34150 0.51650 -0.01900
v -0.34250 0.51650 -0.01200
v -0.42750 0.51650 -0.01200
v -0.34150 0.51650 -0.01100
v -0.42750 0.51650 -0.01100
v 0.47450 0.51650 0.19600
v 0.45450 0.51650 0.19600
v 0.46850 0.51650 0.20500
v 0.46050 0.51650 0.20500
v -0.34250 0.51650 0.29100
v 0.30050 0.51550 -0.09600
v 0.31150 0.51550 -0.09400
v 0.29450 0.51550 -0.08700
v 0.31350 0.51550 -0.08300
v 0.30450 0.51550 -0.07700
v -0.34250 0.51550 -0.02000
v -0.42750 0.51550 -0.02000
v -0.42650 0.51450 -0.01100
v -0.34350 0.51250 -0.01300
v -0.34350 0.51250 -0.01000
v -0.42650 0.51250 0.29200
v -0.34350 0.51150 0.29200
v 0.45550 0.50350 0.15600
v 0.46650 0.50350 0.17500
v 0.46650 0.50350 0.17700
v 0.44750 0.50350 0.18800
v 0.44450 0.50350 0.18800
v 0.45350 0.50250 0.15500
v 0.43450 0.50250 0.16600
v 0.43350 0.50250 0.16900
v 0.46650 0.50250 0.17500
v 0.44450 0.50250 0.18800
v 0.31350 0.49850 -0.10900
v 0.29450 0.49850 -0.10900
v -0.30050 0.49750 0.29700
v -0.30150 0.49650 -0.00600
v -0.46850 0.49650 -0.00600
v -0.30150 0.49650 0.29500
v -0.46850 0.49650 0.29500
v -0.30150 0.49650 0.30200
v -0.46850 0.49650 0.30200
v -0.30350 0.49450 -0.01800
v -0.46550 0.49450 -0.01800
v -0.46650 0.49450 -0.01700
v -0.46650 0.49450 -0.01500
v -0.30350 0.49450 -0.01400
v -0.46550 0.49450 -0.01400
v -0.46650 0.49450 0.30400
v -0.30450 0.49350 -0.01300
v -0.30550 0.49250 -0.01900
v -0.30550 0.49250 -0.01100
v -0.46350 0.49250 -0.01100
v -0.46350 0.49150 -0.01200
v -0.46250 0.49150 0.29000
v -0.30550 0.49150 0.29100
v -0.46250 0.49050 -0.01300
v -0.46250 0.49050 -0.01100
v -0.46150 0.48950 -0.02000
v -0.30850 0.48950 -0.01300
v -0.30850 0.48950 -0.01000
v -0.30850 0.48950 0.29200
v 0.50350 0.48850 -0.01500
v 0.50350 0.48850 0.00500
v 0.04150 0.47050 -0.04800
v -0.03950 0.47050 -0.04800
v 0.04150 0.47050 -0.03100
v -0.03950 0.47050 -0.03100
v -0.03950 0.47050 -0.03000
v 0.04150 0.46950 -0.04900
v -0.03950 0.46950 -0.04900
v 0.04150 0.46950 -0.03000
v 0.30450 0.46050 -0.10400
v 0.31650 0.46050 -0.09900
v 0.29150 0.46050 -0.09900
v 0.32150 0.46050 -0.08700
v 0.28650 0.46050 -0.08700
v 0.31650 0.46050 -0.07400
v 0.29150 0.46050 -0.07400
v 0.30450 0.46050 -0.06900
v 0.05050 0.45950 -0.18200
v -0.06650 0.45950 -0.18200
v 0.05050 0.45950 0.09800
v -0.06650 0.45950 0.09800
v -0.27650 0.45850 -0.00600
v -0.49350 0.45850 -0.00600
v -0.27550 0.45850 0.29500
v -0.49350 0.45850 0.29500
v -0.27450 0.45850 0.29700
v -0.49450 0.45850 0.30200
v 0.30050 0.45750 -0.09600
v 0.31150 0.45750 -0.09400
v 0.29450 0.45750 -0.08700
v 0.31350 0.45750 -0.08300
v 0.30450 0.45750 -0.07700
v -0.27850 0.45750 -0.01800
v -0.49050 0.45750 -0.01800
v -0.49150 0.45750 -0.01700
v -0.49150 0.45750 -0.01500
v -0.49050 0.45750 -0.01400
v 0.45550 0.45750 0.15500
v 0.45350 0.45750 0.15500
v 0.43450 0.45750 0.16600
v 0.43350 0.45750 0.16800
v 0.46650 0.45750 0.17500
v 0.44450 0.45750 0.18800
v -0.49150 0.45750 0.30400
v -0.27950 0.45650 -0.01300
v -0.28150 0.45650 -0.01100
v 0.44550 0.45650 0.18800
v -0.48650 0.45550 -0.01100
v 0.46650 0.45550 0.17600
v -0.48750 0.45550 0.28900
v -0.28350 0.45550 0.29100
v -0.48650 0.45550 0.29100
v -0.07450 0.45450 -0.18200
v 0.52950 0.45450 -0.04900
v 0.47650 0.45450 -0.04900
v -0.28450 0.45450 -0.01300
v -0.48550 0.45450 -0.01300
v -0.28450 0.45450 -0.01000
v 0.52950 0.45450 0.04100
v 0.47650 0.45450 0.04100
v -0.07450 0.45450 0.09800
v -0.28650 0.45450 0.29200
v 0.05850 0.45150 -0.18200
v 0.04250 0.45150 -0.18200
v -0.05850 0.45150 -0.18200
v 0.31350 0.45150 -0.10900
v 0.29450 0.45150 -0.10900
v 0.05850 0.45150 0.09800
v 0.04250 0.45150 0.09800
v -0.05850 0.45150 0.09800
v 0.06950 0.44950 -0.13700
v 0.03450 0.44950 -0.13700
v -0.04850 0.44950 -0.13700
v -0.08250 0.44950 -0.13700
v 0.06950 0.44950 -0.10200
v 0.03450 0.44950 -0.10200
v -0.04850 0.44950 -0.10200
v -0.08250 0.44950 -0.10200
v -0.07450 0.44850 -0.18200
v -0.07450 0.44850 0.09800
v 0.55950 0.44650 -0.06700
v 0.42850 0.44650 -0.06700
v 0.55950 0.44650 0.32100
v 0.34750 0.44650 0.32100
v 0.05650 0.44550 -0.18200
v 0.04450 0.44550 -0.18200
v 0.52950 0.44550 -0.04900
v 0.47650 0.44550 -0.04900
v 0.52950 0.44550 0.04100
v 0.47650 0.44550 0.04100
v 0.05650 0.44550 0.09800
v 0.04450 0.44550 0.09800
v 0.05350 0.44350 -0.18200
v 0.04750 0.44350 -0.18200
v -0.06350 0.44350 -0.18200
v -0.06950 0.44350 -0.18200
v 0.05350 0.44350 0.09800
v 0.04750 0.44350 0.09800
v -0.06350 0.44350 0.09800
v -0.06950 0.44350 0.09800
v -0.20850 0.44050 -0.10800
v -0.19650 0.44050 -0.10700
v -0.09650 0.44050 -0.10400
v 0.31050 0.44050 -0.10100
v -0.45850 0.44050 -0.09600
v -0.45850 0.44050 -0.08300
v -0.14350 0.44050 -0.07700
v 0.31050 0.44050 -0.07500
v -0.09650 0.44050 -0.07500
v 0.13950 0.44050 -0.07300
v -0.20850 0.44050 -0.07200
v 0.55850 0.44050 -0.06700
v 0.42850 0.44050 -0.06700
v 0.28850 0.44050 -0.05900
v 0.40950 0.44050 -0.04300
v 0.13950 0.44050 -0.03900
v -0.14350 0.44050 -0.03900
v 0.28850 0.44050 -0.02900
v 0.52350 0.44050 -0.02800
v 0.40950 0.44050 -0.01600
v 0.52350 0.44050 -0.00100
v 0.55850 0.44050 0.32100
v 0.34750 0.44050 0.32100
v -0.08150 0.43850 -0.05800
v -0.03950 0.43850 -0.04900
v -0.05650 0.43850 -0.04900
v -0.04150 0.43850 -0.02800
v -0.05850 0.43850 -0.02800
v 0.08650 0.43750 -0.06000
v 0.08750 0.43750 -0.05900
v 0.05950 0.43750 -0.05000
v -0.08250 0.43750 -0.04800
v -0.03950 0.43750 -0.03000
v 0.48050 0.43750 0.21200
v 0.56950 0.43650 -0.06700
v 0.06050 0.43650 -0.06000
v -0.07550 0.43650 -0.06000
v -0.07950 0.43650 -0.06000
v -0.07450 0.43650 -0.05900
v -0.07450 0.43650 -0.05100
v 0.05850 0.43650 -0.04900
v -0.03950 0.43650 -0.04900
v -0.05650 0.43650 -0.04900
v -0.07250 0.43650 -0.04900
v -0.08550 0.43650 -0.03100
v 0.05850 0.43650 -0.03000
v -0.03950 0.43650 -0.03000
v -0.06050 0.43650 -0.03000
v -0.07250 0.43650 -0.03000
v -0.04150 0.43650 -0.02800
v -0.05850 0.43650 -0.02800
v -0.07450 0.43650 -0.02800
v -0.08650 0.43650 -0.02800
v -0.04250 0.43650 -0.02700
v -0.07450 0.43650 -0.02700
v -0.07550 0.43650 -0.02700
v 0.09650 0.43650 -0.02600
v 0.05950 0.43650 -0.02600
v 0.56950 0.43650 0.32100
v 0.56350 0.43550 -0.06700
v 0.56350 0.43550 0.32100
v 0.06450 0.43350 0.10600
v -0.08150 0.43350 0.10600
v -0.08550 0.43350 0.11200
v 0.05550 0.43350 0.11800
v 0.05450 0.43350 0.11800
v 0.04550 0.43350 0.11800
v -0.06350 0.43350 0.11800
v -0.07250 0.43350 0.11800
v -0.06050 0.43350 0.11900
v 0.04050 0.43350 0.13000
v -0.05750 0.43350 0.13000
v -0.07550 0.43350 0.13000
v 0.06250 0.43350 0.13100
v -0.05650 0.43350 0.13100
v -0.07950 0.43350 0.13100
v -0.49550 0.41350 -0.02000
v -0.26950 0.41350 -0.01800
v -0.49850 0.41350 -0.01800
v -0.49950 0.41350 -0.01800
v -0.50050 0.41350 -0.01600
v -0.26950 0.41350 -0.01400
v -0.50050 0.41350 -0.01400
v -0.49950 0.41350 -0.01300
v -0.27150 0.41350 -0.01200
v -0.27250 0.41350 -0.01100
v -0.49650 0.41350 -0.01100
v -0.50250 0.41350 -0.00600
v -0.49550 0.41350 0.29000
v -0.27650 0.41350 0.29100
v -0.49650 0.41350 0.29100
v -0.27650 0.41350 0.29200
v -0.26650 0.41350 0.30200
v -0.50350 0.41350 0.30200
v 0.04650 0.39350 0.11800
v -0.06250 0.39350 0.11800
v -0.07350 0.39350 0.11900
v 0.05650 0.39350 0.12000
v -0.06050 0.39350 0.12000
v -0.07550 0.39350 0.12900
v 0.06450 0.39350 0.13100
v -0.05750 0.39350 0.13100
v -0.07750 0.39350 0.13100
v -0.08150 0.39350 0.13100
v -0.05650 0.39350 0.13200
v 0.06450 0.39250 0.10600
v -0.08050 0.39250 0.10700
v -0.08550 0.39250 0.11200
v 0.03950 0.39250 0.13000
v 0.56350 0.38850 -0.06700
v 0.56350 0.38850 0.32100
v 0.56950 0.38750 -0.06700
v 0.56950 0.38750 0.32100
v 0.56150 0.38350 -0.06700
v 0.55850 0.38350 -0.06700
v 0.42850 0.38350 -0.06700
v 0.08550 0.38350 -0.06000
v 0.06150 0.38350 -0.06000
v -0.07550 0.38350 -0.06000
v -0.07950 0.38350 -0.06000
v 0.08750 0.38350 -0.05800
v -0.07450 0.38350 -0.05800
v 0.05950 0.38350 -0.05100
v -0.07450 0.38350 -0.05100
v 0.05850 0.38350 -0.04900
v -0.03950 0.38350 -0.04900
v -0.05650 0.38350 -0.04900
v -0.07250 0.38350 -0.04900
v -0.08250 0.38350 -0.04900
v -0.08350 0.38350 -0.04800
v -0.08550 0.38350 -0.03100
v 0.05850 0.38350 -0.03000
v -0.03950 0.38350 -0.03000
v -0.06050 0.38350 -0.03000
v -0.07250 0.38350 -0.03000
v -0.04150 0.38350 -0.02800
v -0.05850 0.38350 -0.02800
v -0.07450 0.38350 -0.02800
v -0.08650 0.38350 -0.02800
v -0.04350 0.38350 -0.02700
v -0.07550 0.38350 -0.02700
v 0.09650 0.38350 -0.02600
v 0.05950 0.38350 -0.02600
v 0.56150 0.38350 0.32100
v 0.55850 0.38350 0.32100
v 0.34750 0.38350 0.32100
v 0.05050 0.38250 -0.18200
v -0.06650 0.38250 -0.18200
v -0.08150 0.38250 -0.05800
v 0.05050 0.38250 0.09800
v -0.06650 0.38250 0.09800
v 0.05650 0.38050 -0.18200
v 0.04450 0.38050 -0.18200
v -0.07250 0.38050 -0.18200
v 0.05650 0.38050 0.09800
v 0.04450 0.38050 0.09800
v -0.07250 0.38050 0.09800
v -0.20850 0.37950 -0.10800
v -0.19650 0.37950 -0.10700
v 0.30450 0.37950 -0.10400
v -0.09650 0.37950 -0.10400
v 0.31050 0.37950 -0.10100
v 0.31650 0.37950 -0.09900
v 0.29150 0.37950 -0.09900
v -0.45850 0.37950 -0.09600
v 0.32150 0.37950 -0.08700
v 0.28650 0.37950 -0.08700
v -0.45850 0.37950 -0.08300
v -0.14350 0.37950 -0.07700
v 0.31050 0.37950 -0.07500
v -0.09650 0.37950 -0.07500
v 0.31650 0.37950 -0.07400
v 0.29150 0.37950 -0.07400
v 0.13950 0.37950 -0.07300
v -0.20850 0.37950 -0.07200
v 0.30450 0.37950 -0.06900
v 0.28850 0.37950 -0.05900
v 0.40950 0.37950 -0.04300
v 0.13950 0.37950 -0.03900
v -0.14350 0.37950 -0.03900
v 0.28850 0.37950 -0.02900
v 0.52350 0.37950 -0.02800
v 0.40950 0.37950 -0.01600
v 0.52350 0.37950 -0.00100
v 0.56450 0.37850 -0.06700
v 0.52950 0.37850 -0.04900
v 0.47750 0.37850 -0.04900
v 0.52950 0.37850 0.04100
v 0.47750 0.37850 0.04100
v 0.56450 0.37850 0.32100
v -0.07450 0.37750 -0.18200
v 0.55950 0.37750 -0.06700
v 0.42850 0.37750 -0.06700
v -0.07450 0.37750 0.09800
v 0.55950 0.37750 0.32100
v 0.34750 0.37750 0.32100
v 0.05850 0.37450 -0.18200
v 0.04250 0.37450 -0.18200
v -0.05850 0.37450 -0.18200
v 0.06950 0.37450 -0.13700
v 0.03450 0.37450 -0.13700
v -0.04850 0.37450 -0.13700
v -0.08250 0.37450 -0.13700
v 0.06950 0.37450 -0.10200
v 0.03450 0.37450 -0.10200
v -0.04850 0.37450 -0.10200
v -0.08250 0.37450 -0.10200
v 0.05850 0.37450 0.09800
v 0.04250 0.37450 0.09800
v -0.05850 0.37450 0.09800
v 0.48050 0.37350 0.21200
v -0.28650 0.37250 0.29200
v -0.07450 0.37150 -0.18200
v -0.48550 0.37150 -0.01300
v -0.07450 0.37150 0.09800
v -0.28350 0.37150 0.29100
v -0.48650 0.37150 0.29100
v -0.48450 0.37150 0.29200
v 0.52950 0.37050 -0.04900
v 0.47750 0.37050 -0.04900
v -0.48750 0.37050 -0.02000
v -0.28150 0.37050 -0.01100
v -0.48850 0.37050 -0.01100
v 0.52950 0.37050 0.04100
v 0.47750 0.37050 0.04100
v -0.28150 0.37050 0.29100
v -0.48750 0.37050 0.29100
v -0.28050 0.36950 -0.01900
v -0.48950 0.36950 -0.01900
v -0.27850 0.36950 -0.01800
v -0.49050 0.36950 -0.01800
v -0.27850 0.36950 -0.01400
v -0.48950 0.36950 -0.01300
v -0.49050 0.36950 -0.01300
v -0.28050 0.36950 -0.01200
v 0.05650 0.36850 -0.18200
v 0.04450 0.36850 -0.18200
v -0.49150 0.36850 -0.01600
v -0.49350 0.36850 -0.00600
v 0.05650 0.36850 0.09800
v 0.04450 0.36850 0.09800
v -0.49350 0.36750 0.29500
v -0.27550 0.36750 0.30200
v -0.49450 0.36750 0.30200
v 0.05350 0.36650 -0.18200
v 0.04750 0.36650 -0.18200
v -0.06350 0.36650 -0.18200
v -0.06950 0.36650 -0.18200
v 0.05350 0.36650 0.09800
v 0.04750 0.36650 0.09800
v -0.06350 0.36650 0.09800
v -0.06950 0.36650 0.09800
v 0.04150 0.35250 -0.04800
v -0.03950 0.35250 -0.04800
v 0.04150 0.35250 -0.03100
v -0.03950 0.35250 -0.03100
v 0.47450 0.33950 0.19600
v 0.45450 0.33950 0.19600
v 0.46850 0.33950 0.20500
v 0.46050 0.33950 0.20500
v 0.50350 0.33750 -0.01500
v 0.50350 0.33750 0.00500
v -0.46050 0.33750 0.29200
v -0.30750 0.33650 0.29100
v -0.46150 0.33650 0.29100
v -0.46250 0.33550 -0.01300
v -0.30750 0.33550 0.29100
v -0.46250 0.33550 0.29100
v -0.30650 0.33450 -0.01100
v -0.46350 0.33450 -0.01100
v -0.30550 0.33450 0.29100
v -0.30450 0.33350 -0.01900
v -0.46450 0.33350 -0.01900
v -0.30450 0.33350 -0.01200
v -0.30350 0.33250 -0.01800
v -0.30350 0.33250 -0.01300
v -0.30450 0.33250 -0.01300
v -0.46650 0.33150 -0.01700
v -0.46650 0.33150 -0.01500
v -0.46550 0.33150 -0.01400
v -0.30150 0.32950 -0.00600
v -0.46850 0.32950 -0.00600
v -0.30150 0.32950 0.29500
v -0.46850 0.32950 0.29500
v -0.30150 0.32950 0.30200
v -0.46850 0.32950 0.30200
v -0.30050 0.32850 0.29700
v -0.42650 0.31250 -0.01300
v -0.34350 0.31250 0.29100
v -0.42650 0.31250 0.29100
v -0.42650 0.31150 0.29100
v -0.42750 0.31050 -0.02000
v -0.34250 0.31050 0.28900
v -0.34250 0.31050 0.29100
v -0.34150 0.30850 -0.01200
v -0.42750 0.30850 -0.01200
v -0.34050 0.30750 -0.01800
v -0.42850 0.30650 -0.01700
v -0.34050 0.30650 -0.01400
v -0.42850 0.30650 -0.01400
v -0.33950 0.30450 -0.00600
v -0.42950 0.30450 -0.00600
v -0.33950 0.30350 0.29500
v -0.42950 0.30350 0.29500
v -0.33950 0.30350 0.29700
v -0.33950 0.30350 0.30200
v -0.42950 0.30350 0.30200
v -0.38450 0.30250 0.29000
v -0.38450 0.30150 0.29100
v -0.38450 0.29850 -0.01800
v -0.38450 0.29750 -0.01400
v -0.38450 0.29550 -0.00600
v -0.38450 0.29450 0.29500
v -0.38450 0.29450 0.30200
l 7 23
l 23 70
l 27 74
l 42 82
l 51 124
l 69 130
l 82 141
l 87 88
l 130 270
l 188 346
l 189 347
l 193 355
l 194 356
l 231 317
l 236 322
l 238 324
l 241 326
l 253 281
l 258 288
l 476 493
l 478 493
l 1 11
l 2 13
l 3 16
l 4 20
l 5 21
l 6 18
l 6 19
l 7 21
l 7 22
l 8 27
l 9 26
l 9 28
l 10 25
l 10 27
l 12 63
l 14 39
l 15 59
l 16 60
l 17 44
l 17 45
l 18 65
l 19 66
l 21 69
l 21 72
l 22 72
l 24 73
l 26 76
l 28 76
l 29 442
l 30 443
l 31 444
l 32 445
l 33 78
l 34 113
l 35 114
l 36 115
l 37 116
l 38 117
l 40 81
l 41 75
l 43 83
l 45 84
l 46 123
l 47 127
l 48 134
l 49 132
l 50 128
l 52 125
l 53 126
l 54 127
l 55 128
l 56 151
l 57 152
l 58 111
l 59 107
l 60 108
l 61 109
l 62 110
l 64 112
l 65 118
l 67 120
l 68 121
l 71 129
l 74 131
l 75 133
l 77 135
l 77 137
l 79 142
l 80 133
l 83 143
l 84 147
l 85 446
l 86 447
l 89 90
l 90 94
l 91 94
l 92 93
l 95 345
l 96 348
l 97 349
l 98 351
l 99 352
l 100 357
l 101 358
l 102 361
l 103 105
l 104 106
l 112 279
l 118 263
l 119 264
l 119 265
l 120 265
l 121 266
l 122 266
l 122 268
l 136 275
l 136 277
l 138 146
l 139 140
l 139 144
l 140 145
l 144 145
l 148 153
l 149 154
l 150 155
l 156 385
l 157 386
l 158 387
l 159 388
l 160 389
l 161 390
l 162 391
l 163 392
l 164 165
l 166 167
l 167 169
l 168 169
l 170 176
l 171 177
l 172 173
l 172 174
l 173 175
l 174 175
l 178 182
l 179 183
l 180 184
l 181 185
l 186 190
l 187 344
l 188 189
l 190 350
l 191 196
l 191 353
l 192 195
l 193 194
l 195 199
l 197 198
l 198 208
l 199 200
l 200 204
l 201 202
l 201 203
l 203 205
l 204 367
l 205 206
l 206 369
l 207 208
l 209 334
l 210 311
l 211 312
l 212 321
l 213 322
l 214 302
l 215 306
l 216 308
l 217 314
l 217 315
l 218 318
l 219 396
l 220 297
l 221 303
l 222 304
l 223 305
l 224 307
l 225 309
l 226 310
l 227 311
l 228 312
l 229 313
l 230 316
l 232 318
l 233 319
l 234 320
l 235 321
l 237 323
l 239 325
l 240 323
l 240 326
l 242 327
l 243 328
l 244 298
l 245 295
l 246 296
l 247 291
l 248 292
l 249 293
l 250 283
l 251 283
l 252 280
l 254 282
l 255 284
l 256 294
l 257 287
l 258 285
l 259 286
l 260 290
l 261 289
l 262 406
l 263 415
l 264 416
l 265 416
l 266 423
l 267 417
l 269 418
l 269 419
l 271 407
l 272 408
l 273 424
l 274 402
l 275 397
l 276 412
l 277 397
l 278 428
l 279 429
l 299 329
l 300 301
l 301 331
l 330 331
l 332 335
l 333 336
l 337 340
l 338 341
l 339 342
l 343 350
l 346 347
l 353 360
l 354 359
l 355 356
l 359 362
l 362 363
l 363 367
l 364 365
l 364 366
l 366 368
l 368 369
l 370 375
l 371 372
l 371 373
l 372 374
l 373 374
l 376 379
l 377 378
l 378 381
l 380 381
l 382 393
l 383 394
l 384 395
l 398 400
l 399 451
l 401 452
l 403 448
l 403 450
l 403 453
l 404 405
l 404 409
l 405 410
l 407 454
l 409 410
l 411 456
l 413 457
l 414 458
l 415 460
l 416 463
l 416 464
l 418 465
l 419 465
l 420 459
l 420 461
l 420 462
l 421 425
l 422 426
l 423 464
l 424 467
l 427 469
l 428 470
l 429 471
l 430 434
l 431 435
l 432 436
l 433 437
l 438 439
l 440 441
l 449 474
l 450 475
l 451 473
l 452 474
l 453 476
l 455 481
l 458 477
l 460 482
l 461 480
l 461 484
l 462 480
l 463 483
l 465 485
l 466 486
l 467 487
l 468 488
l 468 490
l 469 489
l 470 491
l 471 492
l 472 490
l 479 494
l 482 495
l 484 496
l 485 496
l 486 497
l 488 498
l 489 498
l 491 499
l 492 499
