# feature-edge wireframe (30 derece), ISO 8855, metre
o wheel_5_wire
v -0.37850 0.53150 0.30200
v -0.37850 0.53050 -0.00600
v -0.37850 0.52850 -0.01400
v -0.37850 0.52750 -0.01800
v -0.37850 0.52650 -0.01200
v -0.37850 0.52550 -0.01100
v -0.37850 0.52450 -0.01200
v -0.33250 0.52350 0.29700
v -0.42350 0.52350 0.29700
v -0.33350 0.52250 0.29500
v -0.42350 0.52250 0.30200
v -0.33350 0.52150 -0.00600
v -0.42350 0.52150 -0.00600
v -0.37850 0.52150 0.29100
v -0.37850 0.52050 0.29200
v -0.33450 0.51950 -0.01800
v -0.42250 0.51950 -0.01800
v -0.33450 0.51950 -0.01400
v -0.42150 0.51850 -0.01300
v -0.42250 0.51850 -0.01300
v -0.33550 0.51750 -0.01200
v -0.33550 0.51650 -0.01200
v -0.42150 0.51650 -0.01200
v -0.33550 0.51650 -0.01100
v -0.42150 0.51650 -0.01100
v 0.48050 0.51650 0.19600
v 0.46050 0.51650 0.19600
v 0.47450 0.51650 0.20500
v 0.46650 0.51650 0.20500
v -0.33550 0.51650 0.28900
v 0.31450 0.51550 -0.09600
v 0.30650 0.51550 -0.09600
v 0.32050 0.51550 -0.08700
v 0.30050 0.51550 -0.08700
v -0.33750 0.51250 0.29200
v -0.33750 0.51150 0.29200
v -0.41950 0.51150 0.29200
v 0.46150 0.50350 0.15600
v 0.47350 0.50350 0.17500
v 0.47250 0.50350 0.17700
v 0.45950 0.50250 0.15500
v 0.44050 0.50250 0.16600
v 0.43950 0.50250 0.16900
v 0.47350 0.50250 0.17500
v 0.45050 0.50250 0.18800
v 0.31950 0.49850 -0.10900
v 0.30150 0.49850 -0.10900
v -0.29450 0.49750 0.29700
v -0.46250 0.49750 0.29700
v -0.29550 0.49650 -0.00600
v -0.46150 0.49650 -0.00600
v -0.29450 0.49650 0.29500
v -0.29450 0.49650 0.30200
v -0.46250 0.49650 0.30200
v -0.29750 0.49450 -0.01800
v -0.45950 0.49450 -0.01800
v -0.29650 0.49450 -0.01700
v -0.46050 0.49450 -0.01500
v -0.29650 0.49450 -0.01400
v -0.45850 0.49350 -0.01900
v -0.45950 0.49350 -0.01300
v -0.29850 0.49350 -0.01200
v -0.29950 0.49250 -0.01100
v -0.45750 0.49250 -0.01100
v -0.29950 0.49250 0.28900
v -0.29950 0.49150 -0.01200
v -0.45750 0.49150 -0.01200
v -0.29950 0.49150 -0.01100
v -0.45750 0.49150 0.29100
v -0.30150 0.48950 -0.01300
v -0.45550 0.48950 -0.01300
v -0.30250 0.48950 0.29200
v -0.45450 0.48850 0.29200
v -0.03350 0.47050 -0.04900
v 0.04850 0.47050 -0.04800
v 0.04850 0.47050 -0.03100
v -0.03350 0.47050 -0.03100
v 0.04850 0.46950 -0.04900
v -0.03350 0.46950 -0.04900
v 0.04850 0.46950 -0.03000
v -0.03350 0.46950 -0.03000
v 0.31050 0.46050 -0.10400
v 0.31050 0.46050 -0.06900
v 0.05650 0.45950 -0.18200
v -0.06050 0.45950 -0.18200
v 0.05650 0.45950 0.09800
v -0.06050 0.45950 0.09800
v -0.26950 0.45850 -0.00600
v -0.48750 0.45850 -0.00600
v -0.26950 0.45850 0.29500
v -0.26950 0.45850 0.30200
v -0.48750 0.45850 0.30200
v 0.31450 0.45750 -0.09600
v 0.30650 0.45750 -0.09600
v 0.32050 0.45750 -0.08700
v 0.30050 0.45750 -0.08700
v -0.27250 0.45750 -0.01800
v -0.48450 0.45750 -0.01800
v -0.27150 0.45750 -0.01600
v -0.48450 0.45750 -0.01600
v 0.46150 0.45750 0.15500
v 0.45950 0.45750 0.15500
v 0.44050 0.45750 0.16600
v 0.43950 0.45750 0.16900
v 0.47350 0.45750 0.17500
v 0.45050 0.45750 0.18800
v -0.48250 0.45650 -0.01900
v -0.27250 0.45650 -0.01300
v -0.27350 0.45650 -0.01300
v -0.48350 0.45650 -0.01300
v -0.27350 0.45650 -0.01200
v -0.48150 0.45650 -0.01100
v -0.27750 0.45550 -0.01300
v -0.47950 0.45550 -0.01300
v -0.27550 0.45550 -0.01200
v -0.48050 0.45550 -0.01200
v 0.47250 0.45550 0.17600
v -0.27550 0.45550 0.29100
v -0.48150 0.45550 0.29100
v 0.06450 0.45450 -0.18200
v 0.53550 0.45450 -0.04900
v 0.48350 0.45450 -0.04900
v 0.53550 0.45450 0.04100
v 0.48350 0.45450 0.04100
v 0.06450 0.45450 0.09800
v -0.47750 0.45450 0.29200
v 0.04850 0.45150 -0.18200
v -0.05250 0.45150 -0.18200
v -0.06850 0.45150 -0.18200
v 0.31950 0.45150 -0.10900
v 0.30150 0.45150 -0.10900
v 0.04850 0.45150 0.09800
v -0.05250 0.45150 0.09800
v -0.06850 0.45150 0.09800
v 0.07550 0.44950 -0.13700
v 0.04050 0.44950 -0.13700
v -0.04150 0.44950 -0.13700
v -0.07650 0.44950 -0.13700
v 0.07550 0.44950 -0.10200
v 0.04050 0.44950 -0.10200
v -0.04150 0.44950 -0.10200
v -0.07650 0.44950 -0.10200
v 0.06450 0.44850 -0.18200
v 0.06450 0.44850 0.09800
v 0.56550 0.44650 -0.06700
v 0.43450 0.44650 -0.06700
v 0.56550 0.44650 0.32100
v 0.35450 0.44650 0.32100
v -0.05450 0.44550 -0.18200
v -0.06650 0.44550 -0.18200
v 0.53550 0.44550 -0.04900
v 0.48350 0.44550 -0.04900
v 0.53550 0.44550 0.04100
v 0.48350 0.44550 0.04100
v -0.05450 0.44550 0.09800
v -0.06650 0.44550 0.09800
v 0.05950 0.44350 -0.18200
v 0.05350 0.44350 -0.18200
v -0.05750 0.44350 -0.18200
v -0.06350 0.44350 -0.18200
v 0.05950 0.44350 0.09800
v 0.05350 0.44350 0.09800
v -0.05750 0.44350 0.09800
v -0.06350 0.44350 0.09800
v 0.57450 0.44150 -0.06700
v 0.57450 0.44150 0.32100
v -0.20150 0.44050 -0.10800
v -0.19050 0.44050 -0.10700
v -0.08950 0.44050 -0.10400
v 0.31750 0.44050 -0.10100
v -0.45250 0.44050 -0.09600
v -0.45250 0.44050 -0.08300
v -0.13750 0.44050 -0.07700
v 0.31750 0.44050 -0.07500
v -0.08950 0.44050 -0.07500
v 0.14650 0.44050 -0.07300
v -0.20150 0.44050 -0.07200
v 0.56450 0.44050 -0.06700
v 0.43450 0.44050 -0.06700
v 0.29550 0.44050 -0.05900
v 0.41550 0.44050 -0.04300
v 0.14650 0.44050 -0.03900
v -0.13750 0.44050 -0.03900
v 0.29550 0.44050 -0.02900
v 0.52950 0.44050 -0.02800
v 0.41550 0.44050 -0.01600
v 0.52950 0.44050 -0.00100
v 0.56450 0.44050 0.32100
v 0.35450 0.44050 0.32100
v 0.56950 0.43850 -0.06700
v 0.56950 0.43850 0.32100
v 0.09250 0.43750 -0.06000
v -0.07350 0.43750 -0.06000
v 0.06650 0.43750 -0.05900
v 0.06550 0.43750 -0.04900
v 0.45450 0.43750 0.21200
v 0.57550 0.43650 -0.06700
v 0.06750 0.43650 -0.06000
v -0.06750 0.43650 -0.05900
v 0.06650 0.43650 -0.05000
v 0.04950 0.43650 -0.04900
v 0.04850 0.43650 -0.04900
v -0.03350 0.43650 -0.04900
v -0.06650 0.43650 -0.04900
v 0.06450 0.43650 -0.03000
v -0.03350 0.43650 -0.03000
v -0.05350 0.43650 -0.03000
v -0.06650 0.43650 -0.03000
v 0.06650 0.43650 -0.02800
v -0.03550 0.43650 -0.02800
v -0.05250 0.43650 -0.02800
v -0.06750 0.43650 -0.02800
v -0.07950 0.43650 -0.02800
v -0.03650 0.43650 -0.02700
v -0.06850 0.43650 -0.02700
v -0.07850 0.43650 -0.02700
v 0.10250 0.43650 -0.02500
v 0.06650 0.43650 -0.02500
v 0.57550 0.43650 0.32100
v 0.56950 0.43550 -0.06700
v 0.56950 0.43550 0.32100
v 0.07150 0.43450 0.12900
v 0.07050 0.43350 0.10600
v -0.07450 0.43350 0.10600
v -0.07950 0.43350 0.11200
v 0.06050 0.43350 0.11800
v 0.05150 0.43350 0.11800
v -0.05450 0.43350 0.11900
v 0.06650 0.43350 0.13100
v -0.06950 0.43350 0.13100
v -0.04850 0.43350 0.13300
v -0.26350 0.41350 -0.01800
v -0.49350 0.41350 -0.01800
v -0.26250 0.41350 -0.01600
v -0.49350 0.41350 -0.01400
v -0.26450 0.41350 -0.01300
v -0.26850 0.41350 -0.01300
v -0.48750 0.41350 -0.01300
v -0.49250 0.41350 -0.01300
v -0.49050 0.41350 -0.01100
v -0.26050 0.41350 -0.00600
v -0.49650 0.41350 -0.00600
v -0.26650 0.41350 0.29100
v -0.26850 0.41350 0.29100
v -0.26050 0.41350 0.30200
v -0.49650 0.41350 0.30200
v 0.06250 0.39350 0.11800
v 0.05250 0.39350 0.11800
v -0.05550 0.39350 0.11800
v 0.07250 0.39350 0.12900
v 0.06550 0.39350 0.13100
v -0.07050 0.39350 0.13100
v -0.04950 0.39350 0.13200
v -0.07450 0.39250 0.10600
v 0.07050 0.39250 0.10700
v -0.07950 0.39250 0.11200
v 0.56950 0.38850 -0.06700
v 0.56950 0.38850 0.32100
v 0.57550 0.38750 -0.06700
v 0.57550 0.38750 0.32100
v 0.56950 0.38550 -0.06700
v 0.56950 0.38550 0.32100
v 0.56750 0.38350 -0.06700
v 0.56450 0.38350 -0.06700
v 0.43450 0.38350 -0.06700
v 0.09150 0.38350 -0.06000
v 0.06850 0.38350 -0.06000
v 0.06650 0.38350 -0.05800
v -0.06750 0.38350 -0.05800
v 0.06650 0.38350 -0.05100
v 0.06450 0.38350 -0.04900
v -0.06650 0.38350 -0.04900
v 0.06450 0.38350 -0.03000
v -0.03350 0.38350 -0.03000
v -0.05350 0.38350 -0.03000
v -0.06650 0.38350 -0.03000
v -0.07950 0.38350 -0.02900
v 0.06650 0.38350 -0.02800
v -0.03550 0.38350 -0.02800
v -0.05250 0.38350 -0.02800
v -0.06750 0.38350 -0.02800
v -0.07950 0.38350 -0.02800
v -0.03650 0.38350 -0.02700
v -0.06950 0.38350 -0.02700
v -0.07850 0.38350 -0.02700
v 0.10250 0.38350 -0.02600
v 0.06650 0.38350 -0.02600
v 0.56750 0.38350 0.32100
v 0.56450 0.38350 0.32100
v 0.35450 0.38350 0.32100
v 0.05650 0.38250 -0.18200
v -0.06050 0.38250 -0.18200
v 0.57450 0.38250 -0.06700
v -0.05250 0.38250 -0.02800
v 0.05650 0.38250 0.09800
v -0.06050 0.38250 0.09800
v 0.57450 0.38250 0.32100
v -0.07450 0.38150 -0.05900
v 0.06250 0.38050 -0.18200
v -0.05450 0.38050 -0.18200
v -0.06650 0.38050 -0.18200
v 0.06250 0.38050 0.09800
v -0.05450 0.38050 0.09800
v -0.06650 0.38050 0.09800
v -0.20150 0.37950 -0.10800
v -0.19050 0.37950 -0.10700
v 0.31050 0.37950 -0.10400
v -0.08950 0.37950 -0.10400
v 0.31750 0.37950 -0.10100
v -0.45250 0.37950 -0.09600
v -0.45250 0.37950 -0.08300
v -0.13750 0.37950 -0.07700
v 0.31750 0.37950 -0.07500
v -0.08950 0.37950 -0.07500
v 0.14650 0.37950 -0.07300
v -0.20150 0.37950 -0.07200
v 0.31050 0.37950 -0.06900
v 0.29550 0.37950 -0.05900
v 0.41550 0.37950 -0.04300
v 0.14650 0.37950 -0.03900
v -0.13750 0.37950 -0.03900
v 0.29550 0.37950 -0.02900
v 0.52950 0.37950 -0.02800
v 0.41550 0.37950 -0.01600
v 0.52950 0.37950 -0.00100
v 0.57050 0.37850 -0.06700
v 0.53550 0.37850 -0.04900
v 0.48350 0.37850 -0.04900
v 0.53550 0.37850 0.04100
v 0.48350 0.37850 0.04100
v 0.57050 0.37850 0.32100
v 0.06450 0.37750 -0.18200
v 0.56550 0.37750 -0.06700
v 0.43450 0.37750 -0.06700
v 0.06450 0.37750 0.09800
v 0.56550 0.37750 0.32100
v 0.35450 0.37750 0.32100
v 0.04850 0.37450 -0.18200
v -0.05250 0.37450 -0.18200
v -0.06850 0.37450 -0.18200
v 0.07550 0.37450 -0.13700
v 0.04050 0.37450 -0.13700
v -0.04150 0.37450 -0.13700
v -0.07650 0.37450 -0.13700
v 0.07550 0.37450 -0.10200
v 0.04050 0.37450 -0.10200
v -0.04150 0.37450 -0.10200
v -0.07650 0.37450 -0.10200
v 0.04850 0.37450 0.09800
v -0.05250 0.37450 0.09800
v -0.06850 0.37450 0.09800
v 0.45450 0.37350 0.21200
v -0.27950 0.37250 0.29200
v 0.06450 0.37150 -0.18200
v -0.47950 0.37150 -0.01100
v -0.27850 0.37150 -0.01000
v 0.06450 0.37150 0.09800
v -0.27750 0.37150 0.29100
v -0.27850 0.37150 0.29100
v 0.53550 0.37050 -0.04900
v 0.48350 0.37050 -0.04900
v 0.53550 0.37050 0.04100
v 0.48350 0.37050 0.04100
v -0.48250 0.36950 -0.01900
v -0.48450 0.36950 -0.01800
v -0.27250 0.36950 -0.01300
v -0.48350 0.36950 -0.01300
v -0.27350 0.36950 -0.01200
v -0.48250 0.36950 -0.01200
v -0.05450 0.36850 -0.18200
v -0.06650 0.36850 -0.18200
v -0.27150 0.36850 -0.01600
v -0.48450 0.36850 -0.01600
v -0.26950 0.36850 -0.00600
v -0.48750 0.36850 -0.00600
v -0.05450 0.36850 0.09800
v -0.06650 0.36850 0.09800
v -0.26950 0.36750 0.29500
v -0.48750 0.36750 0.29500
v -0.48850 0.36750 0.29700
v -0.26950 0.36750 0.30200
v -0.48750 0.36750 0.30200
v 0.05950 0.36650 -0.18200
v 0.05350 0.36650 -0.18200
v -0.05750 0.36650 -0.18200
v -0.06350 0.36650 -0.18200
v 0.05950 0.36650 0.09800
v 0.05350 0.36650 0.09800
v -0.05750 0.36650 0.09800
v -0.06350 0.36650 0.09800
v 0.04850 0.35250 -0.04800
v -0.03350 0.35250 -0.04800
v 0.04850 0.35250 -0.03100
v -0.03350 0.35250 -0.03100
v 0.48050 0.33950 0.19600
v 0.46050 0.33950 0.19600
v 0.47450 0.33950 0.20500
v 0.46650 0.33950 0.20500
v -0.30250 0.33750 -0.01000
v -0.30250 0.33750 0.29200
v -0.30150 0.33650 -0.01300
v -0.30150 0.33650 0.29100
v -0.45650 0.33550 -0.01300
v -0.45650 0.33550 -0.01100
v -0.30050 0.33550 0.29100
v -0.45650 0.33550 0.29100
v -0.29950 0.33450 -0.01100
v -0.29950 0.33450 0.28900
v -0.45750 0.33450 0.29100
v -0.29850 0.33350 -0.01900
v -0.29950 0.33350 -0.01900
v -0.45850 0.33350 -0.01900
v -0.45850 0.33350 -0.01200
v -0.29750 0.33250 -0.01800
v -0.45950 0.33250 -0.01800
v -0.29750 0.33250 -0.01300
v -0.45850 0.33250 -0.01300
v -0.45950 0.33250 -0.01300
v -0.29650 0.33150 -0.01600
v -0.45950 0.33150 -0.01600
v -0.29550 0.32950 -0.00600
v -0.46150 0.32950 -0.00600
v -0.29450 0.32950 0.29500
v -0.46150 0.32950 0.29500
v -0.29450 0.32950 0.30200
v -0.46250 0.32950 0.30200
v -0.46250 0.32850 0.29700
v -0.33750 0.31450 0.29200
v -0.33650 0.31250 -0.01300
v -0.33650 0.31250 0.29100
v -0.42050 0.31150 -0.01300
v -0.33650 0.31150 0.29000
v -0.42050 0.31150 0.29100
v -0.33550 0.31050 -0.02000
v -0.33650 0.31050 0.29000
v -0.33550 0.31050 0.29100
v -0.42150 0.31050 0.29100
v -0.33550 0.30850 -0.01900
v -0.33450 0.30750 -0.01800
v -0.33450 0.30750 -0.01300
v -0.42150 0.30750 -0.01300
v -0.42250 0.30650 -0.01700
v -0.33450 0.30650 -0.01600
v -0.33450 0.30650 -0.01400
v -0.42250 0.30650 -0.01400
v -0.33350 0.30450 -0.00600
v -0.42350 0.30450 -0.00600
v -0.33350 0.30350 0.29500
v -0.42350 0.30350 0.29500
v -0.33350 0.30350 0.30200
v -0.42350 0.30350 0.30200
v -0.37850 0.30250 0.29000
v -0.37850 0.30150 0.29100
v -0.37850 0.29850 -0.01800
v -0.37850 0.29850 -0.01400
v -0.37850 0.29750 -0.01600
v -0.37850 0.29550 -0.00600
v -0.37850 0.29450 0.29500
v -0.37850 0.29450 0.30200
l 25 64
l 61 110
l 108 236
l 110 239
l 169 308
l 170 309
l 174 313
l 175 314
l 210 279
l 211 280
l 213 277
l 214 283
l 227 248
l 229 251
l 236 368
l 239 367
l 366 416
l 367 418
l 393 394
l 416 440
l 433 452
l 435 452
l 1 11
l 2 13
l 3 18
l 4 16
l 4 17
l 5 19
l 5 20
l 6 23
l 6 25
l 7 22
l 7 24
l 8 48
l 9 49
l 10 52
l 12 50
l 13 51
l 14 35
l 14 36
l 15 36
l 15 37
l 16 55
l 17 56
l 18 59
l 19 61
l 20 61
l 21 63
l 21 68
l 22 63
l 22 66
l 23 67
l 24 63
l 25 67
l 26 395
l 27 396
l 28 397
l 29 398
l 30 65
l 31 93
l 32 94
l 33 95
l 34 96
l 35 72
l 38 101
l 39 105
l 40 117
l 41 102
l 42 103
l 43 104
l 44 105
l 45 106
l 46 130
l 47 131
l 50 88
l 51 89
l 52 90
l 53 91
l 54 92
l 55 97
l 56 98
l 57 99
l 58 100
l 59 108
l 60 107
l 62 108
l 62 109
l 62 111
l 64 112
l 66 115
l 67 116
l 69 119
l 70 113
l 71 114
l 71 116
l 73 126
l 74 75
l 75 79
l 76 77
l 78 79
l 80 81
l 82 307
l 83 317
l 84 86
l 85 87
l 88 241
l 89 242
l 92 246
l 97 232
l 98 233
l 99 234
l 109 236
l 110 235
l 111 236
l 112 240
l 113 237
l 114 238
l 118 243
l 120 125
l 121 122
l 121 123
l 122 124
l 123 124
l 127 132
l 128 133
l 129 134
l 135 341
l 136 342
l 137 343
l 138 344
l 139 345
l 140 346
l 141 347
l 142 348
l 143 144
l 145 146
l 146 148
l 147 148
l 149 155
l 150 156
l 151 152
l 151 153
l 152 154
l 153 154
l 157 161
l 158 162
l 159 163
l 160 164
l 165 166
l 167 171
l 168 306
l 169 170
l 171 310
l 172 177
l 172 311
l 173 176
l 174 175
l 176 180
l 178 179
l 179 189
l 180 181
l 181 185
l 182 183
l 182 184
l 184 186
l 185 323
l 186 187
l 187 325
l 188 189
l 190 191
l 192 266
l 193 298
l 194 268
l 195 271
l 196 352
l 197 259
l 198 267
l 199 269
l 200 270
l 201 203
l 202 203
l 204 272
l 205 273
l 206 274
l 207 275
l 208 276
l 209 278
l 211 294
l 212 281
l 213 282
l 215 284
l 216 285
l 217 286
l 218 287
l 219 260
l 220 257
l 221 258
l 222 250
l 223 255
l 224 254
l 225 256
l 226 247
l 228 249
l 230 252
l 231 253
l 233 365
l 234 372
l 241 374
l 242 375
l 244 358
l 244 359
l 245 381
l 261 262
l 263 288
l 264 265
l 265 290
l 289 290
l 291 295
l 292 296
l 293 297
l 299 302
l 300 303
l 301 304
l 305 310
l 308 309
l 311 316
l 312 315
l 313 314
l 315 318
l 318 319
l 319 323
l 320 321
l 320 322
l 322 324
l 324 325
l 326 331
l 327 328
l 327 329
l 328 330
l 329 330
l 332 335
l 333 334
l 334 337
l 336 337
l 338 349
l 339 350
l 340 351
l 353 400
l 354 357
l 355 404
l 356 399
l 358 405
l 359 402
l 360 361
l 360 362
l 361 363
l 362 363
l 364 412
l 365 415
l 367 417
l 368 407
l 369 413
l 370 376
l 371 377
l 372 419
l 373 420
l 374 421
l 375 422
l 378 423
l 379 424
l 380 427
l 381 425
l 382 426
l 383 387
l 384 388
l 385 389
l 386 390
l 391 392
l 400 428
l 401 429
l 403 431
l 405 430
l 406 433
l 408 432
l 408 435
l 409 437
l 410 438
l 411 434
l 411 438
l 414 439
l 417 441
l 418 441
l 418 445
l 419 443
l 420 442
l 421 446
l 422 447
l 423 448
l 425 450
l 426 451
l 427 449
l 436 453
l 439 454
l 443 456
l 444 455
l 446 457
l 448 458
l 449 458
l 450 459
l 451 459
