# feature-edge wireframe (30 derece), ISO 8855, metre
o wheel_6_wire
v -0.37700 -0.28750 0.30200
v -0.37700 -0.28850 -0.00600
v -0.37700 -0.29050 -0.01600
v -0.37700 -0.29150 -0.01800
v -0.37700 -0.29150 -0.01300
v -0.37700 -0.29250 -0.01300
v -0.37700 -0.29450 0.29100
v -0.37700 -0.29650 -0.01300
v -0.33100 -0.29650 0.30200
v -0.42200 -0.29650 0.30200
v -0.33200 -0.29750 -0.00600
v -0.42200 -0.29750 -0.00600
v -0.33100 -0.29750 0.29500
v -0.42200 -0.29750 0.29500
v -0.37700 -0.29850 0.29200
v -0.33300 -0.29950 -0.01600
v -0.42100 -0.29950 -0.01600
v -0.33300 -0.29950 -0.01400
v -0.42100 -0.29950 -0.01400
v -0.42100 -0.29950 0.30400
v -0.33300 -0.30050 -0.01800
v -0.42100 -0.30050 -0.01800
v -0.33300 -0.30050 -0.01300
v -0.42000 -0.30050 -0.01300
v -0.33300 -0.30150 -0.01900
v -0.42000 -0.30150 -0.01200
v -0.33400 -0.30350 -0.01100
v -0.33400 -0.30350 0.29100
v -0.33500 -0.30450 -0.01300
v -0.41900 -0.30450 -0.01300
v -0.33600 -0.30650 0.29200
v -0.46100 -0.32150 0.29900
v -0.29300 -0.32250 0.29500
v -0.46000 -0.32250 0.29500
v -0.29300 -0.32250 0.30200
v -0.46000 -0.32250 0.30200
v -0.46000 -0.32350 -0.00600
v -0.45800 -0.32450 -0.01700
v -0.29500 -0.32450 -0.01600
v -0.29500 -0.32450 -0.01400
v -0.45800 -0.32450 0.30400
v -0.29600 -0.32550 -0.01800
v -0.45800 -0.32550 -0.01800
v -0.29600 -0.32550 -0.01300
v -0.45700 -0.32550 -0.01300
v -0.45800 -0.32550 -0.01300
v -0.29700 -0.32650 -0.01200
v -0.29700 -0.32650 -0.01100
v -0.29800 -0.32650 -0.01100
v -0.45600 -0.32650 -0.01100
v -0.29800 -0.32750 -0.02000
v -0.29800 -0.32750 -0.01900
v -0.29900 -0.32850 -0.01300
v -0.45400 -0.32850 -0.01300
v -0.30100 -0.32950 0.29200
v 0.51100 -0.33050 -0.01500
v 0.51100 -0.33050 0.00500
v 0.47200 -0.33250 0.18600
v 0.46300 -0.33250 0.19200
v 0.48200 -0.33250 0.19600
v 0.46500 -0.33250 0.20300
v 0.47600 -0.33250 0.20500
v 0.05000 -0.34550 -0.04800
v -0.03200 -0.34550 -0.04800
v 0.05000 -0.34550 -0.03100
v -0.03200 -0.34550 -0.03100
v 0.05900 -0.35950 -0.18200
v -0.05900 -0.35950 -0.18200
v 0.05900 -0.35950 0.09800
v -0.05900 -0.35950 0.09800
v -0.26700 -0.36050 0.29500
v -0.48600 -0.36050 0.29500
v -0.48700 -0.36050 0.29900
v -0.26700 -0.36050 0.30200
v -0.05300 -0.36150 -0.18200
v -0.48500 -0.36150 -0.00600
v -0.05300 -0.36150 0.09800
v -0.27100 -0.36250 -0.01800
v -0.48300 -0.36250 -0.01800
v -0.48300 -0.36250 -0.01700
v -0.27000 -0.36250 -0.01600
v -0.27100 -0.36250 -0.01300
v -0.48200 -0.36250 -0.01300
v 0.53800 -0.36350 -0.04900
v 0.48500 -0.36350 -0.04900
v -0.27400 -0.36350 -0.01200
v -0.27500 -0.36350 -0.01200
v -0.47900 -0.36350 -0.01200
v -0.48000 -0.36350 -0.01200
v -0.27400 -0.36350 -0.01100
v -0.48000 -0.36350 -0.01100
v 0.53800 -0.36350 0.04100
v 0.48500 -0.36350 0.04100
v -0.47900 -0.36350 0.29000
v -0.05100 -0.36450 -0.18200
v -0.27600 -0.36450 -0.02000
v -0.27500 -0.36450 -0.01100
v -0.05100 -0.36450 0.09800
v -0.47600 -0.36550 0.29200
v 0.45600 -0.36650 0.21200
v 0.06700 -0.36750 -0.18200
v 0.05000 -0.36750 -0.18200
v -0.06700 -0.36750 -0.18200
v 0.07700 -0.36750 -0.13700
v 0.04200 -0.36750 -0.13700
v -0.04000 -0.36750 -0.13700
v -0.07500 -0.36750 -0.13700
v 0.07700 -0.36750 -0.10200
v 0.04200 -0.36750 -0.10200
v -0.04000 -0.36750 -0.10200
v -0.07500 -0.36750 -0.10200
v 0.06700 -0.36750 0.09800
v 0.05000 -0.36750 0.09800
v -0.06700 -0.36750 0.09800
v -0.05100 -0.37050 -0.18200
v 0.56700 -0.37050 -0.06700
v 0.43600 -0.37050 -0.06700
v -0.05100 -0.37050 0.09800
v 0.56700 -0.37050 0.32100
v 0.35600 -0.37050 0.32100
v 0.57200 -0.37150 -0.06700
v 0.57200 -0.37150 0.32100
v -0.20000 -0.37250 -0.10800
v 0.31200 -0.37250 -0.10400
v -0.08800 -0.37250 -0.10400
v 0.31900 -0.37250 -0.10100
v -0.45100 -0.37250 -0.09600
v -0.45100 -0.37250 -0.08300
v -0.13600 -0.37250 -0.07700
v 0.31900 -0.37250 -0.07500
v -0.08800 -0.37250 -0.07500
v 0.14800 -0.37250 -0.07300
v -0.20000 -0.37250 -0.07200
v 0.31200 -0.37250 -0.06900
v 0.29700 -0.37250 -0.05900
v 0.53800 -0.37250 -0.04900
v 0.48500 -0.37250 -0.04900
v 0.41800 -0.37250 -0.04300
v 0.14800 -0.37250 -0.03900
v -0.13600 -0.37250 -0.03900
v 0.29700 -0.37250 -0.02900
v 0.53100 -0.37250 -0.02800
v 0.41800 -0.37250 -0.01600
v 0.53100 -0.37250 -0.00100
v 0.53800 -0.37250 0.04100
v 0.48500 -0.37250 0.04100
v -0.05300 -0.37350 -0.18200
v -0.05300 -0.37350 0.09800
v 0.05900 -0.37550 -0.18200
v -0.05900 -0.37550 -0.18200
v 0.57600 -0.37550 -0.06700
v -0.07400 -0.37550 -0.05100
v 0.05000 -0.37550 -0.04900
v 0.07000 -0.37550 -0.02500
v 0.05900 -0.37550 0.09800
v -0.05900 -0.37550 0.09800
v 0.57600 -0.37550 0.32100
v 0.56900 -0.37650 -0.06700
v 0.56600 -0.37650 -0.06700
v 0.43600 -0.37650 -0.06700
v -0.07700 -0.37650 -0.02700
v 0.56900 -0.37650 0.32100
v 0.56600 -0.37650 0.32100
v 0.35600 -0.37650 0.32100
v -0.06700 -0.37750 -0.06000
v -0.07100 -0.37750 -0.06000
v 0.06800 -0.37750 -0.05900
v 0.09600 -0.37750 -0.05800
v -0.06600 -0.37750 -0.05100
v 0.06800 -0.37750 -0.05000
v 0.05000 -0.37750 -0.04900
v -0.06400 -0.37750 -0.04900
v 0.06600 -0.37750 -0.03000
v -0.03200 -0.37750 -0.03000
v -0.05200 -0.37750 -0.03000
v -0.06400 -0.37750 -0.03000
v 0.06800 -0.37750 -0.02900
v -0.05000 -0.37750 -0.02800
v -0.06600 -0.37750 -0.02800
v -0.07800 -0.37750 -0.02800
v -0.04900 -0.37750 -0.02700
v 0.10400 -0.37750 -0.02600
v 0.06800 -0.37750 -0.02600
v 0.10300 -0.37750 -0.02500
v 0.07000 -0.37750 -0.02500
v 0.57100 -0.37850 -0.06700
v 0.57100 -0.37850 0.32100
v 0.57700 -0.38050 -0.06700
v 0.57700 -0.38050 0.32100
v 0.57100 -0.38150 -0.06700
v 0.57100 -0.38150 0.32100
v 0.05200 -0.38550 0.11900
v 0.07200 -0.38650 0.10600
v -0.07300 -0.38650 0.10600
v 0.07700 -0.38650 0.11200
v 0.06300 -0.38650 0.11800
v 0.05500 -0.38650 0.11800
v 0.05300 -0.38650 0.11800
v -0.05400 -0.38650 0.11800
v -0.06500 -0.38650 0.11800
v 0.06500 -0.38650 0.12000
v 0.07700 -0.38650 0.12500
v -0.07800 -0.38650 0.12500
v 0.07400 -0.38650 0.12900
v 0.05000 -0.38650 0.12900
v -0.07400 -0.38650 0.12900
v 0.06700 -0.38650 0.13000
v -0.07400 -0.38650 0.13000
v 0.07200 -0.38650 0.13100
v -0.06900 -0.38650 0.13100
v -0.07100 -0.38650 0.13100
v -0.26200 -0.40650 -0.01800
v -0.49100 -0.40650 -0.01800
v -0.26100 -0.40650 -0.01600
v -0.49200 -0.40650 -0.01600
v -0.26100 -0.40650 -0.01400
v -0.49200 -0.40650 -0.01400
v -0.26200 -0.40650 -0.01300
v -0.48700 -0.40650 -0.01300
v -0.49100 -0.40650 -0.01300
v -0.26500 -0.40650 -0.01200
v -0.48700 -0.40650 -0.01200
v -0.48900 -0.40650 -0.01100
v -0.25900 -0.40650 -0.00600
v -0.49400 -0.40650 -0.00600
v -0.26500 -0.40650 0.29100
v -0.48700 -0.40650 0.29100
v -0.48400 -0.40650 0.29200
v -0.25800 -0.40650 0.29500
v -0.25800 -0.40650 0.30200
v -0.49500 -0.40650 0.30200
v 0.07200 -0.42650 0.10600
v -0.07300 -0.42650 0.10600
v 0.07700 -0.42650 0.11200
v 0.06200 -0.42650 0.11800
v 0.05500 -0.42650 0.11800
v -0.05500 -0.42650 0.11800
v -0.06300 -0.42650 0.11800
v 0.06500 -0.42650 0.12000
v 0.05200 -0.42650 0.12000
v -0.06500 -0.42650 0.12000
v 0.07700 -0.42650 0.12500
v -0.07800 -0.42650 0.12500
v 0.07400 -0.42650 0.12900
v 0.05000 -0.42650 0.12900
v -0.07400 -0.42650 0.12900
v 0.07200 -0.42650 0.13100
v 0.06800 -0.42650 0.13100
v -0.06800 -0.42650 0.13100
v -0.07100 -0.42650 0.13100
v -0.05300 -0.42750 0.11900
v 0.57100 -0.42850 -0.06700
v 0.57100 -0.42850 0.32100
v 0.57700 -0.42950 -0.06700
v 0.57700 -0.42950 0.32100
v -0.07200 -0.43050 -0.06000
v 0.09600 -0.43050 -0.05900
v -0.06600 -0.43050 -0.05900
v -0.06600 -0.43050 -0.05100
v 0.06700 -0.43050 -0.04900
v 0.05000 -0.43050 -0.04900
v -0.06400 -0.43050 -0.04900
v 0.06600 -0.43050 -0.03000
v -0.03200 -0.43050 -0.03000
v -0.05200 -0.43050 -0.03000
v -0.06400 -0.43050 -0.03000
v 0.06800 -0.43050 -0.02800
v -0.05000 -0.43050 -0.02800
v -0.06600 -0.43050 -0.02800
v -0.07800 -0.43050 -0.02800
v -0.05000 -0.43050 -0.02700
v -0.07800 -0.43050 -0.02700
v 0.10400 -0.43050 -0.02600
v 0.06800 -0.43050 -0.02600
v 0.10300 -0.43050 -0.02500
v 0.07000 -0.43050 -0.02500
v 0.45600 -0.43050 0.21200
v 0.57100 -0.43150 -0.06700
v 0.06800 -0.43150 -0.05900
v -0.07400 -0.43150 -0.05100
v 0.06600 -0.43150 -0.03000
v 0.57100 -0.43150 0.32100
v -0.20000 -0.43350 -0.10800
v -0.08800 -0.43350 -0.10400
v 0.31900 -0.43350 -0.10100
v -0.45100 -0.43350 -0.09600
v -0.45100 -0.43350 -0.08300
v -0.13600 -0.43350 -0.07700
v 0.31900 -0.43350 -0.07500
v -0.08800 -0.43350 -0.07500
v 0.14800 -0.43350 -0.07300
v -0.20000 -0.43350 -0.07200
v 0.56600 -0.43350 -0.06700
v 0.43600 -0.43350 -0.06700
v 0.29700 -0.43350 -0.05900
v 0.05000 -0.43350 -0.04900
v -0.03200 -0.43350 -0.04900
v -0.03300 -0.43350 -0.04900
v 0.41800 -0.43350 -0.04300
v 0.14800 -0.43350 -0.03900
v -0.13600 -0.43350 -0.03900
v 0.29700 -0.43350 -0.02900
v 0.53100 -0.43350 -0.02800
v 0.41800 -0.43350 -0.01600
v 0.53100 -0.43350 -0.00100
v 0.56600 -0.43350 0.32100
v 0.35600 -0.43350 0.32100
v 0.57600 -0.43450 -0.06700
v 0.57600 -0.43450 0.32100
v 0.06200 -0.43650 -0.18200
v 0.05500 -0.43650 -0.18200
v -0.05600 -0.43650 -0.18200
v -0.06200 -0.43650 -0.18200
v 0.06200 -0.43650 0.09800
v 0.05500 -0.43650 0.09800
v -0.05600 -0.43650 0.09800
v -0.06200 -0.43650 0.09800
v 0.53700 -0.43850 -0.04900
v 0.48500 -0.43850 -0.04900
v 0.53700 -0.43850 0.04100
v 0.48500 -0.43850 0.04100
v 0.56700 -0.43950 -0.06700
v 0.43600 -0.43950 -0.06700
v 0.56700 -0.43950 0.32100
v 0.35600 -0.43950 0.32100
v -0.05100 -0.44150 -0.18200
v -0.05100 -0.44150 0.09800
v 0.07700 -0.44250 -0.13700
v 0.04200 -0.44250 -0.13700
v -0.04000 -0.44250 -0.13700
v -0.07500 -0.44250 -0.13700
v 0.07700 -0.44250 -0.10200
v 0.04200 -0.44250 -0.10200
v -0.04000 -0.44250 -0.10200
v -0.07500 -0.44250 -0.10200
v 0.06700 -0.44450 -0.18200
v 0.05000 -0.44450 -0.18200
v -0.06700 -0.44450 -0.18200
v 0.32100 -0.44450 -0.10900
v 0.30300 -0.44450 -0.10900
v 0.06700 -0.44450 0.09800
v 0.05000 -0.44450 0.09800
v -0.06700 -0.44450 0.09800
v -0.05100 -0.44750 -0.18200
v 0.53700 -0.44750 -0.04900
v 0.48500 -0.44750 -0.04900
v -0.47700 -0.44750 -0.02000
v -0.47600 -0.44750 -0.01300
v 0.53700 -0.44750 0.04100
v 0.48500 -0.44750 0.04100
v -0.05100 -0.44750 0.09800
v -0.47700 -0.44750 0.29100
v -0.27800 -0.44750 0.29200
v -0.47600 -0.44750 0.29200
v -0.27600 -0.44850 -0.01300
v -0.47900 -0.44850 -0.01200
v -0.27400 -0.44850 -0.01100
v 0.45400 -0.44850 0.18800
v -0.27400 -0.44850 0.29100
v -0.47800 -0.44850 0.29100
v -0.48000 -0.44850 0.29100
v -0.27100 -0.44950 -0.01300
v -0.48200 -0.44950 -0.01300
v -0.48100 -0.44950 -0.01200
v 0.47500 -0.44950 0.17500
v 0.47400 -0.44950 0.17700
v 0.45300 -0.44950 0.18800
v 0.31600 -0.45050 -0.09600
v 0.30800 -0.45050 -0.09600
v 0.32200 -0.45050 -0.08700
v 0.30200 -0.45050 -0.08700
v -0.48300 -0.45050 -0.01800
v -0.27000 -0.45050 -0.01700
v -0.48300 -0.45050 -0.01600
v -0.27000 -0.45050 -0.01500
v -0.27100 -0.45050 -0.01400
v 0.46300 -0.45050 0.15500
v 0.46100 -0.45050 0.15500
v 0.46400 -0.45050 0.15600
v 0.44200 -0.45050 0.16600
v 0.44200 -0.45050 0.16700
v 0.44100 -0.45050 0.16800
v 0.47500 -0.45050 0.17500
v 0.45300 -0.45050 0.18800
v 0.05500 -0.45150 -0.18200
v -0.26800 -0.45150 -0.00600
v -0.48500 -0.45150 -0.00600
v 0.05500 -0.45150 0.09800
v -0.26700 -0.45150 0.29500
v -0.26700 -0.45150 0.29700
v -0.26700 -0.45150 0.30200
v -0.48600 -0.45150 0.30200
v 0.05900 -0.45250 -0.18200
v -0.05900 -0.45250 -0.18200
v 0.05900 -0.45250 0.09800
v -0.05900 -0.45250 0.09800
v 0.31200 -0.45350 -0.10400
v 0.31200 -0.45350 -0.06900
v 0.05000 -0.46250 -0.04900
v -0.03200 -0.46250 -0.04900
v 0.05000 -0.46250 -0.03000
v -0.03200 -0.46250 -0.03000
v -0.03300 -0.46250 -0.02900
v 0.05000 -0.46450 -0.04800
v -0.03200 -0.46450 -0.04800
v 0.05000 -0.46450 -0.03100
v -0.03200 -0.46450 -0.03100
v 0.51100 -0.48150 -0.01500
v 0.51100 -0.48150 0.00500
v -0.45200 -0.48150 0.29200
v -0.30100 -0.48250 -0.01000
v -0.30000 -0.48350 -0.01300
v -0.45400 -0.48350 -0.01300
v -0.29900 -0.48350 0.29100
v -0.45400 -0.48350 0.29100
v -0.45500 -0.48450 -0.02000
v -0.29700 -0.48550 -0.01100
v -0.29800 -0.48550 0.29100
v -0.45500 -0.48550 0.29100
v -0.29600 -0.48650 -0.01300
v -0.45700 -0.48650 -0.01300
v -0.29700 -0.48650 -0.01200
v -0.45700 -0.48650 -0.01200
v -0.29600 -0.48750 -0.01800
v -0.45800 -0.48750 -0.01800
v -0.29500 -0.48750 -0.01600
v -0.45800 -0.48750 -0.01400
v -0.29600 -0.48750 -0.01300
v -0.29400 -0.48950 -0.00600
v -0.46000 -0.48950 -0.00600
v -0.29300 -0.48950 0.29500
v -0.46000 -0.48950 0.29500
v -0.29300 -0.48950 0.30200
v -0.46000 -0.48950 0.30200
v -0.29200 -0.49050 0.29700
v -0.46100 -0.49050 0.29700
v 0.32100 -0.49150 -0.10900
v 0.30300 -0.49150 -0.10900
v 0.46100 -0.49550 0.15500
v 0.46400 -0.49550 0.15600
v 0.44200 -0.49550 0.16600
v 0.44200 -0.49550 0.16900
v 0.47500 -0.49550 0.17500
v 0.47400 -0.49550 0.17700
v 0.45500 -0.49550 0.18800
v 0.45300 -0.49550 0.18800
v -0.33500 -0.50550 -0.01000
v -0.33500 -0.50650 -0.01300
v -0.41800 -0.50650 0.29100
v -0.33500 -0.50750 0.29100
v -0.41900 -0.50750 0.29100
v 0.31600 -0.50850 -0.09600
v 0.30800 -0.50850 -0.09600
v 0.32200 -0.50850 -0.08700
v 0.30200 -0.50850 -0.08700
v -0.33400 -0.50850 -0.01100
v -0.41900 -0.50850 -0.01100
v -0.41900 -0.50950 -0.01200
v -0.42000 -0.50950 -0.01100
v 0.47200 -0.50950 0.18600
v 0.46300 -0.50950 0.19200
v 0.48200 -0.50950 0.19600
v 0.46500 -0.50950 0.20300
v 0.47600 -0.50950 0.20500
v -0.33400 -0.50950 0.28900
v -0.42000 -0.50950 0.28900
v -0.33400 -0.50950 0.29100
v -0.33300 -0.51150 -0.01300
v -0.33300 -0.51250 -0.01800
v -0.42100 -0.51250 -0.01800
v -0.33300 -0.51250 -0.01400
v -0.42100 -0.51250 -0.01400
v -0.33200 -0.51450 -0.00600
v -0.42200 -0.51450 -0.00600
v -0.37700 -0.51550 0.29100
v -0.42200 -0.51550 0.29500
v -0.33100 -0.51550 0.30200
v -0.42200 -0.51650 0.29700
v -0.37700 -0.51750 -0.01200
v -0.37700 -0.51750 -0.01100
v -0.37700 -0.51750 0.29000
v -0.37700 -0.52050 -0.01800
v -0.37700 -0.52150 -0.01400
v -0.37700 -0.52350 -0.00600
v -0.37700 -0.52450 0.30200
l 44 82
l 46 83
l 50 91
l 52 78
l 78 212
l 82 218
l 83 220
l 125 284
l 126 285
l 130 289
l 131 290
l 177 267
l 178 268
l 179 269
l 199 237
l 204 244
l 220 363
l 360 415
l 363 421
l 415 449
l 1 9
l 1 10
l 2 11
l 3 16
l 4 22
l 5 18
l 5 19
l 5 23
l 5 24
l 6 23
l 6 24
l 7 28
l 8 29
l 8 30
l 9 35
l 10 36
l 12 37
l 13 33
l 14 34
l 15 31
l 16 39
l 17 38
l 18 40
l 19 46
l 20 41
l 21 42
l 21 52
l 24 45
l 24 46
l 25 51
l 25 52
l 26 50
l 27 47
l 27 48
l 29 53
l 30 54
l 31 55
l 32 73
l 33 71
l 34 72
l 35 74
l 37 76
l 38 80
l 40 82
l 42 78
l 43 79
l 45 83
l 47 82
l 48 82
l 48 90
l 48 97
l 49 86
l 49 87
l 50 88
l 50 89
l 51 96
l 52 96
l 54 88
l 56 408
l 57 409
l 58 460
l 59 461
l 60 462
l 61 463
l 62 464
l 63 64
l 65 66
l 67 69
l 68 70
l 71 229
l 74 230
l 75 77
l 76 225
l 79 213
l 81 214
l 82 216
l 83 217
l 84 85
l 84 92
l 85 93
l 86 221
l 88 219
l 88 222
l 89 223
l 91 223
l 92 93
l 94 227
l 95 98
l 99 228
l 100 277
l 101 112
l 102 113
l 103 114
l 104 328
l 105 329
l 106 330
l 107 331
l 108 332
l 109 333
l 110 334
l 111 335
l 115 118
l 116 117
l 117 120
l 119 120
l 121 122
l 123 127
l 124 397
l 125 126
l 127 286
l 128 133
l 128 287
l 129 132
l 130 131
l 132 135
l 134 398
l 135 138
l 136 137
l 136 145
l 137 146
l 138 142
l 139 140
l 139 141
l 141 143
l 142 303
l 143 144
l 144 305
l 145 146
l 147 148
l 149 155
l 150 156
l 151 157
l 152 280
l 153 261
l 154 276
l 158 162
l 159 160
l 160 164
l 161 270
l 161 272
l 163 164
l 165 258
l 166 256
l 167 279
l 168 257
l 169 259
l 170 260
l 171 261
l 172 262
l 173 263
l 173 281
l 174 264
l 175 265
l 176 266
l 178 271
l 180 270
l 181 271
l 182 273
l 183 274
l 184 275
l 185 276
l 186 187
l 188 254
l 189 255
l 190 252
l 191 253
l 192 240
l 193 232
l 194 233
l 195 234
l 196 235
l 197 236
l 197 240
l 198 240
l 199 251
l 200 238
l 200 241
l 201 239
l 202 242
l 203 243
l 205 245
l 206 246
l 207 248
l 208 246
l 209 247
l 210 249
l 211 250
l 213 372
l 215 374
l 216 375
l 217 363
l 218 362
l 218 376
l 219 356
l 222 356
l 224 386
l 226 359
l 227 360
l 228 354
l 229 389
l 230 391
l 231 392
l 278 282
l 283 286
l 284 285
l 287 292
l 288 291
l 289 290
l 291 295
l 293 294
l 294 307
l 295 299
l 296 297
l 296 298
l 299 303
l 300 301
l 300 302
l 302 304
l 304 305
l 306 307
l 308 309
l 310 314
l 311 315
l 312 316
l 313 317
l 318 319
l 318 320
l 319 321
l 320 321
l 322 323
l 323 325
l 324 325
l 326 327
l 336 341
l 337 342
l 338 343
l 339 437
l 340 438
l 344 351
l 345 346
l 345 349
l 346 350
l 347 416
l 348 413
l 349 350
l 352 410
l 353 414
l 354 410
l 355 412
l 357 417
l 357 422
l 358 445
l 361 419
l 362 420
l 362 428
l 363 423
l 364 423
l 365 443
l 366 444
l 367 446
l 368 452
l 369 453
l 370 454
l 371 455
l 372 425
l 373 424
l 375 426
l 377 439
l 378 439
l 379 440
l 380 441
l 381 441
l 382 441
l 382 442
l 383 443
l 384 446
l 385 388
l 386 429
l 387 430
l 389 431
l 390 431
l 390 435
l 391 433
l 392 434
l 393 395
l 394 396
l 399 400
l 401 402
l 401 403
l 404 405
l 406 407
l 411 447
l 412 448
l 414 450
l 415 451
l 417 456
l 418 467
l 420 468
l 421 457
l 423 457
l 424 469
l 425 470
l 427 472
l 428 468
l 428 471
l 429 473
l 430 474
l 432 476
l 433 477
l 436 478
l 450 475
l 456 480
l 458 479
l 459 479
l 465 481
l 466 481
l 469 482
l 471 483
l 472 483
l 474 484
l 477 485
