# atego_frame_wire.obj - feature-edge wireframe, ISO 8855, metre
o frame_wire
v -6.600510 -0.665360 0.808240
v -6.600510 -0.665360 0.891710
v -6.600510 -0.664280 0.802990
v -6.600510 -0.664280 0.896960
v -6.538530 -1.049000 0.633220
v -6.538530 -1.049000 0.891800
v -6.538530 -0.386770 0.633220
v -6.538530 -0.386770 0.891800
v -6.538530 -0.333830 0.633220
v -6.538530 -0.333830 0.891800
v -6.538530 0.328340 0.633220
v -6.538530 0.328340 0.891800
v -6.538530 0.381270 0.633220
v -6.538530 0.381270 0.891800
v -6.538530 1.038120 0.633220
v -6.538530 1.038120 0.891800
v -6.505730 -1.161100 0.529350
v -6.505730 -1.023250 0.529350
v -6.505730 1.011760 0.529350
v -6.505730 1.149620 0.529350
v -6.505720 -1.161100 0.732150
v -6.505720 -1.023250 0.732150
v -6.505720 1.011760 0.732150
v -6.505720 1.149620 0.732150
v -6.499300 -1.161100 0.869850
v -6.499300 -1.023250 0.869850
v -6.499300 1.011760 0.869850
v -6.499300 1.149620 0.869850
v -6.498870 -1.161100 0.667030
v -6.498870 -1.023250 0.667030
v -6.498870 1.011760 0.667030
v -6.498870 1.149620 0.667030
v -6.472280 -1.049000 0.633220
v -6.472280 -1.049000 0.891800
v -6.472280 -0.386770 0.633220
v -6.472280 -0.386770 0.891800
v -6.472280 -0.333830 0.633220
v -6.472280 -0.333830 0.891800
v -6.472280 1.038120 0.633220
v -6.472280 1.038120 0.891800
v -6.279620 -0.386770 0.633220
v -6.279620 -0.386770 0.891800
v -6.279620 -0.333830 0.633220
v -6.279620 -0.333830 0.891800
v -6.105680 -0.386770 0.633220
v -6.105680 -0.386770 0.891800
v -6.105680 -0.333830 0.633220
v -6.105680 -0.333830 0.891800
v -5.931730 -0.386770 0.633220
v -5.931730 -0.386770 0.891800
v -5.931730 -0.333830 0.633220
v -5.931730 -0.333830 0.891800
v -5.757790 -0.386770 0.633220
v -5.757790 -0.386770 0.891800
v -5.757790 -0.333830 0.633220
v -5.757790 -0.333830 0.891800
v -5.583840 -0.386770 0.633220
v -5.583840 -0.386770 0.891800
v -5.583840 -0.333830 0.633220
v -5.583840 -0.333830 0.891800
v -5.409890 -0.386770 0.633220
v -5.409890 -0.386770 0.891800
v -5.409890 -0.333830 0.633220
v -5.409890 -0.333830 0.891800
v -5.235950 -0.386770 0.633220
v -5.235950 -0.386770 0.891800
v -5.235950 -0.333830 0.633220
v -5.235950 -0.333830 0.891800
v -5.235950 -0.333830 1.083890
v -5.235950 0.330900 0.633220
v -5.235950 0.330900 0.891800
v -5.235950 0.330900 1.083890
v -5.062000 -0.386770 0.633220
v -5.062000 -0.386770 0.891800
v -5.062000 -0.333830 0.633220
v -5.062000 -0.333830 0.891800
v -5.062000 -0.333830 1.083890
v -5.062000 0.330900 0.633220
v -5.062000 0.330900 0.891800
v -5.062000 0.330900 1.083890
v -5.037940 -1.161100 0.456180
v -5.037940 -1.023250 0.456180
v -5.037940 1.011760 0.456180
v -5.037940 1.149620 0.456180
v -5.037710 -1.161100 0.663670
v -5.037710 -1.023250 0.663670
v -5.037710 1.011760 0.663670
v -5.037710 1.149620 0.663670
v -5.031290 -1.161100 0.801380
v -5.031290 -1.023250 0.801380
v -5.031290 1.011760 0.801380
v -5.031290 1.149620 0.801380
v -5.031080 -1.161100 0.593870
v -5.031080 -1.023250 0.593870
v -5.031080 1.011760 0.593870
v -5.031080 1.149620 0.593870
v -4.998570 -1.174050 0.546340
v -4.998570 -0.700800 0.546340
v -4.998570 0.684940 0.546340
v -4.998570 1.158190 0.546340
v -4.989940 -1.174050 0.464290
v -4.989940 -0.869180 0.464290
v -4.989940 -0.700800 0.464290
v -4.989940 0.684940 0.464290
v -4.989940 0.853320 0.464290
v -4.989940 1.158190 0.464290
v -4.964020 -1.174050 0.736340
v -4.964020 -0.700800 0.736340
v -4.964020 0.684940 0.736340
v -4.964020 1.158190 0.736340
v -4.938800 -1.213250 0.535960
v -4.938800 1.197390 0.535960
v -4.935160 -0.700800 0.541470
v -4.935160 0.684940 0.541470
v -4.931060 -1.213250 0.462450
v -4.931060 1.197390 0.462450
v -4.927480 -0.700800 0.468480
v -4.927480 0.684940 0.468480
v -4.907850 -1.213250 0.706180
v -4.907850 1.197390 0.706180
v -4.904430 -0.700800 0.710490
v -4.904430 0.684940 0.710490
v -4.888060 -0.386770 0.633220
v -4.888060 -0.386770 0.891800
v -4.888060 -0.333830 0.633220
v -4.888060 -0.333830 0.891800
v -4.886300 -1.174050 0.861570
v -4.886300 -0.700800 0.861570
v -4.886300 0.684940 0.861570
v -4.886300 1.158190 0.861570
v -4.838210 -1.213250 0.818380
v -4.838210 1.197390 0.818380
v -4.835280 -0.700800 0.821890
v -4.835280 0.684940 0.821890
v -4.765380 -1.174050 0.978160
v -4.765380 -0.700800 0.978160
v -4.765380 0.684940 0.978160
v -4.765380 1.158190 0.978160
v -4.729890 -1.213250 0.922830
v -4.729890 1.197390 0.922830
v -4.727720 -0.700800 0.925610
v -4.727720 0.684940 0.925610
v -4.714110 -0.386770 0.633220
v -4.714110 -0.386770 0.891800
v -4.714110 -0.333830 0.633220
v -4.714110 -0.333830 0.891800
v -4.683340 -1.174050 1.038620
v -4.683340 -0.700800 1.038620
v -4.683340 0.684940 1.038620
v -4.683340 1.158190 1.038620
v -4.656380 -1.213250 0.976990
v -4.656380 1.197390 0.976990
v -4.654740 -0.700800 0.979390
v -4.654740 0.684940 0.979390
v -4.596970 -1.174050 1.051580
v -4.596970 -0.700800 1.051580
v -4.596970 0.684940 1.051580
v -4.596970 1.158190 1.051580
v -4.579000 -1.213250 0.988600
v -4.579000 1.197390 0.988600
v -4.577910 -0.700800 0.990910
v -4.577910 0.684940 0.990910
v -4.540160 -0.386770 0.633220
v -4.540160 -0.386770 0.891800
v -4.540160 -0.333830 0.633220
v -4.540160 -0.333830 0.891800
v -4.397370 -0.700800 0.994750
v -4.397370 0.684940 0.994750
v -4.397170 -1.213250 0.992470
v -4.397170 1.197390 0.992470
v -4.394010 -1.174050 1.055890
v -4.394010 -0.700800 1.055890
v -4.394010 0.684940 1.055890
v -4.394010 1.158190 1.055890
v -4.376630 0.002850 0.576480
v -4.376620 -0.004680 0.575740
v -4.376620 0.010380 0.575740
v -4.376590 -0.011920 0.573540
v -4.376590 0.017620 0.573540
v -4.376540 -0.018600 0.569980
v -4.376540 0.024290 0.569980
v -4.376470 -0.024450 0.565180
v -4.376470 0.030140 0.565180
v -4.376390 -0.029250 0.559330
v -4.376390 0.034950 0.559330
v -4.376300 -0.032810 0.552650
v -4.376300 0.038510 0.552650
v -4.376200 -0.035010 0.545410
v -4.376200 0.040710 0.545410
v -4.376090 -0.035750 0.537880
v -4.376090 0.041450 0.537880
v -4.375980 -0.035010 0.530350
v -4.375980 0.040710 0.530350
v -4.375880 -0.032810 0.523110
v -4.375880 0.038510 0.523110
v -4.375790 -0.029250 0.516430
v -4.375790 0.034950 0.516430
v -4.375700 -0.024450 0.510580
v -4.375700 0.030140 0.510580
v -4.375640 -0.018600 0.505780
v -4.375640 0.024290 0.505780
v -4.375590 -0.011920 0.502210
v -4.375590 0.017620 0.502210
v -4.375560 -0.004680 0.500020
v -4.375560 0.010380 0.500020
v -4.375540 0.002850 0.499280
v -4.366220 -0.386770 0.633220
v -4.366220 -0.386770 0.891800
v -4.366220 -0.333830 0.633220
v -4.366220 -0.333830 0.891800
v -4.255230 -0.700800 0.990910
v -4.255230 0.684940 0.990910
v -4.254030 -1.213250 0.988600
v -4.254030 1.197390 0.988600
v -4.234240 -1.174050 1.051580
v -4.234240 -0.700800 1.051580
v -4.234240 0.684940 1.051580
v -4.234240 1.158190 1.051580
v -4.192270 -0.386770 0.633220
v -4.192270 -0.386770 0.891800
v -4.192270 -0.333830 0.633220
v -4.192270 -0.333830 0.891800
v -4.186090 -0.700800 0.960180
v -4.186090 0.684940 0.960180
v -4.184390 -1.213250 0.957650
v -4.184390 1.197390 0.957650
v -4.156510 -1.174050 1.017030
v -4.156510 -0.700800 1.017030
v -4.156510 0.684940 1.017030
v -4.156510 1.158190 1.017030
v -4.093900 -0.700800 0.879510
v -4.093900 0.684940 0.879510
v -4.091540 -1.213250 0.876410
v -4.091540 1.197390 0.876410
v -4.063170 -0.700800 0.848780
v -4.063170 0.684940 0.848780
v -4.060590 -1.213250 0.845460
v -4.060590 1.197390 0.845460
v -4.052870 -1.174050 0.926350
v -4.052870 -0.700800 0.926350
v -4.052870 0.684940 0.926350
v -4.052870 1.158190 0.926350
v -4.018320 -1.174050 0.891800
v -4.018320 -0.700800 0.891800
v -4.018320 -0.386770 0.633220
v -4.018320 -0.386770 0.891800
v -4.018320 -0.333830 0.633220
v -4.018320 -0.333830 0.891800
v -4.018320 0.684940 0.891800
v -4.018320 1.158190 0.891800
v -3.975580 -0.700800 0.765800
v -3.975580 0.684940 0.765800
v -3.972380 -1.213250 0.761890
v -3.972380 1.197390 0.761890
v -3.929490 -0.700800 0.447740
v -3.929490 0.684940 0.447740
v -3.925960 -1.213250 0.441560
v -3.925960 1.197390 0.441560
v -3.919870 -1.174050 0.798530
v -3.919870 -0.700800 0.798530
v -3.919870 0.684940 0.798530
v -3.919870 1.158190 0.798530
v -3.901830 -0.700800 0.590640
v -3.901830 0.684940 0.590640
v -3.898100 -1.213250 0.585480
v -3.898100 1.197390 0.585480
v -3.868050 -1.174050 0.440970
v -3.868050 -0.869180 0.440970
v -3.868050 -0.700800 0.440970
v -3.868050 0.684940 0.440970
v -3.868050 0.853320 0.440970
v -3.868050 1.158190 0.440970
v -3.844380 -1.086850 0.633220
v -3.844380 -1.086850 0.891800
v -3.844380 -0.386770 0.633220
v -3.844380 -0.386770 0.891800
v -3.844380 -0.333830 0.633220
v -3.844380 -0.333830 0.891800
v -3.844380 1.053980 0.633220
v -3.844380 1.053980 0.891800
v -3.836960 -1.174050 0.601610
v -3.836960 -0.700800 0.601610
v -3.836960 0.684940 0.601610
v -3.836960 1.158190 0.601610
v -3.813960 -1.186490 0.454940
v -3.813960 -1.186490 0.598930
v -3.813960 -1.186490 0.688120
v -3.813960 -1.186490 0.832110
v -3.813960 -1.071470 0.454940
v -3.813960 -1.071470 0.598930
v -3.813960 -1.071470 0.688120
v -3.813960 -1.071470 0.832110
v -3.813960 1.052100 0.454940
v -3.813960 1.052100 0.598930
v -3.813960 1.052100 0.688120
v -3.813960 1.052100 0.832110
v -3.813960 1.167120 0.454940
v -3.813960 1.167120 0.598930
v -3.813960 1.167120 0.688120
v -3.813960 1.167120 0.832110
v -3.670430 -1.086850 0.633220
v -3.670430 -1.086850 0.891800
v -3.670430 -0.386770 0.633220
v -3.670430 -0.386770 0.891800
v -3.670430 -0.333830 0.633220
v -3.670430 -0.333830 0.891800
v -3.670430 0.331900 0.633220
v -3.670430 0.331900 0.891800
v -3.670430 1.053980 0.633220
v -3.670430 1.053980 0.891800
v -3.496490 -0.386770 0.633220
v -3.496490 -0.386770 0.891800
v -3.496490 -0.333830 0.633220
v -3.496490 -0.333830 0.891800
v -3.496490 0.331900 0.633220
v -3.496490 0.331900 0.891800
v -3.322540 -0.386770 0.633220
v -3.322540 -0.386770 0.891800
v -3.322540 -0.333830 0.633220
v -3.322540 -0.333830 0.891800
v -3.209070 1.052100 0.688120
v -3.209070 1.052100 0.832110
v -3.209070 1.167120 0.688120
v -3.209070 1.167120 0.832110
v -3.148600 -0.386770 0.633220
v -3.148600 -0.386770 0.891800
v -3.148600 -0.333830 0.633220
v -3.148600 -0.333830 0.891800
v -3.016660 1.052100 0.688120
v -3.016660 1.052100 0.832110
v -3.016660 1.167120 0.688120
v -3.016660 1.167120 0.832110
v -2.974650 -0.386770 0.633220
v -2.974650 -0.386770 0.891800
v -2.974650 -0.333830 0.633220
v -2.974650 -0.333830 0.891800
v -2.800700 -0.386770 0.633220
v -2.800700 -0.386770 0.891800
v -2.800700 -0.333830 0.633220
v -2.800700 -0.333830 0.891800
v -2.800700 -0.333830 1.083040
v -2.800700 0.339100 0.633220
v -2.800700 0.339100 0.891800
v -2.800700 0.339100 1.083040
v -2.735970 0.688400 0.371490
v -2.735970 0.688400 0.867390
v -2.735970 0.780000 0.371490
v -2.735970 0.780000 0.867390
v -2.735970 0.871590 0.371490
v -2.735970 0.871590 0.867390
v -2.714380 0.596810 0.371490
v -2.714380 0.596810 0.867390
v -2.714380 0.963180 0.371490
v -2.714380 0.963180 0.867390
v -2.675400 0.512020 0.371490
v -2.675400 0.512020 0.867390
v -2.626760 -0.386770 0.633220
v -2.626760 -0.386770 0.891800
v -2.626760 -0.333830 0.633220
v -2.626760 -0.333830 0.891800
v -2.626760 -0.333830 1.083040
v -2.626760 0.339100 0.633220
v -2.626760 0.339100 0.891800
v -2.626760 0.339100 1.083040
v -2.480480 0.413620 0.371490
v -2.480480 0.413620 0.867390
v -2.480480 0.505210 0.371490
v -2.480480 0.505210 0.867390
v -2.452810 -0.386770 0.633220
v -2.452810 -0.386770 0.891800
v -2.452810 -0.333830 0.633220
v -2.452810 -0.333830 0.891800
v -2.278870 -0.386770 0.633220
v -2.278870 -0.386770 0.891800
v -2.278870 -0.333830 0.633220
v -2.278870 -0.333830 0.891800
v -2.219350 1.052100 0.688120
v -2.219350 1.052100 0.832110
v -2.219350 1.167120 0.688120
v -2.219350 1.167120 0.832110
v -2.178020 0.817230 0.702440
v -2.178020 0.817230 0.898030
v -2.176140 0.798150 0.702440
v -2.176140 0.798150 0.898030
v -2.176140 0.836310 0.702440
v -2.176140 0.836310 0.898030
v -2.170580 0.779800 0.702440
v -2.170580 0.779800 0.898030
v -2.170580 0.854650 0.702440
v -2.170580 0.854650 0.898030
v -2.161540 0.762900 0.702440
v -2.161540 0.762900 0.898030
v -2.161540 0.871560 0.702440
v -2.161540 0.871560 0.898030
v -2.149380 0.748080 0.702440
v -2.149380 0.748080 0.898030
v -2.149380 0.886380 0.702440
v -2.149380 0.886380 0.898030
v -2.134560 0.735910 0.702440
v -2.134560 0.735910 0.898030
v -2.134560 0.898540 0.702440
v -2.134560 0.898540 0.898030
v -2.117650 0.726880 0.702440
v -2.117650 0.726880 0.898030
v -2.117650 0.907580 0.702440
v -2.117650 0.907580 0.898030
v -2.104920 -0.386770 0.633220
v -2.104920 -0.386770 0.891800
v -2.104920 -0.333830 0.633220
v -2.104920 -0.333830 0.891800
v -2.099310 0.721310 0.702440
v -2.099310 0.721310 0.898030
v -2.099310 0.913140 0.702440
v -2.099310 0.913140 0.898030
v -2.080230 0.719430 0.702440
v -2.080230 0.719430 0.898030
v -2.080230 0.915020 0.702440
v -2.080230 0.915020 0.898030
v -2.061150 0.721310 0.702440
v -2.061150 0.721310 0.898030
v -2.061150 0.913140 0.702440
v -2.061150 0.913140 0.898030
v -2.042800 0.726880 0.702440
v -2.042800 0.726880 0.898030
v -2.042800 0.907580 0.702440
v -2.042800 0.907580 0.898030
v -2.025900 0.735910 0.702440
v -2.025900 0.735910 0.898030
v -2.025900 0.898540 0.702440
v -2.025900 0.898540 0.898030
v -2.011070 0.748080 0.702440
v -2.011070 0.748080 0.898030
v -2.011070 0.886380 0.702440
v -2.011070 0.886380 0.898030
v -1.998910 0.762900 0.702440
v -1.998910 0.762900 0.898030
v -1.998910 0.871560 0.702440
v -1.998910 0.871560 0.898030
v -1.989880 0.779800 0.702440
v -1.989880 0.779800 0.898030
v -1.989880 0.854650 0.702440
v -1.989880 0.854650 0.898030
v -1.984310 0.798150 0.702440
v -1.984310 0.798150 0.898030
v -1.984310 0.836310 0.702440
v -1.984310 0.836310 0.898030
v -1.982430 0.817230 0.702440
v -1.982430 0.817230 0.898030
v -1.930970 -0.386770 0.633220
v -1.930970 -0.386770 0.891800
v -1.930970 -0.333830 0.633220
v -1.930970 -0.333830 0.891800
v -1.930910 0.413620 0.371490
v -1.930910 0.413620 0.867390
v -1.930910 0.963180 0.371490
v -1.930910 0.963180 0.867390
v -1.907130 -1.002930 0.420560
v -1.907130 -1.002930 0.856150
v -1.907130 -0.567340 0.420560
v -1.907130 -0.567340 0.856150
v -1.891340 0.505210 0.371490
v -1.891340 0.505210 0.867390
v -1.891340 0.551010 0.371490
v -1.891340 0.551010 0.867390
v -1.891340 0.596810 0.371490
v -1.891340 0.596810 0.867390
v -1.891340 0.688400 0.371490
v -1.891340 0.688400 0.867390
v -1.891340 0.780000 0.371490
v -1.891340 0.780000 0.867390
v -1.891340 0.871590 0.371490
v -1.891340 0.871590 0.867390
v -1.757030 -0.386770 0.633220
v -1.757030 -0.386770 0.891800
v -1.757030 -0.333830 0.633220
v -1.757030 -0.333830 0.891800
v -1.757030 -0.333830 1.083040
v -1.757030 0.337690 0.633220
v -1.757030 0.337690 0.891800
v -1.757030 0.337690 1.083040
v -1.724090 0.416370 0.405180
v -1.724090 0.416370 0.913710
v -1.724090 1.002320 0.405180
v -1.724090 1.002320 0.913710
v -1.583080 -0.619060 0.633220
v -1.583080 -0.619060 0.891800
v -1.583080 -0.386770 0.633220
v -1.583080 -0.386770 0.891800
v -1.583080 -0.333830 0.633220
v -1.583080 -0.333830 0.891800
v -1.583080 -0.333830 1.083040
v -1.583080 0.337690 0.633220
v -1.583080 0.337690 0.891800
v -1.583080 0.337690 1.083040
v -1.451680 0.416370 0.405180
v -1.451680 0.416370 0.913710
v -1.451680 1.002320 0.405180
v -1.451680 1.002320 0.913710
v -1.422040 1.052100 0.688120
v -1.422040 1.052100 0.832110
v -1.422040 1.167120 0.688120
v -1.422040 1.167120 0.832110
v -1.409130 -0.619060 0.633220
v -1.409130 -0.619060 0.891800
v -1.409130 -0.333830 0.633220
v -1.409130 -0.333830 0.891800
v -1.235190 -0.619060 0.633220
v -1.235190 -0.619060 0.891800
v -1.235190 -0.386770 0.633220
v -1.235190 -0.386770 0.891800
v -1.235190 -0.333830 0.633220
v -1.235190 -0.333830 0.891800
v -1.179440 0.416370 0.405180
v -1.179440 0.416370 0.456030
v -1.179440 0.416370 0.506880
v -1.179440 0.416370 0.557740
v -1.179440 0.416370 0.608590
v -1.179440 0.416370 0.659440
v -1.179440 0.416370 0.710290
v -1.179440 0.416370 0.761150
v -1.179440 0.416370 0.812000
v -1.179440 0.416370 0.862850
v -1.179440 0.416370 0.913710
v -1.179440 1.002320 0.405180
v -1.179440 1.002320 0.456030
v -1.179440 1.002320 0.506880
v -1.179440 1.002320 0.557740
v -1.179440 1.002320 0.608590
v -1.179440 1.002320 0.659440
v -1.179440 1.002320 0.710290
v -1.179440 1.002320 0.761150
v -1.179440 1.002320 0.812000
v -1.179440 1.002320 0.862850
v -1.179440 1.002320 0.913710
v -1.159470 0.987550 0.507650
v -1.159470 0.987550 0.556960
v -1.159470 0.987550 0.609360
v -1.159470 0.987550 0.658670
v -1.159470 0.987550 0.711070
v -1.159470 0.987550 0.760370
v -1.159470 0.987550 0.812770
v -1.159470 0.987550 0.862080
v -1.159470 1.002320 0.507650
v -1.159470 1.002320 0.556960
v -1.159470 1.002320 0.609360
v -1.159470 1.002320 0.658670
v -1.159470 1.002320 0.711070
v -1.159470 1.002320 0.760370
v -1.159470 1.002320 0.812770
v -1.159470 1.002320 0.862080
v -1.061240 -0.386770 0.633220
v -1.061240 -0.386770 0.891800
v -1.061240 -0.333830 0.633220
v -1.061240 -0.333830 0.891800
v -0.959180 -1.002930 0.420560
v -0.959180 -1.002930 0.856150
v -0.959180 -0.567340 0.420560
v -0.959180 -0.567340 0.856150
v -0.887300 -0.386770 0.633220
v -0.887300 -0.386770 0.891800
v -0.887300 -0.333830 0.633220
v -0.887300 -0.333830 0.891800
v -0.713350 -1.086240 0.633220
v -0.713350 -1.086240 0.891800
v -0.713350 -0.386770 0.633220
v -0.713350 -0.386770 0.891800
v -0.713350 -0.333830 0.633220
v -0.713350 -0.333830 0.891800
v -0.626380 -1.086240 0.633220
v -0.626380 -1.086240 0.891800
v -0.626380 -0.386770 0.633220
v -0.626380 -0.386770 0.891800
v -0.626380 -0.333830 0.633220
v -0.626380 -0.333830 0.891800
v -0.624740 -1.186490 0.454940
v -0.624740 -1.186490 0.598930
v -0.624740 -1.186490 0.688120
v -0.624740 -1.186490 0.832110
v -0.624740 -1.071470 0.454940
v -0.624740 -1.071470 0.598930
v -0.624740 -1.071470 0.688120
v -0.624740 -1.071470 0.832110
v -0.624740 1.052100 0.454940
v -0.624740 1.052100 0.598930
v -0.624740 1.052100 0.688120
v -0.624740 1.052100 0.832110
v -0.624740 1.167120 0.454940
v -0.624740 1.167120 0.598930
v -0.624740 1.167120 0.688120
v -0.624740 1.167120 0.832110
v -0.613450 0.987550 0.507650
v -0.613450 0.987550 0.556960
v -0.613450 0.987550 0.609360
v -0.613450 0.987550 0.658670
v -0.613450 0.987550 0.711070
v -0.613450 0.987550 0.760370
v -0.613450 0.987550 0.812770
v -0.613450 0.987550 0.862080
v -0.613450 1.002320 0.507650
v -0.613450 1.002320 0.556960
v -0.613450 1.002320 0.609360
v -0.613450 1.002320 0.658670
v -0.613450 1.002320 0.711070
v -0.613450 1.002320 0.760370
v -0.613450 1.002320 0.812770
v -0.613450 1.002320 0.862080
v -0.593480 0.416370 0.405180
v -0.593480 0.416370 0.456030
v -0.593480 0.416370 0.506880
v -0.593480 0.416370 0.557740
v -0.593480 0.416370 0.608590
v -0.593480 0.416370 0.659440
v -0.593480 0.416370 0.710290
v -0.593480 0.416370 0.761150
v -0.593480 0.416370 0.812000
v -0.593480 0.416370 0.862850
v -0.593480 0.416370 0.913710
v -0.593480 1.002320 0.405180
v -0.593480 1.002320 0.456030
v -0.593480 1.002320 0.506880
v -0.593480 1.002320 0.557740
v -0.593480 1.002320 0.608590
v -0.593480 1.002320 0.659440
v -0.593480 1.002320 0.710290
v -0.593480 1.002320 0.761150
v -0.593480 1.002320 0.812000
v -0.593480 1.002320 0.862850
v -0.593480 1.002320 0.913710
v -0.539410 -0.386770 0.633220
v -0.539410 -0.386770 0.891800
v -0.539410 -0.333830 0.633220
v -0.539410 -0.333830 0.891800
v -0.365460 -0.386770 0.633220
v -0.365460 -0.386770 0.891800
v -0.365460 -0.333830 0.633220
v -0.365460 -0.333830 0.891800
v -0.295240 0.002850 0.634140
v -0.295230 -0.004680 0.633390
v -0.295230 0.010380 0.633390
v -0.295200 -0.011920 0.631200
v -0.295200 0.017620 0.631200
v -0.295150 -0.018600 0.627630
v -0.295150 0.024290 0.627630
v -0.295080 -0.024450 0.622830
v -0.295080 0.030140 0.622830
v -0.295000 -0.029250 0.616980
v -0.295000 0.034950 0.616980
v -0.294910 -0.032810 0.610310
v -0.294910 0.038510 0.610310
v -0.294800 -0.035010 0.603060
v -0.294800 0.040710 0.603060
v -0.294700 -0.035750 0.595530
v -0.294700 0.041450 0.595530
v -0.294590 -0.035010 0.588000
v -0.294590 0.040710 0.588000
v -0.294490 -0.032810 0.580760
v -0.294490 0.038510 0.580760
v -0.294390 -0.029250 0.574090
v -0.294390 0.034950 0.574090
v -0.294310 -0.024450 0.568240
v -0.294310 0.030140 0.568240
v -0.294240 -0.018600 0.563440
v -0.294240 0.024290 0.563440
v -0.294190 -0.011920 0.559870
v -0.294190 0.017620 0.559870
v -0.294160 -0.004680 0.557670
v -0.294160 0.010380 0.557670
v -0.294150 0.002850 0.556930
v -0.191510 -0.386770 0.633220
v -0.191510 -0.386770 0.891800
v -0.191510 -0.333830 0.633220
v -0.191510 -0.333830 0.891800
v -0.036430 -0.935640 0.459950
v -0.036430 0.941340 0.459950
v -0.035710 -0.935640 0.452640
v -0.035710 -0.935640 0.467260
v -0.035710 0.941340 0.452640
v -0.035710 0.941340 0.467260
v -0.033580 -0.935640 0.445620
v -0.033580 -0.935640 0.474290
v -0.033580 0.941340 0.445610
v -0.033580 0.941340 0.474290
v -0.030120 -0.935640 0.439140
v -0.030120 -0.935640 0.480770
v -0.030120 0.941340 0.439140
v -0.030120 0.941340 0.480770
v -0.025460 -0.935640 0.433460
v -0.025460 -0.935640 0.486440
v -0.025460 0.941340 0.433460
v -0.025460 0.941340 0.486440
v -0.019780 -0.935640 0.428800
v -0.019780 -0.935640 0.491100
v -0.019780 0.941340 0.428800
v -0.019780 0.941340 0.491100
v -0.017570 -0.386770 0.633220
v -0.017570 -0.386770 0.891800
v -0.017570 -0.333830 0.633220
v -0.017570 -0.333830 0.891800
v -0.013300 -0.935640 0.425340
v -0.013300 -0.935640 0.494570
v -0.013300 0.941340 0.425340
v -0.013300 0.941340 0.494570
v -0.006280 -0.935640 0.423200
v -0.006280 -0.935640 0.496700
v -0.006280 0.941340 0.423200
v -0.006280 0.941340 0.496700
v 0.001040 -0.935640 0.422490
v 0.001040 -0.935640 0.497420
v 0.001040 0.941340 0.422490
v 0.001040 0.941340 0.497420
v 0.008340 -0.935640 0.423200
v 0.008340 -0.935640 0.496700
v 0.008340 0.941340 0.423200
v 0.008340 0.941340 0.496700
v 0.015370 -0.935640 0.425340
v 0.015370 -0.935640 0.494570
v 0.015370 0.941340 0.425340
v 0.015370 0.941340 0.494570
v 0.021850 -0.935640 0.428800
v 0.021850 -0.935640 0.491100
v 0.021850 0.941340 0.428800
v 0.021850 0.941340 0.491100
v 0.027530 -0.935640 0.433460
v 0.027530 -0.935640 0.486440
v 0.027530 0.941340 0.433460
v 0.027530 0.941340 0.486440
v 0.032190 -0.935640 0.439140
v 0.032190 -0.935640 0.480770
v 0.032190 0.941340 0.439140
v 0.032190 0.941340 0.480770
v 0.035650 -0.935640 0.445620
v 0.035650 -0.935640 0.474290
v 0.035650 0.941340 0.445610
v 0.035650 0.941340 0.474290
v 0.037780 -0.935640 0.452640
v 0.037780 -0.935640 0.467260
v 0.037780 0.941340 0.452640
v 0.037780 0.941340 0.467260
v 0.038500 -0.935640 0.459950
v 0.038500 0.941340 0.459950
v 0.156380 -0.386770 0.633220
v 0.156380 -0.386770 0.891800
v 0.156380 -0.333830 0.633220
v 0.156380 -0.333830 0.891800
v 0.330320 -0.386770 0.633220
v 0.330320 -0.386770 0.891800
v 0.330320 -0.333830 0.633220
v 0.330320 -0.333830 0.891800
v 0.504270 -0.386770 0.633220
v 0.504270 -0.386770 0.891800
v 0.504270 -0.333830 0.633220
v 0.504270 -0.333830 0.891800
v 0.678220 -0.386770 0.633220
v 0.678220 -0.386770 0.891800
v 0.678220 -0.333830 0.633220
v 0.678220 -0.333830 0.891800
v 0.852160 -0.386770 0.633220
v 0.852160 -0.386770 0.891800
v 0.852160 -0.333830 0.633220
v 0.852160 -0.333830 0.891800
v 1.026110 -0.386770 0.633220
v 1.026110 -0.386770 0.891800
v 1.026110 -0.333830 0.633220
v 1.026110 -0.333830 0.891800
v 1.026110 0.328340 0.633220
v 1.026110 0.328340 0.891800
v 1.026110 0.381270 0.633220
v 1.026110 0.381270 0.891800
l 12 766
l 11 12
l 11 765
l 765 766
l 12 14
l 13 14
l 11 13
l 14 768
l 767 768
l 13 767
l 766 768
l 765 767
l 6 8
l 6 34
l 34 36
l 8 10
l 7 9
l 760 764
l 763 764
l 759 763
l 762 764
l 761 762
l 761 763
l 758 762
l 757 761
l 37 43
l 35 41
l 43 47
l 41 45
l 47 51
l 45 49
l 51 55
l 49 53
l 55 59
l 53 57
l 59 63
l 57 61
l 63 67
l 61 65
l 65 73
l 75 125
l 73 123
l 125 145
l 123 143
l 145 165
l 143 163
l 165 209
l 163 207
l 209 221
l 207 219
l 221 247
l 219 245
l 247 277
l 245 275
l 303 311
l 313 319
l 311 317
l 319 327
l 317 325
l 327 335
l 325 333
l 335 339
l 333 337
l 337 357
l 359 371
l 357 369
l 371 375
l 369 373
l 375 409
l 373 407
l 409 451
l 407 449
l 451 475
l 449 473
l 473 487
l 489 505
l 505 511
l 511 553
l 509 551
l 553 561
l 551 559
l 561 567
l 559 565
l 573 631
l 571 629
l 631 635
l 629 633
l 635 671
l 633 669
l 671 697
l 669 695
l 697 743
l 695 741
l 743 747
l 741 745
l 747 751
l 745 749
l 751 755
l 749 753
l 755 759
l 753 757
l 36 42
l 38 44
l 42 46
l 44 48
l 46 50
l 48 52
l 50 54
l 52 56
l 54 58
l 56 60
l 58 62
l 60 64
l 62 66
l 64 68
l 66 74
l 68 76
l 74 124
l 76 126
l 124 144
l 126 146
l 144 164
l 146 166
l 164 208
l 166 210
l 208 220
l 210 222
l 220 246
l 222 248
l 246 276
l 248 278
l 304 312
l 312 318
l 314 320
l 318 326
l 320 328
l 326 334
l 328 336
l 334 338
l 336 340
l 338 358
l 340 360
l 358 370
l 360 372
l 370 374
l 372 376
l 374 408
l 376 410
l 408 450
l 410 452
l 450 474
l 452 476
l 474 488
l 476 490
l 490 506
l 506 512
l 510 552
l 512 554
l 552 560
l 554 562
l 560 566
l 562 568
l 572 630
l 574 632
l 630 634
l 632 636
l 634 670
l 636 672
l 670 696
l 672 698
l 696 742
l 698 744
l 742 746
l 744 748
l 746 750
l 748 752
l 750 754
l 752 756
l 754 758
l 756 760
l 37 38
l 67 68
l 68 69
l 69 72
l 71 72
l 75 76
l 277 278
l 278 280
l 279 280
l 277 279
l 313 315
l 315 316
l 314 316
l 313 314
l 339 340
l 339 342
l 342 362
l 359 362
l 359 360
l 475 476
l 489 492
l 492 493
l 489 490
l 570 572
l 569 570
l 569 571
l 571 572
l 565 566
l 509 510
l 486 488
l 486 504
l 485 503
l 485 487
l 487 488
l 303 304
l 301 303
l 273 301
l 273 275
l 275 276
l 78 79
l 70 78
l 70 71
l 67 70
l 75 78
l 308 316
l 307 315
l 307 308
l 306 308
l 305 307
l 362 363
l 342 343
l 343 344
l 344 364
l 363 364
l 478 492
l 478 479
l 490 491
l 477 491
l 476 477
l 475 478
l 666 668
l 204 206
l 664 666
l 202 204
l 662 664
l 200 202
l 660 662
l 198 200
l 658 660
l 196 198
l 656 658
l 194 196
l 654 656
l 192 194
l 652 654
l 190 192
l 650 652
l 188 190
l 648 650
l 186 188
l 646 648
l 184 186
l 644 646
l 182 184
l 642 644
l 180 182
l 640 642
l 178 180
l 638 640
l 176 178
l 637 638
l 175 176
l 637 639
l 175 177
l 639 641
l 177 179
l 641 643
l 179 181
l 643 645
l 181 183
l 645 647
l 183 185
l 647 649
l 185 187
l 649 651
l 187 189
l 651 653
l 189 191
l 653 655
l 191 193
l 655 657
l 193 195
l 657 659
l 195 197
l 659 661
l 197 199
l 661 663
l 199 201
l 663 665
l 201 203
l 203 205
l 205 206
l 665 667
l 667 668
l 37 39
l 39 40
l 38 40
l 35 36
l 16 40
l 15 39
l 15 16
l 10 16
l 9 15
l 5 6
l 5 33
l 33 34
l 33 35
l 5 7
l 504 508
l 503 507
l 507 508
l 485 486
l 507 509
l 508 510
l 522 523
l 523 617
l 616 617
l 533 534
l 523 534
l 627 628
l 534 628
l 617 628
l 513 607
l 607 618
l 524 618
l 513 524
l 607 608
l 618 619
l 608 609
l 619 620
l 609 610
l 620 621
l 610 611
l 621 622
l 611 612
l 622 623
l 612 613
l 623 624
l 613 614
l 624 625
l 614 615
l 625 626
l 615 616
l 626 627
l 524 525
l 525 526
l 537 545
l 537 538
l 538 546
l 545 546
l 527 528
l 536 544
l 536 592
l 592 600
l 544 600
l 529 530
l 539 547
l 539 540
l 540 548
l 547 548
l 531 532
l 591 599
l 535 591
l 535 543
l 543 599
l 513 514
l 514 515
l 526 527
l 515 516
l 516 517
l 528 529
l 517 518
l 518 519
l 530 531
l 519 520
l 520 521
l 532 533
l 521 522
l 549 550
l 543 544
l 605 606
l 603 604
l 601 602
l 599 600
l 545 601
l 546 602
l 547 603
l 548 604
l 549 605
l 550 606
l 591 592
l 535 536
l 537 593
l 593 594
l 538 594
l 539 595
l 595 596
l 540 596
l 541 597
l 597 598
l 542 598
l 541 542
l 593 601
l 594 602
l 598 606
l 597 605
l 595 603
l 596 604
l 541 549
l 542 550
l 674 678
l 673 676
l 678 682
l 676 680
l 682 686
l 680 684
l 686 690
l 684 688
l 690 694
l 688 692
l 694 702
l 692 700
l 702 706
l 700 704
l 706 710
l 704 708
l 710 714
l 708 712
l 714 718
l 712 716
l 718 722
l 716 720
l 722 726
l 720 724
l 726 730
l 724 728
l 730 734
l 728 732
l 734 738
l 732 736
l 738 740
l 736 739
l 737 740
l 735 739
l 733 737
l 731 735
l 729 733
l 727 731
l 725 729
l 723 727
l 721 725
l 719 723
l 717 721
l 715 719
l 713 717
l 711 715
l 709 713
l 707 711
l 705 709
l 703 707
l 701 705
l 699 703
l 693 701
l 691 699
l 689 693
l 687 691
l 685 689
l 683 687
l 681 685
l 679 683
l 675 679
l 673 675
l 677 681
l 674 677
l 568 574
l 567 573
l 564 570
l 563 564
l 563 569
l 563 565
l 564 566
l 274 302
l 273 274
l 301 302
l 302 304
l 274 276
l 280 310
l 309 310
l 279 309
l 305 309
l 306 310
l 17 81
l 17 29
l 29 93
l 81 93
l 17 18
l 18 30
l 29 30
l 18 82
l 82 94
l 30 94
l 81 82
l 93 94
l 21 85
l 21 25
l 25 89
l 85 89
l 21 22
l 22 26
l 25 26
l 22 86
l 86 90
l 26 90
l 85 86
l 89 90
l 19 83
l 19 31
l 31 95
l 83 95
l 19 20
l 20 32
l 31 32
l 20 84
l 84 96
l 32 96
l 83 84
l 95 96
l 23 87
l 23 27
l 27 91
l 87 91
l 23 24
l 24 28
l 27 28
l 24 88
l 88 92
l 28 92
l 87 88
l 91 92
l 2 4
l 3 4
l 1 3
l 1 2
l 361 364
l 341 344
l 341 361
l 491 494
l 480 494
l 477 480
l 340 341
l 479 480
l 493 494
l 360 361
l 77 80
l 72 80
l 69 77
l 79 80
l 76 77
l 481 495
l 481 482
l 482 496
l 495 496
l 481 483
l 483 484
l 482 484
l 483 497
l 497 498
l 484 498
l 495 497
l 496 498
l 99 104
l 114 118
l 104 118
l 99 109
l 114 122
l 109 129
l 122 134
l 129 137
l 134 142
l 137 149
l 142 154
l 149 157
l 154 162
l 157 173
l 162 168
l 173 217
l 168 212
l 217 229
l 212 224
l 229 241
l 224 232
l 241 249
l 232 236
l 249 261
l 236 252
l 261 283
l 252 264
l 270 283
l 256 270
l 256 264
l 104 105
l 270 271
l 105 106
l 100 106
l 100 110
l 110 130
l 130 138
l 138 150
l 150 158
l 158 174
l 174 218
l 218 230
l 230 242
l 242 250
l 250 262
l 262 284
l 272 284
l 271 272
l 106 116
l 112 116
l 112 120
l 120 132
l 132 140
l 140 152
l 152 160
l 160 170
l 170 214
l 214 226
l 226 234
l 234 238
l 238 254
l 254 266
l 258 266
l 258 272
l 98 103
l 113 117
l 103 117
l 98 108
l 113 121
l 108 128
l 121 133
l 128 136
l 133 141
l 136 148
l 141 153
l 148 156
l 153 161
l 156 172
l 161 167
l 172 216
l 167 211
l 216 228
l 211 223
l 228 240
l 223 231
l 240 244
l 231 235
l 244 260
l 235 251
l 260 282
l 251 263
l 269 282
l 255 269
l 255 263
l 102 103
l 268 269
l 101 102
l 97 101
l 97 107
l 107 127
l 127 135
l 135 147
l 147 155
l 155 171
l 171 215
l 215 227
l 227 239
l 239 243
l 243 259
l 259 281
l 267 281
l 267 268
l 101 115
l 111 115
l 111 119
l 119 131
l 131 139
l 139 151
l 151 159
l 159 169
l 169 213
l 213 225
l 225 233
l 233 237
l 237 253
l 253 265
l 257 265
l 257 267
l 365 453
l 365 366
l 366 454
l 453 454
l 349 353
l 353 354
l 350 354
l 353 455
l 455 456
l 354 456
l 453 461
l 454 462
l 455 471
l 366 368
l 456 472
l 470 472
l 348 350
l 468 470
l 346 348
l 466 468
l 346 352
l 462 464
l 356 368
l 365 367
l 463 465
l 351 355
l 465 467
l 345 351
l 467 469
l 345 347
l 469 471
l 347 349
l 461 463
l 367 368
l 352 356
l 355 356
l 355 367
l 464 466
l 290 580
l 576 580
l 286 576
l 286 290
l 292 582
l 578 582
l 288 578
l 288 292
l 294 584
l 584 588
l 298 588
l 294 298
l 500 586
l 586 590
l 502 590
l 330 378
l 332 380
l 378 500
l 380 502
l 322 330
l 324 332
l 296 322
l 300 324
l 296 300
l 381 385
l 382 386
l 385 389
l 386 390
l 389 393
l 390 394
l 393 397
l 394 398
l 397 401
l 398 402
l 401 405
l 402 406
l 405 413
l 406 414
l 413 417
l 414 418
l 417 421
l 418 422
l 421 425
l 422 426
l 425 429
l 426 430
l 429 433
l 430 434
l 433 437
l 434 438
l 437 441
l 438 442
l 441 445
l 442 446
l 445 447
l 446 448
l 443 447
l 444 448
l 439 443
l 440 444
l 435 439
l 436 440
l 431 435
l 432 436
l 427 431
l 428 432
l 423 427
l 424 428
l 419 423
l 420 424
l 415 419
l 416 420
l 411 415
l 412 416
l 403 411
l 404 412
l 399 403
l 400 404
l 395 399
l 396 400
l 391 395
l 392 396
l 387 391
l 388 392
l 384 388
l 382 384
l 383 387
l 381 383
l 457 555
l 457 458
l 458 556
l 555 556
l 457 459
l 459 460
l 458 460
l 459 557
l 557 558
l 460 558
l 555 557
l 556 558
l 289 290
l 289 579
l 579 580
l 285 286
l 285 289
l 575 576
l 285 575
l 575 579
l 291 292
l 291 581
l 581 582
l 287 288
l 287 291
l 577 578
l 287 577
l 577 581
l 293 294
l 293 583
l 583 584
l 297 298
l 293 297
l 587 588
l 297 587
l 583 587
l 295 296
l 295 321
l 299 300
l 295 299
l 589 590
l 501 589
l 585 586
l 585 589
l 499 585
l 331 379
l 329 377
l 377 499
l 379 501
l 323 331
l 321 329
l 299 323
