# atego_wheel_fr_wire.obj - feature-edge wireframe, ISO 8855, metre
o wheel_fr_wire
v -0.440650 -0.079020 0.000000
v -0.440650 0.134970 0.000000
v -0.436880 -0.079020 -0.057520
v -0.436880 -0.079020 0.057520
v -0.436880 0.134970 -0.057520
v -0.436880 0.134970 0.057520
v -0.425630 -0.079020 -0.114050
v -0.425630 -0.079020 0.114050
v -0.425630 0.134970 -0.114050
v -0.425630 0.134970 0.114050
v -0.407110 -0.079020 -0.168630
v -0.407110 -0.079020 0.168630
v -0.407110 0.134970 -0.168630
v -0.407110 0.134970 0.168630
v -0.381610 -0.079020 -0.220320
v -0.381610 -0.079020 0.220320
v -0.381610 0.134970 -0.220320
v -0.381610 0.134970 0.220320
v -0.349590 -0.079020 -0.268250
v -0.349590 -0.079020 0.268250
v -0.349590 0.134970 -0.268250
v -0.349590 0.134970 0.268250
v -0.311590 -0.079020 -0.311580
v -0.311590 -0.079020 0.311580
v -0.311590 0.134970 -0.311580
v -0.311590 0.134970 0.311580
v -0.268690 -0.063070 0.000000
v -0.268690 -0.048210 0.000000
v -0.268690 0.105290 0.000000
v -0.268690 0.119030 0.000000
v -0.268250 -0.079020 -0.349590
v -0.268250 -0.079020 0.349590
v -0.268250 0.134970 -0.349590
v -0.268250 0.134970 0.349590
v -0.266690 -0.064070 0.000000
v -0.266690 0.120020 0.000000
v -0.266400 -0.056750 0.000000
v -0.266400 0.112710 0.000000
v -0.264690 -0.063070 0.000000
v -0.264690 0.119030 0.000000
v -0.264610 -0.063070 -0.046660
v -0.264610 -0.063070 0.046660
v -0.264610 -0.048210 -0.046660
v -0.264610 -0.048210 0.046660
v -0.264610 0.105290 -0.046660
v -0.264610 0.105290 0.046660
v -0.264610 0.119030 -0.046660
v -0.264610 0.119030 0.046660
v -0.262840 -0.057450 0.000000
v -0.262640 -0.064070 -0.046310
v -0.262640 -0.064070 0.046310
v -0.262640 0.120020 -0.046310
v -0.262640 0.120020 0.046310
v -0.260670 -0.063070 -0.045960
v -0.260670 -0.063070 0.045960
v -0.260670 0.119030 -0.045960
v -0.260670 0.119030 0.045960
v -0.258840 -0.057450 -0.045640
v -0.258840 -0.057450 0.045640
v -0.257320 -0.056750 -0.068950
v -0.257320 -0.056750 0.068950
v -0.257320 0.112710 -0.068950
v -0.257320 0.112710 0.068950
v -0.252490 -0.063070 -0.091900
v -0.252490 -0.063070 0.091900
v -0.252490 -0.048210 -0.091900
v -0.252490 -0.048210 0.091900
v -0.252490 0.105290 -0.091900
v -0.252490 0.105290 0.091900
v -0.252490 0.119030 -0.091900
v -0.252490 0.119030 0.091900
v -0.251830 -0.049840 0.000000
v -0.251830 0.103730 0.000000
v -0.250610 -0.064070 -0.091210
v -0.250610 -0.064070 0.091210
v -0.250610 0.120020 -0.091210
v -0.250610 0.120020 0.091210
v -0.248730 -0.063070 -0.090530
v -0.248730 -0.063070 0.090530
v -0.248730 0.119030 -0.090530
v -0.248730 0.119030 0.090530
v -0.248000 -0.049840 -0.043730
v -0.248000 -0.049840 0.043730
v -0.248000 0.103730 -0.043730
v -0.248000 0.103730 0.043730
v -0.246980 -0.057450 -0.089900
v -0.246980 -0.057450 0.089900
v -0.237450 0.104040 0.000000
v -0.236640 -0.049840 -0.086130
v -0.236640 -0.049840 0.086130
v -0.236640 0.103730 -0.086130
v -0.236640 0.103730 0.086130
v -0.233840 0.104040 -0.041230
v -0.233840 0.104040 0.041230
v -0.233430 0.008160 0.000000
v -0.233430 0.099580 0.000000
v -0.232690 -0.063070 -0.134350
v -0.232690 -0.063070 0.134350
v -0.232690 -0.048210 -0.134350
v -0.232690 -0.048210 0.134350
v -0.232690 0.105290 -0.134350
v -0.232690 0.105290 0.134350
v -0.232690 0.119030 -0.134350
v -0.232690 0.119030 0.134350
v -0.230960 -0.064070 -0.133340
v -0.230960 -0.064070 0.133340
v -0.230960 0.120020 -0.133340
v -0.230960 0.120020 0.133340
v -0.230710 -0.056750 -0.133200
v -0.230710 -0.056750 0.133200
v -0.230710 0.112710 -0.133200
v -0.230710 0.112710 0.133200
v -0.229890 0.008160 -0.040540
v -0.229890 0.008160 0.040540
v -0.229890 0.099580 -0.040540
v -0.229890 0.099580 0.040540
v -0.229540 0.003300 0.000000
v -0.229230 -0.063070 -0.132350
v -0.229230 -0.063070 0.132350
v -0.229230 0.119030 -0.132350
v -0.229230 0.119030 0.132350
v -0.227620 -0.057450 -0.131420
v -0.227620 -0.057450 0.131420
v -0.226050 0.003300 -0.039860
v -0.226050 0.003300 0.039860
v -0.223130 0.104040 -0.081210
v -0.223130 0.104040 0.081210
v -0.220330 -0.079020 -0.381610
v -0.220330 0.134970 -0.381610
v -0.220320 -0.079020 0.381610
v -0.220320 0.134970 0.381610
v -0.219440 -0.056150 0.000000
v -0.219360 0.008160 -0.079840
v -0.219360 0.008160 0.079840
v -0.219360 0.099580 -0.079840
v -0.219360 0.099580 0.079840
v -0.218090 -0.049840 -0.125920
v -0.218090 -0.049840 0.125920
v -0.218090 0.103730 -0.125920
v -0.218090 0.103730 0.125920
v -0.216110 -0.056150 -0.038110
v -0.216110 -0.056150 0.038110
v -0.215700 0.003300 -0.078510
v -0.215700 0.003300 0.078510
v -0.206210 -0.056150 -0.075050
v -0.206210 -0.056150 0.075050
v -0.205830 -0.063070 -0.172710
v -0.205830 -0.063070 0.172710
v -0.205830 -0.048210 -0.172710
v -0.205830 -0.048210 0.172710
v -0.205830 0.105290 -0.172710
v -0.205830 0.105290 0.172710
v -0.205830 0.119030 -0.172710
v -0.205830 0.119030 0.172710
v -0.205640 0.104040 -0.118720
v -0.205640 0.104040 0.118720
v -0.205080 -0.059970 -0.077250
v -0.205080 -0.059970 0.077250
v -0.204300 -0.064070 -0.171420
v -0.204300 -0.064070 0.171420
v -0.204300 0.120020 -0.171420
v -0.204300 0.120020 0.171420
v -0.203760 -0.056090 -0.080490
v -0.203760 -0.056090 0.080490
v -0.203440 -0.067120 -0.075460
v -0.203440 -0.067120 0.075460
v -0.202770 -0.063070 -0.170140
v -0.202770 -0.063070 0.170140
v -0.202770 0.119030 -0.170140
v -0.202770 0.119030 0.170140
v -0.202160 0.008160 -0.116720
v -0.202160 0.008160 0.116720
v -0.202160 0.099580 -0.116720
v -0.202160 0.099580 0.116720
v -0.201340 -0.057450 -0.168950
v -0.201340 -0.057450 0.168950
v -0.199420 -0.043400 -0.091100
v -0.199420 -0.043400 0.091090
v -0.198790 0.003300 -0.114770
v -0.198790 0.003300 0.114770
v -0.198400 -0.058400 -0.074130
v -0.198400 -0.058400 0.074130
v -0.198110 -0.073930 -0.071860
v -0.198110 -0.073930 0.071860
v -0.194930 -0.066860 -0.070350
v -0.194920 -0.066860 0.070350
v -0.192910 -0.049840 -0.161870
v -0.192910 -0.049840 0.161870
v -0.192910 0.103730 -0.161870
v -0.192910 0.103730 0.161870
v -0.192710 -0.043270 -0.087820
v -0.192710 -0.043270 0.087820
v -0.190040 -0.056150 -0.109720
v -0.190040 -0.056150 0.109720
v -0.190040 -0.043400 -0.109720
v -0.190040 -0.043400 0.109720
v -0.189950 -0.076700 -0.063190
v -0.189950 -0.076700 0.063190
v -0.188720 -0.069360 -0.062550
v -0.188720 -0.069360 0.062550
v -0.188370 -0.056750 -0.188370
v -0.188370 -0.056750 0.188370
v -0.188370 0.112710 -0.188370
v -0.188370 0.112710 0.188370
v -0.183590 -0.043330 -0.105920
v -0.183590 -0.043330 0.105920
v -0.182730 -0.073930 -0.105500
v -0.182730 -0.073930 0.105500
v -0.181900 0.104040 -0.152630
v -0.181900 0.104040 0.152630
v -0.179380 -0.079800 -0.047810
v -0.179380 -0.079800 0.047810
v -0.179310 -0.067110 -0.103520
v -0.179310 -0.067110 0.103520
v -0.178820 0.008160 -0.150050
v -0.178820 0.008160 0.150050
v -0.178820 0.099580 -0.150050
v -0.178820 0.099580 0.150050
v -0.178320 -0.072420 -0.047240
v -0.178320 -0.072420 0.047240
v -0.175840 0.003300 -0.147550
v -0.175840 0.003300 0.147550
v -0.172710 -0.063070 -0.205830
v -0.172710 -0.063070 0.205830
v -0.172710 -0.048210 -0.205830
v -0.172710 -0.048210 0.205830
v -0.172710 0.105290 -0.205830
v -0.172710 0.105290 0.205830
v -0.172710 0.119030 -0.205830
v -0.172710 0.119030 0.205830
v -0.171650 -0.083300 -0.026650
v -0.171650 -0.083300 0.026640
v -0.171430 -0.064070 -0.204300
v -0.171430 -0.064070 0.204300
v -0.171430 0.120020 -0.204300
v -0.171430 0.120020 0.204300
v -0.170780 -0.075880 -0.026270
v -0.170780 -0.075880 0.026270
v -0.170140 -0.063070 -0.202770
v -0.170140 -0.063070 0.202770
v -0.170140 0.119030 -0.202770
v -0.170140 0.119030 0.202770
v -0.168950 -0.057450 -0.201340
v -0.168950 -0.057450 0.201340
v -0.168630 -0.079020 -0.407110
v -0.168630 -0.079020 0.407110
v -0.168630 0.134970 -0.407110
v -0.168630 0.134970 0.407110
v -0.168260 -0.084170 0.000000
v -0.168100 -0.056150 -0.141060
v -0.168100 -0.056150 0.141050
v -0.168100 -0.043400 -0.141060
v -0.168100 -0.043400 0.141050
v -0.167640 -0.076730 0.000000
v -0.162360 -0.043400 -0.136240
v -0.162360 -0.043400 0.136240
v -0.161870 -0.049840 -0.192910
v -0.161870 -0.049840 0.192910
v -0.161870 0.103730 -0.192910
v -0.161870 0.103730 0.192910
v -0.161630 -0.073930 -0.135630
v -0.161630 -0.073930 0.135620
v -0.158600 -0.067110 -0.133080
v -0.158600 -0.067110 0.133080
v -0.152630 0.104040 -0.181900
v -0.152630 0.104040 0.181900
v -0.151920 -0.085350 0.000000
v -0.150050 0.008160 -0.178820
v -0.150050 0.008160 0.178820
v -0.150050 0.099580 -0.178820
v -0.150050 0.099580 0.178820
v -0.149610 -0.085350 -0.026380
v -0.149610 -0.085350 0.026380
v -0.148420 -0.078090 0.000000
v -0.147540 0.003300 -0.175840
v -0.147540 0.003300 0.175840
v -0.146060 -0.078200 -0.025630
v -0.146060 -0.078200 0.025630
v -0.142750 -0.085350 -0.051960
v -0.142750 -0.085350 0.051960
v -0.141060 -0.056150 -0.168100
v -0.141060 -0.056150 0.168100
v -0.141060 -0.043400 -0.168100
v -0.141060 -0.043400 0.168100
v -0.139230 -0.078380 -0.050560
v -0.139230 -0.078380 0.050560
v -0.137610 -0.102720 0.000000
v -0.136240 -0.043400 -0.162360
v -0.136240 -0.043400 0.162360
v -0.135620 -0.073930 -0.161630
v -0.135620 -0.073930 0.161630
v -0.135520 -0.102720 -0.023900
v -0.135520 -0.102720 0.023890
v -0.135260 -0.094520 0.000000
v -0.134350 -0.063070 -0.232690
v -0.134350 -0.063070 0.232690
v -0.134350 -0.048210 -0.232690
v -0.134350 -0.048210 0.232690
v -0.134350 0.105290 -0.232690
v -0.134350 0.105290 0.232690
v -0.134350 0.119030 -0.232690
v -0.134350 0.119030 0.232690
v -0.133350 -0.064070 -0.230960
v -0.133350 -0.064070 0.230960
v -0.133350 0.120020 -0.230960
v -0.133350 0.120020 0.230960
v -0.133200 -0.094510 -0.023490
v -0.133200 -0.094510 0.023480
v -0.133200 -0.056750 -0.230710
v -0.133200 -0.056750 0.230710
v -0.133200 0.112710 -0.230710
v -0.133200 0.112710 0.230710
v -0.133080 -0.067110 -0.158600
v -0.133080 -0.067110 0.158600
v -0.132350 -0.063070 -0.229230
v -0.132350 -0.063070 0.229230
v -0.132350 0.119030 -0.229230
v -0.132350 0.119030 0.229230
v -0.131560 -0.085350 -0.075960
v -0.131560 -0.085350 0.075960
v -0.131420 -0.057450 -0.227620
v -0.131420 -0.057450 0.227620
v -0.129310 -0.102720 -0.047060
v -0.129310 -0.102720 0.047060
v -0.128990 -0.107940 -0.016290
v -0.128990 -0.107940 0.016290
v -0.128250 -0.078430 -0.074030
v -0.128250 -0.078430 0.074030
v -0.127100 -0.094510 -0.046260
v -0.127100 -0.094510 0.046260
v -0.125920 -0.049840 -0.218090
v -0.125920 -0.049840 0.218090
v -0.125920 0.103730 -0.218090
v -0.125920 0.103730 0.218090
v -0.122150 -0.108940 -0.028710
v -0.122150 -0.108940 0.028700
v -0.122050 -0.125050 0.000000
v -0.120450 -0.125010 -0.014910
v -0.120450 -0.125010 0.014910
v -0.119980 -0.118960 -0.009460
v -0.119980 -0.118960 0.009460
v -0.119980 -0.102740 -0.009460
v -0.119980 -0.102740 0.009460
v -0.119170 -0.102720 -0.068800
v -0.119170 -0.102720 0.068800
v -0.118730 0.104040 -0.205640
v -0.118730 0.104040 0.205640
v -0.117130 -0.094510 -0.067630
v -0.117130 -0.094510 0.067620
v -0.116720 0.008160 -0.202160
v -0.116720 0.008160 0.202160
v -0.116720 0.099580 -0.202160
v -0.116720 0.099580 0.202160
v -0.116370 -0.085350 -0.097650
v -0.116370 -0.085350 0.097650
v -0.114770 0.003300 -0.198790
v -0.114770 0.003300 0.198790
v -0.114050 -0.079020 -0.425630
v -0.114050 -0.079020 0.425630
v -0.114050 0.134970 -0.425630
v -0.114050 0.134970 0.425630
v -0.113440 -0.078430 -0.095190
v -0.113440 -0.078430 0.095190
v -0.113410 -0.121420 0.000000
v -0.113410 -0.118870 0.000000
v -0.112100 -0.121420 -0.004900
v -0.112100 -0.121420 0.004900
v -0.112100 -0.118870 -0.004900
v -0.112100 -0.118870 0.004900
v -0.109720 -0.056150 -0.190040
v -0.109720 -0.056150 0.190040
v -0.109720 -0.043400 -0.190040
v -0.109720 -0.043400 0.190040
v -0.108530 -0.121420 -0.008490
v -0.108530 -0.121420 0.008490
v -0.108530 -0.118870 -0.008490
v -0.108530 -0.118870 0.008490
v -0.105920 -0.043330 -0.183590
v -0.105920 -0.043330 0.183590
v -0.105500 -0.073930 -0.182730
v -0.105500 -0.073930 0.182730
v -0.105410 -0.102720 -0.088450
v -0.105410 -0.102720 0.088450
v -0.103640 -0.121420 -0.009800
v -0.103640 -0.121420 0.009800
v -0.103640 -0.118960 -0.018920
v -0.103640 -0.118960 0.018920
v -0.103640 -0.118870 -0.009800
v -0.103640 -0.118870 0.009800
v -0.103640 -0.102740 -0.018920
v -0.103640 -0.102740 0.018920
v -0.103610 -0.094510 -0.086940
v -0.103610 -0.094510 0.086940
v -0.103520 -0.067110 -0.179310
v -0.103520 -0.067110 0.179310
v -0.098750 -0.121420 -0.008490
v -0.098750 -0.121420 0.008490
v -0.098750 -0.118870 -0.008490
v -0.098750 -0.118870 0.008490
v -0.097650 -0.085350 -0.116380
v -0.097650 -0.085350 0.116380
v -0.095190 -0.078430 -0.113440
v -0.095190 -0.078430 0.113440
v -0.095180 -0.121420 -0.004900
v -0.095180 -0.121420 0.004900
v -0.095180 -0.118870 -0.004900
v -0.095180 -0.118870 0.004900
v -0.093870 -0.121420 0.000000
v -0.093870 -0.118870 0.000000
v -0.091900 -0.063070 -0.252490
v -0.091900 -0.063070 0.252490
v -0.091900 -0.048210 -0.252490
v -0.091900 -0.048210 0.252490
v -0.091900 0.105290 -0.252490
v -0.091900 0.105290 0.252490
v -0.091900 0.119030 -0.252490
v -0.091900 0.119030 0.252490
v -0.091360 -0.111820 -0.042460
v -0.091360 -0.111820 0.042460
v -0.091210 -0.064070 -0.250610
v -0.091210 -0.064070 0.250610
v -0.091210 0.120020 -0.250610
v -0.091210 0.120020 0.250610
v -0.091100 -0.043400 -0.199420
v -0.091100 -0.043400 0.199420
v -0.090530 -0.063070 -0.248730
v -0.090530 -0.063070 0.248730
v -0.090530 0.119030 -0.248730
v -0.090530 0.119030 0.248730
v -0.089890 -0.057450 -0.246980
v -0.089890 -0.057450 0.246980
v -0.088450 -0.102720 -0.105410
v -0.088450 -0.102720 0.105410
v -0.087820 -0.043270 -0.192710
v -0.087820 -0.043270 0.192710
v -0.087420 -0.111940 -0.050470
v -0.087420 -0.111940 0.050470
v -0.087300 -0.118960 -0.009460
v -0.087300 -0.118960 0.009460
v -0.087300 -0.102740 -0.009460
v -0.087300 -0.102740 0.009460
v -0.086940 -0.094510 -0.103610
v -0.086940 -0.094510 0.103610
v -0.086730 -0.134390 -0.023580
v -0.086730 -0.134390 0.023580
v -0.086130 -0.049840 -0.236640
v -0.086130 -0.049840 0.236640
v -0.086130 0.103730 -0.236640
v -0.086130 0.103730 0.236640
v -0.085930 -0.108940 -0.091430
v -0.085930 -0.108940 0.091430
v -0.082450 -0.111820 -0.057880
v -0.082450 -0.111820 0.057880
v -0.081210 0.104040 -0.223130
v -0.081210 0.104040 0.223130
v -0.080490 -0.056090 -0.203760
v -0.080490 -0.056090 0.203760
v -0.079840 0.008160 -0.219360
v -0.079840 0.008160 0.219360
v -0.079840 0.099580 -0.219360
v -0.079840 0.099580 0.219360
v -0.078600 -0.107940 -0.103560
v -0.078600 -0.107940 0.103560
v -0.078510 0.003300 -0.215700
v -0.078510 0.003300 0.215700
v -0.077250 -0.059970 -0.205080
v -0.077250 -0.059970 0.205080
v -0.076860 -0.091710 0.000000
v -0.076690 -0.134500 -0.044280
v -0.076690 -0.134500 0.044280
v -0.076530 -0.102740 0.000000
v -0.076530 -0.094460 0.000000
v -0.075960 -0.085350 -0.131560
v -0.075960 -0.085350 0.131560
v -0.075920 -0.103730 0.000000
v -0.075460 -0.067120 -0.203440
v -0.075460 -0.067120 0.203440
v -0.075370 -0.102740 -0.013290
v -0.075370 -0.102740 0.013290
v -0.075370 -0.094460 -0.013290
v -0.075370 -0.094460 0.013290
v -0.075050 -0.056150 -0.206210
v -0.075050 -0.056150 0.206210
v -0.074260 -0.103730 -0.015780
v -0.074260 -0.103730 0.015780
v -0.074240 -0.098050 -0.019890
v -0.074240 -0.098050 0.019890
v -0.074240 -0.091710 -0.019890
v -0.074240 -0.091710 0.019890
v -0.074130 -0.058400 -0.198390
v -0.074130 -0.058400 0.198390
v -0.074030 -0.078430 -0.128250
v -0.074030 -0.078430 0.128250
v -0.073140 -0.125010 -0.096860
v -0.073140 -0.125010 0.096850
v -0.071920 -0.102740 -0.026170
v -0.071920 -0.102740 0.026170
v -0.071920 -0.094460 -0.026170
v -0.071920 -0.094460 0.026170
v -0.071860 -0.073930 -0.198110
v -0.071860 -0.073930 0.198100
v -0.070350 -0.066860 -0.194920
v -0.070350 -0.066860 0.194920
v -0.068950 -0.056750 -0.257320
v -0.068950 -0.056750 0.257320
v -0.068950 0.112710 -0.257320
v -0.068950 0.112710 0.257320
v -0.068890 -0.104090 0.000000
v -0.068800 -0.102720 -0.119170
v -0.068800 -0.102720 0.119170
v -0.068210 -0.118960 -0.080290
v -0.068210 -0.118960 0.080290
v -0.068210 -0.102740 -0.080290
v -0.068210 -0.102740 0.080290
v -0.068190 -0.118960 -0.099180
v -0.068190 -0.118960 0.099180
v -0.068190 -0.102740 -0.099180
v -0.068190 -0.102740 0.099180
v -0.067630 -0.094510 -0.117130
v -0.067630 -0.094510 0.117130
v -0.067380 -0.104090 -0.014320
v -0.067380 -0.104090 0.014320
v -0.066560 -0.098050 -0.038430
v -0.066560 -0.098050 0.038430
v -0.066560 -0.091710 -0.038430
v -0.066560 -0.091710 0.038430
v -0.066280 -0.102740 -0.038270
v -0.066280 -0.102740 0.038270
v -0.066280 -0.094460 -0.038270
v -0.066280 -0.094460 0.038270
v -0.065440 -0.098090 -0.017540
v -0.065440 -0.098090 0.017530
v -0.063790 -0.134390 -0.063320
v -0.063790 -0.134390 0.063320
v -0.063190 -0.076700 -0.189940
v -0.063190 -0.076700 0.189940
v -0.062550 -0.069360 -0.188720
v -0.062550 -0.069360 0.188720
v -0.061620 -0.121420 -0.089740
v -0.061620 -0.121420 0.089740
v -0.061620 -0.118870 -0.089740
v -0.061620 -0.118870 0.089740
v -0.061030 -0.125050 -0.105700
v -0.061030 -0.125050 0.105700
v -0.060310 -0.121420 -0.084850
v -0.060310 -0.121420 0.084850
v -0.060310 -0.118870 -0.084850
v -0.060310 -0.118870 0.084850
v -0.060300 -0.121420 -0.094640
v -0.060300 -0.121420 0.094640
v -0.060300 -0.118870 -0.094640
v -0.060300 -0.118870 0.094640
v -0.058680 -0.098090 -0.033880
v -0.058680 -0.098090 0.033880
v -0.058630 -0.102740 -0.049190
v -0.058630 -0.102740 0.049190
v -0.058630 -0.094460 -0.049190
v -0.058630 -0.094460 0.049190
v -0.057520 -0.079020 -0.436880
v -0.057520 -0.079020 0.436880
v -0.057520 0.134970 -0.436880
v -0.057520 0.134970 0.436880
v -0.056730 -0.121420 -0.081280
v -0.056730 -0.121420 0.081280
v -0.056730 -0.118870 -0.081280
v -0.056730 -0.118870 0.081280
v -0.056710 -0.121420 -0.098220
v -0.056710 -0.121420 0.098220
v -0.056710 -0.118870 -0.098220
v -0.056710 -0.118870 0.098220
v -0.054350 -0.098050 -0.054350
v -0.054350 -0.098050 0.054350
v -0.054350 -0.091710 -0.054350
v -0.054350 -0.091710 0.054350
v -0.052770 -0.073080 0.000000
v -0.051960 -0.085350 -0.142760
v -0.051960 -0.085350 0.142750
v -0.051850 -0.118960 -0.070870
v -0.051850 -0.118960 0.070870
v -0.051850 -0.102740 -0.070870
v -0.051850 -0.102740 0.070870
v -0.051830 -0.121420 -0.079970
v -0.051830 -0.121420 0.079970
v -0.051830 -0.118870 -0.079970
v -0.051830 -0.118870 0.079970
v -0.051810 -0.121420 -0.099540
v -0.051810 -0.121420 0.099530
v -0.051810 -0.118870 -0.099540
v -0.051810 -0.118870 0.099530
v -0.051800 -0.118960 -0.108640
v -0.051800 -0.118960 0.108640
v -0.051800 -0.102740 -0.108640
v -0.051800 -0.102740 0.108640
v -0.050980 -0.073080 -0.013660
v -0.050980 -0.073080 0.013660
v -0.050800 -0.103730 -0.056420
v -0.050800 -0.103730 0.056420
v -0.050560 -0.078380 -0.139230
v -0.050560 -0.078380 0.139230
v -0.050390 -0.107940 -0.119850
v -0.050390 -0.107940 0.119850
v -0.049190 -0.102740 -0.058630
v -0.049190 -0.102740 0.058630
v -0.049190 -0.094460 -0.058630
v -0.049190 -0.094460 0.058630
v -0.047910 -0.098090 -0.047910
v -0.047910 -0.098090 0.047910
v -0.047810 -0.079800 -0.179380
v -0.047810 -0.079800 0.179370
v -0.047310 -0.125010 -0.111770
v -0.047310 -0.125010 0.111770
v -0.047240 -0.072420 -0.178320
v -0.047240 -0.072420 0.178320
v -0.047060 -0.102720 -0.129310
v -0.047060 -0.102720 0.129310
v -0.046930 -0.121420 -0.081290
v -0.046930 -0.121420 0.081290
v -0.046930 -0.118870 -0.081290
v -0.046930 -0.118870 0.081290
v -0.046910 -0.121420 -0.098230
v -0.046910 -0.121420 0.098230
v -0.046910 -0.118870 -0.098230
v -0.046910 -0.118870 0.098230
v -0.046660 -0.063070 -0.264610
v -0.046660 -0.063070 0.264610
v -0.046660 -0.048210 -0.264610
v -0.046660 -0.048210 0.264610
v -0.046660 0.105290 -0.264610
v -0.046660 0.105290 0.264610
v -0.046660 0.119030 -0.264610
v -0.046660 0.119030 0.264610
v -0.046310 -0.064070 -0.262640
v -0.046310 -0.064070 0.262640
v -0.046310 0.120020 -0.262640
v -0.046310 0.120020 0.262640
v -0.046260 -0.094510 -0.127100
v -0.046260 -0.094510 0.127090
v -0.046090 -0.104090 -0.051190
v -0.046090 -0.104090 0.051190
v -0.045960 -0.063070 -0.260670
v -0.045960 -0.063070 0.260670
v -0.045960 0.119030 -0.260670
v -0.045960 0.119030 0.260670
v -0.045700 -0.073080 -0.026390
v -0.045700 -0.073080 0.026390
v -0.045640 -0.057450 -0.258840
v -0.045640 -0.057450 0.258840
v -0.045080 -0.147460 0.000000
v -0.044030 -0.072830 0.000000
v -0.043730 -0.049840 -0.248010
v -0.043730 -0.049840 0.248000
v -0.043730 0.103730 -0.248010
v -0.043730 0.103730 0.248000
v -0.043340 -0.121420 -0.084880
v -0.043340 -0.121420 0.084880
v -0.043340 -0.118870 -0.084880
v -0.043340 -0.118870 0.084880
v -0.043330 -0.121420 -0.094660
v -0.043330 -0.121420 0.094660
v -0.043330 -0.118870 -0.094660
v -0.043330 -0.118870 0.094660
v -0.042030 -0.121420 -0.089770
v -0.042030 -0.121420 0.089770
v -0.042030 -0.118870 -0.089770
v -0.042030 -0.118870 0.089770
v -0.041800 -0.082270 0.000000
v -0.041230 0.104040 -0.233850
v -0.041230 0.104040 0.233850
v -0.040540 0.008160 -0.229890
v -0.040540 0.008160 0.229890
v -0.040540 0.099580 -0.229890
v -0.040540 0.099580 0.229890
v -0.040340 -0.072830 -0.016710
v -0.040340 -0.072830 0.016710
v -0.039860 0.003300 -0.226050
v -0.039860 0.003300 0.226050
v -0.039620 -0.134310 0.000000
v -0.039040 -0.147460 -0.022540
v -0.039040 -0.147460 0.022540
v -0.038460 -0.091530 0.000000
v -0.038460 -0.082270 0.000000
v -0.038430 -0.091710 -0.066560
v -0.038430 -0.091710 0.066560
v -0.038290 -0.082270 -0.015860
v -0.038290 -0.082270 0.015860
v -0.038270 -0.102740 -0.066280
v -0.038270 -0.102740 0.066280
v -0.038270 -0.094460 -0.066280
v -0.038270 -0.094460 0.066280
v -0.038110 -0.056150 -0.216110
v -0.038110 -0.056150 0.216110
v -0.037960 -0.103730 -0.065750
v -0.037960 -0.103730 0.065750
v -0.037320 -0.073080 -0.037320
v -0.037320 -0.073080 0.037320
v -0.036220 -0.108940 -0.120140
v -0.036220 -0.108940 0.120140
v -0.035540 -0.091530 -0.014720
v -0.035540 -0.091530 0.014720
v -0.035540 -0.082270 -0.014720
v -0.035540 -0.082270 0.014720
v -0.035460 -0.118960 -0.080340
v -0.035460 -0.118960 0.080340
v -0.035460 -0.102740 -0.080340
v -0.035460 -0.102740 0.080340
v -0.035430 -0.118960 -0.099220
v -0.035430 -0.118960 0.099220
v -0.035430 -0.102740 -0.099220
v -0.035430 -0.102740 0.099220
v -0.034440 -0.104090 -0.059660
v -0.034440 -0.104090 0.059660
v -0.034310 -0.134310 -0.019810
v -0.034310 -0.134310 0.019810
v -0.031140 -0.072830 -0.031140
v -0.031140 -0.072830 0.031140
v -0.029860 -0.097040 -0.005940
v -0.029560 -0.082270 -0.029560
v -0.029560 -0.082270 0.029560
v -0.028700 -0.108650 -0.005710
v -0.027200 -0.091530 -0.027200
v -0.027200 -0.091530 0.027200
v -0.027200 -0.082270 -0.027200
v -0.027200 -0.082270 0.027200
v -0.026650 -0.083300 -0.171650
v -0.026650 -0.083300 0.171650
v -0.026390 -0.073080 -0.045700
v -0.026390 -0.073080 0.045700
v -0.026380 -0.085350 -0.149610
v -0.026380 -0.085350 0.149610
v -0.026370 -0.111570 -0.005250
v -0.026270 -0.075880 -0.170780
v -0.026270 -0.075880 0.170770
v -0.026180 -0.102740 -0.071920
v -0.026180 -0.102740 0.071920
v -0.026180 -0.094460 -0.071920
v -0.026180 -0.094460 0.071920
v -0.025620 -0.078200 -0.146060
v -0.025620 -0.078200 0.146060
v -0.025310 -0.097040 0.016910
v -0.024330 -0.108650 0.016260
v -0.023900 -0.102720 -0.135520
v -0.023900 -0.102720 0.135520
v -0.023490 -0.094510 -0.133200
v -0.023490 -0.094510 0.133200
v -0.023460 -0.103730 -0.072200
v -0.023460 -0.103730 0.072200
v -0.022940 -0.134390 -0.086900
v -0.022940 -0.134390 0.086900
v -0.022540 -0.147460 -0.039040
v -0.022540 -0.147460 0.039040
v -0.022350 -0.111570 0.014940
v -0.021290 -0.104090 -0.065520
v -0.021290 -0.104090 0.065520
v -0.019890 -0.098050 -0.074240
v -0.019890 -0.098050 0.074240
v -0.019890 -0.091710 -0.074240
v -0.019890 -0.091710 0.074240
v -0.019810 -0.134310 -0.034310
v -0.019810 -0.134310 0.034310
v -0.017530 -0.098090 -0.065440
v -0.017530 -0.098090 0.065440
v -0.016920 -0.097040 -0.025310
v -0.016710 -0.072830 -0.040340
v -0.016710 -0.072830 0.040340
v -0.016260 -0.108650 -0.024330
v -0.015860 -0.082270 -0.038290
v -0.015860 -0.082270 0.038290
v -0.014930 -0.111570 -0.022350
v -0.014720 -0.091530 -0.035540
v -0.014720 -0.091530 0.035540
v -0.014720 -0.082270 -0.035540
v -0.014720 -0.082270 0.035540
v -0.013660 -0.073080 -0.050980
v -0.013660 -0.073080 0.050980
v -0.013290 -0.102740 -0.075370
v -0.013290 -0.102740 0.075370
v -0.013290 -0.094460 -0.075370
v -0.013290 -0.094460 0.075370
v -0.008910 -0.111820 -0.100350
v -0.008900 -0.111820 0.100350
v -0.008050 -0.140300 0.001130
v -0.008050 -0.134310 0.001130
v -0.005940 -0.097040 0.029860
v -0.005710 -0.108650 0.028700
v -0.005240 -0.111570 0.026370
v -0.005010 -0.140300 -0.006410
v -0.005010 -0.134310 -0.006410
v -0.004070 -0.053000 0.203500
v -0.004060 -0.059850 0.202010
v -0.003470 -0.050360 0.204070
v -0.003470 0.005920 0.215630
v -0.003470 0.013310 0.218920
v -0.003470 0.016570 0.223310
v -0.003470 0.017700 0.227310
v -0.003470 0.017700 0.232720
v -0.003050 -0.140300 0.007540
v -0.003050 -0.134310 0.007540
v -0.002870 -0.060420 0.204840
v -0.002870 -0.059290 0.199190
v -0.002870 -0.053570 0.206320
v -0.002870 -0.052440 0.200670
v -0.002450 -0.050840 0.206480
v -0.002450 -0.049870 0.201660
v -0.002450 0.005170 0.217970
v -0.002450 0.006680 0.213280
v -0.002450 0.011770 0.220820
v -0.002450 0.014850 0.217030
v -0.002450 0.015240 0.232720
v -0.002450 0.015260 0.227650
v -0.002450 0.018830 0.222330
v -0.002450 0.020140 0.226980
v -0.002450 0.020160 0.232720
v -0.000000 -0.147460 -0.045080
v -0.000000 -0.147460 0.045070
v -0.000000 -0.134500 -0.088560
v -0.000000 -0.134500 0.088560
v -0.000000 -0.134310 -0.039620
v -0.000000 -0.134310 0.039620
v -0.000000 -0.111940 -0.100950
v -0.000000 -0.111940 0.100950
v -0.000000 -0.102740 -0.076530
v -0.000000 -0.102740 0.076530
v -0.000000 -0.102720 -0.137610
v -0.000000 -0.102720 0.137610
v -0.000000 -0.098090 -0.067750
v -0.000000 -0.098090 0.067750
v -0.000000 -0.098050 -0.076860
v -0.000000 -0.098050 0.076860
v -0.000000 -0.094520 -0.135260
v -0.000000 -0.094520 0.135260
v -0.000000 -0.094460 -0.076530
v -0.000000 -0.094460 0.076530
v -0.000000 -0.091710 -0.076860
v -0.000000 -0.091710 0.076860
v -0.000000 -0.091530 -0.038470
v -0.000000 -0.091530 0.038470
v -0.000000 -0.085350 -0.151920
v -0.000000 -0.085350 0.151920
v -0.000000 -0.084170 -0.168260
v -0.000000 -0.084170 0.168260
v -0.000000 -0.082270 -0.041800
v -0.000000 -0.082270 -0.038470
v -0.000000 -0.082270 0.038470
v -0.000000 -0.082270 0.041800
v -0.000000 -0.079020 -0.440650
v -0.000000 -0.079020 0.440650
v -0.000000 -0.078090 -0.148420
v -0.000000 -0.078090 0.148420
v -0.000000 -0.076730 -0.167630
v -0.000000 -0.076730 0.167630
v -0.000000 -0.073080 -0.052780
v -0.000000 -0.073080 0.052770
v -0.000000 -0.072830 -0.044030
v -0.000000 -0.072830 0.044030
v -0.000000 -0.064070 -0.266690
v -0.000000 -0.064070 0.266690
v -0.000000 -0.063070 -0.268690
v -0.000000 -0.063070 -0.264690
v -0.000000 -0.063070 0.264690
v -0.000000 -0.063070 0.268690
v -0.000000 -0.057450 -0.262830
v -0.000000 -0.057450 0.262830
v -0.000000 -0.056750 -0.266400
v -0.000000 -0.056750 0.266400
v -0.000000 -0.056150 -0.219440
v -0.000000 -0.056150 0.219440
v -0.000000 -0.049840 -0.251830
v -0.000000 -0.049840 0.251830
v -0.000000 -0.048210 -0.268690
v -0.000000 -0.048210 0.268690
v -0.000000 0.003300 -0.229540
v -0.000000 0.003300 0.229540
v -0.000000 0.008160 -0.233430
v -0.000000 0.008160 0.233430
v -0.000000 0.099580 -0.233430
v -0.000000 0.099580 0.233430
v -0.000000 0.103730 -0.251830
v -0.000000 0.103730 0.251830
v -0.000000 0.104040 -0.237450
v -0.000000 0.104040 0.237450
v -0.000000 0.105290 -0.268690
v -0.000000 0.105290 0.268690
v -0.000000 0.112710 -0.266400
v -0.000000 0.112710 0.266400
v -0.000000 0.119030 -0.268690
v -0.000000 0.119030 -0.264690
v -0.000000 0.119030 0.264690
v -0.000000 0.119030 0.268690
v -0.000000 0.120020 -0.266690
v -0.000000 0.120020 0.266690
v -0.000000 0.134970 -0.440650
v -0.000000 0.134970 0.440650
v 0.000010 -0.060650 0.206000
v 0.000010 -0.059060 0.198020
v 0.000010 -0.053800 0.207490
v 0.000010 -0.052200 0.199500
v 0.000010 -0.051040 0.207480
v 0.000010 -0.049680 0.200660
v 0.000010 0.004850 0.218940
v 0.000010 0.007000 0.212310
v 0.000010 0.011130 0.221600
v 0.000010 0.015490 0.216240
v 0.000010 0.019770 0.221920
v 0.000010 0.021140 0.226840
v 0.000010 0.021180 0.232720
v 0.002470 -0.050840 0.206480
v 0.002470 -0.049870 0.201660
v 0.002470 0.005170 0.217970
v 0.002470 0.006680 0.213280
v 0.002470 0.011770 0.220820
v 0.002470 0.014850 0.217030
v 0.002470 0.015240 0.232720
v 0.002470 0.015260 0.227650
v 0.002470 0.018830 0.222330
v 0.002470 0.020140 0.226980
v 0.002470 0.020160 0.232720
v 0.002890 -0.060420 0.204840
v 0.002890 -0.059290 0.199190
v 0.002890 -0.053570 0.206320
v 0.002890 -0.052440 0.200670
v 0.003050 -0.140300 -0.007540
v 0.003050 -0.134310 -0.007540
v 0.003490 -0.050360 0.204070
v 0.003490 0.005920 0.215630
v 0.003490 0.013310 0.218920
v 0.003490 0.016570 0.223310
v 0.003490 0.017700 0.227310
v 0.003490 0.017700 0.232720
v 0.004080 -0.059850 0.202010
v 0.004080 -0.053000 0.203500
v 0.005010 -0.140300 0.006410
v 0.005010 -0.134310 0.006410
v 0.005240 -0.111570 -0.026370
v 0.005710 -0.108650 -0.028700
v 0.005940 -0.097040 -0.029860
v 0.008050 -0.140300 -0.001130
v 0.008050 -0.134310 -0.001130
v 0.008900 -0.111820 -0.100350
v 0.008900 -0.111820 0.100350
v 0.013290 -0.102740 -0.075370
v 0.013290 -0.102740 0.075370
v 0.013290 -0.094460 -0.075370
v 0.013290 -0.094460 0.075370
v 0.013660 -0.073080 -0.050980
v 0.013660 -0.073080 0.050980
v 0.014720 -0.091530 -0.035540
v 0.014720 -0.091530 0.035540
v 0.014720 -0.082270 -0.035540
v 0.014720 -0.082270 0.035540
v 0.014930 -0.111570 0.022350
v 0.015860 -0.082270 -0.038290
v 0.015860 -0.082270 0.038290
v 0.016260 -0.108650 0.024330
v 0.016710 -0.072830 -0.040340
v 0.016710 -0.072830 0.040340
v 0.016910 -0.097040 0.025310
v 0.017530 -0.098090 -0.065440
v 0.017530 -0.098090 0.065440
v 0.019810 -0.134310 -0.034310
v 0.019810 -0.134310 0.034310
v 0.019890 -0.098050 -0.074240
v 0.019890 -0.098050 0.074240
v 0.019890 -0.091710 -0.074240
v 0.019890 -0.091710 0.074240
v 0.021290 -0.104090 -0.065520
v 0.021290 -0.104090 0.065520
v 0.022350 -0.111570 -0.014940
v 0.022540 -0.147460 -0.039040
v 0.022540 -0.147460 0.039040
v 0.022940 -0.134390 -0.086900
v 0.022940 -0.134390 0.086900
v 0.023460 -0.103730 -0.072200
v 0.023460 -0.103730 0.072200
v 0.023490 -0.094510 -0.133200
v 0.023490 -0.094510 0.133200
v 0.023900 -0.102720 -0.135520
v 0.023900 -0.102720 0.135520
v 0.024330 -0.108650 -0.016260
v 0.025310 -0.097040 -0.016910
v 0.025620 -0.078200 -0.146060
v 0.025620 -0.078200 0.146060
v 0.026180 -0.102740 -0.071920
v 0.026180 -0.102740 0.071920
v 0.026180 -0.094460 -0.071920
v 0.026180 -0.094460 0.071920
v 0.026270 -0.075880 -0.170780
v 0.026270 -0.075880 0.170770
v 0.026360 -0.111570 0.005250
v 0.026380 -0.085350 -0.149610
v 0.026380 -0.085350 0.149610
v 0.026390 -0.073080 -0.045700
v 0.026390 -0.073080 0.045700
v 0.026650 -0.083300 -0.171650
v 0.026650 -0.083300 0.171650
v 0.027200 -0.091530 -0.027200
v 0.027200 -0.091530 0.027200
v 0.027200 -0.082270 -0.027200
v 0.027200 -0.082270 0.027200
v 0.028700 -0.108650 0.005710
v 0.029550 -0.082270 -0.029560
v 0.029550 -0.082270 0.029560
v 0.029860 -0.097040 0.005940
v 0.031140 -0.072830 -0.031140
v 0.031140 -0.072830 0.031140
v 0.034310 -0.134310 -0.019810
v 0.034310 -0.134310 0.019810
v 0.034440 -0.104090 -0.059660
v 0.034440 -0.104090 0.059660
v 0.035430 -0.118960 -0.099220
v 0.035430 -0.118960 0.099220
v 0.035430 -0.102740 -0.099220
v 0.035430 -0.102740 0.099220
v 0.035460 -0.118960 -0.080340
v 0.035460 -0.118960 0.080340
v 0.035460 -0.102740 -0.080340
v 0.035460 -0.102740 0.080340
v 0.035540 -0.091530 -0.014720
v 0.035540 -0.091530 0.014720
v 0.035540 -0.082270 -0.014720
v 0.035540 -0.082270 0.014720
v 0.036210 -0.108940 -0.120140
v 0.036210 -0.108940 0.120140
v 0.037320 -0.073080 -0.037320
v 0.037320 -0.073080 0.037320
v 0.037960 -0.103730 -0.065750
v 0.037960 -0.103730 0.065750
v 0.038110 -0.056150 -0.216110
v 0.038110 -0.056150 0.216110
v 0.038260 -0.102740 -0.066280
v 0.038260 -0.102740 0.066280
v 0.038260 -0.094460 -0.066280
v 0.038260 -0.094460 0.066280
v 0.038290 -0.082270 -0.015860
v 0.038290 -0.082270 0.015860
v 0.038430 -0.091710 -0.066560
v 0.038430 -0.091710 0.066560
v 0.038460 -0.091530 0.000000
v 0.038460 -0.082270 0.000000
v 0.039040 -0.147460 -0.022540
v 0.039040 -0.147460 0.022540
v 0.039620 -0.134310 0.000000
v 0.039860 0.003300 -0.226050
v 0.039860 0.003300 0.226050
v 0.040330 -0.072830 -0.016710
v 0.040330 -0.072830 0.016710
v 0.040530 0.008160 -0.229890
v 0.040530 0.008160 0.229890
v 0.040530 0.099580 -0.229890
v 0.040530 0.099580 0.229890
v 0.041230 0.104040 -0.233850
v 0.041230 0.104040 0.233850
v 0.041800 -0.082270 0.000000
v 0.042030 -0.121420 -0.089770
v 0.042030 -0.121420 0.089770
v 0.042030 -0.118870 -0.089770
v 0.042030 -0.118870 0.089770
v 0.043330 -0.121420 -0.094660
v 0.043330 -0.121420 0.094660
v 0.043330 -0.118870 -0.094660
v 0.043330 -0.118870 0.094660
v 0.043340 -0.121420 -0.084880
v 0.043340 -0.121420 0.084880
v 0.043340 -0.118870 -0.084880
v 0.043340 -0.118870 0.084880
v 0.043730 -0.049840 -0.248010
v 0.043730 -0.049840 0.248000
v 0.043730 0.103730 -0.248010
v 0.043730 0.103730 0.248000
v 0.044030 -0.072830 0.000000
v 0.045080 -0.147460 0.000000
v 0.045640 -0.057450 -0.258840
v 0.045640 -0.057450 0.258840
v 0.045700 -0.073080 -0.026390
v 0.045700 -0.073080 0.026390
v 0.045960 -0.063070 -0.260670
v 0.045960 -0.063070 0.260670
v 0.045960 0.119030 -0.260670
v 0.045960 0.119030 0.260670
v 0.046090 -0.104090 -0.051190
v 0.046090 -0.104090 0.051190
v 0.046260 -0.094510 -0.127100
v 0.046260 -0.094510 0.127090
v 0.046310 -0.064070 -0.262640
v 0.046310 -0.064070 0.262640
v 0.046310 0.120020 -0.262640
v 0.046310 0.120020 0.262640
v 0.046660 -0.063070 -0.264610
v 0.046660 -0.063070 0.264610
v 0.046660 -0.048210 -0.264610
v 0.046660 -0.048210 0.264610
v 0.046660 0.105290 -0.264610
v 0.046660 0.105290 0.264610
v 0.046660 0.119030 -0.264610
v 0.046660 0.119030 0.264610
v 0.046910 -0.121420 -0.098230
v 0.046910 -0.121420 0.098230
v 0.046910 -0.118870 -0.098230
v 0.046910 -0.118870 0.098230
v 0.046930 -0.121420 -0.081290
v 0.046930 -0.121420 0.081290
v 0.046930 -0.118870 -0.081290
v 0.046930 -0.118870 0.081290
v 0.047060 -0.102720 -0.129310
v 0.047060 -0.102720 0.129310
v 0.047240 -0.072420 -0.178320
v 0.047240 -0.072420 0.178320
v 0.047310 -0.125010 -0.111770
v 0.047310 -0.125010 0.111770
v 0.047810 -0.079800 -0.179380
v 0.047810 -0.079800 0.179370
v 0.047910 -0.098090 -0.047910
v 0.047910 -0.098090 0.047910
v 0.049190 -0.102740 -0.058630
v 0.049190 -0.102740 0.058630
v 0.049190 -0.094460 -0.058630
v 0.049190 -0.094460 0.058630
v 0.050390 -0.107940 -0.119850
v 0.050390 -0.107940 0.119850
v 0.050560 -0.078380 -0.139230
v 0.050560 -0.078380 0.139230
v 0.050800 -0.103730 -0.056420
v 0.050800 -0.103730 0.056420
v 0.050980 -0.073080 -0.013660
v 0.050980 -0.073080 0.013660
v 0.051790 -0.118960 -0.108640
v 0.051790 -0.118960 0.108640
v 0.051790 -0.102740 -0.108640
v 0.051790 -0.102740 0.108640
v 0.051810 -0.121420 -0.099540
v 0.051810 -0.121420 0.099530
v 0.051810 -0.118870 -0.099540
v 0.051810 -0.118870 0.099530
v 0.051830 -0.121420 -0.079970
v 0.051830 -0.121420 0.079970
v 0.051830 -0.118870 -0.079970
v 0.051830 -0.118870 0.079970
v 0.051850 -0.118960 -0.070870
v 0.051850 -0.118960 0.070870
v 0.051850 -0.102740 -0.070870
v 0.051850 -0.102740 0.070870
v 0.051960 -0.085350 -0.142760
v 0.051960 -0.085350 0.142750
v 0.052770 -0.073080 0.000000
v 0.054340 -0.098050 0.054350
v 0.054340 -0.091710 0.054350
v 0.054350 -0.098050 -0.054350
v 0.054350 -0.091710 -0.054350
v 0.056710 -0.121420 -0.098220
v 0.056710 -0.121420 0.098220
v 0.056710 -0.118870 -0.098220
v 0.056710 -0.118870 0.098220
v 0.056730 -0.121420 -0.081280
v 0.056730 -0.121420 0.081280
v 0.056730 -0.118870 -0.081280
v 0.056730 -0.118870 0.081280
v 0.057510 -0.079020 -0.436880
v 0.057510 -0.079020 0.436880
v 0.057510 0.134970 -0.436880
v 0.057510 0.134970 0.436880
v 0.058620 -0.102740 -0.049190
v 0.058620 -0.102740 0.049190
v 0.058620 -0.094460 -0.049190
v 0.058620 -0.094460 0.049190
v 0.058680 -0.098090 -0.033880
v 0.058680 -0.098090 0.033880
v 0.060300 -0.121420 -0.094640
v 0.060300 -0.121420 0.094640
v 0.060300 -0.118870 -0.094640
v 0.060300 -0.118870 0.094640
v 0.060310 -0.121420 -0.084850
v 0.060310 -0.121420 0.084850
v 0.060310 -0.118870 -0.084850
v 0.060310 -0.118870 0.084850
v 0.061020 -0.125050 -0.105700
v 0.061020 -0.125050 0.105700
v 0.061610 -0.121420 -0.089740
v 0.061610 -0.118870 -0.089740
v 0.061620 -0.121420 0.089740
v 0.061620 -0.118870 0.089740
v 0.062550 -0.069360 -0.188720
v 0.062550 -0.069360 0.188720
v 0.063190 -0.076700 -0.189950
v 0.063190 -0.076700 0.189940
v 0.063790 -0.134390 -0.063320
v 0.063790 -0.134390 0.063320
v 0.065440 -0.098090 -0.017540
v 0.065440 -0.098090 0.017530
v 0.066280 -0.102740 -0.038270
v 0.066280 -0.102740 0.038270
v 0.066280 -0.094460 -0.038270
v 0.066280 -0.094460 0.038270
v 0.066560 -0.098050 -0.038430
v 0.066560 -0.098050 0.038430
v 0.066560 -0.091710 -0.038430
v 0.066560 -0.091710 0.038430
v 0.067380 -0.104090 -0.014320
v 0.067380 -0.104090 0.014320
v 0.067630 -0.094510 -0.117130
v 0.067630 -0.094510 0.117130
v 0.068190 -0.118960 -0.099180
v 0.068190 -0.118960 0.099180
v 0.068190 -0.102740 -0.099180
v 0.068190 -0.102740 0.099180
v 0.068210 -0.118960 -0.080290
v 0.068210 -0.118960 0.080290
v 0.068210 -0.102740 -0.080290
v 0.068210 -0.102740 0.080290
v 0.068800 -0.102720 -0.119170
v 0.068800 -0.102720 0.119170
v 0.068890 -0.104090 0.000000
v 0.068950 -0.056750 -0.257320
v 0.068950 -0.056750 0.257320
v 0.068950 0.112710 -0.257320
v 0.068950 0.112710 0.257320
v 0.070350 -0.066860 -0.194920
v 0.070350 -0.066860 0.194920
v 0.071860 -0.073930 -0.198110
v 0.071860 -0.073930 0.198100
v 0.071910 -0.102740 -0.026170
v 0.071910 -0.094460 -0.026170
v 0.071920 -0.102740 0.026170
v 0.071920 -0.094460 0.026170
v 0.073140 -0.125010 -0.096860
v 0.073140 -0.125010 0.096850
v 0.074020 -0.078430 -0.128250
v 0.074020 -0.078430 0.128250
v 0.074130 -0.058400 -0.198390
v 0.074130 -0.058400 0.198390
v 0.074240 -0.098050 -0.019890
v 0.074240 -0.098050 0.019890
v 0.074240 -0.091710 -0.019890
v 0.074240 -0.091710 0.019890
v 0.074260 -0.103730 -0.015780
v 0.074260 -0.103730 0.015780
v 0.075050 -0.056150 -0.206210
v 0.075050 -0.056150 0.206210
v 0.075370 -0.102740 -0.013290
v 0.075370 -0.102740 0.013290
v 0.075370 -0.094460 -0.013290
v 0.075370 -0.094460 0.013290
v 0.075460 -0.067120 -0.203440
v 0.075460 -0.067120 0.203440
v 0.075910 -0.103730 0.000000
v 0.075960 -0.085350 -0.131560
v 0.075960 -0.085350 0.131560
v 0.076530 -0.102740 0.000000
v 0.076530 -0.094460 0.000000
v 0.076690 -0.134500 -0.044280
v 0.076690 -0.134500 0.044280
v 0.076860 -0.091710 0.000000
v 0.077250 -0.059970 -0.205080
v 0.077250 -0.059970 0.205080
v 0.078510 0.003300 -0.215700
v 0.078510 0.003300 0.215700
v 0.078600 -0.107940 -0.103560
v 0.078600 -0.107940 0.103560
v 0.079840 0.008160 -0.219360
v 0.079840 0.008160 0.219360
v 0.079840 0.099580 -0.219360
v 0.079840 0.099580 0.219360
v 0.080490 -0.056090 -0.203760
v 0.080490 -0.056090 0.203760
v 0.081210 0.104040 -0.223130
v 0.081210 0.104040 0.223130
v 0.082450 -0.111820 -0.057880
v 0.082450 -0.111820 0.057880
v 0.085930 -0.108940 -0.091430
v 0.085930 -0.108940 0.091430
v 0.086130 -0.049840 -0.236640
v 0.086130 -0.049840 0.236640
v 0.086130 0.103730 -0.236640
v 0.086130 0.103730 0.236640
v 0.086720 -0.134390 -0.023580
v 0.086720 -0.134390 0.023580
v 0.086940 -0.094510 -0.103610
v 0.086940 -0.094510 0.103610
v 0.087300 -0.118960 -0.009460
v 0.087300 -0.118960 0.009460
v 0.087300 -0.102740 -0.009460
v 0.087300 -0.102740 0.009460
v 0.087420 -0.111940 -0.050470
v 0.087420 -0.111940 0.050470
v 0.087810 -0.043270 -0.192710
v 0.087810 -0.043270 0.192710
v 0.088450 -0.102720 -0.105410
v 0.088450 -0.102720 0.105410
v 0.089890 -0.057450 -0.246980
v 0.089890 -0.057450 0.246980
v 0.090530 -0.063070 -0.248730
v 0.090530 -0.063070 0.248730
v 0.090530 0.119030 -0.248730
v 0.090530 0.119030 0.248730
v 0.091100 -0.043400 -0.199420
v 0.091100 -0.043400 0.199420
v 0.091210 -0.064070 -0.250610
v 0.091210 -0.064070 0.250610
v 0.091210 0.120020 -0.250610
v 0.091210 0.120020 0.250610
v 0.091350 -0.111820 -0.042460
v 0.091350 -0.111820 0.042460
v 0.091900 -0.063070 -0.252490
v 0.091900 -0.063070 0.252490
v 0.091900 -0.048210 -0.252490
v 0.091900 -0.048210 0.252490
v 0.091900 0.105290 -0.252490
v 0.091900 0.105290 0.252490
v 0.091900 0.119030 -0.252490
v 0.091900 0.119030 0.252490
v 0.093870 -0.121420 0.000000
v 0.093870 -0.118870 0.000000
v 0.095180 -0.121420 -0.004900
v 0.095180 -0.121420 0.004900
v 0.095180 -0.118870 -0.004900
v 0.095180 -0.118870 0.004900
v 0.095190 -0.078430 -0.113440
v 0.095190 -0.078430 0.113440
v 0.097650 -0.085350 -0.116380
v 0.097650 -0.085350 0.116380
v 0.098750 -0.121420 -0.008490
v 0.098750 -0.121420 0.008490
v 0.098750 -0.118870 -0.008490
v 0.098750 -0.118870 0.008490
v 0.103520 -0.067110 -0.179310
v 0.103520 -0.067110 0.179310
v 0.103610 -0.094510 -0.086940
v 0.103610 -0.094510 0.086940
v 0.103640 -0.121420 -0.009800
v 0.103640 -0.121420 0.009800
v 0.103640 -0.118960 -0.018920
v 0.103640 -0.118960 0.018920
v 0.103640 -0.118870 -0.009800
v 0.103640 -0.118870 0.009800
v 0.103640 -0.102740 -0.018920
v 0.103640 -0.102740 0.018920
v 0.105410 -0.102720 -0.088450
v 0.105410 -0.102720 0.088450
v 0.105500 -0.073930 -0.182730
v 0.105500 -0.073930 0.182730
v 0.105910 -0.043330 -0.183590
v 0.105910 -0.043330 0.183590
v 0.108530 -0.121420 -0.008490
v 0.108530 -0.121420 0.008490
v 0.108530 -0.118870 -0.008490
v 0.108530 -0.118870 0.008490
v 0.109720 -0.056150 -0.190040
v 0.109720 -0.056150 0.190040
v 0.109720 -0.043400 -0.190040
v 0.109720 -0.043400 0.190040
v 0.112100 -0.121420 -0.004900
v 0.112100 -0.121420 0.004900
v 0.112100 -0.118870 -0.004900
v 0.112100 -0.118870 0.004900
v 0.113410 -0.121420 0.000000
v 0.113410 -0.118870 0.000000
v 0.113440 -0.078430 -0.095190
v 0.113440 -0.078430 0.095190
v 0.114050 -0.079020 -0.425630
v 0.114050 -0.079020 0.425630
v 0.114050 0.134970 -0.425630
v 0.114050 0.134970 0.425630
v 0.114770 0.003300 -0.198790
v 0.114770 0.003300 0.198790
v 0.116370 -0.085350 -0.097650
v 0.116370 -0.085350 0.097650
v 0.116720 0.008160 -0.202160
v 0.116720 0.008160 0.202160
v 0.116720 0.099580 -0.202160
v 0.116720 0.099580 0.202160
v 0.117130 -0.094510 -0.067630
v 0.117130 -0.094510 0.067620
v 0.118730 0.104040 -0.205640
v 0.118730 0.104040 0.205640
v 0.119170 -0.102720 -0.068800
v 0.119170 -0.102720 0.068800
v 0.119980 -0.118960 -0.009460
v 0.119980 -0.118960 0.009460
v 0.119980 -0.102740 -0.009460
v 0.119980 -0.102740 0.009460
v 0.120450 -0.125010 -0.014910
v 0.120450 -0.125010 0.014910
v 0.122050 -0.125050 0.000000
v 0.122150 -0.108940 -0.028710
v 0.122150 -0.108940 0.028700
v 0.125910 -0.049840 -0.218090
v 0.125910 -0.049840 0.218090
v 0.125910 0.103730 -0.218090
v 0.125910 0.103730 0.218090
v 0.127100 -0.094510 -0.046260
v 0.127100 -0.094510 0.046260
v 0.128250 -0.078430 -0.074030
v 0.128250 -0.078430 0.074030
v 0.128990 -0.107940 -0.016290
v 0.128990 -0.107940 0.016290
v 0.129310 -0.102720 -0.047060
v 0.129310 -0.102720 0.047060
v 0.131420 -0.057450 -0.227620
v 0.131420 -0.057450 0.227620
v 0.131560 -0.085350 -0.075960
v 0.131560 -0.085350 0.075960
v 0.132350 -0.063070 -0.229230
v 0.132350 -0.063070 0.229230
v 0.132350 0.119030 -0.229230
v 0.132350 0.119030 0.229230
v 0.133080 -0.067110 -0.158600
v 0.133080 -0.067110 0.158600
v 0.133200 -0.094510 -0.023490
v 0.133200 -0.094510 0.023480
v 0.133200 -0.056750 -0.230710
v 0.133200 -0.056750 0.230710
v 0.133200 0.112710 -0.230710
v 0.133200 0.112710 0.230710
v 0.133350 -0.064070 -0.230960
v 0.133350 -0.064070 0.230960
v 0.133350 0.120020 -0.230960
v 0.133350 0.120020 0.230960
v 0.134340 -0.063070 -0.232690
v 0.134340 -0.063070 0.232690
v 0.134340 -0.048210 -0.232690
v 0.134340 -0.048210 0.232690
v 0.134340 0.105290 -0.232690
v 0.134340 0.105290 0.232690
v 0.134340 0.119030 -0.232690
v 0.134340 0.119030 0.232690
v 0.135260 -0.094520 0.000000
v 0.135520 -0.102720 -0.023900
v 0.135520 -0.102720 0.023890
v 0.135620 -0.073930 -0.161630
v 0.135620 -0.073930 0.161630
v 0.136230 -0.043400 -0.162360
v 0.136230 -0.043400 0.162360
v 0.137610 -0.102720 0.000000
v 0.139230 -0.078380 -0.050560
v 0.139230 -0.078380 0.050560
v 0.141060 -0.056150 -0.168100
v 0.141060 -0.056150 0.168100
v 0.141060 -0.043400 -0.168100
v 0.141060 -0.043400 0.168100
v 0.142750 -0.085350 -0.051960
v 0.142750 -0.085350 0.051960
v 0.146050 -0.078200 -0.025630
v 0.146050 -0.078200 0.025630
v 0.147540 0.003300 -0.175840
v 0.147540 0.003300 0.175840
v 0.148420 -0.078090 0.000000
v 0.149610 -0.085350 -0.026380
v 0.149610 -0.085350 0.026380
v 0.150050 0.008160 -0.178820
v 0.150050 0.008160 0.178820
v 0.150050 0.099580 -0.178820
v 0.150050 0.099580 0.178820
v 0.151920 -0.085350 0.000000
v 0.152630 0.104040 -0.181900
v 0.152630 0.104040 0.181900
v 0.158600 -0.067110 -0.133080
v 0.158600 -0.067110 0.133080
v 0.161630 -0.073930 -0.135630
v 0.161630 -0.073930 0.135620
v 0.161870 -0.049840 -0.192910
v 0.161870 -0.049840 0.192910
v 0.161870 0.103730 -0.192910
v 0.161870 0.103730 0.192910
v 0.162360 -0.043400 -0.136240
v 0.162360 -0.043400 0.136240
v 0.167640 -0.076730 0.000000
v 0.168100 -0.056150 -0.141060
v 0.168100 -0.056150 0.141050
v 0.168100 -0.043400 -0.141060
v 0.168100 -0.043400 0.141050
v 0.168260 -0.084170 0.000000
v 0.168630 -0.079020 -0.407110
v 0.168630 -0.079020 0.407110
v 0.168630 0.134970 -0.407110
v 0.168630 0.134970 0.407110
v 0.168950 -0.057450 -0.201340
v 0.168950 -0.057450 0.201340
v 0.170140 -0.063070 -0.202770
v 0.170140 -0.063070 0.202770
v 0.170140 0.119030 -0.202770
v 0.170140 0.119030 0.202770
v 0.170780 -0.075880 -0.026270
v 0.170780 -0.075880 0.026270
v 0.171430 -0.064070 -0.204300
v 0.171430 -0.064070 0.204300
v 0.171430 0.120020 -0.204300
v 0.171430 0.120020 0.204300
v 0.171650 -0.083300 -0.026650
v 0.171650 -0.083300 0.026640
v 0.172710 -0.063070 -0.205830
v 0.172710 -0.063070 0.205830
v 0.172710 -0.048210 -0.205830
v 0.172710 -0.048210 0.205830
v 0.172710 0.105290 -0.205830
v 0.172710 0.105290 0.205830
v 0.172710 0.119030 -0.205830
v 0.172710 0.119030 0.205830
v 0.175840 0.003300 -0.147550
v 0.175840 0.003300 0.147550
v 0.178320 -0.072420 -0.047240
v 0.178320 -0.072420 0.047240
v 0.178820 0.008160 -0.150050
v 0.178820 0.008160 0.150050
v 0.178820 0.099580 -0.150050
v 0.178820 0.099580 0.150050
v 0.179310 -0.067110 -0.103520
v 0.179310 -0.067110 0.103520
v 0.179380 -0.079800 -0.047810
v 0.179380 -0.079800 0.047810
v 0.181900 0.104040 -0.152630
v 0.181900 0.104040 0.152630
v 0.182730 -0.073930 -0.105500
v 0.182730 -0.073930 0.105500
v 0.183590 -0.043330 -0.105920
v 0.183590 -0.043330 0.105920
v 0.188370 -0.056750 -0.188370
v 0.188370 -0.056750 0.188370
v 0.188370 0.112710 -0.188370
v 0.188370 0.112710 0.188370
v 0.188720 -0.069360 -0.062550
v 0.188720 -0.069360 0.062550
v 0.189950 -0.076700 -0.063190
v 0.189950 -0.076700 0.063190
v 0.190040 -0.056150 -0.109720
v 0.190040 -0.056150 0.109720
v 0.190040 -0.043400 -0.109720
v 0.190040 -0.043400 0.109720
v 0.192710 -0.043270 -0.087820
v 0.192710 -0.043270 0.087820
v 0.192910 -0.049840 -0.161870
v 0.192910 -0.049840 0.161870
v 0.192910 0.103730 -0.161870
v 0.192910 0.103730 0.161870
v 0.194920 -0.066860 -0.070350
v 0.194920 -0.066860 0.070350
v 0.198110 -0.073930 -0.071860
v 0.198110 -0.073930 0.071860
v 0.198390 -0.058400 -0.074130
v 0.198390 -0.058400 0.074130
v 0.198790 0.003300 -0.114770
v 0.198790 0.003300 0.114770
v 0.199420 -0.043400 -0.091100
v 0.199420 -0.043400 0.091090
v 0.201340 -0.057450 -0.168950
v 0.201340 -0.057450 0.168950
v 0.202160 0.008160 -0.116720
v 0.202160 0.008160 0.116720
v 0.202160 0.099580 -0.116720
v 0.202160 0.099580 0.116720
v 0.202760 -0.063070 -0.170140
v 0.202760 -0.063070 0.170140
v 0.202760 0.119030 -0.170140
v 0.202760 0.119030 0.170140
v 0.203440 -0.067120 -0.075460
v 0.203440 -0.067120 0.075460
v 0.203760 -0.056090 -0.080490
v 0.203760 -0.056090 0.080490
v 0.204300 -0.064070 -0.171430
v 0.204300 -0.064070 0.171420
v 0.204300 0.120020 -0.171430
v 0.204300 0.120020 0.171420
v 0.205080 -0.059970 -0.077250
v 0.205080 -0.059970 0.077250
v 0.205640 0.104040 -0.118730
v 0.205640 0.104040 0.118720
v 0.205830 -0.063070 -0.172710
v 0.205830 -0.063070 0.172710
v 0.205830 -0.048210 -0.172710
v 0.205830 -0.048210 0.172710
v 0.205830 0.105290 -0.172710
v 0.205830 0.105290 0.172710
v 0.205830 0.119030 -0.172710
v 0.205830 0.119030 0.172710
v 0.206210 -0.056150 -0.075050
v 0.206210 -0.056150 0.075050
v 0.215700 0.003300 -0.078510
v 0.215700 0.003300 0.078510
v 0.216110 -0.056150 -0.038110
v 0.216110 -0.056150 0.038110
v 0.218090 -0.049840 -0.125920
v 0.218090 -0.049840 0.125920
v 0.218090 0.103730 -0.125920
v 0.218090 0.103730 0.125920
v 0.219360 0.008160 -0.079840
v 0.219360 0.008160 0.079840
v 0.219360 0.099580 -0.079840
v 0.219360 0.099580 0.079840
v 0.219440 -0.056150 0.000000
v 0.220320 -0.079020 -0.381610
v 0.220320 -0.079020 0.381610
v 0.220320 0.134970 -0.381610
v 0.220320 0.134970 0.381610
v 0.223130 0.104040 -0.081210
v 0.223130 0.104040 0.081210
v 0.226050 0.003300 -0.039860
v 0.226050 0.003300 0.039860
v 0.227620 -0.057450 -0.131420
v 0.227620 -0.057450 0.131420
v 0.229230 -0.063070 -0.132350
v 0.229230 -0.063070 0.132340
v 0.229230 0.119030 -0.132350
v 0.229230 0.119030 0.132340
v 0.229540 0.003300 0.000000
v 0.229890 0.008160 -0.040540
v 0.229890 0.008160 0.040540
v 0.229890 0.099580 -0.040540
v 0.229890 0.099580 0.040540
v 0.230710 -0.056750 -0.133200
v 0.230710 -0.056750 0.133200
v 0.230710 0.112710 -0.133200
v 0.230710 0.112710 0.133200
v 0.230960 -0.064070 -0.133340
v 0.230960 -0.064070 0.133340
v 0.230960 0.120020 -0.133340
v 0.230960 0.120020 0.133340
v 0.232690 -0.063070 -0.134350
v 0.232690 -0.063070 0.134350
v 0.232690 -0.048210 -0.134350
v 0.232690 -0.048210 0.134350
v 0.232690 0.105290 -0.134350
v 0.232690 0.105290 0.134350
v 0.232690 0.119030 -0.134350
v 0.232690 0.119030 0.134350
v 0.233430 0.008160 0.000000
v 0.233430 0.099580 0.000000
v 0.233840 0.104040 -0.041230
v 0.233840 0.104040 0.041230
v 0.236640 -0.049840 -0.086130
v 0.236640 -0.049840 0.086130
v 0.236640 0.103730 -0.086130
v 0.236640 0.103730 0.086130
v 0.237450 0.104040 0.000000
v 0.246980 -0.057450 -0.089900
v 0.246980 -0.057450 0.089900
v 0.248000 -0.049840 -0.043730
v 0.248000 -0.049840 0.043730
v 0.248000 0.103730 -0.043730
v 0.248000 0.103730 0.043730
v 0.248730 -0.063070 -0.090530
v 0.248730 -0.063070 0.090530
v 0.248730 0.119030 -0.090530
v 0.248730 0.119030 0.090530
v 0.250610 -0.064070 -0.091210
v 0.250610 -0.064070 0.091210
v 0.250610 0.120020 -0.091210
v 0.250610 0.120020 0.091210
v 0.251830 -0.049840 0.000000
v 0.251830 0.103730 0.000000
v 0.252490 -0.063070 -0.091900
v 0.252490 -0.063070 0.091900
v 0.252490 -0.048210 -0.091900
v 0.252490 -0.048210 0.091900
v 0.252490 0.105290 -0.091900
v 0.252490 0.105290 0.091900
v 0.252490 0.119030 -0.091900
v 0.252490 0.119030 0.091900
v 0.257320 -0.056750 -0.068950
v 0.257320 -0.056750 0.068950
v 0.257320 0.112710 -0.068950
v 0.257320 0.112710 0.068950
v 0.258840 -0.057450 -0.045640
v 0.258840 -0.057450 0.045640
v 0.260670 -0.063070 -0.045960
v 0.260670 -0.063070 0.045960
v 0.260670 0.119030 -0.045960
v 0.260670 0.119030 0.045960
v 0.262640 -0.064070 -0.046310
v 0.262640 -0.064070 0.046310
v 0.262640 0.120020 -0.046310
v 0.262640 0.120020 0.046310
v 0.262840 -0.057450 0.000000
v 0.264610 -0.063070 -0.046660
v 0.264610 -0.063070 0.046660
v 0.264610 -0.048210 -0.046660
v 0.264610 -0.048210 0.046660
v 0.264610 0.105290 -0.046660
v 0.264610 0.105290 0.046660
v 0.264610 0.119030 -0.046660
v 0.264610 0.119030 0.046660
v 0.264690 -0.063070 0.000000
v 0.264690 0.119030 0.000000
v 0.266400 -0.056750 0.000000
v 0.266400 0.112710 0.000000
v 0.266690 -0.064070 0.000000
v 0.266690 0.120020 0.000000
v 0.268250 -0.079020 -0.349590
v 0.268250 -0.079020 0.349590
v 0.268250 0.134970 -0.349590
v 0.268250 0.134970 0.349590
v 0.268690 -0.063070 0.000000
v 0.268690 -0.048210 0.000000
v 0.268690 0.105290 0.000000
v 0.268690 0.119030 0.000000
v 0.311590 -0.079020 -0.311590
v 0.311590 -0.079020 0.311580
v 0.311590 0.134970 -0.311580
v 0.311590 0.134970 0.311580
v 0.349590 -0.079020 -0.268250
v 0.349590 -0.079020 0.268250
v 0.349590 0.134970 -0.268250
v 0.349590 0.134970 0.268250
v 0.381610 -0.079020 -0.220320
v 0.381610 -0.079020 0.220320
v 0.381610 0.134970 -0.220320
v 0.381610 0.134970 0.220320
v 0.407100 -0.079020 -0.168630
v 0.407100 -0.079020 0.168630
v 0.407100 0.134970 -0.168630
v 0.407100 0.134970 0.168630
v 0.425630 -0.079020 -0.114050
v 0.425630 -0.079020 0.114050
v 0.425630 0.134970 -0.114050
v 0.425630 0.134970 0.114050
v 0.436880 -0.079020 -0.057520
v 0.436880 -0.079020 0.057520
v 0.436880 0.134970 -0.057520
v 0.436880 0.134970 0.057520
v 0.440650 -0.079020 0.000000
v 0.440650 0.134970 0.000000
l 1704 1708
l 1157 1358
l 31 128
l 1 4
l 1700 1704
l 1358 1471
l 23 31
l 4 8
l 1696 1700
l 1471 1588
l 19 23
l 8 12
l 1692 1696
l 1588 1685
l 15 19
l 12 16
l 1684 1692
l 1685 1693
l 11 15
l 16 20
l 1587 1684
l 1693 1697
l 7 11
l 20 24
l 1470 1587
l 1697 1701
l 3 7
l 24 32
l 1357 1470
l 1701 1705
l 1 3
l 32 130
l 1156 1357
l 1705 1709
l 130 246
l 845 1156
l 1709 1713
l 246 359
l 559 845
l 1713 1716
l 359 560
l 358 559
l 1712 1716
l 560 846
l 245 358
l 1708 1712
l 846 1157
l 128 245
l 1606 1655
l 201 309
l 109 201
l 37 61
l 864 1212
l 1607 1656
l 60 109
l 504 863
l 1514 1606
l 61 110
l 1409 1515
l 1212 1409
l 37 60
l 1515 1607
l 9 13
l 361 562
l 1589 1686
l 1715 1717
l 13 17
l 248 361
l 1686 1694
l 1711 1715
l 17 21
l 131 248
l 1694 1698
l 1707 1711
l 21 25
l 34 131
l 1698 1702
l 1703 1707
l 25 33
l 26 34
l 1702 1706
l 1699 1703
l 33 129
l 22 26
l 1706 1710
l 1695 1699
l 129 247
l 18 22
l 1710 1714
l 1687 1695
l 247 360
l 14 18
l 1714 1717
l 1590 1687
l 360 561
l 10 14
l 1473 1590
l 561 891
l 6 10
l 1360 1473
l 891 1158
l 2 6
l 1159 1360
l 1158 1359
l 2 5
l 892 1159
l 1359 1472
l 5 9
l 562 892
l 1472 1589
l 62 111
l 1410 1516
l 1516 1608
l 1658 1681
l 507 884
l 63 112
l 1608 1657
l 883 1213
l 111 203
l 1609 1658
l 204 312
l 312 507
l 1657 1681
l 112 204
l 1655 1680
l 202 310
l 309 504
l 505 864
l 110 202
l 1211 1408
l 1408 1514
l 310 505
l 1656 1680
l 863 1211
l 38 62
l 1411 1517
l 1213 1410
l 884 1214
l 1517 1609
l 311 506
l 203 311
l 1214 1411
l 38 63
l 506 883
l 1112 1144
l 1112 1165
l 1144 1193
l 554 607
l 572 607
l 524 572
l 957 961
l 825 957
l 827 961
l 1165 1187
l 1187 1230
l 1193 1230
l 607 639
l 597 639
l 572 597
l 760 825
l 754 760
l 754 827
l 693 746
l 746 755
l 1186 1196
l 1196 1210
l 1122 1144
l 1080 1122
l 1080 1112
l 597 693
l 755 761
l 761 826
l 755 828
l 571 596
l 596 638
l 606 638
l 571 606
l 1186 1229
l 1164 1186
l 1192 1229
l 826 958
l 958 962
l 828 962
l 553 606
l 523 571
l 1111 1164
l 1111 1146
l 1146 1192
l 972 1025
l 961 972
l 531 553
l 486 531
l 486 523
l 1197 1210
l 1187 1197
l 1121 1146
l 1025 1121
l 508 521
l 521 531
l 1229 1233
l 1196 1233
l 487 532
l 532 554
l 487 524
l 475 485
l 485 487
l 944 991
l 1004 1045
l 1024 1074
l 674 715
l 645 695
l 853 954
l 851 944
l 1074 1124
l 715 764
l 695 727
l 763 853
l 773 851
l 1045 1069
l 1124 1143
l 727 774
l 726 773
l 1044 1069
l 1123 1143
l 764 854
l 774 852
l 714 763
l 694 726
l 1073 1123
l 854 955
l 852 945
l 673 714
l 644 694
l 1003 1044
l 1023 1073
l 945 992
l 594 644
l 649 674
l 575 595
l 954 1003
l 991 1023
l 955 1004
l 992 1024
l 649 673
l 575 594
l 595 645
l 1034 1052
l 952 1001
l 718 767
l 666 685
l 684 717
l 841 951
l 767 844
l 1001 1034
l 844 952
l 717 766
l 685 718
l 1033 1052
l 666 684
l 766 841
l 951 1000
l 1000 1033
l 639 711
l 1197 1234
l 1234 1243
l 711 753
l 746 753
l 745 752
l 710 752
l 692 745
l 1233 1243
l 638 710
l 596 692
l 966 973
l 966 1008
l 973 1026
l 508 522
l 485 522
l 1079 1121
l 1007 1079
l 1008 1080
l 1026 1122
l 484 521
l 475 484
l 965 1007
l 965 972
l 958 966
l 962 973
l 522 532
l 745 754
l 1079 1111
l 957 965
l 1230 1234
l 484 486
l 753 761
l 752 760
l 700 722
l 681 700
l 681 701
l 701 723
l 723 772
l 772 843
l 843 949
l 949 998
l 998 1020
l 1020 1038
l 1019 1038
l 997 1019
l 948 997
l 842 948
l 771 842
l 722 771
l 963 1035
l 489 526
l 468 488
l 1036 1145
l 1035 1147
l 468 489
l 488 525
l 964 1036
l 1147 1194
l 525 573
l 834 964
l 1194 1231
l 573 682
l 757 834
l 1231 1250
l 682 756
l 683 757
l 1232 1250
l 756 833
l 574 683
l 1195 1232
l 833 963
l 526 574
l 1145 1195
l 623 661
l 621 659
l 548 566
l 546 564
l 589 623
l 587 621
l 566 585
l 564 583
l 542 552
l 540 550
l 585 619
l 583 617
l 661 665
l 659 663
l 552 570
l 550 568
l 570 589
l 568 587
l 657 665
l 655 663
l 542 548
l 540 546
l 619 657
l 617 655
l 1173 1179
l 1171 1178
l 1056 1060
l 1054 1058
l 1169 1179
l 1167 1178
l 1056 1064
l 1054 1062
l 1098 1132
l 1096 1130
l 1064 1102
l 1062 1100
l 1155 1173
l 1153 1171
l 1132 1151
l 1130 1149
l 1151 1169
l 1149 1167
l 1136 1155
l 1134 1153
l 1060 1098
l 1058 1096
l 1102 1136
l 1100 1134
l 1331 1343
l 1327 1341
l 1322 1332
l 1320 1328
l 1343 1351
l 1341 1349
l 1314 1322
l 1312 1320
l 1344 1352
l 1342 1350
l 1310 1314
l 1309 1312
l 1321 1331
l 1319 1327
l 1352 1354
l 1350 1353
l 1351 1354
l 1349 1353
l 1313 1321
l 1311 1319
l 1332 1344
l 1328 1342
l 1310 1313
l 1309 1311
l 1059 1097
l 1057 1095
l 1154 1172
l 1152 1170
l 1097 1131
l 1095 1129
l 1135 1154
l 1133 1152
l 1168 1177
l 1166 1176
l 1101 1135
l 1099 1133
l 1055 1059
l 1053 1057
l 1150 1168
l 1148 1166
l 1131 1150
l 1129 1148
l 1055 1063
l 1053 1061
l 1172 1177
l 1170 1176
l 1063 1101
l 1061 1099
l 541 547
l 539 545
l 660 664
l 658 662
l 541 551
l 539 549
l 656 664
l 654 662
l 588 622
l 586 620
l 618 656
l 616 654
l 547 565
l 545 563
l 569 588
l 567 586
l 551 569
l 549 567
l 565 584
l 563 582
l 622 660
l 620 658
l 584 618
l 582 616
l 377 389
l 375 385
l 388 398
l 384 396
l 369 377
l 367 375
l 398 406
l 396 404
l 368 376
l 366 374
l 406 409
l 404 408
l 389 399
l 385 397
l 365 368
l 364 366
l 365 369
l 364 367
l 399 407
l 397 405
l 376 388
l 374 384
l 407 409
l 405 408
l 893 895
l 798 800
l 894 896
l 918 920
l 917 919
l 929 930
l 788 789
l 799 801
l 978 979
l 934 935
l 935 979
l 770 836
l 835 946
l 836 947
l 769 835
l 947 996
l 720 769
l 996 1018
l 698 720
l 1018 1037
l 680 699
l 680 698
l 1017 1037
l 699 721
l 995 1017
l 721 770
l 716 762
l 716 739
l 979 1002
l 739 783
l 783 956
l 762 935
l 956 1002
l 946 995
l 762 765
l 768 933
l 950 988
l 785 950
l 730 751
l 751 785
l 953 956
l 999 1002
l 716 719
l 739 740
l 783 784
l 967 988
l 933 967
l 730 768
l 512 516
l 512 514
l 516 518
l 514 518
l 591 593
l 591 707
l 707 709
l 593 709
l 512 579
l 579 581
l 514 581
l 516 591
l 518 593
l 703 705
l 579 703
l 581 705
l 703 707
l 705 709
l 1010 1126
l 1010 1012
l 1126 1128
l 1012 1128
l 1201 1203
l 1201 1205
l 1205 1207
l 1203 1207
l 1010 1014
l 1014 1016
l 1012 1016
l 1126 1201
l 1128 1203
l 1138 1140
l 1014 1138
l 1016 1140
l 1138 1205
l 1140 1207
l 1330 1376
l 1330 1334
l 1376 1378
l 1334 1378
l 1375 1377
l 1329 1375
l 1329 1333
l 1333 1377
l 1278 1330
l 1278 1280
l 1280 1334
l 1375 1376
l 1377 1378
l 1277 1279
l 1277 1278
l 1279 1280
l 1277 1329
l 1279 1333
l 1200 1204
l 1204 1206
l 1200 1202
l 1202 1206
l 1125 1127
l 1009 1125
l 1009 1011
l 1011 1127
l 1137 1204
l 1137 1139
l 1139 1206
l 1125 1200
l 1127 1202
l 1013 1015
l 1013 1137
l 1015 1139
l 1009 1013
l 1011 1015
l 590 706
l 706 708
l 590 592
l 592 708
l 515 517
l 511 515
l 511 513
l 513 517
l 702 706
l 702 704
l 704 708
l 515 590
l 517 592
l 578 580
l 578 702
l 580 704
l 511 578
l 513 580
l 340 386
l 386 390
l 340 342
l 342 390
l 341 343
l 341 387
l 387 391
l 343 391
l 386 438
l 438 440
l 390 440
l 340 341
l 342 343
l 439 441
l 438 439
l 440 441
l 387 439
l 391 441
l 781 796
l 921 936
l 786 787
l 781 786
l 781 782
l 782 787
l 936 937
l 921 922
l 922 937
l 786 921
l 931 932
l 931 936
l 932 937
l 796 931
l 787 922
l 796 797
l 782 797
l 797 932
l 906 908
l 897 899
l 802 804
l 790 791
l 803 805
l 898 900
l 907 909
l 923 924
l 924 925
l 908 910
l 899 901
l 804 806
l 791 792
l 805 807
l 900 902
l 909 911
l 925 926
l 792 793
l 807 810
l 902 903
l 911 914
l 903 904
l 927 928
l 912 913
l 808 809
l 794 795
l 811 812
l 904 905
l 915 916
l 776 822
l 742 824
l 1481 1499
l 1487 1507
l 734 776
l 615 742
l 474 577
l 501 536
l 401 474
l 291 381
l 1499 1519
l 1507 1521
l 729 838
l 725 840
l 1527 1541
l 1513 1527
l 1525 1541
l 477 501
l 467 477
l 1463 1513
l 1468 1525
l 1240 1247
l 1238 1246
l 536 609
l 577 729
l 609 725
l 289 379
l 435 491
l 379 435
l 395 503
l 503 538
l 493 599
l 314 395
l 403 493
l 1222 1240
l 1221 1238
l 732 850
l 738 848
l 1191 1222
l 1189 1221
l 491 503
l 1163 1191
l 1161 1189
l 467 491
l 425 435
l 425 467
l 425 457
l 457 467
l 613 732
l 599 738
l 538 613
l 1389 1407
l 1433 1441
l 443 520
l 520 637
l 637 744
l 1370 1389
l 1391 1433
l 605 689
l 603 687
l 689 736
l 687 734
l 736 778
l 778 832
l 1326 1370
l 1356 1391
l 284 373
l 373 425
l 744 830
l 433 510
l 510 615
l 1537 1561
l 1527 1537
l 1541 1555
l 1555 1561
l 459 670
l 461 672
l 672 876
l 670 874
l 271 353
l 269 351
l 353 461
l 351 459
l 276 357
l 357 465
l 465 676
l 676 872
l 1533 1537
l 1505 1533
l 282 371
l 483 691
l 691 866
l 371 483
l 371 457
l 457 483
l 1455 1505
l 1464 1481
l 1441 1444
l 242 318
l 318 429
l 429 643
l 643 887
l 1519 1533
l 230 302
l 236 306
l 302 417
l 306 423
l 417 631
l 423 635
l 631 888
l 635 890
l 228 300
l 300 415
l 415 629
l 629 882
l 260 334
l 334 449
l 449 653
l 653 878
l 1439 1446
l 266 347
l 347 455
l 455 668
l 668 880
l 1553 1561
l 1535 1553
l 1457 1511
l 641 859
l 647 862
l 427 641
l 431 647
l 316 427
l 322 431
l 240 316
l 244 322
l 625 860
l 633 856
l 411 625
l 421 633
l 296 411
l 304 421
l 224 296
l 234 304
l 1446 1451
l 1469 1487
l 627 870
l 413 627
l 298 413
l 226 298
l 651 868
l 447 651
l 332 447
l 258 332
l 1364 1399
l 1399 1439
l 1521 1535
l 1395 1426
l 1426 1431
l 824 977
l 822 941
l 1286 1336
l 1114 1161
l 977 1104
l 941 983
l 1183 1218
l 1142 1245
l 1338 1428
l 1245 1318
l 1428 1457
l 1318 1364
l 840 994
l 838 990
l 1218 1242
l 1242 1252
l 1430 1463
l 994 1110
l 990 1142
l 1110 1183
l 1340 1430
l 1284 1340
l 1228 1284
l 1120 1226
l 1181 1216
l 1216 1324
l 1226 1316
l 1324 1405
l 1316 1356
l 1405 1455
l 848 981
l 850 987
l 1216 1228
l 1252 1262
l 1262 1294
l 1252 1294
l 1284 1294
l 1228 1252
l 1106 1181
l 981 1120
l 987 1106
l 1276 1326
l 1199 1276
l 1082 1199
l 975 1082
l 1116 1163
l 1030 1114
l 1032 1116
l 983 1030
l 985 1032
l 943 985
l 832 943
l 1437 1468
l 1348 1437
l 1294 1348
l 830 975
l 1209 1286
l 1104 1209
l 1049 1260
l 1047 1258
l 874 1047
l 876 1049
l 1448 1501
l 1450 1503
l 1366 1448
l 1368 1450
l 1258 1366
l 1260 1368
l 1443 1497
l 1362 1443
l 1254 1362
l 1043 1254
l 872 1043
l 1435 1466
l 1346 1435
l 1028 1236
l 866 1028
l 1236 1262
l 1262 1346
l 1236 1346
l 1475 1543
l 1477 1549
l 1479 1551
l 1403 1479
l 1292 1403
l 1078 1292
l 887 1078
l 1485 1559
l 1495 1571
l 1415 1485
l 1423 1495
l 1298 1415
l 1308 1423
l 1086 1298
l 1094 1308
l 890 1086
l 888 1094
l 1493 1569
l 1421 1493
l 1306 1421
l 1092 1306
l 882 1092
l 1461 1531
l 1387 1461
l 1272 1387
l 1068 1272
l 878 1068
l 1453 1509
l 1372 1453
l 1264 1372
l 1051 1264
l 880 1051
l 862 1072
l 859 1076
l 1072 1288
l 1076 1290
l 1288 1397
l 1290 1401
l 1397 1475
l 1401 1477
l 856 1084
l 860 1088
l 1084 1296
l 1088 1302
l 1296 1413
l 1302 1417
l 1413 1483
l 1417 1489
l 1459 1529
l 870 1090
l 1090 1304
l 1304 1419
l 1419 1491
l 868 1066
l 1066 1270
l 1270 1385
l 1385 1459
l 1483 1557
l 1489 1565
l 1491 1567
l 219 237
l 277 285
l 199 219
l 974 1081
l 942 984
l 1208 1285
l 1244 1317
l 1029 1113
l 1046 1257
l 1048 1259
l 829 974
l 831 942
l 307 329
l 1081 1198
l 1119 1225
l 1198 1275
l 1225 1315
l 940 982
l 821 940
l 329 348
l 285 327
l 197 211
l 1031 1115
l 1337 1427
l 1141 1244
l 1182 1217
l 1339 1429
l 1215 1323
l 1180 1215
l 480 498
l 478 496
l 1482 1556
l 1488 1564
l 1522 1554
l 1554 1560
l 1540 1554
l 1554 1572
l 211 231
l 976 1103
l 823 976
l 1323 1404
l 472 480
l 471 478
l 849 986
l 847 980
l 1227 1283
l 1283 1339
l 1109 1182
l 989 1141
l 993 1109
l 837 989
l 1215 1227
l 1227 1251
l 1241 1251
l 839 993
l 986 1105
l 1283 1293
l 1293 1347
l 348 392
l 327 362
l 529 557
l 527 555
l 980 1119
l 1105 1180
l 1251 1293
l 1261 1293
l 1251 1261
l 498 529
l 496 527
l 157 181
l 181 191
l 177 191
l 157 177
l 163 177
l 157 163
l 205 255
l 195 252
l 1367 1449
l 1365 1447
l 875 1048
l 873 1046
l 1103 1208
l 982 1029
l 984 1031
l 191 205
l 177 195
l 1217 1241
l 1661 1678
l 1665 1682
l 1597 1637
l 1610 1641
l 1458 1528
l 1474 1542
l 1578 1626
l 1633 1645
l 1490 1566
l 1528 1578
l 1626 1633
l 1476 1548
l 1637 1661
l 1641 1665
l 1564 1614
l 1566 1616
l 1614 1647
l 1647 1670
l 1649 1672
l 1670 1688
l 1672 1689
l 1556 1610
l 1616 1649
l 1524 1540
l 1436 1467
l 1574 1593
l 1496 1538
l 1628 1635
l 1591 1624
l 1530 1580
l 1508 1562
l 1635 1646
l 1624 1630
l 1550 1599
l 1558 1612
l 1639 1663
l 1643 1667
l 1442 1496
l 1580 1628
l 1562 1591
l 1460 1530
l 1452 1508
l 1478 1550
l 1484 1558
l 1599 1639
l 1612 1643
l 1604 1623
l 1546 1584
l 1449 1502
l 1676 1691
l 1674 1690
l 1653 1676
l 1651 1674
l 1620 1653
l 1618 1651
l 1570 1620
l 1568 1618
l 1538 1574
l 1593 1601
l 1467 1524
l 1659 1669
l 1663 1679
l 1667 1683
l 1584 1604
l 1502 1546
l 1542 1595
l 1548 1597
l 1595 1631
l 1631 1659
l 1494 1570
l 1492 1568
l 1347 1436
l 1576 1586
l 1522 1572
l 1465 1522
l 1434 1465
l 1572 1576
l 1582 1602
l 1544 1582
l 1500 1544
l 1447 1500
l 1602 1622
l 1317 1363
l 1285 1335
l 1220 1239
l 1388 1406
l 1363 1398
l 1335 1373
l 1160 1188
l 1239 1247
l 1406 1424
l 1315 1355
l 1275 1325
l 1390 1432
l 1369 1388
l 1355 1390
l 1325 1369
l 1219 1237
l 1237 1246
l 1113 1160
l 1115 1162
l 1427 1456
l 1162 1190
l 1456 1510
l 1520 1534
l 1398 1438
l 1462 1512
l 1518 1532
l 1504 1532
l 1404 1454
l 1529 1579
l 1523 1555
l 1555 1573
l 1394 1425
l 1425 1431
l 1454 1504
l 1429 1462
l 1440 1444
l 1464 1480
l 1512 1526
l 1526 1536
l 1486 1506
l 1438 1445
l 1506 1520
l 1445 1451
l 1532 1536
l 1552 1560
l 1536 1560
l 1469 1486
l 1480 1498
l 1526 1540
l 1498 1518
l 1432 1440
l 1540 1560
l 1534 1552
l 1188 1219
l 1373 1394
l 1190 1220
l 1543 1596
l 1632 1660
l 1627 1634
l 1666 1682
l 1662 1678
l 1611 1642
l 1598 1638
l 1579 1627
l 1634 1645
l 1642 1666
l 1638 1662
l 1557 1611
l 1549 1598
l 1596 1632
l 1565 1615
l 1648 1671
l 1671 1688
l 1615 1648
l 1583 1603
l 1585 1605
l 1575 1594
l 1497 1539
l 1563 1592
l 1581 1629
l 1625 1630
l 1636 1646
l 1613 1644
l 1600 1640
l 1668 1683
l 1664 1679
l 1592 1625
l 1503 1547
l 1509 1563
l 1629 1636
l 1531 1581
l 1644 1668
l 1640 1664
l 1605 1623
l 1547 1585
l 1652 1675
l 1654 1677
l 1569 1619
l 1571 1621
l 1559 1613
l 1551 1600
l 1577 1586
l 1573 1577
l 1523 1573
l 1539 1575
l 1594 1601
l 1675 1690
l 1677 1691
l 1619 1652
l 1621 1654
l 1567 1617
l 1660 1669
l 1617 1650
l 1650 1673
l 1466 1523
l 1673 1689
l 1501 1545
l 1374 1395
l 1336 1374
l 1407 1424
l 1545 1583
l 1603 1622
l 1259 1367
l 1257 1365
l 1361 1442
l 1253 1361
l 1042 1253
l 871 1042
l 181 185
l 185 213
l 1345 1434
l 1027 1235
l 865 1027
l 1235 1345
l 1261 1345
l 1235 1261
l 213 263
l 237 254
l 274 277
l 1402 1478
l 1291 1402
l 1077 1291
l 886 1077
l 185 199
l 1422 1494
l 1414 1484
l 1307 1422
l 1297 1414
l 1093 1307
l 1085 1297
l 885 1093
l 889 1085
l 1420 1492
l 1305 1420
l 1091 1305
l 881 1091
l 1386 1460
l 1271 1386
l 1067 1271
l 877 1067
l 272 279
l 1371 1452
l 1263 1371
l 1050 1263
l 879 1050
l 157 165
l 165 183
l 207 261
l 858 1075
l 861 1071
l 1075 1289
l 1071 1287
l 1289 1400
l 1287 1396
l 1400 1476
l 1396 1474
l 857 1087
l 855 1083
l 1087 1301
l 1083 1295
l 1301 1416
l 1295 1412
l 1416 1488
l 1412 1482
l 267 272
l 231 249
l 869 1089
l 1089 1303
l 1303 1418
l 1418 1490
l 867 1065
l 1065 1269
l 1269 1384
l 1384 1458
l 319 354
l 279 319
l 183 197
l 292 323
l 287 292
l 741 823
l 775 821
l 382 432
l 555 602
l 614 741
l 733 775
l 500 535
l 473 576
l 290 380
l 400 473
l 261 290
l 354 400
l 724 839
l 728 837
l 476 500
l 466 476
l 255 288
l 608 724
l 576 728
l 535 608
l 288 378
l 378 434
l 434 490
l 492 598
l 502 537
l 394 502
l 402 492
l 313 394
l 362 402
l 263 313
l 737 847
l 731 849
l 490 502
l 456 466
l 424 456
l 424 466
l 424 434
l 466 490
l 537 612
l 598 737
l 612 731
l 392 442
l 442 519
l 519 636
l 636 743
l 557 604
l 602 686
l 604 688
l 686 733
l 688 735
l 735 777
l 777 831
l 252 283
l 283 372
l 372 424
l 743 829
l 432 509
l 509 614
l 460 671
l 458 669
l 669 873
l 671 875
l 215 268
l 217 270
l 268 350
l 270 352
l 350 458
l 352 460
l 221 275
l 275 356
l 356 464
l 464 675
l 675 871
l 250 281
l 281 370
l 482 690
l 690 865
l 456 482
l 370 456
l 370 482
l 175 243
l 167 239
l 169 241
l 241 317
l 317 428
l 428 642
l 642 886
l 161 235
l 153 229
l 235 305
l 229 301
l 305 422
l 301 416
l 422 634
l 416 630
l 634 889
l 630 885
l 151 227
l 227 299
l 299 414
l 414 628
l 628 881
l 189 259
l 259 333
l 333 448
l 448 652
l 652 877
l 209 265
l 265 346
l 346 454
l 454 667
l 667 879
l 646 861
l 640 858
l 430 646
l 426 640
l 321 430
l 315 426
l 243 321
l 239 315
l 632 855
l 624 857
l 420 632
l 410 624
l 303 420
l 295 410
l 233 303
l 223 295
l 187 257
l 626 869
l 412 626
l 297 412
l 225 297
l 650 867
l 446 650
l 331 446
l 257 331
l 159 233
l 147 223
l 149 225
l 160 234
l 148 224
l 164 194
l 158 164
l 164 178
l 146 164
l 39 55
l 35 51
l 79 119
l 75 106
l 188 258
l 176 244
l 90 138
l 72 83
l 150 226
l 138 188
l 83 90
l 168 240
l 55 79
l 51 75
l 98 148
l 100 150
l 65 98
l 42 65
l 44 67
l 27 42
l 28 44
l 106 160
l 67 100
l 178 196
l 253 284
l 125 144
l 180 222
l 85 92
l 94 127
l 140 190
l 156 210
l 73 85
l 88 94
l 121 170
l 108 162
l 57 81
l 53 77
l 222 276
l 92 140
l 127 156
l 190 260
l 210 266
l 170 242
l 162 236
l 81 121
l 77 108
l 96 116
l 136 174
l 218 271
l 30 48
l 29 46
l 48 71
l 46 69
l 71 104
l 69 102
l 104 154
l 102 152
l 144 180
l 117 125
l 196 253
l 49 59
l 40 57
l 36 53
l 116 136
l 174 218
l 123 176
l 119 168
l 87 123
l 59 87
l 154 230
l 152 228
l 132 142
l 146 194
l 194 251
l 251 282
l 142 146
l 114 134
l 134 172
l 172 216
l 216 269
l 95 114
l 355 401
l 383 433
l 481 499
l 308 330
l 320 355
l 345 383
l 528 556
l 472 481
l 294 308
l 363 403
l 393 443
l 286 328
l 330 349
l 328 363
l 349 393
l 479 497
l 471 479
l 556 603
l 558 605
l 262 291
l 530 558
l 208 262
l 184 198
l 280 320
l 206 256
l 186 200
l 186 214
l 264 314
l 137 187
l 163 193
l 145 163
l 293 324
l 287 293
l 214 264
l 256 289
l 274 278
l 238 254
l 192 206
l 182 192
l 212 232
l 273 280
l 198 212
l 267 273
l 182 186
l 158 166
l 158 182
l 232 249
l 220 238
l 178 192
l 200 220
l 278 286
l 166 184
l 497 528
l 324 345
l 499 530
l 122 175
l 58 86
l 82 89
l 35 50
l 39 54
l 74 105
l 78 118
l 89 137
l 72 82
l 50 74
l 54 78
l 105 159
l 118 167
l 86 122
l 97 147
l 41 64
l 27 41
l 64 97
l 113 133
l 115 135
l 124 143
l 179 221
l 126 155
l 91 139
l 88 93
l 73 84
l 76 107
l 80 120
l 36 52
l 40 56
l 93 126
l 173 217
l 155 209
l 84 91
l 139 189
l 52 76
l 56 80
l 96 115
l 135 173
l 45 68
l 47 70
l 101 151
l 103 153
l 107 161
l 120 169
l 132 141
l 141 145
l 145 193
l 143 179
l 117 124
l 29 45
l 30 47
l 68 101
l 70 103
l 99 149
l 49 58
l 66 99
l 43 66
l 193 250
l 28 43
l 171 215
l 323 344
l 344 382
l 294 307
l 133 171
l 95 113
l 1022 1118
l 1108 1175
l 780 820
l 748 816
l 814 969
l 1266 1282
l 1185 1249
l 816 971
l 969 1040
l 960 1006
l 971 1108
l 820 939
l 939 1022
l 1256 1268
l 1175 1224
l 1266 1268
l 1185 1224
l 1282 1300
l 1249 1274
l 818 960
l 1383 1393
l 1380 1381
l 1300 1383
l 1274 1380
l 1040 1070
l 1281 1299
l 1248 1273
l 1039 1070
l 1005 1041
l 1382 1392
l 1379 1381
l 1299 1382
l 1273 1379
l 1265 1267
l 1184 1223
l 648 679
l 677 713
l 1006 1041
l 1255 1267
l 1174 1223
l 819 938
l 815 970
l 968 1039
l 1265 1281
l 1184 1248
l 677 712
l 1021 1117
l 1107 1174
l 938 1021
l 970 1107
l 813 968
l 758 817
l 696 779
l 610 747
l 817 959
l 959 1005
l 648 678
l 600 696
l 543 610
l 335 418
l 338 444
l 749 813
l 436 452
l 469 533
l 747 815
l 779 819
l 450 462
l 494 543
l 450 452
l 494 533
l 678 749
l 712 758
l 325 335
l 337 338
l 336 419
l 339 445
l 418 436
l 444 469
l 750 814
l 759 818
l 326 336
l 337 339
l 437 453
l 470 534
l 445 470
l 713 759
l 419 437
l 451 463
l 495 544
l 451 453
l 495 534
l 679 750
l 697 780
l 611 748
l 601 697
l 544 611
