# atego_detail_wire.obj - feature-edge wireframe, ISO 8855, metre
o detail_wire
v -0.721150 -0.064020 0.778240
v -0.721150 -0.055030 0.756520
v -0.721150 -0.055030 0.799940
v -0.721150 -0.033320 0.747530
v -0.721150 -0.033320 0.808940
v -0.721150 -0.011610 0.756520
v -0.721150 -0.011610 0.799940
v -0.721150 -0.002620 0.778240
v -0.685520 -0.094730 0.778240
v -0.685520 -0.076740 0.734810
v -0.685520 -0.076740 0.821660
v -0.685520 -0.064020 0.778240
v -0.685520 -0.055030 0.756520
v -0.685520 -0.055030 0.799940
v -0.685520 -0.033320 0.716830
v -0.685520 -0.033320 0.747530
v -0.685520 -0.033320 0.808940
v -0.685520 -0.033320 0.839640
v -0.685520 -0.011610 0.756520
v -0.685520 -0.011610 0.799940
v -0.685520 -0.002620 0.778240
v -0.685520 0.010100 0.734810
v -0.685520 0.010100 0.821660
v -0.685520 0.028090 0.778240
v -0.679080 -0.026070 0.567010
v -0.679080 -0.017070 0.545300
v -0.679080 -0.017070 0.588730
v -0.679080 0.004640 0.536310
v -0.679080 0.004640 0.597720
v -0.679080 0.007250 0.955760
v -0.679080 0.016240 0.934050
v -0.679080 0.016240 0.977470
v -0.679080 0.026350 0.545300
v -0.679080 0.026350 0.588730
v -0.679080 0.035340 0.567010
v -0.679080 0.037950 0.925060
v -0.679080 0.037950 0.986460
v -0.679080 0.059660 0.934050
v -0.679080 0.059660 0.977470
v -0.679080 0.068660 0.955760
v -0.657610 -0.056770 0.567010
v -0.657610 -0.038780 0.523590
v -0.657610 -0.038780 0.610440
v -0.657610 -0.026070 0.567010
v -0.657610 -0.023450 0.955760
v -0.657610 -0.017070 0.545300
v -0.657610 -0.017070 0.588730
v -0.657610 -0.005470 0.912340
v -0.657610 -0.005470 0.999190
v -0.657610 0.004640 0.505610
v -0.657610 0.004640 0.536310
v -0.657610 0.004640 0.597720
v -0.657610 0.004640 0.628420
v -0.657610 0.007250 0.955760
v -0.657610 0.016240 0.934050
v -0.657610 0.016240 0.977470
v -0.657610 0.026350 0.545300
v -0.657610 0.026350 0.588730
v -0.657610 0.035340 0.567010
v -0.657610 0.037950 0.894350
v -0.657610 0.037950 0.925060
v -0.657610 0.037950 0.986460
v -0.657610 0.037950 1.017170
v -0.657610 0.048060 0.523590
v -0.657610 0.048060 0.610440
v -0.657610 0.059660 0.934050
v -0.657610 0.059660 0.977470
v -0.657610 0.066040 0.567010
v -0.657610 0.068660 0.955760
v -0.657610 0.081370 0.912340
v -0.657610 0.081370 0.999190
v -0.657610 0.099360 0.955760
v -0.574730 -0.105680 0.500150
v -0.574730 -0.105680 0.643150
v -0.574730 0.101840 0.500150
v -0.574730 0.101840 0.643150
v -0.571730 -0.010710 0.567010
v -0.571730 -0.006220 0.556160
v -0.571730 -0.006220 0.577870
v -0.571730 0.004640 0.551660
v -0.571730 0.004640 0.582370
v -0.571730 0.015490 0.556160
v -0.571730 0.015490 0.577870
v -0.571730 0.019990 0.567010
v -0.571730 0.022600 0.955760
v -0.571730 0.027100 0.944910
v -0.571730 0.027100 0.966620
v -0.571730 0.037950 0.940410
v -0.571730 0.037950 0.971120
v -0.571730 0.048810 0.944910
v -0.571730 0.048810 0.966620
v -0.571730 0.053300 0.955760
v -0.554960 -0.132800 0.883140
v -0.554960 -0.132800 1.033970
v -0.554960 -0.088120 0.883140
v -0.554960 -0.088120 1.033970
v -0.554960 -0.043430 0.883140
v -0.554960 -0.043430 1.033970
v -0.554960 0.001250 0.883140
v -0.554960 0.001250 1.033970
v -0.554960 0.045930 0.883140
v -0.554960 0.045930 1.033970
v -0.554960 0.090620 0.883140
v -0.554960 0.090620 1.033970
v -0.554960 0.135310 0.883140
v -0.554960 0.135310 1.033970
v -0.543010 -0.048670 0.778240
v -0.543010 -0.044180 0.767380
v -0.543010 -0.044180 0.789090
v -0.543010 -0.033320 0.762880
v -0.543010 -0.033320 0.793580
v -0.543010 -0.022460 0.767380
v -0.543010 -0.022460 0.789090
v -0.543010 -0.017970 0.778240
v -0.530840 -0.177490 0.883140
v -0.530840 -0.177490 0.921640
v -0.530840 -0.177490 0.960140
v -0.530840 -0.177490 0.998640
v -0.530840 -0.177490 1.013930
v -0.530840 -0.177490 1.020230
v -0.530840 0.179990 0.884770
v -0.530840 0.179990 0.923260
v -0.530840 0.179990 0.961760
v -0.530840 0.179990 1.000260
v -0.530840 0.179990 1.015560
v -0.530840 0.179990 1.021860
v -0.528800 -0.056770 0.567010
v -0.528800 -0.038780 0.523590
v -0.528800 -0.038780 0.610440
v -0.528800 -0.023450 0.955760
v -0.528800 -0.005470 0.912340
v -0.528800 -0.005470 0.999190
v -0.528800 0.004640 0.505610
v -0.528800 0.004640 0.628420
v -0.528800 0.037950 0.894350
v -0.528800 0.037950 1.017170
v -0.528800 0.048060 0.523590
v -0.528800 0.048060 0.610440
v -0.528800 0.066040 0.567010
v -0.528800 0.081370 0.912340
v -0.528800 0.081370 0.999190
v -0.528800 0.099360 0.955760
v -0.471750 -0.094730 0.778240
v -0.471750 -0.076740 0.734810
v -0.471750 -0.076740 0.821660
v -0.471750 -0.033320 0.716830
v -0.471750 -0.033320 0.839640
v -0.471750 0.010100 0.734810
v -0.471750 0.010100 0.821660
v -0.471750 0.028090 0.778240
v -0.470950 -0.173400 0.889450
v -0.470950 0.169570 0.889450
v -0.464390 -0.010710 0.567010
v -0.464390 -0.006220 0.556160
v -0.464390 -0.006220 0.577870
v -0.464390 0.004640 0.551660
v -0.464390 0.004640 0.582370
v -0.464390 0.015490 0.556160
v -0.464390 0.015490 0.577870
v -0.464390 0.019990 0.567010
v -0.464390 0.022600 0.955760
v -0.464390 0.027100 0.944910
v -0.464390 0.027100 0.966620
v -0.464390 0.037950 0.940410
v -0.464390 0.037950 0.971120
v -0.464390 0.048810 0.944910
v -0.464390 0.048810 0.966620
v -0.464390 0.053300 0.955760
v -0.440040 -0.105680 0.643150
v -0.440040 0.101840 0.643150
v -0.376980 -0.105680 0.500150
v -0.376980 0.101840 0.500150
v -0.364870 -0.048670 0.778240
v -0.364870 -0.044180 0.767380
v -0.364870 -0.044180 0.789090
v -0.364870 -0.033320 0.762880
v -0.364870 -0.033320 0.793580
v -0.364870 -0.022460 0.767380
v -0.364870 -0.022460 0.789090
v -0.364870 -0.017970 0.778240
v -0.357890 -0.177490 0.883140
v -0.357890 -0.177490 1.043430
v -0.357890 -0.132800 1.075630
v -0.357890 -0.088120 1.075630
v -0.357890 -0.087570 1.089900
v -0.357890 -0.043430 1.075630
v -0.357890 -0.043430 1.101050
v -0.357890 0.001250 1.075630
v -0.357890 0.001250 1.101050
v -0.357890 0.045930 1.075630
v -0.357890 0.045930 1.101050
v -0.357890 0.090620 1.075630
v -0.357890 0.090620 1.089900
v -0.357890 0.135310 1.075630
v -0.357890 0.179990 0.883140
v -0.357890 0.179990 1.043430
v -0.160820 -0.177490 0.883140
v -0.160820 -0.177490 1.043430
v -0.160820 -0.132800 1.075630
v -0.160820 -0.088120 1.075630
v -0.160820 -0.087570 1.101050
v -0.160820 0.090620 1.075630
v -0.160820 0.091170 1.101050
v -0.160820 0.135310 1.075630
v -0.160820 0.255010 0.883140
v -0.160820 0.255010 1.037130
v 0.036250 -0.177490 0.883140
v 0.036250 -0.177490 1.043430
v 0.036250 -0.132800 1.075630
v 0.036250 -0.088120 1.075630
v 0.036250 -0.087570 1.101050
v 0.036250 0.090620 1.075630
v 0.036250 0.091170 1.101050
v 0.036250 0.135310 1.075630
v 0.036250 0.255010 0.883140
v 0.036250 0.255010 1.037130
v 0.233330 -0.177490 0.883140
v 0.233330 -0.177490 1.043430
v 0.233330 -0.132800 1.075630
v 0.233330 -0.088120 1.075630
v 0.233330 -0.087570 1.089900
v 0.233330 -0.043430 0.883140
v 0.233330 -0.043430 1.075630
v 0.233330 -0.042890 1.101050
v 0.233330 0.001250 1.075630
v 0.233330 0.001800 1.101050
v 0.233330 0.045930 1.075630
v 0.233330 0.046480 1.101050
v 0.233330 0.090620 1.075630
v 0.233330 0.091170 1.089900
v 0.233330 0.135310 1.075630
v 0.233330 0.255010 0.883140
v 0.233330 0.255010 1.037130
v 0.292250 0.383180 0.895470
v 0.292250 0.383180 0.912740
v 0.292250 0.389080 0.879240
v 0.292250 0.389080 0.928960
v 0.292250 0.400180 0.866010
v 0.292250 0.400180 0.942190
v 0.292250 0.415140 0.857380
v 0.292250 0.415140 0.950820
v 0.292250 0.432150 0.854380
v 0.292250 0.432150 0.953820
v 0.292250 0.449150 0.857380
v 0.292250 0.449150 0.950820
v 0.292250 0.464110 0.866010
v 0.292250 0.464110 0.942190
v 0.292250 0.475210 0.879240
v 0.292250 0.475210 0.928960
v 0.292250 0.481110 0.895470
v 0.292250 0.481110 0.912740
v 0.364690 0.383180 0.895470
v 0.364690 0.383180 0.912740
v 0.364690 0.389080 0.879240
v 0.364690 0.389080 0.928960
v 0.364690 0.400180 0.866010
v 0.364690 0.400180 0.942190
v 0.364690 0.415140 0.857380
v 0.364690 0.415140 0.950820
v 0.364690 0.432150 0.854380
v 0.364690 0.432150 0.953820
v 0.364690 0.449150 0.857380
v 0.364690 0.449150 0.950820
v 0.364690 0.464110 0.866010
v 0.364690 0.464110 0.942190
v 0.364690 0.475210 0.879240
v 0.364690 0.475210 0.928960
v 0.364690 0.481110 0.895470
v 0.364690 0.481110 0.912740
v 0.367270 0.393110 0.907950
v 0.367270 0.395720 0.893170
v 0.367270 0.395720 0.922740
v 0.367270 0.403220 0.880170
v 0.367270 0.403220 0.935740
v 0.367270 0.414730 0.870520
v 0.367270 0.414730 0.945390
v 0.367270 0.428830 0.865390
v 0.367270 0.428830 0.950520
v 0.367270 0.443840 0.865390
v 0.367270 0.443840 0.950520
v 0.367270 0.457950 0.870520
v 0.367270 0.457950 0.945390
v 0.367270 0.469450 0.880170
v 0.367270 0.469450 0.935740
v 0.367270 0.476960 0.893170
v 0.367270 0.476960 0.922740
v 0.367270 0.479560 0.907950
v 0.415350 -0.132920 0.923090
v 0.415350 -0.130080 0.907020
v 0.415350 -0.130080 0.939170
v 0.415350 -0.121920 0.892880
v 0.415350 -0.121920 0.953310
v 0.415350 -0.109410 0.882380
v 0.415350 -0.109410 0.963810
v 0.415350 -0.094070 0.876800
v 0.415350 -0.094070 0.969390
v 0.415350 -0.077740 0.876800
v 0.415350 -0.077740 0.969390
v 0.415350 -0.062400 0.882380
v 0.415350 -0.062400 0.963810
v 0.415350 -0.049890 0.892880
v 0.415350 -0.049890 0.953310
v 0.415350 -0.041730 0.907020
v 0.415350 -0.041730 0.939170
v 0.415350 -0.038900 0.923090
v 0.430390 -0.177490 0.883140
v 0.430390 -0.177490 1.043430
v 0.430390 -0.132800 0.850950
v 0.430390 -0.132800 1.075630
v 0.430390 -0.043430 0.850950
v 0.430390 0.001250 0.883140
v 0.430390 0.135310 1.075630
v 0.430390 0.255010 0.883140
v 0.430390 0.255010 1.037130
v 0.492560 -0.105680 0.500150
v 0.492560 -0.105680 0.643150
v 0.492560 0.101840 0.500150
v 0.492560 0.101840 0.643150
v 0.626120 -0.173400 0.889450
v 0.626120 0.169570 0.889450
v 0.627470 -0.177490 0.883140
v 0.627470 -0.177490 0.921640
v 0.627470 -0.177490 0.960140
v 0.627470 -0.177490 0.998640
v 0.627470 -0.177490 1.013930
v 0.627470 -0.177490 1.020230
v 0.627470 -0.132800 0.834290
v 0.627470 -0.132800 1.043430
v 0.627470 -0.088120 0.834290
v 0.627470 -0.088120 1.041610
v 0.627470 -0.043430 0.834290
v 0.627470 -0.043430 1.041610
v 0.627470 0.001250 0.883140
v 0.627470 0.001250 1.041610
v 0.627470 0.045930 0.883140
v 0.627470 0.045930 1.041610
v 0.627470 0.090620 0.883140
v 0.627470 0.090620 1.041610
v 0.627470 0.135310 0.883140
v 0.627470 0.135310 1.041610
v 0.627470 0.179990 1.020230
v 0.627470 0.255010 0.883140
v 0.627470 0.255010 0.921640
v 0.627470 0.255010 0.960140
v 0.627470 0.255010 0.998640
v 0.627470 0.255010 1.013930
v 0.636960 0.393110 0.907950
v 0.636960 0.395720 0.893170
v 0.636960 0.395720 0.922740
v 0.636960 0.403220 0.880170
v 0.636960 0.403220 0.935740
v 0.636960 0.414730 0.945390
v 0.644970 -0.030600 0.927640
v 0.646570 -0.033920 0.906720
v 0.646570 -0.033920 0.948560
v 0.651180 -0.043490 0.888320
v 0.651180 -0.043490 0.966960
v 0.651470 -0.089950 0.926370
v 0.653160 -0.089950 0.907130
v 0.656470 -0.089950 0.945030
v 0.658240 -0.058150 0.874670
v 0.658240 -0.058150 0.980610
v 0.661320 -0.089950 0.889620
v 0.662830 0.377960 0.880170
v 0.662830 0.377960 0.935740
v 0.666910 -0.076130 0.867410
v 0.666910 -0.076130 0.987870
v 0.667550 -0.089950 0.960850
v 0.674980 -0.089950 0.875960
v 0.676120 -0.095270 0.867410
v 0.676120 -0.095270 0.987870
v 0.683380 -0.089950 0.971940
v 0.684790 -0.113250 0.874670
v 0.684790 -0.113250 0.980610
v 0.688900 -0.132920 0.923090
v 0.688900 -0.130080 0.907020
v 0.688900 -0.130080 0.939170
v 0.688900 -0.121920 0.892880
v 0.688900 -0.121920 0.953310
v 0.688900 -0.109410 0.882380
v 0.688900 -0.109410 0.963810
v 0.688900 -0.094070 0.876800
v 0.688900 -0.094070 0.969390
v 0.688900 -0.077740 0.876800
v 0.688900 -0.077740 0.969390
v 0.688900 -0.062400 0.882380
v 0.688900 -0.062400 0.963810
v 0.688900 -0.049890 0.892880
v 0.688900 -0.049890 0.953310
v 0.688900 -0.041730 0.907020
v 0.688900 -0.041730 0.939170
v 0.688900 -0.038900 0.923090
v 0.691850 -0.127920 0.888320
v 0.691850 -0.127920 0.966960
v 0.692490 -0.089950 0.867800
v 0.693150 0.326420 0.913160
v 0.696390 0.328280 0.891990
v 0.696390 0.328280 0.934320
v 0.696460 -0.137490 0.906720
v 0.696460 -0.137490 0.948560
v 0.698060 -0.140810 0.927640
v 0.702040 -0.089950 0.976930
v 0.705690 0.333660 0.873380
v 0.705690 0.333660 0.952940
v 0.711330 0.001370 0.927640
v 0.711730 -0.089950 0.866110
v 0.712930 -0.001960 0.906720
v 0.712930 -0.001960 0.948560
v 0.717540 -0.011520 0.888320
v 0.717540 -0.011520 0.966960
v 0.719950 0.341890 0.859560
v 0.719950 0.341890 0.966750
v 0.721280 -0.089950 0.975250
v 0.724600 -0.026180 0.874670
v 0.724600 -0.026180 0.980610
v 0.730390 -0.089950 0.871120
v 0.731680 0.259690 0.913160
v 0.733270 -0.044170 0.867410
v 0.733270 -0.044170 0.987870
v 0.734910 0.261560 0.891990
v 0.734910 0.261560 0.934320
v 0.735350 0.144750 0.921780
v 0.735350 0.206130 0.921780
v 0.737440 0.351990 0.852210
v 0.737440 0.351990 0.974100
v 0.737510 0.343600 0.912680
v 0.738780 -0.089950 0.967090
v 0.739010 0.144750 0.901040
v 0.739010 0.144750 0.942520
v 0.739010 0.206130 0.901040
v 0.739010 0.206130 0.942520
v 0.739760 0.343600 0.899920
v 0.739760 0.343600 0.925430
v 0.742480 -0.063300 0.867410
v 0.742480 -0.063300 0.987870
v 0.744210 0.266930 0.873380
v 0.744210 0.266930 0.952940
v 0.746210 -0.089950 0.882200
v 0.746240 0.343600 0.888710
v 0.746240 0.343600 0.936650
v 0.749540 0.144750 0.882800
v 0.749540 0.144750 0.960750
v 0.749540 0.206130 0.882800
v 0.749540 0.206130 0.960750
v 0.751150 -0.081290 0.874670
v 0.751150 -0.081290 0.980610
v 0.752450 -0.089950 0.953430
v 0.752910 0.018610 0.927000
v 0.752910 0.180000 0.927000
v 0.754290 0.018610 0.911130
v 0.754290 0.180000 0.911130
v 0.756060 0.362730 0.852210
v 0.756060 0.362730 0.974100
v 0.756160 0.343600 0.880380
v 0.756160 0.343600 0.944970
v 0.757030 0.018610 0.942380
v 0.757030 0.180000 0.942380
v 0.757290 -0.089950 0.898020
v 0.758210 -0.095950 0.888320
v 0.758210 -0.095950 0.966960
v 0.758480 0.275160 0.859560
v 0.758480 0.275160 0.966750
v 0.760160 0.131870 0.925750
v 0.760610 -0.089950 0.935920
v 0.761020 0.180000 0.896700
v 0.761380 0.018610 0.896730
v 0.762290 -0.089950 0.916680
v 0.762410 0.131870 0.913000
v 0.762410 0.131870 0.938510
v 0.762820 -0.105520 0.906720
v 0.762820 -0.105520 0.948560
v 0.764420 -0.108840 0.927640
v 0.765670 0.144750 0.869270
v 0.765670 0.144750 0.974280
v 0.765670 0.206130 0.869270
v 0.765670 0.206130 0.974280
v 0.766160 0.018610 0.955430
v 0.766160 0.180000 0.955430
v 0.768330 0.343600 0.875950
v 0.768330 0.343600 0.949410
v 0.768880 0.131870 0.901780
v 0.768880 0.131870 0.949730
v 0.770180 0.286320 0.880170
v 0.770180 0.286320 0.935740
v 0.770840 0.278840 0.893170
v 0.770840 0.278840 0.922740
v 0.771060 0.276250 0.907950
v 0.772280 0.180000 0.885440
v 0.773550 0.372830 0.859560
v 0.773550 0.372830 0.966750
v 0.775970 0.285260 0.852210
v 0.775970 0.285260 0.974100
v 0.778800 0.131870 0.893460
v 0.778800 0.131870 0.958050
v 0.779210 0.180000 0.964560
v 0.781280 0.343600 0.875950
v 0.781280 0.343600 0.949410
v 0.784790 0.377250 0.907950
v 0.785010 0.374650 0.893170
v 0.785010 0.374660 0.922740
v 0.785460 0.144750 0.862070
v 0.785460 0.144750 0.981490
v 0.785460 0.206130 0.862070
v 0.785460 0.206130 0.981490
v 0.785670 0.367180 0.880170
v 0.785670 0.367180 0.935740
v 0.786670 0.355720 0.870520
v 0.786670 0.355720 0.945390
v 0.786720 0.180000 0.878710
v 0.787810 0.381060 0.873380
v 0.787810 0.381060 0.952940
v 0.787900 0.341670 0.865390
v 0.787900 0.341670 0.950520
v 0.788900 0.326820 0.865310
v 0.789210 0.326720 0.950520
v 0.790130 0.312770 0.870440
v 0.790980 0.131870 0.889030
v 0.790980 0.131870 0.962480
v 0.793450 0.343600 0.880380
v 0.793450 0.343600 0.944970
v 0.794580 0.296010 0.852210
v 0.794580 0.296010 0.974100
v 0.794590 0.180000 0.968680
v 0.797110 0.386440 0.891990
v 0.797110 0.386440 0.934320
v 0.799270 0.305120 0.945390
v 0.800340 0.388300 0.913160
v 0.802590 0.180000 0.877320
v 0.803370 0.343600 0.888710
v 0.803370 0.343600 0.936650
v 0.803920 0.131870 0.889030
v 0.803920 0.131870 0.962480
v 0.806510 0.144750 0.862070
v 0.806510 0.144750 0.981480
v 0.806510 0.206130 0.862070
v 0.806510 0.206130 0.981480
v 0.809840 0.343600 0.899920
v 0.809840 0.343600 0.925430
v 0.810460 0.180000 0.967300
v 0.812070 0.306110 0.859560
v 0.812070 0.306110 0.966750
v 0.812100 0.343600 0.912680
v 0.816100 0.131870 0.893460
v 0.816100 0.131870 0.958050
v 0.817970 0.180000 0.881440
v 0.824890 0.180000 0.960570
v 0.826020 0.131870 0.901780
v 0.826020 0.131870 0.949730
v 0.826300 0.144750 0.869270
v 0.826300 0.144750 0.974280
v 0.826300 0.206130 0.869270
v 0.826300 0.206130 0.974280
v 0.826330 0.314340 0.873380
v 0.826330 0.314340 0.952940
v 0.831020 0.180000 0.890570
v 0.832490 0.131870 0.913000
v 0.832490 0.131870 0.938510
v 0.834740 0.131870 0.925750
v 0.835640 0.319710 0.891990
v 0.835640 0.319710 0.934320
v 0.836150 0.180000 0.949310
v 0.838870 0.321580 0.913160
v 0.840150 0.018610 0.903620
v 0.840150 0.180000 0.903620
v 0.842430 0.144750 0.882800
v 0.842430 0.144750 0.960750
v 0.842430 0.206130 0.882800
v 0.842430 0.206130 0.960750
v 0.842890 0.018610 0.934870
v 0.842890 0.180000 0.934870
v 0.844270 0.018610 0.919010
v 0.844270 0.180000 0.919010
v 0.852960 0.144750 0.901040
v 0.852960 0.144750 0.942520
v 0.852960 0.206130 0.901040
v 0.852960 0.206130 0.942520
v 0.856620 0.144750 0.921780
v 0.856620 0.206130 0.921780
v 1.087960 -0.332840 0.548300
v 1.087960 -0.332840 0.707020
v 1.087960 0.329560 0.548300
v 1.087960 0.329560 0.707020
v 1.135090 -0.332840 0.548300
v 1.135090 -0.332840 0.707020
v 1.135090 0.329560 0.548300
v 1.135090 0.329560 0.707020
v 1.193660 -0.348260 0.544330
v 1.193660 -0.348260 0.557500
v 1.193660 -0.348260 0.570670
v 1.193660 -0.348260 0.583840
v 1.193660 -0.348260 0.597010
v 1.193660 -0.348260 0.610180
v 1.193660 -0.348260 0.623350
v 1.193660 -0.348260 0.636520
v 1.193660 -0.348260 0.649680
v 1.193660 -0.348260 0.662850
v 1.193660 -0.348260 0.676020
v 1.193660 -0.348260 0.689190
v 1.193660 -0.348260 0.702360
v 1.193660 -0.230740 0.544330
v 1.193660 -0.230740 0.702360
v 1.193660 -0.113230 0.544330
v 1.193660 -0.113230 0.702360
v 1.193660 0.004290 0.544330
v 1.193660 0.004290 0.702360
v 1.193660 0.121810 0.544330
v 1.193660 0.121810 0.702360
v 1.193660 0.239330 0.544330
v 1.193660 0.239330 0.702360
v 1.193660 0.356840 0.544330
v 1.193660 0.356840 0.557500
v 1.193660 0.356840 0.570670
v 1.193660 0.356840 0.583840
v 1.193660 0.356840 0.597010
v 1.193660 0.356840 0.610180
v 1.193660 0.356840 0.623350
v 1.193660 0.356840 0.636520
v 1.193660 0.356840 0.649680
v 1.193660 0.356840 0.662850
v 1.193660 0.356840 0.676020
v 1.193660 0.356840 0.689190
v 1.193660 0.356840 0.702360
v 1.228260 -0.384110 0.536020
v 1.228260 -0.384110 0.719310
v 1.228260 0.380830 0.536020
v 1.228260 0.380830 0.719310
v 1.250700 -0.348260 0.544330
v 1.250700 -0.348260 0.557500
v 1.250700 -0.348260 0.570670
v 1.250700 -0.348260 0.583840
v 1.250700 -0.348260 0.610180
v 1.250700 -0.348260 0.623350
v 1.250700 -0.348260 0.649680
v 1.250700 -0.348260 0.662850
v 1.250700 -0.348260 0.689190
v 1.250700 -0.348260 0.702360
v 1.250700 -0.230740 0.557500
v 1.250700 -0.230740 0.570670
v 1.250700 -0.230740 0.583840
v 1.250700 -0.230740 0.610180
v 1.250700 -0.230740 0.623350
v 1.250700 -0.230740 0.649680
v 1.250700 -0.230740 0.662850
v 1.250700 -0.230740 0.689190
v 1.250700 -0.113230 0.557500
v 1.250700 -0.113230 0.570670
v 1.250700 -0.113230 0.583840
v 1.250700 -0.113230 0.610180
v 1.250700 -0.113230 0.623350
v 1.250700 -0.113230 0.649680
v 1.250700 -0.113230 0.662850
v 1.250700 -0.113230 0.689190
v 1.250700 0.004290 0.557500
v 1.250700 0.004290 0.570670
v 1.250700 0.004290 0.583840
v 1.250700 0.004290 0.610180
v 1.250700 0.004290 0.623350
v 1.250700 0.004290 0.649680
v 1.250700 0.004290 0.662850
v 1.250700 0.004290 0.689190
v 1.250700 0.121810 0.570670
v 1.250700 0.121810 0.583840
v 1.250700 0.121810 0.610180
v 1.250700 0.121810 0.623350
v 1.250700 0.121810 0.649680
v 1.250700 0.121810 0.662850
v 1.250700 0.121810 0.689190
v 1.250700 0.239330 0.570670
v 1.250700 0.239330 0.583840
v 1.250700 0.239330 0.610180
v 1.250700 0.239330 0.623350
v 1.250700 0.239330 0.649680
v 1.250700 0.239330 0.662850
v 1.250700 0.239330 0.689190
v 1.250700 0.356840 0.570670
v 1.250700 0.356840 0.583840
v 1.250700 0.356840 0.610180
v 1.250700 0.356840 0.623350
v 1.250700 0.356840 0.649680
v 1.250700 0.356840 0.662850
v 1.250700 0.356840 0.689190
v 1.250700 0.356840 0.702360
v 1.251610 -0.348260 0.597010
v 1.251610 -0.348260 0.636520
v 1.251610 -0.348260 0.676020
v 1.251610 0.121810 0.557500
v 1.251610 0.239330 0.557500
v 1.251610 0.356840 0.544330
v 1.251610 0.356840 0.557500
v 1.251610 0.356840 0.597010
v 1.251610 0.356840 0.636520
v 1.251610 0.356840 0.676020
v 1.266240 -0.348280 0.544330
v 1.266240 -0.348280 0.557500
v 1.266240 -0.348260 0.570670
v 1.266240 -0.348260 0.583840
v 1.266240 -0.348260 0.610180
v 1.266240 -0.348260 0.623350
v 1.266240 -0.348260 0.649680
v 1.266240 -0.348260 0.662850
v 1.266240 -0.348260 0.689190
v 1.266240 -0.348260 0.702360
v 1.266240 -0.230760 0.544330
v 1.266240 -0.230760 0.557500
v 1.266240 -0.230740 0.570670
v 1.266240 -0.230740 0.583840
v 1.266240 -0.230740 0.610180
v 1.266240 -0.230740 0.623350
v 1.266240 -0.230740 0.649680
v 1.266240 -0.230740 0.662850
v 1.266240 -0.230740 0.689190
v 1.266240 -0.230740 0.702360
v 1.266240 -0.113250 0.544330
v 1.266240 -0.113250 0.557500
v 1.266240 -0.113230 0.570670
v 1.266240 -0.113230 0.583840
v 1.266240 -0.113230 0.610180
v 1.266240 -0.113230 0.623350
v 1.266240 -0.113230 0.649680
v 1.266240 -0.113230 0.662850
v 1.266240 -0.113230 0.689190
v 1.266240 -0.113230 0.702360
v 1.266240 0.004270 0.544330
v 1.266240 0.004270 0.557500
v 1.266240 0.004290 0.570670
v 1.266240 0.004290 0.583840
v 1.266240 0.004290 0.610180
v 1.266240 0.004290 0.623350
v 1.266240 0.004290 0.649680
v 1.266240 0.004290 0.662850
v 1.266240 0.004290 0.689190
v 1.266240 0.004290 0.702360
v 1.266240 0.121810 0.570670
v 1.266240 0.121810 0.583840
v 1.266240 0.121810 0.610180
v 1.266240 0.121810 0.623350
v 1.266240 0.121810 0.649680
v 1.266240 0.121810 0.662850
v 1.266240 0.121810 0.689190
v 1.266240 0.121810 0.702360
v 1.266240 0.239330 0.570670
v 1.266240 0.239330 0.583840
v 1.266240 0.239330 0.610180
v 1.266240 0.239330 0.623350
v 1.266240 0.239330 0.649680
v 1.266240 0.239330 0.662850
v 1.266240 0.239330 0.689190
v 1.266240 0.239330 0.702360
v 1.266240 0.356840 0.570670
v 1.266240 0.356840 0.583840
v 1.266240 0.356840 0.610180
v 1.266240 0.356840 0.623350
v 1.266240 0.356840 0.649680
v 1.266240 0.356840 0.662850
v 1.266240 0.356840 0.689190
v 1.266240 0.356840 0.702360
v 1.267150 0.121790 0.544330
v 1.267150 0.121790 0.557500
v 1.267150 0.239310 0.544330
v 1.267150 0.239310 0.557500
v 1.267150 0.356820 0.544330
v 1.267150 0.356820 0.557500
l 212 229
l 213 230
l 229 230
l 202 212
l 203 213
l 192 202
l 192 193
l 193 203
l 190 192
l 191 193
l 188 190
l 189 191
l 186 188
l 187 189
l 184 186
l 184 185
l 185 187
l 184 200
l 185 201
l 200 210
l 201 211
l 210 220
l 220 221
l 211 221
l 220 223
l 221 224
l 223 225
l 224 226
l 225 227
l 226 228
l 227 229
l 228 230
l 339 342
l 313 342
l 232 313
l 215 232
l 205 215
l 195 205
l 105 121
l 121 195
l 337 339
l 103 105
l 335 337
l 101 103
l 333 335
l 311 333
l 99 101
l 331 333
l 310 331
l 222 310
l 222 311
l 97 99
l 329 331
l 95 97
l 327 329
l 308 327
l 93 95
l 321 327
l 306 321
l 217 306
l 217 308
l 207 217
l 197 207
l 181 197
l 115 181
l 93 115
l 340 341
l 231 312
l 214 231
l 204 214
l 194 204
l 126 196
l 106 126
l 106 194
l 338 340
l 104 106
l 336 338
l 102 104
l 334 336
l 100 102
l 332 334
l 98 100
l 330 332
l 96 98
l 309 328
l 328 330
l 219 309
l 209 219
l 199 209
l 183 199
l 94 96
l 307 326
l 326 328
l 218 307
l 208 218
l 198 208
l 182 198
l 94 120
l 120 182
l 342 343
l 121 122
l 343 344
l 122 123
l 344 345
l 123 124
l 314 346
l 345 346
l 233 314
l 216 233
l 206 216
l 124 125
l 341 346
l 196 206
l 125 126
l 115 116
l 116 117
l 117 118
l 118 119
l 119 120
l 321 322
l 322 323
l 323 324
l 324 325
l 325 326
l 171 315
l 315 316
l 74 76
l 75 76
l 73 75
l 73 74
l 317 318
l 172 317
l 315 317
l 169 170
l 76 170
l 74 169
l 75 172
l 73 171
l 319 320
l 152 320
l 151 152
l 151 319
l 151 169
l 316 319
l 152 170
l 318 320
l 580 584
l 579 580
l 579 583
l 582 586
l 580 582
l 581 585
l 581 582
l 579 581
l 623 625
l 625 626
l 624 626
l 623 624
l 585 625
l 583 623
l 586 626
l 584 624
l 693 703
l 627 693
l 703 713
l 713 723
l 723 757
l 757 759
l 688 761
l 759 761
l 689 762
l 761 762
l 687 689
l 760 762
l 686 687
l 758 760
l 653 686
l 724 758
l 645 653
l 714 724
l 637 645
l 704 714
l 628 637
l 628 694
l 694 704
l 693 694
l 629 638
l 695 705
l 629 695
l 638 646
l 705 715
l 646 654
l 715 725
l 654 661
l 725 733
l 661 668
l 733 741
l 668 675
l 675 749
l 741 749
l 676 750
l 749 750
l 669 676
l 742 750
l 662 669
l 734 742
l 655 662
l 726 734
l 647 655
l 716 726
l 639 647
l 706 716
l 630 639
l 630 696
l 696 706
l 695 696
l 631 640
l 697 707
l 631 697
l 640 648
l 707 717
l 648 656
l 717 727
l 656 663
l 727 735
l 663 670
l 735 743
l 670 677
l 677 751
l 743 751
l 678 752
l 751 752
l 671 678
l 744 752
l 664 671
l 736 744
l 657 664
l 728 736
l 649 657
l 718 728
l 641 649
l 708 718
l 632 641
l 632 698
l 698 708
l 697 698
l 633 642
l 699 709
l 633 699
l 642 650
l 709 719
l 650 658
l 719 729
l 658 665
l 729 737
l 665 672
l 737 745
l 672 679
l 679 753
l 745 753
l 680 754
l 753 754
l 673 680
l 746 754
l 666 673
l 738 746
l 659 666
l 730 738
l 651 659
l 720 730
l 643 651
l 710 720
l 634 643
l 634 700
l 700 710
l 699 700
l 635 644
l 701 711
l 635 701
l 644 652
l 711 721
l 652 660
l 721 731
l 660 667
l 731 739
l 667 674
l 739 747
l 674 681
l 681 755
l 747 755
l 682 756
l 755 756
l 748 756
l 740 748
l 732 740
l 722 732
l 712 722
l 636 702
l 702 712
l 701 702
l 587 588
l 587 600
l 600 602
l 602 604
l 604 606
l 606 608
l 610 611
l 608 610
l 588 589
l 611 612
l 589 590
l 612 613
l 590 591
l 613 614
l 591 592
l 614 615
l 592 593
l 615 616
l 593 594
l 616 617
l 594 595
l 617 618
l 595 596
l 618 619
l 596 597
l 619 620
l 597 598
l 620 621
l 598 599
l 599 601
l 601 603
l 603 605
l 605 607
l 607 609
l 609 622
l 621 622
l 628 629
l 675 689
l 630 683
l 676 690
l 631 683
l 677 690
l 632 684
l 678 691
l 633 684
l 679 691
l 634 685
l 680 692
l 635 685
l 681 692
l 587 627
l 610 688
l 622 682
l 599 636
l 301 303
l 299 301
l 297 299
l 295 297
l 293 295
l 291 293
l 289 291
l 288 289
l 288 290
l 290 292
l 292 294
l 294 296
l 296 298
l 298 300
l 300 302
l 302 304
l 304 305
l 303 305
l 391 392
l 389 391
l 387 389
l 385 387
l 383 385
l 381 383
l 379 381
l 377 379
l 375 377
l 375 376
l 376 378
l 378 380
l 380 382
l 382 384
l 384 386
l 386 388
l 388 390
l 390 392
l 355 357
l 353 355
l 362 367
l 357 362
l 371 374
l 367 371
l 394 400
l 374 394
l 399 401
l 400 401
l 373 393
l 393 399
l 366 370
l 370 373
l 356 361
l 361 366
l 353 354
l 354 356
l 405 408
l 408 410
l 410 415
l 415 419
l 419 435
l 435 446
l 446 460
l 460 471
l 471 472
l 470 472
l 459 470
l 445 459
l 434 445
l 418 434
l 414 418
l 409 414
l 407 409
l 405 407
l 368 372
l 360 368
l 358 360
l 358 359
l 359 363
l 363 369
l 369 395
l 395 406
l 406 416
l 416 438
l 438 458
l 458 467
l 464 467
l 447 464
l 427 447
l 413 427
l 402 413
l 372 402
l 569 571
l 563 571
l 450 466
l 448 450
l 448 456
l 456 477
l 523 539
l 539 546
l 546 561
l 561 570
l 570 572
l 564 572
l 555 564
l 545 555
l 528 545
l 509 528
l 488 509
l 465 488
l 451 465
l 449 451
l 449 457
l 457 478
l 478 495
l 495 523
l 430 443
l 423 430
l 475 503
l 443 475
l 535 551
l 503 535
l 567 575
l 551 567
l 576 578
l 575 578
l 552 568
l 568 576
l 504 536
l 536 552
l 444 476
l 476 504
l 423 431
l 431 444
l 422 428
l 428 441
l 441 473
l 473 501
l 501 533
l 533 549
l 549 565
l 565 573
l 573 577
l 574 577
l 566 574
l 550 566
l 534 550
l 502 534
l 474 502
l 442 474
l 429 442
l 422 429
l 469 482
l 463 469
l 463 468
l 468 481
l 481 493
l 493 517
l 517 531
l 531 543
l 543 547
l 547 556
l 556 558
l 557 558
l 548 557
l 544 548
l 532 544
l 518 532
l 494 518
l 482 494
l 455 480
l 480 497
l 497 520
l 520 530
l 530 538
l 538 542
l 537 542
l 529 537
l 519 529
l 496 519
l 479 496
l 454 479
l 439 454
l 432 439
l 426 432
l 426 433
l 433 440
l 440 455
l 420 436
l 436 461
l 461 491
l 491 521
l 521 540
l 540 553
l 553 559
l 559 562
l 560 562
l 554 560
l 541 554
l 522 541
l 492 522
l 462 492
l 437 462
l 421 437
l 417 421
l 417 420
l 396 398
l 398 404
l 404 412
l 412 425
l 425 453
l 453 490
l 490 511
l 511 525
l 525 527
l 524 527
l 510 524
l 489 510
l 452 489
l 424 452
l 411 424
l 403 411
l 397 403
l 396 397
l 272 274
l 274 276
l 276 278
l 278 280
l 280 282
l 282 284
l 284 286
l 286 287
l 285 287
l 283 285
l 281 283
l 279 281
l 277 279
l 275 277
l 273 275
l 271 273
l 270 271
l 270 272
l 347 348
l 348 350
l 349 351
l 347 349
l 350 364
l 352 365
l 485 487
l 364 483
l 483 485
l 483 516
l 514 516
l 512 514
l 507 512
l 505 507
l 499 505
l 498 499
l 498 500
l 500 506
l 506 508
l 508 513
l 513 515
l 365 484
l 484 526
l 484 486
l 486 487
l 483 486
l 486 516
l 486 526
l 256 258
l 258 260
l 252 254
l 254 256
l 253 255
l 252 253
l 257 259
l 255 257
l 261 263
l 259 261
l 265 267
l 263 265
l 268 269
l 267 269
l 264 266
l 266 268
l 260 262
l 262 264
l 240 242
l 238 240
l 236 238
l 234 236
l 234 235
l 235 237
l 237 239
l 239 241
l 241 243
l 243 245
l 245 247
l 247 249
l 249 251
l 250 251
l 248 250
l 246 248
l 244 246
l 242 244
l 31 36
l 30 31
l 30 32
l 32 37
l 37 39
l 39 40
l 38 40
l 36 38
l 32 56
l 56 62
l 37 62
l 30 54
l 54 56
l 31 55
l 54 55
l 36 61
l 55 61
l 38 66
l 61 66
l 40 69
l 66 69
l 39 67
l 67 69
l 62 67
l 70 72
l 71 72
l 63 71
l 49 63
l 45 49
l 45 48
l 48 60
l 60 70
l 49 132
l 132 136
l 63 136
l 45 130
l 130 132
l 48 131
l 130 131
l 60 135
l 131 135
l 70 140
l 135 140
l 72 142
l 140 142
l 71 141
l 141 142
l 136 141
l 86 88
l 85 86
l 85 87
l 87 89
l 89 91
l 91 92
l 90 92
l 88 90
l 87 163
l 163 165
l 89 165
l 85 161
l 161 163
l 86 162
l 161 162
l 88 164
l 162 164
l 90 166
l 164 166
l 92 168
l 166 168
l 91 167
l 167 168
l 165 167
l 26 28
l 25 26
l 25 27
l 27 29
l 29 34
l 34 35
l 33 35
l 28 33
l 27 47
l 47 52
l 29 52
l 25 44
l 44 47
l 26 46
l 44 46
l 28 51
l 46 51
l 33 57
l 51 57
l 35 59
l 57 59
l 34 58
l 58 59
l 52 58
l 64 68
l 65 68
l 53 65
l 43 53
l 41 43
l 41 42
l 42 50
l 50 64
l 43 129
l 129 134
l 53 134
l 41 127
l 127 129
l 42 128
l 127 128
l 50 133
l 128 133
l 64 137
l 133 137
l 68 139
l 137 139
l 65 138
l 138 139
l 134 138
l 78 80
l 77 78
l 77 79
l 79 81
l 81 83
l 83 84
l 82 84
l 80 82
l 79 155
l 155 157
l 81 157
l 77 153
l 153 155
l 78 154
l 153 154
l 80 156
l 154 156
l 82 158
l 156 158
l 84 160
l 158 160
l 83 159
l 159 160
l 157 159
l 2 4
l 1 2
l 1 3
l 3 5
l 5 7
l 7 8
l 6 8
l 4 6
l 3 14
l 14 17
l 5 17
l 1 12
l 12 14
l 2 13
l 12 13
l 4 16
l 13 16
l 6 19
l 16 19
l 8 21
l 19 21
l 7 20
l 20 21
l 17 20
l 22 24
l 23 24
l 18 23
l 11 18
l 9 11
l 9 10
l 10 15
l 15 22
l 11 145
l 145 147
l 18 147
l 9 143
l 143 145
l 10 144
l 143 144
l 15 146
l 144 146
l 22 148
l 146 148
l 24 150
l 148 150
l 23 149
l 149 150
l 147 149
l 108 110
l 107 108
l 107 109
l 109 111
l 111 113
l 113 114
l 112 114
l 110 112
l 109 175
l 175 177
l 111 177
l 107 173
l 173 175
l 108 174
l 173 174
l 110 176
l 174 176
l 112 178
l 176 178
l 114 180
l 178 180
l 113 179
l 179 180
l 177 179
