# atego_body_wire.obj - feature-edge wireframe, ISO 8855, metre
o body_wire
v -6.683430 -1.224820 1.092570
v -6.683430 -1.224820 1.281090
v -6.683430 -1.224820 1.469610
v -6.683430 -1.224820 1.658140
v -6.683430 -1.224820 1.846660
v -6.683430 -1.224820 2.035180
v -6.683430 -1.224820 2.223700
v -6.683430 -1.224820 2.412230
v -6.683430 -1.224820 2.600750
v -6.683430 -1.224820 2.789270
v -6.683430 -1.224820 2.977790
v -6.683430 -1.224820 3.166310
v -6.683430 -1.224820 3.354830
v -6.683430 -1.183490 1.130950
v -6.683430 -1.183490 1.313070
v -6.683430 -1.183490 1.495200
v -6.683430 -1.183490 1.677320
v -6.683430 -1.183490 1.859450
v -6.683430 -1.183490 2.041580
v -6.683430 -1.183490 2.223700
v -6.683430 -1.183490 2.405830
v -6.683430 -1.183490 2.587960
v -6.683430 -1.183490 2.770080
v -6.683430 -1.183490 2.952210
v -6.683430 -1.183490 3.134330
v -6.683430 -1.183490 3.316460
v -6.683430 -1.050770 1.092570
v -6.683430 -1.050770 3.354830
v -6.683430 -1.015340 1.130950
v -6.683430 -1.015340 3.316460
v -6.683430 -0.876720 1.092570
v -6.683430 -0.876720 3.354830
v -6.683430 -0.847200 1.130950
v -6.683430 -0.847200 3.316460
v -6.683430 -0.702670 1.092570
v -6.683430 -0.702670 3.354830
v -6.683430 -0.679050 1.130950
v -6.683430 -0.679050 3.316460
v -6.683430 -0.528620 1.092570
v -6.683430 -0.528620 3.354830
v -6.683430 -0.510900 1.130950
v -6.683430 -0.510900 3.316460
v -6.683430 -0.354570 1.092570
v -6.683430 -0.354570 3.354830
v -6.683430 -0.342760 1.130950
v -6.683430 -0.342760 3.316460
v -6.683430 -0.180510 1.092570
v -6.683430 -0.180510 3.354830
v -6.683430 -0.174610 1.130950
v -6.683430 -0.174610 3.316460
v -6.683430 -0.006460 1.092570
v -6.683430 -0.006460 1.130950
v -6.683430 -0.006460 3.316460
v -6.683430 -0.006460 3.354830
v -6.683430 0.161680 1.130950
v -6.683430 0.161680 3.316460
v -6.683430 0.167590 1.092570
v -6.683430 0.167590 3.354830
v -6.683430 0.329830 1.130950
v -6.683430 0.329830 3.316460
v -6.683430 0.341640 1.092570
v -6.683430 0.341640 3.354830
v -6.683430 0.497980 1.130950
v -6.683430 0.497980 3.316460
v -6.683430 0.515690 1.092570
v -6.683430 0.515690 3.354830
v -6.683430 0.666120 1.130950
v -6.683430 0.666120 3.316460
v -6.683430 0.689740 1.092570
v -6.683430 0.689740 3.354830
v -6.683430 0.834270 1.130950
v -6.683430 0.834270 3.316460
v -6.683430 0.863800 1.092570
v -6.683430 0.863800 3.354830
v -6.683430 1.002420 1.130950
v -6.683430 1.002420 3.316460
v -6.683430 1.037850 1.092570
v -6.683430 1.037850 3.354830
v -6.683430 1.170570 1.130950
v -6.683430 1.170570 1.313070
v -6.683430 1.170570 1.495200
v -6.683430 1.170570 1.677320
v -6.683430 1.170570 1.859450
v -6.683430 1.170570 2.041580
v -6.683430 1.170570 2.223700
v -6.683430 1.170570 2.405830
v -6.683430 1.170570 2.587960
v -6.683430 1.170570 2.770080
v -6.683430 1.170570 2.952210
v -6.683430 1.170570 3.134330
v -6.683430 1.170570 3.316460
v -6.683430 1.211900 1.092570
v -6.683430 1.211900 1.281090
v -6.683430 1.211900 1.469610
v -6.683430 1.211900 1.658140
v -6.683430 1.211900 1.846660
v -6.683430 1.211900 2.035180
v -6.683430 1.211900 2.223700
v -6.683430 1.211900 2.412230
v -6.683430 1.211900 2.600750
v -6.683430 1.211900 2.789270
v -6.683430 1.211900 2.977790
v -6.683430 1.211900 3.166310
v -6.683430 1.211900 3.354830
v -6.659200 -1.183490 1.130950
v -6.659200 -1.183490 1.313070
v -6.659200 -1.183490 1.495200
v -6.659200 -1.183490 1.677320
v -6.659200 -1.183490 1.859450
v -6.659200 -1.183490 2.041580
v -6.659200 -1.183490 2.223700
v -6.659200 -1.183490 2.405830
v -6.659200 -1.183490 2.587960
v -6.659200 -1.183490 2.770080
v -6.659200 -1.183490 2.952210
v -6.659200 -1.183490 3.134330
v -6.659200 -1.183490 3.316460
v -6.659200 -1.015340 1.130950
v -6.659200 -1.015340 3.316460
v -6.659200 -0.847200 1.130950
v -6.659200 -0.847200 3.316460
v -6.659200 -0.679050 1.130950
v -6.659200 -0.679050 3.316460
v -6.659200 -0.510900 1.130950
v -6.659200 -0.510900 3.316460
v -6.659200 -0.342760 1.130950
v -6.659200 -0.342760 3.316460
v -6.659200 -0.174610 1.130950
v -6.659200 -0.174610 3.316460
v -6.659200 -0.006460 1.130950
v -6.659200 -0.006460 3.316460
v -6.659200 0.161680 1.130950
v -6.659200 0.161680 3.316460
v -6.659200 0.329830 1.130950
v -6.659200 0.329830 3.316460
v -6.659200 0.497980 1.130950
v -6.659200 0.497980 3.316460
v -6.659200 0.666120 1.130950
v -6.659200 0.666120 3.316460
v -6.659200 0.834270 1.130950
v -6.659200 0.834270 3.316460
v -6.659200 1.002420 1.130950
v -6.659200 1.002420 3.316460
v -6.659200 1.170570 1.130950
v -6.659200 1.170570 1.313070
v -6.659200 1.170570 1.495200
v -6.659200 1.170570 1.677320
v -6.659200 1.170570 1.859450
v -6.659200 1.170570 2.041580
v -6.659200 1.170570 2.223700
v -6.659200 1.170570 2.405830
v -6.659200 1.170570 2.587960
v -6.659200 1.170570 2.770080
v -6.659200 1.170570 2.952210
v -6.659200 1.170570 3.134330
v -6.659200 1.170570 3.316460
v -6.616090 -0.266430 0.726030
v -6.616090 -0.266430 0.851840
v -6.616090 0.272130 0.726030
v -6.616090 0.272130 0.851840
v -6.600510 -1.047380 0.802990
v -6.600510 -1.047380 0.896960
v -6.600510 -0.917680 0.802990
v -6.600510 -0.917680 0.896960
v -6.600510 -0.787980 0.802990
v -6.600510 -0.787980 0.896960
v -6.600510 -0.697240 0.802990
v -6.600510 -0.697240 0.896960
v -6.600510 -0.659360 0.808240
v -6.600510 -0.659360 0.891710
v -6.600510 -0.658280 0.802990
v -6.600510 -0.658280 0.896960
v -6.600510 0.652930 0.802990
v -6.600510 0.652930 0.896960
v -6.600510 0.654000 0.808240
v -6.600510 0.654000 0.891710
v -6.600510 0.691880 0.802990
v -6.600510 0.691880 0.896960
v -6.600510 0.782620 0.802990
v -6.600510 0.782620 0.896960
v -6.600510 0.912320 0.802990
v -6.600510 0.912320 0.896960
v -6.600510 1.042020 0.802990
v -6.600510 1.042020 0.896960
v -6.595520 -0.266430 0.726030
v -6.595520 -0.266430 0.851840
v -6.595520 0.272130 0.726030
v -6.595520 0.272130 0.851840
v -6.592400 -1.205980 1.177080
v -6.592400 -1.205980 1.351520
v -6.592400 -1.205980 1.525960
v -6.592400 -1.205980 1.700390
v -6.592400 -1.205980 1.874830
v -6.592400 -1.205980 2.049270
v -6.592400 -1.205980 2.223700
v -6.592400 -1.205980 2.398140
v -6.592400 -1.205980 2.572580
v -6.592400 -1.205980 2.747010
v -6.592400 -1.205980 2.921450
v -6.592400 -1.205980 3.095890
v -6.592400 -1.205980 3.270320
v -6.592400 -1.190150 1.177080
v -6.592400 -1.190150 1.351520
v -6.592400 -1.190150 1.525960
v -6.592400 -1.190150 1.700390
v -6.592400 -1.190150 1.874830
v -6.592400 -1.190150 2.049270
v -6.592400 -1.190150 2.223700
v -6.592400 -1.190150 2.398140
v -6.592400 -1.190150 2.572580
v -6.592400 -1.190150 2.747010
v -6.592400 -1.190150 2.921450
v -6.592400 -1.190150 3.095890
v -6.592400 -1.190150 3.270320
v -6.592400 1.177220 1.177080
v -6.592400 1.177220 1.351520
v -6.592400 1.177220 1.525960
v -6.592400 1.177220 1.700390
v -6.592400 1.177220 1.874830
v -6.592400 1.177220 2.049270
v -6.592400 1.177220 2.223700
v -6.592400 1.177220 2.398140
v -6.592400 1.177220 2.572580
v -6.592400 1.177220 2.747010
v -6.592400 1.177220 2.921450
v -6.592400 1.177220 3.095890
v -6.592400 1.177220 3.270320
v -6.592400 1.193060 1.177080
v -6.592400 1.193060 1.351520
v -6.592400 1.193060 1.525960
v -6.592400 1.193060 1.700390
v -6.592400 1.193060 1.874830
v -6.592400 1.193060 2.049270
v -6.592400 1.193060 2.223700
v -6.592400 1.193060 2.398140
v -6.592400 1.193060 2.572580
v -6.592400 1.193060 2.747010
v -6.592400 1.193060 2.921450
v -6.592400 1.193060 3.095890
v -6.592400 1.193060 3.270320
v -6.550530 -1.047380 0.802990
v -6.550530 -1.047380 0.896960
v -6.550530 -0.917680 0.802990
v -6.550530 -0.917680 0.896960
v -6.550530 -0.787980 0.802990
v -6.550530 -0.787980 0.896960
v -6.550530 -0.697240 0.802990
v -6.550530 -0.697240 0.896960
v -6.550530 -0.658280 0.802990
v -6.550530 -0.658280 0.896960
v -6.550530 0.652930 0.802990
v -6.550530 0.652930 0.896960
v -6.550530 0.691880 0.802990
v -6.550530 0.691880 0.896960
v -6.550530 0.782620 0.802990
v -6.550530 0.782620 0.896960
v -6.550530 0.912320 0.802990
v -6.550530 0.912320 0.896960
v -6.550530 1.042020 0.802990
v -6.550530 1.042020 0.896960
v -6.513080 -1.224820 1.092570
v -6.513080 -1.224820 3.354830
v -6.513080 1.211900 1.092570
v -6.513080 1.211900 3.354830
v -6.427070 -1.205980 1.177080
v -6.427070 -1.205980 3.270320
v -6.427070 -1.190150 1.177080
v -6.427070 -1.190150 3.270320
v -6.427070 1.177220 1.177080
v -6.427070 1.177220 3.270320
v -6.427070 1.193060 1.177080
v -6.427070 1.193060 3.270320
v -6.336700 -1.224820 1.092570
v -6.336700 -1.224820 3.354830
v -6.336700 1.211900 1.092570
v -6.336700 1.211900 3.354830
v -6.255900 -1.205980 1.177080
v -6.255900 -1.205980 3.270320
v -6.255900 -1.190150 1.177080
v -6.255900 -1.190150 3.270320
v -6.255900 1.177220 1.177080
v -6.255900 1.177220 3.270320
v -6.255900 1.193060 1.177080
v -6.255900 1.193060 3.270320
v -6.160330 -1.224820 1.092570
v -6.160330 -1.224820 3.354830
v -6.160330 1.211900 1.092570
v -6.160330 1.211900 3.354830
v -6.084730 -1.205980 1.177080
v -6.084730 -1.205980 3.270320
v -6.084730 -1.190150 1.177080
v -6.084730 -1.190150 3.270320
v -6.084730 1.177220 1.177080
v -6.084730 1.177220 3.270320
v -6.084730 1.193060 1.177080
v -6.084730 1.193060 3.270320
v -5.983950 -1.224820 1.092570
v -5.983950 -1.224820 3.354830
v -5.983950 1.211900 1.092570
v -5.983950 1.211900 3.354830
v -5.913560 -1.205980 3.270320
v -5.913560 -1.190150 3.270320
v -5.913560 1.177220 1.177080
v -5.913560 1.193060 1.177080
v -5.913550 -1.205980 1.177080
v -5.913550 -1.190150 1.177080
v -5.913550 1.177220 3.270320
v -5.913550 1.193060 3.270320
v -5.807580 -1.224820 1.092570
v -5.807580 -1.224820 3.354830
v -5.807580 1.211900 1.092570
v -5.807580 1.211900 3.354830
v -5.742380 -1.205980 1.177080
v -5.742380 -1.205980 3.270320
v -5.742380 -1.190150 1.177080
v -5.742380 -1.190150 3.270320
v -5.742380 1.177220 1.177080
v -5.742380 1.177220 3.270320
v -5.742380 1.193060 1.177080
v -5.742380 1.193060 3.270320
v -5.631210 -1.224820 1.092570
v -5.631210 -1.224820 3.354830
v -5.631210 1.211900 1.092570
v -5.631210 1.211900 3.354830
v -5.571210 -1.205980 1.177080
v -5.571210 -1.205980 3.270320
v -5.571210 -1.190150 1.177080
v -5.571210 -1.190150 3.270320
v -5.571210 1.177220 1.177080
v -5.571210 1.177220 3.270320
v -5.571210 1.193060 1.177080
v -5.571210 1.193060 3.270320
v -5.454830 -1.224820 1.092570
v -5.454830 -1.224820 3.354830
v -5.454830 1.211900 1.092570
v -5.454830 1.211900 3.354830
v -5.400040 -1.205980 1.177080
v -5.400040 -1.205980 3.270320
v -5.400040 -1.190150 1.177080
v -5.400040 -1.190150 3.270320
v -5.400040 1.177220 1.177080
v -5.400040 1.177220 3.270320
v -5.400040 1.193060 1.177080
v -5.400040 1.193060 3.270320
v -5.278460 -1.224820 1.092570
v -5.278460 -1.224820 3.354830
v -5.278460 1.211900 1.092570
v -5.278460 1.211900 3.354830
v -5.228870 -1.205980 1.177080
v -5.228870 -1.205980 3.270320
v -5.228870 -1.190150 1.177080
v -5.228870 -1.190150 3.270320
v -5.228870 1.177220 1.177080
v -5.228870 1.177220 3.270320
v -5.228870 1.193060 1.177080
v -5.228870 1.193060 3.270320
v -5.102090 -1.224820 1.092570
v -5.102090 -1.224820 3.354830
v -5.102090 1.211900 1.092570
v -5.102090 1.211900 3.354830
v -5.057690 -1.205980 1.177080
v -5.057690 -1.205980 3.270320
v -5.057690 -1.190150 1.177080
v -5.057690 -1.190150 3.270320
v -5.057690 1.177220 1.177080
v -5.057690 1.177220 3.270320
v -5.057690 1.193060 1.177080
v -5.057690 1.193060 3.270320
v -4.925710 -1.224820 1.092570
v -4.925710 -1.224820 3.354830
v -4.925710 1.211900 1.092570
v -4.925710 1.211900 3.354830
v -4.886520 -1.205980 1.177080
v -4.886520 -1.205980 3.270320
v -4.886520 -1.190150 1.177080
v -4.886520 -1.190150 3.270320
v -4.886520 1.177220 1.177080
v -4.886520 1.177220 3.270320
v -4.886520 1.193060 1.177080
v -4.886520 1.193060 3.270320
v -4.749340 -1.224820 1.092570
v -4.749340 -1.224820 3.354830
v -4.749340 1.211900 1.092570
v -4.749340 1.211900 3.354830
v -4.715350 -1.205980 1.177080
v -4.715350 -1.205980 3.270320
v -4.715350 -1.190150 1.177080
v -4.715350 -1.190150 3.270320
v -4.715350 1.177220 1.177080
v -4.715350 1.177220 3.270320
v -4.715350 1.193060 1.177080
v -4.715350 1.193060 3.270320
v -4.572970 -1.224820 1.092570
v -4.572970 -1.224820 3.354830
v -4.572970 1.211900 1.092570
v -4.572970 1.211900 3.354830
v -4.544180 -1.205980 1.177080
v -4.544180 -1.205980 3.270320
v -4.544180 -1.190150 1.177080
v -4.544180 -1.190150 3.270320
v -4.544180 1.177220 1.177080
v -4.544180 1.177220 3.270320
v -4.544180 1.193060 1.177080
v -4.544180 1.193060 3.270320
v -4.396590 -1.224820 1.092570
v -4.396590 -1.224820 3.354830
v -4.396590 1.211900 1.092570
v -4.396590 1.211900 3.354830
v -4.373010 -1.205980 1.177080
v -4.373010 -1.205980 3.270320
v -4.373010 -1.190150 1.177080
v -4.373010 -1.190150 3.270320
v -4.373010 1.177220 1.177080
v -4.373010 1.177220 3.270320
v -4.373010 1.193060 1.177080
v -4.373010 1.193060 3.270320
v -4.220220 -1.224820 1.092570
v -4.220220 -1.224820 3.354830
v -4.220220 1.211900 1.092570
v -4.220220 1.211900 3.354830
v -4.201840 -1.205980 3.270320
v -4.201840 -1.190150 3.270320
v -4.201840 1.177220 1.177080
v -4.201840 1.193060 1.177080
v -4.201830 -1.205980 1.177080
v -4.201830 -1.190150 1.177080
v -4.201830 1.177220 3.270320
v -4.201830 1.193060 3.270320
v -4.043850 -1.224820 1.092570
v -4.043850 -1.224820 3.354830
v -4.043850 1.211900 1.092570
v -4.043850 1.211900 3.354830
v -4.030660 -1.205980 1.177080
v -4.030660 -1.205980 3.270320
v -4.030660 -1.190150 1.177080
v -4.030660 -1.190150 3.270320
v -4.030660 1.177220 1.177080
v -4.030660 1.177220 3.270320
v -4.030660 1.193060 1.177080
v -4.030660 1.193060 3.270320
v -3.867470 -1.224820 1.092570
v -3.867470 -1.224820 3.354830
v -3.867470 1.211900 1.092570
v -3.867470 1.211900 3.354830
v -3.859490 -1.205980 1.177080
v -3.859490 -1.205980 3.270320
v -3.859490 -1.190150 1.177080
v -3.859490 -1.190150 3.270320
v -3.859490 1.177220 1.177080
v -3.859490 1.177220 3.270320
v -3.859490 1.193060 1.177080
v -3.859490 1.193060 3.270320
v -3.691100 -1.224820 1.092570
v -3.691100 -1.224820 3.354830
v -3.691100 1.211900 1.092570
v -3.691100 1.211900 3.354830
v -3.688320 -1.205980 1.177080
v -3.688320 -1.205980 3.270320
v -3.688320 -1.190150 1.177080
v -3.688320 -1.190150 3.270320
v -3.688320 1.177220 1.177080
v -3.688320 1.177220 3.270320
v -3.688320 1.193060 1.177080
v -3.688320 1.193060 3.270320
v -3.517150 -1.205980 1.177080
v -3.517150 -1.205980 3.270320
v -3.517150 -1.190150 1.177080
v -3.517150 -1.190150 3.270320
v -3.517150 1.177220 1.177080
v -3.517150 1.177220 3.270320
v -3.517150 1.193060 1.177080
v -3.517150 1.193060 3.270320
v -3.514730 -1.224820 1.092570
v -3.514730 1.211900 3.354830
v -3.514720 -1.224820 3.354830
v -3.514720 1.211900 1.092570
v -3.345980 -1.205980 1.177080
v -3.345980 -1.205980 3.270320
v -3.345980 -1.190150 1.177080
v -3.345980 -1.190150 3.270320
v -3.345980 1.177220 1.177080
v -3.345980 1.177220 3.270320
v -3.345980 1.193060 1.177080
v -3.345980 1.193060 3.270320
v -3.338350 -1.224820 1.092570
v -3.338350 -1.224820 3.354830
v -3.338350 1.211900 1.092570
v -3.338350 1.211900 3.354830
v -3.174800 -1.205980 1.177080
v -3.174800 -1.205980 3.270320
v -3.174800 -1.190150 1.177080
v -3.174800 -1.190150 3.270320
v -3.174800 1.177220 1.177080
v -3.174800 1.177220 3.270320
v -3.174800 1.193060 1.177080
v -3.174800 1.193060 3.270320
v -3.161980 -1.224820 1.092570
v -3.161980 -1.224820 3.354830
v -3.161980 1.211900 1.092570
v -3.161980 1.211900 3.354830
v -3.003630 -1.205980 1.177080
v -3.003630 -1.205980 3.270320
v -3.003630 -1.190150 1.177080
v -3.003630 -1.190150 3.270320
v -3.003630 1.177220 1.177080
v -3.003630 1.177220 3.270320
v -3.003630 1.193060 1.177080
v -3.003630 1.193060 3.270320
v -2.985600 -1.224820 1.092570
v -2.985600 -1.224820 3.354830
v -2.985600 1.211900 1.092570
v -2.985600 1.211900 3.354830
v -2.832460 -1.205980 1.177080
v -2.832460 -1.205980 3.270320
v -2.832460 -1.190150 1.177080
v -2.832460 -1.190150 3.270320
v -2.832460 1.177220 1.177080
v -2.832460 1.177220 3.270320
v -2.832460 1.193060 1.177080
v -2.832460 1.193060 3.270320
v -2.809230 -1.224820 1.092570
v -2.809230 -1.224820 3.354830
v -2.809230 1.211900 1.092570
v -2.809230 1.211900 3.354830
v -2.661290 -1.205980 1.177080
v -2.661290 -1.205980 3.270320
v -2.661290 -1.190150 1.177080
v -2.661290 -1.190150 3.270320
v -2.661290 1.177220 1.177080
v -2.661290 1.177220 3.270320
v -2.661290 1.193060 1.177080
v -2.661290 1.193060 3.270320
v -2.632860 -1.224820 1.092570
v -2.632860 -1.224820 3.354830
v -2.632860 1.211900 1.092570
v -2.632860 1.211900 3.354830
v -2.490120 -1.205980 1.177080
v -2.490120 -1.205980 3.270320
v -2.490120 -1.190150 1.177080
v -2.490120 -1.190150 3.270320
v -2.490120 1.177220 1.177080
v -2.490120 1.177220 3.270320
v -2.490120 1.193060 1.177080
v -2.490120 1.193060 3.270320
v -2.456480 -1.224820 1.092570
v -2.456480 -1.224820 3.354830
v -2.456480 1.211900 1.092570
v -2.456480 1.211900 3.354830
v -2.318950 -1.205980 1.177080
v -2.318950 -1.205980 3.270320
v -2.318950 -1.190150 1.177080
v -2.318950 -1.190150 3.270320
v -2.318950 1.177220 1.177080
v -2.318950 1.177220 3.270320
v -2.318950 1.193060 1.177080
v -2.318950 1.193060 3.270320
v -2.280110 -1.224820 1.092570
v -2.280110 -1.224820 3.354830
v -2.280110 1.211900 1.092570
v -2.280110 1.211900 3.354830
v -2.147770 -1.205980 1.177080
v -2.147770 -1.205980 3.270320
v -2.147770 -1.190150 1.177080
v -2.147770 -1.190150 3.270320
v -2.147770 1.177220 1.177080
v -2.147770 1.177220 3.270320
v -2.147770 1.193060 1.177080
v -2.147770 1.193060 3.270320
v -2.103740 -1.224820 1.092570
v -2.103740 -1.224820 3.354830
v -2.103740 1.211900 1.092570
v -2.103740 1.211900 3.354830
v -1.976600 -1.205980 1.177080
v -1.976600 -1.205980 3.270320
v -1.976600 -1.190150 1.177080
v -1.976600 -1.190150 3.270320
v -1.976600 1.177220 1.177080
v -1.976600 1.177220 3.270320
v -1.976600 1.193060 1.177080
v -1.976600 1.193060 3.270320
v -1.927360 -1.224820 1.092570
v -1.927360 -1.224820 3.354830
v -1.927360 1.211900 1.092570
v -1.927360 1.211900 3.354830
v -1.805430 -1.205980 1.177080
v -1.805430 -1.205980 3.270320
v -1.805430 -1.190150 1.177080
v -1.805430 -1.190150 3.270320
v -1.805430 1.177220 1.177080
v -1.805430 1.177220 3.270320
v -1.805430 1.193060 1.177080
v -1.805430 1.193060 3.270320
v -1.750990 -1.224820 1.092570
v -1.750990 -1.224820 3.354830
v -1.750990 1.211900 1.092570
v -1.750990 1.211900 3.354830
v -1.634260 -1.205980 1.177080
v -1.634260 -1.205980 3.270320
v -1.634260 -1.190150 1.177080
v -1.634260 -1.190150 3.270320
v -1.634260 1.177220 1.177080
v -1.634260 1.177220 3.270320
v -1.634260 1.193060 1.177080
v -1.634260 1.193060 3.270320
v -1.574620 -1.224820 1.092570
v -1.574620 -1.224820 3.354830
v -1.574620 1.211900 1.092570
v -1.574620 1.211900 3.354830
v -1.463080 -1.205980 1.177080
v -1.463080 -1.205980 3.270320
v -1.463080 -1.190150 1.177080
v -1.463080 -1.190150 3.270320
v -1.463080 1.177220 1.177080
v -1.463080 1.177220 3.270320
v -1.463080 1.193060 1.177080
v -1.463080 1.193060 3.270320
v -1.398240 -1.224820 1.092570
v -1.398240 -1.224820 3.354830
v -1.398240 1.211900 1.092570
v -1.398240 1.211900 3.354830
v -1.291910 -1.205980 1.177080
v -1.291910 -1.205980 3.270320
v -1.291910 -1.190150 1.177080
v -1.291910 -1.190150 3.270320
v -1.291910 1.177220 1.177080
v -1.291910 1.177220 3.270320
v -1.291910 1.193060 1.177080
v -1.291910 1.193060 3.270320
v -1.221870 -1.224820 1.092570
v -1.221870 -1.224820 3.354830
v -1.221870 1.211900 1.092570
v -1.221870 1.211900 3.354830
v -1.120740 -1.205980 1.177080
v -1.120740 -1.205980 3.270320
v -1.120740 -1.190150 1.177080
v -1.120740 -1.190150 3.270320
v -1.120740 1.177220 1.177080
v -1.120740 1.177220 3.270320
v -1.120740 1.193060 1.177080
v -1.120740 1.193060 3.270320
v -1.045500 -1.224820 1.092570
v -1.045500 1.211900 3.354830
v -1.045490 -1.224820 3.354830
v -1.045490 1.211900 1.092570
v -0.949570 -1.205980 1.177080
v -0.949570 -1.205980 3.270320
v -0.949570 -1.190150 1.177080
v -0.949570 -1.190150 3.270320
v -0.949570 1.177220 1.177080
v -0.949570 1.177220 3.270320
v -0.949570 1.193060 1.177080
v -0.949570 1.193060 3.270320
v -0.869120 -1.224820 1.092570
v -0.869120 -1.224820 3.354830
v -0.869120 1.211900 1.092570
v -0.869120 1.211900 3.354830
v -0.778400 -1.205980 1.177080
v -0.778400 -1.205980 3.270320
v -0.778400 -1.190150 1.177080
v -0.778400 -1.190150 3.270320
v -0.778400 1.177220 1.177080
v -0.778400 1.177220 3.270320
v -0.778400 1.193060 1.177080
v -0.778400 1.193060 3.270320
v -0.692750 -1.224820 1.092570
v -0.692750 -1.224820 3.354830
v -0.692750 1.211900 1.092570
v -0.692750 1.211900 3.354830
v -0.601380 -1.205980 1.177080
v -0.601380 -1.205980 1.351520
v -0.601380 -1.205980 1.525960
v -0.601380 -1.205980 1.700390
v -0.601380 -1.205980 1.874830
v -0.601380 -1.205980 2.049270
v -0.601380 -1.205980 2.223700
v -0.601380 -1.205980 2.398140
v -0.601380 -1.205980 2.572580
v -0.601380 -1.205980 2.747010
v -0.601380 -1.205980 2.921450
v -0.601380 -1.205980 3.095890
v -0.601380 -1.205980 3.270320
v -0.601380 -1.190150 1.177080
v -0.601380 -1.190150 1.351520
v -0.601380 -1.190150 1.525960
v -0.601380 -1.190150 1.700390
v -0.601380 -1.190150 1.874830
v -0.601380 -1.190150 2.049270
v -0.601380 -1.190150 2.223700
v -0.601380 -1.190150 2.398140
v -0.601380 -1.190150 2.572580
v -0.601380 -1.190150 2.747010
v -0.601380 -1.190150 2.921450
v -0.601380 -1.190150 3.095890
v -0.601380 -1.190150 3.270320
v -0.601380 1.177220 1.177080
v -0.601380 1.177220 1.351520
v -0.601380 1.177220 1.525960
v -0.601380 1.177220 1.700390
v -0.601380 1.177220 1.874830
v -0.601380 1.177220 2.049270
v -0.601380 1.177220 2.223700
v -0.601380 1.177220 2.398140
v -0.601380 1.177220 2.572580
v -0.601380 1.177220 2.747010
v -0.601380 1.177220 2.921450
v -0.601380 1.177220 3.095890
v -0.601380 1.177220 3.270320
v -0.601380 1.193060 1.177080
v -0.601380 1.193060 1.351520
v -0.601380 1.193060 1.525960
v -0.601380 1.193060 1.700390
v -0.601380 1.193060 1.874830
v -0.601380 1.193060 2.049270
v -0.601380 1.193060 2.223700
v -0.601380 1.193060 2.398140
v -0.601380 1.193060 2.572580
v -0.601380 1.193060 2.747010
v -0.601380 1.193060 2.921450
v -0.601380 1.193060 3.095890
v -0.601380 1.193060 3.270320
v -0.529380 -1.156710 1.155810
v -0.529380 -1.156710 3.291600
v -0.529380 1.143780 1.155810
v -0.529380 1.143780 3.291600
v -0.510350 -1.224820 1.092570
v -0.510350 -1.224820 1.281090
v -0.510350 -1.224820 1.469620
v -0.510350 -1.224820 1.658140
v -0.510350 -1.224820 1.846660
v -0.510350 -1.224820 2.035180
v -0.510350 -1.224820 2.223700
v -0.510350 -1.224820 2.412230
v -0.510350 -1.224820 2.600750
v -0.510350 -1.224820 2.789270
v -0.510350 -1.224820 2.977790
v -0.510350 -1.224820 3.166310
v -0.510350 -1.224820 3.354830
v -0.510350 -1.156710 1.155810
v -0.510350 -1.156710 1.333790
v -0.510350 -1.156710 1.511770
v -0.510350 -1.156710 1.689760
v -0.510350 -1.156710 1.867740
v -0.510350 -1.156710 2.045720
v -0.510350 -1.156710 2.223700
v -0.510350 -1.156710 2.401680
v -0.510350 -1.156710 2.579670
v -0.510350 -1.156710 2.757650
v -0.510350 -1.156710 2.935630
v -0.510350 -1.156710 3.113610
v -0.510350 -1.156710 3.291600
v -0.510350 -1.050770 1.092570
v -0.510350 -1.050770 3.354830
v -0.510350 -0.992390 1.155810
v -0.510350 -0.992390 3.291600
v -0.510350 -0.876720 1.092570
v -0.510350 -0.876720 3.354830
v -0.510350 -0.828070 1.155810
v -0.510350 -0.828070 3.291600
v -0.510350 -0.702670 1.092570
v -0.510350 -0.702670 3.354830
v -0.510350 -0.663750 1.155810
v -0.510350 -0.663750 3.291600
v -0.510350 -0.528620 1.092570
v -0.510350 -0.528620 3.354830
v -0.510350 -0.499430 1.155810
v -0.510350 -0.499430 3.291600
v -0.510350 -0.354570 1.092570
v -0.510350 -0.354570 3.354830
v -0.510350 -0.335110 1.155810
v -0.510350 -0.335110 3.291600
v -0.510350 -0.180510 1.092570
v -0.510350 -0.180510 3.354830
v -0.510350 -0.170780 1.155810
v -0.510350 -0.170780 3.291600
v -0.510350 -0.006460 1.092570
v -0.510350 -0.006460 1.155810
v -0.510350 -0.006460 3.291600
v -0.510350 -0.006460 3.354830
v -0.510350 0.157860 1.155810
v -0.510350 0.157860 3.291600
v -0.510350 0.167590 1.092570
v -0.510350 0.167590 3.354830
v -0.510350 0.322180 1.155810
v -0.510350 0.322180 3.291600
v -0.510350 0.341640 1.092570
v -0.510350 0.341640 3.354830
v -0.510350 0.486500 1.155810
v -0.510350 0.486500 3.291600
v -0.510350 0.515690 1.092570
v -0.510350 0.515690 3.354830
v -0.510350 0.650820 1.155810
v -0.510350 0.650820 3.291600
v -0.510350 0.689740 1.092570
v -0.510350 0.689740 3.354830
v -0.510350 0.815140 1.155810
v -0.510350 0.815140 3.291600
v -0.510350 0.863800 1.092570
v -0.510350 0.863800 3.354830
v -0.510350 0.979460 1.155810
v -0.510350 0.979460 3.291600
v -0.510350 1.037850 1.092570
v -0.510350 1.037850 3.354830
v -0.510350 1.143780 1.155810
v -0.510350 1.143780 1.333790
v -0.510350 1.143780 1.511770
v -0.510350 1.143780 1.689760
v -0.510350 1.143780 1.867740
v -0.510350 1.143780 2.045720
v -0.510350 1.143780 2.223700
v -0.510350 1.143780 2.401680
v -0.510350 1.143780 2.579670
v -0.510350 1.143780 2.757650
v -0.510350 1.143780 2.935630
v -0.510350 1.143780 3.113610
v -0.510350 1.143780 3.291600
v -0.510350 1.211900 1.092570
v -0.510350 1.211900 1.281090
v -0.510350 1.211900 1.469610
v -0.510350 1.211900 1.658140
v -0.510350 1.211900 1.846660
v -0.510350 1.211900 2.035180
v -0.510350 1.211900 2.223700
v -0.510350 1.211900 2.412230
v -0.510350 1.211900 2.600750
v -0.510350 1.211900 2.789270
v -0.510350 1.211900 2.977790
v -0.510350 1.211900 3.166310
v -0.510350 1.211900 3.354830
l 664 720
l 707 720
l 662 707
l 76 91
l 91 156
l 143 156
l 680 681
l 681 694
l 693 694
l 667 816
l 801 816
l 666 737
l 737 752
l 189 265
l 1 261
l 669 670
l 725 726
l 658 681
l 200 201
l 12 13
l 228 229
l 92 93
l 663 708
l 240 272
l 104 264
l 719 720
l 827 828
l 239 240
l 227 240
l 226 227
l 201 266
l 201 214
l 214 268
l 657 669
l 669 682
l 659 682
l 708 709
l 695 708
l 695 696
l 228 271
l 215 228
l 215 269
l 189 190
l 189 202
l 202 203
l 14 15
l 1 2
l 75 79
l 77 92
l 26 30
l 13 28
l 90 91
l 103 104
l 25 26
l 26 117
l 116 117
l 79 80
l 79 144
l 144 145
l 14 29
l 14 105
l 105 118
l 749 750
l 736 737
l 803 804
l 816 817
l 738 753
l 725 751
l 800 815
l 802 828
l 723 724
l 722 724
l 721 722
l 721 723
l 661 695
l 651 663
l 649 661
l 639 651
l 637 649
l 627 639
l 625 637
l 615 627
l 613 625
l 603 615
l 601 613
l 591 603
l 589 601
l 579 591
l 577 589
l 567 579
l 565 577
l 555 567
l 553 565
l 543 555
l 541 553
l 531 543
l 529 541
l 519 531
l 517 529
l 507 519
l 505 517
l 495 507
l 493 505
l 483 495
l 481 493
l 471 483
l 469 481
l 463 471
l 461 469
l 451 463
l 449 461
l 439 451
l 437 449
l 424 439
l 423 437
l 415 424
l 413 423
l 403 415
l 401 413
l 391 403
l 389 401
l 379 391
l 377 389
l 367 379
l 365 377
l 355 367
l 353 365
l 343 355
l 341 353
l 331 343
l 329 341
l 319 331
l 317 329
l 304 319
l 303 317
l 295 304
l 293 303
l 283 295
l 281 293
l 271 283
l 269 281
l 202 267
l 265 277
l 267 279
l 277 289
l 279 291
l 289 305
l 291 306
l 305 313
l 306 315
l 313 325
l 315 327
l 325 337
l 327 339
l 337 349
l 339 351
l 349 361
l 351 363
l 361 373
l 363 375
l 373 385
l 375 387
l 385 397
l 387 399
l 397 409
l 399 411
l 409 425
l 411 426
l 425 433
l 426 435
l 433 445
l 435 447
l 445 457
l 447 459
l 457 465
l 459 467
l 465 477
l 467 479
l 477 489
l 479 491
l 489 501
l 491 503
l 501 513
l 503 515
l 513 525
l 515 527
l 525 537
l 527 539
l 537 549
l 539 551
l 549 561
l 551 563
l 561 573
l 563 575
l 573 585
l 575 587
l 585 597
l 587 599
l 597 609
l 599 611
l 609 621
l 611 623
l 621 633
l 623 635
l 633 645
l 635 647
l 645 657
l 647 659
l 660 694
l 646 658
l 648 660
l 634 646
l 636 648
l 622 634
l 624 636
l 610 622
l 612 624
l 598 610
l 600 612
l 586 598
l 588 600
l 574 586
l 576 588
l 562 574
l 564 576
l 550 562
l 552 564
l 538 550
l 540 552
l 526 538
l 528 540
l 514 526
l 516 528
l 502 514
l 504 516
l 490 502
l 492 504
l 478 490
l 480 492
l 466 478
l 468 480
l 458 466
l 460 468
l 446 458
l 448 460
l 434 446
l 436 448
l 421 434
l 422 436
l 410 421
l 412 422
l 398 410
l 400 412
l 386 398
l 388 400
l 374 386
l 376 388
l 362 374
l 364 376
l 350 362
l 352 364
l 338 350
l 340 352
l 326 338
l 328 340
l 314 326
l 316 328
l 301 314
l 302 316
l 290 301
l 292 302
l 278 290
l 280 292
l 266 278
l 268 280
l 668 828
l 652 664
l 656 668
l 640 652
l 642 656
l 628 640
l 632 642
l 616 628
l 620 632
l 604 616
l 608 620
l 592 604
l 596 608
l 580 592
l 584 596
l 568 580
l 572 584
l 556 568
l 560 572
l 544 556
l 548 560
l 532 544
l 536 548
l 520 532
l 524 536
l 508 520
l 512 524
l 496 508
l 500 512
l 484 496
l 488 500
l 472 484
l 474 488
l 464 472
l 456 474
l 452 464
l 444 456
l 440 452
l 432 444
l 428 440
l 420 432
l 416 428
l 408 420
l 404 416
l 396 408
l 392 404
l 384 396
l 380 392
l 372 384
l 368 380
l 360 372
l 356 368
l 348 360
l 344 356
l 336 348
l 332 344
l 324 336
l 320 332
l 312 324
l 308 320
l 300 312
l 296 308
l 288 300
l 284 296
l 276 288
l 272 284
l 264 276
l 92 263
l 263 275
l 275 287
l 287 299
l 299 311
l 311 323
l 323 335
l 335 347
l 347 359
l 359 371
l 371 383
l 383 395
l 395 407
l 407 419
l 419 431
l 431 443
l 443 455
l 455 476
l 476 487
l 487 499
l 499 511
l 511 523
l 523 535
l 535 547
l 547 559
l 559 571
l 571 583
l 583 595
l 595 607
l 607 619
l 619 631
l 631 644
l 644 655
l 655 667
l 13 262
l 262 274
l 274 286
l 286 298
l 298 310
l 310 322
l 322 334
l 334 346
l 346 358
l 358 370
l 370 382
l 382 394
l 394 406
l 406 418
l 418 430
l 430 442
l 442 454
l 454 475
l 475 486
l 486 498
l 498 510
l 510 522
l 522 534
l 534 546
l 546 558
l 558 570
l 570 582
l 582 594
l 594 606
l 606 618
l 618 630
l 630 643
l 643 654
l 654 666
l 665 725
l 653 665
l 641 653
l 629 641
l 617 629
l 605 617
l 593 605
l 581 593
l 569 581
l 557 569
l 545 557
l 533 545
l 521 533
l 509 521
l 497 509
l 485 497
l 473 485
l 453 473
l 441 453
l 429 441
l 417 429
l 405 417
l 393 405
l 381 393
l 369 381
l 357 369
l 345 357
l 333 345
l 321 333
l 309 321
l 297 309
l 285 297
l 273 285
l 261 273
l 227 270
l 270 282
l 282 294
l 294 307
l 307 318
l 318 330
l 330 342
l 342 354
l 354 366
l 366 378
l 378 390
l 390 402
l 402 414
l 414 427
l 427 438
l 438 450
l 450 462
l 462 470
l 470 482
l 482 494
l 494 506
l 506 518
l 518 530
l 530 542
l 542 554
l 554 566
l 566 578
l 578 590
l 590 602
l 602 614
l 614 626
l 626 638
l 638 650
l 650 662
l 814 815
l 813 814
l 826 827
l 812 813
l 825 826
l 811 812
l 824 825
l 810 811
l 823 824
l 809 810
l 822 823
l 808 809
l 821 822
l 807 808
l 820 821
l 806 807
l 819 820
l 805 806
l 818 819
l 804 805
l 817 818
l 738 739
l 739 740
l 726 727
l 740 741
l 727 728
l 741 742
l 728 729
l 742 743
l 729 730
l 743 744
l 730 731
l 744 745
l 731 732
l 745 746
l 732 733
l 746 747
l 733 734
l 747 748
l 734 735
l 748 749
l 735 736
l 155 156
l 89 90
l 154 155
l 88 89
l 153 154
l 87 88
l 152 153
l 86 87
l 151 152
l 85 86
l 150 151
l 84 85
l 149 150
l 83 84
l 148 149
l 82 83
l 147 148
l 81 82
l 146 147
l 80 81
l 145 146
l 105 106
l 15 16
l 106 107
l 16 17
l 107 108
l 17 18
l 108 109
l 18 19
l 109 110
l 19 20
l 110 111
l 20 21
l 111 112
l 21 22
l 112 113
l 22 23
l 113 114
l 23 24
l 114 115
l 24 25
l 115 116
l 93 94
l 94 95
l 95 96
l 96 97
l 97 98
l 98 99
l 99 100
l 100 101
l 101 102
l 102 103
l 11 12
l 10 11
l 9 10
l 8 9
l 7 8
l 6 7
l 5 6
l 4 5
l 3 4
l 2 3
l 213 214
l 199 200
l 212 213
l 198 199
l 211 212
l 197 198
l 210 211
l 196 197
l 209 210
l 195 196
l 208 209
l 194 195
l 207 208
l 193 194
l 206 207
l 192 193
l 205 206
l 191 192
l 204 205
l 190 191
l 203 204
l 706 707
l 718 719
l 705 706
l 717 718
l 704 705
l 716 717
l 703 704
l 715 716
l 702 703
l 714 715
l 701 702
l 713 714
l 700 701
l 712 713
l 699 700
l 711 712
l 698 699
l 710 711
l 697 698
l 709 710
l 696 697
l 215 216
l 229 230
l 216 217
l 230 231
l 217 218
l 231 232
l 218 219
l 232 233
l 219 220
l 233 234
l 220 221
l 234 235
l 221 222
l 235 236
l 222 223
l 236 237
l 223 224
l 237 238
l 224 225
l 238 239
l 225 226
l 679 680
l 678 679
l 677 678
l 676 677
l 675 676
l 674 675
l 673 674
l 672 673
l 671 672
l 670 671
l 682 683
l 683 684
l 684 685
l 685 686
l 686 687
l 687 688
l 688 689
l 689 690
l 690 691
l 691 692
l 692 693
l 1 27
l 27 31
l 31 35
l 35 39
l 39 43
l 43 47
l 47 51
l 51 57
l 57 61
l 61 65
l 65 69
l 69 73
l 73 77
l 78 104
l 74 78
l 70 74
l 66 70
l 62 66
l 58 62
l 54 58
l 48 54
l 44 48
l 40 44
l 36 40
l 32 36
l 28 32
l 750 754
l 754 758
l 752 756
l 758 762
l 756 760
l 762 766
l 760 764
l 766 770
l 764 768
l 770 774
l 768 772
l 774 777
l 772 778
l 777 780
l 778 782
l 780 784
l 782 786
l 784 788
l 786 790
l 788 792
l 790 794
l 792 796
l 794 798
l 796 800
l 798 802
l 799 803
l 795 799
l 797 801
l 791 795
l 793 797
l 787 791
l 789 793
l 783 787
l 785 789
l 779 783
l 781 785
l 776 779
l 775 781
l 773 776
l 771 775
l 769 773
l 767 771
l 765 769
l 763 767
l 761 765
l 759 763
l 757 761
l 755 759
l 753 757
l 751 755
l 142 144
l 71 75
l 140 142
l 67 71
l 138 140
l 63 67
l 136 138
l 59 63
l 134 136
l 55 59
l 132 134
l 52 55
l 130 132
l 49 52
l 128 130
l 45 49
l 126 128
l 41 45
l 124 126
l 37 41
l 122 124
l 33 37
l 120 122
l 29 33
l 118 120
l 72 76
l 68 72
l 64 68
l 60 64
l 56 60
l 53 56
l 50 53
l 46 50
l 42 46
l 38 42
l 34 38
l 30 34
l 117 119
l 119 121
l 121 123
l 123 125
l 125 127
l 127 129
l 129 131
l 131 133
l 133 135
l 135 137
l 137 139
l 139 141
l 141 143
l 242 244
l 241 242
l 241 243
l 171 249
l 171 172
l 172 250
l 249 250
l 167 171
l 247 249
l 162 242
l 161 162
l 161 241
l 162 164
l 168 172
l 170 172
l 161 163
l 165 167
l 163 165
l 164 166
l 166 168
l 246 248
l 244 246
l 243 245
l 245 247
l 248 250
l 169 171
l 169 170
l 257 259
l 259 260
l 258 260
l 251 252
l 174 252
l 173 174
l 173 251
l 251 253
l 173 177
l 183 259
l 183 184
l 184 260
l 182 184
l 174 176
l 174 178
l 181 183
l 177 179
l 179 181
l 180 182
l 254 256
l 178 180
l 256 258
l 255 257
l 253 255
l 252 254
l 173 175
l 175 176
l 159 160
l 160 188
l 187 188
l 159 187
l 186 188
l 185 186
l 185 187
l 158 186
l 157 158
l 157 185
l 157 159
l 158 160
