# daf_trailer_wheel_1r.obj - ISO 8855 (x ileri, y sol, z yukari), metre
mtllib daf.mtl
o daf_trailer_wheel_1r
v -0.05249 0.19984 -0.47051
v 0.21332 0.20108 -0.42666
v -0.41748 0.20225 0.19509
v 0.45104 0.20075 0.14709
v 0.11752 0.20046 0.45995
v 0.36841 0.19692 -0.31522
v -0.46620 0.20048 0.07057
v -0.43138 0.19809 0.21070
v -0.29873 0.20030 0.36412
v -0.46035 0.20063 -0.12030
v 0.45941 0.19520 -0.20080
v 0.36435 0.19569 0.08465
v 0.24454 0.19724 0.41160
v 0.07828 0.19548 -0.48323
v 0.25268 0.19615 -0.41085
v 0.42289 0.19987 -0.22511
v -0.24433 0.20259 -0.39974
v 0.31831 0.19825 0.35808
v -0.28802 0.19787 -0.39528
v 0.49244 0.18791 -0.10344
v -0.47392 0.18949 0.17319
v -0.38350 0.19450 0.31000
v -0.37040 0.18219 0.36280
v -0.17863 0.19397 -0.45996
v -0.29197 0.18482 -0.42113
v -0.44092 0.19386 -0.22832
v -0.50962 0.18657 0.06405
v -0.49289 0.18427 -0.16758
v 0.47909 0.19210 0.14181
v -0.39908 0.19427 0.29014
v -0.38250 0.19350 0.30900
v -0.36550 0.19350 0.32900
v -0.34650 0.19350 0.34700
v -0.34750 0.19350 0.34800
v -0.32819 0.19350 0.36513
v -0.33097 0.19396 0.36585
v -0.29665 0.19329 0.39284
v -0.18683 0.19788 0.44282
v 0.00360 0.19904 0.47760
v -0.19179 0.18835 0.46732
v -0.00915 0.19628 -0.38696
v -0.34209 0.19172 -0.12500
v 0.36361 0.19270 -0.05042
v 0.09222 0.19440 0.35074
v 0.11408 0.19065 0.48858
v -0.16098 0.18759 -0.31709
v 0.16077 0.19176 -0.33241
v -0.31227 0.19341 0.19510
v 0.27255 0.19342 0.23954
v -0.11359 0.19777 0.35282
v -0.03657 0.17880 0.52409
v -0.05400 0.19503 -0.48916
v -0.17881 0.18029 -0.49148
v 0.24745 0.18051 -0.46262
v 0.28582 0.18146 -0.42958
v -0.46463 0.18079 -0.23989
v 0.38545 0.17867 -0.35903
v 0.50927 0.18084 -0.12254
v 0.35543 0.18530 0.37485
v 0.11813 0.17612 0.51558
v -0.12881 0.17105 0.51473
v -0.41544 0.16978 -0.33979
v 0.39594 0.16742 0.36620
v 0.29824 0.18202 0.42889
v -0.13627 0.18038 0.50838
v 0.03119 0.17448 -0.53074
v 0.01283 0.17619 -0.34045
v 0.22860 0.17636 -0.24909
v -0.23117 0.17643 -0.25134
v -0.52281 0.16668 -0.15670
v 0.32963 0.17648 -0.07001
v 0.52025 0.18193 0.03782
v 0.51112 0.18175 0.07383
v -0.48855 0.17282 0.21447
v 0.51816 0.16970 0.12993
v -0.18878 0.17624 0.28771
v -0.45111 0.16714 0.30430
v -0.30666 0.16943 -0.43731
v 0.13350 0.17550 -0.30000
v -0.02569 0.17550 -0.31938
v 0.19250 0.17550 -0.26600
v 0.27200 0.17550 -0.17925
v -0.23000 0.17550 -0.22425
v 0.31663 0.17550 0.03987
v -0.32375 0.17550 -0.03813
v 0.28450 0.17550 0.16400
v -0.30463 0.17550 0.11250
v 0.15375 0.17550 0.28350
v -0.21900 0.17550 0.24300
v -0.07047 0.17550 0.31231
v -0.28648 0.17174 0.45136
v 0.24705 0.17038 0.47211
v -0.03456 0.16737 -0.53143
v -0.11557 0.16635 -0.53871
v 0.47554 0.16769 -0.24761
v 0.46075 0.18155 -0.23781
v 0.52300 0.16670 -0.15776
v -0.52255 0.16752 0.10912
v 0.45127 0.17380 0.27950
v -0.09203 0.17451 -0.52235
v 0.28505 0.16725 -0.46060
v -0.07893 0.16679 0.52569
v 0.19165 0.16851 -0.49731
v -0.53127 0.17009 -0.06170
v 0.05059 0.16602 -0.55087
v 0.18693 0.16600 -0.51874
v 0.10323 0.16893 -0.52469
v -0.24894 0.16615 -0.49224
v 0.41862 0.16710 -0.35413
v -0.34090 0.16594 -0.43341
v 0.46799 0.16625 -0.29065
v -0.45720 0.16622 -0.29937
v 0.55119 0.16624 -0.01796
v -0.54880 0.16599 -0.06713
v -0.54782 0.16614 0.06842
v 0.53666 0.16594 0.12307
v -0.52950 0.16793 0.06171
v -0.51435 0.16584 0.20171
v 0.50203 0.16616 0.22972
v 0.32553 0.16582 0.44579
v 0.20504 0.16669 0.49184
v 0.06708 0.16741 0.53481
v -0.00075 0.16589 0.55154
v -0.11000 0.16587 0.54291
v -0.08450 0.16553 -0.54526
v 0.50673 0.13684 -0.23619
v 0.44393 0.16541 0.32695
v -0.32662 0.16463 0.44467
v 0.22084 0.16609 0.50572
v 0.34650 0.16250 -0.42800
v 0.36950 0.16250 -0.41000
v 0.38950 0.16250 -0.39000
v -0.14759 0.13180 0.53630
v 0.26342 0.16105 -0.48537
v -0.32459 0.13204 -0.44850
v 0.32450 0.16150 -0.44700
v 0.36848 0.15884 -0.41057
v 0.35980 0.13214 -0.43599
v -0.39612 0.13257 -0.37741
v 0.54883 0.16258 0.05511
v 0.54451 0.16248 0.08580
v 0.54357 0.13204 0.04639
v 0.51425 0.13474 0.21266
v -0.32918 0.16593 0.45393
v 0.11966 0.16060 0.54137
v 0.13266 0.13308 -0.52905
v -0.09319 0.13196 -0.54140
v 0.38530 0.13150 -0.38720
v 0.54621 0.13174 -0.08613
v -0.50394 0.13196 -0.21248
v -0.54252 0.13172 -0.10957
v -0.53469 0.13215 0.11990
v 0.47875 0.13174 0.26430
v 0.41177 0.13189 0.36240
v -0.48294 0.13202 0.26980
v 0.29062 0.13186 0.46143
v -0.28607 0.13223 0.46951
v 0.16408 0.13171 0.51708
v 0.01625 0.13174 0.54785
v 0.17406 0.12350 -0.53039
v -0.09481 0.12350 -0.55146
v 0.21862 0.12350 -0.47187
v 0.37644 0.12350 -0.35694
v -0.14291 0.12350 -0.48622
v -0.35094 0.12350 -0.43834
v 0.48834 0.12350 -0.14838
v -0.49973 0.12350 -0.24968
v 0.56032 0.12349 0.08844
v -0.47911 0.12350 -0.16513
v 0.51350 0.12350 0.08537
v -0.56102 0.12350 -0.02591
v 0.49738 0.12350 0.15513
v 0.38378 0.12350 0.34566
v -0.50361 0.12350 0.10300
v 0.37220 0.12350 0.41892
v -0.49855 0.12350 0.25190
v -0.39200 0.12350 0.33963
v 0.10863 0.12350 0.50606
v -0.23588 0.12350 0.45844
v 0.13201 0.12350 0.54377
v -0.06775 0.12350 0.51662
v -0.14220 0.12349 0.54076
v 0.31388 0.17626 0.12598
v -0.34561 0.17621 0.02343
v 0.12811 0.17625 0.32167
v -0.30135 0.12349 0.46881
v 0.45695 0.12349 -0.33521
v -0.31894 0.08439 0.45414
v -0.53000 0.08388 -0.16252
v 0.13475 0.08504 0.53801
v 0.05579 0.08398 0.55204
v -0.05138 0.08250 -0.51750
v 0.08188 0.08300 -0.51437
v -0.19838 0.08350 -0.48150
v -0.31375 0.08300 -0.41500
v 0.20025 0.08350 -0.48075
v -0.42600 0.08350 -0.29837
v 0.33062 0.08350 -0.40100
v -0.48863 0.08300 -0.18100
v 0.43825 0.08350 -0.27900
v -0.51925 0.08350 -0.03188
v 0.50325 0.08350 -0.12975
v -0.51375 0.08350 0.09050
v 0.54132 0.08417 0.12265
v 0.51862 0.08300 0.03137
v -0.49325 0.08350 0.17000
v 0.50075 0.08350 0.14300
v -0.43900 0.08350 0.27913
v 0.44762 0.08350 0.26412
v -0.33125 0.08350 0.40113
v 0.36700 0.08350 0.36950
v -0.21975 0.08350 0.47250
v 0.27063 0.08350 0.44500
v -0.07288 0.08350 0.51500
v 0.16950 0.08350 0.49350
v 0.07887 0.08400 0.51500
v 0.03543 0.08406 -0.55386
v -0.05288 0.08387 -0.55183
v 0.12325 0.08491 -0.54065
v -0.13835 0.08447 -0.53730
v 0.20353 0.08439 -0.51516
v -0.21924 0.08467 -0.50896
v 0.28254 0.08454 -0.47755
v -0.29606 0.08477 -0.46927
v 0.35224 0.08387 -0.42704
v -0.36550 0.08483 -0.41735
v 0.41654 0.08396 -0.36669
v -0.42717 0.08463 -0.35434
v 0.46814 0.08446 -0.29795
v -0.47742 0.08470 -0.28389
v 0.50825 0.08384 -0.22240
v -0.50698 0.08455 -0.22456
v 0.53744 0.08406 -0.14037
v 0.55260 0.08429 -0.05243
v -0.54924 0.08382 -0.07744
v 0.55215 0.08360 0.03298
v -0.55458 0.08421 0.01003
v -0.54770 0.08490 0.09363
v 0.51520 0.08475 0.20577
v -0.52616 0.08494 0.17740
v 0.47689 0.08463 0.28261
v -0.49021 0.08441 0.26028
v -0.44337 0.08445 0.33312
v 0.42749 0.08438 0.35334
v 0.36570 0.08463 0.41647
v -0.38615 0.08455 0.39846
v 0.29645 0.08462 0.46973
v -0.24483 0.08457 0.49736
v 0.22236 0.08406 0.50897
v -0.16613 0.08498 0.52902
v -0.01381 0.08448 0.55421
v -0.08021 0.08470 0.54891
v -0.00927 0.07206 -0.55420
v -0.06871 0.07247 -0.55009
v -0.21477 0.07240 -0.51114
v -0.27486 0.07201 -0.48228
v -0.44938 0.07243 -0.32370
v -0.49595 0.07252 -0.24950
v 0.43699 0.07241 0.34078
v 0.32904 0.07235 0.44650
v 0.27325 0.07238 0.48240
v 0.05000 0.07215 -0.55309
v 0.07888 0.07300 -0.51387
v -0.05237 0.07400 -0.51825
v 0.16075 0.07450 -0.49600
v 0.26812 0.07229 -0.48481
v 0.26175 0.07350 -0.45000
v -0.15275 0.07350 -0.49800
v -0.32842 0.07244 -0.44749
v -0.26387 0.07450 -0.44937
v 0.36663 0.07400 -0.36787
v 0.32531 0.07314 -0.44981
v -0.39600 0.07195 -0.38886
v 0.37510 0.07402 -0.40751
v -0.32400 0.07350 -0.40825
v 0.45863 0.07400 -0.24600
v -0.39775 0.07350 -0.33750
v 0.47095 0.07233 -0.29302
v 0.50300 0.07350 -0.13313
v -0.45975 0.07400 -0.24463
v -0.54070 0.07259 -0.12557
v 0.51950 0.07350 -0.04225
v -0.49913 0.07350 -0.14988
v 0.55282 0.07206 -0.04794
v 0.51312 0.07400 0.08319
v -0.55434 0.07345 0.04432
v -0.52000 0.07350 -0.02900
v -0.53907 0.07341 0.13030
v 0.48175 0.07450 0.19975
v -0.50587 0.07400 0.12250
v 0.42787 0.07350 0.29650
v -0.45937 0.07400 0.24637
v 0.36250 0.07300 0.37375
v -0.38850 0.07350 0.34700
v 0.28137 0.07400 0.43837
v 0.14275 0.07350 0.50112
v -0.27125 0.07400 0.44400
v -0.16150 0.07450 0.49600
v 0.04225 0.07350 0.52000
v 0.21502 0.07255 0.51106
v -0.07913 0.07300 0.51400
v -0.04611 0.07312 0.55282
v -0.13121 0.07266 -0.53931
v 0.51102 0.07246 -0.21453
v -0.55402 0.07347 -0.04361
v 0.53967 0.07204 0.12540
v 0.51340 0.07243 0.20918
v -0.47237 0.07244 0.29199
v -0.42132 0.07305 0.36101
v -0.37876 0.07274 0.40467
v 0.39607 0.07187 0.38832
v -0.32612 0.07266 0.45036
v -0.20986 0.07245 0.51300
v 0.13253 0.07232 0.53851
v 0.42091 0.07347 -0.36112
v 0.53896 0.07283 -0.12980
v -0.50514 0.03144 0.23038
v -0.26163 0.07041 0.49117
v -0.12763 0.07255 0.54019
v 0.12619 0.07226 -0.54129
v 0.55374 0.03165 -0.01899
v 0.55299 0.07234 0.04054
v 0.53848 0.03072 0.13070
v -0.51165 0.07208 0.21674
v 0.04573 0.07252 0.55316
v 0.49308 0.06819 -0.26330
v -0.52298 0.07177 -0.18747
v -0.53016 0.03243 0.16534
v 0.16556 0.03236 0.53086
v 0.02072 0.04617 -0.27741
v 0.18027 0.04609 -0.21129
v -0.14310 0.04608 -0.23874
v 0.27003 0.04440 -0.06068
v -0.26562 0.04509 -0.08923
v 0.26043 0.04611 0.09111
v 0.15720 0.04578 0.23172
v -0.24447 0.04562 0.14273
v -0.05296 0.04584 0.27536
v 0.02477 0.03155 -0.55398
v 0.20356 0.07092 -0.51821
v -0.10914 0.03081 -0.54529
v -0.16822 0.03168 -0.52801
v 0.49560 0.03174 -0.24797
v 0.55303 0.03089 0.04552
v -0.42460 0.03105 0.36136
v 0.41899 0.03160 0.36333
v 0.32432 0.03158 0.45035
v -0.06804 0.03135 0.55122
v -0.54760 0.03143 -0.08909
v 0.47987 0.07088 0.28356
v -0.29395 0.03184 0.47084
v -0.04215 0.03131 -0.55368
v -0.24938 0.03158 -0.49530
v -0.30649 0.03147 -0.46216
v 0.33048 0.03205 -0.44611
v 0.39580 0.03212 -0.38818
v -0.44791 0.03066 -0.32753
v 0.44916 0.03142 -0.32429
v 0.52888 0.03164 -0.16907
v -0.52664 0.03215 -0.17655
v -0.55506 0.03168 -0.00312
v -0.54734 0.03107 0.08681
v -0.47473 0.03167 0.28722
v -0.21531 0.03174 0.51064
v 0.08599 0.03120 0.54787
v -0.00925 0.03228 0.55403
v -0.06000 0.03050 -0.51850
v 0.03225 0.03075 -0.51938
v -0.17463 0.03000 -0.49012
v 0.16137 0.03000 -0.49413
v -0.29700 0.03050 -0.42788
v 0.27350 0.03100 -0.44213
v -0.38900 0.03000 -0.34625
v 0.35550 0.03050 -0.38200
v -0.44887 0.03050 -0.26450
v 0.42087 0.03000 -0.30488
v -0.49906 0.03100 -0.15088
v 0.48537 0.03050 -0.18838
v -0.51775 0.03000 -0.06200
v -0.51850 0.03000 0.05038
v 0.51825 0.03000 -0.03988
v -0.49275 0.03050 0.16950
v 0.51038 0.03050 0.10337
v 0.51085 0.03112 0.21492
v -0.44575 0.03050 0.27100
v 0.47183 0.03102 0.29233
v 0.46212 0.03050 0.23762
v -0.36850 0.03000 0.36700
v 0.38075 0.03100 0.35538
v -0.27400 0.03050 0.44400
v -0.17225 0.03050 0.49163
v 0.27950 0.03000 0.43900
v -0.07337 0.03050 0.51575
v 0.16963 0.03000 0.49225
v 0.07538 0.03000 0.51588
v 0.09112 0.03188 -0.54614
v 0.17155 0.03108 -0.52751
v 0.25287 0.03136 -0.49309
v -0.35849 0.03156 -0.42277
v -0.40539 0.03165 -0.37818
v -0.49393 0.03046 -0.25191
v 0.54820 0.03162 -0.08360
v 0.37377 0.03165 0.40917
v -0.36202 0.03147 0.42037
v 0.25089 0.03119 0.49479
v -0.13100 0.03139 0.53915
v -0.28382 0.01850 -0.47781
v -0.38711 0.01824 -0.39684
v -0.49082 0.01824 -0.25816
v 0.52944 0.01831 -0.16353
v -0.55433 0.01819 -0.00663
v 0.54623 0.01797 0.09314
v 0.52561 0.01795 0.17666
v -0.13818 0.01843 0.53784
v 0.03554 0.01832 0.55275
v -0.11347 0.02101 -0.54240
v 0.09445 0.01834 -0.54698
v 0.05762 0.02000 -0.51694
v 0.17875 0.01950 -0.48887
v -0.07363 0.01900 -0.51488
v -0.19075 0.02050 -0.48600
v 0.30525 0.02000 -0.42175
v -0.27362 0.01950 -0.44325
v 0.40837 0.02000 -0.32312
v 0.40787 0.01926 -0.37592
v -0.38950 0.02000 -0.34475
v 0.46875 0.02050 -0.22750
v -0.52753 0.01718 -0.17529
v 0.50738 0.02000 -0.11200
v -0.46475 0.02000 -0.23563
v -0.49350 0.01950 -0.16950
v -0.54773 0.01846 -0.09428
v -0.51375 0.01950 -0.09025
v 0.52100 0.01850 0.00775
v 0.55436 0.01864 0.00928
v 0.50650 0.01950 0.12050
v -0.54076 0.01834 0.12481
v -0.51938 0.02000 0.03137
v 0.47800 0.01950 0.20800
v -0.51560 0.01838 0.20519
v -0.49875 0.01950 0.15300
v 0.43387 0.01900 0.28763
v -0.47879 0.01867 0.28132
v -0.46900 0.01950 0.22900
v 0.34575 0.01975 0.38812
v -0.42721 0.01838 0.35440
v -0.42075 0.01950 0.30725
v 0.40031 0.01946 0.38290
v 0.35305 0.01912 0.42802
v 0.25100 0.01950 0.45638
v -0.32225 0.02000 0.40987
v 0.12275 0.01950 0.50625
v 0.28242 0.01834 0.47725
v -0.20481 0.01925 0.47831
v 0.03025 0.02050 0.52075
v -0.07025 0.01950 0.51662
v 0.12350 0.01806 0.54079
v 0.02973 0.01841 -0.55313
v -0.19806 0.01929 -0.51901
v -0.44328 0.01857 -0.33340
v 0.45291 0.01837 -0.31927
v 0.54835 0.01844 -0.07873
v -0.55209 0.01895 0.05605
v 0.48973 0.01876 0.26183
v 0.44388 0.01830 0.33229
v -0.36604 0.01827 0.41724
v -0.29575 0.01807 0.46973
v 0.05635 -0.01919 -0.55176
v 0.22603 0.02063 -0.50596
v 0.29614 0.01840 -0.46924
v 0.49690 0.01821 -0.24543
v -0.21994 0.01845 0.50949
v 0.20390 0.01848 0.51555
v -0.05427 0.01881 0.55296
v -0.11575 -0.00050 -0.18825
v 0.02575 -0.00050 -0.21775
v -0.22050 -0.00050 -0.01500
v 0.17900 -0.00050 -0.10975
v -0.17625 -0.00050 0.12800
v -0.03550 -0.00050 0.22200
v 0.16800 -0.00050 0.12775
v 0.16065 0.01795 -0.53149
v 0.36261 0.01811 -0.41967
v -0.34484 0.01652 -0.43695
v 0.49994 -0.01852 -0.23959
v -0.14519 -0.01808 0.53564
v 0.01581 -0.01546 0.55677
v -0.03875 0.01791 -0.55362
v -0.16275 -0.01930 -0.53075
v 0.22773 -0.01803 -0.50557
v -0.28040 -0.01905 -0.47849
v 0.45682 -0.01828 -0.31468
v -0.50726 -0.01829 -0.22534
v -0.55391 -0.01938 0.03183
v 0.54862 -0.01844 0.07935
v -0.30392 -0.01795 0.46537
v -0.22550 -0.01834 0.50631
v 0.35007 -0.01872 0.43012
v -0.09468 -0.01840 -0.54614
v 0.14243 -0.01846 -0.53528
v 0.30076 -0.01853 -0.46628
v -0.35053 -0.01866 -0.42915
v 0.40204 -0.01826 -0.38170
v -0.53529 -0.01818 -0.14471
v -0.55299 -0.01924 -0.05564
v -0.54282 -0.01857 0.11673
v -0.51729 -0.01847 0.19997
v 0.48057 -0.01953 0.27631
v -0.48003 -0.01845 0.27767
v 0.41320 -0.01862 0.36958
v -0.43089 -0.01833 0.35106
v -0.37017 -0.01864 0.41346
v -0.05816 -0.01823 0.55089
v -0.06000 -0.01950 -0.51737
v -0.17037 -0.02000 -0.49275
v -0.27162 -0.02000 -0.44462
v 0.17238 -0.01900 -0.49038
v 0.35368 -0.01836 -0.42625
v -0.36050 -0.01950 -0.37725
v 0.29050 -0.01950 -0.43200
v -0.43325 -0.02050 -0.28950
v 0.39000 -0.02000 -0.34525
v -0.46527 -0.01764 -0.30514
v -0.49100 -0.01950 -0.17200
v 0.45450 -0.02000 -0.25338
v 0.54922 -0.01960 -0.07689
v 0.49288 -0.01900 -0.16850
v -0.51937 -0.01950 -0.04250
v 0.55482 -0.01838 0.01354
v 0.51725 -0.02000 -0.06013
v -0.50863 -0.01950 0.10987
v 0.51825 -0.01950 0.05300
v -0.46288 -0.02000 0.24025
v 0.49488 -0.02000 0.16187
v 0.50845 -0.01952 0.22126
v -0.38400 -0.01950 0.35238
v 0.45079 -0.01751 0.32768
v 0.43663 -0.01950 0.28200
v -0.28212 -0.01950 0.43712
v 0.33275 -0.02000 0.39950
v -0.17425 -0.01850 0.49175
v 0.19725 -0.01950 0.48200
v -0.06275 -0.02000 0.51712
v 0.06838 -0.01900 0.51550
v -0.02860 -0.01856 -0.55379
v 0.05250 -0.01950 -0.51875
v -0.21958 -0.01842 -0.50965
v -0.41196 -0.01830 -0.37052
v 0.53022 -0.01997 -0.16185
v 0.53682 -0.01874 0.14144
v 0.27983 -0.01896 0.47883
v 0.19918 -0.01839 0.51810
v 0.11831 -0.01894 0.54221
v -0.06815 -0.03057 -0.55052
v 0.51897 -0.03069 -0.19422
v 0.50262 -0.02938 0.23330
v 0.38288 -0.03180 0.40385
v 0.30879 -0.03041 0.46045
v 0.02396 -0.03066 0.55537
v 0.07125 -0.02850 -0.51650
v -0.01175 -0.02950 -0.52050
v 0.12050 -0.02950 -0.50750
v 0.17900 -0.02950 -0.48950
v -0.10300 -0.02950 -0.51125
v 0.25375 -0.02950 -0.45550
v -0.18200 -0.02950 -0.48900
v 0.33700 -0.02950 -0.39688
v -0.27287 -0.02900 -0.44413
v -0.32550 -0.03050 -0.40800
v 0.41400 -0.02950 -0.31537
v -0.38425 -0.02950 -0.35300
v -0.43375 -0.02850 -0.28975
v 0.47225 -0.03050 -0.22050
v -0.46550 -0.02950 -0.23550
v 0.49175 -0.02900 -0.17087
v -0.48975 -0.02850 -0.18050
v 0.51100 -0.02950 -0.10250
v 0.51775 -0.02850 -0.06100
v -0.51175 -0.02850 -0.10175
v -0.51950 -0.02950 -0.05000
v 0.51975 -0.02950 0.02963
v -0.52050 -0.03150 -0.03700
v -0.55109 -0.02998 0.06697
v 0.55335 -0.03083 0.03938
v -0.52150 -0.02950 0.02200
v 0.50200 -0.02950 0.14050
v -0.51600 -0.02950 0.08300
v -0.53871 -0.03065 0.13245
v 0.47450 -0.03050 0.21625
v -0.50200 -0.02950 0.14300
v 0.52765 -0.02980 0.16977
v 0.44550 -0.02950 0.27150
v -0.45962 -0.02900 0.24612
v 0.40950 -0.02850 0.32300
v 0.35450 -0.02950 0.38200
v -0.38888 -0.02950 0.34700
v 0.29050 -0.02950 0.43300
v -0.32225 -0.02950 0.41050
v 0.22025 -0.03050 0.47275
v -0.25525 -0.02850 0.45525
v 0.18025 -0.02850 0.48950
v -0.19875 -0.02950 0.48225
v 0.10275 -0.02950 0.51150
v 0.04200 -0.02950 0.52050
v 0.00100 -0.02950 0.52200
v -0.09138 -0.02900 0.51263
v -0.06593 -0.03019 0.55077
v 0.01968 -0.03036 -0.55373
v 0.10831 -0.03001 -0.54314
v -0.15220 -0.03032 -0.53413
v -0.23381 -0.03038 -0.50335
v 0.24838 -0.03106 -0.49665
v 0.30498 -0.03075 -0.46247
v -0.34427 -0.03024 -0.43506
v 0.40584 -0.03045 -0.37778
v -0.40889 -0.03058 -0.37483
v -0.46292 -0.03064 -0.30455
v -0.49534 -0.03024 -0.25099
v -0.52006 -0.03017 -0.19172
v -0.54582 -0.02926 -0.11180
v 0.55305 -0.03119 -0.02736
v -0.51984 -0.03057 0.19358
v 0.43715 -0.03075 0.34138
v -0.45894 -0.03085 0.31130
v -0.42034 -0.03062 0.36224
v -0.37509 -0.03059 0.40902
v -0.32413 -0.03066 0.44995
v 0.19533 -0.03088 0.51933
v 0.10836 -0.03030 0.54391
v 0.18514 -0.03155 -0.52404
v 0.35765 -0.03064 -0.42302
v 0.48285 -0.03047 -0.27336
v 0.54255 -0.03105 -0.11291
v 0.54515 -0.03044 0.10724
v -0.49323 -0.03056 0.25381
v -0.26977 -0.03039 0.48499
v 0.25367 -0.03052 0.49266
v -0.21423 -0.02980 0.51356
v -0.55599 -0.03169 -0.01337
v -0.09183 -0.05782 -0.54911
v -0.29912 -0.03225 -0.46983
v -0.42886 -0.07073 -0.35473
v 0.54642 -0.07153 -0.10356
v 0.48451 -0.03427 0.27538
v -0.27984 -0.07146 0.48322
v 0.27803 -0.07461 0.48178
v -0.14616 -0.03109 0.53630
v 0.44322 -0.03268 -0.33621
v -0.41146 -0.07189 0.37297
v 0.14089 -0.07158 0.53655
v -0.02361 -0.07259 0.55476
v -0.05700 -0.07050 -0.51800
v 0.06550 -0.07050 -0.51750
v -0.21450 -0.07050 -0.47550
v 0.18325 -0.07150 -0.48800
v -0.40800 -0.07150 -0.32500
v -0.45900 -0.07300 -0.24662
v 0.45700 -0.07050 -0.25100
v -0.50100 -0.07050 -0.14600
v 0.51200 -0.07050 -0.09700
v -0.52150 -0.07450 0.02150
v 0.52050 -0.07050 0.02550
v -0.51250 -0.07050 0.09700
v 0.51150 -0.07450 0.10100
v -0.43400 -0.07450 0.29100
v -0.38250 -0.07450 0.35500
v 0.37950 -0.07050 0.35750
v -0.32450 -0.07250 0.40900
v 0.28550 -0.07050 0.43600
v -0.18000 -0.07450 0.49000
v 0.17850 -0.07250 0.49000
v -0.10275 -0.07350 0.51175
v 0.10250 -0.07450 0.51200
v 0.00115 -0.07273 -0.55379
v -0.06506 -0.07309 -0.55064
v 0.06592 -0.07286 -0.55131
v 0.15116 -0.07285 -0.53350
v -0.14836 -0.07251 -0.53431
v 0.23319 -0.07272 -0.50270
v -0.23357 -0.07325 -0.50272
v 0.31152 -0.07238 -0.46227
v -0.30753 -0.07282 -0.46180
v 0.25650 -0.07250 -0.45350
v 0.37717 -0.07275 -0.40604
v -0.37480 -0.07262 -0.40786
v 0.43941 -0.07225 -0.34156
v 0.48340 -0.07294 -0.27009
v -0.48011 -0.07334 -0.28086
v 0.52150 -0.07227 -0.18751
v -0.51868 -0.07240 -0.19541
v -0.54326 -0.07250 -0.11114
v 0.55410 -0.07187 -0.01821
v -0.55459 -0.07124 -0.02766
v 0.55023 -0.07298 0.06579
v -0.55216 -0.07194 0.06168
v 0.53316 -0.07287 0.15198
v -0.47450 -0.07350 0.21825
v -0.53438 -0.07300 0.15058
v 0.50235 -0.07268 0.23373
v -0.50510 -0.07257 0.22969
v 0.45958 -0.07268 0.31058
v -0.46258 -0.07266 0.30662
v 0.40462 -0.07247 0.37909
v 0.34133 -0.07275 0.43688
v -0.34349 -0.07317 0.43561
v 0.19689 -0.07303 0.51779
v -0.02300 -0.07250 0.52125
v 0.04150 -0.07450 0.52000
v -0.19643 -0.07227 0.51895
v -0.11042 -0.07265 0.54280
v 0.06279 -0.07209 0.55070
v 0.00150 -0.07250 -0.52200
v -0.13875 -0.07150 -0.50250
v 0.12350 -0.07250 -0.50700
v -0.28650 -0.07050 -0.43600
v -0.35175 -0.07150 -0.38525
v 0.32525 -0.07150 -0.40750
v 0.38550 -0.07050 -0.35050
v 0.42450 -0.07050 -0.30300
v 0.49000 -0.07150 -0.17725
v -0.51750 -0.07150 -0.06425
v 0.52050 -0.07450 -0.04200
v -0.49750 -0.07250 0.15950
v 0.48800 -0.07150 0.18375
v 0.45250 -0.07050 0.25900
v 0.41950 -0.07050 0.31100
v 0.33750 -0.07250 0.39850
v -0.25650 -0.07250 0.45450
v 0.23500 -0.07250 0.46600
v -0.05277 -0.08288 -0.55090
v 0.20022 -0.08339 -0.51640
v -0.29816 -0.08299 -0.46739
v -0.37004 -0.08351 -0.41307
v 0.34934 -0.08364 -0.43084
v -0.43084 -0.08365 -0.34989
v -0.34025 -0.08450 -0.39450
v -0.47909 -0.08332 -0.27891
v 0.51925 -0.08350 -0.04175
v 0.51475 -0.08450 0.07925
v -0.55201 -0.08322 0.05514
v 0.55390 -0.08361 0.03044
v 0.48150 -0.08350 0.19875
v -0.51350 -0.08350 0.09300
v 0.42075 -0.08250 0.30650
v -0.46791 -0.08377 0.29992
v 0.47831 -0.08332 0.27937
v -0.28185 -0.08298 0.47855
v -0.22950 -0.08150 0.46900
v 0.22572 -0.08461 0.50695
v -0.20225 -0.08312 0.51580
v -0.11781 -0.08337 0.54273
v -0.02700 -0.08395 0.55378
v 0.29725 -0.08250 -0.42600
v 0.43024 -0.08368 0.34947
v 0.04225 -0.08150 -0.51925
v 0.18175 -0.08500 -0.48725
v -0.09150 -0.08250 -0.51175
v -0.21650 -0.08150 -0.47375
v 0.39100 -0.08150 -0.34500
v 0.45850 -0.08250 -0.24475
v -0.42750 -0.08350 -0.29650
v 0.50400 -0.08350 -0.13250
v -0.49625 -0.08450 -0.15850
v -0.51650 -0.08350 -0.07000
v -0.52200 -0.08350 0.01100
v -0.47650 -0.08350 0.20950
v -0.40950 -0.08250 0.32225
v 0.31438 -0.08350 0.41400
v -0.32425 -0.08150 0.40800
v 0.20950 -0.08350 0.47750
v 0.10100 -0.08250 0.51075
v -0.15050 -0.08350 0.49950
v -0.02887 -0.08400 0.51912
v -0.14078 -0.13150 -0.52158
v 0.34294 -0.13150 0.42054
v -0.51668 -0.08356 -0.19977
v 0.50694 -0.08360 -0.22489
v 0.30000 -0.08336 0.46656
v -0.13966 -0.08293 -0.53697
v 0.03403 -0.08282 -0.55357
v -0.22269 -0.08316 -0.50849
v 0.11698 -0.08340 -0.54205
v -0.34049 -0.12249 -0.44350
v 0.27957 -0.08323 -0.47807
v 0.41517 -0.08297 -0.36833
v 0.46767 -0.08268 -0.29651
v -0.54201 -0.08323 -0.11794
v -0.55486 -0.08302 -0.03349
v 0.53712 -0.08243 -0.13627
v 0.55146 -0.08282 -0.05330
v -0.53720 -0.08314 0.13996
v 0.54297 -0.08385 0.11554
v -0.50840 -0.08376 0.22321
v 0.51735 -0.08311 0.20275
v -0.41456 -0.08322 0.36905
v 0.36394 -0.12248 0.42751
v -0.34953 -0.08376 0.43126
v 0.36712 -0.08286 0.41556
v 0.07786 -0.12250 0.55495
v 0.13949 -0.08363 0.53674
v 0.05471 -0.08323 0.55213
v 0.15760 -0.12250 -0.53678
v -0.33341 -0.12250 -0.36949
v -0.09893 -0.12250 -0.54899
v 0.37278 -0.12250 -0.41707
v 0.10800 -0.12250 -0.49708
v 0.51038 -0.12249 -0.22911
v -0.48830 -0.12250 0.05414
v 0.42962 -0.12250 -0.28594
v -0.52218 -0.12250 -0.19969
v 0.55506 -0.12250 -0.02564
v -0.55774 -0.12249 0.01916
v -0.48254 -0.12250 0.28182
v 0.52323 -0.12249 0.19766
v -0.34991 -0.12250 0.37553
v 0.45862 -0.12250 0.16770
v -0.14700 -0.12250 0.49937
v -0.24742 -0.12248 0.51029
v 0.11156 -0.12250 0.50303
v 0.03233 -0.13270 -0.54964
v -0.31494 -0.13171 -0.44277
v 0.30400 -0.13150 -0.44720
v -0.46180 -0.13150 -0.28042
v 0.51708 -0.13150 -0.16023
v -0.54205 -0.13319 0.07721
v -0.54215 -0.13160 -0.06798
v 0.55677 -0.13150 -0.03734
v -0.46933 -0.13339 0.30941
v 0.53656 -0.13150 0.07624
v -0.43582 -0.13150 0.32404
v 0.52484 -0.13150 0.19012
v 0.46549 -0.13150 0.27089
v 0.40280 -0.13176 0.38505
v -0.25290 -0.13150 0.47557
v 0.23060 -0.13150 0.50674
v 0.10711 -0.13205 0.53463
v -0.07047 -0.13174 0.53953
v -0.16222 -0.13489 -0.53318
v -0.45763 -0.13186 -0.31482
v 0.54876 -0.16483 0.08339
v 0.50178 -0.16509 0.23035
v 0.33179 -0.16353 0.44501
v 0.22346 -0.16522 0.50370
v 0.54504 -0.16464 -0.09515
v -0.06024 -0.16466 -0.54803
v 0.14028 -0.16178 -0.53414
v 0.17189 -0.16347 -0.52437
v 0.24508 -0.13181 -0.49904
v 0.22511 -0.16343 -0.50370
v 0.27568 -0.16308 -0.47776
v 0.46266 -0.16468 -0.30319
v 0.50543 -0.13254 -0.23355
v -0.50422 -0.16246 -0.22469
v -0.54787 -0.13634 -0.13205
v -0.47507 -0.16444 0.28118
v 0.45450 -0.16499 0.31294
v -0.26118 -0.13300 0.50258
v -0.00340 -0.16435 -0.55102
v 0.07726 -0.16460 -0.54572
v 0.26486 -0.16535 -0.48181
v -0.27429 -0.16490 -0.47834
v 0.35560 -0.13388 -0.42697
v -0.33986 -0.16093 -0.43594
v -0.41159 -0.16434 -0.36957
v -0.49627 -0.16463 -0.24008
v -0.50598 -0.16542 -0.21624
v 0.51460 -0.16494 -0.19609
v -0.52883 -0.16547 -0.15079
v -0.55094 -0.16502 0.04221
v -0.53709 -0.16546 0.11782
v -0.36960 -0.16523 0.40852
v -0.32974 -0.16422 0.44249
v -0.27683 -0.16415 0.47744
v -0.21731 -0.16544 0.50643
v 0.20813 -0.16486 0.50922
v -0.11249 -0.16523 0.53914
v 0.08634 -0.16503 0.54497
v 0.32935 -0.16853 0.42242
v -0.11440 -0.16547 -0.53682
v 0.06294 -0.16658 -0.52935
v -0.17240 -0.16520 -0.52337
v 0.08122 -0.16570 -0.53716
v 0.18100 -0.16528 -0.51941
v -0.20026 -0.16669 -0.49586
v 0.20261 -0.16842 -0.49449
v 0.32345 -0.17058 -0.42264
v -0.32652 -0.16848 -0.42620
v 0.37319 -0.16549 -0.40476
v -0.41398 -0.16584 -0.33630
v -0.44875 -0.16544 -0.31761
v 0.42461 -0.16757 -0.32576
v 0.46569 -0.16617 -0.27677
v -0.46971 -0.17506 -0.23767
v -0.49444 -0.16584 -0.19948
v -0.54123 -0.16520 -0.10754
v 0.53150 -0.16550 -0.02800
v 0.52227 -0.17575 0.06443
v 0.51450 -0.16550 0.13800
v -0.51985 -0.16524 0.18419
v 0.48836 -0.16561 0.21144
v 0.44496 -0.16830 0.29478
v -0.28779 -0.16557 0.44893
v 0.25990 -0.16596 0.46536
v -0.02251 -0.16504 0.55150
v 0.04130 -0.16740 0.53476
v 0.51461 -0.16578 -0.13749
v 0.52740 -0.16619 -0.06308
v 0.53164 -0.16573 0.02582
v -0.49638 -0.16614 0.19322
v -0.51460 -0.18026 -0.10004
v -0.53335 -0.16749 0.05037
v -0.29442 -0.17535 0.44337
v 0.09090 -0.18220 -0.51622
v -0.10733 -0.18125 -0.51242
v 0.52633 -0.17940 -0.05526
v -0.45468 -0.17388 0.27135
v -0.37993 -0.16695 0.37376
v 0.26507 -0.17320 0.45881
v -0.15150 -0.17450 -0.28725
v 0.09906 -0.17450 -0.30250
v -0.29262 -0.17450 -0.12450
v 0.28919 -0.17450 -0.13344
v -0.32275 -0.17450 0.05525
v -0.24363 -0.17450 0.21087
v 0.31900 -0.17450 0.06800
v -0.00569 -0.17450 0.32281
v 0.16300 -0.17450 0.28300
v 0.45657 -0.18160 -0.25349
v -0.50430 -0.17345 -0.16354
v -0.36390 -0.18087 0.36749
v 0.24718 -0.18071 0.46506
v 0.40494 -0.18224 0.32034
v -0.12804 -0.17366 0.51785
v 0.15195 -0.18597 -0.48639
v -0.31646 -0.18124 -0.41155
v -0.40760 -0.18224 -0.31924
v 0.48982 -0.18096 0.18446
v -0.30137 -0.18238 0.42023
v -0.01032 -0.18119 0.52278
v -0.50362 -0.18139 0.14614
v -0.37573 -0.19672 0.30761
v 0.22985 -0.19580 0.43109
v -0.13948 -0.19278 -0.33678
v 0.27266 -0.19191 -0.23824
v 0.35491 -0.19270 -0.03265
v 0.30350 -0.18830 0.18591
v 0.07568 -0.19393 0.35856
v 0.41856 -0.19593 -0.26279
v -0.42316 -0.19691 -0.23136
v 0.35139 -0.19366 0.34742
v 0.28626 -0.19370 -0.40088
v -0.33109 -0.19067 -0.13739
v 0.27019 -0.18330 -0.43682
v -0.32544 -0.19389 -0.37618
v 0.48906 -0.19330 -0.07704
v -0.34173 -0.19338 0.35472
v 0.46536 -0.19711 0.13925
v -0.14962 -0.19293 0.47324
v 0.03926 -0.19653 0.48920
v -0.07128 -0.19638 -0.48398
v -0.16224 -0.19704 -0.46031
v 0.38089 -0.19931 0.27463
v 0.37907 -0.19901 0.27579
v 0.36350 -0.19850 0.29500
v -0.14211 -0.19903 0.44710
v -0.10947 -0.20014 -0.45410
v -0.14597 -0.19862 -0.45249
v -0.47498 -0.19550 -0.12630
v 0.46962 -0.19957 -0.00123
v 0.49111 -0.19492 0.01867
v 0.36450 -0.19950 0.29500
v 0.34920 -0.19935 0.31403
v -0.22622 -0.19539 0.43945
v -0.19232 -0.19899 0.42699
v 0.09893 -0.19484 0.48273
v -0.19150 -0.19950 0.43000
v -0.19150 -0.19950 0.42900
v -0.16850 -0.19950 0.43800
v -0.16850 -0.19950 0.43900
v -0.14550 -0.19950 0.44800
v 0.10290 -0.19671 -0.47692
v 0.07787 -0.19275 -0.34816
v 0.19048 -0.19964 -0.43086
v -0.46950 -0.19983 -0.03113
v -0.35862 -0.20147 -0.30724
v -0.34787 -0.19322 0.09115
v 0.41435 -0.19651 0.25653
v -0.26775 -0.19322 0.23672
v -0.31332 -0.20211 0.34860
v 0.31397 -0.19864 0.36102
v 0.12732 -0.19998 0.45078
v 0.02287 -0.19972 0.46883
v -0.10854 -0.19162 0.34225
v 0.38161 -0.20306 -0.26206
v 0.45006 -0.20002 -0.14406
v 0.45571 -0.20434 0.01914
v -0.49646 -0.19425 0.04555
v 0.35307 -0.20477 0.26366
v -0.42041 -0.19801 0.23918
usemtl m000
f 963 971 964
f 979 976 977
f 978 977 974
f 974 973 989
f 987 950 962
f 958 973 976
f 973 941 989
f 910 893 968
f 893 935 954
f 934 953 951
f 958 933 973
f 933 930 973
f 940 910 997
f 885 886 953
f 866 868 854
f 853 866 854
f 839 853 854
f 890 865 839
f 859 858 820
f 883 859 846
f 848 847 846
f 845 879 838
f 860 883 849
f 862 888 850
f 882 845 858
f 866 894 868
f 881 884 887
f 900 937 898
f 136 138 134
f 989 965 974
f 964 972 998
f 962 963 998
f 915 892 906
f 109 131 130
f 30 22 31
f 23 36 34
f 32 33 9
f 943 919 921
f 943 920 919
f 944 922 920
f 945 925 922
f 946 927 925
f 947 926 927
f 993 924 926
f 986 923 924
f 986 921 923
f 998 963 964
f 998 972 990
f 911 929 910
f 874 933 876
f 904 933 905
f 844 907 906
f 868 894 929
f 869 929 911
f 905 875 877
f 879 882 881
f 865 890 866
f 873 872 874
f 870 899 825
f 867 892 852
f 851 888 862
f 849 883 848
f 937 901 932
f 893 887 936
f 930 940 999
f 932 931 950
f 897 937 957
f 928 915 955
f 953 928 948
f 980 979 978
f 958 965 959
f 83 46 42
f 962 950 971
f 80 47 46
f 82 43 47
f 249 175 180
f 84 49 43
f 241 168 175
f 88 44 49
f 90 50 44
f 233 187 168
f 89 48 50
f 85 42 48
f 223 160 187
f 217 161 160
f 222 165 161
f 228 167 165
f 238 176 171
f 243 186 176
f 251 180 182
f 180 175 178
f 175 168 173
f 168 187 166
f 187 160 162
f 160 161 164
f 161 165 164
f 165 167 169
f 26 27 10
f 167 171 169
f 171 176 174
f 14 52 1
f 176 186 177
f 15 14 2
f 186 182 179
f 6 15 2
f 182 180 178
f 190 191 216
f 249 190 215
f 247 249 213
f 245 247 213
f 39 45 5
f 244 245 211
f 241 244 209
f 35 36 37
f 33 35 9
f 239 241 209
f 8 32 9
f 204 239 207
f 236 204 205
f 234 236 205
f 233 234 202
f 231 233 202
f 229 231 200
f 227 229 200
f 225 227 198
f 223 225 198
f 221 223 196
f 219 221 196
f 217 219 193
f 218 217 192
f 220 218 192
f 34 36 35
f 32 34 33
f 222 220 194
f 22 23 32
f 31 32 32
f 30 31 8
f 224 222 194
f 226 224 195
f 56 28 26
f 228 226 195
f 230 228 197
f 53 25 19
f 232 230 197
f 189 232 199
f 235 189 201
f 55 54 15
f 11 55 6
f 237 235 201
f 238 237 201
f 240 238 203
f 242 240 206
f 243 242 208
f 60 59 13
f 246 243 208
f 39 51 45
f 188 246 210
f 23 40 38
f 248 188 210
f 250 248 212
f 21 23 8
f 252 250 214
f 251 252 214
f 191 251 214
f 355 315 326
f 255 341 342
f 78 62 25
f 57 54 55
f 64 99 59
f 51 60 45
f 325 348 366
f 325 302 348
f 365 366 395
f 329 365 395
f 98 74 27
f 104 117 27
f 405 329 394
f 347 405 392
f 403 347 392
f 346 403 389
f 386 346 389
f 384 386 387
f 101 136 134
f 130 137 136
f 109 130 101
f 132 138 137
f 109 132 131
f 323 384 387
f 344 323 383
f 116 142 141
f 321 344 381
f 116 141 140
f 119 143 116
f 402 321 381
f 359 402 381
f 343 359 378
f 358 343 376
f 356 358 376
f 355 356 374
f 398 355 372
f 397 398 370
f 396 397 370
f 339 396 368
f 352 339 368
f 341 352 367
f 342 341 369
f 353 342 369
f 354 353 371
f 399 354 371
f 400 399 373
f 357 400 373
f 401 357 375
f 360 401 375
f 349 360 377
f 361 349 379
f 362 361 380
f 328 362 380
f 317 328 382
f 363 317 382
f 345 363 385
f 404 345 388
f 351 404 388
f 364 351 390
f 406 364 391
f 348 406 393
f 366 348 393
f 75 116 113
f 98 115 118
f 349 286 305
f 104 114 115
f 119 116 75
f 92 129 63
f 51 124 122
f 402 326 316
f 350 323 306
f 319 302 301
f 313 319 298
f 318 313 297
f 312 318 297
f 310 312 297
f 309 310 294
f 308 309 294
f 324 308 292
f 288 324 290
f 286 288 290
f 305 286 287
f 281 305 283
f 839 854 823
f 327 281 283
f 258 327 283
f 257 258 280
f 838 821 774
f 820 838 774
f 273 257 277
f 269 273 275
f 862 848 822
f 256 269 270
f 255 256 270
f 827 852 824
f 303 255 268
f 831 827 829
f 254 303 264
f 833 831 832
f 253 254 264
f 835 833 775
f 262 253 263
f 320 262 263
f 340 320 265
f 266 340 267
f 272 266 267
f 828 857 830
f 274 272 271
f 315 274 271
f 854 869 826
f 278 315 271
f 304 278 276
f 861 863 821
f 316 304 279
f 838 861 821
f 284 316 279
f 820 845 838
f 322 284 282
f 306 322 285
f 307 306 285
f 840 844 827
f 350 307 289
f 841 840 831
f 259 350 291
f 311 259 291
f 260 311 293
f 843 842 835
f 875 843 835
f 261 260 295
f 904 836 837
f 300 261 295
f 857 904 837
f 314 300 296
f 872 873 857
f 325 314 296
f 899 855 828
f 825 899 828
f 302 325 299
f 869 825 826
f 135 821 139
f 449 453 551
f 142 829 824
f 483 425 503
f 159 837 836
f 468 417 482
f 459 488 499
f 407 489 547
f 484 491 502
f 505 432 428
f 138 148 146
f 437 463 494
f 126 149 148
f 511 443 509
f 143 153 142
f 133 157 159
f 553 487 544
f 552 553 544
f 551 552 542
f 498 551 540
f 510 498 540
f 537 510 538
f 508 537 538
f 125 147 94
f 535 508 538
f 105 147 125
f 550 535 534
f 106 146 105
f 495 550 534
f 529 495 532
f 526 529 530
f 549 526 527
f 140 142 149
f 116 143 142
f 485 549 527
f 63 154 153
f 492 485 525
f 129 158 156
f 503 492 522
f 518 503 522
f 501 518 520
f 144 157 133
f 144 155 157
f 490 501 520
f 500 490 517
f 468 500 546
f 331 333 478
f 545 468 514
f 330 331 476
f 499 545 514
f 489 499 514
f 332 330 475
f 547 489 515
f 334 332 475
f 491 547 515
f 337 334 477
f 502 491 516
f 548 502 519
f 338 337 479
f 523 548 521
f 336 338 480
f 493 523 521
f 335 336 481
f 504 493 524
f 333 335 481
f 505 504 524
f 68 71 333
f 494 505 528
f 67 68 331
f 506 494 531
f 69 67 332
f 507 506 531
f 509 507 533
f 184 69 334
f 511 509 533
f 76 184 337
f 512 511 536
f 496 512 539
f 185 76 338
f 497 496 539
f 183 185 336
f 486 497 541
f 71 183 333
f 513 486 543
f 487 513 543
f 68 67 71
f 486 487 414
f 184 76 69
f 76 185 69
f 511 512 466
f 185 71 69
f 183 71 185
f 752 801 773
f 801 800 771
f 800 749 770
f 749 778 768
f 778 798 768
f 798 754 744
f 754 746 744
f 746 794 742
f 794 792 742
f 792 741 739
f 741 790 738
f 790 789 738
f 492 425 461
f 789 777 760
f 777 786 760
f 786 785 759
f 785 734 753
f 464 550 413
f 734 784 753
f 784 731 756
f 731 782 756
f 782 780 755
f 553 552 473
f 780 730 757
f 730 779 757
f 414 474 456
f 779 781 758
f 472 414 454
f 781 732 758
f 467 472 454
f 732 733 736
f 466 467 451
f 733 735 736
f 446 466 451
f 735 737 761
f 443 446 447
f 737 776 763
f 440 443 444
f 776 787 763
f 437 440 441
f 787 788 764
f 463 437 438
f 411 463 438
f 788 740 765
f 432 411 438
f 740 791 743
f 428 432 433
f 791 793 766
f 409 428 430
f 793 745 766
f 460 409 430
f 745 795 767
f 408 460 426
f 795 797 769
f 484 408 426
f 797 747 769
f 407 484 423
f 747 750 748
f 459 407 423
f 750 751 772
f 416 459 420
f 751 752 773
f 488 416 420
f 458 488 418
f 796 799 819
f 417 458 418
f 482 417 418
f 469 482 419
f 814 796 816
f 470 469 419
f 811 814 816
f 483 470 422
f 807 811 816
f 425 483 424
f 461 425 424
f 805 807 809
f 471 461 424
f 802 805 806
f 410 471 427
f 462 410 429
f 804 802 806
f 435 462 429
f 412 435 434
f 783 804 803
f 413 412 436
f 810 783 803
f 464 413 439
f 465 464 442
f 812 810 808
f 448 465 445
f 449 448 445
f 813 812 808
f 453 449 445
f 818 813 815
f 473 453 450
f 457 473 452
f 799 818 819
f 415 457 452
f 474 415 455
f 749 799 796
f 749 796 778
f 645 638 636
f 796 746 754
f 746 796 814
f 741 814 811
f 789 811 807
f 786 807 805
f 805 784 734
f 784 805 802
f 784 802 731
f 780 802 804
f 781 804 783
f 781 783 732
f 783 735 733
f 735 783 810
f 737 810 776
f 788 810 812
f 812 740 788
f 791 812 813
f 813 745 793
f 647 607 606
f 795 813 818
f 638 647 602
f 636 638 602
f 627 636 600
f 818 750 747
f 626 627 598
f 818 751 750
f 625 626 596
f 818 752 751
f 624 625 596
f 651 710 707
f 635 624 593
f 622 635 593
f 710 709 670
f 588 622 590
f 709 645 728
f 583 588 590
f 645 705 728
f 639 583 585
f 705 649 666
f 620 639 580
f 649 702 665
f 619 620 579
f 702 700 697
f 618 619 576
f 617 618 574
f 700 698 697
f 616 617 572
f 698 695 663
f 614 616 571
f 695 693 661
f 641 614 568
f 693 691 721
f 611 641 568
f 691 690 659
f 610 611 566
f 690 688 657
f 554 610 564
f 608 554 561
f 688 642 656
f 642 685 716
f 609 608 560
f 685 682 716
f 630 609 562
f 682 680 715
f 612 630 563
f 613 612 565
f 680 678 713
f 631 613 567
f 678 675 713
f 615 631 567
f 675 674 712
f 648 615 570
f 674 676 712
f 632 648 570
f 676 677 714
f 555 632 573
f 677 679 655
f 633 555 575
f 679 681 683
f 621 633 578
f 681 684 717
f 584 621 581
f 634 584 581
f 684 686 718
f 591 634 586
f 686 687 719
f 556 591 589
f 687 689 720
f 644 556 589
f 623 644 592
f 689 643 720
f 557 623 594
f 643 692 722
f 558 557 595
f 692 694 662
f 637 558 597
f 694 696 664
f 628 637 599
f 696 699 724
f 629 628 601
f 699 701 725
f 559 629 603
f 701 703 726
f 607 559 605
f 703 704 727
f 704 646 669
f 646 706 729
f 706 650 671
f 650 711 673
f 644 557 701
f 711 651 707
f 634 644 696
f 607 647 710
f 555 633 689
f 632 555 689
f 686 632 687
f 681 648 684
f 612 613 681
f 630 612 677
f 640 676 674
f 611 640 678
f 641 611 682
f 620 688 690
f 642 641 685
f 190 180 191
f 249 180 190
f 247 175 249
f 245 175 247
f 244 175 245
f 241 175 244
f 239 168 241
f 204 168 239
f 236 168 204
f 234 168 236
f 233 168 234
f 229 187 231
f 227 187 229
f 225 187 227
f 223 187 225
f 221 160 223
f 219 160 221
f 217 160 219
f 218 161 217
f 220 161 218
f 222 161 220
f 224 165 222
f 226 165 224
f 228 165 226
f 230 167 228
f 232 167 230
f 189 167 232
f 189 171 167
f 235 171 189
f 237 171 235
f 238 171 237
f 240 176 238
f 242 176 240
f 243 176 242
f 246 186 243
f 188 186 246
f 248 186 188
f 250 182 248
f 252 182 250
f 251 182 252
f 191 180 251
f 995 969 996
f 996 970 957
f 971 950 972
f 964 971 972
f 978 979 977
f 965 978 974
f 974 976 973
f 997 968 984
f 995 955 970
f 972 950 990
f 991 975 959
f 965 958 980
f 979 958 976
f 347 260 405
f 980 958 979
f 344 321 322
f 397 396 340
f 401 360 258
f 349 361 286
f 362 328 286
f 348 302 406
f 981 934 983
f 983 934 951
f 990 950 942
f 975 939 959
f 997 910 968
f 968 893 949
f 949 893 954
f 308 363 309
f 324 328 317
f 954 914 961
f 961 914 960
f 281 327 349
f 257 357 258
f 960 913 981
f 981 913 934
f 269 256 399
f 253 262 352
f 320 340 396
f 272 355 398
f 278 326 315
f 955 897 970
f 970 897 957
f 957 937 987
f 987 937 950
f 950 931 942
f 942 931 975
f 959 939 958
f 973 930 956
f 956 930 941
f 999 940 997
f 893 936 935
f 551 453 552
f 498 449 551
f 510 537 449
f 495 412 550
f 526 462 529
f 549 410 526
f 545 488 468
f 499 488 545
f 494 463 505
f 506 437 494
f 933 938 930
f 497 486 472
f 910 929 893
f 935 887 914
f 913 885 934
f 934 885 953
f 953 886 928
f 933 912 938
f 440 507 443
f 440 437 507
f 938 912 930
f 409 493 428
f 460 523 409
f 416 488 459
f 469 490 482
f 471 485 492
f 864 890 839
f 435 412 529
f 413 550 412
f 838 881 861
f 847 883 846
f 848 883 847
f 848 860 849
f 862 850 848
f 844 867 852
f 833 842 856
f 836 877 875
f 857 876 904
f 857 874 876
f 873 874 857
f 857 871 872
f 828 871 857
f 854 895 869
f 635 700 702
f 859 882 858
f 614 641 642
f 883 882 859
f 608 676 640
f 643 621 584
f 637 628 646
f 650 629 559
f 842 878 856
f 828 855 871
f 845 882 879
f 851 892 888
f 711 559 651
f 706 628 650
f 646 704 557
f 840 898 897
f 686 648 632
f 842 903 878
f 639 693 695
f 583 698 588
f 872 902 874
f 638 645 709
f 895 868 869
f 840 841 898
f 797 818 747
f 791 813 793
f 899 909 855
f 732 783 733
f 780 804 730
f 785 805 734
f 869 868 929
f 789 807 777
f 792 814 741
f 866 890 893
f 798 796 754
f 890 887 889
f 800 799 749
f 890 863 887
f 863 861 887
f 861 881 887
f 882 880 881
f 841 856 901
f 843 875 903
f 902 871 917
f 871 855 916
f 899 911 909
f 71 67 69
f 115 114 152
f 118 152 155
f 144 128 157
f 124 144 133
f 120 129 156
f 63 120 154
f 871 916 917
f 106 134 138
f 909 916 855
f 947 942 991
f 987 962 998
f 996 957 987
f 994 948 995
f 983 948 994
f 833 856 841
f 820 846 859
f 894 893 929
f 882 913 880
f 882 885 913
f 152 825 830
f 157 830 834
f 907 915 906
f 153 832 829
f 908 915 907
f 908 897 915
f 146 822 820
f 900 901 937
f 98 117 115
f 905 931 903
f 102 61 124
f 902 912 933
f 902 917 912
f 57 111 109
f 62 78 110
f 986 924 988
f 988 924 993
f 993 926 947
f 78 108 110
f 947 927 946
f 946 925 945
f 111 95 126
f 945 922 944
f 100 105 125
f 944 920 982
f 982 920 943
f 943 921 952
f 62 110 139
f 952 921 986
f 27 117 98
f 74 77 23
f 889 887 893
f 64 63 99
f 884 914 887
f 54 103 107
f 881 913 914
f 40 91 65
f 915 928 892
f 29 99 73
f 903 918 878
f 931 918 903
f 905 933 939
f 917 916 912
f 909 940 916
f 909 911 940
f 104 70 114
f 32 23 34
f 78 94 108
f 100 93 105
f 103 106 107
f 9 35 37
f 57 95 111
f 97 72 113
f 72 75 113
f 75 99 119
f 51 102 124
f 91 77 144
f 74 98 118
f 28 70 104
f 56 112 70
f 66 107 93
f 46 41 17
f 989 988 993
f 998 947 946
f 91 23 77
f 998 946 996
f 64 60 92
f 996 946 945
f 96 58 95
f 995 945 944
f 987 998 996
f 999 986 988
f 985 952 986
f 51 61 102
f 53 100 94
f 54 109 101
f 92 60 121
f 65 91 61
f 95 58 97
f 54 101 103
f 997 986 999
f 121 60 145
f 999 988 941
f 989 941 988
f 965 989 993
f 965 993 959
f 959 993 992
f 992 993 947
f 992 947 991
f 942 947 990
f 990 947 998
f 918 931 878
f 995 996 945
f 880 913 881
f 995 944 994
f 983 994 944
f 983 944 982
f 983 982 981
f 981 982 943
f 981 943 960
f 960 943 966
f 966 943 967
f 967 943 961
f 961 943 985
f 985 943 952
f 968 985 984
f 984 985 986
f 997 984 986
f 78 53 94
f 54 57 109
f 57 96 95
f 58 72 97
f 64 92 63
f 903 875 905
f 898 937 897
f 896 908 907
f 884 881 914
f 874 902 933
f 841 901 900
f 840 908 896
f 888 891 886
f 860 886 885
f 883 885 882
f 890 889 893
f 866 893 894
f 869 911 870
f 870 911 899
f 876 933 904
f 60 51 122
f 904 905 877
f 878 901 856
f 841 900 898
f 897 908 840
f 896 907 844
f 844 906 892
f 892 891 888
f 888 886 860
f 860 885 883
f 872 871 902
f 842 843 903
f 844 840 896
f 867 844 892
f 864 863 890
f 850 888 860
f 838 879 881
f 869 870 825
f 42 17 10
f 852 892 851
f 17 41 1
f 850 860 848
f 41 2 1
f 820 858 845
f 839 865 853
f 853 865 866
f 854 868 895
f 41 47 2
f 930 912 916
f 47 16 2
f 47 43 16
f 931 905 939
f 932 901 878
f 43 12 16
f 12 4 16
f 928 891 892
f 886 891 928
f 12 49 4
f 936 887 935
f 49 18 4
f 940 911 910
f 49 5 18
f 930 916 940
f 49 44 5
f 44 50 5
f 931 932 878
f 50 9 38
f 50 48 9
f 9 48 8
f 48 3 8
f 48 10 3
f 941 930 999
f 958 939 933
f 975 931 939
f 937 932 950
f 42 46 17
f 955 915 897
f 948 928 955
f 46 47 41
f 960 914 913
f 954 935 914
f 951 953 948
f 43 49 12
f 967 961 960
f 973 956 941
f 995 948 955
f 48 42 10
f 977 976 974
f 965 980 978
f 85 83 42
f 991 959 992
f 942 975 991
f 963 962 971
f 969 970 996
f 995 970 969
f 83 80 46
f 983 951 948
f 966 967 960
f 985 954 961
f 949 954 985
f 985 968 949
f 80 79 47
f 79 81 47
f 81 82 47
f 82 84 43
f 84 86 49
f 86 88 49
f 88 90 44
f 90 89 50
f 233 231 187
f 89 87 48
f 87 85 48
f 17 19 10
f 1 52 17
f 2 14 1
f 4 11 16
f 50 38 5
f 10 8 3
f 186 248 182
f 178 175 173
f 173 168 172
f 172 168 170
f 170 168 166
f 166 187 163
f 163 187 162
f 5 13 18
f 162 160 164
f 38 39 5
f 164 165 169
f 10 7 8
f 19 26 10
f 169 171 174
f 174 176 177
f 177 186 179
f 16 6 2
f 179 182 181
f 181 182 178
f 16 11 6
f 4 72 11
f 215 190 216
f 213 249 215
f 18 59 4
f 5 45 13
f 211 245 213
f 209 244 211
f 9 37 38
f 207 239 209
f 27 21 8
f 7 27 8
f 10 27 7
f 205 204 207
f 202 234 205
f 19 25 26
f 24 19 17
f 52 24 17
f 200 231 202
f 198 227 200
f 4 29 72
f 196 223 198
f 59 29 4
f 193 219 196
f 192 217 193
f 38 40 39
f 194 220 192
f 33 34 35
f 32 32 33
f 31 22 32
f 8 31 32
f 195 224 194
f 26 28 27
f 197 228 195
f 25 56 26
f 24 53 19
f 52 53 24
f 199 232 197
f 14 100 52
f 14 54 100
f 15 54 14
f 201 189 199
f 6 55 15
f 20 96 11
f 203 238 201
f 72 20 11
f 206 240 203
f 29 73 72
f 208 242 206
f 13 59 18
f 45 60 13
f 210 246 208
f 40 51 39
f 37 23 38
f 212 248 210
f 36 23 37
f 30 23 22
f 8 23 30
f 214 250 212
f 216 191 214
f 365 325 366
f 365 329 325
f 405 300 329
f 52 100 53
f 403 311 347
f 346 311 403
f 386 350 346
f 11 57 55
f 96 57 11
f 384 350 386
f 323 350 384
f 72 58 20
f 344 322 323
f 59 99 29
f 359 326 402
f 343 326 359
f 358 326 343
f 356 326 358
f 356 355 326
f 40 61 51
f 40 65 61
f 23 91 40
f 397 340 398
f 21 74 23
f 339 262 396
f 352 262 339
f 56 70 28
f 62 112 56
f 353 256 342
f 256 255 342
f 25 62 56
f 354 256 353
f 354 399 256
f 53 78 25
f 400 273 399
f 357 273 400
f 66 93 100
f 107 66 100
f 401 258 357
f 54 107 100
f 349 327 360
f 20 58 96
f 362 286 361
f 73 75 72
f 99 75 73
f 345 309 363
f 404 312 345
f 60 64 59
f 351 312 404
f 364 318 351
f 406 318 364
f 27 74 21
f 394 329 395
f 28 104 27
f 114 70 151
f 392 405 394
f 70 112 150
f 112 62 139
f 110 108 135
f 389 403 392
f 387 386 389
f 106 101 134
f 130 131 137
f 101 130 136
f 132 109 138
f 131 132 137
f 109 111 138
f 383 323 387
f 97 113 149
f 381 344 383
f 113 116 140
f 378 359 381
f 122 123 145
f 376 343 378
f 128 144 157
f 374 356 376
f 144 77 155
f 372 355 374
f 118 115 152
f 370 398 372
f 368 396 370
f 367 352 368
f 369 341 367
f 371 353 369
f 95 97 126
f 373 399 371
f 375 357 373
f 377 360 375
f 379 349 377
f 380 361 379
f 382 328 380
f 385 363 382
f 388 345 385
f 94 100 125
f 390 351 388
f 107 106 105
f 103 101 106
f 391 364 390
f 393 406 391
f 395 366 393
f 319 406 302
f 99 63 127
f 313 318 319
f 318 406 319
f 312 351 318
f 310 345 312
f 309 345 310
f 122 124 123
f 61 144 124
f 317 363 308
f 324 317 308
f 288 328 324
f 286 328 288
f 281 349 305
f 258 360 327
f 273 357 257
f 269 399 273
f 93 107 105
f 303 341 255
f 254 352 303
f 352 341 303
f 253 352 254
f 320 396 262
f 266 398 340
f 272 398 266
f 99 127 119
f 274 355 272
f 315 355 274
f 63 129 120
f 92 121 129
f 121 145 129
f 60 122 145
f 304 326 278
f 316 326 304
f 91 144 61
f 284 402 316
f 321 402 284
f 322 321 284
f 306 323 322
f 74 118 77
f 307 350 306
f 117 104 115
f 150 826 825
f 259 346 350
f 150 823 826
f 311 346 259
f 139 823 150
f 139 821 823
f 260 347 311
f 261 405 260
f 135 774 821
f 300 405 261
f 147 820 774
f 146 820 147
f 314 329 300
f 325 329 314
f 148 822 146
f 148 862 822
f 148 824 862
f 298 319 301
f 149 824 148
f 297 313 298
f 153 829 142
f 154 832 153
f 294 310 297
f 775 832 154
f 156 775 154
f 158 836 775
f 292 308 294
f 157 837 159
f 834 837 157
f 290 324 292
f 155 830 157
f 152 830 155
f 287 286 290
f 283 305 287
f 823 854 826
f 821 839 823
f 821 863 839
f 280 258 283
f 277 257 280
f 822 848 820
f 275 273 277
f 270 269 275
f 824 852 862
f 268 255 270
f 829 827 824
f 264 303 268
f 832 831 829
f 775 833 832
f 263 253 264
f 836 835 775
f 265 320 263
f 267 340 265
f 834 857 837
f 830 857 834
f 271 272 267
f 825 828 830
f 276 278 271
f 863 864 839
f 279 304 276
f 282 284 279
f 848 846 820
f 285 322 282
f 852 851 862
f 289 307 285
f 827 844 852
f 291 350 289
f 831 840 827
f 833 841 831
f 293 311 291
f 835 842 833
f 295 260 293
f 836 875 835
f 836 904 877
f 296 300 295
f 299 325 296
f 301 302 299
f 151 150 825
f 510 449 498
f 135 147 774
f 508 464 537
f 535 464 508
f 529 412 495
f 149 142 824
f 503 425 492
f 518 483 503
f 156 158 775
f 501 483 518
f 158 159 836
f 500 482 490
f 468 482 500
f 489 459 499
f 152 151 825
f 491 407 547
f 548 484 502
f 548 523 484
f 493 409 523
f 504 428 493
f 505 428 504
f 507 437 506
f 138 126 148
f 509 443 507
f 497 472 496
f 145 159 158
f 513 487 486
f 542 552 544
f 540 551 542
f 70 150 151
f 112 139 150
f 538 510 540
f 139 110 135
f 135 108 147
f 108 94 147
f 534 535 538
f 105 146 147
f 106 138 146
f 532 495 534
f 136 137 138
f 138 111 126
f 530 529 532
f 97 149 126
f 113 140 149
f 527 526 530
f 140 141 142
f 143 119 153
f 119 127 153
f 525 485 527
f 127 63 153
f 154 120 156
f 129 145 158
f 522 492 525
f 145 123 159
f 123 124 159
f 124 133 159
f 520 518 522
f 517 490 520
f 77 118 155
f 152 114 151
f 546 500 517
f 514 468 546
f 476 331 478
f 475 330 476
f 515 489 514
f 516 491 515
f 477 334 475
f 479 337 477
f 519 502 516
f 480 338 479
f 521 548 519
f 481 336 480
f 524 493 521
f 478 333 481
f 528 505 524
f 331 68 333
f 531 494 528
f 330 67 331
f 332 67 330
f 533 507 531
f 334 69 332
f 337 184 334
f 536 511 533
f 338 76 337
f 539 512 536
f 336 185 338
f 541 497 539
f 335 183 336
f 333 183 335
f 543 486 541
f 544 487 543
f 414 487 474
f 472 486 414
f 467 496 472
f 466 496 467
f 512 496 466
f 446 511 466
f 443 511 446
f 411 505 463
f 773 801 771
f 432 505 411
f 771 800 770
f 770 749 768
f 408 484 460
f 484 523 460
f 407 491 484
f 768 798 744
f 489 407 459
f 744 746 742
f 458 468 488
f 417 468 458
f 742 792 739
f 470 501 469
f 501 490 469
f 739 741 738
f 483 501 470
f 738 789 762
f 471 492 461
f 762 789 760
f 410 549 471
f 549 485 471
f 462 526 410
f 435 529 462
f 760 786 759
f 759 785 753
f 464 535 550
f 465 537 464
f 753 784 756
f 448 537 465
f 449 537 448
f 473 552 453
f 756 782 755
f 457 553 473
f 415 487 457
f 487 553 457
f 755 780 757
f 474 487 415
f 454 414 456
f 757 779 758
f 758 732 736
f 451 467 454
f 736 735 761
f 447 446 451
f 444 443 447
f 761 737 763
f 441 440 444
f 763 787 764
f 438 437 441
f 764 788 765
f 765 740 743
f 433 432 438
f 743 791 766
f 431 428 433
f 430 428 431
f 766 745 767
f 426 460 430
f 767 795 769
f 423 484 426
f 769 747 748
f 421 459 423
f 748 750 772
f 420 459 421
f 772 751 773
f 418 488 420
f 816 796 819
f 419 482 418
f 422 470 419
f 424 483 422
f 809 807 816
f 427 471 424
f 806 805 809
f 429 410 427
f 803 804 806
f 434 435 429
f 436 412 434
f 439 413 436
f 808 810 803
f 442 464 439
f 445 465 442
f 450 453 445
f 815 813 808
f 452 473 450
f 817 818 815
f 819 818 817
f 455 415 452
f 801 752 799
f 456 474 455
f 800 801 799
f 638 709 647
f 627 645 636
f 798 778 796
f 626 645 627
f 626 649 645
f 625 649 626
f 624 649 625
f 624 702 649
f 635 702 624
f 622 700 635
f 794 746 814
f 622 588 700
f 792 794 814
f 639 695 583
f 620 691 639
f 790 741 811
f 619 688 620
f 789 790 811
f 618 688 619
f 617 642 618
f 616 642 617
f 786 777 807
f 614 642 616
f 785 786 805
f 610 640 611
f 554 640 610
f 608 640 554
f 609 676 608
f 782 731 802
f 609 630 676
f 780 782 802
f 631 681 613
f 615 681 631
f 779 730 804
f 615 648 681
f 781 779 804
f 621 643 633
f 737 735 810
f 591 644 634
f 556 644 591
f 787 776 810
f 623 557 644
f 788 787 810
f 558 646 557
f 637 646 558
f 791 740 812
f 629 650 628
f 607 651 559
f 795 745 813
f 797 795 818
f 602 647 606
f 600 636 602
f 598 627 600
f 596 626 598
f 752 818 799
f 593 624 596
f 707 710 672
f 672 710 670
f 590 622 593
f 670 709 728
f 587 583 590
f 585 583 587
f 728 705 668
f 582 639 585
f 580 639 582
f 668 705 666
f 579 620 580
f 666 649 665
f 576 619 579
f 665 702 697
f 574 618 576
f 572 617 574
f 697 698 723
f 571 616 572
f 723 698 663
f 663 695 661
f 569 614 571
f 568 614 569
f 661 693 721
f 566 611 568
f 721 691 659
f 659 690 657
f 564 610 566
f 561 554 564
f 657 688 656
f 560 608 561
f 656 642 716
f 562 609 560
f 563 630 562
f 716 682 715
f 565 612 563
f 715 680 654
f 654 680 713
f 567 613 565
f 713 675 652
f 570 615 567
f 652 675 712
f 712 676 653
f 573 632 570
f 653 676 714
f 575 555 573
f 714 677 655
f 577 633 575
f 655 679 683
f 578 633 577
f 683 681 717
f 581 621 578
f 717 684 718
f 586 634 581
f 718 686 719
f 589 591 586
f 719 687 658
f 658 687 720
f 592 644 589
f 594 623 592
f 720 643 660
f 595 557 594
f 660 643 722
f 597 558 595
f 722 692 662
f 662 694 664
f 599 637 597
f 601 628 599
f 664 696 724
f 603 629 601
f 724 699 725
f 604 559 603
f 605 559 604
f 725 701 726
f 726 703 667
f 606 607 605
f 667 703 727
f 650 559 711
f 727 704 669
f 646 628 706
f 669 646 729
f 729 706 671
f 703 557 704
f 671 650 673
f 701 557 703
f 699 644 701
f 673 711 708
f 708 711 707
f 696 644 699
f 651 607 710
f 694 634 696
f 692 584 694
f 584 634 694
f 710 647 709
f 643 584 692
f 689 633 643
f 687 632 689
f 705 645 649
f 684 648 686
f 679 612 681
f 700 588 698
f 677 612 679
f 698 583 695
f 676 630 677
f 675 640 674
f 693 639 691
f 678 640 675
f 680 611 678
f 691 620 690
f 682 611 680
f 685 641 682
f 618 642 688
v -0.45250 0.37950 -0.09600
v -0.45250 0.37950 -0.08300
v -0.45250 0.44050 -0.09600
v -0.45250 0.44050 -0.08300
v -0.19600 0.37950 -0.10750
v -0.19600 0.37950 -0.07050
v -0.19600 0.44050 -0.10750
v -0.19600 0.44050 -0.07050
v -0.13895 0.00116 -0.05299
v -0.14549 0.00551 -0.00377
v -0.13808 0.00705 0.06202
v -0.13914 0.02450 -0.05600
v -0.15050 0.02450 -0.01075
v -0.13950 0.02450 0.05760
v -0.17950 0.37950 -0.09900
v -0.15550 0.37950 -0.06243
v -0.17950 0.44050 -0.09900
v -0.15550 0.44050 -0.06243
v -0.07296 -0.11152 -0.03839
v -0.07936 -0.11296 -0.00105
v -0.07358 -0.11138 0.03740
v -0.07327 -0.06392 -0.04082
v -0.08235 -0.06199 0.00096
v -0.07465 -0.05881 0.03827
v -0.09860 0.00826 -0.10883
v -0.09053 -0.00190 -0.06172
v -0.09678 -0.00491 0.00553
v -0.08999 -0.00150 0.05207
v -0.09004 0.00155 0.11402
v -0.09333 0.02450 -0.11783
v -0.12350 0.02450 -0.08900
v -0.09219 0.02450 0.11794
v -0.08950 0.37950 -0.10400
v -0.08950 0.37950 -0.07500
v -0.07341 0.41292 0.12407
v -0.08950 0.44050 -0.10400
v -0.08950 0.44050 -0.07500
v -0.03819 -0.12390 -0.05783
v -0.05444 -0.12789 -0.00413
v -0.03917 -0.12438 0.05646
v -0.04155 -0.06209 -0.07065
v -0.04043 -0.06489 0.07098
v -0.01969 0.00291 -0.15159
v -0.03619 0.00353 -0.12068
v -0.04882 -0.00674 -0.07441
v -0.04381 -0.02135 0.07799
v -0.02988 0.00126 0.10670
v -0.02933 0.00733 0.15003
v -0.01850 0.02450 -0.15150
v -0.03390 0.02450 -0.14500
v -0.05300 0.02450 0.14250
v -0.02417 0.02450 0.14967
v -0.04647 0.41328 0.12141
v 0.02157 -0.12527 -0.06368
v 0.02206 -0.12950 -0.00322
v 0.02144 -0.12543 0.06340
v 0.02445 -0.06330 -0.07801
v 0.01913 -0.06099 0.07962
v 0.01315 0.00237 -0.15198
v 0.02362 -0.00027 -0.11609
v 0.03803 -0.00929 -0.08116
v 0.01521 -0.01418 0.08424
v 0.02181 0.00162 0.10547
v 0.02302 0.00671 0.15067
v 0.01430 0.02450 -0.15160
v 0.02190 0.02450 -0.14640
v 0.04650 0.02450 0.14500
v 0.01750 0.02450 0.15025
v 0.03325 0.41243 0.12637
v 0.06103 -0.11822 -0.04464
v 0.07143 -0.11935 -0.00238
v 0.06161 -0.11922 0.04278
v 0.06443 -0.06249 -0.05159
v 0.08179 -0.06256 0.00094
v 0.06735 -0.06234 0.04747
v 0.07512 0.00934 -0.12114
v 0.07527 -0.00423 -0.06281
v 0.09286 -0.00710 0.00706
v 0.08086 -0.00498 0.05290
v 0.08047 0.00166 0.11638
v 0.08333 0.02450 -0.12483
v 0.08583 0.02450 0.12260
v 0.06347 0.41378 0.11959
v 0.11626 0.00678 -0.09936
v 0.13315 0.00186 -0.05470
v 0.13882 0.00553 -0.00431
v 0.12950 0.00884 0.06123
v 0.11820 0.00450 0.09620
v 0.11450 0.02450 -0.09800
v 0.13733 0.02450 -0.05875
v 0.14975 0.02450 -0.01075
v 0.13910 0.02450 0.05760
v 0.11850 0.02450 0.09400
v 0.14650 0.37950 -0.05600
v 0.14650 0.44050 -0.05600
v 0.31137 0.37950 -0.09913
v 0.30983 0.37950 -0.07617
v 0.29550 0.37950 -0.02900
v 0.31082 0.45355 -0.10182
v 0.31358 0.45548 -0.07173
v 0.33200 0.46900 0.01350
v 0.34321 0.47850 0.03100
v 0.31050 0.49950 -0.10336
v 0.31503 0.49818 -0.07055
v 0.35450 0.37750 0.32100
v 0.35450 0.38350 0.32100
v 0.37368 0.46544 0.01174
v 0.37350 0.46287 0.05962
v 0.39210 0.46890 0.10680
v 0.35450 0.44350 0.32100
v 0.36734 0.50213 0.01547
v 0.37810 0.50350 0.05320
v 0.39850 0.50250 0.10300
v 0.43450 0.37750 -0.06700
v 0.42500 0.38150 -0.05500
v 0.41550 0.37950 -0.01600
v 0.45525 0.43050 0.19275
v 0.45850 0.43050 0.20800
v 0.42817 0.44250 -0.05900
v 0.41550 0.44050 -0.01600
v 0.42350 0.47325 0.06300
v 0.43800 0.46040 0.12110
v 0.44808 0.46399 0.18325
v 0.45786 0.46507 0.21314
v 0.41850 0.49950 0.06550
v 0.42936 0.50436 0.12171
v 0.45021 0.50300 0.17904
v 0.45775 0.50375 0.21475
v 0.47825 0.43050 0.18825
v 0.47375 0.43050 0.21125
v 0.48032 0.46350 0.18034
v 0.47637 0.46131 0.21387
v 0.47780 0.50280 0.17843
v 0.47890 0.50390 0.21580
v 0.56550 0.37750 -0.06700
v 0.56550 0.37750 0.32100
v 0.57072 0.39572 -0.06700
v 0.52950 0.37950 -0.01450
v 0.57072 0.39572 0.32100
v 0.56867 0.44183 -0.06700
v 0.52950 0.44050 -0.01450
v 0.56867 0.44183 0.32100
usemtl m001
f 1028 1027 1045
f 1028 1045 1046
f 1060 1056 1040
f 1025 1021 1022
f 1027 1023 1041
f 1078 1057 1074
f 1069 1070 1054
f 1053 1069 1054
f 1070 1071 1054
f 1077 1085 1086
f 1071 1055 1054
f 1046 1062 1063
f 1047 1046 1063
f 1061 1062 1046
f 1043 1049 1048
f 1069 1072 1073
f 1053 1056 1072
f 1039 1041 1023
f 1055 1057 1041
f 1070 1073 1074
f 1074 1057 1055
f 1023 1022 1019
f 1022 1021 1018
f 1021 1040 1037
f 1045 1057 1061
f 1040 1056 1053
f 1041 1057 1045
f 1078 1073 1077
f 1078 1077 1086
f 1076 1056 1060
f 1025 1008 1024
f 1083 1084 1075
f 1058 1059 1043
f 1013 1010 1009
f 1028 1010 1013
f 1050 1046 1028
f 1051 1047 1046
f 1063 1047 1051
f 1062 1063 1067
f 1077 1076 1084
f 1081 1079 1062
f 1092 1087 1079
f 1091 1086 1087
f 1085 1086 1091
f 1089 1084 1085
f 1075 1083 1088
f 1088 1083 1084
f 1059 1075 1080
f 1058 1059 1065
f 1048 1042 1058
f 1049 1043 1042
f 1024 1043 1049
f 1008 1025 1026
f 1025 1024 1029
f 1011 1008 1025
f 1009 1008 1011
f 1043 1042 1058
f 1049 1043 1059
f 1059 1058 1064
f 1079 1062 1078
f 1073 1072 1076
f 1040 1021 1025
f 1076 1060 1075
f 1060 1059 1075
f 1039 1038 1054
f 1055 1039 1054
f 1044 1025 1024
f 1023 1027 1026
f 1026 1027 1010
f 1037 1053 1054
f 1038 1037 1054
f 1020 1019 1038
f 1019 1018 1038
f 1038 1018 1037
f 1072 1056 1076
f 1087 1079 1078
f 1084 1085 1077
f 1043 1059 1044
f 1044 1060 1040
f 1025 1044 1040
f 1026 1025 1022
f 1074 1073 1078
f 1045 1061 1046
f 1043 1044 1024
f 1009 1008 1026
f 1042 1043 1048
f 1070 1069 1073
f 1069 1053 1072
f 1020 1039 1023
f 1039 1055 1041
f 1071 1070 1074
f 1071 1074 1055
f 1020 1023 1019
f 1019 1022 1018
f 1018 1021 1037
f 1037 1040 1053
f 1062 1079 1063
f 1084 1076 1075
f 1028 1010 1027
f 1012 1013 1009
f 1031 1028 1013
f 1087 1078 1086
f 1031 1050 1028
f 1050 1051 1046
f 1067 1063 1051
f 1066 1062 1067
f 1066 1081 1062
f 1081 1092 1079
f 1092 1091 1087
f 1090 1085 1091
f 1090 1089 1085
f 1080 1075 1088
f 1089 1088 1084
f 1065 1059 1080
f 1064 1058 1065
f 1064 1048 1058
f 1048 1049 1042
f 1029 1024 1049
f 1030 1025 1029
f 1030 1011 1025
f 1012 1009 1011
f 1065 1049 1059
f 1065 1059 1064
f 1062 1061 1078
f 1077 1073 1076
f 1059 1060 1044
f 1027 1041 1045
f 1061 1057 1078
f 1022 1023 1026
f 1009 1026 1010
f 1038 1039 1020
f 1101 1100 1106
f 1121 1107 1120
f 1122 1130 1132
f 1130 1121 1125
f 1121 1120 1124
f 1120 1106 1110
f 1122 1132 1126
f 1132 1126 1127
f 1126 1122 1123
f 1123 1122 1130
f 1132 1127 1133
f 1127 1123 1131
f 1131 1123 1130
f 1133 1131 1130
f 1130 1128 1116
f 1122 1116 1117
f 1117 1116 1128
f 1123 1117 1129
f 1129 1117 1128
f 1131 1129 1128
f 1098 1095 1096
f 1099 1096 1095
f 1102 1098 1099
f 1103 1099 1098
f 1130 1122 1126
f 1035 1098 1095
f 1032 1095 1096
f 1033 1096 1099
f 1036 1099 1098
f 1118 1140 1137
f 1115 1137 1140
f 1093 1097 1100
f 1094 1100 1099
f 1094 1099 1096
f 1093 1096 1097
f 1099 1118 1114
f 1096 1114 1115
f 1097 1115 1119
f 1100 1119 1118
f 1017 1094 1093
f 1015 1093 1094
f 1016 1017 1015
f 1006 1016 1014
f 1004 1014 1015
f 1005 1015 1017
f 1007 1017 1016
f 1002 1006 1004
f 1007 1003 1001
f 1001 1000 1004
f 1007 1006 1002
f 1003 1002 1000
f 1134 1136 1114
f 1113 1114 1105
f 1104 1105 1138
f 1138 1136 1139
f 1141 1139 1118
f 1105 1114 1136
f 1138 1141 1139
f 1141 1109 1118
f 1135 1138 1136
f 1104 1135 1134
f 1111 1110 1101
f 1112 1111 1107
f 1125 1112 1108
f 1126 1125 1122
f 1121 1122 1108
f 1107 1101 1106
f 1121 1108 1107
f 1130 1122 1121
f 1120 1107 1106
f 1132 1130 1125
f 1125 1121 1124
f 1124 1120 1110
f 1125 1124 1111
f 1111 1124 1110
f 1126 1132 1125
f 1127 1126 1123
f 1133 1127 1131
f 1132 1133 1130
f 1122 1130 1116
f 1123 1122 1117
f 1131 1123 1129
f 1130 1131 1128
f 1099 1098 1096
f 1098 1099 1095
f 1103 1102 1099
f 1102 1103 1098
f 1132 1130 1126
f 1032 1035 1095
f 1033 1032 1096
f 1036 1033 1099
f 1035 1036 1098
f 1114 1118 1137
f 1115 1114 1137
f 1119 1115 1140
f 1118 1119 1140
f 1094 1093 1100
f 1093 1094 1096
f 1096 1099 1114
f 1097 1096 1115
f 1100 1097 1119
f 1099 1100 1118
f 1015 1017 1093
f 1017 1015 1094
f 1014 1016 1015
f 1004 1006 1014
f 1005 1004 1015
f 1007 1005 1017
f 1006 1007 1016
f 1000 1002 1004
f 1005 1007 1001
f 1005 1001 1004
f 1003 1007 1002
f 1001 1003 1000
f 1113 1134 1114
f 1104 1113 1105
f 1135 1104 1138
f 1138 1105 1136
f 1134 1135 1136
f 1113 1104 1134
f 1112 1125 1111
f 1100 1110 1106
f 1101 1110 1100
f 1107 1111 1101
f 1108 1112 1107
f 1122 1125 1108
v -0.28859 -0.16172 -0.14763
v -0.30921 -0.16166 -0.08605
v -0.32094 -0.16166 0.00103
v -0.30798 -0.16138 0.08923
v -0.28836 -0.16245 0.15016
v -0.28574 -0.08468 -0.13700
v -0.29659 -0.08972 -0.08109
v -0.30538 -0.08750 0.00102
v -0.29622 -0.08943 0.08305
v -0.28586 -0.08493 0.13971
v -0.28150 -0.00850 -0.04950
v -0.28479 -0.00850 0.00086
v -0.28100 -0.00850 0.05150
v -0.28150 0.04950 -0.04950
v -0.28283 0.04742 0.00092
v -0.28100 0.04950 0.05150
v -0.21618 -0.16123 -0.23911
v -0.25882 -0.16180 -0.18681
v -0.25758 -0.16181 0.18885
v -0.21483 -0.16170 0.24078
v -0.21061 -0.08956 -0.22961
v -0.24706 -0.08712 -0.17587
v -0.27202 -0.07734 -0.10623
v -0.27056 -0.07844 0.11111
v -0.24461 -0.08755 0.18033
v -0.20718 -0.08941 0.23388
v -0.21416 0.02626 -0.15205
v -0.23143 0.01369 -0.08067
v -0.24308 0.01324 0.00173
v -0.23014 0.01424 0.08622
v -0.21380 0.02848 0.15739
v -0.22697 0.04783 -0.16827
v -0.26841 0.04723 -0.08936
v -0.26658 0.04742 0.09433
v -0.22393 0.04771 0.17243
v -0.11996 -0.15888 -0.30569
v -0.15353 -0.16220 -0.28009
v -0.15091 -0.16163 0.28207
v -0.11325 -0.15958 0.30900
v -0.14974 -0.08767 -0.26488
v -0.18550 -0.06650 0.21800
v -0.14930 -0.08749 0.26545
v -0.14287 0.02934 -0.22805
v -0.15407 0.00695 -0.17725
v -0.14383 -0.00551 -0.08686
v -0.15811 -0.00500 0.00385
v -0.14348 -0.00555 0.09125
v -0.15370 0.00785 0.17956
v -0.14153 0.02991 0.23035
v -0.15514 0.04771 -0.23579
v -0.18050 0.04700 0.21800
v -0.14933 0.04783 0.24025
v -0.06136 -0.16174 -0.31550
v -0.09437 -0.16069 -0.29863
v -0.08597 -0.15991 0.30182
v -0.05745 -0.16199 0.31722
v -0.05285 -0.08880 -0.30836
v -0.07007 -0.08552 -0.28930
v -0.06618 -0.08786 0.29281
v -0.04973 -0.08612 0.31185
v -0.06326 0.01890 -0.24291
v -0.06407 -0.00585 -0.16973
v -0.09736 -0.00479 -0.12229
v -0.09454 -0.00465 0.12459
v -0.06264 -0.00579 0.17670
v -0.06405 0.02040 0.24484
v -0.07173 0.04758 -0.27285
v -0.07027 0.04758 0.27362
v 0.02391 -0.16166 -0.31964
v 0.06150 -0.13783 0.30467
v 0.02529 -0.16200 0.31991
v 0.01960 -0.09113 -0.31018
v 0.03212 -0.07945 -0.29082
v 0.02863 -0.08664 0.29565
v 0.02150 -0.08784 0.31300
v 0.02323 0.01459 -0.24495
v 0.02851 -0.00555 -0.16649
v 0.02699 -0.00587 0.17223
v 0.02301 0.01634 0.24735
v 0.01604 0.04758 -0.28162
v 0.01773 0.04758 0.28177
v 0.09346 -0.16180 -0.31008
v 0.12873 -0.16180 -0.29030
v 0.12359 -0.16175 0.29324
v 0.09153 -0.16138 0.31274
v 0.08345 -0.08477 -0.30605
v 0.11592 -0.08785 -0.28025
v 0.11418 -0.08770 0.28127
v 0.07992 -0.08433 0.30792
v 0.10437 0.02480 -0.23637
v 0.11553 -0.00176 -0.18101
v 0.12550 -0.00473 -0.08925
v 0.15285 -0.00298 0.00474
v 0.12221 -0.00468 0.09413
v 0.11631 -0.00081 0.18657
v 0.10469 0.02616 0.23827
v 0.10917 0.04717 -0.25900
v 0.10721 0.04736 0.26050
v 0.19853 -0.16171 -0.25171
v 0.23490 -0.16105 -0.20760
v 0.23511 -0.16350 0.20925
v 0.19670 -0.16162 0.25322
v 0.18997 -0.08875 -0.24097
v 0.22616 -0.08436 -0.19549
v 0.22412 -0.08545 0.19856
v 0.18668 -0.08847 0.24453
v 0.16472 0.02972 -0.22150
v 0.19233 0.01957 -0.16097
v 0.21254 0.00228 -0.08420
v 0.21386 -0.00272 0.00261
v 0.21176 0.00419 0.09203
v 0.19070 0.02068 0.16580
v 0.16225 0.02825 0.22408
v 0.17079 0.04736 -0.22514
v 0.21992 0.04742 -0.17675
v 0.21514 0.04736 0.18164
v 0.16650 0.04700 0.22833
v 0.25050 -0.15836 -0.21500
v 0.27134 -0.16163 -0.17038
v 0.30808 -0.16166 -0.08778
v 0.31938 -0.16202 -0.00084
v 0.30735 -0.16171 0.08860
v 0.27086 -0.16155 0.17259
v 0.24250 -0.15836 0.22300
v 0.26313 -0.08855 -0.15940
v 0.29176 -0.08735 -0.08587
v 0.30424 -0.08708 0.00050
v 0.29115 -0.08766 0.08864
v 0.26182 -0.08853 0.16316
v 0.24817 -0.00850 -0.14000
v 0.25600 0.03112 -0.07921
v 0.26271 0.02788 -0.00027
v 0.25623 0.03112 0.07894
v 0.24650 -0.00850 0.14400
v 0.24817 0.04950 -0.14000
v 0.26942 0.04758 -0.08462
v 0.28227 0.04758 0.00269
v 0.26758 0.04758 0.09000
v 0.24650 0.04950 0.14400
v 0.32950 -0.15836 -0.00100
usemtl m002
f 1216 1215 1200
f 1180 1197 1196
f 1147 1148 1163
f 1179 1196 1197
f 1212 1225 1226
f 1211 1225 1226
f 1145 1160 1146
f 1217 1218 1203
f 1220 1219 1236
f 1192 1189 1172
f 1280 1275 1253
f 1257 1253 1254
f 1191 1184 1202
f 1208 1202 1217
f 1277 1272 1273
f 1278 1273 1274
f 1279 1274 1275
f 1182 1183 1166
f 1185 1204 1186
f 1255 1248 1249
f 1221 1217 1231
f 1238 1231 1248
f 1276 1271 1272
f 1175 1171 1154
f 1157 1154 1153
f 1252 1235 1234
f 1176 1172 1189
f 1189 1192 1176
f 1189 1207 1190
f 1249 1255 1256
f 1191 1184 1185
f 1237 1254 1239
f 1155 1169 1170
f 1251 1250 1273
f 1173 1168 1169
f 1276 1272 1250
f 1171 1175 1157
f 1250 1234 1233
f 1231 1232 1217
f 1171 1187 1188
f 1171 1188 1189
f 1249 1233 1232
f 1169 1186 1187
f 1189 1188 1205
f 1207 1206 1220
f 1272 1276 1277
f 1272 1273 1250
f 1151 1166 1150
f 1230 1229 1216
f 1249 1256 1276
f 1177 1178 1194
f 1260 1240 1241
f 1172 1176 1175
f 1171 1172 1175
f 1252 1273 1274
f 1274 1278 1279
f 1169 1174 1173
f 1273 1277 1278
f 1170 1157 1156
f 1170 1156 1155
f 1254 1258 1239
f 1253 1252 1279
f 1253 1279 1280
f 1280 1257 1253
f 1220 1222 1209
f 1207 1220 1209
f 1208 1221 1202
f 1237 1239 1222
f 1220 1237 1222
f 1191 1208 1202
f 1190 1193 1192
f 1221 1238 1217
f 1207 1209 1193
f 1190 1207 1193
f 1207 1189 1206
f 1214 1213 1227
f 1168 1163 1181
f 1173 1168 1184
f 1169 1164 1163
f 1174 1169 1168
f 1152 1148 1164
f 1155 1152 1169
f 1153 1149 1148
f 1156 1153 1152
f 1154 1150 1149
f 1171 1165 1150
f 1271 1266 1267
f 1249 1245 1266
f 1256 1249 1271
f 1231 1228 1244
f 1217 1214 1228
f 1248 1244 1245
f 1199 1198 1213
f 1274 1269 1270
f 1273 1268 1269
f 1272 1267 1268
f 1172 1166 1165
f 1176 1172 1171
f 1202 1199 1214
f 1184 1181 1199
f 1190 1183 1182
f 1193 1190 1189
f 1207 1200 1183
f 1209 1207 1190
f 1220 1215 1200
f 1222 1220 1207
f 1237 1229 1215
f 1239 1237 1220
f 1254 1247 1229
f 1258 1254 1237
f 1253 1246 1247
f 1275 1270 1246
f 1189 1182 1166
f 1163 1148 1164
f 1213 1214 1228
f 1200 1197 1196
f 1228 1214 1210
f 1229 1225 1211
f 1216 1215 1212
f 1198 1199 1194
f 1247 1243 1225
f 1162 1163 1159
f 1270 1269 1263
f 1163 1148 1142
f 1148 1143 1142
f 1269 1268 1262
f 1148 1149 1144
f 1267 1261 1262
f 1150 1145 1144
f 1267 1266 1260
f 1150 1165 1145
f 1166 1160 1145
f 1266 1245 1260
f 1245 1241 1260
f 1228 1223 1224
f 1198 1194 1210
f 1199 1181 1178
f 1167 1183 1179
f 1200 1196 1179
f 1201 1216 1212
f 1215 1216 1201
f 1244 1240 1241
f 1166 1161 1160
f 1166 1167 1161
f 1244 1228 1224
f 1242 1243 1264
f 1201 1216 1200
f 1179 1180 1196
f 1227 1213 1228
f 1216 1229 1215
f 1198 1181 1199
f 1179 1180 1197
f 1243 1265 1264
f 1212 1211 1226
f 1237 1220 1236
f 1165 1150 1166
f 1176 1192 1172
f 1258 1257 1254
f 1221 1208 1217
f 1280 1279 1275
f 1185 1203 1204
f 1166 1183 1167
f 1168 1185 1169
f 1238 1221 1231
f 1255 1238 1248
f 1157 1175 1154
f 1156 1157 1153
f 1164 1148 1147
f 1251 1252 1234
f 1217 1238 1231
f 1202 1185 1184
f 1202 1221 1217
f 1168 1173 1185
f 1274 1279 1252
f 1252 1251 1273
f 1250 1251 1234
f 1171 1189 1172
f 1249 1276 1250
f 1171 1157 1170
f 1171 1170 1187
f 1249 1250 1233
f 1170 1169 1187
f 1169 1185 1186
f 1252 1253 1235
f 1206 1189 1205
f 1253 1236 1235
f 1202 1217 1203
f 1217 1232 1218
f 1220 1206 1219
f 1195 1194 1178
f 1155 1174 1169
f 1173 1191 1185
f 1202 1203 1185
f 1259 1240 1260
f 1189 1190 1192
f 1228 1214 1227
f 1163 1164 1147
f 1184 1168 1181
f 1191 1173 1184
f 1168 1169 1163
f 1173 1174 1168
f 1169 1152 1164
f 1152 1153 1148
f 1155 1156 1152
f 1153 1154 1149
f 1154 1171 1150
f 1272 1271 1267
f 1271 1249 1266
f 1276 1256 1271
f 1248 1231 1244
f 1231 1217 1228
f 1249 1248 1245
f 1214 1199 1213
f 1181 1163 1162
f 1275 1274 1270
f 1274 1273 1269
f 1273 1272 1268
f 1171 1172 1165
f 1175 1176 1171
f 1217 1202 1214
f 1202 1184 1199
f 1189 1190 1182
f 1192 1193 1189
f 1190 1207 1183
f 1193 1209 1190
f 1207 1220 1200
f 1209 1222 1207
f 1220 1237 1215
f 1222 1239 1220
f 1237 1254 1229
f 1239 1258 1237
f 1254 1253 1247
f 1253 1275 1246
f 1172 1189 1166
f 1200 1201 1197
f 1223 1228 1210
f 1214 1213 1210
f 1212 1215 1211
f 1215 1229 1211
f 1229 1247 1225
f 1243 1246 1242
f 1247 1246 1243
f 1158 1162 1159
f 1264 1270 1263
f 1159 1163 1142
f 1263 1269 1262
f 1143 1148 1144
f 1268 1267 1262
f 1149 1150 1144
f 1261 1267 1260
f 1165 1166 1145
f 1213 1198 1210
f 1194 1199 1195
f 1195 1199 1178
f 1178 1181 1158
f 1181 1162 1158
f 1161 1167 1179
f 1183 1200 1179
f 1197 1201 1212
f 1200 1215 1201
f 1242 1246 1264
f 1246 1270 1264
f 1245 1244 1241
f 1240 1244 1224
v -0.48800 0.36750 0.29825
v -0.49162 0.41350 -0.01638
v -0.49450 0.41350 0.29900
v -0.48800 0.45850 0.29825
v -0.42250 0.30683 -0.01633
v -0.42336 0.30450 0.29914
v -0.44233 0.37050 -0.08050
v -0.46209 0.35450 -0.01693
v -0.46871 0.34479 0.29921
v -0.45450 0.42621 -0.08014
v -0.46450 0.43100 -0.01980
v -0.43383 0.46883 -0.08033
v -0.45700 0.48171 -0.01642
v -0.46563 0.48390 0.29953
v -0.42350 0.52250 0.29833
v -0.39585 0.30521 -0.01506
v -0.38623 0.29959 0.29891
v -0.39136 0.33736 -0.08043
v -0.39636 0.33493 -0.02257
v -0.37850 0.41350 -0.08200
v -0.37850 0.41350 -0.01000
v -0.37850 0.41350 0.29850
v -0.39350 0.48900 -0.08033
v -0.40629 0.50400 -0.01864
v -0.42100 0.51550 0.29850
v -0.37850 0.52583 -0.01478
v -0.37850 0.52939 0.29900
v -0.33550 0.30930 -0.01530
v -0.33394 0.30594 0.29900
v -0.32561 0.36050 -0.08022
v -0.31015 0.34720 -0.01855
v -0.29617 0.33094 0.29900
v -0.30288 0.42837 -0.08050
v -0.29893 0.42693 -0.02214
v -0.33517 0.47750 -0.08017
v -0.32227 0.49715 -0.01708
v -0.30600 0.50050 0.29933
v -0.33317 0.52250 0.29833
v -0.27430 0.37010 -0.01530
v -0.27117 0.36872 0.29900
v -0.26850 0.42170 -0.01570
v -0.26239 0.41350 0.29900
v -0.27350 0.45650 -0.01525
v -0.27117 0.45750 0.29900
v -0.17102 -0.03143 -0.12024
v -0.17077 -0.03106 -0.09842
v -0.18875 -0.03632 -0.00123
v -0.18725 -0.01228 0.02798
v -0.17102 -0.03138 0.11108
v -0.14436 -0.03713 -0.12248
v -0.14531 -0.03570 -0.09521
v -0.16201 -0.01123 -0.00000
v -0.15278 -0.01803 0.08562
v -0.14417 -0.03799 0.11237
v -0.05928 -0.03674 -0.18840
v -0.05872 -0.03320 -0.16247
v -0.05850 -0.01050 0.15200
v -0.05907 -0.03556 0.17910
v -0.06050 0.37438 -0.18200
v -0.06016 0.37456 -0.15423
v -0.06050 0.37897 0.11124
v -0.06050 0.44823 -0.18200
v -0.05993 0.44345 -0.15338
v -0.06050 0.43087 0.11687
v -0.06050 0.45790 -0.18200
v -0.06050 0.46107 -0.15550
v -0.06050 0.45719 0.10362
v -0.00494 -0.01139 -0.17990
v -0.01117 -0.01050 -0.17133
v -0.00576 -0.01101 0.17900
v 0.05838 -0.03635 -0.18852
v 0.05821 -0.03295 -0.16236
v 0.05750 -0.01050 0.15200
v 0.05824 -0.03530 0.17910
v 0.05675 0.37438 -0.18200
v 0.05721 0.37456 -0.15423
v 0.05675 0.37897 0.11124
v 0.05677 0.44823 -0.18200
v 0.05750 0.44345 -0.15338
v 0.05676 0.43087 0.11687
v 0.05670 0.45790 -0.18200
v 0.05679 0.46107 -0.15550
v 0.05665 0.45719 0.10362
v 0.14359 -0.03694 -0.12265
v 0.14450 -0.03563 -0.09502
v 0.16111 -0.01108 -0.00000
v 0.15185 -0.01815 0.08562
v 0.14333 -0.03762 0.11231
v 0.17032 -0.03184 -0.12008
v 0.17006 -0.03122 -0.09854
v 0.18805 -0.03617 -0.00112
v 0.18627 -0.01209 0.02811
v 0.17032 -0.03166 0.11102
v 0.32100 0.45450 -0.06300
v 0.34350 0.45450 -0.02400
v 0.31480 0.48828 -0.07646
v 0.33460 0.48090 -0.01860
v 0.34770 0.47850 0.02500
v 0.36550 0.45450 0.01500
v 0.38750 0.45450 0.05300
v 0.41000 0.45450 0.09200
v 0.37003 0.48010 -0.00507
v 0.39115 0.47991 0.05700
v 0.40274 0.47977 0.09868
v 0.47995 0.36550 -0.00475
v 0.46678 0.35676 0.19415
v 0.47074 0.35815 0.21912
v 0.48610 0.46900 -0.00480
v 0.42806 0.47861 0.08350
v 0.42450 0.47850 0.08800
v 0.47057 0.50982 0.19627
v 0.51651 0.35721 -0.01036
v 0.50950 0.36850 0.02720
v 0.49077 0.35905 0.19639
v 0.51125 0.47007 -0.00405
usemtl m003
f 1326 1331 1327
f 1327 1331 1332
f 1330 1329 1334
f 1336 1350 1337
f 1366 1365 1371
f 1371 1365 1370
f 1353 1350 1349
f 1352 1353 1349
f 1334 1335 1330
f 1336 1349 1350
f 1374 1369 1368
f 1374 1368 1373
f 1384 1383 1379
f 1385 1384 1381
f 1384 1383 1380
f 1383 1378 1376
f 1378 1377 1375
f 1382 1381 1384
f 1381 1380 1383
f 1380 1376 1378
f 1376 1375 1377
f 1385 1384 1390
f 1385 1391 1390
f 1393 1386 1394
f 1362 1364 1361
f 1359 1361 1364
f 1346 1348 1345
f 1343 1345 1348
f 1294 1305 1307
f 1283 1292 1294
f 1289 1297 1286
f 1302 1294 1292
f 1302 1305 1294
f 1302 1307 1305
f 1302 1317 1307
f 1302 1322 1317
f 1302 1320 1322
f 1302 1312 1320
f 1302 1309 1312
f 1302 1297 1309
f 1302 1289 1297
f 1302 1292 1289
f 1283 1292 1289
f 1297 1300 1312
f 1320 1312 1315
f 1322 1315 1317
f 1317 1316 1304
f 1315 1314 1316
f 1312 1311 1314
f 1300 1299 1311
f 1289 1288 1299
f 1292 1291 1288
f 1294 1293 1291
f 1305 1304 1293
f 1293 1304 1301
f 1291 1293 1301
f 1288 1291 1301
f 1299 1288 1301
f 1311 1299 1301
f 1314 1311 1301
f 1316 1314 1301
f 1304 1316 1301
f 1303 1308 1318
f 1303 1306 1308
f 1303 1295 1306
f 1303 1284 1295
f 1303 1290 1284
f 1303 1298 1290
f 1303 1310 1298
f 1303 1313 1310
f 1303 1321 1313
f 1303 1323 1321
f 1303 1325 1323
f 1303 1318 1325
f 1295 1285 1284
f 1318 1319 1308
f 1298 1287 1290
f 1306 1296 1308
f 1295 1306 1308
f 1379 1383 1378
f 1382 1385 1381
f 1381 1384 1380
f 1380 1383 1376
f 1376 1378 1375
f 1385 1382 1384
f 1384 1381 1383
f 1383 1380 1378
f 1378 1376 1377
f 1383 1378 1377
f 1359 1362 1361
f 1362 1359 1364
f 1343 1346 1345
f 1346 1343 1348
f 1324 1317 1322
f 1297 1289 1300
f 1309 1297 1312
f 1322 1320 1315
f 1307 1317 1305
f 1305 1317 1304
f 1317 1315 1316
f 1315 1312 1314
f 1312 1300 1311
f 1300 1289 1299
f 1289 1292 1288
f 1292 1294 1291
f 1294 1305 1293
f 1290 1284 1282
f 1295 1308 1296
f 1306 1295 1296
v -0.47750 0.36250 -0.00980
v -0.47900 0.34650 0.01400
v -0.47775 0.34725 0.25650
v -0.47975 0.37125 0.29050
v -0.48550 0.43462 -0.01100
v -0.49700 0.43700 0.01400
v -0.49550 0.43650 0.25650
v -0.48336 0.43721 0.29057
v -0.46150 0.49650 -0.00600
v -0.46550 0.50050 0.01400
v -0.46450 0.49900 0.25650
v -0.42110 0.31070 -0.01140
v -0.42550 0.29950 0.01400
v -0.42500 0.30100 0.25650
v -0.42050 0.31225 0.29100
v -0.45617 0.33583 -0.01267
v -0.45617 0.33583 0.29067
v -0.43683 0.50483 -0.01156
v -0.42550 0.52650 0.01400
v -0.42500 0.52500 0.25650
v -0.43833 0.50267 0.29033
v -0.35720 0.30610 -0.01100
v -0.35500 0.29500 0.01400
v -0.35525 0.29650 0.25650
v -0.35464 0.30893 0.29086
v -0.37850 0.41350 -0.01300
v -0.37850 0.41350 0.29200
v -0.35710 0.52000 -0.01100
v -0.33150 0.52650 0.01400
v -0.33200 0.52500 0.25650
v -0.35763 0.51800 0.29075
v -0.37850 0.53650 0.01400
v -0.37850 0.53450 0.25650
v -0.28917 0.35050 -0.01089
v -0.27800 0.34650 0.01400
v -0.27950 0.34725 0.25650
v -0.28937 0.35375 0.29075
v -0.27150 0.43450 -0.01120
v -0.26000 0.43700 0.01400
v -0.26175 0.43650 0.25650
v -0.27300 0.43433 0.29050
v -0.29970 0.49190 -0.01100
v -0.29150 0.50050 0.01400
v -0.29250 0.49900 0.25650
v -0.30083 0.49083 0.29067
v -0.05900 0.36758 -0.13700
v -0.05900 0.36758 -0.10200
v -0.05939 0.37012 -0.03914
v -0.05900 0.45328 -0.13700
v -0.05900 0.45328 -0.10200
v -0.06088 0.43839 -0.04025
v -0.05900 0.46350 -0.13700
v -0.05900 0.46350 -0.10200
v -0.05771 0.46994 -0.03898
v 0.05800 0.36758 -0.13700
v 0.05800 0.36758 -0.10200
v 0.07709 0.37062 -0.04065
v 0.05800 0.45328 -0.13700
v 0.05800 0.45328 -0.10200
v 0.07412 0.43825 -0.04000
v 0.05800 0.46350 -0.13700
v 0.05800 0.46350 -0.10200
v 0.07800 0.46989 -0.04036
v 0.44533 0.37283 0.18833
v 0.45450 0.37270 0.22650
v 0.44802 0.44650 0.19010
v 0.45650 0.45100 0.22750
v 0.50638 0.37187 -0.01887
v 0.50372 0.37217 0.02033
v 0.49168 0.37285 0.18571
v 0.48050 0.37275 0.22737
v 0.50870 0.42430 -0.01635
v 0.50777 0.42457 0.01620
v 0.48980 0.44650 0.18796
v 0.48050 0.44907 0.22714
v 0.53550 0.37450 -0.04900
v 0.53550 0.37450 0.04100
v 0.53550 0.45000 -0.04900
v 0.53550 0.45000 0.04100
usemtl m009
f 1467 1460 1466
f 1462 1460 1467
f 1471 1467 1466
f 1470 1462 1471
f 1466 1460 1462
f 1466 1460 1461
f 1466 1461 1467
f 1471 1463 1470
f 1463 1462 1470
f 1468 1464 1465
f 1469 1465 1464
f 1465 1464 1472
f 1473 1472 1464
f 1469 1468 1474
f 1475 1474 1468
f 1452 1451 1454
f 1455 1454 1457
f 1458 1457 1454
f 1455 1454 1451
f 1456 1453 1444
f 1459 1456 1447
f 1447 1444 1453
f 1450 1447 1456
f 1443 1442 1445
f 1446 1445 1448
f 1449 1448 1445
f 1446 1445 1442
f 1422 1430 1418
f 1422 1418 1408
f 1422 1408 1412
f 1422 1412 1397
f 1422 1397 1401
f 1422 1401 1414
f 1422 1414 1424
f 1422 1424 1438
f 1422 1438 1434
f 1422 1434 1430
f 1434 1435 1431
f 1430 1431 1419
f 1418 1419 1409
f 1408 1409 1398
f 1397 1398 1402
f 1401 1402 1406
f 1405 1406 1415
f 1414 1415 1428
f 1424 1428 1425
f 1424 1425 1439
f 1438 1439 1435
f 1428 1429 1426
f 1415 1416 1429
f 1406 1407 1416
f 1402 1403 1407
f 1398 1399 1403
f 1409 1410 1399
f 1419 1420 1410
f 1431 1432 1420
f 1435 1436 1432
f 1439 1440 1436
f 1425 1426 1440
f 1403 1404 1417
f 1399 1400 1404
f 1399 1413 1400
f 1410 1411 1413
f 1420 1421 1411
f 1432 1433 1421
f 1436 1437 1433
f 1440 1441 1437
f 1426 1427 1441
f 1416 1417 1427
f 1423 1411 1421
f 1423 1421 1433
f 1423 1413 1411
f 1423 1400 1413
f 1423 1433 1437
f 1423 1404 1400
f 1423 1437 1441
f 1423 1417 1404
f 1423 1441 1427
f 1423 1427 1417
f 1471 1462 1467
f 1470 1471 1466
f 1470 1466 1462
f 1469 1468 1465
f 1468 1469 1464
f 1473 1465 1472
f 1465 1473 1464
f 1475 1469 1474
f 1469 1475 1468
f 1455 1452 1454
f 1458 1455 1457
f 1455 1458 1454
f 1452 1455 1451
f 1447 1456 1444
f 1450 1459 1447
f 1456 1447 1453
f 1459 1450 1456
f 1446 1443 1445
f 1449 1446 1448
f 1446 1449 1445
f 1443 1446 1442
f 1414 1401 1405
f 1412 1408 1397
f 1430 1434 1431
f 1418 1430 1419
f 1408 1418 1409
f 1397 1408 1398
f 1401 1397 1402
f 1405 1401 1406
f 1414 1405 1415
f 1424 1414 1428
f 1438 1424 1439
f 1434 1438 1435
f 1425 1428 1426
f 1428 1415 1429
f 1415 1406 1416
f 1406 1402 1407
f 1402 1398 1403
f 1398 1409 1399
f 1409 1419 1410
f 1419 1431 1420
f 1431 1435 1432
f 1435 1439 1436
f 1439 1425 1440
f 1416 1407 1417
f 1407 1403 1417
f 1403 1399 1404
f 1399 1410 1413
f 1410 1420 1411
f 1420 1432 1421
f 1432 1436 1433
f 1436 1440 1437
f 1440 1426 1441
f 1426 1429 1427
f 1429 1416 1427
