# daf_trailer_wheel_3l.obj - ISO 8855 (x ileri, y sol, z yukari), metre
mtllib daf.mtl
o daf_trailer_wheel_3l
v 0.19034 0.19902 -0.42796
v 0.24874 0.19970 -0.39685
v 0.37746 0.19973 -0.28521
v -0.41126 0.20301 -0.19026
v -0.46541 0.20033 0.06514
v 0.44680 0.19727 0.19218
v -0.17138 0.20006 -0.43617
v -0.17369 0.19720 -0.45941
v -0.34326 0.20083 -0.32048
v 0.41275 0.19596 -0.27323
v 0.48280 0.19809 -0.02860
v 0.39050 0.19807 -0.07072
v -0.34610 0.19371 0.10356
v 0.38855 0.19997 0.26360
v -0.39396 0.20290 0.24816
v 0.28125 0.19970 0.37705
v 0.26442 0.19256 0.24530
v -0.18898 0.19183 0.31250
v -0.21965 0.19964 0.41464
v -0.09420 0.19976 0.46019
v 0.19150 0.19950 -0.43000
v 0.19150 0.19950 -0.42900
v 0.21350 0.19950 -0.41900
v 0.21350 0.19950 -0.41800
v 0.23550 0.19950 -0.40800
v 0.46458 0.19483 -0.16536
v -0.48529 0.19457 -0.07499
v -0.36550 0.19950 0.29600
v -0.34950 0.19950 0.31500
v -0.33150 0.19950 0.33200
v -0.30997 0.20060 0.34995
v 0.16510 0.19825 0.44991
v -0.11340 0.19395 0.47961
v 0.17723 0.19402 -0.31538
v -0.46615 0.20047 -0.03286
v -0.13396 0.19776 -0.46635
v 0.02038 0.19766 -0.48460
v 0.14309 0.19977 -0.44683
v 0.21661 0.18814 -0.45911
v -0.44429 0.19935 -0.15433
v -0.03089 0.19756 0.48617
v 0.32038 0.19153 -0.38160
v -0.43551 0.19328 -0.23446
v -0.47502 0.19460 -0.13325
v -0.38478 0.19404 0.30670
v 0.24388 0.19392 0.42813
v -0.24747 0.19341 0.42667
v 0.28497 0.18343 0.43576
v -0.50449 0.18181 -0.14155
v 0.14213 0.19345 -0.47258
v -0.43259 0.19620 0.23303
v 0.39291 0.19552 0.29618
v -0.33996 0.19145 0.36458
v 0.09282 0.19594 0.48015
v -0.02292 0.18512 0.51068
v 0.01611 0.19418 -0.36034
v -0.18868 0.19219 -0.30970
v 0.31273 0.18960 -0.18584
v -0.33974 0.19103 -0.10682
v 0.34776 0.19173 0.07171
v 0.07803 0.19217 0.34978
v 0.38554 0.18682 0.33413
v -0.38821 0.18924 -0.32050
v 0.37533 0.18134 -0.36546
v 0.48754 0.17729 -0.20323
v -0.49242 0.19050 0.05946
v 0.51121 0.18404 -0.07575
v -0.50777 0.17582 0.14744
v -0.45533 0.18107 0.24151
v -0.38456 0.18164 0.34332
v -0.30484 0.18165 0.41577
v -0.30479 0.18155 0.41676
v -0.26935 0.18523 0.43543
v -0.02374 0.17910 0.53106
v -0.14753 0.18428 -0.49496
v -0.28860 0.18049 0.42540
v -0.47100 0.17824 0.23708
v -0.37878 0.18147 0.35245
v -0.34589 0.18109 0.38461
v -0.02327 0.17996 -0.52804
v 0.40881 0.17332 -0.34437
v -0.44511 0.17658 -0.28792
v -0.41109 0.16931 0.33941
v 0.00744 0.17450 -0.31787
v 0.20363 0.17450 -0.25450
v -0.21881 0.17450 -0.23688
v 0.31137 0.17450 -0.09625
v 0.30300 0.17450 0.09825
v -0.31350 0.17450 -0.01694
v 0.16706 0.17450 0.27588
v -0.21300 0.17450 0.24950
v -0.00000 0.17450 0.32700
v 0.52224 0.17592 0.10851
v -0.28901 0.17444 -0.44540
v 0.52547 0.17334 -0.08065
v 0.44325 0.16661 0.30739
v 0.23759 0.16634 0.47773
v 0.03721 0.16667 0.53389
v -0.39312 0.16646 -0.35828
v 0.53078 0.16638 -0.03274
v 0.45230 0.17997 0.27216
v 0.33240 0.16659 0.41485
v -0.47626 0.16557 -0.23881
v -0.17286 0.16678 -0.50753
v -0.04656 0.16541 -0.54821
v -0.00318 0.16661 -0.53207
v 0.07823 0.16669 -0.52625
v 0.19735 0.17076 -0.49646
v -0.22076 0.16550 -0.50234
v 0.23989 0.16512 -0.49644
v 0.21234 0.16663 -0.49164
v 0.28672 0.16690 -0.45122
v 0.38692 0.16582 -0.36498
v -0.40457 0.16528 -0.37356
v 0.43112 0.16568 -0.31227
v 0.44572 0.16786 -0.29269
v -0.46360 0.16473 -0.29768
v 0.47450 0.16550 -0.24200
v 0.50617 0.16766 -0.16300
v 0.52022 0.16574 -0.11303
v -0.51636 0.16593 -0.13029
v 0.52450 0.16550 -0.11100
v 0.52350 0.16550 -0.11100
v 0.52150 0.16550 -0.11100
v 0.52850 0.16550 -0.08400
v 0.52950 0.16550 -0.06950
v 0.52925 0.16566 -0.06010
v -0.54469 0.16479 -0.08590
v 0.54094 0.16522 -0.10886
v -0.52682 0.16653 -0.07553
v -0.53155 0.16697 0.02994
v 0.54359 0.16542 0.02808
v -0.55267 0.16485 0.00699
v -0.54159 0.16507 0.09855
v 0.50744 0.16550 0.16465
v -0.47532 0.16566 0.24295
v 0.29139 0.16503 0.47068
v -0.33832 0.16602 0.41070
v -0.23971 0.16769 0.47817
v 0.15325 0.16731 0.51184
v -0.06685 0.16634 0.52816
v 0.13842 0.16505 0.53649
v -0.52026 0.16509 -0.18604
v -0.50927 0.16391 0.21672
v 0.02835 0.16335 -0.55200
v 0.13565 0.16521 -0.53421
v -0.16954 0.16491 -0.52369
v -0.34112 0.13243 -0.44113
v -0.24291 0.16464 -0.49566
v -0.35195 0.16480 -0.42470
v 0.47056 0.16506 -0.28829
v 0.52349 0.16532 -0.17456
v 0.51825 0.16531 0.19412
v 0.05769 0.16529 -0.54798
v -0.08494 0.16508 -0.54475
v 0.36975 0.16526 -0.41139
v 0.55120 0.16241 -0.03636
v 0.49344 0.16152 0.25551
v 0.38699 0.16515 0.39407
v -0.38751 0.16409 0.40053
v -0.25718 0.16528 0.48934
v -0.05966 0.16144 -0.54886
v -0.11447 0.16303 -0.53970
v -0.15204 0.13255 -0.53588
v -0.19794 0.16510 0.51474
v -0.04708 0.16464 0.55268
v -0.48753 0.13192 0.24057
v 0.02348 0.13178 -0.55574
v 0.24508 0.13232 -0.50221
v 0.28723 0.13150 -0.45886
v -0.30399 0.13150 -0.44720
v 0.44058 0.13185 -0.32705
v 0.51121 0.13260 -0.21796
v 0.54049 0.13150 -0.07288
v 0.56492 0.13152 0.00089
v -0.52575 0.13153 -0.22122
v -0.54371 0.13183 0.06207
v 0.46731 0.13175 0.31122
v 0.44079 0.13150 0.31138
v -0.36639 0.13192 0.40717
v 0.21339 0.13213 0.52306
v -0.18138 0.13194 0.51440
v -0.02180 0.13180 0.54368
v 0.01375 0.12250 -0.51987
v 0.24389 0.12250 -0.44986
v -0.17018 0.12250 -0.53073
v -0.14733 0.12250 -0.49675
v -0.34299 0.12250 -0.44161
v 0.48848 0.12250 0.03720
v 0.46144 0.12251 -0.32235
v -0.38872 0.12250 -0.33522
v -0.54421 0.12250 0.12065
v 0.53317 0.12250 0.16187
v 0.16833 0.12250 0.47558
v -0.44195 0.12250 0.22245
v -0.24049 0.12249 0.50936
v -0.17219 0.12250 0.48509
v 0.06711 0.12250 0.55519
v -0.03014 0.08327 -0.55381
v -0.16167 0.08301 -0.53034
v 0.25512 0.12250 -0.49471
v -0.24324 0.08285 -0.49825
v -0.44324 0.08295 -0.33412
v -0.53504 0.12249 -0.17911
v 0.54206 0.08327 -0.11775
v 0.55494 0.08367 -0.03265
v 0.55368 0.12249 -0.06012
v -0.52854 0.08238 0.16480
v -0.44954 0.12250 0.33021
v -0.49980 0.08315 0.24218
v -0.45513 0.08327 0.31645
v 0.38486 0.08304 0.39912
v -0.40114 0.08355 0.38350
v 0.37485 0.12249 0.42447
v 0.15821 0.08368 0.53151
v -0.26020 0.08302 0.48872
v 0.07758 0.08285 0.54991
v -0.09875 0.08335 0.54546
v 0.04798 0.12250 -0.55490
v -0.38420 0.08266 -0.39903
v 0.51646 0.08344 -0.20026
v 0.44016 0.08341 0.33505
v -0.51644 0.13150 -0.16193
v -0.01750 0.08450 -0.52050
v 0.12050 0.08150 -0.50675
v -0.25450 0.08250 -0.45450
v 0.24375 0.08150 -0.45925
v -0.36150 0.08150 -0.37350
v -0.31874 0.08280 -0.45421
v 0.35550 0.08450 -0.38100
v -0.45875 0.08250 -0.24475
v 0.44775 0.08150 -0.26425
v -0.50500 0.08150 -0.13000
v 0.49950 0.08350 -0.15050
v -0.52025 0.08350 -0.03150
v 0.51925 0.08250 -0.03075
v -0.48200 0.08450 0.19750
v 0.48125 0.08300 0.19962
v -0.35300 0.08250 0.38300
v 0.36900 0.08250 0.36825
v -0.24563 0.08350 0.45813
v 0.29750 0.08350 0.42850
v -0.13250 0.08350 0.50400
v -0.02400 0.08550 0.52050
v -0.14075 0.08300 -0.50138
v 0.53652 0.08321 0.14029
v -0.54900 0.08295 0.07696
v 0.51066 0.08343 0.21570
v 0.48450 0.08468 0.27090
v 0.31513 0.08355 0.45660
v 0.11000 0.08400 0.50825
v -0.01106 0.08322 0.55467
v 0.05208 0.08271 -0.55069
v -0.09689 0.08324 -0.54579
v 0.14014 0.08307 -0.53623
v 0.22280 0.08319 -0.50845
v 0.29934 0.08316 -0.46698
v 0.37034 0.08354 -0.41323
v 0.43119 0.08369 -0.34990
v 0.47978 0.08351 -0.27849
v -0.48918 0.08327 -0.26241
v -0.52440 0.08287 -0.18065
v -0.54487 0.08342 -0.09904
v -0.51425 0.08250 0.08225
v -0.55447 0.08352 -0.01290
v 0.55210 0.08405 0.05651
v 0.51400 0.08150 0.09000
v -0.42700 0.08150 0.30000
v 0.44050 0.08150 0.28000
v -0.33467 0.08322 0.44220
v 0.24286 0.08309 0.49892
v 0.22650 0.08350 0.47000
v -0.18176 0.08327 0.52374
v 0.16000 0.07250 -0.49700
v 0.28950 0.07350 -0.43425
v 0.40750 0.07150 -0.32500
v -0.35350 0.07450 -0.38350
v 0.51100 0.07250 -0.10350
v -0.51800 0.07150 -0.05775
v -0.52050 0.07050 0.02550
v 0.41025 0.07350 0.32275
v 0.46177 0.07279 0.30707
v -0.35800 0.07100 0.37825
v -0.09825 0.07150 0.51225
v -0.02983 0.07176 -0.55423
v -0.10879 0.07286 -0.54372
v 0.06467 0.07298 -0.55078
v -0.19255 0.07286 -0.51912
v -0.34496 0.07266 -0.43458
v 0.35050 0.07050 -0.38600
v 0.37391 0.07254 -0.40801
v -0.42013 0.06988 -0.36788
v -0.46281 0.07264 -0.30644
v 0.43543 0.07290 -0.34493
v 0.48373 0.07332 -0.27068
v -0.50242 0.07318 -0.23295
v -0.53319 0.07263 -0.14769
v -0.49275 0.07150 -0.16725
v 0.54361 0.07245 -0.11133
v 0.55578 0.07191 -0.02509
v -0.55411 0.07214 0.02679
v -0.54396 0.07269 0.11074
v 0.55056 0.07187 0.06095
v -0.50250 0.07050 0.13600
v 0.50509 0.07258 0.22962
v -0.48281 0.07275 0.27274
v -0.43418 0.07213 0.34543
v 0.41233 0.07162 0.37213
v -0.37334 0.07172 0.41004
v 0.34413 0.07308 0.43522
v 0.27743 0.07177 0.48208
v -0.22994 0.07268 0.50450
v 0.02312 0.07200 0.51975
v 0.19562 0.07237 0.51910
v -0.15104 0.07311 0.53382
v -0.06274 0.07208 0.55094
v 0.02087 0.07288 0.55284
v 0.10000 0.07250 -0.51150
v -0.02100 0.07350 -0.51950
v 0.23191 0.07291 -0.50371
v 0.21650 0.07250 -0.47450
v -0.15125 0.07350 -0.49850
v -0.26400 0.07350 -0.44875
v 0.47050 0.07050 -0.22175
v -0.43400 0.07150 -0.28625
v 0.52150 0.07250 -0.02225
v 0.51600 0.07450 0.07250
v 0.47350 0.07250 0.21625
v 0.53420 0.07300 0.15067
v -0.45300 0.07300 0.25512
v 0.32400 0.07200 0.40712
v -0.28550 0.07050 0.43600
v 0.18200 0.07250 0.48725
v -0.20925 0.07450 0.47700
v 0.13648 0.06974 -0.54134
v 0.19420 0.03011 -0.52070
v -0.27298 0.07257 -0.48327
v -0.30618 0.03050 -0.46233
v 0.52167 0.07322 -0.19199
v -0.51993 0.07266 0.19324
v -0.23119 0.03033 -0.50579
v 0.30750 0.07280 -0.46207
v 0.43350 0.06461 -0.35221
v -0.55132 0.07370 -0.06826
v -0.54581 0.03094 0.10535
v 0.51262 0.03024 0.21319
v -0.41038 0.03100 0.37353
v 0.11843 0.07076 0.54446
v -0.14758 0.03081 -0.53495
v -0.30441 0.07187 0.46584
v -0.08207 0.03109 -0.54864
v -0.43395 0.03097 -0.34735
v -0.47124 0.03061 -0.29174
v 0.55167 0.03069 -0.06231
v -0.34633 0.03084 0.43325
v 0.27464 0.03084 -0.48168
v -0.37382 0.03070 -0.40926
v 0.40921 0.03063 -0.37437
v 0.46401 0.03085 -0.30404
v -0.50293 0.03072 -0.23475
v 0.50420 0.03036 -0.23109
v 0.53529 0.03108 -0.14490
v -0.53328 0.03057 -0.15266
v -0.55105 0.03043 -0.06658
v 0.55450 0.03017 0.00165
v 0.55033 0.02955 0.06452
v 0.53434 0.02988 0.15022
v -0.46339 0.03077 0.30648
v 0.43386 0.03047 0.34432
v 0.37503 0.03085 0.41033
v 0.30690 0.03039 0.46117
v -0.27335 0.03070 0.48201
v 0.22988 0.03065 0.50496
v 0.14813 0.03059 0.53425
v -0.01605 0.03089 -0.55400
v -0.09000 0.02950 -0.51263
v 0.02175 0.02950 -0.52100
v -0.17900 0.02950 -0.48950
v -0.28775 0.02950 -0.43275
v 0.13687 0.02900 -0.50175
v 0.25475 0.02850 -0.45525
v 0.34436 0.03017 -0.43563
v -0.35400 0.02850 -0.38300
v -0.41450 0.02950 -0.31550
v 0.34725 0.02950 -0.38850
v -0.46775 0.02950 -0.22800
v 0.43288 0.02900 -0.28825
v -0.50950 0.02900 -0.10175
v 0.48838 0.02950 -0.17862
v -0.51975 0.02900 0.03038
v 0.51875 0.02950 -0.04975
v -0.55377 0.03036 0.02019
v -0.50225 0.02950 0.14050
v 0.51025 0.02900 0.10213
v -0.45437 0.03000 0.25250
v -0.52762 0.02980 0.16975
v 0.48550 0.02950 0.19125
v 0.48324 0.03089 0.27450
v 0.46500 0.02950 0.23800
v 0.44500 0.02950 0.27400
v -0.35800 0.03000 0.37725
v 0.38887 0.02950 0.34700
v -0.27263 0.02900 0.44413
v 0.32225 0.02950 0.41050
v -0.18275 0.03050 0.48850
v 0.21675 0.02950 0.47287
v -0.05738 0.02975 0.51706
v 0.10100 0.02950 0.51150
v 0.01950 0.02950 0.52150
v -0.02078 0.02943 0.55418
v 0.04597 0.03056 -0.55203
v 0.11323 0.03076 -0.54370
v -0.50270 0.02938 0.23333
v -0.19374 0.03055 0.51881
v 0.06555 0.02963 0.55072
v -0.11017 0.03065 0.54492
v 0.23846 0.01826 -0.50084
v 0.55219 0.01839 -0.05697
v 0.55457 0.01893 0.03200
v -0.39751 0.01834 0.38697
v 0.18378 0.01847 0.52296
v -0.20070 0.01871 0.51741
v -0.13703 0.01839 0.53733
v -0.03627 0.01900 -0.55332
v 0.02263 0.01900 -0.52100
v 0.11912 0.01900 -0.50687
v -0.06250 0.01950 -0.51700
v 0.22637 0.02000 -0.46850
v -0.20012 0.02000 -0.48050
v 0.31400 0.02000 -0.41637
v 0.40825 0.01950 -0.32375
v -0.31488 0.01950 -0.41337
v 0.47600 0.01950 -0.21000
v -0.42688 0.02000 -0.29625
v -0.51561 0.01559 -0.20779
v -0.47850 0.01950 -0.20750
v 0.51750 0.02000 -0.05200
v -0.50800 0.01950 -0.10975
v 0.51950 0.01950 0.04950
v -0.52100 0.01950 0.01200
v 0.51000 0.01950 0.11025
v -0.51325 0.02050 0.09225
v 0.47412 0.01950 0.21650
v -0.52106 0.01824 0.18593
v 0.41912 0.02000 0.30963
v -0.47562 0.02000 0.20937
v 0.34900 0.01850 0.38800
v -0.40800 0.02000 0.32350
v 0.31525 0.02050 0.41575
v 0.21062 0.01900 0.47550
v -0.30525 0.02000 0.42212
v 0.06338 0.01950 0.51700
v -0.18688 0.01900 0.48513
v -0.04963 0.02000 0.51913
v -0.10149 0.01824 -0.54570
v 0.11234 0.01772 -0.54339
v -0.18610 0.01794 -0.52324
v 0.17885 0.01843 -0.52462
v -0.33579 0.01860 -0.44064
v -0.38655 0.01841 -0.39718
v -0.43074 0.01830 -0.34884
v 0.42662 0.01840 -0.35410
v 0.46566 0.01857 -0.30127
v 0.50697 0.01831 -0.22514
v -0.53036 0.01954 -0.16117
v 0.53544 0.01821 -0.14454
v -0.55441 0.01874 0.00956
v -0.54463 0.01743 0.10515
v 0.51720 0.01888 0.20228
v 0.48052 0.01855 0.27869
v -0.44159 0.01930 0.33599
v 0.43045 0.01846 0.34951
v -0.34866 0.01820 0.43168
v 0.24495 0.01837 0.49762
v -0.07220 0.01838 0.55025
v 0.10468 0.01761 0.54664
v 0.01359 0.01858 0.55477
v 0.03524 0.01977 -0.55317
v -0.26550 0.01822 -0.48737
v 0.38049 0.01787 -0.40340
v -0.48010 0.01923 -0.28185
v -0.54875 0.02022 -0.07813
v 0.30471 0.01782 0.46509
v -0.29684 -0.01846 -0.46893
v 0.31384 0.01825 -0.45734
v -0.42803 -0.01871 -0.35273
v 0.54743 0.01743 0.11302
v -0.27881 0.01835 0.48063
v 0.10100 0.00050 -0.19700
v -0.04700 0.00050 -0.21463
v 0.20138 0.00050 -0.08787
v -0.18925 0.00050 -0.11125
v 0.21163 0.00050 0.06200
v -0.21900 0.00050 0.03450
v 0.12687 0.00050 0.18188
v -0.15650 0.00050 0.15700
v -0.02125 0.00050 0.21900
v -0.13430 -0.01776 -0.53781
v 0.38585 -0.01875 -0.39881
v -0.46908 -0.01793 0.29471
v -0.35386 -0.01898 0.42805
v 0.25913 -0.01851 0.48942
v 0.03555 -0.01898 -0.55365
v -0.05724 -0.01989 -0.55130
v 0.10071 -0.01845 -0.54494
v -0.47626 -0.01850 -0.28307
v 0.47511 -0.01654 -0.29139
v 0.55160 -0.01863 -0.05205
v -0.48741 0.01887 0.26446
v 0.38104 0.01611 0.40847
v -0.08661 -0.01635 0.54995
v 0.31242 -0.01964 -0.45794
v -0.51537 -0.01824 -0.20526
v 0.53820 -0.01812 -0.13658
v -0.54221 -0.01878 -0.11754
v 0.55420 -0.01864 0.03608
v -0.53740 -0.01833 0.13714
v 0.49785 -0.01830 0.24526
v 0.45306 -0.01830 0.32002
v 0.39730 -0.01832 0.38626
v 0.16788 -0.01763 -0.52886
v -0.08888 -0.01900 -0.51187
v 0.03250 -0.01950 -0.52100
v 0.11300 -0.01950 -0.50900
v -0.21612 -0.01900 -0.47375
v 0.20063 -0.01950 -0.48075
v -0.29700 -0.01950 -0.42850
v -0.33000 -0.01950 -0.40450
v -0.38125 -0.01950 -0.35450
v 0.30725 -0.01950 -0.42037
v 0.43155 -0.01812 -0.34867
v -0.44925 -0.01950 -0.26475
v 0.39762 -0.01900 -0.33675
v 0.50955 -0.01888 -0.21964
v -0.49500 -0.02000 -0.16162
v 0.47700 -0.01950 -0.20688
v -0.52025 -0.01950 -0.03200
v -0.51875 -0.01950 0.05000
v 0.51775 -0.01950 -0.04963
v -0.55298 -0.01873 0.05370
v 0.54274 -0.01970 0.11399
v -0.49550 -0.02000 0.16063
v 0.52943 -0.01874 0.16747
v 0.51450 -0.01950 0.08300
v 0.49250 -0.01950 0.17250
v -0.45100 -0.01950 0.26250
v -0.39638 -0.02000 0.33800
v 0.44863 -0.02000 0.26362
v -0.33250 -0.01850 0.40150
v -0.41589 -0.01926 0.36677
v -0.26263 -0.02050 0.44862
v 0.37350 -0.01900 0.36200
v 0.33275 -0.01848 0.44371
v 0.26325 -0.02000 0.45013
v -0.15250 -0.01950 0.49900
v 0.20675 -0.01850 0.47900
v -0.03162 -0.01950 0.51887
v 0.18123 -0.01871 0.52509
v 0.12637 -0.02000 0.50600
v 0.06750 -0.01750 0.51800
v -0.20558 -0.01820 0.51498
v -0.14142 -0.01920 0.53608
v 0.08538 -0.01810 0.54826
v 0.24258 -0.01908 -0.49871
v -0.21842 -0.01818 -0.50934
v -0.36568 -0.01827 -0.41674
v -0.55317 -0.01920 -0.03235
v -0.50818 -0.01872 0.22184
v -0.28188 -0.01853 0.47724
v 0.00212 -0.01812 0.55478
v -0.08898 -0.03149 -0.54639
v 0.08163 -0.02950 -0.51500
v 0.24982 -0.03147 -0.49529
v 0.32416 -0.03152 -0.45035
v 0.54019 -0.03214 -0.13387
v -0.55269 -0.03123 -0.04266
v 0.53553 -0.03225 0.14573
v -0.51100 -0.03154 0.21497
v 0.08666 -0.03075 -0.54919
v 0.01450 -0.03250 -0.52100
v 0.19481 -0.03075 -0.48169
v -0.08213 -0.03000 -0.51338
v 0.32950 -0.03050 -0.40325
v -0.21000 -0.03050 -0.47638
v -0.31500 -0.03000 -0.41475
v 0.41488 -0.03000 -0.31475
v 0.47039 -0.03188 -0.29307
v 0.46425 -0.03050 -0.23800
v -0.40350 -0.03050 -0.32913
v -0.47440 -0.03167 -0.28662
v 0.49575 -0.03050 -0.16275
v -0.46912 -0.03050 -0.22588
v 0.51825 -0.03050 -0.04225
v -0.51363 -0.03050 -0.07975
v 0.50437 -0.02900 0.13213
v -0.53871 -0.03080 0.13137
v -0.51312 -0.03100 0.08375
v 0.47450 -0.03050 0.21750
v 0.42838 -0.03050 0.29650
v -0.46475 -0.03025 0.23281
v 0.33900 -0.03050 0.39437
v 0.43661 -0.03082 0.34184
v -0.39600 -0.02950 0.33900
v -0.35581 -0.03203 0.42529
v -0.34412 -0.03100 0.39088
v 0.23825 -0.03050 0.46400
v -0.27200 -0.02950 0.44500
v 0.15200 -0.03000 0.49813
v -0.19800 -0.03050 0.48250
v 0.25570 -0.03177 0.49322
v 0.00150 -0.03050 0.52175
v -0.10062 -0.03000 0.51138
v -0.08536 -0.03092 0.54986
v -0.17407 -0.03156 -0.52657
v -0.28659 -0.02964 -0.47427
v -0.33855 -0.03095 -0.43854
v -0.42223 -0.03133 -0.35872
v 0.37902 -0.03119 -0.40425
v 0.51166 -0.03148 -0.21431
v -0.51307 -0.03145 -0.21004
v 0.55279 -0.03194 -0.04800
v 0.55455 -0.03163 0.01897
v 0.54863 -0.03103 0.08747
v 0.47489 -0.03173 0.28715
v -0.41892 -0.03170 0.36399
v 0.39800 -0.03228 0.38862
v 0.17035 -0.03039 0.52766
v -0.16980 -0.03086 0.52796
v 0.00390 -0.03174 0.55393
v 0.18362 0.13150 0.50943
v -0.00374 -0.03142 -0.55455
v 0.18187 -0.02861 -0.52782
v -0.23266 -0.03112 -0.50418
v -0.38510 -0.03354 -0.40061
v -0.53902 -0.03183 -0.12506
v -0.55316 -0.03074 0.04503
v -0.54063 -0.07184 0.12491
v 0.51424 -0.03173 0.20862
v -0.47204 -0.03154 0.29218
v 0.32899 -0.03163 0.44798
v -0.30539 -0.03163 0.46237
v -0.16935 -0.03713 -0.22249
v 0.06370 -0.04648 -0.27123
v -0.27784 -0.04130 0.05336
v 0.23958 -0.04346 -0.14816
v 0.27139 -0.04649 0.06437
v -0.13862 -0.04720 0.24184
v 0.18811 -0.04724 0.20622
v 0.02941 -0.04656 0.27693
v -0.12269 -0.07156 -0.54173
v -0.29052 -0.07355 -0.47311
v 0.42225 -0.03126 -0.36189
v 0.42663 -0.07160 -0.35611
v -0.48054 -0.07093 0.28340
v -0.25086 -0.03122 0.49523
v 0.04898 -0.07189 -0.55364
v 0.36080 -0.07296 -0.42250
v -0.55258 -0.07239 -0.04673
v 0.08769 -0.03076 0.54759
v -0.35529 -0.07243 -0.42451
v 0.55304 -0.07274 -0.04238
v -0.21503 -0.07249 0.51063
v 0.12964 -0.07340 0.53994
v 0.52120 -0.07242 -0.18918
v 0.53995 -0.07203 -0.12430
v -0.53954 -0.07287 -0.12977
v 0.55392 -0.07379 0.04293
v 0.52611 -0.07230 0.17522
v 0.49323 -0.07292 0.25376
v 0.36526 -0.07360 0.41792
v 0.29133 -0.07292 0.47161
v -0.29178 -0.07255 0.47142
v -0.04604 -0.07254 0.55492
v 0.13278 -0.07233 -0.53890
v -0.03875 -0.07350 -0.52000
v -0.10000 -0.07350 -0.51250
v 0.05262 -0.07350 -0.51813
v -0.15950 -0.07350 -0.49625
v -0.26237 -0.07400 -0.44975
v 0.17200 -0.07350 -0.49150
v -0.34450 -0.07350 -0.39000
v 0.29925 -0.07350 -0.42638
v -0.42000 -0.07250 -0.30850
v 0.39050 -0.07350 -0.34475
v -0.46375 -0.07350 -0.23800
v 0.49560 -0.07255 -0.24965
v -0.49500 -0.07350 -0.16275
v 0.46387 -0.07400 -0.23513
v -0.51525 -0.07450 -0.08175
v -0.52000 -0.07450 0.03075
v 0.51313 -0.07350 -0.08988
v -0.55265 -0.07226 0.04009
v -0.49450 -0.07400 0.16013
v 0.54344 -0.07323 0.11038
v 0.51825 -0.07325 0.04531
v -0.51329 -0.07240 0.20898
v -0.45600 -0.07350 0.25350
v 0.48488 -0.07400 0.19087
v 0.46221 -0.07344 0.30832
v -0.39600 -0.07400 0.33700
v 0.41438 -0.07350 0.31563
v -0.30775 -0.07350 0.42125
v -0.36110 -0.07291 0.42198
v -0.20875 -0.07450 0.47700
v 0.31788 -0.07400 0.41263
v -0.12300 -0.07350 0.50675
v 0.19838 -0.07400 0.48075
v 0.21007 -0.07245 0.51351
v -0.03225 -0.07350 0.52012
v 0.09025 -0.07350 0.51300
v 0.04509 -0.07377 0.55447
v -0.04363 -0.07282 -0.55323
v 0.21568 -0.07223 -0.51077
v -0.20837 -0.07222 -0.51357
v 0.29185 -0.07249 -0.47212
v -0.41992 -0.07249 -0.36220
v 0.46274 -0.07237 -0.30573
v -0.47129 -0.07227 -0.29321
v -0.51299 -0.07290 -0.21302
v 0.42115 -0.07302 0.36110
v -0.42290 -0.07256 0.35823
v -0.13296 -0.07228 0.53876
v -0.03612 -0.08440 -0.55382
v 0.05449 -0.08415 -0.55164
v -0.12059 -0.08391 -0.54126
v 0.13722 -0.08469 -0.53752
v -0.20498 -0.08466 -0.51436
v 0.21907 -0.08469 -0.50906
v -0.28306 -0.08465 -0.47721
v 0.29614 -0.08478 -0.46929
v 0.36577 -0.08471 -0.41669
v 0.42729 -0.08460 -0.35434
v -0.46768 -0.08388 -0.29864
v 0.47623 -0.08486 -0.28422
v -0.50841 -0.08388 -0.22069
v 0.52971 -0.08387 -0.16239
v -0.53718 -0.08428 -0.13906
v -0.55276 -0.08431 -0.05232
v 0.54924 -0.08382 -0.07745
v -0.55312 -0.08413 0.03505
v 0.53750 -0.08150 0.03300
v 0.54940 -0.08156 0.07735
v -0.51532 -0.08484 0.20630
v 0.51019 -0.08471 0.22011
v -0.42840 -0.08415 0.35244
v 0.41546 -0.08439 0.36711
v 0.37046 -0.08464 0.41333
v -0.29615 -0.08470 0.46935
v -0.21989 -0.08451 0.50991
v 0.24484 -0.08457 0.49735
v -0.13456 -0.08509 0.53820
v 0.16620 -0.08498 0.52898
v 0.08068 -0.08485 0.54891
v -0.05065 -0.08479 0.55248
v 0.01360 -0.08449 0.55423
v 0.09025 -0.08350 -0.51187
v -0.01150 -0.08350 -0.52200
v 0.20800 -0.08350 -0.47825
v -0.10687 -0.08300 -0.50887
v 0.31288 -0.08350 -0.41525
v -0.26375 -0.08350 -0.44775
v -0.41723 -0.08413 -0.36591
v 0.42600 -0.08350 -0.29837
v -0.38938 -0.08350 -0.34425
v 0.49737 -0.08350 -0.15225
v -0.45975 -0.08250 -0.24575
v -0.49563 -0.08350 -0.15938
v 0.52075 -0.08350 -0.03200
v 0.51762 -0.08350 0.06000
v -0.51950 -0.08350 -0.00888
v 0.54956 -0.08222 0.07670
v -0.54103 -0.08425 0.12309
v 0.47700 -0.08350 0.20725
v -0.49687 -0.08350 0.15250
v 0.42900 -0.08350 0.29750
v 0.36925 -0.08350 0.36725
v -0.42600 -0.08300 0.29787
v 0.26438 -0.08350 0.44800
v -0.34650 -0.08250 0.39025
v -0.27063 -0.08350 0.44500
v 0.15250 -0.08350 0.49900
v -0.16950 -0.08350 0.49350
v 0.04250 -0.08350 0.51925
v -0.06013 -0.08300 0.51737
v -0.35294 -0.08389 -0.42731
v 0.55463 -0.08439 0.00818
v 0.54950 -0.08550 0.07200
v 0.46873 -0.08467 0.29576
v 0.53789 -0.08454 0.13741
v -0.36574 -0.08467 0.41713
v 0.31867 -0.08439 0.45454
v 0.50719 -0.08455 -0.22454
v 0.54950 -0.08550 0.07200
v -0.47802 -0.08447 0.28221
v 0.50739 -0.12351 0.24086
v -0.21889 -0.12349 0.52640
v 0.32667 -0.12349 0.45196
v -0.00276 -0.17647 -0.33628
v 0.17028 -0.17644 -0.29141
v -0.30227 -0.17644 -0.14496
v 0.31166 -0.17628 -0.13423
v 0.24610 -0.17646 0.22938
v -0.13097 -0.12350 -0.54739
v -0.12988 -0.12350 -0.50400
v 0.08581 -0.12350 -0.51028
v -0.33795 -0.12350 -0.37716
v 0.14318 -0.12350 -0.53900
v -0.41398 -0.12350 -0.37665
v 0.35522 -0.12350 -0.43027
v -0.48856 -0.12350 -0.15028
v 0.33986 -0.12350 -0.37977
v -0.53248 -0.12350 -0.16191
v 0.53957 -0.12351 -0.17242
v 0.47700 -0.12350 -0.20988
v -0.55842 -0.12350 0.05701
v -0.40777 -0.12350 0.27372
v 0.54950 -0.12350 0.07800
v 0.54550 -0.12350 0.09900
v -0.45980 -0.12350 0.31800
v 0.48105 -0.12350 0.11538
v -0.00447 -0.12350 0.50544
v 0.32170 -0.12350 0.39934
v 0.09869 -0.12350 0.54840
v -0.15324 -0.13205 -0.52582
v -0.29919 -0.13216 -0.45899
v 0.38985 -0.13150 -0.37545
v -0.49025 -0.13194 -0.25946
v -0.52267 -0.13164 -0.14330
v 0.54164 -0.13150 -0.01140
v -0.53274 -0.13150 0.09554
v 0.38998 -0.13184 0.38108
v 0.20880 -0.13150 0.49757
v -0.34883 -0.13193 0.41605
v -0.23698 -0.13210 0.50341
v -0.12580 -0.13150 0.52859
v 0.16062 -0.13176 0.53148
v -0.08075 -0.13194 -0.53711
v 0.13949 -0.13179 -0.53265
v 0.42414 -0.13210 -0.36634
v 0.54426 -0.13182 -0.09499
v -0.55068 -0.13152 0.09702
v -0.45210 -0.13200 0.30635
v 0.36328 -0.16609 -0.41470
v 0.51485 -0.16613 -0.19591
v -0.54025 -0.16279 0.11157
v 0.53428 -0.13154 0.15123
v -0.53950 -0.16150 0.11500
v -0.53250 -0.16150 0.14300
v 0.53242 -0.16597 0.14472
v 0.50062 -0.16563 0.23348
v -0.52367 -0.16241 0.17349
v 0.47749 -0.13188 0.27447
v -0.28041 -0.16547 0.47809
v 0.26481 -0.13183 -0.48736
v 0.23824 -0.16578 -0.49937
v -0.45581 -0.16538 -0.31000
v 0.55419 -0.13952 0.05365
v -0.53250 -0.16250 0.14300
v -0.52450 -0.16250 0.17100
v -0.03273 -0.13218 0.55795
v -0.52030 -0.16633 0.17919
v 0.03656 -0.16653 -0.54776
v -0.18092 -0.16560 -0.52391
v 0.12663 -0.16611 -0.53342
v -0.31519 -0.16586 -0.45174
v -0.36707 -0.16621 -0.41072
v -0.41016 -0.16595 -0.36783
v 0.46244 -0.16569 -0.30213
v -0.50251 -0.16608 -0.22796
v -0.54347 -0.16622 -0.09443
v 0.53959 -0.16581 -0.11349
v -0.55119 -0.16607 0.03605
v 0.55054 -0.16636 -0.02732
v 0.53400 -0.16650 0.06694
v 0.50521 -0.16720 0.17778
v -0.45832 -0.16614 0.30713
v 0.37942 -0.16621 0.39968
v 0.33277 -0.15243 0.44436
v 0.25670 -0.16625 0.48909
v -0.11998 -0.16544 0.53988
v 0.09284 -0.16616 0.54379
v 0.21414 -0.16655 -0.48945
v 0.36020 -0.16928 -0.39669
v -0.27922 -0.16679 -0.45417
v -0.41475 -0.16621 0.35704
v -0.02953 -0.16756 0.53615
v 0.45445 -0.16951 -0.27949
v 0.48369 -0.16946 -0.21942
v -0.11966 -0.17034 0.52180
v 0.08781 -0.16955 -0.52753
v -0.32111 -0.17032 -0.42597
v -0.48801 -0.16951 -0.22176
v 0.51539 -0.18450 -0.10033
v 0.51194 -0.17467 -0.14358
v -0.30855 -0.16954 0.43529
v 0.24735 -0.16791 0.47324
v -0.07650 -0.17550 -0.31850
v 0.02175 -0.17550 -0.32650
v -0.18475 -0.17550 -0.26950
v 0.14938 -0.17550 -0.28775
v -0.24350 -0.17550 -0.22000
v -0.27250 -0.17550 -0.18200
v -0.31975 -0.17550 0.02297
v 0.32050 -0.17550 -0.05050
v 0.31250 -0.17550 0.10200
v 0.30050 -0.17550 0.13400
v -0.27500 -0.17550 0.17850
v -0.20600 -0.17550 0.25500
v -0.03450 -0.17550 0.32700
v 0.21900 -0.17550 0.24300
v -0.25882 -0.18139 0.45101
v -0.23717 -0.16854 0.47775
v 0.14262 -0.16852 0.52027
v 0.19543 -0.17692 -0.49563
v -0.18665 -0.17637 -0.28217
v -0.33557 -0.17639 0.04090
v 0.53204 -0.17002 0.03826
v -0.53308 -0.16977 -0.03962
v 0.33546 -0.17644 0.05356
v -0.24899 -0.17648 0.22873
v 0.40724 -0.16669 0.36541
v -0.09314 -0.17648 0.32218
v 0.40404 -0.16981 0.34681
v 0.09195 -0.17634 0.32548
v 0.16770 -0.18101 0.49612
v -0.12297 -0.17040 -0.52401
v 0.52641 -0.16884 -0.09360
v -0.49434 -0.16791 0.21647
v 0.50534 -0.17998 0.15152
v -0.48516 -0.18173 0.19384
v 0.41598 -0.18401 0.31000
v 0.37259 -0.17577 0.37590
v 0.22733 -0.18166 0.46412
v 0.13892 -0.18146 -0.50641
v -0.15652 -0.18208 -0.49398
v -0.30045 -0.18174 -0.42183
v -0.39257 -0.17366 -0.35463
v -0.51687 -0.17816 0.08613
v -0.43756 -0.17403 0.30190
v 0.35240 -0.19154 0.08492
v -0.51217 -0.18229 -0.07001
v -0.35473 -0.19351 0.07046
v 0.02910 -0.18795 0.35775
v 0.32691 -0.17480 0.41592
v -0.01488 -0.18167 0.51876
v -0.45202 -0.18143 -0.25438
v -0.15036 -0.19609 0.46443
v -0.19000 -0.18983 -0.30443
v 0.30282 -0.18684 -0.18330
v -0.33043 -0.18972 -0.12183
v 0.24591 -0.19405 0.26206
v -0.20455 -0.19283 0.30459
v 0.08072 -0.19376 -0.49118
v 0.30006 -0.19740 -0.38160
v -0.40960 -0.19729 -0.25420
v 0.38612 -0.19829 -0.27543
v 0.43928 -0.19403 -0.22520
v 0.49834 -0.19309 -0.01843
v -0.46892 -0.19399 -0.14982
v -0.48166 -0.19350 -0.10140
v -0.47548 -0.19634 0.10563
v 0.39891 -0.19424 0.29052
v 0.37526 -0.19889 0.30290
v -0.34284 -0.19369 0.35509
v -0.44655 -0.18667 0.24429
v 0.24543 -0.19455 0.42830
v -0.31705 -0.19390 -0.37825
v 0.38908 -0.18211 -0.34516
v -0.48812 -0.18678 -0.13943
v 0.49772 -0.18897 0.08554
v -0.41743 -0.19948 0.22185
v -0.31912 -0.20087 0.35082
v -0.04896 -0.19296 -0.49529
v 0.15337 -0.20066 -0.44903
v -0.10139 -0.20041 -0.45921
v -0.23682 -0.19735 -0.41550
v 0.45590 -0.19996 -0.11980
v 0.13393 -0.20273 0.45439
v -0.13130 -0.20006 0.45511
v 0.03083 -0.19985 -0.47147
v 0.03098 -0.19438 -0.36043
v -0.35089 -0.20307 -0.25514
v 0.24256 -0.20176 -0.30199
v -0.43644 -0.19863 -0.18842
v -0.47260 -0.20032 -0.03274
v 0.41438 -0.20150 -0.07407
v 0.44606 -0.19923 0.17951
v 0.47154 -0.20049 -0.03369
v 0.06367 -0.19419 0.48730
v -0.40989 -0.20069 -0.22569
usemtl m000
f 28 29 29
f 795 818 742
f 29 30 15
f 23 21 22
f 24 22 1
f 40 27 35
f 53 47 33
f 39 50 23
f 76 73 47
f 74 55 41
f 55 48 54
f 39 80 50
f 53 71 76
f 71 72 76
f 77 78 70
f 79 72 71
f 488 501 569
f 158 159 178
f 154 169 168
f 163 155 162
f 164 109 147
f 149 109 164
f 196 209 213
f 125 126 129
f 122 123 125
f 123 120 124
f 105 104 106
f 124 120 127
f 81 116 113
f 861 859 858
f 923 877 944
f 139 83 138
f 13 91 89
f 18 92 91
f 61 90 92
f 17 88 90
f 58 87 88
f 58 85 87
f 34 84 85
f 57 86 84
f 59 89 86
f 119 116 65
f 120 119 95
f 127 120 100
f 151 115 116
f 118 116 119
f 152 119 120
f 123 124 126
f 126 124 127
f 126 127 129
f 129 127 100
f 153 132 135
f 106 107 154
f 154 107 146
f 122 125 129
f 140 98 142
f 128 133 143
f 147 109 104
f 134 68 133
f 145 105 154
f 142 137 97
f 105 145 162
f 153 96 158
f 49 131 68
f 96 101 62
f 10 42 3
f 6 67 11
f 46 62 16
f 47 73 33
f 27 66 5
f 36 8 7
f 907 952 942
f 21 38 1
f 25 23 24
f 909 943 952
f 29 45 30
f 807 803 724
f 910 951 943
f 910 940 951
f 728 809 807
f 904 949 940
f 732 813 809
f 900 983 949
f 900 981 983
f 786 817 813
f 897 948 981
f 771 818 817
f 742 818 771
f 902 950 948
f 746 795 788
f 903 942 950
f 750 823 797
f 755 796 823
f 743 815 819
f 738 812 815
f 735 808 812
f 729 803 808
f 803 807 805
f 807 809 811
f 809 813 811
f 813 817 820
f 817 818 820
f 818 795 820
f 795 797 822
f 797 823 822
f 823 796 821
f 796 819 816
f 819 815 816
f 815 812 810
f 812 808 810
f 989 947 979
f 808 803 806
f 958 970 987
f 726 724 756
f 893 958 977
f 728 726 756
f 730 728 758
f 731 730 760
f 732 731 760
f 973 953 980
f 734 732 763
f 792 734 763
f 736 792 765
f 739 736 765
f 786 739 768
f 741 786 769
f 787 741 769
f 793 786 741
f 742 787 769
f 771 793 787
f 789 742 769
f 744 789 773
f 788 744 773
f 746 788 775
f 747 746 776
f 791 747 776
f 750 791 778
f 752 750 778
f 968 957 956
f 753 752 781
f 755 753 783
f 754 755 783
f 751 754 784
f 749 751 782
f 748 749 780
f 960 959 985
f 790 748 780
f 745 790 779
f 911 965 964
f 794 745 777
f 743 794 777
f 772 743 774
f 740 772 770
f 931 933 966
f 738 740 770
f 737 738 770
f 735 737 767
f 733 735 766
f 934 968 954
f 762 733 764
f 785 762 764
f 973 934 953
f 729 785 761
f 727 729 761
f 725 727 759
f 969 946 959
f 723 725 759
f 724 723 757
f 626 699 624
f 930 928 938
f 913 889 945
f 923 932 931
f 929 875 931
f 927 917 893
f 883 887 968
f 934 883 968
f 937 891 936
f 579 631 572
f 632 579 572
f 918 892 969
f 573 632 581
f 859 851 848
f 858 848 847
f 861 858 845
f 876 842 928
f 574 573 581
f 618 574 583
f 652 618 583
f 587 652 586
f 619 587 588
f 575 619 591
f 621 575 593
f 873 840 857
f 622 621 593
f 623 622 593
f 577 623 595
f 638 577 595
f 624 638 598
f 602 624 599
f 626 602 601
f 640 626 601
f 610 640 601
f 627 610 606
f 659 627 608
f 629 659 611
f 613 629 611
f 628 613 612
f 655 628 609
f 641 655 607
f 604 641 607
f 625 604 605
f 639 625 603
f 578 639 600
f 596 578 600
f 636 596 597
f 576 636 597
f 635 576 594
f 620 635 594
f 590 620 592
f 617 590 589
f 634 617 589
f 616 634 585
f 615 616 585
f 633 615 584
f 614 633 584
f 571 614 582
f 873 857 849
f 631 571 582
f 891 866 865
f 939 876 928
f 895 853 885
f 912 889 853
f 703 604 625
f 655 703 672
f 896 879 913
f 923 921 877
f 875 850 921
f 627 708 610
f 670 610 671
f 883 882 843
f 890 862 864
f 937 867 866
f 621 667 661
f 587 717 653
f 650 712 675
f 714 650 678
f 651 714 679
f 660 651 681
f 716 660 681
f 718 716 683
f 719 718 685
f 666 719 687
f 658 666 689
f 692 658 690
f 637 692 690
f 696 637 693
f 654 696 693
f 721 654 700
f 703 721 700
f 672 703 702
f 178 181 179
f 662 672 704
f 722 662 704
f 173 175 174
f 673 722 706
f 711 673 709
f 169 172 170
f 663 711 710
f 708 663 707
f 148 164 171
f 671 708 707
f 670 671 705
f 720 670 701
f 699 720 701
f 144 134 177
f 167 144 177
f 669 699 701
f 160 144 167
f 668 669 698
f 165 161 182
f 694 668 698
f 166 165 182
f 667 694 695
f 181 166 183
f 142 166 181
f 661 667 695
f 665 661 691
f 664 665 691
f 175 158 178
f 686 664 688
f 157 132 175
f 717 686 688
f 152 129 175
f 173 152 175
f 653 717 688
f 172 151 173
f 169 156 172
f 657 653 684
f 715 657 682
f 162 145 168
f 713 715 682
f 148 149 164
f 674 713 680
f 114 150 148
f 176 114 148
f 656 674 677
f 143 117 176
f 128 143 176
f 712 656 677
f 133 176 177
f 485 564 417
f 531 499 480
f 835 183 182
f 827 171 825
f 830 177 223
f 834 835 833
f 878 831 832
f 857 829 852
f 566 481 461
f 566 486 481
f 854 838 826
f 456 478 425
f 458 456 426
f 417 458 428
f 485 417 428
f 841 830 828
f 480 485 430
f 876 885 842
f 462 480 431
f 463 462 431
f 853 880 834
f 464 463 433
f 466 464 433
f 913 879 836
f 418 466 437
f 419 418 437
f 487 419 439
f 469 487 441
f 470 469 443
f 472 470 445
f 864 838 855
f 510 472 445
f 863 837 862
f 483 510 449
f 867 827 825
f 474 483 450
f 421 474 450
f 870 828 827
f 870 841 828
f 476 421 450
f 477 476 452
f 648 646 493
f 475 477 454
f 649 648 495
f 423 475 454
f 647 649 497
f 422 423 453
f 644 647 496
f 488 422 453
f 473 488 451
f 642 644 492
f 420 473 451
f 471 420 448
f 643 642 490
f 509 471 446
f 645 643 489
f 444 509 446
f 468 444 446
f 646 645 491
f 467 468 442
f 802 919 646
f 924 802 648
f 482 467 438
f 922 924 649
f 465 482 438
f 920 922 647
f 435 465 438
f 481 435 436
f 916 920 644
f 461 481 434
f 800 916 644
f 915 800 642
f 460 461 434
f 459 460 432
f 798 915 642
f 479 459 432
f 799 798 643
f 457 479 429
f 801 799 645
f 455 457 429
f 919 801 646
f 424 455 427
f 802 924 919
f 478 424 425
f 919 922 920
f 484 457 565
f 916 800 920
f 800 915 920
f 798 799 920
f 799 919 920
f 199 253 224
f 467 482 567
f 253 255 225
f 568 468 517
f 255 256 227
f 256 257 227
f 257 258 230
f 258 259 230
f 259 260 232
f 260 221 232
f 221 205 234
f 205 206 236
f 206 266 236
f 266 246 267
f 469 470 519
f 246 248 238
f 248 249 238
f 543 541 487
f 249 222 269
f 487 508 418
f 222 212 240
f 212 250 242
f 250 271 272
f 271 215 272
f 485 499 512
f 215 217 251
f 217 252 251
f 252 218 244
f 498 504 522
f 218 273 243
f 565 498 522
f 273 216 241
f 484 565 525
f 216 270 241
f 566 484 527
f 270 213 239
f 486 566 529
f 213 211 268
f 506 486 529
f 211 210 268
f 513 506 532
f 210 208 237
f 515 513 535
f 208 247 264
f 247 265 264
f 567 515 537
f 540 567 537
f 265 263 235
f 517 540 538
f 263 262 233
f 568 517 542
f 262 261 231
f 500 568 546
f 261 203 231
f 550 500 547
f 203 220 228
f 501 550 549
f 220 229 228
f 569 501 551
f 229 202 226
f 561 569 551
f 202 200 245
f 562 561 555
f 200 254 245
f 511 562 557
f 254 199 245
f 570 511 557
f 201 219 185
f 563 570 557
f 190 201 185
f 558 563 559
f 502 558 556
f 207 190 189
f 553 502 554
f 193 207 189
f 520 553 552
f 519 520 552
f 214 193 189
f 518 519 548
f 543 518 548
f 198 214 194
f 541 543 544
f 516 541 544
f 196 198 197
f 508 516 539
f 514 508 539
f 209 196 195
f 534 514 536
f 192 209 195
f 507 534 536
f 531 507 533
f 204 192 195
f 499 531 533
f 512 499 530
f 188 204 191
f 564 512 526
f 186 188 187
f 521 564 526
f 505 521 524
f 219 186 184
f 503 505 524
f 219 253 199
f 504 503 522
f 219 255 253
f 255 219 201
f 201 256 255
f 256 201 257
f 258 201 190
f 260 190 221
f 205 190 207
f 207 266 206
f 266 207 193
f 193 248 246
f 249 193 214
f 249 214 222
f 214 212 222
f 214 271 250
f 215 214 198
f 311 348 373
f 218 198 196
f 216 196 270
f 210 209 192
f 192 247 208
f 192 265 247
f 265 192 204
f 204 263 265
f 204 262 263
f 204 261 262
f 351 375 376
f 204 203 261
f 349 351 376
f 203 204 188
f 203 188 220
f 341 349 378
f 338 341 379
f 188 186 202
f 357 338 379
f 186 254 200
f 352 357 383
f 186 219 199
f 353 352 384
f 285 286 319
f 360 353 386
f 286 288 322
f 363 360 386
f 288 337 323
f 364 363 388
f 337 289 323
f 392 364 388
f 289 292 277
f 345 392 390
f 292 293 325
f 396 345 393
f 413 396 395
f 293 296 325
f 368 413 395
f 296 297 298
f 347 368 395
f 297 344 298
f 355 347 401
f 344 301 279
f 372 355 403
f 301 302 280
f 414 372 403
f 302 340 304
f 416 414 405
f 340 306 330
f 410 416 407
f 306 307 330
f 415 410 409
f 307 309 283
f 374 415 408
f 309 350 283
f 373 374 406
f 350 312 334
f 371 373 406
f 312 315 334
f 370 371 404
f 315 316 284
f 369 370 402
f 316 317 313
f 398 369 402
f 317 348 313
f 346 398 399
f 348 314 333
f 367 346 397
f 314 311 333
f 366 367 394
f 311 310 331
f 365 366 391
f 354 365 391
f 310 308 331
f 362 354 391
f 308 282 281
f 361 362 389
f 282 305 328
f 359 361 387
f 305 329 328
f 358 359 387
f 329 303 327
f 382 358 385
f 303 300 326
f 356 382 385
f 300 299 278
f 336 356 381
f 299 339 278
f 412 336 380
f 339 295 324
f 411 412 380
f 295 294 276
f 375 411 377
f 294 291 276
f 291 342 290
f 342 320 275
f 382 356 342
f 343 342 291
f 320 335 274
f 294 343 291
f 335 287 318
f 287 285 319
f 335 375 285
f 288 286 349
f 346 367 329
f 341 338 289
f 282 398 305
f 398 282 308
f 292 360 296
f 360 363 297
f 410 415 317
f 416 410 316
f 307 347 309
f 726 807 724
f 728 807 726
f 730 809 728
f 731 809 730
f 732 809 731
f 734 813 732
f 792 813 734
f 739 813 736
f 786 813 739
f 15 28 29
f 793 817 786
f 789 795 742
f 30 45 31
f 15 30 31
f 744 795 789
f 788 795 744
f 747 797 746
f 791 797 747
f 750 797 791
f 19 33 20
f 752 823 750
f 753 823 752
f 755 823 753
f 754 796 755
f 751 796 754
f 749 796 751
f 748 796 749
f 790 796 748
f 745 819 790
f 794 819 745
f 743 819 794
f 772 815 743
f 740 815 772
f 738 815 740
f 737 812 738
f 735 812 737
f 733 808 735
f 762 808 733
f 785 808 762
f 729 808 785
f 727 803 729
f 725 803 727
f 723 803 725
f 724 803 723
f 3 39 2
f 24 23 22
f 2 24 1
f 35 27 5
f 15 51 45
f 28 45 29
f 15 45 28
f 45 53 31
f 19 53 33
f 20 33 41
f 16 62 52
f 14 52 6
f 2 39 25
f 23 50 21
f 25 39 23
f 21 50 38
f 579 656 631
f 619 575 686
f 8 63 9
f 638 668 577
f 9 63 4
f 640 610 670
f 673 629 613
f 27 49 66
f 641 703 655
f 639 654 625
f 596 637 654
f 590 718 620
f 616 615 651
f 571 712 650
f 54 48 32
f 37 75 36
f 66 68 51
f 51 69 45
f 45 77 53
f 651 615 633
f 53 76 47
f 716 718 634
f 658 636 576
f 33 74 41
f 671 610 708
f 640 670 626
f 52 101 6
f 6 101 67
f 657 715 632
f 713 579 632
f 11 67 26
f 579 674 656
f 10 64 42
f 36 75 8
f 8 75 94
f 8 94 63
f 43 82 49
f 43 49 44
f 44 49 27
f 77 70 53
f 70 78 53
f 76 72 73
f 463 464 507
f 507 466 514
f 419 487 418
f 67 65 10
f 475 511 477
f 471 550 501
f 444 468 568
f 481 506 435
f 479 457 484
f 478 503 424
f 49 68 66
f 68 77 69
f 72 83 139
f 78 79 71
f 72 139 73
f 74 140 48
f 62 48 96
f 101 93 67
f 65 81 64
f 42 64 39
f 39 64 108
f 517 468 540
f 94 82 63
f 502 483 558
f 483 520 510
f 514 534 507
f 485 512 564
f 505 456 521
f 181 137 142
f 175 132 153
f 173 151 152
f 172 156 151
f 169 108 110
f 154 146 169
f 145 154 168
f 150 149 148
f 176 117 114
f 144 136 134
f 289 357 352
f 392 301 364
f 368 340 413
f 368 347 307
f 365 354 300
f 155 104 105
f 160 136 144
f 161 138 160
f 165 139 161
f 135 96 153
f 312 350 416
f 306 340 368
f 302 345 340
f 150 109 149
f 288 349 341
f 143 103 117
f 202 186 200
f 218 196 273
f 217 198 252
f 212 214 250
f 266 193 246
f 259 190 260
f 258 190 259
f 257 201 258
f 161 139 138
f 165 141 139
f 166 141 165
f 166 98 141
f 137 159 96
f 132 129 100
f 122 120 123
f 152 120 122
f 152 116 118
f 151 156 115
f 156 110 112
f 110 108 111
f 146 107 108
f 109 94 104
f 143 121 103
f 143 130 121
f 141 74 139
f 799 801 919
f 920 915 798
f 919 924 922
f 135 93 96
f 132 93 135
f 863 825 824
f 868 843 839
f 850 849 846
f 921 850 852
f 877 921 831
f 851 928 841
f 848 851 841
f 845 847 841
f 56 37 36
f 164 163 162
f 5 51 15
f 77 68 136
f 83 77 136
f 98 74 141
f 824 171 168
f 100 93 132
f 100 95 93
f 120 95 100
f 831 181 630
f 113 116 115
f 884 891 865
f 106 80 107
f 104 80 106
f 104 75 80
f 944 877 878
f 99 82 94
f 896 944 879
f 103 49 82
f 121 49 103
f 130 49 121
f 59 86 57
f 57 84 56
f 56 84 34
f 34 85 58
f 58 88 60
f 60 88 17
f 889 880 853
f 17 90 61
f 61 92 18
f 18 91 13
f 13 89 4
f 4 89 59
f 936 891 926
f 931 921 923
f 933 896 925
f 913 886 889
f 140 74 98
f 97 48 140
f 102 48 97
f 96 48 102
f 96 93 101
f 119 67 95
f 946 937 955
f 131 49 130
f 960 969 959
f 939 885 876
f 917 873 874
f 844 888 887
f 883 843 887
f 882 864 855
f 891 937 866
f 892 918 870
f 918 872 870
f 927 888 844
f 894 888 927
f 883 914 882
f 914 890 882
f 890 864 882
f 9 59 57
f 883 934 914
f 12 58 60
f 939 895 885
f 54 17 61
f 3 34 58
f 15 18 13
f 8 9 57
f 35 13 4
f 926 891 884
f 930 939 928
f 929 917 875
f 932 923 944
f 925 896 913
f 894 893 888
f 5 13 35
f 40 35 4
f 4 59 9
f 917 927 873
f 8 57 7
f 7 57 56
f 7 56 36
f 37 56 34
f 37 34 38
f 1 38 34
f 938 928 861
f 1 34 2
f 3 2 34
f 3 58 12
f 107 80 108
f 3 12 10
f 64 81 112
f 10 12 11
f 119 65 67
f 11 12 6
f 6 12 60
f 14 6 60
f 14 60 17
f 14 17 52
f 52 17 16
f 16 17 32
f 32 17 54
f 54 61 41
f 41 61 18
f 41 18 20
f 20 18 19
f 19 18 31
f 31 18 15
f 5 15 13
f 112 81 113
f 116 81 65
f 911 912 895
f 911 889 912
f 931 875 921
f 927 893 894
f 893 887 888
f 117 103 82
f 111 108 112
f 134 136 68
f 133 131 130
f 114 82 99
f 114 99 94
f 154 105 106
f 110 111 112
f 156 112 113
f 156 113 115
f 152 151 116
f 152 118 119
f 125 123 126
f 137 96 102
f 137 102 97
f 133 130 143
f 117 82 114
f 914 934 890
f 934 926 890
f 926 862 890
f 152 122 129
f 937 946 892
f 142 98 166
f 138 83 160
f 160 83 136
f 68 131 133
f 150 114 94
f 150 94 109
f 155 147 104
f 142 97 140
f 163 147 155
f 157 129 132
f 942 972 985
f 972 971 985
f 164 147 163
f 155 105 162
f 169 146 108
f 169 110 156
f 972 952 979
f 158 96 159
f 178 159 137
f 952 978 979
f 978 951 963
f 75 104 94
f 951 940 963
f 64 112 108
f 940 986 963
f 986 987 963
f 93 95 67
f 986 954 977
f 73 139 74
f 986 983 954
f 79 83 72
f 78 83 79
f 77 83 78
f 983 981 974
f 39 108 80
f 981 975 974
f 10 65 64
f 981 948 975
f 948 982 975
f 982 990 955
f 990 982 985
f 53 78 71
f 982 942 985
f 63 82 43
f 942 952 972
f 37 80 75
f 50 80 37
f 26 67 10
f 62 101 52
f 46 48 62
f 55 74 48
f 952 943 978
f 73 74 33
f 69 77 45
f 51 68 69
f 943 951 978
f 43 44 27
f 940 949 986
f 32 48 46
f 986 949 983
f 40 43 27
f 4 43 40
f 63 43 4
f 38 50 37
f 3 42 39
f 32 46 16
f 41 55 54
f 948 950 982
f 950 942 982
f 5 66 51
f 903 907 942
f 22 21 1
f 2 25 24
f 907 908 952
f 11 26 10
f 908 909 952
f 31 53 19
f 909 910 943
f 29 29 30
f 910 906 940
f 906 905 940
f 905 904 940
f 904 900 949
f 792 736 813
f 900 898 981
f 898 897 981
f 793 771 817
f 897 899 948
f 899 901 948
f 901 902 948
f 902 903 950
f 795 746 797
f 978 989 979
f 796 790 819
f 986 977 987
f 954 956 977
f 983 974 954
f 982 976 975
f 955 976 982
f 985 984 990
f 971 961 985
f 979 947 972
f 805 807 811
f 811 813 814
f 814 813 820
f 977 988 987
f 820 795 822
f 822 823 821
f 975 980 974
f 976 973 975
f 821 796 816
f 816 815 810
f 972 965 971
f 810 808 806
f 966 989 978
f 963 966 978
f 806 803 804
f 804 803 805
f 970 931 987
f 988 958 987
f 977 958 988
f 758 728 756
f 956 893 977
f 760 730 758
f 974 953 954
f 980 953 974
f 763 732 760
f 975 973 980
f 765 792 763
f 990 984 955
f 961 969 985
f 768 739 765
f 769 786 768
f 787 793 741
f 964 965 972
f 742 771 787
f 773 789 769
f 775 788 773
f 776 746 775
f 987 962 963
f 778 791 776
f 956 957 893
f 781 752 778
f 783 753 781
f 784 754 783
f 782 751 784
f 955 967 976
f 780 749 782
f 985 959 984
f 969 960 985
f 779 790 780
f 965 938 961
f 971 965 961
f 777 745 779
f 972 911 964
f 947 911 972
f 945 911 947
f 774 743 777
f 989 945 947
f 933 925 989
f 966 933 989
f 770 772 774
f 931 944 933
f 963 931 966
f 962 931 963
f 987 931 962
f 767 737 770
f 968 893 957
f 766 735 767
f 954 968 956
f 764 733 766
f 953 934 954
f 761 785 764
f 976 936 973
f 967 936 976
f 955 936 967
f 955 937 936
f 759 727 761
f 984 946 955
f 959 946 984
f 961 938 969
f 965 930 938
f 757 723 759
f 756 724 757
f 911 939 965
f 574 657 573
f 657 632 573
f 925 945 989
f 618 657 574
f 652 657 618
f 587 653 652
f 619 686 587
f 970 929 931
f 958 893 970
f 622 667 621
f 623 667 622
f 623 577 667
f 624 699 638
f 602 626 624
f 936 935 973
f 659 711 627
f 711 663 627
f 629 673 659
f 938 941 969
f 628 722 613
f 628 662 722
f 965 939 930
f 655 662 628
f 911 895 939
f 604 703 641
f 945 889 911
f 925 913 945
f 578 654 639
f 944 896 933
f 596 654 578
f 931 932 944
f 636 637 596
f 970 917 929
f 893 917 970
f 635 666 576
f 635 719 666
f 620 719 635
f 968 887 893
f 617 634 590
f 634 718 590
f 616 651 634
f 973 926 934
f 935 926 973
f 650 633 614
f 571 650 614
f 936 926 935
f 631 712 571
f 969 892 946
f 581 632 572
f 941 918 969
f 938 918 941
f 858 859 848
f 845 858 847
f 872 861 845
f 861 928 851
f 859 861 851
f 583 574 581
f 586 652 583
f 880 886 860
f 886 881 860
f 860 881 836
f 881 913 836
f 588 587 586
f 591 619 588
f 593 575 591
f 849 857 846
f 873 871 840
f 871 844 840
f 595 623 593
f 843 855 839
f 855 854 839
f 598 638 595
f 599 624 598
f 601 602 599
f 863 865 825
f 867 856 827
f 869 870 827
f 606 610 601
f 608 627 606
f 611 659 608
f 612 613 611
f 609 628 612
f 607 655 609
f 605 604 607
f 603 625 605
f 600 639 603
f 597 596 600
f 884 865 863
f 594 576 597
f 892 869 856
f 592 620 594
f 589 590 592
f 585 634 589
f 886 913 881
f 584 615 585
f 582 614 584
f 875 849 850
f 874 873 849
f 875 874 849
f 873 927 871
f 580 631 582
f 572 631 580
f 927 844 871
f 714 633 650
f 882 855 843
f 651 633 714
f 634 651 660
f 716 634 660
f 862 926 863
f 719 620 718
f 867 892 856
f 658 576 666
f 892 870 869
f 692 636 658
f 918 861 872
f 938 861 918
f 637 636 692
f 696 654 637
f 721 625 654
f 895 912 853
f 889 886 880
f 703 625 721
f 662 655 672
f 944 878 879
f 673 613 722
f 659 673 711
f 917 874 875
f 708 627 663
f 844 887 868
f 887 843 868
f 720 626 670
f 699 626 720
f 638 699 669
f 668 638 669
f 694 577 668
f 926 884 863
f 667 577 694
f 937 892 867
f 665 575 661
f 575 621 661
f 664 575 665
f 686 575 664
f 717 587 686
f 167 177 830
f 657 652 653
f 180 167 842
f 833 180 842
f 835 182 180
f 713 632 715
f 674 579 713
f 630 183 836
f 712 631 656
f 831 630 832
f 676 650 675
f 831 179 181
f 678 650 676
f 852 179 831
f 852 178 179
f 829 174 178
f 679 714 678
f 840 174 829
f 840 172 174
f 681 651 679
f 839 172 840
f 826 172 839
f 826 170 172
f 838 170 826
f 683 716 681
f 838 169 170
f 838 168 169
f 685 718 683
f 837 168 838
f 687 719 685
f 824 168 837
f 825 171 824
f 827 148 171
f 689 666 687
f 827 223 148
f 828 223 827
f 690 658 689
f 693 637 690
f 697 654 693
f 700 654 697
f 630 181 183
f 702 703 700
f 704 672 702
f 174 175 178
f 706 722 704
f 172 173 174
f 709 673 706
f 710 711 709
f 707 663 710
f 171 164 168
f 705 671 707
f 223 176 148
f 701 670 705
f 177 176 223
f 177 134 133
f 180 160 167
f 698 669 701
f 182 160 180
f 182 161 160
f 695 694 698
f 183 166 182
f 691 661 695
f 178 137 181
f 688 664 691
f 175 153 158
f 175 129 157
f 684 653 688
f 682 657 684
f 164 162 168
f 680 713 682
f 677 674 680
f 176 133 128
f 675 712 677
f 456 503 478
f 458 521 456
f 830 842 167
f 417 521 458
f 833 835 180
f 480 499 485
f 462 531 480
f 463 531 462
f 835 836 183
f 463 507 531
f 836 832 630
f 466 507 464
f 418 514 466
f 852 829 178
f 469 543 487
f 472 510 470
f 474 558 483
f 421 558 474
f 421 476 558
f 477 563 476
f 423 511 475
f 422 511 423
f 422 488 511
f 828 830 223
f 473 501 488
f 841 842 830
f 420 501 473
f 471 501 420
f 509 500 471
f 444 568 509
f 834 860 835
f 860 836 835
f 467 540 468
f 836 878 832
f 465 435 482
f 435 515 482
f 846 857 852
f 857 840 829
f 460 566 461
f 459 566 460
f 459 484 566
f 479 484 459
f 839 854 826
f 455 498 457
f 455 424 498
f 426 456 425
f 428 458 426
f 430 485 428
f 872 845 841
f 847 848 841
f 928 842 841
f 431 480 430
f 885 833 842
f 885 853 833
f 853 834 833
f 433 463 431
f 880 860 834
f 437 466 433
f 879 878 836
f 878 877 831
f 921 852 831
f 850 846 852
f 439 419 437
f 441 487 439
f 443 469 441
f 844 839 840
f 844 868 839
f 445 470 443
f 855 838 854
f 864 862 838
f 447 510 445
f 862 837 838
f 863 824 837
f 449 510 447
f 450 483 449
f 865 866 825
f 866 867 825
f 856 869 827
f 452 476 450
f 870 872 841
f 495 648 493
f 454 477 452
f 497 649 495
f 453 423 454
f 496 647 497
f 494 644 496
f 451 488 453
f 492 644 494
f 448 420 451
f 490 642 492
f 489 643 490
f 446 471 448
f 491 645 489
f 442 468 446
f 493 646 491
f 440 467 442
f 648 802 646
f 438 467 440
f 649 924 648
f 647 922 649
f 436 435 438
f 644 920 647
f 434 481 436
f 642 800 644
f 432 460 434
f 643 798 642
f 429 479 432
f 645 799 643
f 427 455 429
f 646 801 645
f 425 424 427
f 498 424 504
f 565 457 498
f 506 481 486
f 513 435 506
f 515 435 513
f 567 482 515
f 540 467 567
f 224 253 225
f 225 255 227
f 500 509 568
f 550 471 500
f 227 257 230
f 561 488 569
f 230 259 232
f 511 488 561
f 562 511 561
f 570 477 511
f 563 477 570
f 232 221 234
f 558 476 563
f 234 205 236
f 553 483 502
f 520 483 553
f 236 266 267
f 519 510 520
f 470 510 519
f 518 469 519
f 267 246 238
f 543 469 518
f 238 249 269
f 516 487 541
f 508 487 516
f 269 222 240
f 514 418 508
f 240 212 242
f 242 250 272
f 272 215 251
f 521 417 564
f 251 252 244
f 503 456 505
f 504 424 503
f 244 218 243
f 243 273 241
f 525 565 522
f 527 484 525
f 241 270 239
f 528 566 527
f 529 566 528
f 239 213 268
f 532 506 529
f 268 210 237
f 535 513 532
f 237 208 264
f 537 515 535
f 264 265 235
f 538 540 537
f 235 263 233
f 542 517 538
f 233 262 231
f 546 568 542
f 231 203 228
f 547 500 546
f 549 550 547
f 228 229 226
f 551 501 549
f 226 202 245
f 555 561 551
f 557 562 555
f 245 199 224
f 185 219 184
f 560 563 557
f 559 563 560
f 556 558 559
f 189 190 185
f 554 502 556
f 552 553 554
f 548 519 552
f 194 214 189
f 545 543 548
f 544 543 545
f 197 198 194
f 539 516 544
f 195 196 197
f 536 514 539
f 533 507 536
f 191 204 195
f 530 499 533
f 526 512 530
f 187 188 191
f 524 521 526
f 184 186 187
f 523 503 524
f 522 503 523
f 357 289 338
f 353 292 352
f 360 292 353
f 364 344 363
f 205 221 190
f 206 205 207
f 392 345 301
f 396 340 345
f 413 340 396
f 249 248 193
f 372 350 355
f 414 350 372
f 414 416 350
f 215 271 214
f 374 348 415
f 217 215 198
f 373 348 374
f 371 311 373
f 370 311 371
f 218 252 198
f 369 308 370
f 398 308 369
f 216 273 196
f 366 300 367
f 213 270 196
f 365 300 366
f 211 213 209
f 362 339 354
f 210 211 209
f 361 339 362
f 208 210 192
f 359 343 361
f 358 343 359
f 382 343 358
f 382 342 343
f 411 335 412
f 375 335 411
f 378 349 376
f 229 220 188
f 379 341 378
f 202 229 188
f 383 357 379
f 384 352 383
f 199 254 186
f 386 353 384
f 319 286 322
f 388 363 386
f 322 288 323
f 390 392 388
f 323 289 277
f 393 345 390
f 277 292 325
f 395 396 393
f 325 296 298
f 401 347 395
f 298 344 279
f 279 301 280
f 403 355 401
f 280 302 304
f 405 414 403
f 304 340 330
f 407 416 405
f 409 410 407
f 330 307 283
f 408 415 409
f 406 374 408
f 283 350 332
f 332 350 334
f 404 371 406
f 334 315 284
f 402 370 404
f 284 316 313
f 400 398 402
f 399 398 400
f 313 348 333
f 397 346 399
f 394 367 397
f 333 311 331
f 391 366 394
f 331 308 281
f 389 362 391
f 281 282 328
f 387 361 389
f 328 329 327
f 385 358 387
f 327 303 326
f 381 356 385
f 326 300 278
f 380 336 381
f 278 339 324
f 377 411 380
f 324 295 276
f 376 375 377
f 287 335 285
f 276 291 290
f 290 342 275
f 320 336 335
f 336 412 335
f 342 356 320
f 356 336 320
f 275 320 321
f 321 320 274
f 274 335 318
f 295 343 294
f 318 287 319
f 361 343 295
f 339 361 295
f 375 351 285
f 285 351 286
f 354 339 299
f 351 349 286
f 300 354 299
f 367 300 303
f 288 341 337
f 329 367 303
f 305 346 329
f 337 341 289
f 398 346 305
f 289 352 292
f 310 370 308
f 293 292 296
f 311 370 310
f 314 348 311
f 296 360 297
f 297 363 344
f 317 415 348
f 344 364 301
f 316 410 317
f 301 345 302
f 315 416 316
f 312 416 315
f 309 355 350
f 347 355 309
f 306 368 307
v -0.45850 -0.43350 -0.08950
v -0.45850 -0.37250 -0.08950
v -0.20250 -0.43350 -0.10750
v -0.18683 -0.43350 -0.07333
v -0.20250 -0.37250 -0.10750
v -0.18683 -0.37250 -0.07333
v -0.15000 -0.43350 -0.07800
v -0.15000 -0.43350 -0.04050
v -0.15000 -0.37250 -0.07800
v -0.15000 -0.37250 -0.04050
v -0.12557 -0.00846 -0.07658
v -0.13869 -0.00907 -0.01905
v -0.13665 -0.00308 0.03948
v -0.12518 -0.00700 0.08360
v -0.09650 -0.43350 -0.08950
v -0.06833 -0.42760 0.11337
v -0.06954 -0.42742 0.12877
v -0.09650 -0.37250 -0.08950
v -0.06847 -0.38556 0.11326
v -0.07046 -0.38577 0.12923
v -0.08238 -0.00311 -0.12108
v -0.08223 0.00157 -0.07264
v -0.08894 0.00197 -0.02382
v -0.08585 0.01305 0.04367
v -0.07892 -0.00574 0.07771
v -0.06758 -0.00915 0.13352
v -0.06089 0.04679 -0.05803
v -0.07946 0.04481 -0.02296
v -0.07197 0.04705 0.03967
v -0.05550 0.03400 0.06500
v -0.05991 0.10777 -0.05610
v -0.07050 0.11682 -0.02135
v -0.06763 0.11557 0.03289
v -0.02340 -0.42770 0.11680
v -0.02572 -0.42750 0.13944
v -0.02325 -0.38525 0.11662
v -0.02250 -0.38572 0.14033
v -0.02699 -0.00874 -0.13793
v -0.02052 0.00315 -0.09166
v -0.03543 0.00143 0.09151
v -0.02008 -0.00400 0.14469
v -0.02304 0.04545 -0.07920
v -0.03093 0.04511 0.07664
v -0.02367 0.12173 -0.06654
v -0.03764 0.13070 -0.03564
v -0.03251 0.13087 0.05140
v -0.01926 0.11505 0.07293
v 0.04487 -0.42759 0.11322
v 0.03874 -0.42745 0.13138
v 0.04391 -0.38553 0.11306
v 0.03997 -0.38576 0.13100
v 0.03406 -0.00819 -0.13506
v 0.02412 0.00447 -0.09152
v 0.05950 0.03050 0.06400
v 0.03803 0.00165 0.08967
v 0.03071 -0.00506 0.14172
v 0.03014 0.04622 -0.07649
v 0.05706 0.04763 0.06237
v 0.03394 0.04454 0.07581
v 0.02839 0.12034 -0.06607
v 0.04480 0.13038 -0.03636
v 0.03823 0.12881 0.05038
v 0.02404 0.11318 0.07344
v 0.06625 -0.42750 0.10975
v 0.06400 -0.42775 0.12842
v 0.06570 -0.38550 0.10920
v 0.06423 -0.38550 0.12882
v 0.08534 -0.00313 -0.12040
v 0.08881 -0.00070 -0.07263
v 0.09051 0.00146 -0.02342
v 0.08891 0.01157 0.04303
v 0.08553 -0.00695 0.08122
v 0.07578 -0.00906 0.13219
v 0.06479 0.04544 -0.05488
v 0.08017 0.04480 -0.02291
v 0.07540 0.04695 0.03552
v 0.06333 0.10727 -0.05337
v 0.07272 0.11552 -0.01954
v 0.07039 0.11514 0.02973
v 0.13950 -0.43350 -0.07300
v 0.13950 -0.43350 -0.03900
v 0.13950 -0.37250 -0.07300
v 0.13950 -0.37250 -0.03900
v 0.12981 -0.00805 -0.07543
v 0.14119 -0.00842 -0.01747
v 0.13837 -0.00307 0.03919
v 0.13048 -0.00601 0.07814
v 0.28200 -0.49267 -0.08683
v 0.28293 -0.44507 -0.08686
v 0.28650 -0.37250 -0.08700
v 0.30417 -0.49250 -0.10883
v 0.31213 -0.49147 -0.07521
v 0.30900 -0.49000 -0.04900
v 0.34062 -0.48650 0.02750
v 0.30417 -0.44383 -0.10850
v 0.30989 -0.44848 -0.07843
v 0.30217 -0.44617 -0.04233
v 0.33925 -0.46175 0.02833
v 0.30487 -0.37250 -0.08526
v 0.28850 -0.37250 -0.02900
v 0.37964 -0.48564 0.00457
v 0.36562 -0.49762 0.02319
v 0.37830 -0.48970 0.09040
v 0.38114 -0.46268 0.00382
v 0.36526 -0.44715 0.02271
v 0.37579 -0.45879 0.09043
v 0.34750 -0.43650 0.32100
v 0.34750 -0.37350 0.32100
v 0.40400 -0.48750 0.04450
v 0.42490 -0.49130 0.09440
v 0.44132 -0.49573 0.15918
v 0.44241 -0.49215 0.19268
v 0.42850 -0.43650 -0.06700
v 0.40950 -0.43350 -0.02950
v 0.40550 -0.46117 0.04367
v 0.42979 -0.45750 0.09600
v 0.44082 -0.45132 0.16043
v 0.44568 -0.45306 0.19422
v 0.42850 -0.37350 -0.06700
v 0.40950 -0.37250 -0.02950
v 0.45207 -0.42350 0.19586
v 0.46741 -0.49211 0.16943
v 0.47936 -0.49305 0.20200
v 0.46871 -0.45650 0.16811
v 0.47627 -0.45158 0.19864
v 0.47300 -0.42350 0.19590
v 0.56338 -0.43337 -0.06700
v 0.52350 -0.43350 -0.01450
v 0.56338 -0.43337 0.32100
v 0.56338 -0.37637 -0.06700
v 0.52350 -0.37250 -0.01450
v 0.56338 -0.37637 0.32100
usemtl m001
f 1061 1045 1062
f 1045 1048 1049
f 1061 1044 1045
f 1077 1076 1062
f 1003 1014 1013
f 1069 1068 1051
f 1059 1060 1075
f 1059 1075 1074
f 1037 1053 1036
f 1029 1043 1028
f 1051 1067 1050
f 1013 1012 1002
f 1033 1020 1015
f 1019 1020 1033
f 1030 1031 1016
f 1065 1064 1067
f 1067 1064 1047
f 1045 1046 1063
f 1050 1047 1032
f 1043 1059 1058
f 1034 1032 1017
f 1021 1017 1018
f 1018 1019 1023
f 1019 1033 1037
f 1033 1049 1053
f 1053 1049 1048
f 1048 1066 1069
f 1069 1066 1065
f 1029 1032 1047
f 1059 1074 1058
f 1060 1061 1076
f 1046 1045 1030
f 1042 1043 1058
f 1065 1066 1061
f 1045 1049 1033
f 1014 1019 1018
f 1012 1018 1017
f 1017 1032 1012
f 1059 1047 1064
f 1064 1065 1059
f 1066 1044 1061
f 1052 1051 1035
f 1036 1052 1035
f 1022 1023 1035
f 1050 1034 1035
f 1020 1014 1015
f 1019 1014 1020
f 1030 1015 1016
f 1037 1053 1052
f 1030 1033 1015
f 1034 1021 1035
f 1035 1021 1022
f 1002 1003 1013
f 1028 1011 1029
f 1052 1069 1051
f 1035 1023 1036
f 1051 1050 1035
f 1036 1053 1052
f 1051 1068 1067
f 1002 1012 1001
f 1066 1048 1044
f 1068 1065 1067
f 1050 1067 1047
f 1062 1045 1063
f 1034 1050 1032
f 1021 1034 1017
f 1022 1021 1018
f 1022 1018 1023
f 1023 1019 1037
f 1037 1033 1053
f 1052 1053 1048
f 1052 1048 1069
f 1068 1069 1065
f 1036 1023 1037
f 1028 1043 1042
f 1043 1029 1047
f 1045 1044 1048
f 1011 1001 1012
f 1075 1060 1076
f 1076 1061 1062
f 1031 1046 1030
f 1004 1015 1014
f 1003 1004 1014
f 1012 1029 1011
f 1060 1065 1061
f 1030 1045 1033
f 1013 1014 1018
f 1013 1018 1012
f 1029 1012 1032
f 1043 1047 1059
f 1060 1059 1065
f 1036 1037 1052
f 1098 1109 1120
f 1119 1117 1103
f 1122 1120 1117
f 1098 1122 1120
f 1119 1097 1103
f 1122 1119 1117
f 992 996 995
f 994 996 992
f 991 992 995
f 993 995 996
f 996 994 998
f 994 996 999
f 998 997 1070
f 1000 998 1071
f 999 1000 1073
f 997 999 1072
f 1087 1086 1104
f 1090 1087 1104
f 1089 1090 1110
f 1086 1089 1110
f 1072 1073 1090
f 1070 1072 1089
f 1071 1070 1086
f 1073 1071 1087
f 1110 1104 1118
f 1104 1110 1121
f 1008 1005 1086
f 1005 1008 1089
f 1038 1024 1025
f 1055 1054 1038
f 1006 1007 1025
f 1040 1041 1027
f 1056 1057 1041
f 1009 1026 1027
f 1039 1025 1027
f 1024 1038 1040
f 1038 1039 1041
f 1038 1054 1056
f 1039 1038 1040
f 1054 1055 1057
f 1006 1024 1026
f 1025 1007 1010
f 1007 1006 1009
f 1006 1007 1010
f 1039 1041 1057
f 1083 1087 1086
f 1082 1086 1087
f 1102 1108 1107
f 1112 1102 1101
f 1114 1112 1101
f 1108 1114 1107
f 1112 1114 1108
f 1082 1081 1085
f 1078 1082 1086
f 1082 1078 1079
f 1081 1082 1086
f 1079 1086 1089
f 1086 1079 1080
f 1108 1115 1116
f 1115 1108 1111
f 1113 1112 1114
f 1102 1113 1115
f 1107 1108 1115
f 1101 1102 1108
f 1101 1113 1102
f 1114 1107 1115
f 1112 1101 1107
f 1112 1113 1101
f 1091 1092 1095
f 1094 1091 1095
f 1105 1099 1091
f 1106 1100 1099
f 1114 1112 1100
f 1114 1107 1112
f 1096 1106 1095
f 1084 1088 1095
f 1093 1096 1088
f 1101 1107 1096
f 1092 1084 1095
f 1092 1093 1084
f 1100 1093 1092
f 1101 1107 1102
f 993 994 991
f 991 994 992
f 993 991 995
f 994 993 996
f 998 994 997
f 1000 996 998
f 999 996 1000
f 997 994 999
f 1071 998 1070
f 1073 1000 1071
f 1072 999 1073
f 1070 997 1072
f 1110 1090 1104
f 1104 1086 1110
f 1089 1072 1090
f 1086 1070 1089
f 1087 1071 1086
f 1090 1073 1087
f 1121 1110 1118
f 1118 1104 1121
f 1089 1008 1086
f 1086 1005 1089
f 1039 1038 1025
f 1024 1006 1025
f 1026 1040 1027
f 1040 1056 1041
f 1010 1009 1027
f 1041 1039 1027
f 1026 1024 1040
f 1040 1038 1041
f 1040 1038 1056
f 1041 1039 1040
f 1056 1054 1057
f 1009 1006 1026
f 1027 1025 1010
f 1010 1007 1009
f 1009 1006 1010
f 1039 1055 1038
f 1055 1039 1057
f 1082 1083 1086
f 1083 1082 1087
f 1107 1114 1101
f 1102 1112 1108
f 1086 1082 1085
f 1079 1078 1086
f 1086 1082 1079
f 1085 1081 1086
f 1080 1079 1089
f 1089 1086 1080
f 1111 1108 1116
f 1116 1115 1111
f 1115 1113 1114
f 1108 1102 1115
f 1107 1101 1108
f 1099 1100 1092
f 1091 1099 1092
f 1100 1112 1101
f 1094 1105 1091
f 1105 1106 1099
f 1106 1114 1100
f 1095 1105 1094
f 1107 1114 1106
f 1095 1106 1105
f 1096 1107 1106
f 1088 1096 1095
f 1084 1093 1088
f 1093 1101 1096
f 1100 1101 1093
v -0.32950 0.15836 -0.01400
v -0.32950 0.15836 0.00550
v -0.25523 -0.04723 -0.11973
v -0.27150 -0.04500 -0.05662
v -0.27316 -0.04488 0.04262
v -0.25600 -0.04675 0.11608
v -0.24555 -0.02569 -0.11076
v -0.25633 -0.02596 -0.04354
v -0.25614 -0.02433 0.03519
v -0.24777 -0.02806 0.10680
v -0.24335 0.09758 -0.19927
v -0.26985 0.09514 -0.14387
v -0.30046 0.09488 -0.05284
v -0.30228 0.09446 0.04174
v -0.27387 0.09512 0.13544
v -0.24633 0.10108 0.19319
v -0.25019 0.16286 -0.20662
v -0.28713 0.16534 -0.14381
v -0.31724 0.16528 -0.05288
v -0.31792 0.16569 0.04434
v -0.29144 0.16500 0.13600
v -0.25399 0.16375 0.20118
v -0.16776 -0.04515 -0.22248
v -0.22283 -0.04394 -0.16517
v -0.22409 -0.04362 0.16288
v -0.17108 -0.04533 0.22017
v -0.16622 -0.02878 -0.21006
v -0.19037 -0.01154 -0.14658
v -0.19823 0.00203 -0.05204
v -0.19696 0.00286 0.04289
v -0.19524 -0.01056 0.13795
v -0.16533 -0.02409 0.20226
v -0.14350 0.08330 -0.28400
v -0.19134 0.09571 -0.23774
v -0.22629 0.07264 -0.17957
v -0.22994 0.07239 0.17411
v -0.19362 0.09501 0.23528
v -0.15010 0.08870 0.27993
v -0.15225 0.16003 -0.28944
v -0.19704 0.16576 -0.25328
v -0.20328 0.16608 0.24848
v -0.15748 0.16293 0.28402
v -0.08917 -0.04533 -0.26421
v -0.09412 -0.04474 0.26205
v -0.06750 -0.04950 0.27767
v -0.09234 -0.01435 -0.22704
v -0.09912 0.00557 -0.14333
v -0.13248 0.00436 -0.08120
v -0.13586 0.00456 0.07670
v -0.09973 0.00539 0.13338
v -0.09469 -0.01340 0.22420
v -0.06750 0.00850 0.27767
v -0.08991 0.09886 -0.29685
v -0.11513 0.08696 -0.27307
v -0.12314 0.07867 0.26525
v -0.09370 0.09709 0.29339
v -0.09604 0.16473 -0.30751
v -0.14183 0.17800 -0.28100
v -0.09499 0.16485 0.30762
v 0.00110 -0.04950 -0.28500
v -0.00144 -0.04394 -0.27717
v -0.00050 -0.04200 0.27250
v -0.00326 -0.04626 0.28129
v 0.00110 0.00850 -0.28500
v -0.00166 -0.01167 -0.24151
v -0.00389 0.00479 -0.15685
v -0.00502 0.00461 0.15419
v -0.00192 -0.01050 0.23836
v -0.00412 -0.01012 0.28077
v -0.00453 0.09528 -0.30589
v -0.02125 0.06750 -0.28275
v -0.00525 0.09511 0.30540
v -0.00291 0.16523 -0.32150
v -0.00142 0.16517 0.32204
v 0.08721 -0.04533 -0.26504
v 0.09080 -0.04450 0.26320
v 0.06075 -0.04950 0.27875
v 0.08675 -0.01301 -0.22830
v 0.09311 0.00561 -0.14113
v 0.12854 0.00450 -0.08888
v 0.13133 0.00417 0.08475
v 0.09254 0.00529 0.13265
v 0.08873 -0.01252 0.22591
v 0.06075 0.00850 0.27875
v 0.08470 0.09872 -0.29781
v 0.10647 0.08267 -0.27429
v 0.11391 0.07255 0.26564
v 0.08637 0.09662 0.29492
v 0.09040 0.16540 -0.30878
v 0.13150 0.17250 -0.28300
v 0.08986 0.16539 0.30892
v 0.16821 -0.04533 -0.22263
v 0.22012 -0.04373 -0.16800
v 0.21942 -0.04325 0.16825
v 0.16894 -0.04550 0.22232
v 0.15926 -0.02713 -0.21131
v 0.18627 -0.01014 -0.14915
v 0.18819 0.00386 -0.05296
v 0.18553 0.00442 0.04639
v 0.19118 -0.00927 0.14083
v 0.15913 -0.02326 0.20518
v 0.18363 0.09487 -0.24369
v 0.22262 0.07200 -0.18338
v 0.22483 0.07050 0.17800
v 0.18667 0.09443 0.24025
v 0.14677 0.09782 0.27950
v 0.14819 0.16028 -0.29157
v 0.19220 0.16611 -0.25707
v 0.19873 0.16653 0.25229
v 0.15540 0.16235 0.28594
v 0.24870 -0.04650 -0.13147
v 0.27194 -0.04498 -0.05684
v 0.27339 -0.04471 0.04261
v 0.25050 -0.04628 0.12628
v 0.24302 -0.02531 -0.11258
v 0.25109 -0.02189 -0.04515
v 0.25136 -0.02046 0.03647
v 0.24444 -0.02589 0.10691
v 0.23870 0.10062 -0.20235
v 0.26857 0.09472 -0.14543
v 0.30125 0.09479 -0.05272
v 0.30285 0.09479 0.04286
v 0.27279 0.09423 0.13675
v 0.24147 0.09944 0.19776
v 0.24661 0.16365 -0.21025
v 0.28769 0.16493 -0.14419
v 0.31273 0.16920 -0.05944
v 0.31378 0.16977 0.05009
v 0.29212 0.16491 0.13536
v 0.24928 0.16384 0.20666
v 0.32559 0.15938 -0.03857
v 0.32626 0.15957 0.03020
usemtl m002
f 1253 1254 1250
f 1160 1159 1178
f 1249 1250 1254
f 1211 1230 1229
f 1187 1188 1201
f 1173 1189 1172
f 1198 1205 1223
f 1234 1238 1237
f 1233 1237 1219
f 1200 1201 1219
f 1146 1150 1129
f 1217 1223 1222
f 1236 1240 1239
f 1215 1219 1218
f 1197 1200 1187
f 1183 1187 1168
f 1182 1186 1187
f 1154 1172 1153
f 1219 1201 1202
f 1219 1202 1220
f 1153 1172 1171
f 1225 1241 1224
f 1127 1131 1132
f 1166 1173 1174
f 1235 1239 1238
f 1148 1154 1173
f 1150 1169 1168
f 1199 1205 1190
f 1187 1182 1183
f 1214 1218 1219
f 1219 1215 1214
f 1154 1148 1166
f 1200 1219 1218
f 1238 1220 1221
f 1131 1152 1151
f 1239 1235 1234
f 1128 1132 1153
f 1131 1127 1128
f 1238 1237 1219
f 1237 1238 1233
f 1125 1129 1150
f 1222 1216 1236
f 1125 1130 1129
f 1235 1239 1240
f 1205 1204 1190
f 1222 1221 1203
f 1222 1203 1204
f 1150 1170 1169
f 1223 1222 1205
f 1168 1169 1188
f 1155 1176 1156
f 1211 1229 1212
f 1229 1230 1212
f 1217 1216 1222
f 1150 1146 1125
f 1161 1180 1162
f 1238 1234 1233
f 1131 1132 1128
f 1239 1238 1234
f 1130 1131 1127
f 1131 1130 1126
f 1218 1214 1197
f 1200 1218 1197
f 1128 1147 1153
f 1153 1147 1148
f 1187 1197 1183
f 1191 1190 1185
f 1190 1185 1199
f 1123 1141 1142
f 1173 1166 1167
f 1173 1167 1185
f 1205 1198 1217
f 1145 1149 1168
f 1199 1198 1205
f 1168 1183 1165
f 1205 1209 1227
f 1174 1178 1194
f 1167 1174 1191
f 1154 1159 1177
f 1239 1244 1243
f 1206 1210 1209
f 1199 1206 1205
f 1173 1177 1178
f 1153 1158 1159
f 1147 1153 1154
f 1132 1137 1158
f 1131 1136 1137
f 1130 1135 1136
f 1209 1210 1227
f 1193 1192 1176
f 1208 1207 1192
f 1192 1195 1179
f 1210 1194 1196
f 1207 1211 1195
f 1186 1192 1193
f 1194 1181 1196
f 1187 1193 1176
f 1194 1178 1181
f 1224 1230 1211
f 1191 1194 1210
f 1185 1191 1206
f 1160 1164 1181
f 1200 1208 1193
f 1160 1159 1164
f 1159 1163 1164
f 1187 1193 1192
f 1183 1187 1186
f 1224 1241 1247
f 1218 1224 1208
f 1214 1218 1200
f 1219 1225 1224
f 1138 1144 1163
f 1240 1245 1244
f 1223 1227 1226
f 1222 1226 1245
f 1216 1222 1240
f 1244 1250 1249
f 1245 1251 1250
f 1129 1134 1135
f 1150 1157 1134
f 1246 1252 1251
f 1237 1242 1225
f 1138 1137 1143
f 1238 1243 1242
f 1137 1136 1142
f 1149 1156 1157
f 1145 1149 1150
f 1136 1135 1141
f 1134 1140 1141
f 1168 1176 1156
f 1165 1168 1149
f 1134 1133 1139
f 1242 1248 1247
f 1243 1249 1248
f 1227 1231 1252
f 1133 1156 1162
f 1228 1210 1213
f 1227 1228 1232
f 1176 1175 1179
f 1133 1156 1134
f 1249 1253 1250
f 1228 1210 1227
f 1253 1249 1254
f 1155 1175 1176
f 1207 1208 1224
f 1200 1187 1201
f 1173 1190 1189
f 1217 1198 1223
f 1233 1234 1237
f 1215 1233 1219
f 1125 1146 1129
f 1235 1236 1239
f 1214 1215 1218
f 1193 1208 1192
f 1226 1227 1245
f 1176 1192 1175
f 1158 1137 1159
f 1128 1127 1132
f 1167 1166 1174
f 1234 1235 1238
f 1166 1148 1173
f 1152 1153 1171
f 1150 1168 1149
f 1173 1185 1190
f 1184 1191 1190
f 1154 1153 1148
f 1173 1154 1166
f 1239 1238 1221
f 1130 1131 1151
f 1126 1127 1131
f 1220 1238 1219
f 1240 1222 1236
f 1125 1126 1130
f 1236 1235 1240
f 1150 1151 1170
f 1205 1222 1204
f 1154 1173 1172
f 1187 1168 1188
f 1190 1204 1189
f 1181 1164 1163
f 1145 1146 1150
f 1180 1161 1179
f 1126 1130 1127
f 1161 1162 1179
f 1180 1179 1162
f 1124 1123 1142
f 1223 1205 1217
f 1165 1145 1149
f 1223 1205 1227
f 1177 1159 1178
f 1191 1174 1194
f 1185 1167 1191
f 1173 1154 1177
f 1238 1239 1243
f 1205 1206 1209
f 1174 1173 1178
f 1154 1153 1159
f 1148 1147 1154
f 1153 1132 1158
f 1132 1131 1137
f 1131 1130 1136
f 1159 1137 1138
f 1157 1156 1134
f 1225 1242 1241
f 1245 1227 1246
f 1175 1192 1179
f 1213 1210 1196
f 1192 1207 1195
f 1187 1186 1193
f 1168 1187 1176
f 1207 1224 1211
f 1206 1191 1210
f 1199 1185 1206
f 1178 1160 1181
f 1187 1200 1193
f 1186 1187 1192
f 1182 1183 1186
f 1230 1224 1247
f 1200 1218 1208
f 1197 1214 1200
f 1218 1219 1224
f 1159 1138 1163
f 1239 1240 1244
f 1222 1223 1226
f 1240 1222 1245
f 1236 1216 1240
f 1243 1244 1249
f 1244 1245 1250
f 1130 1129 1135
f 1129 1150 1134
f 1245 1246 1251
f 1219 1237 1225
f 1144 1138 1143
f 1237 1238 1242
f 1143 1137 1142
f 1150 1149 1157
f 1142 1136 1141
f 1135 1134 1141
f 1149 1168 1156
f 1140 1134 1139
f 1241 1242 1247
f 1242 1243 1248
f 1246 1227 1252
f 1139 1133 1162
f 1232 1228 1213
f 1231 1227 1232
f 1156 1176 1162
f 1162 1176 1179
v -0.47655 -0.46530 -0.01510
v -0.47939 -0.46933 0.29900
v -0.46383 -0.40650 -0.08000
v -0.48805 -0.38727 -0.01636
v -0.49633 -0.38411 0.29900
v -0.46450 -0.32637 -0.01525
v -0.46683 -0.32406 0.29900
v -0.42759 -0.50986 -0.01527
v -0.42906 -0.51361 0.29900
v -0.43742 -0.45892 -0.08050
v -0.44170 -0.46780 -0.02130
v -0.45800 -0.38375 -0.08075
v -0.45900 -0.37550 -0.02350
v -0.42964 -0.34293 -0.08029
v -0.43244 -0.31975 -0.01831
v -0.42906 -0.29906 0.29900
v -0.36203 -0.51382 -0.01542
v -0.36239 -0.51806 0.29900
v -0.35350 -0.47370 -0.08040
v -0.35500 -0.47800 -0.02250
v -0.38450 -0.40650 -0.08200
v -0.38450 -0.40650 -0.01000
v -0.38450 -0.40650 0.29850
v -0.35600 -0.33690 -0.08030
v -0.36050 -0.30916 -0.01741
v -0.36239 -0.29467 0.29900
v -0.31217 -0.43617 -0.08000
v -0.29586 -0.46432 -0.01595
v -0.29006 -0.46933 0.29900
v -0.30879 -0.39350 -0.08043
v -0.28354 -0.38714 -0.01688
v -0.27294 -0.38411 0.29900
v -0.30517 -0.32661 -0.01578
v -0.30272 -0.32406 0.29900
v -0.19806 0.03239 -0.01728
v -0.19996 0.03687 0.00925
v -0.15190 0.03485 -0.11041
v -0.17485 0.03195 -0.01670
v -0.17281 0.03530 0.00906
v -0.15202 0.03590 0.10842
v -0.15119 0.02307 0.13423
v -0.06660 -0.44379 -0.16850
v -0.06650 -0.44350 -0.13700
v -0.06675 -0.43826 0.11217
v -0.06672 -0.36953 -0.16949
v -0.06650 -0.36963 -0.13700
v -0.06676 -0.38150 0.11471
v -0.06650 -0.40550 0.13333
v -0.06570 -0.35370 -0.16120
v -0.06650 -0.35250 -0.13700
v -0.06490 0.03640 -0.17836
v -0.06526 0.03801 0.17580
v -0.06084 0.02071 0.20283
v -0.03882 0.03033 -0.17946
v -0.03880 0.03113 0.17893
v -0.04400 0.01136 0.20193
v 0.05067 -0.44379 -0.16852
v 0.05083 -0.44350 -0.13700
v 0.05050 -0.43826 0.11217
v 0.05053 -0.36953 -0.16951
v 0.05087 -0.36963 -0.13700
v 0.05050 -0.38150 0.11471
v 0.05050 -0.40550 0.13333
v 0.05170 -0.35370 -0.16120
v 0.05050 -0.35250 -0.13700
v 0.05819 0.03487 -0.17863
v 0.05808 0.03609 0.17687
v 0.06029 0.02015 0.20270
v 0.14428 0.03644 -0.11003
v 0.16150 0.01050 -0.00000
v 0.14339 0.03797 0.10733
v 0.15013 0.02472 0.13429
v 0.17036 0.03141 -0.11058
v 0.18825 0.03235 -0.01709
v 0.18855 0.03672 0.00924
v 0.17045 0.03211 0.10996
v 0.16527 0.01214 0.13336
v 0.29397 -0.50237 -0.08933
v 0.29350 -0.49700 -0.07500
v 0.29594 -0.45983 -0.08789
v 0.29683 -0.47264 -0.05586
v 0.31107 -0.50211 -0.09104
v 0.31323 -0.49659 -0.06636
v 0.35950 -0.49550 0.01500
v 0.30971 -0.46250 -0.08850
v 0.32482 -0.47113 -0.05778
v 0.35308 -0.46950 0.02683
v 0.36183 -0.47150 0.06433
v 0.38150 -0.49550 0.05300
v 0.40400 -0.49550 0.09200
v 0.38590 -0.46990 0.03327
v 0.40480 -0.47091 0.09363
v 0.46447 -0.50321 0.19226
v 0.46400 -0.50288 0.20738
v 0.49727 -0.46381 -0.02009
v 0.49643 -0.46339 0.00308
v 0.48758 -0.36088 -0.03085
v 0.48569 -0.36121 0.01171
v 0.46497 -0.36294 0.18886
v 0.46369 -0.36262 0.21315
v 0.49696 -0.34035 -0.02062
v 0.49375 -0.34045 0.00580
v 0.46455 -0.33976 0.19003
v 0.46447 -0.33983 0.21233
v 0.51878 -0.46338 -0.01960
v 0.52172 -0.46446 0.00322
v 0.52604 -0.36150 -0.02823
v 0.52743 -0.36123 0.01387
v 0.51750 -0.34117 -0.01817
v 0.52077 -0.34214 0.00291
usemtl m003
f 1309 1306 1307
f 1289 1290 1292
f 1292 1290 1293
f 1309 1307 1310
f 1331 1325 1326
f 1330 1325 1331
f 1363 1355 1356
f 1361 1351 1355
f 1362 1352 1351
f 1362 1361 1363
f 1352 1362 1364
f 1351 1352 1356
f 1272 1277 1263
f 1263 1277 1256
f 1283 1277 1272
f 1256 1277 1259
f 1286 1277 1283
f 1259 1277 1261
f 1288 1277 1286
f 1261 1277 1270
f 1280 1277 1288
f 1270 1277 1280
f 1281 1273 1275
f 1284 1281 1275
f 1278 1284 1275
f 1268 1278 1275
f 1266 1268 1275
f 1264 1266 1275
f 1273 1264 1275
f 1274 1265 1264
f 1265 1258 1257
f 1258 1267 1266
f 1267 1269 1268
f 1269 1279 1278
f 1279 1285 1284
f 1285 1282 1281
f 1282 1274 1273
f 1271 1262 1265
f 1282 1271 1274
f 1258 1276 1269
f 1269 1276 1279
f 1279 1276 1287
f 1287 1276 1285
f 1285 1276 1282
f 1282 1276 1271
f 1271 1276 1262
f 1262 1276 1265
f 1265 1276 1255
f 1255 1276 1258
f 1258 1265 1255
f 1269 1267 1258
f 1298 1301 1302
f 1304 1300 1299
f 1300 1304 1303
f 1319 1315 1314
f 1315 1319 1318
f 1313 1316 1317
f 1360 1359 1350
f 1359 1349 1350
f 1361 1351 1352
f 1362 1361 1352
f 1359 1349 1355
f 1355 1349 1350
f 1364 1363 1356
f 1360 1359 1363
f 1350 1360 1364
f 1337 1336 1339
f 1333 1336 1337
f 1333 1337 1340
f 1334 1335 1339
f 1332 1333 1335
f 1332 1336 1333
f 1336 1332 1334
f 1339 1336 1332
f 1347 1348 1358
f 1348 1347 1357
f 1354 1353 1357
f 1341 1338 1337
f 1345 1343 1338
f 1346 1344 1343
f 1345 1341 1340
f 1338 1341 1340
f 1343 1345 1341
f 1344 1346 1345
f 1363 1361 1355
f 1361 1362 1351
f 1364 1362 1363
f 1356 1352 1364
f 1355 1351 1356
f 1273 1274 1264
f 1264 1265 1257
f 1257 1258 1266
f 1266 1267 1268
f 1268 1269 1278
f 1278 1279 1284
f 1284 1285 1281
f 1281 1282 1273
f 1274 1271 1265
f 1279 1287 1285
f 1260 1258 1269
f 1255 1265 1262
f 1257 1266 1264
f 1303 1304 1299
f 1299 1300 1303
f 1318 1319 1314
f 1314 1315 1318
f 1363 1359 1355
f 1356 1355 1350
f 1364 1360 1363
f 1356 1350 1364
f 1340 1337 1339
f 1335 1340 1339
f 1335 1333 1340
f 1334 1332 1335
f 1339 1336 1334
f 1334 1339 1332
f 1357 1347 1358
f 1358 1348 1357
f 1358 1354 1357
f 1340 1341 1337
f 1341 1345 1338
f 1345 1346 1343
f 1341 1346 1345
f 1342 1346 1341
f 1337 1338 1340
f 1338 1343 1341
f 1343 1344 1345
v -0.48100 -0.47050 -0.00600
v -0.48500 -0.47350 0.01400
v -0.48375 -0.47225 0.25650
v -0.49237 -0.42200 -0.01163
v -0.50750 -0.40650 0.01400
v -0.50600 -0.40650 0.25650
v -0.49000 -0.42725 0.29050
v -0.48350 -0.35325 -0.00925
v -0.48500 -0.33950 0.01400
v -0.48375 -0.34025 0.25650
v -0.48617 -0.36417 0.29067
v -0.43150 -0.51950 0.01400
v -0.43150 -0.51950 0.23900
v -0.44221 -0.49807 -0.01171
v -0.43050 -0.51650 0.27400
v -0.44425 -0.49537 0.29062
v -0.46283 -0.32817 -0.01233
v -0.45300 -0.32350 0.29075
v -0.42750 -0.30275 -0.01075
v -0.43150 -0.29250 0.01400
v -0.43100 -0.29400 0.25650
v -0.42750 -0.30400 0.28950
v -0.38450 -0.52350 -0.00600
v -0.36100 -0.52450 0.01400
v -0.36883 -0.52483 0.25067
v -0.36050 -0.51107 -0.01171
v -0.33950 -0.51650 0.27400
v -0.36079 -0.51064 0.29086
v -0.38450 -0.40650 -0.01300
v -0.38450 -0.40650 0.29200
v -0.34350 -0.30750 0.29200
v -0.36313 -0.29850 -0.01075
v -0.36100 -0.28800 0.01400
v -0.36150 -0.28950 0.25650
v -0.36367 -0.30050 0.29033
v -0.29733 -0.47333 -0.01017
v -0.28450 -0.47350 0.01400
v -0.28600 -0.47225 0.25650
v -0.30725 -0.48375 0.29050
v -0.27821 -0.42421 -0.01157
v -0.26150 -0.40650 0.01400
v -0.26350 -0.40650 0.25650
v -0.28050 -0.43021 0.29086
v -0.29261 -0.34739 -0.01089
v -0.28450 -0.33950 0.01400
v -0.28600 -0.34025 0.25650
v -0.29550 -0.34667 0.29067
v -0.06550 -0.45325 -0.13700
v -0.06550 -0.45325 -0.10200
v -0.06921 -0.46344 -0.04067
v -0.06550 -0.44330 -0.13700
v -0.06550 -0.44330 -0.10200
v -0.06937 -0.43202 -0.03959
v -0.06550 -0.36058 -0.13700
v -0.06550 -0.36058 -0.10200
v -0.07029 -0.36336 -0.03967
v -0.04007 -0.46336 -0.03786
v -0.04013 -0.43225 -0.03663
v -0.04026 -0.36197 -0.03741
v 0.05200 -0.45325 -0.13700
v 0.05200 -0.45325 -0.10200
v 0.07114 -0.46335 -0.04049
v 0.05200 -0.44330 -0.13700
v 0.05200 -0.44330 -0.10200
v 0.06878 -0.43202 -0.03963
v 0.05200 -0.36058 -0.13700
v 0.05200 -0.36058 -0.10200
v 0.06974 -0.36418 -0.03983
v 0.43856 -0.44003 0.19265
v 0.44450 -0.44400 0.22500
v 0.43795 -0.36580 0.18797
v 0.44850 -0.36570 0.22650
v 0.49564 -0.41773 -0.01951
v 0.50157 -0.41757 0.01620
v 0.47992 -0.43921 0.18684
v 0.47006 -0.44250 0.22778
v 0.49404 -0.36504 -0.02208
v 0.49761 -0.36528 0.02033
v 0.48410 -0.36588 0.18608
v 0.47450 -0.36575 0.22737
v 0.52636 -0.41964 -0.01129
v 0.52950 -0.44300 0.04100
v 0.52730 -0.36590 -0.02260
v 0.52950 -0.36800 0.04100
usemtl m009
f 1392 1394 1380
f 1403 1394 1392
f 1380 1394 1371
f 1407 1394 1403
f 1371 1394 1375
f 1411 1394 1407
f 1375 1394 1382
f 1395 1394 1411
f 1382 1394 1399
f 1399 1394 1395
f 1379 1389 1392
f 1389 1391 1392
f 1391 1402 1403
f 1402 1406 1407
f 1406 1410 1411
f 1410 1398 1399
f 1398 1385 1386
f 1385 1374 1382
f 1374 1370 1371
f 1370 1367 1371
f 1367 1379 1380
f 1367 1377 1379
f 1388 1401 1402
f 1401 1405 1406
f 1405 1409 1410
f 1409 1397 1398
f 1397 1384 1385
f 1384 1373 1374
f 1373 1369 1370
f 1369 1366 1367
f 1366 1376 1377
f 1376 1388 1389
f 1390 1400 1401
f 1387 1390 1388
f 1378 1387 1388
f 1365 1378 1376
f 1368 1365 1366
f 1372 1368 1369
f 1383 1372 1373
f 1396 1383 1384
f 1408 1396 1397
f 1404 1408 1409
f 1400 1404 1405
f 1383 1381 1372
f 1368 1378 1365
f 1378 1390 1387
f 1404 1393 1408
f 1400 1393 1404
f 1390 1393 1400
f 1378 1393 1390
f 1368 1393 1378
f 1372 1393 1368
f 1381 1393 1372
f 1383 1393 1381
f 1396 1393 1383
f 1408 1393 1396
f 1399 1395 1411
f 1416 1419 1418
f 1413 1416 1415
f 1416 1413 1412
f 1419 1416 1415
f 1421 1426 1429
f 1422 1429 1432
f 1426 1421 1422
f 1429 1422 1423
f 1421 1422 1417
f 1420 1417 1422
f 1422 1421 1414
f 1423 1422 1417
f 1428 1431 1430
f 1425 1428 1427
f 1428 1425 1424
f 1431 1428 1427
f 1446 1438 1437
f 1438 1446 1445
f 1448 1442 1441
f 1442 1448 1447
f 1445 1437 1441
f 1442 1447 1441
f 1438 1445 1447
f 1438 1437 1445
f 1437 1438 1442
f 1433 1439 1434
f 1434 1439 1440
f 1436 1444 1443
f 1435 1436 1443
f 1433 1439 1443
f 1440 1439 1443
f 1439 1440 1444
f 1380 1379 1392
f 1392 1391 1403
f 1403 1402 1407
f 1407 1406 1411
f 1411 1410 1399
f 1399 1398 1386
f 1386 1385 1382
f 1382 1374 1375
f 1375 1374 1371
f 1371 1367 1380
f 1379 1377 1389
f 1391 1389 1402
f 1389 1388 1402
f 1402 1401 1406
f 1406 1405 1410
f 1410 1409 1398
f 1398 1397 1385
f 1385 1384 1374
f 1374 1373 1370
f 1370 1369 1367
f 1367 1366 1377
f 1377 1376 1389
f 1388 1390 1401
f 1376 1378 1388
f 1366 1365 1376
f 1369 1368 1366
f 1373 1372 1369
f 1384 1383 1373
f 1397 1396 1384
f 1409 1408 1397
f 1405 1404 1409
f 1401 1400 1405
f 1386 1382 1399
f 1415 1416 1418
f 1412 1413 1415
f 1415 1416 1412
f 1418 1419 1415
f 1422 1421 1429
f 1423 1422 1432
f 1429 1426 1422
f 1432 1429 1423
f 1414 1421 1417
f 1423 1420 1422
f 1417 1422 1414
f 1420 1423 1417
f 1427 1428 1430
f 1424 1425 1427
f 1427 1428 1424
f 1430 1431 1427
f 1445 1446 1437
f 1447 1448 1441
f 1447 1445 1441
f 1442 1438 1447
f 1441 1437 1442
f 1435 1433 1443
f 1444 1440 1443
f 1443 1439 1444
