# daf_trailer_wheel_2l.obj - ISO 8855 (x ileri, y sol, z yukari), metre
mtllib daf.mtl
o daf_trailer_wheel_2l
v 0.06484 0.20036 -0.46294
v -0.22437 0.19639 -0.43476
v 0.36230 0.19265 -0.04007
v -0.37263 0.19983 0.28964
v -0.24219 0.19941 0.40295
v -0.09400 0.20250 0.44500
v 0.42756 0.19655 -0.25078
v 0.27035 0.19849 -0.27873
v 0.42012 0.20049 -0.20875
v -0.42396 0.20157 -0.18186
v 0.45399 0.20250 -0.02397
v -0.47074 0.19992 0.01811
v 0.41838 0.20352 0.20059
v -0.31103 0.19318 0.17699
v 0.34352 0.19948 0.33012
v 0.30832 0.19260 0.17889
v -0.14481 0.19970 0.44537
v -0.00912 0.19644 0.48981
v 0.21332 0.20008 0.41707
v -0.28579 0.20112 -0.36739
v -0.40973 0.19990 -0.22886
v -0.48168 0.19632 -0.10059
v -0.47411 0.19576 0.13631
v -0.21552 0.19445 0.44597
v 0.27455 0.19284 -0.22878
v 0.13574 0.19659 -0.46522
v 0.20378 0.19710 0.44368
v -0.05578 0.19659 -0.48144
v 0.19703 0.19642 -0.44938
v 0.47721 0.19761 -0.08516
v 0.48507 0.19401 0.08897
v 0.34800 0.19450 0.34800
v 0.33000 0.19450 0.36700
v 0.25979 0.18770 0.43420
v -0.19836 0.19255 -0.29771
v -0.34341 0.19124 -0.11168
v 0.49145 0.19264 0.01999
v 0.20701 0.19429 0.29691
v 0.36600 0.19350 0.32900
v 0.34800 0.19350 0.34800
v 0.29722 0.19357 0.39263
v 0.31507 0.19381 -0.37818
v -0.39751 0.19473 -0.29294
v -0.36681 0.18944 0.34216
v 0.45854 0.19736 0.17238
v 0.38100 0.19250 0.30900
v 0.05713 0.19237 -0.36177
v -0.14319 0.19321 0.33595
v 0.11381 0.19250 0.34043
v 0.13383 0.19030 -0.48774
v -0.50341 0.18612 0.03938
v 0.36586 0.19440 0.33082
v -0.36014 0.17599 -0.39045
v -0.39599 0.18095 -0.33138
v 0.28349 0.18093 -0.43600
v 0.33901 0.16797 -0.41266
v 0.51293 0.18286 -0.01949
v -0.53308 0.17295 0.03371
v 0.44716 0.18585 0.24812
v -0.41440 0.17735 0.33026
v -0.24145 0.17930 0.46615
v 0.12288 0.18669 0.49165
v 0.13446 0.18199 0.49886
v 0.06078 0.17919 0.52416
v -0.02307 0.18187 -0.51810
v -0.46098 0.18067 -0.22894
v 0.17748 0.18105 0.48312
v -0.49553 0.17908 -0.18483
v -0.48286 0.18132 0.19385
v 0.52835 0.17522 -0.03227
v 0.37054 0.17977 0.37464
v 0.11375 0.17450 -0.30725
v -0.04706 0.17450 -0.31750
v 0.28181 0.17450 -0.14925
v -0.24475 0.17450 -0.20900
v 0.32338 0.17450 0.04037
v 0.16700 0.17450 0.28025
v -0.31213 0.17450 0.01747
v -0.16375 0.17450 0.27575
v 0.00848 0.17272 -0.53047
v 0.24102 0.16869 0.47582
v 0.11414 0.16823 -0.52040
v -0.14511 0.16790 -0.51267
v 0.21446 0.16918 -0.48755
v 0.49575 0.17935 -0.17646
v 0.51825 0.18025 0.09533
v -0.05535 0.16631 -0.52946
v -0.24415 0.17711 -0.47136
v 0.48382 0.16739 0.22539
v -0.06412 0.16550 -0.53594
v 0.03410 0.16598 -0.53096
v 0.17074 0.16549 -0.52160
v -0.21164 0.16607 -0.48858
v 0.38826 0.16542 -0.39348
v -0.31269 0.16565 -0.43039
v 0.42091 0.17844 -0.31931
v 0.46033 0.16660 -0.26875
v -0.45971 0.16591 -0.27285
v -0.51191 0.16550 -0.19997
v 0.52450 0.16550 -0.10425
v -0.53847 0.16541 -0.10939
v 0.54963 0.16527 -0.05476
v 0.53290 0.16635 -0.01784
v 0.55079 0.16519 0.03955
v -0.54882 0.16550 -0.00105
v -0.53648 0.16665 -0.03042
v -0.49365 0.16720 0.20117
v -0.49095 0.16526 0.25086
v -0.40197 0.16635 0.34892
v 0.38123 0.16586 0.37639
v -0.32968 0.16665 0.42176
v -0.30395 0.16502 0.45986
v -0.13521 0.17204 0.51364
v -0.16003 0.16540 0.52590
v 0.19430 0.16581 0.49680
v -0.08142 0.16735 0.52716
v 0.14259 0.16504 0.53260
v -0.17288 0.16503 0.52516
v -0.09268 0.16505 0.54413
v -0.54164 0.16548 0.09264
v 0.51545 0.16625 0.15419
v 0.05846 0.16534 -0.54730
v 0.16972 0.16334 -0.52512
v 0.17100 0.16350 -0.52500
v 0.19800 0.16350 -0.51400
v 0.23144 0.16537 -0.49931
v -0.30000 0.16350 -0.46200
v -0.32400 0.16350 -0.44600
v -0.32754 0.16531 -0.44133
v -0.36327 0.16514 -0.41415
v -0.42987 0.13497 -0.34314
v -0.47725 0.16448 -0.27631
v -0.50327 0.16385 -0.22537
v -0.51400 0.16350 -0.19700
v -0.52500 0.16350 -0.17000
v -0.52613 0.16367 -0.16446
v -0.55145 0.16342 0.02384
v -0.54400 0.16350 0.08600
v -0.53368 0.16323 0.14378
v 0.43545 0.16510 0.33783
v -0.42339 0.16532 0.35127
v 0.32404 0.16501 0.44609
v -0.36677 0.16356 0.41203
v -0.00027 0.16136 -0.55199
v 0.08600 0.16250 -0.54400
v -0.04740 0.16475 -0.55026
v 0.11526 0.16420 -0.53934
v -0.11698 0.16378 -0.53913
v 0.19800 0.16250 -0.51400
v -0.17498 0.16520 -0.52188
v 0.22500 0.16250 -0.50400
v -0.24250 0.16496 -0.49497
v -0.27600 0.16250 -0.47800
v -0.30000 0.16250 -0.46200
v -0.42084 0.16531 -0.35562
v -0.50396 0.16105 -0.22441
v -0.50400 0.16250 -0.22400
v -0.51400 0.16250 -0.19700
v -0.55191 0.16274 0.00020
v -0.55029 0.13226 0.08607
v -0.54900 0.16250 0.05800
v 0.50383 0.16490 0.22916
v -0.44720 0.16348 0.32265
v -0.39000 0.16250 0.39000
v 0.35108 0.13588 0.43565
v 0.27479 0.16512 0.47758
v 0.23004 0.16498 0.50049
v 0.09293 0.16015 -0.54513
v 0.19419 0.16065 -0.51625
v 0.22704 0.16184 -0.50295
v -0.32460 0.16197 -0.44600
v -0.52397 0.16163 -0.17400
v 0.54145 0.13380 -0.10125
v -0.51347 0.13222 -0.22289
v -0.54845 0.16393 -0.05989
v -0.46456 0.13211 0.29633
v -0.44748 0.15986 0.32371
v -0.40964 0.16341 0.36942
v -0.35913 0.13212 0.42312
v -0.21599 0.13248 0.50841
v -0.29138 0.13176 -0.47528
v 0.42576 0.13172 -0.36650
v 0.48614 0.16473 -0.26351
v 0.50256 0.16524 -0.21115
v 0.52844 0.13208 0.13712
v 0.01597 0.16408 0.54958
v 0.21506 0.13432 -0.51942
v -0.24432 0.13150 -0.47930
v 0.36835 0.13150 -0.39528
v 0.50191 0.13161 -0.21085
v 0.14718 0.13233 0.53280
v -0.14278 0.13150 0.52165
v -0.03544 0.13151 0.55736
v -0.26952 0.12251 -0.49798
v 0.06731 0.12250 -0.51156
v 0.28006 0.12250 -0.43353
v 0.48441 0.12250 -0.18725
v -0.33280 0.12250 -0.36300
v 0.50678 0.12250 0.05741
v 0.56062 0.12250 -0.05371
v -0.52758 0.12250 0.17809
v 0.40675 0.12250 0.32350
v -0.38301 0.12250 0.41761
v 0.48613 0.12251 0.28630
v 0.23277 0.12250 0.46212
v -0.47128 0.12250 0.10177
v 0.05775 0.12250 0.51494
v -0.19662 0.12250 0.47588
v 0.05454 0.08310 -0.55138
v 0.13941 0.08301 -0.53699
v -0.02822 0.08364 -0.55416
v 0.09989 0.12250 -0.55377
v -0.49434 0.12250 -0.26048
v 0.40912 0.12250 -0.38977
v 0.51661 0.08339 -0.20055
v -0.55447 0.12250 -0.05262
v 0.53674 0.08363 0.13999
v -0.55416 0.08362 0.03244
v -0.54238 0.08373 0.11563
v -0.47771 0.08310 0.28008
v 0.41516 0.08298 0.36826
v 0.34975 0.08364 0.43084
v -0.22320 0.08326 0.50821
v 0.24215 0.12250 0.50385
v -0.05020 0.12250 0.55743
v 0.03184 0.08327 0.55321
v -0.13748 0.08263 0.53734
v -0.05361 0.08298 0.55222
v 0.54291 0.08366 -0.11607
v 0.16601 0.13150 -0.51590
v -0.48561 0.13150 -0.23928
v 0.44202 0.13193 0.31946
v -0.00087 0.08200 -0.52087
v -0.21575 0.08450 -0.47350
v 0.13125 0.08250 -0.50325
v 0.37575 0.08250 -0.36175
v -0.43825 0.08200 -0.27925
v -0.50300 0.08250 -0.13100
v 0.48150 0.08250 -0.20000
v 0.51475 0.08150 -0.08300
v -0.52150 0.08250 -0.00975
v -0.50800 0.08350 0.11075
v 0.51750 0.08350 0.05200
v 0.48225 0.08150 0.19775
v 0.44000 0.08150 0.28000
v -0.37525 0.08350 0.36000
v 0.35975 0.08350 0.37550
v -0.24800 0.08550 0.45675
v -0.05200 0.08350 0.51900
v -0.11300 0.08150 -0.50950
v -0.33037 0.08200 -0.40100
v 0.28225 0.08450 -0.43625
v -0.41384 0.08327 -0.36896
v 0.55333 0.08322 -0.03257
v -0.11837 0.08322 -0.54153
v 0.22273 0.08321 -0.50846
v -0.20000 0.08353 -0.51632
v 0.29871 0.08302 -0.46850
v -0.27890 0.08338 -0.47884
v 0.36943 0.08334 -0.41379
v -0.34895 0.08379 -0.43163
v 0.43104 0.08376 -0.34850
v 0.47895 0.08314 -0.28030
v -0.46729 0.08310 -0.29820
v 0.42700 0.08150 -0.29950
v -0.50778 0.08351 -0.22467
v -0.53668 0.08264 -0.13717
v -0.55132 0.08358 -0.05450
v 0.55192 0.08316 0.05491
v -0.46163 0.08300 0.24100
v 0.50720 0.08453 0.22412
v -0.51593 0.08334 0.20091
v 0.46697 0.08382 0.29970
v -0.43086 0.08366 0.34981
v -0.36853 0.08322 0.41400
v 0.27985 0.08326 0.47895
v 0.26175 0.08450 0.45125
v -0.29681 0.08280 0.46809
v -0.13000 0.08150 0.50500
v 0.20226 0.08314 0.51563
v 0.15750 0.08550 0.49650
v 0.04000 0.08350 0.51950
v 0.11482 0.08393 0.54345
v 0.12300 0.07450 -0.50700
v 0.18846 0.07177 -0.52102
v 0.49925 0.07100 -0.14487
v 0.52100 0.07150 -0.02350
v -0.35450 0.07450 0.38300
v -0.15150 0.07450 0.49850
v -0.14869 0.07328 -0.53515
v 0.02846 0.07418 -0.55503
v 0.10571 0.07254 -0.54449
v -0.23537 0.07242 -0.50199
v -0.30950 0.07274 -0.46045
v 0.26855 0.07200 -0.48541
v 0.33999 0.07164 -0.44113
v -0.37710 0.07281 -0.40595
v -0.43951 0.07187 -0.33966
v 0.45890 0.07226 -0.31212
v -0.52174 0.07228 -0.18744
v 0.53433 0.07328 -0.14870
v -0.54370 0.07295 -0.10770
v 0.55414 0.07319 0.02269
v -0.55044 0.07249 0.06773
v -0.53338 0.07298 0.15151
v -0.50309 0.07281 0.23353
v 0.52106 0.07190 0.18874
v 0.48546 0.07247 0.27162
v -0.46139 0.07308 0.30837
v 0.43632 0.07290 0.34283
v -0.40522 0.07245 0.37894
v 0.28825 0.07450 0.43325
v 0.37800 0.07280 0.40656
v -0.34191 0.07279 0.43658
v -0.18743 0.07231 0.52134
v -0.10589 0.07211 0.54498
v -0.04000 0.07184 0.55300
v 0.05950 0.07250 -0.51800
v -0.05238 0.07300 -0.51850
v 0.18150 0.07450 -0.48900
v 0.25600 0.07450 -0.45500
v -0.17900 0.07450 -0.48825
v 0.35125 0.07200 -0.38337
v -0.32200 0.07350 -0.40800
v 0.44725 0.07050 -0.26700
v -0.41550 0.07350 -0.31400
v -0.47350 0.07450 -0.21900
v -0.51025 0.07100 -0.09737
v 0.51850 0.07450 0.06250
v 0.49850 0.07450 0.15225
v -0.51650 0.07450 0.06025
v -0.48850 0.07250 0.18250
v 0.44925 0.07450 0.26450
v 0.38300 0.07450 0.35500
v -0.43150 0.07350 0.28950
v -0.26300 0.07350 0.45000
v 0.30973 0.07279 0.46011
v 0.14175 0.07350 0.50025
v -0.02000 0.07350 0.51975
v 0.10657 0.07352 0.54302
v 0.40550 0.07265 -0.37783
v -0.55409 0.03124 -0.02759
v 0.54430 0.03071 0.11080
v -0.26947 0.07269 0.48519
v 0.16328 0.07293 0.53044
v 0.43754 0.03051 -0.34211
v -0.48464 0.07280 -0.26931
v 0.50153 0.07250 -0.23470
v -0.52657 0.03081 -0.17388
v -0.55449 0.07298 -0.02094
v 0.54577 0.07259 0.10610
v 0.49264 0.03069 0.25376
v 0.40587 0.03068 0.37863
v 0.06418 0.03023 0.55105
v 0.02354 0.07275 0.55405
v -0.06534 0.07307 -0.55096
v -0.37247 0.05636 -0.41317
v -0.50224 0.03065 -0.23441
v 0.55256 0.07048 -0.07651
v 0.24082 0.07127 0.50288
v -0.10712 0.03026 -0.54403
v 0.15645 0.03109 -0.53372
v 0.37850 0.03069 -0.40497
v 0.51334 0.03068 -0.20958
v -0.54402 0.03023 -0.10915
v 0.55206 0.02997 -0.06355
v -0.53499 0.03097 0.14661
v 0.51960 0.03062 0.19421
v -0.43459 0.03431 0.34870
v -0.37665 0.03011 0.40795
v -0.30900 0.03033 0.46073
v -0.15326 0.03073 0.53368
v -0.02719 0.03611 0.55802
v -0.01200 0.03145 -0.55403
v -0.19225 0.03011 -0.52120
v -0.26926 0.03051 -0.48521
v -0.01875 0.02950 -0.52100
v 0.23378 0.03055 -0.50207
v 0.31117 0.03092 -0.45808
v -0.34080 0.03082 -0.43799
v -0.55168 0.03064 0.06235
v -0.50741 0.03121 0.22854
v -0.46154 0.03040 0.30708
v 0.28749 0.03058 0.47412
v 0.14909 0.02979 0.53368
v -0.06711 0.03054 0.55033
v 0.09250 0.02900 -0.51237
v -0.21700 0.02950 -0.47400
v 0.19100 0.02950 -0.48462
v -0.30975 0.02900 -0.41850
v -0.38200 0.02950 -0.35500
v 0.32050 0.02900 -0.40950
v -0.45300 0.02950 -0.25512
v 0.40975 0.02850 -0.32300
v 0.45575 0.02950 -0.25350
v -0.50200 0.02950 -0.13725
v 0.49263 0.02950 -0.16937
v -0.52000 0.02900 -0.03100
v 0.51600 0.02950 -0.08050
v 0.55419 0.02992 0.02311
v -0.51125 0.02850 0.10175
v 0.52088 0.02950 0.01175
v -0.48950 0.02950 0.17950
v -0.45550 0.02950 0.25375
v 0.50012 0.02950 0.14225
v -0.38288 0.03000 0.35150
v 0.46016 0.03037 0.30925
v 0.44875 0.02950 0.26450
v -0.29813 0.02900 0.42712
v 0.37725 0.03000 0.35837
v -0.18650 0.03000 0.48588
v 0.26750 0.02900 0.44737
v 0.23362 0.02928 0.50362
v -0.06100 0.02850 0.51825
v 0.17838 0.03000 0.48863
v 0.05075 0.02900 0.51837
v 0.06695 0.03051 -0.54977
v -0.10588 0.02900 -0.50925
v -0.40584 0.03050 -0.37743
v 0.48581 0.03068 -0.26855
v -0.45920 0.03077 -0.31082
v 0.53558 0.03115 -0.14482
v 0.34104 0.03072 0.43673
v -0.23508 0.03072 0.50311
v 0.20005 0.01847 -0.51753
v 0.48843 0.01831 -0.26421
v 0.52349 0.01869 -0.18351
v -0.54961 0.01876 -0.07480
v -0.55411 0.01821 0.01485
v 0.51805 0.01840 0.19969
v 0.05950 0.01950 -0.51737
v -0.03250 0.01950 -0.52100
v 0.18862 0.02000 -0.48450
v -0.13288 0.01950 -0.50250
v 0.28000 0.01950 -0.44050
v 0.36138 0.02000 -0.37356
v -0.26550 0.01950 -0.44950
v -0.40373 0.01784 -0.38048
v -0.33950 0.01950 -0.39475
v 0.44090 0.01847 -0.33692
v 0.44375 0.02000 -0.27313
v -0.42713 0.02000 -0.29625
v 0.50238 0.01900 -0.13363
v -0.48925 0.01950 -0.17863
v 0.52000 0.02000 -0.01112
v -0.51938 0.01950 -0.03913
v 0.49812 0.02000 0.15012
v -0.51137 0.01900 0.09387
v 0.42475 0.01950 0.30013
v -0.46825 0.02000 0.22837
v 0.36650 0.01950 0.37125
v -0.42600 0.01900 0.30025
v 0.28150 0.02000 0.43750
v -0.33675 0.01950 0.39737
v 0.17275 0.01950 0.49225
v -0.23987 0.02000 0.46237
v 0.06300 0.01950 0.51700
v -0.16950 0.01950 0.49400
v -0.05950 0.01950 0.51775
v 0.05643 0.01916 0.55173
v -0.05583 0.01873 -0.55249
v -0.12183 0.01840 -0.54071
v 0.11738 0.01869 -0.54269
v -0.18466 0.01843 -0.52292
v 0.32942 0.01718 -0.44904
v 0.37971 0.01792 -0.40317
v -0.45766 0.01817 -0.31317
v -0.49045 0.01838 -0.25861
v -0.51812 0.01827 -0.19825
v -0.53700 0.01842 -0.13635
v 0.55299 0.01914 -0.03441
v -0.54633 0.01844 0.10093
v 0.54406 0.01862 0.11600
v -0.52951 0.01846 0.16435
v -0.41188 0.01841 0.37015
v -0.36590 0.01838 0.41700
v 0.37083 0.01836 0.41272
v 0.30097 0.01849 0.46577
v -0.23794 0.01821 0.50076
v 0.22582 0.01835 0.50648
v 0.14097 0.01878 0.53556
v -0.02942 0.01883 0.55328
v 0.03440 0.01915 -0.55342
v 0.48023 0.01839 0.27758
v 0.12222 -0.01838 -0.54221
v -0.26405 0.01836 -0.48763
v -0.33513 0.01899 -0.44206
v 0.27818 0.01847 -0.47968
v 0.54602 0.01864 -0.09952
v 0.55432 0.01941 0.02980
v -0.50659 0.01837 0.22553
v -0.46488 0.01794 0.30431
v 0.43272 0.01826 0.35104
v -0.31432 0.01831 0.45701
v 0.23393 -0.01670 0.50294
v -0.11057 0.01738 0.54457
v 0.55189 -0.01635 -0.06345
v -0.54725 0.00609 0.11567
v 0.45936 -0.01736 0.31836
v -0.41632 -0.01839 0.36668
v -0.29141 -0.01633 0.47527
v 0.34756 -0.01749 0.43333
v 0.05150 0.00050 -0.21450
v 0.17400 0.00050 -0.13150
v -0.14063 0.00050 -0.15862
v 0.21450 0.00050 0.06025
v -0.21900 0.00050 0.01937
v 0.15125 0.00050 0.16375
v -0.10363 0.00050 0.18550
v -0.02816 -0.01842 -0.55313
v 0.20514 -0.01839 -0.51489
v -0.36551 -0.01814 -0.41724
v -0.42688 -0.01835 -0.35447
v 0.46809 -0.01901 -0.29757
v -0.51673 -0.01899 -0.20196
v 0.53764 -0.01882 -0.13997
v -0.50877 -0.01891 0.22288
v 0.47973 -0.02024 0.27754
v 0.17717 -0.01808 0.52515
v -0.16827 0.01012 0.52960
v 0.05247 -0.01847 0.55292
v -0.31440 -0.01841 -0.45658
v 0.51739 -0.01901 0.20255
v -0.35408 -0.01831 0.42698
v -0.03546 -0.01846 0.55293
v -0.54228 -0.01889 -0.11666
v -0.55391 -0.01892 -0.03358
v -0.55074 -0.01863 0.05297
v 0.54197 -0.01881 0.12273
v 0.44528 -0.01901 0.33161
v -0.46979 -0.01802 0.29484
v -0.11282 -0.01964 0.54254
v -0.09506 -0.01857 -0.54736
v -0.06125 -0.02050 -0.51800
v -0.17900 -0.01831 -0.52463
v -0.15937 -0.01950 -0.49562
v 0.03075 -0.02050 -0.52100
v 0.14300 -0.01950 -0.50100
v -0.22650 -0.01950 -0.47000
v -0.29663 -0.01950 -0.42812
v 0.22900 -0.01950 -0.46850
v 0.35348 -0.01844 -0.42666
v -0.39500 -0.01950 -0.33925
v 0.33037 -0.02000 -0.40138
v -0.45550 -0.01950 -0.25087
v 0.42875 -0.01950 -0.29675
v -0.47640 -0.01809 -0.28469
v 0.50870 -0.01980 -0.22281
v -0.50637 -0.02000 -0.12225
v 0.48337 -0.01900 -0.19213
v -0.52113 -0.01950 -0.01150
v 0.51775 -0.01950 -0.04963
v -0.51325 -0.01950 0.09050
v -0.48137 -0.02000 0.19888
v 0.51075 -0.01950 0.10325
v -0.41475 -0.02000 0.31325
v 0.48113 -0.02000 0.20012
v 0.40838 -0.01950 0.32362
v 0.39777 -0.01855 0.38553
v -0.33300 -0.01850 0.40150
v -0.26575 -0.01850 0.44850
v 0.32150 -0.01950 0.41025
v 0.29674 -0.01848 0.46864
v -0.22775 -0.02050 0.46950
v 0.24475 -0.01950 0.46050
v -0.15275 -0.01950 0.49900
v -0.03125 -0.02000 0.51900
v 0.13025 -0.01950 0.50375
v -0.19344 -0.01845 0.51948
v 0.03669 -0.01815 -0.55372
v 0.28137 -0.01863 -0.47753
v -0.25859 -0.01831 -0.49036
v 0.41768 -0.01813 -0.36561
v 0.55538 -0.01785 -0.00504
v 0.55184 -0.01884 0.05644
v -0.53741 -0.01823 0.13664
v 0.11637 -0.01844 0.54225
v 0.04323 -0.03119 -0.55333
v -0.36119 -0.03145 -0.42012
v 0.39004 -0.03107 -0.39337
v -0.52108 -0.03158 -0.18907
v -0.55092 -0.03160 -0.06228
v 0.51614 -0.03234 0.20606
v 0.42310 -0.03069 0.36265
v -0.24598 -0.03251 0.49876
v 0.29213 -0.03162 0.47146
v -0.12878 -0.03046 -0.53919
v 0.05050 -0.03000 -0.51888
v -0.00200 -0.03050 -0.52150
v 0.13575 -0.03000 -0.50287
v -0.07862 -0.03100 -0.51513
v 0.27050 -0.03050 -0.44400
v -0.19088 -0.03050 -0.48425
v 0.37475 -0.03000 -0.36125
v -0.29837 -0.03000 -0.42688
v 0.44400 -0.03050 -0.27375
v -0.39512 -0.02950 -0.33750
v 0.48125 -0.03050 -0.20075
v 0.50850 -0.03050 -0.11325
v -0.46912 -0.03050 -0.22588
v -0.54133 -0.03189 -0.12532
v -0.50725 -0.03050 -0.12025
v 0.52150 -0.03150 -0.01325
v 0.51375 -0.02950 0.08138
v -0.52063 -0.03000 -0.01963
v -0.55503 -0.03180 0.00383
v -0.54613 -0.03193 0.09200
v 0.49050 -0.03050 0.17950
v -0.51075 -0.03050 0.10337
v 0.46550 -0.03050 0.23550
v 0.43500 -0.03050 0.28850
v -0.46531 -0.02975 0.23219
v 0.36825 -0.03000 0.36700
v -0.38825 -0.03050 0.34700
v 0.23825 -0.03050 0.46400
v -0.27013 -0.03050 0.44425
v 0.12250 -0.03000 0.50538
v -0.13000 -0.03050 0.50450
v -0.01863 -0.03050 0.52100
v 0.13112 -0.03077 0.53895
v 0.12655 -0.03178 -0.54119
v 0.20805 -0.03184 -0.51393
v -0.21495 -0.03158 -0.51109
v -0.29198 -0.03154 -0.47166
v -0.42409 -0.03192 -0.35664
v -0.46241 -0.03162 -0.30568
v -0.49527 -0.03130 -0.25030
v 0.49286 -0.03169 -0.25412
v 0.52653 -0.03169 -0.17442
v 0.54365 -0.03159 -0.11073
v 0.55322 -0.03171 -0.04718
v 0.55553 -0.03273 0.03576
v 0.54309 -0.03290 0.12197
v -0.53250 -0.03156 0.15343
v -0.51110 -0.03189 0.21676
v -0.41909 -0.03158 0.36281
v -0.37402 -0.03165 0.40890
v -0.16668 -0.03216 0.53127
v -0.08344 -0.03163 0.54873
v 0.00384 -0.03171 0.55486
v -0.09778 0.13309 -0.54025
v 0.26858 -0.03170 -0.48472
v -0.54823 0.13197 0.02140
v 0.24668 0.13150 0.47935
v 0.32638 -0.03066 -0.44870
v 0.47390 -0.03142 0.28869
v 0.36377 -0.03160 0.41914
v 0.21569 -0.03160 0.51103
v -0.18078 -0.04589 -0.21088
v 0.04370 -0.04049 -0.27880
v -0.27123 -0.04658 -0.06351
v 0.23700 -0.04636 -0.14616
v -0.25550 -0.04623 0.11024
v 0.27729 -0.04552 0.01915
v -0.12642 -0.04518 0.24969
v 0.21237 -0.04548 0.17927
v 0.06481 -0.04588 0.27031
v 0.04568 -0.07315 -0.55347
v -0.04799 -0.03152 -0.55303
v 0.24579 -0.07385 -0.49696
v 0.44693 -0.03180 -0.32882
v -0.47387 -0.03124 0.29111
v -0.32373 -0.03183 0.45119
v -0.55314 -0.07240 -0.04716
v -0.51419 -0.07216 0.20821
v 0.08661 -0.07282 0.54783
v -0.55416 -0.07249 0.04116
v -0.48473 -0.07229 0.26858
v 0.38882 -0.07217 0.39515
v -0.06769 -0.07288 0.55066
v 0.07007 -0.03179 0.55090
v -0.20903 -0.07221 -0.51366
v 0.41901 -0.07341 -0.36546
v 0.38600 -0.07150 -0.35100
v -0.42024 -0.07255 -0.36132
v 0.47378 -0.07248 -0.28753
v 0.51412 -0.07277 -0.21090
v 0.55352 -0.07317 0.04549
v -0.54104 -0.07212 0.12608
v 0.51122 -0.07286 0.21519
v 0.43681 -0.07265 0.34250
v -0.44939 -0.07322 0.32620
v 0.32405 -0.07195 0.45211
v -0.32479 -0.07281 0.44978
v -0.25168 -0.07309 0.49385
v -0.19476 -0.07244 0.51929
v -0.12928 -0.07337 0.53908
v -0.00279 -0.07239 0.55419
v 0.12918 -0.07387 -0.53909
v 0.00200 -0.07350 -0.52150
v -0.08025 -0.07400 -0.51388
v 0.11337 -0.07350 -0.50837
v -0.20700 -0.07350 -0.47775
v 0.29889 -0.07245 -0.46696
v -0.28560 -0.07227 -0.47402
v -0.30425 -0.07250 -0.42325
v 0.23763 -0.07350 -0.46238
v -0.39425 -0.07350 -0.33850
v 0.36150 -0.07450 -0.37525
v 0.39800 -0.07350 -0.33700
v -0.46288 -0.07400 -0.23675
v 0.42250 -0.07450 -0.30650
v 0.46662 -0.07400 -0.23100
v -0.50675 -0.07350 -0.12350
v 0.54067 -0.07168 -0.12304
v -0.53992 -0.07329 -0.12764
v -0.51975 -0.07400 -0.03125
v 0.50625 -0.07300 -0.11925
v -0.51525 -0.07350 0.08025
v 0.53907 -0.07338 0.13030
v -0.49625 -0.07350 0.16000
v 0.51850 -0.07400 0.04162
v -0.44912 -0.07450 0.26325
v 0.48038 -0.07450 0.19937
v -0.36837 -0.07350 0.36650
v 0.43350 -0.07350 0.29150
v -0.26512 -0.07300 0.44838
v 0.35975 -0.07350 0.37663
v -0.16100 -0.07450 0.49600
v 0.26225 -0.07350 0.45025
v 0.16125 -0.07450 0.49575
v -0.08175 -0.07450 0.51525
v 0.04512 -0.07400 0.51775
v 0.16705 -0.07200 0.52948
v -0.04619 -0.07327 -0.55306
v -0.12578 -0.07228 -0.54194
v 0.19171 -0.07301 -0.52103
v 0.35980 -0.07377 -0.42148
v -0.35518 -0.07131 -0.42707
v -0.47006 -0.07197 -0.29374
v -0.51147 -0.07209 -0.21608
v 0.55294 -0.07268 -0.04216
v 0.47436 -0.07389 0.28943
v -0.39458 -0.07260 0.39016
v 0.25092 -0.07271 0.49478
v -0.03728 -0.08488 -0.55373
v 0.05659 -0.08387 -0.55143
v 0.13688 -0.08471 -0.53765
v -0.12263 -0.08474 -0.54113
v -0.20488 -0.08468 -0.51512
v 0.22156 -0.08428 -0.50860
v -0.28347 -0.08470 -0.47670
v 0.29642 -0.08464 -0.46929
v -0.35411 -0.08458 -0.42671
v 0.36729 -0.08428 -0.41522
v 0.41349 -0.08464 -0.36983
v -0.46811 -0.08407 -0.29726
v 0.49754 -0.08446 -0.24385
v -0.50882 -0.08409 -0.21983
v -0.53684 -0.08417 -0.13941
v 0.53108 -0.08418 -0.16145
v -0.55143 -0.08436 -0.05213
v 0.54911 -0.08400 -0.07696
v 0.55422 -0.08451 -0.01328
v -0.55373 -0.08489 0.03674
v 0.55239 -0.08441 0.05282
v -0.54083 -0.08494 0.12359
v 0.53799 -0.08466 0.13711
v -0.51485 -0.08458 0.20503
v 0.50847 -0.08386 0.22366
v -0.47827 -0.08437 0.28190
v 0.47046 -0.08490 0.29573
v 0.41688 -0.08463 0.36639
v -0.38202 -0.08462 0.40206
v -0.33200 -0.08454 0.44365
v -0.25821 -0.08468 0.48976
v 0.28179 -0.08446 0.47806
v -0.17878 -0.08473 0.52512
v -0.09331 -0.08476 0.54691
v 0.05644 -0.08416 0.55180
v -0.00453 -0.08528 0.55575
v 0.09000 -0.08350 -0.51187
v -0.06638 -0.08275 -0.51581
v 0.24413 -0.08350 -0.45900
v -0.19150 -0.08350 -0.48525
v 0.36750 -0.08350 -0.36937
v -0.41692 -0.08478 -0.36515
v -0.29837 -0.08350 -0.42562
v 0.44338 -0.08350 -0.27312
v -0.39075 -0.08350 -0.34550
v 0.49737 -0.08350 -0.15225
v -0.45487 -0.08350 -0.25313
v 0.52088 -0.08350 -0.00125
v -0.50312 -0.08350 -0.12975
v 0.50362 -0.08300 0.13087
v -0.51900 -0.08350 0.03200
v 0.43875 -0.08350 0.27913
v -0.49487 -0.08350 0.16250
v 0.33100 -0.08350 0.40113
v -0.42550 -0.08350 0.29850
v 0.19100 -0.08350 0.48387
v -0.31263 -0.08350 0.41562
v -0.19913 -0.08250 0.48125
v 0.06275 -0.08350 0.51713
v -0.06062 -0.08300 0.51737
v 0.12269 -0.08407 0.54181
v -0.42654 -0.08458 0.35400
v 0.45407 -0.08435 -0.31812
v 0.35353 -0.08457 0.42756
v 0.20586 -0.08475 0.51570
v 0.51560 -0.12351 -0.21540
v 0.42117 -0.12349 0.36944
v 0.10314 -0.12349 0.55493
v 0.29206 -0.17570 -0.18585
v -0.08791 -0.12350 -0.55247
v -0.06556 -0.12350 -0.51319
v -0.35981 -0.12350 -0.43084
v -0.31064 -0.12350 -0.37521
v 0.16565 -0.12349 -0.53390
v 0.14431 -0.12350 -0.49656
v 0.39004 -0.12349 -0.40134
v 0.37550 -0.12350 -0.35438
v -0.52587 -0.12350 -0.19269
v -0.47320 -0.12350 0.07314
v -0.55539 -0.12350 0.04262
v 0.55510 -0.12350 0.09853
v 0.50450 -0.12350 -0.06913
v -0.48675 -0.12350 0.27894
v 0.42741 -0.12350 0.29041
v -0.28578 -0.12350 0.48901
v -0.09238 -0.12350 0.50098
v 0.19380 -0.12350 0.47844
v 0.10233 -0.13331 -0.53762
v 0.26188 -0.13150 -0.47266
v -0.38033 -0.13184 -0.39760
v 0.44768 -0.13232 -0.32174
v -0.45928 -0.13291 -0.30252
v -0.52405 -0.13177 -0.15259
v -0.55513 -0.13150 0.02626
v 0.51625 -0.13189 0.17958
v -0.53257 -0.13158 0.12599
v 0.43832 -0.13168 0.31870
v -0.37250 -0.13150 0.39532
v 0.37552 -0.13194 0.40085
v -0.22758 -0.13171 0.50736
v -0.09279 -0.13254 0.54371
v -0.10675 -0.13191 -0.53364
v -0.23391 -0.13232 -0.50537
v 0.53181 -0.13179 -0.14554
v 0.22963 -0.13151 0.50851
v 0.28259 -0.13190 -0.48286
v -0.32495 -0.16455 -0.44542
v 0.54909 -0.13194 -0.02676
v -0.49488 -0.13180 0.25210
v -0.41213 -0.13237 0.37878
v 0.07276 -0.13240 0.54239
v -0.55179 -0.16377 0.00117
v -0.54894 -0.16375 0.05776
v 0.40041 -0.16565 0.37904
v 0.04834 -0.16544 -0.54950
v -0.02584 -0.16433 -0.55186
v 0.26728 -0.16633 -0.48315
v -0.27043 -0.16594 -0.48062
v -0.55176 -0.16426 -0.00112
v -0.54870 -0.16399 0.05709
v -0.54300 -0.16550 0.08600
v -0.34941 -0.16541 0.43253
v 0.02900 -0.16650 -0.54700
v -0.14619 -0.16595 -0.53243
v 0.16350 -0.16605 -0.52721
v -0.40098 -0.16605 -0.37913
v -0.47863 -0.16606 -0.27303
v -0.50347 -0.16591 -0.22318
v 0.49085 -0.16599 -0.25370
v 0.53922 -0.16585 -0.11995
v -0.52506 -0.16807 -0.08858
v -0.55030 -0.16630 -0.04161
v 0.53981 -0.16682 -0.03894
v 0.54438 -0.16597 0.09240
v -0.51129 -0.16924 0.16306
v -0.53952 -0.16442 0.11497
v -0.51887 -0.16593 0.18798
v 0.48145 -0.16587 0.27819
v 0.31462 -0.16709 0.42958
v 0.33667 -0.16611 0.43689
v -0.14260 -0.16596 0.53570
v 0.22961 -0.16889 0.48248
v 0.25552 -0.16557 0.49174
v 0.17922 -0.16628 0.52141
v 0.05936 -0.16581 0.54760
v -0.31016 -0.17424 -0.42913
v -0.35184 -0.16659 -0.39980
v -0.46457 -0.16713 0.28912
v -0.35158 -0.16723 0.40212
v -0.09896 -0.16701 0.52493
v -0.00215 -0.16727 -0.53171
v 0.36544 -0.16751 -0.39572
v -0.39121 -0.16731 -0.36007
v -0.44988 -0.17144 -0.28682
v 0.52339 -0.16922 -0.10738
v 0.52447 -0.16739 0.09626
v 0.48421 -0.17235 0.21878
v -0.22053 -0.17416 -0.48082
v -0.05138 -0.17550 -0.31325
v -0.25750 -0.17550 -0.19750
v -0.52997 -0.16750 -0.12522
v 0.18050 -0.17550 -0.26225
v -0.32231 -0.17550 -0.00956
v 0.32500 -0.17550 -0.01062
v 0.30700 -0.17550 0.11362
v -0.27500 -0.17550 0.17850
v -0.23200 -0.17550 0.23200
v 0.25238 -0.17550 0.20688
v 0.45951 -0.16828 0.27020
v -0.09413 -0.17550 0.31150
v 0.11288 -0.17550 0.30050
v -0.25545 -0.16886 0.46761
v 0.15756 -0.17016 -0.51043
v -0.14267 -0.17064 -0.51328
v 0.29100 -0.17436 -0.44247
v 0.32343 -0.18389 -0.40770
v 0.06568 -0.17644 -0.33146
v -0.14225 -0.17634 -0.30678
v 0.40641 -0.16791 -0.36564
v -0.32342 -0.17626 -0.11933
v 0.33008 -0.17648 0.06989
v 0.52299 -0.17508 0.10047
v -0.29721 -0.17616 0.16772
v 0.24725 -0.17646 0.22737
v -0.14364 -0.17642 0.30354
v 0.06476 -0.17645 0.33523
v 0.38065 -0.17109 0.37486
v -0.35900 -0.17480 0.39060
v -0.04582 -0.16769 0.54084
v 0.08205 -0.17667 -0.52241
v 0.24691 -0.17074 -0.47089
v -0.53047 -0.17147 0.02815
v -0.46885 -0.18430 0.21062
v -0.43671 -0.17614 0.29782
v -0.08504 -0.17302 -0.52283
v 0.08822 -0.19836 -0.47131
v 0.52127 -0.18202 -0.00158
v -0.51021 -0.18162 -0.09087
v 0.48175 -0.19133 0.13643
v -0.08553 -0.19159 0.49457
v 0.11722 -0.17800 0.51508
v 0.11845 -0.18165 0.50203
v -0.23451 -0.18141 0.47055
v -0.06878 -0.18068 0.52020
v 0.48406 -0.17841 -0.20457
v -0.47088 -0.18030 -0.22445
v -0.27266 -0.19319 -0.24100
v -0.34759 -0.18920 -0.04452
v 0.34209 -0.19416 0.13800
v 0.14390 -0.18997 0.32602
v -0.12162 -0.19321 0.34507
v 0.02639 -0.18179 0.51629
v -0.42559 -0.18149 -0.29148
v 0.51597 -0.18108 0.00435
v 0.18133 -0.18577 0.47292
v -0.04940 -0.19363 -0.35960
v 0.32197 -0.18897 -0.15140
v -0.32257 -0.18552 0.14007
v -0.13894 -0.18830 -0.48578
v 0.27367 -0.19338 -0.41525
v 0.42927 -0.19846 -0.21182
v 0.47754 -0.19421 -0.12644
v -0.42187 -0.19342 0.26311
v 0.39966 -0.18366 0.33044
v -0.24434 -0.19741 0.41303
v 0.03219 -0.19386 -0.49252
v -0.27016 -0.19444 -0.41346
v -0.48705 -0.19726 0.03435
v 0.42034 -0.19400 0.25798
v 0.25762 -0.18674 0.44223
v 0.23171 -0.19352 0.43844
v -0.43398 -0.19460 -0.23826
v 0.20968 -0.20002 -0.42297
v 0.36424 -0.19829 0.30440
v 0.07330 -0.20343 0.45375
v 0.15650 -0.19234 -0.32304
v -0.23261 -0.20051 -0.42203
v 0.33038 -0.20055 -0.25804
v -0.42309 -0.20234 -0.20277
v -0.27523 -0.20258 0.38393
v 0.08218 -0.20159 0.46776
v 0.25860 -0.20030 0.39296
v 0.19147 -0.20032 0.42986
v -0.06256 -0.19953 0.46767
v -0.47427 -0.19832 -0.04789
v -0.39856 -0.19908 0.24889
v 0.36386 -0.19962 -0.30714
v 0.48395 -0.19817 0.03355
v 0.45749 -0.19976 0.12628
usemtl m000
f 813 815 752
f 59 45 15
f 32 52 39
f 40 39 15
f 41 40 15
f 39 52 46
f 71 59 52
f 71 52 32
f 2 54 43
f 62 63 67
f 63 81 67
f 138 137 161
f 108 139 176
f 178 163 177
f 111 141 178
f 166 167 165
f 121 162 185
f 104 121 185
f 187 94 182
f 125 126 151
f 149 151 170
f 123 149 169
f 145 147 168
f 152 150 181
f 153 152 181
f 127 152 153
f 154 153 181
f 129 128 171
f 134 133 157
f 158 157 156
f 136 135 172
f 159 175 643
f 124 123 125
f 128 129 127
f 135 136 134
f 122 92 147
f 90 122 146
f 175 105 101
f 140 110 166
f 92 82 126
f 122 87 91
f 150 93 83
f 867 855 854
f 13 3 16
f 88 65 83
f 86 59 89
f 14 79 78
f 48 77 79
f 16 76 77
f 3 74 76
f 25 72 74
f 47 73 72
f 35 75 73
f 36 78 75
f 917 868 891
f 184 97 85
f 100 184 103
f 120 107 58
f 53 95 130
f 90 87 122
f 91 82 92
f 184 100 102
f 155 53 130
f 129 130 93
f 150 83 146
f 142 140 166
f 136 101 99
f 123 147 92
f 187 126 94
f 137 120 105
f 101 136 174
f 135 134 158
f 128 127 154
f 641 146 144
f 146 122 144
f 122 147 145
f 124 125 149
f 184 102 173
f 112 143 179
f 143 111 164
f 120 138 160
f 86 70 57
f 973 956 944
f 69 60 44
f 62 67 34
f 51 69 23
f 31 57 37
f 33 32 40
f 62 34 27
f 15 46 59
f 27 41 15
f 898 953 943
f 902 946 953
f 24 18 17
f 906 945 946
f 809 805 737
f 903 944 945
f 743 811 809
f 899 952 944
f 897 971 952
f 753 816 801
f 894 951 971
f 894 942 951
f 760 802 816
f 898 943 942
f 767 803 802
f 796 803 800
f 769 820 803
f 797 818 820
f 757 815 818
f 747 807 813
f 740 805 807
f 805 809 810
f 809 811 812
f 811 801 812
f 801 816 817
f 816 802 819
f 802 803 822
f 803 820 821
f 820 818 814
f 818 815 814
f 815 813 814
f 813 807 808
f 976 935 979
f 978 966 976
f 807 805 808
f 965 966 969
f 738 737 772
f 741 738 772
f 743 741 774
f 745 743 774
f 746 745 776
f 798 746 776
f 748 798 779
f 751 748 781
f 753 751 781
f 754 753 783
f 756 754 783
f 758 756 785
f 760 758 785
f 762 760 787
f 763 762 787
f 799 763 789
f 767 799 789
f 800 767 791
f 796 800 791
f 770 796 794
f 771 770 794
f 769 771 795
f 768 769 795
f 766 768 793
f 765 766 792
f 764 765 792
f 797 764 792
f 761 797 790
f 759 761 790
f 976 947 935
f 757 759 788
f 755 757 786
f 752 755 786
f 750 752 784
f 749 750 784
f 747 749 782
f 925 911 955
f 777 747 782
f 744 777 780
f 742 744 778
f 948 881 962
f 740 742 778
f 739 740 775
f 933 941 967
f 736 739 773
f 737 736 773
f 727 689 621
f 694 660 645
f 673 645 580
f 934 892 959
f 949 932 934
f 683 584 647
f 881 893 962
f 671 724 620
f 927 933 963
f 585 687 638
f 734 684 663
f 924 939 947
f 959 877 965
f 892 922 959
f 911 914 940
f 941 889 948
f 621 578 588
f 622 621 590
f 642 622 592
f 645 642 592
f 580 645 594
f 661 580 594
f 880 846 924
f 628 661 596
f 629 628 598
f 630 629 599
f 631 630 599
f 865 839 843
f 632 631 603
f 633 632 604
f 583 633 604
f 646 583 610
f 584 646 611
f 647 584 613
f 586 647 613
f 648 586 615
f 854 855 847
f 856 871 848
f 870 856 855
f 620 648 617
f 671 620 617
f 640 671 617
f 639 640 619
f 638 639 618
f 585 638 618
f 663 585 616
f 637 663 616
f 636 637 614
f 662 636 614
f 635 662 612
f 860 850 823
f 634 635 612
f 607 634 609
f 606 607 609
f 582 606 605
f 601 582 605
f 581 601 602
f 627 581 600
f 626 627 600
f 884 857 883
f 625 626 597
f 579 625 597
f 624 579 595
f 623 624 595
f 587 623 593
f 659 587 591
f 578 659 589
f 858 851 850
f 930 859 858
f 893 853 859
f 731 627 730
f 671 670 688
f 891 873 892
f 633 583 710
f 632 633 678
f 896 863 862
f 661 677 676
f 176 643 831
f 726 725 691
f 672 726 691
f 695 672 693
f 729 695 696
f 675 729 698
f 230 189 824
f 730 675 698
f 731 730 701
f 706 731 701
f 664 706 704
f 667 664 707
f 679 667 709
f 665 679 711
f 668 665 713
f 682 668 713
f 193 180 192
f 734 682 715
f 684 734 715
f 165 191 644
f 685 684 717
f 686 685 719
f 687 686 719
f 670 687 722
f 688 670 722
f 187 182 189
f 666 688 723
f 724 666 723
f 735 724 721
f 683 735 720
f 669 683 718
f 681 669 718
f 733 681 716
f 176 139 160
f 177 163 176
f 680 733 714
f 178 177 176
f 179 178 176
f 180 112 179
f 710 680 714
f 119 118 193
f 678 710 712
f 186 119 193
f 191 186 193
f 117 186 191
f 732 678 712
f 705 732 708
f 677 705 708
f 185 162 232
f 676 677 703
f 183 184 190
f 673 676 702
f 728 673 699
f 169 170 187
f 123 169 187
f 694 728 699
f 168 123 187
f 144 168 187
f 660 694 697
f 148 146 641
f 727 660 697
f 689 727 697
f 131 130 181
f 658 689 692
f 132 131 174
f 156 132 174
f 172 156 174
f 725 658 690
f 465 511 425
f 836 192 833
f 573 542 465
f 846 191 192
f 497 516 489
f 473 497 490
f 843 173 185
f 843 190 173
f 499 523 430
f 826 190 839
f 495 502 478
f 481 519 495
f 496 525 482
f 845 833 831
f 492 500 501
f 835 836 833
f 472 429 498
f 840 834 846
f 547 515 469
f 512 513 438
f 487 512 438
f 841 824 826
f 463 483 431
f 838 825 837
f 425 463 433
f 488 425 433
f 829 831 828
f 855 848 847
f 465 488 435
f 871 831 829
f 466 465 436
f 440 466 436
f 857 835 845
f 426 440 441
f 427 426 441
f 489 427 443
f 849 873 834
f 471 489 445
f 490 471 445
f 869 843 830
f 473 490 447
f 430 473 447
f 484 430 447
f 887 826 914
f 493 484 449
f 477 493 451
f 859 837 851
f 478 477 453
f 480 478 453
f 481 480 455
f 854 829 828
f 460 481 457
f 656 654 506
f 482 460 459
f 657 656 508
f 496 482 459
f 655 657 509
f 520 496 458
f 479 520 458
f 653 655 509
f 494 479 456
f 651 653 507
f 476 494 454
f 649 651 505
f 475 476 454
f 650 649 505
f 492 475 452
f 491 492 450
f 652 650 504
f 474 491 450
f 654 652 504
f 472 474 448
f 429 472 448
f 919 916 656
f 921 919 656
f 428 429 446
f 470 428 446
f 920 921 655
f 469 470 444
f 918 920 655
f 468 469 444
f 467 468 442
f 915 918 653
f 438 467 442
f 913 915 649
f 487 438 439
f 912 913 650
f 486 487 437
f 804 912 650
f 464 486 437
f 462 464 434
f 916 804 654
f 461 462 434
f 483 461 432
f 920 918 921
f 918 915 921
f 915 912 921
f 912 916 921
f 912 804 916
f 211 209 233
f 498 429 527
f 209 210 235
f 210 256 235
f 256 258 252
f 500 492 531
f 258 260 252
f 260 262 236
f 262 263 265
f 263 215 239
f 215 229 240
f 481 460 577
f 229 254 240
f 254 269 243
f 269 217 243
f 530 518 499
f 217 271 244
f 271 273 245
f 273 221 247
f 221 222 247
f 426 516 548
f 222 276 277
f 440 548 514
f 276 280 277
f 280 283 281
f 283 226 282
f 226 228 282
f 533 510 534
f 228 227 279
f 535 533 536
f 227 223 279
f 572 535 536
f 223 278 248
f 522 572 540
f 278 275 246
f 512 522 540
f 275 274 246
f 513 512 543
f 274 220 270
f 547 513 543
f 220 272 270
f 515 547 545
f 272 219 242
f 526 515 549
f 219 218 242
f 527 526 551
f 218 268 241
f 528 527 551
f 268 267 238
f 576 528 553
f 267 266 238
f 517 576 554
f 266 264 237
f 531 517 554
f 264 253 237
f 500 531 556
f 253 261 251
f 524 500 556
f 261 259 251
f 501 524 560
f 259 257 234
f 569 501 564
f 257 255 250
f 532 569 566
f 255 211 250
f 525 532 567
f 521 525 567
f 577 521 568
f 214 212 196
f 519 577 568
f 495 519 568
f 200 214 197
f 563 495 565
f 502 563 562
f 559 502 562
f 204 200 199
f 530 559 558
f 518 530 558
f 224 204 205
f 523 518 557
f 529 523 557
f 225 224 207
f 575 529 555
f 574 575 555
f 203 225 208
f 497 574 552
f 516 497 552
f 548 516 550
f 201 203 206
f 514 548 550
f 216 201 206
f 573 514 546
f 213 216 206
f 542 573 544
f 571 542 544
f 194 213 198
f 511 571 541
f 485 511 538
f 212 194 195
f 570 485 537
f 510 570 537
f 212 256 210
f 290 361 375
f 258 212 214
f 214 215 263
f 215 214 200
f 215 200 229
f 200 269 254
f 217 200 204
f 271 204 273
f 344 370 371
f 222 204 224
f 224 276 222
f 276 224 280
f 224 283 280
f 360 345 385
f 283 224 225
f 223 225 203
f 203 278 223
f 203 275 278
f 203 274 275
f 274 203 220
f 220 201 272
f 218 201 216
f 216 268 218
f 362 295 296
f 216 267 268
f 267 216 213
f 213 266 267
f 266 213 264
f 361 374 418
f 253 213 194
f 375 361 418
f 194 261 253
f 376 375 388
f 380 376 390
f 194 257 259
f 419 380 390
f 194 255 257
f 421 419 391
f 291 356 319
f 358 421 393
f 356 290 322
f 349 358 396
f 290 293 322
f 365 349 396
f 293 294 324
f 342 365 398
f 294 297 324
f 381 342 398
f 297 298 326
f 367 381 401
f 298 347 326
f 382 367 403
f 347 300 327
f 383 382 404
f 300 302 328
f 369 383 406
f 370 369 406
f 302 350 328
f 371 370 409
f 350 304 331
f 424 371 409
f 304 305 331
f 372 424 411
f 305 306 332
f 386 372 414
f 306 309 335
f 373 386 414
f 309 311 335
f 354 373 416
f 311 314 288
f 385 354 416
f 314 344 336
f 413 385 415
f 344 315 289
f 384 413 412
f 423 384 412
f 315 316 289
f 353 423 410
f 316 317 339
f 317 355 339
f 407 353 410
f 355 340 338
f 352 407 408
f 368 352 408
f 340 345 338
f 345 360 338
f 343 368 405
f 360 337 312
f 400 343 405
f 337 313 312
f 366 400 402
f 313 310 334
f 422 366 399
f 310 308 333
f 364 422 397
f 420 364 397
f 308 307 330
f 346 420 395
f 307 351 330
f 363 346 394
f 351 303 329
f 379 363 392
f 303 359 287
f 378 379 392
f 359 301 286
f 362 378 389
f 301 348 286
f 417 362 387
f 348 299 325
f 374 417 387
f 299 341 323
f 341 296 323
f 296 295 321
f 295 285 320
f 346 296 341
f 285 292 284
f 292 291 318
f 359 420 348
f 294 293 376
f 308 368 307
f 368 343 307
f 353 308 310
f 349 300 358
f 355 354 340
f 342 381 304
f 304 382 305
f 373 315 372
f 344 372 315
f 738 809 737
f 741 809 738
f 743 809 741
f 745 811 743
f 746 811 745
f 798 811 746
f 798 801 811
f 748 801 798
f 751 801 748
f 754 816 753
f 756 816 754
f 758 816 756
f 760 816 758
f 762 802 760
f 763 802 762
f 799 802 763
f 767 802 799
f 800 803 767
f 770 803 796
f 771 803 770
f 769 803 771
f 768 820 769
f 766 820 768
f 765 820 766
f 764 820 765
f 797 820 764
f 761 818 797
f 759 818 761
f 757 818 759
f 755 815 757
f 752 815 755
f 750 813 752
f 749 813 750
f 747 813 749
f 777 807 747
f 744 807 777
f 742 807 744
f 740 807 742
f 739 805 740
f 736 805 739
f 737 805 736
f 21 22 10
f 4 23 44
f 4 44 24
f 4 24 5
f 19 27 15
f 45 31 37
f 45 37 30
f 1 26 50
f 660 642 645
f 673 580 661
f 677 629 705
f 629 630 705
f 21 43 22
f 640 639 670
f 670 639 638
f 601 706 664
f 40 32 39
f 46 52 59
f 15 39 46
f 37 57 30
f 29 50 26
f 22 51 23
f 726 587 659
f 695 729 624
f 675 625 729
f 44 61 24
f 24 61 18
f 665 662 679
f 18 64 62
f 41 71 33
f 735 683 648
f 33 71 32
f 681 584 669
f 680 583 733
f 45 86 31
f 728 645 673
f 658 578 689
f 30 85 7
f 7 85 96
f 7 96 55
f 7 55 42
f 42 55 29
f 29 55 50
f 50 65 28
f 2 53 54
f 22 66 68
f 43 66 22
f 22 68 51
f 44 60 61
f 61 113 64
f 64 63 62
f 463 485 483
f 426 548 440
f 427 516 426
f 493 499 484
f 96 56 55
f 480 495 478
f 483 485 461
f 68 58 51
f 113 116 64
f 34 81 71
f 67 81 34
f 55 56 84
f 55 84 50
f 50 82 65
f 535 464 533
f 535 572 464
f 54 53 68
f 524 501 500
f 521 460 525
f 160 137 159
f 160 138 161
f 563 502 495
f 493 559 499
f 163 108 176
f 574 497 473
f 164 111 178
f 179 164 178
f 180 118 112
f 191 167 117
f 165 167 191
f 142 166 165
f 182 94 183
f 170 126 187
f 149 125 151
f 169 149 170
f 168 147 123
f 144 122 168
f 641 150 148
f 181 150 641
f 154 127 153
f 171 154 181
f 130 129 171
f 181 130 171
f 131 155 130
f 156 133 132
f 158 134 157
f 172 158 156
f 174 136 172
f 175 101 174
f 138 120 137
f 178 141 163
f 421 298 357
f 344 424 372
f 413 384 360
f 165 140 142
f 303 400 366
f 364 420 359
f 296 378 362
f 374 356 291
f 125 92 126
f 133 99 132
f 134 99 133
f 159 105 175
f 108 120 139
f 167 115 117
f 292 362 291
f 337 360 313
f 317 373 355
f 314 370 344
f 306 382 369
f 150 146 148
f 347 298 358
f 129 93 152
f 294 376 357
f 293 290 376
f 132 98 155
f 114 113 118
f 117 115 186
f 167 166 115
f 146 83 90
f 261 194 259
f 152 93 150
f 264 213 253
f 120 58 106
f 120 108 107
f 217 204 271
f 229 200 254
f 108 141 107
f 262 214 263
f 260 214 262
f 258 214 260
f 256 212 258
f 114 116 113
f 119 186 116
f 115 166 81
f 166 110 81
f 162 121 89
f 102 100 103
f 184 183 97
f 94 56 96
f 94 126 84
f 126 82 84
f 90 83 87
f 53 155 98
f 99 106 98
f 141 60 107
f 113 61 112
f 915 913 912
f 916 919 921
f 863 896 828
f 924 846 836
f 876 836 835
f 10 22 12
f 29 26 1
f 11 45 30
f 3 11 30
f 6 17 18
f 232 162 140
f 186 64 116
f 115 64 186
f 825 131 188
f 121 86 89
f 103 86 121
f 834 232 644
f 893 881 853
f 91 80 82
f 87 80 91
f 908 858 860
f 887 926 852
f 904 892 873
f 875 922 849
f 106 68 98
f 36 75 35
f 35 73 47
f 867 927 870
f 47 72 25
f 881 842 853
f 25 74 3
f 3 76 16
f 16 77 38
f 38 77 49
f 870 871 856
f 861 862 827
f 49 77 48
f 48 79 14
f 880 879 846
f 14 78 10
f 10 78 36
f 111 60 109
f 111 61 60
f 940 890 932
f 959 922 877
f 115 81 64
f 110 71 81
f 89 71 110
f 184 70 103
f 87 65 80
f 83 65 87
f 93 88 83
f 957 932 949
f 68 53 98
f 907 876 857
f 969 959 965
f 936 877 879
f 877 874 875
f 972 967 962
f 874 922 875
f 922 904 873
f 931 955 968
f 934 964 969
f 909 893 859
f 888 889 861
f 861 889 862
f 889 896 862
f 896 866 867
f 35 47 20
f 8 47 25
f 911 908 926
f 922 892 904
f 947 936 924
f 938 939 885
f 923 938 884
f 4 48 14
f 15 16 38
f 15 13 16
f 9 25 3
f 7 8 25
f 21 36 35
f 929 923 884
f 939 924 885
f 938 907 884
f 910 926 887
f 881 888 882
f 938 885 907
f 10 36 21
f 908 925 858
f 21 35 43
f 43 35 20
f 940 914 864
f 2 20 28
f 28 20 50
f 50 20 1
f 1 20 47
f 884 907 857
f 29 1 47
f 870 883 872
f 58 68 106
f 7 29 47
f 7 47 8
f 9 7 25
f 80 65 82
f 9 3 30
f 97 96 85
f 184 85 70
f 45 11 3
f 103 70 86
f 45 3 13
f 89 59 71
f 45 13 15
f 60 69 107
f 107 69 58
f 19 15 38
f 19 38 49
f 27 19 49
f 27 49 18
f 18 49 48
f 6 18 48
f 6 48 17
f 17 48 24
f 24 48 5
f 4 5 48
f 23 4 14
f 12 23 14
f 12 14 10
f 870 929 883
f 924 936 879
f 877 922 874
f 917 891 892
f 917 932 868
f 932 890 868
f 911 887 914
f 911 910 887
f 95 53 88
f 93 95 88
f 140 89 110
f 112 61 111
f 141 109 60
f 94 84 56
f 183 96 97
f 104 103 121
f 105 106 101
f 101 106 99
f 130 95 93
f 925 930 886
f 122 91 92
f 94 96 183
f 102 103 104
f 162 89 140
f 881 889 888
f 889 941 896
f 119 116 114
f 933 866 896
f 111 109 141
f 933 927 866
f 120 106 105
f 99 98 132
f 118 119 114
f 112 118 113
f 159 137 105
f 134 136 99
f 131 132 155
f 127 129 152
f 125 123 92
f 143 112 111
f 108 163 141
f 172 135 158
f 157 133 156
f 171 128 154
f 974 975 963
f 168 122 145
f 123 124 149
f 151 126 170
f 975 946 960
f 946 970 960
f 179 143 164
f 139 120 160
f 161 137 160
f 976 944 977
f 977 944 969
f 969 944 984
f 84 82 50
f 944 983 984
f 57 70 85
f 944 956 983
f 973 982 956
f 63 64 81
f 973 968 982
f 973 931 968
f 54 68 66
f 973 971 931
f 65 88 53
f 971 972 931
f 971 951 972
f 951 942 972
f 942 974 972
f 51 58 69
f 974 963 980
f 43 54 66
f 953 975 974
f 2 65 53
f 953 946 975
f 30 57 85
f 31 86 57
f 45 59 86
f 41 34 71
f 18 61 64
f 946 945 970
f 945 976 970
f 23 69 44
f 945 944 976
f 28 65 2
f 952 973 944
f 41 33 40
f 27 34 41
f 18 62 27
f 952 971 973
f 12 22 23
f 2 43 20
f 30 7 9
f 942 943 974
f 943 953 974
f 898 901 953
f 901 902 953
f 7 42 29
f 902 905 946
f 905 906 946
f 906 903 945
f 903 900 944
f 900 899 944
f 899 897 952
f 751 753 801
f 897 894 971
f 894 895 942
f 895 898 942
f 975 981 963
f 970 979 960
f 810 809 812
f 970 976 979
f 812 801 817
f 977 978 976
f 817 816 819
f 819 802 822
f 822 803 821
f 821 820 814
f 980 967 974
f 981 958 963
f 975 958 981
f 975 960 958
f 814 813 808
f 979 935 960
f 977 966 978
f 969 966 977
f 808 805 806
f 984 934 969
f 806 805 810
f 983 934 984
f 774 741 772
f 968 955 982
f 776 745 774
f 972 954 931
f 962 954 972
f 779 798 776
f 781 748 779
f 974 967 972
f 783 753 781
f 963 958 928
f 958 960 938
f 785 756 783
f 787 760 785
f 789 763 787
f 934 959 964
f 791 767 789
f 956 957 983
f 982 911 956
f 955 911 982
f 794 796 791
f 795 771 794
f 954 961 931
f 793 768 795
f 792 766 793
f 790 797 792
f 929 928 958
f 938 929 958
f 935 938 960
f 939 938 935
f 788 759 790
f 976 937 947
f 950 937 976
f 966 950 976
f 786 757 788
f 966 965 950
f 964 959 969
f 784 752 786
f 983 949 934
f 957 949 983
f 940 932 957
f 956 940 957
f 911 940 956
f 782 749 784
f 780 777 782
f 931 925 955
f 961 925 931
f 954 925 961
f 778 744 780
f 962 893 954
f 967 948 962
f 775 740 778
f 941 948 967
f 773 739 775
f 980 933 967
f 963 933 980
f 928 927 963
f 772 737 773
f 621 689 578
f 622 727 621
f 622 660 727
f 947 939 935
f 642 660 622
f 950 936 937
f 628 677 661
f 629 677 628
f 631 705 630
f 631 632 705
f 646 733 583
f 584 681 646
f 954 930 925
f 586 683 647
f 648 683 586
f 620 724 648
f 928 870 927
f 929 870 928
f 938 923 929
f 637 734 663
f 636 734 637
f 636 662 734
f 937 936 947
f 950 877 936
f 679 662 635
f 965 877 950
f 634 679 635
f 607 679 634
f 607 606 679
f 934 917 892
f 582 664 606
f 601 664 582
f 932 917 934
f 581 731 601
f 627 731 581
f 626 730 627
f 625 730 626
f 579 729 625
f 926 910 911
f 624 729 579
f 925 908 911
f 623 672 624
f 726 672 623
f 954 909 930
f 587 726 623
f 893 909 954
f 578 658 659
f 948 889 881
f 590 621 588
f 933 896 941
f 592 622 590
f 883 845 844
f 883 857 845
f 594 645 592
f 857 876 835
f 596 661 594
f 879 878 840
f 598 628 596
f 599 629 598
f 869 868 843
f 603 631 599
f 868 865 843
f 604 632 603
f 864 914 826
f 887 852 841
f 608 583 604
f 610 583 608
f 611 646 610
f 613 584 611
f 859 853 838
f 842 861 825
f 862 863 827
f 615 586 613
f 855 856 848
f 867 870 855
f 617 648 615
f 619 640 617
f 618 639 619
f 616 585 618
f 614 637 616
f 612 662 614
f 609 634 612
f 860 858 850
f 605 606 609
f 602 601 605
f 600 581 602
f 870 872 871
f 597 626 600
f 595 579 597
f 593 623 595
f 591 587 593
f 589 659 591
f 588 578 589
f 726 659 725
f 695 624 672
f 858 859 851
f 730 625 675
f 881 861 842
f 882 888 861
f 706 601 731
f 667 606 664
f 679 606 667
f 929 884 883
f 668 662 665
f 682 662 668
f 734 662 682
f 907 885 876
f 885 924 876
f 685 663 684
f 924 879 880
f 585 663 685
f 877 878 879
f 686 585 685
f 687 585 686
f 877 875 878
f 849 922 873
f 670 638 687
f 671 640 670
f 666 671 688
f 873 891 869
f 891 868 869
f 724 671 666
f 890 865 868
f 735 648 724
f 890 864 865
f 890 940 864
f 669 584 683
f 926 908 852
f 908 860 852
f 733 646 681
f 925 886 858
f 886 930 858
f 710 583 680
f 909 859 930
f 678 633 710
f 881 882 861
f 732 632 678
f 705 632 732
f 866 927 867
f 673 661 676
f 833 176 831
f 694 645 728
f 833 180 176
f 192 180 833
f 644 191 846
f 725 659 658
f 832 232 834
f 830 185 232
f 693 672 691
f 696 695 693
f 839 190 843
f 189 190 826
f 698 729 696
f 824 189 826
f 701 730 698
f 823 641 230
f 837 641 823
f 837 188 641
f 825 188 837
f 704 706 701
f 827 131 825
f 827 231 131
f 707 664 704
f 827 828 231
f 828 174 231
f 831 643 174
f 709 667 707
f 176 160 643
f 711 679 709
f 713 665 711
f 180 179 176
f 715 682 713
f 191 193 192
f 232 165 644
f 717 684 715
f 719 685 717
f 722 687 719
f 723 688 722
f 189 182 190
f 230 187 189
f 721 724 723
f 641 187 230
f 720 735 721
f 188 181 641
f 131 181 188
f 231 174 131
f 718 683 720
f 160 159 643
f 716 681 718
f 714 733 716
f 712 710 714
f 193 118 180
f 708 732 712
f 232 140 165
f 703 677 708
f 173 104 185
f 173 102 104
f 190 184 173
f 702 676 703
f 182 183 190
f 674 673 700
f 700 673 702
f 699 673 674
f 697 694 699
f 641 144 187
f 692 689 697
f 690 658 692
f 643 175 174
f 691 725 690
f 425 485 463
f 425 511 485
f 488 465 425
f 466 573 465
f 440 573 466
f 836 846 192
f 846 834 644
f 489 516 427
f 471 497 489
f 832 830 232
f 490 497 471
f 830 843 185
f 430 523 473
f 484 499 430
f 477 502 493
f 478 502 477
f 824 823 230
f 481 495 480
f 482 525 460
f 828 831 174
f 494 501 479
f 476 501 494
f 844 845 831
f 475 501 476
f 475 492 501
f 845 835 833
f 491 517 492
f 491 498 517
f 474 498 491
f 472 498 474
f 470 515 428
f 515 526 428
f 469 515 470
f 468 547 469
f 467 547 468
f 438 513 467
f 464 572 486
f 462 533 464
f 841 823 824
f 461 533 462
f 433 463 431
f 435 488 433
f 847 848 829
f 436 465 435
f 848 871 829
f 871 872 831
f 872 844 831
f 872 883 844
f 441 440 436
f 876 924 836
f 443 427 441
f 879 840 846
f 878 875 840
f 875 834 840
f 445 489 443
f 875 849 834
f 834 873 832
f 873 830 832
f 873 869 830
f 447 490 445
f 865 864 839
f 864 826 839
f 449 484 447
f 887 841 826
f 852 860 841
f 860 823 841
f 451 493 449
f 850 851 823
f 851 837 823
f 859 838 837
f 453 477 451
f 853 842 838
f 842 825 838
f 861 827 825
f 455 480 453
f 863 828 827
f 896 867 828
f 457 481 455
f 854 847 829
f 867 854 828
f 508 656 506
f 459 460 457
f 509 657 508
f 458 496 459
f 456 479 458
f 507 653 509
f 454 494 456
f 505 651 507
f 452 475 454
f 503 650 505
f 450 492 452
f 504 650 503
f 448 474 450
f 506 654 504
f 656 916 654
f 446 429 448
f 657 921 656
f 655 921 657
f 444 470 446
f 653 918 655
f 442 468 444
f 651 915 653
f 649 915 651
f 439 438 442
f 650 913 649
f 437 487 439
f 652 804 650
f 434 464 437
f 654 804 652
f 432 461 434
f 431 483 432
f 533 461 510
f 522 487 572
f 487 486 572
f 512 487 522
f 547 467 513
f 527 428 526
f 429 428 527
f 528 498 527
f 233 209 235
f 576 498 528
f 517 498 576
f 235 256 252
f 492 517 531
f 252 260 236
f 569 479 501
f 236 262 265
f 520 479 569
f 532 520 569
f 525 496 532
f 496 520 532
f 265 263 239
f 577 460 521
f 239 215 240
f 519 481 577
f 240 254 243
f 559 493 502
f 530 499 559
f 243 217 244
f 523 499 518
f 473 523 529
f 244 271 245
f 575 473 529
f 574 473 575
f 245 273 247
f 247 222 277
f 573 440 514
f 277 280 281
f 571 465 542
f 511 465 571
f 281 283 282
f 461 485 570
f 282 228 249
f 510 461 570
f 249 228 279
f 536 533 534
f 279 223 248
f 539 572 536
f 540 572 539
f 248 278 246
f 543 512 540
f 246 274 270
f 545 547 543
f 270 272 242
f 549 515 545
f 551 526 549
f 242 218 241
f 241 268 238
f 553 528 551
f 554 576 553
f 238 266 237
f 556 531 554
f 237 253 251
f 560 524 556
f 561 501 560
f 251 259 234
f 564 501 561
f 566 569 564
f 234 257 250
f 567 532 566
f 250 211 233
f 196 212 195
f 568 521 567
f 197 214 196
f 565 495 568
f 562 563 565
f 199 200 197
f 558 559 562
f 202 204 199
f 557 518 558
f 205 204 202
f 555 529 557
f 207 224 205
f 208 225 207
f 552 574 555
f 206 203 208
f 550 516 552
f 546 514 550
f 544 573 546
f 198 213 206
f 541 571 544
f 538 511 541
f 195 194 198
f 537 485 538
f 209 211 212
f 210 209 212
f 534 510 537
f 361 356 374
f 375 376 290
f 380 357 376
f 419 357 380
f 421 357 419
f 358 298 421
f 342 350 365
f 367 304 381
f 217 269 200
f 383 369 382
f 370 311 369
f 221 273 204
f 424 344 371
f 222 221 204
f 386 373 372
f 354 355 373
f 385 345 354
f 413 360 385
f 226 283 225
f 423 360 384
f 228 226 225
f 423 313 360
f 353 313 423
f 227 228 225
f 407 308 353
f 223 227 225
f 407 352 308
f 368 308 352
f 400 303 343
f 422 359 366
f 364 359 422
f 201 220 203
f 219 272 201
f 346 299 420
f 363 296 346
f 218 219 201
f 379 296 363
f 378 296 379
f 417 291 362
f 374 291 417
f 388 375 418
f 390 376 388
f 391 419 390
f 211 255 194
f 211 194 212
f 393 421 391
f 319 356 322
f 396 358 393
f 398 365 396
f 322 293 324
f 401 381 398
f 324 297 326
f 403 367 401
f 326 347 327
f 404 382 403
f 327 300 328
f 406 383 404
f 409 370 406
f 328 350 331
f 411 424 409
f 331 305 332
f 414 372 411
f 332 306 335
f 416 373 414
f 335 311 288
f 415 385 416
f 288 314 336
f 412 413 415
f 336 344 289
f 410 423 412
f 289 316 339
f 408 407 410
f 339 355 338
f 405 368 408
f 338 360 312
f 402 400 405
f 312 313 334
f 399 366 402
f 397 422 399
f 334 310 333
f 395 420 397
f 333 308 330
f 394 346 395
f 330 351 329
f 392 363 394
f 329 303 287
f 389 378 392
f 287 359 286
f 387 362 389
f 286 348 325
f 377 374 387
f 325 299 323
f 418 374 377
f 285 362 292
f 323 296 321
f 295 362 285
f 321 295 320
f 320 285 284
f 299 346 341
f 284 292 318
f 348 420 299
f 318 291 319
f 301 359 348
f 356 361 290
f 303 366 359
f 351 343 303
f 307 343 351
f 294 357 297
f 297 357 298
f 313 353 310
f 347 358 300
f 349 365 302
f 300 349 302
f 354 345 340
f 302 365 350
f 350 342 304
f 316 373 317
f 304 367 382
f 315 373 316
f 305 382 306
f 306 369 309
f 311 370 314
f 309 369 311
v -0.45100 -0.43350 -0.09600
v -0.45100 -0.43350 -0.08300
v -0.45100 -0.37250 -0.09600
v -0.45100 -0.37250 -0.08300
v -0.20000 -0.43350 -0.10800
v -0.20000 -0.43350 -0.07200
v -0.20000 -0.37250 -0.10800
v -0.20000 -0.37250 -0.07200
v -0.18300 -0.43350 -0.10300
v -0.16500 -0.43350 -0.06500
v -0.18300 -0.37250 -0.10300
v -0.16500 -0.37250 -0.06500
v -0.14615 -0.00760 -0.04350
v -0.14893 -0.00648 0.00191
v -0.14543 -0.00283 0.04184
v -0.08800 -0.43350 -0.10400
v -0.12000 -0.43350 -0.06367
v -0.08800 -0.37250 -0.10400
v -0.12000 -0.37250 -0.06367
v -0.09874 -0.00335 -0.10952
v -0.10463 -0.00739 -0.06061
v -0.10595 -0.00632 -0.00540
v -0.11985 -0.00277 0.05863
v -0.10655 -0.00913 0.10180
v -0.08240 0.01490 -0.04480
v -0.08735 0.02864 -0.00313
v -0.08577 0.01681 0.03646
v -0.08266 0.10061 0.00033
v -0.05598 -0.42752 0.12143
v -0.05625 -0.38563 0.12097
v -0.02995 -0.00827 -0.14991
v -0.05533 -0.00418 -0.12246
v -0.07342 -0.00106 -0.05950
v -0.08033 -0.00994 -0.02744
v -0.06061 -0.00943 0.07140
v -0.05123 -0.00675 0.11602
v -0.03224 -0.00640 0.14962
v -0.02750 0.01350 -0.09150
v -0.05937 0.03113 -0.05983
v -0.08034 0.04099 -0.01320
v -0.05448 0.03129 0.06545
v -0.02950 0.01517 0.08967
v -0.05009 0.11075 -0.05557
v -0.06884 0.11531 -0.00182
v -0.05105 0.11093 0.05467
v -0.04101 0.13751 -0.04906
v -0.05780 0.13824 -0.00753
v -0.04371 0.13745 0.04682
v 0.01642 -0.42750 0.12721
v 0.01337 -0.38545 0.12784
v 0.01302 -0.00856 -0.15127
v 0.00745 -0.00824 -0.10637
v 0.00030 -0.01127 -0.08668
v 0.00345 -0.00135 0.12393
v 0.00410 -0.00294 0.15001
v 0.00225 0.01682 -0.09134
v 0.00545 0.03413 -0.08468
v 0.01004 0.03971 0.08285
v 0.00341 0.01786 0.09161
v 0.00697 0.11267 -0.07262
v 0.01616 0.12150 -0.00297
v 0.00721 0.11295 0.07223
v 0.00745 0.13765 -0.06147
v 0.00687 0.13950 -0.00600
v 0.00780 0.13773 0.06035
v 0.05972 -0.42750 0.11972
v 0.06002 -0.38568 0.12041
v 0.03700 -0.00250 -0.15100
v 0.07196 -0.00293 -0.11986
v 0.08348 -0.00483 -0.05457
v 0.08753 -0.01167 -0.01905
v 0.06481 -0.00802 0.07066
v 0.05628 -0.00739 0.11639
v 0.04375 -0.00300 0.14875
v 0.06595 0.02952 -0.05563
v 0.08616 0.03130 -0.00557
v 0.05980 0.02971 0.06182
v 0.03700 0.01350 0.08800
v 0.05655 0.11010 -0.05185
v 0.07496 0.11138 -0.00146
v 0.05729 0.11007 0.05098
v 0.04763 0.13743 -0.04446
v 0.06227 0.13772 -0.00873
v 0.04978 0.13731 0.04264
v 0.14800 -0.43350 -0.05600
v 0.14800 -0.37250 -0.05600
v 0.10595 -0.00406 -0.10695
v 0.12619 -0.00912 -0.06322
v 0.12651 -0.00491 0.00036
v 0.13169 -0.00299 0.05292
v 0.11014 -0.00911 0.09902
v 0.09600 0.01350 0.00000
v 0.15525 -0.00250 -0.00000
v 0.30850 -0.49242 -0.10475
v 0.31028 -0.49143 -0.06938
v 0.31137 -0.44676 -0.10268
v 0.31082 -0.44850 -0.07143
v 0.29700 -0.43350 -0.02900
v 0.31300 -0.37250 -0.09913
v 0.31142 -0.37250 -0.07617
v 0.29700 -0.37250 -0.02900
v 0.33350 -0.49300 -0.09550
v 0.33611 -0.49128 -0.07078
v 0.36840 -0.48653 0.01527
v 0.35569 -0.47681 0.04508
v 0.38933 -0.47150 0.10933
v 0.33350 -0.44350 -0.09550
v 0.33622 -0.44872 -0.07100
v 0.36905 -0.44818 0.01547
v 0.36933 -0.44917 0.05267
v 0.35600 -0.43650 0.32100
v 0.35600 -0.37350 0.32100
v 0.39243 -0.47150 0.00343
v 0.41940 -0.48130 0.06120
v 0.42037 -0.49750 0.11687
v 0.43768 -0.47979 0.18043
v 0.43000 -0.43550 -0.05900
v 0.41800 -0.43350 -0.01600
v 0.40850 -0.44750 0.05975
v 0.42037 -0.44575 0.11688
v 0.44327 -0.45032 0.17691
v 0.43000 -0.37317 -0.05900
v 0.41800 -0.37250 -0.01600
v 0.45825 -0.47675 0.12050
v 0.47191 -0.48239 0.17996
v 0.47207 -0.47883 0.21517
v 0.45400 -0.45150 0.12300
v 0.47006 -0.44294 0.18378
v 0.47217 -0.44100 0.21223
v 0.56650 -0.43650 -0.06700
v 0.53100 -0.43350 -0.01450
v 0.56650 -0.43650 0.32100
v 0.56650 -0.37350 -0.06700
v 0.53100 -0.37250 -0.01450
v 0.56650 -0.37350 0.32100
v 0.57267 -0.43233 -0.06700
v 0.57267 -0.43233 0.32100
v 0.57267 -0.37733 -0.06700
v 0.57267 -0.37733 0.32100
usemtl m001
f 1073 1076 1060
f 1057 1062 1043
f 1020 1043 1026
f 1007 1025 1011
f 1007 1011 1010
f 1036 1040 1041
f 1068 1067 1048
f 1049 1068 1048
f 1047 1030 1048
f 1054 1055 1072
f 1046 1049 1032
f 1029 1032 1031
f 1044 1047 1066
f 1063 1066 1067
f 1046 1065 1045
f 1044 1027 1045
f 1036 1016 1040
f 1015 1016 1035
f 1024 1023 1017
f 1006 1017 1005
f 998 1006 1005
f 1025 1019 1020
f 1060 1059 1063
f 1042 1062 1061
f 1005 1016 1004
f 1010 1024 1028
f 1025 1042 1046
f 1042 1061 1065
f 1061 1060 1064
f 1028 1024 1025
f 1027 1023 1024
f 1044 1041 1023
f 1063 1059 1041
f 1040 1041 1037
f 1055 1073 1072
f 1055 1059 1060
f 1053 1035 1036
f 1058 1057 1038
f 1038 1020 1021
f 999 1006 998
f 1007 1006 999
f 1004 1017 1016
f 1005 1017 1004
f 1060 1061 1074
f 1023 1022 1016
f 1022 1040 1016
f 1041 1059 1053
f 1023 1041 1040
f 1022 1023 1040
f 1011 1025 1010
f 1025 1024 1010
f 1057 1061 1062
f 1066 1047 1048
f 1067 1066 1048
f 1019 1007 1008
f 1020 1026 1025
f 1005 1006 997
f 1010 1024 1018
f 1018 1024 1017
f 1023 1009 1005
f 1067 1068 1065
f 1068 1049 1046
f 1031 1030 1027
f 1030 1047 1044
f 1065 1064 1045
f 1063 1044 1045
f 1064 1063 1045
f 1061 1057 1056
f 1035 1053 1052
f 1075 1074 1056
f 1056 1074 1061
f 1038 1057 1043
f 1006 1007 1010
f 1017 1005 1023
f 1054 1053 1059
f 1026 1043 1025
f 1048 1032 1049
f 1031 1032 1048
f 1048 1030 1031
f 1060 1073 1055
f 1029 1046 1032
f 1028 1029 1031
f 1027 1028 1031
f 1063 1044 1066
f 1045 1029 1046
f 1028 1029 1045
f 1045 1027 1028
f 997 998 1005
f 1020 1019 1008
f 1064 1060 1063
f 1012 1010 1028
f 1029 1025 1046
f 1046 1042 1065
f 1065 1061 1064
f 1029 1028 1025
f 1028 1027 1024
f 1027 1044 1023
f 1044 1063 1041
f 1035 1016 1036
f 1037 1036 1040
f 1054 1059 1055
f 1057 1039 1058
f 1039 1058 1038
f 1021 1039 1038
f 1072 1071 1054
f 1053 1054 1071
f 1073 1060 1074
f 1038 1043 1020
f 1019 1025 1007
f 1017 1023 1016
f 1036 1041 1053
f 1062 1042 1043
f 1043 1042 1025
f 1075 1056 1057
f 1018 1017 1006
f 1006 1010 1018
f 1064 1067 1065
f 1065 1068 1046
f 1027 1030 1044
f 1063 1067 1064
f 1096 1106 1117
f 1119 1117 1122
f 1121 1120 1114
f 1116 1114 1101
f 1123 1122 1120
f 1096 1119 1117
f 1119 1123 1122
f 1121 1116 1114
f 1116 1095 1101
f 1123 1121 1120
f 986 988 987
f 990 986 985
f 988 992 991
f 990 992 988
f 985 987 991
f 990 989 993
f 992 990 994
f 991 992 996
f 989 991 995
f 993 995 996
f 996 994 1001
f 994 996 1003
f 1003 1001 1069
f 1001 1003 1070
f 1082 1081 1101
f 1085 1082 1102
f 1084 1085 1107
f 1081 1084 1106
f 1069 1070 1084
f 1070 1069 1082
f 1102 1101 1115
f 1107 1102 1115
f 1106 1107 1118
f 1101 1106 1118
f 1001 1000 1080
f 1003 1001 1081
f 1002 1003 1084
f 1000 1002 1083
f 1050 1033 1034
f 1033 1050 1051
f 1013 1033 1034
f 1033 1013 1014
f 1092 1087 1079
f 1087 1092 1081
f 1109 1112 1105
f 1109 1100 1105
f 1091 1080 1081
f 1086 1078 1080
f 1086 1079 1078
f 1092 1091 1081
f 1087 1086 1091
f 1087 1079 1086
f 1078 1079 1081
f 1081 1080 1083
f 1080 1081 1084
f 1110 1109 1112
f 1109 1110 1113
f 1100 1109 1112
f 1109 1100 1099
f 1098 1089 1088
f 1093 1097 1088
f 1103 1098 1097
f 1111 1108 1098
f 1112 1109 1108
f 1104 1111 1103
f 1094 1103 1093
f 1105 1112 1104
f 1089 1094 1093
f 1090 1104 1094
f 1100 1105 1104
f 1099 1090 1089
f 1099 1100 1090
f 985 986 987
f 989 990 985
f 987 988 991
f 986 990 988
f 989 985 991
f 994 990 993
f 996 992 994
f 995 991 996
f 993 989 995
f 994 993 996
f 1003 996 1001
f 1001 994 1003
f 1070 1003 1069
f 1069 1001 1070
f 1102 1082 1101
f 1107 1085 1102
f 1106 1084 1107
f 1101 1081 1106
f 1084 1070 1085
f 1081 1069 1084
f 1082 1069 1081
f 1085 1070 1082
f 1118 1107 1115
f 1115 1101 1118
f 1081 1001 1080
f 1084 1003 1081
f 1083 1002 1084
f 1080 1000 1083
f 1051 1050 1034
f 1034 1033 1051
f 1014 1013 1034
f 1034 1033 1014
f 1081 1092 1079
f 1079 1087 1081
f 1091 1086 1080
f 1092 1087 1091
f 1080 1078 1081
f 1084 1081 1083
f 1083 1080 1084
f 1113 1110 1112
f 1112 1109 1113
f 1105 1100 1112
f 1098 1099 1089
f 1098 1108 1099
f 1108 1109 1099
f 1097 1098 1088
f 1093 1103 1097
f 1103 1111 1098
f 1111 1112 1108
f 1104 1112 1111
f 1094 1104 1103
f 1088 1089 1093
f 1089 1090 1094
f 1090 1100 1104
v -0.27982 -0.04723 -0.03473
v -0.28000 -0.04679 0.02607
v -0.27933 -0.00228 -0.03833
v -0.27900 -0.01004 0.02554
v -0.28594 0.09855 -0.12394
v -0.30080 0.09513 -0.05250
v -0.30261 0.09470 0.04132
v -0.28701 0.09896 0.11864
v -0.29288 0.16413 -0.13566
v -0.31778 0.16502 -0.05145
v -0.31882 0.16520 0.04174
v -0.29513 0.16415 0.13063
v -0.27500 0.15836 0.18300
v -0.19700 -0.04950 -0.20600
v -0.23517 -0.04519 -0.14793
v -0.26454 -0.04312 -0.07515
v -0.26707 -0.04310 0.05807
v -0.23734 -0.04491 0.14352
v -0.20200 -0.04950 0.20100
v -0.19229 -0.01179 -0.20371
v -0.21052 -0.01827 -0.13591
v -0.23406 -0.01163 -0.05178
v -0.23510 -0.01088 0.04246
v -0.21267 -0.01752 0.12964
v -0.19658 -0.01800 0.19567
v -0.21285 0.09682 -0.22210
v -0.25526 0.09076 -0.16047
v -0.27200 0.06850 -0.08900
v -0.27250 0.06850 0.08800
v -0.25815 0.08977 0.15437
v -0.21691 0.09647 0.21756
v -0.22295 0.16433 -0.23207
v -0.26442 0.17026 -0.17680
v -0.26764 0.17061 0.17150
v -0.22613 0.16464 0.22859
v -0.14331 -0.04491 -0.23734
v -0.14100 -0.04498 0.23861
v -0.12697 -0.01995 -0.21788
v -0.13829 0.00299 -0.15136
v -0.14544 0.00475 -0.05399
v -0.14816 0.00472 0.04659
v -0.13715 0.00512 0.13767
v -0.12910 -0.01755 0.21334
v -0.11142 0.09808 -0.29167
v -0.14713 0.09235 -0.26378
v -0.15241 0.09000 0.25902
v -0.11941 0.09842 0.28690
v -0.12184 0.16351 -0.29973
v -0.16395 0.16848 -0.27449
v -0.17034 0.17219 0.26734
v -0.12906 0.16385 0.29602
v -0.01000 -0.04950 -0.28500
v -0.04615 -0.04435 -0.27200
v -0.05079 -0.04257 0.26771
v -0.02954 -0.04719 0.28054
v -0.01000 0.00850 -0.28500
v -0.04201 -0.01154 -0.23786
v -0.04458 0.00488 -0.15046
v -0.04539 0.00475 0.14899
v -0.04202 -0.01099 0.23541
v -0.02833 -0.00758 0.27950
v -0.03930 0.09649 -0.30438
v -0.06413 0.07081 -0.27975
v -0.04264 0.09479 0.30276
v -0.04041 0.16530 -0.31896
v -0.04087 0.16544 0.31917
v 0.01750 -0.04950 -0.28500
v 0.06230 -0.04459 -0.27000
v 0.07720 -0.04363 0.26527
v 0.03364 -0.04723 0.28027
v 0.01750 0.00850 -0.28500
v 0.05248 -0.01193 -0.23613
v 0.05384 0.00491 -0.14781
v 0.05484 0.00488 0.14599
v 0.05224 -0.01194 0.23487
v 0.04113 0.00238 0.28050
v 0.05174 0.09746 -0.30274
v 0.07100 0.07155 -0.27870
v 0.09133 0.06783 0.27100
v 0.05270 0.09502 0.30141
v 0.05243 0.16524 -0.31750
v 0.05224 0.16539 0.31748
v 0.15000 -0.04521 -0.23425
v 0.15056 -0.04506 0.23415
v 0.13515 -0.02166 -0.21652
v 0.15240 0.00097 -0.15090
v 0.14832 0.00496 -0.05286
v 0.15055 0.00497 0.04511
v 0.15406 0.00231 0.13989
v 0.13669 -0.01837 0.21050
v 0.11514 0.09777 -0.29173
v 0.15508 0.09277 -0.26068
v 0.16047 0.09108 0.25583
v 0.12476 0.09912 0.28551
v 0.12737 0.16351 -0.29775
v 0.17077 0.16749 -0.27111
v 0.17676 0.16942 0.26551
v 0.13628 0.16365 0.29342
v 0.20233 -0.04950 -0.20100
v 0.23543 -0.04521 -0.14843
v 0.27061 -0.04459 -0.06043
v 0.27196 -0.04414 0.04628
v 0.23800 -0.04507 0.14307
v 0.20500 -0.04950 0.19825
v 0.20233 0.00850 -0.20100
v 0.21751 -0.02198 -0.13459
v 0.23650 -0.01196 -0.05154
v 0.23774 -0.01146 0.04262
v 0.21927 -0.02040 0.12692
v 0.20286 -0.01179 0.19371
v 0.21868 0.09718 -0.21770
v 0.26149 0.09270 -0.15376
v 0.27935 0.07155 -0.06905
v 0.28020 0.07110 0.06447
v 0.26437 0.09187 0.14767
v 0.22186 0.09694 0.21372
v 0.22865 0.16429 -0.22731
v 0.27224 0.16726 -0.16927
v 0.27418 0.16838 0.16461
v 0.23186 0.16442 0.22380
v 0.28500 -0.04950 -0.01550
v 0.28533 -0.04950 0.01200
v 0.28500 0.00850 -0.01550
v 0.28533 0.00850 0.01200
v 0.29120 0.09961 -0.11533
v 0.30330 0.09706 -0.05112
v 0.30441 0.09649 0.04131
v 0.29224 0.09929 0.11024
v 0.29855 0.16327 -0.12625
v 0.31772 0.16536 -0.05128
v 0.31908 0.16539 0.04153
v 0.29986 0.16339 0.12256
usemtl m002
f 1158 1135 1157
f 1198 1197 1182
f 1195 1196 1208
f 1208 1196 1209
f 1224 1230 1229
f 1176 1180 1161
f 1139 1145 1126
f 1227 1233 1232
f 1226 1232 1231
f 1244 1246 1230
f 1223 1229 1228
f 1175 1179 1180
f 1130 1131 1153
f 1169 1170 1187
f 1236 1249 1235
f 1238 1251 1250
f 1207 1213 1233
f 1140 1146 1147
f 1142 1148 1166
f 1160 1166 1184
f 1178 1184 1199
f 1245 1247 1246
f 1209 1210 1230
f 1147 1165 1164
f 1180 1176 1159
f 1227 1233 1213
f 1213 1207 1227
f 1177 1160 1178
f 1177 1183 1166
f 1206 1195 1208
f 1184 1178 1193
f 1180 1175 1176
f 1190 1175 1176
f 1222 1208 1209
f 1229 1223 1222
f 1165 1147 1148
f 1230 1210 1211
f 1146 1127 1125
f 1124 1126 1145
f 1126 1127 1146
f 1230 1244 1224
f 1231 1225 1224
f 1225 1245 1244
f 1146 1164 1163
f 1146 1140 1141
f 1229 1230 1223
f 1138 1145 1144
f 1225 1231 1232
f 1144 1163 1162
f 1166 1182 1165
f 1180 1181 1196
f 1145 1139 1124
f 1212 1213 1233
f 1227 1226 1232
f 1230 1224 1223
f 1174 1173 1158
f 1146 1147 1141
f 1125 1140 1146
f 1231 1230 1224
f 1245 1225 1231
f 1145 1146 1140
f 1127 1126 1124
f 1142 1160 1166
f 1147 1141 1142
f 1195 1180 1176
f 1180 1195 1191
f 1190 1191 1195
f 1183 1198 1192
f 1184 1183 1178
f 1221 1220 1243
f 1183 1177 1178
f 1161 1159 1137
f 1143 1144 1162
f 1193 1192 1198
f 1198 1192 1207
f 1213 1198 1207
f 1180 1161 1159
f 1247 1250 1249
f 1199 1203 1202
f 1193 1199 1198
f 1184 1187 1203
f 1166 1169 1187
f 1148 1154 1169
f 1147 1153 1154
f 1141 1147 1148
f 1146 1152 1153
f 1127 1130 1152
f 1126 1129 1130
f 1213 1216 1239
f 1186 1185 1167
f 1215 1214 1200
f 1150 1128 1129
f 1202 1203 1216
f 1152 1130 1153
f 1179 1185 1186
f 1215 1219 1218
f 1170 1169 1174
f 1169 1173 1174
f 1195 1201 1200
f 1191 1195 1194
f 1229 1235 1234
f 1235 1248 1252
f 1228 1234 1215
f 1222 1228 1208
f 1153 1131 1135
f 1246 1249 1236
f 1231 1237 1250
f 1225 1231 1247
f 1232 1238 1237
f 1233 1239 1238
f 1238 1242 1255
f 1198 1202 1216
f 1192 1198 1213
f 1150 1156 1132
f 1250 1254 1253
f 1145 1151 1129
f 1251 1255 1254
f 1144 1150 1151
f 1239 1243 1242
f 1161 1168 1149
f 1216 1220 1243
f 1159 1161 1143
f 1180 1186 1168
f 1203 1205 1221
f 1187 1189 1205
f 1194 1200 1185
f 1190 1194 1179
f 1170 1174 1189
f 1208 1215 1201
f 1154 1158 1173
f 1154 1153 1157
f 1230 1236 1235
f 1131 1130 1134
f 1143 1149 1150
f 1137 1143 1144
f 1130 1129 1133
f 1128 1132 1133
f 1150 1149 1155
f 1149 1168 1172
f 1167 1185 1188
f 1185 1200 1204
f 1200 1218 1204
f 1200 1214 1218
f 1215 1234 1240
f 1235 1241 1240
f 1249 1253 1252
f 1216 1217 1221
f 1168 1167 1171
f 1158 1136 1135
f 1156 1132 1155
f 1183 1198 1182
f 1223 1224 1229
f 1159 1176 1161
f 1124 1139 1126
f 1225 1226 1231
f 1222 1223 1228
f 1237 1238 1250
f 1227 1207 1233
f 1141 1140 1147
f 1178 1160 1184
f 1193 1178 1199
f 1244 1245 1246
f 1230 1229 1209
f 1146 1147 1164
f 1143 1161 1137
f 1160 1177 1166
f 1177 1184 1183
f 1191 1176 1180
f 1191 1190 1176
f 1148 1147 1142
f 1229 1222 1209
f 1231 1230 1211
f 1124 1125 1127
f 1145 1126 1146
f 1224 1225 1244
f 1145 1146 1163
f 1138 1139 1145
f 1226 1225 1232
f 1212 1232 1211
f 1144 1145 1163
f 1232 1231 1211
f 1213 1212 1197
f 1198 1213 1197
f 1166 1183 1182
f 1161 1162 1181
f 1180 1161 1181
f 1195 1180 1196
f 1232 1212 1233
f 1137 1138 1144
f 1139 1145 1140
f 1222 1206 1208
f 1166 1165 1148
f 1191 1195 1176
f 1183 1184 1198
f 1177 1183 1192
f 1198 1184 1193
f 1191 1195 1206
f 1161 1143 1162
f 1246 1247 1249
f 1198 1199 1202
f 1199 1184 1203
f 1184 1166 1187
f 1166 1148 1169
f 1148 1147 1154
f 1142 1141 1148
f 1147 1146 1153
f 1146 1127 1152
f 1127 1126 1130
f 1233 1213 1239
f 1168 1186 1167
f 1201 1215 1200
f 1235 1249 1248
f 1216 1203 1217
f 1151 1150 1129
f 1180 1179 1186
f 1214 1215 1218
f 1194 1195 1200
f 1190 1191 1194
f 1228 1229 1234
f 1241 1235 1252
f 1208 1228 1215
f 1157 1153 1135
f 1230 1246 1236
f 1247 1231 1250
f 1245 1225 1247
f 1231 1232 1237
f 1232 1233 1238
f 1251 1238 1255
f 1213 1198 1216
f 1207 1192 1213
f 1128 1150 1132
f 1249 1250 1253
f 1126 1145 1129
f 1250 1251 1254
f 1145 1144 1151
f 1238 1239 1242
f 1143 1161 1149
f 1239 1216 1243
f 1137 1159 1143
f 1161 1180 1168
f 1217 1203 1221
f 1203 1187 1205
f 1179 1194 1185
f 1175 1190 1179
f 1187 1170 1189
f 1195 1208 1201
f 1169 1154 1173
f 1158 1154 1157
f 1229 1230 1235
f 1135 1131 1134
f 1144 1143 1150
f 1134 1130 1133
f 1129 1128 1133
f 1156 1150 1155
f 1155 1149 1172
f 1171 1167 1188
f 1188 1185 1204
f 1219 1215 1240
f 1234 1235 1240
f 1248 1249 1252
f 1220 1216 1221
f 1172 1168 1171
v -0.46550 -0.46625 -0.01575
v -0.47133 -0.46933 0.29900
v -0.45133 -0.40628 -0.08056
v -0.47411 -0.40294 -0.01867
v -0.49300 -0.40650 0.29900
v -0.46760 -0.34377 -0.01527
v -0.47133 -0.34289 0.29900
v -0.39942 -0.51382 -0.01542
v -0.39900 -0.51806 0.29900
v -0.40525 -0.47500 -0.08050
v -0.40660 -0.47830 -0.02260
v -0.37700 -0.40650 -0.08200
v -0.37700 -0.40650 -0.01000
v -0.37700 -0.40650 0.29850
v -0.40791 -0.33786 -0.08036
v -0.40930 -0.33590 -0.02240
v -0.39947 -0.29824 -0.01542
v -0.39900 -0.29467 0.29900
v -0.33380 -0.50960 -0.01520
v -0.33222 -0.51361 0.29900
v -0.33400 -0.47017 -0.08033
v -0.33371 -0.47464 -0.02214
v -0.33543 -0.34064 -0.08014
v -0.33217 -0.33967 -0.02233
v -0.33360 -0.30190 -0.01540
v -0.33222 -0.29906 0.29900
v -0.28650 -0.46308 -0.01575
v -0.28194 -0.46933 0.29900
v -0.30244 -0.40628 -0.08067
v -0.27722 -0.40117 -0.01772
v -0.26067 -0.40650 0.29900
v -0.28741 -0.34185 -0.01482
v -0.28194 -0.34289 0.29900
v -0.20223 0.01047 -0.00506
v -0.19186 0.01231 0.02557
v -0.19626 0.04676 0.00005
v -0.15211 0.01082 -0.12457
v -0.15208 0.01057 -0.09355
v -0.16859 0.01052 -0.00248
v -0.15806 0.01119 0.07109
v -0.15198 0.01069 0.11381
v -0.15165 0.04644 -0.12057
v -0.15209 0.04559 -0.09731
v -0.17293 0.04479 -0.00017
v -0.15408 0.03596 0.08654
v -0.15189 0.04639 0.11100
v -0.06100 -0.44650 -0.18200
v -0.06373 -0.45110 -0.15427
v -0.06098 -0.44494 0.10854
v -0.05888 -0.39762 -0.18200
v -0.06310 -0.40540 -0.15600
v -0.06034 -0.40403 0.11706
v -0.06162 -0.36325 -0.18200
v -0.06307 -0.35977 -0.15420
v -0.06079 -0.36547 0.10909
v -0.07239 0.01087 -0.19287
v -0.06967 0.01077 -0.15979
v -0.05800 0.01050 0.15200
v -0.07162 0.01083 0.18018
v -0.06660 0.04745 -0.18724
v -0.06525 0.04570 -0.16316
v -0.06607 0.04682 0.17879
v -0.05100 -0.44450 -0.18200
v -0.04525 -0.44650 -0.15425
v -0.05100 -0.44258 0.10658
v -0.04700 -0.39550 -0.15133
v -0.05100 -0.40202 0.12078
v -0.05100 -0.36750 -0.18200
v -0.04533 -0.36283 -0.15133
v -0.05100 -0.36794 0.10422
v -0.03826 0.01085 -0.18958
v -0.04039 0.01058 -0.16208
v -0.03935 0.01060 0.17916
v -0.04241 0.04531 -0.18622
v -0.04433 0.04441 -0.16444
v -0.04306 0.04479 0.17869
v 0.05854 -0.44604 -0.18200
v 0.05996 -0.44950 -0.15426
v 0.05855 -0.44441 0.10809
v 0.05863 -0.39762 -0.18200
v 0.05792 -0.40312 -0.15492
v 0.05857 -0.40369 0.11769
v 0.05855 -0.36441 -0.18200
v 0.05929 -0.36064 -0.15338
v 0.05856 -0.36599 0.10807
v 0.05030 0.01080 -0.19391
v 0.05325 0.01047 -0.15939
v 0.05800 0.01050 0.15200
v 0.05179 0.01077 0.17988
v 0.05548 0.04735 -0.18760
v 0.05748 0.04516 -0.16325
v 0.05626 0.04666 0.17871
v 0.08241 0.01101 -0.18435
v 0.11908 0.01106 -0.13316
v 0.13293 0.01069 -0.09560
v 0.14111 0.01117 0.08656
v 0.13193 0.01087 0.11146
v 0.08198 0.01074 0.17912
v 0.08023 0.04102 -0.18153
v 0.13031 0.04445 -0.12267
v 0.13542 0.04384 -0.09870
v 0.13524 0.04447 0.11046
v 0.07998 0.04068 0.17980
v 0.16449 0.01078 -0.12624
v 0.16330 0.01060 -0.09237
v 0.18105 0.01040 -0.00486
v 0.17284 0.01158 0.05160
v 0.16605 0.01064 0.11561
v 0.15887 0.04712 -0.12138
v 0.15869 0.04623 -0.09672
v 0.18613 0.04645 0.00012
v 0.15421 0.03581 0.08645
v 0.15894 0.04724 0.11126
v 0.21206 0.01086 -0.00009
v 0.21015 0.04124 -0.00003
v 0.31200 -0.50850 -0.08682
v 0.31463 -0.47762 -0.07487
v 0.33000 -0.47150 -0.01514
v 0.34033 -0.47158 -0.07433
v 0.36690 -0.47150 -0.00825
v 0.37113 -0.47150 0.04750
v 0.39625 -0.47165 0.10315
v 0.46179 -0.50736 0.19593
v 0.42440 -0.47162 0.07560
v 0.41344 -0.47170 0.09372
v 0.46010 -0.49710 0.19810
v 0.45498 -0.35048 0.19682
v 0.47660 -0.50718 0.19680
v 0.50951 -0.46369 -0.00411
v 0.47750 -0.49687 0.19707
v 0.50533 -0.34939 -0.00952
v 0.51018 -0.36077 0.02736
v 0.47920 -0.35043 0.19355
v 0.47224 -0.35009 0.21900
v 0.53411 -0.46387 -0.00442
v 0.54119 -0.35725 -0.00400
usemtl m003
f 1289 1291 1299
f 1370 1369 1361
f 1294 1289 1295
f 1350 1359 1349
f 1360 1359 1350
f 1359 1349 1355
f 1360 1365 1356
f 1356 1365 1355
f 1295 1300 1301
f 1328 1314 1317
f 1292 1297 1298
f 1298 1292 1293
f 1363 1368 1357
f 1326 1311 1327
f 1327 1311 1312
f 1330 1312 1327
f 1329 1327 1326
f 1311 1312 1316
f 1326 1311 1315
f 1347 1353 1344
f 1358 1344 1353
f 1348 1341 1345
f 1348 1354 1355
f 1341 1342 1346
f 1349 1355 1346
f 1355 1345 1346
f 1341 1342 1349
f 1348 1341 1349
f 1314 1328 1331
f 1289 1294 1299
f 1330 1315 1316
f 1315 1311 1316
f 1350 1356 1355
f 1360 1359 1364
f 1352 1357 1368
f 1363 1368 1367
f 1367 1363 1362
f 1362 1351 1352
f 1300 1295 1296
f 1366 1370 1361
f 1295 1289 1290
f 1364 1359 1355
f 1350 1360 1356
f 1296 1295 1301
f 1331 1328 1317
f 1352 1363 1357
f 1316 1312 1330
f 1330 1327 1329
f 1329 1326 1315
f 1355 1354 1345
f 1358 1353 1347
f 1347 1344 1358
f 1354 1348 1345
f 1349 1348 1355
f 1345 1341 1346
f 1342 1349 1346
f 1331 1317 1314
f 1330 1329 1315
f 1349 1350 1355
f 1365 1360 1364
f 1363 1352 1368
f 1355 1365 1364
f 1352 1363 1362
f 1301 1300 1296
f 1375 1373 1372
f 1380 1377 1376
f 1375 1376 1373
f 1380 1379 1376
f 1376 1379 1375
f 1275 1269 1264
f 1264 1269 1257
f 1283 1269 1275
f 1257 1269 1260
f 1286 1269 1283
f 1260 1269 1262
f 1288 1269 1286
f 1262 1269 1273
f 1281 1269 1288
f 1273 1269 1281
f 1276 1265 1267
f 1284 1276 1267
f 1278 1284 1267
f 1270 1278 1267
f 1258 1270 1267
f 1265 1258 1267
f 1266 1259 1258
f 1259 1271 1270
f 1271 1279 1278
f 1279 1285 1284
f 1285 1282 1284
f 1282 1277 1276
f 1277 1266 1265
f 1263 1256 1266
f 1274 1263 1266
f 1282 1274 1277
f 1280 1287 1279
f 1272 1280 1279
f 1261 1272 1271
f 1259 1268 1261
f 1261 1268 1272
f 1272 1268 1280
f 1280 1268 1287
f 1287 1268 1285
f 1285 1268 1282
f 1282 1268 1274
f 1274 1268 1263
f 1263 1268 1256
f 1256 1268 1259
f 1320 1322 1307
f 1304 1307 1320
f 1308 1305 1307
f 1305 1323 1325
f 1323 1308 1310
f 1322 1325 1310
f 1305 1302 1304
f 1302 1305 1307
f 1318 1302 1304
f 1302 1318 1320
f 1321 1306 1309
f 1324 1309 1306
f 1324 1321 1309
f 1306 1303 1319
f 1321 1319 1303
f 1338 1335 1337
f 1335 1338 1340
f 1335 1332 1334
f 1332 1335 1337
f 1387 1391 1386
f 1378 1383 1388
f 1382 1388 1389
f 1385 1383 1378
f 1372 1375 1374
f 1265 1266 1258
f 1258 1259 1270
f 1270 1271 1278
f 1278 1279 1284
f 1284 1282 1276
f 1276 1277 1265
f 1277 1274 1266
f 1279 1287 1285
f 1271 1272 1279
f 1259 1261 1271
f 1256 1259 1266
f 1310 1308 1307
f 1307 1305 1325
f 1325 1323 1310
f 1307 1322 1310
f 1322 1307 1325
f 1307 1305 1304
f 1304 1302 1307
f 1320 1318 1304
f 1304 1302 1320
f 1321 1324 1306
f 1306 1321 1303
f 1321 1306 1319
f 1340 1338 1337
f 1337 1335 1340
f 1337 1335 1334
f 1334 1332 1337
f 1382 1378 1388
f 1381 1385 1378
f 1323 1305 1308
v -0.50000 -0.40650 0.01400
v -0.50000 -0.40650 0.23900
v -0.49600 -0.40650 0.27400
v -0.45700 -0.48650 -0.00600
v -0.46400 -0.49350 0.23900
v -0.45575 -0.48525 0.28650
v -0.48427 -0.43005 -0.00873
v -0.49000 -0.45350 0.23900
v -0.48212 -0.43287 0.28862
v -0.48167 -0.36267 -0.00667
v -0.49000 -0.35950 0.23900
v -0.47980 -0.36350 0.28720
v -0.45740 -0.32550 -0.00580
v -0.46400 -0.31950 0.23900
v -0.45560 -0.32750 0.28720
v -0.39267 -0.52417 0.00733
v -0.40050 -0.52450 0.23900
v -0.37700 -0.52550 0.27400
v -0.40350 -0.51137 -0.01163
v -0.40362 -0.51137 0.28875
v -0.37700 -0.40650 -0.01300
v -0.37700 -0.40650 0.29200
v -0.40064 -0.29705 -0.00636
v -0.40050 -0.28800 0.23900
v -0.39850 -0.29825 0.28637
v -0.33000 -0.51950 0.01400
v -0.33000 -0.51950 0.23900
v -0.33450 -0.50850 -0.01100
v -0.33420 -0.50890 0.28740
v -0.33340 -0.30070 -0.00580
v -0.33000 -0.29250 0.23900
v -0.33400 -0.30275 0.28650
v -0.29700 -0.48633 -0.00683
v -0.29000 -0.49350 0.23900
v -0.29800 -0.48490 0.28740
v -0.26878 -0.43061 -0.00811
v -0.26300 -0.45350 0.23900
v -0.27071 -0.43079 0.28814
v -0.27140 -0.36250 -0.00580
v -0.26300 -0.35950 0.23900
v -0.27350 -0.36350 0.28650
v -0.29640 -0.32550 -0.00580
v -0.29000 -0.31950 0.23900
v -0.29775 -0.32700 0.28650
v -0.25400 -0.40650 0.01400
v -0.25400 -0.40650 0.23900
v -0.25700 -0.40650 0.27400
v -0.05997 -0.46342 -0.04643
v -0.05270 -0.46315 -0.02817
v -0.05750 -0.44942 -0.11950
v -0.06105 -0.43191 -0.04936
v -0.05534 -0.43190 -0.02809
v -0.05750 -0.36058 -0.11950
v -0.06063 -0.36153 -0.04773
v -0.05642 -0.36385 -0.02821
v 0.06679 -0.46339 -0.04826
v 0.06540 -0.46330 -0.02800
v 0.05965 -0.44942 -0.11950
v 0.06367 -0.43217 -0.04904
v 0.06394 -0.43200 -0.02794
v 0.05965 -0.36058 -0.11950
v 0.06484 -0.36454 -0.04767
v 0.06478 -0.36572 -0.02757
v 0.09867 -0.46339 -0.04622
v 0.10333 -0.46339 -0.02733
v 0.09858 -0.43208 -0.04958
v 0.10380 -0.43210 -0.02670
v 0.09884 -0.36482 -0.04732
v 0.10365 -0.36368 -0.02735
v 0.44100 -0.44400 0.18533
v 0.44250 -0.44400 0.21200
v 0.44000 -0.36570 0.18533
v 0.44150 -0.36570 0.21150
v 0.48500 -0.44300 -0.04900
v 0.49467 -0.42583 -0.00489
v 0.48500 -0.44300 0.04100
v 0.47757 -0.43821 0.17896
v 0.47984 -0.44045 0.22126
v 0.48500 -0.36800 -0.04900
v 0.49467 -0.37500 -0.00489
v 0.48500 -0.36800 0.04100
v 0.48133 -0.36589 0.17620
v 0.48003 -0.36580 0.22185
v 0.53700 -0.44300 -0.04900
v 0.52441 -0.42644 -0.00491
v 0.53700 -0.44300 0.04100
v 0.50900 -0.44400 0.19600
v 0.53800 -0.36800 -0.04900
v 0.52422 -0.37454 -0.00491
v 0.53800 -0.36800 0.04100
usemtl m009
f 1420 1413 1411
f 1411 1413 1397
f 1426 1413 1420
f 1397 1413 1400
f 1429 1413 1426
f 1400 1413 1403
f 1432 1413 1429
f 1403 1413 1406
f 1435 1413 1432
f 1406 1413 1416
f 1423 1413 1435
f 1416 1413 1423
f 1403 1394 1400
f 1408 1418 1420
f 1396 1408 1411
f 1399 1396 1397
f 1393 1399 1400
f 1402 1393 1394
f 1405 1402 1403
f 1415 1405 1406
f 1422 1415 1416
f 1434 1422 1423
f 1431 1434 1435
f 1437 1431 1432
f 1428 1437 1438
f 1425 1428 1429
f 1418 1425 1426
f 1417 1424 1425
f 1424 1427 1428
f 1427 1436 1437
f 1436 1430 1431
f 1430 1433 1434
f 1433 1421 1422
f 1421 1414 1415
f 1414 1404 1405
f 1404 1401 1402
f 1401 1392 1393
f 1392 1398 1399
f 1398 1395 1396
f 1395 1407 1408
f 1407 1417 1418
f 1407 1419 1417
f 1395 1410 1407
f 1401 1398 1392
f 1469 1468 1473
f 1468 1469 1474
f 1463 1473 1464
f 1464 1473 1474
f 1461 1462 1468
f 1469 1468 1478
f 1462 1469 1468
f 1476 1466 1471
f 1466 1476 1480
f 1472 1481 1479
f 1481 1472 1470
f 1467 1477 1475
f 1477 1467 1465
f 1427 1412 1430
f 1424 1412 1427
f 1419 1412 1424
f 1410 1412 1419
f 1395 1412 1410
f 1398 1412 1395
f 1460 1458 1457
f 1459 1460 1457
f 1401 1412 1398
f 1404 1412 1401
f 1414 1412 1404
f 1421 1412 1414
f 1433 1412 1421
f 1430 1412 1433
f 1439 1440 1443
f 1447 1451 1450
f 1448 1447 1455
f 1448 1455 1456
f 1448 1440 1439
f 1450 1451 1448
f 1442 1446 1445
f 1453 1445 1446
f 1443 1442 1439
f 1459 1453 1454
f 1456 1455 1457
f 1457 1455 1447
f 1450 1457 1447
f 1453 1459 1457
f 1450 1442 1445
f 1447 1439 1442
f 1451 1458 1460
f 1443 1451 1454
f 1440 1448 1451
f 1448 1456 1458
f 1411 1409 1420
f 1429 1438 1432
f 1409 1408 1420
f 1411 1408 1409
f 1397 1396 1411
f 1400 1399 1397
f 1394 1393 1400
f 1403 1402 1394
f 1406 1405 1403
f 1416 1415 1406
f 1423 1422 1416
f 1435 1434 1423
f 1432 1431 1435
f 1438 1437 1432
f 1429 1428 1438
f 1426 1425 1429
f 1420 1418 1426
f 1418 1417 1425
f 1425 1424 1428
f 1428 1427 1437
f 1437 1436 1431
f 1431 1430 1434
f 1434 1433 1422
f 1422 1421 1415
f 1415 1414 1405
f 1405 1404 1402
f 1402 1401 1393
f 1393 1392 1399
f 1399 1398 1396
f 1396 1395 1408
f 1408 1407 1418
f 1417 1419 1424
f 1436 1427 1430
f 1474 1469 1473
f 1473 1468 1474
f 1480 1476 1471
f 1471 1466 1480
f 1470 1472 1479
f 1479 1481 1470
f 1465 1467 1475
f 1475 1477 1465
f 1407 1410 1419
f 1447 1448 1451
f 1447 1448 1439
f 1447 1450 1448
f 1442 1443 1446
f 1454 1453 1446
f 1460 1459 1454
f 1458 1456 1457
f 1450 1453 1457
f 1453 1450 1445
f 1450 1447 1442
f 1454 1451 1460
f 1446 1443 1454
f 1443 1440 1451
f 1451 1448 1458
