# daf_trailer_wheel_2r.obj - ISO 8855 (x ileri, y sol, z yukari), metre
mtllib daf.mtl
o daf_trailer_wheel_2r
v 0.28572 0.20310 -0.36545
v 0.46240 0.20236 -0.09223
v -0.08081 0.20247 0.46265
v -0.20004 0.19969 -0.43402
v 0.32422 0.19794 -0.35800
v 0.43016 0.20034 -0.19141
v -0.25011 0.20016 0.39894
v -0.07778 0.19534 0.48722
v -0.33163 0.20115 -0.33305
v -0.46925 0.19888 -0.10064
v -0.41389 0.19924 0.22916
v -0.14557 0.19977 0.44704
v 0.23504 0.19769 0.42023
v 0.15125 0.19885 -0.45276
v -0.46575 0.20000 0.06635
v 0.44951 0.19981 0.16636
v 0.33416 0.19866 0.34007
v 0.43998 0.19594 -0.21805
v -0.46675 0.19544 -0.16118
v 0.38222 0.19449 0.31263
v 0.34800 0.19450 0.34800
v 0.33000 0.19450 0.36700
v -0.04492 0.17958 -0.52118
v -0.05078 0.19679 -0.48266
v -0.25641 0.18806 -0.43276
v -0.38478 0.19401 -0.30890
v 0.49531 0.19310 -0.02898
v -0.48725 0.19355 0.07345
v 0.44040 0.19684 0.20523
v 0.42702 0.19424 0.24639
v -0.39195 0.19417 0.30341
v 0.36600 0.19350 0.32900
v 0.34800 0.19350 0.34800
v -0.28457 0.19838 0.39118
v 0.03356 0.18792 0.50588
v 0.36063 0.19348 -0.01833
v -0.20262 0.18493 0.47216
v 0.17119 0.18864 0.47373
v -0.14293 0.19526 -0.34331
v 0.12899 0.18733 -0.32754
v 0.36266 0.18517 -0.36481
v -0.36226 0.19377 -0.07833
v 0.29386 0.19036 -0.19785
v -0.28898 0.19295 0.21873
v 0.30845 0.19373 0.18981
v -0.13526 0.19408 0.33771
v 0.13000 0.19372 0.34096
v 0.11712 0.17459 -0.51598
v -0.22373 0.18235 -0.47254
v 0.17983 0.17869 -0.49285
v -0.50086 0.18118 -0.15296
v 0.50713 0.17978 -0.14180
v 0.50622 0.18201 -0.10252
v 0.51448 0.18208 -0.04921
v 0.53281 0.17184 -0.00141
v -0.45104 0.19013 0.22450
v 0.44999 0.18201 0.25840
v -0.34017 0.17842 0.40334
v 0.47177 0.17243 0.24495
v 0.29128 0.18174 0.42775
v 0.04680 0.17926 -0.52407
v 0.47876 0.16864 -0.23571
v -0.53225 0.16943 -0.03573
v 0.13732 0.16909 0.51543
v 0.00501 0.17752 0.53051
v -0.33924 0.17078 -0.41196
v 0.19243 0.17590 -0.28628
v -0.43372 0.17475 -0.30307
v -0.09246 0.17617 -0.32802
v -0.47266 0.17489 -0.23861
v 0.33219 0.17647 -0.06332
v -0.31196 0.17631 -0.14672
v 0.28554 0.17591 0.19318
v -0.32212 0.17646 0.09394
v -0.47672 0.18035 0.21880
v 0.01212 0.17635 0.34450
v 0.29049 0.17436 0.44417
v 0.24012 0.16938 0.47496
v 0.37496 0.16887 -0.38442
v 0.01700 0.17550 -0.32437
v 0.22575 0.17550 -0.22850
v -0.14888 0.17550 -0.28775
v 0.31400 0.17550 -0.09275
v -0.27500 0.17550 -0.17850
v -0.31850 0.17550 -0.07625
v 0.32175 0.17550 0.04675
v -0.51917 0.18281 0.06008
v 0.24575 0.17550 0.20950
v 0.49277 0.18521 0.16618
v -0.30250 0.17550 0.11150
v -0.19300 0.17550 0.26600
v 0.03400 0.17550 0.32700
v -0.07150 0.17550 0.31775
v 0.22852 0.16943 -0.48685
v -0.50347 0.16753 -0.19502
v -0.54496 0.16653 -0.01931
v 0.18775 0.16913 0.49839
v -0.05560 0.16674 -0.52970
v -0.40157 0.17026 0.35716
v 0.02949 0.16679 -0.53249
v 0.53780 0.16663 -0.05665
v 0.54213 0.16621 0.07027
v -0.53275 0.16564 0.13293
v -0.35580 0.16652 0.39701
v 0.13719 0.16502 -0.53496
v 0.13019 0.16650 -0.52662
v -0.20168 0.17047 -0.50147
v 0.40564 0.14780 -0.38289
v 0.44773 0.16588 -0.32548
v -0.33021 0.16631 -0.44532
v -0.46317 0.16618 -0.29846
v 0.50279 0.16484 -0.22599
v 0.52422 0.16637 -0.16827
v -0.53261 0.16574 -0.14620
v 0.53936 0.16577 -0.11151
v 0.55729 0.14249 -0.00237
v 0.51716 0.16744 0.15418
v -0.50997 0.16684 0.15461
v 0.51150 0.16586 0.20739
v 0.47472 0.16722 0.25981
v 0.30297 0.16762 0.45493
v 0.13107 0.16692 0.53123
v -0.36157 0.16681 0.41214
v -0.04912 0.16650 0.53644
v -0.11750 0.16721 0.52918
v -0.03125 0.16592 0.55050
v -0.02926 0.16612 -0.55486
v -0.51947 0.16610 0.18499
v 0.29046 0.14266 -0.47520
v -0.30288 0.13250 -0.46883
v 0.41440 0.16549 0.36672
v -0.45739 0.16557 0.30327
v -0.24387 0.13300 0.49667
v 0.20719 0.13659 0.50831
v -0.48375 0.13253 -0.28955
v -0.40657 0.13207 0.36865
v -0.24587 0.16490 0.49459
v 0.12405 0.13182 0.54190
v -0.04367 0.13280 -0.55417
v -0.12503 0.13179 -0.53217
v 0.13274 0.13202 -0.52976
v -0.54417 0.13191 -0.01046
v 0.53697 0.13214 0.11219
v -0.03073 0.13309 0.54979
v -0.28220 0.13150 -0.46226
v 0.31796 0.13150 -0.43608
v 0.41031 0.13176 -0.35849
v -0.47609 0.13150 -0.26161
v 0.53317 0.13238 -0.14089
v 0.54114 0.13150 0.02080
v -0.50801 0.13183 0.21156
v 0.46118 0.13190 0.29037
v 0.34118 0.13184 0.42338
v -0.12226 0.13179 0.52552
v 0.03326 0.12350 -0.55647
v 0.28338 0.12350 -0.48514
v 0.31787 0.12350 -0.40522
v 0.00898 0.12350 -0.50330
v -0.23693 0.12350 -0.50684
v 0.50062 0.12350 -0.25721
v 0.49019 0.12350 -0.16122
v -0.39153 0.12350 -0.32427
v -0.47788 0.12350 -0.29921
v 0.55561 0.12349 0.10994
v -0.50075 0.12350 -0.12947
v 0.51800 0.12350 0.05975
v -0.55615 0.12350 -0.05578
v 0.50800 0.12350 0.12100
v 0.45572 0.12350 0.24203
v -0.51564 0.12350 0.21387
v -0.47425 0.12350 0.18339
v 0.36425 0.12350 0.37300
v 0.12786 0.12350 0.48109
v -0.35812 0.12350 0.37825
v -0.35670 0.12348 0.43334
v -0.15572 0.12350 0.49201
v 0.08564 0.12350 0.54941
v -0.14099 0.12349 0.54094
v -0.23012 0.17647 0.24823
v 0.33927 0.12350 0.44869
v -0.39627 0.08504 -0.38805
v -0.41590 0.08454 0.36656
v -0.00888 0.08350 -0.51987
v -0.15937 0.08350 -0.49562
v 0.14237 0.08300 -0.50112
v -0.27975 0.08350 -0.43975
v -0.37375 0.08350 -0.36137
v 0.26412 0.08350 -0.44775
v -0.46738 0.08300 -0.22750
v 0.38988 0.08350 -0.34425
v 0.46950 0.08350 -0.22600
v -0.51050 0.08350 -0.10287
v -0.53083 0.08344 -0.15994
v 0.51137 0.08350 -0.10013
v -0.51738 0.08350 0.04975
v 0.54182 0.08417 0.12265
v 0.51913 0.08300 0.03137
v -0.49300 0.08350 0.17000
v 0.50125 0.08350 0.14300
v -0.43887 0.08400 0.27863
v 0.44838 0.08300 0.26362
v -0.36100 0.08300 0.37437
v 0.37413 0.08350 0.36162
v -0.24675 0.08350 0.45900
v 0.27113 0.08350 0.44500
v -0.14275 0.08350 0.50112
v 0.17000 0.08350 0.49350
v -0.03200 0.08350 0.52075
v 0.07087 0.08300 0.51662
v 0.03673 0.08488 -0.55376
v -0.05267 0.08425 -0.55189
v 0.12377 0.08492 -0.54064
v -0.13934 0.08419 -0.53686
v 0.20501 0.08457 -0.51490
v -0.19964 0.08465 -0.51754
v 0.28189 0.08437 -0.47827
v -0.25910 0.08450 -0.48992
v -0.33402 0.08409 -0.44194
v 0.35347 0.08452 -0.42679
v 0.40203 0.08458 -0.38205
v 0.44375 0.08470 -0.33181
v -0.45428 0.08412 -0.31713
v 0.49006 0.08485 -0.25749
v -0.49771 0.08461 -0.24499
v 0.52503 0.08462 -0.17901
v 0.54691 0.08476 -0.09330
v -0.54882 0.08307 -0.07555
v 0.55575 0.08528 -0.00453
v -0.55407 0.08421 0.01002
v 0.55180 0.08416 0.05644
v -0.54734 0.08489 0.09367
v 0.51549 0.08454 0.20484
v -0.52518 0.08479 0.17816
v 0.47756 0.08459 0.28247
v -0.48893 0.08427 0.26064
v -0.45588 0.08459 0.31497
v 0.42726 0.08457 0.35387
v 0.36683 0.08461 0.41676
v -0.35409 0.08465 0.42725
v 0.29697 0.08464 0.46975
v -0.30093 0.08455 0.46583
v -0.24433 0.08457 0.49736
v 0.22370 0.08389 0.50883
v -0.16051 0.08397 0.53067
v 0.13678 0.08475 0.53784
v -0.07521 0.08364 0.54907
v 0.05596 0.08399 0.55228
v -0.01331 0.08448 0.55421
v -0.08796 0.07287 -0.54786
v -0.21422 0.07254 -0.51064
v 0.16783 0.07232 -0.52772
v -0.27228 0.07321 -0.48274
v -0.54685 0.07240 -0.08337
v -0.51967 0.07254 0.19438
v 0.42332 0.07246 0.35787
v -0.35806 0.07231 0.42380
v 0.36175 0.07302 0.42175
v -0.15982 0.06522 0.53585
v -0.00287 0.07237 -0.55437
v 0.08669 0.07286 -0.54637
v 0.10037 0.07350 -0.51150
v -0.04225 0.07350 -0.51813
v 0.22600 0.07350 -0.46925
v 0.25044 0.07254 -0.49472
v -0.20013 0.07350 -0.47963
v 0.31425 0.07450 -0.41513
v -0.29100 0.07350 -0.43300
v -0.39486 0.07220 -0.38968
v 0.40162 0.07350 -0.33125
v -0.34050 0.07250 -0.39450
v 0.42331 0.07393 -0.35869
v 0.46425 0.07350 -0.23775
v -0.40362 0.07300 -0.32863
v 0.49800 0.07350 -0.15275
v -0.46525 0.07350 -0.23525
v 0.51165 0.07248 -0.21463
v 0.51525 0.07450 -0.08175
v -0.49850 0.07400 -0.15063
v 0.51788 0.07400 0.05538
v -0.51975 0.07450 -0.04075
v 0.48575 0.07400 0.18938
v -0.51812 0.07350 0.04237
v -0.49509 0.07447 0.24865
v 0.45600 0.07350 0.25350
v 0.39650 0.07350 0.33637
v -0.47963 0.07350 0.20062
v -0.41425 0.07350 0.31563
v 0.27550 0.07325 0.44081
v -0.32912 0.07350 0.40375
v -0.28911 0.07326 0.47265
v -0.23625 0.07450 0.46500
v 0.16300 0.07350 0.49550
v 0.29070 0.07284 0.47189
v 0.08325 0.07350 0.51500
v -0.15950 0.07350 0.49625
v 0.21537 0.07249 0.51136
v -0.04525 0.07425 0.51825
v 0.13060 0.07333 0.53878
v -0.32409 0.07302 -0.45094
v 0.32577 0.07312 -0.44977
v -0.44942 0.07246 -0.32438
v -0.49454 0.07314 -0.25193
v -0.52571 0.07305 -0.17461
v 0.55011 0.07245 -0.06832
v 0.55427 0.07230 -0.00304
v 0.50269 0.07275 0.23455
v -0.41885 0.07227 0.36318
v -0.12431 0.07208 0.53998
v 0.04182 0.07349 0.55384
v 0.47207 0.07248 -0.29244
v 0.53947 0.07287 -0.12953
v -0.53943 0.03130 -0.13038
v 0.55351 0.03163 0.04853
v -0.23394 0.07313 0.50335
v 0.10282 0.03248 0.54635
v -0.04938 0.07433 0.55269
v -0.55341 0.07318 0.04547
v 0.54784 0.07278 0.08629
v -0.53882 0.07331 0.13079
v 0.52928 0.07211 0.16733
v -0.46454 0.07301 0.30422
v 0.00531 0.03208 -0.55591
v -0.14647 0.07287 -0.53511
v 0.37375 0.07130 -0.41230
v 0.47232 0.03097 -0.28875
v 0.52927 0.03113 -0.17137
v 0.47934 0.07057 0.28354
v 0.11029 0.04615 -0.25545
v -0.06351 0.04658 -0.27123
v 0.26905 0.04002 -0.08473
v -0.21086 0.04587 -0.18076
v 0.21292 0.04352 0.18456
v -0.27881 0.04051 0.04369
v 0.01902 0.04546 0.27726
v -0.14630 0.04629 0.23686
v 0.09631 0.03956 -0.55148
v 0.54509 0.03254 -0.10072
v -0.55626 0.07075 -0.01167
v -0.47378 0.03135 0.28859
v 0.38907 0.03184 0.39546
v -0.32793 0.03092 0.44839
v 0.32445 0.03165 0.45036
v 0.16699 0.03201 0.52950
v -0.08324 0.03166 -0.54756
v -0.48202 0.03167 -0.27322
v -0.53135 -0.13150 -0.09621
v -0.16939 0.03139 -0.52845
v 0.13079 0.03070 -0.53830
v 0.21812 0.03210 -0.51229
v -0.30527 0.03158 -0.46238
v -0.35654 0.03186 -0.42382
v 0.36368 0.03176 -0.41832
v -0.40549 0.03150 -0.37760
v -0.44770 0.03147 -0.32783
v -0.54149 0.03235 0.12401
v 0.53888 0.03069 0.13059
v -0.51382 0.03178 0.20835
v 0.51936 0.03158 0.19498
v -0.25284 0.03093 0.49330
v -0.17442 0.03168 0.52629
v -0.08947 0.03159 0.54671
v 0.04235 0.03138 0.55284
v -0.02461 0.03159 0.55383
v 0.00150 0.03050 -0.52150
v -0.08025 0.03000 -0.51388
v 0.07375 0.03100 -0.51550
v -0.20762 0.03000 -0.47750
v 0.18625 0.03000 -0.48650
v -0.33687 0.03000 -0.39550
v 0.28594 0.03075 -0.43369
v -0.44238 0.03050 -0.27275
v 0.39625 0.03000 -0.33700
v -0.49650 0.03100 -0.15837
v 0.46287 0.03050 -0.23975
v 0.49625 0.02950 -0.16125
v -0.51725 0.03050 -0.06275
v 0.51550 0.03050 -0.08000
v -0.55303 0.03191 -0.04807
v -0.52150 0.02950 -0.00000
v -0.50425 0.03025 0.12794
v 0.52175 0.03050 0.00150
v -0.46525 0.03050 0.23550
v 0.50537 0.03000 0.12250
v -0.40987 0.03050 0.32137
v 0.44761 0.03060 0.32690
v 0.44875 0.03050 0.26487
v -0.43634 0.03084 0.34186
v -0.32350 0.03050 0.40837
v 0.37037 0.03025 0.36494
v -0.23800 0.03050 0.46400
v -0.15225 0.03050 0.49800
v 0.23550 0.03000 0.46375
v -0.05187 0.03000 0.51837
v 0.29171 0.03158 -0.47141
v -0.24919 0.03150 -0.49531
v 0.42273 0.03151 -0.35802
v 0.50346 0.03103 -0.23230
v -0.51106 0.03169 -0.21524
v 0.55305 0.03135 -0.04205
v -0.55357 0.03166 0.04040
v 0.49393 0.03046 0.25240
v -0.39344 0.03106 0.39024
v 0.25139 0.03120 0.49489
v 0.10012 0.03050 0.51000
v 0.17781 0.01818 -0.52500
v -0.28369 0.01835 -0.47722
v -0.55383 0.01819 -0.00663
v 0.55329 0.01898 -0.03307
v 0.51747 0.01873 0.19980
v 0.48937 0.01886 0.26164
v -0.39722 0.01836 0.38649
v -0.11766 0.01980 -0.54154
v 0.09618 0.01856 -0.54749
v 0.07050 0.01950 -0.51700
v -0.01088 0.02000 -0.52125
v 0.16925 0.01950 -0.49150
v -0.09850 0.01900 -0.51150
v -0.19025 0.02050 -0.48600
v 0.31375 0.01950 -0.41650
v -0.27312 0.01950 -0.44325
v -0.41685 0.01825 -0.36581
v 0.37913 0.02000 -0.35800
v 0.42664 0.01811 -0.35466
v 0.43863 0.02000 -0.28150
v -0.38350 0.01950 -0.35250
v 0.48875 0.02000 -0.18100
v -0.44450 0.01950 -0.27075
v -0.48650 0.01950 -0.18850
v -0.53704 0.01886 -0.14010
v 0.52075 0.01950 -0.03200
v -0.50637 0.01950 -0.12013
v 0.51750 0.01950 0.06000
v -0.51913 0.02000 0.03137
v 0.48150 0.02000 0.19888
v -0.53079 0.01940 0.16096
v -0.50450 0.01950 0.13350
v 0.53713 0.01904 0.14054
v -0.49300 0.01950 0.17250
v 0.42237 0.01950 0.30500
v -0.45350 0.01950 0.25575
v -0.45321 0.01843 0.32011
v 0.36200 0.02050 0.37600
v -0.38150 0.01950 0.35475
v 0.26425 0.01950 0.44850
v 0.38577 0.01849 0.39794
v -0.33476 0.01870 0.44463
v -0.30488 0.01950 0.42237
v 0.32094 0.01823 0.45301
v 0.16187 0.02000 0.49550
v -0.27812 0.01881 0.47927
v -0.20625 0.01850 0.47900
v 0.04312 0.01900 0.51875
v -0.09575 0.02000 0.51175
v 0.16143 0.01937 0.53003
v 0.10068 0.01919 0.54538
v -0.05444 0.01899 0.55304
v 0.03487 0.01892 0.55286
v 0.00918 0.01855 -0.55483
v -0.19802 0.01923 -0.51886
v 0.25895 0.01841 -0.48963
v 0.33143 0.01821 -0.44324
v -0.50945 0.01908 -0.22105
v -0.54915 0.01845 -0.07262
v 0.54338 0.01923 -0.11609
v -0.54914 0.01932 0.07641
v -0.22067 0.01918 0.50913
v 0.24711 0.01792 0.49682
v 0.44525 0.01806 0.33144
v -0.35427 0.01832 -0.42629
v -0.46858 0.01878 -0.29698
v 0.47629 0.01837 -0.28333
v -0.55377 -0.01909 -0.03472
v -0.49668 0.01781 0.24719
v -0.30227 -0.01833 0.46572
v -0.03043 -0.01938 0.55472
v -0.05150 -0.00050 -0.21450
v -0.16800 -0.00050 -0.14350
v 0.13050 -0.00050 -0.17950
v -0.21775 -0.00050 -0.02575
v 0.20700 -0.00050 -0.08550
v -0.18825 -0.00050 0.11550
v 0.19250 -0.00050 0.10288
v -0.03500 -0.00050 0.22200
v -0.07637 0.00026 -0.54844
v -0.31368 -0.01831 -0.45707
v 0.55266 0.01862 0.05299
v 0.40331 -0.01982 0.38270
v 0.35020 -0.01835 0.43119
v 0.15672 -0.01815 0.53160
v -0.13968 0.01881 0.53739
v -0.09925 -0.01860 0.54582
v 0.03443 -0.01915 0.55298
v -0.16250 -0.01928 -0.53066
v 0.22583 -0.01841 -0.50660
v -0.23871 -0.01845 -0.50032
v -0.36603 -0.01836 -0.41644
v 0.45741 -0.01831 -0.31460
v 0.51673 0.01902 -0.20166
v 0.54537 -0.01810 0.10234
v 0.27775 -0.01842 0.48010
v -0.02942 -0.01885 -0.55369
v 0.52329 -0.01775 0.18823
v 0.14131 -0.01876 -0.53582
v 0.30133 -0.01851 -0.46561
v 0.40221 -0.01832 -0.38162
v -0.45312 -0.01835 -0.31945
v -0.48723 -0.01842 -0.26372
v 0.53066 -0.01993 -0.16161
v -0.52280 -0.01844 -0.18484
v -0.54662 -0.01895 -0.09804
v -0.54680 -0.01772 0.10405
v -0.51764 -0.01868 0.20091
v -0.47915 -0.01859 0.27838
v -0.42882 -0.01911 0.35400
v -0.22424 -0.01855 0.50679
v -0.16391 -0.01843 0.52954
v 0.09435 -0.01840 0.54638
v 0.05567 -0.01940 -0.55195
v -0.02900 -0.01950 -0.52075
v -0.12000 -0.01950 -0.50675
v 0.08325 -0.01950 -0.51412
v -0.22587 -0.02000 -0.46838
v 0.19112 -0.02000 -0.48475
v -0.33675 -0.01950 -0.39737
v 0.36797 -0.00035 -0.41518
v 0.29100 -0.01950 -0.43200
v -0.41787 -0.01972 -0.36773
v -0.44769 -0.01975 -0.26419
v 0.40313 -0.01950 -0.32825
v -0.50075 -0.01950 -0.14300
v 0.47300 -0.02100 -0.21838
v 0.54972 -0.01960 -0.07689
v -0.51975 -0.01950 -0.01187
v 0.50712 -0.02000 -0.12075
v 0.52100 -0.02050 -0.03025
v -0.50163 -0.01950 0.13987
v 0.51712 -0.02000 0.06238
v -0.44925 -0.02000 0.26213
v 0.47575 -0.01950 0.21000
v -0.36875 -0.02000 0.36763
v 0.44082 -0.01840 0.33734
v 0.40812 -0.01950 0.32400
v -0.27313 -0.02000 0.44375
v -0.36982 -0.01865 0.41361
v 0.29725 -0.02050 0.42700
v -0.17250 -0.01950 0.49225
v 0.19712 -0.01900 0.48225
v -0.06225 -0.02000 0.51712
v 0.07769 -0.01975 0.51481
v 0.50016 -0.01856 -0.23964
v 0.55434 -0.01845 0.01352
v -0.55353 -0.01930 0.02676
v 0.48771 -0.01837 0.26512
v 0.21938 -0.01837 0.50938
v -0.06849 -0.03089 -0.55044
v -0.55264 -0.03048 0.04535
v -0.38478 -0.03314 0.40330
v 0.01950 -0.02950 -0.52100
v 0.07175 -0.02850 -0.51650
v -0.04200 -0.02950 -0.52000
v 0.12050 -0.02950 -0.50750
v 0.16050 -0.02950 -0.49650
v -0.10375 -0.03050 -0.51100
v 0.19600 -0.03150 -0.48300
v 0.20825 -0.02950 -0.47875
v 0.25525 -0.02850 -0.45475
v 0.30600 -0.02950 -0.42250
v -0.21862 -0.02950 -0.47175
v 0.34149 -0.03067 -0.43713
v 0.35300 -0.02950 -0.38375
v 0.40875 -0.02950 -0.32400
v -0.35375 -0.02950 -0.38087
v 0.44450 -0.02950 -0.27350
v 0.47350 -0.02950 -0.21925
v -0.45112 -0.02900 -0.25788
v 0.49900 -0.02950 -0.15225
v 0.51175 -0.02850 -0.10125
v 0.52125 -0.02950 -0.02150
v -0.50875 -0.02950 -0.11037
v -0.55376 -0.03096 -0.01730
v 0.51775 -0.02900 0.06587
v 0.50275 -0.03050 0.13925
v -0.51937 -0.02950 0.02187
v 0.48950 -0.02850 0.18075
v 0.52212 -0.03094 0.18722
v -0.49550 -0.02900 0.16163
v 0.46700 -0.03150 0.23400
v 0.45288 -0.02900 0.25850
v -0.45875 -0.02950 0.24675
v 0.40975 -0.02850 0.32300
v 0.35500 -0.02950 0.38200
v -0.40175 -0.02950 0.33150
v 0.30600 -0.02750 0.42300
v 0.27400 -0.02950 0.44450
v -0.29725 -0.02900 0.42763
v 0.22875 -0.02950 0.46925
v 0.18075 -0.02850 0.48950
v 0.10325 -0.02950 0.51150
v -0.19325 -0.02950 0.48400
v 0.02200 -0.02950 0.52125
v -0.09925 -0.03050 0.51175
v -0.07042 -0.02889 0.55023
v 0.02023 -0.03034 -0.55374
v 0.10755 -0.03025 -0.54316
v -0.15221 -0.03046 -0.53366
v -0.21454 -0.03062 -0.51125
v 0.26754 -0.03083 -0.48540
v -0.27386 -0.03068 -0.48241
v -0.32001 -0.02792 -0.45724
v -0.37795 -0.03057 -0.40545
v -0.42319 -0.03066 -0.35793
v 0.44716 -0.03061 -0.32781
v -0.46280 -0.03085 -0.30418
v 0.48203 -0.03047 -0.27229
v -0.50569 -0.03080 -0.22927
v -0.52760 -0.03059 -0.16843
v 0.55355 -0.03119 -0.02736
v 0.55203 -0.03071 0.06205
v 0.43713 -0.03071 0.34122
v -0.43514 -0.03019 0.34314
v 0.39369 -0.03064 0.39038
v 0.34701 -0.03105 0.43354
v -0.26933 -0.03038 0.48497
v 0.19413 -0.03050 0.52013
v -0.00170 -0.03040 0.55434
v 0.13244 -0.03059 0.53858
v 0.06680 -0.03047 0.55047
v 0.03170 -0.07023 -0.55474
v 0.18579 -0.03143 -0.52435
v -0.51891 -0.07216 -0.19662
v 0.54340 -0.03052 -0.11060
v -0.54346 -0.03050 0.10992
v 0.48559 -0.03001 0.27182
v -0.34152 -0.03056 0.43698
v 0.27168 -0.03024 0.48386
v -0.18730 -0.03129 0.52314
v -0.12684 -0.03055 0.54005
v -0.55487 -0.07035 -0.03106
v -0.51976 -0.03072 0.19418
v -0.27069 -0.07310 0.48426
v 0.05048 -0.07472 0.55548
v 0.27475 -0.07218 -0.48213
v -0.43683 -0.06049 -0.34416
v 0.40712 -0.03035 -0.37718
v 0.52032 -0.03047 -0.19342
v -0.54355 -0.03039 -0.10640
v 0.54695 -0.07149 -0.10337
v -0.55101 -0.07200 0.06165
v 0.53415 -0.07291 0.15189
v -0.19587 -0.07223 0.51916
v 0.18968 -0.07266 0.52114
v -0.54306 -0.07242 -0.11145
v 0.53967 -0.03076 0.12689
v -0.48220 -0.03113 0.27571
v -0.40856 -0.07254 0.37460
v 0.06600 -0.07050 -0.51750
v -0.24350 -0.07250 -0.46025
v 0.22250 -0.07050 -0.47150
v -0.32000 -0.07150 -0.41150
v 0.37725 -0.07250 -0.36000
v -0.47000 -0.07050 -0.22175
v 0.47450 -0.07250 -0.21650
v 0.51250 -0.07050 -0.09700
v 0.52100 -0.07050 0.02550
v 0.51150 -0.07350 0.10225
v 0.47300 -0.07250 0.22000
v -0.38950 -0.07350 0.34575
v 0.43450 -0.07450 0.28900
v 0.36600 -0.07050 0.37200
v -0.29800 -0.07350 0.42750
v 0.32400 -0.07450 0.40950
v -0.18175 -0.07250 0.48725
v 0.14125 -0.07350 0.50250
v -0.03150 -0.07350 0.52025
v 0.10605 -0.07257 0.54572
v -0.04049 -0.07220 -0.55366
v 0.11073 -0.07265 -0.54325
v -0.10643 -0.07265 -0.54422
v 0.19355 -0.07270 -0.51919
v -0.18028 -0.07042 -0.52620
v -0.25002 -0.07277 -0.49486
v -0.30716 -0.07283 -0.46181
v 0.34603 -0.07255 -0.43391
v -0.37366 -0.07253 -0.40820
v 0.39352 -0.07276 -0.39047
v -0.38000 -0.07050 -0.35700
v 0.43882 -0.07226 -0.34079
v -0.43446 -0.07299 -0.34426
v 0.48452 -0.07292 -0.27036
v -0.48372 -0.07334 -0.27074
v 0.52164 -0.07234 -0.18774
v -0.51950 -0.07150 0.01713
v 0.55460 -0.07187 -0.01821
v 0.55075 -0.07288 0.06619
v -0.53375 -0.07294 0.15053
v 0.50254 -0.07269 0.23354
v -0.50389 -0.07261 0.22959
v 0.45943 -0.07257 0.31076
v -0.46210 -0.07287 0.30751
v 0.40667 -0.07270 0.37890
v 0.34213 -0.07286 0.43645
v -0.34245 -0.07323 0.43584
v 0.27044 -0.07274 0.48460
v 0.21450 -0.07050 0.47550
v 0.05650 -0.07050 0.51850
v -0.11040 -0.07260 0.54290
v -0.02371 -0.07296 0.55470
v -0.05650 -0.07050 -0.51800
v 0.00500 -0.07050 -0.52200
v -0.13825 -0.07150 -0.50250
v 0.14475 -0.07150 -0.50100
v 0.29275 -0.07150 -0.43125
v -0.42100 -0.07250 -0.30800
v 0.43350 -0.07450 -0.29000
v -0.51075 -0.07150 -0.10475
v 0.49700 -0.07250 -0.15950
v 0.52100 -0.07450 -0.04200
v -0.49925 -0.07100 0.14738
v 0.49700 -0.07450 0.16100
v -0.45500 -0.07450 0.25600
v 0.39800 -0.07450 0.33900
v 0.27400 -0.07450 0.44500
v 0.03158 -0.08333 -0.55352
v 0.11510 -0.08384 -0.54221
v 0.07875 -0.08500 -0.51487
v -0.04175 -0.08350 -0.51925
v 0.20213 -0.08316 -0.51582
v -0.29620 -0.08272 -0.46804
v 0.26875 -0.08200 -0.44575
v -0.16075 -0.08250 -0.49575
v -0.36965 -0.08349 -0.41284
v 0.44000 -0.08150 -0.27950
v -0.47894 -0.08338 -0.27893
v -0.54126 -0.08350 -0.11653
v 0.55194 -0.08296 -0.05392
v -0.55130 -0.08316 0.05484
v 0.54325 -0.08385 0.11529
v -0.50853 -0.08309 0.22213
v 0.51633 -0.08328 0.20142
v -0.48175 -0.08150 0.19775
v 0.47910 -0.08342 0.27906
v -0.34847 -0.08381 0.43139
v -0.28030 -0.08318 0.47925
v -0.20060 -0.08336 0.51608
v 0.22312 -0.08330 0.50801
v -0.11742 -0.08345 0.54277
v 0.05530 -0.08324 0.55186
v 0.48525 -0.08500 0.18688
v 0.40837 -0.08200 0.32338
v 0.43090 -0.08371 0.34938
v 0.13941 -0.08303 0.53682
v -0.02759 -0.08377 0.55360
v 0.18700 -0.08550 -0.48650
v -0.25750 -0.08550 -0.45250
v 0.36675 -0.08450 -0.36950
v -0.36950 -0.08450 -0.36675
v 0.49150 -0.08250 -0.16975
v -0.44863 -0.08350 -0.26187
v 0.51950 -0.08150 -0.04950
v -0.50800 -0.08350 -0.11025
v 0.51750 -0.08400 0.05988
v -0.51725 -0.08350 0.05200
v -0.43850 -0.08350 0.28200
v 0.32225 -0.08250 0.40925
v -0.36050 -0.08250 0.37475
v 0.21863 -0.08300 0.47313
v -0.25500 -0.08250 0.45450
v 0.10275 -0.08350 0.51025
v -0.15300 -0.08150 0.49900
v -0.02988 -0.08300 0.51912
v -0.50873 -0.13150 0.19497
v 0.29876 -0.08310 0.46768
v -0.05291 -0.08282 -0.55145
v 0.00386 -0.12249 -0.56670
v -0.13760 -0.08265 -0.53735
v -0.22264 -0.08316 -0.50850
v 0.28008 -0.08310 -0.47771
v -0.43147 -0.08376 -0.34908
v 0.35004 -0.08362 -0.43096
v 0.41545 -0.08295 -0.36802
v -0.51629 -0.08334 -0.20083
v 0.46834 -0.08286 -0.29755
v 0.50736 -0.08355 -0.22474
v 0.55187 -0.12251 -0.10417
v -0.55388 -0.08313 -0.03296
v 0.53752 -0.08243 -0.13621
v -0.55063 -0.12250 -0.12651
v -0.53685 -0.08315 0.14001
v 0.55321 -0.08327 0.03188
v -0.53008 -0.12250 0.17045
v -0.46780 -0.08306 0.29907
v -0.41391 -0.08328 0.36937
v -0.42202 -0.12249 0.36649
v 0.36785 -0.08291 0.41533
v -0.22903 -0.12250 0.50741
v -0.20211 -0.12250 -0.46504
v 0.36380 -0.12249 -0.43614
v 0.13113 -0.12250 -0.50425
v -0.35506 -0.12250 -0.43698
v -0.45903 -0.12250 -0.20098
v 0.27569 -0.12250 -0.43669
v 0.47566 -0.12250 -0.19494
v -0.48144 -0.12250 0.13854
v 0.52113 -0.12249 0.20152
v 0.36140 -0.12249 0.42909
v -0.16919 -0.12250 0.49100
v 0.36120 -0.12250 0.25702
v 0.09359 -0.12250 0.55608
v -0.24016 -0.13255 -0.49435
v 0.15395 -0.13150 -0.52245
v -0.44353 -0.13165 -0.31255
v 0.38425 -0.13256 -0.38912
v 0.51758 -0.13150 -0.16022
v -0.54974 -0.13316 0.07856
v 0.53245 -0.13160 0.14720
v 0.43938 -0.13186 0.32392
v 0.30461 -0.13188 0.45535
v -0.15829 -0.13195 0.52362
v 0.02660 -0.13176 0.54276
v -0.37851 -0.14218 -0.40630
v 0.04746 -0.13843 -0.55422
v 0.21130 -0.13189 -0.51634
v -0.55532 -0.13189 -0.05336
v -0.47886 -0.13154 0.30149
v 0.14765 -0.13153 0.53684
v -0.06273 -0.16176 -0.54825
v 0.11500 -0.16250 -0.54000
v 0.14300 -0.16250 -0.53200
v 0.17100 -0.16250 -0.52500
v -0.16989 -0.16401 -0.52444
v 0.19800 -0.16250 -0.51400
v -0.28416 -0.16511 -0.47250
v 0.38607 -0.16503 -0.39431
v -0.32683 -0.16218 -0.44406
v -0.44157 -0.16513 -0.33100
v -0.47800 -0.16050 -0.27600
v -0.50820 -0.13914 -0.23264
v -0.53933 -0.16375 -0.11590
v -0.54400 -0.16250 -0.08600
v -0.54910 -0.16224 -0.05615
v -0.54848 -0.16402 0.05816
v 0.56351 -0.13183 -0.02548
v -0.38888 -0.16491 0.39246
v -0.35383 -0.13434 0.42146
v -0.27505 -0.16156 0.47851
v 0.33103 -0.16454 0.44667
v -0.04490 -0.16483 0.55095
v -0.02640 -0.16530 -0.55092
v -0.06744 -0.16525 -0.54548
v -0.12646 -0.13407 -0.54228
v 0.17100 -0.16350 -0.52500
v 0.19800 -0.16350 -0.51400
v 0.22500 -0.16350 -0.50400
v -0.37161 -0.16336 -0.40815
v -0.50165 -0.16526 -0.22687
v 0.53165 -0.13535 -0.17548
v -0.54723 -0.16503 -0.06093
v -0.55043 -0.16536 -0.00032
v -0.55000 -0.16350 0.02900
v 0.55444 -0.16492 0.01354
v -0.32185 -0.16357 0.44751
v -0.27743 -0.16443 0.47601
v 0.11571 -0.16523 -0.53803
v -0.08251 -0.16669 -0.52913
v -0.19715 -0.16470 -0.51390
v -0.24999 -0.17603 -0.46599
v 0.25557 -0.16539 -0.48669
v -0.28968 -0.16665 -0.44738
v 0.29465 -0.16883 -0.44514
v 0.31351 -0.16381 -0.45419
v 0.27349 -0.16530 -0.47873
v -0.40172 -0.16747 -0.35480
v -0.41646 -0.16570 -0.33222
v 0.42194 -0.16586 -0.32512
v 0.47064 -0.16525 -0.28991
v -0.47111 -0.17334 -0.24100
v 0.48556 -0.16614 -0.21826
v -0.50636 -0.16550 -0.16644
v 0.52147 -0.16525 -0.18004
v -0.53786 -0.16545 -0.11095
v 0.54552 -0.16548 -0.06359
v 0.52600 -0.16550 -0.08300
v -0.52202 -0.17133 -0.10500
v 0.53178 -0.17280 -0.00121
v -0.52547 -0.16505 0.17330
v -0.50603 -0.16779 0.16968
v 0.52831 -0.16537 0.15980
v 0.51389 -0.17574 0.12349
v -0.49769 -0.16550 0.21603
v -0.44137 -0.16501 0.32746
v -0.35724 -0.16673 0.39678
v 0.46974 -0.16531 0.29270
v -0.33501 -0.16565 0.41417
v 0.30716 -0.17263 0.43447
v -0.26073 -0.16597 0.46405
v -0.22178 -0.16524 0.50472
v 0.15975 -0.16550 0.51425
v 0.07394 -0.16660 0.52678
v 0.09800 -0.16550 0.52600
v -0.13985 -0.16497 0.53302
v 0.15027 -0.16508 0.53427
v 0.19698 -0.16679 -0.50010
v 0.53141 -0.16662 -0.03955
v 0.33425 -0.16605 0.41458
v 0.50844 -0.16592 -0.15547
v -0.52242 -0.18115 -0.03850
v -0.09127 -0.16876 0.52655
v 0.05394 -0.16767 0.53197
v 0.13613 -0.16769 -0.51640
v 0.45208 -0.16959 -0.28164
v 0.50241 -0.18115 -0.14582
v 0.49215 -0.17578 0.18972
v 0.23871 -0.16729 0.47928
v -0.19388 -0.16846 0.49594
v -0.16650 -0.17450 -0.27237
v 0.09769 -0.17450 -0.30388
v -0.30613 -0.17450 -0.10275
v -0.30263 -0.17450 0.10937
v 0.31850 -0.17450 -0.06950
v 0.27675 -0.17450 0.16856
v -0.09413 -0.17450 0.31150
v 0.16350 -0.17450 0.28300
v 0.03694 -0.18105 -0.51994
v 0.16950 -0.18423 -0.48712
v -0.06737 -0.18190 -0.51264
v -0.52315 -0.17736 0.06440
v 0.41840 -0.16987 0.33160
v -0.32209 -0.18166 0.41438
v -0.46097 -0.19028 -0.21063
v -0.51650 -0.18080 0.00838
v 0.14539 -0.18149 0.50285
v -0.16160 -0.18343 -0.49319
v 0.39536 -0.18052 -0.34662
v 0.43021 -0.18087 0.29129
v -0.46446 -0.18149 0.22603
v -0.45380 -0.17622 0.26792
v 0.45220 -0.19289 -0.21744
v -0.46836 -0.19457 0.16150
v 0.41574 -0.19775 0.26225
v 0.28642 -0.18521 0.42284
v -0.06576 -0.18116 0.51673
v 0.14495 -0.19217 -0.33380
v 0.32797 -0.19219 -0.14413
v 0.07714 -0.19183 0.35519
v 0.16072 -0.19387 -0.46557
v -0.13654 -0.19406 -0.47474
v 0.32937 -0.19451 -0.36739
v -0.43520 -0.19377 -0.23241
v -0.34732 -0.19254 0.10156
v -0.40821 -0.19372 0.28032
v 0.34800 -0.19350 0.34800
v 0.32900 -0.19350 0.36600
v 0.31077 -0.19435 0.38033
v -0.25187 -0.19356 0.42586
v -0.30425 -0.19528 -0.38601
v -0.36755 -0.18235 -0.36106
v 0.49006 -0.19452 0.06226
v 0.36700 -0.19450 0.33000
v 0.34800 -0.19450 0.34800
v -0.33000 -0.19450 0.36700
v 0.16298 -0.19408 0.47081
v -0.15204 -0.19448 0.46897
v 0.46985 -0.19461 0.14912
v -0.06118 -0.19568 0.48767
v -0.06061 -0.19601 -0.49061
v 0.26712 -0.19849 -0.28218
v -0.08161 -0.19227 -0.34717
v 0.46819 -0.20048 -0.01811
v 0.39920 -0.19968 0.24835
v 0.02344 -0.19949 0.46907
v 0.16555 -0.19989 -0.43908
v -0.18934 -0.19979 -0.43283
v -0.44243 -0.19949 -0.16288
v 0.48965 -0.19693 -0.05005
v 0.45716 -0.19996 0.11536
v -0.41636 -0.19886 0.21672
v -0.30469 -0.20009 0.35454
v -0.25209 -0.19942 0.39567
v -0.20130 -0.20042 0.42127
v -0.01030 -0.20043 -0.46798
v -0.21696 -0.19244 -0.28306
v 0.25593 -0.19743 -0.41552
v 0.35023 -0.18963 0.06197
v -0.44801 -0.20250 -0.07102
v 0.31502 -0.19260 0.18693
v -0.32870 -0.19201 -0.14441
v -0.46388 -0.20033 0.05408
v -0.36086 -0.20018 0.30012
v -0.18917 -0.19299 0.30952
v 0.11283 -0.20015 0.45426
v 0.02396 -0.20252 0.45392
v 0.23329 -0.19904 -0.40654
v -0.37630 -0.20008 -0.27984
v 0.41690 -0.19998 -0.21888
v -0.48644 -0.19627 0.05392
v 0.20584 -0.19964 0.42147
v 0.16999 -0.19958 0.43696
v -0.11379 -0.19937 0.45541
usemtl m000
f 959 940 952
f 951 952 953
f 932 925 946
f 965 923 924
f 974 912 957
f 963 934 939
f 939 934 958
f 934 940 959
f 941 928 954
f 928 936 950
f 929 876 956
f 838 839 823
f 836 855 837
f 832 834 820
f 828 827 822
f 829 828 822
f 852 851 829
f 831 829 822
f 867 853 822
f 860 856 842
f 843 861 844
f 854 872 820
f 865 868 832
f 849 864 850
f 851 902 863
f 853 902 852
f 867 902 853
f 861 843 862
f 837 878 838
f 897 913 901
f 864 866 865
f 881 882 905
f 53 52 27
f 22 21 33
f 52 113 62
f 68 111 95
f 986 915 917
f 967 916 915
f 942 919 916
f 983 920 919
f 985 922 920
f 944 921 922
f 989 918 921
f 949 917 918
f 936 928 891
f 55 101 52
f 913 898 931
f 869 874 933
f 858 883 926
f 858 926 885
f 885 926 886
f 899 908 898
f 881 903 882
f 855 876 878
f 908 899 901
f 899 898 897
f 912 888 887
f 879 905 877
f 885 886 889
f 901 913 846
f 856 881 879
f 854 832 872
f 858 859 814
f 862 896 845
f 853 852 831
f 851 863 828
f 848 849 826
f 832 854 834
f 880 857 839
f 857 858 840
f 908 907 941
f 926 930 995
f 958 959 951
f 963 939 969
f 948 955 993
f 988 950 976
f 977 950 988
f 84 39 42
f 80 40 39
f 81 43 40
f 245 180 177
f 83 36 43
f 86 45 36
f 234 164 180
f 88 47 45
f 93 46 47
f 226 160 164
f 91 44 46
f 90 42 44
f 220 156 160
f 212 155 156
f 211 159 155
f 218 163 159
f 231 170 167
f 236 175 170
f 248 177 178
f 177 180 173
f 180 164 169
f 164 160 161
f 160 156 157
f 156 155 158
f 155 159 158
f 159 163 162
f 163 167 165
f 167 170 171
f 170 175 171
f 175 178 176
f 178 177 173
f 245 247 209
f 243 245 207
f 240 243 205
f 238 240 205
f 237 238 203
f 234 237 201
f 34 8 7
f 232 234 201
f 196 232 199
f 230 196 197
f 228 230 197
f 226 228 197
f 225 226 194
f 223 225 191
f 221 223 191
f 220 221 190
f 219 220 190
f 216 219 188
f 214 216 188
f 212 214 185
f 21 20 32
f 33 32 17
f 210 212 185
f 211 210 183
f 213 211 183
f 215 213 184
f 217 215 184
f 218 217 186
f 51 87 10
f 181 218 187
f 222 181 187
f 224 222 189
f 23 49 24
f 193 224 189
f 50 23 24
f 227 193 192
f 41 50 5
f 229 227 192
f 231 229 195
f 27 52 18
f 233 231 195
f 235 233 198
f 60 57 21
f 236 235 200
f 38 60 13
f 182 236 200
f 239 182 202
f 241 239 202
f 242 241 204
f 58 37 34
f 244 242 204
f 246 244 206
f 248 246 208
f 247 248 208
f 385 257 340
f 313 320 327
f 54 53 27
f 55 54 27
f 310 276 326
f 324 271 396
f 95 63 51
f 49 66 25
f 52 79 41
f 55 52 53
f 321 283 357
f 97 78 38
f 37 125 65
f 362 316 258
f 315 362 404
f 343 315 404
f 403 343 392
f 342 403 392
f 340 342 389
f 385 340 389
f 401 385 386
f 358 401 386
f 356 358 383
f 313 356 383
f 399 313 381
f 337 399 377
f 326 337 377
f 397 326 375
f 325 397 374
f 126 144 122
f 396 325 372
f 352 396 372
f 394 352 370
f 349 394 370
f 348 349 368
f 336 348 366
f 322 336 366
f 344 322 365
f 347 344 365
f 395 347 367
f 350 395 367
f 351 350 369
f 353 351 369
f 354 353 369
f 345 354 371
f 398 345 371
f 312 398 373
f 378 312 376
f 400 378 379
f 355 400 380
f 357 355 380
f 339 357 382
f 387 339 384
f 402 387 384
f 341 402 388
f 359 341 390
f 360 359 390
f 361 360 391
f 363 361 393
f 362 363 393
f 341 290 256
f 123 137 125
f 303 302 398
f 66 110 111
f 68 66 111
f 23 100 127
f 50 94 106
f 347 395 250
f 347 250 323
f 349 336 264
f 65 124 122
f 65 125 124
f 305 337 304
f 811 346 148
f 403 257 293
f 315 296 298
f 316 315 309
f 812 810 146
f 308 316 297
f 258 308 295
f 314 258 295
f 290 314 291
f 256 290 289
f 307 256 289
f 817 816 153
f 321 307 287
f 283 321 286
f 254 283 286
f 319 254 286
f 317 319 282
f 338 317 282
f 253 338 280
f 837 823 811
f 303 253 278
f 302 303 275
f 301 302 275
f 268 301 273
f 822 821 810
f 299 268 270
f 252 299 265
f 250 252 265
f 842 856 813
f 323 250 265
f 249 323 262
f 259 249 262
f 260 259 262
f 251 260 261
f 264 251 263
f 300 264 263
f 324 300 266
f 823 814 771
f 271 324 269
f 310 271 269
f 837 838 823
f 276 310 272
f 832 820 809
f 311 276 274
f 304 311 277
f 821 826 850
f 305 304 277
f 870 871 822
f 318 305 279
f 833 870 822
f 875 833 812
f 320 318 279
f 306 320 281
f 327 306 284
f 892 887 815
f 255 327 285
f 846 892 816
f 817 846 816
f 257 255 285
f 293 257 288
f 819 901 825
f 296 293 288
f 845 896 818
f 298 296 292
f 844 845 818
f 843 844 824
f 890 843 824
f 309 298 294
f 885 890 824
f 316 309 297
f 145 811 148
f 410 487 541
f 150 815 813
f 525 423 505
f 134 819 817
f 406 493 495
f 135 148 142
f 421 469 496
f 130 145 148
f 462 527 506
f 429 462 507
f 129 146 141
f 514 473 513
f 517 492 549
f 489 517 549
f 554 489 547
f 500 554 547
f 488 500 545
f 487 488 545
f 541 487 542
f 553 541 542
f 107 140 130
f 127 140 107
f 502 553 539
f 94 141 105
f 499 502 539
f 108 147 129
f 551 499 537
f 109 149 108
f 112 149 109
f 532 551 535
f 508 532 534
f 550 508 531
f 131 152 120
f 131 153 152
f 497 550 531
f 505 497 529
f 125 154 144
f 525 505 529
f 504 525 526
f 123 136 133
f 494 504 526
f 128 151 132
f 503 494 523
f 103 151 128
f 518 503 521
f 501 518 519
f 328 330 478
f 484 501 519
f 329 328 476
f 493 484 520
f 331 329 477
f 495 493 522
f 333 331 479
f 485 495 522
f 496 485 524
f 335 333 481
f 527 496 524
f 334 335 483
f 506 527 528
f 507 506 528
f 332 334 483
f 509 507 528
f 330 332 482
f 510 509 530
f 472 510 533
f 67 71 330
f 552 472 533
f 511 552 533
f 69 67 328
f 512 511 536
f 72 69 331
f 513 512 538
f 74 72 333
f 514 513 538
f 179 74 333
f 544 514 540
f 76 179 335
f 474 544 540
f 515 474 543
f 73 76 332
f 516 515 546
f 491 516 546
f 71 73 330
f 475 491 548
f 492 475 548
f 67 69 71
f 72 74 179
f 446 474 450
f 179 76 72
f 76 71 72
f 73 71 76
f 752 747 770
f 472 511 465
f 747 751 768
f 751 745 766
f 745 772 766
f 772 794 764
f 794 750 749
f 750 741 749
f 741 739 748
f 739 737 748
f 737 789 761
f 504 494 460
f 789 735 759
f 525 504 461
f 735 786 757
f 786 783 757
f 532 498 464
f 783 782 732
f 782 780 732
f 780 779 755
f 502 437 409
f 779 777 729
f 777 727 729
f 448 488 445
f 727 724 725
f 724 723 725
f 723 773 726
f 773 775 726
f 490 456 453
f 775 776 730
f 466 490 453
f 776 728 754
f 450 466 447
f 446 450 447
f 728 731 756
f 411 446 447
f 731 778 756
f 441 411 443
f 778 733 758
f 473 441 440
f 733 781 758
f 435 473 440
f 781 734 760
f 465 435 436
f 734 785 760
f 407 465 433
f 785 736 762
f 463 407 433
f 736 788 762
f 429 463 431
f 788 738 740
f 462 429 431
f 738 791 740
f 470 462 427
f 791 792 765
f 421 470 427
f 792 742 765
f 469 421 425
f 742 743 767
f 406 469 420
f 743 744 767
f 459 406 420
f 744 746 769
f 412 459 417
f 746 752 770
f 484 412 417
f 458 484 415
f 413 458 415
f 805 808 807
f 405 413 416
f 804 805 807
f 460 405 416
f 461 460 419
f 784 804 807
f 525 461 419
f 423 525 422
f 797 784 802
f 471 423 424
f 498 471 424
f 464 498 426
f 774 797 798
f 408 464 430
f 486 408 430
f 799 774 796
f 437 486 432
f 409 437 434
f 787 799 800
f 410 409 434
f 468 410 439
f 790 787 803
f 445 468 439
f 448 445 442
f 793 790 803
f 467 448 444
f 795 793 803
f 454 467 449
f 455 454 452
f 808 795 806
f 457 455 452
f 808 747 752
f 456 457 452
f 808 751 747
f 808 745 751
f 745 805 772
f 808 805 745
f 741 805 804
f 741 804 739
f 789 804 784
f 784 735 789
f 643 630 615
f 782 784 797
f 555 680 605
f 779 797 777
f 777 797 727
f 727 797 774
f 629 677 628
f 774 724 727
f 642 629 607
f 776 774 799
f 776 799 728
f 799 731 728
f 653 694 618
f 733 799 787
f 781 787 734
f 622 701 700
f 787 736 785
f 736 787 790
f 651 635 624
f 790 738 788
f 707 641 627
f 791 790 793
f 637 602 601
f 636 637 601
f 623 636 599
f 743 793 795
f 634 623 595
f 795 744 743
f 557 634 595
f 795 746 744
f 620 557 592
f 746 795 808
f 654 620 592
f 707 706 674
f 639 654 589
f 706 650 672
f 632 639 586
f 650 640 672
f 556 632 583
f 640 702 670
f 580 556 583
f 702 655 667
f 646 580 583
f 655 699 667
f 616 646 579
f 615 616 579
f 699 697 720
f 613 615 575
f 697 695 718
f 611 613 575
f 695 648 718
f 610 611 572
f 648 638 692
f 609 610 572
f 608 609 572
f 638 652 692
f 606 608 568
f 652 630 715
f 605 606 568
f 630 690 661
f 555 605 563
f 690 688 713
f 603 555 560
f 688 684 686
f 604 603 559
f 684 682 659
f 629 604 561
f 682 681 657
f 607 629 565
f 681 680 657
f 569 607 566
f 680 678 710
f 644 569 570
f 678 676 708
f 676 628 708
f 612 644 571
f 614 612 571
f 628 677 656
f 645 614 574
f 677 679 711
f 631 645 576
f 679 642 658
f 617 631 577
f 642 683 712
f 618 617 578
f 683 685 660
f 685 687 660
f 653 618 581
f 585 653 582
f 687 689 714
f 633 585 584
f 689 691 662
f 619 633 588
f 691 647 716
f 621 619 590
f 647 693 717
f 622 621 591
f 693 694 664
f 635 622 593
f 694 649 665
f 624 635 596
f 649 696 719
f 626 624 597
f 627 626 598
f 696 698 668
f 625 627 600
f 698 700 721
f 602 625 601
f 700 701 671
f 701 703 722
f 622 635 701
f 703 651 704
f 651 675 673
f 675 641 705
f 641 707 705
f 687 614 689
f 677 629 679
f 646 652 638
f 643 609 684
f 690 643 688
f 245 177 247
f 243 180 245
f 240 180 243
f 995 929 973
f 238 180 240
f 237 180 238
f 234 180 237
f 232 164 234
f 196 164 232
f 230 164 196
f 228 164 230
f 226 164 228
f 225 160 226
f 223 160 225
f 221 160 223
f 220 160 221
f 219 156 220
f 216 156 219
f 214 156 216
f 212 156 214
f 210 155 212
f 211 155 210
f 213 159 211
f 215 159 213
f 217 159 215
f 218 159 217
f 181 163 218
f 222 163 181
f 224 163 222
f 193 163 224
f 193 167 163
f 971 982 992
f 229 167 227
f 231 167 229
f 233 170 231
f 235 170 233
f 236 170 235
f 182 175 236
f 239 175 182
f 241 175 239
f 242 175 241
f 244 178 242
f 248 178 246
f 247 177 248
f 998 964 979
f 979 954 978
f 973 929 948
f 972 955 965
f 971 945 982
f 982 937 994
f 937 974 994
f 975 974 963
f 968 974 975
f 939 953 961
f 970 961 964
f 342 257 403
f 978 954 977
f 977 954 950
f 305 399 337
f 397 310 326
f 397 325 310
f 976 950 995
f 324 394 349
f 955 932 946
f 955 946 965
f 982 947 937
f 974 957 963
f 951 959 952
f 939 951 953
f 953 940 961
f 950 938 995
f 995 930 929
f 930 906 929
f 948 929 956
f 290 341 314
f 955 956 932
f 317 338 355
f 303 398 312
f 301 354 302
f 268 353 354
f 259 322 344
f 945 924 982
f 260 336 322
f 982 933 947
f 300 324 349
f 947 933 937
f 310 325 271
f 255 385 327
f 255 257 385
f 957 912 963
f 958 934 959
f 961 940 931
f 961 941 964
f 964 941 962
f 962 941 954
f 954 928 960
f 960 928 950
f 950 935 938
f 938 935 926
f 906 883 929
f 911 884 974
f 500 467 554
f 553 502 410
f 532 408 551
f 508 498 532
f 501 458 518
f 552 511 472
f 446 544 474
f 876 872 956
f 923 909 924
f 924 869 933
f 933 910 937
f 934 912 927
f 940 913 931
f 931 908 941
f 456 491 475
f 466 515 490
f 941 907 928
f 441 514 411
f 441 473 514
f 935 886 926
f 412 484 459
f 930 926 906
f 518 458 413
f 840 858 823
f 405 494 413
f 839 857 840
f 823 839 840
f 837 835 836
f 820 835 837
f 834 854 820
f 468 487 410
f 454 489 554
f 809 830 865
f 454 455 489
f 809 850 830
f 457 492 455
f 826 849 850
f 822 827 821
f 828 863 827
f 831 852 829
f 871 867 822
f 860 881 856
f 887 860 842
f 825 901 846
f 818 900 847
f 896 900 818
f 861 862 845
f 844 861 845
f 814 841 885
f 814 859 841
f 637 636 706
f 623 557 640
f 830 864 865
f 580 638 556
f 863 848 821
f 852 902 851
f 603 628 676
f 628 604 629
f 647 617 618
f 855 878 837
f 872 873 835
f 849 848 864
f 833 871 870
f 696 585 633
f 689 614 645
f 678 680 555
f 639 697 654
f 655 557 654
f 843 895 896
f 862 843 896
f 890 891 843
f 885 889 890
f 841 858 885
f 857 880 858
f 892 846 927
f 746 808 752
f 742 793 743
f 792 793 742
f 778 799 733
f 724 774 723
f 880 878 883
f 739 804 737
f 750 805 741
f 794 805 750
f 848 909 864
f 863 902 909
f 833 875 874
f 875 877 910
f 860 903 881
f 860 884 903
f 887 884 860
f 912 887 927
f 892 927 887
f 927 846 904
f 846 913 894
f 897 898 913
f 901 847 908
f 896 895 914
f 71 69 72
f 882 903 905
f 117 119 143
f 94 129 141
f 988 976 995
f 939 961 996
f 154 133 818
f 994 974 968
f 980 965 971
f 815 887 842
f 873 872 876
f 865 866 868
f 864 932 866
f 909 923 864
f 903 911 905
f 893 891 895
f 890 886 936
f 883 906 926
f 949 918 989
f 989 921 944
f 96 95 114
f 944 922 985
f 985 920 983
f 983 919 943
f 943 919 942
f 137 123 133
f 126 125 144
f 942 916 967
f 967 915 981
f 102 117 116
f 55 102 116
f 981 915 986
f 111 110 135
f 986 917 949
f 58 123 37
f 65 64 97
f 38 78 60
f 57 59 89
f 902 869 909
f 910 933 874
f 911 937 877
f 903 884 911
f 898 908 931
f 895 928 914
f 891 928 895
f 18 52 41
f 17 22 33
f 32 20 17
f 29 20 30
f 49 107 66
f 107 98 127
f 14 50 24
f 48 50 106
f 79 62 109
f 52 101 113
f 18 41 5
f 89 59 117
f 78 97 121
f 97 64 122
f 104 99 123
f 58 104 123
f 23 61 100
f 55 117 102
f 75 118 132
f 87 103 118
f 60 77 121
f 89 117 55
f 94 41 79
f 966 943 942
f 994 983 943
f 968 985 983
f 977 949 989
f 87 96 103
f 70 68 95
f 51 70 95
f 107 23 98
f 58 99 104
f 77 78 121
f 37 123 125
f 987 986 949
f 987 949 995
f 988 995 949
f 988 949 977
f 977 989 978
f 978 989 979
f 979 989 998
f 998 989 964
f 964 989 970
f 970 989 991
f 991 989 944
f 970 991 944
f 970 944 990
f 997 990 944
f 996 997 944
f 996 944 939
f 939 944 985
f 939 985 969
f 969 985 975
f 975 985 968
f 968 983 994
f 994 943 982
f 982 943 966
f 868 866 872
f 982 966 942
f 992 982 942
f 992 942 971
f 971 942 980
f 965 980 942
f 972 965 942
f 972 942 967
f 972 967 955
f 955 967 981
f 955 981 993
f 993 981 986
f 993 986 973
f 973 986 984
f 995 984 986
f 995 986 987
f 87 63 96
f 904 894 927
f 905 911 877
f 61 48 100
f 984 995 973
f 79 52 62
f 59 121 120
f 900 914 907
f 878 876 883
f 889 886 890
f 896 914 900
f 847 907 908
f 846 894 904
f 887 888 884
f 879 881 905
f 875 910 874
f 833 874 869
f 867 869 902
f 832 868 872
f 873 876 855
f 60 78 77
f 890 936 891
f 891 893 843
f 843 893 895
f 900 907 847
f 901 899 897
f 833 869 871
f 871 869 867
f 863 909 848
f 99 75 132
f 75 87 118
f 880 883 858
f 875 879 877
f 855 835 873
f 838 878 880
f 859 858 841
f 850 864 830
f 820 872 835
f 823 858 814
f 42 19 10
f 42 9 19
f 9 39 4
f 879 875 856
f 822 853 831
f 829 851 828
f 827 863 821
f 39 14 4
f 821 848 826
f 39 1 14
f 836 835 855
f 838 880 839
f 935 936 886
f 907 914 928
f 5 2 6
f 940 894 913
f 934 927 894
f 910 877 937
f 36 16 2
f 36 45 16
f 924 909 869
f 925 864 923
f 932 864 925
f 45 47 16
f 16 47 17
f 956 872 866
f 17 47 13
f 47 3 13
f 934 894 940
f 46 12 3
f 974 884 888
f 46 7 12
f 46 34 7
f 46 44 34
f 44 15 34
f 44 42 15
f 929 883 876
f 42 10 15
f 938 926 995
f 950 936 935
f 961 931 941
f 42 39 9
f 963 912 934
f 974 888 912
f 937 911 974
f 982 924 933
f 965 925 923
f 39 40 1
f 946 925 965
f 956 866 932
f 40 2 1
f 954 960 950
f 40 43 2
f 964 962 954
f 43 36 2
f 952 940 953
f 939 958 951
f 965 924 945
f 948 956 955
f 47 46 3
f 973 948 993
f 90 85 42
f 964 954 979
f 85 84 42
f 990 961 970
f 997 961 990
f 996 961 997
f 975 963 969
f 84 82 39
f 82 80 39
f 965 945 971
f 80 81 40
f 81 83 43
f 83 86 36
f 86 88 45
f 88 92 47
f 92 93 47
f 93 91 46
f 91 90 44
f 2 5 1
f 2 18 6
f 193 227 167
f 15 11 34
f 175 242 178
f 244 246 178
f 173 180 172
f 14 24 4
f 172 180 169
f 169 164 168
f 168 164 166
f 166 164 161
f 161 160 157
f 157 156 158
f 3 8 13
f 158 159 162
f 162 163 165
f 165 167 171
f 171 175 174
f 174 175 176
f 1 5 14
f 176 178 173
f 6 18 5
f 2 27 18
f 16 27 2
f 207 245 209
f 29 27 16
f 17 29 16
f 205 243 207
f 203 238 205
f 8 38 13
f 12 8 3
f 201 237 203
f 7 8 12
f 11 56 34
f 199 232 201
f 11 28 56
f 15 28 11
f 10 28 15
f 197 196 199
f 9 26 19
f 194 226 197
f 4 25 9
f 49 25 4
f 4 24 49
f 191 225 194
f 190 221 191
f 188 219 190
f 29 89 27
f 185 214 188
f 17 20 29
f 33 21 32
f 183 210 185
f 8 35 38
f 184 213 183
f 34 37 8
f 56 31 34
f 186 217 184
f 28 87 56
f 187 218 186
f 19 51 10
f 68 51 19
f 26 68 19
f 9 68 26
f 25 68 9
f 189 222 187
f 192 193 189
f 5 50 14
f 195 229 192
f 198 233 195
f 57 89 29
f 30 57 29
f 200 235 198
f 20 57 30
f 21 57 20
f 22 60 21
f 17 60 22
f 13 60 17
f 202 182 200
f 8 65 35
f 37 65 8
f 204 241 202
f 31 58 34
f 206 244 204
f 56 58 31
f 10 87 28
f 208 246 206
f 209 247 208
f 25 66 68
f 403 296 343
f 23 107 49
f 48 61 23
f 50 48 23
f 340 257 342
f 50 41 94
f 401 327 385
f 358 327 401
f 356 327 358
f 356 313 327
f 89 55 27
f 399 305 313
f 326 311 337
f 60 59 57
f 396 271 325
f 35 65 38
f 352 324 396
f 394 324 352
f 348 336 349
f 75 99 58
f 56 75 58
f 347 249 344
f 68 70 51
f 347 323 249
f 350 299 395
f 351 299 350
f 351 268 299
f 353 268 351
f 345 302 354
f 398 302 345
f 378 338 312
f 400 338 378
f 355 338 400
f 54 55 53
f 254 319 355
f 357 254 355
f 357 283 254
f 339 321 357
f 387 307 339
f 402 307 387
f 60 121 59
f 402 341 307
f 65 97 38
f 359 314 341
f 65 122 64
f 360 314 359
f 360 258 314
f 361 258 360
f 363 258 361
f 362 258 363
f 56 87 75
f 51 63 87
f 392 343 404
f 114 95 135
f 95 111 135
f 389 342 392
f 386 385 389
f 79 108 129
f 383 358 386
f 113 115 149
f 115 101 149
f 381 313 383
f 116 117 143
f 377 399 381
f 375 326 377
f 134 122 138
f 374 397 375
f 372 325 374
f 125 137 133
f 123 99 136
f 370 352 372
f 368 349 370
f 366 348 368
f 364 322 366
f 110 107 130
f 365 322 364
f 367 347 365
f 369 350 367
f 371 354 369
f 121 122 134
f 373 398 371
f 376 312 373
f 379 378 376
f 380 400 379
f 382 357 380
f 384 339 382
f 388 402 384
f 66 107 110
f 100 106 127
f 106 105 127
f 390 341 388
f 106 94 105
f 94 79 129
f 391 360 390
f 109 62 112
f 62 113 112
f 393 361 391
f 113 101 115
f 101 55 116
f 404 362 393
f 308 258 316
f 122 124 126
f 307 341 256
f 124 125 126
f 321 339 307
f 317 355 319
f 128 118 103
f 63 95 96
f 312 338 253
f 303 312 253
f 268 354 301
f 98 23 127
f 100 48 106
f 250 395 252
f 395 299 252
f 79 109 108
f 259 344 249
f 260 322 259
f 251 336 260
f 264 336 251
f 117 59 119
f 300 349 264
f 59 120 119
f 120 121 131
f 97 122 121
f 311 326 276
f 304 337 311
f 318 313 305
f 118 128 132
f 320 313 318
f 306 327 320
f 145 809 811
f 296 403 293
f 140 821 809
f 140 810 821
f 141 810 140
f 315 343 296
f 309 315 298
f 316 362 315
f 146 810 141
f 147 812 146
f 295 308 297
f 147 813 812
f 149 813 147
f 291 314 295
f 143 815 150
f 289 290 291
f 152 815 143
f 152 816 815
f 153 816 152
f 287 307 289
f 286 321 287
f 154 818 819
f 133 844 818
f 282 319 286
f 136 844 133
f 136 771 844
f 151 771 136
f 142 346 771
f 280 338 282
f 278 253 280
f 811 823 346
f 809 820 811
f 275 303 278
f 273 301 275
f 821 850 809
f 270 268 273
f 812 822 810
f 267 299 270
f 265 299 267
f 813 856 812
f 815 842 813
f 262 323 265
f 261 260 262
f 819 825 817
f 263 251 261
f 266 300 263
f 771 824 844
f 771 814 824
f 269 324 266
f 346 823 771
f 272 310 269
f 811 820 837
f 274 276 272
f 809 865 832
f 277 311 274
f 279 305 277
f 812 833 822
f 281 320 279
f 856 875 812
f 284 306 281
f 285 327 284
f 816 892 815
f 288 257 285
f 825 846 817
f 819 847 901
f 818 847 819
f 292 296 288
f 294 298 292
f 297 309 294
f 814 885 824
f 517 455 492
f 142 148 346
f 489 455 517
f 488 448 500
f 145 140 809
f 553 410 541
f 499 437 502
f 551 486 499
f 149 150 813
f 550 498 508
f 497 471 550
f 505 423 497
f 153 134 817
f 134 144 819
f 144 154 819
f 503 413 494
f 518 413 503
f 501 484 458
f 493 459 484
f 151 142 771
f 485 406 495
f 496 469 485
f 527 421 496
f 135 130 148
f 507 462 506
f 130 140 145
f 509 429 507
f 510 429 509
f 139 141 140
f 510 472 429
f 129 147 146
f 108 149 147
f 512 435 511
f 513 473 512
f 149 116 150
f 116 143 150
f 544 446 514
f 515 466 474
f 516 490 515
f 491 490 516
f 138 144 134
f 547 489 549
f 545 500 547
f 96 114 142
f 114 135 142
f 542 487 545
f 135 110 130
f 539 553 542
f 127 139 140
f 127 141 139
f 127 105 141
f 537 499 539
f 535 551 537
f 112 113 149
f 101 116 149
f 534 532 535
f 143 119 152
f 531 508 534
f 119 120 152
f 131 121 153
f 529 497 531
f 121 134 153
f 122 144 138
f 526 525 529
f 125 133 154
f 99 132 136
f 523 494 526
f 132 151 136
f 103 142 151
f 521 503 523
f 103 96 142
f 478 330 480
f 519 518 521
f 520 484 519
f 476 328 478
f 477 329 476
f 522 493 520
f 479 331 477
f 524 485 522
f 481 333 479
f 483 335 481
f 528 527 524
f 482 332 483
f 530 509 528
f 480 330 482
f 533 510 530
f 328 67 330
f 536 511 533
f 329 69 328
f 331 69 329
f 538 512 536
f 333 72 331
f 540 514 538
f 335 179 333
f 334 76 335
f 543 474 540
f 332 76 334
f 546 515 543
f 330 73 332
f 548 491 546
f 549 492 548
f 490 491 456
f 450 474 466
f 411 514 446
f 435 512 473
f 511 435 465
f 407 472 465
f 770 747 768
f 463 472 407
f 429 472 463
f 768 751 766
f 470 527 462
f 421 527 470
f 766 772 764
f 406 485 469
f 764 794 749
f 493 406 459
f 749 741 748
f 748 737 761
f 460 494 405
f 461 504 460
f 761 789 759
f 759 735 757
f 471 497 423
f 498 550 471
f 757 783 732
f 408 532 464
f 486 551 408
f 732 780 755
f 437 499 486
f 410 502 409
f 755 779 729
f 445 487 468
f 488 487 445
f 729 727 753
f 753 727 725
f 467 500 448
f 454 554 467
f 725 723 726
f 475 492 457
f 456 475 457
f 726 775 730
f 451 466 453
f 730 776 754
f 447 466 451
f 754 728 756
f 443 411 447
f 756 778 758
f 440 441 443
f 758 781 760
f 438 435 440
f 436 435 438
f 433 465 436
f 760 785 762
f 431 463 433
f 762 788 740
f 428 462 431
f 427 462 428
f 740 791 763
f 763 791 765
f 425 421 427
f 420 469 425
f 765 742 767
f 767 744 769
f 418 459 420
f 417 459 418
f 769 746 770
f 415 484 417
f 414 413 415
f 416 413 414
f 419 460 416
f 802 784 807
f 422 525 419
f 424 423 422
f 801 797 802
f 426 498 424
f 798 797 801
f 796 774 798
f 430 464 426
f 432 486 430
f 800 799 796
f 434 437 432
f 439 410 434
f 803 787 800
f 442 445 439
f 444 448 442
f 449 467 444
f 806 795 803
f 807 808 806
f 452 454 449
f 453 456 452
f 637 706 602
f 623 640 636
f 640 650 636
f 794 772 805
f 634 557 623
f 620 654 557
f 632 695 639
f 556 648 632
f 789 737 804
f 646 638 580
f 616 630 646
f 615 630 616
f 786 735 784
f 613 643 615
f 783 786 784
f 611 643 613
f 610 643 611
f 782 783 784
f 610 609 643
f 780 782 797
f 606 680 608
f 680 609 608
f 779 780 797
f 605 680 606
f 603 676 555
f 604 628 603
f 569 642 607
f 773 723 774
f 569 683 642
f 644 683 569
f 775 773 774
f 612 687 644
f 614 687 612
f 776 775 774
f 631 647 645
f 617 647 631
f 778 731 799
f 585 649 653
f 781 733 787
f 619 700 633
f 621 700 619
f 785 734 787
f 622 700 621
f 788 736 790
f 626 641 624
f 627 641 626
f 625 707 627
f 791 738 790
f 602 707 625
f 792 791 793
f 599 636 601
f 595 623 599
f 592 557 595
f 589 654 592
f 674 706 672
f 586 639 589
f 583 632 586
f 672 640 670
f 670 702 667
f 579 646 583
f 667 699 720
f 575 615 579
f 720 697 718
f 572 611 575
f 718 648 692
f 568 608 572
f 692 652 715
f 715 630 661
f 563 605 568
f 560 555 563
f 661 690 713
f 558 603 560
f 713 688 686
f 559 603 558
f 686 684 659
f 561 604 559
f 562 629 561
f 659 682 657
f 564 629 562
f 565 629 564
f 566 607 565
f 657 680 710
f 567 569 566
f 570 569 567
f 710 678 708
f 571 644 570
f 708 628 709
f 573 614 571
f 709 628 656
f 574 614 573
f 656 677 711
f 576 645 574
f 711 679 658
f 577 631 576
f 658 642 712
f 578 617 577
f 581 618 578
f 712 683 660
f 582 653 581
f 660 687 714
f 584 585 582
f 587 633 584
f 714 689 662
f 588 633 587
f 662 691 716
f 590 619 588
f 716 647 663
f 591 621 590
f 663 647 717
f 717 693 664
f 593 622 591
f 594 635 593
f 664 694 665
f 596 635 594
f 597 624 596
f 665 649 719
f 598 626 597
f 719 696 666
f 666 696 668
f 600 627 598
f 668 698 721
f 601 625 600
f 721 700 669
f 669 700 671
f 624 641 675
f 651 624 675
f 671 701 722
f 703 635 651
f 722 703 704
f 701 635 703
f 704 651 673
f 698 633 700
f 673 675 705
f 696 633 698
f 705 707 674
f 649 585 696
f 707 602 706
f 694 653 649
f 693 618 694
f 706 636 650
f 647 618 693
f 691 645 647
f 640 557 702
f 689 645 691
f 702 557 655
f 685 644 687
f 655 654 699
f 683 644 685
f 699 654 697
f 679 629 642
f 697 639 695
f 695 632 648
f 648 556 638
f 678 555 676
f 652 646 630
f 681 609 680
f 682 609 681
f 630 643 690
f 684 609 682
f 688 643 684
v -0.45100 0.37950 -0.09600
v -0.45100 0.37950 -0.08300
v -0.45100 0.44050 -0.09600
v -0.45100 0.44050 -0.08300
v -0.20000 0.37950 -0.10800
v -0.20000 0.37950 -0.07200
v -0.20000 0.44050 -0.10800
v -0.20000 0.44050 -0.07200
v -0.14463 -0.00011 -0.04374
v -0.14885 0.00518 -0.00380
v -0.14583 0.00572 0.04517
v -0.14375 0.02450 -0.04600
v -0.15000 0.02450 -0.01075
v -0.14550 0.02450 0.04100
v -0.18300 0.37950 -0.10300
v -0.16500 0.37950 -0.06500
v -0.18300 0.44050 -0.10300
v -0.16500 0.44050 -0.06500
v -0.08242 -0.11000 0.00012
v -0.08311 -0.06168 0.00197
v -0.10642 0.00788 -0.10406
v -0.11607 0.00123 -0.05961
v -0.10052 -0.00381 0.00410
v -0.10328 0.00597 0.05868
v -0.09898 0.00153 0.10846
v -0.10225 0.02450 -0.11075
v -0.13412 0.02450 -0.06513
v -0.13467 0.02450 0.06867
v -0.10220 0.02450 0.10990
v -0.08800 0.37950 -0.10400
v -0.12000 0.37950 -0.06367
v -0.08800 0.44050 -0.10400
v -0.12000 0.44050 -0.06367
v -0.04700 -0.12260 -0.05290
v -0.06557 -0.12252 -0.00291
v -0.04818 -0.12299 0.05148
v -0.05296 -0.06184 -0.06149
v -0.08035 -0.06366 -0.00092
v -0.05578 -0.06310 0.05787
v -0.02750 0.00425 -0.15075
v -0.05068 0.00637 -0.11761
v -0.05757 -0.00577 -0.07047
v -0.08062 -0.00588 0.01900
v -0.06656 -0.01651 0.05790
v -0.05435 0.00220 0.11954
v -0.03293 0.00716 0.14948
v -0.02400 0.02450 -0.15000
v -0.05760 0.02450 -0.13920
v -0.06887 0.02450 0.13412
v -0.02950 0.02450 0.14900
v -0.05611 0.41315 0.12176
v 0.00715 -0.12501 -0.06730
v 0.01182 -0.13026 -0.00392
v 0.00717 -0.12527 0.06667
v 0.00801 -0.06585 -0.08171
v 0.00686 -0.06008 0.08223
v 0.00454 0.00228 -0.15203
v 0.00313 -0.00240 -0.12411
v 0.01223 -0.02641 -0.08600
v 0.00432 -0.01427 0.08567
v 0.00500 0.00096 0.10038
v 0.01613 0.00703 0.15109
v 0.00300 0.02450 -0.15175
v 0.00600 0.02450 -0.14667
v 0.01200 0.02450 0.15040
v 0.01489 0.41239 0.13005
v 0.05358 -0.12131 -0.04945
v 0.07186 -0.11936 -0.00237
v 0.05456 -0.12173 0.04796
v 0.05866 -0.06171 -0.05764
v 0.08227 -0.06256 0.00125
v 0.06210 -0.06399 0.05331
v 0.03700 0.00250 -0.15100
v 0.05644 0.00745 -0.11748
v 0.06179 -0.00489 -0.06862
v 0.08906 -0.01102 0.00800
v 0.07696 -0.00707 0.05414
v 0.07208 0.00148 0.11790
v 0.04375 0.00300 0.14875
v 0.06860 0.02450 -0.13440
v 0.07491 0.02450 0.12982
v 0.06012 0.41332 0.12067
v 0.11031 0.00789 -0.10129
v 0.12901 0.00207 -0.05608
v 0.12683 0.00412 -0.00131
v 0.12582 0.00835 0.06173
v 0.10727 0.00228 0.10551
v 0.10733 0.02450 -0.10667
v 0.13775 0.02450 -0.05875
v 0.15012 0.02450 -0.01075
v 0.13960 0.02450 0.05760
v 0.10800 0.02450 0.10629
v 0.14800 0.37950 -0.05600
v 0.14800 0.44050 -0.05600
v 0.15525 0.00250 -0.00000
v 0.31300 0.37950 -0.09913
v 0.31142 0.37950 -0.07617
v 0.29700 0.37950 -0.02900
v 0.31030 0.45380 -0.10245
v 0.31107 0.45564 -0.07164
v 0.29700 0.44050 -0.02900
v 0.30850 0.49942 -0.10458
v 0.31063 0.49846 -0.06937
v 0.35600 0.37750 0.32100
v 0.35600 0.38350 0.32100
v 0.33400 0.45100 -0.09550
v 0.33611 0.45550 -0.07078
v 0.36840 0.46370 0.01527
v 0.35569 0.47319 0.04508
v 0.38933 0.47850 0.10933
v 0.35600 0.44350 0.32100
v 0.33400 0.49900 -0.09600
v 0.33600 0.49817 -0.07067
v 0.36905 0.50213 0.01547
v 0.36933 0.50150 0.05267
v 0.43600 0.37750 -0.06700
v 0.42700 0.38150 -0.05500
v 0.41800 0.37950 -0.01600
v 0.43000 0.44250 -0.05900
v 0.39563 0.47375 0.00100
v 0.41940 0.46870 0.06120
v 0.42037 0.45250 0.11687
v 0.43807 0.47040 0.18097
v 0.40850 0.50300 0.05975
v 0.42037 0.50450 0.11688
v 0.44375 0.50158 0.17850
v 0.47208 0.43050 0.18975
v 0.47220 0.43050 0.21060
v 0.45825 0.47325 0.12050
v 0.47225 0.46219 0.18175
v 0.47216 0.46250 0.21362
v 0.45400 0.49950 0.12300
v 0.46745 0.50330 0.17714
v 0.47225 0.50375 0.21537
v 0.56700 0.37750 -0.06700
v 0.56700 0.37750 0.32100
v 0.56600 0.38350 -0.06700
v 0.53100 0.37950 -0.01450
v 0.56600 0.38350 0.32100
v 0.56650 0.44350 -0.06700
v 0.53100 0.44050 -0.01450
v 0.56650 0.44350 0.32100
v 0.57300 0.39725 -0.06700
v 0.57300 0.39725 0.32100
v 0.57200 0.44100 -0.06700
v 0.57200 0.44100 0.32100
usemtl m001
f 1076 1077 1060
f 1082 1074 1073
f 1072 1073 1057
f 1056 1057 1040
f 1057 1053 1035
f 1040 1035 1036
f 1021 1036 1018
f 1065 1066 1051
f 1050 1065 1051
f 1066 1067 1051
f 1044 1043 1060
f 1008 1021 1022
f 1036 1041 1021
f 1068 1053 1057
f 1056 1062 1061
f 1065 1068 1069
f 1032 1035 1053
f 1017 1018 1036
f 1067 1070 1054
f 1066 1069 1070
f 1054 1037 1034
f 1037 1036 1033
f 1036 1035 1032
f 1053 1068 1065
f 1075 1069 1074
f 1075 1074 1084
f 1074 1083 1084
f 1056 1055 1072
f 1055 1071 1072
f 1056 1039 1038
f 1020 1021 1008
f 1059 1076 1077
f 1012 1009 1008
f 1026 1022 1009
f 1023 1022 1026
f 1047 1043 1023
f 1048 1044 1043
f 1063 1060 1044
f 1076 1060 1063
f 1090 1085 1076
f 1089 1084 1085
f 1083 1084 1089
f 1087 1082 1083
f 1086 1081 1082
f 1072 1081 1086
f 1055 1056 1062
f 1062 1056 1072
f 1038 1055 1061
f 1046 1039 1038
f 1019 1039 1046
f 1020 1019 1024
f 1007 1020 1025
f 1008 1007 1010
f 1022 1043 1023
f 1056 1055 1061
f 1010 1007 1020
f 1025 1020 1010
f 1020 1021 1007
f 1056 1040 1039
f 1085 1076 1079
f 1069 1068 1073
f 1020 1041 1021
f 1040 1041 1020
f 1037 1054 1058
f 1054 1070 1075
f 1032 1050 1051
f 1067 1052 1051
f 1040 1020 1019
f 1042 1022 1021
f 1037 1042 1041
f 1043 1022 1042
f 1056 1072 1057
f 1082 1073 1081
f 1040 1057 1035
f 1041 1040 1036
f 1075 1058 1054
f 1033 1032 1051
f 1051 1034 1033
f 1052 1034 1051
f 1070 1069 1075
f 1009 1008 1022
f 1039 1040 1019
f 1073 1068 1057
f 1066 1065 1069
f 1050 1032 1053
f 1033 1017 1036
f 1052 1067 1054
f 1067 1066 1070
f 1052 1054 1034
f 1034 1037 1033
f 1033 1036 1032
f 1060 1043 1059
f 1050 1053 1065
f 1038 1055 1056
f 1007 1020 1008
f 1060 1059 1077
f 1011 1012 1008
f 1012 1026 1009
f 1027 1023 1026
f 1027 1047 1023
f 1047 1048 1043
f 1048 1063 1044
f 1079 1076 1063
f 1079 1090 1076
f 1090 1089 1085
f 1088 1083 1089
f 1088 1087 1083
f 1087 1086 1082
f 1078 1072 1086
f 1061 1055 1062
f 1078 1062 1072
f 1045 1038 1061
f 1045 1046 1038
f 1024 1019 1046
f 1025 1020 1024
f 1010 1007 1025
f 1011 1008 1010
f 1084 1085 1075
f 1076 1075 1085
f 1083 1074 1082
f 1008 1007 1021
f 1043 1042 1059
f 1076 1059 1058
f 1076 1058 1075
f 1090 1085 1079
f 1074 1069 1073
f 1059 1042 1058
f 1042 1037 1058
f 1081 1073 1072
f 1041 1042 1021
f 1036 1037 1041
f 1128 1124 1121
f 1124 1123 1121
f 1123 1113 1107
f 1030 1097 1094
f 1028 1094 1095
f 1029 1095 1098
f 1031 1098 1097
f 1117 1139 1136
f 1116 1136 1139
f 1091 1096 1099
f 1092 1099 1098
f 1092 1098 1095
f 1091 1095 1096
f 1098 1117 1115
f 1095 1115 1116
f 1096 1116 1118
f 1099 1118 1117
f 1031 1092 1091
f 1029 1091 1092
f 1016 1031 1029
f 1014 1029 1031
f 1015 1016 1014
f 1121 1108 1120
f 1120 1107 1119
f 1005 1015 1013
f 1128 1120 1127
f 1119 1106 1118
f 1128 1127 1130
f 1127 1119 1122
f 1119 1118 1112
f 1003 1013 1014
f 1118 1106 1112
f 1004 1014 1016
f 1131 1130 1123
f 1130 1122 1123
f 1006 1016 1015
f 1001 1005 1003
f 1006 1002 1000
f 1131 1128 1121
f 1131 1128 1129
f 1000 999 1003
f 1006 1005 1001
f 1002 1001 999
f 1132 1129 1128
f 1134 1137 1142
f 1133 1135 1115
f 1114 1115 1103
f 1102 1103 1137
f 1142 1141 1143
f 1140 1138 1117
f 1144 1143 1138
f 1137 1135 1141
f 1128 1125 1126
f 1103 1115 1135
f 1142 1144 1143
f 1140 1109 1117
f 1144 1140 1138
f 1134 1142 1141
f 1129 1126 1125
f 1102 1134 1133
f 1097 1094 1095
f 1128 1131 1124
f 1098 1095 1094
f 1100 1097 1098
f 1123 1122 1113
f 1101 1098 1105
f 1101 1111 1110
f 1111 1105 1104
f 1104 1105 1098
f 1101 1110 1100
f 1110 1104 1097
f 1097 1104 1098
f 1131 1124 1121
f 1111 1101 1098
f 1113 1112 1107
f 1121 1123 1108
f 1108 1123 1107
f 1028 1030 1094
f 1029 1028 1095
f 1031 1029 1098
f 1030 1031 1097
f 1115 1117 1136
f 1116 1115 1136
f 1118 1116 1139
f 1117 1118 1139
f 1092 1091 1099
f 1091 1092 1095
f 1095 1098 1115
f 1096 1095 1116
f 1099 1096 1118
f 1098 1099 1117
f 1029 1031 1091
f 1031 1029 1092
f 1014 1016 1029
f 1016 1014 1031
f 1013 1015 1014
f 1120 1108 1107
f 1128 1121 1120
f 1119 1107 1106
f 1003 1005 1013
f 1127 1120 1119
f 1131 1128 1130
f 1130 1127 1122
f 1122 1119 1112
f 1004 1003 1014
f 1006 1004 1016
f 1005 1006 1015
f 999 1001 1003
f 1004 1006 1000
f 1132 1131 1129
f 1004 1000 1003
f 1002 1006 1001
f 1000 1002 999
f 1131 1132 1128
f 1133 1141 1135
f 1114 1133 1115
f 1102 1114 1103
f 1134 1102 1137
f 1142 1137 1141
f 1129 1128 1126
f 1137 1103 1135
f 1133 1134 1141
f 1128 1129 1125
f 1114 1102 1133
f 1098 1097 1095
f 1097 1098 1094
f 1101 1100 1098
f 1113 1122 1112
f 1124 1131 1123
f 1111 1101 1105
f 1110 1111 1104
f 1100 1110 1097
f 1105 1111 1098
f 1107 1112 1106
v -0.29900 -0.15958 -0.13667
v -0.31061 -0.16186 -0.08303
v -0.32050 -0.16166 0.00103
v -0.31030 -0.16184 0.08467
v -0.29817 -0.15958 0.13858
v -0.30371 -0.09006 -0.07122
v -0.30885 -0.09174 0.00439
v -0.30400 -0.08835 0.07593
v -0.22704 -0.16145 -0.22965
v -0.26844 -0.16174 -0.17298
v -0.29186 -0.15983 -0.11424
v -0.28957 -0.16179 0.12310
v -0.26197 -0.16150 0.18325
v -0.22274 -0.16149 0.23586
v -0.22092 -0.08991 -0.22197
v -0.25347 -0.08790 -0.16856
v -0.28311 -0.08433 -0.09387
v -0.28777 -0.07290 0.00660
v -0.28165 -0.08616 0.10477
v -0.24724 -0.08832 0.17874
v -0.21753 -0.08556 0.22976
v -0.22321 0.03043 -0.14855
v -0.23911 0.01807 -0.07604
v -0.24443 0.01313 0.00324
v -0.23780 0.01994 0.08501
v -0.22311 0.03311 0.15658
v -0.23362 0.04950 -0.16188
v -0.27225 0.04950 -0.08175
v -0.28400 0.04950 0.00650
v -0.26812 0.04950 0.09400
v -0.22943 0.04950 0.16786
v -0.12658 -0.15958 -0.30333
v -0.16740 -0.16214 -0.27229
v -0.16556 -0.16171 0.27410
v -0.16545 -0.08764 -0.25586
v -0.20000 -0.07121 -0.20586
v -0.19633 -0.07297 0.21280
v -0.16435 -0.08846 0.25763
v -0.14826 0.03107 -0.22462
v -0.16657 0.00982 -0.17029
v -0.16582 -0.00559 -0.08401
v -0.15719 -0.00486 0.00659
v -0.17094 -0.00425 0.09680
v -0.16273 0.01314 0.18032
v -0.14487 0.03072 0.23004
v -0.15857 0.04950 -0.23586
v -0.19800 0.04950 -0.20500
v -0.19300 0.04950 0.21033
v -0.15283 0.04950 0.24050
v -0.07163 -0.16187 -0.31370
v -0.10453 -0.15853 -0.29534
v -0.09059 -0.16178 0.30265
v -0.06283 -0.16179 0.31863
v -0.06028 -0.08877 -0.30739
v -0.08521 -0.08676 -0.28721
v -0.07980 -0.08803 0.29263
v -0.04800 -0.08470 0.31420
v -0.07488 0.01886 -0.24076
v -0.07794 -0.00562 -0.17171
v -0.10671 -0.00419 -0.11319
v -0.09914 -0.00437 0.11948
v -0.07506 -0.00484 0.18645
v -0.07591 0.02321 0.24577
v -0.07756 0.04950 -0.27289
v -0.08175 0.04950 0.27238
v 0.01177 -0.16166 -0.32037
v 0.02706 -0.14425 0.30912
v 0.01258 -0.16305 0.32144
v 0.01076 -0.09191 -0.30998
v 0.01236 -0.07507 -0.29027
v 0.01223 -0.08823 0.29864
v 0.01144 -0.08503 0.31586
v 0.00489 0.01407 -0.24547
v 0.01267 -0.00503 -0.16094
v 0.01098 -0.00604 0.18007
v 0.00391 0.01930 0.25272
v 0.01057 0.04950 -0.28429
v 0.00662 0.04950 0.28438
v 0.08742 -0.16163 -0.31107
v 0.11925 -0.16137 -0.29375
v 0.10885 -0.16225 0.29943
v 0.08054 -0.16034 0.31666
v 0.07562 -0.08647 -0.30676
v 0.10266 -0.08754 -0.28366
v 0.09962 -0.08740 0.28725
v 0.06300 -0.08417 0.31183
v 0.08782 0.02214 -0.23955
v 0.10019 -0.00344 -0.17677
v 0.11896 -0.00450 -0.09918
v 0.11204 -0.00450 0.10663
v 0.10084 -0.00057 0.19126
v 0.08561 0.02507 0.24460
v 0.09778 0.04950 -0.26667
v 0.09922 0.04950 0.26644
v 0.18550 -0.16191 -0.26060
v 0.22767 -0.13783 -0.21133
v 0.22233 -0.16094 0.22100
v 0.18519 -0.16184 0.26138
v 0.18148 -0.08831 -0.24673
v 0.21624 -0.08035 -0.19947
v 0.21268 -0.08425 0.20743
v 0.17817 -0.08820 0.25041
v 0.15779 0.03452 -0.22484
v 0.18595 0.01649 -0.16246
v 0.19552 -0.00258 -0.07968
v 0.18264 -0.00578 0.00585
v 0.19831 0.00082 0.09574
v 0.18193 0.01910 0.17216
v 0.15189 0.03198 0.22856
v 0.16700 0.04950 -0.23100
v 0.20880 0.04950 -0.19380
v 0.20600 0.04950 0.19683
v 0.16375 0.04950 0.23375
v 0.23869 -0.16158 -0.22188
v 0.27190 -0.16170 -0.16937
v 0.30434 -0.16269 -0.09206
v 0.31220 -0.16149 0.00722
v 0.30228 -0.16227 0.10165
v 0.26492 -0.16159 0.18076
v 0.23280 -0.15903 0.23153
v 0.23257 -0.08493 -0.21643
v 0.25796 -0.08868 -0.16534
v 0.29268 -0.08708 -0.08466
v 0.30163 -0.08842 0.00674
v 0.28955 -0.08703 0.09490
v 0.25451 -0.08863 0.17206
v 0.23877 0.02212 -0.14592
v 0.24995 0.02714 -0.07900
v 0.25407 0.02039 0.00090
v 0.25007 0.02774 0.08084
v 0.23789 0.01994 0.15067
v 0.24280 0.04950 -0.14940
v 0.27213 0.04950 -0.08300
v 0.28438 0.04950 0.00487
v 0.26900 0.04950 0.09262
v 0.24100 0.04950 0.15325
v 0.32163 -0.15969 -0.06141
v 0.32440 -0.16209 0.00470
v 0.32115 -0.15961 0.06716
v 0.31745 -0.08400 -0.00073
usemtl m002
f 1194 1176 1177
f 1165 1182 1164
f 1216 1215 1200
f 1154 1155 1146
f 1262 1261 1283
f 1282 1260 1281
f 1265 1244 1266
f 1230 1229 1216
f 1262 1261 1282
f 1261 1260 1281
f 1220 1219 1235
f 1203 1217 1218
f 1217 1203 1202
f 1192 1188 1170
f 1280 1275 1252
f 1256 1252 1253
f 1277 1272 1273
f 1278 1273 1274
f 1279 1274 1275
f 1257 1253 1236
f 1221 1217 1231
f 1252 1235 1234
f 1252 1234 1251
f 1184 1204 1185
f 1254 1247 1248
f 1276 1271 1272
f 1190 1183 1202
f 1193 1189 1207
f 1248 1254 1255
f 1252 1280 1256
f 1252 1251 1274
f 1253 1257 1238
f 1171 1166 1167
f 1274 1251 1273
f 1255 1276 1248
f 1207 1206 1219
f 1248 1249 1232
f 1273 1250 1249
f 1188 1187 1206
f 1231 1232 1217
f 1272 1276 1277
f 1169 1174 1173
f 1212 1226 1225
f 1282 1281 1261
f 1271 1272 1249
f 1188 1192 1175
f 1169 1175 1174
f 1274 1278 1279
f 1148 1156 1149
f 1167 1172 1171
f 1273 1277 1278
f 1168 1173 1172
f 1190 1183 1184
f 1183 1202 1203
f 1184 1183 1203
f 1274 1279 1280
f 1184 1171 1191
f 1283 1282 1261
f 1220 1222 1209
f 1217 1202 1208
f 1236 1238 1222
f 1220 1236 1222
f 1202 1190 1208
f 1206 1207 1189
f 1188 1193 1192
f 1217 1221 1237
f 1207 1209 1193
f 1183 1179 1199
f 1184 1180 1179
f 1191 1184 1183
f 1166 1160 1180
f 1171 1166 1184
f 1167 1161 1160
f 1172 1167 1166
f 1168 1162 1161
f 1173 1168 1167
f 1169 1163 1162
f 1174 1169 1168
f 1271 1266 1267
f 1247 1243 1244
f 1214 1213 1228
f 1199 1198 1213
f 1160 1159 1179
f 1162 1151 1150
f 1163 1152 1151
f 1181 1182 1164
f 1180 1160 1179
f 1148 1157 1149
f 1156 1157 1148
f 1220 1215 1200
f 1222 1220 1207
f 1217 1214 1228
f 1236 1229 1215
f 1238 1236 1220
f 1202 1199 1214
f 1253 1246 1229
f 1274 1269 1270
f 1273 1268 1269
f 1272 1267 1268
f 1170 1164 1163
f 1175 1170 1169
f 1248 1244 1266
f 1255 1248 1271
f 1189 1182 1181
f 1193 1189 1188
f 1252 1245 1246
f 1275 1270 1245
f 1188 1181 1164
f 1231 1228 1243
f 1237 1231 1247
f 1207 1200 1182
f 1209 1207 1189
f 1240 1258 1259
f 1211 1212 1196
f 1215 1211 1196
f 1228 1227 1223
f 1213 1210 1223
f 1215 1229 1225
f 1213 1198 1194
f 1246 1242 1225
f 1199 1179 1177
f 1245 1241 1242
f 1179 1159 1153
f 1159 1160 1154
f 1270 1269 1262
f 1161 1155 1154
f 1268 1261 1262
f 1150 1151 1147
f 1267 1260 1261
f 1151 1148 1147
f 1151 1152 1148
f 1267 1266 1259
f 1164 1157 1156
f 1228 1223 1224
f 1161 1150 1146
f 1152 1163 1148
f 1163 1156 1148
f 1215 1212 1211
f 1266 1244 1240
f 1243 1239 1240
f 1164 1182 1158
f 1182 1178 1158
f 1228 1224 1239
f 1200 1196 1178
f 1154 1145 1146
f 1262 1283 1282
f 1156 1149 1157
f 1195 1194 1177
f 1216 1229 1215
f 1246 1270 1245
f 1197 1196 1212
f 1258 1240 1239
f 1236 1220 1235
f 1227 1228 1213
f 1175 1192 1170
f 1257 1256 1253
f 1280 1279 1275
f 1238 1257 1236
f 1184 1203 1204
f 1237 1221 1231
f 1244 1243 1266
f 1220 1209 1207
f 1273 1251 1250
f 1185 1166 1184
f 1168 1167 1186
f 1275 1252 1274
f 1236 1253 1238
f 1252 1257 1253
f 1168 1172 1167
f 1271 1248 1276
f 1169 1173 1168
f 1187 1168 1186
f 1169 1168 1187
f 1220 1207 1219
f 1272 1273 1249
f 1232 1249 1233
f 1167 1185 1186
f 1206 1187 1205
f 1217 1232 1218
f 1284 1267 1268
f 1265 1243 1244
f 1201 1216 1200
f 1211 1212 1225
f 1241 1242 1263
f 1264 1263 1242
f 1248 1271 1249
f 1170 1188 1175
f 1258 1239 1259
f 1261 1260 1282
f 1256 1257 1252
f 1191 1190 1184
f 1275 1274 1280
f 1167 1166 1185
f 1208 1221 1217
f 1237 1254 1247
f 1188 1206 1189
f 1231 1217 1237
f 1266 1243 1265
f 1202 1183 1199
f 1183 1184 1179
f 1190 1191 1183
f 1184 1166 1180
f 1166 1167 1160
f 1171 1172 1166
f 1167 1168 1161
f 1172 1173 1167
f 1168 1169 1162
f 1173 1174 1168
f 1272 1271 1267
f 1248 1247 1244
f 1214 1199 1213
f 1161 1162 1150
f 1162 1163 1151
f 1207 1220 1200
f 1209 1222 1207
f 1231 1217 1228
f 1220 1236 1215
f 1222 1238 1220
f 1217 1202 1214
f 1236 1253 1229
f 1275 1274 1270
f 1274 1273 1269
f 1273 1272 1268
f 1169 1170 1163
f 1271 1248 1266
f 1276 1255 1271
f 1188 1189 1181
f 1253 1252 1246
f 1252 1275 1245
f 1170 1188 1164
f 1247 1231 1243
f 1189 1207 1182
f 1193 1209 1189
f 1200 1215 1196
f 1227 1213 1223
f 1211 1215 1225
f 1210 1213 1194
f 1198 1199 1194
f 1229 1246 1225
f 1195 1199 1177
f 1241 1245 1263
f 1245 1270 1263
f 1246 1245 1242
f 1177 1179 1153
f 1153 1159 1154
f 1263 1270 1262
f 1160 1161 1154
f 1269 1268 1262
f 1146 1150 1147
f 1268 1267 1261
f 1260 1267 1259
f 1163 1164 1156
f 1194 1199 1195
f 1155 1161 1146
f 1259 1266 1240
f 1244 1243 1240
f 1157 1164 1158
f 1243 1228 1239
f 1182 1200 1178
v -0.49550 0.41350 0.29825
v -0.46735 0.35300 -0.01510
v -0.47133 0.34983 0.29900
v -0.45171 0.39621 -0.08057
v -0.47553 0.40791 -0.01829
v -0.49100 0.41350 0.29960
v -0.44950 0.44325 -0.08050
v -0.46390 0.47079 -0.01633
v -0.47443 0.47036 0.29921
v -0.46050 0.49700 0.29825
v -0.39942 0.30550 -0.01537
v -0.39900 0.30150 0.29900
v -0.40518 0.34468 -0.08045
v -0.40340 0.34050 -0.02270
v -0.37700 0.41350 -0.08200
v -0.37700 0.41350 -0.01000
v -0.37700 0.41350 0.29850
v -0.40810 0.48080 -0.08040
v -0.40650 0.48490 -0.02270
v -0.39625 0.52040 -0.01535
v -0.39900 0.52500 0.29900
v -0.33380 0.30960 -0.01510
v -0.33222 0.30594 0.29900
v -0.33571 0.34793 -0.08029
v -0.33233 0.34667 -0.02233
v -0.33171 0.47621 -0.08029
v -0.33429 0.48093 -0.02257
v -0.33388 0.51637 -0.01475
v -0.33222 0.52061 0.29900
v -0.28539 0.35206 -0.01511
v -0.28194 0.34983 0.29900
v -0.30186 0.39621 -0.08057
v -0.27722 0.40817 -0.01772
v -0.26280 0.41350 0.29960
v -0.30425 0.44325 -0.08050
v -0.28977 0.47186 -0.01668
v -0.27893 0.47036 0.29921
v -0.29250 0.49700 0.29825
v -0.20506 -0.04686 0.00025
v -0.20756 -0.01283 -0.00007
v -0.25800 0.41350 0.29825
v -0.15776 -0.04960 -0.11204
v -0.15295 -0.04468 -0.08774
v -0.18255 -0.04926 -0.00004
v -0.15406 -0.04200 0.08656
v -0.15746 -0.04947 0.11116
v -0.16474 -0.01327 -0.11684
v -0.15450 -0.01245 -0.08602
v -0.17750 -0.01316 -0.00004
v -0.15303 -0.01213 0.08538
v -0.16449 -0.01330 0.11491
v -0.08200 -0.04135 -0.18308
v -0.13427 -0.04716 -0.11008
v -0.13438 -0.04723 0.11011
v -0.08200 -0.04135 0.18308
v -0.08319 -0.01235 -0.17895
v -0.13103 -0.01293 -0.11152
v -0.13825 -0.01200 -0.08781
v -0.14000 -0.01050 0.08700
v -0.13128 -0.01294 0.11092
v -0.08323 -0.01215 0.17956
v -0.05773 -0.04885 -0.17841
v -0.05770 -0.04880 0.17864
v -0.05504 -0.01317 -0.17852
v -0.05534 -0.01317 0.17874
v -0.05800 -0.01050 0.20600
v -0.05823 0.36885 -0.16931
v -0.05833 0.36867 -0.13700
v -0.05876 0.37257 0.10739
v -0.05921 0.39197 -0.16611
v -0.05825 0.39850 -0.13700
v -0.05875 0.40139 0.11915
v -0.05823 0.45191 -0.16918
v -0.05838 0.45237 -0.13700
v -0.05875 0.44732 0.11000
v 0.03521 -0.04397 -0.17600
v 0.03520 -0.04386 0.17607
v 0.03366 -0.01272 -0.17823
v 0.03382 -0.01252 0.17868
v 0.05903 -0.04889 -0.17863
v 0.05889 -0.04895 0.17886
v 0.06241 -0.01314 -0.17875
v 0.06250 -0.01321 0.17878
v 0.05800 -0.01050 0.20600
v 0.05904 0.36885 -0.16931
v 0.05900 0.36867 -0.13700
v 0.05856 0.37257 0.10739
v 0.05805 0.39197 -0.16611
v 0.05900 0.39850 -0.13700
v 0.05856 0.40139 0.11915
v 0.05908 0.45191 -0.16915
v 0.05900 0.45237 -0.13700
v 0.05856 0.44732 0.11000
v 0.14175 -0.04903 -0.11166
v 0.15066 -0.04500 -0.08774
v 0.15282 -0.04223 0.08645
v 0.14216 -0.04904 0.11099
v 0.13569 -0.01324 -0.11555
v 0.14623 -0.01253 -0.08611
v 0.14798 -0.01201 0.08531
v 0.13606 -0.01324 0.11396
v 0.16514 -0.04873 -0.11125
v 0.15714 -0.04373 -0.08755
v 0.18817 -0.04866 0.00009
v 0.15589 -0.04150 0.08644
v 0.16497 -0.04869 0.11077
v 0.17046 -0.01316 -0.11417
v 0.16072 -0.01244 -0.08648
v 0.18662 -0.01319 0.00001
v 0.15879 -0.01198 0.08576
v 0.17013 -0.01314 0.11298
v 0.21449 -0.01123 -0.00000
v 0.31200 0.45750 -0.09371
v 0.31172 0.46776 -0.06414
v 0.32720 0.47850 -0.01360
v 0.31200 0.50705 -0.09709
v 0.31447 0.50483 -0.07604
v 0.34320 0.47858 -0.06592
v 0.36300 0.47000 0.00744
v 0.37543 0.47193 0.06114
v 0.35600 0.50117 -0.00450
v 0.38500 0.50150 0.05550
v 0.44888 0.35600 0.19600
v 0.42348 0.47682 0.07404
v 0.40371 0.47174 0.09912
v 0.40850 0.50050 0.06750
v 0.41227 0.49977 0.09418
v 0.49550 0.36850 -0.03650
v 0.48927 0.35857 -0.00257
v 0.50000 0.36850 0.02900
v 0.47349 0.35623 0.19038
v 0.47128 0.35884 0.21458
v 0.49623 0.47119 -0.00405
v 0.47225 0.50994 0.19308
v 0.47206 0.50789 0.20856
v 0.52167 0.36850 -0.03767
v 0.52668 0.35738 -0.00318
v 0.51650 0.36850 0.02950
v 0.51879 0.46998 -0.00444
usemtl m003
f 1333 1324 1323
f 1324 1333 1328
f 1336 1346 1348
f 1340 1348 1346
f 1367 1365 1361
f 1362 1360 1364
f 1366 1364 1360
f 1347 1339 1349
f 1349 1345 1339
f 1395 1385 1394
f 1384 1394 1389
f 1390 1389 1395
f 1384 1380 1381
f 1379 1378 1386
f 1389 1390 1381
f 1382 1391 1386
f 1382 1378 1379
f 1391 1387 1386
f 1391 1392 1387
f 1392 1383 1379
f 1332 1331 1342
f 1342 1331 1341
f 1382 1391 1392
f 1383 1382 1392
f 1331 1326 1327
f 1331 1341 1337
f 1331 1326 1337
f 1332 1327 1326
f 1344 1338 1330
f 1335 1330 1329
f 1334 1329 1335
f 1335 1330 1338
f 1328 1333 1323
f 1323 1324 1328
f 1395 1389 1394
f 1340 1336 1348
f 1336 1340 1346
f 1363 1367 1361
f 1366 1362 1364
f 1362 1366 1360
f 1394 1385 1384
f 1380 1384 1389
f 1385 1384 1381
f 1390 1395 1381
f 1395 1385 1381
f 1387 1379 1386
f 1380 1389 1381
f 1378 1382 1386
f 1383 1382 1379
f 1387 1392 1379
f 1332 1331 1327
f 1331 1332 1326
f 1335 1344 1330
f 1344 1335 1338
f 1344 1335 1334
f 1344 1334 1343
f 1303 1304 1311
f 1289 1298 1286
f 1351 1353 1356
f 1354 1356 1353
f 1300 1292 1289
f 1300 1304 1292
f 1300 1312 1304
f 1300 1320 1312
f 1300 1317 1320
f 1300 1314 1317
f 1300 1306 1314
f 1300 1295 1306
f 1300 1286 1295
f 1300 1289 1286
f 1295 1298 1309
f 1314 1309 1317
f 1312 1311 1304
f 1304 1303 1292
f 1311 1310 1302
f 1320 1319 1310
f 1317 1316 1319
f 1309 1308 1316
f 1298 1297 1308
f 1289 1288 1297
f 1292 1291 1288
f 1303 1302 1291
f 1291 1302 1299
f 1288 1291 1299
f 1297 1288 1299
f 1308 1297 1299
f 1316 1308 1299
f 1319 1316 1299
f 1310 1319 1299
f 1302 1310 1299
f 1301 1305 1313
f 1301 1293 1305
f 1301 1290 1293
f 1301 1287 1290
f 1301 1296 1287
f 1301 1307 1296
f 1301 1315 1307
f 1301 1318 1315
f 1301 1321 1318
f 1301 1313 1321
f 1290 1285 1287
f 1318 1325 1321
f 1321 1322 1313
f 1352 1351 1354
f 1355 1354 1351
f 1355 1354 1357
f 1358 1357 1354
f 1373 1372 1375
f 1376 1375 1372
f 1370 1369 1372
f 1373 1372 1369
f 1369 1371 1374
f 1372 1374 1371
f 1411 1406 1404
f 1406 1405 1403
f 1405 1401 1398
f 1409 1404 1408
f 1403 1398 1402
f 1409 1408 1411
f 1408 1403 1405
f 1403 1402 1405
f 1401 1402 1398
f 1415 1407 1416
f 1401 1398 1397
f 1417 1413 1421
f 1421 1420 1412
f 1421 1412 1413
f 1421 1413 1414
f 1421 1414 1422
f 1354 1351 1356
f 1351 1354 1353
f 1295 1286 1298
f 1306 1295 1309
f 1314 1306 1309
f 1312 1320 1311
f 1303 1311 1302
f 1311 1320 1310
f 1320 1317 1319
f 1317 1309 1316
f 1309 1298 1308
f 1298 1289 1297
f 1289 1292 1288
f 1292 1303 1291
f 1293 1305 1294
f 1290 1293 1285
f 1318 1315 1325
f 1355 1352 1354
f 1352 1355 1351
f 1358 1355 1357
f 1355 1358 1354
f 1376 1373 1375
f 1373 1376 1372
f 1373 1370 1372
f 1370 1373 1369
f 1372 1369 1374
f 1369 1372 1371
f 1409 1411 1404
f 1404 1406 1403
f 1403 1405 1399
f 1399 1405 1398
f 1403 1399 1398
f 1408 1404 1403
f 1411 1408 1410
f 1410 1408 1405
f 1405 1402 1401
f 1411 1410 1406
f 1406 1410 1405
f 1400 1401 1397
f 1423 1417 1421
v -0.50000 0.41350 0.01400
v -0.50000 0.41350 0.23900
v -0.49600 0.41350 0.27400
v -0.46908 0.35142 -0.00683
v -0.47700 0.34650 0.23900
v -0.46644 0.35050 0.28700
v -0.48840 0.41350 -0.01100
v -0.48633 0.41350 0.29067
v -0.47070 0.47030 -0.00900
v -0.49000 0.46050 0.23900
v -0.46957 0.47107 0.28800
v -0.46200 0.49850 0.00400
v -0.46400 0.50050 0.23900
v -0.46100 0.49750 0.27400
v -0.39858 0.30425 -0.00683
v -0.40050 0.29500 0.23900
v -0.39830 0.30600 0.28720
v -0.37700 0.41350 -0.01300
v -0.37700 0.41350 0.29200
v -0.39858 0.52200 -0.00683
v -0.40050 0.53150 0.23900
v -0.39611 0.52106 0.28678
v -0.33367 0.30850 -0.00683
v -0.33000 0.29950 0.23900
v -0.33420 0.31030 0.28740
v -0.33350 0.51767 -0.00683
v -0.33000 0.52650 0.23900
v -0.33400 0.51650 0.28650
v -0.28536 0.34959 -0.00636
v -0.27650 0.34650 0.23900
v -0.28711 0.35050 0.28700
v -0.26525 0.41350 -0.01100
v -0.26733 0.41350 0.29067
v -0.28400 0.47172 -0.00878
v -0.26300 0.46050 0.23900
v -0.28457 0.47093 0.28829
v -0.29200 0.49850 0.00400
v -0.29000 0.50050 0.23900
v -0.29200 0.49750 0.27400
v -0.25400 0.41350 0.01400
v -0.25400 0.41350 0.23900
v -0.25700 0.41350 0.27400
v -0.05750 0.36758 -0.11950
v -0.06063 0.35339 -0.04679
v -0.05695 0.35350 -0.02835
v -0.06062 0.39572 -0.04923
v -0.05575 0.39777 -0.02819
v -0.05750 0.45642 -0.11950
v -0.05881 0.45656 -0.04763
v -0.05526 0.45545 -0.02807
v 0.05965 0.36758 -0.11950
v 0.06543 0.35345 -0.04752
v 0.06582 0.35368 -0.02782
v 0.06529 0.38979 -0.05077
v 0.06322 0.40028 -0.02800
v 0.05965 0.45642 -0.11950
v 0.06588 0.45174 -0.04832
v 0.06424 0.45388 -0.02800
v 0.09900 0.35350 -0.04470
v 0.10343 0.35364 -0.02743
v 0.09916 0.39639 -0.04737
v 0.10373 0.39657 -0.02693
v 0.09841 0.45738 -0.04824
v 0.10357 0.45936 -0.02721
v 0.44000 0.37270 0.18533
v 0.44150 0.37270 0.21150
v 0.44100 0.45100 0.18533
v 0.44250 0.45100 0.21200
v 0.48500 0.37050 -0.04900
v 0.49467 0.37150 -0.00489
v 0.48500 0.37050 0.04100
v 0.48133 0.37289 0.17620
v 0.48003 0.37280 0.22185
v 0.48500 0.37850 -0.04900
v 0.49467 0.41250 -0.00489
v 0.48500 0.37850 0.04100
v 0.48500 0.45000 -0.04900
v 0.49467 0.45350 -0.00489
v 0.48500 0.45000 0.04100
v 0.47757 0.44521 0.17896
v 0.47984 0.44745 0.22126
v 0.53800 0.37050 -0.04900
v 0.52367 0.37150 -0.00492
v 0.53800 0.37050 0.04100
v 0.53800 0.37850 -0.04900
v 0.52482 0.41250 -0.00491
v 0.53800 0.37850 0.04100
v 0.53700 0.45000 -0.04900
v 0.52367 0.45350 -0.00492
v 0.53700 0.45000 0.04100
v 0.50900 0.45100 0.19600
usemtl m009
f 1504 1496 1495
f 1503 1495 1496
f 1495 1488 1489
f 1495 1489 1496
f 1491 1490 1503
f 1503 1504 1514
f 1504 1491 1503
f 1512 1509 1498
f 1509 1506 1493
f 1501 1498 1509
f 1498 1493 1506
f 1497 1508 1505
f 1510 1499 1494
f 1494 1492 1505
f 1507 1505 1508
f 1510 1508 1497
f 1499 1497 1492
f 1502 1500 1511
f 1513 1511 1500
f 1477 1484 1475
f 1472 1480 1477
f 1478 1477 1475
f 1470 1469 1467
f 1468 1467 1470
f 1476 1475 1477
f 1483 1482 1484
f 1473 1470 1481
f 1473 1481 1480
f 1475 1476 1468
f 1482 1483 1476
f 1481 1478 1485
f 1472 1470 1473
f 1473 1472 1469
f 1484 1486 1487
f 1482 1475 1484
f 1478 1481 1470
f 1478 1470 1468
f 1485 1478 1476
f 1469 1477 1475
f 1441 1452 1446
f 1441 1446 1438
f 1441 1438 1427
f 1441 1427 1430
f 1441 1430 1432
f 1441 1432 1443
f 1441 1443 1449
f 1441 1449 1457
f 1441 1457 1455
f 1441 1455 1452
f 1432 1435 1443
f 1455 1463 1452
f 1430 1424 1432
f 1443 1444 1450
f 1435 1436 1444
f 1432 1433 1436
f 1424 1425 1433
f 1427 1428 1425
f 1438 1439 1428
f 1446 1447 1439
f 1452 1453 1447
f 1463 1464 1453
f 1457 1458 1464
f 1460 1461 1458
f 1449 1450 1461
f 1450 1451 1462
f 1461 1462 1459
f 1458 1459 1465
f 1464 1465 1454
f 1453 1454 1448
f 1447 1448 1440
f 1439 1440 1429
f 1428 1429 1426
f 1425 1426 1434
f 1433 1434 1437
f 1436 1437 1445
f 1444 1445 1451
f 1437 1434 1445
f 1426 1431 1434
f 1465 1456 1454
f 1442 1440 1448
f 1442 1448 1454
f 1442 1429 1440
f 1442 1454 1456
f 1442 1431 1429
f 1442 1456 1459
f 1442 1434 1431
f 1442 1459 1451
f 1442 1445 1434
f 1442 1451 1445
f 1503 1504 1495
f 1504 1503 1496
f 1501 1512 1498
f 1498 1509 1493
f 1512 1501 1509
f 1509 1498 1506
f 1492 1497 1505
f 1507 1510 1494
f 1507 1494 1505
f 1510 1507 1508
f 1499 1510 1497
f 1494 1499 1492
f 1513 1502 1511
f 1502 1513 1500
f 1476 1478 1475
f 1478 1481 1480
f 1478 1476 1477
f 1485 1483 1484
f 1486 1480 1481
f 1486 1481 1487
f 1472 1473 1480
f 1467 1475 1468
f 1475 1482 1476
f 1487 1481 1485
f 1486 1484 1477
f 1480 1486 1477
f 1470 1473 1469
f 1485 1484 1487
f 1469 1472 1477
f 1476 1478 1468
f 1483 1485 1476
f 1467 1469 1475
f 1457 1449 1460
f 1455 1457 1463
f 1430 1427 1424
f 1449 1443 1450
f 1443 1435 1444
f 1435 1432 1436
f 1432 1424 1433
f 1424 1427 1425
f 1427 1438 1428
f 1438 1446 1439
f 1446 1452 1447
f 1452 1463 1453
f 1463 1457 1464
f 1457 1460 1458
f 1460 1449 1461
f 1461 1450 1462
f 1458 1461 1459
f 1464 1458 1465
f 1453 1464 1454
f 1447 1453 1448
f 1439 1447 1440
f 1428 1439 1429
f 1425 1428 1426
f 1433 1425 1434
f 1436 1433 1437
f 1444 1436 1445
f 1450 1444 1451
f 1426 1429 1431
f 1465 1459 1456
f 1462 1451 1459
