# daf_wheel_rl.obj - ISO 8855 (x ileri, y sol, z yukari), metre
mtllib daf.mtl
o daf_wheel_rl
v -0.29660 0.06565 -0.04430
v -0.29710 0.05867 0.05903
v -0.29600 0.22250 -0.01200
v -0.29550 0.22250 0.02250
v -0.31274 0.30499 -0.05473
v -0.31192 0.30544 0.06706
v -0.15550 -0.02200 0.00050
v -0.18796 0.05893 -0.17091
v -0.19363 0.04598 -0.05126
v -0.19182 0.04526 0.07430
v -0.19475 0.07308 0.19954
v -0.20731 0.20949 -0.18409
v -0.26636 0.20725 -0.06396
v -0.26224 0.20764 0.08154
v -0.19961 0.20956 0.19411
v -0.16883 0.30500 -0.27739
v -0.23465 0.30339 -0.20603
v -0.28588 0.29494 -0.09575
v -0.28350 0.29878 0.11361
v -0.22464 0.30308 0.21834
v -0.05350 -0.02200 -0.14450
v -0.13058 -0.02200 -0.07325
v -0.11412 -0.02200 0.09000
v -0.03050 -0.02200 0.15250
v -0.05387 0.07597 -0.28519
v -0.07030 0.04314 -0.18375
v -0.13832 0.04345 -0.10617
v -0.13873 0.04157 0.11257
v -0.06387 0.04488 0.19065
v -0.03753 0.07035 0.29492
v -0.05850 0.21504 -0.28194
v -0.10037 0.20460 -0.24977
v -0.08979 0.20670 0.25832
v -0.04206 0.21900 0.29172
v -0.08256 0.30380 -0.30373
v -0.14230 0.28540 -0.26070
v -0.12479 0.29636 0.27636
v -0.07899 0.30446 0.30722
v 0.03572 -0.02200 -0.14794
v 0.10500 -0.02200 -0.11350
v 0.08500 -0.02200 0.12700
v 0.01230 -0.02200 0.15390
v 0.04297 0.07718 -0.28721
v 0.05876 0.04296 -0.18606
v 0.11896 0.01379 -0.11217
v 0.10624 0.01310 0.11953
v 0.05879 0.04452 0.18974
v 0.02483 0.07239 0.29630
v 0.04800 0.21476 -0.28274
v 0.06844 0.20167 -0.25558
v 0.06380 0.20567 0.26427
v 0.02804 0.21838 0.29258
v 0.05677 0.30331 -0.30834
v 0.10183 0.28567 0.27950
v 0.05163 0.30469 0.31137
v 0.14472 -0.02200 -0.04717
v 0.14337 -0.02200 0.05300
v 0.16869 0.05183 -0.17222
v 0.17468 0.04388 -0.06505
v 0.16947 0.04279 0.08753
v 0.17747 0.06588 0.20911
v 0.19018 0.20898 -0.19908
v 0.25022 0.20176 -0.09294
v 0.24688 0.20176 0.09991
v 0.18594 0.20946 0.20532
v 0.14887 0.30500 -0.28776
v 0.21250 0.30195 -0.22708
v 0.20387 0.30284 0.23572
v 0.13600 0.30186 0.29793
v 0.26410 0.08600 -0.13350
v 0.28104 0.07699 -0.05946
v 0.28033 0.07378 0.07438
v 0.26383 0.21933 -0.13317
v 0.27762 0.21135 -0.04381
v 0.27692 0.21368 0.06503
v 0.27653 0.30447 -0.16153
v 0.30838 0.30320 -0.06011
v 0.30315 0.30331 0.08101
v 0.27615 0.30450 0.17054
usemtl m032
f 69 55 68
f 20 19 6
f 69 68 54
f 16 17 36
f 79 78 68
f 5 18 17
f 66 53 67
f 38 37 20
f 68 65 51
f 36 32 31
f 6 4 3
f 38 34 33
f 55 52 34
f 54 51 52
f 77 74 75
f 35 31 49
f 17 12 32
f 78 75 65
f 18 13 12
f 5 3 13
f 19 14 4
f 76 73 74
f 67 62 73
f 20 15 14
f 53 49 62
f 37 33 15
f 4 14 13
f 75 64 65
f 73 63 74
f 49 50 62
f 52 51 33
f 31 32 50
f 65 61 47
f 14 10 9
f 15 11 10
f 33 29 11
f 51 47 29
f 64 60 61
f 74 71 60
f 32 26 44
f 12 8 26
f 13 9 8
f 63 59 71
f 62 58 59
f 50 44 58
f 26 25 43
f 47 48 29
f 59 58 71
f 44 43 58
f 10 2 1
f 60 72 61
f 58 70 71
f 71 59 60
f 47 61 46
f 10 28 9
f 26 21 39
f 46 41 42
f 29 24 23
f 47 42 24
f 27 22 21
f 60 57 41
f 9 7 22
f 59 56 57
f 28 23 7
f 45 40 56
f 44 39 40
f 27 8 9
f 16 35 17
f 35 16 36
f 55 69 54
f 54 68 51
f 35 36 31
f 5 6 3
f 37 38 33
f 38 55 34
f 55 54 52
f 78 77 75
f 53 35 49
f 36 17 32
f 68 78 65
f 17 18 12
f 18 5 13
f 6 19 4
f 77 76 74
f 76 67 73
f 19 20 14
f 67 53 62
f 20 37 15
f 3 4 13
f 73 62 63
f 34 52 33
f 49 31 50
f 75 74 64
f 51 65 47
f 13 14 9
f 14 15 10
f 15 33 11
f 33 51 29
f 65 64 61
f 64 74 60
f 50 32 44
f 32 12 26
f 12 13 8
f 74 63 71
f 63 62 59
f 62 50 58
f 60 71 72
f 44 26 43
f 29 48 30
f 9 10 1
f 26 8 27
f 46 61 60
f 10 11 28
f 11 29 28
f 59 58 45
f 45 58 44
f 44 26 39
f 47 46 42
f 28 29 23
f 29 47 24
f 26 27 21
f 46 60 41
f 27 9 22
f 60 59 57
f 9 28 7
f 59 45 56
f 45 44 40
v -0.51630 -0.25590 -0.17680
v -0.53277 -0.27669 -0.09586
v -0.53755 -0.27925 0.02732
v -0.52641 -0.27118 0.13739
v -0.51525 -0.12650 -0.17962
v -0.53468 -0.13598 -0.10191
v -0.54264 -0.13602 0.02511
v -0.52655 -0.13193 0.13967
v -0.52050 -0.05950 -0.16550
v -0.53100 -0.06061 -0.09157
v -0.53337 -0.06090 0.02863
v -0.52650 -0.06018 0.13393
v -0.51630 0.11410 -0.17680
v -0.53277 0.09303 -0.09586
v -0.53755 0.09044 0.02732
v -0.52641 0.09860 0.13739
v -0.51525 0.24262 -0.17962
v -0.53371 0.23989 -0.09968
v -0.54044 0.24268 0.02568
v -0.52643 0.24019 0.13836
v -0.52050 0.30950 -0.16550
v -0.53179 0.30969 -0.09317
v -0.53454 0.30957 0.02852
v -0.52669 0.30985 0.13565
v -0.40550 -0.33660 -0.20110
v -0.43972 -0.33700 -0.09328
v -0.45017 -0.33700 0.02400
v -0.42750 -0.33700 0.13917
v -0.39550 -0.33600 0.22800
v -0.42158 -0.27781 -0.32911
v -0.47261 -0.27697 -0.23289
v -0.49655 -0.28481 -0.11036
v -0.50564 -0.27240 0.02861
v -0.48908 -0.28599 0.16411
v -0.44943 -0.27603 0.27851
v -0.40327 -0.27467 0.36457
v -0.42129 -0.13689 -0.33420
v -0.47294 -0.14285 -0.23553
v -0.49770 -0.14967 -0.10500
v -0.50737 -0.14824 0.02711
v -0.48926 -0.14802 0.16697
v -0.45135 -0.14005 0.27911
v -0.40073 -0.13527 0.36992
v -0.42123 -0.05852 -0.32405
v -0.46231 -0.04704 -0.22756
v -0.48123 -0.03320 -0.10711
v -0.48733 -0.02761 0.02791
v -0.47529 -0.03845 0.15700
v -0.44358 -0.05275 0.27511
v -0.40555 -0.06071 0.35964
v -0.42171 0.09227 -0.32941
v -0.47462 0.09492 -0.23306
v -0.49931 0.08996 -0.11155
v -0.50815 0.10375 0.02893
v -0.49164 0.08732 0.16537
v -0.45045 0.09485 0.27910
v -0.40327 0.09509 0.36457
v -0.42054 0.23934 -0.33376
v -0.47353 0.23350 -0.23440
v -0.49810 0.22549 -0.10722
v -0.50737 0.22100 0.02711
v -0.49054 0.23020 0.16635
v -0.45103 0.23627 0.27897
v -0.40057 0.23871 0.36914
v -0.42243 0.31004 -0.32386
v -0.46652 0.31310 -0.22944
v -0.48740 0.31693 -0.10868
v -0.49441 0.31882 0.02897
v -0.48062 0.31542 0.15958
v -0.44585 0.31152 0.27684
v -0.40629 0.30942 0.35971
v -0.30094 -0.33700 -0.33372
v -0.34293 -0.33686 -0.24064
v -0.36550 -0.33600 -0.09750
v -0.37717 -0.33600 0.04017
v -0.34683 -0.33600 0.15450
v -0.33200 -0.33700 0.28433
v -0.26517 -0.33700 0.36550
v -0.30217 -0.27428 -0.44574
v -0.34947 -0.28100 -0.38290
v -0.27675 -0.31768 -0.18454
v -0.30814 -0.31669 -0.10299
v -0.32399 -0.31673 0.02510
v -0.28964 -0.31679 0.14791
v -0.37450 -0.28320 0.32850
v -0.32483 -0.27921 0.41499
v -0.27100 -0.23600 0.47500
v -0.30495 -0.13752 -0.44554
v -0.35008 -0.14538 -0.38287
v -0.38183 -0.15933 0.33717
v -0.32339 -0.14176 0.41806
v -0.27100 -0.13300 0.47500
v -0.29782 -0.06083 -0.44546
v -0.33797 -0.03846 -0.37189
v -0.32724 0.00230 -0.22720
v -0.33137 0.00143 -0.10311
v -0.34276 0.00143 0.02537
v -0.30885 0.00143 0.15180
v -0.34279 -0.00274 0.29459
v -0.32166 -0.05180 0.40787
v -0.30253 0.09506 -0.44557
v -0.35147 0.09228 -0.38472
v -0.27195 0.05295 -0.18150
v -0.30844 0.05326 -0.10141
v -0.32380 0.05331 0.02513
v -0.28957 0.05327 0.14737
v -0.37950 0.11617 0.33800
v -0.32543 0.09196 0.41615
v -0.27100 0.13400 0.47500
v -0.30392 0.23850 -0.44518
v -0.35066 0.22951 -0.38317
v -0.38183 0.21000 0.33717
v -0.32258 0.23513 0.41851
v -0.27100 0.23600 0.47500
v -0.29924 0.30960 -0.44560
v -0.34254 0.31543 -0.37670
v -0.29244 0.32297 -0.19869
v -0.31293 0.31888 -0.10130
v -0.32732 0.31868 0.02544
v -0.29315 0.31866 0.14822
v -0.34461 0.33300 0.29706
v -0.32486 0.31170 0.40913
v -0.13950 -0.33700 -0.42883
v -0.19950 -0.33667 -0.37706
v -0.25450 -0.33600 -0.28250
v -0.22283 -0.33600 0.30750
v -0.18000 -0.33690 0.40500
v -0.19920 -0.27873 -0.48695
v -0.16525 -0.32167 -0.31492
v -0.20770 -0.31654 -0.24893
v -0.24765 -0.31631 0.21265
v -0.19126 -0.31717 0.26367
v -0.22452 -0.28578 0.45385
v -0.19001 -0.27631 0.49971
v -0.19984 -0.13988 -0.48905
v -0.22520 -0.14709 0.45750
v -0.19035 -0.13743 0.50171
v -0.19507 -0.04987 -0.47956
v -0.19683 0.00222 -0.36854
v -0.22032 0.00176 -0.25426
v -0.24500 -0.00300 0.21500
v -0.20212 0.00375 0.27883
v -0.20554 -0.02123 0.43345
v -0.18924 -0.05879 0.49680
v -0.19975 0.09280 -0.48835
v -0.14950 0.05188 -0.29300
v -0.20803 0.05346 -0.24841
v -0.24783 0.05325 0.21300
v -0.19143 0.05309 0.26312
v -0.22926 0.09282 0.45721
v -0.19024 0.09370 0.49986
v -0.19948 0.23584 -0.48899
v -0.22520 0.22217 0.45750
v -0.19057 0.23792 0.50089
v -0.19741 0.31217 -0.48228
v -0.17855 0.32805 -0.33936
v -0.21025 0.31777 -0.24897
v -0.24804 0.31723 0.21312
v -0.19379 0.31894 0.26587
v -0.21281 0.32144 0.43983
v -0.18930 0.31007 0.49758
v -0.07050 -0.33700 -0.44483
v -0.07883 -0.33600 -0.37117
v -0.07328 -0.33667 0.42083
v -0.07048 -0.27636 -0.52395
v -0.07664 -0.31669 -0.31565
v -0.07589 -0.31683 0.31653
v -0.09950 -0.33050 0.46750
v -0.07143 -0.27579 0.52416
v -0.07040 -0.14164 -0.52604
v -0.06937 -0.14245 0.52561
v -0.07176 -0.04688 -0.51025
v -0.07664 0.00152 -0.33583
v -0.07577 0.00193 0.32237
v -0.07805 0.00036 0.42932
v -0.07420 -0.05462 0.52002
v -0.07029 0.09519 -0.52559
v -0.07542 0.05326 -0.31575
v -0.07541 0.05326 0.31620
v -0.07162 0.09523 0.52517
v -0.07052 0.23330 -0.52582
v -0.07050 0.23291 0.52533
v -0.07156 0.31310 -0.51556
v -0.07544 0.31861 -0.31936
v -0.07525 0.31775 0.31732
v -0.07805 0.33591 0.42932
v -0.07378 0.31091 0.52162
v 0.04717 -0.33700 -0.44694
v 0.05925 -0.33600 -0.37350
v 0.05088 -0.33669 0.42488
v 0.05886 -0.28055 -0.52329
v 0.05559 -0.31680 -0.32001
v 0.05435 -0.31689 0.32086
v 0.09950 -0.33050 0.46750
v 0.05636 -0.28045 0.52375
v 0.05892 -0.14060 -0.52620
v 0.05752 -0.14036 0.52607
v 0.05593 -0.04393 -0.50781
v 0.05434 0.00136 -0.34194
v 0.05203 0.00176 0.32785
v 0.05737 0.00037 0.43057
v 0.05372 -0.05308 0.51925
v 0.05928 0.09156 -0.52546
v 0.05324 0.05326 -0.32035
v 0.05452 0.05331 0.32037
v 0.05710 0.09102 0.52520
v 0.05858 0.23559 -0.52619
v 0.05755 0.23693 0.52586
v 0.05717 0.31384 -0.51353
v 0.05473 0.31903 -0.32456
v 0.05420 0.31784 0.32167
v 0.05737 0.33620 0.43057
v 0.05442 0.31119 0.52102
v 0.13950 -0.33700 -0.42883
v 0.19983 -0.33667 -0.37706
v 0.20750 -0.33600 0.31950
v 0.18020 -0.33690 0.40500
v 0.18778 -0.27638 -0.49185
v 0.14655 -0.31936 -0.30936
v 0.20126 -0.31629 -0.25394
v 0.24483 -0.31417 0.21117
v 0.18251 -0.31695 0.26884
v 0.21847 -0.28531 0.45575
v 0.18016 -0.27479 0.50237
v 0.18716 -0.14241 -0.49376
v 0.22494 -0.15122 0.45756
v 0.17801 -0.14096 0.50382
v 0.18448 -0.04993 -0.48373
v 0.19250 0.00186 -0.36378
v 0.20675 -0.00183 -0.25717
v 0.23950 -0.05600 0.21550
v 0.18641 0.00373 0.28482
v 0.19828 -0.01842 0.43252
v 0.18061 -0.05866 0.49989
v 0.18826 0.09512 -0.49322
v 0.13528 0.05261 -0.29839
v 0.20017 0.05380 -0.25423
v 0.24470 0.05520 0.21170
v 0.18020 0.05319 0.26992
v 0.22409 0.09493 0.45995
v 0.18034 0.09523 0.50255
v 0.18762 0.23368 -0.49340
v 0.22513 0.22258 0.45824
v 0.17896 0.23409 0.50308
v 0.18585 0.31233 -0.48701
v 0.16056 0.32448 -0.32720
v 0.20093 0.31702 -0.25484
v 0.24470 0.31480 0.21170
v 0.18111 0.31825 0.27220
v 0.20366 0.32366 0.43866
v 0.17998 0.31005 0.50080
v 0.30106 -0.33700 -0.33372
v 0.32493 -0.33643 -0.24950
v 0.36117 -0.33600 -0.11683
v 0.37250 -0.33600 0.07950
v 0.34717 -0.33600 0.15450
v 0.32150 -0.33675 0.28950
v 0.26517 -0.33700 0.36550
v 0.29096 -0.27542 -0.44918
v 0.34400 -0.27975 -0.38785
v 0.26827 -0.31786 -0.18904
v 0.30920 -0.31684 -0.10125
v 0.32453 -0.31689 0.02517
v 0.28582 -0.31691 0.15501
v 0.34190 -0.32540 0.30810
v 0.31864 -0.27813 0.41843
v 0.26355 -0.26627 0.47791
v 0.29487 -0.13806 -0.44900
v 0.34715 -0.14569 -0.38819
v 0.32396 -0.14174 0.41631
v 0.26444 -0.13463 0.47750
v 0.28650 -0.05853 -0.44889
v 0.33001 -0.03450 -0.37350
v 0.30271 0.00429 -0.22758
v 0.32712 0.00152 -0.10917
v 0.33555 0.00163 0.02639
v 0.30667 0.00346 0.15442
v 0.32620 -0.00115 0.29377
v 0.31056 -0.05027 0.41458
v 0.26125 -0.05925 0.47925
v 0.29129 0.09469 -0.44930
v 0.34596 0.09459 -0.39063
v 0.26765 0.05285 -0.18809
v 0.30927 0.05321 -0.10010
v 0.32379 0.05336 0.02699
v 0.28508 0.05327 0.15542
v 0.37050 0.05100 0.33450
v 0.31943 0.09342 0.41968
v 0.26355 0.10345 0.47791
v 0.29468 0.23691 -0.44851
v 0.34729 0.22902 -0.38881
v 0.32328 0.23521 0.41681
v 0.26444 0.23450 0.47750
v 0.28648 0.30987 -0.44979
v 0.33372 0.31670 -0.37959
v 0.27923 0.32195 -0.20074
v 0.31269 0.31868 -0.10120
v 0.32578 0.31806 0.02718
v 0.28928 0.31859 0.15486
v 0.32750 0.33371 0.29497
v 0.31204 0.31195 0.41736
v 0.26125 0.31025 0.47925
v 0.40167 -0.33700 -0.20433
v 0.43410 -0.33690 -0.08790
v 0.43287 -0.33675 0.02313
v 0.42783 -0.33700 0.13917
v 0.39117 -0.33700 0.22583
v 0.41463 -0.27791 -0.33554
v 0.46638 -0.27840 -0.23970
v 0.49191 -0.28441 -0.12468
v 0.49100 -0.30140 0.03600
v 0.48584 -0.28035 0.16256
v 0.44775 -0.27801 0.27981
v 0.39693 -0.27983 0.36525
v 0.41759 -0.13852 -0.33490
v 0.46934 -0.14417 -0.23743
v 0.49527 -0.14953 -0.11857
v 0.50300 -0.17300 0.07700
v 0.48920 -0.14952 0.16376
v 0.44782 -0.14030 0.28124
v 0.40182 -0.13619 0.36608
v 0.41146 -0.05874 -0.33481
v 0.45309 -0.04387 -0.23558
v 0.47156 -0.02584 -0.11210
v 0.45797 -0.00300 0.02443
v 0.46884 -0.03341 0.15557
v 0.44168 -0.05122 0.27544
v 0.39303 -0.06026 0.36403
v 0.41483 0.09189 -0.33579
v 0.46899 0.09411 -0.23996
v 0.49506 0.09265 -0.12888
v 0.50025 0.10700 0.05125
v 0.48856 0.09433 0.16392
v 0.44903 0.09325 0.28029
v 0.39693 0.08988 0.36525
v 0.41669 0.23747 -0.33497
v 0.46942 0.23198 -0.23773
v 0.49541 0.22500 -0.12119
v 0.50300 0.19650 0.07700
v 0.48925 0.22296 0.16440
v 0.44798 0.23630 0.28069
v 0.40162 0.23715 0.36565
v 0.41227 0.31003 -0.33524
v 0.45833 0.31391 -0.23739
v 0.47801 0.31968 -0.11744
v 0.46044 0.33125 0.02456
v 0.47520 0.31678 0.15793
v 0.44436 0.31197 0.27755
v 0.39269 0.30966 0.36434
v 0.51153 -0.27059 -0.18697
v 0.52722 -0.27911 -0.09241
v 0.53053 -0.27486 0.02532
v 0.52306 -0.27611 0.14072
v 0.51180 -0.13355 -0.18810
v 0.52975 -0.13684 -0.09420
v 0.53133 -0.13940 0.02422
v 0.52495 -0.13490 0.14530
v 0.51179 -0.06043 -0.18436
v 0.52506 -0.06060 -0.08969
v 0.52887 -0.06038 0.02679
v 0.52137 -0.06072 0.13699
v 0.51153 0.09922 -0.18697
v 0.52722 0.09062 -0.09241
v 0.53053 0.09486 0.02532
v 0.52306 0.09362 0.14072
v 0.51164 0.24159 -0.18605
v 0.52898 0.23987 -0.09267
v 0.53101 0.23576 0.02497
v 0.52375 0.24171 0.14401
v 0.51208 0.31025 -0.18750
v 0.52537 0.30966 -0.09092
v 0.52904 0.30983 0.02604
v 0.52245 0.30968 0.13750
usemtl m033
f 306 350 305
f 349 305 350
f 170 216 215
f 147 102 148
f 329 330 380
f 426 452 451
f 146 101 102
f 239 201 240
f 426 427 452
f 424 450 423
f 102 98 99
f 103 99 141
f 148 141 142
f 149 142 143
f 150 143 192
f 201 192 233
f 240 233 261
f 266 261 287
f 292 287 323
f 330 323 371
f 380 371 421
f 428 421 420
f 427 420 448
f 452 448 447
f 451 447 446
f 450 446 445
f 450 445 416
f 423 416 415
f 422 415 370
f 374 370 369
f 373 369 321
f 324 321 286
f 288 286 260
f 262 260 231
f 234 231 189
f 194 189 190
f 195 190 137
f 144 137 138
f 146 138 97
f 101 97 98
f 427 379 380
f 451 425 426
f 450 424 425
f 373 324 374
f 266 265 239
f 330 329 291
f 324 325 374
f 144 145 195
f 145 196 195
f 292 291 265
f 149 200 148
f 327 379 378
f 238 239 265
f 264 265 291
f 290 291 329
f 377 425 424
f 377 424 376
f 326 375 325
f 198 147 148
f 199 148 200
f 238 200 201
f 238 201 239
f 328 329 380
f 328 380 379
f 378 427 426
f 377 426 425
f 376 424 423
f 289 324 288
f 289 288 262
f 263 262 234
f 263 234 235
f 197 145 146
f 197 146 147
f 98 140 141
f 323 322 371
f 448 419 447
f 445 417 416
f 189 231 190
f 97 139 98
f 135 186 187
f 367 413 414
f 132 133 94
f 135 187 136
f 224 181 180
f 94 134 95
f 134 133 126
f 135 134 127
f 186 135 128
f 187 186 178
f 229 187 179
f 230 229 222
f 259 230 223
f 285 259 255
f 320 285 281
f 319 320 313
f 367 319 312
f 413 367 358
f 412 413 406
f 443 412 405
f 442 443 404
f 410 442 403
f 409 410 403
f 408 409 402
f 361 408 352
f 360 361 352
f 314 360 351
f 282 314 307
f 256 282 277
f 224 256 251
f 181 224 217
f 130 181 173
f 131 130 123
f 132 131 124
f 133 132 125
f 127 126 133
f 128 127 134
f 178 128 135
f 179 178 186
f 222 179 187
f 223 222 229
f 255 223 230
f 281 255 259
f 313 281 285
f 312 313 320
f 358 312 319
f 357 358 367
f 406 357 366
f 405 406 413
f 404 405 412
f 403 404 411
f 402 403 410
f 401 402 409
f 352 401 408
f 351 352 361
f 307 351 314
f 277 307 314
f 251 277 282
f 217 251 256
f 173 217 224
f 123 173 181
f 124 123 130
f 125 124 131
f 126 125 132
f 259 230 222
f 320 285 280
f 319 320 312
f 366 367 358
f 413 366 357
f 411 412 405
f 410 411 404
f 361 408 402
f 314 361 352
f 181 224 218
f 131 130 124
f 281 255 254
f 352 402 353
f 184 185 177
f 185 227 221
f 227 228 221
f 228 258 221
f 258 284 279
f 284 318 311
f 318 317 357
f 317 365 356
f 365 364 355
f 364 363 354
f 363 362 353
f 362 316 353
f 316 315 308
f 315 283 278
f 283 257 252
f 257 226 218
f 226 182 174
f 182 183 174
f 183 184 176
f 177 221 178
f 221 253 254
f 253 279 280
f 279 311 312
f 176 177 127
f 357 356 406
f 356 355 405
f 354 353 402
f 353 308 352
f 308 278 307
f 278 252 251
f 218 219 173
f 219 174 173
f 174 175 124
f 175 176 126
f 364 355 356
f 365 356 311
f 318 311 279
f 284 279 253
f 258 253 221
f 228 221 220
f 227 220 177
f 185 177 176
f 184 176 175
f 183 175 174
f 182 174 219
f 226 219 218
f 225 218 252
f 257 252 278
f 283 278 308
f 315 308 309
f 316 309 353
f 362 353 354
f 363 354 355
f 356 365 318
f 253 258 228
f 220 227 185
f 175 183 182
f 219 226 225
f 218 225 257
f 309 316 362
f 187 230 229
f 413 444 412
f 442 441 410
f 131 93 132
f 94 133 140
f 133 134 141
f 134 135 142
f 135 187 192
f 187 229 232
f 229 230 233
f 230 259 261
f 259 285 287
f 285 320 323
f 320 319 322
f 319 367 371
f 367 414 421
f 414 413 420
f 413 412 419
f 412 443 447
f 443 442 446
f 442 410 417
f 410 409 416
f 409 408 415
f 408 361 370
f 361 360 369
f 360 314 321
f 314 282 286
f 282 256 260
f 256 224 231
f 224 181 190
f 181 130 137
f 130 131 138
f 131 132 139
f 132 94 98
f 141 140 99
f 192 191 143
f 233 193 232
f 372 323 322
f 371 322 372
f 420 371 421
f 420 419 448
f 445 417 446
f 96 138 139
f 97 139 96
f 97 139 140
f 98 140 97
f 134 133 95
f 187 186 136
f 230 229 188
f 368 320 319
f 367 319 368
f 443 412 444
f 93 94 133
f 134 94 133
f 95 133 94
f 409 410 441
f 93 132 92
f 92 132 131
f 93 132 133
f 102 147 140
f 98 140 147
f 98 99 103
f 103 148 102
f 99 141 148
f 99 98 140
f 103 148 141
f 141 142 149
f 142 143 150
f 143 192 201
f 150 201 149
f 150 149 142
f 192 233 240
f 233 232 239
f 240 239 232
f 233 261 266
f 261 287 292
f 330 292 287
f 323 322 329
f 323 372 381
f 372 371 380
f 381 380 329
f 330 329 322
f 330 323 322
f 371 421 428
f 428 380 371
f 421 420 427
f 420 448 452
f 427 420 419
f 427 426 419
f 448 419 426
f 452 426 419
f 448 447 451
f 447 446 450
f 446 417 424
f 450 424 417
f 445 416 423
f 449 423 424
f 449 424 417
f 416 415 422
f 415 370 374
f 422 374 370
f 370 369 373
f 369 321 324
f 373 324 321
f 321 286 288
f 260 231 234
f 194 234 231
f 189 190 195
f 194 195 190
f 190 137 144
f 144 195 190
f 137 138 145
f 138 96 100
f 100 101 145
f 101 146 145
f 96 139 146
f 101 146 139
f 97 139 146
f 97 98 102
f 101 147 140
f 102 147 101
f 420 421 414
f 421 420 413
f 419 420 413
f 448 444 412
f 448 419 412
f 447 448 444
f 447 443 411
f 411 443 412
f 447 418 411
f 446 447 443
f 446 442 410
f 446 417 410
f 445 446 442
f 445 441 409
f 445 416 409
f 415 416 409
f 415 408 361
f 370 415 408
f 415 370 361
f 370 361 360
f 369 370 361
f 369 360 314
f 369 321 314
f 321 314 282
f 286 282 256
f 260 256 224
f 231 224 180
f 189 180 181
f 189 190 181
f 190 189 180
f 190 181 130
f 137 190 181
f 137 130 131
f 137 138 131
f 138 92 93
f 97 93 132
f 97 139 132
f 97 93 94
f 98 94 133
f 98 140 133
f 98 94 95
f 99 95 134
f 99 141 134
f 142 141 134
f 142 135 136
f 143 136 186
f 136 135 186
f 143 136 187
f 143 191 186
f 143 192 187
f 192 187 230
f 233 232 229
f 233 230 259
f 261 259 285
f 287 285 320
f 323 320 319
f 323 320 368
f 323 322 319
f 372 368 319
f 371 372 368
f 372 322 319
f 421 371 367
f 421 414 413
f 418 419 447
f 98 99 141
f 143 191 142
f 192 233 232
f 170 216 223
f 223 222 179
f 216 215 222
f 223 222 215
f 216 250 255
f 250 276 281
f 313 281 276
f 306 305 312
f 306 350 359
f 350 349 358
f 359 358 312
f 313 312 305
f 349 400 407
f 400 349 358
f 407 358 349
f 400 399 406
f 399 436 440
f 406 399 398
f 406 405 398
f 436 398 405
f 440 405 398
f 436 435 439
f 435 434 438
f 434 396 403
f 438 403 396
f 433 395 402
f 437 402 403
f 437 403 396
f 395 394 401
f 394 348 352
f 401 394 348
f 401 352 348
f 348 347 351
f 347 304 307
f 351 307 304
f 304 275 277
f 277 275 249
f 249 214 217
f 172 217 214
f 167 168 173
f 172 173 168
f 168 116 123
f 116 168 173
f 123 173 168
f 116 117 124
f 117 84 88
f 88 89 124
f 89 125 124
f 84 118 125
f 89 125 118
f 85 118 125
f 85 86 90
f 89 126 119
f 86 119 126
f 90 126 89
f 86 85 119
f 399 400 393
f 400 399 392
f 398 399 392
f 436 432 391
f 436 398 391
f 435 436 432
f 435 431 390
f 390 431 391
f 435 397 390
f 434 435 431
f 434 430 389
f 434 396 389
f 433 434 430
f 433 429 388
f 388 429 389
f 433 395 388
f 394 395 388
f 394 387 388
f 394 387 339
f 348 394 387
f 394 348 339
f 348 339 338
f 347 338 339
f 347 348 339
f 347 338 297
f 347 304 297
f 304 297 270
f 275 270 244
f 249 244 207
f 214 207 158
f 167 158 159
f 167 168 159
f 168 167 158
f 126 90 127
f 312 313 358
f 405 440 439
f 125 89 90
f 405 406 440
f 403 438 402
f 438 437 402
f 406 357 358
f 439 404 405
f 438 403 404
f 351 307 352
f 255 254 222
f 313 312 280
f 307 308 352
f 123 124 173
f 124 174 173
f 281 280 254
f 128 178 127
f 310 357 356
f 221 222 254
f 253 254 280
f 279 280 312
f 355 404 403
f 355 403 354
f 309 353 308
f 176 126 127
f 177 127 178
f 221 178 179
f 221 179 222
f 311 312 358
f 311 358 357
f 356 406 405
f 355 405 404
f 354 403 402
f 278 307 277
f 278 277 251
f 252 251 217
f 252 217 218
f 175 124 125
f 175 125 126
f 168 159 109
f 116 109 159
f 116 168 159
f 116 109 110
f 116 117 110
f 117 80 81
f 85 81 111
f 110 111 81
f 85 118 111
f 85 81 82
f 86 82 112
f 111 112 82
f 86 119 112
f 86 82 83
f 87 83 113
f 112 113 83
f 87 120 113
f 121 120 113
f 121 114 113
f 121 114 115
f 122 115 164
f 115 114 164
f 122 115 165
f 122 169 164
f 115 164 165
f 122 170 165
f 170 165 213
f 216 213 212
f 165 212 213
f 216 215 212
f 216 213 248
f 250 248 274
f 276 274 303
f 306 303 302
f 306 303 346
f 306 305 302
f 350 346 302
f 349 350 346
f 350 305 302
f 346 302 345
f 400 349 345
f 400 393 345
f 400 393 392
f 345 392 393
f 397 398 435
f 395 396 433
f 84 85 118
f 86 87 120
f 122 169 121
f 170 169 122
f 90 86 87
f 91 87 120
f 127 120 121
f 128 121 122
f 129 122 170
f 179 170 216
f 223 216 250
f 255 250 276
f 281 276 306
f 313 306 349
f 407 400 399
f 406 399 436
f 440 436 435
f 439 435 434
f 438 434 433
f 437 433 395
f 402 395 394
f 352 348 347
f 351 347 304
f 307 304 275
f 251 249 214
f 217 214 167
f 172 167 168
f 123 116 117
f 124 117 85
f 89 85 86
f 86 119 120
f 306 305 349
f 436 398 435
f 167 214 168
f 85 118 86
f 114 164 165
f 114 165 115
f 207 159 158
f 82 113 83
f 430 431 390
f 248 213 212
f 303 274 273
f 339 387 388
f 159 207 208
f 113 112 106
f 114 113 107
f 164 114 108
f 165 164 156
f 212 165 157
f 247 212 206
f 248 247 243
f 274 248 243
f 273 274 269
f 302 273 269
f 345 302 296
f 344 345 336
f 392 344 336
f 391 392 386
f 390 391 385
f 389 390 384
f 388 389 383
f 339 388 332
f 298 339 331
f 297 298 294
f 270 297 293
f 244 270 267
f 207 244 241
f 208 207 203
f 159 208 203
f 160 159 151
f 110 160 152
f 111 110 104
f 112 111 105
f 163 210 211
f 301 300 344
f 245 209 208
f 162 163 155
f 163 211 156
f 211 246 243
f 246 272 269
f 272 301 296
f 301 344 336
f 344 343 336
f 343 342 334
f 342 341 333
f 341 340 332
f 340 299 332
f 299 298 294
f 298 271 268
f 271 245 242
f 245 208 203
f 208 209 203
f 209 160 152
f 160 161 153
f 161 162 153
f 154 155 107
f 336 335 386
f 335 334 385
f 333 332 382
f 332 294 331
f 294 268 293
f 268 242 241
f 203 204 151
f 204 152 151
f 152 153 104
f 153 154 106
f 392 432 391
f 430 429 389
f 82 112 119
f 112 113 120
f 114 165 170
f 165 212 215
f 213 248 250
f 248 274 276
f 274 303 306
f 303 302 305
f 302 345 349
f 393 392 399
f 392 391 398
f 391 431 435
f 431 430 434
f 430 389 396
f 389 388 395
f 387 339 348
f 338 297 304
f 297 270 275
f 270 244 249
f 244 207 214
f 207 159 168
f 109 110 117
f 110 111 118
f 111 82 86
f 120 119 87
f 216 171 215
f 399 349 400
f 399 398 436
f 433 396 434
f 84 117 118
f 85 118 119
f 213 212 166
f 346 303 302
f 431 391 432
f 81 82 112
f 113 82 112
f 83 112 82
f 81 111 80
f 80 111 110
f 81 111 112
f 90 126 119
f 86 87 91
f 91 127 90
f 87 120 127
f 87 86 119
f 91 127 120
f 120 121 128
f 121 122 129
f 122 170 179
f 129 179 128
f 129 128 121
f 200 149 201
f 427 380 428
f 147 146 102
f 195 234 194
f 103 102 99
f 149 148 142
f 150 149 143
f 201 150 192
f 240 201 233
f 266 240 261
f 292 266 287
f 330 292 323
f 380 330 371
f 428 380 421
f 427 428 420
f 452 427 448
f 451 452 447
f 450 451 446
f 423 450 416
f 422 423 415
f 373 374 369
f 288 324 286
f 262 288 260
f 234 262 231
f 194 234 189
f 144 195 137
f 145 144 138
f 146 145 138
f 101 146 97
f 102 101 98
f 451 450 425
f 240 266 239
f 292 330 291
f 422 374 423
f 234 195 235
f 266 292 265
f 423 374 375
f 237 199 238
f 327 328 379
f 236 263 235
f 238 199 200
f 264 238 265
f 290 264 291
f 328 290 329
f 199 198 148
f 378 379 427
f 377 378 426
f 375 376 423
f 325 375 374
f 289 325 324
f 263 289 262
f 236 235 195
f 196 236 195
f 197 196 145
f 198 197 147
f 143 142 192
f 97 138 139
f 320 319 367
f 93 132 94
f 442 410 409
f 441 442 409
f 127 134 126
f 128 135 127
f 178 186 128
f 179 187 178
f 222 229 179
f 223 230 222
f 255 259 223
f 281 285 255
f 313 320 281
f 312 319 313
f 358 367 312
f 357 413 358
f 406 413 357
f 405 412 406
f 404 443 405
f 403 442 404
f 402 409 403
f 401 408 402
f 351 360 352
f 277 282 307
f 251 256 277
f 217 224 251
f 173 181 217
f 123 130 173
f 124 131 123
f 125 132 124
f 126 133 125
f 134 127 133
f 135 128 134
f 186 178 135
f 187 179 186
f 229 222 187
f 230 223 229
f 259 255 230
f 285 281 259
f 320 313 285
f 367 358 319
f 366 357 367
f 413 406 366
f 412 405 413
f 411 404 412
f 410 403 411
f 409 402 410
f 408 401 409
f 314 351 361
f 282 277 314
f 256 251 282
f 224 217 256
f 181 173 224
f 130 123 181
f 132 125 131
f 133 126 132
f 254 259 222
f 255 259 254
f 280 285 281
f 312 320 280
f 357 366 358
f 404 411 405
f 403 410 404
f 352 361 402
f 308 314 352
f 307 314 308
f 218 224 217
f 173 181 218
f 124 130 173
f 176 184 177
f 177 185 221
f 253 258 279
f 279 284 311
f 311 318 357
f 357 317 356
f 356 365 355
f 355 364 354
f 354 363 353
f 309 316 308
f 308 315 278
f 278 283 252
f 252 257 218
f 219 226 174
f 175 183 176
f 365 364 356
f 318 365 311
f 284 318 279
f 258 284 253
f 227 228 220
f 185 227 177
f 184 185 176
f 183 184 175
f 226 182 219
f 225 226 218
f 257 225 252
f 283 257 278
f 315 283 308
f 316 315 309
f 363 362 354
f 364 363 355
f 311 356 318
f 221 253 228
f 220 221 227
f 177 220 185
f 174 175 182
f 218 219 225
f 353 309 362
f 98 94 140
f 140 133 141
f 142 135 192
f 192 187 232
f 233 230 261
f 261 259 287
f 287 285 323
f 323 320 322
f 322 319 371
f 419 412 447
f 446 442 417
f 417 410 416
f 369 360 321
f 321 314 286
f 286 282 260
f 260 256 231
f 231 224 190
f 137 130 138
f 138 131 139
f 139 132 98
f 92 93 131
f 98 102 140
f 102 98 147
f 102 98 103
f 103 99 148
f 148 141 149
f 150 143 201
f 201 192 240
f 240 233 239
f 233 240 232
f 240 233 266
f 266 261 292
f 323 330 287
f 330 323 329
f 330 323 381
f 381 372 380
f 330 381 329
f 428 421 427
f 427 420 452
f 452 448 426
f 448 452 419
f 452 448 451
f 451 447 450
f 450 446 424
f 446 450 417
f 449 445 423
f 445 449 417
f 423 416 422
f 422 415 374
f 374 370 373
f 373 369 324
f 324 321 288
f 262 260 234
f 189 194 231
f 194 189 195
f 144 137 145
f 145 138 100
f 100 96 146
f 101 100 146
f 97 101 139
f 101 97 102
f 97 101 140
f 146 101 147
f 448 419 444
f 444 419 412
f 443 447 444
f 441 445 442
f 369 370 360
f 286 321 282
f 260 286 256
f 231 260 224
f 189 231 180
f 181 190 180
f 97 138 93
f 92 138 131
f 98 97 94
f 99 98 95
f 143 142 136
f 233 192 230
f 261 233 259
f 287 261 285
f 323 287 320
f 372 323 368
f 367 371 368
f 96 138 97
f 179 170 223
f 223 216 222
f 216 223 215
f 223 216 255
f 255 250 281
f 306 313 276
f 313 306 312
f 313 306 359
f 359 350 358
f 313 359 312
f 306 313 305
f 407 400 358
f 407 400 406
f 406 399 440
f 440 436 405
f 436 440 398
f 440 436 439
f 439 435 438
f 438 434 403
f 434 438 396
f 437 433 402
f 433 437 396
f 402 395 401
f 401 394 352
f 352 348 351
f 351 347 307
f 307 304 277
f 251 277 249
f 251 249 217
f 167 172 214
f 172 167 173
f 123 116 173
f 123 116 124
f 124 117 88
f 88 84 125
f 89 88 125
f 85 89 118
f 89 85 125
f 89 85 90
f 85 89 119
f 90 86 126
f 125 89 126
f 436 398 432
f 432 398 391
f 431 435 432
f 429 433 430
f 347 348 338
f 275 304 270
f 249 275 244
f 214 249 207
f 167 214 158
f 159 168 158
f 178 128 179
f 406 358 407
f 126 125 90
f 173 217 172
f 439 438 404
f 223 255 222
f 281 313 280
f 401 352 402
f 217 173 218
f 220 177 221
f 310 311 357
f 219 252 218
f 85 117 81
f 80 117 110
f 80 110 81
f 86 85 82
f 81 111 82
f 87 86 83
f 122 121 115
f 216 170 213
f 250 216 248
f 276 250 274
f 306 276 303
f 350 306 346
f 345 349 346
f 84 117 85
f 91 90 87
f 128 127 121
f 129 128 122
f 179 129 170
f 223 179 216
f 255 223 250
f 281 255 276
f 313 281 306
f 358 313 349
f 406 407 399
f 440 406 436
f 439 440 435
f 438 439 434
f 437 438 433
f 402 437 395
f 401 402 394
f 351 352 347
f 277 307 275
f 217 251 214
f 172 217 167
f 124 123 117
f 89 124 85
f 90 89 86
f 122 121 170
f 85 117 118
f 303 302 345
f 430 389 388
f 429 430 388
f 344 392 345
f 389 430 390
f 297 338 339
f 247 248 212
f 302 303 273
f 298 297 339
f 110 109 159
f 160 110 159
f 107 113 106
f 108 114 107
f 156 164 108
f 157 165 156
f 206 212 157
f 243 247 206
f 269 274 243
f 296 302 269
f 337 345 296
f 336 345 337
f 386 392 336
f 385 391 386
f 384 390 385
f 383 389 384
f 382 388 383
f 332 388 382
f 331 339 332
f 294 298 331
f 293 297 294
f 267 270 293
f 241 244 267
f 202 207 241
f 203 207 202
f 151 159 203
f 152 160 151
f 104 110 152
f 105 111 104
f 106 112 105
f 156 108 107
f 344 300 343
f 154 162 155
f 155 163 156
f 156 211 205
f 205 211 206
f 206 211 243
f 243 246 269
f 269 272 296
f 296 301 295
f 295 301 336
f 336 343 335
f 335 343 334
f 334 342 384
f 384 342 383
f 383 342 333
f 333 341 332
f 332 299 294
f 294 298 268
f 268 271 242
f 242 245 203
f 203 209 204
f 204 209 152
f 152 160 153
f 153 162 154
f 106 154 107
f 107 155 156
f 156 205 157
f 157 205 206
f 296 295 337
f 337 295 336
f 386 335 385
f 385 334 384
f 383 333 382
f 293 268 267
f 267 268 241
f 241 242 202
f 202 242 203
f 104 153 105
f 105 153 106
f 86 82 119
f 119 112 120
f 121 114 170
f 170 165 215
f 216 213 250
f 250 248 276
f 276 274 306
f 306 303 305
f 305 302 349
f 398 391 435
f 434 430 396
f 396 389 395
f 347 338 304
f 304 297 275
f 275 270 249
f 249 244 214
f 214 207 168
f 116 109 117
f 117 110 118
f 118 111 86
f 86 90 119
f 90 86 91
f 91 87 127
f 127 120 128
f 129 122 179
v 0.00050 0.06400 -0.32750
v 0.05150 0.06400 -0.32350
v -0.05150 0.06400 -0.32350
v 0.10150 0.06400 -0.31150
v -0.10150 0.06400 -0.31150
v 0.14850 0.06400 -0.29150
v -0.14850 0.06400 -0.29150
v 0.19250 0.06400 -0.26550
v -0.19250 0.06400 -0.26550
v 0.23150 0.06400 -0.23150
v -0.23150 0.06400 -0.23150
v 0.26550 0.06400 -0.19250
v -0.26550 0.06400 -0.19250
v 0.29250 0.06400 -0.14850
v -0.29250 0.06400 -0.14850
v 0.31150 0.06400 -0.10150
v -0.31150 0.06400 -0.10150
v 0.32450 0.06400 -0.05150
v -0.32350 0.06400 -0.05150
v 0.32850 0.06400 0.00050
v -0.32750 0.06400 0.00050
v 0.32450 0.06400 0.05150
v -0.32350 0.06400 0.05150
v 0.31150 0.06400 0.10150
v -0.31150 0.06400 0.10150
v 0.29250 0.06400 0.14950
v -0.29250 0.06400 0.14950
v 0.26550 0.06400 0.19350
v -0.26550 0.06400 0.19350
v 0.23150 0.06400 0.23250
v -0.23150 0.06400 0.23250
v 0.19250 0.06400 0.26550
v -0.19250 0.06400 0.26550
v 0.14850 0.06400 0.29250
v -0.14850 0.06400 0.29250
v 0.10150 0.06400 0.31250
v -0.10150 0.06400 0.31250
v 0.05150 0.06400 0.32450
v -0.05150 0.06400 0.32450
v 0.00050 0.06400 0.32850
v 0.00050 -0.32600 -0.32750
v 0.05150 -0.32600 -0.32350
v -0.05150 -0.32600 -0.32350
v 0.10150 -0.32600 -0.31150
v -0.10150 -0.32600 -0.31150
v 0.14850 -0.32600 -0.29150
v -0.14850 -0.32600 -0.29150
v 0.19250 -0.32600 -0.26550
v -0.19250 -0.32600 -0.26550
v 0.23150 -0.32600 -0.23150
v -0.23150 -0.32600 -0.23150
v 0.26550 -0.32600 -0.19250
v -0.26550 -0.32600 -0.19250
v 0.29250 -0.32600 -0.14850
v -0.29250 -0.32600 -0.14850
v 0.31150 -0.32600 -0.10150
v -0.31150 -0.32600 -0.10150
v 0.32450 -0.32600 -0.05150
v -0.32350 -0.32600 -0.05150
v 0.32850 -0.32600 0.00050
v 0.00050 -0.32600 0.00050
v -0.32750 -0.32600 0.00050
v 0.32450 -0.32600 0.05150
v -0.32350 -0.32600 0.05150
v 0.31150 -0.32600 0.10150
v -0.31150 -0.32600 0.10150
v 0.29250 -0.32600 0.14950
v -0.29250 -0.32600 0.14950
v 0.26550 -0.32600 0.19350
v -0.26550 -0.32600 0.19350
v 0.23150 -0.32600 0.23250
v -0.23150 -0.32600 0.23250
v 0.19250 -0.32600 0.26550
v -0.19250 -0.32600 0.26550
v 0.14850 -0.32600 0.29250
v -0.14850 -0.32600 0.29250
v 0.10150 -0.32600 0.31250
v -0.10150 -0.32600 0.31250
v 0.05150 -0.32600 0.32450
v -0.05150 -0.32600 0.32450
v 0.00050 -0.32600 0.32850
usemtl m034
f 516 475 473
f 518 477 475
f 520 479 477
f 522 481 479
f 524 483 481
f 526 485 483
f 528 487 485
f 530 489 487
f 532 491 489
f 533 492 491
f 531 490 492
f 529 488 490
f 527 486 488
f 525 484 486
f 523 482 484
f 521 480 482
f 519 478 480
f 517 476 478
f 515 474 476
f 512 472 474
f 510 470 472
f 508 468 470
f 506 466 468
f 504 464 466
f 502 462 464
f 500 460 462
f 498 458 460
f 496 456 458
f 494 454 456
f 493 453 454
f 495 455 453
f 497 457 455
f 499 459 457
f 501 461 459
f 503 463 461
f 505 465 463
f 507 467 465
f 509 469 467
f 511 471 469
f 514 473 471
f 518 516 514
f 522 520 518
f 526 524 522
f 530 528 526
f 533 532 530
f 529 531 533
f 525 527 529
f 521 523 525
f 517 519 521
f 512 515 517
f 508 510 512
f 504 506 508
f 500 502 504
f 496 498 500
f 493 494 496
f 497 495 493
f 501 499 497
f 505 503 501
f 509 507 505
f 514 511 509
f 514 516 473
f 516 518 475
f 518 520 477
f 520 522 479
f 522 524 481
f 524 526 483
f 526 528 485
f 528 530 487
f 530 532 489
f 532 533 491
f 533 531 492
f 531 529 490
f 529 527 488
f 527 525 486
f 525 523 484
f 523 521 482
f 521 519 480
f 519 517 478
f 517 515 476
f 515 512 474
f 512 510 472
f 510 508 470
f 508 506 468
f 506 504 466
f 504 502 464
f 502 500 462
f 500 498 460
f 498 496 458
f 496 494 456
f 494 493 454
f 493 495 453
f 495 497 455
f 497 499 457
f 499 501 459
f 501 503 461
f 503 505 463
f 505 507 465
f 507 509 467
f 509 511 469
f 511 514 471
f 513 518 514
f 513 522 518
f 513 526 522
f 513 530 526
f 513 533 530
f 513 529 533
f 513 525 529
f 513 521 525
f 513 517 521
f 513 512 517
f 513 508 512
f 513 504 508
f 513 500 504
f 513 496 500
f 513 493 496
f 513 497 493
f 513 501 497
f 513 505 501
f 513 509 505
f 513 514 509
v -0.15450 -0.01500 -0.01200
v -0.15350 -0.01500 0.02450
v -0.06960 -0.02903 -0.11324
v -0.11248 -0.03392 -0.03461
v -0.09037 -0.03273 0.08156
v -0.05225 -0.01500 0.14200
v -0.05522 0.10816 -0.09710
v -0.08695 0.11327 -0.03337
v -0.07451 0.11196 0.06476
v -0.05581 0.13100 -0.01319
v -0.04900 0.13100 0.03633
v 0.01838 -0.03349 -0.11945
v 0.07025 -0.03875 -0.07925
v 0.02682 -0.03862 0.10762
v 0.01129 -0.01816 0.14503
v 0.01457 0.10775 -0.10450
v 0.02770 0.12215 -0.05044
v 0.02260 0.11384 0.08829
v 0.01567 0.13100 -0.02109
v 0.01262 0.13100 0.05171
v 0.09614 -0.02300 -0.10707
v 0.11821 -0.03295 -0.02950
v 0.10789 -0.03043 0.06925
v 0.09825 0.11029 -0.02509
v 0.09357 0.10880 0.05236
usemtl m035
f 540 541 550
f 550 552 553
f 542 553 544
f 542 544 543
f 541 543 552
f 558 556 555
f 541 537 538
f 557 555 546
f 550 546 545
f 542 538 547
f 540 536 537
f 549 545 536
f 551 547 556
f 546 555 545
f 555 554 545
f 538 539 548
f 547 548 556
f 537 535 538
f 537 534 535
f 549 540 550
f 557 549 550
f 558 557 551
f 551 557 550
f 551 550 553
f 542 551 553
f 541 542 543
f 550 541 552
f 544 553 552
f 543 544 552
f 557 558 555
f 542 541 538
f 550 557 546
f 549 550 545
f 551 542 547
f 541 540 537
f 540 549 536
f 558 551 556
f 547 538 548
v -0.54958 -0.62287 -0.07187
v -0.56186 -0.63250 -0.02179
v -0.57022 -0.64546 0.20207
v -0.55399 -0.62854 0.23828
v -0.55300 -0.53250 -0.07302
v -0.56606 -0.51572 -0.02222
v -0.58379 -0.51724 0.20261
v -0.57276 -0.50692 0.25200
v -0.55317 -0.43780 0.20040
v -0.56365 -0.45518 0.23144
v -0.47750 -0.58750 -0.16800
v -0.45863 -0.61179 -0.08958
v -0.44522 -0.63844 -0.02222
v -0.43980 -0.65522 0.20293
v -0.45579 -0.62890 0.23852
v -0.42600 -0.56020 -0.17883
v -0.44938 -0.54444 -0.10147
v -0.43695 -0.50920 -0.02210
v -0.44011 -0.51077 0.20587
v -0.43863 -0.50639 0.24830
v -0.45854 -0.43750 0.19997
v -0.44897 -0.45540 0.23202
v -0.26925 -0.62750 -0.04000
v -0.30277 -0.64183 0.02369
v -0.31788 -0.61994 0.13826
v -0.26175 -0.61450 0.34100
v -0.26177 -0.61409 0.35768
v -0.33074 -0.54476 -0.20150
v -0.31430 -0.53886 -0.10282
v -0.31355 -0.50318 0.02206
v -0.31435 -0.51732 0.13487
v -0.27359 -0.57491 0.30928
v -0.27419 -0.57503 0.39061
v -0.26914 -0.43964 -0.04379
v -0.29754 -0.42428 0.02332
v -0.28038 -0.43344 0.10987
v -0.21250 -0.85563 0.34150
v -0.23567 -0.87939 0.41581
v -0.21878 -0.79088 0.31666
v -0.21542 -0.77513 0.40433
v -0.23278 -0.63096 -0.04198
v -0.20192 -0.65743 0.02873
v -0.21894 -0.63838 0.11123
v -0.21628 -0.63824 0.32568
v -0.21474 -0.64563 0.36964
v -0.18103 -0.52174 -0.20815
v -0.20048 -0.51579 -0.07967
v -0.16736 -0.50039 0.03007
v -0.20871 -0.49688 0.11500
v -0.18554 -0.57560 0.30467
v -0.18297 -0.57572 0.39502
v -0.23081 -0.42981 -0.04358
v -0.19178 -0.41873 0.01945
v -0.22014 -0.42279 0.11326
v -0.08435 -0.58785 -0.14427
v -0.07928 -0.59061 0.06346
v -0.04972 -0.59248 0.11872
v -0.07857 -0.52933 -0.18143
v -0.07725 -0.54188 -0.10416
v -0.07701 -0.55043 0.03385
v -0.05200 -0.53712 0.11967
v -0.05308 -0.50651 0.28104
v -0.06035 -0.53297 0.41109
v -0.06146 -0.53959 0.48060
v -0.08587 -0.43605 -0.17550
v -0.07841 -0.43563 -0.11060
v -0.07937 -0.43592 0.04504
v -0.05117 -0.43094 0.11913
v -0.05854 -0.26956 -0.18250
v -0.07325 -0.27565 -0.10804
v -0.08639 -0.27989 0.02339
v -0.06712 -0.27695 0.15417
v -0.04739 -0.26930 0.24601
v 0.11821 -0.87429 0.25193
v 0.09450 -0.93194 0.38976
v 0.12073 -0.76131 -0.09658
v 0.11579 -0.71757 -0.00650
v 0.11002 -0.76855 0.17320
v 0.10642 -0.80892 0.22058
v 0.08316 -0.61103 -0.10053
v 0.09427 -0.61984 0.03178
v 0.06816 -0.61982 0.11631
v 0.08189 -0.53390 -0.18819
v 0.07696 -0.54431 -0.10395
v 0.08902 -0.54601 0.03173
v 0.05477 -0.53736 0.12248
v 0.06946 -0.51087 0.28333
v 0.09857 -0.51280 0.42684
v 0.08526 -0.53835 0.48270
v 0.09950 -0.43605 -0.17550
v 0.08776 -0.42654 -0.11139
v 0.09151 -0.43561 0.04332
v 0.05364 -0.43210 0.12200
v 0.05364 -0.28005 -0.08427
v 0.06200 -0.28306 0.01162
v 0.06039 -0.28044 0.14021
v -0.00100 -0.26975 0.22750
v 0.13486 -0.84964 -0.16795
v 0.13576 -0.85410 -0.15163
v 0.13048 -0.87329 0.25057
v 0.22660 -0.86910 0.38530
v 0.13393 -0.78200 -0.11354
v 0.12842 -0.71767 -0.02483
v 0.12450 -0.71725 0.10050
v 0.14323 -0.62460 -0.11827
v 0.12958 -0.70252 -0.02414
v 0.12433 -0.70233 0.10150
v 0.24950 -0.60600 0.23950
v 0.17340 -0.48801 -0.20335
v 0.16594 -0.52617 -0.09527
v 0.17612 -0.46713 0.06975
v 0.18150 -0.47840 0.18070
v 0.20395 -0.53282 0.28001
v 0.19490 -0.50364 0.42492
v 0.19971 -0.53946 0.48806
v 0.19207 -0.45171 -0.19136
v 0.18040 -0.40525 -0.11901
v 0.17820 -0.42356 0.04553
v 0.17130 -0.43120 0.18930
v 0.17535 -0.44069 0.26142
v 0.17650 -0.45600 0.41050
v 0.13050 -0.27422 0.03480
v 0.30039 -0.85489 0.38206
v 0.35905 -0.71700 0.23850
v 0.32164 -0.81767 0.38050
v 0.27450 -0.58767 -0.17883
v 0.32530 -0.58966 -0.09107
v 0.32795 -0.63321 0.00612
v 0.29773 -0.66017 0.24097
v 0.28331 -0.53142 -0.20092
v 0.30054 -0.55354 -0.09502
v 0.32570 -0.53404 0.00670
v 0.30359 -0.51409 0.25361
v 0.25250 -0.50147 0.44461
v 0.25350 -0.45800 -0.16750
v 0.35750 -0.45186 0.23921
v 0.40481 -0.71788 0.23869
v 0.49356 -0.75037 0.37273
v 0.38967 -0.59250 -0.08283
v 0.43464 -0.64399 0.01004
v 0.46644 -0.67508 0.24156
v 0.46621 -0.47886 -0.20936
v 0.42068 -0.52555 -0.09150
v 0.43847 -0.53292 0.00942
v 0.44412 -0.51043 0.25727
v 0.40724 -0.45074 0.23918
v 0.51576 -0.62053 0.23939
v 0.55650 -0.47850 -0.20350
v 0.54650 -0.47850 -0.10700
v 0.51704 -0.55479 0.23908
v 0.72021 -0.47864 -0.18550
v 0.72188 -0.47859 -0.06464
v 0.77193 -0.47886 -0.17950
v 0.76530 -0.47860 -0.11070
usemtl m062
f 559 563 570
f 569 574 575
f 625 624 618
f 649 650 643
f 685 686 690
f 625 643 618
f 635 639 640
f 634 638 639
f 633 683 659
f 633 681 659
f 582 599 581
f 615 640 644
f 614 615 619
f 590 584 591
f 628 653 629
f 680 653 629
f 567 577 565
f 688 700 706
f 688 701 707
f 689 701 707
f 710 701 707
f 709 700 706
f 616 642 617
f 572 577 565
f 604 586 605
f 668 641 642
f 617 642 638
f 655 631 630
f 647 673 672
f 616 605 617
f 636 662 665
f 606 605 587
f 605 587 610
f 587 588 592
f 607 606 611
f 669 676 670
f 618 619 626
f 642 643 639
f 617 618 614
f 614 639 615
f 603 597 602
f 592 611 610
f 565 577 566
f 579 578 577
f 567 566 565
f 599 600 582
f 593 612 611
f 671 666 687
f 704 694 703
f 708 703 699
f 579 567 577
f 624 617 618
f 684 688 689
f 638 642 643
f 569 570 575
f 625 650 643
f 662 636 640
f 634 661 635
f 638 664 639
f 635 664 639
f 635 661 664
f 696 681 659
f 696 683 659
f 633 681 683
f 696 681 683
f 593 610 592
f 561 572 573
f 561 573 562
f 566 578 573
f 566 573 562
f 650 651 644
f 639 643 644
f 626 619 644
f 625 618 619
f 570 574 569
f 641 667 668
f 685 663 667
f 688 684 667
f 585 603 591
f 584 585 591
f 608 602 590
f 628 652 653
f 630 653 654
f 580 578 566
f 688 667 668
f 709 700 707
f 711 709 710
f 688 689 701
f 711 712 710
f 709 710 707
f 688 700 707
f 688 689 668
f 622 647 646
f 622 646 621
f 580 568 566
f 570 575 559
f 624 642 649
f 624 649 617
f 649 675 668
f 587 586 605
f 570 575 574
f 616 641 642
f 638 668 642
f 638 663 668
f 654 680 653
f 645 671 672
f 647 646 672
f 561 572 565
f 574 575 586
f 668 689 667
f 689 688 667
f 645 646 672
f 642 617 624
f 570 575 587
f 616 605 604
f 638 639 643
f 663 689 668
f 656 660 657
f 599 606 600
f 599 605 606
f 581 605 599
f 583 588 582
f 583 589 588
f 601 607 583
f 588 606 587
f 587 592 610
f 588 593 592
f 589 594 593
f 672 671 670
f 669 671 670
f 676 671 670
f 676 678 671
f 672 678 677
f 676 678 677
f 679 672 678
f 679 678 677
f 676 671 677
f 669 676 675
f 698 702 690
f 690 702 686
f 570 560 559
f 559 560 564
f 559 564 563
f 563 564 575
f 570 575 563
f 643 650 651
f 619 644 651
f 643 644 651
f 619 626 651
f 618 625 626
f 625 626 651
f 639 640 615
f 584 602 603
f 603 598 597
f 592 593 611
f 577 578 566
f 579 580 578
f 567 568 566
f 688 675 668
f 688 693 675
f 674 693 667
f 695 687 682
f 691 671 687
f 699 687 691
f 699 703 691
f 697 685 689
f 685 684 689
f 642 649 643
f 689 685 690
f 636 635 640
f 665 662 640
f 661 634 639
f 578 566 562
f 572 561 562
f 651 626 644
f 619 615 644
f 626 625 619
f 618 614 619
f 645 620 621
f 690 702 689
f 685 668 689
f 697 698 685
f 654 655 630
f 650 649 642
f 587 581 582
f 607 601 600
f 612 607 611
f 571 570 575
f 594 612 593
f 693 688 667
f 674 667 668
f 583 582 601
f 703 694 691
f 572 589 577
f 702 698 697
f 701 702 697
f 701 697 689
f 639 614 618
f 643 639 618
f 664 661 639
f 605 588 587
f 606 588 605
f 573 578 562
f 573 572 562
f 643 650 644
f 640 639 644
f 667 663 668
f 684 685 667
f 603 609 591
f 602 584 590
f 653 630 629
f 646 645 621
f 575 563 559
f 649 642 617
f 642 668 649
f 575 574 587
f 587 574 586
f 698 686 685
f 586 575 587
f 689 702 701
f 602 608 603
f 603 608 609
f 702 686 698
f 643 650 642
f 689 663 685
f 640 636 665
f 605 581 587
f 588 587 582
f 607 589 583
f 606 607 600
f 606 605 611
f 611 605 610
f 588 589 593
f 589 607 594
f 594 607 612
f 678 672 671
f 671 672 677
f 560 570 571
f 564 576 575
f 576 571 575
f 650 625 651
f 585 584 603
f 598 603 602
f 597 598 602
f 578 565 566
f 577 565 578
f 693 674 675
f 675 674 668
f 601 582 600
f 610 593 611
f 687 695 699
f 705 708 699
f 583 589 572
v 0.35283 -0.43708 0.06362
v -0.38176 -0.47755 0.17744
v 0.34580 -0.43358 0.22411
v -0.50334 -0.42265 0.00345
v 0.24233 -0.51827 0.06553
v 0.49612 -0.54950 0.23150
v -0.53563 -0.43368 0.17870
v -0.07150 -0.50250 0.08850
v -0.06539 -0.48610 0.16451
v -0.52647 -0.57066 -0.00750
v -0.52350 -0.45900 0.19050
v 0.00594 -0.47206 0.23054
v 0.37031 -0.58750 0.05650
v -0.63608 -0.54413 0.00135
v 0.48418 -0.46256 0.22381
v 0.07834 -0.52141 0.16510
v -0.39700 -0.56750 0.19050
v -0.61909 -0.50332 0.17941
v 0.54323 -0.61682 0.22235
v 0.24054 -0.52869 0.22432
v 0.00671 -0.53904 0.22331
v 0.08450 -0.50250 0.08850
v 0.31675 -0.48800 0.23150
v 0.02200 -0.50750 0.29450
v 0.51250 -0.48030 0.06105
v -0.62836 -0.61362 0.17853
v -0.36059 -0.52775 0.00147
v 0.51059 -0.67706 0.06571
v -0.57475 -0.64625 0.19050
v -0.39986 -0.68078 0.17596
v -0.57953 -0.67892 0.00127
v 0.33988 -0.67500 0.23150
v 0.26067 -0.67176 0.06403
v -0.55749 -0.69627 0.17764
v -0.42537 -0.69245 0.00057
v 0.25789 -0.67303 0.22436
v 0.38405 -0.73706 0.06381
v 0.40487 -0.74330 0.22352
usemtl m063
f 745 732 717
f 717 715 713
f 713 727 737
f 737 731 740
f 750 749 740
f 726 719 716
f 716 714 739
f 739 742 747
f 734 720 721
f 720 734 728
f 744 735 748
f 735 718 715
f 718 744 731
f 741 723 730
f 723 729 714
f 729 741 742
f 728 734 721
f 721 720 728
f 724 736 733
f 733 736 724
f 749 750 748
f 750 744 748
f 745 749 748
f 745 725 749
f 745 748 732
f 748 735 732
f 717 725 745
f 717 732 715
f 732 735 715
f 713 725 717
f 713 715 727
f 715 718 727
f 737 725 713
f 737 727 731
f 727 718 731
f 731 744 750
f 740 725 737
f 740 731 750
f 749 725 740
f 747 742 746
f 743 747 746
f 746 741 738
f 743 746 738
f 726 743 738
f 738 741 730
f 726 722 743
f 726 738 730
f 726 730 719
f 730 723 719
f 716 722 726
f 719 723 714
f 716 719 714
f 739 722 716
f 714 729 742
f 739 714 742
f 747 722 739
f 742 741 746
f 743 722 747
v 0.27150 -0.50500 0.50950
v 0.26900 -0.52300 0.50950
v 0.26922 -0.50522 0.53947
v 0.29990 -0.50922 0.53949
v 0.28492 -0.53630 0.53947
v 0.29225 -0.51337 0.50950
usemtl m066
f 752 756 755
f 753 752 755
f 751 752 753
f 756 751 753
f 754 756 753
f 755 756 754
f 753 755 754
v -0.59837 -0.37909 -0.06399
v -0.59582 -0.37671 0.03537
v -0.60050 -0.36886 0.21046
v -0.58625 -0.36850 0.27375
v -0.63630 -0.26760 -0.15150
v -0.65232 -0.31838 -0.07210
v -0.64164 -0.34018 0.06311
v -0.61507 -0.34471 0.19642
v -0.63423 -0.32186 0.29369
v -0.61157 -0.27854 0.40782
v -0.63837 -0.17440 -0.16230
v -0.68386 -0.16374 -0.08796
v -0.63477 -0.17953 0.05037
v -0.63556 -0.18118 0.16232
v -0.67331 -0.17252 0.32283
v -0.60796 -0.18692 0.41335
v -0.63950 -0.02862 -0.16696
v -0.68745 -0.02868 -0.09479
v -0.63207 -0.02900 0.08364
v -0.63536 -0.02900 0.15550
v -0.68227 -0.02873 0.32809
v -0.62696 -0.03343 0.41004
v -0.63867 0.10250 -0.16367
v -0.68368 0.10204 -0.08708
v -0.63515 0.11454 0.04558
v -0.63558 0.10417 0.16408
v -0.67227 0.10821 0.32202
v -0.60973 0.12062 0.41296
v -0.63663 0.19725 -0.15350
v -0.65945 0.25132 -0.07200
v -0.64184 0.27607 0.06127
v -0.61682 0.28243 0.19294
v -0.63868 0.25781 0.29753
v -0.60610 0.19896 0.41114
v -0.60864 0.31237 -0.06900
v -0.60715 0.31510 0.04813
v -0.60312 0.30827 0.21252
v -0.60104 0.30542 0.26729
v -0.57906 -0.38322 -0.04628
v -0.56630 -0.38412 0.07260
v -0.53779 -0.38559 0.18353
v -0.50846 -0.38243 0.30750
v -0.47232 -0.37504 0.42321
v -0.56267 -0.35883 0.35650
v -0.50709 -0.28630 0.44060
v -0.52994 -0.16089 0.43718
v -0.53587 -0.03181 0.44059
v -0.52755 0.08662 0.44009
v -0.56800 0.29200 0.37400
v -0.51269 0.21687 0.43910
v -0.57906 0.32611 -0.04628
v -0.56642 0.32677 0.07292
v -0.53763 0.32835 0.18409
v -0.51235 0.32377 0.31054
v -0.47922 0.31243 0.42607
v -0.42926 -0.39235 0.35638
v -0.39491 -0.38313 0.44058
v -0.43829 -0.36132 0.45629
v -0.44550 0.29825 0.45750
v -0.42926 0.33518 0.35638
v -0.39662 0.32495 0.44114
v 0.34220 -0.38620 0.44037
v 0.34223 0.32887 0.44030
v 0.45219 -0.39029 0.34519
v 0.39981 -0.38012 0.44145
v 0.45293 -0.33328 0.45269
v 0.46698 0.25558 0.45296
v 0.45219 0.33294 0.34519
v 0.40644 0.31948 0.44351
v 0.56683 -0.37028 -0.15533
v 0.58293 -0.37258 -0.08711
v 0.58190 -0.37919 0.05063
v 0.55227 -0.38341 0.18963
v 0.51311 -0.38349 0.31413
v 0.48250 -0.37900 0.38550
v 0.60517 -0.35625 -0.16400
v 0.60977 -0.36253 -0.09990
v 0.60750 -0.35757 0.08321
v 0.60014 -0.32936 0.20175
v 0.57764 -0.28767 0.31903
v 0.51825 -0.26216 0.43171
v 0.61400 -0.17125 0.22800
v 0.61159 -0.18427 0.26741
v 0.56092 -0.17693 0.42032
v 0.60950 -0.02900 0.26750
v 0.55322 -0.03116 0.42796
v 0.61383 0.09400 0.22583
v 0.61159 0.12682 0.26741
v 0.56045 0.10552 0.42155
v 0.61237 0.28700 -0.16662
v 0.61350 0.29400 -0.06850
v 0.61050 0.29633 0.09950
v 0.60318 0.25755 0.21064
v 0.58267 0.22164 0.31837
v 0.53051 0.19534 0.42758
v 0.58318 0.30932 -0.15879
v 0.58752 0.31362 -0.08971
v 0.58332 0.32071 0.05186
v 0.55599 0.32403 0.18861
v 0.51779 0.32150 0.31632
v 0.49250 0.31050 0.38850
v 0.63125 -0.27713 -0.16561
v 0.63617 -0.27610 -0.08601
v 0.63244 -0.30354 0.05030
v 0.62206 -0.30130 0.16372
v 0.62982 -0.24563 0.34716
v 0.62288 -0.24238 0.38963
v 0.63806 -0.17584 -0.16406
v 0.63602 -0.18926 -0.09511
v 0.63493 -0.17086 0.06079
v 0.62495 -0.18291 0.18477
v 0.63421 -0.17192 0.34063
v 0.62150 -0.17491 0.39368
v 0.64072 -0.02862 -0.16331
v 0.63959 -0.02874 -0.10094
v 0.63858 -0.03877 0.04588
v 0.62621 -0.04771 0.20164
v 0.63455 -0.05097 0.32940
v 0.62604 -0.05431 0.39250
v 0.63835 0.11364 -0.16401
v 0.63620 0.12124 -0.09383
v 0.63550 0.09960 0.06163
v 0.62467 0.08450 0.19642
v 0.63393 0.09520 0.33705
v 0.62234 0.09732 0.39390
v 0.63136 0.21786 -0.16562
v 0.63611 0.21526 -0.08703
v 0.63265 0.24459 0.05116
v 0.62260 0.23653 0.16380
v 0.62982 0.18841 0.34716
v 0.62220 0.18200 0.38990
v 0.61750 0.30100 0.01850
usemtl m086
f 850 857 851
f 883 876 882
f 859 864 865
f 827 833 832
f 867 838 835
f 876 870 877
f 886 851 850
f 862 869 868
f 862 868 839
f 874 875 842
f 874 875 881
f 841 880 844
f 841 873 838
f 824 855 856
f 823 850 851
f 884 847 883
f 885 884 878
f 872 878 877
f 872 877 871
f 836 838 867
f 861 835 836
f 861 860 835
f 835 834 829
f 828 834 833
f 832 833 859
f 813 814 801
f 772 766 801
f 811 806 805
f 778 771 777
f 808 787 786
f 779 785 786
f 767 773 774
f 796 758 757
f 796 758 759
f 801 799 798
f 772 765 771
f 784 803 778
f 772 803 802
f 851 887 850
f 759 763 758
f 767 768 774
f 779 773 774
f 786 780 781
f 775 781 787
f 776 775 769
f 776 782 781
f 798 760 765
f 777 776 770
f 777 783 782
f 783 777 778
f 794 788 789
f 776 782 788
f 808 793 809
f 792 791 787
f 808 807 791
f 810 817 816
f 837 869 840
f 887 881 880
f 850 886 880
f 839 874 868
f 867 873 868
f 874 879 880
f 879 843 844
f 884 855 849
f 798 813 799
f 789 782 788
f 777 776 782
f 777 771 770
f 774 780 781
f 774 775 769
f 837 822 840
f 825 857 856
f 855 856 849
f 854 884 888
f 854 884 883
f 846 853 883
f 877 871 870
f 832 858 859
f 828 827 859
f 828 860 834
f 830 829 836
f 828 834 835
f 860 867 861
f 867 838 861
f 836 838 839
f 821 820 830
f 821 830 836
f 821 830 831
f 871 870 865
f 865 858 859
f 862 837 840
f 840 869 868
f 840 875 869
f 874 875 869
f 862 868 874
f 841 868 874
f 836 862 839
f 845 875 842
f 845 881 880
f 874 881 880
f 841 874 880
f 845 887 881
f 886 887 851
f 841 844 843
f 806 784 790
f 849 850 856
f 885 849 850
f 850 849 879
f 873 843 879
f 884 848 854
f 884 854 853
f 846 847 853
f 873 879 878
f 884 883 877
f 860 866 865
f 873 872 866
f 861 867 866
f 861 835 867
f 835 829 836
f 822 836 821
f 860 834 835
f 790 784 804
f 803 804 784
f 813 801 799
f 803 778 772
f 817 806 811
f 816 811 810
f 794 810 805
f 806 789 805
f 794 793 810
f 784 783 789
f 808 792 791
f 808 792 787
f 791 792 786
f 779 786 780
f 761 767 762
f 796 758 762
f 762 758 757
f 764 797 759
f 763 764 759
f 796 795 757
f 764 798 797
f 765 800 798
f 812 799 813
f 766 801 765
f 772 766 765
f 778 772 771
f 887 886 850
f 762 763 769
f 774 768 769
f 774 775 781
f 775 769 763
f 764 770 769
f 759 798 760
f 759 797 798
f 764 765 771
f 764 771 770
f 765 760 800
f 801 766 800
f 798 799 800
f 784 783 778
f 784 790 783
f 789 790 805
f 810 789 805
f 787 788 792
f 837 863 869
f 863 862 868
f 875 842 840
f 851 881 887
f 875 881 845
f 836 839 868
f 844 880 874
f 839 867 868
f 850 843 849
f 884 848 855
f 865 871 872
f 865 872 866
f 860 859 865
f 792 793 788
f 775 781 788
f 789 783 782
f 775 776 770
f 763 769 770
f 765 764 770
f 762 768 769
f 823 851 845
f 882 846 883
f 876 883 877
f 864 859 858
f 873 867 866
f 837 862 836
f 881 886 880
f 887 886 881
f 887 845 851
f 844 850 843
f 839 841 838
f 784 806 804
f 850 823 856
f 849 885 879
f 848 849 854
f 879 885 878
f 872 873 878
f 835 836 867
f 829 820 830
f 827 828 833
f 806 790 804
f 802 772 801
f 817 815 806
f 810 811 805
f 790 784 789
f 792 808 786
f 774 779 780
f 758 796 763
f 797 796 759
f 800 801 798
f 863 837 836
f 763 764 769
f 770 776 769
f 775 776 781
f 766 765 800
f 790 806 805
f 789 810 794
f 793 808 792
f 817 810 811
f 881 851 845
f 886 887 880
f 844 850 880
f 885 884 849
f 848 854 855
f 781 786 787
f 769 775 770
f 825 823 851
f 857 825 851
f 857 850 856
f 824 825 856
f 853 854 883
f 853 846 852
f 870 865 864
f 827 833 859
f 860 828 859
f 826 832 827
f 829 828 835
f 867 860 866
f 838 835 861
f 838 836 835
f 838 867 839
f 822 821 837
f 837 821 836
f 882 877 883
f 876 877 882
f 858 865 864
f 869 862 840
f 869 874 868
f 868 841 839
f 886 850 844
f 880 886 844
f 873 841 843
f 856 823 825
f 843 850 879
f 854 849 855
f 847 884 853
f 848 884 849
f 847 846 883
f 878 884 877
f 860 861 866
f 838 873 867
f 836 822 837
f 834 828 829
f 834 860 833
f 833 860 859
f 811 816 817
f 789 794 805
f 810 793 809
f 806 790 789
f 762 767 768
f 763 796 762
f 764 765 798
f 799 812 798
f 765 801 800
f 862 863 836
f 762 758 763
f 781 788 787
f 782 788 781
f 764 759 765
f 765 759 760
f 783 788 782
f 760 798 800
f 799 801 800
f 790 789 783
f 789 788 783
f 806 810 805
f 811 810 806
f 788 794 793
f 791 786 787
f 869 863 868
f 881 875 880
f 875 869 868
f 874 875 868
f 880 875 874
f 862 836 868
f 873 874 868
f 879 844 880
f 879 874 873
f 843 879 849
f 813 798 812
f 782 775 788
f 776 775 782
f 771 765 770
f 764 763 770
v -0.49777 -0.31154 0.44377
v -0.50884 -0.21833 0.45203
v -0.52137 -0.12013 0.45188
v -0.47750 -0.04800 0.50350
v -0.52098 0.07329 0.45086
v -0.47750 -0.01000 0.50350
v -0.50748 0.17092 0.45247
v -0.49470 0.26145 0.44370
v -0.41670 -0.36600 0.46167
v -0.39326 -0.32861 0.52029
v -0.46950 -0.22860 0.48770
v -0.41745 -0.20801 0.53685
v -0.42066 -0.12461 0.54052
v -0.41974 0.07977 0.54063
v -0.46650 0.18871 0.48779
v -0.41825 0.16031 0.53547
v -0.41554 0.31088 0.46095
v -0.38982 0.27886 0.51800
v -0.29619 -0.39234 0.47074
v -0.27972 -0.34905 0.56884
v -0.29708 -0.21169 0.60343
v -0.30226 -0.06609 0.60421
v -0.29922 0.03514 0.60522
v -0.29810 0.16826 0.60263
v -0.29619 0.33517 0.47074
v -0.27862 0.29612 0.56648
v -0.15840 -0.37481 0.57558
v -0.12642 -0.33546 0.62881
v -0.19493 -0.21614 0.62279
v -0.14669 -0.20170 0.63174
v -0.16317 -0.06333 0.62350
v -0.15232 -0.07909 0.63435
v -0.12150 0.07500 0.62450
v -0.15555 0.04475 0.63437
v -0.19375 0.16825 0.62300
v -0.14389 0.16411 0.63096
v -0.15813 0.31848 0.57509
v -0.12358 0.28133 0.62883
v -0.02083 -0.38389 0.57998
v -0.02498 -0.34365 0.63266
v -0.02185 -0.20579 0.63990
v -0.02174 -0.07742 0.64400
v -0.02223 0.04532 0.64448
v -0.02172 0.16335 0.63877
v -0.02083 0.32681 0.57998
v -0.02498 0.28652 0.63266
v 0.11457 -0.37916 0.57727
v 0.09485 -0.33948 0.63007
v 0.17350 -0.18400 0.61850
v 0.10910 -0.20367 0.63455
v 0.14250 -0.08050 0.62300
v 0.11015 -0.07838 0.63832
v 0.11450 0.07500 0.62450
v 0.11115 0.04543 0.63872
v 0.17350 0.12700 0.61850
v 0.10971 0.16309 0.63338
v 0.11457 0.32207 0.57727
v 0.09218 0.28423 0.63014
v 0.26597 -0.39329 0.47703
v 0.24407 -0.35536 0.57413
v 0.27549 -0.20659 0.60707
v 0.18550 -0.19543 0.62693
v 0.27557 -0.07007 0.60859
v 0.18828 -0.08422 0.62894
v 0.27841 0.04715 0.60857
v 0.18825 0.04475 0.62875
v 0.27333 0.16348 0.60695
v 0.18350 0.16775 0.62600
v 0.26597 0.33624 0.47703
v 0.24380 0.30079 0.57264
v 0.37898 -0.38117 0.46098
v 0.35121 -0.33448 0.53794
v 0.39905 -0.20643 0.54582
v 0.38491 -0.11102 0.55869
v 0.39207 0.07093 0.55396
v 0.39697 0.15909 0.54640
v 0.37898 0.32392 0.46098
v 0.35185 0.28513 0.53226
v 0.47448 -0.32096 0.45278
v 0.44350 -0.29900 0.49750
v 0.50663 -0.21617 0.45029
v 0.44999 -0.22781 0.50539
v 0.51509 -0.12404 0.45177
v 0.45627 -0.12416 0.50879
v 0.51679 0.07705 0.44933
v 0.45610 0.07000 0.50870
v 0.50368 0.16872 0.45180
v 0.44997 0.17200 0.50521
v 0.47165 0.27046 0.45232
v 0.43750 0.25500 0.49650
v 0.59004 -0.18880 0.41266
v 0.57900 -0.15125 0.41300
v 0.58854 0.10082 0.41246
v 0.59003 0.13826 0.41271
usemtl m087
f 906 903 905
f 919 911 912
f 919 910 911
f 934 925 933
f 925 924 921
f 977 966 965
f 966 975 964
f 939 943 955
f 939 940 941
f 948 938 939
f 939 951 949
f 967 960 959
f 928 929 938
f 907 908 915
f 915 918 929
f 919 917 909
f 889 890 899
f 898 897 900
f 898 900 909
f 973 975 976
f 895 904 903
f 903 904 905
f 905 914 913
f 946 933 934
f 925 924 926
f 946 934 932
f 964 977 978
f 960 968 970
f 916 927 928
f 938 948 949
f 897 908 898
f 890 900 899
f 891 901 892
f 891 901 894
f 912 914 904
f 922 924 923
f 955 956 944
f 953 954 942
f 951 954 942
f 930 931 922
f 909 918 917
f 949 950 938
f 951 952 950
f 948 960 949
f 902 904 895
f 962 970 969
f 901 900 899
f 964 975 976
f 963 976 975
f 961 969 970
f 896 906 905
f 895 896 905
f 906 914 912
f 912 911 902
f 925 923 912
f 934 933 945
f 930 924 932
f 934 945 944
f 930 932 944
f 919 923 921
f 930 920 921
f 966 958 957
f 958 966 964
f 964 953 955
f 958 964 955
f 958 943 941
f 930 944 941
f 962 951 953
f 964 963 953
f 930 940 939
f 962 963 974
f 962 974 973
f 948 937 949
f 960 959 947
f 948 935 938
f 928 915 929
f 915 917 919
f 930 918 919
f 908 907 897
f 915 908 909
f 889 898 897
f 889 899 900
f 909 900 901
f 901 891 893
f 963 974 976
f 971 972 970
f 962 961 970
f 903 896 895
f 903 905 896
f 925 913 914
f 946 945 933
f 926 933 925
f 912 924 923
f 932 926 924
f 944 946 932
f 944 955 945
f 966 965 957
f 964 976 977
f 971 973 974
f 962 972 974
f 967 969 970
f 960 967 968
f 960 948 947
f 938 936 935
f 929 916 928
f 909 908 917
f 901 902 894
f 904 902 911
f 911 922 923
f 931 932 924
f 942 956 944
f 942 954 955
f 951 953 954
f 940 951 942
f 910 919 922
f 910 909 918
f 901 910 909
f 930 920 918
f 940 929 938
f 940 930 929
f 951 952 940
f 963 953 951
f 962 963 951
f 964 955 963
f 966 955 964
f 981 982 973
f 979 971 969
f 963 974 975
f 893 902 895
f 971 972 969
f 893 895 903
f 891 901 899
f 963 964 976
f 973 974 975
f 962 972 969
f 903 906 904
f 911 901 902
f 923 919 912
f 925 934 932
f 945 958 944
f 923 925 921
f 975 966 977
f 953 939 955
f 943 939 941
f 951 939 953
f 937 948 939
f 937 939 949
f 960 948 961
f 967 960 961
f 927 928 935
f 935 928 938
f 910 919 909
f 908 898 909
f 974 973 976
f 972 962 970
f 912 925 914
f 966 964 978
f 976 975 977
f 961 960 970
f 916 929 918
f 908 915 917
f 893 891 894
f 922 931 924
f 931 942 944
f 930 940 931
f 920 930 922
f 919 920 922
f 911 910 922
f 919 910 920
f 949 951 950
f 962 949 961
f 955 953 963
f 955 966 958
f 903 895 905
f 905 914 906
f 904 906 912
f 904 912 902
f 910 901 911
f 924 925 932
f 932 934 944
f 920 919 921
f 924 930 921
f 943 958 955
f 944 958 941
f 940 930 941
f 963 962 953
f 938 930 939
f 971 962 973
f 972 962 971
f 962 961 951
f 961 948 949
f 951 961 949
f 969 967 961
f 929 930 938
f 915 928 927
f 918 930 929
f 918 915 919
f 920 930 919
f 917 915 909
f 897 889 900
f 902 901 893
f 969 971 970
f 905 904 906
f 933 926 934
f 923 924 925
f 926 932 934
f 944 945 946
f 955 958 945
f 977 966 978
f 972 971 974
f 968 967 970
f 927 916 915
f 935 936 927
f 927 936 928
f 936 938 929
f 928 936 929
f 916 918 915
f 915 918 917
f 889 897 890
f 890 897 900
f 902 893 894
f 914 906 904
f 912 904 911
f 912 911 923
f 932 931 944
f 954 953 955
f 956 942 955
f 931 940 942
f 920 910 918
f 950 940 938
f 952 940 950
f 951 949 962
f 973 982 975
f 971 979 980
f 960 961 949
f 901 891 890
f 900 901 890
f 902 893 903
f 904 902 903
f 890 891 899
