# daf_wheel_fr.obj - ISO 8855 (x ileri, y sol, z yukari), metre
mtllib daf.mtl
o daf_wheel_fr
v 0.16308 0.15245 -0.43986
v -0.12385 0.15194 -0.45163
v -0.39488 0.15441 -0.16799
v 0.46094 0.15170 -0.06684
v -0.41494 0.15259 -0.21548
v 0.33697 0.14552 -0.11895
v 0.45004 0.15275 0.12694
v 0.38471 0.14807 0.28385
v 0.32282 0.15399 0.31397
v -0.42692 0.15105 0.19831
v -0.17278 0.14627 0.31043
v -0.03523 0.15302 0.46085
v 0.15883 0.15243 0.43991
v -0.21398 0.15173 0.41695
v 0.43265 0.15326 -0.17232
v -0.42483 0.15489 0.12217
v -0.02599 0.14499 -0.49068
v 0.24976 0.14496 -0.42088
v -0.22163 0.15021 -0.42540
v 0.35248 0.14557 -0.33366
v -0.39543 0.14498 -0.28616
v 0.48731 0.14318 -0.07099
v -0.41082 0.14572 0.26215
v 0.19989 0.14498 0.44609
v -0.33459 0.14495 0.35811
v -0.07277 0.14494 0.48558
v 0.42743 0.14883 -0.21957
v -0.46747 0.14812 -0.09375
v 0.01827 0.14553 -0.35431
v 0.18421 0.14595 -0.30690
v -0.16602 0.14564 -0.31438
v 0.34482 0.14550 0.08836
v -0.32976 0.14059 -0.12010
v 0.22914 0.14522 0.27229
v -0.32273 0.14537 0.15503
v 0.03436 0.14539 0.35544
v -0.51117 0.13219 -0.04728
v 0.47328 0.13960 0.14241
v -0.48312 0.14005 0.08903
v -0.38012 0.13311 0.33996
v -0.30841 0.13304 0.40666
v -0.29650 0.13200 0.40850
v 0.01862 0.12895 -0.32792
v 0.20796 0.12896 -0.25413
v -0.17840 0.12895 -0.27495
v 0.31721 0.12899 -0.08491
v -0.30583 0.12896 -0.11756
v 0.30614 0.12895 0.11930
v -0.31745 0.12897 0.08281
v 0.17718 0.12896 0.27674
v -0.20629 0.12895 0.25496
v -0.01771 0.12896 0.32773
v 0.01922 0.13260 -0.51700
v 0.17098 0.13266 -0.48377
v 0.37314 0.13296 -0.35177
v -0.27612 0.13324 -0.43318
v 0.50981 0.13247 -0.09392
v -0.45088 0.13222 -0.24511
v -0.50142 0.13138 0.13483
v 0.38881 0.13164 0.33756
v 0.23434 0.13206 0.46240
v 0.05266 0.13270 0.51208
v -0.16550 0.13278 0.48233
v 0.19025 0.12600 -0.24787
v -0.04063 0.12600 -0.31062
v 0.31275 0.12600 -0.01612
v -0.23538 0.12600 -0.21200
v -0.31625 0.12600 -0.04975
v 0.26875 0.12600 0.17450
v 0.16800 0.12600 0.27425
v -0.28187 0.12600 0.13925
v -0.08850 0.12600 0.30063
v 0.00050 0.12500 -0.52050
v 0.05450 0.12500 -0.51750
v -0.05450 0.12500 -0.51750
v 0.10850 0.12500 -0.50950
v -0.10850 0.12500 -0.50950
v 0.16150 0.12500 -0.49550
v -0.16050 0.12500 -0.49550
v 0.21250 0.12500 -0.47550
v -0.21150 0.12500 -0.47550
v 0.26050 0.12500 -0.45050
v -0.26050 0.12500 -0.45050
v 0.30650 0.12500 -0.42150
v -0.30550 0.12500 -0.42150
v 0.34850 0.12500 -0.38650
v -0.34850 0.12500 -0.38650
v 0.38750 0.12500 -0.34850
v -0.38650 0.12500 -0.34850
v 0.42150 0.12500 -0.30550
v -0.42150 0.12500 -0.30550
v 0.45150 0.12500 -0.26050
v -0.45050 0.12500 -0.26050
v 0.47650 0.12500 -0.21150
v 0.49550 0.12500 -0.16050
v -0.49550 0.12500 -0.16050
v 0.50950 0.12500 -0.10850
v -0.50950 0.12500 -0.10850
v 0.51850 0.12500 -0.05450
v -0.51750 0.12500 -0.05450
v 0.52150 0.12500 0.00050
v 0.51850 0.12500 0.05450
v 0.48713 0.12947 0.18686
v -0.50950 0.12500 0.10850
v -0.49550 0.12500 0.16150
v -0.47550 0.12500 0.21250
v -0.45050 0.12500 0.26050
v -0.42150 0.12500 0.30650
v 0.38750 0.12500 0.34850
v -0.38650 0.12500 0.34850
v 0.34850 0.12500 0.38750
v -0.34850 0.12500 0.38750
v 0.30650 0.12500 0.42150
v -0.30550 0.12500 0.42150
v 0.26050 0.12500 0.45150
v -0.26050 0.12500 0.45150
v 0.21250 0.12500 0.47650
v -0.21150 0.12500 0.47650
v 0.16150 0.12500 0.49550
v -0.16050 0.12500 0.49550
v 0.10850 0.12500 0.50950
v -0.10850 0.12500 0.50950
v 0.05450 0.12500 0.51850
v -0.05450 0.12500 0.51850
v 0.00050 0.12500 0.52150
v 0.00050 0.12400 -0.52050
v 0.05450 0.12400 -0.51750
v -0.05450 0.12400 -0.51750
v 0.10850 0.12400 -0.50950
v -0.10850 0.12400 -0.50950
v 0.16150 0.12400 -0.49550
v -0.16050 0.12400 -0.49550
v 0.21250 0.12400 -0.47550
v -0.21150 0.12400 -0.47550
v 0.26050 0.12400 -0.45050
v -0.26050 0.12400 -0.45050
v 0.30650 0.12400 -0.42150
v -0.30550 0.12400 -0.42150
v 0.34850 0.12400 -0.38650
v -0.34850 0.12400 -0.38650
v 0.38750 0.12400 -0.34850
v -0.38650 0.12400 -0.34850
v 0.42150 0.12400 -0.30550
v -0.42150 0.12400 -0.30550
v 0.45150 0.12400 -0.26050
v -0.45050 0.12400 -0.26050
v 0.47650 0.12400 -0.21150
v -0.47550 0.12400 -0.21150
v 0.49550 0.12400 -0.16050
v -0.49550 0.12400 -0.16050
v 0.50950 0.12400 -0.10850
v -0.50950 0.12400 -0.10850
v 0.51850 0.12400 -0.05450
v -0.51750 0.12400 -0.05450
v 0.52150 0.12400 0.00050
v -0.52050 0.12400 0.00050
v 0.51850 0.12400 0.05450
v -0.51750 0.12400 0.05450
v 0.50950 0.12400 0.10850
v -0.50950 0.12400 0.10850
v 0.49550 0.12400 0.16150
v -0.49550 0.12400 0.16150
v 0.47650 0.12400 0.21250
v -0.47550 0.12400 0.21250
v 0.45150 0.12400 0.26050
v -0.45050 0.12400 0.26050
v 0.42150 0.12400 0.30650
v -0.42150 0.12400 0.30650
v 0.38750 0.12400 0.34850
v -0.38650 0.12400 0.34850
v 0.34850 0.12400 0.38750
v -0.34850 0.12400 0.38750
v 0.30650 0.12400 0.42150
v -0.30550 0.12400 0.42150
v 0.26050 0.12400 0.45150
v -0.26050 0.12400 0.45150
v 0.21250 0.12400 0.47650
v -0.21150 0.12400 0.47650
v 0.16150 0.12400 0.49550
v -0.16050 0.12400 0.49550
v 0.10850 0.12400 0.50950
v -0.10850 0.12400 0.50950
v 0.05450 0.12400 0.51850
v -0.05450 0.12400 0.51850
v 0.00050 0.12400 0.52150
v 0.00050 0.12100 -0.52050
v 0.05450 0.12100 -0.51750
v -0.05450 0.12100 -0.51750
v 0.10850 0.12100 -0.50950
v -0.10850 0.12100 -0.50950
v 0.16150 0.12100 -0.49550
v -0.16050 0.12100 -0.49550
v 0.21250 0.12100 -0.47550
v -0.21150 0.12100 -0.47550
v 0.26050 0.12100 -0.45050
v -0.26050 0.12100 -0.45050
v -0.30550 0.12100 -0.42150
v -0.34850 0.12100 -0.38650
v 0.39625 0.12014 -0.33896
v -0.38650 0.12100 -0.34850
v 0.42150 0.12100 -0.30550
v -0.42150 0.12100 -0.30550
v 0.45150 0.12100 -0.26050
v -0.45050 0.12100 -0.26050
v 0.47650 0.12100 -0.21150
v -0.47550 0.12100 -0.21150
v 0.49550 0.12100 -0.16050
v -0.49550 0.12100 -0.16050
v 0.50950 0.12100 -0.10850
v -0.50950 0.12100 -0.10850
v 0.51850 0.12100 -0.05450
v -0.51750 0.12100 -0.05450
v 0.52150 0.12100 0.00050
v -0.52050 0.12100 0.00050
v 0.51850 0.12100 0.05450
v -0.51750 0.12100 0.05450
v 0.50950 0.12100 0.10850
v -0.50950 0.12100 0.10850
v 0.49550 0.12100 0.16150
v -0.49550 0.12100 0.16150
v 0.47650 0.12100 0.21250
v -0.47550 0.12100 0.21250
v 0.45150 0.12100 0.26050
v -0.45050 0.12100 0.26050
v 0.42150 0.12100 0.30650
v -0.42150 0.12100 0.30650
v 0.38750 0.12100 0.34850
v -0.38650 0.12100 0.34850
v 0.34850 0.12100 0.38750
v -0.34850 0.12100 0.38750
v 0.30650 0.12100 0.42150
v -0.30550 0.12100 0.42150
v 0.26050 0.12100 0.45150
v -0.26050 0.12100 0.45150
v 0.21250 0.12100 0.47650
v -0.21150 0.12100 0.47650
v 0.16150 0.12100 0.49550
v -0.16050 0.12100 0.49550
v 0.10850 0.12100 0.50950
v -0.10850 0.12100 0.50950
v 0.05450 0.12100 0.51850
v -0.05450 0.12100 0.51850
v 0.00050 0.12100 0.52150
v 0.00050 0.11900 -0.52050
v 0.05450 0.11900 -0.51750
v -0.05450 0.11900 -0.51750
v 0.10850 0.11900 -0.50950
v -0.10850 0.11900 -0.50950
v 0.16150 0.11900 -0.49550
v -0.16050 0.11900 -0.49550
v 0.21250 0.11900 -0.47550
v -0.21150 0.11900 -0.47550
v 0.26050 0.11900 -0.45050
v -0.26050 0.11900 -0.45050
v 0.30650 0.11900 -0.42150
v -0.30550 0.11900 -0.42150
v 0.31580 0.11997 -0.41489
v -0.34850 0.11900 -0.38650
v 0.37221 0.11956 -0.36501
v -0.38650 0.11900 -0.34850
v -0.42150 0.11900 -0.30550
v 0.45150 0.11900 -0.26050
v -0.45050 0.11900 -0.26050
v 0.47650 0.11900 -0.21150
v -0.48819 0.11728 -0.18560
v 0.49550 0.11900 -0.16050
v -0.49550 0.11900 -0.16050
v 0.50950 0.11900 -0.10850
v -0.50950 0.11900 -0.10850
v 0.51850 0.11900 -0.05450
v -0.51750 0.11900 -0.05450
v 0.52150 0.11900 0.00050
v -0.52050 0.11900 0.00050
v 0.51850 0.11900 0.05450
v -0.51750 0.11900 0.05450
v 0.50950 0.11900 0.10850
v -0.50950 0.11900 0.10850
v 0.49550 0.11900 0.16150
v -0.49550 0.11900 0.16150
v 0.47650 0.11900 0.21250
v -0.47550 0.11900 0.21250
v 0.45150 0.11900 0.26050
v -0.45050 0.11900 0.26050
v 0.42150 0.11900 0.30650
v -0.42150 0.11900 0.30650
v 0.38750 0.11900 0.34850
v -0.38650 0.11900 0.34850
v 0.34850 0.11900 0.38750
v -0.34850 0.11900 0.38750
v 0.30650 0.11900 0.42150
v -0.30550 0.11900 0.42150
v 0.26050 0.11900 0.45150
v -0.26050 0.11900 0.45150
v 0.21250 0.11900 0.47650
v -0.21150 0.11900 0.47650
v 0.16150 0.11900 0.49550
v -0.16050 0.11900 0.49550
v 0.10850 0.11900 0.50950
v -0.10850 0.11900 0.50950
v 0.05450 0.11900 0.51850
v -0.05450 0.11900 0.51850
v 0.00050 0.11900 0.52150
v -0.05360 0.11649 -0.53815
v 0.00314 0.11606 -0.53922
v -0.05450 0.11700 -0.52050
v -0.19195 0.11630 -0.50953
v -0.10850 0.11700 -0.51150
v 0.11580 0.11631 -0.52923
v -0.19106 0.11700 -0.48789
v -0.29018 0.11700 -0.43638
v 0.32020 0.11700 -0.41516
v -0.37979 0.11700 -0.37591
v 0.43449 0.11669 -0.32224
v -0.43632 0.11601 -0.31967
v 0.46365 0.11604 -0.27262
v -0.41075 0.11700 -0.32528
v 0.51802 0.11671 -0.16418
v -0.48593 0.11644 -0.23775
v 0.51707 0.11701 -0.08597
v 0.52350 0.11700 0.00050
v 0.54341 0.11559 0.03092
v -0.53351 0.11582 0.08148
v 0.50678 0.11698 0.19311
v 0.50832 0.11695 0.13158
v 0.47049 0.11597 0.27142
v -0.48882 0.11700 0.18823
v -0.45350 0.11700 0.26250
v 0.44477 0.11699 0.27770
v -0.47407 0.11681 0.26078
v -0.42350 0.11700 0.30750
v -0.36225 0.11700 0.37923
v 0.39257 0.11622 0.37081
v -0.40457 0.11700 0.35847
v -0.30750 0.11700 0.42350
v 0.33640 0.11600 0.42351
v -0.30850 0.11700 0.42550
v -0.31748 0.11667 0.43855
v 0.26250 0.11700 0.45350
v -0.26150 0.11700 0.45350
v -0.26250 0.11700 0.45550
v 0.21446 0.11650 0.49770
v -0.21250 0.11700 0.47850
v -0.19168 0.11641 0.50922
v 0.13968 0.11557 0.52190
v -0.07717 0.11704 0.51840
v 0.01821 0.11671 0.54064
v 0.32431 0.11571 -0.44029
v -0.36292 0.11663 -0.40410
v -0.53680 0.11597 -0.08578
v -0.40246 0.11530 0.36513
v 0.00072 0.08483 0.55214
v 0.13312 0.08203 -0.53159
v -0.03519 0.08200 -0.52989
v -0.09060 0.08201 -0.54035
v 0.18165 0.08200 -0.49878
v -0.25037 0.08200 -0.46805
v 0.33902 0.08198 -0.43088
v -0.30434 0.08202 -0.45556
v 0.36797 0.08200 -0.38302
v -0.41999 0.08200 -0.32419
v 0.48771 0.08201 -0.25056
v -0.46425 0.08201 -0.29124
v 0.49329 0.08200 -0.19888
v 0.53042 0.08239 -0.09694
v -0.51534 0.08200 -0.12701
v -0.54080 0.08218 -0.06310
v 0.51541 0.08247 0.16224
v -0.52257 0.09652 0.16517
v -0.48305 0.08200 0.21781
v 0.37798 0.08200 0.37014
v -0.36697 0.08200 0.38402
v 0.40174 0.08217 0.36875
v -0.40098 0.08207 0.38845
v 0.25208 0.08200 0.46851
v 0.23003 0.08205 0.49558
v 0.05824 0.08200 0.52675
v -0.16583 0.08229 0.50991
v 0.02727 0.06989 -0.54273
v 0.06959 0.06987 -0.53909
v -0.01584 0.07001 -0.54295
v 0.11140 0.06993 -0.53130
v -0.05843 0.06998 -0.53957
v 0.15297 0.06987 -0.52125
v -0.10044 0.06997 -0.53393
v 0.19281 0.07009 -0.50759
v 0.01950 0.07000 -0.51650
v -0.14225 0.07012 -0.52378
v 0.05950 0.07000 -0.51300
v -0.02150 0.07000 -0.51600
v 0.10000 0.07000 -0.50700
v -0.06150 0.07000 -0.51300
v 0.23237 0.06991 -0.49058
v 0.13950 0.07000 -0.49750
v -0.10200 0.07000 -0.50650
v -0.18251 0.06973 -0.51100
v 0.17800 0.07000 -0.48500
v -0.14150 0.07000 -0.49650
v 0.27063 0.06990 -0.47064
v -0.22203 0.06988 -0.49487
v 0.21550 0.07000 -0.46950
v -0.18000 0.07000 -0.48400
v 0.30660 0.06980 -0.44866
v -0.26042 0.06971 -0.47617
v 0.25200 0.07000 -0.45150
v -0.21750 0.07000 -0.46850
v 0.28650 0.07000 -0.43050
v -0.25350 0.07000 -0.45050
v 0.34108 0.06986 -0.42342
v -0.29688 0.06995 -0.45421
v 0.31950 0.07000 -0.40650
v -0.28800 0.07000 -0.42900
v 0.37262 0.06993 -0.39511
v -0.33119 0.06975 -0.42930
v 0.35050 0.07000 -0.38050
v -0.32050 0.07000 -0.40500
v 0.40243 0.06983 -0.36422
v -0.36464 0.06999 -0.40187
v 0.37900 0.07000 -0.35150
v -0.35150 0.07000 -0.37850
v 0.42997 0.06983 -0.33154
v -0.39541 0.06989 -0.37282
v 0.40550 0.07000 -0.32050
v -0.38050 0.07000 -0.34950
v 0.45432 0.07007 -0.29712
v -0.42322 0.06985 -0.33990
v 0.42900 0.07000 -0.28800
v -0.40650 0.07000 -0.31850
v 0.47681 0.06982 -0.26071
v -0.44845 0.07000 -0.30623
v 0.45050 0.07000 -0.25350
v -0.43000 0.07000 -0.28600
v 0.49584 0.06999 -0.22236
v -0.47036 0.06977 -0.26974
v 0.46900 0.07000 -0.21750
v -0.45100 0.07000 -0.25100
v 0.51220 0.06982 -0.18295
v -0.49067 0.06998 -0.23224
v 0.48500 0.07000 -0.18000
v -0.46950 0.07000 -0.21500
v 0.52457 0.07009 -0.14215
v -0.50762 0.06969 -0.19301
v 0.49750 0.07000 -0.14150
v -0.48500 0.07000 -0.17750
v 0.53368 0.06984 -0.10023
v -0.52103 0.06977 -0.15268
v 0.50700 0.07000 -0.10200
v -0.49750 0.07000 -0.13850
v 0.54067 0.06990 -0.05834
v -0.53130 0.06993 -0.11040
v 0.51350 0.07000 -0.06150
v -0.50700 0.07000 -0.09900
v 0.54369 0.07000 -0.01581
v -0.53887 0.06987 -0.06924
v 0.51700 0.07000 -0.02150
v -0.51300 0.07000 -0.05950
v 0.54226 0.06985 0.02721
v 0.51650 0.07000 0.01950
v -0.51650 0.07000 -0.01850
v -0.54281 0.06980 -0.02642
v 0.51400 0.07000 0.05950
v -0.51600 0.07000 0.02150
v 0.53893 0.06967 0.06953
v -0.54269 0.07000 0.01650
v 0.50750 0.07000 0.10000
v -0.51250 0.07000 0.06250
v 0.53213 0.06986 0.11163
v -0.53950 0.06989 0.05865
v 0.49800 0.07000 0.13950
v -0.50600 0.07000 0.10250
v 0.52110 0.06990 0.15260
v -0.53403 0.06989 0.10134
v 0.48600 0.07000 0.17800
v -0.49650 0.07000 0.14200
v 0.50766 0.06997 0.19287
v -0.52412 0.06983 0.14226
v 0.47050 0.07000 0.21550
v -0.48400 0.07000 0.18050
v 0.49158 0.06991 0.23237
v -0.51100 0.06992 0.18281
v 0.45200 0.07000 0.25200
v -0.46850 0.07000 0.21800
v 0.47172 0.06990 0.27071
v -0.49525 0.06972 0.22222
v 0.43100 0.07000 0.28600
v -0.45000 0.07000 0.25400
v 0.44853 0.06992 0.30619
v -0.47617 0.06990 0.26069
v 0.40700 0.07000 0.31950
v -0.42900 0.07000 0.28850
v 0.42333 0.06999 0.34076
v -0.45493 0.06972 0.29723
v 0.38050 0.07000 0.35000
v -0.40500 0.07000 0.32150
v 0.39524 0.06993 0.37248
v -0.42960 0.06987 0.33223
v 0.35250 0.07000 0.37900
v -0.37850 0.07000 0.35250
v 0.36469 0.06985 0.40282
v -0.40225 0.06993 0.36516
v 0.32150 0.07000 0.40500
v -0.34950 0.07000 0.38050
v 0.33247 0.06992 0.43016
v -0.37280 0.06972 0.39528
v 0.28850 0.07000 0.42900
v -0.31850 0.07000 0.40700
v 0.29748 0.06983 0.45505
v -0.33981 0.06992 0.42324
v 0.25400 0.07000 0.45050
v -0.28600 0.07000 0.43100
v 0.21800 0.07000 0.46900
v -0.25100 0.07000 0.45200
v 0.26091 0.07000 0.47672
v -0.30595 0.06997 0.44842
v 0.18050 0.07000 0.48500
v -0.21500 0.07000 0.47050
v 0.22357 0.06996 0.49629
v -0.26975 0.06974 0.47131
v 0.14200 0.07000 0.49750
v -0.17750 0.07000 0.48550
v 0.18402 0.07010 0.51217
v 0.10250 0.07000 0.50700
v -0.13850 0.07000 0.49800
v -0.23245 0.06999 0.49208
v 0.06250 0.07000 0.51350
v -0.09900 0.07000 0.50750
v 0.02150 0.07000 0.51700
v -0.05900 0.07000 0.51400
v -0.01850 0.07000 0.51650
v 0.14216 0.06980 0.52489
v -0.19295 0.06967 0.50753
v 0.10121 0.06983 0.53390
v -0.15240 0.06973 0.52106
v 0.05864 0.06987 0.53981
v -0.11051 0.06990 0.53158
v 0.01651 0.06978 0.54286
v -0.06901 0.06999 0.53831
v -0.02637 0.06975 0.54236
v -0.00360 0.02418 -0.54355
v -0.04665 0.02468 -0.54186
v 0.03923 0.02421 -0.54148
v -0.08820 0.02432 -0.53579
v 0.08169 0.02433 -0.53648
v -0.12987 0.02409 -0.52745
v 0.12347 0.02434 -0.52882
v -0.17141 0.02439 -0.51589
v 0.00300 0.03200 -0.51725
v -0.02950 0.03100 -0.51650
v 0.05150 0.03100 -0.51450
v 0.16477 0.02444 -0.51764
v -0.06950 0.03100 -0.51250
v 0.09150 0.03100 -0.50900
v -0.21113 0.02441 -0.50107
v -0.11000 0.03100 -0.50500
v 0.13150 0.03100 -0.50000
v 0.20449 0.02455 -0.50391
v -0.15750 0.03200 -0.49225
v -0.24934 0.02435 -0.48181
v 0.17250 0.03300 -0.48750
v -0.18750 0.03100 -0.48200
v 0.24370 0.02437 -0.48556
v 0.21050 0.03300 -0.47250
v -0.28718 0.02438 -0.46122
v -0.22500 0.03100 -0.46550
v 0.28069 0.02429 -0.46441
v 0.24500 0.03100 -0.45550
v -0.26100 0.03100 -0.44650
v -0.32252 0.02437 -0.43744
v 0.28000 0.03100 -0.43550
v 0.31631 0.02450 -0.44121
v -0.29500 0.03100 -0.42450
v -0.35640 0.02486 -0.40994
v 0.31300 0.03100 -0.41200
v 0.35002 0.02471 -0.41530
v -0.32550 0.03300 -0.40150
v -0.38573 0.02418 -0.38149
v 0.34500 0.03100 -0.38600
v 0.38169 0.02442 -0.38718
v -0.35800 0.03100 -0.37300
v -0.41534 0.02442 -0.35012
v 0.37550 0.03300 -0.35650
v -0.38450 0.03300 -0.34550
v 0.41170 0.02465 -0.35620
v -0.44149 0.02420 -0.31624
v 0.40100 0.03100 -0.32800
v -0.41200 0.03100 -0.31300
v 0.43862 0.02437 -0.32261
v -0.46467 0.02425 -0.28109
v 0.42550 0.03100 -0.29500
v -0.43450 0.03300 -0.28150
v 0.46194 0.02431 -0.28724
v 0.44750 0.03100 -0.26100
v -0.48609 0.02423 -0.24341
v -0.45450 0.03300 -0.24650
v 0.48302 0.02437 -0.24948
v 0.46650 0.03100 -0.22500
v -0.50234 0.02440 -0.20404
v -0.47250 0.03300 -0.20950
v 0.50081 0.02462 -0.21131
v 0.48350 0.03300 -0.18550
v -0.51750 0.02415 -0.16428
v -0.48850 0.03100 -0.17000
v 0.51540 0.02449 -0.17149
v 0.49600 0.03100 -0.14950
v -0.52874 0.02414 -0.12304
v -0.50000 0.03100 -0.13100
v 0.52769 0.02411 -0.12978
v 0.50600 0.03100 -0.11000
v -0.53636 0.02420 -0.08112
v -0.50900 0.03100 -0.09150
v 0.53692 0.02417 -0.08766
v 0.51300 0.03100 -0.07000
v -0.54171 0.02430 -0.03895
v -0.51450 0.03100 -0.05150
v 0.54197 0.02438 -0.04630
v 0.51700 0.03100 -0.02950
v -0.54258 0.02431 0.00378
v -0.51750 0.03100 -0.01050
v 0.54373 0.02419 -0.00358
v 0.51725 0.03200 0.00300
v -0.51650 0.03100 0.03050
v -0.54172 0.02419 0.04655
v 0.51550 0.03100 0.05150
v 0.54288 0.02433 0.03929
v -0.51250 0.03100 0.07050
v -0.53572 0.02429 0.08904
v 0.50950 0.03100 0.09150
v 0.53779 0.02432 0.08196
v -0.50500 0.03100 0.11050
v -0.52772 0.02431 0.13093
v 0.50100 0.03100 0.13150
v 0.52974 0.02433 0.12354
v -0.49500 0.03100 0.14950
v -0.51583 0.02423 0.17182
v 0.48900 0.03100 0.17050
v 0.51919 0.02456 0.16483
v -0.48200 0.03100 0.18850
v -0.50097 0.02398 0.21098
v 0.47400 0.03100 0.20850
v 0.50422 0.02417 0.20530
v -0.46150 0.03200 0.23275
v -0.48173 0.02448 0.25084
v 0.45650 0.03100 0.24500
v 0.48649 0.02436 0.24374
v -0.44750 0.03300 0.25950
v -0.46118 0.02425 0.28710
v 0.43550 0.03100 0.28000
v -0.42550 0.03300 0.29350
v 0.46543 0.02427 0.28081
v -0.43725 0.02430 0.32255
v 0.41250 0.03100 0.31300
v -0.40000 0.03100 0.32800
v 0.44240 0.02451 0.31666
v -0.41007 0.02428 0.35591
v 0.38550 0.03300 0.34650
v -0.37300 0.03100 0.35850
v 0.41669 0.02442 0.34996
v 0.35850 0.03100 0.37400
v -0.38192 0.02425 0.38676
v -0.34400 0.03100 0.38650
v 0.38717 0.02420 0.38173
v 0.32800 0.03100 0.40050
v -0.35033 0.02429 0.41640
v -0.31450 0.03300 0.41150
v 0.35580 0.02402 0.41185
v 0.29600 0.03100 0.42550
v -0.31627 0.02442 0.44301
v -0.27900 0.03100 0.43550
v 0.32225 0.02413 0.43856
v 0.25950 0.03300 0.44850
v -0.24650 0.03300 0.45550
v -0.28147 0.02404 0.46537
v 0.22350 0.03300 0.46750
v 0.28715 0.02418 0.46189
v -0.20750 0.03100 0.47400
v -0.24332 0.02406 0.48551
v 0.18650 0.03300 0.48350
v -0.17000 0.03100 0.48900
v 0.25115 0.02455 0.48287
v 0.14950 0.03100 0.49600
v -0.20434 0.02439 0.50384
v -0.13100 0.03100 0.50100
v 0.11050 0.03100 0.50600
v 0.21123 0.02425 0.50021
v -0.09150 0.03100 0.50950
v 0.07050 0.03100 0.51300
v -0.16460 0.02432 0.51862
v -0.05150 0.03100 0.51550
v 0.03050 0.03100 0.51700
v -0.01050 0.03100 0.51750
v 0.17192 0.02441 0.51526
v -0.12308 0.02415 0.52962
v 0.13085 0.02433 0.52796
v -0.08124 0.02424 0.53779
v 0.08911 0.02432 0.53692
v -0.03901 0.02439 0.54308
v 0.04654 0.02421 0.54154
v 0.00362 0.02430 0.54341
v 0.26025 0.02150 -0.44588
v -0.27200 0.02100 -0.43950
v -0.44150 0.02100 -0.26800
v 0.46000 0.02100 -0.23650
v 0.51325 0.02100 -0.06275
v 0.51675 0.02100 0.01825
v 0.49375 0.02150 0.15388
v -0.49050 0.02100 0.16200
v -0.46175 0.02150 0.23163
v 0.42000 0.02100 0.30250
v -0.42800 0.02100 0.28900
v 0.28900 0.02100 0.42875
v -0.28500 0.02100 0.43100
v 0.22700 0.02150 0.46438
v 0.16250 0.02100 0.49150
v -0.10900 0.02150 0.50512
v -0.01775 0.02100 0.51675
v 0.18513 0.02132 -0.51263
v 0.06887 0.02100 -0.51150
v -0.04250 0.02100 -0.51500
v 0.16725 0.02100 -0.48800
v -0.12275 0.02100 -0.50175
v -0.20952 0.02166 -0.50229
v 0.28405 0.02165 -0.46510
v -0.19950 0.02100 -0.47675
v 0.33450 0.02100 -0.39450
v -0.33375 0.02050 -0.39375
v -0.40074 0.02173 -0.37021
v 0.41288 0.02050 -0.30950
v -0.39075 0.02150 -0.33813
v 0.49500 0.02050 -0.14775
v -0.47600 0.02050 -0.19925
v 0.52950 0.02154 -0.12938
v -0.51801 0.02170 -0.16748
v -0.50275 0.02100 -0.11825
v -0.54145 0.02196 -0.06457
v -0.51500 0.02100 -0.03825
v 0.53837 0.02164 0.08435
v -0.51312 0.02100 0.05312
v 0.46200 0.02100 0.23300
v 0.35650 0.02050 0.37400
v -0.36350 0.02100 0.36725
v -0.31914 0.02162 0.44137
v -0.19550 0.02100 0.47875
v -0.24559 0.02158 0.48662
v 0.08350 0.02100 0.51075
v 0.12739 0.02183 0.52956
v -0.16770 0.02181 0.51791
v -0.08389 0.02168 0.53781
v -0.07415 -0.08237 -0.53462
v 0.22122 -0.08200 -0.48377
v -0.28309 -0.08211 -0.46807
v 0.40698 -0.08200 -0.34147
v -0.29757 -0.08200 -0.43936
v -0.45128 -0.08200 -0.27926
v 0.50449 -0.08200 -0.16470
v 0.52827 -0.08200 0.06379
v -0.52128 -0.08200 0.08388
v 0.45091 -0.08200 0.28222
v -0.46751 -0.08200 0.25208
v 0.31261 -0.08200 0.42911
v -0.32419 -0.08200 0.42099
v 0.10967 -0.08200 0.52109
v -0.12935 -0.08200 0.51563
v -0.00012 0.02176 -0.54439
v 0.08370 0.02156 -0.53840
v -0.10850 0.02157 -0.53389
v 0.36950 0.02165 -0.40141
v -0.30469 0.02154 -0.45141
v 0.44214 0.02208 -0.31811
v 0.49538 0.02178 -0.22790
v -0.47777 0.02139 -0.26237
v 0.54316 0.02192 -0.04185
v -0.54240 -0.02069 -0.04317
v 0.54439 0.02170 0.02055
v -0.54229 0.02146 0.04572
v 0.51842 0.02167 0.16697
v -0.52849 0.02174 0.12811
v 0.47709 0.02138 0.26481
v -0.50238 0.02169 0.20924
v -0.46418 0.02192 0.28444
v 0.41484 0.02168 0.35324
v 0.35386 0.02180 0.41392
v -0.39990 0.02156 0.37147
v 0.28471 0.02183 0.46457
v 0.21030 0.02149 0.50265
v 0.12733 -0.02082 0.52996
v 0.02086 0.02211 0.54484
v -0.01980 -0.02063 -0.54426
v -0.12529 -0.02067 -0.52943
v 0.08674 -0.02074 -0.53764
v -0.03800 -0.02000 -0.51500
v 0.04325 -0.02000 -0.51500
v -0.22690 -0.02070 -0.49489
v -0.11825 -0.02000 -0.50300
v 0.12325 -0.02000 -0.50175
v 0.22950 -0.02068 -0.49361
v -0.19550 -0.02000 -0.47800
v -0.26800 -0.02000 -0.44150
v 0.28428 -0.02096 -0.46429
v 0.20912 -0.02000 -0.47200
v -0.33375 -0.02000 -0.39450
v -0.40021 -0.02084 -0.37005
v 0.30575 -0.02000 -0.41650
v 0.35343 -0.02086 -0.41424
v -0.39125 -0.02000 -0.33725
v 0.36725 -0.02000 -0.36350
v 0.41437 -0.02078 -0.35268
v -0.43925 -0.02000 -0.27175
v 0.42000 -0.02000 -0.30200
v -0.47425 -0.02052 -0.26854
v -0.47650 -0.02000 -0.19950
v 0.46200 -0.02000 -0.23250
v 0.50336 -0.02084 -0.20829
v -0.50175 -0.02000 -0.12275
v -0.51475 -0.02000 -0.04250
v 0.54323 -0.02060 -0.04110
v 0.51200 -0.02000 -0.06838
v -0.51500 -0.02000 0.03850
v -0.54126 -0.02068 0.06315
v 0.51550 -0.02000 0.04300
v -0.50275 -0.02000 0.11875
v -0.51825 -0.02052 0.16624
v 0.50250 -0.02000 0.12300
v -0.47800 -0.02000 0.19600
v 0.51793 -0.02059 0.17040
v 0.47700 -0.02000 0.20000
v -0.48639 -0.02055 0.24532
v -0.44150 -0.02000 0.26850
v 0.44000 -0.02000 0.27225
v -0.44044 -0.02078 0.31971
v -0.39450 -0.02000 0.33450
v 0.39200 -0.02000 0.33750
v -0.38649 -0.02057 0.38370
v -0.33725 -0.02000 0.39200
v 0.38309 -0.02044 0.38737
v 0.33450 -0.02000 0.39475
v -0.25913 -0.01950 0.44688
v 0.26850 -0.02000 0.44225
v -0.12275 -0.02000 0.50250
v 0.16738 -0.02000 0.48887
v -0.16637 -0.02100 0.51892
v 0.20579 -0.02054 0.50415
v -0.02800 -0.01950 0.51600
v -0.06398 -0.02073 0.54098
v 0.17131 -0.02049 -0.51687
v -0.31917 -0.02073 -0.44056
v 0.46500 -0.02074 -0.28265
v -0.52264 -0.02034 -0.15119
v 0.48925 -0.02100 -0.16850
v 0.53047 -0.02059 -0.12494
v 0.54080 -0.02061 0.06617
v 0.48467 -0.02073 0.24876
v 0.44007 -0.02058 0.32222
v -0.31909 -0.02097 0.44159
v -0.19950 -0.02000 0.47700
v 0.30299 -0.02074 0.45333
v -0.24645 -0.02091 0.48541
v 0.05875 -0.02000 0.51375
v 0.04028 -0.02047 0.54325
v 0.00376 -0.02328 -0.54331
v 0.04664 -0.02319 -0.54170
v -0.03885 -0.02330 -0.54171
v 0.08913 -0.02329 -0.53569
v -0.08103 -0.02320 -0.53637
v 0.13102 -0.02331 -0.52769
v -0.12295 -0.02314 -0.52876
v 0.17192 -0.02331 -0.51574
v -0.01050 -0.03000 -0.51750
v 0.03050 -0.03000 -0.51650
v -0.04300 -0.03100 -0.51500
v -0.16419 -0.02315 -0.51752
v 0.07050 -0.03000 -0.51250
v -0.09150 -0.03000 -0.50900
v 0.21106 -0.02307 -0.50086
v 0.11050 -0.03000 -0.50500
v -0.13100 -0.03000 -0.50000
v -0.20408 -0.02356 -0.50374
v 0.14950 -0.03000 -0.49500
v 0.25108 -0.02353 -0.48163
v -0.17000 -0.03000 -0.48850
v 0.18850 -0.03000 -0.48200
v -0.24333 -0.02323 -0.48613
v -0.20950 -0.03200 -0.47250
v 0.28718 -0.02325 -0.46112
v 0.22350 -0.03200 -0.46650
v -0.28127 -0.02307 -0.46440
v -0.24650 -0.03200 -0.45450
v 0.32224 -0.02313 -0.43732
v 0.25950 -0.03200 -0.44750
v -0.27900 -0.03000 -0.43550
v -0.31595 -0.02338 -0.44169
v 0.29600 -0.03000 -0.42450
v 0.35597 -0.02328 -0.41000
v -0.31450 -0.03200 -0.41050
v -0.35002 -0.02344 -0.41554
v 0.32800 -0.03000 -0.40000
v 0.38713 -0.02316 -0.38166
v -0.34400 -0.03000 -0.38600
v -0.38162 -0.02340 -0.38715
v 0.35850 -0.03000 -0.37300
v 0.41632 -0.02326 -0.35029
v -0.37300 -0.03000 -0.35800
v 0.38650 -0.03000 -0.34400
v -0.41002 -0.02369 -0.35609
v 0.44284 -0.02324 -0.31658
v -0.40000 -0.03000 -0.32800
v 0.41250 -0.03000 -0.31300
v -0.43739 -0.02337 -0.32259
v 0.46574 -0.02323 -0.28111
v -0.42450 -0.03000 -0.29500
v 0.43450 -0.03200 -0.28150
v -0.46117 -0.02338 -0.28725
v -0.44650 -0.03000 -0.26100
v 0.48706 -0.02322 -0.24336
v 0.45550 -0.03200 -0.24650
v -0.48185 -0.02332 -0.24940
v -0.46550 -0.03000 -0.22500
v 0.50387 -0.02339 -0.20425
v 0.47400 -0.03000 -0.20750
v -0.50104 -0.02341 -0.21121
v -0.47850 -0.03100 -0.19525
v 0.51888 -0.02328 -0.16444
v 0.48900 -0.03000 -0.17000
v -0.51586 -0.02339 -0.17150
v -0.49500 -0.03000 -0.14950
v 0.52967 -0.02314 -0.12303
v 0.50100 -0.03000 -0.13100
v -0.52742 -0.02309 -0.12995
v -0.50500 -0.03000 -0.11000
v 0.53785 -0.02323 -0.08119
v 0.50950 -0.03000 -0.09150
v -0.53569 -0.02315 -0.08770
v -0.51250 -0.03000 -0.07000
v 0.54309 -0.02339 -0.03891
v 0.51550 -0.03000 -0.05150
v -0.54204 -0.02336 -0.04635
v -0.51650 -0.03000 -0.02950
v 0.54359 -0.02331 0.00387
v 0.51750 -0.03000 -0.01050
v -0.51725 -0.03100 0.00300
v -0.54272 -0.02318 -0.00366
v 0.51700 -0.03000 0.03050
v 0.54161 -0.02320 0.04666
v -0.51450 -0.03000 0.05150
v -0.54148 -0.02321 0.03914
v 0.51300 -0.03000 0.07050
v 0.53691 -0.02332 0.08920
v -0.50900 -0.03000 0.09150
v -0.53636 -0.02330 0.08171
v 0.50600 -0.03000 0.11050
v 0.52793 -0.02333 0.13094
v -0.50000 -0.03000 0.13150
v -0.52884 -0.02333 0.12338
v 0.49600 -0.03000 0.14950
v 0.51528 -0.02334 0.17198
v -0.48750 -0.03200 0.17250
v -0.51780 -0.02347 0.16459
v 0.48350 -0.03200 0.18650
v 0.50061 -0.02326 0.21117
v -0.47250 -0.03200 0.21050
v -0.50262 -0.02316 0.20495
v 0.46225 -0.03100 0.23275
v 0.48280 -0.02352 0.25108
v -0.45550 -0.03000 0.24500
v 0.44850 -0.03200 0.25950
v -0.48559 -0.02337 0.24362
v 0.46184 -0.02318 0.28723
v -0.43550 -0.03000 0.28000
v 0.42650 -0.03200 0.29350
v -0.46445 -0.02329 0.28061
v 0.43838 -0.02331 0.32270
v -0.41200 -0.03000 0.31300
v 0.40100 -0.03000 0.32800
v -0.44124 -0.02353 0.31614
v 0.41166 -0.02316 0.35618
v -0.38450 -0.03200 0.34650
v 0.37400 -0.03000 0.35850
v -0.41577 -0.02359 0.34972
v 0.38185 -0.02328 0.38692
v -0.35800 -0.03000 0.37400
v 0.34500 -0.03000 0.38650
v -0.38588 -0.02321 0.38141
v -0.32550 -0.03200 0.40150
v 0.35021 -0.02357 0.41624
v 0.31300 -0.03000 0.41250
v -0.35634 -0.02368 0.41162
v -0.29500 -0.03000 0.42550
v 0.31658 -0.02351 0.44245
v 0.28000 -0.03000 0.43550
v -0.26100 -0.03000 0.44750
v -0.32268 -0.02337 0.43857
v 0.24500 -0.03000 0.45650
v 0.28073 -0.02327 0.46547
v -0.22500 -0.03000 0.46650
v -0.28731 -0.02331 0.46189
v 0.20850 -0.03000 0.47400
v 0.24351 -0.02324 0.48515
v -0.18550 -0.03200 0.48350
v 0.17050 -0.03000 0.48900
v -0.24956 -0.02337 0.48297
v -0.14950 -0.03000 0.49600
v 0.20459 -0.02338 0.50408
v 0.13150 -0.03000 0.50100
v -0.11000 -0.03000 0.50600
v -0.21151 -0.02356 0.50041
v 0.09150 -0.03000 0.50950
v 0.16493 -0.02358 0.51884
v -0.06950 -0.03000 0.51300
v 0.05150 -0.03000 0.51550
v 0.00300 -0.03100 0.51725
v -0.02950 -0.03000 0.51700
v -0.17157 -0.02349 0.51536
v 0.12342 -0.02334 0.52970
v -0.12986 -0.02312 0.52766
v 0.08173 -0.02336 0.53789
v -0.08835 -0.02335 0.53699
v 0.03921 -0.02333 0.54288
v -0.04673 -0.02370 0.54167
v -0.00366 -0.02319 0.54364
v 0.02051 -0.03933 -0.27551
v -0.14593 -0.03905 -0.23455
v 0.17753 -0.03936 -0.21198
v -0.25421 -0.03886 -0.10733
v 0.26885 -0.03912 -0.06656
v -0.26884 -0.03930 0.06281
v 0.25624 -0.03910 0.10573
v -0.17957 -0.03916 0.21033
v 0.14269 -0.03893 0.23737
v -0.02085 -0.03918 0.27589
v -0.02641 -0.06980 -0.54281
v 0.01655 -0.06981 -0.54276
v -0.06908 -0.06997 -0.53879
v 0.05864 -0.06989 -0.53950
v -0.11040 -0.06994 -0.53130
v 0.10133 -0.06987 -0.53405
v -0.15267 -0.06978 -0.52102
v 0.14227 -0.06983 -0.52411
v -0.01850 -0.07000 -0.51650
v -0.19285 -0.06971 -0.50723
v 0.02150 -0.07000 -0.51600
v -0.05900 -0.07000 -0.51300
v 0.06250 -0.07000 -0.51300
v -0.09900 -0.07000 -0.50700
v 0.18359 -0.07001 -0.51096
v 0.10250 -0.07000 -0.50650
v -0.13850 -0.07000 -0.49750
v -0.23223 -0.06998 -0.49067
v 0.14200 -0.07000 -0.49650
v -0.17750 -0.07000 -0.48500
v 0.22299 -0.06981 -0.49516
v -0.26965 -0.06974 -0.47023
v 0.18050 -0.07000 -0.48400
v -0.21500 -0.07000 -0.46950
v 0.26062 -0.06990 -0.47607
v -0.30628 -0.07000 -0.44854
v 0.21800 -0.07000 -0.46850
v -0.25100 -0.07000 -0.45150
v 0.25400 -0.07000 -0.45050
v -0.28600 -0.07000 -0.43050
v 0.29724 -0.06972 -0.45492
v -0.33989 -0.06985 -0.42322
v 0.28850 -0.07000 -0.42900
v -0.31850 -0.07000 -0.40650
v 0.33212 -0.06979 -0.42957
v -0.37259 -0.06993 -0.39515
v 0.32150 -0.07000 -0.40500
v -0.34950 -0.07000 -0.38050
v 0.36516 -0.06993 -0.40225
v -0.40185 -0.06992 -0.36453
v 0.35250 -0.07000 -0.37850
v -0.37850 -0.07000 -0.35150
v 0.39528 -0.06986 -0.37255
v -0.42928 -0.06975 -0.33120
v 0.38050 -0.07000 -0.34950
v -0.40500 -0.07000 -0.32050
v 0.42324 -0.06992 -0.33980
v -0.45420 -0.06995 -0.29688
v 0.40700 -0.07000 -0.31850
v -0.42900 -0.07000 -0.28800
v 0.44841 -0.06997 -0.30595
v -0.47624 -0.06972 -0.26050
v 0.43100 -0.07000 -0.28600
v -0.45000 -0.07000 -0.25350
v 0.47144 -0.06983 -0.26970
v -0.49486 -0.06988 -0.22203
v 0.45200 -0.07000 -0.25100
v -0.46850 -0.07000 -0.21750
v 0.49167 -0.06998 -0.23223
v -0.51098 -0.06974 -0.18252
v 0.47050 -0.07000 -0.21500
v -0.48400 -0.07000 -0.18000
v 0.50751 -0.06972 -0.19287
v -0.52377 -0.07012 -0.14224
v 0.48600 -0.07000 -0.17750
v -0.49650 -0.07000 -0.14150
v 0.52085 -0.06980 -0.15228
v -0.53382 -0.06989 -0.10033
v 0.49800 -0.07000 -0.13850
v -0.50600 -0.07000 -0.10200
v 0.53213 -0.06986 -0.11063
v -0.53971 -0.06990 -0.05832
v 0.50750 -0.07000 -0.09900
v -0.51250 -0.07000 -0.06150
v 0.53897 -0.06987 -0.06926
v -0.54268 -0.07000 -0.01581
v 0.51400 -0.07000 -0.05950
v -0.51600 -0.07000 -0.02150
v 0.54235 -0.06976 -0.02636
v 0.51650 -0.07000 -0.01850
v -0.51650 -0.07000 0.01950
v -0.54272 -0.06989 0.02726
v 0.51700 -0.07000 0.02150
v -0.51300 -0.07000 0.05950
v 0.54369 -0.07000 0.01649
v -0.53882 -0.06968 0.06948
v 0.51350 -0.07000 0.06250
v -0.50700 -0.07000 0.10000
v 0.54044 -0.06990 0.05868
v -0.53130 -0.06994 0.11140
v 0.50700 -0.07000 0.10250
v -0.49750 -0.07000 0.13950
v 0.53388 -0.06983 0.10122
v -0.52125 -0.06987 0.15296
v 0.49750 -0.07000 0.14200
v -0.48500 -0.07000 0.17800
v 0.52489 -0.06981 0.14217
v -0.50778 -0.07000 0.19305
v 0.48500 -0.07000 0.18050
v -0.46950 -0.07000 0.21550
v 0.51222 -0.07000 0.18324
v -0.49058 -0.06991 0.23236
v 0.46900 -0.07000 0.21800
v -0.45100 -0.07000 0.25200
v 0.49624 -0.06977 0.22263
v -0.47065 -0.06985 0.27071
v 0.45050 -0.07000 0.25400
v -0.43000 -0.07000 0.28600
v 0.47672 -0.07000 0.26091
v -0.44856 -0.06989 0.30640
v 0.42900 -0.07000 0.28850
v -0.40650 -0.07000 0.31950
v 0.45504 -0.06983 0.29748
v -0.42331 -0.06992 0.34083
v 0.40550 -0.07000 0.32150
v -0.38050 -0.07000 0.35000
v 0.43026 -0.06994 0.33256
v -0.39540 -0.06996 0.37271
v 0.37900 -0.07000 0.35250
v -0.35150 -0.07000 0.37900
v 0.40282 -0.06991 0.36478
v -0.36424 -0.06984 0.40242
v 0.35050 -0.07000 0.38050
v -0.32050 -0.07000 0.40500
v 0.37281 -0.06973 0.39524
v -0.33157 -0.06989 0.42986
v 0.31950 -0.07000 0.40700
v -0.28800 -0.07000 0.42900
v 0.34098 -0.06992 0.42345
v -0.29711 -0.07007 0.45432
v 0.28650 -0.07000 0.43100
v -0.25350 -0.07000 0.45050
v 0.25200 -0.07000 0.45200
v -0.21750 -0.07000 0.46900
v 0.30633 -0.06984 0.44853
v -0.26072 -0.06983 0.47680
v 0.21550 -0.07000 0.47050
v -0.18000 -0.07000 0.48500
v 0.27070 -0.06990 0.47172
v -0.22254 -0.07008 0.49597
v 0.17800 -0.07000 0.48550
v -0.14150 -0.07000 0.49750
v 0.23249 -0.06985 0.49196
v 0.13950 -0.07000 0.49800
v -0.10200 -0.07000 0.50700
v -0.18296 -0.06982 0.51220
v 0.10000 -0.07000 0.50750
v -0.06150 -0.07000 0.51350
v 0.05950 -0.07000 0.51400
v -0.02150 -0.07000 0.51700
v 0.01950 -0.07000 0.51650
v 0.19290 -0.07005 0.50790
v -0.14215 -0.07009 0.52456
v 0.15269 -0.06984 0.52128
v -0.10034 -0.06993 0.53376
v 0.11150 -0.06990 0.53157
v -0.05843 -0.06996 0.53986
v 0.06951 -0.06989 0.53863
v -0.01582 -0.06999 0.54305
v 0.02720 -0.06986 0.54225
v 0.13312 -0.08203 -0.53159
v 0.33902 -0.08198 -0.43088
v 0.48771 -0.08201 -0.25056
v -0.46425 -0.08201 -0.29124
v 0.54696 -0.08202 -0.03433
v -0.53153 -0.08252 -0.07304
v 0.51509 -0.08197 0.18818
v -0.53082 -0.08207 0.13759
v 0.39189 -0.08204 0.38346
v -0.42016 -0.08197 0.35219
v 0.20382 -0.08200 0.50915
v -0.23714 -0.08200 0.49409
v -0.01788 -0.08200 0.54775
v 0.02316 -0.09236 -0.28356
v -0.14853 -0.09227 -0.24264
v 0.18558 -0.09238 -0.21604
v -0.26232 -0.09231 -0.10947
v 0.27706 -0.09222 -0.06763
v -0.27736 -0.09237 0.06289
v 0.26289 -0.09211 0.11152
v -0.18677 -0.09224 0.21516
v 0.14715 -0.09205 0.24457
v -0.02438 -0.09224 0.28385
v 0.42166 -0.11572 0.34105
v -0.01351 -0.11618 -0.53879
v 0.08860 -0.11558 -0.53489
v -0.10972 -0.11637 -0.53168
v -0.28190 -0.11670 -0.46112
v 0.36439 -0.11612 -0.39618
v -0.40233 -0.11644 -0.36369
v 0.45610 -0.11622 -0.29662
v 0.52326 -0.11629 -0.13908
v 0.54064 -0.11650 -0.01977
v -0.53986 -0.11593 -0.00900
v 0.51833 -0.11705 0.07793
v 0.49120 -0.11701 0.18469
v -0.50653 -0.11659 0.19140
v -0.47645 -0.11728 0.21523
v 0.52586 -0.11663 0.14340
v -0.45350 -0.11700 0.26250
v -0.40809 -0.11724 0.32598
v -0.36225 -0.11700 0.37923
v -0.42504 -0.11650 0.34056
v 0.26792 -0.11666 0.47309
v -0.23774 -0.11790 0.46533
v -0.27219 -0.11668 0.47011
v 0.32699 -0.11678 0.42216
v -0.08606 -0.11606 0.53658
v 0.02263 -0.11912 -0.52060
v -0.05445 -0.11792 -0.51821
v 0.10850 -0.11900 -0.50950
v 0.13086 -0.11714 -0.51797
v 0.28721 -0.11734 -0.45526
v -0.33164 -0.11982 -0.40173
v -0.34850 -0.11900 -0.38650
v -0.40170 -0.11786 -0.33288
v -0.43449 -0.11924 -0.28771
v 0.45150 -0.11900 -0.26050
v -0.48668 -0.11650 -0.23009
v 0.49697 -0.11745 -0.15912
v 0.50950 -0.11900 -0.10850
v -0.52554 -0.11610 -0.12244
v 0.51469 -0.12007 -0.08447
v 0.52150 -0.11900 0.00050
v 0.51850 -0.11900 0.05450
v 0.50950 -0.11900 0.10850
v -0.50950 -0.11900 0.10850
v 0.49550 -0.11900 0.16150
v -0.42150 -0.11900 0.30650
v 0.47311 -0.11720 0.26121
v -0.33223 -0.11765 0.40304
v 0.30650 -0.11900 0.42150
v 0.09685 -0.11636 0.53015
v -0.12840 -0.11991 0.50520
v -0.10850 -0.11900 0.50950
v 0.00269 -0.11747 0.52379
v -0.08150 -0.12250 -0.51350
v -0.12201 -0.11741 -0.50728
v 0.16150 -0.12100 -0.49550
v 0.31284 -0.12026 -0.41706
v -0.29072 -0.11983 -0.43229
v 0.38961 -0.11823 -0.34872
v 0.38750 -0.12100 -0.34850
v 0.42150 -0.12100 -0.30550
v 0.47650 -0.11900 -0.21150
v 0.51850 -0.12100 -0.05450
v 0.51400 -0.12100 0.08150
v -0.52516 -0.11711 0.08901
v 0.36012 -0.12919 0.37535
v -0.14525 -0.13071 0.49754
v 0.08150 -0.12100 0.51400
v 0.38750 -0.12400 -0.34850
v 0.45775 -0.12250 -0.24825
v 0.50853 -0.12825 -0.11829
v 0.47743 -0.12969 0.21204
v 0.14825 -0.12250 0.49900
v -0.37001 -0.12578 -0.36688
v -0.00387 -0.12600 -0.31825
v -0.20619 -0.12600 -0.23262
v -0.46782 -0.12599 -0.22900
v 0.19025 -0.12600 -0.24787
v -0.31625 -0.12600 -0.04975
v -0.30000 -0.12600 0.10200
v -0.51456 -0.12585 0.08360
v 0.31350 -0.12600 -0.02837
v 0.50470 -0.12602 0.13149
v -0.15938 -0.12600 0.26775
v 0.24800 -0.12600 0.19025
v 0.07050 -0.12600 0.31038
v -0.23774 -0.12576 0.46488
v 0.20932 -0.12177 0.47962
v -0.07270 -0.12588 0.51665
v -0.04822 -0.12877 -0.51678
v 0.02774 -0.12943 -0.51899
v 0.12583 -0.12953 -0.50380
v -0.17435 -0.12842 -0.48934
v 0.18795 -0.12581 -0.48673
v -0.25881 -0.12888 -0.45152
v 0.27766 -0.12879 -0.43854
v -0.42845 -0.13015 -0.29078
v 0.45322 -0.13196 -0.23803
v -0.50419 -0.12884 -0.12398
v -0.51648 -0.12772 -0.05099
v -0.51958 -0.12751 0.02028
v -0.49698 -0.12868 0.15000
v 0.50475 -0.12988 0.12539
v -0.46487 -0.12828 0.23425
v -0.42312 -0.12989 0.29946
v 0.44249 -0.12143 0.27972
v -0.40201 -0.12985 0.32825
v -0.36063 -0.12979 0.37355
v -0.32803 -0.12997 0.40243
v 0.28238 -0.12897 0.43636
v 0.16578 -0.13271 -0.47965
v -0.09575 -0.13270 -0.49828
v -0.28392 -0.14199 -0.39667
v 0.34439 -0.13027 -0.38613
v 0.41764 -0.13038 -0.30562
v -0.45987 -0.13288 -0.21665
v -0.49031 -0.12188 -0.17432
v 0.51881 -0.13037 0.01531
v 0.50470 -0.13295 0.06259
v -0.50441 -0.13200 0.02537
v 0.40601 -0.13271 0.30480
v -0.42369 -0.13200 0.27430
v 0.13289 -0.13121 0.50274
v -0.24083 -0.13273 0.44623
v -0.01433 -0.13101 0.51774
v -0.35428 -0.13251 -0.36133
v -0.17186 -0.14608 -0.31270
v 0.33144 -0.14562 -0.12876
v 0.33733 -0.14079 0.08337
v -0.34186 -0.14616 -0.11805
v -0.33947 -0.14636 0.10334
v 0.22287 -0.14086 0.26724
v 0.02266 -0.14079 0.34667
v -0.22184 -0.14423 0.28030
v -0.42792 -0.14624 -0.24252
v -0.47138 -0.14854 0.02996
v 0.28968 -0.14529 0.39348
v -0.13092 -0.14527 0.47114
v 0.09319 -0.14530 0.47804
v -0.11483 -0.14786 -0.46524
v 0.29883 -0.14676 -0.39016
v 0.45520 -0.14687 -0.16070
v -0.49120 -0.14555 0.02961
v 0.46805 -0.14500 0.12424
v -0.49975 -0.13680 0.07055
v -0.35411 -0.14497 0.33838
v 0.41968 -0.14498 0.24405
v 0.30290 -0.15158 -0.35541
v -0.45689 -0.15157 -0.09314
v -0.43305 -0.15274 0.17510
v 0.31670 -0.15187 0.34815
v 0.09312 -0.14975 -0.47089
v 0.01759 -0.14579 -0.35520
v -0.23948 -0.15283 -0.39943
v -0.40311 -0.15113 -0.23409
v 0.22581 -0.14565 -0.27746
v 0.33550 -0.15200 -0.24350
v 0.48407 -0.15012 -0.03271
v 0.46679 -0.15099 0.06082
v 0.42986 -0.15433 0.11890
v -0.29193 -0.15443 0.35780
v 0.05729 -0.15442 0.45845
v -0.12204 -0.15103 0.44848
v -0.06050 -0.15900 -0.21525
v 0.10900 -0.15900 -0.19375
v -0.18250 -0.15900 -0.13250
v -0.22550 -0.15900 0.03550
v 0.21050 -0.15900 -0.08700
v 0.21050 -0.15900 0.08700
v -0.17775 -0.15900 0.14025
v -0.01750 -0.15900 0.22700
v 0.14800 -0.15900 0.17300
usemtl m028
f 37 58 96
f 58 56 89
f 56 53 77
f 53 54 80
f 54 55 84
f 55 57 94
f 57 38 103
f 60 61 113
f 61 62 119
f 62 63 122
f 63 41 116
f 41 40 112
f 40 59 107
f 37 100 154
f 100 98 152
f 98 96 150
f 96 58 148
f 58 93 146
f 93 91 144
f 91 89 142
f 89 87 140
f 87 85 138
f 85 83 136
f 83 81 134
f 81 79 132
f 79 77 130
f 77 75 128
f 75 73 126
f 73 74 127
f 74 76 129
f 76 78 131
f 78 80 133
f 80 82 135
f 82 84 137
f 84 86 139
f 86 88 141
f 88 90 143
f 90 92 145
f 92 94 147
f 94 95 149
f 95 97 151
f 97 99 153
f 99 101 155
f 101 102 157
f 102 103 159
f 103 60 167
f 60 109 169
f 109 111 171
f 111 113 173
f 113 115 175
f 115 117 177
f 117 119 179
f 119 121 181
f 121 123 183
f 123 125 185
f 125 124 184
f 124 122 182
f 122 120 180
f 120 118 178
f 118 116 176
f 116 114 174
f 114 112 172
f 112 110 170
f 110 108 168
f 108 107 166
f 107 106 164
f 106 105 162
f 105 104 160
f 104 59 158
f 59 37 156
f 156 154 212
f 154 152 210
f 152 150 208
f 150 148 206
f 148 146 204
f 146 144 202
f 144 142 200
f 142 140 198
f 140 138 197
f 138 136 196
f 136 134 194
f 134 132 192
f 132 130 190
f 130 128 188
f 128 126 186
f 126 127 187
f 127 129 189
f 129 131 191
f 131 133 193
f 133 135 195
f 135 137 257
f 137 139 259
f 139 141 199
f 141 143 201
f 143 145 203
f 145 147 205
f 147 149 207
f 149 151 209
f 151 153 211
f 153 155 213
f 155 157 215
f 157 159 217
f 159 161 219
f 161 163 221
f 163 165 223
f 165 167 225
f 167 169 227
f 169 171 229
f 171 173 231
f 173 175 233
f 175 177 235
f 177 179 237
f 179 181 239
f 181 183 241
f 183 185 243
f 185 184 242
f 184 182 240
f 182 180 238
f 180 178 236
f 178 176 234
f 176 174 232
f 174 172 230
f 172 170 228
f 170 168 226
f 168 166 224
f 166 164 222
f 164 162 220
f 162 160 218
f 160 158 216
f 158 156 214
f 214 212 271
f 212 210 269
f 210 208 267
f 208 206 265
f 206 204 263
f 204 202 261
f 202 200 260
f 200 198 258
f 198 197 256
f 197 196 254
f 196 194 252
f 194 192 250
f 192 190 248
f 190 188 246
f 188 186 244
f 186 187 245
f 187 189 247
f 189 191 249
f 191 193 251
f 193 195 253
f 195 257 255
f 201 203 262
f 203 205 264
f 205 207 266
f 207 209 268
f 209 211 270
f 211 213 272
f 213 215 274
f 215 217 276
f 217 219 278
f 219 221 280
f 221 223 282
f 223 225 284
f 225 227 286
f 227 229 288
f 229 231 290
f 231 233 292
f 233 235 294
f 235 237 296
f 237 239 298
f 239 241 300
f 241 243 302
f 243 242 301
f 242 240 299
f 240 238 297
f 238 236 295
f 236 234 293
f 234 232 291
f 232 230 289
f 230 228 287
f 228 226 285
f 226 224 283
f 224 222 281
f 222 220 279
f 220 218 277
f 218 216 275
f 216 214 273
f 273 271 349
f 271 269 349
f 269 267 265
f 265 263 318
f 263 261 316
f 261 260 316
f 260 258 312
f 258 256 310
f 256 254 310
f 254 252 309
f 252 250 309
f 250 248 307
f 248 246 305
f 246 244 304
f 244 245 304
f 245 247 308
f 247 249 308
f 249 251 308
f 251 253 347
f 253 255 311
f 255 257 311
f 257 259 313
f 259 199 315
f 199 262 315
f 262 264 315
f 264 266 317
f 266 268 319
f 268 270 319
f 270 272 320
f 272 274 321
f 274 276 324
f 276 278 324
f 278 280 325
f 280 282 328
f 282 284 328
f 284 286 332
f 286 288 335
f 288 290 335
f 290 292 338
f 292 294 341
f 294 296 344
f 296 298 344
f 298 300 344
f 300 302 346
f 302 301 345
f 301 299 345
f 299 297 343
f 297 295 342
f 295 293 339
f 293 291 334
f 291 289 331
f 289 287 331
f 287 285 330
f 285 283 327
f 283 281 326
f 281 279 326
f 279 277 322
f 277 275 322
f 275 273 322
f 335 338 341
f 342 339 340
f 339 334 336
f 312 310 348
f 310 309 306
f 309 307 303
f 307 305 304
f 343 340 337
f 340 336 337
f 336 334 333
f 334 331 333
f 331 330 329
f 330 327 329
f 314 312 348
f 337 333 350
f 335 341 375
f 59 39 37
f 41 63 42
f 37 39 28
f 37 28 21
f 56 21 19
f 56 19 17
f 54 17 18
f 55 18 20
f 55 20 27
f 57 27 22
f 57 22 38
f 61 8 24
f 61 24 26
f 63 26 25
f 41 25 23
f 59 23 39
f 21 5 19
f 17 2 1
f 18 1 27
f 27 15 4
f 22 4 7
f 26 13 12
f 26 12 14
f 25 14 10
f 39 10 28
f 5 3 19
f 8 9 13
f 10 14 16
f 28 16 5
f 68 67 33
f 67 65 31
f 65 64 29
f 64 66 6
f 66 69 32
f 69 70 34
f 70 72 36
f 72 71 11
f 71 68 33
f 35 33 16
f 349 318 362
f 318 314 362
f 314 348 362
f 348 306 358
f 306 303 354
f 303 304 354
f 304 308 352
f 308 347 352
f 347 313 361
f 313 315 361
f 315 317 361
f 321 323 367
f 323 325 367
f 332 335 372
f 341 344 375
f 344 346 351
f 351 343 377
f 337 350 373
f 350 329 373
f 329 368 373
f 322 349 366
f 366 362 365
f 362 358 360
f 358 354 356
f 354 352 353
f 352 357 355
f 357 361 359
f 361 364 363
f 372 375 374
f 375 351 376
f 373 368 369
f 367 372 756
f 376 377 761
f 369 366 755
f 1249 1193 1191
f 1217 1191 749
f 1215 749 747
f 1212 747 1188
f 1240 1188 1189
f 1218 1189 1190
f 1219 1190 1192
f 1226 1192 1194
f 1257 1194 1196
f 1231 1196 1198
f 1260 1198 1200
f 1235 1200 1199
f 1233 1199 1197
f 1230 1197 1195
f 1191 752 751
f 1188 747 748
f 1189 748 750
f 1190 750 753
f 1192 753 754
f 1194 754 756
f 1196 756 758
f 1198 758 760
f 1200 760 761
f 1199 761 759
f 1197 759 757
f 1195 757 755
f 1195 755 1193
f 1193 365 752
f 752 360 751
f 751 356 749
f 749 353 747
f 748 359 750
f 750 363 753
f 754 367 756
f 756 370 758
f 760 376 761
f 761 377 759
f 759 371 757
f 757 369 755
f 755 366 1193
f 449 451 605
f 604 605 451
f 462 460 626
f 627 626 460
f 466 464 630
f 631 630 464
f 453 455 609
f 608 609 455
f 456 457 622
f 623 622 457
f 463 461 617
f 616 617 461
f 459 458 613
f 612 613 458
f 452 454 619
f 618 619 454
f 467 465 620
f 621 620 465
f 444 446 611
f 610 611 446
f 448 450 615
f 614 615 450
f 471 469 624
f 625 624 469
f 475 473 628
f 629 628 473
f 436 438 603
f 602 603 438
f 440 442 607
f 606 607 442
f 479 477 632
f 633 632 477
f 483 481 636
f 637 636 481
f 428 430 595
f 594 595 430
f 432 434 599
f 598 599 434
f 487 485 640
f 641 640 485
f 491 489 644
f 645 644 489
f 420 422 588
f 586 588 422
f 424 426 591
f 590 591 426
f 495 493 647
f 649 647 493
f 416 418 584
f 582 584 418
f 503 501 655
f 658 655 501
f 499 497 651
f 653 651 497
f 412 414 580
f 577 580 414
f 408 410 576
f 573 576 410
f 513 509 663
f 666 663 509
f 507 505 659
f 662 659 505
f 402 406 572
f 569 572 406
f 398 404 568
f 564 568 404
f 523 515 670
f 675 670 515
f 517 511 667
f 671 667 511
f 392 400 565
f 560 565 400
f 385 396 561
f 555 561 396
f 532 522 677
f 686 677 522
f 530 519 674
f 680 674 519
f 383 393 558
f 549 558 393
f 381 390 554
f 544 554 390
f 536 527 684
f 693 684 527
f 534 525 681
f 691 681 525
f 379 388 551
f 542 551 388
f 378 386 548
f 540 548 386
f 535 526 689
f 697 689 526
f 537 528 687
f 695 687 528
f 380 389 546
f 538 546 389
f 382 391 547
f 539 547 391
f 531 521 685
f 694 685 521
f 533 524 688
f 696 688 524
f 384 394 550
f 541 550 394
f 387 397 553
f 543 553 397
f 520 514 679
f 690 679 514
f 529 518 682
f 692 682 518
f 395 401 556
f 545 556 401
f 399 405 559
f 552 559 405
f 512 508 672
f 678 672 508
f 516 510 676
f 683 676 510
f 403 407 563
f 557 563 407
f 409 411 566
f 562 566 411
f 502 500 665
f 668 665 500
f 506 504 669
f 673 669 504
f 413 415 570
f 567 570 415
f 417 419 574
f 571 574 419
f 494 492 657
f 660 657 492
f 498 496 661
f 664 661 496
f 421 423 578
f 575 578 423
f 425 427 581
f 579 581 427
f 486 484 650
f 652 650 484
f 490 488 654
f 656 654 488
f 429 431 585
f 583 585 431
f 433 435 589
f 587 589 435
f 478 476 642
f 643 642 476
f 482 480 646
f 648 646 480
f 437 439 593
f 592 593 439
f 441 443 597
f 596 597 443
f 470 468 634
f 635 634 468
f 474 472 638
f 639 638 472
f 445 447 601
f 600 601 447
f 1098 1100 925
f 924 925 1100
f 1113 1111 946
f 947 946 1111
f 1117 1115 950
f 951 950 1115
f 1102 1104 929
f 928 929 1104
f 1109 1108 942
f 943 942 1108
f 1112 1110 937
f 936 937 1110
f 1106 1107 933
f 932 933 1107
f 1103 1105 938
f 939 938 1105
f 1116 1114 940
f 941 940 1114
f 1095 1097 931
f 930 931 1097
f 1099 1101 935
f 934 935 1101
f 1120 1118 944
f 945 944 1118
f 1124 1122 948
f 949 948 1122
f 1087 1089 923
f 922 923 1089
f 1091 1093 927
f 926 927 1093
f 1128 1126 952
f 953 952 1126
f 1132 1130 956
f 957 956 1130
f 1079 1081 915
f 914 915 1081
f 1083 1085 919
f 918 919 1085
f 1136 1134 960
f 961 960 1134
f 1140 1138 963
f 965 963 1138
f 1071 1073 908
f 906 908 1073
f 1075 1077 911
f 910 911 1077
f 1144 1142 967
f 969 967 1142
f 1067 1069 904
f 902 904 1069
f 1152 1150 975
f 977 975 1150
f 1148 1146 971
f 973 971 1146
f 1063 1065 900
f 897 900 1065
f 1059 1061 896
f 893 896 1061
f 1162 1158 983
f 986 983 1158
f 1156 1154 979
f 982 979 1154
f 1053 1057 892
f 889 892 1057
f 1049 1055 888
f 884 888 1055
f 1170 1164 990
f 995 990 1164
f 1166 1160 987
f 991 987 1160
f 1045 1051 885
f 880 885 1051
f 1037 1047 881
f 875 881 1047
f 1181 1171 997
f 1005 997 1171
f 1179 1168 994
f 1000 994 1168
f 1034 1044 878
f 869 878 1044
f 1032 1041 874
f 864 874 1041
f 1185 1176 1004
f 1013 1004 1176
f 1183 1174 1001
f 1011 1001 1174
f 1030 1039 871
f 862 871 1039
f 1028 1036 868
f 860 868 1036
f 1186 1177 1008
f 1017 1008 1177
f 1187 1178 1007
f 1015 1007 1178
f 1029 1038 866
f 858 866 1038
f 1031 1040 867
f 859 867 1040
f 1182 1172 1006
f 1014 1006 1172
f 1184 1175 1009
f 1016 1009 1175
f 1033 1043 870
f 861 870 1043
f 1035 1046 873
f 863 873 1046
f 1173 1165 999
f 1010 999 1165
f 1180 1169 1002
f 1012 1002 1169
f 1042 1050 876
f 865 876 1050
f 1048 1054 879
f 872 879 1054
f 1163 1159 992
f 998 992 1159
f 1167 1161 996
f 1003 996 1161
f 1052 1056 883
f 877 883 1056
f 1058 1060 887
f 882 887 1060
f 1153 1151 985
f 989 985 1151
f 1157 1155 988
f 993 988 1155
f 1062 1064 890
f 886 890 1064
f 1066 1068 894
f 891 894 1068
f 1145 1143 978
f 980 978 1143
f 1149 1147 981
f 984 981 1147
f 1070 1072 898
f 895 898 1072
f 1074 1076 901
f 899 901 1076
f 1137 1135 970
f 972 970 1135
f 1141 1139 974
f 976 974 1139
f 1078 1080 905
f 903 905 1080
f 1082 1084 909
f 907 909 1084
f 1129 1127 962
f 964 962 1127
f 1133 1131 966
f 968 966 1131
f 1086 1088 913
f 912 913 1088
f 1090 1092 917
f 916 917 1092
f 1121 1119 954
f 955 954 1119
f 1125 1123 958
f 959 958 1123
f 1094 1096 921
f 920 921 1096
f 730 770 814
f 767 768 845
f 775 773 817
f 777 775 820
f 778 777 825
f 781 778 828
f 731 769 808
f 771 733 846
f 774 776 850
f 735 774 823
f 770 772 849
f 725 766 844
f 769 725 800
f 782 783 840
f 780 782 854
f 779 780 833
f 776 779 851
f 762 763 788
f 764 762 786
f 720 764 787
f 765 767 805
f 721 765 802
f 740 781 831
f 733 734 732
f 731 732 729
f 769 729 700
f 769 700 727
f 735 703 704
f 774 704 737
f 776 737 707
f 768 726 701
f 768 701 728
f 730 728 702
f 770 702 703
f 778 708 706
f 777 706 705
f 775 705 736
f 773 736 734
f 715 718 698
f 721 698 723
f 765 723 726
f 742 741 710
f 740 710 739
f 781 739 708
f 764 719 717
f 762 717 716
f 763 716 718
f 744 712 743
f 785 743 714
f 746 714 713
f 745 713 741
f 725 727 724
f 766 724 699
f 766 699 722
f 720 722 719
f 779 707 738
f 780 738 709
f 782 709 711
f 783 711 712
f 848 815 847
f 811 847 810
f 845 810 807
f 817 816 819
f 820 819 822
f 825 822 826
f 828 826 829
f 808 806 809
f 846 809 812
f 846 812 813
f 771 813 816
f 850 827 824
f 823 824 821
f 849 821 818
f 849 818 815
f 791 795 796
f 844 796 799
f 800 799 803
f 800 803 806
f 840 838 836
f 854 836 834
f 833 834 830
f 851 830 827
f 788 793 790
f 786 790 789
f 786 789 792
f 787 792 795
f 842 837 841
f 857 841 856
f 784 856 838
f 805 807 804
f 802 804 801
f 797 801 798
f 843 798 793
f 831 829 832
f 852 832 835
f 855 835 853
f 839 853 837
f 1307 1244 1284
f 1284 1241 1268
f 1300 1264 1301
f 1304 1266 1240
f 1304 1240 1306
f 1324 1269 1270
f 1279 1270 1271
f 1325 1271 1280
f 1280 1272 1281
f 1281 1250 1273
f 1281 1273 1328
f 1293 1274 1282
f 1333 1278 1335
f 1291 1275 1311
f 1287 1327 1246
f 1284 1243 1242
f 1305 1268 1215
f 1264 1237 1236
f 1301 1236 1238
f 1302 1238 1239
f 1271 1269 1245
f 1280 1245 1272
f 1281 1247 1248
f 1273 1250 1251
f 1328 1251 1252
f 1274 1252 1253
f 1274 1253 1255
f 1282 1255 1316
f 1276 1234 1259
f 1278 1260 1263
f 1299 1263 1262
f 1277 1261 1232
f 1297 1232 1258
f 1318 1258 1228
f 1317 1228 1256
f 1315 1256 1225
f 1314 1225 1312
f 1311 1221 1249
f 1268 1217 1215
f 1238 1212 1239
f 1272 1218 1247
f 1250 1219 1220
f 1251 1220 1222
f 1253 1222 1223
f 1316 1223 1226
f 1256 1228 1227
f 1312 1225 1275
f 1222 1220 1226
f 1234 1231 1298
f 1227 1230 1224
f 1225 1224 1275
f 1257 1211 1234
f 1275 1195 1221
f 1287 1326 1327
f 1284 1336 1307
f 1300 1322 1303
f 1304 1321 1302
f 1313 1329 1328
f 1316 1331 1282
f 1298 1333 1320
f 1297 1334 1277
f 1291 1355 1312
f 1310 1309 1330
f 1305 1323 1336
f 1305 1303 1323
f 1314 1312 1332
f 1326 1345 1353
f 1303 1350 1323
f 1301 1362 1350
f 1306 1351 1362
f 1308 1352 1351
f 1328 1368 1352
f 1313 1354 1368
f 1282 1357 1354
f 1276 1347 1357
f 1333 1349 1347
f 1277 1348 1349
f 1318 1356 1348
f 1312 1355 1356
f 1353 1345 1359
f 1323 1364 1365
f 1357 1361 1369
f 1349 1372 1361
f 1348 1373 1372
f 1356 1371 1373
f 1356 1360 1371
f 1365 1364 1359
f 1369 1370 1368
f 1369 1361 1370
f 1373 1371 1372
f 1286 1340 1337
f 1285 1337 1363
f 1288 1363 1366
f 1288 1366 1338
f 1292 1338 1339
f 1295 1339 1342
f 1296 1342 1343
f 1294 1343 1344
f 1290 1344 1341
f 1290 1341 1340
f 1342 1370 1372
f 1343 1372 1371
f 1340 1359 1364
f 1203 1378 1375
f 1201 1375 1374
f 1202 1374 1376
f 1204 1376 1377
f 1206 1377 1380
f 1208 1380 1381
f 1210 1381 1382
f 1207 1382 1379
f 1207 1379 1378
f 1020 44 46
f 1018 43 44
f 1019 45 43
f 1021 47 45
f 1023 49 47
f 1025 51 49
f 1027 52 51
f 1026 50 52
f 1024 48 50
f 1022 46 48
f 1022 1205 1203
f 1020 1203 1201
f 1018 1201 1202
f 1019 1202 1204
f 1021 1204 1206
f 1023 1206 1208
f 1025 1208 1210
f 1027 1210 1209
f 1026 1209 1207
f 1024 1207 1205
f 1372 1370 1361
f 100 37 98
f 98 37 96
f 93 58 91
f 91 58 89
f 89 56 87
f 87 56 85
f 85 56 83
f 83 56 81
f 81 56 79
f 79 56 77
f 77 53 75
f 75 53 73
f 73 53 74
f 74 53 76
f 76 53 78
f 78 53 80
f 80 54 82
f 82 54 84
f 84 55 86
f 86 55 88
f 88 55 90
f 90 55 92
f 92 55 94
f 94 57 95
f 95 57 97
f 97 57 99
f 99 57 101
f 101 57 102
f 102 57 103
f 109 60 111
f 111 60 113
f 113 61 115
f 115 61 117
f 117 61 119
f 119 62 121
f 121 62 123
f 123 62 125
f 125 62 124
f 124 62 122
f 122 63 120
f 120 63 118
f 118 63 116
f 116 41 114
f 114 41 112
f 112 40 110
f 110 40 108
f 108 40 107
f 107 59 106
f 106 59 105
f 105 59 104
f 156 37 154
f 154 100 152
f 152 98 150
f 150 96 148
f 148 58 146
f 146 93 144
f 144 91 142
f 142 89 140
f 140 87 138
f 138 85 136
f 136 83 134
f 134 81 132
f 132 79 130
f 130 77 128
f 128 75 126
f 126 73 127
f 127 74 129
f 129 76 131
f 131 78 133
f 133 80 135
f 135 82 137
f 137 84 139
f 139 86 141
f 141 88 143
f 143 90 145
f 145 92 147
f 147 94 149
f 149 95 151
f 151 97 153
f 153 99 155
f 155 101 157
f 157 102 159
f 159 103 161
f 161 103 163
f 163 103 165
f 165 103 167
f 167 60 169
f 169 109 171
f 171 111 173
f 173 113 175
f 175 115 177
f 177 117 179
f 179 119 181
f 181 121 183
f 183 123 185
f 185 125 184
f 184 124 182
f 182 122 180
f 180 120 178
f 178 118 176
f 176 116 174
f 174 114 172
f 172 112 170
f 170 110 168
f 168 108 166
f 166 107 164
f 164 106 162
f 162 105 160
f 160 104 158
f 158 59 156
f 214 156 212
f 212 154 210
f 210 152 208
f 208 150 206
f 206 148 204
f 204 146 202
f 202 144 200
f 200 142 198
f 198 140 197
f 197 138 196
f 196 136 194
f 194 134 192
f 192 132 190
f 190 130 188
f 188 128 186
f 186 126 187
f 187 127 189
f 189 129 191
f 191 131 193
f 193 133 195
f 195 135 257
f 257 137 259
f 259 139 199
f 199 141 201
f 201 143 203
f 203 145 205
f 205 147 207
f 207 149 209
f 209 151 211
f 211 153 213
f 213 155 215
f 215 157 217
f 217 159 219
f 219 161 221
f 221 163 223
f 223 165 225
f 225 167 227
f 227 169 229
f 229 171 231
f 231 173 233
f 233 175 235
f 235 177 237
f 237 179 239
f 239 181 241
f 241 183 243
f 243 185 242
f 242 184 240
f 240 182 238
f 238 180 236
f 236 178 234
f 234 176 232
f 232 174 230
f 230 172 228
f 228 170 226
f 226 168 224
f 224 166 222
f 222 164 220
f 220 162 218
f 218 160 216
f 216 158 214
f 273 214 271
f 271 212 269
f 269 210 267
f 267 208 265
f 265 206 263
f 263 204 261
f 261 202 260
f 260 200 258
f 258 198 256
f 256 197 254
f 254 196 252
f 252 194 250
f 250 192 248
f 248 190 246
f 246 188 244
f 244 186 245
f 245 187 247
f 247 189 249
f 249 191 251
f 251 193 253
f 253 195 255
f 199 201 262
f 262 203 264
f 264 205 266
f 266 207 268
f 268 209 270
f 270 211 272
f 272 213 274
f 274 215 276
f 276 217 278
f 278 219 280
f 280 221 282
f 282 223 284
f 284 225 286
f 286 227 288
f 288 229 290
f 290 231 292
f 292 233 294
f 294 235 296
f 296 237 298
f 298 239 300
f 300 241 302
f 302 243 301
f 301 242 299
f 299 240 297
f 297 238 295
f 295 236 293
f 293 234 291
f 291 232 289
f 289 230 287
f 287 228 285
f 285 226 283
f 283 224 281
f 281 222 279
f 279 220 277
f 277 218 275
f 275 216 273
f 322 273 349
f 349 269 265
f 318 263 316
f 316 260 312
f 312 258 310
f 310 254 309
f 309 250 307
f 307 248 305
f 305 246 304
f 304 245 308
f 308 251 347
f 347 253 311
f 311 257 313
f 313 259 315
f 315 264 317
f 317 266 319
f 319 270 320
f 320 272 321
f 321 274 324
f 324 278 325
f 325 280 328
f 328 284 332
f 332 286 335
f 335 290 338
f 338 292 341
f 341 294 344
f 344 300 346
f 346 302 345
f 345 299 343
f 343 297 342
f 342 295 339
f 339 293 334
f 334 291 331
f 331 287 330
f 330 285 327
f 327 283 326
f 326 279 322
f 317 319 320
f 321 324 323
f 323 324 325
f 346 345 343
f 343 342 340
f 340 339 336
f 349 265 318
f 318 316 312
f 348 310 306
f 306 309 303
f 303 307 304
f 347 311 313
f 317 320 321
f 325 328 332
f 337 336 333
f 333 331 329
f 329 327 326
f 314 318 312
f 329 326 368
f 368 326 322
f 351 346 343
f 350 333 329
f 364 317 321
f 372 325 332
f 373 343 337
f 58 37 21
f 56 58 21
f 53 56 17
f 54 53 17
f 55 54 18
f 57 55 27
f 103 38 8
f 60 103 8
f 61 60 8
f 62 61 26
f 63 62 26
f 42 63 25
f 41 42 25
f 40 41 23
f 59 40 23
f 21 28 5
f 17 19 2
f 18 17 1
f 20 18 27
f 22 27 4
f 38 22 7
f 8 38 7
f 24 8 13
f 26 24 13
f 25 26 14
f 23 25 10
f 39 23 10
f 27 1 15
f 4 15 7
f 8 7 9
f 28 10 16
f 33 67 31
f 31 65 29
f 29 64 30
f 30 64 6
f 6 66 32
f 32 69 34
f 34 70 36
f 36 72 11
f 11 71 35
f 35 71 33
f 16 33 3
f 3 33 31
f 5 16 3
f 2 31 29
f 7 32 9
f 9 34 13
f 13 34 36
f 13 36 12
f 12 36 11
f 366 349 362
f 362 348 358
f 358 306 354
f 354 304 352
f 352 347 357
f 357 347 361
f 361 317 364
f 364 321 367
f 367 325 372
f 372 335 375
f 375 344 351
f 377 343 373
f 368 322 366
f 365 362 360
f 360 358 356
f 356 354 353
f 353 352 355
f 355 357 359
f 359 361 363
f 370 372 374
f 374 375 376
f 376 351 377
f 377 373 371
f 371 373 369
f 369 368 366
f 1193 366 365
f 752 365 360
f 751 360 356
f 749 356 353
f 747 353 355
f 748 355 359
f 750 359 363
f 753 363 364
f 754 364 367
f 756 372 370
f 758 370 374
f 760 374 376
f 759 377 371
f 757 371 369
f 1249 1221 1193
f 1246 1249 1191
f 1217 1246 1191
f 1215 1217 749
f 1214 1215 747
f 1212 1214 747
f 1213 1212 1188
f 1239 1213 1188
f 1240 1239 1188
f 1216 1240 1189
f 1218 1216 1189
f 1219 1218 1190
f 1220 1219 1192
f 1226 1220 1192
f 1257 1226 1194
f 1211 1257 1196
f 1234 1211 1196
f 1231 1234 1196
f 1260 1231 1198
f 1235 1260 1200
f 1233 1235 1199
f 1230 1233 1197
f 1224 1230 1195
f 1275 1224 1195
f 1221 1195 1193
f 1191 1193 752
f 749 1191 751
f 1189 1188 748
f 1190 1189 750
f 1192 1190 753
f 1194 1192 754
f 1196 1194 756
f 1198 1196 758
f 1200 1198 760
f 1199 1200 761
f 1197 1199 759
f 1195 1197 757
f 748 747 355
f 754 753 364
f 760 758 374
f 604 449 605
f 449 604 451
f 627 462 626
f 462 627 460
f 631 466 630
f 466 631 464
f 608 453 609
f 453 608 455
f 623 456 622
f 456 623 457
f 616 463 617
f 463 616 461
f 612 459 613
f 459 612 458
f 618 452 619
f 452 618 454
f 621 467 620
f 467 621 465
f 610 444 611
f 444 610 446
f 614 448 615
f 448 614 450
f 625 471 624
f 471 625 469
f 629 475 628
f 475 629 473
f 602 436 603
f 436 602 438
f 606 440 607
f 440 606 442
f 633 479 632
f 479 633 477
f 637 483 636
f 483 637 481
f 594 428 595
f 428 594 430
f 598 432 599
f 432 598 434
f 641 487 640
f 487 641 485
f 645 491 644
f 491 645 489
f 586 420 588
f 420 586 422
f 590 424 591
f 424 590 426
f 649 495 647
f 495 649 493
f 582 416 584
f 416 582 418
f 658 503 655
f 503 658 501
f 653 499 651
f 499 653 497
f 577 412 580
f 412 577 414
f 573 408 576
f 408 573 410
f 666 513 663
f 513 666 509
f 662 507 659
f 507 662 505
f 569 402 572
f 402 569 406
f 564 398 568
f 398 564 404
f 675 523 670
f 523 675 515
f 671 517 667
f 517 671 511
f 560 392 565
f 392 560 400
f 555 385 561
f 385 555 396
f 686 532 677
f 532 686 522
f 680 530 674
f 530 680 519
f 549 383 558
f 383 549 393
f 544 381 554
f 381 544 390
f 693 536 684
f 536 693 527
f 691 534 681
f 534 691 525
f 542 379 551
f 379 542 388
f 540 378 548
f 378 540 386
f 697 535 689
f 535 697 526
f 695 537 687
f 537 695 528
f 538 380 546
f 380 538 389
f 539 382 547
f 382 539 391
f 694 531 685
f 531 694 521
f 696 533 688
f 533 696 524
f 541 384 550
f 384 541 394
f 543 387 553
f 387 543 397
f 690 520 679
f 520 690 514
f 692 529 682
f 529 692 518
f 545 395 556
f 395 545 401
f 552 399 559
f 399 552 405
f 678 512 672
f 512 678 508
f 683 516 676
f 516 683 510
f 557 403 563
f 403 557 407
f 562 409 566
f 409 562 411
f 668 502 665
f 502 668 500
f 673 506 669
f 506 673 504
f 567 413 570
f 413 567 415
f 571 417 574
f 417 571 419
f 660 494 657
f 494 660 492
f 664 498 661
f 498 664 496
f 575 421 578
f 421 575 423
f 579 425 581
f 425 579 427
f 652 486 650
f 486 652 484
f 656 490 654
f 490 656 488
f 583 429 585
f 429 583 431
f 587 433 589
f 433 587 435
f 643 478 642
f 478 643 476
f 648 482 646
f 482 648 480
f 592 437 593
f 437 592 439
f 596 441 597
f 441 596 443
f 635 470 634
f 470 635 468
f 639 474 638
f 474 639 472
f 600 445 601
f 445 600 447
f 924 1098 925
f 1098 924 1100
f 947 1113 946
f 1113 947 1111
f 951 1117 950
f 1117 951 1115
f 928 1102 929
f 1102 928 1104
f 943 1109 942
f 1109 943 1108
f 936 1112 937
f 1112 936 1110
f 932 1106 933
f 1106 932 1107
f 939 1103 938
f 1103 939 1105
f 941 1116 940
f 1116 941 1114
f 930 1095 931
f 1095 930 1097
f 934 1099 935
f 1099 934 1101
f 945 1120 944
f 1120 945 1118
f 949 1124 948
f 1124 949 1122
f 922 1087 923
f 1087 922 1089
f 926 1091 927
f 1091 926 1093
f 953 1128 952
f 1128 953 1126
f 957 1132 956
f 1132 957 1130
f 914 1079 915
f 1079 914 1081
f 918 1083 919
f 1083 918 1085
f 961 1136 960
f 1136 961 1134
f 965 1140 963
f 1140 965 1138
f 906 1071 908
f 1071 906 1073
f 910 1075 911
f 1075 910 1077
f 969 1144 967
f 1144 969 1142
f 902 1067 904
f 1067 902 1069
f 977 1152 975
f 1152 977 1150
f 973 1148 971
f 1148 973 1146
f 897 1063 900
f 1063 897 1065
f 893 1059 896
f 1059 893 1061
f 986 1162 983
f 1162 986 1158
f 982 1156 979
f 1156 982 1154
f 889 1053 892
f 1053 889 1057
f 884 1049 888
f 1049 884 1055
f 995 1170 990
f 1170 995 1164
f 991 1166 987
f 1166 991 1160
f 880 1045 885
f 1045 880 1051
f 875 1037 881
f 1037 875 1047
f 1005 1181 997
f 1181 1005 1171
f 1000 1179 994
f 1179 1000 1168
f 869 1034 878
f 1034 869 1044
f 864 1032 874
f 1032 864 1041
f 1013 1185 1004
f 1185 1013 1176
f 1011 1183 1001
f 1183 1011 1174
f 862 1030 871
f 1030 862 1039
f 860 1028 868
f 1028 860 1036
f 1017 1186 1008
f 1186 1017 1177
f 1015 1187 1007
f 1187 1015 1178
f 858 1029 866
f 1029 858 1038
f 859 1031 867
f 1031 859 1040
f 1014 1182 1006
f 1182 1014 1172
f 1016 1184 1009
f 1184 1016 1175
f 861 1033 870
f 1033 861 1043
f 863 1035 873
f 1035 863 1046
f 1010 1173 999
f 1173 1010 1165
f 1012 1180 1002
f 1180 1012 1169
f 865 1042 876
f 1042 865 1050
f 872 1048 879
f 1048 872 1054
f 998 1163 992
f 1163 998 1159
f 1003 1167 996
f 1167 1003 1161
f 877 1052 883
f 1052 877 1056
f 882 1058 887
f 1058 882 1060
f 989 1153 985
f 1153 989 1151
f 993 1157 988
f 1157 993 1155
f 886 1062 890
f 1062 886 1064
f 891 1066 894
f 1066 891 1068
f 980 1145 978
f 1145 980 1143
f 984 1149 981
f 1149 984 1147
f 895 1070 898
f 1070 895 1072
f 899 1074 901
f 1074 899 1076
f 972 1137 970
f 1137 972 1135
f 976 1141 974
f 1141 976 1139
f 903 1078 905
f 1078 903 1080
f 907 1082 909
f 1082 907 1084
f 964 1129 962
f 1129 964 1127
f 968 1133 966
f 1133 968 1131
f 912 1086 913
f 1086 912 1088
f 916 1090 917
f 1090 916 1092
f 955 1121 954
f 1121 955 1119
f 959 1125 958
f 1125 959 1123
f 920 1094 921
f 1094 920 1096
f 731 846 733
f 735 849 772
f 730 848 768
f 733 771 773
f 721 797 715
f 742 855 745
f 740 852 742
f 715 843 763
f 785 857 744
f 746 842 785
f 745 839 746
f 720 791 766
f 744 784 783
f 848 730 814
f 811 768 848
f 845 768 811
f 805 767 845
f 820 775 817
f 825 777 820
f 828 778 825
f 846 731 808
f 817 773 771
f 850 776 851
f 823 774 850
f 849 735 823
f 814 770 849
f 844 766 791
f 800 725 844
f 808 769 800
f 854 782 840
f 833 780 854
f 851 779 833
f 788 763 843
f 786 762 788
f 787 764 786
f 791 720 787
f 842 746 839
f 857 785 842
f 784 744 857
f 840 783 784
f 802 765 805
f 797 721 802
f 794 715 797
f 843 715 794
f 831 781 828
f 852 740 831
f 855 742 852
f 839 745 855
f 731 733 732
f 769 731 729
f 725 769 727
f 735 772 703
f 774 735 704
f 776 774 737
f 779 776 707
f 768 767 726
f 730 768 728
f 770 730 702
f 772 770 703
f 777 778 706
f 775 777 705
f 773 775 736
f 733 773 734
f 721 715 698
f 765 721 723
f 767 765 726
f 742 745 741
f 740 742 710
f 781 740 739
f 778 781 708
f 762 764 717
f 763 762 716
f 715 763 718
f 785 744 743
f 746 785 714
f 745 746 713
f 766 725 724
f 720 766 722
f 764 720 719
f 780 779 738
f 782 780 709
f 783 782 711
f 744 783 712
f 848 814 815
f 811 848 847
f 845 811 810
f 805 845 807
f 820 817 819
f 825 820 822
f 828 825 826
f 846 808 809
f 771 846 813
f 817 771 816
f 850 851 827
f 823 850 824
f 849 823 821
f 814 849 815
f 844 791 796
f 800 844 799
f 808 800 806
f 854 840 836
f 833 854 834
f 851 833 830
f 788 843 793
f 786 788 790
f 787 786 792
f 791 787 795
f 842 839 837
f 857 842 841
f 784 857 856
f 840 784 838
f 802 805 804
f 797 802 801
f 794 797 798
f 843 794 798
f 831 828 829
f 852 831 832
f 855 852 835
f 839 855 853
f 1300 1303 1264
f 1324 1306 1267
f 1325 1324 1279
f 1308 1325 1280
f 1281 1308 1280
f 1313 1293 1282
f 1333 1298 1283
f 1307 1287 1244
f 1305 1284 1268
f 1264 1303 1265
f 1304 1302 1266
f 1324 1267 1269
f 1279 1324 1270
f 1325 1279 1271
f 1313 1328 1274
f 1293 1313 1274
f 1276 1316 1234
f 1333 1283 1278
f 1277 1299 1261
f 1291 1312 1275
f 1309 1310 1249
f 1244 1287 1246
f 1284 1244 1243
f 1241 1284 1242
f 1303 1305 1215
f 1264 1265 1237
f 1301 1264 1236
f 1302 1301 1238
f 1266 1302 1239
f 1240 1266 1239
f 1271 1270 1269
f 1280 1271 1245
f 1281 1272 1247
f 1250 1281 1248
f 1328 1273 1251
f 1274 1328 1252
f 1282 1274 1255
f 1234 1316 1257
f 1320 1276 1259
f 1283 1298 1260
f 1278 1283 1260
f 1335 1278 1263
f 1299 1335 1263
f 1261 1299 1262
f 1297 1277 1232
f 1319 1297 1258
f 1318 1319 1258
f 1317 1318 1228
f 1315 1317 1256
f 1314 1315 1225
f 1275 1312 1254
f 1310 1311 1249
f 1309 1249 1327
f 1244 1246 1243
f 1242 1243 1217
f 1241 1242 1217
f 1268 1241 1217
f 1303 1215 1265
f 1236 1237 1212
f 1238 1236 1212
f 1306 1240 1216
f 1267 1306 1216
f 1269 1267 1216
f 1245 1269 1218
f 1272 1245 1218
f 1248 1247 1219
f 1250 1248 1219
f 1251 1250 1220
f 1252 1251 1222
f 1253 1252 1222
f 1255 1253 1223
f 1316 1255 1223
f 1320 1259 1234
f 1298 1320 1234
f 1262 1263 1235
f 1261 1262 1235
f 1232 1261 1235
f 1228 1258 1229
f 1225 1256 1227
f 1254 1312 1275
f 1311 1275 1221
f 1243 1246 1217
f 1265 1215 1214
f 1237 1265 1212
f 1269 1216 1218
f 1223 1222 1226
f 1232 1235 1233
f 1258 1232 1233
f 1327 1249 1246
f 1247 1218 1219
f 1316 1226 1257
f 1298 1231 1260
f 1263 1260 1235
f 1258 1233 1230
f 1229 1258 1230
f 1228 1229 1230
f 1227 1228 1230
f 1225 1227 1224
f 1212 1265 1214
f 1239 1212 1213
f 1287 1307 1326
f 1284 1305 1336
f 1304 1306 1321
f 1316 1276 1331
f 1299 1277 1335
f 1297 1319 1334
f 1291 1311 1355
f 1311 1310 1330
f 1315 1314 1332
f 1355 1311 1330
f 1330 1309 1353
f 1309 1327 1353
f 1327 1326 1353
f 1326 1307 1345
f 1307 1336 1345
f 1336 1323 1345
f 1303 1322 1350
f 1322 1300 1350
f 1300 1301 1350
f 1301 1302 1362
f 1302 1321 1362
f 1321 1306 1362
f 1306 1324 1351
f 1324 1325 1351
f 1325 1308 1351
f 1308 1281 1352
f 1281 1328 1352
f 1328 1329 1368
f 1329 1313 1368
f 1313 1282 1354
f 1282 1331 1357
f 1331 1276 1357
f 1276 1320 1347
f 1320 1333 1347
f 1333 1335 1349
f 1335 1277 1349
f 1277 1334 1348
f 1334 1319 1348
f 1319 1318 1348
f 1318 1317 1356
f 1317 1315 1356
f 1315 1332 1356
f 1332 1312 1356
f 1355 1330 1353
f 1346 1353 1359
f 1345 1323 1365
f 1323 1350 1364
f 1351 1352 1358
f 1368 1354 1369
f 1354 1357 1369
f 1357 1347 1361
f 1347 1349 1361
f 1349 1348 1372
f 1348 1356 1373
f 1356 1355 1360
f 1355 1353 1360
f 1353 1346 1360
f 1345 1365 1359
f 1350 1362 1364
f 1351 1358 1362
f 1358 1352 1368
f 1346 1359 1360
f 1286 1289 1340
f 1285 1286 1337
f 1288 1285 1363
f 1292 1288 1338
f 1295 1292 1339
f 1296 1295 1342
f 1294 1296 1343
f 1290 1294 1344
f 1289 1290 1340
f 1339 1338 1370
f 1342 1339 1370
f 1343 1342 1372
f 1344 1343 1371
f 1340 1360 1359
f 1337 1340 1364
f 1363 1337 1364
f 1363 1364 1362
f 1366 1363 1362
f 1366 1362 1358
f 1367 1358 1368
f 1338 1368 1370
f 1344 1371 1360
f 1341 1344 1360
f 43 46 44
f 45 46 43
f 47 46 45
f 49 46 47
f 51 46 49
f 52 46 51
f 50 46 52
f 48 46 50
f 1203 1205 1378
f 1201 1203 1375
f 1202 1201 1374
f 1204 1202 1376
f 1206 1204 1377
f 1208 1206 1380
f 1210 1208 1381
f 1209 1210 1382
f 1207 1209 1382
f 1205 1207 1378
f 1022 1020 46
f 1020 1018 44
f 1018 1019 43
f 1019 1021 45
f 1021 1023 47
f 1023 1025 49
f 1025 1027 51
f 1027 1026 52
f 1026 1024 50
f 1024 1022 48
f 1020 1022 1203
f 1018 1020 1201
f 1019 1018 1202
f 1021 1019 1204
f 1023 1021 1206
f 1025 1023 1208
f 1027 1025 1210
f 1026 1027 1209
f 1024 1026 1207
f 1022 1024 1205
f 1360 1340 1341
f 1367 1366 1358
f 1368 1366 1367
f 1338 1366 1368
f 31 19 3
f 31 2 19
f 29 1 2
f 30 1 29
f 30 15 1
f 6 15 30
f 6 7 15
f 32 7 6
f 34 9 32
f 11 14 12
f 35 14 11
f 35 16 14
v -0.09754 -0.18334 -0.10296
v -0.12314 -0.16286 -0.02386
v -0.13008 -0.18012 0.04607
v -0.09630 -0.17573 0.10517
v -0.09250 -0.13200 -0.01733
v -0.09225 -0.13200 0.02700
v -0.02350 -0.18500 -0.14950
v -0.05280 -0.17007 -0.11259
v -0.04205 -0.16535 -0.02898
v -0.03871 -0.16109 0.04477
v -0.02618 -0.17834 0.13635
v -0.03505 -0.13200 -0.08123
v -0.06496 -0.13200 -0.04042
v -0.05279 -0.13200 0.05869
v -0.02300 -0.13200 0.09850
v 0.00817 -0.18500 -0.14983
v 0.04753 -0.16798 -0.11515
v 0.03405 -0.16683 -0.02778
v 0.03490 -0.16215 0.04638
v 0.02129 -0.17913 0.13749
v 0.02793 -0.13200 -0.08243
v 0.06259 -0.13200 -0.03995
v 0.04555 -0.13200 0.06226
v 0.01617 -0.13200 0.09950
v 0.09582 -0.18297 -0.10435
v 0.12139 -0.16155 -0.02399
v 0.12943 -0.17910 0.04602
v 0.09491 -0.17394 0.10562
v 0.09050 -0.13200 -0.02375
v 0.08950 -0.13200 0.03233
usemtl m029
f 1399 1400 1391
f 1392 1391 1400
f 1410 1401 1409
f 1402 1406 1405
f 1393 1397 1406
f 1384 1395 1387
f 1384 1390 1394
f 1384 1387 1388
f 1399 1403 1394
f 1398 1399 1390
f 1408 1409 1412
f 1408 1411 1403
f 1407 1408 1399
f 1394 1390 1391
f 1403 1399 1390
f 1404 1400 1399
f 1411 1408 1400
f 1405 1401 1409
f 1396 1392 1401
f 1388 1385 1392
f 1387 1384 1385
f 1395 1391 1384
f 1390 1399 1400
f 1385 1384 1400
f 1384 1391 1400
f 1397 1396 1405
f 1387 1395 1396
f 1412 1405 1404
f 1390 1399 1391
f 1401 1392 1400
f 1410 1402 1401
f 1401 1402 1405
f 1412 1409 1405
f 1393 1386 1392
f 1393 1392 1396
f 1392 1385 1396
f 1386 1385 1392
f 1397 1393 1396
f 1402 1393 1406
f 1396 1385 1388
f 1395 1384 1394
f 1384 1383 1390
f 1385 1384 1388
f 1390 1399 1394
f 1389 1398 1390
f 1411 1408 1412
f 1399 1408 1403
f 1395 1394 1391
f 1394 1403 1390
f 1403 1404 1399
f 1404 1411 1400
f 1405 1396 1401
f 1396 1388 1392
f 1388 1387 1385
f 1391 1390 1400
f 1408 1409 1400
f 1409 1401 1400
f 1392 1385 1400
f 1406 1397 1405
f 1388 1387 1396
f 1403 1411 1404
f 1411 1412 1404
v -0.19492 -0.21990 -0.02414
v -0.19969 -0.22891 0.00649
v -0.15030 -0.21284 -0.13734
v -0.15205 -0.22825 -0.10766
v -0.17373 -0.21951 -0.02310
v -0.16865 -0.22644 0.00521
v -0.15089 -0.22330 0.09005
v -0.15215 -0.22921 0.11969
v -0.07124 -0.21964 -0.20023
v -0.07671 -0.22566 -0.17178
v -0.12183 -0.20643 -0.10993
v -0.08614 -0.21470 0.14251
v -0.07620 -0.22588 0.18309
v -0.04846 -0.22132 -0.20079
v -0.04577 -0.22971 -0.17052
v -0.05101 -0.21974 0.15326
v -0.04537 -0.22952 0.18372
v 0.04323 -0.21992 -0.19946
v 0.04010 -0.22676 -0.17104
v 0.04589 -0.21822 0.15393
v 0.03971 -0.22667 0.18215
v 0.06647 -0.22110 -0.20142
v 0.07043 -0.22951 -0.17076
v 0.06598 -0.21986 0.15397
v 0.07046 -0.22956 0.18433
v 0.15063 -0.21289 -0.13739
v 0.14605 -0.22948 -0.10713
v 0.16869 -0.21131 -0.02150
v 0.16376 -0.22134 0.00176
v 0.14829 -0.22450 0.08924
v 0.14554 -0.22999 0.12012
v 0.17608 -0.21905 -0.11019
v 0.18964 -0.22066 -0.02405
v 0.19470 -0.23023 0.00714
v 0.17510 -0.21660 0.09527
v 0.17644 -0.21937 0.11534
usemtl m030
f 1440 1446 1441
f 1445 1446 1440
f 1432 1437 1433
f 1417 1418 1414
f 1419 1420 1424
f 1430 1435 1431
f 1424 1429 1425
f 1447 1443 1442
f 1421 1427 1422
f 1437 1432 1436
f 1414 1413 1417
f 1443 1447 1448
f 1435 1430 1434
f 1429 1424 1428
f 1427 1421 1426
v -0.26507 -0.13429 -0.17207
v -0.27831 -0.13815 -0.09552
v -0.27762 -0.15339 -0.02783
v -0.28368 -0.14370 0.05890
v -0.27044 -0.13562 0.13318
v -0.25325 -0.13475 0.19637
v -0.25894 -0.12367 -0.16817
v -0.27650 -0.12175 -0.09669
v -0.29674 -0.12418 -0.02709
v -0.28628 -0.12238 0.06694
v -0.26508 -0.12305 0.13482
v -0.25350 -0.12100 0.20050
v -0.17540 -0.22126 -0.15534
v -0.19045 -0.22624 -0.10642
v -0.21207 -0.22646 -0.01717
v -0.19773 -0.22663 0.05565
v -0.18421 -0.22497 0.13057
v -0.19424 -0.13413 -0.24793
v -0.18860 -0.16014 -0.18576
v -0.22399 -0.17749 -0.09874
v -0.21224 -0.19392 -0.03037
v -0.21857 -0.18480 0.06545
v -0.20215 -0.18009 0.13762
v -0.19464 -0.14084 0.21793
v -0.16650 -0.13520 0.27330
v -0.18306 -0.12394 -0.23839
v -0.20950 -0.12213 -0.19825
v -0.24050 -0.12300 -0.11050
v -0.23975 -0.12500 0.15875
v -0.19183 -0.12290 0.22287
v -0.16850 -0.12100 0.27650
v -0.09225 -0.21625 -0.22325
v -0.11312 -0.22629 -0.18185
v -0.12536 -0.22561 -0.10115
v -0.14845 -0.22382 -0.01272
v -0.13300 -0.22357 0.07131
v -0.11891 -0.22729 0.13954
v -0.10709 -0.22370 0.20014
v -0.09900 -0.13475 -0.30575
v -0.12870 -0.14468 -0.25543
v -0.13459 -0.18011 -0.20146
v -0.11361 -0.19480 -0.09701
v -0.14741 -0.19480 -0.02304
v -0.13488 -0.19480 0.06277
v -0.11190 -0.19300 0.13060
v -0.13189 -0.16800 0.21826
v -0.11870 -0.13395 0.29100
v -0.09950 -0.12100 -0.30750
v -0.12898 -0.12283 -0.26346
v -0.14532 -0.12055 0.24623
v -0.11242 -0.12462 0.28242
v -0.03982 -0.22109 -0.23116
v -0.04562 -0.22790 -0.17583
v -0.05850 -0.21843 -0.13205
v -0.04573 -0.22502 0.14784
v -0.04770 -0.22627 0.21359
v -0.04806 -0.13481 -0.31438
v -0.03577 -0.16458 -0.25582
v -0.03407 -0.19522 -0.15385
v -0.06914 -0.19457 -0.13386
v -0.04587 -0.19480 0.14267
v -0.03766 -0.17844 0.24262
v -0.03942 -0.13675 0.29739
v -0.05050 -0.12100 -0.31883
v -0.03576 -0.12284 -0.28755
v -0.03050 -0.12300 0.26350
v -0.03812 -0.12257 0.29388
v 0.03081 -0.22138 -0.23179
v 0.04375 -0.22746 -0.17426
v 0.05902 -0.21843 -0.13205
v 0.04364 -0.22464 0.14732
v 0.04358 -0.22588 0.21549
v 0.03545 -0.13464 -0.31518
v 0.03042 -0.16679 -0.25450
v 0.02861 -0.19514 -0.15339
v 0.06993 -0.19457 -0.13386
v 0.04080 -0.19480 0.14377
v 0.03110 -0.17917 0.24280
v 0.03470 -0.13651 0.30057
v 0.03800 -0.12100 -0.32000
v 0.02782 -0.12280 -0.28918
v 0.03050 -0.12300 0.26350
v 0.02918 -0.12254 0.29518
v 0.09325 -0.21625 -0.22325
v 0.11353 -0.22646 -0.18127
v 0.12593 -0.22561 -0.10089
v 0.14921 -0.22383 -0.01269
v 0.13409 -0.22366 0.07157
v 0.12003 -0.22739 0.13914
v 0.10693 -0.22400 0.20008
v 0.10000 -0.13475 -0.30575
v 0.12912 -0.14522 -0.25486
v 0.13543 -0.18033 -0.20109
v 0.11447 -0.19480 -0.09701
v 0.14839 -0.19480 -0.02304
v 0.13580 -0.19480 0.06277
v 0.11280 -0.19300 0.13060
v 0.13251 -0.16780 0.21844
v 0.11960 -0.13395 0.29100
v 0.10050 -0.12100 -0.30750
v 0.12972 -0.12283 -0.26346
v 0.14586 -0.12055 0.24623
v 0.11327 -0.12462 0.28242
v 0.17627 -0.22093 -0.15570
v 0.19141 -0.22611 -0.10662
v 0.21235 -0.22652 -0.01708
v 0.19847 -0.22665 0.05595
v 0.18481 -0.22489 0.13070
v 0.19496 -0.13400 -0.24692
v 0.18910 -0.16042 -0.18564
v 0.22546 -0.17726 -0.09790
v 0.21301 -0.19392 -0.03037
v 0.22010 -0.18445 0.06571
v 0.20382 -0.17973 0.13689
v 0.19554 -0.14104 0.21781
v 0.16750 -0.13520 0.27330
v 0.18389 -0.12394 -0.23839
v 0.21025 -0.12213 -0.19825
v 0.24150 -0.12300 -0.11050
v 0.24075 -0.12500 0.15875
v 0.19253 -0.12290 0.22287
v 0.16950 -0.12100 0.27650
v 0.26607 -0.13429 -0.17207
v 0.27989 -0.13807 -0.09428
v 0.27848 -0.15339 -0.02783
v 0.28526 -0.14338 0.05850
v 0.27179 -0.13529 0.13294
v 0.25425 -0.13475 0.19637
v 0.25994 -0.12367 -0.16817
v 0.27722 -0.12175 -0.09669
v 0.29768 -0.12418 -0.02709
v 0.28706 -0.12238 0.06694
v 0.26597 -0.12305 0.13482
v 0.25450 -0.12100 0.20050
usemtl m031
f 1482 1462 1483
f 1535 1536 1555
f 1483 1462 1463
f 1553 1533 1534
f 1534 1535 1553
f 1503 1485 1486
f 1501 1481 1502
f 1538 1537 1519
f 1486 1485 1465
f 1480 1481 1500
f 1516 1517 1533
f 1533 1518 1534
f 1500 1501 1517
f 1520 1519 1503
f 1481 1462 1461
f 1483 1484 1464
f 1517 1533 1518
f 1502 1482 1481
f 1532 1533 1516
f 1558 1559 1542
f 1541 1558 1542
f 1471 1492 1493
f 1494 1493 1509
f 1526 1510 1509
f 1522 1523 1507
f 1546 1526 1525
f 1489 1507 1508
f 1489 1508 1490
f 1560 1561 1544
f 1561 1562 1544
f 1468 1490 1491
f 1559 1560 1543
f 1469 1491 1492
f 1523 1522 1540
f 1489 1488 1506
f 1493 1494 1471
f 1560 1573 1561
f 1470 1452 1451
f 1494 1472 1471
f 1469 1451 1468
f 1510 1511 1495
f 1526 1547 1527
f 1468 1450 1449
f 1468 1449 1467
f 1559 1571 1572
f 1495 1499 1498
f 1472 1478 1477
f 1511 1515 1499
f 1547 1551 1531
f 1488 1497 1513
f 1522 1529 1549
f 1546 1550 1551
f 1562 1568 1569
f 1575 1581 1568
f 1573 1579 1580
f 1450 1456 1455
f 1449 1455 1475
f 1571 1577 1578
f 1558 1566 1577
f 1471 1477 1459
f 1452 1458 1457
f 1568 1581 1569
f 1566 1558 1571
f 1549 1540 1557
f 1565 1557 1558
f 1478 1472 1453
f 1498 1494 1472
f 1499 1495 1494
f 1515 1511 1495
f 1551 1547 1527
f 1531 1527 1511
f 1497 1488 1506
f 1529 1522 1540
f 1529 1521 1522
f 1513 1505 1521
f 1513 1506 1505
f 1581 1575 1563
f 1569 1563 1546
f 1550 1546 1547
f 1455 1449 1467
f 1474 1466 1488
f 1475 1467 1466
f 1579 1573 1574
f 1580 1574 1575
f 1456 1450 1449
f 1457 1451 1450
f 1577 1571 1572
f 1578 1572 1573
f 1458 1452 1451
f 1459 1453 1452
f 1494 1473 1472
f 1522 1521 1540
f 1575 1576 1563
f 1546 1564 1547
f 1488 1487 1505
f 1467 1449 1466
f 1557 1565 1577
f 1539 1548 1549
f 1540 1549 1565
f 1472 1478 1460
f 1473 1479 1478
f 1495 1499 1479
f 1527 1531 1515
f 1487 1496 1512
f 1521 1528 1548
f 1505 1512 1528
f 1576 1582 1569
f 1563 1569 1570
f 1564 1570 1551
f 1449 1455 1474
f 1488 1497 1496
f 1466 1474 1497
f 1575 1581 1582
f 1574 1580 1581
f 1451 1457 1456
f 1572 1578 1579
f 1454 1460 1459
f 1453 1459 1458
f 1572 1567 1559
f 1572 1578 1567
f 1453 1477 1471
f 1453 1459 1477
f 1580 1581 1575
f 1575 1562 1568
f 1468 1451 1450
f 1450 1468 1476
f 1450 1476 1456
f 1450 1469 1468
f 1450 1456 1457
f 1569 1550 1546
f 1563 1545 1546
f 1563 1562 1545
f 1474 1497 1488
f 1467 1475 1474
f 1511 1510 1514
f 1511 1514 1515
f 1527 1530 1526
f 1527 1531 1530
f 1478 1494 1498
f 1472 1493 1471
f 1482 1481 1462
f 1553 1552 1533
f 1538 1556 1537
f 1501 1500 1481
f 1554 1553 1535
f 1516 1500 1517
f 1504 1520 1503
f 1523 1541 1524
f 1524 1541 1542
f 1510 1494 1509
f 1525 1526 1509
f 1506 1522 1507
f 1544 1562 1545
f 1545 1546 1525
f 1468 1467 1490
f 1467 1489 1490
f 1543 1560 1544
f 1469 1468 1491
f 1542 1559 1543
f 1470 1469 1492
f 1471 1470 1492
f 1541 1523 1540
f 1507 1489 1506
f 1545 1562 1546
f 1469 1470 1451
f 1561 1573 1574
f 1546 1562 1563
f 1560 1559 1573
f 1494 1510 1495
f 1526 1546 1547
f 1559 1558 1571
f 1494 1495 1498
f 1471 1472 1477
f 1495 1511 1499
f 1527 1547 1531
f 1506 1488 1513
f 1540 1522 1549
f 1547 1546 1551
f 1563 1562 1569
f 1574 1573 1580
f 1449 1450 1455
f 1467 1449 1475
f 1572 1571 1578
f 1571 1558 1577
f 1453 1471 1459
f 1451 1452 1457
f 1477 1478 1459
f 1577 1566 1571
f 1565 1549 1557
f 1566 1565 1558
f 1459 1478 1453
f 1478 1498 1472
f 1498 1499 1494
f 1499 1515 1495
f 1531 1551 1527
f 1515 1531 1511
f 1513 1497 1506
f 1549 1529 1540
f 1529 1513 1521
f 1569 1581 1563
f 1551 1550 1547
f 1475 1455 1467
f 1474 1475 1466
f 1580 1579 1574
f 1455 1456 1449
f 1578 1577 1572
f 1579 1578 1573
f 1457 1458 1451
f 1458 1459 1452
f 1453 1472 1454
f 1494 1495 1473
f 1506 1488 1505
f 1546 1563 1564
f 1540 1521 1539
f 1558 1557 1571
f 1571 1557 1577
f 1540 1539 1549
f 1557 1540 1565
f 1454 1472 1460
f 1472 1473 1478
f 1473 1495 1479
f 1511 1527 1515
f 1505 1487 1512
f 1539 1521 1548
f 1521 1505 1528
f 1563 1576 1569
f 1564 1563 1570
f 1547 1564 1551
f 1466 1449 1474
f 1487 1488 1496
f 1488 1466 1497
f 1576 1575 1582
f 1575 1574 1581
f 1450 1451 1456
f 1573 1572 1579
f 1453 1454 1459
f 1452 1453 1458
f 1559 1572 1573
f 1572 1559 1560
f 1573 1572 1560
f 1450 1451 1469
f 1466 1467 1474
f 1557 1558 1566
f 1565 1557 1566
f 1472 1494 1493
v 0.03346 0.29702 0.17050
v -0.16140 0.29490 -0.10850
v -0.16138 0.29488 0.00350
v -0.15050 0.28400 -0.07150
v -0.17350 0.28400 -0.03350
v -0.14450 0.27800 -0.10850
v -0.18450 0.27300 -0.07150
v -0.13850 0.27300 -0.03350
v -0.16150 0.27300 0.00350
v 0.09350 0.26300 0.17650
v -0.02650 0.26298 0.17640
v 0.07350 0.26200 0.09550
v -0.12750 0.26100 -0.10850
v -0.15050 0.26100 -0.10850
v -0.17350 0.26100 -0.10850
v -0.19641 0.26092 -0.10850
v -0.12750 0.26100 0.00350
v -0.19637 0.26112 0.00350
v -0.13050 0.26000 -0.05550
v -0.13050 0.26000 -0.00650
v 0.05350 0.26000 0.01550
v 0.03349 0.25904 -0.06451
v -0.13850 0.25000 -0.07150
v -0.18450 0.25000 -0.03350
v -0.16150 0.25000 0.00350
v -0.00650 0.24900 0.01750
v -0.14550 0.24500 -0.00650
v -0.14450 0.24400 -0.10850
v -0.17850 0.24400 -0.10850
v 0.06350 0.24200 -0.06250
v 0.05350 0.24100 0.17950
v 0.01350 0.24100 0.17950
v -0.17350 0.23800 -0.07150
v -0.15050 0.23800 -0.03350
v 0.03350 0.23600 -0.06150
v -0.16050 0.23000 -0.05550
v -0.16050 0.23000 -0.03050
v -0.16050 0.23000 -0.00650
v -0.16150 0.22700 -0.10850
v -0.16137 0.22713 0.00350
v 0.09350 0.22500 -0.05950
v 0.03350 0.22500 -0.05950
v -0.02650 0.22501 -0.05967
v 0.09350 0.21500 0.02250
v -0.03815 0.18114 -0.02177
v 0.07350 0.20700 0.18550
v -0.00650 0.20700 0.18550
v 0.09350 0.20500 0.10550
v 0.01350 0.20200 -0.05550
v -0.10070 0.20499 -0.03823
v -0.11491 0.24654 -0.00064
v 0.09349 0.19497 0.18750
v -0.02650 0.19500 0.18750
v -0.02650 0.19200 0.02650
v 0.09350 0.19100 -0.05350
v 0.03350 0.19100 -0.05350
v -0.02650 0.19100 -0.05350
v -0.10650 0.18300 -0.03550
v -0.15234 0.22258 -0.00306
v 0.06350 0.17400 -0.05150
v 0.02862 0.17200 -0.07144
v 0.02850 0.17200 0.00950
v 0.25050 0.17200 0.05050
v -0.19250 0.17200 0.05064
v -0.04450 0.17200 0.09050
v 0.10250 0.17200 0.13050
v 0.25050 0.17200 0.17150
v 0.02850 0.17200 0.17150
v -0.19250 0.17200 0.17150
v -0.00650 0.17100 0.11050
v 0.07350 0.16800 -0.05050
v 0.03350 0.16800 -0.05050
v -0.02150 0.16700 -0.01550
v -0.02150 0.16700 0.00850
v -0.02150 0.16700 0.03250
v 0.03347 0.16100 0.19257
v 0.05350 0.16000 0.11250
v 0.07350 0.15800 0.03250
v 0.09350 0.15700 -0.04850
v -0.02650 0.15697 -0.04850
v 0.17650 0.15200 0.00950
v -0.11850 0.15200 0.00950
v 0.25050 0.15200 0.09050
v -0.19250 0.15200 0.09050
v -0.04450 0.15200 0.17150
v -0.03750 0.15100 -0.01550
v 0.01350 0.14700 0.03350
v 0.06350 0.14000 -0.04550
v 0.00350 0.14000 -0.04550
v -0.05250 0.13600 -0.01550
v -0.05250 0.13600 0.03250
v 0.10250 0.13300 -0.03050
v -0.04450 0.13300 -0.03050
v 0.25050 0.13300 0.13050
v -0.19250 0.13300 0.13050
v 0.10250 0.13300 0.17150
v 0.03348 0.12297 -0.04250
v 0.02858 0.11300 -0.07145
v 0.02850 0.11300 0.00950
v 0.25050 0.11300 0.05050
v -0.19250 0.11300 0.05050
v -0.04450 0.11300 0.09050
v 0.02850 0.11300 0.11050
v 0.10250 0.11300 0.13050
v 0.25050 0.11300 0.17150
v -0.19250 0.11300 0.17150
usemtl m062
f 1598 1622 1606
f 1621 1599 1616
f 1661 1670 1653
f 1679 1671 1654
f 1662 1639 1631
f 1688 1687 1678
f 1649 1688 1678
f 1651 1688 1667
f 1649 1650 1667
f 1643 1680 1675
f 1683 1643 1675
f 1643 1645 1663
f 1682 1643 1663
f 1683 1688 1677
f 1651 1683 1677
f 1646 1683 1666
f 1649 1687 1676
f 1682 1649 1676
f 1645 1649 1665
f 1682 1645 1665
f 1621 1611 1597
f 1584 1621 1597
f 1595 1610 1596
f 1584 1588 1596
f 1599 1600 1607
f 1618 1640 1641
f 1620 1619 1641
f 1657 1656 1627
f 1602 1633 1627
f 1672 1640 1632
f 1655 1668 1632
f 1601 1627 1632
f 1620 1641 1633
f 1602 1609 1633
f 1643 1646 1644
f 1646 1651 1647
f 1645 1646 1647
f 1651 1650 1648
f 1645 1651 1648
f 1680 1682 1681
f 1683 1680 1681
f 1682 1685 1684
f 1683 1682 1684
f 1682 1687 1686
f 1688 1685 1686
f 1604 1625 1608
f 1593 1604 1608
f 1593 1625 1635
f 1625 1639 1636
f 1635 1662 1652
f 1662 1671 1669
f 1658 1662 1669
f 1658 1679 1659
f 1679 1670 1660
f 1634 1679 1660
f 1634 1661 1630
f 1592 1634 1630
f 1661 1637 1626
f 1592 1661 1626
f 1592 1623 1594
f 1583 1592 1594
f 1623 1612 1603
f 1583 1623 1603
f 1585 1584 1587
f 1600 1585 1587
f 1584 1598 1589
f 1600 1584 1589
f 1600 1598 1606
f 1622 1600 1606
f 1598 1611 1615
f 1622 1621 1616
f 1599 1622 1616
f 1621 1610 1605
f 1599 1595 1590
f 1585 1599 1590
f 1595 1588 1586
f 1585 1595 1586
f 1623 1637 1653
f 1679 1642 1653
f 1623 1642 1654
f 1662 1638 1654
f 1623 1638 1631
f 1625 1624 1631
f 1623 1624 1617
f 1604 1612 1617
f 1658 1634 1628
f 1658 1592 1613
f 1583 1658 1613
f 1658 1593 1629
f 1635 1658 1629
f 1646 1643 1664
f 1680 1643 1674
f 1611 1598 1597
f 1610 1621 1596
f 1600 1622 1607
f 1585 1600 1591
f 1672 1673 1641
f 1640 1672 1641
f 1656 1655 1627
f 1640 1618 1632
f 1668 1672 1632
f 1673 1657 1633
f 1641 1673 1633
f 1646 1645 1644
f 1650 1649 1648
f 1685 1688 1684
f 1639 1662 1636
f 1671 1679 1669
f 1670 1661 1660
f 1637 1623 1626
f 1612 1604 1603
f 1611 1621 1615
f 1610 1595 1605
f 1588 1584 1586
f 1637 1661 1653
f 1642 1679 1654
f 1638 1662 1631
f 1624 1625 1617
f 1658 1583 1614
f 1687 1649 1678
f 1650 1651 1667
f 1688 1649 1667
f 1680 1683 1675
f 1683 1646 1664
f 1643 1683 1664
f 1645 1682 1663
f 1682 1680 1674
f 1643 1682 1674
f 1688 1651 1677
f 1651 1646 1666
f 1683 1651 1666
f 1687 1682 1676
f 1649 1682 1665
f 1598 1584 1597
f 1588 1595 1596
f 1621 1584 1596
f 1622 1599 1607
f 1599 1585 1591
f 1600 1599 1591
f 1619 1618 1641
f 1601 1602 1627
f 1633 1657 1627
f 1618 1601 1632
f 1627 1655 1632
f 1609 1620 1633
f 1645 1643 1644
f 1651 1645 1647
f 1649 1645 1648
f 1682 1683 1681
f 1688 1683 1684
f 1685 1682 1686
f 1687 1688 1686
f 1604 1593 1583
f 1625 1593 1608
f 1635 1625 1636
f 1662 1635 1636
f 1658 1635 1652
f 1662 1658 1652
f 1679 1658 1669
f 1634 1658 1659
f 1679 1634 1659
f 1661 1634 1660
f 1661 1592 1630
f 1623 1592 1626
f 1623 1583 1594
f 1604 1583 1603
f 1584 1600 1587
f 1598 1600 1589
f 1622 1598 1615
f 1621 1622 1615
f 1599 1621 1605
f 1595 1599 1605
f 1595 1585 1590
f 1584 1585 1586
f 1642 1623 1653
f 1670 1679 1653
f 1638 1623 1654
f 1671 1662 1654
f 1624 1623 1631
f 1639 1625 1631
f 1612 1623 1617
f 1625 1604 1617
f 1592 1658 1628
f 1634 1592 1628
f 1592 1583 1613
f 1593 1658 1614
f 1583 1593 1614
f 1593 1635 1629
