# daf_wheel_rr.obj - ISO 8855 (x ileri, y sol, z yukari), metre
mtllib daf.mtl
o daf_wheel_rr
v -0.07406 -0.10609 -0.08128
v -0.09134 -0.11394 -0.00531
v -0.07746 -0.10829 0.07454
v -0.08764 0.02959 -0.09570
v -0.11873 0.03348 -0.00694
v -0.09131 0.03048 0.08994
v 0.00054 -0.11302 -0.09442
v 0.00477 -0.12924 -0.01203
v 0.00113 -0.11513 0.08986
v 0.00096 0.03399 -0.11921
v 0.00022 0.03386 0.11990
v 0.07495 -0.10623 -0.08085
v 0.09341 -0.11327 -0.00462
v 0.07904 -0.10774 0.07546
v 0.08869 0.02926 -0.09573
v 0.11905 0.03348 -0.00697
v 0.09176 0.03048 0.08994
usemtl m036
f 12 8 7
f 1 7 2
f 14 9 13
f 13 16 17
f 2 5 4
f 14 17 11
f 1 4 10
f 7 10 15
f 9 11 6
f 12 15 16
f 3 6 5
f 12 13 8
f 2 7 8
f 3 2 9
f 13 9 8
f 9 2 8
f 14 13 17
f 1 2 4
f 9 14 11
f 7 1 10
f 12 7 15
f 3 9 6
f 13 12 16
f 2 3 5
v -0.32471 -0.30241 -0.02065
v -0.32150 -0.30208 0.06292
v -0.22430 -0.29564 -0.22284
v -0.26847 -0.27197 -0.14238
v -0.29525 -0.26165 -0.02456
v -0.28502 -0.26774 0.09669
v -0.24119 -0.28367 0.19499
v -0.20630 -0.10420 -0.20530
v -0.23818 -0.13169 -0.13620
v -0.27025 -0.13746 -0.02682
v -0.25570 -0.13716 0.09191
v -0.22073 -0.12423 0.17259
v -0.20558 -0.05100 -0.21600
v -0.24886 -0.04521 -0.12152
v -0.22058 -0.03943 -0.00775
v -0.25529 -0.03617 0.08374
v -0.22116 -0.05862 0.19057
v -0.14364 -0.27144 -0.26742
v -0.19450 -0.20900 -0.19350
v -0.16526 -0.23853 0.23770
v -0.13188 -0.29012 0.28438
v -0.13880 -0.13287 -0.23568
v -0.19243 -0.15371 -0.18236
v -0.15304 -0.14095 0.22201
v -0.10550 -0.10292 0.27192
v -0.14341 -0.04272 -0.23484
v -0.15121 -0.04091 -0.11848
v -0.17835 -0.04175 -0.00462
v -0.15469 -0.04127 0.11121
v -0.13052 -0.02811 0.20257
v -0.12250 -0.06242 0.26997
v -0.02350 -0.30341 -0.32340
v -0.02522 -0.25897 -0.29404
v -0.08350 -0.20900 0.26050
v -0.02365 -0.27414 0.30461
v -0.02779 -0.13777 -0.27007
v -0.04156 -0.15929 0.25864
v -0.01830 -0.12168 0.27878
v -0.04445 -0.03574 -0.22702
v -0.05325 -0.04365 -0.17500
v -0.06650 0.00000 0.14150
v -0.05266 -0.04130 0.18401
v -0.01901 -0.05476 0.29163
v 0.06300 -0.30186 -0.32086
v 0.09523 -0.26702 -0.28471
v 0.12005 -0.20955 0.25105
v 0.08949 -0.27894 0.29410
v 0.09016 -0.13716 -0.25602
v 0.09890 -0.15041 0.24652
v 0.07617 -0.10870 0.27613
v 0.06739 -0.03498 -0.21992
v 0.08450 -0.04334 -0.15546
v 0.14050 -0.00673 -0.07643
v 0.13385 -0.03905 0.11233
v 0.06270 -0.04196 0.18436
v 0.06506 -0.05446 0.28167
v 0.19345 -0.28295 -0.24173
v 0.23788 -0.23851 -0.16401
v 0.24906 -0.20922 0.12083
v 0.21295 -0.26724 0.21308
v 0.16867 -0.30483 0.27733
v 0.17168 -0.12755 -0.21890
v 0.22421 -0.13996 -0.15041
v 0.25642 -0.16067 -0.05867
v 0.24583 -0.15148 0.09981
v 0.19462 -0.13167 0.19372
v 0.18173 -0.05248 -0.22947
v 0.17064 -0.04229 -0.11657
v 0.19144 -0.04068 -0.00373
v 0.17193 -0.04001 0.10844
v 0.18749 -0.04445 0.20152
v 0.15570 -0.04560 0.26470
v 0.28321 -0.28906 -0.13282
v 0.30461 -0.27473 -0.02465
v 0.29360 -0.27833 0.09015
v 0.27528 -0.30452 0.17172
v 0.27073 -0.10362 -0.10512
v 0.27603 -0.12846 -0.01518
v 0.27456 -0.11223 0.07385
v 0.27721 -0.06203 -0.11166
v 0.28677 -0.05421 -0.03862
v 0.28193 -0.05575 0.08442
usemtl m037
f 18 22 21
f 49 50 62
f 38 37 24
f 19 23 22
f 23 19 18
f 61 62 50
f 49 50 35
f 18 22 23
f 93 77 92
f 78 64 77
f 64 63 77
f 38 37 52
f 20 36 21
f 62 65 53
f 52 54 55
f 21 26 27
f 35 53 39
f 74 79 65
f 75 81 80
f 77 83 82
f 63 66 83
f 37 41 54
f 23 28 29
f 75 80 79
f 24 29 41
f 91 95 81
f 22 27 28
f 92 96 95
f 92 82 96
f 35 39 40
f 36 40 26
f 64 67 66
f 52 55 67
f 96 82 95
f 55 54 66
f 81 95 80
f 40 25 26
f 66 67 83
f 65 68 56
f 79 84 68
f 41 47 48
f 26 31 32
f 53 56 43
f 95 98 97
f 42 48 60
f 80 85 84
f 29 34 47
f 94 97 85
f 28 33 34
f 27 32 33
f 96 99 98
f 83 88 99
f 39 43 30
f 25 30 31
f 67 73 88
f 55 60 73
f 73 72 88
f 48 47 59
f 30 44 31
f 34 46 47
f 99 87 86
f 56 68 57
f 47 58 59
f 47 46 58
f 33 45 46
f 87 88 71
f 88 72 71
f 88 72 89
f 69 68 84
f 85 69 84
f 72 73 60
f 45 33 32
f 69 57 68
f 57 43 56
f 61 49 62
f 90 74 75
f 18 19 22
f 49 61 50
f 92 77 76
f 20 35 36
f 90 91 75
f 52 37 51
f 50 62 53
f 22 21 27
f 35 50 53
f 62 74 65
f 75 91 81
f 92 76 82
f 76 77 82
f 77 63 83
f 63 64 66
f 52 51 54
f 51 37 54
f 24 23 29
f 74 75 79
f 37 24 41
f 23 22 28
f 91 92 95
f 36 35 40
f 21 36 26
f 64 52 67
f 67 55 66
f 80 95 94
f 54 41 55
f 55 41 42
f 40 39 25
f 82 83 96
f 53 65 56
f 65 79 68
f 42 41 48
f 27 26 32
f 39 53 43
f 94 95 97
f 55 42 60
f 79 80 84
f 41 29 47
f 80 94 85
f 29 28 34
f 28 27 33
f 95 96 98
f 96 83 99
f 25 39 30
f 26 25 31
f 83 67 88
f 67 55 73
f 99 88 87
f 60 48 59
f 34 33 46
f 98 99 86
f 69 85 70
f 70 85 86
f 31 44 45
f 32 31 45
f 44 43 57
f 30 43 44
f 89 72 73
f 59 72 60
f 69 85 86
f 69 86 70
v -0.44770 -0.33350 -0.13520
v -0.46060 -0.33500 -0.02370
v -0.45375 -0.33458 0.08850
v -0.44283 -0.33167 0.17950
v -0.43713 -0.27837 -0.32606
v -0.46913 -0.27784 -0.25111
v -0.50882 -0.27677 -0.14429
v -0.52863 -0.27686 -0.02984
v -0.52152 -0.27703 0.08763
v -0.48611 -0.27745 0.20586
v -0.45652 -0.27835 0.29340
v -0.43639 -0.13033 -0.32717
v -0.47044 -0.14145 -0.25229
v -0.50940 -0.14045 -0.14528
v -0.52930 -0.14313 -0.02674
v -0.52135 -0.14041 0.09125
v -0.48621 -0.14345 0.20860
v -0.45735 -0.13594 0.29671
v -0.43738 -0.05975 -0.32575
v -0.46690 -0.06078 -0.24946
v -0.50072 -0.05779 -0.14271
v -0.51973 -0.05765 -0.03095
v -0.51227 -0.05731 0.08521
v -0.48335 -0.05973 0.20291
v -0.45538 -0.06124 0.29144
v -0.43796 0.07562 -0.32488
v -0.46935 0.07352 -0.24996
v -0.50442 0.07071 -0.14286
v -0.52348 0.07002 -0.03028
v -0.51596 0.07019 0.08686
v -0.48537 0.07174 0.20456
v -0.45636 0.07506 0.29226
v -0.43336 0.18443 -0.33150
v -0.46783 0.18442 -0.25283
v -0.50653 0.18444 -0.14692
v -0.52707 0.18442 -0.02588
v -0.51879 0.18443 0.09123
v -0.48413 0.18443 0.20846
v -0.45671 0.18441 0.29898
v -0.43796 0.29338 -0.32488
v -0.46935 0.29548 -0.24996
v -0.50442 0.29829 -0.14286
v -0.52348 0.29898 -0.03028
v -0.51596 0.29881 0.08686
v -0.48537 0.29726 0.20456
v -0.45636 0.29394 0.29226
v -0.33725 -0.33150 -0.33700
v -0.37512 -0.33554 -0.26281
v -0.38372 -0.33611 -0.14950
v -0.35783 -0.33150 -0.03717
v -0.37050 -0.33337 0.08487
v -0.38841 -0.33618 0.21023
v -0.35159 -0.33400 0.30514
v -0.32800 -0.26620 -0.43620
v -0.37563 -0.27670 -0.37428
v -0.41850 -0.27927 -0.29556
v -0.32480 -0.31751 -0.02308
v -0.32185 -0.31770 0.06075
v -0.43150 -0.31900 0.24950
v -0.40035 -0.27744 0.33664
v -0.35341 -0.27591 0.40436
v -0.32733 -0.13333 -0.43717
v -0.37723 -0.14078 -0.37500
v -0.41561 -0.15206 -0.29472
v -0.40038 -0.14447 0.33558
v -0.35629 -0.13737 0.40502
v -0.32900 -0.05975 -0.43475
v -0.37153 -0.05951 -0.37212
v -0.40198 -0.04952 -0.28377
v -0.38372 -0.03389 -0.14950
v -0.32817 -0.05133 -0.02367
v -0.33575 -0.04804 0.06764
v -0.39200 -0.03533 0.21350
v -0.39316 -0.05670 0.33217
v -0.35025 -0.06073 0.40267
v -0.32736 0.07929 -0.43650
v -0.37434 0.07299 -0.37338
v -0.40447 0.05611 -0.28453
v -0.38372 0.03300 -0.14950
v -0.34875 0.04212 -0.03200
v -0.36494 0.03789 0.07917
v -0.39200 0.03458 0.21350
v -0.39580 0.06775 0.33395
v -0.35241 0.07599 0.40427
v -0.32950 0.18450 -0.43550
v -0.37522 0.18443 -0.37381
v -0.41398 0.18443 -0.29598
v -0.39809 0.18443 0.33359
v -0.35666 0.18443 0.40372
v -0.32736 0.28971 -0.43650
v -0.37434 0.29601 -0.37338
v -0.40447 0.31289 -0.28453
v -0.38372 0.33600 -0.14950
v -0.32757 0.31793 -0.02201
v -0.33539 0.32143 0.06664
v -0.39200 0.33442 0.21350
v -0.39580 0.30125 0.33395
v -0.35241 0.29301 0.40427
v -0.26296 -0.33554 -0.37458
v -0.26136 -0.33214 -0.25021
v -0.30450 -0.32700 -0.15450
v -0.31250 -0.32700 0.13950
v -0.27467 -0.33000 0.22283
v -0.27250 -0.33700 0.33700
v -0.24521 -0.33400 0.39636
v -0.25186 -0.27898 -0.46782
v -0.30262 -0.27800 -0.41359
v -0.23127 -0.31717 -0.23019
v -0.29045 -0.31733 -0.14583
v -0.31350 -0.31400 -0.07217
v -0.30550 -0.31655 0.11173
v -0.25206 -0.31726 0.20460
v -0.26534 -0.27867 0.45528
v -0.21212 -0.27387 0.50338
v -0.25389 -0.13934 -0.46790
v -0.30089 -0.15206 -0.41128
v -0.26750 -0.14352 0.45407
v -0.21740 -0.14300 0.50150
v -0.24969 -0.06063 -0.46697
v -0.28731 -0.04953 -0.39862
v -0.23620 -0.05056 -0.23350
v -0.29075 -0.05257 -0.14655
v -0.31350 -0.05600 -0.07217
v -0.30565 -0.05324 0.11302
v -0.25371 -0.05192 0.20622
v -0.27250 -0.03300 0.33700
v -0.26237 -0.05889 0.45072
v -0.20813 -0.05975 0.50463
v -0.25085 0.07353 -0.46839
v -0.28977 0.05632 -0.40009
v -0.25383 0.04111 -0.24517
v -0.29150 0.05133 -0.14817
v -0.31450 0.05600 -0.06650
v -0.30700 0.05250 0.10950
v -0.26420 0.04580 0.21430
v -0.27250 0.03225 0.33700
v -0.26349 0.07012 0.45327
v -0.20992 0.07433 0.50417
v -0.25346 0.18442 -0.46556
v -0.29855 0.18443 -0.41221
v -0.26824 0.18443 0.45052
v -0.21950 0.18440 0.50060
v -0.25085 0.29547 -0.46839
v -0.28977 0.31268 -0.40009
v -0.23541 0.31874 -0.23295
v -0.28996 0.31660 -0.14629
v -0.31330 0.31340 -0.07330
v -0.30450 0.31574 0.11260
v -0.25277 0.31741 0.20616
v -0.27250 0.33675 0.33700
v -0.26349 0.29888 0.45327
v -0.20992 0.29467 0.50417
v -0.13141 -0.33400 -0.44605
v -0.15688 -0.33575 -0.37750
v -0.16983 -0.32700 -0.29483
v -0.15393 -0.33086 0.32179
v -0.14217 -0.33500 0.43803
v -0.13891 -0.27578 -0.51063
v -0.14717 -0.31725 -0.28973
v -0.18900 -0.31400 0.26100
v -0.14531 -0.31752 0.29185
v -0.16205 -0.27523 0.48455
v -0.13384 -0.27597 0.51938
v -0.14066 -0.14277 -0.51066
v -0.16019 -0.14923 0.48362
v -0.13632 -0.13987 0.52013
v -0.13615 -0.05756 -0.50211
v -0.15688 -0.03425 -0.37750
v -0.14868 -0.05249 -0.28983
v -0.18900 -0.05600 0.26100
v -0.14710 -0.05119 0.29480
v -0.15465 -0.04956 0.46740
v -0.13012 -0.06118 0.51820
v -0.13688 0.07045 -0.50583
v -0.15688 0.03337 -0.37750
v -0.15564 0.05000 -0.28921
v -0.18950 0.05600 0.26050
v -0.14680 0.04350 0.31330
v -0.15676 0.05826 0.46999
v -0.13332 0.07517 0.51917
v -0.14278 0.18442 -0.50783
v -0.15747 0.18443 0.48380
v -0.13442 0.18442 0.51966
v -0.13688 0.29855 -0.50583
v -0.15688 0.33563 -0.37750
v -0.14847 0.31665 -0.28878
v -0.18900 0.31350 0.26100
v -0.14422 0.31801 0.29514
v -0.15676 0.31074 0.46999
v -0.13332 0.29383 0.51917
v -0.02380 -0.33500 -0.46040
v -0.03750 -0.33150 -0.35783
v -0.04650 -0.32925 0.34750
v -0.02308 -0.33517 0.44750
v -0.02910 -0.27631 -0.52746
v -0.02519 -0.31757 -0.32456
v -0.07217 -0.31400 -0.31350
v -0.02634 -0.31739 0.32461
v -0.02588 -0.27763 0.52833
v -0.02879 -0.14213 -0.52913
v -0.02700 -0.14022 0.52987
v -0.02849 -0.05752 -0.51750
v -0.02514 -0.05125 -0.32809
v -0.07217 -0.05600 -0.31350
v -0.02768 -0.05207 0.32613
v -0.02308 -0.03500 0.44750
v -0.02500 -0.06050 0.52615
v -0.02841 0.06997 -0.52161
v -0.03225 0.04212 -0.34862
v -0.06650 0.05600 -0.31450
v -0.04079 0.04671 0.33550
v -0.02308 0.03433 0.44750
v -0.02569 0.07342 0.52830
v -0.02950 0.18444 -0.52723
v -0.02672 0.18444 0.52774
v -0.02841 0.29903 -0.52161
v -0.02382 0.31808 -0.32757
v -0.07330 0.31340 -0.31330
v -0.02777 0.31727 0.32540
v -0.02308 0.33467 0.44750
v -0.02569 0.29558 0.52830
v 0.08367 -0.33525 -0.45167
v 0.08364 -0.33257 -0.36164
v 0.13950 -0.32700 -0.31250
v 0.09150 -0.33000 0.34133
v 0.08429 -0.33557 0.44486
v 0.08311 -0.27655 -0.52255
v 0.06021 -0.31776 -0.32183
v 0.11117 -0.31663 -0.30573
v 0.08900 -0.31706 0.31324
v 0.12829 -0.26243 0.49243
v 0.08491 -0.27723 0.52531
v 0.08424 -0.14313 -0.52321
v 0.13023 -0.14509 0.49277
v 0.08240 -0.14286 0.52730
v 0.08237 -0.05722 -0.51231
v 0.06607 -0.04875 -0.33179
v 0.11208 -0.05323 -0.30595
v 0.08927 -0.05177 0.31625
v 0.09471 -0.04032 0.45724
v 0.08631 -0.06068 0.52251
v 0.08222 0.06951 -0.51657
v 0.07737 0.03887 -0.35650
v 0.10950 0.05250 -0.30700
v 0.08810 0.04580 0.32850
v 0.10093 0.05091 0.46354
v 0.08561 0.07303 0.52516
v 0.08613 0.18442 -0.52041
v 0.13042 0.18442 0.49225
v 0.08178 0.18442 0.52499
v 0.08222 0.29949 -0.51657
v 0.06550 0.32066 -0.33102
v 0.10981 0.31597 -0.30599
v 0.08918 0.31749 0.31536
v 0.10093 0.31809 0.46354
v 0.08561 0.29597 0.52516
v 0.17100 -0.33150 -0.44550
v 0.21014 -0.33618 -0.38805
v 0.22267 -0.33000 -0.27417
v 0.24150 -0.32700 0.24200
v 0.20836 -0.33386 0.31450
v 0.19917 -0.33442 0.41850
v 0.20281 -0.27899 -0.48809
v 0.20050 -0.31716 -0.25444
v 0.26083 -0.31400 -0.18883
v 0.23033 -0.31659 0.22957
v 0.16887 -0.31763 0.28069
v 0.21793 -0.28229 0.47190
v 0.18879 -0.27288 0.50954
v 0.20273 -0.14114 -0.48923
v 0.21597 -0.14704 0.47109
v 0.19296 -0.13624 0.50987
v 0.20210 -0.05935 -0.48404
v 0.21014 -0.03391 -0.38805
v 0.20308 -0.05194 -0.25557
v 0.26083 -0.05600 -0.18883
v 0.23090 -0.05304 0.23023
v 0.17574 -0.04976 0.28643
v 0.21486 -0.05605 0.46359
v 0.18431 -0.06081 0.50925
v 0.20181 0.07161 -0.48714
v 0.21014 0.03318 -0.38805
v 0.21420 0.04580 -0.26390
v 0.26050 0.05600 -0.18950
v 0.23133 0.05133 0.23150
v 0.20250 0.03775 0.31012
v 0.21610 0.06471 0.46572
v 0.18619 0.07727 0.50990
v 0.20364 0.18443 -0.48577
v 0.21386 0.18443 0.46897
v 0.19685 0.18443 0.50864
v 0.20181 0.29739 -0.48714
v 0.21014 0.33582 -0.38805
v 0.20391 0.31751 -0.25427
v 0.26075 0.31350 -0.18900
v 0.22980 0.31615 0.22994
v 0.17627 0.31998 0.28607
v 0.21610 0.30429 0.46572
v 0.18619 0.29173 0.50990
v 0.30495 -0.33400 -0.35114
v 0.33028 -0.33589 -0.26439
v 0.32933 -0.33150 -0.14617
v 0.34725 -0.32925 -0.04600
v 0.34133 -0.33000 0.09150
v 0.31450 -0.33386 0.20836
v 0.32421 -0.33543 0.32436
v 0.28100 -0.33150 0.38650
v 0.29307 -0.27491 -0.45266
v 0.33739 -0.27524 -0.39880
v 0.29244 -0.31756 -0.14375
v 0.32445 -0.31733 -0.02613
v 0.31228 -0.31682 0.09023
v 0.28009 -0.31774 0.17031
v 0.36246 -0.27058 0.35817
v 0.31702 -0.27566 0.42654
v 0.29448 -0.13570 -0.45434
v 0.33768 -0.14656 -0.39840
v 0.36150 -0.15312 0.35881
v 0.31711 -0.14046 0.42829
v 0.29115 -0.06149 -0.45088
v 0.33146 -0.05641 -0.39153
v 0.33028 -0.03411 -0.26439
v 0.29550 -0.05125 -0.14527
v 0.32594 -0.05213 -0.02743
v 0.31531 -0.05200 0.09057
v 0.28642 -0.04931 0.17842
v 0.34146 -0.04477 0.34046
v 0.31547 -0.06043 0.42348
v 0.29306 0.07705 -0.45150
v 0.33428 0.06790 -0.39362
v 0.33028 0.03333 -0.26439
v 0.31739 0.04367 -0.14083
v 0.33536 0.04671 -0.04050
v 0.32850 0.04580 0.08810
v 0.31013 0.03775 0.20250
v 0.34513 0.05227 0.34207
v 0.31622 0.07425 0.42595
v 0.29287 0.18442 -0.45647
v 0.33509 0.18442 -0.39772
v 0.35960 0.18440 0.36030
v 0.31712 0.18443 0.42625
v 0.29306 0.29195 -0.45150
v 0.33428 0.30110 -0.39362
v 0.33028 0.33567 -0.26439
v 0.29505 0.31800 -0.14423
v 0.32530 0.31716 -0.02604
v 0.31367 0.31722 0.09253
v 0.28609 0.32035 0.17818
v 0.34513 0.31673 0.34207
v 0.31622 0.29475 0.42595
v 0.39621 -0.33400 -0.24507
v 0.43783 -0.33500 -0.14197
v 0.44750 -0.33517 -0.02300
v 0.44537 -0.33527 0.08877
v 0.41505 -0.33473 0.20414
v 0.38650 -0.33150 0.28100
v 0.40629 -0.27702 -0.34926
v 0.45492 -0.27996 -0.26369
v 0.48453 -0.27557 -0.16276
v 0.49050 -0.25300 0.12370
v 0.47176 -0.27935 0.21779
v 0.42577 -0.27871 0.31871
v 0.38204 -0.27362 0.39035
v 0.40966 -0.13909 -0.34789
v 0.45434 -0.14265 -0.26685
v 0.48127 -0.15605 -0.16691
v 0.49050 -0.17080 0.13750
v 0.47145 -0.14490 0.21922
v 0.42807 -0.14074 0.31738
v 0.38662 -0.13475 0.38600
v 0.40276 -0.06063 -0.35028
v 0.45017 -0.05878 -0.26009
v 0.46590 -0.04854 -0.15196
v 0.44750 -0.03500 -0.02300
v 0.45062 -0.03676 0.09056
v 0.46273 -0.05616 0.21417
v 0.42237 -0.06044 0.31859
v 0.37783 -0.06000 0.39433
v 0.40487 0.07376 -0.35042
v 0.45238 0.07009 -0.26227
v 0.46800 0.05495 -0.15400
v 0.44750 0.03433 -0.02300
v 0.45062 0.03606 0.09056
v 0.46582 0.06675 0.21604
v 0.42467 0.07294 0.31872
v 0.37890 0.07650 0.39330
v 0.41050 0.18443 -0.34539
v 0.45172 0.18443 -0.26560
v 0.48076 0.18441 -0.16654
v 0.49062 0.18438 0.13725
v 0.46886 0.18444 0.21782
v 0.42769 0.18442 0.31480
v 0.39264 0.18443 0.38036
v 0.40487 0.29524 -0.35042
v 0.45238 0.29891 -0.26227
v 0.46800 0.31405 -0.15400
v 0.44750 0.33467 -0.02300
v 0.45062 0.33294 0.09056
v 0.46582 0.30225 0.21604
v 0.42467 0.29606 0.31872
v 0.37890 0.29250 0.39330
v 0.50133 -0.26392 -0.21533
v 0.51885 -0.27714 -0.13151
v 0.52910 -0.27654 -0.02490
v 0.52298 -0.27781 0.08773
v 0.50898 -0.27497 0.18831
v 0.50211 -0.13556 -0.21378
v 0.52113 -0.13751 -0.12996
v 0.52957 -0.14320 -0.02444
v 0.52371 -0.14126 0.08755
v 0.51127 -0.13536 0.18935
v 0.50025 -0.05975 -0.21800
v 0.51648 -0.06102 -0.13284
v 0.52743 -0.06041 -0.02610
v 0.52157 -0.06069 0.08743
v 0.50689 -0.06109 0.18692
v 0.50103 0.08347 -0.21585
v 0.51856 0.07502 -0.13189
v 0.52925 0.07274 -0.02503
v 0.52321 0.07315 0.08733
v 0.50863 0.07734 0.18703
v 0.50231 0.18444 -0.21381
v 0.51979 0.18443 -0.12998
v 0.52759 0.18443 -0.02525
v 0.52159 0.18443 0.08841
v 0.51071 0.18442 0.19226
v 0.50103 0.28553 -0.21585
v 0.51856 0.29398 -0.13189
v 0.52925 0.29626 -0.02503
v 0.52321 0.29585 0.08733
v 0.50863 0.29166 0.18703
usemtl m038
f 438 388 437
f 185 184 239
f 184 238 239
f 367 368 331
f 261 262 212
f 362 407 408
f 155 105 154
f 331 330 367
f 262 261 298
f 160 159 212
f 109 158 159
f 106 100 101
f 155 147 100
f 154 146 147
f 206 198 146
f 205 252 198
f 294 290 252
f 326 321 290
f 362 356 321
f 362 357 356
f 408 399 357
f 457 450 399
f 457 451 450
f 503 452 451
f 504 453 452
f 460 454 453
f 461 455 454
f 413 405 455
f 414 406 405
f 367 361 406
f 330 325 361
f 298 293 325
f 261 256 293
f 212 204 256
f 159 152 204
f 158 151 152
f 109 103 151
f 108 102 103
f 107 101 102
f 146 198 147
f 252 253 198
f 356 357 321
f 455 405 454
f 100 148 101
f 405 404 454
f 102 150 151
f 209 149 148
f 208 148 200
f 208 200 199
f 207 199 254
f 258 254 253
f 258 253 291
f 295 291 322
f 328 322 323
f 328 323 358
f 363 358 400
f 364 400 401
f 409 401 402
f 410 402 403
f 411 403 404
f 365 404 359
f 365 359 360
f 366 360 324
f 329 324 292
f 297 292 255
f 259 255 202
f 211 202 201
f 210 201 150
f 157 150 149
f 200 148 199
f 254 199 253
f 402 452 453
f 359 404 360
f 324 325 293
f 201 151 150
f 149 101 148
f 199 147 198
f 291 252 290
f 291 290 321
f 358 357 399
f 358 399 400
f 401 450 451
f 402 451 452
f 403 453 454
f 360 361 325
f 255 256 204
f 255 204 203
f 202 152 151
f 150 102 101
f 110 159 109
f 107 114 113
f 106 113 112
f 105 112 163
f 155 163 162
f 154 162 215
f 206 215 214
f 205 214 263
f 257 263 299
f 294 299 332
f 326 332 369
f 362 369 416
f 408 416 463
f 456 463 464
f 457 464 465
f 458 465 507
f 502 507 508
f 503 508 509
f 504 509 467
f 460 467 468
f 461 468 418
f 414 418 370
f 367 370 334
f 331 334 300
f 298 300 265
f 262 265 264
f 261 264 216
f 212 216 165
f 160 165 164
f 159 164 116
f 109 116 115
f 108 115 114
f 471 472 512
f 514 475 515
f 173 123 124
f 167 219 218
f 471 470 420
f 513 512 472
f 475 514 474
f 427 476 426
f 168 119 120
f 420 372 373
f 514 513 473
f 306 340 339
f 271 306 305
f 168 120 169
f 471 420 421
f 378 427 426
f 173 226 225
f 122 123 172
f 373 335 336
f 378 426 377
f 222 221 169
f 268 303 302
f 374 375 421
f 336 337 373
f 337 374 373
f 423 424 474
f 338 304 305
f 270 224 225
f 224 223 172
f 169 220 168
f 220 267 219
f 267 302 266
f 302 336 335
f 421 422 471
f 422 423 472
f 424 425 475
f 425 377 426
f 377 338 339
f 305 304 271
f 304 270 271
f 225 224 173
f 171 170 121
f 121 120 113
f 120 119 112
f 119 167 162
f 167 218 214
f 218 266 263
f 266 301 299
f 301 335 332
f 335 372 369
f 372 419 415
f 419 420 416
f 420 470 463
f 470 471 464
f 471 512 507
f 512 513 508
f 513 514 509
f 514 515 510
f 515 475 467
f 475 476 468
f 476 427 418
f 427 378 370
f 378 379 371
f 379 340 334
f 340 306 300
f 306 272 265
f 272 226 216
f 226 174 165
f 174 173 164
f 173 124 117
f 124 123 116
f 123 122 115
f 122 121 114
f 162 214 215
f 464 507 465
f 509 510 467
f 105 104 154
f 104 105 155
f 154 104 155
f 153 206 154
f 205 153 206
f 458 457 501
f 502 458 501
f 460 504 505
f 414 462 413
f 330 367 368
f 331 330 368
f 213 261 262
f 112 111 162
f 111 112 163
f 162 163 111
f 161 215 162
f 214 215 161
f 465 464 506
f 507 465 506
f 418 417 469
f 333 370 371
f 334 333 371
f 217 264 265
f 116 164 117
f 114 121 120
f 119 112 113
f 112 119 168
f 112 119 118
f 111 118 167
f 167 118 168
f 119 112 163
f 162 167 219
f 161 166 218
f 218 166 219
f 166 161 215
f 214 218 266
f 263 266 301
f 299 301 335
f 332 335 372
f 419 369 372
f 415 369 419
f 415 419 420
f 416 420 470
f 470 463 416
f 463 470 471
f 464 471 511
f 506 511 512
f 512 511 471
f 507 512 472
f 512 507 465
f 507 512 513
f 508 513 514
f 509 514 515
f 510 515 475
f 515 510 467
f 467 475 476
f 468 476 426
f 468 476 477
f 469 477 427
f 427 477 426
f 477 427 418
f 469 418 477
f 476 468 417
f 469 417 468
f 418 427 378
f 370 378 379
f 371 379 370
f 340 379 378
f 371 379 339
f 340 339 379
f 340 334 333
f 334 340 306
f 300 306 272
f 265 272 271
f 265 272 227
f 227 272 271
f 272 265 264
f 217 227 271
f 217 227 226
f 227 217 264
f 216 264 217
f 174 165 216
f 165 174 173
f 164 173 124
f 124 117 164
f 117 124 123
f 124 117 116
f 116 123 122
f 123 116 115
f 115 122 121
f 502 458 457
f 462 413 461
f 212 261 213
f 509 510 466
f 510 466 467
f 162 161 214
f 416 415 369
f 463 464 457
f 463 456 457
f 506 501 457
f 506 465 458
f 506 507 502
f 506 501 458
f 507 502 458
f 507 503 502
f 507 508 503
f 509 504 503
f 509 466 459
f 504 505 459
f 510 467 460
f 510 505 459
f 460 459 505
f 510 505 460
f 467 460 505
f 467 468 461
f 468 461 460
f 468 417 413
f 418 414 462
f 418 417 413
f 469 462 413
f 418 414 413
f 418 367 414
f 418 370 367
f 371 370 367
f 371 368 367
f 334 331 368
f 334 333 330
f 334 331 330
f 300 298 331
f 300 265 262
f 265 262 261
f 265 264 261
f 265 217 213
f 217 216 212
f 216 212 213
f 217 213 212
f 216 165 160
f 165 160 212
f 165 160 159
f 165 164 159
f 164 159 160
f 117 164 159
f 117 110 159
f 117 116 109
f 116 109 110
f 117 110 109
f 115 108 109
f 116 109 108
f 115 114 107
f 114 113 106
f 112 105 106
f 112 163 155
f 111 154 105
f 111 163 155
f 112 105 155
f 162 154 155
f 162 215 206
f 162 214 205
f 162 153 206
f 214 205 206
f 214 263 257
f 263 299 294
f 332 326 294
f 369 362 326
f 415 407 362
f 415 407 408
f 415 416 408
f 416 408 407
f 463 456 408
f 228 175 229
f 517 480 479
f 520 483 519
f 485 435 484
f 436 485 435
f 346 345 386
f 236 278 237
f 131 130 182
f 488 521 487
f 524 525 489
f 525 489 490
f 491 492 439
f 390 389 348
f 241 281 240
f 386 387 346
f 278 279 236
f 380 428 429
f 177 126 176
f 279 278 312
f 183 182 236
f 130 181 182
f 228 273 229
f 518 481 480
f 519 482 481
f 312 311 345
f 176 229 177
f 273 274 229
f 380 381 341
f 484 435 483
f 127 178 128
f 435 434 483
f 129 180 181
f 232 179 178
f 275 274 308
f 383 430 431
f 276 277 234
f 231 178 230
f 275 230 274
f 432 481 482
f 384 434 385
f 344 345 311
f 233 181 180
f 179 128 178
f 230 177 229
f 308 273 307
f 308 307 341
f 382 381 429
f 382 429 430
f 431 479 480
f 432 480 481
f 433 482 483
f 385 386 345
f 277 278 236
f 277 236 235
f 234 182 181
f 180 129 128
f 138 187 137
f 132 185 186
f 185 184 238
f 521 522 488
f 282 241 281
f 132 185 133
f 128 135 134
f 127 134 133
f 126 133 186
f 177 186 185
f 176 185 239
f 229 239 238
f 228 238 280
f 273 280 313
f 307 313 347
f 341 347 388
f 380 388 438
f 429 438 486
f 478 486 487
f 479 487 488
f 480 488 522
f 517 522 523
f 518 523 524
f 519 524 490
f 483 490 491
f 484 491 440
f 436 440 389
f 386 389 349
f 346 349 314
f 312 314 282
f 279 282 281
f 278 281 240
f 236 240 188
f 183 188 187
f 182 187 137
f 130 137 136
f 129 136 135
f 494 495 527
f 529 498 530
f 196 144 145
f 190 243 242
f 494 493 442
f 528 527 495
f 498 529 497
f 449 499 448
f 191 140 141
f 442 391 392
f 529 528 496
f 320 355 354
f 288 320 319
f 191 141 192
f 494 442 443
f 397 449 448
f 196 250 249
f 143 144 195
f 392 350 351
f 397 448 396
f 246 245 192
f 285 317 316
f 393 394 443
f 351 352 392
f 352 393 392
f 445 446 497
f 353 318 319
f 287 248 249
f 248 247 195
f 192 244 191
f 244 284 243
f 284 316 283
f 316 351 350
f 443 444 494
f 444 445 495
f 446 447 498
f 447 396 448
f 396 353 354
f 319 318 288
f 318 287 288
f 249 248 196
f 194 193 142
f 142 141 134
f 141 140 133
f 140 191 186
f 191 190 185
f 190 243 239
f 243 242 238
f 242 283 280
f 283 315 313
f 315 350 347
f 350 391 388
f 391 442 438
f 442 493 486
f 493 494 487
f 494 495 488
f 495 527 522
f 527 528 523
f 528 529 524
f 529 498 490
f 498 499 491
f 499 449 440
f 449 397 389
f 397 355 349
f 355 320 314
f 320 289 282
f 289 288 281
f 288 250 240
f 250 197 188
f 197 196 187
f 196 144 137
f 144 143 136
f 143 142 135
f 126 127 134
f 133 186 177
f 133 132 176
f 132 185 176
f 125 177 186
f 132 133 186
f 176 177 125
f 185 184 175
f 184 239 229
f 175 229 176
f 184 238 228
f 175 229 239
f 238 280 273
f 228 273 238
f 280 313 307
f 313 347 341
f 347 388 380
f 388 437 428
f 437 438 429
f 428 429 438
f 438 486 478
f 478 429 438
f 486 487 479
f 478 479 487
f 521 522 517
f 516 479 487
f 480 479 516
f 517 480 516
f 517 480 488
f 522 523 518
f 523 524 519
f 524 525 520
f 525 490 483
f 520 483 490
f 490 491 484
f 491 439 435
f 492 440 436
f 485 435 439
f 440 492 439
f 440 389 386
f 389 390 387
f 390 389 386
f 390 349 346
f 387 386 389
f 349 348 345
f 345 386 387
f 346 345 387
f 346 345 348
f 349 314 312
f 314 282 279
f 282 281 278
f 282 241 237
f 279 278 281
f 241 281 278
f 237 278 279
f 241 240 236
f 237 236 240
f 183 236 240
f 188 187 182
f 183 182 187
f 187 138 131
f 138 187 182
f 131 182 187
f 138 137 130
f 137 136 129
f 136 135 128
f 135 142 141
f 134 141 140
f 140 133 134
f 133 140 191
f 133 139 190
f 132 185 190
f 139 133 186
f 190 139 191
f 185 190 189
f 184 189 243
f 184 189 242
f 189 184 239
f 242 189 243
f 238 242 283
f 280 283 315
f 313 315 350
f 347 350 391
f 388 391 441
f 437 441 442
f 441 437 438
f 438 442 493
f 493 486 438
f 486 493 494
f 486 487 494
f 493 486 487
f 521 526 527
f 526 521 487
f 527 522 488
f 522 527 528
f 528 529 523
f 524 529 530
f 525 530 498
f 525 490 524
f 530 525 490
f 490 498 499
f 498 525 490
f 491 499 448
f 492 500 449
f 500 492 439
f 449 500 448
f 440 449 397
f 389 397 398
f 390 398 397
f 390 398 355
f 398 390 389
f 349 355 354
f 349 348 390
f 355 349 348
f 349 355 320
f 314 320 289
f 282 289 288
f 282 289 251
f 289 282 281
f 241 251 288
f 241 251 250
f 251 241 240
f 240 250 197
f 197 188 240
f 188 197 196
f 197 188 187
f 187 196 145
f 138 145 196
f 145 138 187
f 138 145 144
f 137 144 143
f 143 137 136
f 142 136 135
f 139 191 140
f 527 526 494
f 495 494 526
f 527 495 526
f 500 448 499
f 355 398 397
f 355 354 398
f 354 397 398
f 251 289 288
f 250 288 251
f 125 177 126
f 206 154 205
f 456 457 408
f 502 503 458
f 504 460 459
f 461 414 413
f 107 106 101
f 106 105 100
f 105 155 100
f 155 154 147
f 154 206 146
f 206 205 198
f 205 257 252
f 257 294 252
f 294 326 290
f 326 362 321
f 362 408 357
f 408 457 399
f 457 458 451
f 458 503 451
f 503 504 452
f 504 459 453
f 459 460 453
f 460 461 454
f 461 413 455
f 413 414 405
f 414 367 406
f 367 330 361
f 330 331 325
f 331 298 325
f 298 261 293
f 261 212 256
f 212 159 204
f 159 158 152
f 158 109 151
f 109 108 103
f 108 107 102
f 100 147 148
f 399 450 400
f 406 361 405
f 204 152 203
f 103 102 151
f 321 357 322
f 405 361 360
f 209 156 149
f 208 209 148
f 207 208 199
f 258 207 254
f 296 258 291
f 295 296 291
f 327 295 322
f 328 327 322
f 363 328 358
f 364 363 400
f 409 364 401
f 410 409 402
f 411 410 403
f 412 411 404
f 365 412 404
f 366 365 360
f 329 366 324
f 297 329 292
f 260 297 255
f 259 260 255
f 211 259 202
f 210 211 201
f 157 210 150
f 156 157 149
f 323 322 357
f 358 323 357
f 403 402 453
f 292 324 293
f 202 255 203
f 201 202 151
f 199 148 147
f 253 199 198
f 291 253 252
f 322 291 321
f 401 400 450
f 402 401 451
f 404 403 454
f 360 404 405
f 324 360 325
f 292 293 256
f 255 292 256
f 202 203 152
f 149 150 101
f 106 107 113
f 155 105 163
f 206 154 215
f 257 205 263
f 294 257 299
f 408 362 416
f 457 456 464
f 458 457 465
f 503 502 508
f 460 504 467
f 414 461 418
f 367 414 370
f 331 367 334
f 262 298 265
f 261 262 264
f 212 261 216
f 109 159 116
f 107 108 114
f 272 271 226
f 419 372 420
f 119 168 167
f 339 340 378
f 271 272 306
f 173 174 226
f 172 123 173
f 266 218 219
f 473 513 472
f 474 514 473
f 305 306 339
f 219 167 168
f 267 266 219
f 373 372 335
f 426 476 475
f 169 120 121
f 425 426 475
f 171 122 172
f 170 222 169
f 267 268 302
f 421 375 422
f 270 269 224
f 169 221 220
f 220 268 267
f 473 423 474
f 425 376 377
f 339 338 305
f 172 223 171
f 121 170 169
f 168 220 219
f 266 302 301
f 301 302 335
f 373 374 420
f 420 374 421
f 471 422 472
f 472 423 473
f 474 424 475
f 378 377 339
f 271 270 226
f 226 270 225
f 173 224 172
f 122 171 121
f 114 121 113
f 113 120 112
f 112 119 162
f 162 167 214
f 214 218 263
f 263 266 299
f 299 301 332
f 332 335 369
f 369 372 415
f 415 419 416
f 416 420 463
f 463 470 464
f 464 471 507
f 507 512 508
f 508 513 509
f 509 514 510
f 467 475 468
f 468 476 418
f 418 427 370
f 370 378 371
f 371 379 334
f 334 340 300
f 300 306 265
f 265 272 216
f 216 226 165
f 165 174 164
f 164 173 117
f 115 122 114
f 163 112 162
f 370 371 334
f 264 265 216
f 164 165 216
f 113 114 120
f 120 119 113
f 163 112 168
f 111 112 118
f 162 111 167
f 168 118 119
f 168 119 163
f 215 162 219
f 214 161 218
f 219 166 215
f 263 214 266
f 299 263 301
f 332 299 335
f 369 332 372
f 416 415 420
f 464 463 471
f 506 464 511
f 507 506 512
f 465 507 472
f 472 512 465
f 508 507 513
f 509 508 514
f 510 509 515
f 467 510 475
f 468 467 476
f 417 468 426
f 469 468 477
f 418 469 427
f 426 477 476
f 426 476 417
f 370 418 378
f 333 371 339
f 339 340 333
f 300 334 306
f 265 300 272
f 264 265 271
f 217 265 227
f 271 272 264
f 264 217 271
f 216 217 226
f 271 227 264
f 226 227 271
f 226 174 216
f 164 165 173
f 116 117 123
f 115 116 122
f 114 115 121
f 501 502 457
f 464 506 457
f 501 506 502
f 504 509 505
f 505 509 459
f 466 510 459
f 510 467 505
f 460 467 461
f 461 468 462
f 462 468 413
f 469 418 462
f 417 469 413
f 367 370 368
f 371 334 368
f 298 300 262
f 262 265 213
f 217 216 213
f 212 216 160
f 117 116 110
f 115 116 108
f 108 115 107
f 107 114 106
f 112 111 105
f 154 111 155
f 154 162 206
f 153 162 205
f 205 214 257
f 257 263 294
f 369 415 362
f 415 416 407
f 516 517 479
f 229 176 228
f 478 479 429
f 517 518 480
f 519 483 482
f 484 436 435
f 126 177 127
f 380 429 381
f 518 519 481
f 346 312 345
f 312 278 311
f 127 177 178
f 429 479 430
f 436 386 435
f 236 182 235
f 130 129 181
f 341 381 342
f 435 386 385
f 231 232 178
f 309 275 308
f 383 382 430
f 343 342 381
f 382 343 381
f 433 432 482
f 310 344 311
f 234 277 235
f 233 234 181
f 230 178 177
f 274 230 229
f 308 274 273
f 342 308 341
f 431 430 479
f 432 431 480
f 434 433 483
f 385 434 435
f 344 385 345
f 310 311 278
f 277 310 278
f 234 235 182
f 179 180 128
f 185 133 186
f 127 128 134
f 126 127 133
f 177 126 186
f 176 177 185
f 229 176 239
f 228 229 238
f 273 228 280
f 307 273 313
f 341 307 347
f 380 341 388
f 429 380 438
f 478 429 486
f 480 479 488
f 517 480 522
f 518 517 523
f 519 518 524
f 483 519 490
f 484 483 491
f 436 484 440
f 386 436 389
f 346 386 349
f 312 346 314
f 279 312 282
f 236 278 240
f 183 236 188
f 130 182 137
f 129 130 136
f 128 129 135
f 289 288 250
f 441 391 442
f 140 191 190
f 354 355 397
f 288 289 320
f 196 197 250
f 195 144 196
f 283 242 243
f 496 528 495
f 497 529 496
f 319 320 354
f 243 190 191
f 284 283 243
f 392 391 350
f 448 499 498
f 192 141 142
f 447 448 498
f 194 143 195
f 193 246 192
f 284 285 316
f 443 394 444
f 287 286 248
f 192 245 244
f 244 285 284
f 496 445 497
f 447 395 396
f 354 353 319
f 195 247 194
f 142 193 192
f 191 244 243
f 283 316 315
f 315 316 350
f 392 393 442
f 442 393 443
f 494 444 495
f 495 445 496
f 497 446 498
f 397 396 354
f 288 287 250
f 250 287 249
f 196 248 195
f 143 194 142
f 135 142 134
f 134 141 133
f 133 140 186
f 186 191 185
f 185 190 239
f 239 243 238
f 238 242 280
f 280 283 313
f 313 315 347
f 347 350 388
f 388 391 438
f 438 442 486
f 487 494 488
f 488 495 522
f 522 527 523
f 523 528 524
f 524 529 490
f 490 498 491
f 491 499 440
f 440 449 389
f 389 397 349
f 349 355 314
f 314 320 282
f 281 288 240
f 240 250 188
f 187 196 137
f 137 144 136
f 136 143 135
f 128 135 127
f 133 126 134
f 126 133 177
f 125 133 176
f 133 125 186
f 176 185 175
f 175 184 229
f 175 184 228
f 184 175 239
f 273 280 307
f 307 313 341
f 341 347 380
f 380 388 428
f 428 437 429
f 437 428 438
f 478 486 479
f 516 521 517
f 521 516 487
f 522 517 488
f 517 522 518
f 519 518 523
f 519 524 520
f 520 525 483
f 525 520 490
f 483 490 484
f 484 491 435
f 485 492 436
f 492 485 439
f 436 440 386
f 387 390 386
f 387 390 346
f 346 349 345
f 349 346 348
f 346 349 312
f 312 314 279
f 279 282 278
f 279 282 237
f 237 241 278
f 237 241 236
f 241 237 240
f 188 183 240
f 183 188 182
f 131 138 182
f 131 138 130
f 130 137 129
f 186 133 191
f 132 133 190
f 191 139 186
f 184 185 189
f 239 184 243
f 189 190 243
f 238 184 242
f 243 189 239
f 280 238 283
f 313 280 315
f 347 313 350
f 388 347 391
f 437 388 441
f 438 437 442
f 442 441 438
f 522 521 527
f 494 526 487
f 495 527 488
f 523 522 528
f 524 523 529
f 525 524 530
f 498 530 490
f 491 490 499
f 439 491 448
f 440 492 449
f 448 500 439
f 389 440 397
f 389 390 397
f 349 390 355
f 348 349 354
f 354 355 348
f 314 349 320
f 282 314 289
f 281 282 288
f 241 282 251
f 281 241 288
f 240 241 250
f 250 251 240
f 187 188 196
f 187 138 196
f 137 138 144
v 0.00050 0.32600 -0.32750
v 0.05150 0.32600 -0.32350
v -0.05150 0.32600 -0.32350
v 0.10150 0.32600 -0.31150
v -0.10150 0.32600 -0.31150
v 0.14850 0.32600 -0.29150
v -0.14850 0.32600 -0.29150
v 0.19250 0.32600 -0.26550
v -0.19250 0.32600 -0.26550
v 0.23150 0.32600 -0.23150
v -0.23150 0.32600 -0.23150
v 0.26550 0.32600 -0.19250
v -0.26550 0.32600 -0.19250
v 0.29250 0.32600 -0.14850
v -0.29250 0.32600 -0.14850
v 0.31150 0.32600 -0.10150
v -0.31150 0.32600 -0.10150
v 0.32450 0.32600 -0.05150
v -0.32350 0.32600 -0.05150
v 0.32850 0.32600 0.00050
v 0.00050 0.32600 0.00050
v -0.32750 0.32600 0.00050
v 0.32450 0.32600 0.05150
v -0.32350 0.32600 0.05150
v 0.31150 0.32600 0.10150
v -0.31150 0.32600 0.10150
v 0.29250 0.32600 0.14950
v -0.29250 0.32600 0.14950
v 0.26550 0.32600 0.19350
v -0.26550 0.32600 0.19350
v 0.23150 0.32600 0.23250
v -0.23150 0.32600 0.23250
v 0.19250 0.32600 0.26550
v -0.19250 0.32600 0.26550
v 0.14850 0.32600 0.29250
v -0.14850 0.32600 0.29250
v 0.10150 0.32600 0.31250
v -0.10150 0.32600 0.31250
v 0.05150 0.32600 0.32450
v -0.05150 0.32600 0.32450
v 0.00050 0.32600 0.32850
v 0.00050 -0.06400 -0.32750
v 0.05150 -0.06400 -0.32350
v -0.05150 -0.06400 -0.32350
v 0.10150 -0.06400 -0.31150
v -0.10150 -0.06400 -0.31150
v 0.14850 -0.06400 -0.29150
v -0.14850 -0.06400 -0.29150
v 0.19250 -0.06400 -0.26550
v -0.19250 -0.06400 -0.26550
v 0.23150 -0.06400 -0.23150
v -0.23150 -0.06400 -0.23150
v 0.26550 -0.06400 -0.19250
v -0.26550 -0.06400 -0.19250
v 0.29250 -0.06400 -0.14850
v -0.29250 -0.06400 -0.14850
v 0.31150 -0.06400 -0.10150
v -0.31150 -0.06400 -0.10150
v 0.32450 -0.06400 -0.05150
v -0.32350 -0.06400 -0.05150
v 0.32850 -0.06400 0.00050
v -0.32750 -0.06400 0.00050
v 0.32450 -0.06400 0.05150
v -0.32350 -0.06400 0.05150
v 0.31150 -0.06400 0.10150
v -0.31150 -0.06400 0.10150
v 0.29250 -0.06400 0.14950
v -0.29250 -0.06400 0.14950
v 0.26550 -0.06400 0.19350
v -0.26550 -0.06400 0.19350
v 0.23150 -0.06400 0.23250
v -0.23150 -0.06400 0.23250
v 0.19250 -0.06400 0.26550
v -0.19250 -0.06400 0.26550
v 0.14850 -0.06400 0.29250
v -0.14850 -0.06400 0.29250
v 0.10150 -0.06400 0.31250
v -0.10150 -0.06400 0.31250
v 0.05150 -0.06400 0.32450
v -0.05150 -0.06400 0.32450
v 0.00050 -0.06400 0.32850
usemtl m039
f 549 590 592
f 547 588 590
f 545 586 588
f 543 584 586
f 541 582 584
f 539 580 582
f 537 578 580
f 535 576 578
f 533 574 576
f 531 572 574
f 532 573 572
f 534 575 573
f 536 577 575
f 538 579 577
f 540 581 579
f 542 583 581
f 544 585 583
f 546 587 585
f 548 589 587
f 550 591 589
f 553 593 591
f 555 595 593
f 557 597 595
f 559 599 597
f 561 601 599
f 563 603 601
f 565 605 603
f 567 607 605
f 569 609 607
f 571 611 609
f 570 610 611
f 568 608 610
f 566 606 608
f 564 604 606
f 562 602 604
f 560 600 602
f 558 598 600
f 556 596 598
f 554 594 596
f 552 592 594
f 547 549 552
f 543 545 547
f 539 541 543
f 535 537 539
f 531 533 535
f 534 532 531
f 538 536 534
f 542 540 538
f 546 544 542
f 550 548 546
f 555 553 550
f 559 557 555
f 563 561 559
f 567 565 563
f 571 569 567
f 568 570 571
f 564 566 568
f 560 562 564
f 556 558 560
f 552 554 556
f 552 549 592
f 549 547 590
f 547 545 588
f 545 543 586
f 543 541 584
f 541 539 582
f 539 537 580
f 537 535 578
f 535 533 576
f 533 531 574
f 531 532 572
f 532 534 573
f 534 536 575
f 536 538 577
f 538 540 579
f 540 542 581
f 542 544 583
f 544 546 585
f 546 548 587
f 548 550 589
f 550 553 591
f 553 555 593
f 555 557 595
f 557 559 597
f 559 561 599
f 561 563 601
f 563 565 603
f 565 567 605
f 567 569 607
f 569 571 609
f 571 570 611
f 570 568 610
f 568 566 608
f 566 564 606
f 564 562 604
f 562 560 602
f 560 558 600
f 558 556 598
f 556 554 596
f 554 552 594
f 551 547 552
f 551 543 547
f 551 539 543
f 551 535 539
f 551 531 535
f 551 534 531
f 551 538 534
f 551 542 538
f 551 546 542
f 551 550 546
f 551 555 550
f 551 559 555
f 551 563 559
f 551 567 563
f 551 571 567
f 551 568 571
f 551 564 568
f 551 560 564
f 551 556 560
f 551 552 556
v -0.55050 0.41600 0.19550
v -0.54374 0.50759 -0.07271
v -0.55406 0.49744 -0.02681
v -0.56265 0.47837 0.22991
v -0.53805 0.59666 -0.08513
v -0.57695 0.60720 -0.02565
v -0.57514 0.58996 0.22789
v -0.57213 0.55400 0.31850
v -0.51500 0.66150 -0.06850
v -0.51850 0.66225 -0.02875
v -0.53986 0.67861 0.19807
v -0.47100 0.41600 0.19550
v -0.38500 0.53500 -0.20200
v -0.44790 0.51093 -0.07960
v -0.44661 0.49439 -0.02617
v -0.43944 0.47793 0.22843
v -0.40259 0.55964 -0.19059
v -0.44485 0.57936 -0.10993
v -0.41770 0.60720 -0.02565
v -0.43124 0.59397 0.22978
v -0.42929 0.55467 0.31859
v -0.49017 0.66400 -0.06850
v -0.48283 0.66383 -0.02617
v -0.46124 0.67808 0.19918
v -0.27672 0.39903 0.00955
v -0.27162 0.40029 0.09144
v -0.31662 0.52859 -0.20903
v -0.31892 0.52374 -0.12329
v -0.30499 0.47207 0.00105
v -0.29469 0.47211 0.09864
v -0.37850 0.53000 0.19850
v -0.33450 0.55415 -0.20554
v -0.33360 0.56279 -0.13237
v -0.30475 0.62224 0.00328
v -0.29481 0.62256 0.09545
v -0.32750 0.57188 0.24686
v -0.27116 0.58264 0.36549
v -0.29350 0.66521 0.01236
v -0.28736 0.66543 0.08364
v -0.21926 0.39769 -0.00203
v -0.22507 0.39737 0.10221
v -0.18047 0.52063 -0.20837
v -0.17880 0.51341 -0.11441
v -0.18878 0.47239 -0.01060
v -0.20142 0.47881 0.10719
v -0.24850 0.54250 -0.21450
v -0.19174 0.55518 -0.09515
v -0.19017 0.62301 -0.00945
v -0.20331 0.62224 0.10512
v -0.19164 0.57483 0.29790
v -0.20602 0.61754 0.35950
v -0.22896 0.67535 0.02803
v -0.21550 0.66637 0.08871
v -0.21157 0.72423 0.38971
v -0.21913 0.80600 0.28250
v -0.23063 0.84774 0.40012
v -0.04439 0.26900 -0.19004
v -0.07572 0.27302 -0.13653
v -0.09091 0.27950 -0.00286
v -0.07357 0.27846 0.13661
v -0.06194 0.27013 0.23652
v -0.08300 0.41400 -0.13300
v -0.07917 0.41567 0.05450
v -0.05587 0.41307 0.11022
v -0.08140 0.51590 -0.19360
v -0.08586 0.46215 -0.13212
v -0.07428 0.45495 -0.02225
v -0.05909 0.45910 0.10687
v -0.05266 0.48487 0.27551
v -0.06415 0.50003 0.34812
v -0.06421 0.52914 0.46214
v -0.08369 0.56735 -0.12852
v -0.07946 0.56773 -0.01331
v -0.05891 0.57164 0.10781
v -0.05463 0.54545 0.27931
v -0.05715 0.55060 0.38900
v -0.05874 0.54995 0.48207
v 0.03609 0.28008 -0.10118
v 0.04570 0.28467 -0.02030
v 0.04693 0.28324 0.13726
v -0.00050 0.27045 0.22986
v 0.06569 0.39922 -0.11166
v 0.09250 0.41567 0.05450
v 0.05749 0.41322 0.11262
v 0.05876 0.51542 -0.19192
v 0.05785 0.46700 -0.13054
v 0.07922 0.46063 -0.01393
v 0.06279 0.45932 0.11056
v 0.05766 0.48636 0.27840
v 0.07753 0.50003 0.34812
v 0.08419 0.52092 0.45701
v 0.10050 0.53900 -0.18450
v 0.07165 0.58321 -0.12388
v 0.08534 0.57341 -0.00545
v 0.06179 0.57330 0.11127
v 0.06069 0.54634 0.28131
v 0.05488 0.55081 0.38977
v 0.05596 0.55093 0.47936
v 0.10133 0.75017 0.16550
v 0.10069 0.80967 0.20988
v 0.09473 0.93189 0.39290
v 0.12622 0.27420 -0.00010
v 0.11931 0.27400 0.08725
v 0.17956 0.39366 -0.11886
v 0.17807 0.39736 -0.00550
v 0.17608 0.40550 0.08150
v 0.16564 0.47868 -0.21342
v 0.15157 0.46889 -0.12161
v 0.15326 0.47727 -0.03679
v 0.17792 0.44979 0.08343
v 0.15413 0.48864 0.26508
v 0.16974 0.50033 0.40736
v 0.14416 0.49923 0.45290
v 0.17312 0.55488 -0.21437
v 0.13880 0.58265 -0.11265
v 0.14595 0.57026 -0.05005
v 0.15583 0.55042 0.28850
v 0.15688 0.55003 0.39067
v 0.15911 0.55067 0.49150
v 0.12461 0.70793 -0.02455
v 0.14368 0.72659 0.13306
v 0.13305 0.81044 -0.13030
v 0.11215 0.81000 0.20818
v 0.22133 0.85783 0.38383
v 0.26066 0.48292 -0.21002
v 0.25799 0.49302 -0.14034
v 0.30842 0.50615 0.02450
v 0.28344 0.49616 0.25632
v 0.23250 0.52317 0.38237
v 0.23778 0.49749 0.45197
v 0.28521 0.56771 -0.20243
v 0.28419 0.57059 -0.11030
v 0.30849 0.58751 -0.01343
v 0.27045 0.57683 0.25469
v 0.26630 0.54873 0.36403
v 0.23130 0.54550 0.49150
v 0.32336 0.67707 0.02471
v 0.30823 0.69118 0.23920
v 0.28333 0.84679 0.38296
v 0.41650 0.47900 -0.21350
v 0.40500 0.47875 -0.10250
v 0.40526 0.49035 0.01796
v 0.41007 0.46952 0.24463
v 0.37553 0.57847 -0.08528
v 0.38932 0.58625 -0.01853
v 0.40317 0.55873 0.26368
v 0.40321 0.55357 0.32014
v 0.40633 0.68678 0.02296
v 0.41417 0.70610 0.24081
v 0.35960 0.80860 0.37880
v 0.50621 0.47871 -0.20650
v 0.50041 0.47873 -0.09641
v 0.48200 0.52433 0.02567
v 0.48443 0.49735 0.24471
v 0.49103 0.60481 0.02400
v 0.50375 0.58469 0.24404
v 0.48686 0.67386 0.23921
v 0.49270 0.74874 0.37024
v 0.69570 0.47860 -0.18790
v 0.69617 0.48033 -0.11017
v 0.68921 0.47829 -0.04850
v 0.73875 0.47875 -0.18475
v 0.75406 0.47833 -0.14356
v 0.74093 0.47879 -0.04357
usemtl m062
f 677 683 704
f 697 705 698
f 697 698 678
f 705 704 698
f 737 742 743
f 688 708 709
f 706 699 679
f 676 677 653
f 686 687 681
f 686 707 708
f 707 708 701
f 745 739 754
f 615 631 618
f 653 643 657
f 677 697 683
f 671 691 670
f 713 690 670
f 669 690 689
f 713 690 689
f 736 762 751
f 770 774 773
f 772 775 771
f 737 763 752
f 772 763 752
f 736 719 718
f 769 750 735
f 769 750 761
f 629 643 644
f 644 639 654
f 676 696 697
f 726 720 719
f 743 727 744
f 684 705 677
f 697 704 726
f 736 718 725
f 730 729 723
f 728 729 746
f 686 707 700
f 685 679 699
f 653 644 658
f 747 746 740
f 643 638 653
f 677 654 653
f 629 643 628
f 654 644 658
f 658 683 677
f 764 753 756
f 766 764 756
f 744 748 759
f 616 617 621
f 625 626 614
f 629 630 626
f 625 613 629
f 715 716 720
f 678 674 675
f 678 679 675
f 720 698 719
f 698 699 695
f 727 705 726
f 636 637 641
f 619 618 615
f 632 631 627
f 647 648 661
f 649 650 664
f 640 655 651
f 754 765 767
f 642 627 647
f 642 647 631
f 616 625 613
f 616 629 625
f 737 736 742
f 688 687 708
f 685 706 679
f 720 719 737
f 743 720 737
f 688 682 681
f 686 681 680
f 707 701 700
f 709 702 701
f 746 745 757
f 767 757 754
f 612 623 627
f 612 627 615
f 725 696 697
f 725 703 726
f 743 725 726
f 743 742 725
f 684 677 683
f 697 704 683
f 714 690 670
f 714 713 690
f 736 719 737
f 770 762 751
f 770 762 763
f 772 771 763
f 775 774 771
f 736 737 752
f 772 771 774
f 736 763 752
f 770 771 763
f 736 762 763
f 698 715 719
f 755 743 737
f 638 624 643
f 725 718 696
f 688 687 681
f 709 708 701
f 615 631 627
f 712 750 735
f 712 750 761
f 653 639 638
f 719 697 696
f 718 719 696
f 697 698 677
f 720 727 698
f 744 756 753
f 704 697 677
f 728 722 723
f 745 728 746
f 747 741 740
f 745 746 740
f 675 695 699
f 684 658 654
f 625 639 644
f 715 693 697
f 745 739 740
f 730 729 746
f 730 724 723
f 728 729 723
f 741 724 723
f 686 680 700
f 684 683 658
f 625 629 644
f 744 743 756
f 743 756 755
f 671 672 692
f 655 659 660
f 641 656 660
f 641 660 646
f 640 641 646
f 723 722 721
f 721 717 722
f 759 756 744
f 759 756 766
f 633 620 621
f 629 616 620
f 616 613 614
f 629 633 634
f 719 715 720
f 717 721 720
f 698 697 719
f 698 694 695
f 720 719 697
f 705 704 726
f 727 726 704
f 737 719 718
f 736 737 718
f 636 651 652
f 640 636 641
f 619 632 631
f 619 631 618
f 662 648 647
f 646 660 664
f 645 650 649
f 645 646 650
f 652 655 656
f 636 640 651
f 637 656 641
f 768 760 745
f 768 757 745
f 739 757 745
f 768 757 754
f 739 757 754
f 627 631 647
f 622 631 635
f 719 743 737
f 687 686 708
f 757 745 754
f 703 697 726
f 669 670 690
f 775 772 774
f 771 770 774
f 693 698 697
f 624 628 643
f 644 643 638
f 677 676 697
f 698 678 677
f 720 743 727
f 742 736 725
f 706 685 699
f 654 653 658
f 728 745 729
f 677 678 654
f 654 658 677
f 756 738 744
f 634 633 621
f 620 616 621
f 617 616 614
f 613 625 614
f 625 629 626
f 630 629 634
f 629 613 616
f 663 649 664
f 651 637 636
f 760 749 745
f 631 622 618
f 627 642 631
f 705 684 698
f 698 684 678
f 704 697 698
f 699 675 679
f 758 746 757
f 676 677 696
f 696 677 697
f 703 725 697
f 691 714 670
f 715 698 693
f 726 727 743
f 639 644 638
f 639 653 654
f 638 628 624
f 726 743 719
f 727 705 698
f 705 697 677
f 730 747 729
f 729 747 746
f 678 684 654
f 719 715 697
f 644 653 643
f 747 730 746
f 729 745 746
f 643 628 638
f 691 671 692
f 656 655 660
f 645 640 646
f 655 640 645
f 659 655 645
f 753 738 756
f 633 629 620
f 716 717 720
f 721 717 716
f 720 721 716
f 698 720 697
f 705 727 704
f 652 656 637
f 637 636 652
f 651 655 652
f 632 619 618
f 631 632 618
f 648 662 661
f 664 659 663
f 660 659 664
f 659 645 649
f 663 659 649
f 650 646 664
f 652 637 651
f 767 768 754
v 0.39524 0.74063 0.06143
v 0.49776 0.70180 0.07102
v 0.48475 0.66850 0.23150
v 0.42523 0.74511 0.21944
v -0.58515 0.68493 0.00359
v -0.47974 0.71148 0.17884
v 0.38047 0.57000 0.05650
v -0.40763 0.54300 0.19050
v 0.25309 0.66145 0.22425
v 0.27406 0.69295 0.06107
v -0.50450 0.66100 -0.00750
v -0.44150 0.64600 -0.00750
v -0.48612 0.51950 -0.00750
v -0.40152 0.67604 0.00296
v 0.42550 0.49275 0.23150
v -0.36705 0.50890 0.00083
v -0.64272 0.62047 0.16109
v 0.00650 0.50750 0.29450
v -0.07150 0.50250 0.08850
v 0.01178 0.54117 0.22839
v 0.54607 0.58181 0.22450
v 0.22308 0.57919 0.07186
v 0.27729 0.46710 0.22549
v -0.60710 0.48096 0.18037
v -0.34998 0.57842 0.17692
v 0.27100 0.60375 0.23150
v 0.07838 0.48632 0.16376
v -0.57556 0.60750 0.19050
v 0.54386 0.56866 0.06236
v 0.32723 0.42653 0.06990
v -0.06501 0.51288 0.16836
v -0.63136 0.53131 -0.00091
v 0.08450 0.50250 0.08850
v 0.00361 0.47398 0.22590
v -0.53150 0.46300 0.19050
v 0.46906 0.45544 0.22357
v -0.44446 0.43893 0.18084
v -0.54153 0.42409 0.00909
v 0.44164 0.43788 0.06476
usemtl m063
f 794 802 806
f 801 784 798
f 790 798 811
f 792 781 780
f 803 792 799
f 810 799 812
f 783 812 800
f 783 800 781
f 786 780 789
f 794 808 802
f 802 808 806
f 808 794 806
f 795 793 809
f 809 793 795
f 801 778 779
f 784 801 779
f 776 784 779
f 785 784 776
f 785 782 797
f 797 784 785
f 798 784 797
f 790 801 798
f 797 782 805
f 805 798 797
f 811 798 805
f 811 805 814
f 805 782 814
f 796 790 811
f 796 811 814
f 804 796 814
f 778 790 796
f 814 782 804
f 777 796 804
f 779 796 777
f 779 778 796
f 776 779 777
f 777 804 776
f 804 782 776
f 776 782 785
f 792 803 781
f 786 788 780
f 780 788 807
f 780 807 792
f 810 803 799
f 807 799 792
f 813 799 807
f 812 799 813
f 783 810 812
f 807 788 813
f 813 788 791
f 791 812 813
f 791 800 812
f 789 800 791
f 789 781 800
f 803 783 781
f 791 788 789
f 780 781 789
f 788 787 789
f 787 786 789
v 0.27150 0.53000 0.50950
v 0.26900 0.51200 0.50950
v 0.26897 0.53017 0.53942
v 0.29993 0.52596 0.53950
v 0.28500 0.49905 0.53945
v 0.29225 0.52163 0.50950
usemtl m066
f 816 820 819
f 817 816 819
f 815 816 817
f 820 815 817
f 818 820 817
f 819 820 818
f 817 819 818
v -0.61339 -0.30838 -0.07087
v -0.61899 -0.30917 0.04531
v -0.60513 -0.29912 0.21014
v -0.60543 -0.29993 0.27443
v -0.63672 -0.19344 -0.15406
v -0.66357 -0.24397 -0.07149
v -0.64002 -0.26965 0.06552
v -0.62163 -0.27798 0.18562
v -0.64256 -0.25068 0.29967
v -0.60617 -0.19049 0.41170
v -0.63883 -0.09125 -0.16442
v -0.68406 -0.08982 -0.08901
v -0.63492 -0.11071 0.04758
v -0.63558 -0.10417 0.16408
v -0.67502 -0.09404 0.32413
v -0.61066 -0.11311 0.41272
v -0.63950 0.03333 -0.16692
v -0.68641 0.03430 -0.09346
v -0.63312 0.03850 0.07275
v -0.63536 0.02900 0.15550
v -0.68197 0.03440 0.32790
v -0.62523 0.04350 0.41081
v -0.63837 0.17440 -0.16230
v -0.68430 0.17031 -0.08836
v -0.63443 0.18383 0.05400
v -0.63556 0.18118 0.16232
v -0.67368 0.17479 0.32304
v -0.60820 0.18871 0.41331
v -0.63630 0.26760 -0.15150
v -0.65024 0.32169 -0.07128
v -0.63710 0.34478 0.06150
v -0.61361 0.34719 0.19808
v -0.63288 0.32352 0.29300
v -0.61065 0.28542 0.40721
v -0.59433 0.38174 -0.06605
v -0.59064 0.38009 0.02309
v -0.58650 0.37700 0.15750
v -0.57906 -0.32611 -0.04628
v -0.56642 -0.32677 0.07292
v -0.53763 -0.32835 0.18409
v -0.51437 -0.32262 0.31285
v -0.48239 -0.30533 0.43000
v -0.51505 -0.20967 0.43935
v -0.52784 -0.08580 0.43990
v -0.53482 0.04445 0.44142
v -0.52458 0.18207 0.43878
v -0.56770 0.37500 0.21070
v -0.55418 0.36784 0.32013
v -0.50411 0.31064 0.43832
v -0.57906 0.38322 -0.04628
v -0.56630 0.38412 0.07260
v -0.53521 0.38650 0.18119
v -0.49336 0.38619 0.30900
v -0.46150 0.38030 0.41720
v -0.42926 -0.33518 0.35638
v -0.39717 -0.32465 0.44133
v -0.42203 0.36924 0.45470
v -0.42926 0.39235 0.35638
v -0.39071 0.38531 0.43792
v 0.34223 -0.32887 0.44030
v 0.34220 0.38620 0.44037
v 0.45219 -0.33294 0.34519
v 0.41001 -0.31758 0.44390
v 0.47281 -0.23863 0.45487
v 0.48056 0.23619 0.45756
v 0.43645 0.35700 0.45158
v 0.45219 0.39029 0.34519
v 0.39237 0.38394 0.43715
v 0.58467 -0.30869 -0.15914
v 0.58784 -0.31338 -0.08945
v 0.58450 -0.31965 0.05393
v 0.55794 -0.32256 0.18881
v 0.51938 -0.31946 0.31749
v 0.49250 -0.30220 0.40010
v 0.61317 -0.28333 -0.16717
v 0.60500 -0.24928 0.21461
v 0.58500 -0.21765 0.31721
v 0.53616 -0.19191 0.42578
v 0.61383 -0.09400 0.22583
v 0.61180 -0.12300 0.26770
v 0.55762 -0.09829 0.42296
v 0.61350 0.10500 0.22550
v 0.60950 0.02900 0.26750
v 0.55150 0.04911 0.42902
v 0.61350 0.20450 0.23250
v 0.61159 0.18427 0.26741
v 0.55512 0.18753 0.42239
v 0.58874 0.36226 -0.16029
v 0.59066 0.36979 -0.09417
v 0.60317 0.36913 0.05271
v 0.59384 0.34194 0.19961
v 0.57458 0.29239 0.31980
v 0.51423 0.27590 0.43091
v 0.56494 0.37844 -0.05117
v 0.57454 0.38120 0.05459
v 0.54942 0.38477 0.18858
v 0.51176 0.38498 0.31095
v 0.48250 0.37900 0.38550
v 0.62190 -0.29240 -0.06390
v 0.61950 -0.29443 0.03764
v 0.63145 -0.21738 -0.16547
v 0.63629 -0.20995 -0.08838
v 0.63378 -0.23853 0.05185
v 0.62260 -0.23653 0.16380
v 0.63004 -0.18524 0.34635
v 0.62129 -0.17550 0.39057
v 0.63863 -0.09655 -0.16433
v 0.63716 -0.09210 -0.09294
v 0.63564 -0.08571 0.06021
v 0.62467 -0.08450 0.19642
v 0.63415 -0.08824 0.33676
v 0.62286 -0.08309 0.39405
v 0.64072 0.05491 -0.16331
v 0.63975 0.05569 -0.10153
v 0.63850 0.04475 0.04883
v 0.62621 0.04771 0.20164
v 0.63455 0.05097 0.32940
v 0.62650 0.06150 0.39267
v 0.63725 0.19269 -0.16396
v 0.63545 0.20161 -0.09626
v 0.63497 0.17560 0.05950
v 0.62495 0.18291 0.18477
v 0.63437 0.19073 0.34848
v 0.62182 0.18925 0.39293
v 0.63096 0.28107 -0.16577
v 0.63639 0.27940 -0.08458
v 0.63240 0.30433 0.05041
v 0.62206 0.30130 0.16372
v 0.62724 0.24763 0.33543
v 0.62250 0.24400 0.38800
usemtl m086
f 897 894 893
f 896 897 892
f 923 891 920
f 890 922 919
f 923 920 922
f 889 922 919
f 922 927 928
f 928 927 933
f 912 916 917
f 912 917 918
f 936 935 941
f 936 929 935
f 930 924 929
f 930 899 896
f 937 936 943
f 942 905 906
f 900 931 925
f 912 949 943
f 944 938 943
f 907 938 944
f 884 898 901
f 925 926 931
f 937 932 904
f 937 938 944
f 903 943 906
f 912 905 902
f 903 936 899
f 897 899 930
f 924 896 897
f 924 923 896
f 889 890 922
f 945 939 946
f 939 933 940
f 943 907 912
f 889 895 921
f 888 887 886
f 887 916 917
f 886 912 913
f 917 911 912
f 916 910 911
f 947 909 946
f 948 947 941
f 935 941 940
f 935 940 934
f 935 934 928
f 863 824 829
f 859 822 823
f 848 865 842
f 848 854 869
f 878 868 873
f 869 874 879
f 873 868 872
f 879 877 869
f 850 855 856
f 871 851 850
f 831 837 838
f 859 822 821
f 913 950 912
f 822 827 826
f 828 827 823
f 843 837 838
f 849 843 850
f 850 844 839
f 828 833 827
f 840 839 833
f 840 846 845
f 829 823 824
f 841 840 834
f 841 847 846
f 829 824 861
f 847 841 842
f 872 857 852
f 871 852 872
f 871 870 855
f 873 879 878
f 829 824 828
f 861 876 862
f 881 888 886
f 826 833 827
f 839 834 828
f 841 835 834
f 838 839 833
f 841 840 846
f 838 844 845
f 850 851 845
f 863 836 864
f 863 830 836
f 883 898 884
f 897 898 894
f 883 893 894
f 883 882 893
f 897 893 892
f 923 924 892
f 891 890 919
f 891 919 922
f 889 921 922
f 934 928 933
f 940 934 933
f 940 945 946
f 908 909 946
f 915 909 914
f 915 910 909
f 910 947 946
f 910 915 916
f 947 910 911
f 912 911 916
f 886 912 918
f 911 905 948
f 947 942 941
f 942 936 941
f 923 922 929
f 936 930 929
f 930 896 924
f 937 930 936
f 897 899 900
f 900 930 931
f 906 937 943
f 897 900 925
f 900 931 937
f 938 931 937
f 938 932 931
f 938 937 943
f 932 901 898
f 898 901 926
f 901 932 931
f 937 938 904
f 907 938 904
f 907 944 943
f 937 944 943
f 943 949 906
f 903 906 902
f 920 891 896
f 921 895 922
f 934 927 928
f 922 927 921
f 917 912 886
f 917 916 911
f 948 911 912
f 912 911 942
f 936 905 942
f 914 910 915
f 947 910 909
f 947 946 940
f 923 929 928
f 830 863 864
f 876 862 863
f 875 862 876
f 863 862 861
f 823 861 860
f 830 863 829
f 836 830 829
f 842 836 835
f 865 864 842
f 848 866 865
f 869 853 868
f 853 868 873
f 878 874 873
f 853 852 868
f 852 867 872
f 871 867 852
f 831 838 832
f 826 822 821
f 859 858 821
f 950 944 943
f 950 949 912
f 913 907 944
f 839 833 827
f 831 825 826
f 843 844 850
f 850 844 838
f 838 832 833
f 852 851 845
f 828 834 833
f 840 834 828
f 823 861 824
f 841 835 829
f 828 835 834
f 863 830 861
f 836 835 829
f 842 841 836
f 848 847 842
f 853 854 868
f 852 868 873
f 851 856 850
f 868 869 874
f 824 823 828
f 848 866 869
f 885 907 913
f 839 840 834
f 826 832 833
f 853 847 846
f 851 852 846
f 839 845 846
f 924 896 892
f 891 923 892
f 890 889 919
f 945 940 939
f 945 908 946
f 948 947 911
f 905 942 948
f 906 912 943
f 898 925 897
f 906 912 902
f 900 903 899
f 896 897 930
f 892 882 893
f 895 889 922
f 911 948 942
f 910 914 909
f 942 948 941
f 929 935 928
f 860 859 823
f 841 842 835
f 854 848 853
f 873 869 868
f 874 869 873
f 838 843 844
f 926 898 897
f 832 831 826
f 837 831 832
f 845 850 839
f 834 840 833
f 839 840 845
f 830 829 861
f 854 869 868
f 852 871 851
f 871 856 851
f 856 871 855
f 879 873 874
f 822 827 823
f 833 839 828
f 839 838 845
f 852 853 846
f 898 883 894
f 920 891 922
f 909 910 946
f 887 888 917
f 888 886 918
f 917 888 918
f 911 912 905
f 942 947 948
f 940 947 941
f 922 928 929
f 924 923 929
f 899 897 896
f 899 930 900
f 930 937 931
f 942 906 943
f 936 942 943
f 905 912 906
f 932 926 925
f 931 932 925
f 901 938 904
f 932 938 901
f 926 932 898
f 926 925 898
f 932 937 931
f 926 901 931
f 937 903 931
f 931 903 900
f 932 901 904
f 943 903 937
f 949 912 906
f 936 903 902
f 905 936 902
f 899 936 930
f 893 883 898
f 897 893 898
f 891 920 890
f 891 892 896
f 923 920 896
f 890 920 922
f 939 940 946
f 927 934 933
f 912 907 913
f 887 917 886
f 905 912 942
f 922 923 928
f 836 830 864
f 864 865 836
f 836 865 842
f 862 875 861
f 824 863 861
f 864 836 842
f 853 848 847
f 869 854 853
f 874 878 879
f 868 852 872
f 867 871 872
f 856 871 850
f 949 950 943
f 950 913 944
f 925 926 897
f 838 837 832
f 844 838 839
f 846 852 845
f 828 823 829
f 835 828 829
f 847 852 846
f 841 835 836
f 853 852 847
f 872 852 873
f 873 868 874
f 876 861 875
f 834 829 828
f 835 829 834
f 840 839 846
f 844 850 845
f 845 851 846
v -0.46800 -0.29750 0.44375
v -0.49619 -0.19736 0.45929
v -0.50542 -0.09041 0.46356
v -0.45450 -0.07600 0.51900
v -0.51091 0.04800 0.46768
v -0.45850 0.02900 0.51850
v -0.50335 0.18738 0.46145
v -0.45450 0.13300 0.51900
v -0.48727 0.30019 0.45606
v -0.38046 -0.32327 0.46938
v -0.33336 -0.31014 0.53293
v -0.43491 -0.24606 0.49932
v -0.39859 -0.18588 0.54592
v -0.40807 -0.10441 0.54708
v -0.35381 0.04087 0.58477
v -0.44050 0.23000 0.51250
v -0.41199 0.18759 0.54247
v -0.42004 0.34411 0.48691
v -0.35625 0.29046 0.56428
v -0.36930 0.38632 0.46555
v -0.32050 0.38300 0.51850
v -0.26264 -0.33538 0.48829
v -0.24819 -0.31784 0.55966
v -0.27018 -0.21871 0.60609
v -0.28023 -0.10470 0.60835
v -0.28265 0.03145 0.60897
v -0.27883 0.19187 0.60826
v -0.26192 0.32513 0.59688
v -0.26264 0.39245 0.48829
v -0.24470 0.38371 0.54672
v -0.17825 -0.33650 0.51350
v -0.11410 -0.31855 0.58662
v -0.11929 -0.20386 0.63284
v -0.12099 -0.10234 0.63519
v -0.11843 0.03020 0.63813
v -0.11830 0.18472 0.63474
v -0.11621 0.34510 0.62090
v -0.17825 0.39350 0.51350
v -0.11523 0.38760 0.56315
v 0.01650 -0.32047 0.59119
v 0.01670 -0.19787 0.63857
v 0.01342 -0.10242 0.64189
v 0.01383 0.03139 0.64417
v 0.01609 0.18682 0.64075
v 0.01843 0.34205 0.62852
v 0.01434 0.38800 0.57028
v 0.18275 -0.33662 0.50988
v 0.14347 -0.31896 0.57983
v 0.16242 -0.22162 0.62540
v 0.14539 -0.10157 0.63156
v 0.14716 0.03168 0.63384
v 0.14789 0.18557 0.63056
v 0.15057 0.34113 0.61622
v 0.18275 0.39363 0.50987
v 0.14632 0.38700 0.55815
v 0.29696 -0.33288 0.48056
v 0.26601 -0.31610 0.55356
v 0.28744 -0.21644 0.59913
v 0.29754 -0.10354 0.60227
v 0.29888 0.03286 0.60342
v 0.29156 0.18997 0.60351
v 0.33850 0.37500 0.51650
v 0.28561 0.31502 0.58843
v 0.29611 0.39039 0.47983
v 0.25828 0.38294 0.54266
v 0.40150 -0.31719 0.46370
v 0.45316 -0.21345 0.49004
v 0.40982 -0.17627 0.53558
v 0.45674 -0.09206 0.50550
v 0.41159 -0.10763 0.54069
v 0.46183 0.05789 0.50817
v 0.38758 0.04714 0.56231
v 0.45718 0.19702 0.50126
v 0.41303 0.18759 0.53783
v 0.43750 0.32861 0.47708
v 0.38454 0.28007 0.54639
v 0.38513 0.38486 0.45976
v 0.52185 -0.18327 0.43807
v 0.55028 -0.10896 0.43256
v 0.51620 0.04503 0.45553
v 0.54465 0.18696 0.43318
v 0.49879 0.28694 0.44415
usemtl m087
f 967 957 966
f 963 962 952
f 951 962 960
f 985 984 974
f 974 984 983
f 990 992 991
f 1006 998 1007
f 998 1008 1007
f 1001 1009 999
f 1001 1010 1009
f 1029 1019 1030
f 1010 1011 1024
f 1001 1011 1010
f 996 1003 995
f 1003 1002 994
f 995 994 986
f 970 978 969
f 969 968 959
f 1018 1017 1019
f 969 959 957
f 969 978 980
f 987 977 986
f 1025 1012 1013
f 1031 1023 1021
f 1029 1021 1022
f 1029 1019 1020
f 1018 1008 1007
f 964 965 956
f 965 957 955
f 967 957 958
f 977 978 969
f 985 977 976
f 1013 1003 1002
f 1011 1002 1001
f 991 999 1000
f 963 964 953
f 962 952 953
f 1017 1020 1019
f 1017 1018 1020
f 963 962 960
f 960 974 973
f 972 973 982
f 974 963 975
f 965 976 975
f 999 998 990
f 990 982 983
f 993 992 983
f 999 998 991
f 993 1000 991
f 1018 1017 1016
f 1006 1008 1016
f 1009 1018 1008
f 1009 1020 1018
f 993 1001 1000
f 1022 1021 1030
f 1024 1023 1021
f 1010 1022 1024
f 1013 1011 1002
f 1011 1026 1024
f 1005 1013 1003
f 1024 1026 1025
f 1014 1027 1025
f 1026 1013 1025
f 1005 1015 1013
f 1004 1014 1005
f 996 1005 1003
f 995 1003 994
f 979 988 989
f 996 995 987
f 978 987 986
f 993 985 986
f 970 979 980
f 989 987 978
f 970 980 978
f 978 986 977
f 970 969 968
f 967 957 959
f 967 959 968
f 967 969 977
f 967 977 976
f 965 967 976
f 967 965 955
f 965 964 953
f 965 953 955
f 1017 1028 1029
f 1017 1029 1019
f 1031 1023 1024
f 989 988 980
f 1004 1015 1014
f 996 995 1005
f 971 969 980
f 971 968 969
f 987 978 977
f 1015 1012 1014
f 1026 1024 1023
f 1025 1023 1031
f 1022 1023 1024
f 1030 1031 1021
f 1011 1022 1024
f 1029 1030 1021
f 1020 1019 1022
f 997 1007 998
f 982 981 972
f 972 981 973
f 1016 1018 1007
f 999 998 1007
f 999 1007 1008
f 982 990 991
f 982 974 973
f 963 961 973
f 961 960 973
f 964 953 954
f 965 955 956
f 965 967 958
f 995 994 1002
f 985 994 986
f 976 965 964
f 985 976 975
f 985 975 984
f 974 975 964
f 975 974 984
f 984 991 992
f 992 991 1000
f 993 992 1000
f 1010 1001 1000
f 1009 1020 1022
f 1008 1018 1020
f 1028 1029 1019
f 972 960 973
f 975 985 974
f 1006 997 998
f 982 974 983
f 998 990 991
f 1000 1001 999
f 1009 1010 1020
f 987 995 986
f 989 996 987
f 980 989 978
f 986 985 977
f 1020 1018 1019
f 967 969 957
f 970 971 980
f 988 979 980
f 1019 1029 1022
f 981 982 973
f 983 982 991
f 974 963 973
f 953 964 956
f 994 993 1001
f 975 976 964
f 1010 1009 1022
f 1013 1011 1026
f 952 963 953
f 964 962 953
f 963 962 964
f 951 952 962
f 974 960 963
f 963 964 975
f 964 965 975
f 992 990 983
f 984 993 983
f 992 993 991
f 985 993 984
f 1008 998 999
f 1008 1006 1007
f 1008 1018 1016
f 1009 1008 999
f 1001 993 1002
f 1020 1010 1022
f 1019 1022 1030
f 1022 1024 1021
f 1023 1024 1025
f 1032 1023 1025
f 1031 1023 1032
f 1013 1014 1025
f 1015 1014 1013
f 1005 1014 1015
f 1002 993 994
f 980 979 989
f 994 993 986
f 969 967 968
f 957 967 955
f 968 971 970
f 1015 1004 1005
f 995 1003 1005
f 1012 1015 1013
f 1012 1025 1014
f 1025 1026 1023
f 1032 1025 1031
f 1023 1022 1021
f 1007 997 1006
f 1006 1016 1007
f 963 960 961
f 952 951 960
f 962 952 960
f 955 953 956
f 957 965 958
f 1003 995 1002
f 994 985 993
f 1002 994 1001
f 963 974 964
f 991 984 983
f 992 985 984
f 993 985 992
f 999 1009 1000
f 1009 1010 1000
f 1010 1022 1011
f 1009 1008 1020
f 1017 1028 1019
