# daf_trailer_wheel_3r.obj - ISO 8855 (x ileri, y sol, z yukari), metre
mtllib daf.mtl
o daf_trailer_wheel_3r
v 0.23149 0.19936 -0.41615
v 0.43880 0.20174 -0.17101
v -0.37758 0.20127 -0.28335
v -0.42971 0.20020 0.19401
v 0.42577 0.19745 0.22449
v -0.20407 0.20039 0.42882
v -0.46144 0.19858 -0.13568
v -0.48256 0.19735 -0.04287
v 0.48095 0.19721 0.04781
v 0.37278 0.20034 0.28632
v 0.04661 0.19733 0.48320
v -0.05072 0.20107 -0.46881
v 0.08915 0.19920 -0.46133
v -0.15815 0.19872 -0.44227
v 0.46816 0.20261 -0.01279
v 0.08589 0.19972 0.46304
v -0.16125 0.19755 0.45166
v -0.24185 0.19986 -0.40484
v -0.42166 0.19384 0.25538
v 0.06751 0.19317 -0.49251
v -0.17275 0.19355 -0.46454
v 0.20146 0.19430 -0.45027
v 0.41130 0.18790 -0.29900
v -0.36810 0.18964 -0.34132
v 0.40584 0.19773 -0.26095
v 0.48088 0.19276 -0.11400
v 0.51331 0.18380 -0.03733
v -0.48645 0.19346 0.08139
v -0.45845 0.19412 0.18301
v -0.34011 0.19827 0.33743
v 0.34420 0.19331 0.35721
v -0.17612 0.19436 0.46443
v 0.23188 0.19870 0.42320
v -0.30592 0.18924 -0.18424
v -0.36088 0.19489 0.01865
v 0.20923 0.20121 0.33801
v -0.05644 0.19407 0.36702
v 0.23619 0.17804 -0.47007
v -0.43695 0.17497 0.29716
v -0.05782 0.19282 -0.36428
v 0.21535 0.19450 -0.29192
v -0.49062 0.18197 -0.16928
v 0.32168 0.18884 -0.15118
v -0.30480 0.19443 0.20047
v 0.34997 0.19378 0.09857
v 0.21741 0.18774 0.27770
v 0.13925 0.18201 -0.50026
v 0.18450 0.18150 -0.47900
v 0.38708 0.17265 -0.36224
v -0.45625 0.18521 -0.22888
v -0.48313 0.18138 -0.17499
v 0.48494 0.18127 0.19444
v 0.38785 0.18100 0.34037
v -0.31239 0.17849 0.42678
v -0.31236 0.18977 0.39462
v 0.42373 0.17684 0.31599
v -0.16572 0.17304 0.50435
v 0.15919 0.18458 0.48817
v -0.51112 0.18156 -0.10409
v -0.49414 0.16858 0.19913
v -0.06037 0.16840 0.54065
v -0.03057 0.18109 0.52365
v 0.05980 0.17143 -0.52691
v -0.06696 0.17005 -0.53059
v 0.13738 0.16832 -0.51530
v -0.30556 0.16916 -0.43756
v 0.19308 0.17592 -0.28602
v -0.06546 0.17644 -0.33146
v 0.48345 0.17502 -0.21778
v 0.33902 0.17639 -0.04054
v -0.28524 0.17642 -0.19323
v 0.53058 0.16809 -0.04936
v 0.53129 0.17088 0.04272
v 0.26830 0.17619 0.21129
v -0.33164 0.17640 0.06413
v -0.52331 0.17315 0.09100
v -0.47810 0.18230 0.20034
v -0.22872 0.17636 0.24898
v 0.01337 0.17598 0.34440
v 0.04106 0.16751 0.54158
v -0.22467 0.18010 -0.47653
v 0.18450 0.17550 -0.26000
v -0.15225 0.17550 -0.28975
v 0.31937 0.17550 0.03775
v -0.29950 0.17550 -0.10613
v -0.31250 0.17550 0.10200
v 0.24825 0.17550 0.20900
v 0.11381 0.17550 0.30475
v -0.24269 0.17550 0.21444
v -0.13350 0.17550 0.30000
v -0.06850 0.17550 0.32100
v -0.01275 0.17550 0.32750
v -0.06310 0.16757 0.52875
v 0.30340 0.16875 -0.43918
v -0.44002 0.16689 -0.31732
v 0.46173 0.16944 -0.27375
v 0.53120 0.17205 -0.07381
v 0.50971 0.16890 0.15422
v -0.39088 0.16785 0.36444
v 0.39961 0.16723 0.35145
v 0.24620 0.16648 0.48189
v 0.22037 0.17948 0.47914
v -0.16330 0.17909 -0.50266
v 0.33911 0.16889 0.41205
v -0.13013 0.16684 -0.51773
v 0.20231 0.16542 -0.51114
v 0.35520 0.16650 -0.39821
v 0.45237 0.16672 -0.28354
v -0.49931 0.16861 -0.19077
v 0.51687 0.16654 0.17088
v 0.00583 0.16643 -0.54893
v 0.00543 0.16587 -0.55377
v -0.30441 0.16580 -0.46524
v 0.35637 0.16605 -0.42400
v 0.47661 0.16581 -0.28146
v -0.47343 0.16603 -0.28108
v -0.48149 0.16870 -0.24504
v -0.53221 0.16632 -0.13876
v 0.53021 0.16598 -0.15703
v -0.52696 0.16780 -0.07560
v 0.55052 0.16587 -0.00100
v -0.55016 0.16631 -0.03081
v -0.53107 0.17339 -0.01990
v 0.54352 0.16596 0.09525
v -0.53040 0.16605 0.15143
v -0.47552 0.16612 0.27963
v 0.41174 0.16632 0.36901
v -0.37701 0.16666 0.40261
v 0.30304 0.16551 0.46160
v -0.24651 0.16558 0.49398
v -0.14294 0.16615 0.53264
v 0.16321 0.16604 0.52712
v 0.49563 0.16519 0.24422
v -0.09787 0.16513 -0.54297
v 0.08557 0.13562 -0.54793
v -0.16707 0.16613 -0.52507
v -0.52450 0.16250 -0.17000
v -0.53823 0.16192 -0.12152
v -0.53950 0.16250 -0.11500
v -0.54450 0.16250 -0.08600
v 0.55050 0.16250 -0.02900
v -0.55063 0.16242 -0.02689
v -0.55046 0.16190 0.02978
v -0.33664 0.16189 0.43845
v -0.05216 0.13352 0.54647
v 0.48950 0.13196 -0.24341
v -0.52423 0.13259 -0.18199
v -0.54266 0.13189 -0.05690
v -0.54850 0.16150 -0.05800
v -0.55250 0.16150 -0.00000
v -0.54524 0.16516 0.08730
v -0.52571 0.13255 0.19756
v 0.52913 0.13155 0.19594
v 0.07829 0.13158 0.55145
v -0.24743 0.13200 -0.48611
v -0.15724 0.13179 0.53189
v -0.02202 0.13189 -0.54683
v 0.27473 0.13215 -0.47392
v -0.35614 0.13305 -0.41501
v 0.42839 0.13198 -0.33441
v -0.40536 0.13206 -0.38047
v -0.51777 0.13150 0.15724
v 0.54395 0.13199 -0.05569
v 0.49549 0.13150 0.22110
v -0.39989 0.13193 0.37404
v 0.40163 0.13175 0.36122
v 0.30071 0.13191 0.46023
v 0.07370 0.13150 0.53494
v 0.18245 0.12350 -0.53574
v 0.11131 0.12350 -0.50644
v -0.14901 0.12350 -0.53732
v 0.26619 0.12350 -0.44600
v -0.14444 0.12350 -0.49353
v -0.37945 0.12349 -0.41345
v 0.39894 0.12350 -0.33062
v 0.46746 0.12351 -0.32358
v 0.44240 0.12350 0.16787
v -0.39144 0.12350 -0.32042
v -0.51319 0.12350 -0.21607
v 0.56012 0.12350 0.00196
v -0.55811 0.12350 0.00563
v 0.48801 0.12349 0.27605
v -0.49869 0.12350 0.10247
v -0.48051 0.12349 0.28498
v 0.13349 0.12350 0.54356
v 0.09666 0.12350 0.50778
v -0.20652 0.12350 0.45284
v -0.09981 0.12350 0.54788
v -0.30585 0.12350 0.47111
v 0.31799 0.08422 -0.45475
v -0.36577 0.08450 -0.41608
v -0.45289 0.08451 -0.31836
v 0.49789 0.08473 0.24539
v 0.35730 0.12349 0.42994
v -0.20579 0.08482 0.51529
v 0.41550 0.08350 -0.31263
v 0.42721 0.08453 0.35398
v 0.16665 0.08505 -0.52897
v -0.03925 0.08350 -0.51925
v -0.13000 0.08350 -0.50475
v 0.07300 0.08350 -0.51650
v -0.20750 0.08350 -0.47825
v 0.17200 0.08350 -0.49200
v -0.31250 0.08350 -0.41525
v 0.29850 0.08350 -0.42562
v -0.40200 0.08350 -0.33200
v -0.46712 0.08350 -0.22812
v -0.51450 0.08350 -0.07250
v 0.48188 0.08350 -0.19788
v -0.51700 0.08350 0.06000
v 0.51775 0.08350 -0.04963
v -0.55465 0.08368 0.01024
v -0.47638 0.08300 0.20788
v 0.51100 0.08300 0.10263
v -0.40350 0.08350 0.32962
v 0.46737 0.08350 0.22825
v -0.29813 0.08350 0.42575
v 0.37400 0.08350 0.36150
v -0.19100 0.08350 0.48550
v 0.24412 0.08350 0.45937
v -0.07237 0.08350 0.51500
v 0.09025 0.08350 0.51225
v -0.00905 0.08436 -0.55406
v 0.08010 0.08474 -0.54820
v -0.09546 0.08448 -0.54692
v 0.24570 0.08469 -0.49767
v -0.18083 0.08419 -0.52420
v -0.25999 0.08433 -0.48940
v -0.31475 0.08453 -0.45627
v 0.38738 0.08482 -0.39643
v -0.41288 0.08462 -0.36996
v 0.44420 0.08470 -0.33239
v 0.49142 0.08468 -0.25864
v -0.49733 0.08459 -0.24434
v 0.52400 0.08433 -0.18022
v -0.53098 0.08397 -0.16043
v 0.54758 0.08470 -0.09345
v -0.54853 0.08400 -0.07696
v 0.55463 0.08479 -0.00672
v 0.54933 0.08420 0.07663
v -0.54546 0.08429 0.09427
v 0.53023 0.08434 0.16201
v -0.52551 0.08502 0.17681
v -0.48956 0.08350 0.26105
v 0.46553 0.08464 0.30134
v -0.45548 0.08373 0.31563
v -0.41683 0.08477 0.36569
v 0.36654 0.08474 0.41771
v -0.35365 0.08461 0.42722
v 0.29691 0.08473 0.46962
v 0.21995 0.08455 0.50987
v -0.28258 0.08460 0.47726
v 0.13698 0.08477 0.53774
v 0.05406 0.08422 0.55225
v -0.12052 0.08383 0.54219
v -0.03438 0.08400 0.55288
v -0.21757 0.07188 -0.51031
v 0.32416 0.07248 -0.45035
v 0.49293 0.07299 -0.25300
v -0.51297 0.07285 -0.21137
v -0.53916 0.07225 -0.12545
v -0.44761 0.07397 0.32428
v 0.34569 0.07238 0.43341
v -0.34151 0.07323 0.43663
v 0.00875 0.07350 -0.52100
v 0.11100 0.07400 -0.50888
v -0.10725 0.07400 -0.50975
v 0.23475 0.07350 -0.46400
v -0.29165 0.07254 -0.47131
v 0.30675 0.07450 -0.42175
v -0.22712 0.07400 -0.46688
v 0.39763 0.07325 -0.33488
v -0.32450 0.07350 -0.40900
v 0.39064 0.07224 -0.39482
v 0.46312 0.07400 -0.23675
v -0.40350 0.07350 -0.32913
v 0.50850 0.07350 -0.11325
v -0.48075 0.07350 -0.19750
v 0.54815 0.07237 -0.09021
v 0.52075 0.07350 0.00875
v -0.51525 0.07350 -0.08000
v 0.50588 0.07450 0.12150
v -0.52062 0.07350 0.02200
v -0.50650 0.07350 0.12350
v 0.52826 0.07237 0.16814
v -0.51923 0.07241 0.19504
v 0.44425 0.07350 0.27038
v -0.49328 0.07302 0.25272
v -0.46225 0.07350 0.23762
v 0.38450 0.07350 0.35300
v 0.44963 0.07320 0.32513
v 0.31575 0.07350 0.41450
v -0.39525 0.07350 0.33975
v -0.39681 0.07411 0.38826
v 0.22875 0.07350 0.46800
v -0.32900 0.07350 0.40375
v -0.23650 0.07450 0.46500
v 0.16125 0.07450 0.49600
v -0.22288 0.07063 0.50763
v 0.05262 0.07350 0.51825
v -0.16075 0.07450 0.49575
v -0.06937 0.07350 0.51638
v -0.10633 0.07314 0.54427
v -0.04662 0.07370 0.55289
v 0.16791 0.07229 -0.52729
v 0.24994 0.07253 -0.49541
v -0.36094 0.07263 -0.41995
v -0.42223 0.07267 -0.35872
v -0.47471 0.07233 -0.28676
v -0.55273 0.07266 -0.04211
v 0.04420 0.07256 0.55362
v -0.35483 0.03433 -0.43022
v 0.29224 0.07236 0.47147
v 0.21862 0.07157 0.51059
v 0.08216 0.07215 -0.54807
v -0.15360 0.07236 -0.53277
v 0.44910 0.07330 -0.32708
v 0.52664 0.07227 -0.17472
v -0.55268 0.07328 0.04496
v -0.48164 0.07144 0.27409
v 0.32431 0.03154 0.45064
v -0.28772 0.07247 0.47359
v -0.16750 0.07242 0.53014
v 0.13267 0.07229 0.53889
v -0.00302 0.07241 -0.55436
v -0.09013 0.07227 -0.54734
v 0.35952 0.03049 -0.42435
v 0.51384 0.03175 -0.20876
v 0.55496 0.07232 -0.00309
v 0.55428 0.03153 0.02538
v -0.51366 0.03169 0.20887
v 0.40243 0.07018 0.38513
v 0.18310 0.04599 -0.20952
v -0.04288 0.04059 -0.27896
v 0.27127 0.04645 -0.06473
v -0.23624 0.04599 -0.14663
v 0.24845 0.04509 0.12958
v -0.27736 0.04630 0.02286
v 0.10575 0.04624 0.25752
v -0.21277 0.04594 0.17923
v -0.06450 0.04586 0.27023
v 0.04792 0.03189 -0.55312
v -0.12397 0.03214 -0.54156
v 0.21296 0.03101 -0.51394
v 0.42488 0.03169 -0.35841
v -0.53873 0.03128 -0.13029
v -0.55269 0.03215 -0.04895
v 0.54834 0.07254 0.08559
v -0.54041 0.07360 0.12945
v 0.50247 0.07030 0.24353
v 0.51172 0.03147 0.21478
v 0.12999 0.03052 0.53981
v -0.55270 0.03175 0.04004
v -0.29520 -0.13573 0.46366
v -0.03922 0.03172 -0.55343
v -0.29945 0.03103 -0.46664
v -0.41777 0.02828 -0.36883
v -0.44698 0.03154 -0.32772
v -0.49228 0.03152 -0.25387
v -0.51915 0.03162 -0.19462
v 0.55445 0.03053 -0.04568
v -0.53866 0.03180 0.12596
v 0.53332 0.03157 0.15353
v -0.47538 0.03518 0.28705
v 0.43361 0.03157 0.34594
v 0.38924 0.03190 0.39523
v -0.36103 0.03107 0.42193
v -0.25250 0.03072 0.49347
v 0.24931 0.03161 0.49595
v -0.19478 0.03153 0.51923
v 0.18948 0.03165 0.52147
v -0.12935 0.03089 0.54076
v -0.04656 0.03161 0.55336
v -0.20894 0.03169 -0.51343
v -0.12463 0.03050 -0.50475
v 0.04238 0.03050 -0.51813
v -0.22575 0.03050 -0.46925
v 0.17200 0.03050 -0.49150
v -0.28850 0.03050 -0.43450
v -0.36625 0.03050 -0.36837
v 0.28225 0.03050 -0.43775
v -0.44837 0.03050 -0.26450
v 0.36706 0.03050 -0.36831
v 0.44575 0.03050 -0.27100
v -0.49750 0.03050 -0.15275
v 0.48988 0.03100 -0.17825
v -0.51975 0.02950 -0.04075
v -0.51837 0.03000 0.05038
v 0.51850 0.03050 -0.04950
v 0.54752 0.03193 0.09208
v -0.48538 0.03050 0.18875
v 0.51550 0.03000 0.07225
v 0.48875 0.03050 0.18225
v -0.42188 0.03100 0.30375
v 0.47135 0.03158 0.29165
v 0.44837 0.03100 0.26537
v -0.36900 0.02950 0.36850
v 0.39575 0.03050 0.33975
v -0.29063 0.03050 0.43262
v 0.34675 0.02950 0.39025
v -0.30869 0.03050 0.46151
v -0.20100 0.03050 0.48125
v 0.25350 0.03050 0.45550
v -0.08275 0.03050 0.51337
v 0.13075 0.02975 0.50281
v 0.00100 0.02850 0.52200
v 0.04680 0.03025 0.55292
v 0.13280 0.03167 -0.53891
v 0.29127 0.03132 -0.47271
v 0.47515 0.03168 -0.28759
v 0.53995 0.03197 -0.12430
v -0.42257 0.03137 0.35831
v 0.00680 0.01816 -0.55370
v 0.09657 0.01868 -0.54620
v -0.21452 0.01971 -0.51179
v 0.18134 0.01875 -0.52419
v 0.36591 0.01828 -0.41672
v 0.42697 0.01814 -0.35509
v 0.55460 0.01875 0.00987
v 0.38654 0.01839 0.39819
v 0.03411 0.01871 0.55259
v -0.12135 0.01887 -0.54120
v 0.09037 0.01950 -0.51187
v -0.05212 0.01950 -0.51863
v 0.22650 0.01950 -0.46937
v -0.16137 0.02000 -0.49525
v 0.33725 0.01950 -0.39675
v -0.27256 0.01975 -0.44306
v -0.41694 0.01890 -0.36589
v 0.40875 0.02000 -0.32300
v -0.37700 0.01950 -0.36100
v -0.46714 0.01895 -0.29762
v 0.46900 0.01950 -0.22875
v -0.50852 0.01914 -0.22089
v -0.43594 0.01925 -0.28306
v 0.50112 0.02000 -0.14200
v 0.51527 0.01867 -0.20387
v -0.49300 0.01950 -0.16925
v 0.53813 0.01982 -0.13748
v 0.52125 0.01950 -0.01150
v -0.51712 0.01950 -0.04975
v 0.51750 0.01950 0.07050
v -0.51900 0.01950 0.05250
v 0.50525 0.01850 0.12925
v -0.54121 0.01878 0.12294
v 0.54735 0.01816 0.09405
v 0.45569 0.02000 0.25156
v 0.52495 0.01817 0.17758
v -0.51582 0.01828 0.20541
v -0.49725 0.02050 0.15125
v -0.45000 0.02050 0.26375
v 0.38350 0.01950 0.35250
v -0.41500 0.01950 0.31600
v 0.44454 0.01822 0.33248
v -0.36414 0.01774 0.41859
v 0.28200 0.01950 0.43750
v -0.34525 0.01950 0.39100
v 0.15162 0.02000 0.49762
v -0.24362 0.01950 0.45937
v -0.14821 0.01789 0.53509
v -0.13000 0.01950 0.50525
v -0.00763 0.01900 0.52012
v 0.25820 0.01831 -0.48938
v -0.28977 0.01831 -0.47279
v -0.55282 0.01864 -0.05209
v -0.47990 0.01888 0.27804
v 0.11888 0.01898 0.54150
v -0.05499 0.01877 0.55217
v -0.05577 0.01891 -0.55158
v 0.31486 0.01841 -0.45645
v -0.35314 0.01907 -0.42737
v -0.53661 0.01880 -0.13934
v 0.54856 0.01920 -0.07726
v 0.20421 0.01850 0.51521
v -0.54168 -0.01946 -0.11743
v 0.33707 0.01838 0.44012
v -0.29621 0.01839 0.46867
v -0.22752 0.01890 0.50612
v -0.05200 -0.00050 -0.21700
v -0.17350 -0.00050 -0.13150
v 0.12400 -0.00050 -0.18500
v -0.22025 -0.00050 0.01725
v -0.11387 -0.00050 0.17900
v 0.21294 -0.00050 -0.00081
v 0.07650 -0.00050 0.20650
v 0.47984 0.01898 -0.28168
v -0.42820 0.01881 0.35231
v 0.38139 -0.01803 0.40357
v 0.45656 -0.01843 -0.31399
v 0.49999 -0.01862 -0.24035
v 0.55538 -0.01890 -0.03160
v -0.55324 -0.01933 0.03157
v -0.55540 0.01560 0.04710
v 0.49119 0.01792 0.25803
v 0.28711 0.01746 0.47627
v 0.15599 -0.01784 0.53473
v 0.54676 -0.01833 -0.09446
v 0.49725 -0.01835 0.24531
v 0.23859 -0.01829 0.50081
v -0.10803 -0.01858 -0.54500
v 0.14274 -0.01851 -0.53525
v 0.22500 -0.01840 -0.50579
v -0.28303 -0.01975 -0.47751
v 0.37127 -0.01838 -0.41182
v 0.41660 -0.01838 -0.36588
v -0.41486 -0.01926 -0.36867
v -0.45289 -0.01832 -0.31923
v -0.48723 -0.01842 -0.26326
v -0.52314 -0.01859 -0.18413
v 0.53132 -0.01857 -0.15881
v -0.55145 -0.01845 -0.05669
v -0.54579 -0.01882 0.09502
v 0.52211 -0.01814 0.18661
v 0.46557 -0.01867 0.30091
v -0.45755 -0.01779 0.31266
v -0.40095 -0.01869 0.38314
v -0.35386 -0.01837 0.42645
v 0.31526 -0.01854 0.45629
v -0.30059 -0.01865 0.46704
v -0.22606 -0.01831 0.50772
v -0.14190 -0.01851 0.53553
v -0.07916 -0.01839 0.54862
v -0.01825 -0.01950 -0.52050
v -0.08750 -0.01750 -0.51400
v -0.14512 -0.02000 -0.50050
v 0.09225 -0.02050 -0.51325
v -0.24106 -0.01950 -0.46075
v 0.20100 -0.01950 -0.48025
v -0.31550 -0.02150 -0.41600
v -0.34550 -0.01950 -0.39150
v 0.30762 -0.01950 -0.42012
v -0.40188 -0.02000 -0.33125
v -0.45875 -0.01950 -0.24750
v 0.39725 -0.01950 -0.33675
v -0.49475 -0.01950 -0.16250
v 0.47400 -0.02000 -0.21713
v -0.51712 -0.02000 -0.05200
v 0.50975 -0.02050 -0.11150
v -0.50775 -0.02000 0.11050
v 0.52075 -0.01950 0.02225
v -0.44875 -0.02000 0.26200
v 0.49587 -0.02000 0.15931
v -0.50136 -0.01852 0.24014
v 0.45150 -0.01950 0.26062
v -0.34600 -0.02000 0.38825
v 0.42692 -0.01836 0.35408
v 0.35988 -0.02000 0.37575
v -0.26500 -0.01950 0.44950
v -0.17175 -0.01950 0.49075
v 0.26375 -0.02050 0.45025
v 0.20800 -0.01950 0.47900
v -0.03312 -0.01900 0.52012
v 0.07571 -0.01940 0.54981
v -0.01856 -0.01792 0.55470
v 0.06136 -0.01757 -0.55209
v -0.02456 -0.01846 -0.55356
v -0.20604 -0.01925 -0.51489
v 0.30488 -0.01783 -0.46457
v -0.35440 -0.01938 -0.42808
v 0.55386 -0.01823 0.03635
v 0.54666 -0.01838 0.10113
v -0.53080 -0.01846 0.15812
v 0.07994 -0.01975 0.51394
v -0.02334 -0.03045 -0.55417
v -0.48512 -0.03053 -0.26879
v -0.54427 -0.03045 0.11010
v -0.48251 -0.03094 0.27478
v 0.50348 -0.02948 0.23304
v -0.30693 -0.03031 0.46179
v -0.13013 -0.02950 0.50425
v 0.07050 -0.02950 -0.51575
v -0.06225 -0.02950 -0.51625
v 0.19312 -0.03000 -0.48425
v 0.28937 -0.02850 -0.43200
v -0.19075 -0.02950 -0.48462
v 0.38250 -0.02950 -0.35500
v -0.29850 -0.02950 -0.42662
v -0.40991 -0.03098 -0.37333
v -0.38250 -0.02850 -0.35400
v 0.45500 -0.02950 -0.25575
v 0.48500 -0.03050 -0.19225
v -0.43950 -0.03000 -0.27887
v 0.50250 -0.02850 -0.14125
v 0.51800 -0.02950 -0.06225
v -0.50062 -0.02900 -0.14050
v 0.52050 -0.02950 0.04000
v -0.52037 -0.02950 -0.02425
v 0.51062 -0.02850 0.10688
v -0.51750 -0.02950 0.06275
v 0.49375 -0.03050 0.16875
v 0.47350 -0.02850 0.21850
v -0.49138 -0.02950 0.17175
v 0.44600 -0.02950 0.27150
v 0.41050 -0.02950 0.32200
v -0.45400 -0.02950 0.25600
v 0.37000 -0.02950 0.36800
v 0.32300 -0.02850 0.40950
v -0.38187 -0.02850 0.35300
v 0.26625 -0.03050 0.44875
v 0.23550 -0.02750 0.46600
v 0.18200 -0.02950 0.48900
v -0.25275 -0.02950 0.45450
v 0.10300 -0.02950 0.51150
v 0.02175 -0.02950 0.52125
v -0.03850 -0.02950 0.52100
v 0.00106 -0.02923 0.55435
v -0.06775 -0.02917 0.55012
v 0.12704 -0.03059 -0.53972
v -0.23329 -0.03039 -0.50204
v 0.19301 -0.03005 -0.52032
v 0.30773 -0.03040 -0.46207
v -0.30877 -0.03006 -0.46166
v -0.35485 -0.02821 -0.42924
v 0.37628 -0.03033 -0.40839
v 0.43517 -0.03025 -0.34394
v 0.51977 -0.03067 -0.19406
v -0.53548 -0.03101 -0.14571
v 0.54172 -0.03080 -0.11176
v -0.55045 -0.02975 -0.06434
v 0.53520 -0.03014 0.14772
v 0.46378 -0.03070 0.30632
v 0.41022 -0.03083 0.37383
v -0.43287 -0.03061 0.34495
v -0.37437 -0.03076 0.40947
v -0.22560 -0.03729 0.51116
v -0.18875 -0.03074 0.52159
v 0.13169 -0.03061 0.53866
v -0.12784 -0.03052 0.54068
v 0.06513 -0.03024 -0.55219
v -0.08908 -0.03060 -0.54704
v 0.24949 -0.03064 -0.49538
v 0.30707 -0.07354 -0.46280
v -0.45006 -0.03061 -0.32362
v -0.51298 -0.03066 -0.20968
v -0.52016 -0.03046 0.19355
v 0.27441 -0.03081 0.48193
v 0.19328 -0.03041 0.52022
v 0.06529 -0.02952 0.55209
v -0.50140 -0.07257 -0.23447
v 0.55445 -0.03139 -0.02828
v 0.26334 -0.07174 0.48888
v -0.15397 -0.03066 -0.53310
v 0.52761 -0.06967 -0.17694
v -0.55134 -0.07220 -0.06901
v 0.55487 -0.07306 -0.02115
v 0.55076 -0.07318 0.06463
v 0.55112 -0.03036 0.06349
v -0.43638 -0.07296 0.34409
v 0.45967 -0.07215 0.31137
v 0.34748 -0.03088 0.43412
v -0.15273 -0.07276 0.53418
v -0.06231 -0.07373 0.55372
v 0.48269 -0.03078 -0.27429
v 0.54329 -0.07308 -0.10806
v -0.53355 -0.07330 -0.14851
v -0.55393 -0.02984 0.02283
v 0.40537 -0.07248 0.37883
v 0.01833 -0.07181 0.55477
v 0.06350 -0.07250 -0.51800
v -0.25100 -0.07150 -0.45525
v 0.18250 -0.07250 -0.48850
v -0.40850 -0.07250 -0.32400
v 0.38600 -0.07050 -0.35050
v 0.45750 -0.07050 -0.25100
v 0.48950 -0.07450 -0.18100
v -0.51950 -0.07450 -0.01950
v -0.50050 -0.07350 0.14075
v 0.49550 -0.07050 0.16600
v -0.45525 -0.07350 0.25475
v 0.47400 -0.07450 0.21750
v 0.43450 -0.07450 0.28900
v 0.38350 -0.07450 0.35400
v -0.29050 -0.07250 0.43175
v 0.31500 -0.07450 0.41525
v 0.21900 -0.07450 0.47350
v -0.03425 -0.07150 0.51975
v 0.11063 -0.07300 0.50912
v 0.04150 -0.07450 0.52000
v -0.02289 -0.07337 -0.55498
v 0.06793 -0.07256 -0.54989
v -0.10509 -0.07250 -0.54382
v 0.14854 -0.07288 -0.53498
v -0.19055 -0.07277 -0.52078
v 0.23429 -0.07207 -0.50256
v -0.26813 -0.07253 -0.48524
v -0.34139 -0.07264 -0.43653
v 0.37708 -0.07284 -0.40584
v -0.40749 -0.07308 -0.37700
v 0.43594 -0.07278 -0.34182
v -0.45929 -0.07254 -0.31053
v 0.48514 -0.07262 -0.26883
v -0.55352 -0.07333 0.02329
v -0.54532 -0.07267 0.10655
v 0.53371 -0.07297 0.15137
v 0.50321 -0.07228 0.23562
v -0.52053 -0.07264 0.18948
v -0.38987 -0.07300 0.34512
v -0.48416 -0.07281 0.26997
v -0.37721 -0.07272 0.40583
v 0.33296 -0.07270 0.44483
v -0.30994 -0.07269 0.45982
v 0.19163 -0.07297 0.52024
v -0.23313 -0.07273 0.50255
v 0.10241 -0.07258 0.54601
v -0.02275 -0.07200 -0.51975
v -0.13825 -0.07150 -0.50250
v 0.12150 -0.07450 -0.50800
v 0.23650 -0.07450 -0.46500
v -0.35450 -0.07450 -0.38250
v 0.29350 -0.07050 -0.43050
v 0.34250 -0.07050 -0.39400
v -0.45925 -0.07350 -0.24600
v 0.42400 -0.07250 -0.30500
v -0.50200 -0.07450 -0.14050
v 0.51225 -0.07150 -0.09850
v 0.52150 -0.07050 -0.01550
v 0.52050 -0.07050 0.04600
v 0.51050 -0.07050 0.10600
v -0.17400 -0.07100 0.49050
v -0.05392 -0.08308 -0.55091
v -0.14046 -0.08326 -0.53614
v 0.11997 -0.08297 -0.54165
v -0.22439 -0.08411 -0.50787
v 0.28045 -0.08323 -0.47825
v -0.29994 -0.08374 -0.46740
v -0.36931 -0.08337 -0.41338
v 0.35067 -0.08346 -0.43074
v -0.47837 -0.08318 -0.28033
v 0.48150 -0.08250 -0.19900
v 0.50722 -0.08345 -0.22434
v 0.51487 -0.08200 -0.08038
v -0.48050 -0.08150 -0.20100
v 0.55210 -0.08375 -0.05511
v -0.55201 -0.08397 0.05635
v -0.53630 -0.08321 0.14023
v 0.48500 -0.08150 0.19200
v -0.44412 -0.08300 0.27238
v 0.33925 -0.08350 0.39575
v 0.43040 -0.08345 0.35108
v -0.35019 -0.08346 0.42984
v 0.23500 -0.08150 0.46500
v 0.36905 -0.08327 0.41422
v -0.32850 -0.08450 0.40450
v -0.27942 -0.08326 0.47849
v -0.26050 -0.08550 0.45200
v 0.22393 -0.08397 0.50795
v -0.20060 -0.08340 0.51641
v -0.02914 -0.08347 0.55343
v 0.05291 -0.08286 0.55176
v 0.41599 -0.08299 -0.36845
v -0.51783 -0.08368 -0.19981
v -0.49200 -0.08350 0.17200
v -0.14700 -0.08550 0.49850
v 0.07350 -0.08150 -0.51650
v -0.05025 -0.08250 -0.51725
v 0.17987 -0.08300 -0.48887
v -0.19775 -0.08150 -0.48175
v 0.29900 -0.08150 -0.42550
v -0.31450 -0.08350 -0.41400
v 0.41325 -0.08450 -0.31550
v -0.42025 -0.08150 -0.30750
v -0.51500 -0.08350 -0.07000
v 0.51550 -0.08350 0.07050
v -0.51775 -0.08150 0.05950
v 0.42650 -0.08250 0.29800
v -0.38900 -0.08350 0.34750
v 0.12425 -0.08450 0.50550
v 0.00900 -0.08150 0.52150
v -0.15587 -0.13174 -0.51844
v -0.53859 -0.13150 -0.01372
v 0.29739 -0.13150 0.45610
v 0.03302 -0.08313 -0.55317
v 0.50307 -0.12251 -0.26142
v 0.53695 -0.08264 -0.13711
v -0.17932 -0.12250 -0.52897
v 0.20318 -0.08291 -0.51566
v -0.42690 -0.08292 -0.35150
v 0.46860 -0.08276 -0.29700
v -0.54195 -0.08351 -0.11678
v -0.53633 -0.12250 -0.15688
v -0.55321 -0.08378 -0.03208
v 0.55439 -0.12250 0.08630
v 0.55512 -0.08356 0.03276
v -0.50916 -0.08278 0.22123
v 0.54174 -0.08364 0.11590
v -0.46692 -0.08293 0.29818
v 0.51684 -0.08341 0.20110
v 0.47887 -0.08331 0.27937
v -0.41449 -0.08316 0.36918
v -0.36869 -0.12248 0.41867
v -0.17292 -0.12249 0.53018
v 0.29944 -0.08314 0.46697
v -0.11716 -0.08341 0.54293
v 0.14058 -0.08361 0.53681
v 0.07075 -0.12248 -0.55508
v -0.07547 -0.12250 -0.49650
v 0.30251 -0.12250 -0.46924
v -0.43647 -0.12250 -0.26078
v -0.41932 -0.12250 -0.36779
v 0.26519 -0.12250 -0.43588
v 0.43159 -0.12250 -0.28922
v -0.49587 -0.12250 0.14856
v 0.51500 -0.12250 -0.05906
v -0.39687 -0.12250 0.32637
v 0.41418 -0.12248 0.37851
v 0.49631 -0.12250 0.13350
v -0.53669 -0.12249 0.17862
v 0.39412 -0.12250 0.34056
v -0.25044 -0.12250 0.45431
v 0.28356 -0.12250 0.43637
v -0.14169 -0.12250 0.50137
v 0.12630 -0.12250 0.50050
v 0.10386 -0.12250 0.55287
v 0.07320 -0.13150 -0.53433
v -0.35060 -0.13150 -0.41324
v 0.26052 -0.13150 -0.47525
v 0.31375 -0.13186 -0.45893
v 0.47806 -0.13162 -0.27278
v -0.56056 -0.13156 -0.04418
v 0.54443 -0.13153 -0.10831
v 0.51169 -0.13310 0.19665
v -0.34381 -0.13270 0.43695
v -0.10519 -0.13149 0.55073
v -0.02789 -0.13150 0.54442
v 0.15045 -0.13148 0.53791
v 0.46448 -0.16425 -0.29886
v -0.51780 -0.16508 -0.19621
v -0.51682 -0.13153 -0.20923
v -0.54577 -0.16494 0.08172
v 0.33401 -0.13396 0.44933
v 0.11726 -0.15270 0.54022
v -0.37772 -0.13169 -0.40783
v -0.51284 -0.13224 0.18961
v 0.42900 -0.13620 0.35526
v -0.44107 -0.16432 0.33395
v -0.01721 -0.16448 0.55183
v -0.09284 -0.13243 -0.55220
v 0.05975 -0.16527 -0.54814
v -0.08650 -0.16250 -0.54400
v -0.11450 -0.16250 -0.54000
v 0.11300 -0.16190 -0.54015
v -0.11799 -0.16351 -0.53896
v 0.14323 -0.13218 -0.53770
v 0.21991 -0.16214 -0.50591
v -0.23712 -0.16442 -0.49766
v 0.22450 -0.16250 -0.50400
v -0.41881 -0.16507 -0.36173
v 0.51724 -0.16510 -0.19388
v 0.54369 -0.16359 -0.09856
v 0.54790 -0.13319 0.08472
v -0.41598 -0.13227 0.35146
v 0.40578 -0.16525 0.37364
v -0.17740 -0.16437 0.52343
v -0.00253 -0.16435 -0.55102
v -0.05619 -0.16349 -0.54896
v -0.05750 -0.16350 -0.54900
v -0.08550 -0.16350 -0.54400
v -0.15103 -0.16521 -0.52990
v 0.18081 -0.16529 -0.51999
v 0.23240 -0.16539 -0.49936
v 0.27650 -0.16350 -0.47800
v 0.40178 -0.13822 -0.38425
v -0.52257 -0.16418 0.17513
v 0.49860 -0.16450 0.24097
v -0.49473 -0.16493 0.24179
v -0.24693 -0.16598 0.48622
v 0.16868 -0.16472 0.52664
v -0.05771 -0.16549 -0.54575
v 0.00844 -0.16550 -0.53741
v 0.04250 -0.16550 -0.53300
v 0.05650 -0.16550 -0.53300
v 0.02850 -0.16550 -0.53300
v 0.02850 -0.16550 -0.53200
v 0.05550 -0.16550 -0.53000
v 0.10040 -0.16497 -0.54225
v -0.05550 -0.16550 -0.53000
v -0.27091 -0.16508 -0.47170
v 0.19475 -0.16653 -0.49574
v 0.25385 -0.17212 -0.46974
v -0.33652 -0.16559 -0.41171
v -0.38937 -0.16651 -0.36233
v 0.37688 -0.16592 -0.37585
v 0.45205 -0.17395 -0.27307
v 0.40440 -0.16492 -0.38276
v -0.42435 -0.17096 -0.31815
v -0.49324 -0.16613 -0.20224
v 0.50900 -0.16844 -0.15957
v 0.52150 -0.16550 -0.11100
v 0.53098 -0.16625 -0.04730
v -0.55054 -0.16477 -0.04592
v -0.52343 -0.17479 -0.06175
v 0.55015 -0.16527 -0.04964
v -0.52177 -0.16550 0.16922
v -0.53757 -0.16461 0.12147
v 0.55014 -0.16539 0.03279
v 0.53892 -0.16534 0.10982
v 0.48475 -0.16550 0.24878
v 0.45707 -0.16845 0.27522
v -0.41577 -0.16619 0.33558
v 0.32803 -0.16752 0.42260
v -0.33777 -0.16511 0.43655
v 0.29739 -0.16522 0.46470
v 0.24487 -0.16870 0.47245
v 0.00021 -0.17561 0.52937
v -0.06469 -0.16507 0.53932
v 0.06780 -0.16531 0.54755
v -0.00310 -0.16559 -0.53262
v 0.53312 -0.16882 0.05003
v -0.05597 -0.16824 -0.52920
v -0.48261 -0.16693 0.22377
v 0.17513 -0.16659 0.50512
v -0.15491 -0.18080 -0.50091
v -0.22807 -0.17245 -0.48000
v -0.52960 -0.17360 -0.00663
v -0.28876 -0.17666 0.43841
v 0.11179 -0.17246 0.51867
v -0.51486 -0.16842 0.13516
v -0.03800 -0.17450 -0.32325
v -0.21700 -0.17450 -0.23213
v 0.16350 -0.17450 -0.28300
v -0.32650 -0.17450 0.00000
v -0.29463 -0.17450 0.13837
v 0.31862 -0.17450 -0.07388
v -0.09450 -0.17450 0.31150
v 0.21488 -0.17450 0.23562
v 0.05775 -0.16870 -0.53132
v 0.52306 -0.18051 0.01361
v -0.36773 -0.17916 0.37747
v -0.17359 -0.18062 0.49736
v 0.38532 -0.18128 -0.35258
v 0.48574 -0.17413 0.20345
v -0.32016 -0.18117 -0.41382
v 0.49086 -0.18187 -0.16328
v 0.41877 -0.18162 0.31519
v 0.09348 -0.18164 -0.50808
v 0.19535 -0.18066 -0.47821
v 0.51734 -0.18084 -0.07413
v -0.50807 -0.18113 0.10511
v -0.04988 -0.18423 -0.50785
v -0.46416 -0.18186 -0.23571
v 0.12760 -0.18098 0.50775
v -0.06446 -0.18910 -0.34406
v -0.22195 -0.19253 -0.27956
v -0.33329 -0.19216 -0.13516
v -0.09362 -0.20152 0.37330
v 0.48593 -0.19409 -0.08141
v 0.41933 -0.19758 0.24122
v 0.04932 -0.19457 -0.49088
v 0.15228 -0.19294 -0.33187
v -0.44485 -0.19727 -0.21300
v -0.46884 -0.19453 0.15231
v -0.45854 -0.18451 0.23477
v -0.33246 -0.19398 0.36397
v 0.00472 -0.19676 0.48957
v 0.17481 -0.19669 -0.46133
v -0.20914 -0.19443 -0.45120
v 0.36103 -0.19459 -0.33888
v -0.48584 -0.19459 -0.09192
v -0.44298 -0.19520 0.20840
v -0.29068 -0.19381 0.39766
v -0.49336 -0.19378 0.05342
v 0.00413 -0.19690 -0.48301
v -0.36181 -0.19565 -0.33066
v -0.44587 -0.19875 -0.14435
v -0.34915 -0.19253 0.08572
v -0.26141 -0.19198 0.24065
v 0.29142 -0.19600 -0.39896
v -0.43112 -0.19969 -0.18294
v 0.44208 -0.19741 -0.20781
v -0.45372 -0.20131 -0.10041
v -0.47064 -0.19950 -0.02150
v -0.36450 -0.19950 0.29500
v -0.34950 -0.19950 0.31500
v -0.33250 -0.19950 0.33300
v -0.15496 -0.19626 0.46351
v 0.21698 -0.19700 0.43574
v -0.18171 -0.19979 -0.43694
v 0.19543 -0.20271 -0.41877
v -0.05254 -0.20333 -0.42948
v 0.35194 -0.19986 -0.31224
v 0.34558 -0.19242 -0.11392
v 0.48394 -0.19552 0.11064
v 0.43530 -0.20188 0.16541
v 0.21500 -0.19235 0.29351
v 0.37235 -0.19712 0.32042
v 0.36764 -0.19721 0.05831
v -0.46876 -0.20046 -0.00399
v 0.46462 -0.19826 0.10300
v -0.45538 -0.19970 0.12536
v -0.37130 -0.20054 0.28100
v -0.31701 -0.20005 0.34398
v 0.03023 -0.19482 0.36255
v 0.13464 -0.19770 0.46982
usemtl m000
f 974 973 973
f 973 972 990
f 891 940 950
f 940 932 963
f 939 935 948
f 935 936 955
f 936 930 967
f 930 937 969
f 934 941 976
f 954 929 975
f 952 938 959
f 938 891 961
f 912 926 939
f 883 887 933
f 877 847 832
f 857 842 840
f 839 840 837
f 855 839 837
f 838 854 837
f 884 861 817
f 856 868 857
f 855 868 856
f 884 860 861
f 869 868 854
f 848 884 826
f 882 860 884
f 890 914 829
f 868 907 876
f 869 873 907
f 872 873 869
f 870 872 869
f 870 926 874
f 892 889 888
f 874 926 873
f 150 148 143
f 912 877 909
f 111 112 134
f 118 137 138
f 118 139 140
f 930 879 882
f 120 122 123
f 979 942 943
f 927 937 908
f 944 919 921
f 942 918 919
f 949 920 918
f 981 923 920
f 986 925 923
f 984 924 925
f 966 922 924
f 965 921 922
f 883 930 882
f 990 959 989
f 899 928 915
f 907 926 909
f 906 904 911
f 870 874 872
f 872 874 873
f 917 910 893
f 871 870 869
f 868 876 858
f 875 859 838
f 855 854 868
f 901 866 354
f 861 860 846
f 860 859 844
f 859 875 841
f 854 855 837
f 856 857 839
f 910 917 938
f 912 909 926
f 931 934 985
f 985 934 976
f 961 971 987
f 959 961 989
f 85 34 35
f 973 953 972
f 83 40 34
f 82 41 40
f 82 43 41
f 251 194 185
f 84 45 43
f 87 46 45
f 242 180 182
f 88 37 46
f 237 176 180
f 89 44 37
f 86 35 44
f 169 176 190
f 223 171 169
f 228 174 171
f 236 181 179
f 241 184 181
f 256 185 188
f 185 194 177
f 194 182 177
f 182 180 177
f 180 176 177
f 176 169 172
f 169 171 173
f 171 174 178
f 174 179 178
f 179 181 183
f 181 184 183
f 184 189 187
f 189 188 187
f 188 185 186
f 253 254 222
f 251 253 222
f 250 251 220
f 248 250 220
f 197 248 218
f 245 197 218
f 193 245 216
f 30 55 6
f 242 193 216
f 240 242 214
f 239 240 214
f 237 239 211
f 235 237 211
f 233 235 209
f 22 20 1
f 232 233 196
f 230 232 196
f 190 230 205
f 226 190 205
f 198 226 203
f 224 198 203
f 223 224 201
f 225 223 199
f 227 225 200
f 228 227 202
f 229 228 204
f 191 229 204
f 7 59 8
f 51 42 7
f 50 51 7
f 231 191 204
f 192 231 206
f 234 192 207
f 236 234 207
f 47 103 20
f 48 47 20
f 238 236 208
f 212 238 208
f 241 212 210
f 243 241 210
f 52 27 9
f 244 243 213
f 102 53 31
f 246 244 215
f 247 246 215
f 249 247 215
f 252 249 217
f 55 57 32
f 195 252 217
f 39 55 30
f 29 39 19
f 76 77 29
f 255 195 219
f 59 76 28
f 256 255 221
f 254 256 221
f 314 324 352
f 23 49 38
f 350 332 395
f 318 361 411
f 50 109 42
f 316 326 343
f 63 64 103
f 47 65 63
f 49 94 38
f 347 261 346
f 69 96 23
f 72 97 27
f 331 349 362
f 56 110 52
f 294 364 412
f 80 102 58
f 61 58 62
f 352 407 405
f 371 352 405
f 122 149 142
f 139 138 148
f 140 148 149
f 369 371 405
f 118 138 139
f 321 369 403
f 366 321 400
f 365 366 398
f 395 365 398
f 351 395 396
f 363 351 393
f 390 363 392
f 330 390 392
f 361 330 392
f 411 361 389
f 328 411 386
f 410 328 386
f 345 410 384
f 327 345 383
f 409 327 381
f 122 150 143
f 344 409 381
f 122 143 151
f 408 344 378
f 342 408 376
f 355 342 376
f 343 355 375
f 374 343 375
f 356 374 377
f 312 356 380
f 357 312 380
f 358 357 380
f 359 358 382
f 360 359 382
f 346 360 385
f 347 346 385
f 353 347 387
f 362 353 388
f 331 362 391
f 364 331 391
f 412 364 394
f 367 412 397
f 63 112 111
f 401 367 399
f 63 111 64
f 65 112 63
f 368 401 399
f 370 368 402
f 372 370 402
f 373 372 404
f 407 373 406
f 110 127 133
f 349 319 353
f 120 118 122
f 94 114 38
f 316 374 257
f 107 114 94
f 49 115 114
f 96 115 108
f 72 121 97
f 73 124 121
f 274 327 258
f 410 345 317
f 410 317 259
f 60 125 126
f 769 815 155
f 407 352 324
f 303 304 302
f 323 303 301
f 299 323 301
f 322 299 297
f 264 322 296
f 294 264 296
f 771 821 166
f 262 294 293
f 288 262 289
f 286 288 289
f 349 286 289
f 319 349 283
f 310 319 283
f 261 310 281
f 260 261 278
f 309 260 278
f 769 832 815
f 308 309 276
f 843 837 814
f 307 308 276
f 817 843 816
f 269 307 273
f 862 817 818
f 257 269 271
f 316 257 271
f 326 316 267
f 325 326 267
f 830 834 771
f 315 325 265
f 825 830 771
f 305 315 266
f 823 825 824
f 306 305 268
f 258 306 268
f 274 258 270
f 317 274 272
f 259 317 275
f 847 828 832
f 318 259 275
f 845 877 832
f 837 845 769
f 279 318 277
f 329 279 277
f 843 838 837
f 817 844 843
f 348 329 280
f 826 862 818
f 285 348 282
f 848 826 818
f 820 848 818
f 350 285 282
f 895 892 850
f 291 350 287
f 332 291 290
f 263 332 292
f 867 830 825
f 313 263 292
f 831 867 825
f 906 831 825
f 836 906 823
f 314 313 295
f 905 836 823
f 853 905 823
f 354 853 823
f 324 314 298
f 311 324 300
f 865 835 833
f 829 894 819
f 890 829 819
f 304 311 302
f 159 832 147
f 558 417 418
f 148 770 833
f 503 415 557
f 509 434 508
f 449 493 543
f 153 164 163
f 521 460 520
f 154 168 167
f 553 554 563
f 496 553 563
f 499 496 551
f 152 162 165
f 518 499 550
f 488 518 547
f 95 161 147
f 116 95 147
f 546 488 547
f 514 546 547
f 113 155 159
f 498 514 544
f 513 498 544
f 561 513 542
f 114 160 158
f 560 561 540
f 115 160 114
f 491 560 540
f 497 491 538
f 510 497 538
f 490 510 536
f 127 166 153
f 489 490 536
f 505 489 534
f 504 505 534
f 558 504 531
f 144 165 156
f 502 558 531
f 501 502 528
f 143 148 152
f 555 501 526
f 333 335 484
f 556 555 523
f 334 333 481
f 500 556 523
f 557 500 525
f 336 334 480
f 503 557 527
f 338 336 482
f 559 503 527
f 340 338 483
f 506 559 530
f 341 340 483
f 507 506 532
f 339 341 485
f 508 507 532
f 337 339 485
f 509 508 533
f 475 509 535
f 335 337 484
f 511 475 537
f 67 70 335
f 492 511 537
f 512 492 539
f 68 67 334
f 562 512 539
f 71 68 334
f 543 562 539
f 515 543 541
f 75 71 338
f 516 515 541
f 78 75 340
f 517 516 545
f 79 78 341
f 519 517 545
f 520 519 548
f 74 79 339
f 521 520 549
f 70 74 337
f 522 521 549
f 554 522 552
f 70 68 71
f 75 78 71
f 78 79 71
f 79 74 71
f 449 515 466
f 74 70 71
f 748 749 768
f 749 794 767
f 794 746 741
f 746 792 741
f 792 742 738
f 742 739 738
f 739 788 765
f 788 787 736
f 787 785 736
f 785 783 763
f 558 416 463
f 783 733 731
f 733 774 731
f 774 730 729
f 730 778 729
f 778 750 760
f 750 727 758
f 727 724 758
f 488 454 420
f 724 776 756
f 776 722 756
f 722 772 754
f 772 720 755
f 720 721 755
f 460 468 462
f 721 723 757
f 478 460 459
f 723 725 759
f 477 478 459
f 725 726 759
f 455 477 459
f 726 777 761
f 487 455 457
f 777 728 761
f 466 487 453
f 728 751 732
f 449 466 450
f 751 779 732
f 445 449 450
f 779 781 762
f 493 445 443
f 781 734 764
f 465 493 441
f 734 735 764
f 472 465 441
f 735 784 752
f 434 472 438
f 784 786 737
f 432 434 435
f 786 789 737
f 429 432 435
f 789 740 743
f 471 429 431
f 740 744 743
f 464 471 428
f 744 747 745
f 415 464 428
f 747 793 753
f 422 415 426
f 793 748 753
f 469 422 424
f 413 469 424
f 414 413 423
f 805 813 810
f 416 414 423
f 463 416 425
f 782 805 806
f 470 463 425
f 417 470 427
f 773 782 803
f 418 417 427
f 486 418 430
f 797 773 800
f 437 486 433
f 795 797 800
f 439 437 436
f 473 439 436
f 775 795 796
f 419 473 440
f 446 419 440
f 799 775 796
f 448 446 444
f 780 799 798
f 494 448 447
f 454 494 447
f 807 780 802
f 420 454 452
f 476 420 452
f 495 476 456
f 790 807 804
f 474 495 456
f 791 790 809
f 467 474 458
f 813 791 812
f 421 467 458
f 813 749 748
f 468 421 462
f 792 813 805
f 805 742 792
f 805 739 742
f 739 805 788
f 787 805 782
f 782 733 783
f 733 782 773
f 733 773 774
f 773 730 774
f 613 688 578
f 778 773 750
f 683 612 609
f 683 613 612
f 773 727 750
f 727 773 797
f 776 797 795
f 795 722 776
f 722 795 772
f 795 720 772
f 720 795 775
f 775 721 720
f 775 723 721
f 725 775 799
f 799 726 725
f 726 799 777
f 728 799 780
f 649 695 621
f 781 780 807
f 807 734 781
f 807 735 734
f 628 607 570
f 789 807 790
f 626 628 570
f 625 626 602
f 740 790 744
f 569 625 602
f 744 790 791
f 744 791 747
f 624 569 602
f 791 793 747
f 623 624 598
f 791 813 748
f 658 652 676
f 567 623 598
f 652 651 719
f 635 567 595
f 651 703 719
f 566 635 592
f 703 701 673
f 656 566 589
f 701 699 673
f 619 656 587
f 699 648 697
f 617 619 585
f 648 698 697
f 634 617 585
f 565 634 585
f 698 696 667
f 633 565 582
f 696 693 667
f 578 633 582
f 693 692 666
f 613 578 579
f 612 613 577
f 692 644 666
f 609 612 577
f 644 655 714
f 642 609 575
f 655 639 714
f 630 642 572
f 639 690 712
f 564 630 572
f 690 688 662
f 629 564 572
f 688 686 709
f 608 629 571
f 610 608 571
f 686 685 660
f 631 610 573
f 685 683 660
f 611 631 574
f 683 681 706
f 614 611 574
f 681 679 705
f 615 614 576
f 679 680 705
f 653 615 580
f 680 682 707
f 616 653 580
f 682 684 661
f 618 616 583
f 684 632 708
f 640 618 584
f 632 687 710
f 647 640 586
f 687 689 663
f 620 647 588
f 689 691 713
f 568 620 590
f 691 643 665
f 621 568 591
f 643 654 715
f 622 621 594
f 654 645 715
f 650 622 596
f 645 646 716
f 636 650 597
f 646 694 718
f 637 636 600
f 694 695 670
f 627 637 601
f 638 627 603
f 695 649 671
f 606 638 604
f 649 657 672
f 607 606 604
f 657 700 674
f 700 641 674
f 641 702 675
f 702 704 677
f 704 658 678
f 620 568 695
f 607 625 652
f 614 615 689
f 611 614 687
f 566 656 692
f 642 679 681
f 253 185 254
f 251 185 253
f 250 194 251
f 970 950 964
f 248 194 250
f 197 194 248
f 182 194 197
f 245 182 197
f 193 182 245
f 242 182 193
f 240 180 242
f 239 180 240
f 237 180 239
f 235 176 237
f 233 176 235
f 232 176 233
f 230 176 232
f 190 176 230
f 226 169 190
f 198 169 226
f 224 169 198
f 223 169 224
f 225 171 223
f 227 171 225
f 228 171 227
f 229 174 228
f 191 174 229
f 231 174 191
f 192 174 231
f 234 179 192
f 236 179 234
f 212 181 238
f 241 181 212
f 243 184 241
f 244 184 243
f 247 184 246
f 189 184 247
f 249 189 247
f 252 189 249
f 195 189 252
f 255 188 195
f 256 188 255
f 254 185 256
f 991 974 973
f 972 953 959
f 990 972 959
f 991 973 990
f 971 961 970
f 970 961 950
f 980 967 969
f 983 982 947
f 352 371 314
f 975 960 953
f 974 953 973
f 991 953 974
f 953 952 959
f 342 325 315
f 961 958 950
f 346 261 260
f 956 939 962
f 373 407 311
f 962 948 955
f 959 951 961
f 961 891 958
f 958 891 950
f 950 940 963
f 303 323 372
f 322 401 299
f 963 932 956
f 288 331 320
f 319 347 353
f 956 912 939
f 307 312 357
f 257 374 312
f 955 936 967
f 967 930 957
f 258 327 306
f 317 345 274
f 259 328 410
f 957 930 969
f 969 937 946
f 946 937 982
f 982 937 931
f 982 931 947
f 976 941 993
f 993 941 954
f 975 915 960
f 960 915 953
f 953 915 952
f 959 938 951
f 951 938 961
f 930 883 933
f 937 927 931
f 491 419 560
f 502 416 558
f 934 903 941
f 500 469 556
f 422 500 415
f 543 493 562
f 543 515 449
f 939 926 935
f 936 935 879
f 936 879 930
f 933 887 937
f 934 900 903
f 941 904 929
f 478 520 460
f 477 455 520
f 506 429 559
f 938 917 914
f 828 827 890
f 437 510 486
f 439 473 491
f 448 513 446
f 476 495 488
f 474 496 499
f 837 858 845
f 842 858 837
f 496 421 554
f 837 840 842
f 839 857 840
f 843 875 838
f 844 859 843
f 817 846 844
f 862 884 817
f 820 892 849
f 906 867 831
f 354 866 853
f 835 901 822
f 833 863 865
f 894 863 833
f 857 858 842
f 634 639 617
f 564 629 679
f 849 892 848
f 638 658 704
f 834 852 864
f 830 902 852
f 830 911 902
f 836 905 906
f 863 893 865
f 827 886 890
f 858 877 845
f 838 869 854
f 702 641 637
f 700 636 641
f 645 640 646
f 852 897 864
f 653 691 615
f 610 632 684
f 680 629 682
f 911 903 902
f 685 613 683
f 655 644 617
f 866 905 853
f 698 567 635
f 701 569 624
f 701 625 569
f 865 893 835
f 848 892 888
f 793 791 748
f 789 790 740
f 728 780 751
f 777 799 728
f 723 775 725
f 829 914 893
f 727 797 724
f 827 847 885
f 847 880 881
f 794 813 746
f 858 876 909
f 871 926 870
f 838 926 871
f 859 860 878
f 860 882 879
f 882 884 883
f 895 931 908
f 897 852 898
f 852 902 900
f 867 906 911
f 901 915 866
f 901 899 915
f 835 893 899
f 893 910 899
f 70 67 68
f 907 909 876
f 878 879 926
f 915 929 866
f 136 134 157
f 148 138 147
f 142 149 148
f 945 954 975
f 992 976 993
f 163 164 821
f 986 969 982
f 157 135 814
f 148 147 819
f 978 955 967
f 979 962 955
f 977 962 979
f 830 852 834
f 950 963 977
f 970 964 968
f 880 932 881
f 877 932 880
f 165 851 354
f 884 887 883
f 148 819 770
f 911 904 916
f 93 131 61
f 905 929 904
f 866 929 905
f 66 103 113
f 117 95 116
f 120 109 118
f 93 57 131
f 965 922 966
f 966 924 945
f 96 119 115
f 945 924 992
f 136 105 64
f 992 924 984
f 984 925 986
f 986 923 981
f 64 111 134
f 981 920 949
f 99 126 128
f 128 144 130
f 61 131 145
f 949 918 942
f 80 61 145
f 133 127 153
f 942 919 943
f 97 121 141
f 943 919 944
f 64 134 136
f 122 118 140
f 944 921 965
f 886 940 891
f 885 940 886
f 881 932 885
f 913 932 877
f 912 932 913
f 879 935 926
f 24 95 117
f 887 908 937
f 889 908 887
f 898 934 931
f 900 934 898
f 911 941 903
f 904 941 911
f 916 904 911
f 899 952 928
f 910 952 899
f 103 136 113
f 107 49 114
f 73 121 72
f 110 56 127
f 56 100 127
f 18 24 3
f 54 99 128
f 65 38 106
f 62 93 61
f 62 57 93
f 983 984 986
f 47 38 65
f 81 103 66
f 24 66 95
f 950 979 943
f 949 942 979
f 967 949 978
f 969 986 981
f 976 992 984
f 993 945 992
f 991 965 966
f 970 944 965
f 103 64 105
f 52 110 98
f 102 80 101
f 54 128 57
f 104 102 101
f 73 98 110
f 96 108 49
f 94 49 107
f 989 987 965
f 990 989 965
f 101 80 132
f 991 990 965
f 991 966 945
f 975 991 945
f 96 97 119
f 993 954 945
f 103 105 136
f 976 984 985
f 947 985 984
f 947 984 983
f 988 983 986
f 988 986 982
f 980 969 981
f 980 981 949
f 967 980 949
f 978 949 955
f 955 949 979
f 977 979 950
f 950 943 968
f 968 943 944
f 968 944 970
f 987 970 965
f 123 59 120
f 59 109 120
f 50 117 109
f 877 912 913
f 49 23 96
f 69 97 96
f 73 52 98
f 56 104 100
f 888 889 887
f 873 926 907
f 893 914 917
f 902 903 900
f 852 900 898
f 897 898 931
f 892 908 889
f 848 888 887
f 860 879 878
f 859 878 926
f 868 869 907
f 847 881 885
f 827 885 886
f 890 891 914
f 905 904 906
f 897 931 895
f 895 908 892
f 848 887 884
f 54 39 99
f 838 871 869
f 858 909 877
f 77 76 60
f 886 891 890
f 894 829 893
f 863 894 893
f 901 835 899
f 864 897 896
f 896 897 895
f 838 859 926
f 847 877 880
f 830 867 911
f 821 864 896
f 850 896 895
f 862 826 884
f 857 868 858
f 8 35 7
f 35 3 7
f 3 40 18
f 821 896 850
f 40 12 18
f 817 861 846
f 846 860 844
f 843 859 841
f 841 875 843
f 855 856 839
f 12 41 1
f 952 910 938
f 41 2 1
f 927 908 931
f 45 5 15
f 45 10 5
f 45 36 10
f 915 928 952
f 36 16 33
f 36 37 16
f 37 6 16
f 37 30 6
f 37 44 30
f 44 4 30
f 44 35 4
f 940 885 932
f 4 35 8
f 938 914 891
f 34 3 35
f 975 929 915
f 954 941 929
f 34 40 3
f 947 931 985
f 930 933 937
f 948 935 955
f 956 932 912
f 40 41 12
f 43 2 41
f 43 15 2
f 43 45 15
f 967 957 969
f 962 939 948
f 46 36 45
f 46 37 36
f 988 982 983
f 963 956 977
f 989 961 987
f 973 973 972
f 975 953 991
f 85 83 34
f 969 946 982
f 977 956 962
f 83 82 40
f 964 950 968
f 987 971 970
f 82 84 43
f 84 87 45
f 87 88 46
f 88 92 37
f 92 91 37
f 91 90 37
f 90 89 37
f 89 86 44
f 86 85 35
f 12 14 18
f 12 1 13
f 2 25 1
f 174 192 179
f 5 9 15
f 236 238 181
f 36 33 10
f 6 17 16
f 246 184 244
f 189 195 188
f 186 185 177
f 177 176 175
f 175 176 172
f 172 169 170
f 17 11 16
f 170 169 173
f 173 171 178
f 178 179 183
f 183 184 187
f 14 21 18
f 12 21 14
f 13 20 12
f 1 20 13
f 25 23 1
f 187 188 186
f 9 27 15
f 220 251 222
f 33 31 10
f 218 248 220
f 16 11 33
f 17 32 11
f 216 245 218
f 214 242 216
f 8 28 4
f 211 239 214
f 24 50 3
f 21 24 18
f 209 235 211
f 12 20 21
f 196 233 209
f 205 230 196
f 2 26 25
f 15 26 2
f 27 26 15
f 203 226 205
f 10 31 5
f 201 224 203
f 199 223 201
f 6 32 17
f 200 225 199
f 55 32 6
f 202 227 200
f 4 19 30
f 4 29 19
f 28 29 4
f 204 228 202
f 7 42 59
f 3 50 7
f 206 231 204
f 207 192 206
f 21 103 24
f 20 103 21
f 208 236 207
f 38 48 20
f 22 38 20
f 1 38 22
f 23 38 1
f 210 212 208
f 26 97 25
f 213 243 210
f 5 52 9
f 31 53 5
f 215 244 213
f 33 102 31
f 33 58 102
f 11 58 33
f 11 62 58
f 217 249 215
f 57 62 11
f 32 57 11
f 219 195 217
f 19 39 30
f 29 77 39
f 221 255 219
f 28 76 29
f 8 59 28
f 50 42 51
f 222 254 221
f 103 81 24
f 369 314 371
f 369 321 314
f 47 63 103
f 366 332 321
f 38 47 48
f 365 332 366
f 395 332 365
f 351 350 395
f 25 97 23
f 363 350 351
f 26 27 97
f 390 350 363
f 390 348 350
f 330 348 390
f 361 329 330
f 5 53 52
f 328 318 411
f 102 56 53
f 327 274 345
f 409 306 327
f 55 54 57
f 39 54 55
f 315 344 408
f 342 315 408
f 355 325 342
f 59 123 76
f 343 326 355
f 42 109 59
f 374 316 343
f 24 117 50
f 356 312 374
f 81 66 24
f 359 260 358
f 260 357 358
f 360 260 359
f 346 260 360
f 97 69 23
f 362 349 353
f 73 72 27
f 52 73 27
f 364 320 331
f 53 56 52
f 102 104 56
f 367 294 412
f 61 80 58
f 368 299 401
f 370 299 368
f 372 299 370
f 372 323 299
f 373 311 372
f 405 407 406
f 77 60 39
f 122 142 150
f 140 139 148
f 122 140 149
f 403 369 405
f 138 137 147
f 109 117 147
f 137 109 147
f 118 109 137
f 117 116 147
f 95 113 161
f 400 321 403
f 398 366 400
f 396 395 398
f 106 114 158
f 393 351 396
f 392 363 393
f 141 121 163
f 97 141 163
f 121 124 153
f 389 361 392
f 386 411 389
f 132 80 154
f 384 410 386
f 145 131 156
f 383 345 384
f 128 126 165
f 126 152 165
f 381 327 383
f 126 125 152
f 125 76 151
f 378 344 381
f 376 408 378
f 375 355 376
f 112 106 135
f 377 374 375
f 379 356 377
f 380 356 379
f 382 358 380
f 385 360 382
f 387 347 385
f 388 353 387
f 391 362 388
f 394 364 391
f 95 66 113
f 397 412 394
f 399 367 397
f 65 106 112
f 402 368 399
f 404 372 402
f 406 373 404
f 372 311 304
f 303 372 304
f 264 367 322
f 367 401 322
f 294 367 264
f 364 294 262
f 320 364 262
f 286 331 288
f 349 331 286
f 310 347 319
f 76 122 151
f 261 347 310
f 309 357 260
f 308 357 309
f 307 357 308
f 269 312 307
f 257 312 269
f 38 114 106
f 325 355 326
f 49 108 115
f 305 344 315
f 306 344 305
f 73 110 124
f 409 344 306
f 100 104 127
f 104 129 127
f 104 101 129
f 318 328 259
f 279 361 318
f 57 128 130
f 131 57 130
f 329 361 279
f 99 39 126
f 348 330 329
f 39 60 126
f 285 350 348
f 60 76 125
f 123 122 76
f 291 332 350
f 147 832 819
f 815 832 159
f 263 321 332
f 313 321 263
f 155 815 159
f 314 321 313
f 157 814 769
f 311 407 324
f 135 816 814
f 158 816 135
f 158 818 816
f 160 818 158
f 301 303 302
f 146 818 160
f 163 850 818
f 297 299 301
f 163 821 850
f 296 322 297
f 166 821 164
f 293 294 296
f 167 771 166
f 168 824 771
f 289 262 293
f 288 320 262
f 354 824 145
f 284 349 289
f 165 354 156
f 283 349 284
f 162 833 851
f 281 310 283
f 278 261 281
f 832 828 819
f 276 309 278
f 814 837 769
f 816 843 814
f 273 307 276
f 818 817 816
f 271 269 273
f 850 820 818
f 267 316 271
f 265 325 267
f 771 834 821
f 266 315 265
f 824 825 771
f 268 305 266
f 354 823 824
f 851 822 354
f 270 258 268
f 272 274 270
f 770 819 833
f 828 890 819
f 275 317 272
f 828 847 827
f 277 318 275
f 769 845 832
f 280 329 277
f 282 348 280
f 820 849 848
f 287 350 282
f 850 892 820
f 834 864 821
f 290 291 287
f 292 332 290
f 295 313 292
f 823 906 825
f 298 314 295
f 822 901 354
f 300 324 298
f 851 835 822
f 833 835 851
f 819 894 833
f 302 311 300
f 553 496 554
f 518 495 499
f 488 495 518
f 155 157 769
f 546 454 488
f 514 454 546
f 514 494 454
f 498 494 514
f 513 494 498
f 561 446 513
f 561 560 446
f 146 163 818
f 497 439 491
f 510 439 497
f 490 486 510
f 489 486 490
f 505 418 489
f 504 418 505
f 504 558 418
f 167 168 771
f 168 145 824
f 501 416 502
f 501 555 416
f 145 156 354
f 165 162 851
f 557 415 500
f 162 148 833
f 503 464 415
f 559 464 503
f 147 161 159
f 507 432 506
f 508 432 507
f 508 434 432
f 511 493 475
f 492 493 511
f 512 493 492
f 562 493 512
f 516 487 515
f 517 455 516
f 519 455 517
f 153 166 164
f 519 520 455
f 522 468 521
f 554 468 522
f 154 145 168
f 551 496 563
f 550 499 551
f 152 148 162
f 150 142 148
f 547 518 550
f 113 159 161
f 544 514 547
f 113 136 155
f 136 157 155
f 134 112 157
f 542 513 544
f 112 135 157
f 106 158 135
f 540 561 542
f 115 146 160
f 115 119 146
f 538 491 540
f 119 163 146
f 119 97 163
f 121 153 163
f 124 110 153
f 110 133 153
f 536 510 538
f 127 167 166
f 127 129 167
f 534 489 536
f 129 101 167
f 101 132 167
f 132 154 167
f 80 145 154
f 531 504 534
f 131 130 156
f 130 144 156
f 144 128 165
f 528 502 531
f 125 151 152
f 526 501 528
f 151 143 152
f 523 555 526
f 481 333 484
f 479 334 481
f 524 500 523
f 525 500 524
f 480 334 479
f 527 557 525
f 482 336 480
f 529 559 527
f 483 338 482
f 530 559 529
f 532 506 530
f 485 341 483
f 533 508 532
f 535 509 533
f 484 337 485
f 537 475 535
f 333 67 335
f 539 492 537
f 334 67 333
f 336 71 334
f 541 543 539
f 338 71 336
f 340 75 338
f 545 516 541
f 341 78 340
f 339 79 341
f 548 519 545
f 549 520 548
f 337 74 339
f 335 70 337
f 552 522 549
f 563 554 552
f 460 521 468
f 477 520 478
f 487 516 455
f 466 515 487
f 445 493 449
f 768 749 767
f 475 493 465
f 472 475 465
f 509 475 472
f 434 509 472
f 767 794 741
f 429 506 432
f 741 792 738
f 471 559 429
f 464 559 471
f 738 739 765
f 469 500 422
f 413 556 469
f 765 788 736
f 413 555 556
f 414 555 413
f 416 555 414
f 736 785 763
f 470 558 463
f 417 558 470
f 763 783 731
f 486 489 418
f 731 774 729
f 439 510 437
f 729 778 760
f 419 491 473
f 446 560 419
f 760 750 758
f 494 513 448
f 758 724 756
f 476 488 420
f 474 499 495
f 756 722 754
f 467 496 474
f 754 772 755
f 421 496 467
f 468 554 421
f 461 460 462
f 755 721 757
f 459 460 461
f 757 723 759
f 457 455 459
f 759 726 761
f 453 487 457
f 761 728 732
f 451 466 453
f 450 466 451
f 732 779 762
f 443 445 450
f 441 493 443
f 762 781 764
f 764 735 752
f 438 472 441
f 752 784 737
f 435 434 438
f 737 789 766
f 431 429 435
f 766 789 743
f 428 471 431
f 743 744 745
f 745 747 753
f 426 415 428
f 424 422 426
f 753 748 768
f 423 413 424
f 810 813 812
f 808 805 810
f 425 416 423
f 806 805 808
f 427 470 425
f 803 782 806
f 430 418 427
f 801 773 803
f 800 773 801
f 433 486 430
f 436 437 433
f 796 795 800
f 440 473 436
f 442 446 440
f 444 446 442
f 798 799 796
f 447 448 444
f 802 780 798
f 452 454 447
f 804 807 802
f 456 476 452
f 809 790 804
f 458 474 456
f 811 791 809
f 812 791 811
f 462 421 458
f 794 749 813
f 628 625 607
f 626 625 628
f 792 746 813
f 623 648 624
f 623 567 648
f 787 788 805
f 566 693 635
f 785 787 782
f 783 785 782
f 617 644 619
f 565 639 634
f 633 688 565
f 578 688 633
f 778 730 773
f 642 683 609
f 630 679 642
f 564 679 630
f 776 724 797
f 608 682 629
f 610 682 608
f 631 632 610
f 611 632 631
f 616 643 653
f 618 643 616
f 640 643 618
f 647 646 640
f 620 694 647
f 621 695 568
f 779 751 780
f 622 649 621
f 622 650 649
f 781 779 780
f 637 641 636
f 627 704 637
f 638 704 627
f 784 735 807
f 606 652 638
f 786 784 807
f 607 652 606
f 789 786 807
f 602 626 570
f 598 624 602
f 595 567 598
f 676 652 719
f 592 635 595
f 589 566 592
f 719 703 673
f 587 656 589
f 673 699 697
f 585 619 587
f 697 698 669
f 582 565 585
f 669 698 667
f 579 578 582
f 667 693 666
f 577 613 579
f 575 609 577
f 666 644 714
f 714 639 712
f 572 642 575
f 712 690 662
f 571 629 572
f 662 688 709
f 573 610 571
f 709 686 660
f 574 631 573
f 660 683 706
f 576 614 574
f 706 681 705
f 580 615 576
f 705 680 659
f 659 680 707
f 581 616 580
f 707 682 661
f 583 616 581
f 661 684 708
f 584 618 583
f 708 632 710
f 586 640 584
f 710 687 711
f 711 687 663
f 588 647 586
f 663 689 713
f 590 620 588
f 713 691 664
f 591 568 590
f 664 691 665
f 593 621 591
f 594 621 593
f 665 643 715
f 596 622 594
f 597 650 596
f 715 645 716
f 599 636 597
f 716 646 717
f 717 646 718
f 600 636 599
f 601 637 600
f 718 694 668
f 668 694 670
f 603 627 601
f 670 695 671
f 604 638 603
f 671 649 672
f 570 607 605
f 605 607 604
f 672 657 674
f 702 637 704
f 674 641 675
f 650 636 700
f 675 702 677
f 657 650 700
f 649 650 657
f 677 704 678
f 678 658 676
f 694 620 695
f 658 638 652
f 646 647 694
f 652 625 651
f 651 625 703
f 654 643 645
f 643 640 645
f 703 625 701
f 691 653 643
f 701 624 699
f 689 615 691
f 699 624 648
f 687 614 689
f 648 567 698
f 632 611 687
f 698 635 696
f 682 610 684
f 696 635 693
f 693 566 692
f 679 629 680
f 656 619 644
f 692 656 644
f 683 642 681
f 655 617 639
f 686 613 685
f 639 565 690
f 688 613 686
f 565 688 690
v -0.45850 0.37950 -0.09600
v -0.45850 0.37950 -0.08300
v -0.45850 0.44050 -0.09600
v -0.45850 0.44050 -0.08300
v -0.19683 0.37950 -0.10467
v -0.18710 0.37950 -0.06820
v -0.19683 0.44050 -0.10467
v -0.18710 0.44050 -0.06820
v -0.11245 0.00781 -0.09952
v -0.13147 0.00202 -0.05472
v -0.13245 0.00502 -0.00268
v -0.12590 0.00882 0.06141
v -0.11050 0.00334 0.10326
v -0.11150 0.02450 -0.10250
v -0.13742 0.02450 -0.05875
v -0.14975 0.02450 -0.01075
v -0.13930 0.02450 0.05760
v -0.11110 0.02450 0.10440
v -0.15000 0.37950 -0.05925
v -0.15000 0.44050 -0.05925
v -0.05628 -0.12030 -0.04733
v -0.07132 -0.11984 -0.00305
v -0.05723 -0.12126 0.04549
v -0.06014 -0.06182 -0.05598
v -0.08178 -0.06277 0.00108
v -0.06394 -0.06361 0.05110
v -0.06145 0.00903 -0.11984
v -0.06838 -0.00326 -0.06532
v -0.09048 -0.00887 0.00761
v -0.07792 -0.00664 0.05342
v -0.07562 0.00158 0.11788
v -0.04800 0.00250 0.14800
v -0.07333 0.02450 -0.13117
v -0.07835 0.02450 0.12692
v -0.09650 0.37950 -0.10400
v -0.09650 0.37950 -0.07500
v -0.06703 0.41345 0.12138
v -0.09650 0.44050 -0.10400
v -0.09650 0.44050 -0.07500
v -0.01288 -0.12506 -0.06625
v -0.01784 -0.13050 -0.00455
v -0.01269 -0.12531 0.06566
v -0.01265 -0.06534 -0.08084
v -0.01042 -0.05988 0.08161
v -0.00839 0.00217 -0.15205
v -0.01094 -0.00244 -0.12052
v -0.03224 -0.01515 -0.08423
v -0.00767 -0.01458 0.08535
v -0.01209 0.00104 0.10128
v -0.01665 0.00688 0.15102
v -0.00983 0.02450 -0.15150
v -0.01070 0.02450 -0.14680
v -0.01150 0.02450 0.15040
v -0.00862 0.41243 0.13060
v 0.04435 -0.12301 -0.05479
v 0.05770 -0.12663 -0.00312
v 0.04529 -0.12337 0.05367
v 0.05052 -0.06214 -0.06413
v 0.05058 -0.06513 0.06361
v 0.02379 0.00374 -0.15119
v 0.04345 0.00481 -0.11931
v 0.05391 -0.00637 -0.07219
v 0.05525 -0.02035 0.07237
v 0.04174 0.00180 0.11381
v 0.03330 0.00740 0.14947
v 0.02017 0.02450 -0.15167
v 0.04590 0.02450 -0.14260
v 0.06390 0.02450 0.13660
v 0.02950 0.02450 0.14900
v 0.05089 0.41387 0.12130
v 0.07717 -0.11033 -0.03183
v 0.08099 -0.11162 -0.00111
v 0.07767 -0.11033 0.03050
v 0.07700 -0.05970 -0.03350
v 0.08245 -0.06251 0.00075
v 0.07817 -0.05337 0.03204
v 0.10313 0.00807 -0.10641
v 0.10279 -0.00034 -0.06104
v 0.10025 -0.00391 0.00469
v 0.09521 0.00107 0.05340
v 0.09512 0.00152 0.11054
v 0.09810 0.02450 -0.11440
v 0.12883 0.02450 -0.07700
v 0.12950 0.02450 0.07900
v 0.09696 0.02450 0.11454
v 0.14179 0.00059 -0.05000
v 0.14918 0.00528 -0.00384
v 0.14289 0.00602 0.05242
v 0.14083 0.02450 -0.05267
v 0.15050 0.02450 -0.01075
v 0.14200 0.02450 0.05225
v 0.13950 0.37950 -0.05600
v 0.13950 0.44050 -0.05600
v 0.30050 0.37950 -0.10017
v 0.29806 0.37950 -0.07478
v 0.28850 0.37950 -0.02900
v 0.29703 0.45343 -0.10287
v 0.29737 0.45490 -0.07007
v 0.28850 0.44050 -0.02900
v 0.29472 0.49972 -0.10456
v 0.29759 0.49832 -0.06718
v 0.34750 0.37750 0.32100
v 0.31800 0.37950 -0.09600
v 0.31917 0.37950 -0.08033
v 0.34750 0.38350 0.32100
v 0.32113 0.45337 -0.09925
v 0.32315 0.45610 -0.07450
v 0.35236 0.46102 0.01990
v 0.34575 0.47500 0.04367
v 0.34750 0.44350 0.32100
v 0.32130 0.49950 -0.10120
v 0.32375 0.49806 -0.07300
v 0.35657 0.50323 0.01787
v 0.35450 0.49950 0.04800
v 0.42850 0.37750 -0.06700
v 0.41900 0.38150 -0.05500
v 0.40950 0.37950 -0.01600
v 0.42217 0.44250 -0.05900
v 0.38297 0.47174 0.00282
v 0.40768 0.46714 0.06127
v 0.40050 0.46040 0.11350
v 0.42250 0.47850 0.17792
v 0.37700 0.49800 0.00650
v 0.39510 0.50350 0.06020
v 0.40850 0.50436 0.11529
v 0.46442 0.43050 0.18975
v 0.46430 0.43050 0.21060
v 0.44790 0.46890 0.12200
v 0.46141 0.46253 0.18207
v 0.46439 0.46250 0.21360
v 0.44150 0.50250 0.12550
v 0.45441 0.50297 0.17781
v 0.46440 0.50380 0.21550
v 0.52350 0.37950 -0.01450
v 0.52350 0.44050 -0.01450
v 0.55950 0.37750 -0.06700
v 0.55950 0.37750 0.32100
v 0.56450 0.39572 -0.06700
v 0.56450 0.39572 0.32100
v 0.56233 0.44183 -0.06700
v 0.56233 0.44183 0.32100
usemtl m001
f 1002 1021 1003
f 1006 1023 1024
f 1024 1023 1041
f 1055 1051 1036
f 1021 1017 1018
f 1056 1052 1073
f 1023 1019 1037
f 1052 1069 1073
f 1014 1033 1034
f 1072 1080 1081
f 1035 1016 1034
f 1041 1056 1057
f 1037 1052 1056
f 1048 1064 1065
f 1036 1017 1021
f 1040 1021 1020
f 1071 1055 1070
f 1071 1076 1082
f 1039 1045 1044
f 1064 1067 1068
f 1014 1017 1036
f 1050 1052 1037
f 1066 1069 1052
f 1065 1068 1069
f 1037 1019 1016
f 1019 1018 1015
f 1018 1017 1014
f 1057 1058 1043
f 1036 1051 1048
f 1051 1067 1064
f 1073 1068 1072
f 1020 1038 1039
f 1072 1071 1079
f 1054 1039 1053
f 1005 1023 1006
f 1024 1042 1043
f 1010 1005 1004
f 1006 1005 1010
f 1027 1024 1006
f 1046 1043 1024
f 1058 1043 1046
f 1057 1058 1062
f 1078 1074 1057
f 1081 1073 1077
f 1077 1073 1074
f 1080 1081 1084
f 1082 1079 1080
f 1076 1071 1079
f 1075 1070 1071
f 1054 1070 1075
f 1053 1054 1060
f 1044 1038 1053
f 1020 1039 1045
f 1045 1039 1038
f 1002 1020 1026
f 1003 1002 1007
f 1004 1003 1008
f 1038 1053 1054
f 1039 1038 1054
f 1045 1039 1054
f 1054 1053 1059
f 1021 1022 1004
f 1055 1040 1039
f 1024 1006 1011
f 1068 1067 1071
f 1067 1051 1071
f 1061 1057 1078
f 1071 1079 1082
f 1040 1039 1020
f 1033 1048 1034
f 1015 1014 1034
f 1016 1015 1034
f 1019 1023 1022
f 1004 1022 1005
f 1022 1023 1005
f 1049 1065 1050
f 1049 1035 1034
f 1048 1065 1049
f 1042 1024 1041
f 1022 1021 1018
f 1034 1048 1049
f 1034 1050 1035
f 1049 1050 1034
f 1069 1068 1073
f 1049 1050 1035
f 1042 1041 1057
f 1040 1036 1021
f 1070 1055 1054
f 1038 1039 1044
f 1065 1064 1068
f 1033 1014 1036
f 1035 1050 1037
f 1050 1066 1052
f 1066 1065 1069
f 1035 1037 1016
f 1016 1019 1015
f 1015 1018 1014
f 1042 1057 1043
f 1033 1036 1048
f 1056 1041 1037
f 1048 1051 1064
f 1073 1072 1081
f 1024 1043 1025
f 1080 1072 1079
f 1038 1053 1039
f 1009 1010 1004
f 1011 1006 1010
f 1011 1027 1006
f 1027 1046 1024
f 1062 1058 1046
f 1061 1057 1062
f 1084 1081 1077
f 1078 1077 1074
f 1083 1080 1084
f 1083 1082 1080
f 1082 1076 1079
f 1076 1075 1071
f 1060 1054 1075
f 1059 1053 1060
f 1059 1044 1053
f 1026 1020 1045
f 1044 1045 1038
f 1007 1002 1026
f 1008 1003 1007
f 1009 1004 1008
f 1060 1045 1054
f 1057 1056 1074
f 1074 1056 1073
f 1060 1054 1059
f 1003 1021 1004
f 1054 1055 1039
f 1027 1024 1011
f 1072 1068 1071
f 1071 1051 1055
f 1055 1036 1040
f 1023 1037 1041
f 1021 1002 1020
f 1018 1019 1022
f 1065 1066 1050
f 1118 1117 1107
f 1117 1106 1107
f 1125 1118 1115
f 1118 1107 1102
f 1107 1106 1102
f 1095 1130 1129
f 1130 1132 1131
f 1134 1103 1111
f 1132 1134 1133
f 1098 1109 1131
f 1134 1133 1111
f 1132 1131 1133
f 1095 1098 1132
f 1108 1109 1098
f 1129 1131 1109
f 997 996 994
f 1001 1000 996
f 995 994 998
f 1001 997 995
f 996 1000 998
f 1000 1001 999
f 999 1012 1013
f 1001 1013 1012
f 1012 1085 1086
f 1013 1086 1085
f 1092 1112 1111
f 1089 1110 1112
f 1088 1109 1110
f 1091 1111 1109
f 1085 1088 1089
f 1086 1091 1088
f 1086 1092 1091
f 1085 1089 1092
f 1110 1127 1128
f 1111 1128 1127
f 1032 1091 1090
f 1029 1088 1091
f 1028 1087 1088
f 1031 1090 1087
f 1105 1094 1091
f 1105 1100 1091
f 1104 1099 1090
f 1090 1099 1091
f 1094 1104 1093
f 1099 1100 1091
f 1105 1100 1099
f 1094 1105 1104
f 1094 1091 1100
f 1093 1090 1091
f 1087 1096 1088
f 1099 1096 1087
f 1096 1097 1088
f 1100 1097 1096
f 1091 1088 1097
f 1090 1087 1088
f 1123 1120 1119
f 1122 1119 1120
f 1126 1123 1122
f 1125 1122 1123
f 1125 1124 1118
f 1106 1116 1101
f 1117 1116 1106
f 1124 1117 1118
f 1116 1112 1101
f 1113 1112 1116
f 1121 1113 1117
f 1122 1121 1124
f 1113 1101 1112
f 1121 1114 1113
f 1122 1114 1121
f 1114 1102 1113
f 1122 1125 1115
f 1115 1118 1114
f 1114 1118 1102
f 1102 1106 1101
f 1108 1095 1129
f 1129 1130 1131
f 1132 1098 1131
f 1130 1095 1132
f 1095 1108 1098
f 1108 1129 1109
f 995 997 994
f 997 1001 996
f 999 995 998
f 999 1001 995
f 994 996 998
f 998 1000 999
f 1001 999 1013
f 999 1001 1012
f 1013 1012 1086
f 1012 1013 1085
f 1091 1092 1111
f 1092 1089 1112
f 1089 1088 1110
f 1088 1091 1109
f 1085 1086 1088
f 1086 1085 1092
f 1111 1112 1128
f 1112 1110 1128
f 1110 1109 1127
f 1109 1111 1127
f 1031 1032 1090
f 1032 1029 1091
f 1029 1028 1088
f 1028 1031 1087
f 1093 1104 1090
f 1104 1105 1099
f 1105 1094 1100
f 1094 1093 1091
f 1090 1099 1087
f 1099 1100 1096
f 1100 1091 1097
f 1091 1090 1088
f 1122 1123 1119
f 1123 1122 1120
f 1125 1126 1122
f 1126 1125 1123
f 1117 1113 1116
f 1124 1121 1117
f 1125 1122 1124
f 1113 1102 1101
f 1122 1115 1114
v -0.29252 -0.16162 -0.14392
v -0.30869 -0.16166 -0.08605
v -0.32044 -0.16166 0.00103
v -0.30815 -0.16166 0.08806
v -0.29230 -0.16068 0.14544
v -0.28879 -0.08493 -0.13186
v -0.29963 -0.09029 -0.07840
v -0.30644 -0.08896 0.00081
v -0.29940 -0.09033 0.08021
v -0.28833 -0.08417 0.13400
v -0.21997 -0.16123 -0.23560
v -0.26269 -0.16181 -0.18057
v -0.28267 -0.15133 0.13150
v -0.26107 -0.16229 0.18365
v -0.21843 -0.16112 0.23770
v -0.21437 -0.08963 -0.22639
v -0.24947 -0.08730 -0.17338
v -0.27698 -0.08242 -0.09890
v -0.28467 -0.06850 0.00367
v -0.27593 -0.08214 0.10259
v -0.24679 -0.08783 0.17811
v -0.21160 -0.08860 0.23067
v -0.21815 0.02887 -0.15157
v -0.23370 0.01481 -0.07890
v -0.24367 0.01269 0.00171
v -0.23304 0.01574 0.08388
v -0.21795 0.03103 0.15695
v -0.22886 0.04771 -0.16536
v -0.26965 0.04758 -0.08323
v -0.28242 0.04742 0.00092
v -0.26829 0.04771 0.08821
v -0.22596 0.04758 0.16954
v -0.11954 -0.15888 -0.30569
v -0.16118 -0.16199 -0.27594
v -0.15840 -0.16183 0.27818
v -0.11320 -0.15990 0.30940
v -0.15749 -0.08767 -0.26037
v -0.19600 -0.07175 -0.21075
v -0.19333 -0.07183 0.21367
v -0.15693 -0.08805 0.26118
v -0.14393 0.02954 -0.22679
v -0.15957 0.00833 -0.17441
v -0.15261 -0.00566 -0.08673
v -0.15752 -0.00500 0.00355
v -0.15461 -0.00548 0.09202
v -0.15823 0.00917 0.17752
v -0.14219 0.03037 0.22939
v -0.15812 0.04758 -0.23369
v -0.19450 0.04950 -0.20900
v -0.18417 0.04783 0.21533
v -0.15232 0.04768 0.23809
v -0.06393 -0.16153 -0.31558
v -0.10147 -0.16205 -0.29697
v -0.09380 -0.16101 0.30036
v -0.06427 -0.16200 0.31632
v -0.06021 -0.08785 -0.30790
v -0.07961 -0.08683 -0.28892
v -0.07559 -0.08768 0.29160
v -0.05697 -0.08507 0.31127
v -0.07106 0.01786 -0.24041
v -0.07030 -0.00580 -0.17129
v -0.10156 -0.00431 -0.11803
v -0.09860 -0.00460 0.12065
v -0.06814 -0.00576 0.17743
v -0.07152 0.01981 0.24302
v -0.07804 0.04758 -0.27115
v -0.07642 0.04758 0.27200
v 0.01669 -0.16182 -0.31933
v 0.01377 -0.16166 0.32053
v 0.01181 -0.09160 -0.31006
v 0.02429 -0.07943 -0.29151
v 0.02105 -0.08682 0.29621
v 0.01102 -0.08839 0.31341
v 0.01271 0.01546 -0.24667
v 0.02014 -0.00549 -0.16644
v 0.01999 -0.00586 0.17303
v 0.01212 0.01674 0.24867
v 0.00973 0.04758 -0.28215
v 0.01135 0.04758 0.28231
v 0.08872 -0.16182 -0.31158
v 0.12419 -0.16169 -0.29201
v 0.11798 -0.16170 0.29496
v 0.08431 -0.16216 0.31372
v 0.07893 -0.08464 -0.30729
v 0.11003 -0.08753 -0.28218
v 0.10935 -0.08732 0.28352
v 0.07293 -0.08464 0.30890
v 0.09603 0.02354 -0.23820
v 0.10870 -0.00232 -0.18140
v 0.12369 -0.00460 -0.09268
v 0.11987 -0.00458 0.09766
v 0.10910 -0.00144 0.18670
v 0.09523 0.02478 0.24027
v 0.09642 0.04758 -0.26546
v 0.09804 0.04758 0.26523
v 0.19232 -0.16186 -0.25617
v 0.22893 -0.15550 -0.21243
v 0.23158 -0.16404 0.21285
v 0.19203 -0.16145 0.25698
v 0.18596 -0.08850 -0.24394
v 0.22040 -0.08305 -0.19835
v 0.22057 -0.08459 0.20221
v 0.18348 -0.08854 0.24630
v 0.16057 0.03128 -0.22400
v 0.18870 0.01785 -0.16227
v 0.20629 -0.00025 -0.08294
v 0.19119 -0.00490 0.00303
v 0.20647 0.00191 0.09200
v 0.18665 0.01866 0.16698
v 0.15798 0.03083 0.22605
v 0.16560 0.04700 -0.22880
v 0.21868 0.04723 -0.17836
v 0.21208 0.04742 0.18608
v 0.16325 0.04700 0.23087
v 0.24320 -0.15946 -0.22026
v 0.27007 -0.16176 -0.17224
v 0.30672 -0.16196 -0.09136
v 0.31460 -0.16369 -0.00081
v 0.30547 -0.16213 0.09276
v 0.26932 -0.16165 0.17470
v 0.24177 -0.15903 0.22180
v 0.25980 -0.08831 -0.16415
v 0.29226 -0.08735 -0.08587
v 0.30478 -0.08708 0.00050
v 0.29165 -0.08766 0.08864
v 0.25939 -0.08853 0.16605
v 0.24150 0.01850 -0.14167
v 0.25334 0.02927 -0.07900
v 0.25823 0.02396 -0.00035
v 0.25320 0.02917 0.07902
v 0.24025 0.02237 0.14363
v 0.24600 0.04950 -0.14475
v 0.26965 0.04758 -0.08462
v 0.28273 0.04758 0.00269
v 0.26835 0.04758 0.09000
v 0.24175 0.04825 0.14950
v 0.32411 -0.15915 -0.05765
v 0.32695 -0.15969 -0.00090
v 0.32367 -0.15897 0.06097
usemtl m002
f 1272 1271 1251
f 1170 1189 1188
f 1221 1220 1206
f 1155 1154 1143
f 1144 1155 1143
f 1234 1235 1256
f 1192 1206 1207
f 1194 1209 1195
f 1201 1199 1181
f 1247 1243 1244
f 1267 1262 1263
f 1268 1263 1264
f 1269 1264 1265
f 1248 1244 1227
f 1229 1227 1211
f 1213 1211 1199
f 1176 1196 1177
f 1154 1143 1142
f 1245 1238 1239
f 1246 1239 1261
f 1266 1261 1262
f 1165 1160 1159
f 1162 1157 1176
f 1152 1141 1151
f 1206 1207 1193
f 1199 1201 1185
f 1198 1199 1181
f 1239 1245 1246
f 1227 1229 1213
f 1211 1213 1201
f 1243 1242 1264
f 1182 1175 1176
f 1227 1248 1229
f 1163 1158 1159
f 1241 1262 1263
f 1162 1157 1158
f 1269 1264 1242
f 1179 1180 1161
f 1266 1262 1240
f 1222 1223 1208
f 1160 1178 1179
f 1239 1224 1223
f 1158 1177 1178
f 1211 1210 1226
f 1199 1198 1211
f 1262 1266 1267
f 1262 1241 1240
f 1233 1254 1232
f 1255 1254 1233
f 1272 1252 1253
f 1138 1139 1147
f 1261 1246 1266
f 1239 1261 1266
f 1167 1187 1186
f 1170 1188 1169
f 1161 1180 1166
f 1250 1230 1231
f 1249 1230 1250
f 1161 1166 1165
f 1160 1161 1165
f 1232 1255 1233
f 1264 1268 1269
f 1158 1163 1162
f 1263 1267 1268
f 1148 1139 1138
f 1159 1165 1164
f 1159 1164 1163
f 1147 1148 1138
f 1176 1162 1183
f 1176 1175 1195
f 1265 1269 1270
f 1186 1168 1187
f 1167 1168 1186
f 1189 1188 1169
f 1169 1170 1189
f 1245 1238 1222
f 1181 1185 1184
f 1180 1184 1166
f 1205 1204 1218
f 1206 1221 1207
f 1154 1144 1143
f 1175 1171 1191
f 1182 1175 1194
f 1157 1151 1172
f 1176 1172 1171
f 1183 1176 1175
f 1158 1152 1151
f 1163 1158 1157
f 1159 1153 1152
f 1164 1159 1158
f 1160 1154 1153
f 1261 1256 1257
f 1239 1235 1256
f 1238 1234 1235
f 1191 1190 1204
f 1173 1156 1155
f 1172 1150 1171
f 1153 1142 1152
f 1216 1217 1203
f 1211 1206 1192
f 1208 1205 1219
f 1212 1208 1222
f 1227 1220 1206
f 1194 1191 1205
f 1200 1194 1208
f 1244 1237 1220
f 1264 1259 1260
f 1263 1258 1259
f 1262 1257 1258
f 1161 1155 1154
f 1166 1161 1160
f 1181 1174 1173
f 1185 1181 1180
f 1243 1236 1237
f 1265 1260 1236
f 1270 1265 1243
f 1180 1173 1155
f 1184 1180 1161
f 1222 1219 1234
f 1228 1222 1238
f 1199 1192 1174
f 1204 1205 1219
f 1207 1203 1189
f 1192 1189 1188
f 1219 1205 1202
f 1207 1206 1203
f 1204 1190 1186
f 1190 1191 1186
f 1220 1237 1233
f 1236 1254 1232
f 1150 1151 1146
f 1260 1259 1253
f 1151 1152 1146
f 1152 1136 1146
f 1259 1258 1252
f 1141 1142 1137
f 1257 1251 1252
f 1143 1138 1137
f 1257 1256 1250
f 1155 1148 1147
f 1219 1214 1215
f 1171 1168 1187
f 1150 1145 1168
f 1152 1141 1136
f 1174 1192 1188
f 1236 1260 1254
f 1234 1230 1231
f 1155 1149 1148
f 1155 1156 1149
f 1219 1215 1230
f 1252 1272 1251
f 1187 1167 1168
f 1218 1204 1219
f 1255 1232 1254
f 1227 1211 1226
f 1192 1193 1207
f 1185 1201 1181
f 1248 1247 1244
f 1176 1195 1196
f 1213 1229 1211
f 1201 1213 1199
f 1243 1226 1225
f 1153 1154 1142
f 1173 1174 1156
f 1158 1176 1177
f 1192 1206 1193
f 1181 1199 1185
f 1180 1198 1181
f 1194 1195 1175
f 1211 1227 1213
f 1199 1211 1201
f 1265 1243 1264
f 1264 1241 1263
f 1264 1242 1241
f 1160 1179 1161
f 1261 1266 1240
f 1160 1159 1178
f 1211 1198 1210
f 1239 1240 1224
f 1159 1158 1178
f 1180 1179 1197
f 1198 1180 1197
f 1242 1243 1225
f 1194 1208 1209
f 1208 1223 1209
f 1140 1141 1151
f 1135 1136 1146
f 1273 1272 1253
f 1139 1148 1147
f 1239 1261 1240
f 1183 1182 1176
f 1247 1243 1270
f 1157 1176 1158
f 1200 1212 1208
f 1182 1200 1194
f 1228 1245 1222
f 1180 1181 1184
f 1212 1228 1222
f 1219 1205 1218
f 1154 1155 1144
f 1194 1175 1191
f 1176 1157 1172
f 1175 1176 1171
f 1182 1183 1175
f 1157 1158 1151
f 1162 1163 1157
f 1158 1159 1152
f 1163 1164 1158
f 1159 1160 1153
f 1262 1261 1257
f 1261 1239 1256
f 1239 1238 1235
f 1205 1191 1204
f 1172 1151 1150
f 1152 1142 1141
f 1199 1211 1192
f 1222 1208 1219
f 1211 1227 1206
f 1208 1194 1205
f 1227 1244 1220
f 1265 1264 1260
f 1264 1263 1259
f 1263 1262 1258
f 1160 1161 1154
f 1165 1166 1160
f 1180 1181 1173
f 1184 1185 1180
f 1244 1243 1237
f 1243 1265 1236
f 1161 1180 1155
f 1166 1184 1161
f 1238 1222 1234
f 1245 1228 1238
f 1181 1199 1174
f 1192 1207 1189
f 1214 1219 1202
f 1205 1204 1202
f 1203 1206 1216
f 1206 1220 1216
f 1202 1204 1186
f 1216 1220 1233
f 1233 1236 1232
f 1237 1236 1233
f 1145 1150 1146
f 1254 1260 1253
f 1253 1259 1252
f 1136 1141 1137
f 1258 1257 1252
f 1142 1143 1137
f 1251 1257 1250
f 1138 1154 1147
f 1154 1155 1147
f 1256 1235 1250
f 1186 1191 1187
f 1191 1171 1187
f 1171 1150 1168
f 1143 1154 1138
f 1149 1174 1169
f 1169 1174 1188
f 1250 1235 1231
f 1235 1234 1231
f 1156 1174 1149
f 1234 1219 1230
v -0.47514 0.35027 -0.01495
v -0.47939 0.34983 0.29900
v -0.46150 0.40317 -0.08017
v -0.48231 0.40556 -0.01863
v -0.50072 0.41350 0.29900
v -0.45725 0.44325 -0.08075
v -0.47371 0.46946 -0.01650
v -0.48250 0.47036 0.29921
v -0.46850 0.49700 0.29825
v -0.42750 0.30930 -0.01540
v -0.42906 0.30594 0.29900
v -0.42767 0.34900 -0.08033
v -0.42925 0.34650 -0.02250
v -0.45450 0.38450 -0.08200
v -0.42783 0.47733 -0.08033
v -0.42925 0.47987 -0.02250
v -0.42737 0.51637 -0.01587
v -0.42906 0.52061 0.29900
v -0.36320 0.30545 -0.01510
v -0.36239 0.30150 0.29900
v -0.37179 0.33736 -0.08043
v -0.36900 0.33437 -0.02250
v -0.38450 0.41350 -0.08200
v -0.38450 0.41350 -0.01000
v -0.38450 0.41350 0.29850
v -0.36750 0.48850 -0.08086
v -0.36883 0.49167 -0.02233
v -0.36212 0.51960 -0.01543
v -0.36239 0.52500 0.29900
v -0.32917 0.35750 -0.08033
v -0.29992 0.35108 -0.01633
v -0.29733 0.34083 0.29933
v -0.30925 0.39837 -0.08050
v -0.30617 0.39783 -0.02200
v -0.32050 0.45583 -0.08017
v -0.30132 0.47079 -0.01729
v -0.29550 0.47950 0.29988
v -0.30100 0.49700 0.29825
v -0.27550 0.36783 0.29833
v -0.27206 0.41350 -0.01567
v -0.26850 0.41350 0.29900
v -0.27550 0.45817 0.29833
v -0.16786 -0.04773 -0.11079
v -0.18756 -0.04869 -0.00006
v -0.16781 -0.04780 0.11100
v -0.17140 -0.01300 -0.11247
v -0.16387 -0.01206 -0.08707
v -0.18747 -0.01308 -0.00021
v -0.16207 -0.01136 0.08607
v -0.17123 -0.01299 0.11186
v -0.14436 -0.04952 -0.11216
v -0.15263 -0.04455 -0.08770
v -0.15370 -0.04190 0.08645
v -0.14481 -0.04936 0.11104
v -0.13748 -0.01325 -0.11704
v -0.14880 -0.01259 -0.08601
v -0.15035 -0.01244 0.08536
v -0.13780 -0.01320 0.11498
v -0.06133 -0.04918 -0.17831
v -0.06150 -0.04919 0.17864
v -0.06593 -0.01306 -0.17859
v -0.06565 -0.01319 0.17837
v -0.05750 -0.01050 0.20600
v -0.06638 0.36885 -0.16927
v -0.06650 0.36867 -0.13700
v -0.06674 0.37257 0.10739
v -0.06739 0.39197 -0.16611
v -0.06650 0.39850 -0.13700
v -0.06675 0.40139 0.11915
v -0.06635 0.45191 -0.16918
v -0.06650 0.45237 -0.13700
v -0.06675 0.44732 0.11000
v -0.03817 -0.04620 -0.17940
v -0.03811 -0.04617 0.17945
v -0.03578 -0.01284 -0.17925
v -0.03593 -0.01273 0.17933
v 0.05562 -0.04910 -0.17851
v 0.05579 -0.04910 0.17895
v 0.05119 -0.01313 -0.17897
v 0.05145 -0.01318 0.17879
v 0.05850 -0.01050 0.20600
v 0.05088 0.36885 -0.16931
v 0.05083 0.36867 -0.13700
v 0.05050 0.37257 0.10739
v 0.04992 0.39197 -0.16611
v 0.05075 0.39850 -0.13700
v 0.05050 0.40139 0.11915
v 0.05088 0.45191 -0.16918
v 0.05088 0.45237 -0.13700
v 0.05050 0.44732 0.11000
v 0.07911 -0.04591 -0.17881
v 0.13193 -0.04561 -0.10988
v 0.13194 -0.04562 0.10993
v 0.07910 -0.04591 0.17881
v 0.08105 -0.01285 -0.17859
v 0.12976 -0.01270 -0.11010
v 0.12980 -0.01286 0.11048
v 0.08100 -0.01277 0.17870
v 0.15539 -0.04951 -0.11171
v 0.15338 -0.04455 -0.08768
v 0.18049 -0.04933 -0.00021
v 0.15450 -0.04192 0.08653
v 0.15539 -0.04937 0.11090
v 0.16193 -0.01337 -0.11725
v 0.15255 -0.01250 -0.08626
v 0.17585 -0.01311 -0.00007
v 0.15256 -0.01237 0.08548
v 0.16115 -0.01325 0.11490
v 0.20291 -0.04763 -0.00010
v 0.20621 -0.01299 -0.00002
v 0.30283 0.45750 -0.09433
v 0.30015 0.47062 -0.06238
v 0.30044 0.50775 -0.09756
v 0.29980 0.50573 -0.07613
v 0.31350 0.45750 -0.09000
v 0.33026 0.47285 -0.06721
v 0.33712 0.47000 0.00187
v 0.36370 0.47850 0.06340
v 0.31517 0.50517 -0.09583
v 0.31724 0.50339 -0.07589
v 0.34850 0.50117 -0.00450
v 0.37690 0.47850 0.00420
v 0.41269 0.47524 0.07267
v 0.39562 0.47174 0.09912
v 0.38900 0.50100 0.06150
v 0.40423 0.49977 0.09418
v 0.48250 0.36850 -0.03400
v 0.47792 0.36305 -0.00206
v 0.46453 0.35664 0.19063
v 0.46361 0.35835 0.21483
v 0.48494 0.46861 -0.00494
v 0.46461 0.51035 0.19287
v 0.46436 0.50800 0.20859
v 0.50850 0.36850 -0.03800
v 0.51630 0.35520 -0.00338
v 0.50350 0.36850 0.02933
v 0.50881 0.47099 -0.00412
usemtl m003
f 1334 1332 1346
f 1334 1348 1346
f 1371 1353 1351
f 1367 1351 1371
f 1352 1350 1368
f 1382 1383 1379
f 1349 1347 1333
f 1349 1335 1333
f 1376 1375 1381
f 1381 1370 1366
f 1381 1366 1376
f 1380 1375 1376
f 1365 1372 1377
f 1377 1372 1373
f 1377 1378 1373
f 1320 1328 1329
f 1319 1316 1325
f 1329 1325 1324
f 1327 1331 1318
f 1331 1323 1318
f 1331 1327 1326
f 1330 1326 1331
f 1323 1327 1318
f 1323 1331 1327
f 1322 1331 1323
f 1381 1375 1380
f 1377 1378 1369
f 1352 1368 1364
f 1350 1352 1364
f 1350 1364 1368
f 1374 1382 1379
f 1381 1380 1376
f 1369 1365 1377
f 1319 1328 1320
f 1329 1319 1325
f 1328 1329 1324
f 1316 1319 1324
f 1319 1328 1324
f 1325 1316 1324
f 1330 1331 1322
f 1298 1302 1291
f 1298 1291 1281
f 1298 1310 1302
f 1298 1281 1278
f 1298 1314 1310
f 1298 1278 1275
f 1298 1305 1314
f 1298 1275 1284
f 1298 1293 1305
f 1298 1284 1293
f 1310 1315 1314
f 1302 1311 1310
f 1305 1312 1314
f 1299 1308 1296
f 1308 1306 1296
f 1306 1303 1296
f 1303 1294 1296
f 1294 1285 1296
f 1285 1287 1296
f 1287 1276 1296
f 1276 1279 1296
f 1279 1288 1296
f 1288 1299 1296
f 1300 1299 1288
f 1289 1288 1279
f 1280 1279 1276
f 1277 1276 1285
f 1286 1285 1294
f 1295 1294 1303
f 1304 1303 1306
f 1307 1306 1308
f 1309 1308 1299
f 1313 1307 1309
f 1292 1295 1304
f 1283 1286 1295
f 1274 1277 1286
f 1297 1277 1274
f 1297 1274 1283
f 1297 1283 1292
f 1297 1292 1304
f 1297 1304 1313
f 1297 1313 1309
f 1297 1309 1301
f 1297 1301 1290
f 1297 1290 1280
f 1297 1280 1277
f 1337 1339 1342
f 1340 1342 1339
f 1338 1337 1340
f 1341 1340 1337
f 1341 1340 1343
f 1344 1343 1340
f 1359 1358 1361
f 1362 1361 1358
f 1356 1355 1358
f 1359 1358 1355
f 1355 1357 1360
f 1358 1360 1357
f 1409 1401 1408
f 1401 1400 1408
f 1400 1407 1408
f 1386 1392 1387
f 1384 1388 1385
f 1392 1388 1384
f 1384 1385 1387
f 1388 1389 1385
f 1393 1389 1388
f 1387 1393 1392
f 1387 1385 1389
f 1387 1393 1385
f 1393 1389 1385
f 1395 1389 1394
f 1396 1395 1394
f 1397 1396 1399
f 1396 1390 1395
f 1390 1385 1389
f 1397 1391 1396
f 1394 1387 1385
f 1398 1394 1390
f 1399 1398 1391
f 1394 1393 1387
f 1310 1311 1315
f 1281 1282 1291
f 1289 1300 1288
f 1280 1289 1279
f 1277 1280 1276
f 1286 1277 1285
f 1295 1286 1294
f 1304 1295 1303
f 1307 1304 1306
f 1309 1307 1308
f 1300 1309 1299
f 1280 1290 1289
f 1290 1301 1289
f 1301 1309 1300
f 1313 1304 1307
f 1292 1283 1295
f 1283 1274 1286
f 1287 1285 1276
f 1300 1289 1301
f 1340 1337 1342
f 1337 1340 1339
f 1341 1338 1340
f 1338 1341 1337
f 1344 1341 1343
f 1341 1344 1340
f 1362 1359 1361
f 1359 1362 1358
f 1359 1356 1358
f 1356 1359 1355
f 1358 1355 1360
f 1355 1358 1357
f 1386 1392 1384
f 1386 1384 1387
f 1392 1393 1388
f 1393 1387 1389
f 1394 1389 1393
f 1398 1396 1394
f 1399 1396 1398
f 1395 1390 1389
f 1396 1391 1390
f 1390 1394 1385
f 1391 1398 1390
f 1397 1399 1391
v -0.48410 0.36230 -0.00980
v -0.48500 0.34650 0.01400
v -0.48375 0.34725 0.25650
v -0.48617 0.37117 0.29067
v -0.49272 0.43228 -0.01100
v -0.50300 0.43700 0.01400
v -0.50150 0.43650 0.25650
v -0.49017 0.43433 0.29050
v -0.46850 0.49650 -0.00600
v -0.47150 0.50050 0.01400
v -0.47050 0.49900 0.25650
v -0.42730 0.31030 -0.01100
v -0.43150 0.29950 0.01400
v -0.43100 0.30100 0.25650
v -0.42650 0.31225 0.29100
v -0.46275 0.33525 -0.01225
v -0.46200 0.33600 0.29075
v -0.44328 0.50494 -0.01156
v -0.43150 0.52650 0.01400
v -0.43100 0.52500 0.25650
v -0.44467 0.50283 0.29033
v -0.36340 0.30610 -0.01100
v -0.36100 0.29500 0.01400
v -0.36150 0.29650 0.25650
v -0.36079 0.30893 0.29071
v -0.38450 0.41350 -0.01300
v -0.38450 0.41350 0.29200
v -0.36330 0.52010 -0.01100
v -0.33750 0.52650 0.01400
v -0.33850 0.52500 0.25650
v -0.36375 0.51838 0.29050
v -0.38450 0.53650 0.01400
v -0.38450 0.53450 0.25650
v -0.29539 0.35039 -0.01089
v -0.28450 0.34650 0.01400
v -0.28600 0.34725 0.25650
v -0.29736 0.35121 0.29071
v -0.27761 0.43217 -0.01100
v -0.26650 0.43700 0.01400
v -0.26825 0.43650 0.25650
v -0.27967 0.43433 0.29067
v -0.30550 0.49250 -0.01050
v -0.29750 0.50050 0.01400
v -0.29900 0.49900 0.25650
v -0.30717 0.49083 0.29067
v -0.06550 0.36758 -0.13700
v -0.06550 0.36758 -0.10200
v -0.07037 0.37046 -0.03960
v -0.06550 0.45328 -0.13700
v -0.06550 0.45328 -0.10200
v -0.07039 0.43854 -0.03966
v -0.06550 0.46350 -0.13700
v -0.06550 0.46350 -0.10200
v -0.07142 0.46998 -0.04067
v -0.04021 0.37038 -0.03600
v -0.04010 0.43850 -0.03510
v -0.04030 0.47000 -0.03520
v 0.05200 0.36758 -0.13700
v 0.05200 0.36758 -0.10200
v 0.07005 0.37045 -0.03949
v 0.05200 0.45328 -0.13700
v 0.05200 0.45328 -0.10200
v 0.06808 0.43830 -0.04045
v 0.05200 0.46350 -0.13700
v 0.05200 0.46350 -0.10200
v 0.07042 0.46990 -0.03992
v 0.43795 0.37280 0.18797
v 0.44850 0.37270 0.22650
v 0.43856 0.44703 0.19265
v 0.44450 0.45100 0.22500
v 0.49404 0.37196 -0.02208
v 0.49761 0.37217 0.02033
v 0.48410 0.37288 0.18608
v 0.47450 0.37275 0.22737
v 0.49564 0.42473 -0.01951
v 0.50157 0.42457 0.01620
v 0.47992 0.44621 0.18684
v 0.47006 0.44950 0.22778
v 0.52730 0.37270 -0.02260
v 0.52950 0.37450 0.04100
v 0.52636 0.42664 -0.01129
v 0.52950 0.45000 0.04100
usemtl m009
f 1466 1465 1458
f 1472 1471 1468
f 1475 1474 1471
f 1472 1471 1474
f 1469 1468 1471
f 1492 1491 1485
f 1486 1485 1491
f 1490 1489 1481
f 1482 1481 1489
f 1491 1489 1481
f 1486 1482 1489
f 1485 1481 1482
f 1467 1464 1461
f 1487 1479 1480
f 1487 1480 1488
f 1437 1441 1431
f 1437 1455 1441
f 1437 1431 1418
f 1437 1451 1455
f 1437 1418 1414
f 1437 1447 1451
f 1437 1414 1427
f 1437 1427 1425
f 1437 1435 1447
f 1437 1425 1435
f 1430 1431 1441
f 1440 1441 1455
f 1454 1455 1451
f 1450 1451 1447
f 1446 1447 1435
f 1434 1435 1425
f 1424 1425 1427
f 1413 1427 1414
f 1413 1414 1418
f 1417 1418 1431
f 1439 1440 1454
f 1453 1454 1450
f 1449 1450 1446
f 1445 1446 1434
f 1433 1434 1424
f 1423 1424 1413
f 1412 1413 1417
f 1416 1417 1421
f 1420 1421 1430
f 1429 1430 1443
f 1442 1443 1440
f 1452 1453 1449
f 1438 1439 1453
f 1438 1442 1439
f 1428 1429 1442
f 1419 1420 1429
f 1415 1416 1420
f 1411 1412 1416
f 1422 1423 1412
f 1432 1433 1423
f 1444 1445 1433
f 1448 1449 1445
f 1436 1448 1444
f 1436 1452 1448
f 1436 1438 1452
f 1436 1428 1438
f 1436 1415 1428
f 1436 1411 1415
f 1436 1426 1411
f 1436 1422 1426
f 1436 1432 1422
f 1436 1444 1432
f 1460 1459 1456
f 1463 1462 1459
f 1460 1459 1462
f 1457 1456 1459
f 1467 1466 1473
f 1466 1465 1470
f 1476 1473 1466
f 1473 1470 1465
f 1484 1478 1483
f 1478 1477 1483
f 1467 1466 1461
f 1479 1477 1483
f 1488 1484 1483
f 1487 1483 1484
f 1461 1466 1458
f 1469 1472 1468
f 1472 1475 1471
f 1475 1472 1474
f 1472 1469 1471
f 1486 1492 1485
f 1492 1486 1491
f 1482 1490 1481
f 1490 1482 1489
f 1485 1491 1481
f 1491 1486 1489
f 1486 1485 1482
f 1443 1430 1441
f 1440 1443 1441
f 1454 1440 1455
f 1450 1454 1451
f 1446 1450 1447
f 1434 1446 1435
f 1424 1434 1425
f 1413 1424 1427
f 1417 1413 1418
f 1421 1417 1431
f 1430 1421 1431
f 1453 1439 1454
f 1449 1453 1450
f 1445 1449 1446
f 1433 1445 1434
f 1423 1433 1424
f 1412 1423 1413
f 1416 1412 1417
f 1420 1416 1421
f 1429 1420 1430
f 1442 1429 1443
f 1439 1442 1440
f 1448 1452 1449
f 1452 1438 1453
f 1438 1428 1442
f 1428 1419 1429
f 1419 1415 1420
f 1415 1411 1416
f 1411 1422 1412
f 1422 1432 1423
f 1432 1444 1433
f 1444 1448 1445
f 1426 1422 1411
f 1428 1415 1419
f 1457 1460 1456
f 1460 1463 1459
f 1463 1460 1462
f 1460 1457 1459
f 1476 1467 1473
f 1473 1466 1470
f 1467 1476 1466
f 1466 1473 1465
f 1487 1479 1483
f 1487 1488 1483
f 1488 1487 1484
