# daf_wheel_fl.obj - ISO 8855 (x ileri, y sol, z yukari), metre
mtllib daf.mtl
o daf_wheel_fl
v 0.07775 0.15900 -0.20975
v -0.06050 0.15900 -0.21525
v 0.21050 0.15900 -0.08700
v -0.16150 0.15900 -0.16150
v 0.21875 0.15900 0.05250
v -0.22550 0.15900 -0.03550
v 0.13000 0.15900 0.17925
v -0.18825 0.15900 0.12575
v -0.03425 0.15900 0.21875
v 0.07531 0.15199 -0.46199
v -0.11142 0.15329 -0.42086
v 0.24928 0.15102 -0.38924
v -0.19444 0.15035 -0.42442
v 0.38042 0.15262 -0.27437
v 0.39945 0.15385 -0.20196
v 0.28130 0.14981 -0.27174
v -0.32718 0.14618 -0.14687
v -0.40688 0.15244 -0.23803
v -0.40634 0.15149 -0.03488
v 0.38841 0.14967 0.00818
v 0.42849 0.15199 0.17916
v -0.40915 0.15212 0.21455
v -0.35177 0.15176 0.21395
v 0.32311 0.15214 0.33713
v -0.28556 0.15208 0.36290
v -0.13142 0.14618 0.33120
v 0.17695 0.15315 0.42539
v -0.15878 0.15230 0.43633
v 0.46103 0.15224 -0.05433
v -0.46329 0.15195 0.04857
v 0.23001 0.14951 0.32634
v 0.01744 0.14499 -0.48363
v 0.12319 0.14498 -0.46807
v -0.17766 0.14726 -0.44826
v 0.30893 0.14499 -0.38144
v -0.26334 0.14499 -0.40579
v -0.37978 0.14499 -0.30351
v 0.41471 0.14497 -0.24813
v 0.47846 0.14495 -0.10119
v -0.47826 0.14503 -0.09777
v 0.46450 0.14924 0.13967
v -0.45811 0.14522 0.17522
v 0.22259 0.14500 0.43790
v -0.29306 0.14711 0.38606
v 0.00758 0.14954 0.47581
v -0.05987 0.14503 -0.47923
v 0.39309 0.14532 0.28499
v -0.10391 0.14023 -0.33719
v 0.16292 0.14081 -0.30684
v -0.33103 0.14448 0.14851
v 0.35162 0.13944 -0.06810
v 0.26770 0.14086 0.22239
v 0.08213 0.14373 0.34304
v 0.28757 0.13247 -0.41748
v -0.21721 0.13288 -0.45965
v -0.07745 0.13006 -0.51214
v 0.03567 0.13123 -0.51555
v -0.31268 0.13031 -0.41362
v -0.34614 0.13292 -0.37177
v 0.44643 0.13273 -0.24040
v -0.50127 0.13233 -0.08168
v 0.51598 0.13142 -0.01025
v -0.47966 0.13271 0.16584
v 0.45260 0.13105 0.25020
v -0.36069 0.12998 0.37276
v -0.28083 0.13025 0.43544
v 0.30552 0.13273 0.40542
v -0.19881 0.14016 0.45004
v 0.10732 0.12645 -0.50975
v -0.12572 0.12945 -0.50381
v -0.17896 0.12948 -0.48731
v 0.22528 0.13133 -0.46172
v 0.32825 0.12985 -0.40201
v 0.37530 0.12969 -0.35884
v -0.35400 0.12613 -0.38145
v 0.40820 0.12882 -0.32022
v -0.43047 0.13030 -0.28822
v -0.46465 0.12763 -0.23338
v 0.50159 0.13020 -0.13090
v -0.49672 0.12866 -0.14998
v -0.51925 0.12890 0.00445
v -0.51595 0.12130 0.07108
v -0.50377 0.12951 0.12602
v 0.42354 0.12675 0.30017
v -0.41687 0.13025 0.30765
v 0.29715 0.12874 0.42733
v -0.32915 0.12992 0.40067
v -0.24318 0.12978 0.45898
v 0.23526 0.12996 0.46266
v 0.11769 0.12793 0.50696
v -0.19627 0.12588 0.48337
v -0.12395 0.12950 0.50425
v -0.04426 0.12885 0.51739
v 0.00797 0.12876 0.51955
v 0.16150 0.12600 -0.49550
v 0.28917 0.12598 -0.43406
v -0.23714 0.12591 -0.46393
v 0.05050 0.12600 -0.31800
v -0.40317 0.12598 -0.33024
v -0.11425 0.12600 -0.29875
v 0.46488 0.12576 -0.23774
v 0.26000 0.12600 -0.18325
v -0.22100 0.12600 -0.23275
v -0.28200 0.12600 -0.15275
v 0.51665 0.12588 -0.07270
v 0.31825 0.12600 0.00450
v -0.51402 0.12507 -0.08672
v -0.31825 0.12600 -0.00387
v 0.28550 0.12600 0.14550
v 0.46610 0.11859 0.26227
v 0.18700 0.12600 0.25725
v -0.27225 0.12600 0.16700
v -0.15225 0.12600 0.28100
v -0.02475 0.12600 0.32025
v 0.36892 0.12839 0.36702
v 0.07222 0.13054 0.51235
v 0.23650 0.12400 -0.46300
v 0.30650 0.12400 -0.42150
v -0.48064 0.12580 0.20400
v 0.00050 0.11900 -0.52050
v 0.05113 0.11753 -0.52844
v -0.08090 0.11994 -0.51477
v 0.16989 0.11733 -0.50828
v 0.16150 0.12250 -0.49550
v 0.26050 0.12100 -0.45050
v 0.30650 0.12100 -0.42150
v 0.48754 0.11991 -0.18523
v 0.52150 0.12100 0.00050
v 0.51251 0.12883 0.09479
v 0.50185 0.11997 0.14161
v -0.32700 0.12100 0.40450
v 0.02090 0.11736 0.52207
v -0.03141 0.11738 -0.52107
v 0.19115 0.12008 -0.48519
v -0.16050 0.11900 -0.49550
v 0.21250 0.11900 -0.47550
v -0.21150 0.11900 -0.47550
v 0.26050 0.11900 -0.45050
v -0.23127 0.11983 -0.46663
v 0.30650 0.11900 -0.42150
v -0.26136 0.11729 -0.46902
v 0.34850 0.11900 -0.38650
v -0.37417 0.11624 -0.38319
v 0.42865 0.11648 -0.32667
v -0.37041 0.11927 -0.36637
v 0.44355 0.11731 -0.27615
v -0.45050 0.11900 -0.26050
v -0.49288 0.11641 -0.22027
v 0.52207 0.11737 -0.03023
v 0.52088 0.12019 0.03293
v -0.53318 0.11648 -0.02183
v 0.52573 0.11635 0.12703
v -0.49550 0.11900 0.16150
v -0.49530 0.11702 0.20104
v 0.45150 0.11900 0.26050
v -0.45068 0.11748 0.26215
v -0.43484 0.11962 0.28756
v -0.39421 0.12020 0.34195
v 0.21337 0.11773 0.47777
v -0.25633 0.11774 0.45635
v 0.13884 0.11787 0.50369
v -0.15912 0.11745 0.49697
v -0.13089 0.11935 0.50470
v 0.00057 0.11598 -0.54114
v -0.10643 0.11624 -0.53083
v 0.28942 0.11604 -0.46045
v 0.19223 0.11701 -0.48781
v -0.41148 0.11621 -0.34649
v 0.49733 0.11598 -0.21830
v -0.46708 0.11631 -0.26818
v 0.49979 0.11721 -0.15904
v 0.53916 0.11667 -0.06235
v -0.53435 0.11592 -0.08364
v -0.53507 0.11635 0.08377
v -0.46934 0.11650 0.26935
v -0.41365 0.11617 0.34726
v 0.42432 0.11602 0.33485
v 0.34675 0.11690 0.41664
v 0.33381 0.11784 0.40186
v -0.36019 0.11625 0.40143
v 0.29403 0.11598 0.45597
v 0.28174 0.11765 0.44009
v 0.21350 0.11700 0.47850
v 0.17309 0.11672 0.51499
v -0.08041 0.11618 0.53433
v -0.24371 0.11649 0.48764
v 0.05769 0.11649 0.53628
v 0.00088 0.11423 0.54201
v 0.14888 0.09224 -0.24269
v -0.02164 0.09232 -0.28366
v -0.18630 0.09234 -0.21503
v 0.27727 0.09217 0.06658
v -0.27714 0.09242 -0.06397
v 0.18609 0.09227 0.21615
v -0.26172 0.09222 0.11131
v 0.02588 0.09227 0.28375
v -0.14665 0.09209 0.24462
v -0.02142 0.08196 -0.54752
v -0.24048 0.08200 -0.49222
v 0.20644 0.08200 -0.50765
v -0.42021 0.08200 -0.35176
v 0.39188 0.08203 -0.38330
v -0.52708 0.08202 -0.14967
v 0.51447 0.08198 -0.19027
v -0.54272 0.08198 0.07574
v 0.54695 0.08202 0.03577
v -0.46368 0.08201 0.29272
v 0.48628 0.08203 0.25354
v -0.30779 0.08201 0.45315
v 0.33853 0.08200 0.43123
v -0.09392 0.08201 0.53991
v 0.13596 0.08200 0.53127
v 0.02726 0.06989 -0.54272
v 0.06958 0.06988 -0.53909
v -0.01584 0.07001 -0.54294
v 0.11140 0.06994 -0.53130
v -0.05843 0.06998 -0.53957
v 0.15296 0.06987 -0.52125
v -0.10044 0.06997 -0.53392
v 0.19281 0.07008 -0.50758
v 0.01950 0.07000 -0.51650
v -0.14224 0.07012 -0.52377
v 0.05950 0.07000 -0.51300
v -0.02150 0.07000 -0.51600
v 0.10000 0.07000 -0.50700
v -0.06150 0.07000 -0.51300
v 0.23236 0.06991 -0.49058
v 0.13950 0.07000 -0.49750
v -0.10200 0.07000 -0.50650
v -0.18252 0.06974 -0.51098
v 0.17800 0.07000 -0.48500
v -0.14150 0.07000 -0.49650
v 0.27062 0.06990 -0.47064
v -0.22203 0.06988 -0.49486
v 0.21550 0.07000 -0.46950
v -0.18000 0.07000 -0.48400
v 0.30659 0.06980 -0.44867
v -0.26043 0.06972 -0.47616
v 0.25200 0.07000 -0.45150
v -0.21750 0.07000 -0.46850
v 0.28650 0.07000 -0.43050
v -0.25350 0.07000 -0.45050
v 0.34107 0.06986 -0.42343
v -0.29688 0.06995 -0.45420
v 0.31950 0.07000 -0.40650
v -0.28800 0.07000 -0.42900
v 0.37261 0.06993 -0.39511
v -0.33120 0.06975 -0.42928
v 0.35050 0.07000 -0.38050
v -0.32050 0.07000 -0.40500
v 0.40241 0.06983 -0.36422
v -0.36463 0.06999 -0.40186
v 0.37900 0.07000 -0.35150
v -0.35150 0.07000 -0.37850
v 0.42996 0.06983 -0.33154
v -0.39542 0.06989 -0.37282
v 0.40550 0.07000 -0.32050
v -0.38050 0.07000 -0.34950
v 0.45432 0.07007 -0.29711
v -0.42322 0.06985 -0.33989
v 0.42900 0.07000 -0.28800
v -0.40650 0.07000 -0.31850
v 0.47680 0.06983 -0.26072
v -0.44844 0.07000 -0.30623
v 0.45050 0.07000 -0.25350
v -0.43000 0.07000 -0.28600
v 0.49584 0.06999 -0.22235
v -0.47036 0.06977 -0.26972
v 0.46900 0.07000 -0.21750
v -0.45100 0.07000 -0.25100
v 0.51220 0.06982 -0.18296
v -0.49067 0.06998 -0.23223
v 0.48500 0.07000 -0.18000
v -0.46950 0.07000 -0.21500
v 0.52456 0.07009 -0.14215
v -0.50762 0.06970 -0.19299
v 0.49750 0.07000 -0.14150
v -0.48500 0.07000 -0.17750
v 0.53367 0.06984 -0.10024
v -0.52102 0.06978 -0.15267
v 0.50700 0.07000 -0.10200
v -0.49750 0.07000 -0.13850
v 0.54066 0.06990 -0.05834
v -0.53130 0.06994 -0.11040
v 0.51350 0.07000 -0.06150
v -0.50700 0.07000 -0.09900
v 0.54368 0.07000 -0.01581
v -0.53887 0.06987 -0.06924
v 0.51700 0.07000 -0.02150
v -0.51300 0.07000 -0.05950
v 0.54225 0.06986 0.02720
v 0.51650 0.07000 0.01950
v -0.51650 0.07000 -0.01850
v -0.54281 0.06980 -0.02641
v 0.51400 0.07000 0.05950
v -0.51600 0.07000 0.02150
v 0.53892 0.06967 0.06951
v -0.54268 0.07000 0.01650
v 0.50750 0.07000 0.10000
v -0.51250 0.07000 0.06250
v 0.53213 0.06986 0.11163
v -0.53949 0.06990 0.05865
v 0.49800 0.07000 0.13950
v -0.50600 0.07000 0.10250
v 0.52109 0.06990 0.15259
v -0.53403 0.06989 0.10135
v 0.48600 0.07000 0.17800
v -0.49650 0.07000 0.14200
v 0.50765 0.06997 0.19287
v -0.52411 0.06983 0.14227
v 0.47050 0.07000 0.21550
v -0.48400 0.07000 0.18050
v 0.49158 0.06991 0.23236
v -0.51100 0.06992 0.18281
v 0.45200 0.07000 0.25200
v -0.46850 0.07000 0.21800
v 0.47172 0.06990 0.27070
v -0.49523 0.06973 0.22223
v 0.43100 0.07000 0.28600
v -0.45000 0.07000 0.25400
v 0.44852 0.06992 0.30618
v -0.47616 0.06990 0.26069
v 0.40700 0.07000 0.31950
v -0.42900 0.07000 0.28850
v 0.42333 0.06999 0.34076
v -0.45492 0.06972 0.29724
v 0.38050 0.07000 0.35000
v -0.40500 0.07000 0.32150
v 0.39524 0.06993 0.37247
v -0.42959 0.06987 0.33223
v 0.35250 0.07000 0.37900
v -0.37850 0.07000 0.35250
v 0.36469 0.06985 0.40281
v -0.40225 0.06993 0.36516
v 0.32150 0.07000 0.40500
v -0.34950 0.07000 0.38050
v 0.33247 0.06992 0.43015
v -0.37278 0.06972 0.39528
v 0.28850 0.07000 0.42900
v -0.31850 0.07000 0.40700
v 0.29748 0.06983 0.45504
v -0.33980 0.06992 0.42324
v 0.25400 0.07000 0.45050
v -0.28600 0.07000 0.43100
v 0.21800 0.07000 0.46900
v -0.25100 0.07000 0.45200
v 0.26091 0.07000 0.47672
v -0.30595 0.06997 0.44841
v 0.18050 0.07000 0.48500
v -0.21500 0.07000 0.47050
v 0.22357 0.06996 0.49629
v -0.26973 0.06974 0.47132
v 0.14200 0.07000 0.49750
v -0.17750 0.07000 0.48550
v 0.18402 0.07010 0.51217
v 0.10250 0.07000 0.50700
v -0.13850 0.07000 0.49800
v -0.23245 0.06999 0.49209
v 0.06250 0.07000 0.51350
v -0.09900 0.07000 0.50750
v 0.02150 0.07000 0.51700
v -0.05900 0.07000 0.51400
v -0.01850 0.07000 0.51650
v 0.14217 0.06981 0.52489
v -0.19293 0.06968 0.50753
v 0.10122 0.06983 0.53388
v -0.15238 0.06974 0.52105
v 0.05864 0.06987 0.53980
v -0.11050 0.06990 0.53157
v 0.01652 0.06978 0.54286
v -0.06901 0.06999 0.53830
v -0.02636 0.06976 0.54235
v 0.14588 0.03904 -0.23492
v -0.01962 0.03936 -0.27550
v 0.24601 0.03898 -0.12278
v -0.17938 0.03918 -0.21037
v 0.26103 0.08931 -0.11255
v 0.26898 0.03911 0.06612
v -0.26873 0.03930 -0.06319
v 0.17769 0.03932 0.21198
v -0.25380 0.03902 0.10893
v 0.02172 0.03916 0.27591
v -0.14264 0.03893 0.23705
v -0.00369 0.02318 -0.54355
v -0.04674 0.02368 -0.54185
v 0.03914 0.02321 -0.54148
v -0.08829 0.02332 -0.53577
v 0.08160 0.02333 -0.53648
v -0.12995 0.02309 -0.52742
v 0.12338 0.02333 -0.52884
v -0.17150 0.02339 -0.51586
v 0.00300 0.03100 -0.51725
v -0.02950 0.03000 -0.51650
v 0.05150 0.03000 -0.51450
v 0.16468 0.02344 -0.51766
v -0.06950 0.03000 -0.51250
v 0.09150 0.03000 -0.50900
v -0.21121 0.02341 -0.50104
v -0.11000 0.03000 -0.50500
v 0.13150 0.03000 -0.50000
v 0.20441 0.02355 -0.50394
v -0.15750 0.03100 -0.49225
v -0.24942 0.02335 -0.48177
v 0.17250 0.03200 -0.48750
v -0.18750 0.03000 -0.48200
v 0.24362 0.02337 -0.48559
v 0.21050 0.03200 -0.47250
v -0.28725 0.02338 -0.46117
v -0.22500 0.03000 -0.46550
v 0.28061 0.02329 -0.46445
v 0.24500 0.03000 -0.45550
v -0.26100 0.03000 -0.44650
v -0.32259 0.02337 -0.43739
v 0.28000 0.03000 -0.43550
v 0.31623 0.02350 -0.44126
v -0.29500 0.03000 -0.42450
v -0.35646 0.02386 -0.40988
v 0.31300 0.03000 -0.41200
v 0.34995 0.02370 -0.41535
v -0.32550 0.03200 -0.40150
v -0.38579 0.02318 -0.38141
v 0.34500 0.03000 -0.38600
v 0.38162 0.02342 -0.38724
v -0.35800 0.03000 -0.37300
v -0.41540 0.02342 -0.35004
v 0.37400 0.03000 -0.35800
v -0.38600 0.03000 -0.34400
v 0.41165 0.02365 -0.35626
v -0.44154 0.02320 -0.31617
v 0.40100 0.03000 -0.32800
v -0.41200 0.03000 -0.31300
v 0.43857 0.02337 -0.32268
v -0.46471 0.02325 -0.28101
v 0.42550 0.03000 -0.29500
v -0.43450 0.03200 -0.28150
v 0.46189 0.02331 -0.28731
v 0.44750 0.03000 -0.26100
v -0.48613 0.02323 -0.24333
v -0.45450 0.03200 -0.24650
v 0.48297 0.02337 -0.24956
v 0.46650 0.03000 -0.22500
v -0.50236 0.02340 -0.20395
v -0.47250 0.03200 -0.20950
v 0.50077 0.02361 -0.21139
v 0.48350 0.03200 -0.18550
v -0.51752 0.02315 -0.16419
v -0.48850 0.03000 -0.17000
v 0.51536 0.02349 -0.17157
v 0.49600 0.03000 -0.14950
v -0.52876 0.02314 -0.12295
v -0.50000 0.03000 -0.13100
v 0.52766 0.02312 -0.12986
v 0.50600 0.03000 -0.11000
v -0.53637 0.02320 -0.08103
v -0.50900 0.03000 -0.09150
v 0.53691 0.02317 -0.08775
v 0.51300 0.03000 -0.07000
v -0.54171 0.02330 -0.03885
v -0.51450 0.03000 -0.05150
v 0.54196 0.02338 -0.04638
v 0.51700 0.03000 -0.02950
v -0.54258 0.02331 0.00386
v -0.51750 0.03000 -0.01050
v 0.54372 0.02319 -0.00367
v 0.51725 0.03100 0.00300
v -0.51650 0.03000 0.03050
v -0.54170 0.02319 0.04664
v 0.51550 0.03000 0.05150
v 0.54289 0.02333 0.03920
v -0.51250 0.03000 0.07050
v -0.53569 0.02329 0.08913
v 0.50950 0.03000 0.09150
v 0.53781 0.02332 0.08186
v -0.50500 0.03000 0.11050
v -0.52769 0.02331 0.13102
v 0.50100 0.03000 0.13150
v 0.52975 0.02333 0.12346
v -0.49500 0.03000 0.14950
v -0.51580 0.02323 0.17191
v 0.48900 0.03000 0.17050
v 0.51921 0.02356 0.16475
v -0.48200 0.03000 0.18850
v -0.50093 0.02299 0.21106
v 0.47400 0.03000 0.20850
v 0.50426 0.02317 0.20522
v -0.46150 0.03100 0.23275
v -0.48169 0.02348 0.25091
v 0.45650 0.03000 0.24500
v 0.48653 0.02336 0.24365
v -0.44750 0.03200 0.25950
v -0.46112 0.02325 0.28718
v 0.43550 0.03000 0.28000
v -0.42550 0.03200 0.29350
v 0.46547 0.02327 0.28073
v -0.43720 0.02330 0.32262
v 0.41250 0.03000 0.31300
v -0.40000 0.03000 0.32800
v 0.44245 0.02351 0.31658
v -0.41000 0.02328 0.35597
v 0.38550 0.03200 0.34650
v -0.37300 0.03000 0.35850
v 0.41674 0.02342 0.34990
v 0.35850 0.03000 0.37400
v -0.38185 0.02325 0.38683
v -0.34400 0.03000 0.38650
v 0.38722 0.02320 0.38166
v 0.32800 0.03000 0.40050
v -0.35026 0.02329 0.41645
v -0.31450 0.03200 0.41150
v 0.35587 0.02302 0.41179
v 0.29600 0.03000 0.42550
v -0.31620 0.02342 0.44306
v -0.27900 0.03000 0.43550
v 0.32232 0.02314 0.43851
v 0.25950 0.03200 0.44850
v -0.24450 0.03000 0.45650
v -0.28139 0.02304 0.46542
v 0.22350 0.03200 0.46750
v 0.28723 0.02318 0.46184
v -0.20750 0.03000 0.47400
v -0.24324 0.02306 0.48555
v 0.18650 0.03200 0.48350
v -0.17000 0.03000 0.48900
v 0.25123 0.02355 0.48283
v 0.14950 0.03000 0.49600
v -0.20425 0.02339 0.50387
v -0.13100 0.03000 0.50100
v 0.11050 0.03000 0.50600
v 0.21130 0.02326 0.50017
v -0.09150 0.03000 0.50950
v 0.07050 0.03000 0.51300
v -0.16452 0.02332 0.51865
v -0.05150 0.03000 0.51550
v 0.03050 0.03000 0.51700
v -0.01050 0.03000 0.51750
v 0.17200 0.02341 0.51522
v -0.12299 0.02315 0.52963
v 0.13094 0.02333 0.52793
v -0.08116 0.02324 0.53780
v 0.08920 0.02332 0.53691
v -0.03892 0.02339 0.54309
v 0.04664 0.02321 0.54153
v 0.00371 0.02330 0.54341
v 0.04111 0.02064 -0.54251
v 0.12754 0.02086 -0.52899
v -0.14921 0.02059 -0.52302
v -0.30313 0.02068 -0.45124
v 0.33646 0.02070 -0.42792
v 0.48541 0.02091 -0.24645
v 0.47700 0.02000 -0.19950
v -0.51790 0.02059 -0.16666
v 0.51400 0.02000 -0.05250
v 0.53385 0.02067 0.10522
v -0.51685 0.02053 0.17084
v 0.48664 0.02054 0.24562
v -0.35268 0.02078 0.41437
v 0.32222 0.02058 0.44007
v -0.28232 0.02070 0.46522
v 0.24876 0.02073 0.48467
v -0.14325 0.02050 0.49637
v -0.04062 0.02053 0.54317
v -0.04272 0.02077 -0.54229
v 0.10875 0.02000 -0.50438
v -0.02650 0.02050 -0.51487
v 0.20511 0.02040 -0.50414
v -0.12275 0.02000 -0.50175
v 0.19625 0.02000 -0.47800
v 0.28388 0.02063 -0.46509
v -0.24726 0.02075 -0.48476
v -0.19400 0.02050 -0.47887
v 0.26850 0.02000 -0.44150
v -0.27175 0.02000 -0.43925
v 0.33450 0.02000 -0.39450
v 0.38417 0.02070 -0.38553
v -0.35358 0.02075 -0.41362
v -0.33725 0.02000 -0.39125
v 0.39200 0.02000 -0.33725
v 0.44231 0.02116 -0.31782
v -0.41339 0.02080 -0.35304
v -0.39450 0.02000 -0.33375
v 0.44687 0.01950 -0.25913
v -0.46576 0.02052 -0.28152
v -0.44150 0.02000 -0.26800
v -0.49417 0.02068 -0.22656
v 0.52394 0.02041 -0.15072
v -0.47800 0.02000 -0.19550
v 0.49950 0.01900 -0.13425
v -0.53395 0.02071 -0.10501
v -0.50275 0.02000 -0.11825
v 0.54273 0.02080 -0.04273
v -0.54243 0.02083 -0.04234
v -0.51500 0.02000 -0.03825
v 0.51600 0.02000 0.03850
v 0.54328 0.02051 0.04089
v -0.51475 0.02000 0.04300
v 0.50350 0.02000 0.11875
v -0.54043 0.02057 0.06628
v 0.51833 0.02069 0.16699
v -0.50175 0.02000 0.12300
v 0.47875 0.02000 0.19600
v -0.47650 0.02000 0.20000
v 0.44250 0.02000 0.26850
v -0.43925 0.02000 0.27225
v 0.44161 0.02061 0.31909
v -0.47543 0.02094 0.26604
v 0.39475 0.02000 0.33450
v 0.38737 0.02044 0.38309
v -0.41424 0.02086 0.35343
v 0.33750 0.02000 0.39200
v -0.38400 0.02000 0.34463
v 0.27225 0.02000 0.44000
v -0.30200 0.02000 0.41975
v 0.20000 0.02000 0.47700
v -0.23250 0.02000 0.46200
v 0.10838 0.02000 0.50537
v 0.17078 0.02055 0.51801
v -0.20829 0.02084 0.50336
v -0.03200 0.01950 0.51512
v 0.10799 0.02070 0.53388
v -0.12512 0.02063 0.53040
v 0.04483 0.02068 0.54261
v 0.04523 -0.02158 -0.54232
v 0.12744 -0.02179 -0.52876
v 0.20889 -0.02176 -0.50246
v 0.28444 -0.02192 -0.46418
v -0.33653 -0.02164 -0.42879
v 0.37142 -0.02155 -0.39988
v -0.41318 -0.02163 -0.35505
v -0.47415 -0.02147 -0.26865
v -0.52312 -0.02123 -0.15182
v -0.54242 -0.02169 -0.04317
v 0.54212 -0.02135 -0.06136
v -0.54367 -0.02168 0.02029
v 0.54304 -0.02169 0.04444
v 0.53003 -0.02175 0.12813
v -0.51848 -0.02154 0.16660
v 0.50275 -0.02150 0.21023
v -0.49402 -0.02166 0.22685
v 0.46457 -0.02183 0.28471
v -0.40107 -0.02169 0.36976
v 0.41392 -0.02180 0.35386
v 0.35324 -0.02168 0.41484
v -0.30451 -0.02150 0.45248
v 0.26517 -0.02139 0.47690
v -0.21082 -0.02141 0.50239
v 0.05891 -0.02101 0.54221
v -0.12701 0.08200 -0.51533
v 0.10626 0.08200 -0.52108
v 0.31261 0.08200 -0.42811
v -0.32419 0.08200 -0.41999
v -0.46805 0.08200 -0.25037
v 0.45228 0.08200 -0.27926
v -0.52989 0.08200 -0.03519
v 0.52836 0.08200 -0.06249
v 0.50490 0.08200 0.16356
v -0.49878 0.08200 0.18165
v -0.38302 0.08200 0.36797
v 0.40787 0.08200 0.34153
v -0.19888 0.08200 0.49329
v 0.23100 0.08200 0.47930
v 0.01857 0.08200 0.53051
v -0.06450 -0.02192 -0.54118
v -0.16723 -0.02165 -0.51803
v 0.00250 -0.02100 -0.51675
v -0.05800 -0.02100 -0.51350
v -0.11825 -0.02100 -0.50300
v 0.08350 -0.02100 -0.50975
v -0.24573 -0.02169 -0.48559
v -0.19550 -0.02100 -0.47800
v -0.26800 -0.02100 -0.44150
v -0.32475 -0.02000 -0.40200
v 0.36725 -0.02100 -0.36350
v 0.44172 -0.02154 -0.31839
v -0.44225 -0.02150 -0.26663
v 0.48662 -0.02158 -0.24559
v -0.47200 -0.02000 -0.21050
v 0.47875 -0.02100 -0.19550
v 0.51788 -0.02183 -0.16780
v -0.51312 -0.02100 -0.05250
v 0.50350 -0.02100 -0.11825
v -0.51462 -0.02150 0.04450
v -0.53832 -0.02165 0.08421
v -0.49412 -0.02100 0.14813
v 0.51075 -0.02100 0.08325
v -0.44613 -0.02100 0.25925
v -0.46510 -0.02165 0.28405
v -0.39450 -0.02100 0.33450
v -0.33375 -0.02050 0.39450
v 0.34863 -0.02100 0.38025
v 0.26850 -0.02100 0.44225
v 0.19600 -0.02100 0.47900
v -0.11275 -0.02100 0.50425
v 0.06725 -0.02000 0.51300
v -0.00775 -0.02050 0.51700
v -0.12995 -0.02145 0.52885
v 0.16878 -0.02186 0.51786
v -0.04166 -0.02196 0.54328
v 0.16250 -0.02100 -0.49050
v 0.23162 -0.02150 -0.46187
v 0.28900 -0.02100 -0.42800
v -0.38463 -0.02150 -0.34400
v 0.42525 -0.02100 -0.29325
v -0.49050 -0.02100 -0.16150
v 0.51525 -0.02200 -0.05000
v 0.51750 -0.02100 0.00250
v 0.49150 -0.02100 0.16200
v 0.46437 -0.02150 0.22700
v 0.42875 -0.02100 0.28900
v -0.27200 -0.02100 0.44000
v -0.20850 -0.02100 0.47250
v 0.13025 -0.02200 0.50100
v 0.00367 -0.02428 -0.54332
v 0.04655 -0.02419 -0.54172
v -0.03895 -0.02430 -0.54171
v 0.08904 -0.02429 -0.53572
v -0.08112 -0.02420 -0.53636
v 0.13093 -0.02431 -0.52772
v -0.12304 -0.02414 -0.52874
v 0.17183 -0.02431 -0.51577
v -0.01050 -0.03100 -0.51750
v 0.03050 -0.03100 -0.51650
v -0.04300 -0.03200 -0.51500
v -0.16428 -0.02415 -0.51750
v 0.07050 -0.03100 -0.51250
v -0.09150 -0.03100 -0.50900
v 0.21097 -0.02407 -0.50090
v 0.11050 -0.03100 -0.50500
v -0.13100 -0.03100 -0.50000
v -0.20417 -0.02456 -0.50371
v 0.14950 -0.03100 -0.49500
v 0.25101 -0.02453 -0.48167
v -0.17000 -0.03100 -0.48850
v 0.18850 -0.03100 -0.48200
v -0.24341 -0.02423 -0.48609
v -0.20950 -0.03300 -0.47250
v 0.28710 -0.02425 -0.46118
v 0.22350 -0.03300 -0.46650
v -0.28136 -0.02407 -0.46436
v -0.24650 -0.03300 -0.45450
v 0.32217 -0.02413 -0.43738
v 0.25950 -0.03300 -0.44750
v -0.27900 -0.03100 -0.43550
v -0.31602 -0.02437 -0.44164
v 0.29600 -0.03100 -0.42450
v 0.35591 -0.02428 -0.41007
v -0.31450 -0.03300 -0.41050
v -0.35009 -0.02444 -0.41548
v 0.32800 -0.03100 -0.40000
v 0.38707 -0.02416 -0.38173
v -0.34550 -0.03300 -0.38450
v -0.38169 -0.02440 -0.38709
v 0.35850 -0.03100 -0.37300
v 0.41626 -0.02426 -0.35036
v -0.37300 -0.03100 -0.35800
v 0.38650 -0.03100 -0.34400
v -0.41008 -0.02470 -0.35603
v 0.44279 -0.02424 -0.31665
v -0.40000 -0.03100 -0.32800
v 0.41250 -0.03100 -0.31300
v -0.43744 -0.02437 -0.32252
v 0.46569 -0.02423 -0.28119
v -0.42450 -0.03100 -0.29500
v 0.43450 -0.03300 -0.28150
v -0.46122 -0.02438 -0.28718
v -0.44650 -0.03100 -0.26100
v 0.48702 -0.02422 -0.24344
v 0.45550 -0.03300 -0.24650
v -0.48189 -0.02432 -0.24932
v -0.46550 -0.03100 -0.22500
v 0.50384 -0.02439 -0.20434
v 0.47400 -0.03100 -0.20750
v -0.50107 -0.02441 -0.21113
v -0.47850 -0.03200 -0.19525
v 0.51886 -0.02428 -0.16453
v 0.48900 -0.03100 -0.17000
v -0.51589 -0.02439 -0.17141
v -0.49500 -0.03100 -0.14950
v 0.52966 -0.02414 -0.12311
v 0.50100 -0.03100 -0.13100
v -0.52745 -0.02409 -0.12987
v -0.50500 -0.03100 -0.11000
v 0.53784 -0.02423 -0.08127
v 0.50950 -0.03100 -0.09150
v -0.53571 -0.02415 -0.08761
v -0.51250 -0.03100 -0.07000
v 0.54308 -0.02439 -0.03900
v 0.51550 -0.03100 -0.05150
v -0.54205 -0.02436 -0.04626
v -0.51650 -0.03100 -0.02950
v 0.54360 -0.02431 0.00378
v 0.51750 -0.03100 -0.01050
v -0.51725 -0.03200 0.00300
v -0.54272 -0.02418 -0.00357
v 0.51700 -0.03100 0.03050
v 0.54162 -0.02420 0.04657
v -0.51450 -0.03100 0.05150
v -0.54148 -0.02421 0.03923
v 0.51300 -0.03100 0.07050
v 0.53692 -0.02432 0.08911
v -0.50900 -0.03100 0.09150
v -0.53635 -0.02430 0.08181
v 0.50600 -0.03100 0.11050
v 0.52796 -0.02433 0.13085
v -0.50000 -0.03100 0.13150
v -0.52882 -0.02434 0.12347
v 0.49600 -0.03100 0.14950
v 0.51532 -0.02434 0.17190
v -0.48750 -0.03300 0.17250
v -0.51778 -0.02447 0.16467
v 0.48350 -0.03300 0.18650
v 0.50065 -0.02425 0.21110
v -0.47250 -0.03300 0.21050
v -0.50259 -0.02416 0.20504
v 0.46225 -0.03200 0.23275
v 0.48285 -0.02453 0.25101
v -0.45550 -0.03100 0.24500
v 0.44850 -0.03300 0.25950
v -0.48556 -0.02437 0.24370
v 0.46189 -0.02418 0.28715
v -0.43550 -0.03100 0.28000
v 0.42650 -0.03300 0.29350
v -0.46441 -0.02429 0.28069
v 0.43843 -0.02431 0.32263
v -0.41200 -0.03100 0.31300
v 0.40100 -0.03100 0.32800
v -0.44120 -0.02453 0.31622
v 0.41172 -0.02415 0.35611
v -0.38450 -0.03300 0.34650
v 0.37400 -0.03100 0.35850
v -0.41571 -0.02459 0.34978
v 0.38192 -0.02428 0.38686
v -0.35800 -0.03100 0.37400
v 0.34500 -0.03100 0.38650
v -0.38582 -0.02421 0.38149
v -0.32550 -0.03300 0.40150
v 0.35028 -0.02458 0.41619
v 0.31300 -0.03100 0.41250
v -0.35627 -0.02468 0.41167
v -0.29500 -0.03100 0.42550
v 0.31666 -0.02451 0.44240
v 0.28000 -0.03100 0.43550
v -0.26100 -0.03100 0.44750
v -0.32261 -0.02437 0.43862
v 0.24500 -0.03100 0.45650
v 0.28081 -0.02427 0.46543
v -0.22500 -0.03100 0.46650
v -0.28724 -0.02431 0.46194
v 0.20850 -0.03100 0.47400
v 0.24360 -0.02424 0.48512
v -0.18550 -0.03300 0.48350
v 0.17050 -0.03100 0.48900
v -0.24948 -0.02437 0.48302
v -0.14950 -0.03100 0.49600
v 0.20467 -0.02438 0.50405
v 0.13150 -0.03100 0.50100
v -0.11000 -0.03100 0.50600
v -0.21143 -0.02456 0.50045
v 0.09150 -0.03100 0.50950
v 0.16501 -0.02458 0.51881
v -0.06950 -0.03100 0.51300
v 0.05150 -0.03100 0.51550
v 0.00300 -0.03200 0.51725
v -0.02950 -0.03100 0.51700
v -0.17149 -0.02449 0.51540
v 0.12350 -0.02434 0.52969
v -0.12978 -0.02411 0.52769
v 0.08182 -0.02436 0.53788
v -0.08826 -0.02435 0.53700
v 0.03929 -0.02433 0.54287
v -0.04665 -0.02470 0.54168
v -0.00357 -0.02419 0.54365
v -0.02642 -0.06980 -0.54281
v 0.01654 -0.06981 -0.54277
v -0.06908 -0.06997 -0.53879
v 0.05864 -0.06989 -0.53951
v -0.11040 -0.06993 -0.53130
v 0.10132 -0.06987 -0.53405
v -0.15268 -0.06977 -0.52103
v 0.14226 -0.06983 -0.52412
v -0.01850 -0.07000 -0.51650
v -0.19287 -0.06971 -0.50723
v 0.02150 -0.07000 -0.51600
v -0.05900 -0.07000 -0.51300
v 0.06250 -0.07000 -0.51300
v -0.09900 -0.07000 -0.50700
v 0.18359 -0.07001 -0.51097
v 0.10250 -0.07000 -0.50650
v -0.13850 -0.07000 -0.49750
v -0.23224 -0.06998 -0.49067
v 0.14200 -0.07000 -0.49650
v -0.17750 -0.07000 -0.48500
v 0.22298 -0.06981 -0.49517
v -0.26967 -0.06974 -0.47023
v 0.18050 -0.07000 -0.48400
v -0.21500 -0.07000 -0.46950
v 0.26062 -0.06989 -0.47608
v -0.30628 -0.07000 -0.44854
v 0.21800 -0.07000 -0.46850
v -0.25100 -0.07000 -0.45150
v 0.25400 -0.07000 -0.45050
v -0.28600 -0.07000 -0.43050
v 0.29723 -0.06972 -0.45493
v -0.33990 -0.06985 -0.42322
v 0.28850 -0.07000 -0.42900
v -0.31850 -0.07000 -0.40650
v 0.33212 -0.06979 -0.42958
v -0.37259 -0.06993 -0.39515
v 0.32150 -0.07000 -0.40500
v -0.34950 -0.07000 -0.38050
v 0.36516 -0.06993 -0.40225
v -0.40186 -0.06991 -0.36453
v 0.35250 -0.07000 -0.37850
v -0.37850 -0.07000 -0.35150
v 0.39527 -0.06985 -0.37256
v -0.42930 -0.06975 -0.33119
v 0.38050 -0.07000 -0.34950
v -0.40500 -0.07000 -0.32050
v 0.42324 -0.06992 -0.33981
v -0.45421 -0.06995 -0.29688
v 0.40700 -0.07000 -0.31850
v -0.42900 -0.07000 -0.28800
v 0.44842 -0.06997 -0.30595
v -0.47626 -0.06972 -0.26049
v 0.43100 -0.07000 -0.28600
v -0.45000 -0.07000 -0.25350
v 0.47144 -0.06982 -0.26971
v -0.49487 -0.06988 -0.22203
v 0.45200 -0.07000 -0.25100
v -0.46850 -0.07000 -0.21750
v 0.49167 -0.06998 -0.23224
v -0.51100 -0.06973 -0.18251
v 0.47050 -0.07000 -0.21500
v -0.48400 -0.07000 -0.18000
v 0.50751 -0.06971 -0.19289
v -0.52378 -0.07012 -0.14225
v 0.48600 -0.07000 -0.17750
v -0.49650 -0.07000 -0.14150
v 0.52086 -0.06979 -0.15229
v -0.53383 -0.06989 -0.10033
v 0.49800 -0.07000 -0.13850
v -0.50600 -0.07000 -0.10200
v 0.53213 -0.06986 -0.11063
v -0.53971 -0.06989 -0.05832
v 0.50750 -0.07000 -0.09900
v -0.51250 -0.07000 -0.06150
v 0.53898 -0.06986 -0.06926
v -0.54269 -0.07000 -0.01581
v 0.51400 -0.07000 -0.05950
v -0.51600 -0.07000 -0.02150
v 0.54236 -0.06975 -0.02637
v 0.51650 -0.07000 -0.01850
v -0.51650 -0.07000 0.01950
v -0.54273 -0.06989 0.02727
v 0.51700 -0.07000 0.02150
v -0.51300 -0.07000 0.05950
v 0.54369 -0.07000 0.01649
v -0.53881 -0.06967 0.06950
v 0.51350 -0.07000 0.06250
v -0.50700 -0.07000 0.10000
v 0.54045 -0.06990 0.05867
v -0.53130 -0.06993 0.11140
v 0.50700 -0.07000 0.10250
v -0.49750 -0.07000 0.13950
v 0.53390 -0.06983 0.10121
v -0.52125 -0.06987 0.15297
v 0.49750 -0.07000 0.14200
v -0.48500 -0.07000 0.17800
v 0.52489 -0.06980 0.14216
v -0.50778 -0.07000 0.19305
v 0.48500 -0.07000 0.18050
v -0.46950 -0.07000 0.21550
v 0.51221 -0.07000 0.18324
v -0.49058 -0.06991 0.23237
v 0.46900 -0.07000 0.21800
v -0.45100 -0.07000 0.25200
v 0.49624 -0.06976 0.22262
v -0.47065 -0.06985 0.27072
v 0.45050 -0.07000 0.25400
v -0.43000 -0.07000 0.28600
v 0.47672 -0.07000 0.26091
v -0.44856 -0.06988 0.30640
v 0.42900 -0.07000 0.28850
v -0.40650 -0.07000 0.31950
v 0.45505 -0.06983 0.29748
v -0.42331 -0.06992 0.34084
v 0.40550 -0.07000 0.32150
v -0.38050 -0.07000 0.35000
v 0.43027 -0.06994 0.33256
v -0.39540 -0.06996 0.37271
v 0.37900 -0.07000 0.35250
v -0.35150 -0.07000 0.37900
v 0.40283 -0.06991 0.36478
v -0.36424 -0.06984 0.40243
v 0.35050 -0.07000 0.38050
v -0.32050 -0.07000 0.40500
v 0.37283 -0.06972 0.39524
v -0.33157 -0.06989 0.42987
v 0.31950 -0.07000 0.40700
v -0.28800 -0.07000 0.42900
v 0.34099 -0.06992 0.42345
v -0.29712 -0.07007 0.45432
v 0.28650 -0.07000 0.43100
v -0.25350 -0.07000 0.45050
v 0.25200 -0.07000 0.45200
v -0.21750 -0.07000 0.46900
v 0.30634 -0.06983 0.44853
v -0.26071 -0.06982 0.47681
v 0.21550 -0.07000 0.47050
v -0.18000 -0.07000 0.48500
v 0.27071 -0.06990 0.47172
v -0.22254 -0.07008 0.49597
v 0.17800 -0.07000 0.48550
v -0.14150 -0.07000 0.49750
v 0.23249 -0.06984 0.49196
v 0.13950 -0.07000 0.49800
v -0.10200 -0.07000 0.50700
v -0.18295 -0.06982 0.51220
v 0.10000 -0.07000 0.50750
v -0.06150 -0.07000 0.51350
v 0.05950 -0.07000 0.51400
v -0.02150 -0.07000 0.51700
v 0.01950 -0.07000 0.51650
v 0.19290 -0.07005 0.50791
v -0.14215 -0.07009 0.52457
v 0.15270 -0.06984 0.52129
v -0.10034 -0.06993 0.53377
v 0.11151 -0.06990 0.53158
v -0.05843 -0.06996 0.53987
v 0.06952 -0.06989 0.53864
v -0.01582 -0.06999 0.54305
v 0.02721 -0.06985 0.54226
v 0.18784 -0.08240 -0.50349
v -0.03430 -0.08247 -0.53632
v -0.24941 -0.08237 -0.47587
v 0.34720 -0.08283 -0.40854
v -0.42194 -0.08247 -0.33245
v -0.52492 -0.08221 -0.15803
v 0.47926 -0.08200 -0.23038
v -0.50790 -0.08200 -0.14396
v 0.53057 -0.08200 -0.01789
v -0.53658 -0.08238 0.03491
v -0.50944 -0.08247 0.17576
v 0.50652 -0.08200 0.15460
v 0.52410 -0.08205 0.15821
v 0.42911 -0.08200 0.31261
v -0.42827 -0.08200 0.31573
v 0.41949 -0.08221 0.34848
v -0.23896 -0.08227 0.48178
v 0.16817 -0.08200 0.50555
v -0.12062 -0.08222 0.52272
v 0.24026 -0.09009 0.49185
v 0.01840 -0.08200 0.54776
v -0.06103 -0.11565 -0.54152
v 0.39768 -0.11636 0.36873
v -0.35183 -0.11697 -0.41587
v 0.46197 -0.08621 -0.29461
v 0.54540 -0.08489 -0.06755
v -0.53441 -0.11639 0.11513
v 0.52951 -0.11661 0.11178
v -0.41262 -0.08600 0.36386
v -0.12957 -0.11701 -0.50719
v 0.13941 -0.11636 -0.52444
v 0.28612 -0.11609 -0.45870
v 0.38526 -0.11609 -0.37863
v -0.36303 -0.11697 -0.38109
v 0.47400 -0.11660 -0.25985
v 0.46908 -0.11701 -0.23387
v 0.51398 -0.11580 -0.17535
v -0.50525 -0.11606 -0.18586
v 0.53473 -0.11706 -0.00998
v -0.53279 -0.11591 -0.09134
v -0.51780 -0.11700 0.07883
v 0.51703 -0.11702 0.08661
v 0.49850 -0.11700 0.16250
v -0.49750 -0.11700 0.16250
v 0.49689 -0.11606 0.22008
v -0.47750 -0.11700 0.21350
v 0.43940 -0.11702 0.28592
v -0.45350 -0.11700 0.26250
v -0.46667 -0.11681 0.27382
v -0.41331 -0.11702 0.32179
v 0.35050 -0.11700 0.38950
v -0.39012 -0.11636 0.37449
v 0.35250 -0.11700 0.39150
v 0.30850 -0.11700 0.42350
v 0.32398 -0.11681 0.43386
v 0.26250 -0.11700 0.45350
v -0.28448 -0.11701 0.44002
v 0.18469 -0.11701 0.49120
v 0.19425 -0.11696 0.50676
v -0.26641 -0.11621 0.47695
v -0.16150 -0.11700 0.49850
v 0.10950 -0.11700 0.51250
v -0.08597 -0.11701 0.51707
v 0.05550 -0.11700 0.52050
v 0.05119 -0.11595 0.54408
v -0.09170 -0.11684 0.53301
v 0.03019 -0.11972 -0.51996
v 0.09198 -0.11986 -0.51297
v -0.05450 -0.11900 -0.51750
v 0.14259 -0.11994 -0.50171
v -0.10850 -0.11900 -0.50950
v 0.19115 -0.12008 -0.48519
v -0.16050 -0.11900 -0.49550
v -0.18606 -0.11645 -0.50430
v 0.32467 -0.11946 -0.40786
v -0.34850 -0.11900 -0.38650
v 0.38750 -0.11900 -0.34850
v -0.38650 -0.11900 -0.34850
v 0.42150 -0.11900 -0.30550
v -0.42150 -0.11900 -0.30550
v 0.45150 -0.11900 -0.26050
v -0.45067 -0.11672 -0.29415
v 0.47650 -0.11900 -0.21150
v -0.48727 -0.11902 -0.18540
v 0.49550 -0.11900 -0.16050
v -0.50950 -0.11900 -0.10850
v 0.51624 -0.11914 -0.07612
v -0.51750 -0.11900 -0.05450
v 0.53606 -0.11657 0.04943
v -0.52050 -0.11900 0.00050
v 0.51850 -0.11900 0.05450
v -0.51750 -0.11900 0.05450
v 0.50950 -0.11900 0.10850
v -0.50950 -0.11900 0.10850
v 0.49550 -0.11900 0.16150
v -0.49550 -0.11900 0.16150
v 0.47650 -0.11900 0.21250
v -0.47550 -0.11900 0.21250
v 0.45150 -0.11900 0.26050
v -0.45050 -0.11900 0.26050
v 0.42150 -0.11900 0.30650
v -0.42150 -0.11900 0.30650
v 0.38750 -0.11900 0.34850
v 0.34850 -0.11900 0.38750
v -0.34850 -0.11900 0.38750
v 0.30650 -0.11900 0.42150
v -0.30550 -0.11900 0.42150
v 0.26050 -0.11900 0.45150
v -0.26050 -0.11900 0.45150
v 0.21250 -0.11900 0.47650
v -0.21150 -0.11900 0.47650
v 0.16150 -0.11900 0.49550
v -0.16050 -0.11900 0.49550
v 0.10850 -0.11900 0.50950
v -0.10850 -0.11900 0.50950
v 0.05450 -0.11900 0.51850
v -0.05450 -0.11900 0.51850
v 0.00050 -0.11900 0.52150
v 0.00050 -0.12100 -0.52050
v -0.05450 -0.12100 -0.51750
v -0.10850 -0.12100 -0.50950
v -0.21150 -0.12250 -0.47550
v -0.27571 -0.11797 -0.44409
v 0.27250 -0.12020 -0.44502
v -0.30550 -0.12100 -0.42150
v -0.34850 -0.12100 -0.38650
v 0.37976 -0.11995 -0.35726
v -0.38650 -0.12100 -0.34850
v 0.42150 -0.12100 -0.30550
v -0.42150 -0.12100 -0.30550
v 0.45150 -0.12100 -0.26050
v -0.45050 -0.12100 -0.26050
v 0.47650 -0.12100 -0.21150
v -0.47550 -0.12250 -0.21150
v 0.49550 -0.12100 -0.16050
v -0.49550 -0.12100 -0.16050
v 0.50950 -0.12100 -0.10850
v -0.50950 -0.12100 -0.10850
v 0.51850 -0.12100 -0.05450
v -0.51750 -0.12100 -0.05450
v 0.52150 -0.12100 0.00050
v -0.52050 -0.12100 0.00050
v 0.51850 -0.12100 0.05450
v -0.51750 -0.12100 0.05450
v 0.50950 -0.12100 0.10850
v -0.50950 -0.12100 0.10850
v 0.49550 -0.12100 0.16150
v -0.49550 -0.12100 0.16150
v 0.47650 -0.12100 0.21250
v -0.47550 -0.12100 0.21250
v 0.45150 -0.12100 0.26050
v -0.45050 -0.12100 0.26050
v 0.42150 -0.12100 0.30650
v -0.41489 -0.11997 0.31580
v 0.38750 -0.12100 0.34850
v -0.38650 -0.12100 0.34850
v 0.34850 -0.12100 0.38750
v -0.34850 -0.12100 0.38750
v 0.30650 -0.12100 0.42150
v -0.30550 -0.12100 0.42150
v 0.26050 -0.12100 0.45150
v -0.26050 -0.12100 0.45150
v 0.21250 -0.12100 0.47650
v -0.21150 -0.12100 0.47650
v 0.16150 -0.12100 0.49550
v -0.16050 -0.12100 0.49550
v 0.10850 -0.12100 0.50950
v -0.10850 -0.12100 0.50950
v 0.05450 -0.12100 0.51850
v -0.05450 -0.12100 0.51850
v 0.00050 -0.12100 0.52150
v 0.00050 -0.12400 -0.52050
v 0.01308 -0.12644 -0.52130
v -0.05450 -0.12400 -0.51750
v 0.10850 -0.12400 -0.50950
v -0.10850 -0.12400 -0.50950
v 0.16150 -0.12400 -0.49550
v 0.21250 -0.12400 -0.47550
v 0.26050 -0.12400 -0.45050
v -0.26050 -0.12400 -0.45050
v 0.30650 -0.12400 -0.42150
v -0.30550 -0.12400 -0.42150
v 0.34850 -0.12400 -0.38650
v -0.34850 -0.12400 -0.38650
v 0.38750 -0.12400 -0.34850
v -0.38650 -0.12400 -0.34850
v 0.42150 -0.12400 -0.30550
v -0.42150 -0.12400 -0.30550
v 0.45150 -0.12400 -0.26050
v -0.45050 -0.12400 -0.26050
v 0.47650 -0.12400 -0.21150
v 0.49550 -0.12400 -0.16050
v -0.49550 -0.12400 -0.16050
v 0.50950 -0.12400 -0.10850
v -0.50950 -0.12400 -0.10850
v 0.51850 -0.12400 -0.05450
v -0.51750 -0.12400 -0.05450
v 0.52150 -0.12400 0.00050
v -0.52050 -0.12400 0.00050
v 0.51850 -0.12400 0.05450
v -0.51750 -0.12400 0.05450
v 0.50950 -0.12400 0.10850
v -0.50950 -0.12400 0.10850
v 0.49550 -0.12400 0.16150
v -0.49550 -0.12400 0.16150
v 0.47650 -0.12400 0.21250
v -0.47550 -0.12400 0.21250
v 0.45150 -0.12400 0.26050
v -0.45050 -0.12400 0.26050
v 0.42150 -0.12400 0.30650
v -0.42150 -0.12400 0.30650
v 0.38750 -0.12400 0.34850
v -0.38650 -0.12400 0.34850
v 0.34850 -0.12400 0.38750
v -0.34850 -0.12400 0.38750
v 0.30650 -0.12400 0.42150
v -0.30550 -0.12400 0.42150
v 0.26050 -0.12400 0.45150
v -0.26050 -0.12400 0.45150
v 0.21250 -0.12400 0.47650
v -0.21150 -0.12400 0.47650
v 0.16150 -0.12400 0.49550
v -0.16050 -0.12400 0.49550
v 0.10850 -0.12400 0.50950
v -0.10850 -0.12400 0.50950
v 0.05450 -0.12400 0.51850
v -0.05450 -0.12400 0.51850
v 0.00050 -0.12400 0.52150
v 0.00050 -0.12500 -0.52050
v -0.05450 -0.12500 -0.51750
v 0.16150 -0.12500 -0.49550
v -0.16050 -0.12500 -0.49550
v 0.21250 -0.12500 -0.47550
v -0.21150 -0.12500 -0.47550
v 0.26050 -0.12500 -0.45050
v -0.26050 -0.12500 -0.45050
v 0.30650 -0.12500 -0.42150
v -0.30550 -0.12500 -0.42150
v 0.34850 -0.12500 -0.38650
v -0.34850 -0.12500 -0.38650
v 0.38750 -0.12500 -0.34850
v -0.38650 -0.12500 -0.34850
v 0.42150 -0.12500 -0.30550
v -0.42150 -0.12500 -0.30550
v 0.45150 -0.12500 -0.26050
v -0.44489 -0.13176 -0.25885
v 0.47650 -0.12500 -0.21150
v 0.49550 -0.12500 -0.16050
v 0.50950 -0.12500 -0.10850
v -0.50950 -0.12500 -0.10850
v 0.51850 -0.12500 -0.05450
v -0.51750 -0.12500 -0.05450
v 0.52150 -0.12500 0.00050
v -0.52050 -0.12500 0.00050
v 0.51850 -0.12500 0.05450
v -0.51750 -0.12500 0.05450
v 0.50950 -0.12500 0.10850
v -0.50950 -0.12500 0.10850
v 0.49550 -0.12500 0.16150
v -0.49550 -0.12500 0.16150
v 0.47650 -0.12500 0.21250
v -0.47550 -0.12500 0.21250
v 0.45150 -0.12500 0.26050
v 0.42150 -0.12500 0.30650
v 0.38750 -0.12500 0.34850
v -0.38650 -0.12500 0.34850
v 0.34850 -0.12500 0.38750
v -0.34850 -0.12500 0.38750
v 0.30650 -0.12500 0.42150
v -0.30550 -0.12500 0.42150
v 0.26050 -0.12500 0.45150
v -0.23511 -0.12504 0.46622
v 0.21250 -0.12500 0.47650
v 0.16150 -0.12500 0.49550
v 0.10850 -0.12500 0.50950
v -0.10850 -0.12500 0.50950
v 0.05450 -0.12500 0.51850
v -0.05450 -0.12500 0.51850
v 0.00050 -0.12500 0.52150
v -0.14550 -0.12600 -0.27662
v 0.10463 -0.12600 -0.29537
v -0.30150 -0.12600 -0.09750
v 0.29250 -0.12600 -0.11188
v -0.29225 -0.12600 0.11238
v 0.28987 -0.12600 0.12925
v -0.11538 -0.12600 0.28913
v 0.11050 -0.12600 0.29900
v 0.16096 -0.13209 -0.48827
v -0.30280 -0.13305 -0.40885
v -0.49745 -0.13203 -0.12361
v 0.48232 -0.13278 -0.16543
v -0.46902 -0.13214 0.21063
v 0.50862 -0.13294 0.08929
v -0.39126 -0.13182 0.33284
v -0.27989 -0.13256 0.42779
v 0.36944 -0.13360 0.36178
v -0.11836 -0.13208 0.49916
v 0.10610 -0.13280 0.50524
v -0.01912 -0.12895 -0.32787
v 0.18029 -0.12894 -0.27450
v -0.20829 -0.12895 -0.25324
v 0.30644 -0.12895 -0.11749
v -0.31750 -0.12897 -0.08210
v 0.31718 -0.12899 0.08559
v -0.30544 -0.12896 0.11958
v 0.20590 -0.12896 0.25591
v -0.17522 -0.12896 0.27722
v 0.01713 -0.12896 0.32778
v 0.33989 -0.13312 -0.38012
v 0.40730 -0.13295 -0.30807
v 0.40850 -0.13200 -0.29650
v -0.11050 -0.13223 -0.50479
v -0.17157 -0.14583 -0.31002
v -0.32315 -0.14531 -0.15267
v 0.30988 -0.14486 -0.16869
v -0.33884 -0.14090 0.06807
v 0.35504 -0.14554 0.05057
v -0.28347 -0.14604 0.21282
v 0.26981 -0.14459 0.23086
v -0.49319 -0.14104 0.03071
v -0.02458 -0.14498 -0.48600
v 0.21575 -0.14556 -0.44133
v -0.19513 -0.14500 -0.44400
v -0.34144 -0.14502 -0.34565
v 0.33818 -0.14486 -0.35186
v -0.46680 -0.14559 -0.14440
v 0.46629 -0.14497 -0.14624
v 0.47037 -0.14496 0.15166
v -0.38867 -0.14497 0.29749
v 0.28083 -0.14617 0.39369
v -0.16834 -0.14533 0.46020
v 0.09822 -0.14499 0.47851
v 0.08788 -0.14582 0.34516
v -0.05071 -0.15145 -0.46801
v 0.09977 -0.14590 -0.35189
v -0.01172 -0.15010 -0.38446
v -0.24150 -0.15200 -0.33250
v 0.34700 -0.15100 -0.31169
v -0.41668 -0.15154 -0.21228
v -0.45842 -0.15433 0.05936
v 0.40850 -0.15200 0.04350
v 0.46405 -0.15106 0.02547
v 0.41358 -0.15318 0.21111
v -0.37727 -0.15227 0.27399
v -0.16377 -0.15274 0.43971
v 0.05637 -0.15270 0.46374
v -0.16809 -0.15408 0.41613
v -0.13221 -0.14579 0.33180
v 0.26640 -0.15099 0.38719
v 0.17712 -0.15237 -0.42886
v 0.25212 -0.15401 -0.37175
v -0.26709 -0.15206 -0.37712
v 0.43975 -0.15317 -0.14339
usemtl m024
f 1351 1323 1289
f 1325 1326 1301
f 1328 1329 1309
f 1329 1327 1304
f 1327 1324 1292
f 1324 1322 1280
f 1322 1341 1276
f 1341 1340 1272
f 1340 1319 1266
f 1343 1320 1267
f 1320 1277 1273
f 1321 1351 1285
f 1285 1287 1232
f 1287 1289 1234
f 1289 1291 1236
f 1291 1293 1238
f 1293 1323 1240
f 1323 1325 1242
f 1325 1297 1244
f 1297 1299 1246
f 1299 1301 1248
f 1301 1303 1250
f 1303 1328 1254
f 1328 1307 1256
f 1307 1309 1258
f 1309 1310 1259
f 1310 1308 1257
f 1308 1306 1255
f 1306 1305 1253
f 1305 1304 1251
f 1304 1302 1249
f 1302 1300 1247
f 1300 1298 1245
f 1298 1296 1243
f 1296 1295 1241
f 1295 1294 1239
f 1294 1292 1237
f 1292 1290 1235
f 1290 1288 1233
f 1288 1286 1231
f 1286 1284 1229
f 1284 1282 1227
f 1282 1280 1225
f 1280 1279 1223
f 1279 1278 1222
f 1278 1276 1220
f 1276 1274 1218
f 1274 1272 1216
f 1272 1270 1214
f 1270 1268 1212
f 1268 1266 1210
f 1266 1264 1209
f 1264 1262 1208
f 1262 1319 1206
f 1204 1260 1203
f 1260 1261 1205
f 1261 1343 1207
f 1263 1265 1153
f 1265 1267 1211
f 1267 1269 1213
f 1269 1271 1215
f 1271 1273 1217
f 1273 1275 1219
f 1275 1277 1221
f 1277 1321 1224
f 1321 1281 1226
f 1281 1283 1228
f 1283 1285 1230
f 1230 1232 1175
f 1232 1234 1177
f 1234 1236 1179
f 1236 1238 1181
f 1238 1240 1183
f 1240 1242 1185
f 1242 1244 1187
f 1244 1246 1189
f 1246 1248 1191
f 1248 1250 1193
f 1250 1252 1195
f 1252 1254 1197
f 1254 1256 1199
f 1256 1258 1201
f 1258 1259 1202
f 1259 1257 1200
f 1257 1255 1198
f 1255 1253 1196
f 1253 1251 1194
f 1251 1249 1192
f 1249 1247 1190
f 1247 1245 1188
f 1245 1243 1186
f 1243 1241 1184
f 1241 1239 1182
f 1239 1237 1180
f 1237 1235 1178
f 1235 1233 1176
f 1233 1231 1174
f 1231 1229 1172
f 1229 1227 1170
f 1227 1225 1168
f 1225 1223 1166
f 1223 1222 1164
f 1222 1220 1162
f 1220 1218 1160
f 1218 1216 1158
f 1216 1214 1106
f 1214 1212 1155
f 1212 1210 1155
f 1210 1209 1103
f 1209 1208 1101
f 1208 1206 1099
f 1206 1204 1098
f 1204 1203 1150
f 1203 1205 1151
f 1205 1207 1152
f 1153 1211 1154
f 1211 1213 1156
f 1213 1215 1157
f 1215 1217 1159
f 1217 1219 1161
f 1219 1221 1163
f 1165 1224 1167
f 1224 1226 1169
f 1226 1228 1171
f 1228 1230 1173
f 1173 1175 1123
f 1175 1177 1125
f 1177 1179 1127
f 1179 1181 1129
f 1181 1183 1131
f 1183 1185 1133
f 1187 1189 1136
f 1189 1191 1138
f 1191 1193 1140
f 1193 1195 1142
f 1195 1197 1144
f 1197 1199 1146
f 1199 1201 1148
f 1201 1202 1149
f 1202 1200 1147
f 1200 1198 1145
f 1198 1196 1143
f 1196 1194 1141
f 1194 1192 1139
f 1192 1190 1137
f 1190 1188 1135
f 1188 1186 1134
f 1186 1184 1132
f 1184 1182 1130
f 1182 1180 1128
f 1180 1178 1126
f 1178 1176 1124
f 1176 1174 1122
f 1174 1172 1120
f 1172 1170 1118
f 1170 1168 1118
f 1168 1166 1116
f 1166 1164 1114
f 1164 1162 1112
f 1162 1160 1110
f 1160 1158 1108
f 1150 1151 1100
f 1151 1152 1102
f 1152 1263 1104
f 1263 1153 1105
f 1154 1156 1065
f 1156 1157 1107
f 1157 1159 1109
f 1159 1161 1111
f 1161 1163 1113
f 1163 1165 1115
f 1165 1167 1115
f 1167 1169 1117
f 1169 1171 1119
f 1171 1173 1121
f 1121 1123 1072
f 1123 1125 1072
f 1125 1127 1075
f 1127 1129 1077
f 1129 1131 1079
f 1131 1133 1081
f 1133 1185 1081
f 1185 1136 1083
f 1136 1138 1088
f 1138 1140 1088
f 1140 1142 1091
f 1142 1144 1092
f 1144 1146 1094
f 1146 1148 1094
f 1148 1149 1097
f 1149 1147 1095
f 1147 1145 1093
f 1145 1143 1089
f 1143 1141 1089
f 1141 1139 1087
f 1139 1137 1085
f 1137 1135 1082
f 1135 1134 1054
f 1134 1132 1078
f 1132 1130 1078
f 1130 1128 1076
f 1128 1126 1074
f 1126 1124 1073
f 1124 1122 1073
f 1120 1118 1070
f 1118 1116 1068
f 1116 1114 1067
f 1114 1112 1067
f 1112 1110 1066
f 1110 1108 1064
f 1108 1158 1064
f 1158 1106 1063
f 1106 1155 1063
f 1155 1103 1062
f 1103 1101 1062
f 1101 1099 1062
f 1099 1098 1053
f 1098 1100 1053
f 1100 1102 1061
f 1102 1104 1061
f 1107 1109 1065
f 1109 1111 1065
f 1113 1115 1069
f 1115 1117 1069
f 1117 1119 1071
f 1119 1121 1071
f 1083 1088 1091
f 1097 1095 1096
f 1095 1093 1096
f 1093 1089 1090
f 1089 1087 1090
f 1085 1082 1084
f 1068 1067 1066
f 1154 1065 1055
f 1072 1075 1058
f 1075 1077 1080
f 1077 1079 1080
f 1079 1081 1080
f 1090 1085 1086
f 1085 1084 1054
f 1105 1154 1055
f 1076 1059 1044
f 1113 1069 1037
f 1341 1322 1342
f 1323 1351 1360
f 1326 1360 1362
f 1328 1362 1363
f 1329 1363 1361
f 1327 1361 1359
f 1324 1359 1358
f 1322 1358 1356
f 1341 1356 1353
f 1319 1353 1352
f 1343 1352 1354
f 1343 1354 1355
f 1277 1355 1357
f 1351 1371 1375
f 1360 1375 1376
f 1362 1376 1377
f 1363 1377 1380
f 1359 1374 1373
f 1358 1373 1384
f 1358 1384 1369
f 1356 1369 1381
f 1353 1381 1365
f 1354 1365 1383
f 1355 1383 1370
f 1376 1375 1378
f 1380 1377 1374
f 1373 1374 1384
f 1369 1384 1382
f 1315 1317 1349
f 1317 1318 1364
f 1318 1316 1350
f 1316 1314 1348
f 1314 1312 1366
f 1312 1311 1366
f 1311 1313 1345
f 1313 1315 1347
f 1346 1366 1384
f 1345 1347 1371
f 1058 1080 1042
f 1083 1091 1060
f 1091 1097 1050
f 1097 1096 1052
f 1086 1054 1047
f 1068 1066 1056
f 1063 1062 1032
f 1062 1053 1033
f 1053 1105 1034
f 1105 1055 1034
f 1055 1113 1036
f 1069 1071 1037
f 1071 1058 1041
f 1042 1060 1046
f 1052 1051 1049
f 1047 1044 1043
f 1044 1057 1040
f 1057 1056 1038
f 1042 1046 656
f 1050 1049 661
f 1045 1043 655
f 154 205 207
f 176 207 209
f 186 209 211
f 188 211 212
f 184 212 210
f 177 210 208
f 152 208 206
f 172 206 204
f 169 204 202
f 166 202 200
f 123 200 198
f 165 198 199
f 141 199 201
f 170 201 203
f 173 203 205
f 205 653 656
f 207 656 657
f 209 657 659
f 211 659 661
f 212 661 660
f 210 660 658
f 208 658 655
f 206 655 654
f 204 654 652
f 202 652 649
f 200 649 648
f 198 648 647
f 199 647 650
f 201 650 651
f 203 651 653
f 653 1042 656
f 656 1046 657
f 657 1048 659
f 659 1050 661
f 661 1049 660
f 660 1047 658
f 658 1045 655
f 654 1038 652
f 652 1035 649
f 648 1033 647
f 647 1034 650
f 650 1036 651
f 651 1039 653
f 961 959 804
f 805 804 959
f 946 948 783
f 782 783 948
f 942 944 779
f 778 779 944
f 957 955 800
f 801 800 955
f 950 951 787
f 786 787 951
f 947 949 792
f 793 792 949
f 953 952 796
f 797 796 952
f 956 954 791
f 790 791 954
f 943 945 789
f 788 789 945
f 964 962 798
f 799 798 962
f 960 958 794
f 795 794 958
f 939 941 785
f 784 785 941
f 935 937 781
f 780 781 937
f 972 970 806
f 807 806 970
f 968 966 802
f 803 802 966
f 931 933 777
f 776 777 933
f 927 929 773
f 772 773 929
f 980 978 814
f 815 814 978
f 976 974 810
f 811 810 974
f 923 925 769
f 768 769 925
f 919 921 765
f 764 765 921
f 988 986 821
f 823 821 986
f 984 982 817
f 819 817 982
f 915 917 762
f 760 762 917
f 992 990 825
f 827 825 990
f 907 909 754
f 751 754 909
f 911 913 758
f 756 758 913
f 996 994 829
f 831 829 994
f 1000 998 833
f 836 833 998
f 897 901 746
f 743 746 901
f 903 905 750
f 747 750 905
f 1006 1002 837
f 840 837 1002
f 1010 1004 841
f 845 841 1004
f 889 895 739
f 734 739 895
f 893 899 742
f 738 742 899
f 1014 1008 844
f 849 844 1008
f 1023 1012 848
f 854 848 1012
f 878 888 732
f 723 732 888
f 881 891 735
f 729 735 891
f 1025 1015 851
f 859 851 1015
f 1027 1018 855
f 865 855 1018
f 874 883 725
f 716 725 883
f 876 885 728
f 718 728 885
f 1029 1020 858
f 867 858 1020
f 1031 1022 861
f 869 861 1022
f 873 882 720
f 712 720 882
f 872 880 722
f 714 722 880
f 1030 1021 862
f 871 862 1021
f 1028 1019 863
f 870 863 1019
f 877 887 724
f 715 724 887
f 875 884 721
f 713 721 884
f 1026 1016 860
f 868 860 1016
f 1024 1013 856
f 866 856 1013
f 886 894 730
f 719 730 894
f 879 890 727
f 717 727 890
f 1017 1009 853
f 864 853 1009
f 1011 1005 850
f 857 850 1005
f 896 900 737
f 731 737 900
f 892 898 733
f 726 733 898
f 1007 1003 846
f 852 846 1003
f 1001 999 842
f 847 842 999
f 906 908 744
f 740 744 908
f 902 904 741
f 736 741 904
f 997 995 839
f 843 839 995
f 993 991 835
f 838 835 991
f 914 916 752
f 749 752 916
f 910 912 748
f 745 748 912
f 989 987 832
f 834 832 987
f 985 983 828
f 830 828 983
f 922 924 759
f 757 759 924
f 918 920 755
f 753 755 920
f 981 979 824
f 826 824 979
f 977 975 820
f 822 820 975
f 930 932 767
f 766 767 932
f 926 928 763
f 761 763 928
f 973 971 816
f 818 816 971
f 969 967 812
f 813 812 967
f 938 940 775
f 774 775 940
f 934 936 771
f 770 771 936
f 965 963 808
f 809 808 963
f 301 299 476
f 477 476 299
f 288 290 455
f 454 455 290
f 284 286 451
f 450 451 286
f 297 295 472
f 473 472 295
f 294 293 459
f 458 459 293
f 287 289 465
f 464 465 289
f 291 292 468
f 469 468 292
f 298 296 463
f 462 463 296
f 283 285 461
f 460 461 285
f 306 304 470
f 471 470 304
f 302 300 466
f 467 466 300
f 279 281 457
f 456 457 281
f 275 277 453
f 452 453 277
f 314 312 478
f 479 478 312
f 310 308 474
f 475 474 308
f 271 273 449
f 448 449 273
f 267 269 445
f 444 445 269
f 322 320 486
f 487 486 320
f 318 316 482
f 483 482 316
f 263 265 441
f 440 441 265
f 259 261 437
f 436 437 261
f 330 328 493
f 495 493 328
f 326 324 490
f 491 490 324
f 255 257 434
f 432 434 257
f 334 332 497
f 499 497 332
f 247 249 426
f 423 426 249
f 251 253 430
f 428 430 253
f 338 336 501
f 504 501 336
f 342 340 505
f 508 505 340
f 237 241 418
f 415 418 241
f 243 245 422
f 419 422 245
f 348 344 509
f 512 509 344
f 352 346 513
f 517 513 346
f 227 235 411
f 406 411 235
f 233 239 414
f 410 414 239
f 358 350 516
f 521 516 350
f 365 354 520
f 526 520 354
f 218 228 404
f 395 404 228
f 220 231 407
f 401 407 231
f 367 357 523
f 532 523 357
f 369 360 527
f 537 527 360
f 214 223 397
f 388 397 223
f 216 225 400
f 390 400 225
f 371 362 530
f 539 530 362
f 372 363 533
f 541 533 363
f 215 224 392
f 384 392 224
f 213 221 394
f 386 394 221
f 370 361 535
f 543 535 361
f 368 359 534
f 542 534 359
f 219 229 396
f 387 396 229
f 217 226 393
f 385 393 226
f 366 356 531
f 540 531 356
f 364 353 528
f 538 528 353
f 230 236 402
f 391 402 236
f 222 232 399
f 389 399 232
f 355 349 525
f 536 525 349
f 351 345 522
f 529 522 345
f 238 242 409
f 403 409 242
f 234 240 405
f 398 405 240
f 347 343 518
f 524 518 343
f 341 339 515
f 519 515 339
f 248 250 416
f 413 416 250
f 244 246 412
f 408 412 246
f 337 335 511
f 514 511 335
f 333 331 507
f 510 507 331
f 256 258 424
f 421 424 258
f 252 254 420
f 417 420 254
f 329 327 503
f 506 503 327
f 325 323 500
f 502 500 323
f 264 266 431
f 429 431 266
f 260 262 427
f 425 427 262
f 321 319 496
f 498 496 319
f 317 315 492
f 494 492 315
f 272 274 439
f 438 439 274
f 268 270 435
f 433 435 270
f 313 311 488
f 489 488 311
f 309 307 484
f 485 484 307
f 280 282 447
f 446 447 282
f 276 278 443
f 442 443 278
f 305 303 480
f 481 480 303
f 635 634 594
f 637 635 598
f 639 637 555
f 641 639 604
f 630 631 591
f 629 630 551
f 628 629 582
f 636 638 605
f 682 636 554
f 631 633 597
f 634 632 590
f 643 645 617
f 640 643 556
f 686 640 608
f 625 624 565
f 627 625 568
f 673 627 574
f 697 646 621
f 623 622 544
f 624 623 545
f 642 641 607
f 644 642 557
f 696 644 559
f 626 628 579
f 668 626 547
f 682 681 683
f 636 683 685
f 686 685 687
f 632 705 704
f 632 704 680
f 678 680 677
f 675 677 702
f 639 708 707
f 637 707 706
f 635 706 684
f 634 684 705
f 629 674 676
f 630 676 703
f 630 703 679
f 631 679 681
f 644 691 690
f 644 690 689
f 641 689 708
f 668 669 670
f 626 670 671
f 626 671 701
f 628 701 674
f 697 692 694
f 646 694 693
f 646 693 711
f 696 711 691
f 623 698 667
f 622 667 664
f 662 664 665
f 662 665 666
f 663 666 669
f 640 687 688
f 643 688 709
f 643 709 710
f 645 710 692
f 673 702 672
f 627 672 700
f 625 700 699
f 624 699 698
f 594 593 596
f 598 596 600
f 555 600 602
f 604 602 606
f 591 592 589
f 551 589 586
f 584 586 583
f 582 583 580
f 605 603 601
f 554 601 599
f 597 599 595
f 597 595 592
f 549 581 550
f 585 550 587
f 585 587 552
f 590 552 593
f 617 560 614
f 558 614 612
f 556 612 610
f 608 610 603
f 565 567 571
f 568 571 573
f 574 573 577
f 578 577 581
f 621 615 618
f 620 618 560
f 546 566 564
f 544 564 563
f 545 563 567
f 607 606 609
f 557 609 611
f 559 611 613
f 616 613 615
f 579 580 576
f 575 576 572
f 569 572 570
f 546 570 566
f 96 118 117
f 72 117 124
f 95 124 69
f 57 120 56
f 119 157 158
f 65 158 131
f 66 131 88
f 92 163 93
f 116 132 90
f 129 150 128
f 62 128 105
f 79 127 101
f 118 126 125
f 117 125 134
f 117 134 124
f 69 123 121
f 57 121 120
f 56 122 70
f 97 139 141
f 97 141 58
f 99 145 77
f 83 82 153
f 119 154 156
f 131 158 160
f 91 160 162
f 86 182 179
f 129 130 152
f 128 150 149
f 105 149 171
f 101 127 146
f 101 146 76
f 74 144 142
f 73 142 140
f 126 140 138
f 125 138 136
f 124 134 123
f 70 122 135
f 71 135 137
f 58 141 143
f 77 168 147
f 158 176 180
f 93 185 132
f 90 187 161
f 159 183 182
f 155 84 110
f 127 171 169
f 76 146 144
f 138 166 167
f 134 167 123
f 137 165 141
f 78 170 148
f 107 173 151
f 160 186 162
f 179 182 178
f 179 178 177
f 171 172 169
f 154 175 176
f 82 174 154
f 119 63 83
f 91 68 88
f 101 60 79
f 72 54 73
f 69 57 72
f 97 55 71
f 75 59 58
f 107 61 80
f 82 83 61
f 78 80 77
f 83 42 40
f 87 44 42
f 116 45 68
f 90 43 45
f 84 47 43
f 64 41 47
f 62 39 41
f 76 38 39
f 74 35 38
f 57 33 35
f 57 32 33
f 70 46 32
f 71 34 46
f 58 36 34
f 77 37 36
f 80 40 37
f 42 22 30
f 44 28 25
f 43 27 45
f 43 24 27
f 41 21 24
f 39 29 41
f 39 14 29
f 35 12 14
f 35 10 12
f 37 18 13
f 40 30 18
f 45 27 28
f 14 15 29
f 13 18 11
f 113 50 26
f 114 26 53
f 111 53 52
f 109 52 51
f 102 51 49
f 98 49 48
f 103 48 17
f 108 17 50
f 52 31 20
f 51 20 16
f 49 16 11
f 50 25 28
f 19 18 30
f 192 5 7
f 196 7 9
f 197 9 8
f 195 8 6
f 193 6 4
f 191 4 2
f 190 2 1
f 189 1 3
f 377 3 5
f 380 1337 1335
f 382 1339 1337
f 383 1338 1339
f 381 1336 1338
f 379 1334 1336
f 376 1332 1334
f 374 1330 1332
f 373 1331 1330
f 375 1333 1331
f 378 1335 1333
f 378 192 194
f 380 194 196
f 382 196 197
f 383 197 195
f 381 195 193
f 379 193 191
f 376 191 190
f 374 190 189
f 373 189 377
f 16 20 29
f 11 16 14
f 50 17 19
f 31 53 28
f 1384 1374 1372
f 1285 1351 1287
f 1287 1351 1289
f 1289 1323 1291
f 1291 1323 1293
f 1297 1325 1299
f 1299 1325 1301
f 1301 1326 1303
f 1303 1326 1328
f 1307 1328 1309
f 1309 1329 1310
f 1310 1329 1308
f 1308 1329 1306
f 1306 1329 1305
f 1305 1329 1304
f 1304 1327 1302
f 1302 1327 1300
f 1300 1327 1298
f 1298 1327 1296
f 1296 1327 1295
f 1295 1327 1294
f 1294 1327 1292
f 1292 1324 1290
f 1290 1324 1288
f 1288 1324 1286
f 1286 1324 1284
f 1284 1324 1282
f 1282 1324 1280
f 1280 1322 1279
f 1279 1322 1278
f 1278 1322 1276
f 1276 1341 1274
f 1274 1341 1272
f 1272 1340 1270
f 1270 1340 1268
f 1268 1340 1266
f 1266 1319 1264
f 1264 1319 1262
f 1260 1204 1261
f 1261 1204 1343
f 1263 1343 1265
f 1265 1343 1267
f 1267 1320 1269
f 1269 1320 1271
f 1271 1320 1273
f 1273 1277 1275
f 1281 1321 1283
f 1283 1321 1285
f 1230 1285 1232
f 1232 1287 1234
f 1234 1289 1236
f 1236 1291 1238
f 1238 1293 1240
f 1240 1323 1242
f 1242 1325 1244
f 1244 1297 1246
f 1246 1299 1248
f 1248 1301 1250
f 1250 1303 1252
f 1252 1303 1254
f 1254 1328 1256
f 1256 1307 1258
f 1258 1309 1259
f 1259 1310 1257
f 1257 1308 1255
f 1255 1306 1253
f 1253 1305 1251
f 1251 1304 1249
f 1249 1302 1247
f 1247 1300 1245
f 1245 1298 1243
f 1243 1296 1241
f 1241 1295 1239
f 1239 1294 1237
f 1237 1292 1235
f 1235 1290 1233
f 1233 1288 1231
f 1231 1286 1229
f 1229 1284 1227
f 1227 1282 1225
f 1225 1280 1223
f 1223 1279 1222
f 1222 1278 1220
f 1220 1276 1218
f 1218 1274 1216
f 1216 1272 1214
f 1214 1270 1212
f 1212 1268 1210
f 1210 1266 1209
f 1209 1264 1208
f 1208 1262 1206
f 1206 1319 1204
f 1203 1260 1205
f 1205 1261 1207
f 1207 1343 1263
f 1153 1265 1211
f 1211 1267 1213
f 1213 1269 1215
f 1215 1271 1217
f 1217 1273 1219
f 1219 1275 1221
f 1221 1277 1165
f 1165 1277 1224
f 1224 1321 1226
f 1226 1281 1228
f 1228 1283 1230
f 1173 1230 1175
f 1175 1232 1177
f 1177 1234 1179
f 1179 1236 1181
f 1181 1238 1183
f 1183 1240 1185
f 1185 1242 1187
f 1187 1244 1189
f 1189 1246 1191
f 1191 1248 1193
f 1193 1250 1195
f 1195 1252 1197
f 1197 1254 1199
f 1199 1256 1201
f 1201 1258 1202
f 1202 1259 1200
f 1200 1257 1198
f 1198 1255 1196
f 1196 1253 1194
f 1194 1251 1192
f 1192 1249 1190
f 1190 1247 1188
f 1188 1245 1186
f 1186 1243 1184
f 1184 1241 1182
f 1182 1239 1180
f 1180 1237 1178
f 1178 1235 1176
f 1176 1233 1174
f 1174 1231 1172
f 1172 1229 1170
f 1170 1227 1168
f 1168 1225 1166
f 1166 1223 1164
f 1164 1222 1162
f 1162 1220 1160
f 1160 1218 1158
f 1158 1216 1106
f 1106 1214 1155
f 1155 1210 1103
f 1103 1209 1101
f 1101 1208 1099
f 1099 1206 1098
f 1098 1204 1150
f 1150 1203 1151
f 1151 1205 1152
f 1152 1207 1263
f 1154 1211 1156
f 1156 1213 1157
f 1157 1215 1159
f 1159 1217 1161
f 1161 1219 1163
f 1163 1221 1165
f 1167 1224 1169
f 1169 1226 1171
f 1171 1228 1173
f 1121 1173 1123
f 1123 1175 1125
f 1125 1177 1127
f 1127 1179 1129
f 1129 1181 1131
f 1131 1183 1133
f 1185 1187 1136
f 1136 1189 1138
f 1138 1191 1140
f 1140 1193 1142
f 1142 1195 1144
f 1144 1197 1146
f 1146 1199 1148
f 1148 1201 1149
f 1149 1202 1147
f 1147 1200 1145
f 1145 1198 1143
f 1143 1196 1141
f 1141 1194 1139
f 1139 1192 1137
f 1137 1190 1135
f 1135 1188 1134
f 1134 1186 1132
f 1132 1184 1130
f 1130 1182 1128
f 1128 1180 1126
f 1126 1178 1124
f 1124 1176 1122
f 1122 1174 1120
f 1120 1172 1118
f 1118 1168 1116
f 1116 1166 1114
f 1114 1164 1112
f 1112 1162 1110
f 1110 1160 1108
f 1098 1150 1100
f 1100 1151 1102
f 1102 1152 1104
f 1104 1263 1105
f 1105 1153 1154
f 1065 1156 1107
f 1107 1157 1109
f 1109 1159 1111
f 1111 1161 1113
f 1113 1163 1115
f 1115 1167 1117
f 1117 1169 1119
f 1119 1171 1121
f 1071 1121 1072
f 1072 1125 1075
f 1075 1127 1077
f 1077 1129 1079
f 1079 1131 1081
f 1081 1185 1083
f 1083 1136 1088
f 1088 1140 1091
f 1091 1142 1092
f 1092 1144 1094
f 1094 1148 1097
f 1097 1149 1095
f 1095 1147 1093
f 1093 1145 1089
f 1089 1141 1087
f 1087 1139 1085
f 1085 1137 1082
f 1082 1135 1054
f 1054 1134 1078
f 1078 1130 1076
f 1076 1128 1074
f 1074 1126 1073
f 1073 1122 1120
f 1070 1118 1068
f 1068 1116 1067
f 1067 1112 1066
f 1066 1110 1064
f 1064 1158 1063
f 1063 1155 1062
f 1062 1099 1053
f 1053 1100 1061
f 1061 1104 1105
f 1065 1111 1113
f 1069 1117 1071
f 1092 1094 1097
f 1096 1093 1090
f 1090 1087 1085
f 1084 1082 1054
f 1054 1078 1076
f 1074 1073 1120
f 1058 1071 1072
f 1058 1075 1080
f 1080 1081 1083
f 1097 1091 1092
f 1086 1085 1054
f 1059 1076 1074
f 1055 1065 1113
f 1059 1074 1120
f 1053 1061 1105
f 1060 1080 1083
f 1051 1090 1086
f 1120 1070 1057
f 1057 1070 1068
f 1056 1066 1064
f 1096 1090 1051
f 1047 1054 1076
f 1044 1059 1120
f 1035 1064 1063
f 1204 1319 1343
f 1325 1323 1360
f 1326 1325 1360
f 1328 1326 1362
f 1329 1328 1363
f 1327 1329 1361
f 1324 1327 1359
f 1322 1324 1358
f 1342 1322 1356
f 1341 1342 1356
f 1340 1341 1353
f 1319 1340 1353
f 1343 1319 1352
f 1320 1343 1355
f 1277 1320 1355
f 1321 1277 1357
f 1351 1321 1357
f 1360 1351 1375
f 1362 1360 1376
f 1363 1362 1377
f 1361 1363 1380
f 1359 1361 1374
f 1358 1359 1373
f 1356 1358 1369
f 1353 1356 1381
f 1352 1353 1365
f 1354 1352 1365
f 1355 1354 1383
f 1357 1355 1370
f 1351 1357 1371
f 1374 1361 1380
f 1357 1370 1371
f 1381 1369 1382
f 1347 1315 1349
f 1349 1317 1379
f 1379 1317 1364
f 1364 1318 1350
f 1350 1316 1348
f 1348 1314 1346
f 1346 1314 1366
f 1366 1311 1344
f 1344 1311 1345
f 1345 1313 1347
f 1371 1347 1349
f 1367 1366 1344
f 1371 1349 1375
f 1376 1379 1364
f 1377 1364 1350
f 1377 1350 1374
f 1374 1350 1348
f 1368 1344 1345
f 1041 1058 1042
f 1042 1080 1060
f 1060 1091 1048
f 1048 1091 1050
f 1050 1097 1052
f 1052 1096 1051
f 1051 1086 1047
f 1047 1076 1044
f 1044 1120 1057
f 1057 1068 1056
f 1056 1064 1035
f 1035 1063 1032
f 1032 1062 1033
f 1033 1053 1034
f 1034 1055 1036
f 1036 1113 1037
f 1037 1071 1041
f 1046 1060 1048
f 1050 1052 1049
f 1049 1051 1047
f 1045 1047 1043
f 1043 1044 1040
f 1040 1057 1038
f 1038 1056 1035
f 1036 1037 1039
f 1039 1037 1041
f 653 1041 1042
f 657 1046 1048
f 659 1048 1050
f 660 1049 1047
f 658 1047 1045
f 655 1043 1040
f 654 1040 1038
f 652 1038 1035
f 649 1035 1032
f 648 1032 1033
f 647 1033 1034
f 650 1034 1036
f 651 1036 1039
f 653 1039 1041
f 174 151 205
f 154 174 205
f 175 154 207
f 176 175 207
f 180 176 209
f 186 180 209
f 185 186 211
f 188 185 211
f 187 188 212
f 184 187 212
f 181 184 210
f 178 181 210
f 177 178 210
f 110 177 208
f 152 110 208
f 172 152 206
f 169 172 204
f 144 169 202
f 166 144 202
f 123 166 200
f 121 123 198
f 164 121 198
f 165 164 198
f 141 165 199
f 143 141 201
f 168 143 201
f 170 168 201
f 148 170 203
f 173 148 203
f 151 173 205
f 207 205 656
f 209 207 657
f 211 209 659
f 212 211 661
f 210 212 660
f 208 210 658
f 206 208 655
f 204 206 654
f 202 204 652
f 200 202 649
f 198 200 648
f 199 198 647
f 201 199 650
f 203 201 651
f 205 203 653
f 654 655 1040
f 648 649 1032
f 805 961 804
f 961 805 959
f 782 946 783
f 946 782 948
f 778 942 779
f 942 778 944
f 801 957 800
f 957 801 955
f 786 950 787
f 950 786 951
f 793 947 792
f 947 793 949
f 797 953 796
f 953 797 952
f 790 956 791
f 956 790 954
f 788 943 789
f 943 788 945
f 799 964 798
f 964 799 962
f 795 960 794
f 960 795 958
f 784 939 785
f 939 784 941
f 780 935 781
f 935 780 937
f 807 972 806
f 972 807 970
f 803 968 802
f 968 803 966
f 776 931 777
f 931 776 933
f 772 927 773
f 927 772 929
f 815 980 814
f 980 815 978
f 811 976 810
f 976 811 974
f 768 923 769
f 923 768 925
f 764 919 765
f 919 764 921
f 823 988 821
f 988 823 986
f 819 984 817
f 984 819 982
f 760 915 762
f 915 760 917
f 827 992 825
f 992 827 990
f 751 907 754
f 907 751 909
f 756 911 758
f 911 756 913
f 831 996 829
f 996 831 994
f 836 1000 833
f 1000 836 998
f 743 897 746
f 897 743 901
f 747 903 750
f 903 747 905
f 840 1006 837
f 1006 840 1002
f 845 1010 841
f 1010 845 1004
f 734 889 739
f 889 734 895
f 738 893 742
f 893 738 899
f 849 1014 844
f 1014 849 1008
f 854 1023 848
f 1023 854 1012
f 723 878 732
f 878 723 888
f 729 881 735
f 881 729 891
f 859 1025 851
f 1025 859 1015
f 865 1027 855
f 1027 865 1018
f 716 874 725
f 874 716 883
f 718 876 728
f 876 718 885
f 867 1029 858
f 1029 867 1020
f 869 1031 861
f 1031 869 1022
f 712 873 720
f 873 712 882
f 714 872 722
f 872 714 880
f 871 1030 862
f 1030 871 1021
f 870 1028 863
f 1028 870 1019
f 715 877 724
f 877 715 887
f 713 875 721
f 875 713 884
f 868 1026 860
f 1026 868 1016
f 866 1024 856
f 1024 866 1013
f 719 886 730
f 886 719 894
f 717 879 727
f 879 717 890
f 864 1017 853
f 1017 864 1009
f 857 1011 850
f 1011 857 1005
f 731 896 737
f 896 731 900
f 726 892 733
f 892 726 898
f 852 1007 846
f 1007 852 1003
f 847 1001 842
f 1001 847 999
f 740 906 744
f 906 740 908
f 736 902 741
f 902 736 904
f 843 997 839
f 997 843 995
f 838 993 835
f 993 838 991
f 749 914 752
f 914 749 916
f 745 910 748
f 910 745 912
f 834 989 832
f 989 834 987
f 830 985 828
f 985 830 983
f 757 922 759
f 922 757 924
f 753 918 755
f 918 753 920
f 826 981 824
f 981 826 979
f 822 977 820
f 977 822 975
f 766 930 767
f 930 766 932
f 761 926 763
f 926 761 928
f 818 973 816
f 973 818 971
f 813 969 812
f 969 813 967
f 774 938 775
f 938 774 940
f 770 934 771
f 934 770 936
f 809 965 808
f 965 809 963
f 477 301 476
f 301 477 299
f 454 288 455
f 288 454 290
f 450 284 451
f 284 450 286
f 473 297 472
f 297 473 295
f 458 294 459
f 294 458 293
f 464 287 465
f 287 464 289
f 469 291 468
f 291 469 292
f 462 298 463
f 298 462 296
f 460 283 461
f 283 460 285
f 471 306 470
f 306 471 304
f 467 302 466
f 302 467 300
f 456 279 457
f 279 456 281
f 452 275 453
f 275 452 277
f 479 314 478
f 314 479 312
f 475 310 474
f 310 475 308
f 448 271 449
f 271 448 273
f 444 267 445
f 267 444 269
f 487 322 486
f 322 487 320
f 483 318 482
f 318 483 316
f 440 263 441
f 263 440 265
f 436 259 437
f 259 436 261
f 495 330 493
f 330 495 328
f 491 326 490
f 326 491 324
f 432 255 434
f 255 432 257
f 499 334 497
f 334 499 332
f 423 247 426
f 247 423 249
f 428 251 430
f 251 428 253
f 504 338 501
f 338 504 336
f 508 342 505
f 342 508 340
f 415 237 418
f 237 415 241
f 419 243 422
f 243 419 245
f 512 348 509
f 348 512 344
f 517 352 513
f 352 517 346
f 406 227 411
f 227 406 235
f 410 233 414
f 233 410 239
f 521 358 516
f 358 521 350
f 526 365 520
f 365 526 354
f 395 218 404
f 218 395 228
f 401 220 407
f 220 401 231
f 532 367 523
f 367 532 357
f 537 369 527
f 369 537 360
f 388 214 397
f 214 388 223
f 390 216 400
f 216 390 225
f 539 371 530
f 371 539 362
f 541 372 533
f 372 541 363
f 384 215 392
f 215 384 224
f 386 213 394
f 213 386 221
f 543 370 535
f 370 543 361
f 542 368 534
f 368 542 359
f 387 219 396
f 219 387 229
f 385 217 393
f 217 385 226
f 540 366 531
f 366 540 356
f 538 364 528
f 364 538 353
f 391 230 402
f 230 391 236
f 389 222 399
f 222 389 232
f 536 355 525
f 355 536 349
f 529 351 522
f 351 529 345
f 403 238 409
f 238 403 242
f 398 234 405
f 234 398 240
f 524 347 518
f 347 524 343
f 519 341 515
f 341 519 339
f 413 248 416
f 248 413 250
f 408 244 412
f 244 408 246
f 514 337 511
f 337 514 335
f 510 333 507
f 333 510 331
f 421 256 424
f 256 421 258
f 417 252 420
f 252 417 254
f 506 329 503
f 329 506 327
f 502 325 500
f 325 502 323
f 429 264 431
f 264 429 266
f 425 260 427
f 260 425 262
f 498 321 496
f 321 498 319
f 494 317 492
f 317 494 315
f 438 272 439
f 272 438 274
f 433 268 435
f 268 433 270
f 489 313 488
f 313 489 311
f 485 309 484
f 309 485 307
f 446 280 447
f 280 446 282
f 442 276 443
f 276 442 278
f 481 305 480
f 305 481 303
f 682 597 633
f 686 605 638
f 678 585 632
f 675 549 678
f 673 578 675
f 668 569 663
f 697 561 695
f 696 616 646
f 662 562 622
f 663 546 662
f 695 620 645
f 553 635 594
f 598 635 553
f 555 637 598
f 604 639 555
f 588 630 591
f 551 630 588
f 584 629 551
f 582 629 584
f 579 628 582
f 554 636 605
f 597 682 554
f 591 631 597
f 549 675 578
f 585 678 549
f 590 632 585
f 594 634 590
f 558 643 617
f 556 643 558
f 608 640 556
f 605 686 608
f 568 625 565
f 548 627 568
f 574 627 548
f 578 673 574
f 619 646 616
f 621 646 619
f 561 697 621
f 620 695 561
f 617 645 620
f 562 662 546
f 544 622 562
f 545 623 544
f 565 624 545
f 607 641 604
f 557 642 607
f 559 644 557
f 616 696 559
f 575 626 579
f 547 626 575
f 569 668 547
f 546 663 569
f 682 633 681
f 636 682 683
f 638 636 685
f 686 638 685
f 640 686 687
f 678 632 680
f 675 678 677
f 673 675 702
f 637 639 707
f 635 637 706
f 634 635 684
f 632 634 705
f 630 629 676
f 631 630 679
f 633 631 681
f 644 696 691
f 642 644 689
f 641 642 689
f 639 641 708
f 668 663 669
f 626 668 670
f 628 626 701
f 629 628 674
f 697 695 692
f 646 697 694
f 696 646 711
f 622 623 667
f 662 622 664
f 663 662 666
f 643 640 688
f 645 643 710
f 695 645 692
f 627 673 672
f 625 627 700
f 624 625 699
f 623 624 698
f 553 594 596
f 598 553 596
f 555 598 600
f 604 555 602
f 588 591 589
f 551 588 589
f 584 551 586
f 582 584 583
f 579 582 580
f 554 605 601
f 597 554 599
f 591 597 592
f 549 578 581
f 585 549 550
f 590 585 552
f 594 590 593
f 558 617 614
f 556 558 612
f 608 556 610
f 605 608 603
f 568 565 571
f 548 568 573
f 574 548 573
f 578 574 577
f 619 616 615
f 621 619 615
f 561 621 618
f 620 561 618
f 617 620 560
f 562 546 564
f 544 562 564
f 545 544 563
f 565 545 567
f 607 604 606
f 557 607 609
f 559 557 611
f 616 559 613
f 575 579 576
f 547 575 572
f 569 547 572
f 546 569 570
f 72 73 96
f 69 72 95
f 77 75 99
f 96 73 118
f 72 96 117
f 95 72 124
f 119 83 154
f 85 119 158
f 65 85 158
f 87 65 131
f 66 87 131
f 92 91 163
f 94 93 132
f 116 94 132
f 89 90 159
f 86 89 159
f 129 110 130
f 62 129 128
f 118 73 126
f 117 118 125
f 69 124 123
f 57 69 121
f 56 120 122
f 97 71 139
f 75 58 145
f 99 75 145
f 82 81 151
f 154 83 153
f 157 119 156
f 88 131 160
f 91 88 160
f 163 91 162
f 159 90 161
f 86 159 182
f 115 86 179
f 64 84 155
f 150 129 152
f 105 128 149
f 79 105 171
f 74 76 144
f 73 74 142
f 126 73 140
f 125 126 138
f 134 125 136
f 122 120 133
f 71 70 135
f 139 71 137
f 145 58 143
f 77 145 168
f 78 77 147
f 107 80 148
f 81 107 151
f 153 82 154
f 157 156 176
f 158 157 176
f 160 158 180
f 163 162 185
f 93 163 185
f 90 132 187
f 159 161 183
f 115 179 177
f 84 115 177
f 64 155 110
f 130 110 152
f 150 152 149
f 171 149 172
f 127 79 171
f 146 127 169
f 142 144 166
f 140 142 166
f 138 140 166
f 136 138 167
f 134 136 167
f 120 121 133
f 122 133 165
f 135 122 165
f 137 135 165
f 139 137 141
f 145 143 168
f 147 168 170
f 78 147 170
f 80 78 148
f 107 148 173
f 160 180 186
f 161 187 184
f 183 161 184
f 182 183 184
f 84 177 110
f 82 151 174
f 156 154 176
f 162 186 185
f 132 185 187
f 182 184 178
f 149 152 172
f 146 169 144
f 167 166 123
f 133 121 165
f 165 121 164
f 187 185 188
f 178 184 181
f 119 85 63
f 91 92 68
f 86 115 67
f 110 129 64
f 105 79 62
f 101 76 60
f 97 58 55
f 75 77 59
f 107 81 61
f 81 82 61
f 93 94 116
f 61 83 40
f 83 63 42
f 63 85 42
f 85 65 42
f 65 87 42
f 87 66 44
f 66 88 44
f 88 68 44
f 92 93 68
f 93 116 68
f 116 90 45
f 90 89 43
f 89 86 43
f 86 67 43
f 67 115 43
f 115 84 43
f 84 64 47
f 64 129 41
f 129 62 41
f 62 79 39
f 79 60 39
f 60 76 39
f 76 74 38
f 74 73 35
f 73 54 35
f 54 72 35
f 72 57 35
f 57 56 32
f 56 70 32
f 70 71 46
f 71 55 34
f 55 58 34
f 58 59 36
f 59 77 36
f 77 80 37
f 80 61 40
f 40 42 30
f 42 44 22
f 44 68 28
f 68 45 28
f 43 47 24
f 47 41 24
f 39 38 14
f 38 35 14
f 35 33 10
f 33 32 10
f 32 46 10
f 46 34 10
f 34 36 13
f 36 37 13
f 37 40 18
f 44 25 22
f 12 10 14
f 10 34 11
f 34 13 11
f 112 108 50
f 113 112 50
f 114 113 26
f 111 114 53
f 109 111 52
f 106 109 51
f 102 106 51
f 98 102 49
f 100 98 48
f 103 100 48
f 104 103 17
f 108 104 17
f 52 53 31
f 51 52 20
f 49 51 16
f 48 49 11
f 17 48 11
f 23 30 22
f 25 23 22
f 26 50 28
f 53 26 28
f 31 24 21
f 20 31 21
f 20 21 41
f 16 29 15
f 11 14 10
f 17 11 18
f 19 17 18
f 1339 1335 1337
f 1338 1335 1339
f 1336 1335 1338
f 1334 1335 1336
f 1332 1335 1334
f 1330 1335 1332
f 1331 1335 1330
f 1333 1335 1331
f 194 192 7
f 196 194 7
f 197 196 9
f 195 197 8
f 193 195 6
f 191 193 4
f 190 191 2
f 189 190 1
f 377 189 3
f 192 377 5
f 378 380 1335
f 380 382 1337
f 382 383 1339
f 383 381 1338
f 381 379 1336
f 379 376 1334
f 376 374 1332
f 374 373 1330
f 373 375 1331
f 375 377 1333
f 377 378 1333
f 380 378 194
f 382 380 196
f 383 382 197
f 381 383 195
f 379 381 193
f 376 379 191
f 374 376 190
f 373 374 189
f 375 373 377
f 378 377 192
f 29 20 41
f 14 16 15
f 30 50 19
f 23 50 30
f 25 50 23
f 27 31 28
f 24 31 27
f 1379 1375 1349
f 1379 1378 1375
f 1379 1376 1378
f 1364 1377 1376
f 1372 1374 1348
f 1348 1384 1372
f 1346 1384 1348
f 1366 1382 1384
f 1366 1381 1382
f 1367 1381 1366
f 1367 1365 1381
f 1344 1365 1367
f 1344 1383 1365
f 1368 1383 1344
f 1345 1383 1368
f 1345 1370 1383
f 1371 1370 1345
v -0.13235 0.18990 -0.06065
v -0.13972 0.18476 -0.02733
v -0.13744 0.17744 0.03950
v -0.07005 0.13627 -0.06832
v -0.08010 0.13716 -0.01622
v -0.07306 0.13700 0.04629
v -0.06750 0.17738 -0.12738
v -0.10624 0.16991 -0.08429
v -0.08075 0.16496 -0.01633
v -0.09428 0.16764 0.05808
v -0.08276 0.18383 0.11480
v -0.01990 0.13717 -0.07845
v -0.03825 0.13925 -0.03375
v -0.02023 0.13741 0.07375
v -0.02175 0.13575 0.10312
v -0.01189 0.18211 -0.13977
v -0.01461 0.16667 -0.06280
v -0.02213 0.17435 -0.01761
v -0.01779 0.17133 0.04638
v -0.02669 0.17229 0.13718
v 0.04310 0.13686 -0.07399
v 0.07399 0.13762 -0.01921
v 0.05493 0.13709 0.05653
v 0.02983 0.13600 0.10200
v 0.03118 0.17937 -0.13739
v 0.03997 0.16737 -0.07030
v 0.04637 0.17165 -0.01538
v 0.03802 0.17007 0.04090
v 0.06469 0.17970 0.12368
v 0.08800 0.13800 -0.06500
v 0.09871 0.13564 -0.01064
v 0.09533 0.13600 0.04800
v 0.08950 0.18500 -0.12250
v 0.12238 0.18028 -0.06991
v 0.13781 0.18161 -0.02860
v 0.12555 0.17268 0.05995
v 0.09602 0.18617 0.10795
usemtl m025
f 1390 1398 1403
f 1398 1407 1412
f 1405 1396 1401
f 1397 1389 1393
f 1407 1406 1411
f 1389 1390 1394
f 1396 1397 1402
f 1406 1405 1410
f 1394 1403 1402
f 1394 1402 1393
f 1401 1402 1411
f 1400 1396 1405
f 1414 1405 1415
f 1418 1414 1415
f 1392 1388 1396
f 1400 1392 1396
f 1400 1391 1392
f 1386 1393 1392
f 1386 1387 1389
f 1394 1395 1390
f 1413 1408 1399
f 1395 1399 1390
f 1413 1407 1408
f 1399 1398 1390
f 1420 1415 1416
f 1420 1416 1407
f 1390 1398 1397
f 1398 1407 1397
f 1388 1389 1397
f 1389 1390 1397
f 1388 1389 1396
f 1408 1407 1398
f 1415 1406 1407
f 1394 1390 1403
f 1403 1398 1412
f 1410 1405 1401
f 1402 1397 1393
f 1412 1407 1411
f 1393 1389 1394
f 1401 1396 1402
f 1411 1406 1410
f 1410 1401 1411
f 1403 1412 1402
f 1412 1411 1402
f 1418 1410 1405
f 1410 1409 1405
f 1414 1418 1405
f 1417 1409 1418
f 1418 1409 1410
f 1419 1418 1415
f 1409 1400 1405
f 1385 1386 1392
f 1392 1393 1389
f 1388 1392 1389
f 1387 1394 1389
f 1393 1386 1389
f 1404 1413 1399
f 1395 1404 1399
f 1420 1419 1415
f 1413 1421 1407
f 1421 1420 1407
f 1407 1406 1397
f 1406 1405 1397
f 1405 1396 1397
f 1396 1388 1397
f 1415 1405 1406
f 1399 1408 1398
f 1416 1415 1407
v -0.17766 0.20449 -0.10905
v -0.19984 0.20446 0.00013
v -0.17813 0.20434 0.10356
v -0.17650 0.20447 0.12255
v -0.17534 0.23511 -0.10953
v -0.19294 0.23927 0.00017
v -0.17571 0.23492 0.10496
v -0.17464 0.23550 0.11936
v -0.15088 0.20510 -0.13688
v -0.14221 0.20404 -0.10112
v -0.16394 0.20450 0.00011
v -0.14281 0.20428 0.09122
v -0.14587 0.20413 0.13263
v -0.15050 0.23486 -0.13525
v -0.14907 0.23918 -0.10845
v -0.16737 0.23682 0.00021
v -0.14859 0.23942 0.09973
v -0.14960 0.23829 0.12558
v -0.05750 0.20443 -0.17758
v -0.05787 0.20426 0.16885
v -0.05689 0.20460 0.20375
v -0.05756 0.23865 -0.17792
v -0.05766 0.23917 0.17461
v -0.05638 0.23574 0.20076
v 0.04714 0.20427 -0.17747
v 0.04303 0.20410 0.16524
v 0.05480 0.20405 0.20418
v 0.05339 0.23916 -0.17811
v 0.05261 0.23987 0.17395
v 0.05727 0.23561 0.20088
v 0.10122 0.20453 -0.16547
v 0.13344 0.20436 -0.10134
v 0.13502 0.20456 0.09324
v 0.10922 0.20406 0.15444
v 0.07706 0.20667 0.20083
v 0.09467 0.23595 -0.16762
v 0.14181 0.23941 -0.10766
v 0.14252 0.23946 0.10004
v 0.11526 0.23732 0.14777
v 0.16419 0.20569 -0.13581
v 0.17398 0.20436 -0.10613
v 0.18736 0.20447 0.00008
v 0.17372 0.20454 0.09635
v 0.17100 0.20406 0.12908
v 0.15830 0.23620 -0.13390
v 0.16764 0.23805 -0.10922
v 0.18722 0.23873 0.00019
v 0.16755 0.23838 0.10043
v 0.16713 0.23768 0.12436
usemtl m026
f 1457 1449 1446
f 1452 1446 1449
f 1423 1432 1437
f 1432 1423 1427
f 1425 1434 1439
f 1428 1438 1433
f 1459 1469 1464
f 1465 1464 1469
f 1455 1465 1470
f 1433 1438 1439
f 1424 1425 1429
f 1431 1422 1426
f 1430 1435 1436
f 1430 1431 1436
f 1451 1450 1447
f 1448 1455 1460
f 1450 1460 1447
f 1460 1455 1447
f 1467 1458 1462
f 1458 1453 1462
f 1452 1453 1458
f 1461 1452 1457
f 1462 1461 1466
f 1466 1458 1467
f 1445 1442 1441
f 1452 1457 1446
f 1457 1452 1449
f 1427 1423 1437
f 1437 1432 1427
f 1433 1425 1434
f 1433 1424 1425
f 1429 1425 1439
f 1424 1428 1433
f 1454 1465 1464
f 1454 1455 1465
f 1454 1459 1464
f 1454 1455 1459
f 1455 1460 1459
f 1470 1465 1469
f 1460 1455 1470
f 1470 1469 1459
f 1460 1470 1459
f 1433 1439 1434
f 1428 1424 1429
f 1429 1439 1438
f 1428 1429 1438
f 1436 1431 1426
f 1453 1461 1452
f 1453 1462 1461
f 1447 1456 1455
f 1447 1448 1456
f 1448 1451 1447
f 1451 1448 1460
f 1451 1460 1450
f 1457 1452 1458
f 1466 1461 1457
f 1467 1462 1466
f 1466 1457 1458
f 1444 1445 1441
v -0.31662 0.13075 -0.05975
v -0.32123 0.13200 0.00023
v -0.31663 0.13075 0.05975
v -0.25913 0.13044 -0.16871
v -0.27745 0.12980 -0.08983
v -0.29604 0.12875 -0.01146
v -0.27697 0.12939 0.08373
v -0.26662 0.13044 0.15683
v -0.24333 0.13283 0.20850
v -0.24305 0.17423 -0.07395
v -0.24054 0.20298 -0.00752
v -0.24248 0.17922 0.06776
v -0.18334 0.12939 -0.24063
v -0.19750 0.12957 -0.20002
v -0.22650 0.14150 -0.10350
v -0.22650 0.14150 0.10350
v -0.20030 0.13200 0.19160
v -0.18487 0.12908 0.23643
v -0.17109 0.20968 -0.15824
v -0.19538 0.21996 -0.09581
v -0.18754 0.22371 -0.00330
v -0.19675 0.21854 0.08152
v -0.17542 0.21143 0.15188
v -0.14850 0.17500 0.20450
v -0.09403 0.13200 -0.30630
v -0.11859 0.12967 -0.26912
v -0.12250 0.14500 -0.21350
v -0.12591 0.13050 0.25716
v -0.09960 0.13087 0.29857
v -0.09558 0.19713 -0.22369
v -0.10372 0.22129 -0.17768
v -0.11498 0.21806 -0.09670
v -0.14314 0.21494 -0.00778
v -0.12205 0.21775 0.08669
v -0.10208 0.22228 0.15851
v -0.09764 0.20571 0.21591
v -0.02346 0.13100 -0.31338
v -0.02028 0.12822 -0.28217
v -0.02150 0.12621 0.27057
v -0.02150 0.13004 0.30420
v -0.02020 0.20344 -0.23721
v -0.03191 0.22125 -0.16318
v -0.05350 0.21000 -0.13050
v -0.02895 0.21976 0.15508
v -0.02675 0.20901 0.23116
v 0.05753 0.13183 -0.31084
v 0.04607 0.12984 -0.28150
v 0.04337 0.13067 0.27130
v 0.05325 0.13051 0.30230
v 0.05331 0.20230 -0.23383
v 0.05608 0.22484 -0.17056
v 0.08439 0.21193 -0.11988
v 0.09383 0.21250 0.11312
v 0.05703 0.22257 0.15723
v 0.05680 0.21289 0.22402
v 0.12450 0.12867 -0.29950
v 0.14873 0.12911 -0.25592
v 0.16925 0.12762 -0.19813
v 0.17375 0.13400 0.18825
v 0.15132 0.12793 0.24950
v 0.13290 0.13200 0.29300
v 0.12245 0.17858 -0.22329
v 0.14987 0.21285 -0.16999
v 0.13982 0.22267 -0.09218
v 0.15651 0.21940 -0.00448
v 0.14033 0.22065 0.08336
v 0.15383 0.21731 0.15834
v 0.12256 0.19168 0.21395
v 0.20169 0.13158 -0.23311
v 0.23825 0.13050 -0.18389
v 0.25554 0.12696 -0.09414
v 0.24750 0.13800 -0.04750
v 0.25490 0.12704 0.09194
v 0.24687 0.12947 0.17260
v 0.20730 0.13191 0.22570
v 0.19278 0.20096 -0.14510
v 0.22158 0.20182 -0.08859
v 0.21933 0.22047 -0.00503
v 0.22416 0.20208 0.07611
v 0.19675 0.20380 0.13800
v 0.27973 0.13169 -0.15327
v 0.29158 0.13132 -0.08462
v 0.30719 0.12969 -0.00643
v 0.29164 0.13076 0.07652
v 0.28513 0.13205 0.14361
v 0.26900 0.15000 -0.05300
v 0.26900 0.15000 0.05300
usemtl m027
f 1549 1536 1535
f 1491 1503 1492
f 1536 1537 1523
f 1525 1524 1537
f 1532 1533 1520
f 1492 1503 1504
f 1490 1502 1503
f 1547 1535 1534
f 1535 1548 1549
f 1524 1514 1515
f 1525 1524 1515
f 1501 1512 1511
f 1482 1492 1481
f 1481 1491 1490
f 1538 1537 1525
f 1537 1550 1536
f 1525 1538 1524
f 1538 1537 1524
f 1511 1500 1512
f 1520 1511 1512
f 1525 1524 1514
f 1546 1533 1534
f 1506 1514 1505
f 1547 1546 1534
f 1548 1547 1535
f 1492 1504 1491
f 1550 1549 1536
f 1490 1491 1503
f 1491 1481 1492
f 1490 1480 1481
f 1537 1545 1544
f 1525 1518 1530
f 1489 1484 1474
f 1511 1508 1496
f 1515 1498 1510
f 1525 1519 1518
f 1520 1527 1517
f 1493 1478 1487
f 1493 1487 1488
f 1481 1476 1477
f 1549 1554 1553
f 1498 1499 1510
f 1518 1519 1530
f 1517 1516 1507
f 1508 1507 1496
f 1544 1555 1554
f 1484 1483 1474
f 1487 1478 1488
f 1478 1479 1488
f 1476 1472 1473
f 1475 1471 1472
f 1527 1526 1516
f 1543 1549 1544
f 1476 1481 1480
f 1475 1476 1480
f 1475 1480 1474
f 1480 1485 1490
f 1540 1541 1552
f 1541 1540 1547
f 1556 1547 1548
f 1552 1556 1553
f 1556 1552 1547
f 1547 1542 1541
f 1552 1541 1542
f 1478 1492 1482
f 1477 1478 1482
f 1482 1492 1486
f 1482 1486 1477
f 1546 1540 1533
f 1532 1533 1528
f 1532 1528 1527
f 1509 1515 1510
f 1519 1518 1509
f 1550 1544 1545
f 1545 1529 1530
f 1500 1497 1501
f 1500 1496 1497
f 1501 1512 1502
f 1533 1547 1534
f 1521 1512 1511
f 1520 1521 1511
f 1521 1533 1522
f 1520 1533 1521
f 1549 1550 1537
f 1546 1547 1533
f 1501 1500 1511
f 1523 1537 1524
f 1512 1502 1513
f 1534 1533 1522
f 1549 1536 1537
f 1500 1501 1512
f 1501 1489 1502
f 1521 1520 1512
f 1506 1515 1514
f 1515 1525 1514
f 1493 1505 1504
f 1492 1493 1504
f 1489 1490 1502
f 1491 1504 1503
f 1505 1493 1506
f 1550 1537 1544
f 1538 1525 1530
f 1500 1511 1496
f 1515 1506 1498
f 1520 1532 1527
f 1546 1547 1540
f 1482 1481 1477
f 1493 1492 1478
f 1548 1549 1553
f 1549 1550 1544
f 1490 1489 1474
f 1508 1517 1507
f 1540 1552 1551
f 1530 1519 1531
f 1496 1507 1495
f 1517 1527 1516
f 1477 1476 1473
f 1476 1475 1472
f 1498 1488 1499
f 1557 1554 1549
f 1543 1544 1554
f 1554 1549 1543
f 1474 1480 1490
f 1480 1475 1485
f 1553 1556 1548
f 1547 1552 1542
f 1533 1540 1528
f 1540 1539 1528
f 1539 1527 1528
f 1506 1493 1494
f 1510 1519 1509
f 1550 1545 1537
f 1544 1537 1529
f 1545 1544 1529
v 0.02850 -0.11200 -0.07150
v 0.02850 -0.11200 0.00950
v 0.25050 -0.11200 0.05050
v 0.02850 -0.11200 0.05050
v -0.19250 -0.11200 0.05067
v 0.10250 -0.11200 0.09050
v 0.02850 -0.11200 0.11050
v -0.19250 -0.11200 0.17150
v 0.25050 -0.11200 0.17150
v 0.03350 -0.12181 -0.04247
v 0.10250 -0.13200 -0.03050
v -0.04450 -0.13200 -0.03050
v 0.25050 -0.13200 0.13050
v -0.19250 -0.13200 0.13050
v 0.10250 -0.13200 0.17150
v -0.05250 -0.13500 -0.01550
v -0.05250 -0.13500 0.03250
v 0.01350 -0.14600 0.03350
v 0.17650 -0.15200 0.00950
v -0.11850 -0.15200 0.00950
v 0.25050 -0.15200 0.09050
v -0.19250 -0.15200 0.09050
v -0.04450 -0.15200 0.17150
v -0.02648 -0.15602 -0.04834
v 0.07350 -0.15800 0.03250
v 0.05350 -0.15900 0.11250
v 0.03327 -0.16092 0.19268
v -0.02150 -0.16600 -0.01550
v -0.02150 -0.16600 0.00850
v -0.02150 -0.16600 0.03250
v 0.09349 -0.15601 -0.04844
v 0.02850 -0.17100 -0.07150
v 0.02850 -0.17100 0.00950
v 0.25050 -0.17100 0.05050
v 0.02850 -0.17100 0.05050
v -0.19250 -0.17100 0.05059
v -0.04450 -0.17100 0.09050
v 0.25050 -0.17100 0.11050
v 0.02850 -0.17100 0.11050
v -0.00650 -0.17100 0.11050
v 0.10250 -0.17100 0.13050
v 0.25050 -0.17100 0.17150
v -0.19250 -0.17100 0.17150
v 0.09349 -0.22399 -0.05960
v 0.00350 -0.17300 -0.05150
v 0.09350 -0.17500 0.06950
v -0.02650 -0.17500 0.06950
v -0.10610 -0.18193 -0.03485
v -0.11507 -0.18987 0.01001
v 0.03350 -0.19000 -0.05350
v -0.02650 -0.19200 0.02650
v 0.09349 -0.19482 0.18778
v -0.02650 -0.19499 0.18733
v -0.09725 -0.21030 -0.03903
v -0.08784 -0.19966 0.01351
v 0.05350 -0.20100 -0.05550
v 0.01350 -0.20100 -0.05550
v 0.09350 -0.20400 0.10550
v 0.07350 -0.20600 0.18550
v 0.03350 -0.20600 0.18550
v 0.06350 -0.21200 0.18450
v -0.05960 -0.19873 -0.02942
v -0.10898 -0.24154 0.00146
v 0.09350 -0.21400 0.02250
v -0.02649 -0.22384 -0.05964
v -0.16150 -0.22600 -0.10850
v -0.16137 -0.22616 0.00350
v -0.02650 -0.22700 0.10150
v -0.16050 -0.22900 -0.05550
v -0.16050 -0.22900 -0.00650
v 0.09350 -0.22900 0.18150
v 0.03350 -0.22900 0.18150
v -0.15050 -0.23800 -0.03350
v 0.01350 -0.24000 0.17950
v -0.14450 -0.24300 0.00350
v -0.00650 -0.24800 0.01750
v -0.13850 -0.24900 -0.07150
v -0.18450 -0.24900 -0.03350
v -0.16150 -0.24900 0.00350
v 0.03353 -0.25785 -0.06464
v -0.13050 -0.25900 -0.05550
v -0.13050 -0.25900 -0.00650
v -0.12750 -0.26000 -0.10850
v -0.17350 -0.26000 -0.10850
v -0.19628 -0.26020 -0.10850
v -0.12750 -0.26000 -0.05250
v -0.19650 -0.26000 -0.05250
v -0.12750 -0.26000 0.00350
v -0.19650 -0.26000 0.00350
v 0.07350 -0.26100 0.09550
v 0.09350 -0.26276 0.17654
v 0.03350 -0.26300 0.17650
v -0.02650 -0.26284 0.17653
v -0.18450 -0.27200 -0.07150
v -0.13850 -0.27200 -0.03350
v -0.16150 -0.27200 0.00350
v 0.01350 -0.27200 0.09350
v 0.03350 -0.27400 0.17450
v 0.06350 -0.28000 0.17350
v -0.15050 -0.28300 -0.07150
v -0.17350 -0.28300 -0.03350
v -0.16138 -0.29512 -0.10850
v -0.16150 -0.29500 -0.05250
v -0.16135 -0.29514 0.00350
v 0.03336 -0.29692 0.17050
usemtl m062
f 1560 1558 1559
f 1601 1637 1613
f 1637 1622 1614
f 1599 1566 1572
f 1565 1599 1572
f 1600 1599 1580
f 1589 1562 1569
f 1589 1593 1577
f 1560 1591 1576
f 1589 1560 1576
f 1589 1558 1568
f 1600 1565 1571
f 1562 1600 1571
f 1593 1600 1579
f 1562 1593 1579
f 1560 1566 1570
f 1599 1560 1570
f 1599 1595 1578
f 1659 1642 1641
f 1623 1659 1641
f 1645 1632 1636
f 1646 1645 1636
f 1627 1606 1605
f 1585 1620 1619
f 1585 1586 1620
f 1573 1611 1605
f 1585 1619 1611
f 1639 1612 1606
f 1639 1620 1612
f 1662 1650 1654
f 1650 1622 1633
f 1637 1650 1633
f 1650 1610 1625
f 1610 1604 1608
f 1622 1610 1608
f 1610 1584 1597
f 1581 1604 1597
f 1584 1567 1575
f 1581 1584 1575
f 1584 1609 1583
f 1609 1603 1582
f 1567 1609 1582
f 1609 1628 1615
f 1588 1603 1615
f 1588 1648 1621
f 1648 1656 1647
f 1601 1648 1647
f 1661 1646 1658
f 1659 1660 1658
f 1646 1644 1651
f 1659 1646 1651
f 1646 1624 1635
f 1642 1644 1635
f 1624 1623 1642
f 1624 1632 1630
f 1645 1643 1634
f 1623 1645 1634
f 1645 1661 1652
f 1640 1643 1652
f 1661 1660 1657
f 1640 1661 1657
f 1566 1564 1565
f 1562 1564 1563
f 1560 1561 1563
f 1562 1561 1559
f 1558 1562 1559
f 1591 1595 1598
f 1600 1596 1598
f 1591 1596 1594
f 1593 1592 1594
f 1591 1592 1590
f 1589 1591 1590
f 1567 1601 1613
f 1637 1607 1613
f 1567 1607 1614
f 1622 1602 1614
f 1567 1602 1581
f 1648 1628 1616
f 1584 1618 1616
f 1648 1618 1617
f 1610 1629 1617
f 1648 1629 1631
f 1650 1649 1631
f 1648 1649 1655
f 1662 1656 1655
f 1562 1558 1569
f 1593 1562 1577
f 1558 1560 1568
f 1591 1560 1578
f 1632 1624 1636
f 1661 1645 1653
f 1574 1573 1606
f 1639 1638 1619
f 1638 1626 1605
f 1619 1638 1611
f 1587 1574 1612
f 1604 1581 1608
f 1603 1588 1582
f 1628 1648 1615
f 1648 1601 1621
f 1656 1662 1647
f 1644 1642 1651
f 1632 1645 1630
f 1643 1640 1634
f 1660 1659 1657
f 1564 1566 1563
f 1561 1560 1559
f 1595 1599 1598
f 1596 1600 1594
f 1592 1593 1590
f 1607 1637 1614
f 1602 1622 1581
f 1628 1609 1616
f 1618 1584 1617
f 1629 1610 1631
f 1649 1650 1655
f 1566 1565 1572
f 1565 1600 1580
f 1599 1565 1580
f 1558 1589 1569
f 1562 1589 1577
f 1591 1589 1576
f 1560 1589 1568
f 1565 1562 1571
f 1600 1562 1579
f 1566 1599 1570
f 1595 1591 1578
f 1560 1599 1578
f 1642 1623 1641
f 1659 1623 1640
f 1624 1646 1636
f 1646 1661 1653
f 1645 1646 1653
f 1606 1573 1605
f 1626 1627 1605
f 1620 1639 1619
f 1586 1587 1620
f 1611 1638 1605
f 1573 1585 1611
f 1612 1574 1606
f 1627 1639 1606
f 1620 1587 1612
f 1637 1662 1654
f 1650 1637 1654
f 1622 1637 1633
f 1622 1650 1625
f 1610 1622 1625
f 1581 1622 1608
f 1604 1610 1597
f 1584 1581 1597
f 1567 1581 1575
f 1567 1584 1583
f 1609 1567 1583
f 1588 1567 1582
f 1603 1609 1615
f 1648 1588 1615
f 1601 1588 1621
f 1662 1601 1647
f 1637 1601 1662
f 1660 1661 1658
f 1646 1659 1658
f 1642 1659 1651
f 1644 1646 1635
f 1624 1642 1635
f 1623 1624 1630
f 1645 1623 1630
f 1640 1623 1634
f 1643 1645 1652
f 1661 1640 1652
f 1659 1640 1657
f 1564 1562 1565
f 1561 1562 1563
f 1566 1560 1563
f 1596 1591 1598
f 1599 1600 1598
f 1592 1591 1594
f 1600 1593 1594
f 1593 1589 1590
f 1601 1567 1588
f 1607 1567 1613
f 1602 1567 1614
f 1618 1648 1616
f 1609 1584 1616
f 1629 1648 1617
f 1584 1610 1617
f 1649 1648 1631
f 1610 1650 1631
f 1656 1648 1655
f 1650 1662 1655
