# daf_trailer_wheel_1l.obj - ISO 8855 (x ileri, y sol, z yukari), metre
mtllib daf.mtl
o daf_trailer_wheel_1l
v 0.13534 0.19437 -0.33370
v -0.06152 0.19534 -0.48811
v 0.21635 0.20252 -0.40003
v -0.28061 0.19942 -0.37713
v -0.46576 0.20006 -0.04852
v 0.36702 0.20170 0.28754
v -0.00508 0.19961 0.47015
v 0.04047 0.19925 -0.47250
v -0.17992 0.20006 -0.43206
v -0.34939 0.20265 -0.30229
v 0.43005 0.19643 -0.22996
v -0.34387 0.18931 -0.10622
v 0.42220 0.19971 0.20259
v -0.45691 0.19985 0.11748
v -0.33909 0.20227 0.24256
v -0.21266 0.19986 0.41753
v -0.19150 0.19950 -0.43000
v -0.21350 0.19950 -0.41900
v -0.21350 0.19950 -0.41800
v -0.23550 0.19950 -0.40800
v -0.23550 0.19950 -0.40700
v 0.17991 0.19497 -0.45663
v 0.29782 0.19960 -0.36655
v -0.23614 0.19971 -0.40426
v -0.42921 0.19570 -0.23382
v 0.43742 0.19945 -0.16802
v -0.46919 0.20018 -0.00893
v 0.49072 0.19383 0.05699
v 0.46769 0.19947 -0.03043
v 0.46670 0.20074 0.00817
v 0.45802 0.19944 0.10630
v -0.47100 0.19371 0.15756
v -0.20300 0.19447 0.45448
v -0.26682 0.20013 0.38517
v 0.29625 0.20140 0.37712
v -0.12857 0.19966 0.45199
v 0.15293 0.19923 0.44668
v -0.06951 0.19843 -0.38509
v -0.35583 0.20204 -0.31001
v -0.08176 0.19267 0.35596
v 0.17480 0.19146 0.31230
v 0.04234 0.19159 0.49813
v -0.36396 0.19730 0.32128
v -0.33912 0.19421 0.36071
v 0.29027 0.18943 0.41113
v 0.17369 0.19447 0.46232
v -0.03529 0.18751 -0.50808
v -0.19645 0.19331 -0.45116
v -0.11490 0.18892 -0.34421
v 0.47406 0.19593 -0.13365
v -0.49118 0.19611 -0.03100
v 0.35504 0.19076 0.00458
v 0.31642 0.19268 0.16500
v 0.43852 0.19380 0.23058
v 0.31454 0.19537 -0.19350
v -0.30564 0.18811 0.18325
v -0.33608 0.19419 -0.36816
v -0.50538 0.18241 0.12712
v 0.34045 0.19204 0.35930
v 0.26406 0.17810 0.45914
v -0.21569 0.18178 -0.47187
v 0.32476 0.17894 -0.41503
v 0.32287 0.19197 -0.37818
v -0.27093 0.18033 -0.45277
v -0.49852 0.18008 -0.17650
v 0.49330 0.18325 -0.17593
v 0.50084 0.18048 0.15060
v -0.17964 0.18198 0.48676
v 0.09709 0.18145 0.50962
v -0.50889 0.18283 -0.07118
v 0.50322 0.18170 0.10917
v 0.07189 0.18081 -0.51971
v 0.06181 0.17450 -0.31638
v 0.25037 0.17450 -0.20838
v -0.16350 0.17450 -0.28300
v 0.32038 0.17450 -0.04506
v -0.28394 0.17450 -0.15269
v 0.29800 0.17450 0.12587
v -0.32700 0.17450 0.02125
v 0.17125 0.17450 0.27600
v -0.26625 0.17450 0.18825
v 0.00400 0.17450 0.32263
v 0.21629 0.16826 -0.48737
v -0.37078 0.17951 0.37454
v -0.09300 0.17125 -0.52418
v 0.42184 0.17233 -0.32371
v 0.52698 0.17301 -0.05365
v 0.52665 0.17230 0.03223
v 0.32737 0.16622 0.41891
v -0.28202 0.16829 0.45535
v -0.52481 0.16604 -0.11041
v -0.48690 0.16592 0.21813
v 0.01241 0.17185 0.53197
v -0.00945 0.16449 -0.55042
v 0.00675 0.16550 -0.54850
v -0.05885 0.16477 -0.54795
v 0.01779 0.16598 -0.53193
v 0.11676 0.16671 -0.52005
v -0.18316 0.16536 -0.51889
v -0.24700 0.16671 -0.47305
v 0.31856 0.16476 -0.44860
v -0.39181 0.16920 -0.36219
v 0.46825 0.16574 -0.26844
v 0.51499 0.16524 -0.19461
v -0.47916 0.16549 -0.26536
v 0.50665 0.16561 -0.16062
v -0.52305 0.16542 -0.16851
v 0.51511 0.16974 -0.15405
v 0.54511 0.16474 -0.04829
v -0.53088 0.17228 0.03509
v -0.52541 0.16660 0.09629
v 0.48908 0.17322 0.21529
v -0.53333 0.16548 0.13703
v 0.45271 0.16547 0.30034
v 0.49856 0.16510 0.23809
v 0.44187 0.16590 0.29658
v 0.39525 0.16494 0.38433
v 0.38415 0.17374 0.36456
v -0.45134 0.16864 0.28983
v -0.33068 0.16418 0.44389
v 0.19431 0.16778 0.49812
v -0.28724 0.16571 0.45690
v -0.14229 0.17074 0.51372
v -0.00950 0.16559 0.53365
v -0.17054 0.16524 0.52428
v -0.01462 0.16495 0.55269
v -0.09337 0.16440 0.54393
v -0.54780 0.16516 0.05142
v -0.53817 0.16418 0.11840
v -0.00050 0.16350 -0.55200
v 0.02850 0.16350 -0.55000
v 0.05750 0.16350 -0.54900
v -0.10387 0.16540 -0.53973
v 0.16027 0.16508 -0.52765
v 0.19693 0.16502 -0.51421
v -0.23032 0.16539 -0.50040
v -0.50293 0.13464 -0.24028
v -0.50377 0.16385 -0.22537
v -0.51450 0.16350 -0.19700
v -0.52450 0.16350 -0.17000
v -0.53682 0.16546 -0.11819
v -0.54450 0.16350 0.08600
v -0.53311 0.13258 0.17441
v -0.48507 0.16520 0.26553
v -0.39906 0.16522 0.38043
v 0.34023 0.16541 0.43264
v 0.25720 0.16504 0.49009
v 0.02850 0.16250 -0.55000
v 0.05750 0.16250 -0.54900
v 0.06324 0.16187 -0.54814
v 0.10194 0.16510 -0.54134
v -0.11607 0.16340 -0.53948
v -0.31312 0.16501 -0.45602
v -0.40649 0.16462 -0.37313
v -0.40713 0.16487 -0.36465
v 0.52689 0.13273 -0.18139
v -0.50450 0.16250 -0.22400
v -0.51450 0.16250 -0.19700
v -0.54248 0.13310 0.05814
v -0.54181 0.16350 0.10362
v 0.37341 0.13282 0.41827
v -0.03879 0.13275 -0.55524
v -0.44775 0.13207 0.33070
v 0.43763 0.16452 -0.33754
v -0.50481 0.16121 -0.22381
v -0.53625 0.13819 -0.15132
v -0.54987 0.16481 -0.05662
v 0.54864 0.16479 0.08501
v -0.52567 0.16377 0.16879
v -0.23849 0.16282 0.49832
v 0.11694 0.16512 0.53876
v -0.17089 0.13331 -0.52019
v 0.27836 0.13188 -0.47434
v -0.34438 0.13207 -0.42492
v 0.40593 0.13172 -0.36153
v 0.53783 0.13167 -0.10094
v 0.51480 0.13178 0.18529
v 0.49111 0.16289 0.25771
v -0.46289 0.13150 0.27871
v 0.37404 0.13150 0.38910
v -0.33348 0.13150 0.42558
v 0.16079 0.13151 0.53513
v 0.04469 0.13150 0.54222
v -0.26335 0.13153 0.49832
v -0.03374 0.13150 0.55455
v 0.26838 0.12250 -0.43335
v -0.10350 0.12250 -0.51100
v 0.17871 0.12251 -0.52742
v -0.32317 0.12250 -0.45459
v -0.26222 0.12250 -0.43875
v 0.48622 0.12250 -0.17850
v 0.50750 0.12250 0.10856
v -0.55459 0.12249 0.05832
v 0.45505 0.12250 0.24050
v -0.48235 0.12250 -0.06498
v 0.22117 0.12250 0.46859
v 0.07987 0.12250 0.51091
v -0.30927 0.12250 0.39697
v -0.09621 0.12251 0.55244
v 0.05408 0.08312 -0.55139
v -0.06607 0.12250 -0.55786
v 0.13891 0.08301 -0.53699
v -0.02762 0.08381 -0.55420
v -0.11880 0.08318 -0.54205
v 0.29894 0.08308 -0.46741
v -0.20297 0.08297 -0.51588
v -0.41460 0.08324 -0.36893
v 0.40721 0.12250 -0.39094
v -0.52019 0.12249 -0.21563
v 0.51724 0.08360 -0.20001
v -0.53737 0.08266 -0.13729
v 0.55401 0.08352 -0.03126
v 0.55621 0.12250 -0.07242
v 0.53618 0.08362 0.13995
v -0.55512 0.08356 0.03279
v -0.54172 0.08363 0.11598
v -0.47624 0.12250 0.29417
v 0.46765 0.08280 0.29780
v -0.51673 0.08328 0.20135
v 0.51501 0.12249 0.21796
v 0.41474 0.08299 0.36836
v 0.40674 0.12250 0.37943
v 0.34913 0.08367 0.43090
v -0.36895 0.08314 0.41485
v -0.30525 0.12250 0.46516
v -0.29847 0.08301 0.46742
v -0.14097 0.08369 0.53673
v 0.20028 0.12248 0.52418
v 0.03334 0.08298 0.55330
v 0.54210 0.08362 -0.11634
v 0.50709 0.08399 0.22354
v -0.47886 0.08322 0.27966
v 0.07083 0.13202 -0.54216
v -0.46743 0.13150 -0.26849
v -0.17001 0.13150 0.51190
v -0.11100 0.08350 -0.51000
v 0.16975 0.08250 -0.49150
v 0.37625 0.08450 -0.35875
v -0.44050 0.08150 -0.27950
v -0.48175 0.08250 -0.19900
v 0.45400 0.08250 -0.25500
v 0.50775 0.08350 -0.11025
v -0.51550 0.08350 0.07050
v 0.51700 0.08350 0.05200
v -0.40225 0.08250 0.33050
v 0.36625 0.08450 0.37025
v 0.29950 0.08150 0.42700
v -0.01150 0.08350 0.52150
v -0.34981 0.08376 -0.43141
v 0.49250 0.08250 0.17075
v 0.22393 0.08354 -0.50773
v 0.00888 0.08200 -0.51987
v -0.19875 0.08350 -0.48175
v -0.28021 0.08329 -0.47847
v -0.30575 0.08350 -0.42175
v 0.36859 0.08324 -0.41412
v 0.27950 0.08150 -0.44000
v -0.38825 0.08450 -0.34800
v 0.43054 0.08376 -0.34849
v 0.47840 0.08313 -0.28030
v -0.46787 0.08308 -0.29819
v -0.50800 0.08356 -0.22506
v -0.51500 0.08200 -0.08038
v -0.55201 0.08365 -0.05476
v 0.55207 0.08327 0.05543
v -0.47350 0.08350 0.21750
v 0.44362 0.08300 0.27238
v -0.43044 0.08347 0.35105
v -0.30650 0.08250 0.42175
v -0.19925 0.08250 0.48175
v 0.27916 0.08335 0.47873
v -0.09050 0.08150 0.51350
v -0.22392 0.08396 0.50797
v 0.19638 0.08500 0.48225
v 0.20033 0.08337 0.51624
v 0.08000 0.08350 0.51450
v 0.11613 0.08356 0.54297
v -0.05300 0.08291 0.55164
v -0.03084 0.07094 -0.55462
v 0.18813 0.07172 -0.52122
v 0.25550 0.07450 -0.45500
v 0.37950 0.07050 -0.35700
v 0.43175 0.07150 -0.29200
v -0.49900 0.07250 -0.14900
v 0.52050 0.07150 -0.02350
v 0.04140 0.07215 -0.55308
v -0.19642 0.07236 -0.51837
v 0.10539 0.07248 -0.54474
v -0.27288 0.07267 -0.48336
v 0.26831 0.07202 -0.48576
v -0.34551 0.07265 -0.43396
v 0.34603 0.07346 -0.43681
v 0.45853 0.07242 -0.31147
v -0.48534 0.07270 -0.26927
v 0.50140 0.07251 -0.23478
v 0.49550 0.07250 -0.16350
v 0.53475 0.07362 -0.14716
v -0.54327 0.07300 -0.10769
v 0.54955 0.07277 -0.06664
v -0.55067 0.07296 0.06558
v 0.54521 0.07252 0.10573
v 0.52207 0.07140 0.18732
v -0.50553 0.07315 0.23252
v -0.46114 0.07315 0.30757
v -0.40524 0.07238 0.37924
v 0.37741 0.07269 0.40562
v -0.34176 0.07257 0.43713
v 0.30970 0.07267 0.46018
v -0.27154 0.07312 0.48430
v 0.23350 0.07265 0.50263
v -0.18788 0.07228 0.52143
v -0.10050 0.07300 0.51012
v 0.14907 0.07342 0.53512
v -0.10486 0.07184 0.54547
v 0.06674 0.07268 0.55036
v -0.01680 0.07136 0.55481
v 0.10250 0.07450 -0.51100
v -0.02212 0.07300 -0.51950
v 0.17850 0.07250 -0.49000
v -0.14100 0.07450 -0.50250
v 0.31900 0.07050 -0.41250
v -0.25475 0.07350 -0.45325
v 0.40506 0.07262 -0.37808
v -0.36050 0.07450 -0.37600
v 0.47350 0.07350 -0.21875
v -0.43900 0.07450 -0.28125
v 0.51050 0.07050 -0.10600
v -0.52050 0.07250 -0.02875
v 0.50975 0.07450 0.10250
v -0.51075 0.07450 0.10075
v 0.45462 0.07200 0.25213
v -0.45300 0.07250 0.25575
v 0.35537 0.07100 0.37912
v -0.37525 0.07350 0.36175
v 0.22025 0.07150 0.47075
v -0.25475 0.07450 0.45350
v 0.06050 0.07400 0.51675
v 0.54407 0.03056 0.11039
v 0.48494 0.07226 0.27051
v 0.26465 0.03190 0.49001
v -0.11044 0.07268 -0.54306
v -0.19207 0.03029 -0.52042
v -0.43899 0.07213 -0.34048
v -0.50251 0.03115 -0.23655
v 0.44587 0.03305 -0.33426
v -0.53360 0.07296 0.15143
v 0.43655 0.07277 0.34327
v 0.01036 0.03266 -0.55610
v 0.23435 0.03043 -0.50292
v -0.39478 0.07233 -0.38975
v 0.48572 0.03048 -0.26879
v -0.55550 0.07217 -0.01691
v -0.54438 0.03051 0.10665
v -0.48703 0.03108 0.26696
v -0.24961 0.03060 -0.49532
v -0.52499 0.07125 -0.18354
v 0.55132 0.02998 -0.06352
v -0.55122 0.03058 -0.06729
v 0.55361 0.07317 0.02262
v -0.55451 0.03024 0.02067
v -0.52140 0.03088 0.18775
v 0.34227 0.03061 0.43748
v -0.15208 0.03036 0.53417
v -0.00088 0.03017 0.55553
v -0.30737 0.03032 -0.46223
v 0.31003 0.03086 -0.45823
v 0.37898 0.03090 -0.40389
v -0.37443 0.03068 -0.40923
v -0.43471 0.03040 -0.34376
v 0.52014 0.03030 -0.19111
v 0.53962 0.03057 -0.12659
v 0.48236 0.03032 0.27210
v 0.44673 0.03063 0.32810
v -0.43713 0.03066 0.34098
v 0.40374 0.03094 0.37959
v -0.40675 0.03444 0.38040
v 0.18661 0.03103 0.52277
v 0.12651 0.03063 0.53968
v -0.06746 0.03046 0.55016
v -0.06614 0.03013 -0.55117
v -0.12749 0.03056 -0.53958
v -0.09775 0.02800 -0.51175
v 0.02150 0.02950 -0.52100
v 0.10150 0.02850 -0.51175
v -0.19863 0.02950 -0.48175
v 0.16200 0.02950 -0.49600
v 0.19850 0.02750 -0.48300
v -0.29775 0.02900 -0.42737
v 0.25537 0.03000 -0.45287
v -0.40800 0.02950 -0.32287
v 0.38237 0.02950 -0.35187
v -0.46350 0.03150 -0.24000
v -0.48750 0.02900 -0.18562
v -0.51150 0.03050 -0.10375
v 0.47025 0.02925 -0.22131
v -0.53333 0.03054 -0.15249
v -0.52100 0.02900 0.01000
v 0.55369 0.02992 0.02311
v 0.51475 0.02950 -0.08025
v -0.49675 0.02900 0.15538
v 0.51800 0.02900 0.05188
v 0.49550 0.02950 0.16250
v -0.45525 0.02850 0.25475
v 0.48050 0.03150 0.20300
v -0.38300 0.02950 0.35200
v 0.45400 0.02950 0.25600
v 0.38787 0.02950 0.34700
v -0.29225 0.03050 0.43225
v 0.29650 0.02950 0.42800
v -0.17138 0.02900 0.49212
v -0.27346 0.03045 0.48298
v 0.18912 0.02900 0.48550
v -0.03063 0.02850 0.52000
v 0.06987 0.02950 0.51600
v 0.06251 0.03042 0.55120
v 0.06668 0.03048 -0.54973
v 0.15450 0.03079 -0.53327
v -0.47167 0.03058 -0.29197
v 0.51888 0.03064 0.19424
v -0.34736 0.03102 0.43295
v -0.21490 0.03064 0.51139
v 0.03299 0.01935 -0.55316
v 0.19956 0.01850 -0.51747
v -0.55495 0.01796 0.01583
v 0.07884 0.01843 0.54866
v 0.06900 0.01950 -0.51525
v -0.05325 0.01950 -0.51875
v 0.18800 0.01950 -0.48625
v -0.14338 0.01950 -0.50075
v 0.25325 0.01950 -0.45600
v 0.32150 0.02000 -0.40987
v -0.24775 0.01950 -0.45900
v -0.35441 0.01846 -0.42615
v 0.40762 0.01950 -0.32375
v -0.34000 0.01950 -0.39475
v -0.40450 0.01950 -0.32925
v 0.47575 0.02000 -0.20937
v -0.46875 0.02000 -0.22588
v 0.51375 0.02000 -0.08237
v 0.51913 0.02000 0.03975
v -0.51575 0.01950 -0.06950
v 0.49738 0.01950 0.15463
v -0.51763 0.02100 0.06113
v 0.44875 0.02000 0.26213
v -0.49125 0.01950 0.17200
v -0.43875 0.01950 0.28275
v 0.36875 0.02000 0.36763
v -0.44230 0.01879 0.33626
v -0.36775 0.02000 0.36925
v 0.28225 0.01950 0.43850
v 0.19850 0.01950 0.48175
v -0.27100 0.01950 0.44500
v 0.06250 0.01950 0.51700
v -0.18900 0.01950 0.48650
v -0.06425 0.01900 0.51675
v -0.07691 0.01962 0.54978
v -0.03246 0.01926 -0.55455
v -0.09535 0.01952 -0.54815
v 0.11686 0.01868 -0.54268
v -0.16472 0.01846 -0.52945
v 0.28011 0.01901 -0.47866
v 0.35184 0.01898 -0.42834
v -0.40362 0.01791 -0.38033
v 0.41357 0.01863 -0.36985
v -0.44459 0.01842 -0.33158
v 0.46479 0.01847 -0.30104
v -0.48063 0.01836 -0.27787
v -0.51763 0.01825 -0.19813
v -0.53669 0.01960 -0.14239
v -0.55011 0.01877 -0.07469
v 0.54151 0.01935 0.11836
v -0.52275 0.01818 0.18655
v 0.51921 0.01777 0.19750
v -0.38173 0.01828 0.40241
v -0.31640 0.01852 0.45749
v 0.31918 0.01840 0.45337
v 0.26502 0.01822 0.48729
v 0.20501 0.01839 0.51546
v 0.14227 0.01841 0.53510
v 0.52282 0.01840 -0.18503
v -0.23809 0.01822 0.50060
v -0.30289 0.01818 -0.46448
v 0.54045 0.01846 -0.12225
v 0.55133 0.01834 -0.05712
v -0.54690 0.01838 0.10123
v 0.55339 0.01917 0.03073
v -0.48770 0.01835 0.26534
v 0.47995 0.01842 0.27761
v 0.43051 0.01835 0.35004
v -0.16239 0.01970 0.53100
v 0.01435 0.01822 0.55470
v -0.13839 -0.01842 -0.53745
v -0.55449 -0.01851 -0.03518
v 0.37080 0.01823 0.41276
v 0.11525 0.00050 -0.18825
v -0.02625 0.00050 -0.21775
v 0.20400 0.00050 -0.08450
v -0.19100 0.00050 -0.11700
v 0.21125 0.00050 0.05975
v -0.22050 0.00050 0.01512
v 0.12575 0.00050 0.18050
v -0.17000 0.00050 0.14550
v -0.00050 0.00050 0.22200
v 0.07624 -0.01920 -0.54981
v 0.35238 -0.01911 -0.42727
v -0.37267 -0.01975 -0.41462
v -0.42740 -0.01836 -0.35443
v -0.51912 -0.01928 -0.19754
v -0.53885 -0.01831 0.13780
v -0.50938 -0.01849 0.22066
v 0.32995 -0.01771 0.44609
v -0.24656 -0.01812 0.49754
v -0.22753 0.01794 -0.50600
v -0.29605 -0.01818 -0.46951
v -0.47677 -0.01804 -0.28460
v 0.49547 0.01649 -0.25202
v 0.52518 -0.01796 -0.17749
v -0.16603 -0.01803 0.52931
v -0.21951 -0.01833 -0.50951
v 0.46687 -0.01852 -0.29686
v -0.54315 -0.02040 -0.11143
v -0.55129 -0.01864 0.05301
v 0.54206 -0.01939 0.12067
v 0.52465 -0.01877 0.17887
v 0.49717 -0.01849 0.24475
v -0.47993 -0.01840 0.27814
v 0.45755 -0.01957 0.31801
v 0.16753 -0.01920 0.52932
v 0.16269 -0.01905 -0.52951
v -0.08037 -0.01950 -0.51450
v 0.03025 -0.02050 -0.52100
v -0.20925 -0.02050 -0.47800
v 0.10338 -0.01900 -0.51038
v -0.29775 -0.02000 -0.42787
v 0.22850 -0.01900 -0.46687
v -0.40138 -0.01950 -0.33087
v 0.41753 -0.01863 -0.36575
v 0.35475 -0.01900 -0.38125
v -0.47275 -0.01950 -0.21925
v 0.43825 -0.01950 -0.27900
v -0.49925 -0.02050 -0.15150
v 0.54191 -0.01823 -0.11515
v -0.51975 -0.02025 -0.02569
v 0.55286 -0.01870 -0.05248
v 0.50325 -0.01950 -0.12975
v -0.51750 -0.01950 0.07050
v -0.50525 -0.01850 0.12925
v 0.51850 -0.01950 0.03200
v -0.48600 -0.01950 0.18900
v -0.45275 -0.02000 0.25850
v 0.48075 -0.02000 0.20012
v -0.38338 -0.02000 0.35300
v 0.42700 -0.01950 0.29925
v -0.44370 -0.01856 0.33375
v 0.37575 -0.02050 0.36200
v -0.27300 -0.02000 0.44387
v 0.32950 -0.01950 0.40450
v -0.31885 -0.01858 0.45385
v -0.16188 -0.02000 0.49550
v 0.23500 -0.01950 0.46475
v -0.03237 -0.01950 0.51900
v 0.12000 -0.01950 0.50700
v -0.08005 -0.01830 0.54916
v 0.01372 -0.01842 -0.55401
v -0.05439 -0.01882 -0.55160
v 0.24448 -0.01831 -0.49731
v 0.30083 -0.01838 -0.46540
v 0.49976 -0.01841 -0.23982
v 0.55338 -0.01838 0.03665
v 0.39842 -0.01863 0.38520
v -0.38586 -0.01873 0.40003
v 0.27747 -0.01845 0.47960
v 0.22670 -0.02081 0.50618
v 0.09439 -0.01833 0.54607
v 0.01007 -0.01880 0.55555
v -0.08956 -0.03145 -0.54683
v -0.36158 -0.03151 -0.42018
v -0.45649 -0.03058 -0.31414
v -0.54793 -0.03154 -0.08366
v -0.48228 -0.03217 0.27577
v -0.26836 -0.03157 0.48567
v -0.20957 -0.03163 0.51309
v 0.08549 -0.03133 -0.54702
v 0.06706 -0.03050 -0.51656
v -0.05300 -0.03050 -0.51813
v 0.16075 -0.02950 -0.49600
v -0.23156 -0.03086 -0.50458
v 0.27050 -0.03000 -0.44363
v -0.16931 -0.03000 -0.49275
v -0.26550 -0.03100 -0.44812
v 0.32520 -0.03088 -0.44978
v 0.37388 -0.03050 -0.36175
v 0.38921 -0.03173 -0.39568
v 0.44825 -0.03050 -0.26450
v -0.36837 -0.03000 -0.36700
v -0.44575 -0.03050 -0.27100
v 0.48825 -0.03000 -0.18113
v -0.48250 -0.03050 -0.19825
v 0.51788 -0.03050 -0.04225
v -0.50775 -0.03050 -0.12025
v -0.51850 -0.03050 -0.05950
v 0.51287 -0.03050 0.09025
v -0.53900 -0.03059 0.13029
v -0.51850 -0.02950 0.04100
v 0.47762 -0.03050 0.20750
v -0.48875 -0.03050 0.18225
v 0.42250 -0.03050 0.30525
v -0.44682 -0.03091 0.32766
v 0.49518 -0.03060 0.25087
v 0.34612 -0.02950 0.38925
v -0.43394 -0.03075 0.28569
v 0.39583 -0.03210 0.38817
v 0.26450 -0.03050 0.44875
v -0.33687 -0.03050 0.39650
v 0.12325 -0.03100 0.50500
v -0.22687 -0.03000 0.46900
v -0.14025 -0.03050 0.50200
v -0.02925 -0.03050 0.52012
v 0.14766 -0.03158 -0.53416
v 0.20792 -0.03179 -0.51371
v -0.17483 -0.03176 -0.52605
v -0.29337 -0.03166 -0.47159
v -0.51187 -0.03130 -0.21307
v 0.52580 -0.03173 -0.17453
v 0.54703 -0.03155 -0.08970
v -0.55265 -0.03058 0.04446
v 0.53913 -0.03192 0.12546
v 0.44905 -0.03012 0.32722
v -0.38922 -0.03189 0.39522
v 0.21637 -0.03179 0.51038
v -0.12848 -0.03128 0.54030
v 0.04505 -0.03132 0.55309
v 0.26808 -0.03170 -0.48472
v -0.00906 -0.03225 -0.55443
v 0.49259 -0.03172 -0.25465
v 0.55339 -0.03160 -0.02463
v -0.55644 -0.03265 -0.01484
v 0.55252 -0.03175 0.04000
v -0.53076 -0.07132 0.16410
v 0.53060 -0.03560 0.17270
v 0.34630 -0.03176 0.43337
v -0.02177 -0.04599 -0.27728
v -0.22991 -0.04046 -0.16429
v 0.18054 -0.04299 -0.21501
v -0.26556 -0.04521 0.08989
v 0.28008 -0.04114 0.04077
v -0.08472 -0.04029 0.26939
v 0.14688 -0.04612 0.23622
v 0.24503 -0.07390 -0.49700
v -0.40955 -0.03163 -0.37386
v 0.44745 -0.03139 -0.32683
v -0.53573 -0.03211 -0.14657
v -0.51179 -0.03212 0.21753
v -0.32300 -0.03206 0.45200
v 0.13262 -0.03170 0.53869
v -0.04119 -0.03155 0.55299
v 0.17047 -0.07316 -0.52835
v -0.42079 -0.07261 -0.36123
v -0.51184 -0.07219 -0.21575
v 0.52853 -0.07229 -0.16876
v -0.55508 -0.07228 -0.00330
v 0.28719 -0.07243 0.47392
v 0.44900 -0.07284 -0.32578
v -0.48953 -0.03353 -0.26289
v 0.49565 -0.07226 -0.24800
v -0.53936 -0.07276 -0.13013
v -0.54709 -0.07279 0.08614
v 0.39066 -0.07261 0.39459
v 0.29152 -0.03148 0.47205
v -0.25407 -0.07244 0.49370
v -0.19489 -0.07237 0.51945
v 0.12104 -0.07088 0.54521
v 0.02475 -0.07246 -0.55398
v -0.35666 -0.07159 -0.42609
v 0.54818 -0.07245 -0.08382
v 0.52717 -0.07321 0.17155
v 0.49712 -0.07451 0.24442
v 0.45393 -0.07373 0.32086
v -0.44904 -0.07334 0.32623
v 0.34057 -0.07239 0.43731
v 0.20639 -0.07180 0.51455
v -0.13099 -0.07262 0.53935
v 0.04023 -0.07241 0.55299
v -0.04858 -0.07203 0.55317
v -0.12715 -0.07242 -0.54110
v -0.07975 -0.07350 -0.51375
v 0.05238 -0.07350 -0.51813
v -0.20939 -0.07224 -0.51309
v 0.14300 -0.07350 -0.50200
v -0.22612 -0.07350 -0.46925
v 0.31877 -0.07267 -0.45427
v -0.28602 -0.07221 -0.47406
v 0.22850 -0.07350 -0.46775
v -0.33025 -0.07400 -0.40287
v -0.42012 -0.07350 -0.30662
v 0.31550 -0.07350 -0.41425
v -0.47128 -0.07226 -0.29268
v 0.42038 -0.07450 -0.30538
v -0.48875 -0.07350 -0.18175
v -0.51525 -0.07350 -0.08300
v 0.48550 -0.07300 -0.18775
v 0.51525 -0.07350 -0.08000
v -0.51850 -0.07400 0.04525
v 0.55372 -0.07252 0.00255
v 0.54644 -0.07197 0.09251
v 0.51975 -0.07400 0.02638
v -0.50300 -0.07350 0.14050
v -0.46412 -0.07350 0.23475
v 0.50300 -0.07350 0.13325
v -0.49528 -0.07261 0.25068
v -0.36887 -0.07350 0.36650
v 0.45825 -0.07350 0.24700
v 0.38125 -0.07350 0.35488
v -0.23688 -0.07400 0.46288
v -0.32781 -0.07261 0.44785
v 0.29613 -0.07350 0.42825
v 0.19775 -0.07350 0.48250
v -0.12375 -0.07350 0.50675
v 0.15950 -0.07350 0.49650
v -0.03175 -0.07400 0.52025
v 0.08913 -0.07300 0.51313
v 0.09169 -0.07201 -0.54635
v -0.04608 -0.07315 -0.55299
v 0.39593 -0.07189 -0.38832
v -0.55052 -0.07244 -0.06820
v -0.39733 -0.07191 0.38891
v -0.08038 -0.08474 -0.54843
v 0.05910 -0.08292 -0.55123
v 0.13487 -0.08500 -0.53782
v -0.24570 -0.08470 -0.49766
v 0.22112 -0.08425 -0.50836
v -0.31830 -0.08423 -0.45431
v 0.29578 -0.08467 -0.46936
v -0.38735 -0.08477 -0.39696
v -0.44240 -0.08422 -0.33402
v -0.49105 -0.08454 -0.25927
v -0.52594 -0.08471 -0.17910
v -0.54763 -0.08470 -0.09347
v 0.54861 -0.08400 -0.07696
v -0.55463 -0.08479 -0.00672
v 0.55484 -0.08451 0.00865
v -0.54933 -0.08420 0.07662
v 0.54526 -0.08486 0.09359
v -0.53037 -0.08434 0.16205
v 0.52488 -0.08484 0.17745
v -0.49784 -0.08481 0.24607
v 0.48833 -0.08352 0.26076
v -0.46598 -0.08456 0.30126
v 0.41634 -0.08466 0.36625
v -0.33250 -0.08454 0.44365
v 0.35285 -0.08454 0.42714
v -0.25911 -0.08451 0.48979
v 0.28267 -0.08470 0.47722
v -0.17931 -0.08472 0.52514
v 0.12327 -0.08487 0.54164
v -0.09730 -0.08415 0.54633
v 0.05655 -0.08464 0.55177
v -0.00480 -0.08525 0.55558
v -0.16658 -0.08506 -0.52902
v 0.08950 -0.08350 -0.51187
v -0.04138 -0.08250 -0.51925
v 0.23500 -0.08350 -0.46462
v -0.15175 -0.08250 -0.49925
v 0.34462 -0.08300 -0.38912
v -0.23813 -0.08350 -0.46325
v 0.36646 -0.08432 -0.41535
v -0.33963 -0.08350 -0.39525
v 0.44762 -0.08350 -0.26400
v -0.43875 -0.08300 -0.27963
v 0.50063 -0.08350 -0.14275
v -0.49200 -0.08400 -0.16825
v 0.52037 -0.08350 -0.00125
v 0.50325 -0.08350 0.13025
v -0.52013 -0.08350 -0.00888
v -0.50638 -0.08350 0.12325
v 0.44475 -0.08400 0.27038
v -0.45438 -0.08300 0.25512
v 0.39050 -0.08350 0.34550
v 0.29812 -0.08350 0.42575
v -0.37425 -0.08350 0.36150
v 0.16200 -0.08350 0.49525
v -0.25425 -0.08300 0.45487
v 0.03162 -0.08350 0.51900
v -0.13025 -0.08350 0.50375
v -0.00951 -0.08425 -0.55410
v 0.41287 -0.08463 -0.36970
v 0.53060 -0.08408 -0.16083
v -0.42704 -0.08458 0.35400
v -0.38252 -0.08462 0.40206
v 0.45300 -0.08444 -0.31844
v 0.49696 -0.08480 -0.24546
v 0.20437 -0.08456 0.51604
v -0.47150 -0.12350 0.29914
v 0.45532 -0.08377 0.31594
v 0.10167 -0.17642 -0.32680
v -0.30975 -0.17618 -0.14384
v -0.31278 -0.17632 0.14617
v 0.32845 -0.17647 0.07955
v 0.22387 -0.17639 0.25263
v -0.08861 -0.12350 -0.55192
v -0.17597 -0.12350 -0.48487
v -0.36331 -0.12349 -0.42560
v 0.06012 -0.12350 -0.51156
v 0.18632 -0.12349 -0.52836
v -0.40230 -0.12350 -0.32160
v 0.39764 -0.12349 -0.39159
v -0.51693 -0.12350 -0.21234
v 0.36078 -0.12350 -0.36256
v -0.50755 -0.12350 0.02128
v -0.55636 -0.12350 0.07934
v 0.53358 -0.12350 -0.17757
v 0.50798 -0.12350 0.00556
v -0.30088 -0.12350 0.39480
v 0.53337 -0.12350 0.18090
v -0.33623 -0.12350 0.44768
v 0.38434 -0.12350 0.34381
v 0.18450 -0.12350 0.48681
v 0.29551 -0.12351 0.48583
v -0.00150 -0.12350 0.51550
v -0.06048 -0.12350 0.55757
v 0.15498 -0.13173 -0.52851
v -0.02678 -0.13150 -0.54466
v -0.30009 -0.13215 -0.47696
v 0.38661 -0.13150 -0.37737
v -0.31692 -0.13150 -0.43941
v -0.49769 -0.13180 -0.23120
v 0.49830 -0.13149 -0.25719
v 0.50928 -0.13150 -0.18363
v 0.55205 -0.13189 -0.06123
v -0.54189 -0.13188 0.08807
v -0.46290 -0.13173 0.29358
v 0.48241 -0.13167 0.25329
v 0.02030 -0.13150 0.54114
v -0.04148 -0.13150 -0.55476
v 0.34806 -0.13222 -0.43886
v 0.40899 -0.13299 0.37128
v -0.40328 -0.16573 0.37814
v 0.16906 -0.13214 0.52228
v -0.18107 -0.13197 0.52927
v -0.54776 -0.13155 -0.09352
v 0.54368 -0.13196 0.11722
v -0.49137 -0.13227 0.26072
v -0.01364 -0.13196 0.55647
v -0.52085 -0.16607 0.18147
v -0.47824 -0.16596 0.27569
v -0.30950 -0.13387 0.45057
v 0.03950 -0.16450 -0.55411
v 0.23231 -0.16604 -0.50173
v -0.54658 -0.16420 -0.10031
v 0.52294 -0.16526 0.17437
v -0.11988 -0.16539 -0.53835
v 0.09052 -0.16679 -0.52734
v -0.20101 -0.16621 -0.51408
v -0.29456 -0.16623 -0.45707
v -0.44461 -0.16597 -0.32603
v 0.39436 -0.16584 -0.38695
v -0.48017 -0.16614 -0.27132
v -0.50516 -0.16591 -0.22082
v 0.49641 -0.16608 -0.24128
v 0.52457 -0.16858 -0.09457
v 0.53826 -0.16549 -0.12692
v -0.55119 -0.16633 -0.01261
v 0.54997 -0.16523 -0.01906
v -0.53644 -0.16811 0.00793
v 0.55066 -0.16545 0.01929
v -0.53877 -0.16631 0.11759
v -0.54797 -0.16533 0.06321
v 0.54774 -0.16627 0.05844
v 0.53198 -0.16563 0.12796
v 0.40025 -0.16642 0.37264
v 0.25645 -0.16580 0.48398
v -0.24356 -0.16607 0.49461
v 0.14239 -0.16619 0.53280
v -0.14864 -0.16602 0.53144
v 0.01165 -0.16726 0.53383
v 0.02248 -0.16611 0.55122
v 0.45708 -0.16797 -0.27694
v -0.47550 -0.16651 0.24434
v -0.14603 -0.16682 0.51167
v -0.35702 -0.16684 -0.39476
v -0.37383 -0.16735 -0.39284
v -0.50919 -0.17355 -0.14745
v 0.47967 -0.16669 0.25301
v 0.43533 -0.17858 0.29777
v 0.30329 -0.16867 0.44639
v -0.28676 -0.17024 0.44901
v 0.10114 -0.16953 0.52674
v 0.13350 -0.17462 -0.51383
v 0.34447 -0.16856 -0.40649
v 0.43086 -0.17425 -0.30989
v 0.01875 -0.17550 -0.31975
v -0.19350 -0.17550 -0.26600
v 0.19525 -0.17550 -0.26175
v -0.24450 -0.17550 -0.22000
v 0.26550 -0.17550 -0.19300
v -0.28450 -0.17550 -0.16400
v -0.31000 -0.17550 -0.10475
v 0.29200 -0.17550 -0.14850
v -0.31975 -0.17550 0.06162
v 0.32500 -0.17550 -0.02975
v -0.24950 -0.17550 0.20725
v 0.29900 -0.17550 0.12863
v 0.24350 -0.17550 0.22000
v -0.14900 -0.17550 0.29200
v 0.09700 -0.17550 0.30637
v 0.04873 -0.17463 -0.52808
v -0.04622 -0.16895 -0.53143
v 0.24018 -0.16883 -0.47727
v -0.33917 -0.18014 -0.40171
v 0.39614 -0.16735 -0.35710
v -0.14275 -0.17634 -0.30678
v 0.29070 -0.17636 -0.17298
v 0.52695 -0.17075 0.07552
v -0.50767 -0.17087 0.16854
v -0.12107 -0.17632 0.31561
v 0.06050 -0.17644 0.33030
v -0.43255 -0.16867 0.31465
v -0.22099 -0.17470 0.48376
v -0.09722 -0.17070 0.53029
v -0.15737 -0.17653 -0.50416
v 0.26459 -0.18157 -0.44857
v 0.31065 -0.17655 -0.42683
v 0.31903 -0.18111 -0.41068
v -0.46232 -0.17026 -0.26727
v 0.52993 -0.16800 -0.06893
v -0.19595 -0.17993 -0.49160
v 0.50534 -0.18164 -0.10768
v 0.48967 -0.17978 -0.19751
v -0.46538 -0.18823 -0.20813
v 0.47925 -0.19255 0.14158
v 0.49869 -0.17735 0.17393
v -0.49061 -0.18924 0.11909
v -0.33621 -0.17564 0.40973
v 0.28071 -0.17634 0.44599
v 0.24540 -0.18040 0.46258
v 0.03155 -0.18131 0.51728
v -0.10361 -0.18167 0.50539
v -0.04855 -0.18208 0.51461
v -0.05011 -0.18916 -0.34857
v 0.52452 -0.17713 0.04645
v 0.34556 -0.19497 0.11167
v 0.18899 -0.18818 0.30090
v -0.36005 -0.18945 0.03974
v -0.47002 -0.18606 0.20109
v 0.12990 -0.18904 -0.32669
v -0.25929 -0.19372 -0.25819
v -0.01565 -0.19699 -0.48207
v 0.12037 -0.18806 -0.49432
v -0.24166 -0.18891 -0.43739
v -0.46988 -0.19339 -0.15095
v 0.49254 -0.19353 -0.05273
v 0.45761 -0.19984 0.10651
v 0.39351 -0.19622 0.28900
v -0.41150 -0.19350 0.26700
v -0.39750 -0.19350 0.28900
v -0.39712 -0.19411 0.29309
v -0.38150 -0.19350 0.30900
v -0.38250 -0.19350 0.30900
v -0.36550 -0.19350 0.32900
v -0.34750 -0.19350 0.34800
v 0.30157 -0.19111 0.39732
v -0.33000 -0.19425 0.36735
v -0.07458 -0.19511 0.48784
v 0.42978 -0.18812 -0.26059
v -0.50542 -0.18742 0.04507
v -0.19471 -0.19425 0.30750
v -0.36676 -0.19455 0.32936
v -0.02516 -0.19013 0.35332
v 0.19092 -0.19294 0.46126
v -0.21104 -0.18639 0.46927
v -0.29265 -0.19360 -0.39731
v -0.47424 -0.19963 -0.00856
v -0.36994 -0.20005 0.29286
v 0.23866 -0.19901 -0.40480
v 0.39625 -0.19594 -0.28794
v -0.41201 -0.19922 -0.22953
v 0.33380 -0.19311 -0.15595
v -0.17899 -0.20029 0.44517
v 0.15624 -0.20309 0.43937
v -0.09929 -0.19856 -0.47164
v 0.13723 -0.20277 -0.44642
v 0.38293 -0.20013 -0.27483
v 0.46557 -0.20152 -0.09259
v -0.44194 -0.20343 0.15155
v -0.04014 -0.20019 0.47159
v -0.25966 -0.19995 -0.40397
v -0.44954 -0.20006 -0.13432
v 0.31599 -0.19994 0.35711
usemtl m000
f 802 807 736
f 18 20 21
f 19 21 24
f 22 2 8
f 9 48 17
f 84 68 33
f 63 62 22
f 62 72 22
f 64 65 57
f 58 119 84
f 142 128 159
f 108 109 156
f 150 151 233
f 131 132 149
f 148 149 150
f 94 130 162
f 152 96 162
f 139 138 157
f 158 157 165
f 160 129 142
f 95 151 132
f 130 94 131
f 140 107 139
f 120 122 145
f 114 118 117
f 937 970 963
f 962 967 960
f 967 956 958
f 959 957 973
f 955 954 984
f 56 81 79
f 40 82 81
f 41 80 82
f 41 78 80
f 52 76 78
f 55 74 76
f 55 73 74
f 49 75 73
f 49 77 75
f 12 79 77
f 119 58 111
f 923 889 910
f 88 109 108
f 178 112 114
f 97 98 134
f 141 105 107
f 168 88 112
f 115 112 178
f 127 126 125
f 152 99 133
f 140 139 158
f 96 94 162
f 130 131 148
f 132 151 150
f 113 143 169
f 123 93 42
f 84 90 68
f 123 42 68
f 90 123 68
f 20 4 24
f 17 18 19
f 901 966 943
f 42 45 37
f 905 968 966
f 905 942 968
f 804 800 728
f 902 941 942
f 733 806 804
f 900 977 941
f 893 945 977
f 891 939 945
f 741 814 811
f 891 946 939
f 794 818 814
f 897 943 946
f 755 820 818
f 754 815 820
f 788 793 815
f 738 807 810
f 730 800 802
f 800 804 803
f 804 806 808
f 806 811 808
f 811 814 812
f 814 818 816
f 818 820 819
f 820 815 813
f 815 793 813
f 793 810 809
f 944 932 984
f 954 944 984
f 957 955 973
f 810 807 809
f 807 802 805
f 979 963 985
f 802 800 801
f 729 728 760
f 731 729 760
f 975 983 982
f 733 731 762
f 948 975 974
f 766 733 764
f 786 766 764
f 790 786 764
f 971 980 986
f 791 790 768
f 787 791 768
f 739 787 770
f 741 739 772
f 958 956 955
f 959 958 957
f 743 741 772
f 960 959 959
f 962 960 973
f 745 743 773
f 747 745 773
f 794 747 776
f 749 794 776
f 751 749 778
f 753 751 779
f 792 753 779
f 964 951 983
f 975 964 983
f 755 792 781
f 757 755 783
f 758 757 783
f 756 758 783
f 754 756 784
f 752 754 784
f 750 752 782
f 789 750 780
f 788 789 780
f 748 788 780
f 963 970 978
f 746 748 777
f 744 746 777
f 742 744 775
f 740 742 774
f 738 740 774
f 927 930 951
f 737 738 771
f 736 737 771
f 735 736 769
f 734 735 769
f 926 948 947
f 732 734 767
f 730 732 765
f 759 730 765
f 727 759 763
f 785 727 761
f 728 785 760
f 936 938 937
f 919 938 936
f 691 649 591
f 593 691 591
f 884 934 953
f 931 884 953
f 625 660 624
f 923 928 964
f 921 923 948
f 932 864 965
f 914 864 932
f 944 914 932
f 582 682 631
f 726 715 654
f 937 918 970
f 935 887 936
f 884 870 934
f 652 725 579
f 860 925 927
f 922 889 921
f 583 634 584
f 619 583 584
f 620 619 586
f 633 620 588
f 591 633 588
f 593 591 592
f 651 593 592
f 635 651 594
f 624 635 597
f 625 624 597
f 636 625 599
f 638 636 599
f 627 638 602
f 640 627 602
f 609 640 605
f 628 609 607
f 612 628 607
f 641 612 610
f 669 641 610
f 630 669 613
f 655 630 615
f 632 655 615
f 656 632 618
f 631 656 618
f 582 631 617
f 581 582 616
f 654 581 616
f 629 654 614
f 608 629 614
f 580 608 611
f 653 580 611
f 603 653 606
f 626 603 604
f 637 626 604
f 579 637 604
f 652 579 600
f 623 652 600
f 578 623 596
f 650 578 595
f 577 650 595
f 622 577 595
f 587 622 590
f 621 587 589
f 576 621 589
f 634 576 585
f 925 863 865
f 652 664 659
f 864 866 862
f 878 844 914
f 877 910 856
f 908 848 889
f 705 640 676
f 179 159 831
f 593 663 724
f 685 723 686
f 688 685 686
f 692 688 690
f 674 692 694
f 658 674 694
f 173 175 821
f 697 658 695
f 659 697 695
f 666 659 699
f 725 666 700
f 661 725 700
f 667 661 703
f 639 667 703
f 163 143 179
f 184 163 181
f 710 639 708
f 679 710 708
f 185 184 235
f 182 185 183
f 726 679 711
f 715 726 711
f 670 715 714
f 671 670 714
f 682 671 714
f 684 682 718
f 683 684 720
f 672 683 721
f 681 672 719
f 662 681 717
f 680 662 716
f 668 680 716
f 678 668 713
f 160 159 143
f 144 169 143
f 677 678 712
f 676 677 709
f 170 120 184
f 125 170 184
f 705 676 709
f 127 125 184
f 126 127 184
f 704 705 706
f 171 126 182
f 675 704 706
f 660 675 702
f 665 660 701
f 109 168 176
f 156 109 176
f 663 665 698
f 164 103 156
f 724 663 698
f 101 164 173
f 691 724 696
f 134 173 233
f 162 150 233
f 649 691 693
f 657 649 693
f 722 657 689
f 155 154 174
f 673 722 687
f 166 165 137
f 723 673 687
f 843 235 846
f 537 505 462
f 833 183 235
f 841 176 177
f 824 175 828
f 826 174 825
f 830 159 137
f 512 490 481
f 554 571 474
f 839 843 846
f 508 493 470
f 515 469 468
f 507 467 506
f 829 828 841
f 827 824 828
f 835 821 824
f 823 825 822
f 459 422 426
f 423 459 426
f 461 423 428
f 862 830 849
f 462 461 431
f 464 462 431
f 466 464 434
f 872 839 846
f 516 466 437
f 480 516 437
f 483 480 437
f 484 483 439
f 486 484 439
f 471 486 440
f 473 471 442
f 488 473 444
f 489 488 444
f 494 489 447
f 851 834 847
f 476 494 447
f 477 476 450
f 855 826 823
f 478 477 451
f 479 478 451
f 425 479 453
f 491 425 453
f 648 646 501
f 456 491 455
f 647 648 503
f 490 456 455
f 481 490 454
f 645 647 502
f 475 481 452
f 643 645 500
f 474 475 452
f 448 474 449
f 642 643 496
f 487 448 446
f 644 642 495
f 472 487 445
f 646 644 497
f 485 472 445
f 424 485 443
f 799 798 646
f 470 424 441
f 916 799 648
f 915 916 647
f 469 470 441
f 468 469 441
f 797 915 647
f 467 468 438
f 796 797 645
f 465 467 438
f 463 465 436
f 911 796 643
f 433 463 435
f 482 433 435
f 795 911 642
f 513 482 432
f 912 795 644
f 460 513 429
f 458 460 429
f 798 912 646
f 457 458 427
f 422 457 427
f 799 916 798
f 916 915 798
f 915 797 798
f 798 797 795
f 482 513 514
f 796 911 797
f 912 798 795
f 203 200 252
f 200 202 252
f 202 251 237
f 251 205 257
f 205 256 257
f 256 259 238
f 259 260 241
f 260 210 241
f 210 230 242
f 230 212 242
f 212 265 244
f 527 494 570
f 265 214 244
f 214 231 250
f 231 218 267
f 218 221 267
f 221 223 246
f 223 271 247
f 271 275 274
f 275 277 274
f 277 229 276
f 229 278 248
f 458 457 564
f 278 227 272
f 492 565 530
f 227 273 270
f 519 492 532
f 273 226 270
f 514 519 532
f 226 224 269
f 506 514 534
f 224 268 245
f 507 506 536
f 268 232 245
f 515 507 536
f 232 219 266
f 508 515 539
f 219 216 266
f 521 508 541
f 216 215 243
f 493 521 543
f 215 264 263
f 522 493 543
f 264 211 263
f 509 522 546
f 211 262 240
f 510 509 549
f 262 261 239
f 526 510 550
f 554 526 550
f 261 207 258
f 571 554 552
f 207 249 258
f 558 571 552
f 249 254 255
f 512 558 556
f 254 206 253
f 518 512 559
f 206 204 253
f 563 518 559
f 204 203 252
f 188 201 186
f 575 563 561
f 574 575 561
f 208 188 186
f 528 574 562
f 573 528 560
f 213 208 191
f 572 573 560
f 511 572 560
f 220 213 192
f 570 511 557
f 527 570 555
f 222 220 194
f 525 527 553
f 228 222 196
f 524 525 551
f 523 524 551
f 199 228 197
f 569 523 548
f 544 569 548
f 225 199 198
f 542 544 545
f 517 542 545
f 217 225 198
f 568 517 545
f 520 568 540
f 193 217 195
f 537 520 540
f 209 193 195
f 505 537 538
f 567 505 538
f 189 209 190
f 566 567 535
f 529 566 535
f 201 189 190
f 504 529 533
f 564 504 531
f 565 564 531
f 200 201 188
f 188 251 202
f 205 188 208
f 350 365 368
f 208 210 260
f 210 208 213
f 210 213 230
f 265 213 220
f 220 231 214
f 218 220 222
f 223 228 271
f 271 228 275
f 228 277 275
f 228 229 277
f 229 228 199
f 199 227 278
f 273 199 225
f 224 225 217
f 268 217 232
f 216 217 193
f 193 264 215
f 264 193 209
f 209 211 264
f 262 209 261
f 381 380 382
f 342 381 382
f 207 209 189
f 355 342 385
f 365 355 385
f 206 189 201
f 368 365 388
f 369 368 390
f 418 369 390
f 279 341 318
f 344 418 390
f 341 287 320
f 396 344 393
f 287 289 322
f 358 396 394
f 289 291 322
f 360 358 397
f 291 350 324
f 353 360 397
f 350 343 324
f 361 353 400
f 343 294 326
f 354 361 400
f 294 356 284
f 374 354 403
f 356 298 284
f 376 374 405
f 298 352 328
f 420 376 405
f 352 300 330
f 411 420 408
f 300 346 330
f 421 411 410
f 363 421 410
f 346 303 332
f 379 363 410
f 303 304 332
f 364 379 413
f 304 305 334
f 415 364 413
f 305 307 334
f 378 415 414
f 377 378 414
f 307 309 336
f 340 377 412
f 309 311 336
f 362 340 409
f 311 314 312
f 375 362 409
f 314 316 312
f 373 375 407
f 316 315 337
f 372 373 407
f 315 313 337
f 419 372 406
f 313 310 335
f 338 419 402
f 310 308 335
f 398 338 401
f 308 306 333
f 357 398 399
f 306 347 333
f 371 357 399
f 370 371 399
f 347 339 331
f 351 370 395
f 339 302 331
f 345 351 395
f 302 301 329
f 367 345 391
f 301 359 329
f 366 367 391
f 359 299 285
f 349 366 389
f 299 297 327
f 417 349 387
f 297 295 296
f 416 417 384
f 295 293 283
f 348 416 383
f 293 323 283
f 380 348 383
f 323 292 282
f 292 290 281
f 290 280 281
f 280 288 317
f 288 286 318
f 286 279 318
f 357 297 299
f 381 342 341
f 302 338 301
f 419 338 302
f 347 372 339
f 308 362 306
f 356 358 298
f 364 313 315
f 316 314 364
f 352 353 300
f 421 363 311
f 729 804 728
f 731 804 729
f 733 804 731
f 766 806 733
f 786 806 766
f 790 806 786
f 790 811 806
f 791 811 790
f 787 811 791
f 741 811 739
f 743 814 741
f 745 814 743
f 747 814 745
f 794 814 747
f 749 818 794
f 751 818 749
f 753 818 751
f 792 818 753
f 755 818 792
f 757 820 755
f 758 820 757
f 756 820 758
f 754 820 756
f 752 815 754
f 750 815 752
f 789 815 750
f 788 815 789
f 748 793 788
f 746 793 748
f 744 810 746
f 742 810 744
f 740 810 742
f 738 810 740
f 737 807 738
f 736 807 737
f 735 802 736
f 734 802 735
f 732 802 734
f 730 802 732
f 759 800 730
f 727 800 759
f 785 800 727
f 728 800 785
f 30 28 29
f 19 18 21
f 9 19 24
f 57 25 39
f 14 51 32
f 34 33 16
f 35 59 54
f 35 54 6
f 6 54 13
f 13 54 31
f 31 28 30
f 54 28 31
f 28 50 29
f 26 50 11
f 23 63 22
f 9 2 48
f 649 633 591
f 18 48 20
f 17 48 18
f 593 651 663
f 20 48 4
f 635 624 660
f 636 704 625
f 641 668 612
f 630 681 669
f 5 51 27
f 51 58 32
f 581 654 670
f 726 608 580
f 623 664 652
f 43 44 33
f 33 68 42
f 42 46 45
f 28 66 50
f 11 66 63
f 22 47 2
f 25 70 51
f 32 84 43
f 43 84 44
f 621 685 587
f 692 622 587
f 658 650 674
f 44 84 33
f 658 578 650
f 661 637 725
f 639 710 653
f 580 679 726
f 42 60 46
f 684 656 682
f 35 45 59
f 54 112 67
f 677 609 678
f 67 71 28
f 54 67 28
f 28 88 66
f 673 634 583
f 50 66 11
f 66 86 63
f 22 72 47
f 2 47 61
f 2 61 48
f 48 61 57
f 61 64 57
f 57 65 25
f 51 70 58
f 42 69 60
f 45 118 59
f 59 118 112
f 459 504 422
f 483 542 517
f 569 471 473
f 489 494 527
f 490 518 456
f 475 512 481
f 72 85 47
f 470 493 424
f 70 110 58
f 60 69 121
f 45 60 118
f 108 86 66
f 62 83 72
f 47 85 61
f 61 85 64
f 508 469 515
f 521 493 508
f 64 102 65
f 102 155 65
f 510 487 509
f 558 512 475
f 70 65 110
f 574 425 575
f 159 128 167
f 160 142 159
f 573 477 528
f 572 511 477
f 473 524 523
f 145 144 163
f 544 484 569
f 544 542 484
f 120 145 163
f 182 147 171
f 161 146 147
f 134 135 173
f 233 151 134
f 148 131 149
f 162 148 150
f 152 133 96
f 172 152 162
f 153 136 172
f 154 153 174
f 165 138 137
f 158 139 157
f 166 158 165
f 142 113 128
f 143 129 160
f 279 380 381
f 360 353 352
f 361 354 303
f 314 379 364
f 415 378 313
f 359 398 357
f 345 295 351
f 348 380 279
f 103 104 156
f 131 95 132
f 138 105 137
f 107 105 138
f 139 107 138
f 166 107 140
f 169 92 113
f 286 288 348
f 280 349 417
f 292 323 345
f 104 106 108
f 302 339 419
f 364 315 316
f 305 376 420
f 151 95 134
f 304 354 376
f 96 95 94
f 291 365 350
f 287 342 289
f 341 279 381
f 154 155 153
f 117 118 146
f 249 189 254
f 207 189 249
f 261 209 207
f 211 209 262
f 224 217 268
f 227 199 273
f 229 199 278
f 223 222 228
f 212 213 265
f 259 208 260
f 256 208 259
f 205 208 256
f 145 90 119
f 125 123 122
f 125 124 123
f 118 114 116
f 168 109 88
f 103 164 86
f 164 101 86
f 133 85 97
f 133 99 85
f 99 136 100
f 153 102 100
f 153 155 102
f 797 911 795
f 126 93 124
f 114 112 116
f 83 62 101
f 135 83 101
f 853 854 823
f 851 853 823
f 859 856 827
f 841 861 829
f 870 883 836
f 885 870 836
f 871 885 836
f 919 843 839
f 845 837 842
f 866 844 830
f 862 867 830
f 3 23 22
f 822 825 172
f 55 50 26
f 7 37 35
f 34 15 43
f 92 119 111
f 90 84 119
f 123 90 122
f 124 93 123
f 126 121 93
f 89 60 121
f 826 137 234
f 116 112 118
f 112 88 67
f 108 87 88
f 836 180 161
f 106 103 108
f 101 62 86
f 97 72 98
f 97 85 72
f 860 859 861
f 919 875 876
f 91 65 155
f 857 882 858
f 12 77 49
f 877 856 859
f 879 874 872
f 49 73 1
f 1 73 55
f 852 907 847
f 848 852 847
f 55 76 52
f 52 78 53
f 53 78 41
f 41 82 40
f 40 81 56
f 876 873 843
f 56 79 12
f 58 110 111
f 948 906 888
f 923 910 928
f 937 919 918
f 89 118 60
f 108 66 87
f 86 108 103
f 98 72 83
f 100 64 85
f 102 64 100
f 886 918 872
f 879 919 874
f 875 887 873
f 959 967 958
f 887 871 873
f 986 929 971
f 931 869 883
f 928 859 860
f 953 961 988
f 928 877 859
f 973 955 984
f 848 908 852
f 920 854 853
f 881 857 855
f 889 856 910
f 888 852 908
f 10 12 49
f 968 979 985
f 1 38 49
f 929 882 924
f 889 922 908
f 928 910 890
f 877 928 890
f 940 913 931
f 41 6 53
f 933 918 886
f 944 917 914
f 14 15 12
f 35 41 40
f 30 52 53
f 50 55 52
f 40 56 15
f 3 1 55
f 15 56 12
f 10 39 12
f 854 909 880
f 906 907 852
f 884 883 870
f 919 887 875
f 918 919 879
f 887 935 871
f 888 906 852
f 920 926 854
f 926 909 854
f 931 913 869
f 909 881 880
f 935 934 871
f 914 917 878
f 5 12 39
f 881 924 857
f 51 5 39
f 25 51 39
f 4 10 24
f 24 10 49
f 9 24 49
f 869 913 868
f 9 49 38
f 2 9 38
f 8 2 38
f 8 38 1
f 8 1 22
f 3 22 1
f 3 55 23
f 110 65 91
f 23 55 11
f 11 55 26
f 29 50 52
f 87 66 88
f 29 52 30
f 30 53 31
f 31 53 13
f 13 53 6
f 121 69 93
f 35 6 41
f 7 35 40
f 7 40 36
f 16 36 40
f 16 40 34
f 34 40 15
f 43 15 14
f 14 12 27
f 5 27 12
f 884 931 883
f 890 910 877
f 922 921 908
f 105 91 155
f 99 100 85
f 146 118 89
f 147 89 121
f 167 111 110
f 167 110 91
f 141 91 105
f 153 100 136
f 133 97 95
f 95 97 134
f 98 83 135
f 146 89 147
f 909 924 881
f 147 121 171
f 171 121 126
f 126 124 125
f 145 119 144
f 144 119 92
f 92 111 113
f 113 111 167
f 167 91 141
f 96 133 95
f 135 134 98
f 104 103 106
f 115 168 112
f 117 178 114
f 120 125 122
f 145 122 90
f 169 144 92
f 128 113 167
f 166 141 107
f 155 137 105
f 131 94 95
f 161 178 117
f 170 125 120
f 143 113 129
f 142 129 113
f 167 141 166
f 166 140 158
f 157 138 165
f 172 136 99
f 172 99 152
f 162 130 148
f 149 132 150
f 984 978 973
f 156 104 108
f 178 168 115
f 966 985 978
f 117 146 161
f 966 968 985
f 979 941 988
f 941 953 988
f 941 952 953
f 941 983 952
f 71 67 88
f 42 93 69
f 977 982 983
f 977 981 982
f 86 62 63
f 981 946 980
f 946 986 980
f 986 946 976
f 946 987 976
f 946 984 987
f 984 972 987
f 25 65 70
f 943 978 984
f 28 71 88
f 59 112 54
f 46 60 45
f 968 942 979
f 32 58 84
f 942 941 979
f 977 983 941
f 977 945 981
f 48 57 4
f 945 939 981
f 939 946 981
f 36 33 42
f 943 984 946
f 27 51 14
f 10 57 39
f 4 57 10
f 21 20 24
f 9 17 19
f 899 901 943
f 943 966 978
f 11 63 23
f 901 904 966
f 904 905 966
f 37 45 35
f 7 42 37
f 36 42 7
f 16 33 36
f 43 33 34
f 14 32 43
f 905 903 942
f 903 902 942
f 902 900 941
f 900 898 977
f 898 895 977
f 895 893 977
f 893 891 945
f 787 739 811
f 891 892 946
f 892 894 946
f 894 896 946
f 896 897 946
f 897 899 943
f 985 963 978
f 793 746 810
f 981 974 982
f 803 804 808
f 808 811 812
f 812 814 816
f 816 818 817
f 974 975 982
f 817 818 819
f 980 947 981
f 819 820 813
f 813 793 809
f 984 932 972
f 978 970 973
f 809 807 805
f 805 802 801
f 979 969 963
f 988 969 979
f 801 800 803
f 983 951 952
f 762 731 760
f 764 733 762
f 981 948 974
f 768 790 764
f 976 929 986
f 770 787 768
f 987 950 976
f 972 950 987
f 772 739 770
f 954 956 944
f 955 956 954
f 957 958 955
f 959 959 957
f 773 743 772
f 960 967 959
f 973 960 959
f 970 962 973
f 776 747 773
f 778 749 776
f 961 969 988
f 779 751 778
f 952 930 953
f 951 930 952
f 781 792 779
f 783 755 781
f 947 948 981
f 784 756 783
f 971 949 980
f 782 752 784
f 976 950 929
f 972 965 950
f 932 965 972
f 780 750 782
f 956 933 944
f 967 933 956
f 962 933 967
f 970 933 962
f 777 748 780
f 936 937 963
f 775 744 777
f 969 936 963
f 961 935 969
f 774 742 775
f 771 738 774
f 964 927 951
f 769 736 771
f 948 923 975
f 767 734 769
f 980 926 947
f 949 926 980
f 765 732 767
f 971 909 949
f 929 909 971
f 763 759 765
f 965 929 950
f 761 727 763
f 760 785 761
f 619 657 583
f 620 657 619
f 620 649 657
f 633 649 620
f 969 935 936
f 961 934 935
f 953 934 961
f 930 931 953
f 930 940 931
f 625 675 660
f 927 940 930
f 638 704 636
f 638 640 704
f 964 928 927
f 627 640 638
f 975 923 964
f 628 678 609
f 612 668 628
f 926 907 948
f 909 926 949
f 655 681 630
f 632 672 655
f 656 672 632
f 965 882 929
f 631 682 656
f 933 917 944
f 581 670 582
f 970 918 933
f 629 726 654
f 608 726 629
f 938 919 937
f 936 887 919
f 603 639 653
f 870 885 934
f 626 639 603
f 626 637 639
f 579 725 637
f 927 925 940
f 928 860 927
f 921 889 923
f 577 674 650
f 888 908 921
f 622 674 577
f 948 888 921
f 622 692 674
f 907 906 948
f 920 907 926
f 576 685 621
f 634 723 576
f 929 924 909
f 586 619 584
f 965 864 882
f 588 620 586
f 844 845 842
f 933 846 837
f 592 591 588
f 933 872 846
f 872 874 839
f 919 876 843
f 594 651 592
f 843 873 838
f 597 635 594
f 599 625 597
f 868 865 841
f 863 861 841
f 865 863 841
f 602 638 599
f 605 640 602
f 607 609 605
f 610 612 607
f 854 881 823
f 855 857 826
f 613 669 610
f 615 630 613
f 618 632 615
f 617 631 618
f 934 885 871
f 616 582 617
f 614 654 616
f 611 608 614
f 606 653 611
f 604 603 606
f 907 851 847
f 601 579 604
f 600 579 601
f 598 623 600
f 862 866 867
f 866 864 844
f 596 623 598
f 864 914 844
f 578 664 623
f 917 837 845
f 595 578 596
f 917 933 837
f 590 622 595
f 589 587 590
f 585 576 589
f 883 869 850
f 868 940 865
f 925 861 863
f 940 925 865
f 925 860 861
f 584 634 585
f 685 576 723
f 688 587 685
f 889 848 856
f 692 587 688
f 907 853 851
f 697 578 658
f 664 578 697
f 659 664 697
f 666 652 659
f 882 849 858
f 725 652 666
f 882 864 849
f 864 862 849
f 667 637 661
f 639 637 667
f 878 845 844
f 878 917 845
f 679 580 710
f 580 653 710
f 886 872 933
f 918 879 872
f 670 654 715
f 875 873 876
f 671 582 670
f 682 582 671
f 683 672 684
f 672 656 684
f 913 940 868
f 681 655 672
f 662 669 681
f 680 641 662
f 641 669 662
f 668 641 680
f 678 628 668
f 676 609 677
f 640 609 676
f 920 853 907
f 704 640 705
f 880 881 854
f 675 625 704
f 924 882 857
f 665 635 660
f 663 635 665
f 831 159 830
f 663 651 635
f 831 181 179
f 691 593 724
f 846 181 831
f 583 657 722
f 838 183 833
f 673 583 722
f 161 183 838
f 723 634 673
f 836 161 838
f 832 180 836
f 832 177 180
f 690 688 686
f 694 692 690
f 828 175 176
f 695 658 694
f 821 175 824
f 822 233 173
f 699 659 695
f 172 233 822
f 825 174 172
f 700 666 699
f 826 234 174
f 703 661 700
f 179 143 159
f 707 639 703
f 708 639 707
f 181 163 179
f 235 184 181
f 183 185 235
f 711 679 708
f 161 182 183
f 714 715 711
f 177 161 180
f 718 682 714
f 720 684 718
f 175 156 176
f 721 683 720
f 719 672 721
f 172 162 233
f 717 681 719
f 716 662 717
f 234 137 174
f 713 668 716
f 159 166 137
f 712 678 713
f 163 144 143
f 184 120 163
f 709 677 712
f 185 126 184
f 706 705 709
f 182 126 185
f 702 675 706
f 161 147 182
f 701 660 702
f 177 178 161
f 177 168 178
f 176 168 177
f 698 665 701
f 175 164 156
f 173 164 175
f 696 724 698
f 173 135 101
f 693 691 696
f 174 153 172
f 689 657 693
f 687 722 689
f 137 155 174
f 686 723 687
f 159 167 166
f 422 504 457
f 529 504 459
f 423 529 459
f 461 566 423
f 846 235 181
f 462 505 461
f 464 537 462
f 843 833 235
f 466 537 464
f 466 516 537
f 483 517 480
f 484 542 483
f 486 569 484
f 471 569 486
f 832 841 177
f 841 828 176
f 527 525 473
f 488 527 473
f 489 527 488
f 476 511 494
f 821 822 173
f 477 511 476
f 478 528 477
f 479 528 478
f 425 574 479
f 491 575 425
f 456 563 491
f 826 830 137
f 830 842 831
f 474 571 475
f 448 554 474
f 448 487 554
f 472 509 487
f 485 509 472
f 843 838 833
f 485 424 509
f 469 508 470
f 467 515 468
f 465 506 467
f 463 506 465
f 829 827 828
f 433 506 463
f 433 482 506
f 827 835 824
f 460 492 513
f 458 492 460
f 821 834 822
f 834 823 822
f 428 423 426
f 823 826 825
f 430 461 428
f 840 830 826
f 431 461 430
f 867 866 830
f 844 842 830
f 434 464 431
f 842 837 831
f 837 846 831
f 437 466 434
f 874 919 839
f 873 871 838
f 439 483 437
f 871 836 838
f 836 883 832
f 440 486 439
f 883 841 832
f 883 850 841
f 850 869 841
f 869 868 841
f 442 471 440
f 829 861 827
f 861 859 827
f 444 473 442
f 856 835 827
f 856 848 835
f 835 848 821
f 848 847 821
f 447 489 444
f 847 834 821
f 851 823 834
f 450 476 447
f 451 477 450
f 881 855 823
f 857 858 826
f 858 849 826
f 849 840 826
f 453 479 451
f 840 849 830
f 501 646 499
f 455 491 453
f 503 648 501
f 454 490 455
f 502 647 503
f 452 481 454
f 500 645 502
f 498 643 500
f 449 474 452
f 496 643 498
f 446 448 449
f 495 642 496
f 445 487 446
f 497 644 495
f 499 646 497
f 443 485 445
f 648 799 646
f 441 424 443
f 647 916 648
f 438 468 441
f 645 797 647
f 643 796 645
f 436 465 438
f 435 463 436
f 642 911 643
f 432 482 435
f 644 795 642
f 429 513 432
f 646 912 644
f 427 458 429
f 426 422 427
f 492 458 565
f 513 492 519
f 514 513 519
f 506 482 514
f 515 467 507
f 522 424 493
f 509 424 522
f 252 202 237
f 526 487 510
f 554 487 526
f 237 251 257
f 558 475 571
f 257 256 238
f 518 490 512
f 238 259 241
f 563 456 518
f 575 491 563
f 241 210 242
f 528 479 574
f 572 477 573
f 242 212 244
f 570 494 511
f 244 214 250
f 524 473 525
f 250 231 267
f 569 473 523
f 267 221 246
f 568 516 517
f 246 223 247
f 516 480 517
f 520 516 568
f 537 516 520
f 247 271 274
f 567 461 505
f 566 461 567
f 274 277 276
f 529 423 566
f 276 229 248
f 564 457 504
f 565 458 564
f 248 278 272
f 272 227 270
f 532 492 530
f 270 226 269
f 534 514 532
f 269 224 245
f 536 506 534
f 245 232 266
f 539 515 536
f 541 508 539
f 266 216 243
f 543 521 541
f 243 215 263
f 546 522 543
f 547 509 546
f 263 211 240
f 549 509 547
f 240 262 239
f 550 510 549
f 239 261 258
f 552 554 550
f 258 249 255
f 556 558 552
f 255 254 253
f 559 512 556
f 253 204 236
f 561 563 559
f 236 204 252
f 562 574 561
f 560 528 562
f 191 208 186
f 192 213 191
f 557 511 560
f 555 570 557
f 194 220 192
f 553 527 555
f 196 222 194
f 551 525 553
f 197 228 196
f 548 523 551
f 198 199 197
f 545 544 548
f 195 217 198
f 540 568 545
f 538 537 540
f 535 567 538
f 190 209 195
f 533 529 535
f 187 201 190
f 186 201 187
f 200 203 201
f 531 504 533
f 530 565 531
f 202 200 188
f 205 251 188
f 355 289 342
f 365 289 355
f 369 350 368
f 369 343 350
f 418 343 369
f 344 343 418
f 396 356 344
f 358 356 396
f 360 352 358
f 212 230 213
f 361 303 353
f 303 346 353
f 214 265 220
f 374 376 354
f 218 231 220
f 309 307 420
f 411 309 420
f 221 218 222
f 411 421 309
f 223 221 222
f 379 314 363
f 415 313 364
f 377 313 378
f 377 340 313
f 362 308 340
f 375 347 362
f 373 347 375
f 372 347 373
f 419 339 372
f 226 273 225
f 224 226 225
f 398 359 338
f 371 297 357
f 370 297 371
f 219 232 217
f 351 295 370
f 216 219 217
f 367 292 345
f 215 216 193
f 366 292 367
f 349 292 366
f 416 348 417
f 348 288 417
f 385 342 382
f 388 365 385
f 206 254 189
f 204 206 201
f 390 368 388
f 203 204 201
f 392 344 390
f 393 344 392
f 318 341 320
f 320 287 322
f 394 396 393
f 397 358 394
f 322 291 324
f 400 353 397
f 324 343 326
f 403 354 400
f 326 294 284
f 405 374 403
f 284 298 328
f 408 420 405
f 328 352 330
f 410 411 408
f 330 346 332
f 413 379 410
f 332 304 334
f 414 415 413
f 334 307 336
f 412 377 414
f 409 340 412
f 336 311 312
f 407 375 409
f 312 316 337
f 406 372 407
f 404 419 406
f 402 419 404
f 337 313 335
f 401 338 402
f 335 308 333
f 399 398 401
f 333 347 331
f 395 370 399
f 331 302 329
f 391 345 395
f 329 359 285
f 389 366 391
f 285 299 327
f 387 349 389
f 327 297 296
f 386 417 387
f 296 295 325
f 384 417 386
f 325 295 283
f 383 416 384
f 283 323 282
f 382 380 383
f 286 348 279
f 282 292 321
f 280 417 288
f 321 292 281
f 290 349 280
f 292 349 290
f 281 280 319
f 319 280 317
f 293 345 323
f 295 345 293
f 317 288 318
f 297 370 295
f 359 357 299
f 341 342 287
f 301 338 359
f 289 365 291
f 306 362 347
f 343 344 294
f 310 340 308
f 294 344 356
f 313 340 310
f 298 358 352
f 311 363 314
f 300 353 346
f 309 421 311
f 303 354 304
f 305 420 307
f 304 376 305
v -0.45250 -0.43350 -0.08950
v -0.45250 -0.37250 -0.08950
v -0.19050 -0.43350 -0.08583
v -0.19050 -0.37250 -0.08583
v -0.15150 -0.43350 -0.08167
v -0.15150 -0.43350 -0.04400
v -0.15150 -0.37250 -0.08167
v -0.15150 -0.37250 -0.04400
v -0.12950 -0.02450 -0.07900
v -0.14690 -0.02450 -0.03520
v -0.14770 -0.02450 0.02870
v -0.13488 -0.02450 0.06775
v -0.12917 -0.00721 -0.07731
v -0.14386 -0.00825 -0.02436
v -0.14299 -0.00203 0.02950
v -0.13372 -0.00188 0.06594
v -0.08950 -0.43350 -0.08950
v -0.07110 -0.42750 0.10700
v -0.07174 -0.42742 0.12376
v -0.08950 -0.37250 -0.08950
v -0.06950 -0.38550 0.10700
v -0.07214 -0.38559 0.12486
v -0.07800 -0.02450 -0.12850
v -0.10393 -0.02450 -0.10929
v -0.11150 -0.02450 0.10350
v -0.08425 -0.02450 0.12575
v -0.08013 -0.00085 -0.12676
v -0.09425 -0.00179 -0.09223
v -0.09003 0.00352 -0.02898
v -0.09686 0.01201 0.02656
v -0.08685 -0.00329 0.07597
v -0.08547 -0.00650 0.12458
v -0.07757 0.04960 -0.02949
v -0.07834 0.05125 0.02547
v -0.07461 0.11032 -0.02674
v -0.07528 0.11082 0.02165
v -0.05210 -0.42730 0.10700
v -0.04153 -0.42753 0.12411
v -0.05236 -0.38564 0.10700
v -0.04161 -0.38561 0.12444
v -0.03570 -0.02450 -0.14660
v -0.02706 -0.02450 0.14811
v -0.03556 -0.00731 -0.13719
v -0.02979 0.00697 -0.09125
v -0.06350 0.03150 -0.05900
v -0.04399 0.00683 0.08022
v -0.03274 -0.00457 0.13623
v -0.03450 0.05105 -0.07490
v -0.06183 0.05125 -0.05667
v -0.03996 0.04987 0.07193
v -0.02836 0.11642 -0.06941
v -0.04775 0.12847 -0.04222
v -0.05114 0.13013 0.03396
v -0.03221 0.11912 0.06569
v 0.04450 -0.42700 0.10750
v 0.02968 -0.42759 0.12764
v 0.04450 -0.38600 0.10750
v 0.03021 -0.38555 0.12724
v 0.02330 -0.02450 -0.14900
v 0.01810 -0.02450 0.14920
v 0.02346 -0.00890 -0.13829
v 0.01628 0.00703 -0.09091
v 0.03205 0.00797 0.08810
v 0.01713 -0.00224 0.14042
v 0.01874 0.05004 -0.07995
v 0.02137 0.05070 0.07937
v 0.01472 0.12007 -0.07054
v 0.03168 0.13163 -0.04671
v 0.03018 0.13124 0.03660
v 0.01781 0.12226 0.06826
v 0.05710 -0.42750 0.10700
v 0.06236 -0.42750 0.12262
v 0.05828 -0.38550 0.10700
v 0.06176 -0.38571 0.12323
v 0.07539 -0.02450 -0.12978
v 0.09750 -0.02450 -0.11167
v 0.07850 -0.02450 0.12860
v 0.07411 -0.00127 -0.12840
v 0.07729 0.00345 -0.09195
v 0.08589 0.00531 -0.03130
v 0.08837 0.01830 0.02625
v 0.06994 0.00220 0.06966
v 0.06508 -0.00798 0.12896
v 0.05300 0.05125 -0.06475
v 0.07483 0.04981 -0.03329
v 0.07771 0.05125 0.02547
v 0.05608 0.04920 0.06233
v 0.05209 0.10781 -0.06385
v 0.06560 0.11780 -0.03239
v 0.06749 0.11832 0.02597
v 0.05539 0.10793 0.06049
v 0.14650 -0.43350 -0.07300
v 0.14650 -0.43350 -0.03900
v 0.14650 -0.37250 -0.07300
v 0.14650 -0.37250 -0.03900
v 0.11679 -0.02450 -0.09529
v 0.14630 -0.02450 -0.03520
v 0.14720 -0.02450 0.02870
v 0.12960 -0.02450 0.07490
v 0.11918 -0.00686 -0.08212
v 0.13048 -0.00818 -0.02214
v 0.13543 -0.00203 0.02932
v 0.12507 -0.00373 0.07390
v 0.11000 -0.00250 0.11000
v 0.30481 -0.49194 -0.08350
v 0.31450 -0.49000 -0.04950
v 0.30680 -0.44773 -0.08450
v 0.30833 -0.44600 -0.04783
v 0.30831 -0.37250 -0.08675
v 0.29550 -0.37250 -0.04400
v 0.33203 -0.49203 -0.07840
v 0.35731 -0.48888 0.02131
v 0.37075 -0.48625 0.06750
v 0.33117 -0.44767 -0.07989
v 0.35974 -0.45031 0.01995
v 0.37283 -0.45217 0.06633
v 0.35450 -0.43650 0.32100
v 0.32683 -0.37250 -0.08667
v 0.35450 -0.37350 0.32100
v 0.39357 -0.48223 0.01507
v 0.41537 -0.49212 0.08700
v 0.40993 -0.48564 0.13286
v 0.43421 -0.47607 0.18729
v 0.43450 -0.43650 -0.06700
v 0.41550 -0.43350 -0.02950
v 0.39270 -0.45570 0.01740
v 0.41221 -0.44821 0.08786
v 0.41490 -0.45190 0.13440
v 0.43483 -0.46083 0.18667
v 0.43450 -0.37350 -0.06700
v 0.41550 -0.37250 -0.02950
v 0.46944 -0.48483 0.15133
v 0.46441 -0.49035 0.18911
v 0.46650 -0.45419 0.15115
v 0.46708 -0.44648 0.19193
v 0.49450 -0.48450 0.19600
v 0.52950 -0.43350 -0.02800
v 0.52950 -0.43350 -0.00100
v 0.49450 -0.45450 0.19600
v 0.52950 -0.37250 -0.02800
v 0.52950 -0.37250 -0.00100
v 0.56963 -0.43337 -0.06700
v 0.56963 -0.43337 0.32100
v 0.56962 -0.37637 -0.06700
v 0.56962 -0.37637 0.32100
usemtl m001
f 1051 1052 1071
f 1054 1051 1075
f 1035 1051 1034
f 1051 1054 1038
f 1019 1038 1022
f 1032 1037 1036
f 1068 1073 1074
f 1055 1039 1056
f 1040 1023 1041
f 1078 1077 1057
f 1036 1053 1050
f 1017 1016 1002
f 1035 1034 1020
f 1078 1074 1073
f 1073 1072 1076
f 1072 1053 1055
f 1053 1036 1039
f 1067 1064 1084
f 1039 1036 1037
f 1037 1021 1023
f 1021 1022 1024
f 1024 1022 1038
f 1042 1038 1054
f 1058 1054 1075
f 1075 1074 1078
f 1032 1050 1049
f 1036 1050 1032
f 1019 1003 1004
f 998 1002 1003
f 1001 1002 998
f 1012 1016 1001
f 1015 1016 1012
f 1029 1031 1015
f 1049 1031 1029
f 1063 1066 1049
f 1088 1067 1064
f 1064 1067 1066
f 1085 1089 1088
f 1090 1089 1085
f 1087 1091 1090
f 1065 1071 1091
f 1052 1071 1065
f 1030 1035 1052
f 1020 1035 1030
f 1019 1020 1014
f 1004 1019 1013
f 1003 1004 1000
f 1018 1017 1002
f 1050 1067 1066
f 1089 1068 1069
f 1088 1066 1067
f 1074 1075 1070
f 1022 1021 1017
f 1021 1037 1017
f 1016 1033 1032
f 1017 1033 1016
f 1053 1072 1067
f 1072 1073 1067
f 1042 1058 1057
f 1040 1041 1057
f 1039 1040 1056
f 1056 1040 1057
f 1016 1001 1002
f 1041 1024 1042
f 1023 1024 1041
f 1075 1051 1070
f 1070 1069 1074
f 1034 1051 1038
f 1033 1017 1037
f 1067 1050 1053
f 1068 1067 1073
f 1069 1068 1074
f 1041 1042 1057
f 1057 1077 1056
f 1088 1068 1089
f 1056 1077 1076
f 1020 1034 1019
f 1077 1078 1073
f 1077 1073 1076
f 1070 1051 1071
f 1071 1091 1070
f 1076 1072 1055
f 1055 1053 1039
f 1088 1067 1084
f 1040 1039 1037
f 1015 1016 1032
f 1040 1037 1023
f 1023 1021 1024
f 1004 1018 1003
f 1042 1024 1038
f 1058 1042 1054
f 1079 1058 1075
f 1079 1075 1078
f 1031 1032 1049
f 1088 1067 1068
f 1091 1071 1092
f 999 998 1003
f 997 1001 998
f 997 1012 1001
f 1011 1015 1012
f 1011 1029 1015
f 1047 1049 1029
f 1047 1063 1049
f 1090 1069 1091
f 1084 1088 1064
f 1063 1064 1066
f 1091 1069 1070
f 1084 1085 1088
f 1086 1090 1085
f 1086 1087 1090
f 1052 1051 1035
f 1087 1065 1091
f 1048 1052 1065
f 1048 1030 1052
f 1003 1019 1018
f 1014 1020 1030
f 1013 1019 1014
f 1000 1004 1013
f 999 1003 1000
f 1003 1018 1002
f 1031 1015 1032
f 1066 1049 1050
f 1019 1018 1004
f 1090 1089 1069
f 1019 1022 1018
f 1018 1022 1017
f 1033 1037 1032
f 1034 1038 1019
f 1056 1076 1055
f 1057 1058 1079
f 1078 1057 1079
f 1109 1101 1100
f 1121 1111 1110
f 1109 1110 1101
f 1111 1121 1123
f 1111 1123 1117
f 1111 1117 1116
f 1110 1116 1104
f 1101 1104 1103
f 1117 1123 1116
f 1116 1115 1104
f 1104 1115 1103
f 1116 1122 1115
f 1115 1114 1103
f 1123 1121 1122
f 1103 1114 1100
f 1122 1121 1120
f 1122 1120 1109
f 1115 1109 1108
f 1114 1108 1100
f 1120 1110 1109
f 1108 1109 1100
f 1121 1124 1127
f 1124 1121 1123
f 1095 1102 1106
f 1102 1095 1097
f 1093 1099 1102
f 1099 1093 1095
f 1120 1121 1123
f 1099 1102 1096
f 1096 1102 1095
f 1099 1094 1093
f 1094 1096 1095
f 1028 1026 1007
f 1060 1046 1062
f 1061 1046 1045
f 1007 1006 1009
f 1006 1025 1027
f 1025 1026 1028
f 1059 1060 1062
f 1043 1059 1061
f 1044 1043 1045
f 1044 1026 1028
f 1026 1044 1046
f 1009 1027 1028
f 1061 1062 1046
f 1025 1006 1007
f 1005 1008 1097
f 1008 1005 1095
f 1113 1119 1128
f 1119 1113 1126
f 1083 1081 1096
f 1081 1080 1096
f 1080 1082 1098
f 1082 1083 1098
f 1096 1098 1119
f 1098 1096 1113
f 993 995 1082
f 995 996 1083
f 996 994 1081
f 994 993 1080
f 991 992 995
f 992 991 994
f 989 990 992
f 991 992 990
f 1129 1126 1125
f 1133 1131 1130
f 1131 1105 1112
f 1107 1133 1132
f 1133 1132 1130
f 1131 1130 1112
f 1107 1118 1132
f 1110 1111 1116
f 1101 1110 1104
f 1100 1101 1103
f 1116 1123 1122
f 1115 1122 1109
f 1114 1115 1108
f 1120 1121 1110
f 1123 1121 1127
f 1127 1124 1123
f 1097 1095 1106
f 1106 1102 1097
f 1095 1093 1102
f 1102 1099 1095
f 1122 1120 1123
f 1094 1099 1096
f 1093 1094 1095
f 1010 1028 1007
f 1060 1044 1046
f 1043 1044 1059
f 1010 1007 1009
f 1009 1006 1027
f 1027 1025 1028
f 1061 1059 1062
f 1045 1043 1061
f 1046 1044 1045
f 1046 1044 1028
f 1028 1026 1046
f 1010 1009 1028
f 1026 1025 1007
f 1060 1059 1044
f 1095 1005 1097
f 1097 1008 1095
f 1125 1113 1128
f 1128 1119 1129
f 1129 1119 1126
f 1126 1113 1125
f 1098 1083 1096
f 1096 1080 1098
f 1113 1096 1119
f 1119 1098 1113
f 1080 993 1082
f 1082 995 1083
f 1083 996 1081
f 1081 994 1080
f 993 991 995
f 995 992 996
f 996 992 994
f 994 991 993
f 991 989 992
f 989 991 990
f 1128 1129 1125
v -0.31738 0.08379 -0.02494
v -0.31763 0.08385 0.01717
v -0.32306 0.16052 -0.04459
v -0.32360 0.16118 0.03431
v -0.31850 0.15836 0.08900
v -0.24503 -0.04618 -0.13605
v -0.27200 -0.04500 -0.05662
v -0.27381 -0.04488 0.04262
v -0.24531 -0.04579 0.13381
v -0.23616 -0.02801 -0.12396
v -0.24721 -0.01913 -0.04825
v -0.24767 -0.01776 0.03916
v -0.23727 -0.02792 0.11826
v -0.23498 0.09864 -0.20558
v -0.26875 0.09423 -0.14520
v -0.29957 0.09583 -0.05523
v -0.30106 0.09566 0.04450
v -0.27268 0.09427 0.13688
v -0.23874 0.09917 0.20060
v -0.24364 0.16336 -0.21375
v -0.28765 0.16534 -0.14381
v -0.31064 0.17208 -0.06219
v -0.31108 0.17269 0.05559
v -0.29106 0.16523 0.13760
v -0.24699 0.16418 0.20924
v -0.16700 -0.04533 -0.22358
v -0.21770 -0.04330 -0.17050
v -0.21825 -0.04262 0.16900
v -0.16869 -0.04565 0.22258
v -0.15390 -0.02576 -0.21203
v -0.18126 -0.00743 -0.14996
v -0.17883 0.00543 -0.05297
v -0.17744 0.00560 0.04634
v -0.18549 -0.00594 0.14161
v -0.15436 -0.02198 0.20614
v -0.13643 0.08800 -0.28636
v -0.18024 0.09503 -0.24559
v -0.21875 0.07175 -0.18775
v -0.18341 0.09386 0.24213
v -0.14196 0.09781 0.28157
v -0.14447 0.16230 -0.29136
v -0.18837 0.16647 -0.25981
v -0.19565 0.16637 0.25511
v -0.15159 0.16363 0.28655
v -0.08583 -0.04533 -0.26558
v -0.09024 -0.04424 0.26316
v -0.06200 -0.04950 0.27875
v -0.08254 -0.01209 -0.22904
v -0.08876 0.00553 -0.13987
v -0.12588 0.00362 -0.09206
v -0.12950 0.00017 0.08600
v -0.08900 0.00524 0.13190
v -0.08325 -0.01148 0.22688
v -0.06200 0.00850 0.27875
v -0.08109 0.09899 -0.29868
v -0.10248 0.08273 -0.27521
v -0.10928 0.07256 0.26761
v -0.08070 0.09676 0.29651
v -0.08298 0.16446 -0.31140
v -0.08247 0.16498 0.31126
v 0.00050 -0.04950 -0.28500
v 0.00300 -0.04394 -0.27717
v -0.00117 -0.04200 0.27250
v 0.00444 -0.04644 0.28122
v 0.00050 0.00850 -0.28500
v 0.00551 -0.01156 -0.24126
v 0.00962 0.00482 -0.15654
v 0.01110 0.00443 0.15401
v 0.00570 -0.01086 0.23854
v 0.00607 -0.00879 0.28071
v 0.00632 0.09528 -0.30583
v 0.02300 0.06750 -0.28275
v 0.00959 0.09385 0.30488
v 0.01054 0.16552 -0.32137
v 0.01137 0.16498 0.32205
v 0.09286 -0.04518 -0.26248
v 0.09933 -0.04471 0.25954
v 0.07100 -0.04950 0.27650
v 0.09608 -0.01537 -0.22668
v 0.10688 0.00514 -0.14583
v 0.13674 0.00437 -0.07302
v 0.13963 0.00419 0.06765
v 0.10383 0.00556 0.13490
v 0.09922 -0.01376 0.22283
v 0.07100 0.00850 0.27650
v 0.09076 0.09908 -0.29659
v 0.11953 0.08702 -0.27305
v 0.12846 0.08102 0.26459
v 0.09648 0.09775 0.29286
v 0.10211 0.16482 -0.30524
v 0.14239 0.17417 -0.28089
v 0.10419 0.16498 0.30446
v 0.17000 -0.04532 -0.22091
v 0.22439 -0.04424 -0.16363
v 0.22389 -0.04394 0.16400
v 0.17302 -0.04545 0.21871
v 0.17060 -0.02850 -0.20797
v 0.19432 -0.01283 -0.14443
v 0.20613 0.00052 -0.04979
v 0.20688 0.00100 0.03971
v 0.19805 -0.01173 0.13663
v 0.16876 -0.02584 0.20261
v 0.19391 0.09585 -0.23589
v 0.23257 0.08072 -0.17926
v 0.23242 0.07219 0.17008
v 0.19811 0.09550 0.23196
v 0.15388 0.09213 0.27712
v 0.15614 0.15973 -0.28950
v 0.20147 0.16578 -0.24916
v 0.20759 0.16615 0.24456
v 0.16525 0.16190 0.28090
v 0.25717 -0.04728 -0.11633
v 0.27130 -0.04498 -0.05684
v 0.27293 -0.04471 0.04261
v 0.25817 -0.04675 0.11167
v 0.24929 -0.02388 -0.10792
v 0.25952 -0.02867 -0.04482
v 0.26045 -0.02815 0.03908
v 0.25117 -0.02764 0.10425
v 0.24622 0.09650 -0.19739
v 0.27077 0.09562 -0.14262
v 0.30071 0.09479 -0.05272
v 0.30234 0.09479 0.04286
v 0.27395 0.09518 0.13539
v 0.25011 0.10196 0.19025
v 0.25359 0.16212 -0.20389
v 0.28714 0.16493 -0.14419
v 0.31727 0.16536 -0.05128
v 0.31866 0.16539 0.04153
v 0.29159 0.16491 0.13536
v 0.25714 0.16313 0.19771
usemtl m002
f 1254 1237 1236
f 1253 1254 1236
f 1188 1189 1170
f 1169 1188 1170
f 1134 1149 1150
f 1202 1201 1185
f 1186 1202 1185
f 1212 1200 1213
f 1178 1181 1163
f 1246 1250 1249
f 1245 1249 1231
f 1160 1164 1143
f 1229 1235 1234
f 1248 1252 1251
f 1227 1231 1230
f 1226 1230 1212
f 1180 1187 1203
f 1194 1198 1199
f 1167 1185 1166
f 1141 1145 1146
f 1179 1186 1187
f 1210 1217 1235
f 1247 1251 1250
f 1162 1168 1186
f 1189 1188 1169
f 1221 1222 1239
f 1163 1164 1181
f 1180 1202 1186
f 1199 1194 1195
f 1146 1142 1161
f 1226 1230 1231
f 1231 1227 1226
f 1212 1226 1209
f 1251 1247 1246
f 1145 1166 1165
f 1166 1145 1146
f 1145 1141 1142
f 1249 1250 1245
f 1248 1252 1234
f 1139 1144 1143
f 1143 1144 1164
f 1247 1251 1252
f 1217 1216 1201
f 1234 1215 1216
f 1164 1165 1183
f 1164 1183 1182
f 1181 1182 1200
f 1241 1242 1223
f 1229 1228 1234
f 1234 1228 1248
f 1137 1156 1157
f 1137 1136 1155
f 1250 1246 1245
f 1145 1146 1142
f 1167 1166 1146
f 1251 1250 1246
f 1144 1145 1141
f 1145 1144 1140
f 1212 1213 1231
f 1245 1227 1231
f 1136 1155 1156
f 1161 1142 1162
f 1167 1161 1162
f 1199 1195 1178
f 1202 1180 1197
f 1203 1202 1197
f 1199 1209 1195
f 1186 1162 1179
f 1138 1137 1157
f 1186 1179 1180
f 1234 1217 1235
f 1163 1178 1159
f 1211 1210 1217
f 1149 1134 1135
f 1237 1253 1236
f 1189 1169 1170
f 1168 1172 1190
f 1251 1256 1255
f 1234 1238 1257
f 1228 1234 1252
f 1217 1221 1239
f 1218 1222 1221
f 1211 1218 1217
f 1186 1190 1191
f 1146 1151 1172
f 1142 1146 1168
f 1145 1150 1151
f 1144 1149 1150
f 1220 1219 1204
f 1171 1147 1148
f 1205 1204 1189
f 1188 1204 1207
f 1206 1208 1225
f 1204 1219 1223
f 1198 1204 1205
f 1206 1191 1193
f 1199 1205 1189
f 1195 1199 1181
f 1220 1236 1242
f 1203 1206 1222
f 1197 1203 1218
f 1220 1224 1223
f 1191 1173 1177
f 1212 1220 1205
f 1209 1212 1199
f 1173 1172 1177
f 1172 1176 1177
f 1199 1205 1204
f 1195 1199 1198
f 1187 1191 1206
f 1230 1236 1220
f 1152 1158 1176
f 1231 1237 1236
f 1150 1137 1156
f 1252 1257 1256
f 1235 1239 1238
f 1256 1262 1261
f 1257 1263 1262
f 1143 1148 1149
f 1258 1264 1263
f 1164 1171 1148
f 1239 1243 1264
f 1249 1254 1237
f 1152 1151 1157
f 1250 1255 1254
f 1151 1150 1156
f 1163 1170 1171
f 1159 1163 1164
f 1150 1149 1136
f 1148 1154 1155
f 1181 1189 1170
f 1148 1147 1153
f 1236 1253 1259
f 1254 1260 1259
f 1255 1261 1260
f 1239 1240 1244
f 1222 1225 1244
f 1170 1169 1174
f 1188 1192 1174
f 1244 1243 1225
f 1135 1134 1150
f 1155 1136 1154
f 1240 1239 1222
f 1191 1173 1172
f 1245 1246 1249
f 1139 1160 1143
f 1247 1248 1251
f 1226 1227 1230
f 1197 1180 1203
f 1167 1186 1185
f 1168 1186 1167
f 1231 1213 1214
f 1232 1231 1214
f 1166 1185 1184
f 1142 1141 1146
f 1180 1179 1187
f 1229 1210 1235
f 1246 1247 1250
f 1237 1254 1253
f 1196 1203 1202
f 1199 1178 1181
f 1168 1167 1162
f 1167 1146 1161
f 1140 1141 1145
f 1144 1145 1165
f 1143 1164 1139
f 1160 1139 1164
f 1139 1140 1144
f 1248 1247 1252
f 1234 1233 1215
f 1217 1234 1216
f 1181 1164 1182
f 1212 1199 1200
f 1202 1217 1201
f 1199 1181 1200
f 1164 1144 1165
f 1224 1223 1242
f 1156 1137 1155
f 1159 1160 1164
f 1140 1144 1141
f 1137 1136 1156
f 1217 1202 1197
f 1197 1211 1217
f 1257 1239 1258
f 1150 1149 1135
f 1186 1168 1190
f 1250 1251 1255
f 1252 1234 1257
f 1248 1228 1252
f 1235 1217 1239
f 1217 1218 1221
f 1187 1186 1191
f 1168 1146 1172
f 1162 1142 1168
f 1146 1145 1151
f 1145 1144 1150
f 1190 1172 1191
f 1238 1239 1257
f 1172 1151 1152
f 1171 1170 1147
f 1189 1204 1188
f 1205 1220 1204
f 1192 1188 1207
f 1222 1206 1225
f 1207 1204 1223
f 1199 1198 1205
f 1208 1206 1193
f 1181 1199 1189
f 1178 1195 1181
f 1224 1220 1242
f 1218 1203 1222
f 1211 1197 1218
f 1219 1220 1223
f 1193 1191 1177
f 1199 1212 1205
f 1198 1199 1204
f 1194 1195 1198
f 1203 1187 1206
f 1212 1230 1220
f 1172 1152 1176
f 1230 1231 1236
f 1251 1252 1256
f 1136 1149 1155
f 1234 1235 1238
f 1255 1256 1261
f 1256 1257 1262
f 1144 1143 1149
f 1257 1258 1263
f 1143 1164 1148
f 1258 1239 1264
f 1231 1249 1237
f 1158 1152 1157
f 1249 1250 1254
f 1157 1151 1156
f 1164 1163 1171
f 1137 1150 1136
f 1149 1148 1155
f 1163 1181 1170
f 1154 1148 1153
f 1242 1236 1259
f 1253 1254 1259
f 1254 1255 1260
f 1147 1170 1153
f 1153 1170 1175
f 1243 1239 1244
f 1240 1222 1244
f 1175 1170 1174
f 1169 1188 1174
v -0.48800 -0.45150 0.29825
v -0.49183 -0.40650 -0.01622
v -0.49450 -0.40650 0.29900
v -0.48800 -0.36050 0.29825
v -0.42250 -0.51225 -0.01525
v -0.42336 -0.51507 0.29914
v -0.43417 -0.46150 -0.08033
v -0.46231 -0.46415 -0.01708
v -0.46871 -0.47443 0.29921
v -0.45314 -0.40895 -0.08036
v -0.45940 -0.39690 -0.02160
v -0.43375 -0.35050 -0.08075
v -0.46359 -0.34573 -0.01664
v -0.46871 -0.33786 0.29921
v -0.42250 -0.30017 -0.01567
v -0.42336 -0.29764 0.29914
v -0.39585 -0.51421 -0.01494
v -0.38623 -0.51995 0.29891
v -0.39338 -0.48175 -0.08063
v -0.39412 -0.48500 -0.02250
v -0.37850 -0.40650 -0.08200
v -0.37850 -0.40650 -0.01000
v -0.37850 -0.40650 0.29850
v -0.39550 -0.33093 -0.08029
v -0.39417 -0.32733 -0.02250
v -0.39585 -0.29774 -0.01512
v -0.38623 -0.29277 0.29891
v -0.33540 -0.50990 -0.01530
v -0.33394 -0.51361 0.29900
v -0.33379 -0.46893 -0.08043
v -0.31260 -0.47402 -0.01895
v -0.29617 -0.48817 0.29900
v -0.30417 -0.40628 -0.08056
v -0.30000 -0.39850 -0.02263
v -0.33736 -0.34093 -0.08043
v -0.31521 -0.33274 -0.01865
v -0.29617 -0.32406 0.29900
v -0.33561 -0.30272 -0.01533
v -0.33394 -0.29906 0.29900
v -0.27410 -0.44930 -0.01530
v -0.27117 -0.45050 0.29900
v -0.26613 -0.40650 -0.01588
v -0.26239 -0.40650 0.29900
v -0.27420 -0.36310 -0.01520
v -0.27117 -0.36172 0.29900
v -0.17301 0.01081 -0.12180
v -0.17229 0.01078 -0.09618
v -0.19034 0.01041 -0.00427
v -0.18725 0.01228 0.02798
v -0.17292 0.01089 0.11113
v -0.16977 0.04414 -0.11926
v -0.16985 0.04383 -0.09994
v -0.18827 0.04605 0.00004
v -0.16987 0.04418 0.11106
v -0.14058 0.01085 -0.12637
v -0.14213 0.01066 -0.09207
v -0.16201 0.01123 -0.00000
v -0.15214 0.01101 0.08528
v -0.13887 0.01070 0.11578
v -0.14585 0.04729 -0.12096
v -0.14649 0.04642 -0.09652
v -0.15450 0.03561 0.08650
v -0.14591 0.04722 0.11114
v -0.06050 -0.44604 -0.18200
v -0.05920 -0.44950 -0.15426
v -0.06050 -0.44441 0.10809
v -0.06050 -0.39762 -0.18200
v -0.06119 -0.40312 -0.15492
v -0.06050 -0.40369 0.11769
v -0.06050 -0.36441 -0.18200
v -0.05993 -0.36064 -0.15338
v -0.06050 -0.36599 0.10807
v -0.06124 0.01070 -0.19261
v -0.05959 0.01067 -0.16038
v -0.05850 0.01050 0.15200
v -0.06053 0.01078 0.17985
v -0.05833 0.04661 -0.18691
v -0.05831 0.04519 -0.16370
v -0.05847 0.04614 0.17874
v -0.00480 0.01155 -0.17971
v -0.01117 0.01050 -0.17133
v -0.00576 0.01101 0.17900
v 0.05681 -0.44604 -0.18200
v 0.05820 -0.44950 -0.15422
v 0.05678 -0.44441 0.10809
v 0.05663 -0.39762 -0.18200
v 0.05612 -0.40312 -0.15492
v 0.05674 -0.40369 0.11769
v 0.05677 -0.36441 -0.18200
v 0.05750 -0.36064 -0.15343
v 0.05676 -0.36599 0.10807
v 0.06008 0.01078 -0.19260
v 0.05804 0.01060 -0.16026
v 0.05750 0.01050 0.15200
v 0.05930 0.01071 0.17966
v 0.05783 0.04668 -0.18689
v 0.05810 0.04503 -0.16357
v 0.05789 0.04606 0.17881
v 0.14000 0.01082 -0.12658
v 0.14141 0.01072 -0.09197
v 0.16111 0.01108 0.00000
v 0.15112 0.01098 0.08528
v 0.13842 0.01069 0.11578
v 0.14505 0.04718 -0.12116
v 0.14564 0.04628 -0.09638
v 0.15371 0.03581 0.08645
v 0.14521 0.04723 0.11093
v 0.17248 0.01067 -0.12157
v 0.17158 0.01052 -0.09618
v 0.18881 0.01050 -0.00413
v 0.18627 0.01209 0.02811
v 0.17237 0.01075 0.11129
v 0.16902 0.04454 -0.11912
v 0.16917 0.04367 -0.09999
v 0.18762 0.04603 0.00000
v 0.16900 0.04439 0.11124
v 0.31050 -0.50850 -0.08682
v 0.31549 -0.47704 -0.07482
v 0.33541 -0.47150 -0.01909
v 0.34770 -0.47150 0.02500
v 0.36975 -0.47150 -0.00381
v 0.39094 -0.47150 0.05678
v 0.40308 -0.47169 0.09837
v 0.47085 -0.50715 0.19615
v 0.48620 -0.45980 -0.00440
v 0.42806 -0.47167 0.08350
v 0.42450 -0.47150 0.08800
v 0.47071 -0.49686 0.19730
v 0.48057 -0.35683 -0.00467
v 0.46585 -0.34959 0.19389
v 0.47043 -0.35263 0.21900
v 0.51116 -0.46373 -0.00440
v 0.51610 -0.34939 -0.00954
v 0.51029 -0.36136 0.02707
v 0.49096 -0.35230 0.19643
usemtl m003
f 1372 1363 1373
f 1373 1363 1364
f 1373 1378 1369
f 1372 1363 1368
f 1378 1368 1369
f 1314 1318 1327
f 1322 1326 1327
f 1314 1323 1327
f 1320 1319 1311
f 1311 1319 1310
f 1325 1311 1320
f 1319 1324 1325
f 1316 1310 1311
f 1319 1310 1315
f 1376 1375 1366
f 1371 1376 1367
f 1367 1376 1380
f 1341 1338 1337
f 1337 1338 1342
f 1356 1360 1361
f 1356 1357 1361
f 1356 1344 1357
f 1341 1337 1342
f 1364 1369 1368
f 1373 1372 1377
f 1367 1371 1370
f 1370 1367 1366
f 1366 1367 1376
f 1316 1325 1324
f 1326 1322 1323
f 1364 1373 1369
f 1377 1372 1368
f 1378 1377 1368
f 1323 1322 1327
f 1316 1311 1325
f 1320 1319 1325
f 1315 1310 1316
f 1315 1324 1319
f 1380 1376 1371
f 1380 1371 1367
f 1337 1338 1344
f 1342 1338 1341
f 1357 1344 1345
f 1344 1338 1345
f 1363 1364 1368
f 1378 1373 1377
f 1314 1323 1322
f 1314 1322 1313
f 1327 1326 1323
f 1315 1316 1324
f 1385 1384 1383
f 1387 1391 1390
f 1383 1385 1382
f 1390 1387 1386
f 1393 1397 1398
f 1347 1350 1352
f 1350 1347 1349
f 1350 1353 1355
f 1353 1350 1352
f 1328 1331 1333
f 1331 1328 1330
f 1331 1334 1336
f 1334 1331 1333
f 1272 1269 1281
f 1277 1290 1279
f 1272 1286 1275
f 1281 1286 1272
f 1292 1286 1281
f 1295 1286 1292
f 1304 1286 1295
f 1306 1286 1304
f 1308 1286 1306
f 1300 1286 1308
f 1302 1286 1300
f 1290 1286 1302
f 1277 1286 1290
f 1275 1286 1277
f 1272 1266 1275
f 1266 1277 1275
f 1277 1290 1289
f 1290 1302 1300
f 1300 1308 1298
f 1308 1306 1298
f 1306 1304 1295
f 1292 1281 1284
f 1295 1284 1283
f 1298 1295 1294
f 1300 1298 1297
f 1289 1300 1299
f 1277 1289 1288
f 1275 1277 1276
f 1272 1275 1274
f 1284 1272 1271
f 1283 1271 1285
f 1271 1274 1285
f 1274 1276 1285
f 1276 1288 1285
f 1288 1299 1285
f 1299 1297 1285
f 1297 1294 1285
f 1294 1283 1285
f 1282 1287 1293
f 1273 1287 1282
f 1267 1287 1273
f 1278 1287 1267
f 1291 1287 1278
f 1303 1287 1291
f 1301 1287 1303
f 1309 1287 1301
f 1307 1287 1309
f 1305 1287 1307
f 1296 1287 1305
f 1293 1287 1296
f 1267 1278 1268
f 1273 1282 1270
f 1385 1386 1384
f 1349 1347 1352
f 1352 1350 1349
f 1352 1350 1355
f 1355 1353 1352
f 1330 1328 1333
f 1333 1331 1330
f 1333 1331 1336
f 1336 1334 1333
f 1289 1290 1300
f 1298 1306 1295
f 1295 1292 1284
f 1284 1281 1272
f 1294 1295 1283
f 1297 1298 1294
f 1299 1300 1297
f 1288 1289 1299
f 1276 1277 1288
f 1274 1275 1276
f 1271 1272 1274
f 1283 1284 1271
f 1265 1273 1267
f 1280 1291 1278
v -0.47717 -0.46350 -0.00767
v -0.47900 -0.47350 0.01400
v -0.47775 -0.47225 0.25650
v -0.48507 -0.42421 -0.01171
v -0.50150 -0.40650 0.01400
v -0.50000 -0.40650 0.25650
v -0.48321 -0.43021 0.29071
v -0.47790 -0.35550 -0.00980
v -0.47900 -0.33950 0.01400
v -0.47775 -0.34025 0.25650
v -0.47950 -0.36450 0.29067
v -0.42550 -0.51950 0.01400
v -0.42550 -0.51950 0.23900
v -0.43579 -0.49793 -0.01171
v -0.42450 -0.51650 0.27400
v -0.43825 -0.49525 0.29075
v -0.45617 -0.32817 -0.01233
v -0.45617 -0.32883 0.29033
v -0.42125 -0.30275 -0.01075
v -0.42550 -0.29250 0.01400
v -0.42500 -0.29400 0.25650
v -0.42050 -0.30483 0.29033
v -0.37850 -0.52350 -0.00600
v -0.35500 -0.52450 0.01400
v -0.36283 -0.52483 0.25067
v -0.35421 -0.51121 -0.01171
v -0.33250 -0.51650 0.27400
v -0.35450 -0.51064 0.29086
v -0.37850 -0.40650 -0.01300
v -0.37850 -0.40650 0.29200
v -0.33750 -0.30750 -0.01300
v -0.33750 -0.30750 0.29200
v -0.35712 -0.29850 -0.01075
v -0.35500 -0.28800 0.01400
v -0.35525 -0.28950 0.25650
v -0.35750 -0.30067 0.29050
v -0.29500 -0.47933 -0.01017
v -0.27800 -0.47350 0.01400
v -0.27950 -0.47225 0.25650
v -0.30100 -0.48350 0.29075
v -0.27100 -0.42212 -0.01163
v -0.25550 -0.40650 0.01400
v -0.25700 -0.40650 0.25650
v -0.27393 -0.43021 0.29071
v -0.28737 -0.34537 -0.01075
v -0.27800 -0.33950 0.01400
v -0.27950 -0.34025 0.25650
v -0.28913 -0.34637 0.29062
v -0.05900 -0.45325 -0.13700
v -0.05900 -0.45325 -0.10200
v -0.05994 -0.46339 -0.04058
v -0.05900 -0.44330 -0.13700
v -0.05900 -0.44330 -0.10200
v -0.06094 -0.43208 -0.03998
v -0.05900 -0.36058 -0.13700
v -0.05900 -0.36058 -0.10200
v -0.05949 -0.36264 -0.03939
v 0.05800 -0.45325 -0.13700
v 0.05800 -0.45325 -0.10200
v 0.07754 -0.46334 -0.03969
v 0.05800 -0.44330 -0.13700
v 0.05800 -0.44330 -0.10200
v 0.07514 -0.43206 -0.03997
v 0.05800 -0.36058 -0.13700
v 0.05800 -0.36058 -0.10200
v 0.07624 -0.36330 -0.04104
v 0.44802 -0.43950 0.19010
v 0.45650 -0.44400 0.22750
v 0.44533 -0.36583 0.18833
v 0.45450 -0.36570 0.22650
v 0.50870 -0.41730 -0.01635
v 0.50777 -0.41757 0.01620
v 0.48980 -0.43950 0.18796
v 0.48050 -0.44207 0.22714
v 0.50638 -0.36494 -0.01887
v 0.50372 -0.36528 0.02033
v 0.49168 -0.36585 0.18571
v 0.48050 -0.36575 0.22737
v 0.53550 -0.44300 -0.04900
v 0.53550 -0.44300 0.04100
v 0.53550 -0.36800 -0.04900
v 0.53550 -0.36800 0.04100
usemtl m009
f 1468 1477 1476
f 1466 1473 1477
f 1473 1472 1476
f 1466 1472 1473
f 1476 1472 1466
f 1468 1476 1469
f 1469 1476 1477
f 1467 1473 1472
f 1466 1467 1472
f 1470 1471 1475
f 1471 1470 1474
f 1475 1481 1480
f 1481 1475 1474
f 1471 1479 1478
f 1479 1471 1470
f 1464 1461 1460
f 1461 1458 1457
f 1458 1461 1460
f 1461 1464 1463
f 1462 1453 1456
f 1459 1450 1453
f 1453 1462 1465
f 1450 1459 1462
f 1455 1452 1451
f 1452 1449 1448
f 1449 1452 1451
f 1452 1455 1454
f 1413 1400 1403
f 1435 1431 1447
f 1432 1444 1430
f 1444 1428 1430
f 1430 1428 1432
f 1432 1428 1418
f 1418 1428 1416
f 1416 1428 1407
f 1407 1428 1403
f 1403 1428 1413
f 1413 1428 1425
f 1425 1428 1436
f 1436 1428 1440
f 1440 1428 1444
f 1413 1425 1422
f 1418 1416 1407
f 1436 1440 1441
f 1440 1444 1445
f 1444 1432 1433
f 1432 1418 1419
f 1418 1407 1408
f 1407 1403 1404
f 1403 1400 1401
f 1400 1413 1411
f 1413 1422 1423
f 1422 1425 1423
f 1425 1436 1437
f 1411 1423 1424
f 1401 1411 1412
f 1404 1401 1402
f 1408 1404 1405
f 1419 1408 1409
f 1433 1419 1420
f 1445 1433 1434
f 1441 1445 1446
f 1437 1441 1442
f 1423 1437 1438
f 1402 1412 1414
f 1402 1414 1415
f 1405 1402 1406
f 1409 1405 1406
f 1420 1409 1417
f 1434 1420 1421
f 1446 1434 1435
f 1442 1446 1447
f 1438 1442 1443
f 1426 1438 1439
f 1424 1426 1427
f 1414 1424 1427
f 1435 1429 1431
f 1421 1429 1435
f 1431 1429 1447
f 1417 1429 1421
f 1410 1429 1417
f 1447 1429 1443
f 1406 1429 1410
f 1443 1429 1439
f 1415 1429 1406
f 1439 1429 1427
f 1427 1429 1415
f 1468 1466 1477
f 1477 1473 1476
f 1468 1476 1466
f 1474 1470 1475
f 1475 1471 1474
f 1474 1475 1480
f 1480 1481 1474
f 1470 1471 1478
f 1478 1479 1470
f 1463 1464 1460
f 1460 1461 1457
f 1457 1458 1460
f 1460 1461 1463
f 1465 1462 1456
f 1462 1459 1453
f 1456 1453 1465
f 1453 1450 1462
f 1454 1455 1451
f 1451 1452 1448
f 1448 1449 1451
f 1451 1452 1454
f 1437 1436 1441
f 1441 1440 1445
f 1445 1444 1433
f 1433 1432 1419
f 1419 1418 1408
f 1408 1407 1404
f 1404 1403 1401
f 1401 1400 1411
f 1411 1413 1423
f 1423 1425 1437
f 1412 1411 1424
f 1402 1401 1412
f 1405 1404 1402
f 1409 1408 1405
f 1420 1419 1409
f 1434 1433 1420
f 1446 1445 1434
f 1442 1441 1446
f 1438 1437 1442
f 1424 1423 1438
f 1426 1424 1438
f 1414 1412 1424
f 1406 1402 1415
f 1410 1409 1406
f 1417 1409 1410
f 1421 1420 1417
f 1435 1434 1421
f 1447 1446 1435
f 1443 1442 1447
f 1439 1438 1443
f 1427 1426 1439
f 1415 1414 1427
